%TF.GenerationSoftware,KiCad,Pcbnew,(6.0.1)*%
%TF.CreationDate,2022-11-25T01:31:12-06:00*%
%TF.ProjectId,NavBoard_Hardware,4e617642-6f61-4726-945f-486172647761,rev?*%
%TF.SameCoordinates,Original*%
%TF.FileFunction,Copper,L4,Bot*%
%TF.FilePolarity,Positive*%
%FSLAX46Y46*%
G04 Gerber Fmt 4.6, Leading zero omitted, Abs format (unit mm)*
G04 Created by KiCad (PCBNEW (6.0.1)) date 2022-11-25 01:31:12*
%MOMM*%
%LPD*%
G01*
G04 APERTURE LIST*
G04 Aperture macros list*
%AMRoundRect*
0 Rectangle with rounded corners*
0 $1 Rounding radius*
0 $2 $3 $4 $5 $6 $7 $8 $9 X,Y pos of 4 corners*
0 Add a 4 corners polygon primitive as box body*
4,1,4,$2,$3,$4,$5,$6,$7,$8,$9,$2,$3,0*
0 Add four circle primitives for the rounded corners*
1,1,$1+$1,$2,$3*
1,1,$1+$1,$4,$5*
1,1,$1+$1,$6,$7*
1,1,$1+$1,$8,$9*
0 Add four rect primitives between the rounded corners*
20,1,$1+$1,$2,$3,$4,$5,0*
20,1,$1+$1,$4,$5,$6,$7,0*
20,1,$1+$1,$6,$7,$8,$9,0*
20,1,$1+$1,$8,$9,$2,$3,0*%
G04 Aperture macros list end*
%TA.AperFunction,ComponentPad*%
%ADD10R,1.800000X1.800000*%
%TD*%
%TA.AperFunction,ComponentPad*%
%ADD11C,1.800000*%
%TD*%
%TA.AperFunction,ComponentPad*%
%ADD12C,6.000000*%
%TD*%
%TA.AperFunction,ComponentPad*%
%ADD13RoundRect,0.250500X-0.499500X0.499500X-0.499500X-0.499500X0.499500X-0.499500X0.499500X0.499500X0*%
%TD*%
%TA.AperFunction,ComponentPad*%
%ADD14C,1.500000*%
%TD*%
%TA.AperFunction,ComponentPad*%
%ADD15C,2.500000*%
%TD*%
%TA.AperFunction,ComponentPad*%
%ADD16C,1.524000*%
%TD*%
%TA.AperFunction,SMDPad,CuDef*%
%ADD17RoundRect,0.237500X0.344715X-0.008839X-0.008839X0.344715X-0.344715X0.008839X0.008839X-0.344715X0*%
%TD*%
%TA.AperFunction,ComponentPad*%
%ADD18R,1.600000X1.600000*%
%TD*%
%TA.AperFunction,ComponentPad*%
%ADD19C,1.600000*%
%TD*%
%TA.AperFunction,ComponentPad*%
%ADD20R,1.300000X1.300000*%
%TD*%
%TA.AperFunction,ComponentPad*%
%ADD21C,1.300000*%
%TD*%
%TA.AperFunction,SMDPad,CuDef*%
%ADD22RoundRect,0.237500X0.008839X0.344715X-0.344715X-0.008839X-0.008839X-0.344715X0.344715X0.008839X0*%
%TD*%
%TA.AperFunction,ComponentPad*%
%ADD23O,3.000000X5.100000*%
%TD*%
%TA.AperFunction,ViaPad*%
%ADD24C,0.800000*%
%TD*%
%TA.AperFunction,Conductor*%
%ADD25C,0.800000*%
%TD*%
%TA.AperFunction,Conductor*%
%ADD26C,0.261112*%
%TD*%
%TA.AperFunction,Conductor*%
%ADD27C,0.350000*%
%TD*%
G04 APERTURE END LIST*
D10*
%TO.P,U2,1,Vi*%
%TO.N,+12V*%
X81480000Y-68087500D03*
D11*
%TO.P,U2,2,GND*%
%TO.N,GND*%
X81480000Y-70627500D03*
%TO.P,U2,3,Vo*%
%TO.N,+5V*%
X81480000Y-73167500D03*
%TD*%
D12*
%TO.P,H3,1,1*%
%TO.N,GND*%
X153300000Y-83100000D03*
%TD*%
%TO.P,H2,1,1*%
%TO.N,GND*%
X153300000Y-58000000D03*
%TD*%
%TO.P,H1,1,1*%
%TO.N,GND*%
X61300000Y-58000000D03*
%TD*%
D13*
%TO.P,J2,1*%
%TO.N,/ETHERNET_TX+*%
X70425000Y-66100000D03*
D14*
%TO.P,J2,2*%
%TO.N,Net-(C1-Pad1)*%
X72965000Y-67370000D03*
%TO.P,J2,3*%
%TO.N,/ETHERNET_TX-*%
X70425000Y-68640000D03*
%TO.P,J2,4*%
%TO.N,/ETHERNET_RX+*%
X72965000Y-69910000D03*
%TO.P,J2,5*%
%TO.N,Net-(C1-Pad1)*%
X70425000Y-71180000D03*
%TO.P,J2,6*%
%TO.N,/ETHERNET_RX-*%
X72965000Y-72450000D03*
%TO.P,J2,7*%
%TO.N,unconnected-(J2-Pad7)*%
X70425000Y-73720000D03*
%TO.P,J2,8*%
%TO.N,GND*%
X72965000Y-74990000D03*
%TO.P,J2,9*%
X58995000Y-64220000D03*
%TO.P,J2,10*%
%TO.N,/ETHERNET_LED*%
X60695000Y-66760000D03*
%TO.P,J2,11*%
%TO.N,unconnected-(J2-Pad11)*%
X58995000Y-74330000D03*
%TO.P,J2,12*%
%TO.N,unconnected-(J2-Pad12)*%
X60695000Y-76870000D03*
D15*
%TO.P,J2,13*%
%TO.N,GND*%
X67125000Y-78420000D03*
X67125000Y-62670000D03*
%TD*%
D12*
%TO.P,H4,1,1*%
%TO.N,GND*%
X61300000Y-83100000D03*
%TD*%
D16*
%TO.P,J1,1,Pin_1*%
%TO.N,+5V*%
X146612000Y-76900000D03*
%TO.P,J1,2,Pin_2*%
%TO.N,GND*%
X146612000Y-74360000D03*
%TO.P,J1,3,Pin_3*%
%TO.N,/GPS-TX*%
X146612000Y-71820000D03*
%TO.P,J1,4,Pin_4*%
%TO.N,/GPS-RX*%
X146612000Y-69280000D03*
%TO.P,J1,5,Pin_5*%
%TO.N,Net-(J1-Pad5)*%
X146612000Y-66740000D03*
%TO.P,J1,6,Pin_6*%
%TO.N,Net-(J1-Pad6)*%
X146612000Y-64200000D03*
%TD*%
D17*
%TO.P,R3,1*%
%TO.N,/GPS-SDA*%
X140545235Y-72045235D03*
%TO.P,R3,2*%
%TO.N,+3V3*%
X139254765Y-70754765D03*
%TD*%
D18*
%TO.P,U1,1,GND*%
%TO.N,GND*%
X78550200Y-62900000D03*
D19*
%TO.P,U1,2,0_RX1_CRX2_CS1*%
%TO.N,unconnected-(U1-Pad2)*%
X81090200Y-62900000D03*
%TO.P,U1,3,1_TX1_CTX2_MISO1*%
%TO.N,unconnected-(U1-Pad3)*%
X83630200Y-62900000D03*
%TO.P,U1,4,2_OUT2*%
%TO.N,unconnected-(U1-Pad4)*%
X86170200Y-62900000D03*
%TO.P,U1,5,3_LRCLK2*%
%TO.N,unconnected-(U1-Pad5)*%
X88710200Y-62900000D03*
%TO.P,U1,6,4_BCLK2*%
%TO.N,unconnected-(U1-Pad6)*%
X91250200Y-62900000D03*
%TO.P,U1,7,5_IN2*%
%TO.N,unconnected-(U1-Pad7)*%
X93790200Y-62900000D03*
%TO.P,U1,8,6_OUT1D*%
%TO.N,unconnected-(U1-Pad8)*%
X96330200Y-62900000D03*
%TO.P,U1,9,7_RX2_OUT1A*%
%TO.N,unconnected-(U1-Pad9)*%
X98870200Y-62900000D03*
%TO.P,U1,10,8_TX2_IN1*%
%TO.N,/BHI-SDA*%
X101410200Y-62900000D03*
%TO.P,U1,11,9_OUT1C*%
%TO.N,/BHI-SCL*%
X103950200Y-62900000D03*
%TO.P,U1,12,10_CS_MQSR*%
%TO.N,unconnected-(U1-Pad12)*%
X106490200Y-62900000D03*
%TO.P,U1,13,11_MOSI_CTX1*%
%TO.N,unconnected-(U1-Pad13)*%
X109030200Y-62900000D03*
%TO.P,U1,14,12_MISO_MQSL*%
%TO.N,/ICM-SCLK*%
X111570200Y-62900000D03*
%TO.P,U1,15,3V3*%
%TO.N,+3V3*%
X114110200Y-62900000D03*
%TO.P,U1,16,24_A10_TX6_SCL2*%
%TO.N,unconnected-(U1-Pad16)*%
X116650200Y-62900000D03*
%TO.P,U1,17,25_A11_RX6_SDA2*%
%TO.N,unconnected-(U1-Pad17)*%
X119190200Y-62900000D03*
%TO.P,U1,18,26_A12_MOSI1*%
%TO.N,unconnected-(U1-Pad18)*%
X121730200Y-62900000D03*
%TO.P,U1,19,27_A13_SCK1*%
%TO.N,unconnected-(U1-Pad19)*%
X124270200Y-62900000D03*
%TO.P,U1,20,28_RX7*%
%TO.N,unconnected-(U1-Pad20)*%
X126810200Y-62900000D03*
%TO.P,U1,21,29_TX7*%
%TO.N,unconnected-(U1-Pad21)*%
X129350200Y-62900000D03*
%TO.P,U1,22,30_CRX3*%
%TO.N,/GPS-TX*%
X131890200Y-62900000D03*
%TO.P,U1,23,31_CTX3*%
%TO.N,/GPS-RX*%
X134430200Y-62900000D03*
%TO.P,U1,24,32_OUT1B*%
%TO.N,unconnected-(U1-Pad24)*%
X136970200Y-62900000D03*
%TO.P,U1,25,33_MCLK2*%
%TO.N,unconnected-(U1-Pad25)*%
X136970200Y-78140000D03*
%TO.P,U1,26,34_RX8*%
%TO.N,/SPI_LED*%
X134430200Y-78140000D03*
%TO.P,U1,27,35_TX8*%
%TO.N,/UART_LED*%
X131890200Y-78140000D03*
%TO.P,U1,28,36_CS*%
%TO.N,/I2C_LED*%
X129350200Y-78140000D03*
%TO.P,U1,29,37_CS*%
%TO.N,unconnected-(U1-Pad29)*%
X126810200Y-78140000D03*
%TO.P,U1,30,38_CS1_IN1*%
%TO.N,unconnected-(U1-Pad30)*%
X124270200Y-78140000D03*
%TO.P,U1,31,39_MISO1_OUT1A*%
%TO.N,unconnected-(U1-Pad31)*%
X121730200Y-78140000D03*
%TO.P,U1,32,40_A16*%
%TO.N,/GPS-SDA*%
X119190200Y-78140000D03*
%TO.P,U1,33,41_A17*%
%TO.N,/GPS-SCL*%
X116650200Y-78140000D03*
%TO.P,U1,34,GND*%
%TO.N,GND*%
X114110200Y-78140000D03*
%TO.P,U1,35,13_SCK_LED*%
%TO.N,/ICM-MISO*%
X111570200Y-78140000D03*
%TO.P,U1,36,14_A0_TX3_SPDIF_OUT*%
%TO.N,/ICM-MOSI*%
X109030200Y-78140000D03*
%TO.P,U1,37,15_A1_RX3_SPDIF_IN*%
%TO.N,/ICM-CS*%
X106490200Y-78140000D03*
%TO.P,U1,38,16_A2_RX4_SCL1*%
%TO.N,unconnected-(U1-Pad38)*%
X103950200Y-78140000D03*
%TO.P,U1,39,17_A3_TX4_SDA1*%
%TO.N,unconnected-(U1-Pad39)*%
X101410200Y-78140000D03*
%TO.P,U1,40,18_A4_SDA*%
%TO.N,unconnected-(U1-Pad40)*%
X98870200Y-78140000D03*
%TO.P,U1,41,19_A5_SCL*%
%TO.N,unconnected-(U1-Pad41)*%
X96330200Y-78140000D03*
%TO.P,U1,42,20_A6_TX5_LRCLK1*%
%TO.N,unconnected-(U1-Pad42)*%
X93790200Y-78140000D03*
%TO.P,U1,43,21_A7_RX5_BCLK1*%
%TO.N,unconnected-(U1-Pad43)*%
X91250200Y-78140000D03*
%TO.P,U1,44,22_A8_CTX1*%
%TO.N,unconnected-(U1-Pad44)*%
X88710200Y-78140000D03*
%TO.P,U1,45,23_A9_CRX1_MCLK1*%
%TO.N,unconnected-(U1-Pad45)*%
X86170200Y-78140000D03*
%TO.P,U1,46,3V3*%
%TO.N,+3V3*%
X83630200Y-78140000D03*
%TO.P,U1,47,GND*%
%TO.N,GND*%
X81090200Y-78140000D03*
%TO.P,U1,48,VIN*%
%TO.N,+5V*%
X78550200Y-78140000D03*
D20*
%TO.P,U1,60,R+*%
%TO.N,/ETHERNET_RX+*%
X91520200Y-75701600D03*
D21*
%TO.P,U1,61,LED*%
%TO.N,/ETHERNET_LED*%
X91520200Y-73701600D03*
%TO.P,U1,62,T-*%
%TO.N,/ETHERNET_TX-*%
X91520200Y-71701600D03*
%TO.P,U1,63,T+*%
%TO.N,/ETHERNET_TX+*%
X93520200Y-71701600D03*
%TO.P,U1,64,GND*%
%TO.N,GND*%
X93520200Y-73701600D03*
%TO.P,U1,65,R-*%
%TO.N,/ETHERNET_RX-*%
X93520200Y-75701600D03*
%TD*%
D22*
%TO.P,R2,1*%
%TO.N,Net-(J1-Pad5)*%
X143645235Y-68954765D03*
%TO.P,R2,2*%
%TO.N,/GPS-SDA*%
X142354765Y-70245235D03*
%TD*%
%TO.P,R1,1*%
%TO.N,Net-(J1-Pad6)*%
X137345235Y-67354765D03*
%TO.P,R1,2*%
%TO.N,/GPS-SCL*%
X136054765Y-68645235D03*
%TD*%
D23*
%TO.P,Conn1,1,GND*%
%TO.N,GND*%
X153300000Y-66600000D03*
%TO.P,Conn1,2,V+Log*%
%TO.N,+12V*%
X153300000Y-74474000D03*
%TD*%
D17*
%TO.P,R4,1*%
%TO.N,/GPS-SCL*%
X134323205Y-70435706D03*
%TO.P,R4,2*%
%TO.N,+3V3*%
X133032735Y-69145236D03*
%TD*%
D24*
%TO.N,+3V3*%
X107950000Y-71049999D03*
X106455000Y-71049999D03*
X123648929Y-67938570D03*
X139200000Y-69400000D03*
X85700000Y-73600000D03*
X129900000Y-67100000D03*
X104755000Y-72350000D03*
X132400000Y-66900000D03*
X124548929Y-72038570D03*
X114000000Y-76400000D03*
X122648929Y-67438570D03*
X117400000Y-65200000D03*
%TO.N,GND*%
X78800000Y-67700000D03*
X115400000Y-68000000D03*
X134950000Y-65400000D03*
X142650000Y-68050000D03*
X110900000Y-65600000D03*
X106700000Y-75250000D03*
X107700000Y-65600000D03*
X102855000Y-72650000D03*
X116100000Y-73400000D03*
X98067501Y-75262499D03*
X140650000Y-66050000D03*
X100855000Y-70600000D03*
X138200000Y-68500000D03*
X96300000Y-75300000D03*
X79000000Y-69000000D03*
X100479999Y-75375001D03*
X126248929Y-71938570D03*
X120748929Y-67538570D03*
X121748929Y-70338570D03*
X103755000Y-69550000D03*
X99400000Y-64700000D03*
X119900000Y-64700000D03*
X111000000Y-76000000D03*
X102800000Y-64100000D03*
X144700000Y-69900000D03*
X108255000Y-75250000D03*
%TO.N,+5V*%
X85000000Y-68000000D03*
%TO.N,/ETHERNET_LED*%
X87300000Y-75200000D03*
%TO.N,Net-(R11-Pad1)*%
X118948929Y-69838570D03*
%TO.N,/ICM-CS*%
X112600000Y-69700000D03*
%TO.N,/ICM-SCLK*%
X109300000Y-71000000D03*
%TD*%
D25*
%TO.N,+3V3*%
X133032735Y-69145236D02*
X133032735Y-69132735D01*
X133032735Y-69145236D02*
X132945236Y-69145236D01*
X132400000Y-68600000D02*
X132400000Y-66900000D01*
X139254765Y-69454765D02*
X139200000Y-69400000D01*
X132945236Y-69145236D02*
X132400000Y-68600000D01*
X139254765Y-70754765D02*
X139254765Y-69454765D01*
%TO.N,/GPS-SCL*%
X116650200Y-76849800D02*
X119500000Y-74000000D01*
X119500000Y-74000000D02*
X130700000Y-74000000D01*
X130700000Y-74000000D02*
X136054765Y-68645235D01*
X116650200Y-78140000D02*
X116650200Y-76849800D01*
%TO.N,/GPS-SDA*%
X142354765Y-70345235D02*
X142354765Y-70245235D01*
X136100000Y-76600000D02*
X120730200Y-76600000D01*
X136100000Y-76600000D02*
X142354765Y-70345235D01*
X120730200Y-76600000D02*
X119190200Y-78140000D01*
D26*
%TO.N,/ETHERNET_TX+*%
X87086444Y-65267844D02*
X93520200Y-71701600D01*
X70425000Y-66100000D02*
X76571680Y-66100000D01*
X76571680Y-66100000D02*
X77403836Y-65267844D01*
X77403836Y-65267844D02*
X87086444Y-65267844D01*
%TO.N,/ETHERNET_TX-*%
X76077639Y-67250686D02*
X76077638Y-67250686D01*
X74688320Y-68640000D02*
X75364160Y-67964160D01*
X77596164Y-65732156D02*
X86894119Y-65732156D01*
X91520200Y-70358237D02*
X91520200Y-71701600D01*
X76198705Y-67129615D02*
X77596164Y-65732156D01*
X75364160Y-67614924D02*
X75364161Y-67614922D01*
X76092640Y-67235681D02*
X76198705Y-67129615D01*
X70425000Y-68640000D02*
X74688320Y-68640000D01*
X76077638Y-67250686D02*
X76092640Y-67235681D01*
X75364160Y-67265685D02*
X75364160Y-67265686D01*
X75364160Y-67265686D02*
X75379163Y-67250684D01*
X86894119Y-65732156D02*
X91520200Y-70358237D01*
X75728400Y-67250683D02*
X75728401Y-67250684D01*
X75728401Y-67250684D02*
X75728402Y-67250685D01*
X75364160Y-67614924D02*
G75*
G02*
X75364160Y-67964160I-174615J-174618D01*
G01*
X76077639Y-67250686D02*
G75*
G02*
X75728402Y-67250685I-174618J174618D01*
G01*
X75364160Y-67265685D02*
G75*
G03*
X75364161Y-67614922I174618J-174618D01*
G01*
X75728400Y-67250683D02*
G75*
G03*
X75379163Y-67250684I-174618J-174618D01*
G01*
%TO.N,/ETHERNET_RX+*%
X75014160Y-73385840D02*
X75014160Y-71959160D01*
X75014160Y-71959160D02*
X74727500Y-71672500D01*
X74411519Y-70715686D02*
X74303234Y-70823970D01*
X73878970Y-70823970D02*
X73878971Y-70823971D01*
X77996164Y-76367844D02*
X75014160Y-73385840D01*
X74727499Y-71248235D02*
X74727500Y-71248235D01*
X74727500Y-71248235D02*
X74835784Y-71139950D01*
X73878971Y-70823971D02*
X72965000Y-69910000D01*
X90853956Y-76367844D02*
X77996164Y-76367844D01*
X91520200Y-75701600D02*
X90853956Y-76367844D01*
X74411519Y-70715685D02*
X74411519Y-70715686D01*
X74411520Y-70715686D02*
G75*
G02*
X74835783Y-70715687I212131J-212131D01*
G01*
X73878971Y-70823969D02*
G75*
G03*
X74303233Y-70823969I212131J212131D01*
G01*
X74835783Y-70715687D02*
G75*
G02*
X74835783Y-71139949I-212131J-212131D01*
G01*
X74727500Y-71248236D02*
G75*
G03*
X74727501Y-71672499I212131J-212131D01*
G01*
%TO.N,/ETHERNET_RX-*%
X75568051Y-74596370D02*
X75568052Y-74596372D01*
X75568052Y-74939896D02*
X75568051Y-74939894D01*
X75568052Y-74596372D02*
X73421680Y-72450000D01*
X77803836Y-76832156D02*
X76335840Y-75364160D01*
X75992317Y-75364159D02*
X75992316Y-75364159D01*
X75648792Y-75364159D02*
X75648794Y-75364160D01*
X73421680Y-72450000D02*
X72965000Y-72450000D01*
X93520200Y-75701600D02*
X93520200Y-76179800D01*
X93520200Y-75701600D02*
X92389644Y-76832156D01*
X92389644Y-76832156D02*
X77803836Y-76832156D01*
X75648794Y-75364160D02*
X75568052Y-75283418D01*
X75568053Y-74939897D02*
G75*
G03*
X75568053Y-75283417I171756J-171760D01*
G01*
X75568050Y-74596371D02*
G75*
G02*
X75568050Y-74939893I-171762J-171761D01*
G01*
X75992317Y-75364159D02*
G75*
G02*
X76335840Y-75364160I171761J-171760D01*
G01*
X75648793Y-75364158D02*
G75*
G03*
X75992315Y-75364158I171761J171762D01*
G01*
D25*
%TO.N,/ETHERNET_LED*%
X87300000Y-75200000D02*
X88100000Y-75200000D01*
X91520200Y-73701600D02*
X89598400Y-73701600D01*
X89598400Y-73701600D02*
X88100000Y-75200000D01*
D27*
%TO.N,/ICM-CS*%
X106490200Y-77809800D02*
X106490200Y-78140000D01*
X112600000Y-69700000D02*
X112600000Y-72600000D01*
X112600000Y-72600000D02*
X108900000Y-76300000D01*
X108000000Y-76300000D02*
X106490200Y-77809800D01*
X108900000Y-76300000D02*
X108000000Y-76300000D01*
D25*
%TO.N,/ICM-SCLK*%
X109300000Y-71000000D02*
X109300000Y-65170200D01*
X111570200Y-62900000D02*
X111570200Y-62929800D01*
X111570200Y-62900000D02*
X111570200Y-63029800D01*
X109300000Y-65170200D02*
X111570200Y-62900000D01*
%TO.N,Net-(J1-Pad5)*%
X145860000Y-66740000D02*
X146612000Y-66740000D01*
X143645235Y-68954765D02*
X145860000Y-66740000D01*
%TO.N,Net-(J1-Pad6)*%
X140500000Y-64200000D02*
X146612000Y-64200000D01*
X137345235Y-67354765D02*
X140500000Y-64200000D01*
%TD*%
%TA.AperFunction,Conductor*%
%TO.N,GND*%
G36*
X61664960Y-54514153D02*
G01*
X61677035Y-54514955D01*
X62018575Y-54554209D01*
X62030520Y-54556167D01*
X62126100Y-54576601D01*
X62366711Y-54628042D01*
X62378424Y-54631142D01*
X62706157Y-54734976D01*
X62717517Y-54739187D01*
X63033743Y-54874010D01*
X63044647Y-54879292D01*
X63346475Y-55043871D01*
X63356822Y-55050176D01*
X63641442Y-55242981D01*
X63651125Y-55250242D01*
X63717019Y-55304804D01*
X63915921Y-55469501D01*
X63924871Y-55477668D01*
X64167379Y-55721340D01*
X64175498Y-55730324D01*
X64393480Y-55996160D01*
X64400700Y-56005883D01*
X64579395Y-56272415D01*
X64592146Y-56291434D01*
X64598401Y-56301811D01*
X64761531Y-56604421D01*
X64766761Y-56615350D01*
X64900070Y-56932225D01*
X64904225Y-56943604D01*
X64936027Y-57045676D01*
X64995479Y-57236500D01*
X65000559Y-57261467D01*
X65000803Y-57263917D01*
X65000804Y-57263921D01*
X65001695Y-57272848D01*
X65017813Y-57312743D01*
X65019271Y-57316352D01*
X65022783Y-57326205D01*
X65449450Y-58701025D01*
X65453906Y-58720982D01*
X65456185Y-58737339D01*
X65456188Y-58737352D01*
X65456858Y-58742162D01*
X65460479Y-58754168D01*
X65462587Y-58758561D01*
X65464257Y-58762865D01*
X65466295Y-58767718D01*
X65586327Y-59098303D01*
X65600706Y-59137906D01*
X65772730Y-59508440D01*
X65976073Y-59862755D01*
X66209221Y-60198210D01*
X66470435Y-60512304D01*
X66472348Y-60514237D01*
X66472354Y-60514244D01*
X66605307Y-60648613D01*
X66757768Y-60802697D01*
X66759827Y-60804446D01*
X66759835Y-60804454D01*
X66884295Y-60910209D01*
X67069078Y-61067222D01*
X67071298Y-61068800D01*
X67071303Y-61068804D01*
X67218733Y-61173604D01*
X67402045Y-61303910D01*
X67404372Y-61305279D01*
X67404376Y-61305281D01*
X67751840Y-61509614D01*
X67754187Y-61510994D01*
X68122878Y-61686933D01*
X68125422Y-61687887D01*
X68125426Y-61687889D01*
X68402357Y-61791771D01*
X68505372Y-61830414D01*
X68507982Y-61831143D01*
X68507993Y-61831147D01*
X68896191Y-61939635D01*
X68896198Y-61939637D01*
X68898815Y-61940368D01*
X69300277Y-62015974D01*
X69706764Y-62056671D01*
X69709473Y-62056707D01*
X69709484Y-62056708D01*
X69907711Y-62059368D01*
X70085051Y-62061749D01*
X70093046Y-62062352D01*
X70093051Y-62062262D01*
X70097911Y-62062553D01*
X70102733Y-62063217D01*
X70107596Y-62063132D01*
X70107601Y-62063132D01*
X70109431Y-62063099D01*
X70115271Y-62062997D01*
X70133335Y-62059859D01*
X70154900Y-62058000D01*
X79841947Y-62058000D01*
X79910068Y-62078002D01*
X79956561Y-62131658D01*
X79966665Y-62201932D01*
X79952407Y-62243125D01*
X79952677Y-62243251D01*
X79855916Y-62450757D01*
X79796657Y-62671913D01*
X79776702Y-62900000D01*
X79796657Y-63128087D01*
X79798081Y-63133400D01*
X79798081Y-63133402D01*
X79844267Y-63305767D01*
X79855916Y-63349243D01*
X79858239Y-63354224D01*
X79858239Y-63354225D01*
X79950351Y-63551762D01*
X79950354Y-63551767D01*
X79952677Y-63556749D01*
X80084002Y-63744300D01*
X80245900Y-63906198D01*
X80250408Y-63909355D01*
X80250411Y-63909357D01*
X80328589Y-63964098D01*
X80433451Y-64037523D01*
X80438433Y-64039846D01*
X80438438Y-64039849D01*
X80635975Y-64131961D01*
X80640957Y-64134284D01*
X80646265Y-64135706D01*
X80646267Y-64135707D01*
X80856798Y-64192119D01*
X80856800Y-64192119D01*
X80862113Y-64193543D01*
X81090200Y-64213498D01*
X81318287Y-64193543D01*
X81323600Y-64192119D01*
X81323602Y-64192119D01*
X81534133Y-64135707D01*
X81534135Y-64135706D01*
X81539443Y-64134284D01*
X81544425Y-64131961D01*
X81741962Y-64039849D01*
X81741967Y-64039846D01*
X81746949Y-64037523D01*
X81851811Y-63964098D01*
X81929989Y-63909357D01*
X81929992Y-63909355D01*
X81934500Y-63906198D01*
X82096398Y-63744300D01*
X82227723Y-63556749D01*
X82230046Y-63551767D01*
X82230049Y-63551762D01*
X82246005Y-63517543D01*
X82292922Y-63464258D01*
X82361199Y-63444797D01*
X82429159Y-63465339D01*
X82474395Y-63517543D01*
X82490351Y-63551762D01*
X82490354Y-63551767D01*
X82492677Y-63556749D01*
X82624002Y-63744300D01*
X82785900Y-63906198D01*
X82790408Y-63909355D01*
X82790411Y-63909357D01*
X82868589Y-63964098D01*
X82973451Y-64037523D01*
X82978433Y-64039846D01*
X82978438Y-64039849D01*
X83175975Y-64131961D01*
X83180957Y-64134284D01*
X83186265Y-64135706D01*
X83186267Y-64135707D01*
X83396798Y-64192119D01*
X83396800Y-64192119D01*
X83402113Y-64193543D01*
X83630200Y-64213498D01*
X83858287Y-64193543D01*
X83863600Y-64192119D01*
X83863602Y-64192119D01*
X84074133Y-64135707D01*
X84074135Y-64135706D01*
X84079443Y-64134284D01*
X84084425Y-64131961D01*
X84281962Y-64039849D01*
X84281967Y-64039846D01*
X84286949Y-64037523D01*
X84391811Y-63964098D01*
X84469989Y-63909357D01*
X84469992Y-63909355D01*
X84474500Y-63906198D01*
X84636398Y-63744300D01*
X84767723Y-63556749D01*
X84770046Y-63551767D01*
X84770049Y-63551762D01*
X84786005Y-63517543D01*
X84832922Y-63464258D01*
X84901199Y-63444797D01*
X84969159Y-63465339D01*
X85014395Y-63517543D01*
X85030351Y-63551762D01*
X85030354Y-63551767D01*
X85032677Y-63556749D01*
X85164002Y-63744300D01*
X85325900Y-63906198D01*
X85330408Y-63909355D01*
X85330411Y-63909357D01*
X85408589Y-63964098D01*
X85513451Y-64037523D01*
X85518433Y-64039846D01*
X85518438Y-64039849D01*
X85715975Y-64131961D01*
X85720957Y-64134284D01*
X85726265Y-64135706D01*
X85726267Y-64135707D01*
X85936798Y-64192119D01*
X85936800Y-64192119D01*
X85942113Y-64193543D01*
X86170200Y-64213498D01*
X86398287Y-64193543D01*
X86403600Y-64192119D01*
X86403602Y-64192119D01*
X86614133Y-64135707D01*
X86614135Y-64135706D01*
X86619443Y-64134284D01*
X86624425Y-64131961D01*
X86821962Y-64039849D01*
X86821967Y-64039846D01*
X86826949Y-64037523D01*
X86931811Y-63964098D01*
X87009989Y-63909357D01*
X87009992Y-63909355D01*
X87014500Y-63906198D01*
X87176398Y-63744300D01*
X87307723Y-63556749D01*
X87310046Y-63551767D01*
X87310049Y-63551762D01*
X87326005Y-63517543D01*
X87372922Y-63464258D01*
X87441199Y-63444797D01*
X87509159Y-63465339D01*
X87554395Y-63517543D01*
X87570351Y-63551762D01*
X87570354Y-63551767D01*
X87572677Y-63556749D01*
X87704002Y-63744300D01*
X87865900Y-63906198D01*
X87870408Y-63909355D01*
X87870411Y-63909357D01*
X87948589Y-63964098D01*
X88053451Y-64037523D01*
X88058433Y-64039846D01*
X88058438Y-64039849D01*
X88255975Y-64131961D01*
X88260957Y-64134284D01*
X88266265Y-64135706D01*
X88266267Y-64135707D01*
X88476798Y-64192119D01*
X88476800Y-64192119D01*
X88482113Y-64193543D01*
X88710200Y-64213498D01*
X88938287Y-64193543D01*
X88943600Y-64192119D01*
X88943602Y-64192119D01*
X89154133Y-64135707D01*
X89154135Y-64135706D01*
X89159443Y-64134284D01*
X89164425Y-64131961D01*
X89361962Y-64039849D01*
X89361967Y-64039846D01*
X89366949Y-64037523D01*
X89471811Y-63964098D01*
X89549989Y-63909357D01*
X89549992Y-63909355D01*
X89554500Y-63906198D01*
X89716398Y-63744300D01*
X89847723Y-63556749D01*
X89850046Y-63551767D01*
X89850049Y-63551762D01*
X89866005Y-63517543D01*
X89912922Y-63464258D01*
X89981199Y-63444797D01*
X90049159Y-63465339D01*
X90094395Y-63517543D01*
X90110351Y-63551762D01*
X90110354Y-63551767D01*
X90112677Y-63556749D01*
X90244002Y-63744300D01*
X90405900Y-63906198D01*
X90410408Y-63909355D01*
X90410411Y-63909357D01*
X90488589Y-63964098D01*
X90593451Y-64037523D01*
X90598433Y-64039846D01*
X90598438Y-64039849D01*
X90795975Y-64131961D01*
X90800957Y-64134284D01*
X90806265Y-64135706D01*
X90806267Y-64135707D01*
X91016798Y-64192119D01*
X91016800Y-64192119D01*
X91022113Y-64193543D01*
X91250200Y-64213498D01*
X91478287Y-64193543D01*
X91483600Y-64192119D01*
X91483602Y-64192119D01*
X91694133Y-64135707D01*
X91694135Y-64135706D01*
X91699443Y-64134284D01*
X91704425Y-64131961D01*
X91901962Y-64039849D01*
X91901967Y-64039846D01*
X91906949Y-64037523D01*
X92011811Y-63964098D01*
X92089989Y-63909357D01*
X92089992Y-63909355D01*
X92094500Y-63906198D01*
X92256398Y-63744300D01*
X92387723Y-63556749D01*
X92390046Y-63551767D01*
X92390049Y-63551762D01*
X92406005Y-63517543D01*
X92452922Y-63464258D01*
X92521199Y-63444797D01*
X92589159Y-63465339D01*
X92634395Y-63517543D01*
X92650351Y-63551762D01*
X92650354Y-63551767D01*
X92652677Y-63556749D01*
X92784002Y-63744300D01*
X92945900Y-63906198D01*
X92950408Y-63909355D01*
X92950411Y-63909357D01*
X93028589Y-63964098D01*
X93133451Y-64037523D01*
X93138433Y-64039846D01*
X93138438Y-64039849D01*
X93335975Y-64131961D01*
X93340957Y-64134284D01*
X93346265Y-64135706D01*
X93346267Y-64135707D01*
X93556798Y-64192119D01*
X93556800Y-64192119D01*
X93562113Y-64193543D01*
X93790200Y-64213498D01*
X94018287Y-64193543D01*
X94023600Y-64192119D01*
X94023602Y-64192119D01*
X94234133Y-64135707D01*
X94234135Y-64135706D01*
X94239443Y-64134284D01*
X94244425Y-64131961D01*
X94441962Y-64039849D01*
X94441967Y-64039846D01*
X94446949Y-64037523D01*
X94551811Y-63964098D01*
X94629989Y-63909357D01*
X94629992Y-63909355D01*
X94634500Y-63906198D01*
X94796398Y-63744300D01*
X94927723Y-63556749D01*
X94930046Y-63551767D01*
X94930049Y-63551762D01*
X94946005Y-63517543D01*
X94992922Y-63464258D01*
X95061199Y-63444797D01*
X95129159Y-63465339D01*
X95174395Y-63517543D01*
X95190351Y-63551762D01*
X95190354Y-63551767D01*
X95192677Y-63556749D01*
X95324002Y-63744300D01*
X95485900Y-63906198D01*
X95490408Y-63909355D01*
X95490411Y-63909357D01*
X95568589Y-63964098D01*
X95673451Y-64037523D01*
X95678433Y-64039846D01*
X95678438Y-64039849D01*
X95875975Y-64131961D01*
X95880957Y-64134284D01*
X95886265Y-64135706D01*
X95886267Y-64135707D01*
X96096798Y-64192119D01*
X96096800Y-64192119D01*
X96102113Y-64193543D01*
X96330200Y-64213498D01*
X96558287Y-64193543D01*
X96563600Y-64192119D01*
X96563602Y-64192119D01*
X96774133Y-64135707D01*
X96774135Y-64135706D01*
X96779443Y-64134284D01*
X96784425Y-64131961D01*
X96981962Y-64039849D01*
X96981967Y-64039846D01*
X96986949Y-64037523D01*
X97091811Y-63964098D01*
X97169989Y-63909357D01*
X97169992Y-63909355D01*
X97174500Y-63906198D01*
X97336398Y-63744300D01*
X97467723Y-63556749D01*
X97470046Y-63551767D01*
X97470049Y-63551762D01*
X97486005Y-63517543D01*
X97532922Y-63464258D01*
X97601199Y-63444797D01*
X97669159Y-63465339D01*
X97714395Y-63517543D01*
X97730351Y-63551762D01*
X97730354Y-63551767D01*
X97732677Y-63556749D01*
X97864002Y-63744300D01*
X98025900Y-63906198D01*
X98030408Y-63909355D01*
X98030411Y-63909357D01*
X98108589Y-63964098D01*
X98213451Y-64037523D01*
X98218433Y-64039846D01*
X98218438Y-64039849D01*
X98415975Y-64131961D01*
X98420957Y-64134284D01*
X98426265Y-64135706D01*
X98426267Y-64135707D01*
X98636798Y-64192119D01*
X98636800Y-64192119D01*
X98642113Y-64193543D01*
X98870200Y-64213498D01*
X99098287Y-64193543D01*
X99103600Y-64192119D01*
X99103602Y-64192119D01*
X99314133Y-64135707D01*
X99314135Y-64135706D01*
X99319443Y-64134284D01*
X99324425Y-64131961D01*
X99521962Y-64039849D01*
X99521967Y-64039846D01*
X99526949Y-64037523D01*
X99631811Y-63964098D01*
X99709989Y-63909357D01*
X99709992Y-63909355D01*
X99714500Y-63906198D01*
X99876398Y-63744300D01*
X100007723Y-63556749D01*
X100010046Y-63551767D01*
X100010049Y-63551762D01*
X100026005Y-63517543D01*
X100072922Y-63464258D01*
X100141199Y-63444797D01*
X100209159Y-63465339D01*
X100254395Y-63517543D01*
X100270351Y-63551762D01*
X100270354Y-63551767D01*
X100272677Y-63556749D01*
X100404002Y-63744300D01*
X100565900Y-63906198D01*
X100570408Y-63909355D01*
X100570411Y-63909357D01*
X100648589Y-63964098D01*
X100753451Y-64037523D01*
X100758433Y-64039846D01*
X100758438Y-64039849D01*
X100955975Y-64131961D01*
X100960957Y-64134284D01*
X100966265Y-64135706D01*
X100966267Y-64135707D01*
X101176798Y-64192119D01*
X101176800Y-64192119D01*
X101182113Y-64193543D01*
X101410200Y-64213498D01*
X101638287Y-64193543D01*
X101643600Y-64192119D01*
X101643602Y-64192119D01*
X101854133Y-64135707D01*
X101854135Y-64135706D01*
X101859443Y-64134284D01*
X101864425Y-64131961D01*
X102061962Y-64039849D01*
X102061967Y-64039846D01*
X102066949Y-64037523D01*
X102171811Y-63964098D01*
X102249989Y-63909357D01*
X102249992Y-63909355D01*
X102254500Y-63906198D01*
X102416398Y-63744300D01*
X102547723Y-63556749D01*
X102550046Y-63551767D01*
X102550049Y-63551762D01*
X102566005Y-63517543D01*
X102612922Y-63464258D01*
X102681199Y-63444797D01*
X102749159Y-63465339D01*
X102794395Y-63517543D01*
X102810351Y-63551762D01*
X102810354Y-63551767D01*
X102812677Y-63556749D01*
X102944002Y-63744300D01*
X103105900Y-63906198D01*
X103110408Y-63909355D01*
X103110411Y-63909357D01*
X103188589Y-63964098D01*
X103293451Y-64037523D01*
X103298433Y-64039846D01*
X103298438Y-64039849D01*
X103495975Y-64131961D01*
X103500957Y-64134284D01*
X103506265Y-64135706D01*
X103506267Y-64135707D01*
X103716798Y-64192119D01*
X103716800Y-64192119D01*
X103722113Y-64193543D01*
X103950200Y-64213498D01*
X104178287Y-64193543D01*
X104183600Y-64192119D01*
X104183602Y-64192119D01*
X104394133Y-64135707D01*
X104394135Y-64135706D01*
X104399443Y-64134284D01*
X104404425Y-64131961D01*
X104601962Y-64039849D01*
X104601967Y-64039846D01*
X104606949Y-64037523D01*
X104711811Y-63964098D01*
X104789989Y-63909357D01*
X104789992Y-63909355D01*
X104794500Y-63906198D01*
X104956398Y-63744300D01*
X105087723Y-63556749D01*
X105090046Y-63551767D01*
X105090049Y-63551762D01*
X105106005Y-63517543D01*
X105152922Y-63464258D01*
X105221199Y-63444797D01*
X105289159Y-63465339D01*
X105334395Y-63517543D01*
X105350351Y-63551762D01*
X105350354Y-63551767D01*
X105352677Y-63556749D01*
X105484002Y-63744300D01*
X105645900Y-63906198D01*
X105650408Y-63909355D01*
X105650411Y-63909357D01*
X105728589Y-63964098D01*
X105833451Y-64037523D01*
X105838433Y-64039846D01*
X105838438Y-64039849D01*
X106035975Y-64131961D01*
X106040957Y-64134284D01*
X106046265Y-64135706D01*
X106046267Y-64135707D01*
X106256798Y-64192119D01*
X106256800Y-64192119D01*
X106262113Y-64193543D01*
X106490200Y-64213498D01*
X106718287Y-64193543D01*
X106723600Y-64192119D01*
X106723602Y-64192119D01*
X106934133Y-64135707D01*
X106934135Y-64135706D01*
X106939443Y-64134284D01*
X106944425Y-64131961D01*
X107141962Y-64039849D01*
X107141967Y-64039846D01*
X107146949Y-64037523D01*
X107251811Y-63964098D01*
X107329989Y-63909357D01*
X107329992Y-63909355D01*
X107334500Y-63906198D01*
X107496398Y-63744300D01*
X107627723Y-63556749D01*
X107630046Y-63551767D01*
X107630049Y-63551762D01*
X107646005Y-63517543D01*
X107692922Y-63464258D01*
X107761199Y-63444797D01*
X107829159Y-63465339D01*
X107874395Y-63517543D01*
X107890351Y-63551762D01*
X107890354Y-63551767D01*
X107892677Y-63556749D01*
X108024002Y-63744300D01*
X108185900Y-63906198D01*
X108190408Y-63909355D01*
X108190411Y-63909357D01*
X108268589Y-63964098D01*
X108373451Y-64037523D01*
X108378433Y-64039846D01*
X108378438Y-64039849D01*
X108575975Y-64131961D01*
X108580957Y-64134284D01*
X108586264Y-64135706D01*
X108740948Y-64177154D01*
X108801570Y-64214106D01*
X108832592Y-64277967D01*
X108824163Y-64348461D01*
X108797431Y-64387956D01*
X108715168Y-64470219D01*
X108700135Y-64483060D01*
X108688747Y-64491334D01*
X108684327Y-64496243D01*
X108642984Y-64542159D01*
X108638443Y-64546944D01*
X108623928Y-64561459D01*
X108621852Y-64564023D01*
X108611006Y-64577416D01*
X108606722Y-64582431D01*
X108565381Y-64628345D01*
X108565377Y-64628350D01*
X108560960Y-64633256D01*
X108557660Y-64638972D01*
X108557657Y-64638976D01*
X108553927Y-64645437D01*
X108542727Y-64661733D01*
X108533871Y-64672670D01*
X108515848Y-64708043D01*
X108502815Y-64733621D01*
X108499669Y-64739415D01*
X108488432Y-64758877D01*
X108476006Y-64780401D01*
X108465473Y-64798644D01*
X108463432Y-64804926D01*
X108463431Y-64804928D01*
X108461125Y-64812026D01*
X108453560Y-64830292D01*
X108447171Y-64842830D01*
X108445463Y-64849203D01*
X108445463Y-64849204D01*
X108429469Y-64908895D01*
X108427600Y-64915203D01*
X108406458Y-64980272D01*
X108405768Y-64986837D01*
X108405766Y-64986846D01*
X108404985Y-64994275D01*
X108401383Y-65013709D01*
X108399453Y-65020914D01*
X108397743Y-65027297D01*
X108397398Y-65033888D01*
X108397397Y-65033892D01*
X108394164Y-65095584D01*
X108393647Y-65102158D01*
X108392981Y-65108500D01*
X108391500Y-65122590D01*
X108391500Y-65143126D01*
X108391327Y-65149720D01*
X108388348Y-65206565D01*
X108387748Y-65218010D01*
X108388780Y-65224525D01*
X108389949Y-65231905D01*
X108391500Y-65251617D01*
X108391500Y-70060237D01*
X108371498Y-70128358D01*
X108317842Y-70174851D01*
X108247568Y-70184955D01*
X108233214Y-70181617D01*
X108232288Y-70181205D01*
X108186578Y-70171489D01*
X108051944Y-70142871D01*
X108051939Y-70142871D01*
X108045487Y-70141499D01*
X107854513Y-70141499D01*
X107848061Y-70142871D01*
X107848056Y-70142871D01*
X107771284Y-70159190D01*
X107667712Y-70181205D01*
X107661682Y-70183890D01*
X107661681Y-70183890D01*
X107499278Y-70256196D01*
X107499276Y-70256197D01*
X107493248Y-70258881D01*
X107487907Y-70262761D01*
X107487906Y-70262762D01*
X107474273Y-70272667D01*
X107338747Y-70371133D01*
X107296135Y-70418459D01*
X107235690Y-70455697D01*
X107164706Y-70454345D01*
X107108865Y-70418459D01*
X107066253Y-70371133D01*
X106930727Y-70272667D01*
X106917094Y-70262762D01*
X106917093Y-70262761D01*
X106911752Y-70258881D01*
X106905724Y-70256197D01*
X106905722Y-70256196D01*
X106743319Y-70183890D01*
X106743318Y-70183890D01*
X106737288Y-70181205D01*
X106633716Y-70159190D01*
X106556944Y-70142871D01*
X106556939Y-70142871D01*
X106550487Y-70141499D01*
X106359513Y-70141499D01*
X106353061Y-70142871D01*
X106353056Y-70142871D01*
X106276284Y-70159190D01*
X106172712Y-70181205D01*
X106166682Y-70183890D01*
X106166681Y-70183890D01*
X106004278Y-70256196D01*
X106004276Y-70256197D01*
X105998248Y-70258881D01*
X105992907Y-70262761D01*
X105992906Y-70262762D01*
X105979273Y-70272667D01*
X105843747Y-70371133D01*
X105839329Y-70376040D01*
X105839325Y-70376044D01*
X105727554Y-70500179D01*
X105715960Y-70513055D01*
X105673817Y-70586049D01*
X105631353Y-70659599D01*
X105620473Y-70678443D01*
X105561458Y-70860071D01*
X105560768Y-70866632D01*
X105560768Y-70866634D01*
X105553640Y-70934451D01*
X105541496Y-71049999D01*
X105542186Y-71056564D01*
X105559234Y-71218763D01*
X105561458Y-71239927D01*
X105620473Y-71421555D01*
X105623776Y-71427277D01*
X105623777Y-71427278D01*
X105642497Y-71459702D01*
X105715960Y-71586943D01*
X105720378Y-71591850D01*
X105720379Y-71591851D01*
X105826155Y-71709327D01*
X105843747Y-71728865D01*
X105942843Y-71800863D01*
X105981802Y-71829168D01*
X105998248Y-71841117D01*
X106004276Y-71843801D01*
X106004278Y-71843802D01*
X106166681Y-71916108D01*
X106172712Y-71918793D01*
X106266113Y-71938646D01*
X106353056Y-71957127D01*
X106353061Y-71957127D01*
X106359513Y-71958499D01*
X106550487Y-71958499D01*
X106556939Y-71957127D01*
X106556944Y-71957127D01*
X106643887Y-71938646D01*
X106737288Y-71918793D01*
X106743319Y-71916108D01*
X106905722Y-71843802D01*
X106905724Y-71843801D01*
X106911752Y-71841117D01*
X106928199Y-71829168D01*
X106967157Y-71800863D01*
X107066253Y-71728865D01*
X107108865Y-71681539D01*
X107169310Y-71644301D01*
X107240294Y-71645653D01*
X107296135Y-71681539D01*
X107338747Y-71728865D01*
X107437843Y-71800863D01*
X107476802Y-71829168D01*
X107493248Y-71841117D01*
X107499276Y-71843801D01*
X107499278Y-71843802D01*
X107661681Y-71916108D01*
X107667712Y-71918793D01*
X107761113Y-71938646D01*
X107848056Y-71957127D01*
X107848061Y-71957127D01*
X107854513Y-71958499D01*
X108045487Y-71958499D01*
X108051939Y-71957127D01*
X108051944Y-71957127D01*
X108138887Y-71938646D01*
X108232288Y-71918793D01*
X108238319Y-71916108D01*
X108400722Y-71843802D01*
X108400724Y-71843801D01*
X108406752Y-71841117D01*
X108423199Y-71829168D01*
X108539671Y-71744545D01*
X108561253Y-71728865D01*
X108565668Y-71723962D01*
X108570580Y-71719539D01*
X108572158Y-71721291D01*
X108623440Y-71689708D01*
X108694424Y-71691070D01*
X108730672Y-71709327D01*
X108760555Y-71731038D01*
X108789311Y-71751930D01*
X108843248Y-71791118D01*
X108849276Y-71793802D01*
X108849278Y-71793803D01*
X109010194Y-71865447D01*
X109017712Y-71868794D01*
X109087397Y-71883606D01*
X109198056Y-71907128D01*
X109198061Y-71907128D01*
X109204513Y-71908500D01*
X109395487Y-71908500D01*
X109401939Y-71907128D01*
X109401944Y-71907128D01*
X109512603Y-71883606D01*
X109582288Y-71868794D01*
X109589806Y-71865447D01*
X109750722Y-71793803D01*
X109750724Y-71793802D01*
X109756752Y-71791118D01*
X109911253Y-71678866D01*
X109941158Y-71645653D01*
X110034621Y-71541852D01*
X110034622Y-71541851D01*
X110039040Y-71536944D01*
X110134527Y-71371556D01*
X110193542Y-71189928D01*
X110194481Y-71180999D01*
X110208500Y-71047610D01*
X110212814Y-71006565D01*
X110213504Y-71000000D01*
X110209190Y-70958955D01*
X110208500Y-70945784D01*
X110208500Y-67438570D01*
X121735425Y-67438570D01*
X121736115Y-67445135D01*
X121752604Y-67602016D01*
X121755387Y-67628498D01*
X121814402Y-67810126D01*
X121817705Y-67815848D01*
X121817706Y-67815849D01*
X121832050Y-67840694D01*
X121909889Y-67975514D01*
X121914307Y-67980421D01*
X121914308Y-67980422D01*
X122005373Y-68081560D01*
X122037676Y-68117436D01*
X122118822Y-68176392D01*
X122162222Y-68207924D01*
X122192177Y-68229688D01*
X122198205Y-68232372D01*
X122198207Y-68232373D01*
X122356891Y-68303023D01*
X122366641Y-68307364D01*
X122460041Y-68327217D01*
X122546985Y-68345698D01*
X122546990Y-68345698D01*
X122553442Y-68347070D01*
X122744416Y-68347070D01*
X122749330Y-68346026D01*
X122818591Y-68358692D01*
X122871041Y-68408228D01*
X122909889Y-68475514D01*
X122914307Y-68480421D01*
X122914308Y-68480422D01*
X123027556Y-68606197D01*
X123037676Y-68617436D01*
X123116377Y-68674616D01*
X123182591Y-68722723D01*
X123192177Y-68729688D01*
X123198205Y-68732372D01*
X123198207Y-68732373D01*
X123336182Y-68793803D01*
X123366641Y-68807364D01*
X123450143Y-68825113D01*
X123546985Y-68845698D01*
X123546990Y-68845698D01*
X123553442Y-68847070D01*
X123744416Y-68847070D01*
X123750868Y-68845698D01*
X123750873Y-68845698D01*
X123847715Y-68825113D01*
X123931217Y-68807364D01*
X123961676Y-68793803D01*
X124099651Y-68732373D01*
X124099653Y-68732372D01*
X124105681Y-68729688D01*
X124115268Y-68722723D01*
X124181481Y-68674616D01*
X124260182Y-68617436D01*
X124270302Y-68606197D01*
X124383550Y-68480422D01*
X124383551Y-68480421D01*
X124387969Y-68475514D01*
X124462790Y-68345920D01*
X124480152Y-68315849D01*
X124480153Y-68315848D01*
X124483456Y-68310126D01*
X124542471Y-68128498D01*
X124547855Y-68077278D01*
X124561743Y-67945135D01*
X124562433Y-67938570D01*
X124548933Y-67810126D01*
X124543161Y-67755205D01*
X124543161Y-67755203D01*
X124542471Y-67748642D01*
X124483456Y-67567014D01*
X124387969Y-67401626D01*
X124366405Y-67377676D01*
X124264604Y-67264615D01*
X124264603Y-67264614D01*
X124260182Y-67259704D01*
X124105681Y-67147452D01*
X124099653Y-67144768D01*
X124099651Y-67144767D01*
X123999102Y-67100000D01*
X128986496Y-67100000D01*
X128987186Y-67106565D01*
X129004380Y-67270154D01*
X129006458Y-67289928D01*
X129065473Y-67471556D01*
X129160960Y-67636944D01*
X129165378Y-67641851D01*
X129165379Y-67641852D01*
X129269229Y-67757189D01*
X129288747Y-67778866D01*
X129443248Y-67891118D01*
X129449276Y-67893802D01*
X129449278Y-67893803D01*
X129605215Y-67963230D01*
X129617712Y-67968794D01*
X129701652Y-67986636D01*
X129798056Y-68007128D01*
X129798061Y-68007128D01*
X129804513Y-68008500D01*
X129995487Y-68008500D01*
X130001939Y-68007128D01*
X130001944Y-68007128D01*
X130098348Y-67986636D01*
X130182288Y-67968794D01*
X130194785Y-67963230D01*
X130350722Y-67893803D01*
X130350724Y-67893802D01*
X130356752Y-67891118D01*
X130511253Y-67778866D01*
X130530771Y-67757189D01*
X130634621Y-67641852D01*
X130634622Y-67641851D01*
X130639040Y-67636944D01*
X130734527Y-67471556D01*
X130793542Y-67289928D01*
X130795621Y-67270154D01*
X130812814Y-67106565D01*
X130813504Y-67100000D01*
X130799502Y-66966776D01*
X130794232Y-66916635D01*
X130794232Y-66916633D01*
X130793542Y-66910072D01*
X130734527Y-66728444D01*
X130709881Y-66685755D01*
X130642341Y-66568774D01*
X130639040Y-66563056D01*
X130574985Y-66491915D01*
X130515675Y-66426045D01*
X130515674Y-66426044D01*
X130511253Y-66421134D01*
X130356752Y-66308882D01*
X130350724Y-66306198D01*
X130350722Y-66306197D01*
X130188319Y-66233891D01*
X130188318Y-66233891D01*
X130182288Y-66231206D01*
X130088888Y-66211353D01*
X130001944Y-66192872D01*
X130001939Y-66192872D01*
X129995487Y-66191500D01*
X129804513Y-66191500D01*
X129798061Y-66192872D01*
X129798056Y-66192872D01*
X129711113Y-66211353D01*
X129617712Y-66231206D01*
X129611682Y-66233891D01*
X129611681Y-66233891D01*
X129449278Y-66306197D01*
X129449276Y-66306198D01*
X129443248Y-66308882D01*
X129288747Y-66421134D01*
X129284326Y-66426044D01*
X129284325Y-66426045D01*
X129225016Y-66491915D01*
X129160960Y-66563056D01*
X129157659Y-66568774D01*
X129090120Y-66685755D01*
X129065473Y-66728444D01*
X129006458Y-66910072D01*
X129005768Y-66916633D01*
X129005768Y-66916635D01*
X129000498Y-66966776D01*
X128986496Y-67100000D01*
X123999102Y-67100000D01*
X123937248Y-67072461D01*
X123937247Y-67072461D01*
X123931217Y-67069776D01*
X123837816Y-67049923D01*
X123750873Y-67031442D01*
X123750868Y-67031442D01*
X123744416Y-67030070D01*
X123553442Y-67030070D01*
X123548528Y-67031114D01*
X123479267Y-67018448D01*
X123426816Y-66968911D01*
X123387969Y-66901626D01*
X123378022Y-66890578D01*
X123264604Y-66764615D01*
X123264603Y-66764614D01*
X123260182Y-66759704D01*
X123105681Y-66647452D01*
X123099653Y-66644768D01*
X123099651Y-66644767D01*
X122937248Y-66572461D01*
X122937247Y-66572461D01*
X122931217Y-66569776D01*
X122819859Y-66546106D01*
X122750873Y-66531442D01*
X122750868Y-66531442D01*
X122744416Y-66530070D01*
X122553442Y-66530070D01*
X122546990Y-66531442D01*
X122546985Y-66531442D01*
X122477999Y-66546106D01*
X122366641Y-66569776D01*
X122360611Y-66572461D01*
X122360610Y-66572461D01*
X122198207Y-66644767D01*
X122198205Y-66644768D01*
X122192177Y-66647452D01*
X122037676Y-66759704D01*
X122033255Y-66764614D01*
X122033254Y-66764615D01*
X121919837Y-66890578D01*
X121909889Y-66901626D01*
X121874250Y-66963354D01*
X121817893Y-67060968D01*
X121814402Y-67067014D01*
X121755387Y-67248642D01*
X121754697Y-67255203D01*
X121754697Y-67255205D01*
X121750580Y-67294375D01*
X121735425Y-67438570D01*
X110208500Y-67438570D01*
X110208500Y-65598703D01*
X110228502Y-65530582D01*
X110245405Y-65509608D01*
X111506336Y-64248677D01*
X111568648Y-64214651D01*
X111584446Y-64212252D01*
X111663104Y-64205370D01*
X111792806Y-64194023D01*
X111792811Y-64194022D01*
X111798287Y-64193543D01*
X111803600Y-64192119D01*
X111803602Y-64192119D01*
X112014133Y-64135707D01*
X112014135Y-64135706D01*
X112019443Y-64134284D01*
X112024425Y-64131961D01*
X112221962Y-64039849D01*
X112221967Y-64039846D01*
X112226949Y-64037523D01*
X112331811Y-63964098D01*
X112409989Y-63909357D01*
X112409992Y-63909355D01*
X112414500Y-63906198D01*
X112576398Y-63744300D01*
X112707723Y-63556749D01*
X112710046Y-63551767D01*
X112710049Y-63551762D01*
X112726005Y-63517543D01*
X112772922Y-63464258D01*
X112841199Y-63444797D01*
X112909159Y-63465339D01*
X112954395Y-63517543D01*
X112970351Y-63551762D01*
X112970354Y-63551767D01*
X112972677Y-63556749D01*
X113104002Y-63744300D01*
X113265900Y-63906198D01*
X113270408Y-63909355D01*
X113270411Y-63909357D01*
X113348589Y-63964098D01*
X113453451Y-64037523D01*
X113458433Y-64039846D01*
X113458438Y-64039849D01*
X113655975Y-64131961D01*
X113660957Y-64134284D01*
X113666265Y-64135706D01*
X113666267Y-64135707D01*
X113876798Y-64192119D01*
X113876800Y-64192119D01*
X113882113Y-64193543D01*
X114110200Y-64213498D01*
X114338287Y-64193543D01*
X114343600Y-64192119D01*
X114343602Y-64192119D01*
X114554133Y-64135707D01*
X114554135Y-64135706D01*
X114559443Y-64134284D01*
X114564425Y-64131961D01*
X114761962Y-64039849D01*
X114761967Y-64039846D01*
X114766949Y-64037523D01*
X114871811Y-63964098D01*
X114949989Y-63909357D01*
X114949992Y-63909355D01*
X114954500Y-63906198D01*
X115116398Y-63744300D01*
X115247723Y-63556749D01*
X115250046Y-63551767D01*
X115250049Y-63551762D01*
X115266005Y-63517543D01*
X115312922Y-63464258D01*
X115381199Y-63444797D01*
X115449159Y-63465339D01*
X115494395Y-63517543D01*
X115510351Y-63551762D01*
X115510354Y-63551767D01*
X115512677Y-63556749D01*
X115644002Y-63744300D01*
X115805900Y-63906198D01*
X115810408Y-63909355D01*
X115810411Y-63909357D01*
X115888589Y-63964098D01*
X115993451Y-64037523D01*
X115998433Y-64039846D01*
X115998438Y-64039849D01*
X116195975Y-64131961D01*
X116200957Y-64134284D01*
X116206265Y-64135706D01*
X116206267Y-64135707D01*
X116416798Y-64192119D01*
X116416800Y-64192119D01*
X116422113Y-64193543D01*
X116650200Y-64213498D01*
X116836495Y-64197199D01*
X116906098Y-64211188D01*
X116957090Y-64260587D01*
X116973281Y-64329713D01*
X116949529Y-64396619D01*
X116921537Y-64424656D01*
X116788747Y-64521134D01*
X116784326Y-64526044D01*
X116784325Y-64526045D01*
X116680483Y-64641374D01*
X116660960Y-64663056D01*
X116620219Y-64733621D01*
X116576782Y-64808857D01*
X116565473Y-64828444D01*
X116506458Y-65010072D01*
X116505768Y-65016633D01*
X116505768Y-65016635D01*
X116491781Y-65149720D01*
X116486496Y-65200000D01*
X116487186Y-65206565D01*
X116502872Y-65355805D01*
X116506458Y-65389928D01*
X116565473Y-65571556D01*
X116660960Y-65736944D01*
X116665378Y-65741851D01*
X116665379Y-65741852D01*
X116759567Y-65846458D01*
X116788747Y-65878866D01*
X116876761Y-65942812D01*
X116919510Y-65973871D01*
X116943248Y-65991118D01*
X116949276Y-65993802D01*
X116949278Y-65993803D01*
X117109482Y-66065130D01*
X117117712Y-66068794D01*
X117211113Y-66088647D01*
X117298056Y-66107128D01*
X117298061Y-66107128D01*
X117304513Y-66108500D01*
X117495487Y-66108500D01*
X117501939Y-66107128D01*
X117501944Y-66107128D01*
X117588888Y-66088647D01*
X117682288Y-66068794D01*
X117690518Y-66065130D01*
X117850722Y-65993803D01*
X117850724Y-65993802D01*
X117856752Y-65991118D01*
X117880491Y-65973871D01*
X117923239Y-65942812D01*
X118011253Y-65878866D01*
X118040433Y-65846458D01*
X118134621Y-65741852D01*
X118134622Y-65741851D01*
X118139040Y-65736944D01*
X118234527Y-65571556D01*
X118293542Y-65389928D01*
X118297129Y-65355805D01*
X118312814Y-65206565D01*
X118313504Y-65200000D01*
X118308219Y-65149720D01*
X118294232Y-65016635D01*
X118294232Y-65016633D01*
X118293542Y-65010072D01*
X118234527Y-64828444D01*
X118223219Y-64808857D01*
X118179781Y-64733621D01*
X118139040Y-64663056D01*
X118119518Y-64641374D01*
X118015675Y-64526045D01*
X118015674Y-64526044D01*
X118011253Y-64521134D01*
X117856752Y-64408882D01*
X117850724Y-64406198D01*
X117850722Y-64406197D01*
X117688319Y-64333891D01*
X117688318Y-64333891D01*
X117682288Y-64331206D01*
X117588887Y-64311353D01*
X117501944Y-64292872D01*
X117501939Y-64292872D01*
X117495487Y-64291500D01*
X117330643Y-64291500D01*
X117262522Y-64271498D01*
X117216029Y-64217842D01*
X117205925Y-64147568D01*
X117235419Y-64082988D01*
X117277394Y-64051305D01*
X117301958Y-64039851D01*
X117301964Y-64039847D01*
X117306949Y-64037523D01*
X117411811Y-63964098D01*
X117489989Y-63909357D01*
X117489992Y-63909355D01*
X117494500Y-63906198D01*
X117656398Y-63744300D01*
X117787723Y-63556749D01*
X117790046Y-63551767D01*
X117790049Y-63551762D01*
X117806005Y-63517543D01*
X117852922Y-63464258D01*
X117921199Y-63444797D01*
X117989159Y-63465339D01*
X118034395Y-63517543D01*
X118050351Y-63551762D01*
X118050354Y-63551767D01*
X118052677Y-63556749D01*
X118184002Y-63744300D01*
X118345900Y-63906198D01*
X118350408Y-63909355D01*
X118350411Y-63909357D01*
X118428589Y-63964098D01*
X118533451Y-64037523D01*
X118538433Y-64039846D01*
X118538438Y-64039849D01*
X118735975Y-64131961D01*
X118740957Y-64134284D01*
X118746265Y-64135706D01*
X118746267Y-64135707D01*
X118956798Y-64192119D01*
X118956800Y-64192119D01*
X118962113Y-64193543D01*
X119190200Y-64213498D01*
X119418287Y-64193543D01*
X119423600Y-64192119D01*
X119423602Y-64192119D01*
X119634133Y-64135707D01*
X119634135Y-64135706D01*
X119639443Y-64134284D01*
X119644425Y-64131961D01*
X119841962Y-64039849D01*
X119841967Y-64039846D01*
X119846949Y-64037523D01*
X119951811Y-63964098D01*
X120029989Y-63909357D01*
X120029992Y-63909355D01*
X120034500Y-63906198D01*
X120196398Y-63744300D01*
X120327723Y-63556749D01*
X120330046Y-63551767D01*
X120330049Y-63551762D01*
X120346005Y-63517543D01*
X120392922Y-63464258D01*
X120461199Y-63444797D01*
X120529159Y-63465339D01*
X120574395Y-63517543D01*
X120590351Y-63551762D01*
X120590354Y-63551767D01*
X120592677Y-63556749D01*
X120724002Y-63744300D01*
X120885900Y-63906198D01*
X120890408Y-63909355D01*
X120890411Y-63909357D01*
X120968589Y-63964098D01*
X121073451Y-64037523D01*
X121078433Y-64039846D01*
X121078438Y-64039849D01*
X121275975Y-64131961D01*
X121280957Y-64134284D01*
X121286265Y-64135706D01*
X121286267Y-64135707D01*
X121496798Y-64192119D01*
X121496800Y-64192119D01*
X121502113Y-64193543D01*
X121730200Y-64213498D01*
X121958287Y-64193543D01*
X121963600Y-64192119D01*
X121963602Y-64192119D01*
X122174133Y-64135707D01*
X122174135Y-64135706D01*
X122179443Y-64134284D01*
X122184425Y-64131961D01*
X122381962Y-64039849D01*
X122381967Y-64039846D01*
X122386949Y-64037523D01*
X122491811Y-63964098D01*
X122569989Y-63909357D01*
X122569992Y-63909355D01*
X122574500Y-63906198D01*
X122736398Y-63744300D01*
X122867723Y-63556749D01*
X122870046Y-63551767D01*
X122870049Y-63551762D01*
X122886005Y-63517543D01*
X122932922Y-63464258D01*
X123001199Y-63444797D01*
X123069159Y-63465339D01*
X123114395Y-63517543D01*
X123130351Y-63551762D01*
X123130354Y-63551767D01*
X123132677Y-63556749D01*
X123264002Y-63744300D01*
X123425900Y-63906198D01*
X123430408Y-63909355D01*
X123430411Y-63909357D01*
X123508589Y-63964098D01*
X123613451Y-64037523D01*
X123618433Y-64039846D01*
X123618438Y-64039849D01*
X123815975Y-64131961D01*
X123820957Y-64134284D01*
X123826265Y-64135706D01*
X123826267Y-64135707D01*
X124036798Y-64192119D01*
X124036800Y-64192119D01*
X124042113Y-64193543D01*
X124270200Y-64213498D01*
X124498287Y-64193543D01*
X124503600Y-64192119D01*
X124503602Y-64192119D01*
X124714133Y-64135707D01*
X124714135Y-64135706D01*
X124719443Y-64134284D01*
X124724425Y-64131961D01*
X124921962Y-64039849D01*
X124921967Y-64039846D01*
X124926949Y-64037523D01*
X125031811Y-63964098D01*
X125109989Y-63909357D01*
X125109992Y-63909355D01*
X125114500Y-63906198D01*
X125276398Y-63744300D01*
X125407723Y-63556749D01*
X125410046Y-63551767D01*
X125410049Y-63551762D01*
X125426005Y-63517543D01*
X125472922Y-63464258D01*
X125541199Y-63444797D01*
X125609159Y-63465339D01*
X125654395Y-63517543D01*
X125670351Y-63551762D01*
X125670354Y-63551767D01*
X125672677Y-63556749D01*
X125804002Y-63744300D01*
X125965900Y-63906198D01*
X125970408Y-63909355D01*
X125970411Y-63909357D01*
X126048589Y-63964098D01*
X126153451Y-64037523D01*
X126158433Y-64039846D01*
X126158438Y-64039849D01*
X126355975Y-64131961D01*
X126360957Y-64134284D01*
X126366265Y-64135706D01*
X126366267Y-64135707D01*
X126576798Y-64192119D01*
X126576800Y-64192119D01*
X126582113Y-64193543D01*
X126810200Y-64213498D01*
X127038287Y-64193543D01*
X127043600Y-64192119D01*
X127043602Y-64192119D01*
X127254133Y-64135707D01*
X127254135Y-64135706D01*
X127259443Y-64134284D01*
X127264425Y-64131961D01*
X127461962Y-64039849D01*
X127461967Y-64039846D01*
X127466949Y-64037523D01*
X127571811Y-63964098D01*
X127649989Y-63909357D01*
X127649992Y-63909355D01*
X127654500Y-63906198D01*
X127816398Y-63744300D01*
X127947723Y-63556749D01*
X127950046Y-63551767D01*
X127950049Y-63551762D01*
X127966005Y-63517543D01*
X128012922Y-63464258D01*
X128081199Y-63444797D01*
X128149159Y-63465339D01*
X128194395Y-63517543D01*
X128210351Y-63551762D01*
X128210354Y-63551767D01*
X128212677Y-63556749D01*
X128344002Y-63744300D01*
X128505900Y-63906198D01*
X128510408Y-63909355D01*
X128510411Y-63909357D01*
X128588589Y-63964098D01*
X128693451Y-64037523D01*
X128698433Y-64039846D01*
X128698438Y-64039849D01*
X128895975Y-64131961D01*
X128900957Y-64134284D01*
X128906265Y-64135706D01*
X128906267Y-64135707D01*
X129116798Y-64192119D01*
X129116800Y-64192119D01*
X129122113Y-64193543D01*
X129350200Y-64213498D01*
X129578287Y-64193543D01*
X129583600Y-64192119D01*
X129583602Y-64192119D01*
X129794133Y-64135707D01*
X129794135Y-64135706D01*
X129799443Y-64134284D01*
X129804425Y-64131961D01*
X130001962Y-64039849D01*
X130001967Y-64039846D01*
X130006949Y-64037523D01*
X130111811Y-63964098D01*
X130189989Y-63909357D01*
X130189992Y-63909355D01*
X130194500Y-63906198D01*
X130356398Y-63744300D01*
X130487723Y-63556749D01*
X130490046Y-63551767D01*
X130490049Y-63551762D01*
X130506005Y-63517543D01*
X130552922Y-63464258D01*
X130621199Y-63444797D01*
X130689159Y-63465339D01*
X130734395Y-63517543D01*
X130750351Y-63551762D01*
X130750354Y-63551767D01*
X130752677Y-63556749D01*
X130884002Y-63744300D01*
X131045900Y-63906198D01*
X131050408Y-63909355D01*
X131050411Y-63909357D01*
X131128589Y-63964098D01*
X131233451Y-64037523D01*
X131238433Y-64039846D01*
X131238438Y-64039849D01*
X131435975Y-64131961D01*
X131440957Y-64134284D01*
X131446265Y-64135706D01*
X131446267Y-64135707D01*
X131656798Y-64192119D01*
X131656800Y-64192119D01*
X131662113Y-64193543D01*
X131890200Y-64213498D01*
X132118287Y-64193543D01*
X132123600Y-64192119D01*
X132123602Y-64192119D01*
X132334133Y-64135707D01*
X132334135Y-64135706D01*
X132339443Y-64134284D01*
X132344425Y-64131961D01*
X132541962Y-64039849D01*
X132541967Y-64039846D01*
X132546949Y-64037523D01*
X132651811Y-63964098D01*
X132729989Y-63909357D01*
X132729992Y-63909355D01*
X132734500Y-63906198D01*
X132896398Y-63744300D01*
X133027723Y-63556749D01*
X133030046Y-63551767D01*
X133030049Y-63551762D01*
X133046005Y-63517543D01*
X133092922Y-63464258D01*
X133161199Y-63444797D01*
X133229159Y-63465339D01*
X133274395Y-63517543D01*
X133290351Y-63551762D01*
X133290354Y-63551767D01*
X133292677Y-63556749D01*
X133424002Y-63744300D01*
X133585900Y-63906198D01*
X133590408Y-63909355D01*
X133590411Y-63909357D01*
X133668589Y-63964098D01*
X133773451Y-64037523D01*
X133778433Y-64039846D01*
X133778438Y-64039849D01*
X133975975Y-64131961D01*
X133980957Y-64134284D01*
X133986265Y-64135706D01*
X133986267Y-64135707D01*
X134196798Y-64192119D01*
X134196800Y-64192119D01*
X134202113Y-64193543D01*
X134430200Y-64213498D01*
X134658287Y-64193543D01*
X134663600Y-64192119D01*
X134663602Y-64192119D01*
X134874133Y-64135707D01*
X134874135Y-64135706D01*
X134879443Y-64134284D01*
X134884425Y-64131961D01*
X135081962Y-64039849D01*
X135081967Y-64039846D01*
X135086949Y-64037523D01*
X135191811Y-63964098D01*
X135269989Y-63909357D01*
X135269992Y-63909355D01*
X135274500Y-63906198D01*
X135436398Y-63744300D01*
X135567723Y-63556749D01*
X135570046Y-63551767D01*
X135570049Y-63551762D01*
X135586005Y-63517543D01*
X135632922Y-63464258D01*
X135701199Y-63444797D01*
X135769159Y-63465339D01*
X135814395Y-63517543D01*
X135830351Y-63551762D01*
X135830354Y-63551767D01*
X135832677Y-63556749D01*
X135964002Y-63744300D01*
X136125900Y-63906198D01*
X136130408Y-63909355D01*
X136130411Y-63909357D01*
X136208589Y-63964098D01*
X136313451Y-64037523D01*
X136318433Y-64039846D01*
X136318438Y-64039849D01*
X136515975Y-64131961D01*
X136520957Y-64134284D01*
X136526265Y-64135706D01*
X136526267Y-64135707D01*
X136736798Y-64192119D01*
X136736800Y-64192119D01*
X136742113Y-64193543D01*
X136970200Y-64213498D01*
X137198287Y-64193543D01*
X137203600Y-64192119D01*
X137203602Y-64192119D01*
X137414133Y-64135707D01*
X137414135Y-64135706D01*
X137419443Y-64134284D01*
X137424425Y-64131961D01*
X137621962Y-64039849D01*
X137621967Y-64039846D01*
X137626949Y-64037523D01*
X137731811Y-63964098D01*
X137809989Y-63909357D01*
X137809992Y-63909355D01*
X137814500Y-63906198D01*
X137976398Y-63744300D01*
X138107723Y-63556749D01*
X138110046Y-63551767D01*
X138110049Y-63551762D01*
X138202161Y-63354225D01*
X138202161Y-63354224D01*
X138204484Y-63349243D01*
X138216134Y-63305767D01*
X138262319Y-63133402D01*
X138262319Y-63133400D01*
X138263743Y-63128087D01*
X138283698Y-62900000D01*
X138263743Y-62671913D01*
X138204484Y-62450757D01*
X138107723Y-62243251D01*
X138108354Y-62242957D01*
X138092595Y-62178010D01*
X138115813Y-62110917D01*
X138171619Y-62067028D01*
X138218453Y-62058000D01*
X144437317Y-62058000D01*
X144461907Y-62060423D01*
X144472200Y-62062471D01*
X144477743Y-62062704D01*
X144479861Y-62062793D01*
X144479866Y-62062793D01*
X144484729Y-62062997D01*
X144489575Y-62062450D01*
X144494185Y-62062287D01*
X144499433Y-62061956D01*
X144655676Y-62059859D01*
X144890516Y-62056707D01*
X144890527Y-62056706D01*
X144893236Y-62056670D01*
X145073251Y-62038647D01*
X145297001Y-62016246D01*
X145297012Y-62016244D01*
X145299723Y-62015973D01*
X145302406Y-62015468D01*
X145302411Y-62015467D01*
X145698499Y-61940872D01*
X145698506Y-61940870D01*
X145701184Y-61940366D01*
X145800150Y-61912709D01*
X146092007Y-61831146D01*
X146092018Y-61831142D01*
X146094628Y-61830413D01*
X146474570Y-61687889D01*
X146474573Y-61687888D01*
X146474577Y-61687886D01*
X146477121Y-61686932D01*
X146845813Y-61510993D01*
X147197955Y-61303909D01*
X147381185Y-61173661D01*
X147528696Y-61068804D01*
X147528702Y-61068800D01*
X147530921Y-61067222D01*
X147715704Y-60910209D01*
X147840165Y-60804453D01*
X147840173Y-60804445D01*
X147842232Y-60802696D01*
X147994693Y-60648611D01*
X148127645Y-60514244D01*
X148127651Y-60514237D01*
X148129564Y-60512304D01*
X148390778Y-60198210D01*
X148623926Y-59862755D01*
X148827270Y-59508440D01*
X148999294Y-59137906D01*
X149128407Y-58782309D01*
X149131608Y-58774944D01*
X149131526Y-58774910D01*
X149133393Y-58770426D01*
X149135609Y-58766082D01*
X149139521Y-58754168D01*
X149144258Y-58725338D01*
X149148253Y-58708421D01*
X149222218Y-58470088D01*
X149574954Y-57333497D01*
X149579652Y-57320810D01*
X149591589Y-57293225D01*
X149591589Y-57293224D01*
X149595154Y-57284986D01*
X149596263Y-57276080D01*
X149596264Y-57276077D01*
X149597585Y-57265465D01*
X149602322Y-57243556D01*
X149671639Y-57021073D01*
X149695775Y-56943605D01*
X149699930Y-56932225D01*
X149833239Y-56615350D01*
X149838469Y-56604421D01*
X150001599Y-56301811D01*
X150007854Y-56291434D01*
X150020606Y-56272415D01*
X150199300Y-56005883D01*
X150206520Y-55996160D01*
X150424502Y-55730324D01*
X150432621Y-55721340D01*
X150675129Y-55477668D01*
X150684079Y-55469501D01*
X150882981Y-55304804D01*
X150948875Y-55250242D01*
X150958558Y-55242981D01*
X151243178Y-55050176D01*
X151253525Y-55043871D01*
X151555353Y-54879292D01*
X151566257Y-54874010D01*
X151882483Y-54739187D01*
X151893843Y-54734976D01*
X152221576Y-54631142D01*
X152233289Y-54628042D01*
X152473900Y-54576601D01*
X152569480Y-54556167D01*
X152581425Y-54554209D01*
X152922965Y-54514955D01*
X152935040Y-54514153D01*
X153241773Y-54508559D01*
X153267160Y-54510673D01*
X153278409Y-54512770D01*
X153286096Y-54511997D01*
X153293730Y-54513186D01*
X153313054Y-54510659D01*
X153335570Y-54509747D01*
X153636100Y-54524512D01*
X153648394Y-54525722D01*
X153975139Y-54574191D01*
X153987249Y-54576599D01*
X154307674Y-54656861D01*
X154319507Y-54660451D01*
X154630494Y-54771725D01*
X154641918Y-54776456D01*
X154940523Y-54917685D01*
X154951428Y-54923514D01*
X155234745Y-55093328D01*
X155245026Y-55100198D01*
X155510329Y-55296960D01*
X155519887Y-55304804D01*
X155764630Y-55526626D01*
X155773374Y-55535370D01*
X155995196Y-55780113D01*
X156003040Y-55789671D01*
X156199802Y-56054974D01*
X156206672Y-56065255D01*
X156376486Y-56348572D01*
X156382315Y-56359477D01*
X156523544Y-56658082D01*
X156528275Y-56669506D01*
X156639549Y-56980493D01*
X156643138Y-56992324D01*
X156714215Y-57276077D01*
X156723399Y-57312743D01*
X156725809Y-57324861D01*
X156774277Y-57651601D01*
X156775489Y-57663907D01*
X156789890Y-57957062D01*
X156788543Y-57982624D01*
X156788195Y-57984857D01*
X156788195Y-57984861D01*
X156786814Y-57993730D01*
X156787978Y-58002632D01*
X156787978Y-58002635D01*
X156790936Y-58025251D01*
X156792000Y-58041589D01*
X156792000Y-83050672D01*
X156790500Y-83070056D01*
X156786814Y-83093730D01*
X156789274Y-83112539D01*
X156789341Y-83113050D01*
X156790253Y-83135573D01*
X156775489Y-83436094D01*
X156774278Y-83448394D01*
X156726007Y-83773810D01*
X156725811Y-83775130D01*
X156723401Y-83787249D01*
X156704302Y-83863495D01*
X156643139Y-84107674D01*
X156639549Y-84119507D01*
X156528275Y-84430494D01*
X156523544Y-84441918D01*
X156382315Y-84740523D01*
X156376488Y-84751424D01*
X156292039Y-84892319D01*
X156206672Y-85034745D01*
X156199802Y-85045026D01*
X156003040Y-85310329D01*
X155995196Y-85319887D01*
X155773374Y-85564630D01*
X155764630Y-85573374D01*
X155519887Y-85795196D01*
X155510329Y-85803040D01*
X155245026Y-85999802D01*
X155234745Y-86006672D01*
X154951428Y-86176486D01*
X154940523Y-86182315D01*
X154641918Y-86323544D01*
X154630494Y-86328275D01*
X154319507Y-86439549D01*
X154307676Y-86443138D01*
X153987249Y-86523401D01*
X153975139Y-86525809D01*
X153648394Y-86574278D01*
X153636098Y-86575489D01*
X153547344Y-86579849D01*
X153342938Y-86589890D01*
X153317376Y-86588543D01*
X153315142Y-86588195D01*
X153315139Y-86588195D01*
X153306270Y-86586814D01*
X153298608Y-86587816D01*
X153290944Y-86586856D01*
X153282084Y-86588285D01*
X153282082Y-86588285D01*
X153271516Y-86589989D01*
X153249157Y-86591576D01*
X152935036Y-86585846D01*
X152922968Y-86585045D01*
X152581422Y-86545791D01*
X152569466Y-86543830D01*
X152233295Y-86471958D01*
X152221583Y-86468859D01*
X151893848Y-86365025D01*
X151882487Y-86360814D01*
X151566257Y-86225989D01*
X151555353Y-86220707D01*
X151253526Y-86056129D01*
X151243180Y-86049824D01*
X151169337Y-85999802D01*
X150958558Y-85857019D01*
X150948870Y-85849753D01*
X150892456Y-85803040D01*
X150684080Y-85630499D01*
X150675130Y-85622332D01*
X150432617Y-85378654D01*
X150424494Y-85369665D01*
X150271272Y-85182806D01*
X150206516Y-85103834D01*
X150199309Y-85094130D01*
X150007849Y-84808557D01*
X150001603Y-84798197D01*
X149838469Y-84495580D01*
X149833239Y-84484650D01*
X149699931Y-84167777D01*
X149695775Y-84156397D01*
X149604518Y-83863495D01*
X149599438Y-83838526D01*
X149599195Y-83836086D01*
X149599194Y-83836083D01*
X149598303Y-83827152D01*
X149593400Y-83815015D01*
X149580733Y-83783664D01*
X149577220Y-83773810D01*
X149150550Y-82398978D01*
X149146094Y-82379020D01*
X149143816Y-82362671D01*
X149143814Y-82362661D01*
X149143142Y-82357839D01*
X149139521Y-82345833D01*
X149137419Y-82341452D01*
X149135743Y-82337132D01*
X149133707Y-82332288D01*
X149131094Y-82325089D01*
X149073867Y-82167479D01*
X149000225Y-81964655D01*
X149000221Y-81964645D01*
X148999295Y-81962095D01*
X148827272Y-81591560D01*
X148623928Y-81237245D01*
X148390780Y-80901790D01*
X148129566Y-80587696D01*
X148127653Y-80585763D01*
X148127647Y-80585756D01*
X147850574Y-80305733D01*
X147842233Y-80297303D01*
X147840174Y-80295554D01*
X147840166Y-80295546D01*
X147566222Y-80062772D01*
X147530923Y-80032778D01*
X147528699Y-80031197D01*
X147528698Y-80031196D01*
X147364440Y-79914434D01*
X147197956Y-79796090D01*
X146845814Y-79589005D01*
X146477122Y-79413067D01*
X146474576Y-79412112D01*
X146474574Y-79412111D01*
X146097172Y-79270540D01*
X146097173Y-79270540D01*
X146094629Y-79269586D01*
X146092019Y-79268857D01*
X146092008Y-79268853D01*
X145703822Y-79160369D01*
X145701185Y-79159632D01*
X145698504Y-79159127D01*
X145698500Y-79159126D01*
X145302411Y-79084531D01*
X145302406Y-79084530D01*
X145299723Y-79084025D01*
X145297012Y-79083754D01*
X145297001Y-79083752D01*
X145044461Y-79058469D01*
X144893236Y-79043329D01*
X144890527Y-79043293D01*
X144890516Y-79043292D01*
X144692289Y-79040632D01*
X144514949Y-79038251D01*
X144506954Y-79037648D01*
X144506949Y-79037738D01*
X144502089Y-79037447D01*
X144497267Y-79036783D01*
X144492404Y-79036868D01*
X144492399Y-79036868D01*
X144490569Y-79036901D01*
X144484729Y-79037003D01*
X144469912Y-79039577D01*
X144466665Y-79040141D01*
X144445100Y-79042000D01*
X138178040Y-79042000D01*
X138109919Y-79021998D01*
X138063426Y-78968342D01*
X138053322Y-78898068D01*
X138074827Y-78843729D01*
X138104566Y-78801257D01*
X138107723Y-78796749D01*
X138110046Y-78791767D01*
X138110049Y-78791762D01*
X138202161Y-78594225D01*
X138202161Y-78594224D01*
X138204484Y-78589243D01*
X138261133Y-78377830D01*
X138262319Y-78373402D01*
X138262319Y-78373400D01*
X138263743Y-78368087D01*
X138283698Y-78140000D01*
X138263743Y-77911913D01*
X138243871Y-77837749D01*
X138205907Y-77696067D01*
X138205906Y-77696065D01*
X138204484Y-77690757D01*
X138185694Y-77650462D01*
X138110049Y-77488238D01*
X138110046Y-77488233D01*
X138107723Y-77483251D01*
X138026978Y-77367936D01*
X137979557Y-77300211D01*
X137979555Y-77300208D01*
X137976398Y-77295700D01*
X137814500Y-77133802D01*
X137809992Y-77130645D01*
X137809989Y-77130643D01*
X137729030Y-77073955D01*
X137626949Y-77002477D01*
X137621967Y-77000154D01*
X137621962Y-77000151D01*
X137424425Y-76908039D01*
X137424424Y-76908039D01*
X137419443Y-76905716D01*
X137414135Y-76904294D01*
X137414133Y-76904293D01*
X137398111Y-76900000D01*
X145336647Y-76900000D01*
X145356022Y-77121463D01*
X145413560Y-77336196D01*
X145415882Y-77341177D01*
X145415883Y-77341178D01*
X145505186Y-77532689D01*
X145505189Y-77532694D01*
X145507512Y-77537676D01*
X145510668Y-77542183D01*
X145510669Y-77542185D01*
X145624065Y-77704131D01*
X145635023Y-77719781D01*
X145792219Y-77876977D01*
X145796727Y-77880134D01*
X145796730Y-77880136D01*
X145849939Y-77917393D01*
X145974323Y-78004488D01*
X145979305Y-78006811D01*
X145979310Y-78006814D01*
X146135159Y-78079487D01*
X146175804Y-78098440D01*
X146181112Y-78099862D01*
X146181114Y-78099863D01*
X146228993Y-78112692D01*
X146390537Y-78155978D01*
X146612000Y-78175353D01*
X146833463Y-78155978D01*
X146995007Y-78112692D01*
X147042886Y-78099863D01*
X147042888Y-78099862D01*
X147048196Y-78098440D01*
X147088841Y-78079487D01*
X147244690Y-78006814D01*
X147244695Y-78006811D01*
X147249677Y-78004488D01*
X147374061Y-77917393D01*
X147427270Y-77880136D01*
X147427273Y-77880134D01*
X147431781Y-77876977D01*
X147588977Y-77719781D01*
X147599936Y-77704131D01*
X147713331Y-77542185D01*
X147713332Y-77542183D01*
X147716488Y-77537676D01*
X147718811Y-77532694D01*
X147718814Y-77532689D01*
X147808117Y-77341178D01*
X147808118Y-77341177D01*
X147810440Y-77336196D01*
X147867978Y-77121463D01*
X147887353Y-76900000D01*
X147867978Y-76678537D01*
X147814309Y-76478244D01*
X147811863Y-76469114D01*
X147811862Y-76469112D01*
X147810440Y-76463804D01*
X147808117Y-76458822D01*
X147718814Y-76267311D01*
X147718811Y-76267306D01*
X147716488Y-76262324D01*
X147713331Y-76257815D01*
X147592136Y-76084730D01*
X147592134Y-76084727D01*
X147588977Y-76080219D01*
X147431781Y-75923023D01*
X147427273Y-75919866D01*
X147427270Y-75919864D01*
X147349460Y-75865381D01*
X147249677Y-75795512D01*
X147244695Y-75793189D01*
X147244690Y-75793186D01*
X147053178Y-75703883D01*
X147053177Y-75703882D01*
X147048196Y-75701560D01*
X147042888Y-75700138D01*
X147042886Y-75700137D01*
X146973171Y-75681457D01*
X146833463Y-75644022D01*
X146612000Y-75624647D01*
X146390537Y-75644022D01*
X146250829Y-75681457D01*
X146181114Y-75700137D01*
X146181112Y-75700138D01*
X146175804Y-75701560D01*
X146170823Y-75703882D01*
X146170822Y-75703883D01*
X145979311Y-75793186D01*
X145979306Y-75793189D01*
X145974324Y-75795512D01*
X145969817Y-75798668D01*
X145969815Y-75798669D01*
X145796730Y-75919864D01*
X145796727Y-75919866D01*
X145792219Y-75923023D01*
X145635023Y-76080219D01*
X145631866Y-76084727D01*
X145631864Y-76084730D01*
X145510669Y-76257815D01*
X145507512Y-76262324D01*
X145505189Y-76267306D01*
X145505186Y-76267311D01*
X145415883Y-76458822D01*
X145413560Y-76463804D01*
X145412138Y-76469112D01*
X145412137Y-76469114D01*
X145409691Y-76478244D01*
X145356022Y-76678537D01*
X145336647Y-76900000D01*
X137398111Y-76900000D01*
X137381809Y-76895632D01*
X137361822Y-76890276D01*
X137301200Y-76853326D01*
X137270179Y-76789465D01*
X137278607Y-76718971D01*
X137305339Y-76679475D01*
X138390668Y-75594146D01*
X151291500Y-75594146D01*
X151291653Y-75596332D01*
X151291653Y-75596336D01*
X151305581Y-75795512D01*
X151306189Y-75804212D01*
X151364591Y-76078970D01*
X151366094Y-76083099D01*
X151366095Y-76083103D01*
X151431220Y-76262031D01*
X151460663Y-76342926D01*
X151592536Y-76590942D01*
X151595122Y-76594501D01*
X151595123Y-76594503D01*
X151738121Y-76791323D01*
X151757642Y-76818192D01*
X151760698Y-76821356D01*
X151760700Y-76821359D01*
X151840789Y-76904293D01*
X151952769Y-77020252D01*
X152174118Y-77193188D01*
X152177922Y-77195384D01*
X152177929Y-77195389D01*
X152359487Y-77300211D01*
X152417381Y-77333636D01*
X152677824Y-77438862D01*
X152682097Y-77439927D01*
X152682099Y-77439928D01*
X152946107Y-77505753D01*
X152946112Y-77505754D01*
X152950376Y-77506817D01*
X152954744Y-77507276D01*
X152954749Y-77507277D01*
X153225364Y-77535719D01*
X153225367Y-77535719D01*
X153229733Y-77536178D01*
X153234121Y-77536025D01*
X153234127Y-77536025D01*
X153506061Y-77526529D01*
X153506067Y-77526528D01*
X153510458Y-77526375D01*
X153514781Y-77525613D01*
X153514788Y-77525612D01*
X153690494Y-77494630D01*
X153787087Y-77477598D01*
X154054235Y-77390797D01*
X154058188Y-77388869D01*
X154058193Y-77388867D01*
X154171432Y-77333636D01*
X154306702Y-77267660D01*
X154310341Y-77265205D01*
X154310347Y-77265202D01*
X154436618Y-77180031D01*
X154539576Y-77110585D01*
X154574804Y-77078866D01*
X154726973Y-76941852D01*
X154748322Y-76922629D01*
X154760565Y-76908039D01*
X154835955Y-76818192D01*
X154928879Y-76707450D01*
X155077731Y-76469236D01*
X155167634Y-76267311D01*
X155190195Y-76216639D01*
X155190196Y-76216637D01*
X155191982Y-76212625D01*
X155238265Y-76051217D01*
X155268195Y-75946837D01*
X155268195Y-75946836D01*
X155269407Y-75942610D01*
X155272325Y-75921852D01*
X155288762Y-75804894D01*
X155308500Y-75664448D01*
X155308500Y-73353854D01*
X155307586Y-73340778D01*
X155294118Y-73148173D01*
X155294117Y-73148168D01*
X155293811Y-73143788D01*
X155235409Y-72869030D01*
X155233385Y-72863469D01*
X155140846Y-72609219D01*
X155140844Y-72609215D01*
X155139337Y-72605074D01*
X155007464Y-72357058D01*
X154997652Y-72343553D01*
X154844947Y-72133371D01*
X154844944Y-72133368D01*
X154842358Y-72129808D01*
X154827436Y-72114355D01*
X154744752Y-72028734D01*
X154647231Y-71927748D01*
X154425882Y-71754812D01*
X154422078Y-71752616D01*
X154422071Y-71752611D01*
X154216742Y-71634065D01*
X154182619Y-71614364D01*
X153922176Y-71509138D01*
X153906394Y-71505203D01*
X153653893Y-71442247D01*
X153653888Y-71442246D01*
X153649624Y-71441183D01*
X153645256Y-71440724D01*
X153645251Y-71440723D01*
X153374636Y-71412281D01*
X153374633Y-71412281D01*
X153370267Y-71411822D01*
X153365879Y-71411975D01*
X153365873Y-71411975D01*
X153093939Y-71421471D01*
X153093933Y-71421472D01*
X153089542Y-71421625D01*
X153085219Y-71422387D01*
X153085212Y-71422388D01*
X152909506Y-71453370D01*
X152812913Y-71470402D01*
X152545765Y-71557203D01*
X152541812Y-71559131D01*
X152541807Y-71559133D01*
X152484789Y-71586943D01*
X152293298Y-71680340D01*
X152289659Y-71682795D01*
X152289653Y-71682798D01*
X152195612Y-71746230D01*
X152060424Y-71837415D01*
X152057153Y-71840360D01*
X152057152Y-71840361D01*
X152051440Y-71845504D01*
X151851678Y-72025371D01*
X151848857Y-72028733D01*
X151848856Y-72028734D01*
X151802166Y-72084377D01*
X151671121Y-72240550D01*
X151668789Y-72244282D01*
X151525192Y-72474087D01*
X151522269Y-72478764D01*
X151457776Y-72623618D01*
X151411623Y-72727279D01*
X151408018Y-72735375D01*
X151375503Y-72848770D01*
X151341607Y-72966981D01*
X151330593Y-73005390D01*
X151329982Y-73009740D01*
X151329981Y-73009743D01*
X151319280Y-73085885D01*
X151291500Y-73283552D01*
X151291500Y-75594146D01*
X138390668Y-75594146D01*
X140965497Y-73019317D01*
X140975041Y-73010700D01*
X140975442Y-73010374D01*
X141034062Y-72962649D01*
X141044029Y-72954535D01*
X141044035Y-72954529D01*
X141046523Y-72952504D01*
X141452504Y-72546523D01*
X141509785Y-72475979D01*
X141518505Y-72466309D01*
X142801187Y-71183627D01*
X142810731Y-71175010D01*
X142835881Y-71154535D01*
X142835887Y-71154529D01*
X142838375Y-71152504D01*
X143262034Y-70728845D01*
X143327956Y-70647659D01*
X143331036Y-70641496D01*
X143331038Y-70641492D01*
X143402441Y-70498591D01*
X143405710Y-70492049D01*
X143433150Y-70375514D01*
X143443904Y-70329846D01*
X143443904Y-70329844D01*
X143445581Y-70322723D01*
X143445561Y-70299024D01*
X143445449Y-70171672D01*
X143465392Y-70103534D01*
X143519007Y-70056994D01*
X143571337Y-70045562D01*
X143724025Y-70045429D01*
X143848326Y-70015931D01*
X143886159Y-70006953D01*
X143886160Y-70006953D01*
X143893280Y-70005263D01*
X143899817Y-70001983D01*
X143899821Y-70001981D01*
X144042608Y-69930323D01*
X144042612Y-69930320D01*
X144048756Y-69927237D01*
X144054091Y-69922894D01*
X144126351Y-69864065D01*
X144126357Y-69864059D01*
X144128845Y-69862034D01*
X144552504Y-69438375D01*
X144557089Y-69432729D01*
X144577854Y-69407155D01*
X144618426Y-69357189D01*
X144621506Y-69351026D01*
X144621508Y-69351022D01*
X144696180Y-69201579D01*
X144697054Y-69202016D01*
X144721947Y-69162866D01*
X145233788Y-68651025D01*
X145296100Y-68616999D01*
X145366915Y-68622064D01*
X145423751Y-68664611D01*
X145448562Y-68731131D01*
X145437078Y-68793370D01*
X145418183Y-68833891D01*
X145413560Y-68843804D01*
X145412138Y-68849112D01*
X145412137Y-68849114D01*
X145400633Y-68892049D01*
X145356022Y-69058537D01*
X145336647Y-69280000D01*
X145337126Y-69285475D01*
X145355512Y-69495631D01*
X145356022Y-69501463D01*
X145385348Y-69610908D01*
X145409222Y-69700005D01*
X145413560Y-69716196D01*
X145415882Y-69721177D01*
X145415883Y-69721178D01*
X145505186Y-69912689D01*
X145505189Y-69912694D01*
X145507512Y-69917676D01*
X145510668Y-69922183D01*
X145510669Y-69922185D01*
X145627545Y-70089101D01*
X145635023Y-70099781D01*
X145792219Y-70256977D01*
X145796727Y-70260134D01*
X145796730Y-70260136D01*
X145864247Y-70307412D01*
X145974323Y-70384488D01*
X145979305Y-70386811D01*
X145979310Y-70386814D01*
X146084373Y-70435805D01*
X146137658Y-70482722D01*
X146157119Y-70550999D01*
X146136577Y-70618959D01*
X146084373Y-70664195D01*
X145979311Y-70713186D01*
X145979306Y-70713189D01*
X145974324Y-70715512D01*
X145969817Y-70718668D01*
X145969815Y-70718669D01*
X145796730Y-70839864D01*
X145796727Y-70839866D01*
X145792219Y-70843023D01*
X145635023Y-71000219D01*
X145631866Y-71004727D01*
X145631864Y-71004730D01*
X145514418Y-71172461D01*
X145507512Y-71182324D01*
X145505189Y-71187306D01*
X145505186Y-71187311D01*
X145432599Y-71342975D01*
X145413560Y-71383804D01*
X145412138Y-71389112D01*
X145412137Y-71389114D01*
X145403426Y-71421625D01*
X145356022Y-71598537D01*
X145336647Y-71820000D01*
X145356022Y-72041463D01*
X145389562Y-72166635D01*
X145410368Y-72244282D01*
X145413560Y-72256196D01*
X145415882Y-72261177D01*
X145415883Y-72261178D01*
X145505186Y-72452689D01*
X145505189Y-72452694D01*
X145507512Y-72457676D01*
X145510668Y-72462183D01*
X145510669Y-72462185D01*
X145627545Y-72629101D01*
X145635023Y-72639781D01*
X145792219Y-72796977D01*
X145796727Y-72800134D01*
X145796730Y-72800136D01*
X145843545Y-72832916D01*
X145974323Y-72924488D01*
X145979305Y-72926811D01*
X145979310Y-72926814D01*
X146157153Y-73009743D01*
X146175804Y-73018440D01*
X146181112Y-73019862D01*
X146181114Y-73019863D01*
X146214714Y-73028866D01*
X146390537Y-73075978D01*
X146612000Y-73095353D01*
X146833463Y-73075978D01*
X147009286Y-73028866D01*
X147042886Y-73019863D01*
X147042888Y-73019862D01*
X147048196Y-73018440D01*
X147066847Y-73009743D01*
X147244690Y-72926814D01*
X147244695Y-72926811D01*
X147249677Y-72924488D01*
X147380455Y-72832916D01*
X147427270Y-72800136D01*
X147427273Y-72800134D01*
X147431781Y-72796977D01*
X147588977Y-72639781D01*
X147596456Y-72629101D01*
X147713331Y-72462185D01*
X147713332Y-72462183D01*
X147716488Y-72457676D01*
X147718811Y-72452694D01*
X147718814Y-72452689D01*
X147808117Y-72261178D01*
X147808118Y-72261177D01*
X147810440Y-72256196D01*
X147813633Y-72244282D01*
X147834438Y-72166635D01*
X147867978Y-72041463D01*
X147887353Y-71820000D01*
X147867978Y-71598537D01*
X147820574Y-71421625D01*
X147811863Y-71389114D01*
X147811862Y-71389112D01*
X147810440Y-71383804D01*
X147791401Y-71342975D01*
X147718814Y-71187311D01*
X147718811Y-71187306D01*
X147716488Y-71182324D01*
X147709582Y-71172461D01*
X147592136Y-71004730D01*
X147592134Y-71004727D01*
X147588977Y-71000219D01*
X147431781Y-70843023D01*
X147427273Y-70839866D01*
X147427270Y-70839864D01*
X147292787Y-70745698D01*
X147249677Y-70715512D01*
X147244695Y-70713189D01*
X147244690Y-70713186D01*
X147139627Y-70664195D01*
X147086342Y-70617278D01*
X147066881Y-70549001D01*
X147087423Y-70481041D01*
X147139627Y-70435805D01*
X147244690Y-70386814D01*
X147244695Y-70386811D01*
X147249677Y-70384488D01*
X147359753Y-70307412D01*
X147427270Y-70260136D01*
X147427273Y-70260134D01*
X147431781Y-70256977D01*
X147588977Y-70099781D01*
X147596456Y-70089101D01*
X147713331Y-69922185D01*
X147713332Y-69922183D01*
X147716488Y-69917676D01*
X147718811Y-69912694D01*
X147718814Y-69912689D01*
X147808117Y-69721178D01*
X147808118Y-69721177D01*
X147810440Y-69716196D01*
X147814779Y-69700005D01*
X147838652Y-69610908D01*
X147867978Y-69501463D01*
X147868489Y-69495631D01*
X147886874Y-69285475D01*
X147887353Y-69280000D01*
X147867978Y-69058537D01*
X147823367Y-68892049D01*
X147811863Y-68849114D01*
X147811862Y-68849112D01*
X147810440Y-68843804D01*
X147807229Y-68836917D01*
X147718814Y-68647311D01*
X147718811Y-68647306D01*
X147716488Y-68642324D01*
X147701193Y-68620480D01*
X147592136Y-68464730D01*
X147592134Y-68464727D01*
X147588977Y-68460219D01*
X147431781Y-68303023D01*
X147427273Y-68299866D01*
X147427270Y-68299864D01*
X147338145Y-68237458D01*
X147249677Y-68175512D01*
X147244695Y-68173189D01*
X147244690Y-68173186D01*
X147148855Y-68128498D01*
X147139627Y-68124195D01*
X147086342Y-68077278D01*
X147066881Y-68009001D01*
X147087423Y-67941041D01*
X147139627Y-67895805D01*
X147148032Y-67891886D01*
X147204664Y-67865478D01*
X147244690Y-67846814D01*
X147244695Y-67846811D01*
X147249677Y-67844488D01*
X147370889Y-67759614D01*
X147427270Y-67720136D01*
X147427273Y-67720134D01*
X147431781Y-67716977D01*
X147588977Y-67559781D01*
X147592630Y-67554565D01*
X147713331Y-67382185D01*
X147713332Y-67382183D01*
X147716488Y-67377676D01*
X147718811Y-67372694D01*
X147718814Y-67372689D01*
X147808117Y-67181178D01*
X147808118Y-67181177D01*
X147810440Y-67176196D01*
X147818862Y-67144767D01*
X147849227Y-67031442D01*
X147867978Y-66961463D01*
X147887353Y-66740000D01*
X147867978Y-66518537D01*
X147810440Y-66303804D01*
X147804271Y-66290575D01*
X147718814Y-66107311D01*
X147718811Y-66107306D01*
X147716488Y-66102324D01*
X147702946Y-66082984D01*
X147592136Y-65924730D01*
X147592134Y-65924727D01*
X147588977Y-65920219D01*
X147431781Y-65763023D01*
X147427273Y-65759866D01*
X147427270Y-65759864D01*
X147293138Y-65665944D01*
X147249677Y-65635512D01*
X147244695Y-65633189D01*
X147244690Y-65633186D01*
X147139627Y-65584195D01*
X147086342Y-65537278D01*
X147066881Y-65469001D01*
X147087423Y-65401041D01*
X147139627Y-65355805D01*
X147244690Y-65306814D01*
X147244695Y-65306811D01*
X147249677Y-65304488D01*
X147373180Y-65218010D01*
X147427270Y-65180136D01*
X147427273Y-65180134D01*
X147431781Y-65176977D01*
X147588977Y-65019781D01*
X147595776Y-65010072D01*
X147713331Y-64842185D01*
X147713332Y-64842183D01*
X147716488Y-64837676D01*
X147718811Y-64832694D01*
X147718814Y-64832689D01*
X147808117Y-64641178D01*
X147808118Y-64641177D01*
X147810440Y-64636196D01*
X147812037Y-64630238D01*
X147842311Y-64517251D01*
X147867978Y-64421463D01*
X147887353Y-64200000D01*
X147867978Y-63978537D01*
X147810440Y-63763804D01*
X147740223Y-63613223D01*
X147718814Y-63567311D01*
X147718811Y-63567306D01*
X147716488Y-63562324D01*
X147713331Y-63557815D01*
X147592136Y-63384730D01*
X147592134Y-63384727D01*
X147588977Y-63380219D01*
X147431781Y-63223023D01*
X147427273Y-63219866D01*
X147427270Y-63219864D01*
X147303789Y-63133402D01*
X147249677Y-63095512D01*
X147244695Y-63093189D01*
X147244690Y-63093186D01*
X147053178Y-63003883D01*
X147053177Y-63003882D01*
X147048196Y-63001560D01*
X147042888Y-63000138D01*
X147042886Y-63000137D01*
X146977051Y-62982497D01*
X146833463Y-62944022D01*
X146612000Y-62924647D01*
X146390537Y-62944022D01*
X146246949Y-62982497D01*
X146181114Y-63000137D01*
X146181112Y-63000138D01*
X146175804Y-63001560D01*
X146170823Y-63003882D01*
X146170822Y-63003883D01*
X145979311Y-63093186D01*
X145979306Y-63093189D01*
X145974324Y-63095512D01*
X145969817Y-63098668D01*
X145969815Y-63098669D01*
X145796730Y-63219864D01*
X145796727Y-63219866D01*
X145792219Y-63223023D01*
X145760647Y-63254595D01*
X145698335Y-63288621D01*
X145671552Y-63291500D01*
X140581416Y-63291500D01*
X140561707Y-63289949D01*
X140547809Y-63287748D01*
X140541222Y-63288093D01*
X140541217Y-63288093D01*
X140479519Y-63291327D01*
X140472925Y-63291500D01*
X140452390Y-63291500D01*
X140446222Y-63292148D01*
X140431960Y-63293647D01*
X140425385Y-63294164D01*
X140363696Y-63297397D01*
X140363695Y-63297397D01*
X140357096Y-63297743D01*
X140343508Y-63301384D01*
X140324061Y-63304988D01*
X140316644Y-63305767D01*
X140316640Y-63305768D01*
X140310072Y-63306458D01*
X140253276Y-63324912D01*
X140245009Y-63327598D01*
X140238685Y-63329471D01*
X140179010Y-63345461D01*
X140179006Y-63345462D01*
X140172630Y-63347171D01*
X140166748Y-63350168D01*
X140160093Y-63353559D01*
X140141826Y-63361125D01*
X140134728Y-63363431D01*
X140134726Y-63363432D01*
X140128444Y-63365473D01*
X140122722Y-63368777D01*
X140122721Y-63368777D01*
X140069223Y-63399664D01*
X140063426Y-63402812D01*
X140008352Y-63430873D01*
X140008349Y-63430875D01*
X140002469Y-63433871D01*
X139991526Y-63442733D01*
X139975237Y-63453927D01*
X139963056Y-63460960D01*
X139958150Y-63465377D01*
X139958145Y-63465381D01*
X139912221Y-63506731D01*
X139907220Y-63511003D01*
X139891259Y-63523928D01*
X139876744Y-63538443D01*
X139871959Y-63542984D01*
X139821134Y-63588747D01*
X139817255Y-63594086D01*
X139817254Y-63594087D01*
X139812860Y-63600135D01*
X139800019Y-63615168D01*
X137137111Y-66278076D01*
X137096902Y-66303692D01*
X137097190Y-66304267D01*
X137091582Y-66307081D01*
X137091579Y-66307083D01*
X137090646Y-66307551D01*
X137090641Y-66307553D01*
X136947862Y-66379207D01*
X136947858Y-66379210D01*
X136941714Y-66382293D01*
X136936381Y-66386634D01*
X136936379Y-66386636D01*
X136864119Y-66445465D01*
X136864113Y-66445471D01*
X136861625Y-66447496D01*
X136437966Y-66871155D01*
X136372044Y-66952341D01*
X136368964Y-66958504D01*
X136368962Y-66958508D01*
X136339012Y-67018448D01*
X136294290Y-67107951D01*
X136277047Y-67181178D01*
X136257401Y-67264615D01*
X136254419Y-67277277D01*
X136254425Y-67284593D01*
X136254425Y-67284596D01*
X136254551Y-67428328D01*
X136234608Y-67496466D01*
X136180993Y-67543006D01*
X136128663Y-67554438D01*
X135975975Y-67554571D01*
X135968853Y-67556261D01*
X135968854Y-67556261D01*
X135829332Y-67589371D01*
X135806720Y-67594737D01*
X135800183Y-67598017D01*
X135800179Y-67598019D01*
X135657392Y-67669677D01*
X135657388Y-67669680D01*
X135651244Y-67672763D01*
X135645911Y-67677104D01*
X135645909Y-67677106D01*
X135573649Y-67735935D01*
X135573643Y-67735941D01*
X135571155Y-67737966D01*
X135147496Y-68161625D01*
X135081574Y-68242811D01*
X135078494Y-68248974D01*
X135078492Y-68248978D01*
X135003820Y-68398421D01*
X135002946Y-68397984D01*
X134978053Y-68437134D01*
X134326199Y-69088988D01*
X134263887Y-69123014D01*
X134193072Y-69117949D01*
X134136236Y-69075402D01*
X134114509Y-69028986D01*
X134114381Y-69028444D01*
X134083233Y-68897191D01*
X134079953Y-68890654D01*
X134079951Y-68890650D01*
X134008293Y-68747863D01*
X134008290Y-68747859D01*
X134005207Y-68741715D01*
X134000805Y-68736308D01*
X133942035Y-68664120D01*
X133942029Y-68664114D01*
X133940004Y-68661626D01*
X133516345Y-68237967D01*
X133435159Y-68172045D01*
X133428996Y-68168965D01*
X133428992Y-68168963D01*
X133397932Y-68153444D01*
X133378180Y-68143574D01*
X133326184Y-68095234D01*
X133308500Y-68030862D01*
X133308500Y-66954216D01*
X133309190Y-66941045D01*
X133312814Y-66906565D01*
X133313504Y-66900000D01*
X133302367Y-66794036D01*
X133294232Y-66716635D01*
X133294232Y-66716633D01*
X133293542Y-66710072D01*
X133234527Y-66528444D01*
X133139040Y-66363056D01*
X133090471Y-66309114D01*
X133015675Y-66226045D01*
X133015674Y-66226044D01*
X133011253Y-66221134D01*
X132856752Y-66108882D01*
X132850724Y-66106198D01*
X132850722Y-66106197D01*
X132688319Y-66033891D01*
X132688318Y-66033891D01*
X132682288Y-66031206D01*
X132560792Y-66005381D01*
X132501944Y-65992872D01*
X132501939Y-65992872D01*
X132495487Y-65991500D01*
X132304513Y-65991500D01*
X132298061Y-65992872D01*
X132298056Y-65992872D01*
X132239208Y-66005381D01*
X132117712Y-66031206D01*
X132111682Y-66033891D01*
X132111681Y-66033891D01*
X131949278Y-66106197D01*
X131949276Y-66106198D01*
X131943248Y-66108882D01*
X131788747Y-66221134D01*
X131784326Y-66226044D01*
X131784325Y-66226045D01*
X131709530Y-66309114D01*
X131660960Y-66363056D01*
X131565473Y-66528444D01*
X131506458Y-66710072D01*
X131505768Y-66716633D01*
X131505768Y-66716635D01*
X131497633Y-66794036D01*
X131486496Y-66900000D01*
X131487186Y-66906565D01*
X131490810Y-66941045D01*
X131491500Y-66954216D01*
X131491500Y-68518583D01*
X131489949Y-68538292D01*
X131487748Y-68552190D01*
X131488093Y-68558777D01*
X131488093Y-68558782D01*
X131491327Y-68620480D01*
X131491500Y-68627074D01*
X131491500Y-68647610D01*
X131491844Y-68650882D01*
X131491844Y-68650884D01*
X131493647Y-68668042D01*
X131494164Y-68674616D01*
X131497059Y-68729846D01*
X131497743Y-68742903D01*
X131499453Y-68749284D01*
X131499453Y-68749286D01*
X131501383Y-68756491D01*
X131504985Y-68775925D01*
X131505766Y-68783354D01*
X131505768Y-68783363D01*
X131506458Y-68789928D01*
X131527600Y-68854997D01*
X131529467Y-68861299D01*
X131547171Y-68927370D01*
X131553559Y-68939907D01*
X131561125Y-68958173D01*
X131565473Y-68971556D01*
X131568776Y-68977278D01*
X131568777Y-68977279D01*
X131599667Y-69030782D01*
X131602814Y-69036577D01*
X131633871Y-69097530D01*
X131638024Y-69102658D01*
X131638025Y-69102660D01*
X131642727Y-69108466D01*
X131653927Y-69124763D01*
X131657657Y-69131224D01*
X131657660Y-69131228D01*
X131660960Y-69136944D01*
X131665377Y-69141850D01*
X131665381Y-69141855D01*
X131706722Y-69187769D01*
X131711006Y-69192784D01*
X131716667Y-69199774D01*
X131723928Y-69208741D01*
X131738443Y-69223256D01*
X131742984Y-69228041D01*
X131788747Y-69278866D01*
X131794086Y-69282745D01*
X131794087Y-69282746D01*
X131800135Y-69287140D01*
X131815168Y-69299981D01*
X132046601Y-69531414D01*
X132059678Y-69547591D01*
X132060263Y-69548757D01*
X132074357Y-69566069D01*
X132123435Y-69626352D01*
X132123441Y-69626358D01*
X132125466Y-69628846D01*
X132549125Y-70052505D01*
X132630311Y-70118427D01*
X132636474Y-70121507D01*
X132636478Y-70121509D01*
X132736871Y-70171672D01*
X132785921Y-70196181D01*
X132916342Y-70226891D01*
X132978063Y-70261973D01*
X133011020Y-70324856D01*
X133004749Y-70395575D01*
X132976556Y-70438631D01*
X130360592Y-73054595D01*
X130298280Y-73088621D01*
X130271497Y-73091500D01*
X125010426Y-73091500D01*
X124942305Y-73071498D01*
X124895812Y-73017842D01*
X124885708Y-72947568D01*
X124915202Y-72882988D01*
X124959177Y-72850393D01*
X124999651Y-72832373D01*
X124999653Y-72832372D01*
X125005681Y-72829688D01*
X125038014Y-72806197D01*
X125096508Y-72763698D01*
X125160182Y-72717436D01*
X125203460Y-72669371D01*
X125283550Y-72580422D01*
X125283551Y-72580421D01*
X125287969Y-72575514D01*
X125356273Y-72457209D01*
X125380152Y-72415849D01*
X125380153Y-72415848D01*
X125383456Y-72410126D01*
X125442471Y-72228498D01*
X125448113Y-72174823D01*
X125461743Y-72045135D01*
X125462433Y-72038570D01*
X125457257Y-71989327D01*
X125443161Y-71855205D01*
X125443161Y-71855203D01*
X125442471Y-71848642D01*
X125383456Y-71667014D01*
X125287969Y-71501626D01*
X125272001Y-71483891D01*
X125164604Y-71364615D01*
X125164603Y-71364614D01*
X125160182Y-71359704D01*
X125005681Y-71247452D01*
X124999653Y-71244768D01*
X124999651Y-71244767D01*
X124837248Y-71172461D01*
X124837247Y-71172461D01*
X124831217Y-71169776D01*
X124737816Y-71149923D01*
X124650873Y-71131442D01*
X124650868Y-71131442D01*
X124644416Y-71130070D01*
X124453442Y-71130070D01*
X124446990Y-71131442D01*
X124446985Y-71131442D01*
X124360041Y-71149923D01*
X124266641Y-71169776D01*
X124260611Y-71172461D01*
X124260610Y-71172461D01*
X124098207Y-71244767D01*
X124098205Y-71244768D01*
X124092177Y-71247452D01*
X123937676Y-71359704D01*
X123933255Y-71364614D01*
X123933254Y-71364615D01*
X123825858Y-71483891D01*
X123809889Y-71501626D01*
X123714402Y-71667014D01*
X123655387Y-71848642D01*
X123654697Y-71855203D01*
X123654697Y-71855205D01*
X123640601Y-71989327D01*
X123635425Y-72038570D01*
X123636115Y-72045135D01*
X123649746Y-72174823D01*
X123655387Y-72228498D01*
X123714402Y-72410126D01*
X123717705Y-72415848D01*
X123717706Y-72415849D01*
X123741585Y-72457209D01*
X123809889Y-72575514D01*
X123814307Y-72580421D01*
X123814308Y-72580422D01*
X123894398Y-72669371D01*
X123937676Y-72717436D01*
X124001350Y-72763698D01*
X124059845Y-72806197D01*
X124092177Y-72829688D01*
X124098205Y-72832372D01*
X124098207Y-72832373D01*
X124138681Y-72850393D01*
X124192777Y-72896373D01*
X124213426Y-72964301D01*
X124194074Y-73032609D01*
X124140863Y-73079610D01*
X124087432Y-73091500D01*
X119581417Y-73091500D01*
X119561708Y-73089949D01*
X119547810Y-73087748D01*
X119541223Y-73088093D01*
X119541218Y-73088093D01*
X119479520Y-73091327D01*
X119472926Y-73091500D01*
X119452390Y-73091500D01*
X119449118Y-73091844D01*
X119449116Y-73091844D01*
X119431958Y-73093647D01*
X119425384Y-73094164D01*
X119363696Y-73097397D01*
X119363694Y-73097397D01*
X119357097Y-73097743D01*
X119343504Y-73101385D01*
X119324075Y-73104986D01*
X119310072Y-73106458D01*
X119245025Y-73127593D01*
X119238712Y-73129463D01*
X119218074Y-73134993D01*
X119179003Y-73145462D01*
X119179000Y-73145463D01*
X119172630Y-73147170D01*
X119160085Y-73153562D01*
X119141826Y-73161125D01*
X119128444Y-73165473D01*
X119122723Y-73168776D01*
X119069223Y-73199664D01*
X119063426Y-73202812D01*
X119008351Y-73230874D01*
X119008348Y-73230876D01*
X119002470Y-73233871D01*
X118997342Y-73238024D01*
X118997340Y-73238025D01*
X118991534Y-73242727D01*
X118975237Y-73253927D01*
X118968776Y-73257657D01*
X118968772Y-73257660D01*
X118963056Y-73260960D01*
X118958150Y-73265377D01*
X118958145Y-73265381D01*
X118912231Y-73306722D01*
X118907216Y-73311006D01*
X118898718Y-73317888D01*
X118891259Y-73323928D01*
X118876744Y-73338443D01*
X118871959Y-73342984D01*
X118821134Y-73388747D01*
X118817255Y-73394086D01*
X118817254Y-73394087D01*
X118812860Y-73400135D01*
X118800019Y-73415168D01*
X116065368Y-76149819D01*
X116050335Y-76162660D01*
X116038947Y-76170934D01*
X116034527Y-76175843D01*
X115993184Y-76221759D01*
X115988643Y-76226544D01*
X115974128Y-76241059D01*
X115972052Y-76243623D01*
X115961206Y-76257016D01*
X115956922Y-76262031D01*
X115915581Y-76307945D01*
X115915577Y-76307950D01*
X115911160Y-76312856D01*
X115907860Y-76318572D01*
X115907857Y-76318576D01*
X115904127Y-76325037D01*
X115892927Y-76341333D01*
X115884071Y-76352270D01*
X115853015Y-76413221D01*
X115849869Y-76419015D01*
X115815673Y-76478244D01*
X115813632Y-76484526D01*
X115813631Y-76484528D01*
X115811325Y-76491626D01*
X115803760Y-76509892D01*
X115797371Y-76522430D01*
X115780055Y-76587056D01*
X115779669Y-76588495D01*
X115777800Y-76594803D01*
X115756658Y-76659872D01*
X115755968Y-76666437D01*
X115755966Y-76666446D01*
X115755185Y-76673875D01*
X115751583Y-76693309D01*
X115749692Y-76700368D01*
X115747943Y-76706897D01*
X115747598Y-76713488D01*
X115747597Y-76713492D01*
X115744364Y-76775184D01*
X115743847Y-76781758D01*
X115742238Y-76797070D01*
X115741700Y-76802190D01*
X115741700Y-76822726D01*
X115741527Y-76829320D01*
X115740084Y-76856860D01*
X115737948Y-76897610D01*
X115739007Y-76904293D01*
X115740149Y-76911505D01*
X115741700Y-76931217D01*
X115741700Y-77145812D01*
X115721698Y-77213933D01*
X115704795Y-77234907D01*
X115644002Y-77295700D01*
X115640845Y-77300208D01*
X115640843Y-77300211D01*
X115593422Y-77367936D01*
X115512677Y-77483251D01*
X115510354Y-77488233D01*
X115510351Y-77488238D01*
X115434706Y-77650462D01*
X115415916Y-77690757D01*
X115414494Y-77696065D01*
X115414493Y-77696067D01*
X115376529Y-77837749D01*
X115356657Y-77911913D01*
X115336702Y-78140000D01*
X115356657Y-78368087D01*
X115358081Y-78373400D01*
X115358081Y-78373402D01*
X115359268Y-78377830D01*
X115415916Y-78589243D01*
X115418239Y-78594224D01*
X115418239Y-78594225D01*
X115510351Y-78791762D01*
X115510354Y-78791767D01*
X115512677Y-78796749D01*
X115515834Y-78801257D01*
X115545573Y-78843729D01*
X115568261Y-78911003D01*
X115550976Y-78979863D01*
X115499207Y-79028448D01*
X115442360Y-79042000D01*
X112778040Y-79042000D01*
X112709919Y-79021998D01*
X112663426Y-78968342D01*
X112653322Y-78898068D01*
X112674827Y-78843729D01*
X112704566Y-78801257D01*
X112707723Y-78796749D01*
X112710046Y-78791767D01*
X112710049Y-78791762D01*
X112802161Y-78594225D01*
X112802161Y-78594224D01*
X112804484Y-78589243D01*
X112861133Y-78377830D01*
X112862319Y-78373402D01*
X112862319Y-78373400D01*
X112863743Y-78368087D01*
X112883698Y-78140000D01*
X112863743Y-77911913D01*
X112843871Y-77837749D01*
X112805907Y-77696067D01*
X112805906Y-77696065D01*
X112804484Y-77690757D01*
X112785694Y-77650462D01*
X112710049Y-77488238D01*
X112710046Y-77488233D01*
X112707723Y-77483251D01*
X112626978Y-77367936D01*
X112579557Y-77300211D01*
X112579555Y-77300208D01*
X112576398Y-77295700D01*
X112414500Y-77133802D01*
X112409992Y-77130645D01*
X112409989Y-77130643D01*
X112329030Y-77073955D01*
X112226949Y-77002477D01*
X112221967Y-77000154D01*
X112221962Y-77000151D01*
X112024425Y-76908039D01*
X112024424Y-76908039D01*
X112019443Y-76905716D01*
X112014135Y-76904294D01*
X112014133Y-76904293D01*
X111803602Y-76847881D01*
X111803600Y-76847881D01*
X111798287Y-76846457D01*
X111570200Y-76826502D01*
X111342113Y-76846457D01*
X111336800Y-76847881D01*
X111336798Y-76847881D01*
X111126267Y-76904293D01*
X111126265Y-76904294D01*
X111120957Y-76905716D01*
X111115976Y-76908039D01*
X111115975Y-76908039D01*
X110918438Y-77000151D01*
X110918433Y-77000154D01*
X110913451Y-77002477D01*
X110811370Y-77073955D01*
X110730411Y-77130643D01*
X110730408Y-77130645D01*
X110725900Y-77133802D01*
X110564002Y-77295700D01*
X110560845Y-77300208D01*
X110560843Y-77300211D01*
X110513422Y-77367936D01*
X110432677Y-77483251D01*
X110430354Y-77488233D01*
X110430351Y-77488238D01*
X110414395Y-77522457D01*
X110367478Y-77575742D01*
X110299201Y-77595203D01*
X110231241Y-77574661D01*
X110186005Y-77522457D01*
X110170049Y-77488238D01*
X110170046Y-77488233D01*
X110167723Y-77483251D01*
X110086978Y-77367936D01*
X110039557Y-77300211D01*
X110039555Y-77300208D01*
X110036398Y-77295700D01*
X109874500Y-77133802D01*
X109869992Y-77130645D01*
X109869989Y-77130643D01*
X109789030Y-77073955D01*
X109686949Y-77002477D01*
X109681967Y-77000154D01*
X109681962Y-77000151D01*
X109493486Y-76912264D01*
X109440201Y-76865347D01*
X109420740Y-76797070D01*
X109441282Y-76729110D01*
X109457641Y-76708974D01*
X109766615Y-76400000D01*
X113086496Y-76400000D01*
X113087186Y-76406565D01*
X113099948Y-76527984D01*
X113106458Y-76589928D01*
X113165473Y-76771556D01*
X113168776Y-76777278D01*
X113168777Y-76777279D01*
X113185059Y-76805480D01*
X113260960Y-76936944D01*
X113265378Y-76941851D01*
X113265379Y-76941852D01*
X113317872Y-77000151D01*
X113388747Y-77078866D01*
X113543248Y-77191118D01*
X113549276Y-77193802D01*
X113549278Y-77193803D01*
X113709644Y-77265202D01*
X113717712Y-77268794D01*
X113811113Y-77288647D01*
X113898056Y-77307128D01*
X113898061Y-77307128D01*
X113904513Y-77308500D01*
X114095487Y-77308500D01*
X114101939Y-77307128D01*
X114101944Y-77307128D01*
X114188887Y-77288647D01*
X114282288Y-77268794D01*
X114290356Y-77265202D01*
X114450722Y-77193803D01*
X114450724Y-77193802D01*
X114456752Y-77191118D01*
X114611253Y-77078866D01*
X114682128Y-77000151D01*
X114734621Y-76941852D01*
X114734622Y-76941851D01*
X114739040Y-76936944D01*
X114814941Y-76805480D01*
X114831223Y-76777279D01*
X114831224Y-76777278D01*
X114834527Y-76771556D01*
X114893542Y-76589928D01*
X114900053Y-76527984D01*
X114912814Y-76406565D01*
X114913504Y-76400000D01*
X114895028Y-76224209D01*
X114894232Y-76216635D01*
X114894232Y-76216633D01*
X114893542Y-76210072D01*
X114834527Y-76028444D01*
X114825589Y-76012962D01*
X114787411Y-75946837D01*
X114739040Y-75863056D01*
X114712132Y-75833171D01*
X114615675Y-75726045D01*
X114615674Y-75726044D01*
X114611253Y-75721134D01*
X114467237Y-75616500D01*
X114462094Y-75612763D01*
X114462093Y-75612762D01*
X114456752Y-75608882D01*
X114450724Y-75606198D01*
X114450722Y-75606197D01*
X114288319Y-75533891D01*
X114288318Y-75533891D01*
X114282288Y-75531206D01*
X114188888Y-75511353D01*
X114101944Y-75492872D01*
X114101939Y-75492872D01*
X114095487Y-75491500D01*
X113904513Y-75491500D01*
X113898061Y-75492872D01*
X113898056Y-75492872D01*
X113811113Y-75511353D01*
X113717712Y-75531206D01*
X113711682Y-75533891D01*
X113711681Y-75533891D01*
X113549278Y-75606197D01*
X113549276Y-75606198D01*
X113543248Y-75608882D01*
X113537907Y-75612762D01*
X113537906Y-75612763D01*
X113532763Y-75616500D01*
X113388747Y-75721134D01*
X113384326Y-75726044D01*
X113384325Y-75726045D01*
X113287869Y-75833171D01*
X113260960Y-75863056D01*
X113212589Y-75946837D01*
X113174412Y-76012962D01*
X113165473Y-76028444D01*
X113106458Y-76210072D01*
X113105768Y-76216633D01*
X113105768Y-76216635D01*
X113104972Y-76224209D01*
X113086496Y-76400000D01*
X109766615Y-76400000D01*
X113063459Y-73103156D01*
X113069724Y-73097302D01*
X113082811Y-73085885D01*
X113111670Y-73060710D01*
X113147066Y-73010345D01*
X113150980Y-73005077D01*
X113154049Y-73001163D01*
X113188935Y-72956672D01*
X113192061Y-72949748D01*
X113194671Y-72945439D01*
X113200042Y-72936024D01*
X113202427Y-72931576D01*
X113206795Y-72925361D01*
X113229144Y-72868039D01*
X113231698Y-72861962D01*
X113234793Y-72855109D01*
X113257014Y-72805895D01*
X113258400Y-72798418D01*
X113259910Y-72793598D01*
X113262882Y-72783165D01*
X113264130Y-72778304D01*
X113266889Y-72771228D01*
X113274918Y-72710238D01*
X113275950Y-72703722D01*
X113285777Y-72650700D01*
X113287161Y-72643233D01*
X113283709Y-72583358D01*
X113283500Y-72576106D01*
X113283500Y-70346994D01*
X113303502Y-70278873D01*
X113315865Y-70262683D01*
X113334617Y-70241857D01*
X113334620Y-70241853D01*
X113339040Y-70236944D01*
X113372013Y-70179833D01*
X113431223Y-70077279D01*
X113431224Y-70077278D01*
X113434527Y-70071556D01*
X113493542Y-69889928D01*
X113498504Y-69842722D01*
X113498940Y-69838570D01*
X118035425Y-69838570D01*
X118036115Y-69845135D01*
X118054408Y-70019179D01*
X118055387Y-70028498D01*
X118114402Y-70210126D01*
X118117705Y-70215848D01*
X118117706Y-70215849D01*
X118142551Y-70258881D01*
X118209889Y-70375514D01*
X118214307Y-70380421D01*
X118214308Y-70380422D01*
X118227952Y-70395575D01*
X118337676Y-70517436D01*
X118492177Y-70629688D01*
X118498205Y-70632372D01*
X118498207Y-70632373D01*
X118660610Y-70704679D01*
X118666641Y-70707364D01*
X118754010Y-70725935D01*
X118846985Y-70745698D01*
X118846990Y-70745698D01*
X118853442Y-70747070D01*
X119044416Y-70747070D01*
X119050868Y-70745698D01*
X119050873Y-70745698D01*
X119143848Y-70725935D01*
X119231217Y-70707364D01*
X119237248Y-70704679D01*
X119399651Y-70632373D01*
X119399653Y-70632372D01*
X119405681Y-70629688D01*
X119560182Y-70517436D01*
X119669906Y-70395575D01*
X119683550Y-70380422D01*
X119683551Y-70380421D01*
X119687969Y-70375514D01*
X119755307Y-70258881D01*
X119780152Y-70215849D01*
X119780153Y-70215848D01*
X119783456Y-70210126D01*
X119842471Y-70028498D01*
X119843451Y-70019179D01*
X119861743Y-69845135D01*
X119862433Y-69838570D01*
X119851448Y-69734056D01*
X119843161Y-69655205D01*
X119843161Y-69655203D01*
X119842471Y-69648642D01*
X119783456Y-69467014D01*
X119778429Y-69458306D01*
X119730992Y-69376144D01*
X119687969Y-69301626D01*
X119670970Y-69282746D01*
X119564604Y-69164615D01*
X119564603Y-69164614D01*
X119560182Y-69159704D01*
X119444151Y-69075402D01*
X119411023Y-69051333D01*
X119411022Y-69051332D01*
X119405681Y-69047452D01*
X119399653Y-69044768D01*
X119399651Y-69044767D01*
X119237248Y-68972461D01*
X119237247Y-68972461D01*
X119231217Y-68969776D01*
X119132256Y-68948741D01*
X119050873Y-68931442D01*
X119050868Y-68931442D01*
X119044416Y-68930070D01*
X118853442Y-68930070D01*
X118846990Y-68931442D01*
X118846985Y-68931442D01*
X118765602Y-68948741D01*
X118666641Y-68969776D01*
X118660611Y-68972461D01*
X118660610Y-68972461D01*
X118498207Y-69044767D01*
X118498205Y-69044768D01*
X118492177Y-69047452D01*
X118486836Y-69051332D01*
X118486835Y-69051333D01*
X118453707Y-69075402D01*
X118337676Y-69159704D01*
X118333255Y-69164614D01*
X118333254Y-69164615D01*
X118226889Y-69282746D01*
X118209889Y-69301626D01*
X118166866Y-69376144D01*
X118119430Y-69458306D01*
X118114402Y-69467014D01*
X118055387Y-69648642D01*
X118054697Y-69655203D01*
X118054697Y-69655205D01*
X118046410Y-69734056D01*
X118035425Y-69838570D01*
X113498940Y-69838570D01*
X113512814Y-69706565D01*
X113513504Y-69700000D01*
X113500463Y-69575925D01*
X113494232Y-69516635D01*
X113494232Y-69516633D01*
X113493542Y-69510072D01*
X113434527Y-69328444D01*
X113422387Y-69307416D01*
X113376029Y-69227123D01*
X113339040Y-69163056D01*
X113331281Y-69154438D01*
X113215675Y-69026045D01*
X113215674Y-69026044D01*
X113211253Y-69021134D01*
X113111613Y-68948741D01*
X113062094Y-68912763D01*
X113062093Y-68912762D01*
X113056752Y-68908882D01*
X113050724Y-68906198D01*
X113050722Y-68906197D01*
X112888319Y-68833891D01*
X112888318Y-68833891D01*
X112882288Y-68831206D01*
X112770121Y-68807364D01*
X112701944Y-68792872D01*
X112701939Y-68792872D01*
X112695487Y-68791500D01*
X112504513Y-68791500D01*
X112498061Y-68792872D01*
X112498056Y-68792872D01*
X112429879Y-68807364D01*
X112317712Y-68831206D01*
X112311682Y-68833891D01*
X112311681Y-68833891D01*
X112149278Y-68906197D01*
X112149276Y-68906198D01*
X112143248Y-68908882D01*
X112137907Y-68912762D01*
X112137906Y-68912763D01*
X112088387Y-68948741D01*
X111988747Y-69021134D01*
X111984326Y-69026044D01*
X111984325Y-69026045D01*
X111868720Y-69154438D01*
X111860960Y-69163056D01*
X111823971Y-69227123D01*
X111777614Y-69307416D01*
X111765473Y-69328444D01*
X111706458Y-69510072D01*
X111705768Y-69516633D01*
X111705768Y-69516635D01*
X111699537Y-69575925D01*
X111686496Y-69700000D01*
X111687186Y-69706565D01*
X111701497Y-69842722D01*
X111706458Y-69889928D01*
X111765473Y-70071556D01*
X111768776Y-70077278D01*
X111768777Y-70077279D01*
X111827987Y-70179833D01*
X111860960Y-70236944D01*
X111865380Y-70241853D01*
X111865383Y-70241857D01*
X111884135Y-70262683D01*
X111914853Y-70326690D01*
X111916500Y-70346994D01*
X111916500Y-72264695D01*
X111896498Y-72332816D01*
X111879595Y-72353790D01*
X108653790Y-75579595D01*
X108591478Y-75613621D01*
X108564695Y-75616500D01*
X108028056Y-75616500D01*
X108019486Y-75616208D01*
X108018443Y-75616137D01*
X107963966Y-75612423D01*
X107956489Y-75613728D01*
X107956486Y-75613728D01*
X107903342Y-75623003D01*
X107896819Y-75623966D01*
X107843308Y-75630442D01*
X107843307Y-75630442D01*
X107835765Y-75631355D01*
X107828655Y-75634041D01*
X107823752Y-75635246D01*
X107813266Y-75638114D01*
X107808474Y-75639561D01*
X107800996Y-75640866D01*
X107794044Y-75643918D01*
X107794043Y-75643918D01*
X107744659Y-75665595D01*
X107738554Y-75668086D01*
X107688118Y-75687145D01*
X107688115Y-75687147D01*
X107681011Y-75689831D01*
X107674754Y-75694131D01*
X107670286Y-75696467D01*
X107660840Y-75701725D01*
X107656474Y-75704307D01*
X107649515Y-75707362D01*
X107600696Y-75744823D01*
X107595377Y-75748686D01*
X107566147Y-75768776D01*
X107544674Y-75783534D01*
X107539623Y-75789203D01*
X107504768Y-75828323D01*
X107499787Y-75833598D01*
X106540912Y-76792473D01*
X106478600Y-76826499D01*
X106462799Y-76828899D01*
X106387656Y-76835473D01*
X106262113Y-76846457D01*
X106256800Y-76847881D01*
X106256798Y-76847881D01*
X106046267Y-76904293D01*
X106046265Y-76904294D01*
X106040957Y-76905716D01*
X106035976Y-76908039D01*
X106035975Y-76908039D01*
X105838438Y-77000151D01*
X105838433Y-77000154D01*
X105833451Y-77002477D01*
X105731370Y-77073955D01*
X105650411Y-77130643D01*
X105650408Y-77130645D01*
X105645900Y-77133802D01*
X105484002Y-77295700D01*
X105480845Y-77300208D01*
X105480843Y-77300211D01*
X105433422Y-77367936D01*
X105352677Y-77483251D01*
X105350354Y-77488233D01*
X105350351Y-77488238D01*
X105334395Y-77522457D01*
X105287478Y-77575742D01*
X105219201Y-77595203D01*
X105151241Y-77574661D01*
X105106005Y-77522457D01*
X105090049Y-77488238D01*
X105090046Y-77488233D01*
X105087723Y-77483251D01*
X105006978Y-77367936D01*
X104959557Y-77300211D01*
X104959555Y-77300208D01*
X104956398Y-77295700D01*
X104794500Y-77133802D01*
X104789992Y-77130645D01*
X104789989Y-77130643D01*
X104709030Y-77073955D01*
X104606949Y-77002477D01*
X104601967Y-77000154D01*
X104601962Y-77000151D01*
X104404425Y-76908039D01*
X104404424Y-76908039D01*
X104399443Y-76905716D01*
X104394135Y-76904294D01*
X104394133Y-76904293D01*
X104183602Y-76847881D01*
X104183600Y-76847881D01*
X104178287Y-76846457D01*
X103950200Y-76826502D01*
X103722113Y-76846457D01*
X103716800Y-76847881D01*
X103716798Y-76847881D01*
X103506267Y-76904293D01*
X103506265Y-76904294D01*
X103500957Y-76905716D01*
X103495976Y-76908039D01*
X103495975Y-76908039D01*
X103298438Y-77000151D01*
X103298433Y-77000154D01*
X103293451Y-77002477D01*
X103191370Y-77073955D01*
X103110411Y-77130643D01*
X103110408Y-77130645D01*
X103105900Y-77133802D01*
X102944002Y-77295700D01*
X102940845Y-77300208D01*
X102940843Y-77300211D01*
X102893422Y-77367936D01*
X102812677Y-77483251D01*
X102810354Y-77488233D01*
X102810351Y-77488238D01*
X102794395Y-77522457D01*
X102747478Y-77575742D01*
X102679201Y-77595203D01*
X102611241Y-77574661D01*
X102566005Y-77522457D01*
X102550049Y-77488238D01*
X102550046Y-77488233D01*
X102547723Y-77483251D01*
X102466978Y-77367936D01*
X102419557Y-77300211D01*
X102419555Y-77300208D01*
X102416398Y-77295700D01*
X102254500Y-77133802D01*
X102249992Y-77130645D01*
X102249989Y-77130643D01*
X102169030Y-77073955D01*
X102066949Y-77002477D01*
X102061967Y-77000154D01*
X102061962Y-77000151D01*
X101864425Y-76908039D01*
X101864424Y-76908039D01*
X101859443Y-76905716D01*
X101854135Y-76904294D01*
X101854133Y-76904293D01*
X101643602Y-76847881D01*
X101643600Y-76847881D01*
X101638287Y-76846457D01*
X101410200Y-76826502D01*
X101182113Y-76846457D01*
X101176800Y-76847881D01*
X101176798Y-76847881D01*
X100966267Y-76904293D01*
X100966265Y-76904294D01*
X100960957Y-76905716D01*
X100955976Y-76908039D01*
X100955975Y-76908039D01*
X100758438Y-77000151D01*
X100758433Y-77000154D01*
X100753451Y-77002477D01*
X100651370Y-77073955D01*
X100570411Y-77130643D01*
X100570408Y-77130645D01*
X100565900Y-77133802D01*
X100404002Y-77295700D01*
X100400845Y-77300208D01*
X100400843Y-77300211D01*
X100353422Y-77367936D01*
X100272677Y-77483251D01*
X100270354Y-77488233D01*
X100270351Y-77488238D01*
X100254395Y-77522457D01*
X100207478Y-77575742D01*
X100139201Y-77595203D01*
X100071241Y-77574661D01*
X100026005Y-77522457D01*
X100010049Y-77488238D01*
X100010046Y-77488233D01*
X100007723Y-77483251D01*
X99926978Y-77367936D01*
X99879557Y-77300211D01*
X99879555Y-77300208D01*
X99876398Y-77295700D01*
X99714500Y-77133802D01*
X99709992Y-77130645D01*
X99709989Y-77130643D01*
X99629030Y-77073955D01*
X99526949Y-77002477D01*
X99521967Y-77000154D01*
X99521962Y-77000151D01*
X99324425Y-76908039D01*
X99324424Y-76908039D01*
X99319443Y-76905716D01*
X99314135Y-76904294D01*
X99314133Y-76904293D01*
X99103602Y-76847881D01*
X99103600Y-76847881D01*
X99098287Y-76846457D01*
X98870200Y-76826502D01*
X98642113Y-76846457D01*
X98636800Y-76847881D01*
X98636798Y-76847881D01*
X98426267Y-76904293D01*
X98426265Y-76904294D01*
X98420957Y-76905716D01*
X98415976Y-76908039D01*
X98415975Y-76908039D01*
X98218438Y-77000151D01*
X98218433Y-77000154D01*
X98213451Y-77002477D01*
X98111370Y-77073955D01*
X98030411Y-77130643D01*
X98030408Y-77130645D01*
X98025900Y-77133802D01*
X97864002Y-77295700D01*
X97860845Y-77300208D01*
X97860843Y-77300211D01*
X97813422Y-77367936D01*
X97732677Y-77483251D01*
X97730354Y-77488233D01*
X97730351Y-77488238D01*
X97714395Y-77522457D01*
X97667478Y-77575742D01*
X97599201Y-77595203D01*
X97531241Y-77574661D01*
X97486005Y-77522457D01*
X97470049Y-77488238D01*
X97470046Y-77488233D01*
X97467723Y-77483251D01*
X97386978Y-77367936D01*
X97339557Y-77300211D01*
X97339555Y-77300208D01*
X97336398Y-77295700D01*
X97174500Y-77133802D01*
X97169992Y-77130645D01*
X97169989Y-77130643D01*
X97089030Y-77073955D01*
X96986949Y-77002477D01*
X96981967Y-77000154D01*
X96981962Y-77000151D01*
X96784425Y-76908039D01*
X96784424Y-76908039D01*
X96779443Y-76905716D01*
X96774135Y-76904294D01*
X96774133Y-76904293D01*
X96563602Y-76847881D01*
X96563600Y-76847881D01*
X96558287Y-76846457D01*
X96330200Y-76826502D01*
X96102113Y-76846457D01*
X96096800Y-76847881D01*
X96096798Y-76847881D01*
X95886267Y-76904293D01*
X95886265Y-76904294D01*
X95880957Y-76905716D01*
X95875976Y-76908039D01*
X95875975Y-76908039D01*
X95678438Y-77000151D01*
X95678433Y-77000154D01*
X95673451Y-77002477D01*
X95571370Y-77073955D01*
X95490411Y-77130643D01*
X95490408Y-77130645D01*
X95485900Y-77133802D01*
X95324002Y-77295700D01*
X95320845Y-77300208D01*
X95320843Y-77300211D01*
X95273422Y-77367936D01*
X95192677Y-77483251D01*
X95190354Y-77488233D01*
X95190351Y-77488238D01*
X95174395Y-77522457D01*
X95127478Y-77575742D01*
X95059201Y-77595203D01*
X94991241Y-77574661D01*
X94946005Y-77522457D01*
X94930049Y-77488238D01*
X94930046Y-77488233D01*
X94927723Y-77483251D01*
X94846978Y-77367936D01*
X94799557Y-77300211D01*
X94799555Y-77300208D01*
X94796398Y-77295700D01*
X94634500Y-77133802D01*
X94629992Y-77130645D01*
X94629989Y-77130643D01*
X94549030Y-77073955D01*
X94446949Y-77002477D01*
X94441967Y-77000154D01*
X94441962Y-77000151D01*
X94244425Y-76908039D01*
X94244424Y-76908039D01*
X94239443Y-76905716D01*
X94234135Y-76904294D01*
X94234133Y-76904293D01*
X94201809Y-76895632D01*
X94141186Y-76858680D01*
X94110165Y-76794820D01*
X94118593Y-76724325D01*
X94163796Y-76669578D01*
X94172854Y-76663990D01*
X94174159Y-76663259D01*
X94179193Y-76660440D01*
X94342893Y-76524293D01*
X94446266Y-76400000D01*
X94475349Y-76365031D01*
X94479040Y-76360593D01*
X94583076Y-76174823D01*
X94651516Y-75973205D01*
X94655340Y-75946837D01*
X94681537Y-75766161D01*
X94681537Y-75766159D01*
X94682069Y-75762491D01*
X94683663Y-75701600D01*
X94664181Y-75489576D01*
X94662126Y-75482288D01*
X94607954Y-75290211D01*
X94607953Y-75290209D01*
X94606386Y-75284652D01*
X94603299Y-75278391D01*
X94514770Y-75098873D01*
X94512215Y-75093692D01*
X94384822Y-74923091D01*
X94228471Y-74778563D01*
X94048401Y-74664947D01*
X93850641Y-74586049D01*
X93844981Y-74584923D01*
X93844977Y-74584922D01*
X93647482Y-74545638D01*
X93647480Y-74545638D01*
X93641815Y-74544511D01*
X93636040Y-74544435D01*
X93636036Y-74544435D01*
X93529361Y-74543039D01*
X93428916Y-74541724D01*
X93423219Y-74542703D01*
X93423218Y-74542703D01*
X93224764Y-74576803D01*
X93224761Y-74576804D01*
X93219074Y-74577781D01*
X93019316Y-74651475D01*
X92836334Y-74760339D01*
X92788439Y-74802342D01*
X92724034Y-74832218D01*
X92653702Y-74822532D01*
X92604536Y-74783174D01*
X92590274Y-74764144D01*
X92533461Y-74688339D01*
X92507354Y-74668773D01*
X92438082Y-74616856D01*
X92395567Y-74559997D01*
X92390541Y-74489178D01*
X92416773Y-74435461D01*
X92418699Y-74433146D01*
X92479040Y-74360593D01*
X92583076Y-74174823D01*
X92651516Y-73973205D01*
X92652667Y-73965271D01*
X92681537Y-73766161D01*
X92681537Y-73766159D01*
X92682069Y-73762491D01*
X92683663Y-73701600D01*
X92664181Y-73489576D01*
X92648456Y-73433820D01*
X92607954Y-73290211D01*
X92607953Y-73290209D01*
X92606386Y-73284652D01*
X92603698Y-73279200D01*
X92514770Y-73098873D01*
X92512215Y-73093692D01*
X92507777Y-73087748D01*
X92408302Y-72954535D01*
X92384822Y-72923091D01*
X92243371Y-72792336D01*
X92206926Y-72731410D01*
X92209206Y-72660450D01*
X92248331Y-72602939D01*
X92338455Y-72527984D01*
X92342893Y-72524293D01*
X92388548Y-72469399D01*
X92421708Y-72429528D01*
X92480645Y-72389944D01*
X92551627Y-72388507D01*
X92612118Y-72425675D01*
X92621478Y-72437375D01*
X92629695Y-72449001D01*
X92635496Y-72457209D01*
X92788009Y-72605781D01*
X92792805Y-72608986D01*
X92792808Y-72608988D01*
X92844060Y-72643233D01*
X92965043Y-72724071D01*
X92970346Y-72726349D01*
X92970349Y-72726351D01*
X93154690Y-72805550D01*
X93160670Y-72808119D01*
X93236516Y-72825281D01*
X93362701Y-72853834D01*
X93362706Y-72853835D01*
X93368338Y-72855109D01*
X93374109Y-72855336D01*
X93374111Y-72855336D01*
X93435452Y-72857746D01*
X93581091Y-72863469D01*
X93586800Y-72862641D01*
X93586804Y-72862641D01*
X93786090Y-72833745D01*
X93786094Y-72833744D01*
X93791805Y-72832916D01*
X93993423Y-72764476D01*
X94179193Y-72660440D01*
X94342893Y-72524293D01*
X94479040Y-72360593D01*
X94484972Y-72350000D01*
X103841496Y-72350000D01*
X103842186Y-72356565D01*
X103860203Y-72527984D01*
X103861458Y-72539928D01*
X103920473Y-72721556D01*
X103923776Y-72727278D01*
X103923777Y-72727279D01*
X103928451Y-72735375D01*
X104015960Y-72886944D01*
X104020378Y-72891851D01*
X104020379Y-72891852D01*
X104127097Y-73010374D01*
X104143747Y-73028866D01*
X104298248Y-73141118D01*
X104304276Y-73143802D01*
X104304278Y-73143803D01*
X104466681Y-73216109D01*
X104472712Y-73218794D01*
X104547680Y-73234729D01*
X104653056Y-73257128D01*
X104653061Y-73257128D01*
X104659513Y-73258500D01*
X104850487Y-73258500D01*
X104856939Y-73257128D01*
X104856944Y-73257128D01*
X104962320Y-73234729D01*
X105037288Y-73218794D01*
X105043319Y-73216109D01*
X105205722Y-73143803D01*
X105205724Y-73143802D01*
X105211752Y-73141118D01*
X105366253Y-73028866D01*
X105382903Y-73010374D01*
X105489621Y-72891852D01*
X105489622Y-72891851D01*
X105494040Y-72886944D01*
X105581549Y-72735375D01*
X105586223Y-72727279D01*
X105586224Y-72727278D01*
X105589527Y-72721556D01*
X105648542Y-72539928D01*
X105649798Y-72527984D01*
X105667814Y-72356565D01*
X105668504Y-72350000D01*
X105663792Y-72305165D01*
X105649232Y-72166635D01*
X105649232Y-72166633D01*
X105648542Y-72160072D01*
X105589527Y-71978444D01*
X105572610Y-71949142D01*
X105533194Y-71880873D01*
X105494040Y-71813056D01*
X105488287Y-71806666D01*
X105370675Y-71676045D01*
X105370674Y-71676044D01*
X105366253Y-71671134D01*
X105257130Y-71591851D01*
X105217094Y-71562763D01*
X105217093Y-71562762D01*
X105211752Y-71558882D01*
X105205724Y-71556198D01*
X105205722Y-71556197D01*
X105043319Y-71483891D01*
X105043318Y-71483891D01*
X105037288Y-71481206D01*
X104936120Y-71459702D01*
X104856944Y-71442872D01*
X104856939Y-71442872D01*
X104850487Y-71441500D01*
X104659513Y-71441500D01*
X104653061Y-71442872D01*
X104653056Y-71442872D01*
X104573880Y-71459702D01*
X104472712Y-71481206D01*
X104466682Y-71483891D01*
X104466681Y-71483891D01*
X104304278Y-71556197D01*
X104304276Y-71556198D01*
X104298248Y-71558882D01*
X104292907Y-71562762D01*
X104292906Y-71562763D01*
X104252870Y-71591851D01*
X104143747Y-71671134D01*
X104139326Y-71676044D01*
X104139325Y-71676045D01*
X104021714Y-71806666D01*
X104015960Y-71813056D01*
X103976806Y-71880873D01*
X103937391Y-71949142D01*
X103920473Y-71978444D01*
X103861458Y-72160072D01*
X103860768Y-72166633D01*
X103860768Y-72166635D01*
X103846208Y-72305165D01*
X103841496Y-72350000D01*
X94484972Y-72350000D01*
X94583076Y-72174823D01*
X94651516Y-71973205D01*
X94653649Y-71958499D01*
X94681537Y-71766161D01*
X94681537Y-71766159D01*
X94682069Y-71762491D01*
X94683663Y-71701600D01*
X94669075Y-71542841D01*
X94664710Y-71495330D01*
X94664709Y-71495327D01*
X94664181Y-71489576D01*
X94661820Y-71481206D01*
X94607954Y-71290211D01*
X94607953Y-71290209D01*
X94606386Y-71284652D01*
X94600196Y-71272098D01*
X94514770Y-71098873D01*
X94512215Y-71093692D01*
X94384822Y-70923091D01*
X94228471Y-70778563D01*
X94048401Y-70664947D01*
X93850641Y-70586049D01*
X93844981Y-70584923D01*
X93844977Y-70584922D01*
X93647482Y-70545638D01*
X93647480Y-70545638D01*
X93641815Y-70544511D01*
X93636040Y-70544435D01*
X93636036Y-70544435D01*
X93529361Y-70543039D01*
X93428916Y-70541724D01*
X93423221Y-70542703D01*
X93423216Y-70542703D01*
X93352553Y-70554845D01*
X93282029Y-70546668D01*
X93242121Y-70519760D01*
X87594543Y-64872182D01*
X87586902Y-64863785D01*
X87582759Y-64857257D01*
X87574184Y-64849204D01*
X87532646Y-64810198D01*
X87529804Y-64807443D01*
X87509896Y-64787535D01*
X87506632Y-64785004D01*
X87497609Y-64777297D01*
X87470836Y-64752155D01*
X87465057Y-64746728D01*
X87458111Y-64742909D01*
X87458109Y-64742908D01*
X87447073Y-64736841D01*
X87430549Y-64725987D01*
X87420598Y-64718268D01*
X87420597Y-64718267D01*
X87414335Y-64713410D01*
X87391166Y-64703384D01*
X87373357Y-64695677D01*
X87362697Y-64690455D01*
X87330513Y-64672761D01*
X87330512Y-64672760D01*
X87323566Y-64668942D01*
X87303676Y-64663835D01*
X87284990Y-64657437D01*
X87266152Y-64649285D01*
X87258322Y-64648045D01*
X87258319Y-64648044D01*
X87236175Y-64644537D01*
X87222041Y-64642299D01*
X87210434Y-64639895D01*
X87177314Y-64631391D01*
X87174853Y-64630759D01*
X87174852Y-64630759D01*
X87167176Y-64628788D01*
X87146654Y-64628788D01*
X87126943Y-64627237D01*
X87124292Y-64626817D01*
X87106676Y-64624027D01*
X87098784Y-64624773D01*
X87062224Y-64628229D01*
X87050366Y-64628788D01*
X77483328Y-64628788D01*
X77471997Y-64628254D01*
X77464455Y-64626568D01*
X77456532Y-64626817D01*
X77395791Y-64628726D01*
X77391833Y-64628788D01*
X77363632Y-64628788D01*
X77359545Y-64629304D01*
X77347705Y-64630237D01*
X77303071Y-64631640D01*
X77295453Y-64633853D01*
X77295454Y-64633853D01*
X77283365Y-64637365D01*
X77264005Y-64641374D01*
X77251511Y-64642952D01*
X77251508Y-64642953D01*
X77243646Y-64643946D01*
X77236277Y-64646864D01*
X77236276Y-64646864D01*
X77202140Y-64660380D01*
X77190908Y-64664226D01*
X77148019Y-64676686D01*
X77141196Y-64680721D01*
X77130350Y-64687135D01*
X77112598Y-64695831D01*
X77100896Y-64700464D01*
X77100894Y-64700465D01*
X77093522Y-64703384D01*
X77057390Y-64729636D01*
X77047482Y-64736143D01*
X77015864Y-64754841D01*
X77015859Y-64754845D01*
X77009041Y-64758877D01*
X76994531Y-64773387D01*
X76979498Y-64786227D01*
X76962895Y-64798290D01*
X76957844Y-64804396D01*
X76934431Y-64832697D01*
X76926442Y-64841476D01*
X76621500Y-65146419D01*
X76343880Y-65424039D01*
X76281567Y-65458064D01*
X76254784Y-65460944D01*
X71768885Y-65460944D01*
X71700764Y-65440942D01*
X71654271Y-65387286D01*
X71649361Y-65374820D01*
X71618821Y-65283280D01*
X71616506Y-65276341D01*
X71523373Y-65125839D01*
X71398115Y-65000800D01*
X71254612Y-64912343D01*
X71253681Y-64911769D01*
X71253679Y-64911768D01*
X71247451Y-64907929D01*
X71079463Y-64852210D01*
X71072627Y-64851510D01*
X71072624Y-64851509D01*
X71020325Y-64846151D01*
X70974931Y-64841500D01*
X70429241Y-64841500D01*
X69875070Y-64841501D01*
X69871826Y-64841838D01*
X69871818Y-64841838D01*
X69825438Y-64846650D01*
X69769231Y-64852482D01*
X69601341Y-64908494D01*
X69450839Y-65001627D01*
X69325800Y-65126885D01*
X69284778Y-65193435D01*
X69237508Y-65270121D01*
X69232929Y-65277549D01*
X69177210Y-65445537D01*
X69176510Y-65452373D01*
X69176509Y-65452376D01*
X69174601Y-65470999D01*
X69166500Y-65550069D01*
X69166501Y-66649930D01*
X69166838Y-66653174D01*
X69166838Y-66653182D01*
X69167461Y-66659184D01*
X69177482Y-66755769D01*
X69233494Y-66923659D01*
X69326627Y-67074161D01*
X69451885Y-67199200D01*
X69467592Y-67208882D01*
X69542742Y-67255205D01*
X69602549Y-67292071D01*
X69678465Y-67317251D01*
X69740001Y-67337662D01*
X69798361Y-67378093D01*
X69825598Y-67443657D01*
X69813064Y-67513539D01*
X69772606Y-67560467D01*
X69718976Y-67598019D01*
X69617473Y-67669092D01*
X69617470Y-67669094D01*
X69612962Y-67672251D01*
X69457251Y-67827962D01*
X69454094Y-67832470D01*
X69454092Y-67832473D01*
X69334101Y-68003838D01*
X69330944Y-68008347D01*
X69328621Y-68013329D01*
X69328618Y-68013334D01*
X69311626Y-68049775D01*
X69237880Y-68207924D01*
X69180885Y-68420629D01*
X69161693Y-68640000D01*
X69180885Y-68859371D01*
X69237880Y-69072076D01*
X69280216Y-69162866D01*
X69328618Y-69266666D01*
X69328621Y-69266671D01*
X69330944Y-69271653D01*
X69334100Y-69276160D01*
X69334101Y-69276162D01*
X69449308Y-69440694D01*
X69457251Y-69452038D01*
X69612962Y-69607749D01*
X69617471Y-69610906D01*
X69617473Y-69610908D01*
X69643091Y-69628846D01*
X69793346Y-69734056D01*
X69798328Y-69736379D01*
X69798333Y-69736382D01*
X69925768Y-69795805D01*
X69979053Y-69842722D01*
X69998514Y-69910999D01*
X69977972Y-69978959D01*
X69925768Y-70024195D01*
X69798334Y-70083618D01*
X69798329Y-70083621D01*
X69793347Y-70085944D01*
X69788840Y-70089100D01*
X69788838Y-70089101D01*
X69617473Y-70209092D01*
X69617470Y-70209094D01*
X69612962Y-70212251D01*
X69457251Y-70367962D01*
X69454094Y-70372470D01*
X69454092Y-70372473D01*
X69339605Y-70535978D01*
X69330944Y-70548347D01*
X69328621Y-70553329D01*
X69328618Y-70553334D01*
X69298017Y-70618959D01*
X69237880Y-70747924D01*
X69180885Y-70960629D01*
X69161693Y-71180000D01*
X69180885Y-71399371D01*
X69237880Y-71612076D01*
X69270835Y-71682749D01*
X69328618Y-71806666D01*
X69328621Y-71806671D01*
X69330944Y-71811653D01*
X69334100Y-71816160D01*
X69334101Y-71816162D01*
X69445081Y-71974657D01*
X69457251Y-71992038D01*
X69612962Y-72147749D01*
X69617471Y-72150906D01*
X69617473Y-72150908D01*
X69643818Y-72169355D01*
X69793346Y-72274056D01*
X69798328Y-72276379D01*
X69798333Y-72276382D01*
X69925768Y-72335805D01*
X69979053Y-72382722D01*
X69998514Y-72450999D01*
X69977972Y-72518959D01*
X69925768Y-72564195D01*
X69798334Y-72623618D01*
X69798329Y-72623621D01*
X69793347Y-72625944D01*
X69788840Y-72629100D01*
X69788838Y-72629101D01*
X69617473Y-72749092D01*
X69617470Y-72749094D01*
X69612962Y-72752251D01*
X69457251Y-72907962D01*
X69454094Y-72912470D01*
X69454092Y-72912473D01*
X69335631Y-73081653D01*
X69330944Y-73088347D01*
X69328621Y-73093329D01*
X69328618Y-73093334D01*
X69304431Y-73145205D01*
X69237880Y-73287924D01*
X69180885Y-73500629D01*
X69161693Y-73720000D01*
X69180885Y-73939371D01*
X69237880Y-74152076D01*
X69259958Y-74199422D01*
X69328618Y-74346666D01*
X69328621Y-74346671D01*
X69330944Y-74351653D01*
X69334100Y-74356160D01*
X69334101Y-74356162D01*
X69453050Y-74526038D01*
X69457251Y-74532038D01*
X69612962Y-74687749D01*
X69617471Y-74690906D01*
X69617473Y-74690908D01*
X69679899Y-74734619D01*
X69793346Y-74814056D01*
X69992924Y-74907120D01*
X70205629Y-74964115D01*
X70425000Y-74983307D01*
X70644371Y-74964115D01*
X70857076Y-74907120D01*
X71056654Y-74814056D01*
X71170101Y-74734619D01*
X71232527Y-74690908D01*
X71232529Y-74690906D01*
X71237038Y-74687749D01*
X71392749Y-74532038D01*
X71396951Y-74526038D01*
X71515899Y-74356162D01*
X71515900Y-74356160D01*
X71519056Y-74351653D01*
X71521379Y-74346671D01*
X71521382Y-74346666D01*
X71590042Y-74199422D01*
X71612120Y-74152076D01*
X71669115Y-73939371D01*
X71688307Y-73720000D01*
X71669115Y-73500629D01*
X71612120Y-73287924D01*
X71545569Y-73145205D01*
X71521382Y-73093334D01*
X71521379Y-73093329D01*
X71519056Y-73088347D01*
X71514369Y-73081653D01*
X71395908Y-72912473D01*
X71395906Y-72912470D01*
X71392749Y-72907962D01*
X71237038Y-72752251D01*
X71218974Y-72739602D01*
X71157759Y-72696739D01*
X71056654Y-72625944D01*
X71051672Y-72623621D01*
X71051667Y-72623618D01*
X70924232Y-72564195D01*
X70870947Y-72517278D01*
X70851486Y-72449001D01*
X70872028Y-72381041D01*
X70924232Y-72335805D01*
X71051667Y-72276382D01*
X71051672Y-72276379D01*
X71056654Y-72274056D01*
X71206182Y-72169355D01*
X71232527Y-72150908D01*
X71232529Y-72150906D01*
X71237038Y-72147749D01*
X71392749Y-71992038D01*
X71404920Y-71974657D01*
X71515899Y-71816162D01*
X71515900Y-71816160D01*
X71519056Y-71811653D01*
X71521379Y-71806671D01*
X71521382Y-71806666D01*
X71579165Y-71682749D01*
X71612120Y-71612076D01*
X71669115Y-71399371D01*
X71688307Y-71180000D01*
X71669115Y-70960629D01*
X71612120Y-70747924D01*
X71551983Y-70618959D01*
X71521382Y-70553334D01*
X71521379Y-70553329D01*
X71519056Y-70548347D01*
X71510396Y-70535978D01*
X71395908Y-70372473D01*
X71395906Y-70372470D01*
X71392749Y-70367962D01*
X71237038Y-70212251D01*
X71225028Y-70203841D01*
X71110852Y-70123894D01*
X71056654Y-70085944D01*
X71051672Y-70083621D01*
X71051667Y-70083618D01*
X70924232Y-70024195D01*
X70870947Y-69977278D01*
X70851486Y-69909001D01*
X70872028Y-69841041D01*
X70924232Y-69795805D01*
X71051667Y-69736382D01*
X71051672Y-69736379D01*
X71056654Y-69734056D01*
X71206909Y-69628846D01*
X71232527Y-69610908D01*
X71232529Y-69610906D01*
X71237038Y-69607749D01*
X71392749Y-69452038D01*
X71400693Y-69440694D01*
X71476251Y-69332785D01*
X71531708Y-69288457D01*
X71579464Y-69279056D01*
X71672833Y-69279056D01*
X71740954Y-69299058D01*
X71787447Y-69352714D01*
X71797551Y-69422988D01*
X71787028Y-69458306D01*
X71777880Y-69477924D01*
X71720885Y-69690629D01*
X71701693Y-69910000D01*
X71720885Y-70129371D01*
X71777880Y-70342076D01*
X71797657Y-70384488D01*
X71868618Y-70536666D01*
X71868621Y-70536671D01*
X71870944Y-70541653D01*
X71874100Y-70546160D01*
X71874101Y-70546162D01*
X71991053Y-70713186D01*
X71997251Y-70722038D01*
X72152962Y-70877749D01*
X72157471Y-70880906D01*
X72157473Y-70880908D01*
X72180348Y-70896925D01*
X72333346Y-71004056D01*
X72338328Y-71006379D01*
X72338333Y-71006382D01*
X72465768Y-71065805D01*
X72519053Y-71112722D01*
X72538514Y-71180999D01*
X72517972Y-71248959D01*
X72465768Y-71294195D01*
X72338334Y-71353618D01*
X72338329Y-71353621D01*
X72333347Y-71355944D01*
X72328840Y-71359100D01*
X72328838Y-71359101D01*
X72157473Y-71479092D01*
X72157470Y-71479094D01*
X72152962Y-71482251D01*
X71997251Y-71637962D01*
X71994094Y-71642470D01*
X71994092Y-71642473D01*
X71874101Y-71813838D01*
X71870944Y-71818347D01*
X71868621Y-71823329D01*
X71868618Y-71823334D01*
X71831460Y-71903021D01*
X71777880Y-72017924D01*
X71720885Y-72230629D01*
X71701693Y-72450000D01*
X71720885Y-72669371D01*
X71777880Y-72882076D01*
X71805738Y-72941818D01*
X71868618Y-73076666D01*
X71868621Y-73076671D01*
X71870944Y-73081653D01*
X71874100Y-73086160D01*
X71874101Y-73086162D01*
X71991572Y-73253927D01*
X71997251Y-73262038D01*
X72152962Y-73417749D01*
X72157471Y-73420906D01*
X72157473Y-73420908D01*
X72204346Y-73453729D01*
X72333346Y-73544056D01*
X72532924Y-73637120D01*
X72745629Y-73694115D01*
X72965000Y-73713307D01*
X73184371Y-73694115D01*
X73397076Y-73637120D01*
X73527144Y-73576469D01*
X73597334Y-73565808D01*
X73662146Y-73594788D01*
X73669487Y-73601569D01*
X74848879Y-74780961D01*
X74882905Y-74843273D01*
X74880358Y-74906632D01*
X74870612Y-74938760D01*
X74853583Y-75111657D01*
X74870612Y-75284554D01*
X74921045Y-75450806D01*
X75002943Y-75604024D01*
X75006870Y-75608809D01*
X75040714Y-75650047D01*
X75051767Y-75665839D01*
X75059085Y-75678213D01*
X75077714Y-75696842D01*
X75089378Y-75710283D01*
X75103424Y-75728990D01*
X75106302Y-75731929D01*
X75106308Y-75731936D01*
X75109967Y-75735672D01*
X75112857Y-75738623D01*
X75116108Y-75741172D01*
X75136862Y-75757445D01*
X75162787Y-75784987D01*
X75168867Y-75793789D01*
X75174851Y-75798985D01*
X75180141Y-75804894D01*
X75180073Y-75804955D01*
X75182130Y-75807023D01*
X75184160Y-75809727D01*
X75187048Y-75812676D01*
X75189700Y-75815384D01*
X75193593Y-75819360D01*
X75196829Y-75821897D01*
X75196843Y-75821910D01*
X75207548Y-75830303D01*
X75209735Y-75832057D01*
X75266979Y-75879036D01*
X75269649Y-75881290D01*
X75290789Y-75899644D01*
X75293920Y-75901210D01*
X75294724Y-75901806D01*
X75323405Y-75925343D01*
X75323409Y-75925345D01*
X75328192Y-75929271D01*
X75361056Y-75946837D01*
X75475953Y-76008251D01*
X75475955Y-76008252D01*
X75481409Y-76011167D01*
X75494599Y-76015168D01*
X75641734Y-76059801D01*
X75641740Y-76059802D01*
X75647660Y-76061598D01*
X75820554Y-76078627D01*
X75843957Y-76076322D01*
X75987285Y-76062205D01*
X75993448Y-76061598D01*
X75999374Y-76059800D01*
X75999376Y-76059800D01*
X76025577Y-76051852D01*
X76096570Y-76051217D01*
X76151249Y-76083331D01*
X77295737Y-77227818D01*
X77303378Y-77236215D01*
X77307521Y-77242743D01*
X77313299Y-77248169D01*
X77313300Y-77248170D01*
X77357634Y-77289802D01*
X77360476Y-77292557D01*
X77380384Y-77312465D01*
X77383648Y-77314996D01*
X77392665Y-77322698D01*
X77393304Y-77323298D01*
X77429273Y-77384508D01*
X77426439Y-77455448D01*
X77416172Y-77478157D01*
X77415834Y-77478742D01*
X77412677Y-77483251D01*
X77410355Y-77488230D01*
X77410353Y-77488234D01*
X77334706Y-77650462D01*
X77315916Y-77690757D01*
X77314494Y-77696065D01*
X77314493Y-77696067D01*
X77276529Y-77837749D01*
X77256657Y-77911913D01*
X77236702Y-78140000D01*
X77256657Y-78368087D01*
X77258081Y-78373400D01*
X77258081Y-78373402D01*
X77259268Y-78377830D01*
X77315916Y-78589243D01*
X77318239Y-78594224D01*
X77318239Y-78594225D01*
X77410351Y-78791762D01*
X77410354Y-78791767D01*
X77412677Y-78796749D01*
X77415834Y-78801257D01*
X77445573Y-78843729D01*
X77468261Y-78911003D01*
X77450976Y-78979863D01*
X77399207Y-79028448D01*
X77342360Y-79042000D01*
X70162683Y-79042000D01*
X70138093Y-79039577D01*
X70127800Y-79037529D01*
X70122193Y-79037294D01*
X70120138Y-79037207D01*
X70120134Y-79037207D01*
X70115271Y-79037003D01*
X70110431Y-79037550D01*
X70105798Y-79037713D01*
X70100574Y-79038043D01*
X69958959Y-79039944D01*
X69709484Y-79043292D01*
X69709473Y-79043293D01*
X69706764Y-79043329D01*
X69526749Y-79061352D01*
X69302999Y-79083753D01*
X69302988Y-79083755D01*
X69300277Y-79084026D01*
X69297594Y-79084531D01*
X69297589Y-79084532D01*
X68901500Y-79159127D01*
X68901493Y-79159129D01*
X68898815Y-79159633D01*
X68801754Y-79186758D01*
X68507992Y-79268854D01*
X68507981Y-79268858D01*
X68505371Y-79269587D01*
X68502827Y-79270541D01*
X68502828Y-79270541D01*
X68125426Y-79412112D01*
X68125422Y-79412114D01*
X68122878Y-79413068D01*
X67754187Y-79589006D01*
X67402045Y-79796091D01*
X67235561Y-79914435D01*
X67071303Y-80031197D01*
X67071298Y-80031201D01*
X67069078Y-80032779D01*
X67067002Y-80034543D01*
X67067001Y-80034544D01*
X66759835Y-80295547D01*
X66759827Y-80295555D01*
X66757768Y-80297304D01*
X66470435Y-80587696D01*
X66468699Y-80589784D01*
X66468694Y-80589789D01*
X66427627Y-80639170D01*
X66209221Y-80901791D01*
X65976073Y-81237245D01*
X65772729Y-81591560D01*
X65771584Y-81594025D01*
X65771581Y-81594032D01*
X65682099Y-81786774D01*
X65600705Y-81962094D01*
X65599781Y-81964639D01*
X65471591Y-82317695D01*
X65468393Y-82325055D01*
X65468475Y-82325089D01*
X65466606Y-82329577D01*
X65464391Y-82333919D01*
X65460479Y-82345832D01*
X65459692Y-82350623D01*
X65459690Y-82350630D01*
X65455741Y-82374666D01*
X65451747Y-82391578D01*
X65125670Y-83442276D01*
X65025049Y-83766499D01*
X65020354Y-83779177D01*
X65004847Y-83815015D01*
X65003738Y-83823923D01*
X65003737Y-83823925D01*
X65002415Y-83834543D01*
X64997678Y-83856450D01*
X64919407Y-84107674D01*
X64904227Y-84156398D01*
X64900071Y-84167777D01*
X64787092Y-84436331D01*
X64766763Y-84484652D01*
X64761533Y-84495581D01*
X64598403Y-84798191D01*
X64592151Y-84808563D01*
X64459125Y-85006978D01*
X64400705Y-85094115D01*
X64393485Y-85103837D01*
X64220090Y-85315301D01*
X64175500Y-85369680D01*
X64167375Y-85378669D01*
X63924878Y-85622329D01*
X63915929Y-85630496D01*
X63846306Y-85688146D01*
X63651136Y-85849753D01*
X63651132Y-85849756D01*
X63641439Y-85857025D01*
X63356822Y-86049827D01*
X63346476Y-86056132D01*
X63044649Y-86220710D01*
X63033745Y-86225992D01*
X62717515Y-86360817D01*
X62706154Y-86365028D01*
X62378420Y-86468861D01*
X62366708Y-86471960D01*
X62030535Y-86543832D01*
X62018579Y-86545793D01*
X61677033Y-86585047D01*
X61664964Y-86585848D01*
X61358228Y-86591441D01*
X61332840Y-86589327D01*
X61321591Y-86587230D01*
X61313904Y-86588003D01*
X61306270Y-86586814D01*
X61286946Y-86589341D01*
X61264430Y-86590253D01*
X60963900Y-86575488D01*
X60951606Y-86574278D01*
X60624861Y-86525809D01*
X60612751Y-86523401D01*
X60292324Y-86443138D01*
X60280493Y-86439549D01*
X59969506Y-86328275D01*
X59958082Y-86323544D01*
X59659477Y-86182315D01*
X59648572Y-86176486D01*
X59365255Y-86006672D01*
X59354974Y-85999802D01*
X59089671Y-85803040D01*
X59080113Y-85795196D01*
X58835370Y-85573374D01*
X58826626Y-85564630D01*
X58604804Y-85319887D01*
X58596960Y-85310329D01*
X58400198Y-85045026D01*
X58393328Y-85034745D01*
X58307961Y-84892319D01*
X58223512Y-84751424D01*
X58217685Y-84740523D01*
X58076456Y-84441918D01*
X58071725Y-84430494D01*
X57960451Y-84119507D01*
X57956861Y-84107674D01*
X57895698Y-83863495D01*
X57876599Y-83787249D01*
X57874189Y-83775130D01*
X57873994Y-83773810D01*
X57825722Y-83448394D01*
X57824511Y-83436093D01*
X57810293Y-83146665D01*
X57811886Y-83119586D01*
X57812264Y-83117340D01*
X57812265Y-83117331D01*
X57813071Y-83112539D01*
X57813224Y-83100000D01*
X57809273Y-83072412D01*
X57808000Y-83054549D01*
X57808000Y-76870000D01*
X59431693Y-76870000D01*
X59450885Y-77089371D01*
X59507880Y-77302076D01*
X59526114Y-77341178D01*
X59598618Y-77496666D01*
X59598621Y-77496671D01*
X59600944Y-77501653D01*
X59604100Y-77506160D01*
X59604101Y-77506162D01*
X59652822Y-77575742D01*
X59727251Y-77682038D01*
X59882962Y-77837749D01*
X59887471Y-77840906D01*
X59887473Y-77840908D01*
X59962241Y-77893261D01*
X60063346Y-77964056D01*
X60262924Y-78057120D01*
X60475629Y-78114115D01*
X60695000Y-78133307D01*
X60914371Y-78114115D01*
X61127076Y-78057120D01*
X61326654Y-77964056D01*
X61427759Y-77893261D01*
X61502527Y-77840908D01*
X61502529Y-77840906D01*
X61507038Y-77837749D01*
X61662749Y-77682038D01*
X61737179Y-77575742D01*
X61785899Y-77506162D01*
X61785900Y-77506160D01*
X61789056Y-77501653D01*
X61791379Y-77496671D01*
X61791382Y-77496666D01*
X61863886Y-77341178D01*
X61882120Y-77302076D01*
X61883543Y-77296764D01*
X61883547Y-77296754D01*
X61910316Y-77196853D01*
X61947267Y-77136231D01*
X62011128Y-77105209D01*
X62081623Y-77113638D01*
X62136369Y-77158842D01*
X62147915Y-77180022D01*
X62169596Y-77230852D01*
X62318985Y-77480462D01*
X62321669Y-77483813D01*
X62321671Y-77483815D01*
X62363254Y-77535719D01*
X62500867Y-77707489D01*
X62711878Y-77907731D01*
X62948113Y-78077483D01*
X62973924Y-78091149D01*
X63097270Y-78156457D01*
X63205200Y-78213603D01*
X63209223Y-78215075D01*
X63209227Y-78215077D01*
X63233709Y-78224036D01*
X63478382Y-78313574D01*
X63762604Y-78375544D01*
X63791650Y-78377830D01*
X63988297Y-78393307D01*
X63988304Y-78393307D01*
X63990753Y-78393500D01*
X64148121Y-78393500D01*
X64150257Y-78393354D01*
X64150268Y-78393354D01*
X64360949Y-78378991D01*
X64360955Y-78378990D01*
X64365226Y-78378699D01*
X64369421Y-78377830D01*
X64369423Y-78377830D01*
X64507653Y-78349204D01*
X64650081Y-78319709D01*
X64924295Y-78222605D01*
X65097306Y-78133307D01*
X65178986Y-78091149D01*
X65178987Y-78091149D01*
X65182793Y-78089184D01*
X65186294Y-78086723D01*
X65186298Y-78086721D01*
X65357523Y-77966381D01*
X65420792Y-77921915D01*
X65633888Y-77723894D01*
X65637255Y-77719781D01*
X65780418Y-77544870D01*
X65818139Y-77498784D01*
X65970133Y-77250752D01*
X65977089Y-77234907D01*
X66077732Y-77005634D01*
X66087059Y-76984386D01*
X66093073Y-76963276D01*
X66126486Y-76845977D01*
X66166754Y-76704616D01*
X66168364Y-76693309D01*
X66207137Y-76420870D01*
X66207742Y-76416619D01*
X66208737Y-76226544D01*
X66209243Y-76130009D01*
X66209243Y-76130003D01*
X66209265Y-76125723D01*
X66196654Y-76029929D01*
X66184609Y-75938443D01*
X66171295Y-75837313D01*
X66169574Y-75831020D01*
X66134593Y-75703151D01*
X66094535Y-75556724D01*
X66060031Y-75475831D01*
X65982090Y-75293100D01*
X65982088Y-75293096D01*
X65980404Y-75289148D01*
X65831015Y-75039538D01*
X65816337Y-75021216D01*
X65719663Y-74900547D01*
X65649133Y-74812511D01*
X65486463Y-74658143D01*
X65441231Y-74615219D01*
X65441228Y-74615217D01*
X65438122Y-74612269D01*
X65201887Y-74442517D01*
X65090918Y-74383762D01*
X64948587Y-74308402D01*
X64948586Y-74308401D01*
X64944800Y-74306397D01*
X64940777Y-74304925D01*
X64940773Y-74304923D01*
X64675649Y-74207901D01*
X64675647Y-74207900D01*
X64671618Y-74206426D01*
X64387396Y-74144456D01*
X64343598Y-74141009D01*
X64161703Y-74126693D01*
X64161696Y-74126693D01*
X64159247Y-74126500D01*
X64001879Y-74126500D01*
X63999743Y-74126646D01*
X63999732Y-74126646D01*
X63789051Y-74141009D01*
X63789045Y-74141010D01*
X63784774Y-74141301D01*
X63780579Y-74142170D01*
X63780577Y-74142170D01*
X63708671Y-74157061D01*
X63499919Y-74200291D01*
X63225705Y-74297395D01*
X63221896Y-74299361D01*
X63093807Y-74365473D01*
X62967207Y-74430816D01*
X62963706Y-74433277D01*
X62963702Y-74433279D01*
X62878738Y-74492993D01*
X62729208Y-74598085D01*
X62726070Y-74601001D01*
X62519767Y-74792710D01*
X62516112Y-74796106D01*
X62513398Y-74799422D01*
X62513395Y-74799425D01*
X62425647Y-74906632D01*
X62331861Y-75021216D01*
X62179867Y-75269248D01*
X62178148Y-75273165D01*
X62178146Y-75273168D01*
X62144912Y-75348878D01*
X62062941Y-75535614D01*
X62061765Y-75539742D01*
X62061764Y-75539745D01*
X62039983Y-75616208D01*
X61983246Y-75815384D01*
X61982642Y-75819626D01*
X61982641Y-75819632D01*
X61945370Y-76081515D01*
X61915969Y-76146137D01*
X61856298Y-76184606D01*
X61785301Y-76184708D01*
X61725520Y-76146409D01*
X61717414Y-76136031D01*
X61665912Y-76062478D01*
X61665907Y-76062472D01*
X61662749Y-76057962D01*
X61507038Y-75902251D01*
X61495895Y-75894448D01*
X61404286Y-75830303D01*
X61326654Y-75775944D01*
X61127076Y-75682880D01*
X60914371Y-75625885D01*
X60695000Y-75606693D01*
X60475629Y-75625885D01*
X60262924Y-75682880D01*
X60204158Y-75710283D01*
X60068334Y-75773618D01*
X60068329Y-75773621D01*
X60063347Y-75775944D01*
X60058840Y-75779100D01*
X60058838Y-75779101D01*
X59887473Y-75899092D01*
X59887470Y-75899094D01*
X59882962Y-75902251D01*
X59727251Y-76057962D01*
X59724094Y-76062470D01*
X59724092Y-76062473D01*
X59604101Y-76233838D01*
X59600944Y-76238347D01*
X59598621Y-76243329D01*
X59598618Y-76243334D01*
X59591043Y-76259579D01*
X59507880Y-76437924D01*
X59450885Y-76650629D01*
X59431693Y-76870000D01*
X57808000Y-76870000D01*
X57808000Y-75226180D01*
X57828002Y-75158059D01*
X57881658Y-75111566D01*
X57951932Y-75101462D01*
X58016512Y-75130956D01*
X58026834Y-75141442D01*
X58027251Y-75142038D01*
X58182962Y-75297749D01*
X58187471Y-75300906D01*
X58187473Y-75300908D01*
X58237373Y-75335848D01*
X58363346Y-75424056D01*
X58562924Y-75517120D01*
X58775629Y-75574115D01*
X58995000Y-75593307D01*
X59214371Y-75574115D01*
X59427076Y-75517120D01*
X59626654Y-75424056D01*
X59752627Y-75335848D01*
X59802527Y-75300908D01*
X59802529Y-75300906D01*
X59807038Y-75297749D01*
X59962749Y-75142038D01*
X59988338Y-75105494D01*
X60085899Y-74966162D01*
X60085900Y-74966160D01*
X60089056Y-74961653D01*
X60091379Y-74956671D01*
X60091382Y-74956666D01*
X60158602Y-74812511D01*
X60182120Y-74762076D01*
X60239115Y-74549371D01*
X60258307Y-74330000D01*
X60239115Y-74110629D01*
X60182120Y-73897924D01*
X60131761Y-73789928D01*
X60091382Y-73703334D01*
X60091379Y-73703329D01*
X60089056Y-73698347D01*
X60085899Y-73693838D01*
X59965908Y-73522473D01*
X59965906Y-73522470D01*
X59962749Y-73517962D01*
X59807038Y-73362251D01*
X59791919Y-73351664D01*
X59727735Y-73306722D01*
X59626654Y-73235944D01*
X59427076Y-73142880D01*
X59214371Y-73085885D01*
X58995000Y-73066693D01*
X58775629Y-73085885D01*
X58562924Y-73142880D01*
X58507390Y-73168776D01*
X58368334Y-73233618D01*
X58368329Y-73233621D01*
X58363347Y-73235944D01*
X58358840Y-73239100D01*
X58358838Y-73239101D01*
X58187473Y-73359092D01*
X58187470Y-73359094D01*
X58182962Y-73362251D01*
X58027251Y-73517962D01*
X58026666Y-73517377D01*
X57971413Y-73554137D01*
X57900425Y-73555264D01*
X57840097Y-73517834D01*
X57809583Y-73453729D01*
X57808000Y-73433820D01*
X57808000Y-66760000D01*
X59431693Y-66760000D01*
X59450885Y-66979371D01*
X59507880Y-67192076D01*
X59537605Y-67255821D01*
X59598618Y-67386666D01*
X59598621Y-67386671D01*
X59600944Y-67391653D01*
X59604100Y-67396160D01*
X59604101Y-67396162D01*
X59720829Y-67562866D01*
X59727251Y-67572038D01*
X59882962Y-67727749D01*
X59887471Y-67730906D01*
X59887473Y-67730908D01*
X59945874Y-67771801D01*
X60063346Y-67854056D01*
X60262924Y-67947120D01*
X60475629Y-68004115D01*
X60695000Y-68023307D01*
X60914371Y-68004115D01*
X61127076Y-67947120D01*
X61326654Y-67854056D01*
X61444126Y-67771801D01*
X61502527Y-67730908D01*
X61502529Y-67730906D01*
X61507038Y-67727749D01*
X61662749Y-67572038D01*
X61669172Y-67562866D01*
X61785899Y-67396162D01*
X61785900Y-67396160D01*
X61789056Y-67391653D01*
X61791379Y-67386671D01*
X61791382Y-67386666D01*
X61852395Y-67255821D01*
X61882120Y-67192076D01*
X61939115Y-66979371D01*
X61958307Y-66760000D01*
X61939115Y-66540629D01*
X61882120Y-66327924D01*
X61832323Y-66221134D01*
X61791382Y-66133334D01*
X61791379Y-66133329D01*
X61789056Y-66128347D01*
X61778144Y-66112763D01*
X61665908Y-65952473D01*
X61665906Y-65952470D01*
X61662749Y-65947962D01*
X61507038Y-65792251D01*
X61465297Y-65763023D01*
X61419886Y-65731226D01*
X61326654Y-65665944D01*
X61127076Y-65572880D01*
X60914371Y-65515885D01*
X60695000Y-65496693D01*
X60475629Y-65515885D01*
X60262924Y-65572880D01*
X60169562Y-65616415D01*
X60068334Y-65663618D01*
X60068329Y-65663621D01*
X60063347Y-65665944D01*
X60058840Y-65669100D01*
X60058838Y-65669101D01*
X59887473Y-65789092D01*
X59887470Y-65789094D01*
X59882962Y-65792251D01*
X59727251Y-65947962D01*
X59724094Y-65952470D01*
X59724092Y-65952473D01*
X59611856Y-66112763D01*
X59600944Y-66128347D01*
X59598621Y-66133329D01*
X59598618Y-66133334D01*
X59557677Y-66221134D01*
X59507880Y-66327924D01*
X59450885Y-66540629D01*
X59431693Y-66760000D01*
X57808000Y-66760000D01*
X57808000Y-64964277D01*
X61940735Y-64964277D01*
X61941294Y-64968521D01*
X61941294Y-64968525D01*
X61945982Y-65004131D01*
X61978705Y-65252687D01*
X62055465Y-65533276D01*
X62057149Y-65537224D01*
X62167590Y-65796148D01*
X62169596Y-65800852D01*
X62318985Y-66050462D01*
X62321669Y-66053813D01*
X62321671Y-66053815D01*
X62345040Y-66082984D01*
X62500867Y-66277489D01*
X62615884Y-66386636D01*
X62682419Y-66449775D01*
X62711878Y-66477731D01*
X62948113Y-66647483D01*
X63008335Y-66679369D01*
X63189088Y-66775072D01*
X63205200Y-66783603D01*
X63209223Y-66785075D01*
X63209227Y-66785077D01*
X63474351Y-66882099D01*
X63478382Y-66883574D01*
X63762604Y-66945544D01*
X63788855Y-66947610D01*
X63988297Y-66963307D01*
X63988304Y-66963307D01*
X63990753Y-66963500D01*
X64148121Y-66963500D01*
X64150257Y-66963354D01*
X64150268Y-66963354D01*
X64360949Y-66948991D01*
X64360955Y-66948990D01*
X64365226Y-66948699D01*
X64369421Y-66947830D01*
X64369423Y-66947830D01*
X64564938Y-66907341D01*
X64650081Y-66889709D01*
X64924295Y-66792605D01*
X65032250Y-66736885D01*
X65178986Y-66661149D01*
X65178987Y-66661149D01*
X65182793Y-66659184D01*
X65186294Y-66656723D01*
X65186298Y-66656721D01*
X65351479Y-66540629D01*
X65420792Y-66491915D01*
X65559461Y-66363056D01*
X65630745Y-66296815D01*
X65630748Y-66296812D01*
X65633888Y-66293894D01*
X65644895Y-66280447D01*
X65815423Y-66072102D01*
X65818139Y-66068784D01*
X65970133Y-65820752D01*
X65978869Y-65800852D01*
X66039110Y-65663618D01*
X66087059Y-65554386D01*
X66091933Y-65537278D01*
X66118438Y-65444231D01*
X66166754Y-65274616D01*
X66169286Y-65256829D01*
X66207137Y-64990870D01*
X66207742Y-64986619D01*
X66208728Y-64798290D01*
X66209243Y-64700009D01*
X66209243Y-64700003D01*
X66209265Y-64695723D01*
X66208572Y-64690455D01*
X66183003Y-64496243D01*
X66171295Y-64407313D01*
X66168370Y-64396619D01*
X66134140Y-64271498D01*
X66094535Y-64126724D01*
X66062366Y-64051305D01*
X65982090Y-63863100D01*
X65982088Y-63863096D01*
X65980404Y-63859148D01*
X65831015Y-63609538D01*
X65818637Y-63594087D01*
X65651823Y-63385869D01*
X65649133Y-63382511D01*
X65477739Y-63219864D01*
X65441231Y-63185219D01*
X65441228Y-63185217D01*
X65438122Y-63182269D01*
X65201887Y-63012517D01*
X65071617Y-62943543D01*
X64948587Y-62878402D01*
X64948586Y-62878401D01*
X64944800Y-62876397D01*
X64940777Y-62874925D01*
X64940773Y-62874923D01*
X64675649Y-62777901D01*
X64675647Y-62777900D01*
X64671618Y-62776426D01*
X64387396Y-62714456D01*
X64343598Y-62711009D01*
X64161703Y-62696693D01*
X64161696Y-62696693D01*
X64159247Y-62696500D01*
X64001879Y-62696500D01*
X63999743Y-62696646D01*
X63999732Y-62696646D01*
X63789051Y-62711009D01*
X63789045Y-62711010D01*
X63784774Y-62711301D01*
X63780579Y-62712170D01*
X63780577Y-62712170D01*
X63765130Y-62715369D01*
X63499919Y-62770291D01*
X63225705Y-62867395D01*
X62967207Y-63000816D01*
X62963706Y-63003277D01*
X62963702Y-63003279D01*
X62950558Y-63012517D01*
X62729208Y-63168085D01*
X62726067Y-63171004D01*
X62524771Y-63358060D01*
X62516112Y-63366106D01*
X62513398Y-63369422D01*
X62513395Y-63369425D01*
X62460647Y-63433871D01*
X62331861Y-63591216D01*
X62179867Y-63839248D01*
X62178148Y-63843165D01*
X62178146Y-63843168D01*
X62169397Y-63863100D01*
X62062941Y-64105614D01*
X62061765Y-64109742D01*
X62061764Y-64109745D01*
X62055436Y-64131961D01*
X61983246Y-64385384D01*
X61982642Y-64389626D01*
X61982641Y-64389632D01*
X61948534Y-64629284D01*
X61942258Y-64673381D01*
X61940735Y-64964277D01*
X57808000Y-64964277D01*
X57808000Y-58053207D01*
X57809746Y-58032303D01*
X57812264Y-58017335D01*
X57813071Y-58012539D01*
X57813224Y-58000000D01*
X57811048Y-57984804D01*
X57809927Y-57960763D01*
X57824511Y-57663906D01*
X57825723Y-57651601D01*
X57874191Y-57324861D01*
X57876601Y-57312743D01*
X57885786Y-57276077D01*
X57956862Y-56992324D01*
X57960451Y-56980493D01*
X58071725Y-56669506D01*
X58076456Y-56658082D01*
X58217685Y-56359477D01*
X58223514Y-56348572D01*
X58393328Y-56065255D01*
X58400198Y-56054974D01*
X58596960Y-55789671D01*
X58604804Y-55780113D01*
X58826626Y-55535370D01*
X58835370Y-55526626D01*
X59080113Y-55304804D01*
X59089671Y-55296960D01*
X59354974Y-55100198D01*
X59365255Y-55093328D01*
X59648572Y-54923514D01*
X59659477Y-54917685D01*
X59958082Y-54776456D01*
X59969506Y-54771725D01*
X60280493Y-54660451D01*
X60292326Y-54656861D01*
X60612751Y-54576599D01*
X60624861Y-54574191D01*
X60951606Y-54525722D01*
X60963902Y-54524511D01*
X61052656Y-54520151D01*
X61257062Y-54510110D01*
X61282624Y-54511457D01*
X61284858Y-54511805D01*
X61284861Y-54511805D01*
X61293730Y-54513186D01*
X61301392Y-54512184D01*
X61309056Y-54513144D01*
X61328483Y-54510011D01*
X61350839Y-54508424D01*
X61664960Y-54514153D01*
G37*
%TD.AperFunction*%
%TA.AperFunction,Conductor*%
G36*
X82368632Y-77491214D02*
G01*
X82415125Y-77544870D01*
X82425229Y-77615144D01*
X82414706Y-77650460D01*
X82395916Y-77690757D01*
X82394494Y-77696065D01*
X82394493Y-77696067D01*
X82356529Y-77837749D01*
X82336657Y-77911913D01*
X82316702Y-78140000D01*
X82336657Y-78368087D01*
X82338081Y-78373400D01*
X82338081Y-78373402D01*
X82339268Y-78377830D01*
X82395916Y-78589243D01*
X82398239Y-78594224D01*
X82398239Y-78594225D01*
X82490351Y-78791762D01*
X82490354Y-78791767D01*
X82492677Y-78796749D01*
X82495834Y-78801257D01*
X82525573Y-78843729D01*
X82548261Y-78911003D01*
X82530976Y-78979863D01*
X82479207Y-79028448D01*
X82422360Y-79042000D01*
X79758040Y-79042000D01*
X79689919Y-79021998D01*
X79643426Y-78968342D01*
X79633322Y-78898068D01*
X79654827Y-78843729D01*
X79684566Y-78801257D01*
X79687723Y-78796749D01*
X79690046Y-78791767D01*
X79690049Y-78791762D01*
X79782161Y-78594225D01*
X79782161Y-78594224D01*
X79784484Y-78589243D01*
X79841133Y-78377830D01*
X79842319Y-78373402D01*
X79842319Y-78373400D01*
X79843743Y-78368087D01*
X79863698Y-78140000D01*
X79843743Y-77911913D01*
X79823871Y-77837749D01*
X79785907Y-77696067D01*
X79785906Y-77696065D01*
X79784484Y-77690757D01*
X79765694Y-77650461D01*
X79755033Y-77580271D01*
X79784013Y-77515458D01*
X79843432Y-77476601D01*
X79879889Y-77471212D01*
X82300511Y-77471212D01*
X82368632Y-77491214D01*
G37*
%TD.AperFunction*%
%TA.AperFunction,Conductor*%
G36*
X145739673Y-65128502D02*
G01*
X145760647Y-65145405D01*
X145792219Y-65176977D01*
X145796727Y-65180134D01*
X145796730Y-65180136D01*
X145850820Y-65218010D01*
X145974323Y-65304488D01*
X145979305Y-65306811D01*
X145979310Y-65306814D01*
X146084373Y-65355805D01*
X146137658Y-65402722D01*
X146157119Y-65470999D01*
X146136577Y-65538959D01*
X146084373Y-65584195D01*
X145979311Y-65633186D01*
X145979306Y-65633189D01*
X145974324Y-65635512D01*
X145969817Y-65638668D01*
X145969815Y-65638669D01*
X145796730Y-65759864D01*
X145796727Y-65759866D01*
X145792219Y-65763023D01*
X145744730Y-65810512D01*
X145681835Y-65844663D01*
X145676639Y-65845768D01*
X145670072Y-65846458D01*
X145605025Y-65867593D01*
X145598712Y-65869463D01*
X145581949Y-65873955D01*
X145539003Y-65885462D01*
X145539000Y-65885463D01*
X145532630Y-65887170D01*
X145520085Y-65893562D01*
X145501826Y-65901125D01*
X145488444Y-65905473D01*
X145482723Y-65908776D01*
X145429223Y-65939664D01*
X145423426Y-65942812D01*
X145368351Y-65970874D01*
X145368348Y-65970876D01*
X145362470Y-65973871D01*
X145357342Y-65978024D01*
X145357340Y-65978025D01*
X145351534Y-65982727D01*
X145335237Y-65993927D01*
X145328776Y-65997657D01*
X145328772Y-65997660D01*
X145323056Y-66000960D01*
X145318150Y-66005377D01*
X145318145Y-66005381D01*
X145272231Y-66046722D01*
X145267216Y-66051006D01*
X145258718Y-66057888D01*
X145251259Y-66063928D01*
X145236744Y-66078443D01*
X145231959Y-66082984D01*
X145181134Y-66128747D01*
X145177255Y-66134086D01*
X145177254Y-66134087D01*
X145172860Y-66140135D01*
X145160019Y-66155168D01*
X143437111Y-67878076D01*
X143396902Y-67903692D01*
X143397190Y-67904267D01*
X143391582Y-67907081D01*
X143391579Y-67907083D01*
X143390646Y-67907551D01*
X143390641Y-67907553D01*
X143247862Y-67979207D01*
X143247858Y-67979210D01*
X143241714Y-67982293D01*
X143236381Y-67986634D01*
X143236379Y-67986636D01*
X143164119Y-68045465D01*
X143164113Y-68045471D01*
X143161625Y-68047496D01*
X142737966Y-68471155D01*
X142735902Y-68473697D01*
X142735901Y-68473698D01*
X142730441Y-68480422D01*
X142672044Y-68552341D01*
X142668964Y-68558504D01*
X142668962Y-68558508D01*
X142624590Y-68647311D01*
X142594290Y-68707951D01*
X142574075Y-68793803D01*
X142557049Y-68866109D01*
X142554419Y-68877277D01*
X142554425Y-68884593D01*
X142554425Y-68884596D01*
X142554551Y-69028328D01*
X142534608Y-69096466D01*
X142480993Y-69143006D01*
X142428663Y-69154438D01*
X142275975Y-69154571D01*
X142260902Y-69158148D01*
X142114950Y-69192784D01*
X142106720Y-69194737D01*
X142100183Y-69198017D01*
X142100179Y-69198019D01*
X141957392Y-69269677D01*
X141957388Y-69269680D01*
X141951244Y-69272763D01*
X141945911Y-69277104D01*
X141945909Y-69277106D01*
X141873649Y-69335935D01*
X141873643Y-69335941D01*
X141871155Y-69337966D01*
X141447496Y-69761625D01*
X141381574Y-69842811D01*
X141378494Y-69848974D01*
X141378492Y-69848978D01*
X141322554Y-69960928D01*
X141303820Y-69998421D01*
X141284529Y-70080346D01*
X141277247Y-70111273D01*
X141243697Y-70171489D01*
X140865187Y-70550000D01*
X140560603Y-70854584D01*
X140498290Y-70888609D01*
X140427475Y-70883545D01*
X140370639Y-70840998D01*
X140345828Y-70774478D01*
X140345507Y-70765599D01*
X140345506Y-70763908D01*
X140345429Y-70675975D01*
X140318861Y-70564022D01*
X140306953Y-70513841D01*
X140306953Y-70513840D01*
X140305263Y-70506720D01*
X140301983Y-70500183D01*
X140301981Y-70500179D01*
X140230323Y-70357392D01*
X140230320Y-70357388D01*
X140227237Y-70351244D01*
X140191552Y-70307412D01*
X140164056Y-70241957D01*
X140163265Y-70227862D01*
X140163265Y-69536181D01*
X140164816Y-69516469D01*
X140165985Y-69509089D01*
X140167017Y-69502574D01*
X140166672Y-69495980D01*
X140163438Y-69434284D01*
X140163265Y-69427690D01*
X140163265Y-69407155D01*
X140161118Y-69386725D01*
X140160601Y-69380150D01*
X140157368Y-69318461D01*
X140157368Y-69318460D01*
X140157022Y-69311861D01*
X140153381Y-69298273D01*
X140149777Y-69278826D01*
X140148998Y-69271409D01*
X140148997Y-69271405D01*
X140148307Y-69264837D01*
X140127167Y-69199774D01*
X140125294Y-69193450D01*
X140109304Y-69133775D01*
X140109303Y-69133771D01*
X140107594Y-69127395D01*
X140101205Y-69114857D01*
X140093640Y-69096591D01*
X140091334Y-69089493D01*
X140091333Y-69089491D01*
X140089292Y-69083209D01*
X140085743Y-69077061D01*
X140055101Y-69023988D01*
X140051953Y-69018191D01*
X140023892Y-68963117D01*
X140023890Y-68963114D01*
X140020894Y-68957234D01*
X140012032Y-68946291D01*
X140000838Y-68930002D01*
X139993805Y-68917821D01*
X139989388Y-68912915D01*
X139989384Y-68912910D01*
X139948034Y-68866986D01*
X139943762Y-68861985D01*
X139930837Y-68846024D01*
X139916322Y-68831509D01*
X139911781Y-68826724D01*
X139870440Y-68780810D01*
X139870439Y-68780809D01*
X139866018Y-68775899D01*
X139860673Y-68772015D01*
X139855768Y-68767599D01*
X139855792Y-68767572D01*
X139841388Y-68754603D01*
X139811253Y-68721134D01*
X139803367Y-68715404D01*
X139755924Y-68680935D01*
X139750691Y-68676919D01*
X139702667Y-68638030D01*
X139702662Y-68638027D01*
X139697530Y-68633871D01*
X139684993Y-68627483D01*
X139668136Y-68617153D01*
X139662093Y-68612762D01*
X139662090Y-68612760D01*
X139656752Y-68608882D01*
X139650724Y-68606198D01*
X139650722Y-68606197D01*
X139594249Y-68581054D01*
X139588296Y-68578214D01*
X139533253Y-68550168D01*
X139533249Y-68550166D01*
X139527370Y-68547171D01*
X139520992Y-68545462D01*
X139513779Y-68543529D01*
X139495147Y-68536931D01*
X139488319Y-68533891D01*
X139488317Y-68533890D01*
X139482288Y-68531206D01*
X139422903Y-68518583D01*
X139415390Y-68516986D01*
X139408978Y-68515447D01*
X139349280Y-68499451D01*
X139349274Y-68499450D01*
X139342903Y-68497743D01*
X139336313Y-68497398D01*
X139336309Y-68497397D01*
X139328857Y-68497007D01*
X139309252Y-68494426D01*
X139295487Y-68491500D01*
X139227074Y-68491500D01*
X139220480Y-68491327D01*
X139158782Y-68488093D01*
X139158777Y-68488093D01*
X139152190Y-68487748D01*
X139138292Y-68489949D01*
X139118583Y-68491500D01*
X139104513Y-68491500D01*
X139037586Y-68505726D01*
X139031135Y-68506922D01*
X138963568Y-68517623D01*
X138950432Y-68522666D01*
X138931473Y-68528281D01*
X138924170Y-68529833D01*
X138924166Y-68529834D01*
X138917712Y-68531206D01*
X138855206Y-68559035D01*
X138849133Y-68561550D01*
X138791443Y-68583695D01*
X138791439Y-68583697D01*
X138785278Y-68586062D01*
X138773480Y-68593724D01*
X138756106Y-68603157D01*
X138749282Y-68606195D01*
X138749278Y-68606197D01*
X138743248Y-68608882D01*
X138723841Y-68622982D01*
X138687910Y-68649087D01*
X138682475Y-68652822D01*
X138636392Y-68682749D01*
X138625113Y-68690074D01*
X138615168Y-68700019D01*
X138600135Y-68712860D01*
X138596634Y-68715404D01*
X138588747Y-68721134D01*
X138570216Y-68741715D01*
X138542984Y-68771959D01*
X138538443Y-68776744D01*
X138490074Y-68825113D01*
X138486478Y-68830651D01*
X138486476Y-68830653D01*
X138482408Y-68836917D01*
X138470372Y-68852603D01*
X138460960Y-68863056D01*
X138436053Y-68906197D01*
X138426767Y-68922280D01*
X138423321Y-68927904D01*
X138386062Y-68985278D01*
X138383696Y-68991443D01*
X138383693Y-68991448D01*
X138381019Y-68998414D01*
X138372507Y-69016261D01*
X138365473Y-69028444D01*
X138351296Y-69072076D01*
X138344336Y-69093497D01*
X138342139Y-69099701D01*
X138317623Y-69163568D01*
X138316590Y-69170090D01*
X138316589Y-69170094D01*
X138315421Y-69177466D01*
X138310806Y-69196689D01*
X138308500Y-69203785D01*
X138308498Y-69203793D01*
X138306458Y-69210072D01*
X138305768Y-69216637D01*
X138305767Y-69216642D01*
X138299309Y-69278091D01*
X138298448Y-69284632D01*
X138288780Y-69345673D01*
X138287748Y-69352190D01*
X138288093Y-69358778D01*
X138288093Y-69358782D01*
X138288484Y-69366241D01*
X138287967Y-69385999D01*
X138286496Y-69400000D01*
X138287186Y-69406565D01*
X138287186Y-69406566D01*
X138293647Y-69468041D01*
X138294164Y-69474616D01*
X138297391Y-69536181D01*
X138297743Y-69542903D01*
X138299453Y-69549284D01*
X138299453Y-69549286D01*
X138301383Y-69556491D01*
X138304985Y-69575925D01*
X138305766Y-69583354D01*
X138305768Y-69583363D01*
X138306458Y-69589928D01*
X138327600Y-69654997D01*
X138329467Y-69661298D01*
X138341596Y-69706565D01*
X138341972Y-69707967D01*
X138346265Y-69740578D01*
X138346265Y-70210280D01*
X138326263Y-70278401D01*
X138318080Y-70289704D01*
X138281574Y-70334663D01*
X138278494Y-70340826D01*
X138278492Y-70340830D01*
X138255352Y-70387141D01*
X138203820Y-70490274D01*
X138187932Y-70557748D01*
X138166761Y-70647659D01*
X138163949Y-70659599D01*
X138163955Y-70666915D01*
X138163955Y-70666918D01*
X138164014Y-70733680D01*
X138164101Y-70833555D01*
X138204267Y-71002810D01*
X138207547Y-71009347D01*
X138207549Y-71009351D01*
X138279207Y-71152138D01*
X138279210Y-71152142D01*
X138282293Y-71158286D01*
X138286634Y-71163619D01*
X138286636Y-71163621D01*
X138345465Y-71235881D01*
X138345471Y-71235887D01*
X138347496Y-71238375D01*
X138771155Y-71662034D01*
X138852341Y-71727956D01*
X138858504Y-71731036D01*
X138858508Y-71731038D01*
X138921456Y-71762491D01*
X139007951Y-71805710D01*
X139091890Y-71825475D01*
X139170154Y-71843904D01*
X139170156Y-71843904D01*
X139177277Y-71845581D01*
X139184593Y-71845575D01*
X139184596Y-71845575D01*
X139262382Y-71845507D01*
X139265382Y-71845504D01*
X139333520Y-71865447D01*
X139380060Y-71919062D01*
X139390225Y-71989327D01*
X139360789Y-72053933D01*
X139354587Y-72060599D01*
X135760592Y-75654595D01*
X135698280Y-75688621D01*
X135671497Y-75691500D01*
X120811617Y-75691500D01*
X120791908Y-75689949D01*
X120778010Y-75687748D01*
X120771423Y-75688093D01*
X120771418Y-75688093D01*
X120709720Y-75691327D01*
X120703126Y-75691500D01*
X120682590Y-75691500D01*
X120679318Y-75691844D01*
X120679316Y-75691844D01*
X120662158Y-75693647D01*
X120655584Y-75694164D01*
X120593896Y-75697397D01*
X120593894Y-75697397D01*
X120587297Y-75697743D01*
X120573704Y-75701385D01*
X120554275Y-75704986D01*
X120540272Y-75706458D01*
X120533991Y-75708499D01*
X120533990Y-75708499D01*
X120523261Y-75711985D01*
X120475225Y-75727593D01*
X120468912Y-75729463D01*
X120459684Y-75731936D01*
X120409203Y-75745462D01*
X120409200Y-75745463D01*
X120402830Y-75747170D01*
X120390285Y-75753562D01*
X120372026Y-75761125D01*
X120358644Y-75765473D01*
X120352923Y-75768776D01*
X120299423Y-75799664D01*
X120293626Y-75802812D01*
X120238551Y-75830874D01*
X120238548Y-75830876D01*
X120232670Y-75833871D01*
X120227542Y-75838024D01*
X120227540Y-75838025D01*
X120221734Y-75842727D01*
X120205437Y-75853927D01*
X120198976Y-75857657D01*
X120198972Y-75857660D01*
X120193256Y-75860960D01*
X120188350Y-75865377D01*
X120188345Y-75865381D01*
X120142431Y-75906722D01*
X120137416Y-75911006D01*
X120128918Y-75917888D01*
X120121459Y-75923928D01*
X120106944Y-75938443D01*
X120102159Y-75942984D01*
X120051334Y-75988747D01*
X120047455Y-75994086D01*
X120047454Y-75994087D01*
X120043060Y-76000135D01*
X120030219Y-76015168D01*
X119254064Y-76791323D01*
X119191752Y-76825349D01*
X119175954Y-76827748D01*
X119097296Y-76834630D01*
X118967594Y-76845977D01*
X118967589Y-76845978D01*
X118962113Y-76846457D01*
X118956800Y-76847881D01*
X118956798Y-76847881D01*
X118746267Y-76904293D01*
X118746265Y-76904294D01*
X118740957Y-76905716D01*
X118735976Y-76908039D01*
X118735975Y-76908039D01*
X118538438Y-77000151D01*
X118538433Y-77000154D01*
X118533451Y-77002477D01*
X118431370Y-77073955D01*
X118350411Y-77130643D01*
X118350408Y-77130645D01*
X118345900Y-77133802D01*
X118184002Y-77295700D01*
X118180845Y-77300208D01*
X118180843Y-77300211D01*
X118133422Y-77367936D01*
X118052677Y-77483251D01*
X118050354Y-77488233D01*
X118050351Y-77488238D01*
X118034395Y-77522457D01*
X117987478Y-77575742D01*
X117919201Y-77595203D01*
X117851241Y-77574661D01*
X117806005Y-77522457D01*
X117790049Y-77488238D01*
X117790046Y-77488233D01*
X117787723Y-77483251D01*
X117656398Y-77295700D01*
X117653735Y-77293037D01*
X117625483Y-77228491D01*
X117636698Y-77158386D01*
X117661374Y-77123440D01*
X119839408Y-74945405D01*
X119901720Y-74911380D01*
X119928503Y-74908500D01*
X130618583Y-74908500D01*
X130638292Y-74910051D01*
X130652190Y-74912252D01*
X130658777Y-74911907D01*
X130658782Y-74911907D01*
X130720480Y-74908673D01*
X130727074Y-74908500D01*
X130747610Y-74908500D01*
X130750882Y-74908156D01*
X130750884Y-74908156D01*
X130768042Y-74906353D01*
X130774616Y-74905836D01*
X130836308Y-74902603D01*
X130836312Y-74902602D01*
X130842903Y-74902257D01*
X130849284Y-74900547D01*
X130849286Y-74900547D01*
X130856491Y-74898617D01*
X130875925Y-74895015D01*
X130883354Y-74894234D01*
X130883363Y-74894232D01*
X130889928Y-74893542D01*
X130954997Y-74872400D01*
X130961299Y-74870533D01*
X131027370Y-74852829D01*
X131039908Y-74846440D01*
X131058174Y-74838875D01*
X131065272Y-74836569D01*
X131065274Y-74836568D01*
X131071556Y-74834527D01*
X131130785Y-74800331D01*
X131136579Y-74797185D01*
X131197530Y-74766129D01*
X131208467Y-74757273D01*
X131224763Y-74746073D01*
X131231224Y-74742343D01*
X131231228Y-74742340D01*
X131236944Y-74739040D01*
X131241850Y-74734623D01*
X131241855Y-74734619D01*
X131287769Y-74693278D01*
X131292784Y-74688994D01*
X131306177Y-74678148D01*
X131308741Y-74676072D01*
X131323256Y-74661557D01*
X131328041Y-74657016D01*
X131373957Y-74615673D01*
X131378866Y-74611253D01*
X131387140Y-74599865D01*
X131399981Y-74584832D01*
X134445252Y-71539561D01*
X134505253Y-71506061D01*
X134588928Y-71486204D01*
X134595465Y-71482924D01*
X134595469Y-71482922D01*
X134738256Y-71411264D01*
X134738260Y-71411261D01*
X134744404Y-71408178D01*
X134755222Y-71399371D01*
X134821999Y-71345006D01*
X134822005Y-71345000D01*
X134824493Y-71342975D01*
X135230474Y-70936994D01*
X135296396Y-70855808D01*
X135299476Y-70849645D01*
X135299478Y-70849641D01*
X135370879Y-70706744D01*
X135370880Y-70706742D01*
X135374150Y-70700197D01*
X135393514Y-70617963D01*
X135427065Y-70557748D01*
X136262889Y-69721924D01*
X136303098Y-69696308D01*
X136302810Y-69695733D01*
X136308418Y-69692919D01*
X136308421Y-69692917D01*
X136309354Y-69692449D01*
X136309359Y-69692447D01*
X136452138Y-69620793D01*
X136452142Y-69620790D01*
X136458286Y-69617707D01*
X136463621Y-69613364D01*
X136535881Y-69554535D01*
X136535887Y-69554529D01*
X136538375Y-69552504D01*
X136962034Y-69128845D01*
X136967988Y-69121513D01*
X137005641Y-69075141D01*
X137027956Y-69047659D01*
X137031036Y-69041496D01*
X137031038Y-69041492D01*
X137098641Y-68906197D01*
X137105710Y-68892049D01*
X137133411Y-68774409D01*
X137143904Y-68729846D01*
X137143904Y-68729844D01*
X137145581Y-68722723D01*
X137145575Y-68715070D01*
X137145449Y-68571672D01*
X137165392Y-68503534D01*
X137219007Y-68456994D01*
X137271337Y-68445562D01*
X137424025Y-68445429D01*
X137521699Y-68422250D01*
X137586159Y-68406953D01*
X137586160Y-68406953D01*
X137593280Y-68405263D01*
X137599817Y-68401983D01*
X137599821Y-68401981D01*
X137742608Y-68330323D01*
X137742612Y-68330320D01*
X137748756Y-68327237D01*
X137762744Y-68315849D01*
X137826351Y-68264065D01*
X137826357Y-68264059D01*
X137828845Y-68262034D01*
X138252504Y-67838375D01*
X138318426Y-67757189D01*
X138321506Y-67751026D01*
X138321508Y-67751022D01*
X138396180Y-67601579D01*
X138397054Y-67602016D01*
X138421947Y-67562866D01*
X140839408Y-65145405D01*
X140901720Y-65111379D01*
X140928503Y-65108500D01*
X145671552Y-65108500D01*
X145739673Y-65128502D01*
G37*
%TD.AperFunction*%
%TA.AperFunction,Conductor*%
G36*
X86645344Y-66391214D02*
G01*
X86666318Y-66408117D01*
X90838282Y-70580081D01*
X90872308Y-70642393D01*
X90867243Y-70713208D01*
X90832266Y-70763906D01*
X90676254Y-70900725D01*
X90544438Y-71067933D01*
X90541749Y-71073044D01*
X90541747Y-71073047D01*
X90520873Y-71112722D01*
X90445300Y-71256362D01*
X90443586Y-71261883D01*
X90443584Y-71261887D01*
X90398160Y-71408178D01*
X90382161Y-71459702D01*
X90357136Y-71671144D01*
X90371061Y-71883606D01*
X90372482Y-71889202D01*
X90372483Y-71889207D01*
X90410417Y-72038570D01*
X90423472Y-72089972D01*
X90425889Y-72095215D01*
X90462589Y-72174823D01*
X90512611Y-72283331D01*
X90635496Y-72457209D01*
X90648009Y-72469399D01*
X90758306Y-72576846D01*
X90793143Y-72638708D01*
X90789006Y-72709584D01*
X90747207Y-72766971D01*
X90681017Y-72792651D01*
X90670384Y-72793100D01*
X89679817Y-72793100D01*
X89660107Y-72791549D01*
X89652727Y-72790380D01*
X89652726Y-72790380D01*
X89646210Y-72789348D01*
X89639623Y-72789693D01*
X89639618Y-72789693D01*
X89577920Y-72792927D01*
X89571326Y-72793100D01*
X89550790Y-72793100D01*
X89547518Y-72793444D01*
X89547516Y-72793444D01*
X89530358Y-72795247D01*
X89523784Y-72795764D01*
X89462096Y-72798997D01*
X89462094Y-72798997D01*
X89455497Y-72799343D01*
X89441904Y-72802985D01*
X89422475Y-72806586D01*
X89408472Y-72808058D01*
X89343425Y-72829193D01*
X89337112Y-72831063D01*
X89327104Y-72833745D01*
X89277403Y-72847062D01*
X89277400Y-72847063D01*
X89271030Y-72848770D01*
X89258485Y-72855162D01*
X89240226Y-72862725D01*
X89226844Y-72867073D01*
X89221123Y-72870376D01*
X89167623Y-72901264D01*
X89161826Y-72904412D01*
X89106751Y-72932474D01*
X89106748Y-72932476D01*
X89100870Y-72935471D01*
X89095742Y-72939624D01*
X89095740Y-72939625D01*
X89089934Y-72944327D01*
X89073637Y-72955527D01*
X89067176Y-72959257D01*
X89067172Y-72959260D01*
X89061456Y-72962560D01*
X89056550Y-72966977D01*
X89056545Y-72966981D01*
X89010631Y-73008322D01*
X89005616Y-73012606D01*
X88998412Y-73018440D01*
X88989659Y-73025528D01*
X88975144Y-73040043D01*
X88970359Y-73044584D01*
X88919534Y-73090347D01*
X88915655Y-73095686D01*
X88915654Y-73095687D01*
X88911260Y-73101735D01*
X88898419Y-73116768D01*
X87760592Y-74254595D01*
X87698280Y-74288621D01*
X87671497Y-74291500D01*
X87204513Y-74291500D01*
X87164136Y-74300082D01*
X87151128Y-74302143D01*
X87130690Y-74304291D01*
X87116635Y-74305768D01*
X87116633Y-74305768D01*
X87110072Y-74306458D01*
X87103798Y-74308497D01*
X87103791Y-74308498D01*
X87070817Y-74319212D01*
X87058080Y-74322625D01*
X87024169Y-74329833D01*
X87024165Y-74329834D01*
X87017712Y-74331206D01*
X86979994Y-74347999D01*
X86967696Y-74352719D01*
X86943463Y-74360593D01*
X86928444Y-74365473D01*
X86922723Y-74368776D01*
X86892710Y-74386104D01*
X86880961Y-74392091D01*
X86843248Y-74408882D01*
X86837909Y-74412761D01*
X86837904Y-74412764D01*
X86809851Y-74433146D01*
X86798798Y-74440325D01*
X86763056Y-74460960D01*
X86758147Y-74465380D01*
X86758143Y-74465383D01*
X86732386Y-74488575D01*
X86722143Y-74496871D01*
X86688747Y-74521134D01*
X86684333Y-74526036D01*
X86684331Y-74526038D01*
X86661129Y-74551806D01*
X86651806Y-74561129D01*
X86626038Y-74584331D01*
X86621134Y-74588747D01*
X86596871Y-74622143D01*
X86588575Y-74632386D01*
X86565383Y-74658143D01*
X86565380Y-74658147D01*
X86560960Y-74663056D01*
X86540325Y-74698798D01*
X86533146Y-74709851D01*
X86512764Y-74737904D01*
X86512761Y-74737909D01*
X86508882Y-74743248D01*
X86506199Y-74749275D01*
X86506198Y-74749276D01*
X86492092Y-74780959D01*
X86486105Y-74792708D01*
X86465473Y-74828444D01*
X86463432Y-74834727D01*
X86463431Y-74834728D01*
X86452719Y-74867696D01*
X86447999Y-74879994D01*
X86431206Y-74917712D01*
X86429834Y-74924165D01*
X86429833Y-74924169D01*
X86422625Y-74958080D01*
X86419212Y-74970817D01*
X86408498Y-75003791D01*
X86408497Y-75003798D01*
X86406458Y-75010072D01*
X86405768Y-75016633D01*
X86405768Y-75016635D01*
X86402144Y-75051122D01*
X86400082Y-75064136D01*
X86391500Y-75104513D01*
X86391500Y-75145784D01*
X86390810Y-75158955D01*
X86386496Y-75200000D01*
X86387186Y-75206565D01*
X86390810Y-75241045D01*
X86391500Y-75254216D01*
X86391500Y-75295487D01*
X86400082Y-75335864D01*
X86402143Y-75348872D01*
X86406458Y-75389928D01*
X86408497Y-75396202D01*
X86408498Y-75396209D01*
X86419212Y-75429183D01*
X86422625Y-75441920D01*
X86431206Y-75482288D01*
X86447999Y-75520006D01*
X86452717Y-75532298D01*
X86455137Y-75539745D01*
X86462970Y-75563854D01*
X86464996Y-75634821D01*
X86428333Y-75695619D01*
X86364620Y-75726943D01*
X86343136Y-75728788D01*
X78313060Y-75728788D01*
X78244939Y-75708786D01*
X78223965Y-75691883D01*
X75690121Y-73158040D01*
X75676431Y-73132969D01*
X80067095Y-73132969D01*
X80067392Y-73138122D01*
X80067392Y-73138125D01*
X80077360Y-73311006D01*
X80080427Y-73364197D01*
X80081564Y-73369243D01*
X80081565Y-73369249D01*
X80107429Y-73484016D01*
X80131346Y-73590142D01*
X80133288Y-73594924D01*
X80133289Y-73594928D01*
X80215020Y-73796206D01*
X80218484Y-73804737D01*
X80339501Y-74002219D01*
X80491147Y-74177284D01*
X80669349Y-74325230D01*
X80869322Y-74442084D01*
X80874147Y-74443926D01*
X80874148Y-74443927D01*
X80910111Y-74457660D01*
X81085694Y-74524709D01*
X81090760Y-74525740D01*
X81090761Y-74525740D01*
X81121717Y-74532038D01*
X81312656Y-74570885D01*
X81443324Y-74575676D01*
X81538949Y-74579183D01*
X81538953Y-74579183D01*
X81544113Y-74579372D01*
X81549233Y-74578716D01*
X81549235Y-74578716D01*
X81622270Y-74569360D01*
X81773847Y-74549942D01*
X81778795Y-74548457D01*
X81778802Y-74548456D01*
X81990747Y-74484869D01*
X81995690Y-74483386D01*
X82000324Y-74481116D01*
X82199049Y-74383762D01*
X82199052Y-74383760D01*
X82203684Y-74381491D01*
X82392243Y-74246994D01*
X82556303Y-74083505D01*
X82691458Y-73895417D01*
X82738641Y-73799950D01*
X82791784Y-73692422D01*
X82791785Y-73692420D01*
X82794078Y-73687780D01*
X82820748Y-73600000D01*
X84786496Y-73600000D01*
X84787186Y-73606565D01*
X84803185Y-73758784D01*
X84806458Y-73789928D01*
X84865473Y-73971556D01*
X84960960Y-74136944D01*
X84965378Y-74141851D01*
X84965379Y-74141852D01*
X84967421Y-74144120D01*
X85088747Y-74278866D01*
X85156154Y-74327840D01*
X85229998Y-74381491D01*
X85243248Y-74391118D01*
X85249276Y-74393802D01*
X85249278Y-74393803D01*
X85411681Y-74466109D01*
X85417712Y-74468794D01*
X85486362Y-74483386D01*
X85598056Y-74507128D01*
X85598061Y-74507128D01*
X85604513Y-74508500D01*
X85795487Y-74508500D01*
X85801939Y-74507128D01*
X85801944Y-74507128D01*
X85913638Y-74483386D01*
X85982288Y-74468794D01*
X85988319Y-74466109D01*
X86150722Y-74393803D01*
X86150724Y-74393802D01*
X86156752Y-74391118D01*
X86170003Y-74381491D01*
X86243846Y-74327840D01*
X86311253Y-74278866D01*
X86432579Y-74144120D01*
X86434621Y-74141852D01*
X86434622Y-74141851D01*
X86439040Y-74136944D01*
X86534527Y-73971556D01*
X86593542Y-73789928D01*
X86596816Y-73758784D01*
X86612814Y-73606565D01*
X86613504Y-73600000D01*
X86608684Y-73554137D01*
X86594232Y-73416635D01*
X86594232Y-73416633D01*
X86593542Y-73410072D01*
X86534527Y-73228444D01*
X86527406Y-73216109D01*
X86485651Y-73143788D01*
X86439040Y-73063056D01*
X86431334Y-73054497D01*
X86315675Y-72926045D01*
X86315674Y-72926044D01*
X86311253Y-72921134D01*
X86189832Y-72832916D01*
X86162094Y-72812763D01*
X86162093Y-72812762D01*
X86156752Y-72808882D01*
X86150724Y-72806198D01*
X86150722Y-72806197D01*
X85988319Y-72733891D01*
X85988318Y-72733891D01*
X85982288Y-72731206D01*
X85869806Y-72707297D01*
X85801944Y-72692872D01*
X85801939Y-72692872D01*
X85795487Y-72691500D01*
X85604513Y-72691500D01*
X85598061Y-72692872D01*
X85598056Y-72692872D01*
X85530194Y-72707297D01*
X85417712Y-72731206D01*
X85411682Y-72733891D01*
X85411681Y-72733891D01*
X85249278Y-72806197D01*
X85249276Y-72806198D01*
X85243248Y-72808882D01*
X85237907Y-72812762D01*
X85237906Y-72812763D01*
X85210168Y-72832916D01*
X85088747Y-72921134D01*
X85084326Y-72926044D01*
X85084325Y-72926045D01*
X84968667Y-73054497D01*
X84960960Y-73063056D01*
X84914349Y-73143788D01*
X84872595Y-73216109D01*
X84865473Y-73228444D01*
X84806458Y-73410072D01*
X84805768Y-73416633D01*
X84805768Y-73416635D01*
X84791316Y-73554137D01*
X84786496Y-73600000D01*
X82820748Y-73600000D01*
X82861408Y-73466171D01*
X82891640Y-73236541D01*
X82891722Y-73233191D01*
X82893245Y-73170865D01*
X82893245Y-73170861D01*
X82893327Y-73167500D01*
X82885842Y-73076457D01*
X82874773Y-72941818D01*
X82874772Y-72941812D01*
X82874349Y-72936667D01*
X82832794Y-72771228D01*
X82819184Y-72717044D01*
X82819183Y-72717040D01*
X82817925Y-72712033D01*
X82815721Y-72706964D01*
X82727630Y-72504368D01*
X82727628Y-72504365D01*
X82725570Y-72499631D01*
X82599764Y-72305165D01*
X82568585Y-72270899D01*
X82540969Y-72240550D01*
X82443887Y-72133858D01*
X82439836Y-72130659D01*
X82439832Y-72130655D01*
X82266177Y-71993511D01*
X82266172Y-71993508D01*
X82262123Y-71990310D01*
X82257607Y-71987817D01*
X82257604Y-71987815D01*
X82063879Y-71880873D01*
X82063875Y-71880871D01*
X82059355Y-71878376D01*
X82054486Y-71876652D01*
X82054482Y-71876650D01*
X81845903Y-71802788D01*
X81845899Y-71802787D01*
X81841028Y-71801062D01*
X81835935Y-71800155D01*
X81835932Y-71800154D01*
X81618095Y-71761351D01*
X81618089Y-71761350D01*
X81613006Y-71760445D01*
X81540096Y-71759554D01*
X81386581Y-71757679D01*
X81386579Y-71757679D01*
X81381411Y-71757616D01*
X81152464Y-71792650D01*
X80932314Y-71864606D01*
X80927726Y-71866994D01*
X80927722Y-71866996D01*
X80747607Y-71960758D01*
X80726872Y-71971552D01*
X80722739Y-71974655D01*
X80722736Y-71974657D01*
X80545790Y-72107512D01*
X80541655Y-72110617D01*
X80538083Y-72114355D01*
X80397776Y-72261178D01*
X80381639Y-72278064D01*
X80378725Y-72282336D01*
X80378724Y-72282337D01*
X80330182Y-72353497D01*
X80251119Y-72469399D01*
X80153602Y-72679481D01*
X80091707Y-72902669D01*
X80067095Y-73132969D01*
X75676431Y-73132969D01*
X75656096Y-73095728D01*
X75653216Y-73068945D01*
X75653216Y-72038652D01*
X75653750Y-72027321D01*
X75655436Y-72019779D01*
X75653278Y-71951114D01*
X75653216Y-71947157D01*
X75653216Y-71918956D01*
X75652700Y-71914869D01*
X75651766Y-71903021D01*
X75650613Y-71866321D01*
X75650364Y-71858395D01*
X75644639Y-71838689D01*
X75640630Y-71819329D01*
X75639052Y-71806835D01*
X75639051Y-71806832D01*
X75638058Y-71798970D01*
X75621623Y-71757462D01*
X75617777Y-71746230D01*
X75607529Y-71710954D01*
X75605318Y-71703343D01*
X75594869Y-71685674D01*
X75586173Y-71667922D01*
X75581540Y-71656220D01*
X75581539Y-71656218D01*
X75578620Y-71648846D01*
X75552368Y-71612714D01*
X75545861Y-71602806D01*
X75527163Y-71571188D01*
X75527159Y-71571183D01*
X75523127Y-71564365D01*
X75508617Y-71549855D01*
X75495776Y-71534821D01*
X75488373Y-71524632D01*
X75483714Y-71518219D01*
X75477608Y-71513168D01*
X75475043Y-71510436D01*
X75442993Y-71447085D01*
X75450282Y-71376463D01*
X75457775Y-71361186D01*
X75475223Y-71330965D01*
X75475225Y-71330961D01*
X75477976Y-71326196D01*
X75534174Y-71171792D01*
X75536556Y-71158286D01*
X75548761Y-71089065D01*
X75562707Y-71009975D01*
X75562707Y-70845661D01*
X75534174Y-70683844D01*
X75514463Y-70629688D01*
X75479857Y-70534607D01*
X75479855Y-70534603D01*
X75477976Y-70529440D01*
X75395819Y-70387141D01*
X75326360Y-70304362D01*
X75322122Y-70299024D01*
X75302899Y-70273421D01*
X75302889Y-70273409D01*
X75300420Y-70270121D01*
X75290986Y-70260488D01*
X75290984Y-70260486D01*
X75287999Y-70258145D01*
X75287994Y-70258141D01*
X75266412Y-70241218D01*
X75263170Y-70238588D01*
X75168548Y-70159190D01*
X75168544Y-70159187D01*
X75164331Y-70155652D01*
X75022032Y-70073495D01*
X74867628Y-70017296D01*
X74760587Y-69998421D01*
X74711228Y-69989717D01*
X74711224Y-69989717D01*
X74705810Y-69988762D01*
X74541496Y-69988762D01*
X74379679Y-70017294D01*
X74379439Y-70015931D01*
X74315055Y-70014397D01*
X74256260Y-69974602D01*
X74227901Y-69905362D01*
X74224111Y-69862034D01*
X74209115Y-69690629D01*
X74152120Y-69477924D01*
X74142972Y-69458306D01*
X74132311Y-69388114D01*
X74161291Y-69323301D01*
X74220711Y-69284445D01*
X74257167Y-69279056D01*
X74608824Y-69279056D01*
X74620154Y-69279590D01*
X74627701Y-69281277D01*
X74635627Y-69281028D01*
X74635628Y-69281028D01*
X74696384Y-69279118D01*
X74700343Y-69279056D01*
X74728524Y-69279056D01*
X74732613Y-69278540D01*
X74744442Y-69277608D01*
X74778270Y-69276544D01*
X74781167Y-69276453D01*
X74789085Y-69276204D01*
X74808791Y-69270479D01*
X74828151Y-69266470D01*
X74840645Y-69264892D01*
X74840648Y-69264891D01*
X74848510Y-69263898D01*
X74890018Y-69247463D01*
X74901250Y-69243617D01*
X74908913Y-69241391D01*
X74944137Y-69231158D01*
X74961806Y-69220709D01*
X74979558Y-69212013D01*
X74991260Y-69207380D01*
X74991262Y-69207379D01*
X74998634Y-69204460D01*
X75034766Y-69178208D01*
X75044674Y-69171701D01*
X75076292Y-69153003D01*
X75076297Y-69152999D01*
X75083115Y-69148967D01*
X75097625Y-69134457D01*
X75112659Y-69121616D01*
X75117706Y-69117949D01*
X75129261Y-69109554D01*
X75157730Y-69075141D01*
X75165720Y-69066362D01*
X75196448Y-69035634D01*
X80071500Y-69035634D01*
X80078255Y-69097816D01*
X80129385Y-69234205D01*
X80216739Y-69350761D01*
X80333295Y-69438115D01*
X80469684Y-69489245D01*
X80531866Y-69496000D01*
X82428134Y-69496000D01*
X82490316Y-69489245D01*
X82626705Y-69438115D01*
X82743261Y-69350761D01*
X82830615Y-69234205D01*
X82881745Y-69097816D01*
X82888500Y-69035634D01*
X82888500Y-68000000D01*
X84086496Y-68000000D01*
X84087186Y-68006565D01*
X84105275Y-68178669D01*
X84106458Y-68189928D01*
X84165473Y-68371556D01*
X84168776Y-68377278D01*
X84168777Y-68377279D01*
X84198521Y-68428797D01*
X84260960Y-68536944D01*
X84265378Y-68541851D01*
X84265379Y-68541852D01*
X84384325Y-68673955D01*
X84388747Y-68678866D01*
X84543248Y-68791118D01*
X84549276Y-68793802D01*
X84549278Y-68793803D01*
X84708474Y-68864681D01*
X84717712Y-68868794D01*
X84811113Y-68888647D01*
X84898056Y-68907128D01*
X84898061Y-68907128D01*
X84904513Y-68908500D01*
X85095487Y-68908500D01*
X85101939Y-68907128D01*
X85101944Y-68907128D01*
X85188888Y-68888647D01*
X85282288Y-68868794D01*
X85291526Y-68864681D01*
X85450722Y-68793803D01*
X85450724Y-68793802D01*
X85456752Y-68791118D01*
X85611253Y-68678866D01*
X85615675Y-68673955D01*
X85734621Y-68541852D01*
X85734622Y-68541851D01*
X85739040Y-68536944D01*
X85801479Y-68428797D01*
X85831223Y-68377279D01*
X85831224Y-68377278D01*
X85834527Y-68371556D01*
X85893542Y-68189928D01*
X85894726Y-68178669D01*
X85912814Y-68006565D01*
X85913504Y-68000000D01*
X85907034Y-67938440D01*
X85894232Y-67816635D01*
X85894232Y-67816633D01*
X85893542Y-67810072D01*
X85834527Y-67628444D01*
X85822626Y-67607830D01*
X85791873Y-67554565D01*
X85739040Y-67463056D01*
X85729878Y-67452880D01*
X85615675Y-67326045D01*
X85615674Y-67326044D01*
X85611253Y-67321134D01*
X85456752Y-67208882D01*
X85450724Y-67206198D01*
X85450722Y-67206197D01*
X85288319Y-67133891D01*
X85288318Y-67133891D01*
X85282288Y-67131206D01*
X85175315Y-67108468D01*
X85101944Y-67092872D01*
X85101939Y-67092872D01*
X85095487Y-67091500D01*
X84904513Y-67091500D01*
X84898061Y-67092872D01*
X84898056Y-67092872D01*
X84824685Y-67108468D01*
X84717712Y-67131206D01*
X84711682Y-67133891D01*
X84711681Y-67133891D01*
X84549278Y-67206197D01*
X84549276Y-67206198D01*
X84543248Y-67208882D01*
X84388747Y-67321134D01*
X84384326Y-67326044D01*
X84384325Y-67326045D01*
X84270123Y-67452880D01*
X84260960Y-67463056D01*
X84208127Y-67554565D01*
X84177375Y-67607830D01*
X84165473Y-67628444D01*
X84106458Y-67810072D01*
X84105768Y-67816633D01*
X84105768Y-67816635D01*
X84092966Y-67938440D01*
X84086496Y-68000000D01*
X82888500Y-68000000D01*
X82888500Y-67139366D01*
X82881745Y-67077184D01*
X82830615Y-66940795D01*
X82743261Y-66824239D01*
X82626705Y-66736885D01*
X82490316Y-66685755D01*
X82428134Y-66679000D01*
X80531866Y-66679000D01*
X80469684Y-66685755D01*
X80333295Y-66736885D01*
X80216739Y-66824239D01*
X80129385Y-66940795D01*
X80078255Y-67077184D01*
X80071500Y-67139366D01*
X80071500Y-69035634D01*
X75196448Y-69035634D01*
X75777575Y-68454507D01*
X75791016Y-68442843D01*
X75806424Y-68431274D01*
X75809723Y-68428797D01*
X75812662Y-68425919D01*
X75812669Y-68425913D01*
X75816409Y-68422250D01*
X75816410Y-68422248D01*
X75819356Y-68419364D01*
X75821900Y-68416120D01*
X75821906Y-68416113D01*
X75829743Y-68406119D01*
X75831494Y-68403936D01*
X75925862Y-68288950D01*
X75925866Y-68288945D01*
X75929789Y-68284164D01*
X76012062Y-68130244D01*
X76046429Y-68016953D01*
X76085344Y-67957572D01*
X76130427Y-67932956D01*
X76237795Y-67900386D01*
X76243719Y-67898589D01*
X76249174Y-67895673D01*
X76249177Y-67895672D01*
X76379298Y-67826121D01*
X76397639Y-67816317D01*
X76405249Y-67810072D01*
X76444409Y-67777934D01*
X76460190Y-67766887D01*
X76465658Y-67763652D01*
X76465659Y-67763652D01*
X76472484Y-67759614D01*
X76481074Y-67751022D01*
X76486966Y-67745129D01*
X76502010Y-67732279D01*
X76512160Y-67724905D01*
X76512163Y-67724902D01*
X76518580Y-67720240D01*
X76521739Y-67716421D01*
X76523206Y-67715320D01*
X76532839Y-67705886D01*
X76552279Y-67681093D01*
X76562338Y-67669744D01*
X77823965Y-66408117D01*
X77886277Y-66374091D01*
X77913060Y-66371212D01*
X86577223Y-66371212D01*
X86645344Y-66391214D01*
G37*
%TD.AperFunction*%
%TD*%
M02*
