%TF.GenerationSoftware,KiCad,Pcbnew,(5.1.10)-1*%
%TF.CreationDate,2021-11-18T18:33:26-06:00*%
%TF.ProjectId,NavBoard_Hardware,4e617642-6f61-4726-945f-486172647761,rev?*%
%TF.SameCoordinates,Original*%
%TF.FileFunction,Soldermask,Top*%
%TF.FilePolarity,Negative*%
%FSLAX46Y46*%
G04 Gerber Fmt 4.6, Leading zero omitted, Abs format (unit mm)*
G04 Created by KiCad (PCBNEW (5.1.10)-1) date 2021-11-18 18:33:26*
%MOMM*%
%LPD*%
G01*
G04 APERTURE LIST*
%ADD10C,1.700000*%
%ADD11C,3.000000*%
%ADD12C,1.600000*%
%ADD13R,1.600000X1.600000*%
%ADD14C,5.080000*%
%ADD15O,2.020000X1.500000*%
%ADD16C,1.524000*%
%ADD17R,0.152400X0.228600*%
%ADD18R,0.279400X0.228600*%
%ADD19R,0.228600X0.152400*%
%ADD20R,0.228600X0.279400*%
%ADD21R,0.350000X0.490000*%
%ADD22R,0.490000X0.350000*%
G04 APERTURE END LIST*
D10*
%TO.C,U6*%
X90449001Y-42443001D03*
X90449001Y-39903001D03*
X92989001Y-42443001D03*
X92989001Y-39903001D03*
X95529001Y-42443001D03*
X95529001Y-39903001D03*
X98069001Y-42443001D03*
X98069001Y-39903001D03*
X100609001Y-42443001D03*
X100609001Y-39903001D03*
X103149001Y-42443001D03*
X103149001Y-39903001D03*
X105689001Y-42443001D03*
X105689001Y-39903001D03*
X108229001Y-42443001D03*
X108229001Y-39903001D03*
X110769001Y-42443001D03*
X110769001Y-39903001D03*
X113309001Y-42443001D03*
X113309001Y-39903001D03*
X115849001Y-42443001D03*
X115849001Y-39903001D03*
X118389001Y-42443001D03*
X118389001Y-39903001D03*
X120929001Y-42443001D03*
X120929001Y-39903001D03*
X123469001Y-42443001D03*
X123469001Y-39903001D03*
X126009001Y-42443001D03*
X126009001Y-39903001D03*
X128549001Y-42443001D03*
X128549001Y-39903001D03*
X131089001Y-42443001D03*
X131089001Y-39903001D03*
X133629001Y-42443001D03*
X133629001Y-39903001D03*
X136169001Y-42443001D03*
X136169001Y-39903001D03*
X138709001Y-42443001D03*
X138709001Y-39903001D03*
D11*
X85579001Y-41173001D03*
X85579001Y-90173001D03*
X143579001Y-41173001D03*
X143579001Y-90173001D03*
%TD*%
D12*
%TO.C,C1*%
X66040000Y-48300000D03*
D13*
X66040000Y-50800000D03*
%TD*%
%TO.C,C2*%
G36*
G01*
X70882500Y-69286000D02*
X71357500Y-69286000D01*
G75*
G02*
X71595000Y-69523500I0J-237500D01*
G01*
X71595000Y-70123500D01*
G75*
G02*
X71357500Y-70361000I-237500J0D01*
G01*
X70882500Y-70361000D01*
G75*
G02*
X70645000Y-70123500I0J237500D01*
G01*
X70645000Y-69523500D01*
G75*
G02*
X70882500Y-69286000I237500J0D01*
G01*
G37*
G36*
G01*
X70882500Y-67561000D02*
X71357500Y-67561000D01*
G75*
G02*
X71595000Y-67798500I0J-237500D01*
G01*
X71595000Y-68398500D01*
G75*
G02*
X71357500Y-68636000I-237500J0D01*
G01*
X70882500Y-68636000D01*
G75*
G02*
X70645000Y-68398500I0J237500D01*
G01*
X70645000Y-67798500D01*
G75*
G02*
X70882500Y-67561000I237500J0D01*
G01*
G37*
%TD*%
%TO.C,C3*%
G36*
G01*
X65802500Y-67561000D02*
X66277500Y-67561000D01*
G75*
G02*
X66515000Y-67798500I0J-237500D01*
G01*
X66515000Y-68398500D01*
G75*
G02*
X66277500Y-68636000I-237500J0D01*
G01*
X65802500Y-68636000D01*
G75*
G02*
X65565000Y-68398500I0J237500D01*
G01*
X65565000Y-67798500D01*
G75*
G02*
X65802500Y-67561000I237500J0D01*
G01*
G37*
G36*
G01*
X65802500Y-69286000D02*
X66277500Y-69286000D01*
G75*
G02*
X66515000Y-69523500I0J-237500D01*
G01*
X66515000Y-70123500D01*
G75*
G02*
X66277500Y-70361000I-237500J0D01*
G01*
X65802500Y-70361000D01*
G75*
G02*
X65565000Y-70123500I0J237500D01*
G01*
X65565000Y-69523500D01*
G75*
G02*
X65802500Y-69286000I237500J0D01*
G01*
G37*
%TD*%
%TO.C,C4*%
X82550000Y-50800000D03*
D12*
X82550000Y-48300000D03*
%TD*%
%TO.C,C5*%
G36*
G01*
X87392500Y-69286000D02*
X87867500Y-69286000D01*
G75*
G02*
X88105000Y-69523500I0J-237500D01*
G01*
X88105000Y-70123500D01*
G75*
G02*
X87867500Y-70361000I-237500J0D01*
G01*
X87392500Y-70361000D01*
G75*
G02*
X87155000Y-70123500I0J237500D01*
G01*
X87155000Y-69523500D01*
G75*
G02*
X87392500Y-69286000I237500J0D01*
G01*
G37*
G36*
G01*
X87392500Y-67561000D02*
X87867500Y-67561000D01*
G75*
G02*
X88105000Y-67798500I0J-237500D01*
G01*
X88105000Y-68398500D01*
G75*
G02*
X87867500Y-68636000I-237500J0D01*
G01*
X87392500Y-68636000D01*
G75*
G02*
X87155000Y-68398500I0J237500D01*
G01*
X87155000Y-67798500D01*
G75*
G02*
X87392500Y-67561000I237500J0D01*
G01*
G37*
%TD*%
%TO.C,C6*%
G36*
G01*
X92472500Y-67561000D02*
X92947500Y-67561000D01*
G75*
G02*
X93185000Y-67798500I0J-237500D01*
G01*
X93185000Y-68398500D01*
G75*
G02*
X92947500Y-68636000I-237500J0D01*
G01*
X92472500Y-68636000D01*
G75*
G02*
X92235000Y-68398500I0J237500D01*
G01*
X92235000Y-67798500D01*
G75*
G02*
X92472500Y-67561000I237500J0D01*
G01*
G37*
G36*
G01*
X92472500Y-69286000D02*
X92947500Y-69286000D01*
G75*
G02*
X93185000Y-69523500I0J-237500D01*
G01*
X93185000Y-70123500D01*
G75*
G02*
X92947500Y-70361000I-237500J0D01*
G01*
X92472500Y-70361000D01*
G75*
G02*
X92235000Y-70123500I0J237500D01*
G01*
X92235000Y-69523500D01*
G75*
G02*
X92472500Y-69286000I237500J0D01*
G01*
G37*
%TD*%
%TO.C,C7*%
G36*
G01*
X115586500Y-50125000D02*
X116061500Y-50125000D01*
G75*
G02*
X116299000Y-50362500I0J-237500D01*
G01*
X116299000Y-50962500D01*
G75*
G02*
X116061500Y-51200000I-237500J0D01*
G01*
X115586500Y-51200000D01*
G75*
G02*
X115349000Y-50962500I0J237500D01*
G01*
X115349000Y-50362500D01*
G75*
G02*
X115586500Y-50125000I237500J0D01*
G01*
G37*
G36*
G01*
X115586500Y-51850000D02*
X116061500Y-51850000D01*
G75*
G02*
X116299000Y-52087500I0J-237500D01*
G01*
X116299000Y-52687500D01*
G75*
G02*
X116061500Y-52925000I-237500J0D01*
G01*
X115586500Y-52925000D01*
G75*
G02*
X115349000Y-52687500I0J237500D01*
G01*
X115349000Y-52087500D01*
G75*
G02*
X115586500Y-51850000I237500J0D01*
G01*
G37*
%TD*%
%TO.C,C8*%
G36*
G01*
X118253500Y-51823500D02*
X118728500Y-51823500D01*
G75*
G02*
X118966000Y-52061000I0J-237500D01*
G01*
X118966000Y-52661000D01*
G75*
G02*
X118728500Y-52898500I-237500J0D01*
G01*
X118253500Y-52898500D01*
G75*
G02*
X118016000Y-52661000I0J237500D01*
G01*
X118016000Y-52061000D01*
G75*
G02*
X118253500Y-51823500I237500J0D01*
G01*
G37*
G36*
G01*
X118253500Y-50098500D02*
X118728500Y-50098500D01*
G75*
G02*
X118966000Y-50336000I0J-237500D01*
G01*
X118966000Y-50936000D01*
G75*
G02*
X118728500Y-51173500I-237500J0D01*
G01*
X118253500Y-51173500D01*
G75*
G02*
X118016000Y-50936000I0J237500D01*
G01*
X118016000Y-50336000D01*
G75*
G02*
X118253500Y-50098500I237500J0D01*
G01*
G37*
%TD*%
%TO.C,C9*%
G36*
G01*
X121527860Y-56843920D02*
X121527860Y-57318920D01*
G75*
G02*
X121290360Y-57556420I-237500J0D01*
G01*
X120690360Y-57556420D01*
G75*
G02*
X120452860Y-57318920I0J237500D01*
G01*
X120452860Y-56843920D01*
G75*
G02*
X120690360Y-56606420I237500J0D01*
G01*
X121290360Y-56606420D01*
G75*
G02*
X121527860Y-56843920I0J-237500D01*
G01*
G37*
G36*
G01*
X123252860Y-56843920D02*
X123252860Y-57318920D01*
G75*
G02*
X123015360Y-57556420I-237500J0D01*
G01*
X122415360Y-57556420D01*
G75*
G02*
X122177860Y-57318920I0J237500D01*
G01*
X122177860Y-56843920D01*
G75*
G02*
X122415360Y-56606420I237500J0D01*
G01*
X123015360Y-56606420D01*
G75*
G02*
X123252860Y-56843920I0J-237500D01*
G01*
G37*
%TD*%
%TO.C,C10*%
G36*
G01*
X113267500Y-51184000D02*
X112792500Y-51184000D01*
G75*
G02*
X112555000Y-50946500I0J237500D01*
G01*
X112555000Y-50346500D01*
G75*
G02*
X112792500Y-50109000I237500J0D01*
G01*
X113267500Y-50109000D01*
G75*
G02*
X113505000Y-50346500I0J-237500D01*
G01*
X113505000Y-50946500D01*
G75*
G02*
X113267500Y-51184000I-237500J0D01*
G01*
G37*
G36*
G01*
X113267500Y-49459000D02*
X112792500Y-49459000D01*
G75*
G02*
X112555000Y-49221500I0J237500D01*
G01*
X112555000Y-48621500D01*
G75*
G02*
X112792500Y-48384000I237500J0D01*
G01*
X113267500Y-48384000D01*
G75*
G02*
X113505000Y-48621500I0J-237500D01*
G01*
X113505000Y-49221500D01*
G75*
G02*
X113267500Y-49459000I-237500J0D01*
G01*
G37*
%TD*%
%TO.C,C11*%
G36*
G01*
X114189500Y-56305500D02*
X114664500Y-56305500D01*
G75*
G02*
X114902000Y-56543000I0J-237500D01*
G01*
X114902000Y-57143000D01*
G75*
G02*
X114664500Y-57380500I-237500J0D01*
G01*
X114189500Y-57380500D01*
G75*
G02*
X113952000Y-57143000I0J237500D01*
G01*
X113952000Y-56543000D01*
G75*
G02*
X114189500Y-56305500I237500J0D01*
G01*
G37*
G36*
G01*
X114189500Y-54580500D02*
X114664500Y-54580500D01*
G75*
G02*
X114902000Y-54818000I0J-237500D01*
G01*
X114902000Y-55418000D01*
G75*
G02*
X114664500Y-55655500I-237500J0D01*
G01*
X114189500Y-55655500D01*
G75*
G02*
X113952000Y-55418000I0J237500D01*
G01*
X113952000Y-54818000D01*
G75*
G02*
X114189500Y-54580500I237500J0D01*
G01*
G37*
%TD*%
%TO.C,C12*%
G36*
G01*
X118243360Y-57465420D02*
X117768360Y-57465420D01*
G75*
G02*
X117530860Y-57227920I0J237500D01*
G01*
X117530860Y-56627920D01*
G75*
G02*
X117768360Y-56390420I237500J0D01*
G01*
X118243360Y-56390420D01*
G75*
G02*
X118480860Y-56627920I0J-237500D01*
G01*
X118480860Y-57227920D01*
G75*
G02*
X118243360Y-57465420I-237500J0D01*
G01*
G37*
G36*
G01*
X118243360Y-55740420D02*
X117768360Y-55740420D01*
G75*
G02*
X117530860Y-55502920I0J237500D01*
G01*
X117530860Y-54902920D01*
G75*
G02*
X117768360Y-54665420I237500J0D01*
G01*
X118243360Y-54665420D01*
G75*
G02*
X118480860Y-54902920I0J-237500D01*
G01*
X118480860Y-55502920D01*
G75*
G02*
X118243360Y-55740420I-237500J0D01*
G01*
G37*
%TD*%
%TO.C,C13*%
G36*
G01*
X120479360Y-52365920D02*
X120479360Y-51890920D01*
G75*
G02*
X120716860Y-51653420I237500J0D01*
G01*
X121316860Y-51653420D01*
G75*
G02*
X121554360Y-51890920I0J-237500D01*
G01*
X121554360Y-52365920D01*
G75*
G02*
X121316860Y-52603420I-237500J0D01*
G01*
X120716860Y-52603420D01*
G75*
G02*
X120479360Y-52365920I0J237500D01*
G01*
G37*
G36*
G01*
X122204360Y-52365920D02*
X122204360Y-51890920D01*
G75*
G02*
X122441860Y-51653420I237500J0D01*
G01*
X123041860Y-51653420D01*
G75*
G02*
X123279360Y-51890920I0J-237500D01*
G01*
X123279360Y-52365920D01*
G75*
G02*
X123041860Y-52603420I-237500J0D01*
G01*
X122441860Y-52603420D01*
G75*
G02*
X122204360Y-52365920I0J237500D01*
G01*
G37*
%TD*%
%TO.C,C14*%
G36*
G01*
X122204360Y-54778920D02*
X122204360Y-54303920D01*
G75*
G02*
X122441860Y-54066420I237500J0D01*
G01*
X123041860Y-54066420D01*
G75*
G02*
X123279360Y-54303920I0J-237500D01*
G01*
X123279360Y-54778920D01*
G75*
G02*
X123041860Y-55016420I-237500J0D01*
G01*
X122441860Y-55016420D01*
G75*
G02*
X122204360Y-54778920I0J237500D01*
G01*
G37*
G36*
G01*
X120479360Y-54778920D02*
X120479360Y-54303920D01*
G75*
G02*
X120716860Y-54066420I237500J0D01*
G01*
X121316860Y-54066420D01*
G75*
G02*
X121554360Y-54303920I0J-237500D01*
G01*
X121554360Y-54778920D01*
G75*
G02*
X121316860Y-55016420I-237500J0D01*
G01*
X120716860Y-55016420D01*
G75*
G02*
X120479360Y-54778920I0J237500D01*
G01*
G37*
%TD*%
D14*
%TO.C,Conn1*%
X50825400Y-56134000D03*
X50825400Y-48260000D03*
%TD*%
%TO.C,D1*%
G36*
G01*
X94217500Y-87280000D02*
X93742500Y-87280000D01*
G75*
G02*
X93505000Y-87042500I0J237500D01*
G01*
X93505000Y-86467500D01*
G75*
G02*
X93742500Y-86230000I237500J0D01*
G01*
X94217500Y-86230000D01*
G75*
G02*
X94455000Y-86467500I0J-237500D01*
G01*
X94455000Y-87042500D01*
G75*
G02*
X94217500Y-87280000I-237500J0D01*
G01*
G37*
G36*
G01*
X94217500Y-89030000D02*
X93742500Y-89030000D01*
G75*
G02*
X93505000Y-88792500I0J237500D01*
G01*
X93505000Y-88217500D01*
G75*
G02*
X93742500Y-87980000I237500J0D01*
G01*
X94217500Y-87980000D01*
G75*
G02*
X94455000Y-88217500I0J-237500D01*
G01*
X94455000Y-88792500D01*
G75*
G02*
X94217500Y-89030000I-237500J0D01*
G01*
G37*
%TD*%
%TO.C,D2*%
G36*
G01*
X98027500Y-89030000D02*
X97552500Y-89030000D01*
G75*
G02*
X97315000Y-88792500I0J237500D01*
G01*
X97315000Y-88217500D01*
G75*
G02*
X97552500Y-87980000I237500J0D01*
G01*
X98027500Y-87980000D01*
G75*
G02*
X98265000Y-88217500I0J-237500D01*
G01*
X98265000Y-88792500D01*
G75*
G02*
X98027500Y-89030000I-237500J0D01*
G01*
G37*
G36*
G01*
X98027500Y-87280000D02*
X97552500Y-87280000D01*
G75*
G02*
X97315000Y-87042500I0J237500D01*
G01*
X97315000Y-86467500D01*
G75*
G02*
X97552500Y-86230000I237500J0D01*
G01*
X98027500Y-86230000D01*
G75*
G02*
X98265000Y-86467500I0J-237500D01*
G01*
X98265000Y-87042500D01*
G75*
G02*
X98027500Y-87280000I-237500J0D01*
G01*
G37*
%TD*%
%TO.C,D3*%
G36*
G01*
X101837500Y-89030000D02*
X101362500Y-89030000D01*
G75*
G02*
X101125000Y-88792500I0J237500D01*
G01*
X101125000Y-88217500D01*
G75*
G02*
X101362500Y-87980000I237500J0D01*
G01*
X101837500Y-87980000D01*
G75*
G02*
X102075000Y-88217500I0J-237500D01*
G01*
X102075000Y-88792500D01*
G75*
G02*
X101837500Y-89030000I-237500J0D01*
G01*
G37*
G36*
G01*
X101837500Y-87280000D02*
X101362500Y-87280000D01*
G75*
G02*
X101125000Y-87042500I0J237500D01*
G01*
X101125000Y-86467500D01*
G75*
G02*
X101362500Y-86230000I237500J0D01*
G01*
X101837500Y-86230000D01*
G75*
G02*
X102075000Y-86467500I0J-237500D01*
G01*
X102075000Y-87042500D01*
G75*
G02*
X101837500Y-87280000I-237500J0D01*
G01*
G37*
%TD*%
%TO.C,D4*%
G36*
G01*
X105647500Y-87280000D02*
X105172500Y-87280000D01*
G75*
G02*
X104935000Y-87042500I0J237500D01*
G01*
X104935000Y-86467500D01*
G75*
G02*
X105172500Y-86230000I237500J0D01*
G01*
X105647500Y-86230000D01*
G75*
G02*
X105885000Y-86467500I0J-237500D01*
G01*
X105885000Y-87042500D01*
G75*
G02*
X105647500Y-87280000I-237500J0D01*
G01*
G37*
G36*
G01*
X105647500Y-89030000D02*
X105172500Y-89030000D01*
G75*
G02*
X104935000Y-88792500I0J237500D01*
G01*
X104935000Y-88217500D01*
G75*
G02*
X105172500Y-87980000I237500J0D01*
G01*
X105647500Y-87980000D01*
G75*
G02*
X105885000Y-88217500I0J-237500D01*
G01*
X105885000Y-88792500D01*
G75*
G02*
X105647500Y-89030000I-237500J0D01*
G01*
G37*
%TD*%
%TO.C,D5*%
G36*
G01*
X109457500Y-87280000D02*
X108982500Y-87280000D01*
G75*
G02*
X108745000Y-87042500I0J237500D01*
G01*
X108745000Y-86467500D01*
G75*
G02*
X108982500Y-86230000I237500J0D01*
G01*
X109457500Y-86230000D01*
G75*
G02*
X109695000Y-86467500I0J-237500D01*
G01*
X109695000Y-87042500D01*
G75*
G02*
X109457500Y-87280000I-237500J0D01*
G01*
G37*
G36*
G01*
X109457500Y-89030000D02*
X108982500Y-89030000D01*
G75*
G02*
X108745000Y-88792500I0J237500D01*
G01*
X108745000Y-88217500D01*
G75*
G02*
X108982500Y-87980000I237500J0D01*
G01*
X109457500Y-87980000D01*
G75*
G02*
X109695000Y-88217500I0J-237500D01*
G01*
X109695000Y-88792500D01*
G75*
G02*
X109457500Y-89030000I-237500J0D01*
G01*
G37*
%TD*%
%TO.C,D6*%
G36*
G01*
X113267500Y-89030000D02*
X112792500Y-89030000D01*
G75*
G02*
X112555000Y-88792500I0J237500D01*
G01*
X112555000Y-88217500D01*
G75*
G02*
X112792500Y-87980000I237500J0D01*
G01*
X113267500Y-87980000D01*
G75*
G02*
X113505000Y-88217500I0J-237500D01*
G01*
X113505000Y-88792500D01*
G75*
G02*
X113267500Y-89030000I-237500J0D01*
G01*
G37*
G36*
G01*
X113267500Y-87280000D02*
X112792500Y-87280000D01*
G75*
G02*
X112555000Y-87042500I0J237500D01*
G01*
X112555000Y-86467500D01*
G75*
G02*
X112792500Y-86230000I237500J0D01*
G01*
X113267500Y-86230000D01*
G75*
G02*
X113505000Y-86467500I0J-237500D01*
G01*
X113505000Y-87042500D01*
G75*
G02*
X113267500Y-87280000I-237500J0D01*
G01*
G37*
%TD*%
%TO.C,D7*%
G36*
G01*
X117077500Y-89030000D02*
X116602500Y-89030000D01*
G75*
G02*
X116365000Y-88792500I0J237500D01*
G01*
X116365000Y-88217500D01*
G75*
G02*
X116602500Y-87980000I237500J0D01*
G01*
X117077500Y-87980000D01*
G75*
G02*
X117315000Y-88217500I0J-237500D01*
G01*
X117315000Y-88792500D01*
G75*
G02*
X117077500Y-89030000I-237500J0D01*
G01*
G37*
G36*
G01*
X117077500Y-87280000D02*
X116602500Y-87280000D01*
G75*
G02*
X116365000Y-87042500I0J237500D01*
G01*
X116365000Y-86467500D01*
G75*
G02*
X116602500Y-86230000I237500J0D01*
G01*
X117077500Y-86230000D01*
G75*
G02*
X117315000Y-86467500I0J-237500D01*
G01*
X117315000Y-87042500D01*
G75*
G02*
X117077500Y-87280000I-237500J0D01*
G01*
G37*
%TD*%
%TO.C,D8*%
G36*
G01*
X120887500Y-87280000D02*
X120412500Y-87280000D01*
G75*
G02*
X120175000Y-87042500I0J237500D01*
G01*
X120175000Y-86467500D01*
G75*
G02*
X120412500Y-86230000I237500J0D01*
G01*
X120887500Y-86230000D01*
G75*
G02*
X121125000Y-86467500I0J-237500D01*
G01*
X121125000Y-87042500D01*
G75*
G02*
X120887500Y-87280000I-237500J0D01*
G01*
G37*
G36*
G01*
X120887500Y-89030000D02*
X120412500Y-89030000D01*
G75*
G02*
X120175000Y-88792500I0J237500D01*
G01*
X120175000Y-88217500D01*
G75*
G02*
X120412500Y-87980000I237500J0D01*
G01*
X120887500Y-87980000D01*
G75*
G02*
X121125000Y-88217500I0J-237500D01*
G01*
X121125000Y-88792500D01*
G75*
G02*
X120887500Y-89030000I-237500J0D01*
G01*
G37*
%TD*%
%TO.C,D9*%
G36*
G01*
X124697500Y-89030000D02*
X124222500Y-89030000D01*
G75*
G02*
X123985000Y-88792500I0J237500D01*
G01*
X123985000Y-88217500D01*
G75*
G02*
X124222500Y-87980000I237500J0D01*
G01*
X124697500Y-87980000D01*
G75*
G02*
X124935000Y-88217500I0J-237500D01*
G01*
X124935000Y-88792500D01*
G75*
G02*
X124697500Y-89030000I-237500J0D01*
G01*
G37*
G36*
G01*
X124697500Y-87280000D02*
X124222500Y-87280000D01*
G75*
G02*
X123985000Y-87042500I0J237500D01*
G01*
X123985000Y-86467500D01*
G75*
G02*
X124222500Y-86230000I237500J0D01*
G01*
X124697500Y-86230000D01*
G75*
G02*
X124935000Y-86467500I0J-237500D01*
G01*
X124935000Y-87042500D01*
G75*
G02*
X124697500Y-87280000I-237500J0D01*
G01*
G37*
%TD*%
%TO.C,D10*%
G36*
G01*
X128507500Y-87280000D02*
X128032500Y-87280000D01*
G75*
G02*
X127795000Y-87042500I0J237500D01*
G01*
X127795000Y-86467500D01*
G75*
G02*
X128032500Y-86230000I237500J0D01*
G01*
X128507500Y-86230000D01*
G75*
G02*
X128745000Y-86467500I0J-237500D01*
G01*
X128745000Y-87042500D01*
G75*
G02*
X128507500Y-87280000I-237500J0D01*
G01*
G37*
G36*
G01*
X128507500Y-89030000D02*
X128032500Y-89030000D01*
G75*
G02*
X127795000Y-88792500I0J237500D01*
G01*
X127795000Y-88217500D01*
G75*
G02*
X128032500Y-87980000I237500J0D01*
G01*
X128507500Y-87980000D01*
G75*
G02*
X128745000Y-88217500I0J-237500D01*
G01*
X128745000Y-88792500D01*
G75*
G02*
X128507500Y-89030000I-237500J0D01*
G01*
G37*
%TD*%
D11*
%TO.C,J1*%
X43686000Y-85226000D03*
X43686000Y-74526000D03*
G36*
G01*
X48766000Y-88126000D02*
X47246000Y-88126000D01*
G75*
G02*
X46996000Y-87876000I0J250000D01*
G01*
X46996000Y-86876000D01*
G75*
G02*
X47246000Y-86626000I250000J0D01*
G01*
X48766000Y-86626000D01*
G75*
G02*
X49016000Y-86876000I0J-250000D01*
G01*
X49016000Y-87876000D01*
G75*
G02*
X48766000Y-88126000I-250000J0D01*
G01*
G37*
D15*
X48006000Y-84376000D03*
X48006000Y-81376000D03*
X48006000Y-78376000D03*
X48006000Y-75376000D03*
X48006000Y-72376000D03*
%TD*%
%TO.C,R1*%
G36*
G01*
X93742500Y-82975000D02*
X94217500Y-82975000D01*
G75*
G02*
X94455000Y-83212500I0J-237500D01*
G01*
X94455000Y-83712500D01*
G75*
G02*
X94217500Y-83950000I-237500J0D01*
G01*
X93742500Y-83950000D01*
G75*
G02*
X93505000Y-83712500I0J237500D01*
G01*
X93505000Y-83212500D01*
G75*
G02*
X93742500Y-82975000I237500J0D01*
G01*
G37*
G36*
G01*
X93742500Y-81150000D02*
X94217500Y-81150000D01*
G75*
G02*
X94455000Y-81387500I0J-237500D01*
G01*
X94455000Y-81887500D01*
G75*
G02*
X94217500Y-82125000I-237500J0D01*
G01*
X93742500Y-82125000D01*
G75*
G02*
X93505000Y-81887500I0J237500D01*
G01*
X93505000Y-81387500D01*
G75*
G02*
X93742500Y-81150000I237500J0D01*
G01*
G37*
%TD*%
%TO.C,R2*%
G36*
G01*
X97552500Y-81150000D02*
X98027500Y-81150000D01*
G75*
G02*
X98265000Y-81387500I0J-237500D01*
G01*
X98265000Y-81887500D01*
G75*
G02*
X98027500Y-82125000I-237500J0D01*
G01*
X97552500Y-82125000D01*
G75*
G02*
X97315000Y-81887500I0J237500D01*
G01*
X97315000Y-81387500D01*
G75*
G02*
X97552500Y-81150000I237500J0D01*
G01*
G37*
G36*
G01*
X97552500Y-82975000D02*
X98027500Y-82975000D01*
G75*
G02*
X98265000Y-83212500I0J-237500D01*
G01*
X98265000Y-83712500D01*
G75*
G02*
X98027500Y-83950000I-237500J0D01*
G01*
X97552500Y-83950000D01*
G75*
G02*
X97315000Y-83712500I0J237500D01*
G01*
X97315000Y-83212500D01*
G75*
G02*
X97552500Y-82975000I237500J0D01*
G01*
G37*
%TD*%
%TO.C,R3*%
G36*
G01*
X101362500Y-81150000D02*
X101837500Y-81150000D01*
G75*
G02*
X102075000Y-81387500I0J-237500D01*
G01*
X102075000Y-81887500D01*
G75*
G02*
X101837500Y-82125000I-237500J0D01*
G01*
X101362500Y-82125000D01*
G75*
G02*
X101125000Y-81887500I0J237500D01*
G01*
X101125000Y-81387500D01*
G75*
G02*
X101362500Y-81150000I237500J0D01*
G01*
G37*
G36*
G01*
X101362500Y-82975000D02*
X101837500Y-82975000D01*
G75*
G02*
X102075000Y-83212500I0J-237500D01*
G01*
X102075000Y-83712500D01*
G75*
G02*
X101837500Y-83950000I-237500J0D01*
G01*
X101362500Y-83950000D01*
G75*
G02*
X101125000Y-83712500I0J237500D01*
G01*
X101125000Y-83212500D01*
G75*
G02*
X101362500Y-82975000I237500J0D01*
G01*
G37*
%TD*%
%TO.C,R4*%
G36*
G01*
X105172500Y-81150000D02*
X105647500Y-81150000D01*
G75*
G02*
X105885000Y-81387500I0J-237500D01*
G01*
X105885000Y-81887500D01*
G75*
G02*
X105647500Y-82125000I-237500J0D01*
G01*
X105172500Y-82125000D01*
G75*
G02*
X104935000Y-81887500I0J237500D01*
G01*
X104935000Y-81387500D01*
G75*
G02*
X105172500Y-81150000I237500J0D01*
G01*
G37*
G36*
G01*
X105172500Y-82975000D02*
X105647500Y-82975000D01*
G75*
G02*
X105885000Y-83212500I0J-237500D01*
G01*
X105885000Y-83712500D01*
G75*
G02*
X105647500Y-83950000I-237500J0D01*
G01*
X105172500Y-83950000D01*
G75*
G02*
X104935000Y-83712500I0J237500D01*
G01*
X104935000Y-83212500D01*
G75*
G02*
X105172500Y-82975000I237500J0D01*
G01*
G37*
%TD*%
%TO.C,R5*%
G36*
G01*
X108982500Y-81150000D02*
X109457500Y-81150000D01*
G75*
G02*
X109695000Y-81387500I0J-237500D01*
G01*
X109695000Y-81887500D01*
G75*
G02*
X109457500Y-82125000I-237500J0D01*
G01*
X108982500Y-82125000D01*
G75*
G02*
X108745000Y-81887500I0J237500D01*
G01*
X108745000Y-81387500D01*
G75*
G02*
X108982500Y-81150000I237500J0D01*
G01*
G37*
G36*
G01*
X108982500Y-82975000D02*
X109457500Y-82975000D01*
G75*
G02*
X109695000Y-83212500I0J-237500D01*
G01*
X109695000Y-83712500D01*
G75*
G02*
X109457500Y-83950000I-237500J0D01*
G01*
X108982500Y-83950000D01*
G75*
G02*
X108745000Y-83712500I0J237500D01*
G01*
X108745000Y-83212500D01*
G75*
G02*
X108982500Y-82975000I237500J0D01*
G01*
G37*
%TD*%
%TO.C,R6*%
G36*
G01*
X112792500Y-82975000D02*
X113267500Y-82975000D01*
G75*
G02*
X113505000Y-83212500I0J-237500D01*
G01*
X113505000Y-83712500D01*
G75*
G02*
X113267500Y-83950000I-237500J0D01*
G01*
X112792500Y-83950000D01*
G75*
G02*
X112555000Y-83712500I0J237500D01*
G01*
X112555000Y-83212500D01*
G75*
G02*
X112792500Y-82975000I237500J0D01*
G01*
G37*
G36*
G01*
X112792500Y-81150000D02*
X113267500Y-81150000D01*
G75*
G02*
X113505000Y-81387500I0J-237500D01*
G01*
X113505000Y-81887500D01*
G75*
G02*
X113267500Y-82125000I-237500J0D01*
G01*
X112792500Y-82125000D01*
G75*
G02*
X112555000Y-81887500I0J237500D01*
G01*
X112555000Y-81387500D01*
G75*
G02*
X112792500Y-81150000I237500J0D01*
G01*
G37*
%TD*%
%TO.C,R7*%
G36*
G01*
X116602500Y-82975000D02*
X117077500Y-82975000D01*
G75*
G02*
X117315000Y-83212500I0J-237500D01*
G01*
X117315000Y-83712500D01*
G75*
G02*
X117077500Y-83950000I-237500J0D01*
G01*
X116602500Y-83950000D01*
G75*
G02*
X116365000Y-83712500I0J237500D01*
G01*
X116365000Y-83212500D01*
G75*
G02*
X116602500Y-82975000I237500J0D01*
G01*
G37*
G36*
G01*
X116602500Y-81150000D02*
X117077500Y-81150000D01*
G75*
G02*
X117315000Y-81387500I0J-237500D01*
G01*
X117315000Y-81887500D01*
G75*
G02*
X117077500Y-82125000I-237500J0D01*
G01*
X116602500Y-82125000D01*
G75*
G02*
X116365000Y-81887500I0J237500D01*
G01*
X116365000Y-81387500D01*
G75*
G02*
X116602500Y-81150000I237500J0D01*
G01*
G37*
%TD*%
%TO.C,R8*%
G36*
G01*
X120412500Y-81150000D02*
X120887500Y-81150000D01*
G75*
G02*
X121125000Y-81387500I0J-237500D01*
G01*
X121125000Y-81887500D01*
G75*
G02*
X120887500Y-82125000I-237500J0D01*
G01*
X120412500Y-82125000D01*
G75*
G02*
X120175000Y-81887500I0J237500D01*
G01*
X120175000Y-81387500D01*
G75*
G02*
X120412500Y-81150000I237500J0D01*
G01*
G37*
G36*
G01*
X120412500Y-82975000D02*
X120887500Y-82975000D01*
G75*
G02*
X121125000Y-83212500I0J-237500D01*
G01*
X121125000Y-83712500D01*
G75*
G02*
X120887500Y-83950000I-237500J0D01*
G01*
X120412500Y-83950000D01*
G75*
G02*
X120175000Y-83712500I0J237500D01*
G01*
X120175000Y-83212500D01*
G75*
G02*
X120412500Y-82975000I237500J0D01*
G01*
G37*
%TD*%
%TO.C,R9*%
G36*
G01*
X124222500Y-82975000D02*
X124697500Y-82975000D01*
G75*
G02*
X124935000Y-83212500I0J-237500D01*
G01*
X124935000Y-83712500D01*
G75*
G02*
X124697500Y-83950000I-237500J0D01*
G01*
X124222500Y-83950000D01*
G75*
G02*
X123985000Y-83712500I0J237500D01*
G01*
X123985000Y-83212500D01*
G75*
G02*
X124222500Y-82975000I237500J0D01*
G01*
G37*
G36*
G01*
X124222500Y-81150000D02*
X124697500Y-81150000D01*
G75*
G02*
X124935000Y-81387500I0J-237500D01*
G01*
X124935000Y-81887500D01*
G75*
G02*
X124697500Y-82125000I-237500J0D01*
G01*
X124222500Y-82125000D01*
G75*
G02*
X123985000Y-81887500I0J237500D01*
G01*
X123985000Y-81387500D01*
G75*
G02*
X124222500Y-81150000I237500J0D01*
G01*
G37*
%TD*%
%TO.C,R10*%
G36*
G01*
X128032500Y-82975000D02*
X128507500Y-82975000D01*
G75*
G02*
X128745000Y-83212500I0J-237500D01*
G01*
X128745000Y-83712500D01*
G75*
G02*
X128507500Y-83950000I-237500J0D01*
G01*
X128032500Y-83950000D01*
G75*
G02*
X127795000Y-83712500I0J237500D01*
G01*
X127795000Y-83212500D01*
G75*
G02*
X128032500Y-82975000I237500J0D01*
G01*
G37*
G36*
G01*
X128032500Y-81150000D02*
X128507500Y-81150000D01*
G75*
G02*
X128745000Y-81387500I0J-237500D01*
G01*
X128745000Y-81887500D01*
G75*
G02*
X128507500Y-82125000I-237500J0D01*
G01*
X128032500Y-82125000D01*
G75*
G02*
X127795000Y-81887500I0J237500D01*
G01*
X127795000Y-81387500D01*
G75*
G02*
X128032500Y-81150000I237500J0D01*
G01*
G37*
%TD*%
D16*
%TO.C,U1*%
X71120000Y-63500000D03*
X71120000Y-60960000D03*
X71120000Y-58420000D03*
%TD*%
D17*
%TO.C,U2*%
X121705859Y-62018421D03*
D18*
X121642359Y-61618419D03*
X121642359Y-61218420D03*
X121642359Y-60818420D03*
X121642359Y-60418421D03*
D17*
X121705859Y-60018419D03*
D19*
X121372360Y-59684920D03*
D20*
X120972358Y-59748420D03*
X120572359Y-59748420D03*
X120172359Y-59748420D03*
X119772360Y-59748420D03*
D19*
X119372358Y-59684920D03*
D17*
X119038859Y-60018419D03*
D18*
X119102359Y-60418421D03*
X119102359Y-60818420D03*
X119102359Y-61218420D03*
X119102359Y-61618419D03*
D17*
X119038859Y-62018421D03*
D19*
X119372358Y-62351920D03*
D20*
X119772360Y-62288420D03*
X120172359Y-62288420D03*
X120572359Y-62288420D03*
X120972358Y-62288420D03*
D19*
X121372360Y-62351920D03*
%TD*%
D21*
%TO.C,U3*%
X111236000Y-53350000D03*
X110736000Y-53350000D03*
X110236000Y-53350000D03*
X109736000Y-53350000D03*
X109236000Y-53350000D03*
D22*
X108976000Y-54110000D03*
X108976000Y-54610000D03*
X108976000Y-55110000D03*
D21*
X109236000Y-55870000D03*
X109736000Y-55870000D03*
X110236000Y-55870000D03*
X110736000Y-55870000D03*
X111236000Y-55870000D03*
D22*
X111496000Y-55110000D03*
X111496000Y-54610000D03*
X111496000Y-54110000D03*
%TD*%
D16*
%TO.C,U4*%
X92710000Y-58420000D03*
X92710000Y-60960000D03*
X92710000Y-63500000D03*
%TD*%
M02*
