%TF.GenerationSoftware,KiCad,Pcbnew,(5.1.10)-1*%
%TF.CreationDate,2021-11-15T22:54:34-06:00*%
%TF.ProjectId,NavBoard_Hardware,4e617642-6f61-4726-945f-486172647761,rev?*%
%TF.SameCoordinates,Original*%
%TF.FileFunction,Legend,Top*%
%TF.FilePolarity,Positive*%
%FSLAX46Y46*%
G04 Gerber Fmt 4.6, Leading zero omitted, Abs format (unit mm)*
G04 Created by KiCad (PCBNEW (5.1.10)-1) date 2021-11-15 22:54:34*
%MOMM*%
%LPD*%
G01*
G04 APERTURE LIST*
%ADD10C,0.100000*%
%ADD11C,0.120000*%
%ADD12C,0.150000*%
%ADD13C,0.050000*%
%ADD14C,0.127000*%
%ADD15C,0.300000*%
%ADD16C,0.200000*%
%ADD17C,0.304800*%
%ADD18C,0.254000*%
%ADD19C,0.015000*%
G04 APERTURE END LIST*
D10*
%TO.C,AC1*%
X122169000Y-57826600D02*
X121369000Y-57826600D01*
X121369000Y-63026600D02*
X122169000Y-63026600D01*
X124369000Y-63026600D02*
X125169000Y-63026600D01*
X124369000Y-57826600D02*
X125169000Y-57826600D01*
X125469000Y-58126600D02*
X125469000Y-58126600D01*
X125469000Y-58226600D02*
X125469000Y-58226600D01*
X125469000Y-58226600D02*
G75*
G03*
X125469000Y-58126600I0J50000D01*
G01*
X125469000Y-58126600D02*
G75*
G03*
X125469000Y-58226600I0J-50000D01*
G01*
D11*
%TO.C,BT1*%
X58570000Y-44500000D02*
X58570000Y-41200000D01*
X49670000Y-50350000D02*
X58570000Y-44500000D01*
X49670000Y-51150000D02*
X49670000Y-50350000D01*
X49670000Y-51150000D02*
X41770000Y-51150000D01*
X41770000Y-51150000D02*
X41770000Y-50350000D01*
X41770000Y-50350000D02*
X32870000Y-44500000D01*
X32870000Y-44500000D02*
X32870000Y-41200000D01*
X58570000Y-35000000D02*
X58570000Y-30800000D01*
X32870000Y-35000000D02*
X32870000Y-30800000D01*
X36241751Y-28428249D02*
G75*
G03*
X35570000Y-28150000I-671751J-671751D01*
G01*
X55198249Y-28428249D02*
G75*
G02*
X55870000Y-28150000I671751J-671751D01*
G01*
X58570000Y-30850000D02*
G75*
G03*
X55870000Y-28150000I-2700000J0D01*
G01*
X32870000Y-30850000D02*
G75*
G02*
X35570000Y-28150000I2700000J0D01*
G01*
%TO.C,C1*%
X41026000Y-60609241D02*
X41656000Y-60609241D01*
X41341000Y-60924241D02*
X41341000Y-60294241D01*
X42778000Y-54183000D02*
X43582000Y-54183000D01*
X42547000Y-54223000D02*
X43813000Y-54223000D01*
X42378000Y-54263000D02*
X43982000Y-54263000D01*
X42240000Y-54303000D02*
X44120000Y-54303000D01*
X42121000Y-54343000D02*
X44239000Y-54343000D01*
X42015000Y-54383000D02*
X44345000Y-54383000D01*
X41918000Y-54423000D02*
X44442000Y-54423000D01*
X41830000Y-54463000D02*
X44530000Y-54463000D01*
X41748000Y-54503000D02*
X44612000Y-54503000D01*
X41671000Y-54543000D02*
X44689000Y-54543000D01*
X41599000Y-54583000D02*
X44761000Y-54583000D01*
X41530000Y-54623000D02*
X44830000Y-54623000D01*
X41466000Y-54663000D02*
X44894000Y-54663000D01*
X41404000Y-54703000D02*
X44956000Y-54703000D01*
X41346000Y-54743000D02*
X45014000Y-54743000D01*
X41290000Y-54783000D02*
X45070000Y-54783000D01*
X41236000Y-54823000D02*
X45124000Y-54823000D01*
X41185000Y-54863000D02*
X45175000Y-54863000D01*
X41136000Y-54903000D02*
X45224000Y-54903000D01*
X41088000Y-54943000D02*
X45272000Y-54943000D01*
X41043000Y-54983000D02*
X45317000Y-54983000D01*
X40998000Y-55023000D02*
X45362000Y-55023000D01*
X40956000Y-55063000D02*
X45404000Y-55063000D01*
X40915000Y-55103000D02*
X45445000Y-55103000D01*
X44220000Y-55143000D02*
X45485000Y-55143000D01*
X40875000Y-55143000D02*
X42140000Y-55143000D01*
X44220000Y-55183000D02*
X45523000Y-55183000D01*
X40837000Y-55183000D02*
X42140000Y-55183000D01*
X44220000Y-55223000D02*
X45560000Y-55223000D01*
X40800000Y-55223000D02*
X42140000Y-55223000D01*
X44220000Y-55263000D02*
X45596000Y-55263000D01*
X40764000Y-55263000D02*
X42140000Y-55263000D01*
X44220000Y-55303000D02*
X45630000Y-55303000D01*
X40730000Y-55303000D02*
X42140000Y-55303000D01*
X44220000Y-55343000D02*
X45664000Y-55343000D01*
X40696000Y-55343000D02*
X42140000Y-55343000D01*
X44220000Y-55383000D02*
X45696000Y-55383000D01*
X40664000Y-55383000D02*
X42140000Y-55383000D01*
X44220000Y-55423000D02*
X45728000Y-55423000D01*
X40632000Y-55423000D02*
X42140000Y-55423000D01*
X44220000Y-55463000D02*
X45758000Y-55463000D01*
X40602000Y-55463000D02*
X42140000Y-55463000D01*
X44220000Y-55503000D02*
X45787000Y-55503000D01*
X40573000Y-55503000D02*
X42140000Y-55503000D01*
X44220000Y-55543000D02*
X45816000Y-55543000D01*
X40544000Y-55543000D02*
X42140000Y-55543000D01*
X44220000Y-55583000D02*
X45844000Y-55583000D01*
X40516000Y-55583000D02*
X42140000Y-55583000D01*
X44220000Y-55623000D02*
X45870000Y-55623000D01*
X40490000Y-55623000D02*
X42140000Y-55623000D01*
X44220000Y-55663000D02*
X45896000Y-55663000D01*
X40464000Y-55663000D02*
X42140000Y-55663000D01*
X44220000Y-55703000D02*
X45922000Y-55703000D01*
X40438000Y-55703000D02*
X42140000Y-55703000D01*
X44220000Y-55743000D02*
X45946000Y-55743000D01*
X40414000Y-55743000D02*
X42140000Y-55743000D01*
X44220000Y-55783000D02*
X45970000Y-55783000D01*
X40390000Y-55783000D02*
X42140000Y-55783000D01*
X44220000Y-55823000D02*
X45992000Y-55823000D01*
X40368000Y-55823000D02*
X42140000Y-55823000D01*
X44220000Y-55863000D02*
X46014000Y-55863000D01*
X40346000Y-55863000D02*
X42140000Y-55863000D01*
X44220000Y-55903000D02*
X46036000Y-55903000D01*
X40324000Y-55903000D02*
X42140000Y-55903000D01*
X44220000Y-55943000D02*
X46056000Y-55943000D01*
X40304000Y-55943000D02*
X42140000Y-55943000D01*
X44220000Y-55983000D02*
X46076000Y-55983000D01*
X40284000Y-55983000D02*
X42140000Y-55983000D01*
X44220000Y-56023000D02*
X46096000Y-56023000D01*
X40264000Y-56023000D02*
X42140000Y-56023000D01*
X44220000Y-56063000D02*
X46114000Y-56063000D01*
X40246000Y-56063000D02*
X42140000Y-56063000D01*
X44220000Y-56103000D02*
X46132000Y-56103000D01*
X40228000Y-56103000D02*
X42140000Y-56103000D01*
X44220000Y-56143000D02*
X46150000Y-56143000D01*
X40210000Y-56143000D02*
X42140000Y-56143000D01*
X44220000Y-56183000D02*
X46166000Y-56183000D01*
X40194000Y-56183000D02*
X42140000Y-56183000D01*
X44220000Y-56223000D02*
X46182000Y-56223000D01*
X40178000Y-56223000D02*
X42140000Y-56223000D01*
X44220000Y-56263000D02*
X46198000Y-56263000D01*
X40162000Y-56263000D02*
X42140000Y-56263000D01*
X44220000Y-56303000D02*
X46213000Y-56303000D01*
X40147000Y-56303000D02*
X42140000Y-56303000D01*
X44220000Y-56343000D02*
X46227000Y-56343000D01*
X40133000Y-56343000D02*
X42140000Y-56343000D01*
X44220000Y-56383000D02*
X46241000Y-56383000D01*
X40119000Y-56383000D02*
X42140000Y-56383000D01*
X44220000Y-56423000D02*
X46254000Y-56423000D01*
X40106000Y-56423000D02*
X42140000Y-56423000D01*
X44220000Y-56463000D02*
X46266000Y-56463000D01*
X40094000Y-56463000D02*
X42140000Y-56463000D01*
X44220000Y-56503000D02*
X46278000Y-56503000D01*
X40082000Y-56503000D02*
X42140000Y-56503000D01*
X44220000Y-56543000D02*
X46290000Y-56543000D01*
X40070000Y-56543000D02*
X42140000Y-56543000D01*
X44220000Y-56583000D02*
X46301000Y-56583000D01*
X40059000Y-56583000D02*
X42140000Y-56583000D01*
X44220000Y-56623000D02*
X46311000Y-56623000D01*
X40049000Y-56623000D02*
X42140000Y-56623000D01*
X44220000Y-56663000D02*
X46321000Y-56663000D01*
X40039000Y-56663000D02*
X42140000Y-56663000D01*
X44220000Y-56703000D02*
X46330000Y-56703000D01*
X40030000Y-56703000D02*
X42140000Y-56703000D01*
X44220000Y-56744000D02*
X46339000Y-56744000D01*
X40021000Y-56744000D02*
X42140000Y-56744000D01*
X44220000Y-56784000D02*
X46347000Y-56784000D01*
X40013000Y-56784000D02*
X42140000Y-56784000D01*
X44220000Y-56824000D02*
X46355000Y-56824000D01*
X40005000Y-56824000D02*
X42140000Y-56824000D01*
X44220000Y-56864000D02*
X46362000Y-56864000D01*
X39998000Y-56864000D02*
X42140000Y-56864000D01*
X44220000Y-56904000D02*
X46369000Y-56904000D01*
X39991000Y-56904000D02*
X42140000Y-56904000D01*
X44220000Y-56944000D02*
X46375000Y-56944000D01*
X39985000Y-56944000D02*
X42140000Y-56944000D01*
X44220000Y-56984000D02*
X46381000Y-56984000D01*
X39979000Y-56984000D02*
X42140000Y-56984000D01*
X44220000Y-57024000D02*
X46386000Y-57024000D01*
X39974000Y-57024000D02*
X42140000Y-57024000D01*
X44220000Y-57064000D02*
X46391000Y-57064000D01*
X39969000Y-57064000D02*
X42140000Y-57064000D01*
X44220000Y-57104000D02*
X46395000Y-57104000D01*
X39965000Y-57104000D02*
X42140000Y-57104000D01*
X44220000Y-57144000D02*
X46398000Y-57144000D01*
X39962000Y-57144000D02*
X42140000Y-57144000D01*
X44220000Y-57184000D02*
X46402000Y-57184000D01*
X39958000Y-57184000D02*
X42140000Y-57184000D01*
X39956000Y-57224000D02*
X46404000Y-57224000D01*
X39953000Y-57264000D02*
X46407000Y-57264000D01*
X39952000Y-57304000D02*
X46408000Y-57304000D01*
X39950000Y-57344000D02*
X46410000Y-57344000D01*
X39950000Y-57384000D02*
X46410000Y-57384000D01*
X39950000Y-57424000D02*
X46410000Y-57424000D01*
X46450000Y-57424000D02*
G75*
G03*
X46450000Y-57424000I-3270000J0D01*
G01*
%TO.C,C2*%
X71227733Y-61724000D02*
X71520267Y-61724000D01*
X71227733Y-60704000D02*
X71520267Y-60704000D01*
%TO.C,C3*%
X71227733Y-58164000D02*
X71520267Y-58164000D01*
X71227733Y-59184000D02*
X71520267Y-59184000D01*
%TO.C,C4*%
X55340000Y-57424000D02*
G75*
G03*
X55340000Y-57424000I-3270000J0D01*
G01*
X48840000Y-57424000D02*
X55300000Y-57424000D01*
X48840000Y-57384000D02*
X55300000Y-57384000D01*
X48840000Y-57344000D02*
X55300000Y-57344000D01*
X48842000Y-57304000D02*
X55298000Y-57304000D01*
X48843000Y-57264000D02*
X55297000Y-57264000D01*
X48846000Y-57224000D02*
X55294000Y-57224000D01*
X48848000Y-57184000D02*
X51030000Y-57184000D01*
X53110000Y-57184000D02*
X55292000Y-57184000D01*
X48852000Y-57144000D02*
X51030000Y-57144000D01*
X53110000Y-57144000D02*
X55288000Y-57144000D01*
X48855000Y-57104000D02*
X51030000Y-57104000D01*
X53110000Y-57104000D02*
X55285000Y-57104000D01*
X48859000Y-57064000D02*
X51030000Y-57064000D01*
X53110000Y-57064000D02*
X55281000Y-57064000D01*
X48864000Y-57024000D02*
X51030000Y-57024000D01*
X53110000Y-57024000D02*
X55276000Y-57024000D01*
X48869000Y-56984000D02*
X51030000Y-56984000D01*
X53110000Y-56984000D02*
X55271000Y-56984000D01*
X48875000Y-56944000D02*
X51030000Y-56944000D01*
X53110000Y-56944000D02*
X55265000Y-56944000D01*
X48881000Y-56904000D02*
X51030000Y-56904000D01*
X53110000Y-56904000D02*
X55259000Y-56904000D01*
X48888000Y-56864000D02*
X51030000Y-56864000D01*
X53110000Y-56864000D02*
X55252000Y-56864000D01*
X48895000Y-56824000D02*
X51030000Y-56824000D01*
X53110000Y-56824000D02*
X55245000Y-56824000D01*
X48903000Y-56784000D02*
X51030000Y-56784000D01*
X53110000Y-56784000D02*
X55237000Y-56784000D01*
X48911000Y-56744000D02*
X51030000Y-56744000D01*
X53110000Y-56744000D02*
X55229000Y-56744000D01*
X48920000Y-56703000D02*
X51030000Y-56703000D01*
X53110000Y-56703000D02*
X55220000Y-56703000D01*
X48929000Y-56663000D02*
X51030000Y-56663000D01*
X53110000Y-56663000D02*
X55211000Y-56663000D01*
X48939000Y-56623000D02*
X51030000Y-56623000D01*
X53110000Y-56623000D02*
X55201000Y-56623000D01*
X48949000Y-56583000D02*
X51030000Y-56583000D01*
X53110000Y-56583000D02*
X55191000Y-56583000D01*
X48960000Y-56543000D02*
X51030000Y-56543000D01*
X53110000Y-56543000D02*
X55180000Y-56543000D01*
X48972000Y-56503000D02*
X51030000Y-56503000D01*
X53110000Y-56503000D02*
X55168000Y-56503000D01*
X48984000Y-56463000D02*
X51030000Y-56463000D01*
X53110000Y-56463000D02*
X55156000Y-56463000D01*
X48996000Y-56423000D02*
X51030000Y-56423000D01*
X53110000Y-56423000D02*
X55144000Y-56423000D01*
X49009000Y-56383000D02*
X51030000Y-56383000D01*
X53110000Y-56383000D02*
X55131000Y-56383000D01*
X49023000Y-56343000D02*
X51030000Y-56343000D01*
X53110000Y-56343000D02*
X55117000Y-56343000D01*
X49037000Y-56303000D02*
X51030000Y-56303000D01*
X53110000Y-56303000D02*
X55103000Y-56303000D01*
X49052000Y-56263000D02*
X51030000Y-56263000D01*
X53110000Y-56263000D02*
X55088000Y-56263000D01*
X49068000Y-56223000D02*
X51030000Y-56223000D01*
X53110000Y-56223000D02*
X55072000Y-56223000D01*
X49084000Y-56183000D02*
X51030000Y-56183000D01*
X53110000Y-56183000D02*
X55056000Y-56183000D01*
X49100000Y-56143000D02*
X51030000Y-56143000D01*
X53110000Y-56143000D02*
X55040000Y-56143000D01*
X49118000Y-56103000D02*
X51030000Y-56103000D01*
X53110000Y-56103000D02*
X55022000Y-56103000D01*
X49136000Y-56063000D02*
X51030000Y-56063000D01*
X53110000Y-56063000D02*
X55004000Y-56063000D01*
X49154000Y-56023000D02*
X51030000Y-56023000D01*
X53110000Y-56023000D02*
X54986000Y-56023000D01*
X49174000Y-55983000D02*
X51030000Y-55983000D01*
X53110000Y-55983000D02*
X54966000Y-55983000D01*
X49194000Y-55943000D02*
X51030000Y-55943000D01*
X53110000Y-55943000D02*
X54946000Y-55943000D01*
X49214000Y-55903000D02*
X51030000Y-55903000D01*
X53110000Y-55903000D02*
X54926000Y-55903000D01*
X49236000Y-55863000D02*
X51030000Y-55863000D01*
X53110000Y-55863000D02*
X54904000Y-55863000D01*
X49258000Y-55823000D02*
X51030000Y-55823000D01*
X53110000Y-55823000D02*
X54882000Y-55823000D01*
X49280000Y-55783000D02*
X51030000Y-55783000D01*
X53110000Y-55783000D02*
X54860000Y-55783000D01*
X49304000Y-55743000D02*
X51030000Y-55743000D01*
X53110000Y-55743000D02*
X54836000Y-55743000D01*
X49328000Y-55703000D02*
X51030000Y-55703000D01*
X53110000Y-55703000D02*
X54812000Y-55703000D01*
X49354000Y-55663000D02*
X51030000Y-55663000D01*
X53110000Y-55663000D02*
X54786000Y-55663000D01*
X49380000Y-55623000D02*
X51030000Y-55623000D01*
X53110000Y-55623000D02*
X54760000Y-55623000D01*
X49406000Y-55583000D02*
X51030000Y-55583000D01*
X53110000Y-55583000D02*
X54734000Y-55583000D01*
X49434000Y-55543000D02*
X51030000Y-55543000D01*
X53110000Y-55543000D02*
X54706000Y-55543000D01*
X49463000Y-55503000D02*
X51030000Y-55503000D01*
X53110000Y-55503000D02*
X54677000Y-55503000D01*
X49492000Y-55463000D02*
X51030000Y-55463000D01*
X53110000Y-55463000D02*
X54648000Y-55463000D01*
X49522000Y-55423000D02*
X51030000Y-55423000D01*
X53110000Y-55423000D02*
X54618000Y-55423000D01*
X49554000Y-55383000D02*
X51030000Y-55383000D01*
X53110000Y-55383000D02*
X54586000Y-55383000D01*
X49586000Y-55343000D02*
X51030000Y-55343000D01*
X53110000Y-55343000D02*
X54554000Y-55343000D01*
X49620000Y-55303000D02*
X51030000Y-55303000D01*
X53110000Y-55303000D02*
X54520000Y-55303000D01*
X49654000Y-55263000D02*
X51030000Y-55263000D01*
X53110000Y-55263000D02*
X54486000Y-55263000D01*
X49690000Y-55223000D02*
X51030000Y-55223000D01*
X53110000Y-55223000D02*
X54450000Y-55223000D01*
X49727000Y-55183000D02*
X51030000Y-55183000D01*
X53110000Y-55183000D02*
X54413000Y-55183000D01*
X49765000Y-55143000D02*
X51030000Y-55143000D01*
X53110000Y-55143000D02*
X54375000Y-55143000D01*
X49805000Y-55103000D02*
X54335000Y-55103000D01*
X49846000Y-55063000D02*
X54294000Y-55063000D01*
X49888000Y-55023000D02*
X54252000Y-55023000D01*
X49933000Y-54983000D02*
X54207000Y-54983000D01*
X49978000Y-54943000D02*
X54162000Y-54943000D01*
X50026000Y-54903000D02*
X54114000Y-54903000D01*
X50075000Y-54863000D02*
X54065000Y-54863000D01*
X50126000Y-54823000D02*
X54014000Y-54823000D01*
X50180000Y-54783000D02*
X53960000Y-54783000D01*
X50236000Y-54743000D02*
X53904000Y-54743000D01*
X50294000Y-54703000D02*
X53846000Y-54703000D01*
X50356000Y-54663000D02*
X53784000Y-54663000D01*
X50420000Y-54623000D02*
X53720000Y-54623000D01*
X50489000Y-54583000D02*
X53651000Y-54583000D01*
X50561000Y-54543000D02*
X53579000Y-54543000D01*
X50638000Y-54503000D02*
X53502000Y-54503000D01*
X50720000Y-54463000D02*
X53420000Y-54463000D01*
X50808000Y-54423000D02*
X53332000Y-54423000D01*
X50905000Y-54383000D02*
X53235000Y-54383000D01*
X51011000Y-54343000D02*
X53129000Y-54343000D01*
X51130000Y-54303000D02*
X53010000Y-54303000D01*
X51268000Y-54263000D02*
X52872000Y-54263000D01*
X51437000Y-54223000D02*
X52703000Y-54223000D01*
X51668000Y-54183000D02*
X52472000Y-54183000D01*
X50231000Y-60924241D02*
X50231000Y-60294241D01*
X49916000Y-60609241D02*
X50546000Y-60609241D01*
%TO.C,C5*%
X53447733Y-66296000D02*
X53740267Y-66296000D01*
X53447733Y-65276000D02*
X53740267Y-65276000D01*
%TO.C,C6*%
X53447733Y-62736000D02*
X53740267Y-62736000D01*
X53447733Y-63756000D02*
X53740267Y-63756000D01*
%TO.C,C7*%
X114314700Y-54616133D02*
X114314700Y-54908667D01*
X113294700Y-54616133D02*
X113294700Y-54908667D01*
%TO.C,C8*%
X111774700Y-54616133D02*
X111774700Y-54908667D01*
X110754700Y-54616133D02*
X110754700Y-54908667D01*
%TO.C,C9*%
X105302267Y-64645000D02*
X105009733Y-64645000D01*
X105302267Y-63625000D02*
X105009733Y-63625000D01*
%TO.C,C10*%
X103524267Y-49278000D02*
X103231733Y-49278000D01*
X103524267Y-48258000D02*
X103231733Y-48258000D01*
%TO.C,C11*%
X103524267Y-50798000D02*
X103231733Y-50798000D01*
X103524267Y-51818000D02*
X103231733Y-51818000D01*
%TO.C,C12*%
X99007200Y-52914767D02*
X99007200Y-52622233D01*
X100027200Y-52914767D02*
X100027200Y-52622233D01*
%TO.C,C13*%
X62482000Y-31134267D02*
X62482000Y-30841733D01*
X63502000Y-31134267D02*
X63502000Y-30841733D01*
%TO.C,C14*%
X118002267Y-55878000D02*
X117709733Y-55878000D01*
X118002267Y-56898000D02*
X117709733Y-56898000D01*
%TO.C,C15*%
X115822000Y-59455267D02*
X115822000Y-59162733D01*
X116842000Y-59455267D02*
X116842000Y-59162733D01*
%TO.C,C16*%
X119382000Y-59455267D02*
X119382000Y-59162733D01*
X118362000Y-59455267D02*
X118362000Y-59162733D01*
%TO.C,C17*%
X28754800Y-67366933D02*
X28754800Y-67659467D01*
X27734800Y-67366933D02*
X27734800Y-67659467D01*
D12*
%TO.C,Conn1*%
X18440400Y-46863000D02*
X30734000Y-46863000D01*
X6121400Y-46863000D02*
X13868400Y-46863000D01*
X13868400Y-62611000D02*
X6121400Y-62611000D01*
X18440400Y-62611000D02*
X30734000Y-62611000D01*
X17297400Y-54737000D02*
G75*
G03*
X17297400Y-54737000I-1143000J0D01*
G01*
X16154400Y-52451000D02*
X16154400Y-49174400D01*
X18440400Y-54737000D02*
X30734000Y-54737000D01*
X16154400Y-57023000D02*
X16154400Y-60325000D01*
X18440400Y-54737000D02*
X17297400Y-54737000D01*
X16154400Y-52451000D02*
X16154400Y-53594000D01*
X6121400Y-54711600D02*
X15011400Y-54711600D01*
X16154400Y-57023000D02*
X16154400Y-55880000D01*
X16154400Y-48006000D02*
X16154400Y-49174400D01*
X18415000Y-46863000D02*
X17322800Y-46863000D01*
X13843000Y-62611000D02*
X15011400Y-62611000D01*
X16154400Y-60299600D02*
X16154400Y-61468000D01*
X18465800Y-62611000D02*
X17272000Y-62611000D01*
X15011400Y-46863000D02*
X13792200Y-46863000D01*
X30734000Y-46863000D02*
X30734000Y-62611000D01*
X6096000Y-46863000D02*
X6096000Y-62611000D01*
X17272000Y-62611000D02*
G75*
G03*
X16154400Y-61493400I-1117600J0D01*
G01*
X16154400Y-61493400D02*
G75*
G03*
X15036800Y-62611000I0J-1117600D01*
G01*
X16154400Y-48006000D02*
G75*
G03*
X17297400Y-46863000I0J1143000D01*
G01*
X15011400Y-46863000D02*
G75*
G03*
X16154400Y-48006000I1143000J0D01*
G01*
D13*
%TO.C,Conn2*%
X20066000Y-77724000D02*
X20320000Y-70612000D01*
D12*
X19034000Y-70668000D02*
X19034000Y-77668000D01*
X34234000Y-70668000D02*
X19034000Y-70668000D01*
X34234000Y-77668000D02*
X19034000Y-77668000D01*
X34234000Y-77668000D02*
X34234000Y-70668000D01*
X27234000Y-77668000D02*
X34234000Y-77668000D01*
X27234000Y-70668000D02*
X27234000Y-77668000D01*
X34234000Y-70668000D02*
X27234000Y-70668000D01*
D13*
X20574000Y-77724000D02*
X20828000Y-70612000D01*
X21082000Y-77724000D02*
X21336000Y-70612000D01*
X21590000Y-77724000D02*
X21844000Y-70612000D01*
X22098000Y-77724000D02*
X22352000Y-70612000D01*
X22606000Y-77724000D02*
X22860000Y-70612000D01*
X23114000Y-77724000D02*
X23368000Y-70612000D01*
X23622000Y-77724000D02*
X23876000Y-70612000D01*
X24130000Y-77724000D02*
X24384000Y-70612000D01*
D11*
%TO.C,D1*%
X80745000Y-77352000D02*
X80745000Y-74892000D01*
X79275000Y-77352000D02*
X80745000Y-77352000D01*
X79275000Y-74892000D02*
X79275000Y-77352000D01*
%TO.C,D2*%
X83085000Y-74892000D02*
X83085000Y-77352000D01*
X83085000Y-77352000D02*
X84555000Y-77352000D01*
X84555000Y-77352000D02*
X84555000Y-74892000D01*
%TO.C,D3*%
X86895000Y-74892000D02*
X86895000Y-77352000D01*
X86895000Y-77352000D02*
X88365000Y-77352000D01*
X88365000Y-77352000D02*
X88365000Y-74892000D01*
%TO.C,D4*%
X92175000Y-77352000D02*
X92175000Y-74892000D01*
X90705000Y-77352000D02*
X92175000Y-77352000D01*
X90705000Y-74892000D02*
X90705000Y-77352000D01*
%TO.C,D5*%
X95985000Y-77352000D02*
X95985000Y-74892000D01*
X94515000Y-77352000D02*
X95985000Y-77352000D01*
X94515000Y-74892000D02*
X94515000Y-77352000D01*
%TO.C,D6*%
X99795000Y-77352000D02*
X99795000Y-74892000D01*
X98325000Y-77352000D02*
X99795000Y-77352000D01*
X98325000Y-74892000D02*
X98325000Y-77352000D01*
%TO.C,D7*%
X102135000Y-74892000D02*
X102135000Y-77352000D01*
X102135000Y-77352000D02*
X103605000Y-77352000D01*
X103605000Y-77352000D02*
X103605000Y-74892000D01*
%TO.C,D8*%
X105945000Y-74892000D02*
X105945000Y-77352000D01*
X105945000Y-77352000D02*
X107415000Y-77352000D01*
X107415000Y-77352000D02*
X107415000Y-74892000D01*
%TO.C,D9*%
X111225000Y-77352000D02*
X111225000Y-74892000D01*
X109755000Y-77352000D02*
X111225000Y-77352000D01*
X109755000Y-74892000D02*
X109755000Y-77352000D01*
%TO.C,D10*%
X115035000Y-77352000D02*
X115035000Y-74892000D01*
X113565000Y-77352000D02*
X115035000Y-77352000D01*
X113565000Y-74892000D02*
X113565000Y-77352000D01*
%TO.C,D11*%
X117375000Y-74892000D02*
X117375000Y-77352000D01*
X117375000Y-77352000D02*
X118845000Y-77352000D01*
X118845000Y-77352000D02*
X118845000Y-74892000D01*
%TO.C,D12*%
X121185000Y-74892000D02*
X121185000Y-77352000D01*
X121185000Y-77352000D02*
X122655000Y-77352000D01*
X122655000Y-77352000D02*
X122655000Y-74892000D01*
%TO.C,R1*%
X53848724Y-69356500D02*
X53339276Y-69356500D01*
X53848724Y-68311500D02*
X53339276Y-68311500D01*
%TO.C,R2*%
X33796500Y-67309276D02*
X33796500Y-67818724D01*
X32751500Y-67309276D02*
X32751500Y-67818724D01*
%TO.C,R3*%
X31256500Y-67818724D02*
X31256500Y-67309276D01*
X30211500Y-67818724D02*
X30211500Y-67309276D01*
%TO.C,R4*%
X105514224Y-56754500D02*
X105004776Y-56754500D01*
X105514224Y-57799500D02*
X105004776Y-57799500D01*
%TO.C,R5*%
X105410724Y-61863500D02*
X104901276Y-61863500D01*
X105410724Y-60818500D02*
X104901276Y-60818500D01*
%TO.C,R6*%
X122007100Y-66191224D02*
X122007100Y-65681776D01*
X123052100Y-66191224D02*
X123052100Y-65681776D01*
%TO.C,R7*%
X127761276Y-56402500D02*
X128270724Y-56402500D01*
X127761276Y-55357500D02*
X128270724Y-55357500D01*
%TO.C,R8*%
X127761276Y-65800500D02*
X128270724Y-65800500D01*
X127761276Y-64755500D02*
X128270724Y-64755500D01*
%TO.C,R9*%
X119394500Y-64515276D02*
X119394500Y-65024724D01*
X118349500Y-64515276D02*
X118349500Y-65024724D01*
%TO.C,R10*%
X127761276Y-62215500D02*
X128270724Y-62215500D01*
X127761276Y-63260500D02*
X128270724Y-63260500D01*
%TO.C,R11*%
X79487500Y-71627276D02*
X79487500Y-72136724D01*
X80532500Y-71627276D02*
X80532500Y-72136724D01*
%TO.C,R12*%
X84342500Y-71627276D02*
X84342500Y-72136724D01*
X83297500Y-71627276D02*
X83297500Y-72136724D01*
%TO.C,R13*%
X87107500Y-71627276D02*
X87107500Y-72136724D01*
X88152500Y-71627276D02*
X88152500Y-72136724D01*
%TO.C,R14*%
X90917500Y-71627276D02*
X90917500Y-72136724D01*
X91962500Y-71627276D02*
X91962500Y-72136724D01*
%TO.C,R15*%
X95772500Y-71627276D02*
X95772500Y-72136724D01*
X94727500Y-71627276D02*
X94727500Y-72136724D01*
%TO.C,R16*%
X98537500Y-71627276D02*
X98537500Y-72136724D01*
X99582500Y-71627276D02*
X99582500Y-72136724D01*
%TO.C,R17*%
X103392500Y-71627276D02*
X103392500Y-72136724D01*
X102347500Y-71627276D02*
X102347500Y-72136724D01*
%TO.C,R18*%
X106157500Y-71627276D02*
X106157500Y-72136724D01*
X107202500Y-71627276D02*
X107202500Y-72136724D01*
%TO.C,R19*%
X111012500Y-71627276D02*
X111012500Y-72136724D01*
X109967500Y-71627276D02*
X109967500Y-72136724D01*
%TO.C,R20*%
X113777500Y-71627276D02*
X113777500Y-72136724D01*
X114822500Y-71627276D02*
X114822500Y-72136724D01*
%TO.C,R21*%
X118632500Y-71627276D02*
X118632500Y-72136724D01*
X117587500Y-71627276D02*
X117587500Y-72136724D01*
%TO.C,R22*%
X121397500Y-71627276D02*
X121397500Y-72136724D01*
X122442500Y-71627276D02*
X122442500Y-72136724D01*
D12*
%TO.C,U1*%
X58420000Y-73914000D02*
X58420000Y-57404000D01*
X68580000Y-57404000D02*
X68580000Y-73914000D01*
X58420000Y-57404000D02*
X68580000Y-57404000D01*
X58420000Y-73914000D02*
X68580000Y-73914000D01*
X60960000Y-61214000D02*
X66040000Y-61214000D01*
X58420000Y-63754000D02*
X60960000Y-61214000D01*
X58420000Y-68834000D02*
X58420000Y-63754000D01*
X60960000Y-71374000D02*
X58420000Y-68834000D01*
X66040000Y-71374000D02*
X60960000Y-71374000D01*
X68580000Y-68834000D02*
X66040000Y-71374000D01*
X68580000Y-63754000D02*
X68580000Y-68834000D01*
X66040000Y-61214000D02*
X68580000Y-63754000D01*
%TO.C,U4*%
X48260000Y-65786000D02*
X50800000Y-68326000D01*
X50800000Y-68326000D02*
X50800000Y-73406000D01*
X50800000Y-73406000D02*
X48260000Y-75946000D01*
X48260000Y-75946000D02*
X43180000Y-75946000D01*
X43180000Y-75946000D02*
X40640000Y-73406000D01*
X40640000Y-73406000D02*
X40640000Y-68326000D01*
X40640000Y-68326000D02*
X43180000Y-65786000D01*
X43180000Y-65786000D02*
X48260000Y-65786000D01*
X40640000Y-78486000D02*
X50800000Y-78486000D01*
X40640000Y-61976000D02*
X50800000Y-61976000D01*
X50800000Y-61976000D02*
X50800000Y-78486000D01*
X40640000Y-78486000D02*
X40640000Y-61976000D01*
D14*
%TO.C,U5*%
X84200000Y-41144000D02*
X83950000Y-41144000D01*
X84200000Y-53344000D02*
X84200000Y-41144000D01*
X83950000Y-53344000D02*
X84200000Y-53344000D01*
X68200000Y-41144000D02*
X68450000Y-41144000D01*
X68200000Y-53344000D02*
X68200000Y-41144000D01*
X68450000Y-53344000D02*
X68200000Y-53344000D01*
D15*
X69264000Y-55133000D02*
G75*
G03*
X69264000Y-55133000I-100000J0D01*
G01*
D14*
%TO.C,U2*%
X100814000Y-46175800D02*
X100744000Y-46175800D01*
X100814000Y-46245800D02*
X100814000Y-46175800D01*
X100814000Y-49175800D02*
X100814000Y-49105800D01*
X100744000Y-49175800D02*
X100814000Y-49175800D01*
X97814000Y-49175800D02*
X97884000Y-49175800D01*
X97814000Y-49105800D02*
X97814000Y-49175800D01*
D16*
X97014000Y-46675800D02*
G75*
G03*
X97014000Y-46675800I-100000J0D01*
G01*
D14*
X97814000Y-46175800D02*
X97814000Y-46245800D01*
X97884000Y-46175800D02*
X97814000Y-46175800D01*
D17*
%TO.C,U3*%
X113398000Y-58887000D02*
G75*
G03*
X113398000Y-58887000I-100000J0D01*
G01*
D14*
X112898000Y-63687000D02*
X112898000Y-58487000D01*
X109098000Y-63687000D02*
X112898000Y-63687000D01*
X109098000Y-58487000D02*
X109098000Y-63687000D01*
X112898000Y-58487000D02*
X109098000Y-58487000D01*
%TO.C,U6*%
D12*
X75438095Y-30686380D02*
X75438095Y-31495904D01*
X75485714Y-31591142D01*
X75533333Y-31638761D01*
X75628571Y-31686380D01*
X75819047Y-31686380D01*
X75914285Y-31638761D01*
X75961904Y-31591142D01*
X76009523Y-31495904D01*
X76009523Y-30686380D01*
X76914285Y-30686380D02*
X76723809Y-30686380D01*
X76628571Y-30734000D01*
X76580952Y-30781619D01*
X76485714Y-30924476D01*
X76438095Y-31114952D01*
X76438095Y-31495904D01*
X76485714Y-31591142D01*
X76533333Y-31638761D01*
X76628571Y-31686380D01*
X76819047Y-31686380D01*
X76914285Y-31638761D01*
X76961904Y-31591142D01*
X77009523Y-31495904D01*
X77009523Y-31257809D01*
X76961904Y-31162571D01*
X76914285Y-31114952D01*
X76819047Y-31067333D01*
X76628571Y-31067333D01*
X76533333Y-31114952D01*
X76485714Y-31162571D01*
X76438095Y-31257809D01*
%TO.C,AC1*%
D18*
X121901857Y-60638266D02*
X122506619Y-60638266D01*
X121780904Y-61001123D02*
X122204238Y-59731123D01*
X122627571Y-61001123D01*
X123776619Y-60880171D02*
X123716142Y-60940647D01*
X123534714Y-61001123D01*
X123413761Y-61001123D01*
X123232333Y-60940647D01*
X123111380Y-60819695D01*
X123050904Y-60698742D01*
X122990428Y-60456838D01*
X122990428Y-60275409D01*
X123050904Y-60033504D01*
X123111380Y-59912552D01*
X123232333Y-59791600D01*
X123413761Y-59731123D01*
X123534714Y-59731123D01*
X123716142Y-59791600D01*
X123776619Y-59852076D01*
X124986142Y-61001123D02*
X124260428Y-61001123D01*
X124623285Y-61001123D02*
X124623285Y-59731123D01*
X124502333Y-59912552D01*
X124381380Y-60033504D01*
X124260428Y-60093980D01*
%TO.C,BT1*%
D12*
X44934285Y-52428571D02*
X45077142Y-52476190D01*
X45124761Y-52523809D01*
X45172380Y-52619047D01*
X45172380Y-52761904D01*
X45124761Y-52857142D01*
X45077142Y-52904761D01*
X44981904Y-52952380D01*
X44600952Y-52952380D01*
X44600952Y-51952380D01*
X44934285Y-51952380D01*
X45029523Y-52000000D01*
X45077142Y-52047619D01*
X45124761Y-52142857D01*
X45124761Y-52238095D01*
X45077142Y-52333333D01*
X45029523Y-52380952D01*
X44934285Y-52428571D01*
X44600952Y-52428571D01*
X45458095Y-51952380D02*
X46029523Y-51952380D01*
X45743809Y-52952380D02*
X45743809Y-51952380D01*
X46886666Y-52952380D02*
X46315238Y-52952380D01*
X46600952Y-52952380D02*
X46600952Y-51952380D01*
X46505714Y-52095238D01*
X46410476Y-52190476D01*
X46315238Y-52238095D01*
%TO.C,C1*%
X39137142Y-57590666D02*
X39184761Y-57638285D01*
X39232380Y-57781142D01*
X39232380Y-57876380D01*
X39184761Y-58019238D01*
X39089523Y-58114476D01*
X38994285Y-58162095D01*
X38803809Y-58209714D01*
X38660952Y-58209714D01*
X38470476Y-58162095D01*
X38375238Y-58114476D01*
X38280000Y-58019238D01*
X38232380Y-57876380D01*
X38232380Y-57781142D01*
X38280000Y-57638285D01*
X38327619Y-57590666D01*
X39232380Y-56638285D02*
X39232380Y-57209714D01*
X39232380Y-56924000D02*
X38232380Y-56924000D01*
X38375238Y-57019238D01*
X38470476Y-57114476D01*
X38518095Y-57209714D01*
%TO.C,C2*%
X71207333Y-60141142D02*
X71159714Y-60188761D01*
X71016857Y-60236380D01*
X70921619Y-60236380D01*
X70778761Y-60188761D01*
X70683523Y-60093523D01*
X70635904Y-59998285D01*
X70588285Y-59807809D01*
X70588285Y-59664952D01*
X70635904Y-59474476D01*
X70683523Y-59379238D01*
X70778761Y-59284000D01*
X70921619Y-59236380D01*
X71016857Y-59236380D01*
X71159714Y-59284000D01*
X71207333Y-59331619D01*
X71588285Y-59331619D02*
X71635904Y-59284000D01*
X71731142Y-59236380D01*
X71969238Y-59236380D01*
X72064476Y-59284000D01*
X72112095Y-59331619D01*
X72159714Y-59426857D01*
X72159714Y-59522095D01*
X72112095Y-59664952D01*
X71540666Y-60236380D01*
X72159714Y-60236380D01*
%TO.C,C3*%
X71207333Y-57601142D02*
X71159714Y-57648761D01*
X71016857Y-57696380D01*
X70921619Y-57696380D01*
X70778761Y-57648761D01*
X70683523Y-57553523D01*
X70635904Y-57458285D01*
X70588285Y-57267809D01*
X70588285Y-57124952D01*
X70635904Y-56934476D01*
X70683523Y-56839238D01*
X70778761Y-56744000D01*
X70921619Y-56696380D01*
X71016857Y-56696380D01*
X71159714Y-56744000D01*
X71207333Y-56791619D01*
X71540666Y-56696380D02*
X72159714Y-56696380D01*
X71826380Y-57077333D01*
X71969238Y-57077333D01*
X72064476Y-57124952D01*
X72112095Y-57172571D01*
X72159714Y-57267809D01*
X72159714Y-57505904D01*
X72112095Y-57601142D01*
X72064476Y-57648761D01*
X71969238Y-57696380D01*
X71683523Y-57696380D01*
X71588285Y-57648761D01*
X71540666Y-57601142D01*
%TO.C,C4*%
X48027142Y-57590666D02*
X48074761Y-57638285D01*
X48122380Y-57781142D01*
X48122380Y-57876380D01*
X48074761Y-58019238D01*
X47979523Y-58114476D01*
X47884285Y-58162095D01*
X47693809Y-58209714D01*
X47550952Y-58209714D01*
X47360476Y-58162095D01*
X47265238Y-58114476D01*
X47170000Y-58019238D01*
X47122380Y-57876380D01*
X47122380Y-57781142D01*
X47170000Y-57638285D01*
X47217619Y-57590666D01*
X47455714Y-56733523D02*
X48122380Y-56733523D01*
X47074761Y-56971619D02*
X47789047Y-57209714D01*
X47789047Y-56590666D01*
%TO.C,C5*%
X53427333Y-64713142D02*
X53379714Y-64760761D01*
X53236857Y-64808380D01*
X53141619Y-64808380D01*
X52998761Y-64760761D01*
X52903523Y-64665523D01*
X52855904Y-64570285D01*
X52808285Y-64379809D01*
X52808285Y-64236952D01*
X52855904Y-64046476D01*
X52903523Y-63951238D01*
X52998761Y-63856000D01*
X53141619Y-63808380D01*
X53236857Y-63808380D01*
X53379714Y-63856000D01*
X53427333Y-63903619D01*
X54332095Y-63808380D02*
X53855904Y-63808380D01*
X53808285Y-64284571D01*
X53855904Y-64236952D01*
X53951142Y-64189333D01*
X54189238Y-64189333D01*
X54284476Y-64236952D01*
X54332095Y-64284571D01*
X54379714Y-64379809D01*
X54379714Y-64617904D01*
X54332095Y-64713142D01*
X54284476Y-64760761D01*
X54189238Y-64808380D01*
X53951142Y-64808380D01*
X53855904Y-64760761D01*
X53808285Y-64713142D01*
%TO.C,C6*%
X53427333Y-62173142D02*
X53379714Y-62220761D01*
X53236857Y-62268380D01*
X53141619Y-62268380D01*
X52998761Y-62220761D01*
X52903523Y-62125523D01*
X52855904Y-62030285D01*
X52808285Y-61839809D01*
X52808285Y-61696952D01*
X52855904Y-61506476D01*
X52903523Y-61411238D01*
X52998761Y-61316000D01*
X53141619Y-61268380D01*
X53236857Y-61268380D01*
X53379714Y-61316000D01*
X53427333Y-61363619D01*
X54284476Y-61268380D02*
X54094000Y-61268380D01*
X53998761Y-61316000D01*
X53951142Y-61363619D01*
X53855904Y-61506476D01*
X53808285Y-61696952D01*
X53808285Y-62077904D01*
X53855904Y-62173142D01*
X53903523Y-62220761D01*
X53998761Y-62268380D01*
X54189238Y-62268380D01*
X54284476Y-62220761D01*
X54332095Y-62173142D01*
X54379714Y-62077904D01*
X54379714Y-61839809D01*
X54332095Y-61744571D01*
X54284476Y-61696952D01*
X54189238Y-61649333D01*
X53998761Y-61649333D01*
X53903523Y-61696952D01*
X53855904Y-61744571D01*
X53808285Y-61839809D01*
%TO.C,C7*%
X115591842Y-54929066D02*
X115639461Y-54976685D01*
X115687080Y-55119542D01*
X115687080Y-55214780D01*
X115639461Y-55357638D01*
X115544223Y-55452876D01*
X115448985Y-55500495D01*
X115258509Y-55548114D01*
X115115652Y-55548114D01*
X114925176Y-55500495D01*
X114829938Y-55452876D01*
X114734700Y-55357638D01*
X114687080Y-55214780D01*
X114687080Y-55119542D01*
X114734700Y-54976685D01*
X114782319Y-54929066D01*
X114687080Y-54595733D02*
X114687080Y-53929066D01*
X115687080Y-54357638D01*
%TO.C,C8*%
X113051842Y-54929066D02*
X113099461Y-54976685D01*
X113147080Y-55119542D01*
X113147080Y-55214780D01*
X113099461Y-55357638D01*
X113004223Y-55452876D01*
X112908985Y-55500495D01*
X112718509Y-55548114D01*
X112575652Y-55548114D01*
X112385176Y-55500495D01*
X112289938Y-55452876D01*
X112194700Y-55357638D01*
X112147080Y-55214780D01*
X112147080Y-55119542D01*
X112194700Y-54976685D01*
X112242319Y-54929066D01*
X112575652Y-54357638D02*
X112528033Y-54452876D01*
X112480414Y-54500495D01*
X112385176Y-54548114D01*
X112337557Y-54548114D01*
X112242319Y-54500495D01*
X112194700Y-54452876D01*
X112147080Y-54357638D01*
X112147080Y-54167161D01*
X112194700Y-54071923D01*
X112242319Y-54024304D01*
X112337557Y-53976685D01*
X112385176Y-53976685D01*
X112480414Y-54024304D01*
X112528033Y-54071923D01*
X112575652Y-54167161D01*
X112575652Y-54357638D01*
X112623271Y-54452876D01*
X112670890Y-54500495D01*
X112766128Y-54548114D01*
X112956604Y-54548114D01*
X113051842Y-54500495D01*
X113099461Y-54452876D01*
X113147080Y-54357638D01*
X113147080Y-54167161D01*
X113099461Y-54071923D01*
X113051842Y-54024304D01*
X112956604Y-53976685D01*
X112766128Y-53976685D01*
X112670890Y-54024304D01*
X112623271Y-54071923D01*
X112575652Y-54167161D01*
%TO.C,C9*%
X104989333Y-65922142D02*
X104941714Y-65969761D01*
X104798857Y-66017380D01*
X104703619Y-66017380D01*
X104560761Y-65969761D01*
X104465523Y-65874523D01*
X104417904Y-65779285D01*
X104370285Y-65588809D01*
X104370285Y-65445952D01*
X104417904Y-65255476D01*
X104465523Y-65160238D01*
X104560761Y-65065000D01*
X104703619Y-65017380D01*
X104798857Y-65017380D01*
X104941714Y-65065000D01*
X104989333Y-65112619D01*
X105465523Y-66017380D02*
X105656000Y-66017380D01*
X105751238Y-65969761D01*
X105798857Y-65922142D01*
X105894095Y-65779285D01*
X105941714Y-65588809D01*
X105941714Y-65207857D01*
X105894095Y-65112619D01*
X105846476Y-65065000D01*
X105751238Y-65017380D01*
X105560761Y-65017380D01*
X105465523Y-65065000D01*
X105417904Y-65112619D01*
X105370285Y-65207857D01*
X105370285Y-65445952D01*
X105417904Y-65541190D01*
X105465523Y-65588809D01*
X105560761Y-65636428D01*
X105751238Y-65636428D01*
X105846476Y-65588809D01*
X105894095Y-65541190D01*
X105941714Y-65445952D01*
%TO.C,C10*%
X102735142Y-50555142D02*
X102687523Y-50602761D01*
X102544666Y-50650380D01*
X102449428Y-50650380D01*
X102306571Y-50602761D01*
X102211333Y-50507523D01*
X102163714Y-50412285D01*
X102116095Y-50221809D01*
X102116095Y-50078952D01*
X102163714Y-49888476D01*
X102211333Y-49793238D01*
X102306571Y-49698000D01*
X102449428Y-49650380D01*
X102544666Y-49650380D01*
X102687523Y-49698000D01*
X102735142Y-49745619D01*
X103687523Y-50650380D02*
X103116095Y-50650380D01*
X103401809Y-50650380D02*
X103401809Y-49650380D01*
X103306571Y-49793238D01*
X103211333Y-49888476D01*
X103116095Y-49936095D01*
X104306571Y-49650380D02*
X104401809Y-49650380D01*
X104497047Y-49698000D01*
X104544666Y-49745619D01*
X104592285Y-49840857D01*
X104639904Y-50031333D01*
X104639904Y-50269428D01*
X104592285Y-50459904D01*
X104544666Y-50555142D01*
X104497047Y-50602761D01*
X104401809Y-50650380D01*
X104306571Y-50650380D01*
X104211333Y-50602761D01*
X104163714Y-50555142D01*
X104116095Y-50459904D01*
X104068476Y-50269428D01*
X104068476Y-50031333D01*
X104116095Y-49840857D01*
X104163714Y-49745619D01*
X104211333Y-49698000D01*
X104306571Y-49650380D01*
%TO.C,C11*%
X102735142Y-53095142D02*
X102687523Y-53142761D01*
X102544666Y-53190380D01*
X102449428Y-53190380D01*
X102306571Y-53142761D01*
X102211333Y-53047523D01*
X102163714Y-52952285D01*
X102116095Y-52761809D01*
X102116095Y-52618952D01*
X102163714Y-52428476D01*
X102211333Y-52333238D01*
X102306571Y-52238000D01*
X102449428Y-52190380D01*
X102544666Y-52190380D01*
X102687523Y-52238000D01*
X102735142Y-52285619D01*
X103687523Y-53190380D02*
X103116095Y-53190380D01*
X103401809Y-53190380D02*
X103401809Y-52190380D01*
X103306571Y-52333238D01*
X103211333Y-52428476D01*
X103116095Y-52476095D01*
X104639904Y-53190380D02*
X104068476Y-53190380D01*
X104354190Y-53190380D02*
X104354190Y-52190380D01*
X104258952Y-52333238D01*
X104163714Y-52428476D01*
X104068476Y-52476095D01*
%TO.C,C12*%
X98444342Y-53411357D02*
X98491961Y-53458976D01*
X98539580Y-53601833D01*
X98539580Y-53697071D01*
X98491961Y-53839928D01*
X98396723Y-53935166D01*
X98301485Y-53982785D01*
X98111009Y-54030404D01*
X97968152Y-54030404D01*
X97777676Y-53982785D01*
X97682438Y-53935166D01*
X97587200Y-53839928D01*
X97539580Y-53697071D01*
X97539580Y-53601833D01*
X97587200Y-53458976D01*
X97634819Y-53411357D01*
X98539580Y-52458976D02*
X98539580Y-53030404D01*
X98539580Y-52744690D02*
X97539580Y-52744690D01*
X97682438Y-52839928D01*
X97777676Y-52935166D01*
X97825295Y-53030404D01*
X97634819Y-52078023D02*
X97587200Y-52030404D01*
X97539580Y-51935166D01*
X97539580Y-51697071D01*
X97587200Y-51601833D01*
X97634819Y-51554214D01*
X97730057Y-51506595D01*
X97825295Y-51506595D01*
X97968152Y-51554214D01*
X98539580Y-52125642D01*
X98539580Y-51506595D01*
%TO.C,C13*%
X61919142Y-31630857D02*
X61966761Y-31678476D01*
X62014380Y-31821333D01*
X62014380Y-31916571D01*
X61966761Y-32059428D01*
X61871523Y-32154666D01*
X61776285Y-32202285D01*
X61585809Y-32249904D01*
X61442952Y-32249904D01*
X61252476Y-32202285D01*
X61157238Y-32154666D01*
X61062000Y-32059428D01*
X61014380Y-31916571D01*
X61014380Y-31821333D01*
X61062000Y-31678476D01*
X61109619Y-31630857D01*
X62014380Y-30678476D02*
X62014380Y-31249904D01*
X62014380Y-30964190D02*
X61014380Y-30964190D01*
X61157238Y-31059428D01*
X61252476Y-31154666D01*
X61300095Y-31249904D01*
X61014380Y-30345142D02*
X61014380Y-29726095D01*
X61395333Y-30059428D01*
X61395333Y-29916571D01*
X61442952Y-29821333D01*
X61490571Y-29773714D01*
X61585809Y-29726095D01*
X61823904Y-29726095D01*
X61919142Y-29773714D01*
X61966761Y-29821333D01*
X62014380Y-29916571D01*
X62014380Y-30202285D01*
X61966761Y-30297523D01*
X61919142Y-30345142D01*
%TO.C,C14*%
X117213142Y-58175142D02*
X117165523Y-58222761D01*
X117022666Y-58270380D01*
X116927428Y-58270380D01*
X116784571Y-58222761D01*
X116689333Y-58127523D01*
X116641714Y-58032285D01*
X116594095Y-57841809D01*
X116594095Y-57698952D01*
X116641714Y-57508476D01*
X116689333Y-57413238D01*
X116784571Y-57318000D01*
X116927428Y-57270380D01*
X117022666Y-57270380D01*
X117165523Y-57318000D01*
X117213142Y-57365619D01*
X118165523Y-58270380D02*
X117594095Y-58270380D01*
X117879809Y-58270380D02*
X117879809Y-57270380D01*
X117784571Y-57413238D01*
X117689333Y-57508476D01*
X117594095Y-57556095D01*
X119022666Y-57603714D02*
X119022666Y-58270380D01*
X118784571Y-57222761D02*
X118546476Y-57937047D01*
X119165523Y-57937047D01*
%TO.C,C15*%
X115259142Y-59951857D02*
X115306761Y-59999476D01*
X115354380Y-60142333D01*
X115354380Y-60237571D01*
X115306761Y-60380428D01*
X115211523Y-60475666D01*
X115116285Y-60523285D01*
X114925809Y-60570904D01*
X114782952Y-60570904D01*
X114592476Y-60523285D01*
X114497238Y-60475666D01*
X114402000Y-60380428D01*
X114354380Y-60237571D01*
X114354380Y-60142333D01*
X114402000Y-59999476D01*
X114449619Y-59951857D01*
X115354380Y-58999476D02*
X115354380Y-59570904D01*
X115354380Y-59285190D02*
X114354380Y-59285190D01*
X114497238Y-59380428D01*
X114592476Y-59475666D01*
X114640095Y-59570904D01*
X114354380Y-58094714D02*
X114354380Y-58570904D01*
X114830571Y-58618523D01*
X114782952Y-58570904D01*
X114735333Y-58475666D01*
X114735333Y-58237571D01*
X114782952Y-58142333D01*
X114830571Y-58094714D01*
X114925809Y-58047095D01*
X115163904Y-58047095D01*
X115259142Y-58094714D01*
X115306761Y-58142333D01*
X115354380Y-58237571D01*
X115354380Y-58475666D01*
X115306761Y-58570904D01*
X115259142Y-58618523D01*
%TO.C,C16*%
X117799142Y-59951857D02*
X117846761Y-59999476D01*
X117894380Y-60142333D01*
X117894380Y-60237571D01*
X117846761Y-60380428D01*
X117751523Y-60475666D01*
X117656285Y-60523285D01*
X117465809Y-60570904D01*
X117322952Y-60570904D01*
X117132476Y-60523285D01*
X117037238Y-60475666D01*
X116942000Y-60380428D01*
X116894380Y-60237571D01*
X116894380Y-60142333D01*
X116942000Y-59999476D01*
X116989619Y-59951857D01*
X117894380Y-58999476D02*
X117894380Y-59570904D01*
X117894380Y-59285190D02*
X116894380Y-59285190D01*
X117037238Y-59380428D01*
X117132476Y-59475666D01*
X117180095Y-59570904D01*
X116894380Y-58142333D02*
X116894380Y-58332809D01*
X116942000Y-58428047D01*
X116989619Y-58475666D01*
X117132476Y-58570904D01*
X117322952Y-58618523D01*
X117703904Y-58618523D01*
X117799142Y-58570904D01*
X117846761Y-58523285D01*
X117894380Y-58428047D01*
X117894380Y-58237571D01*
X117846761Y-58142333D01*
X117799142Y-58094714D01*
X117703904Y-58047095D01*
X117465809Y-58047095D01*
X117370571Y-58094714D01*
X117322952Y-58142333D01*
X117275333Y-58237571D01*
X117275333Y-58428047D01*
X117322952Y-58523285D01*
X117370571Y-58570904D01*
X117465809Y-58618523D01*
%TO.C,C17*%
X30031942Y-68156057D02*
X30079561Y-68203676D01*
X30127180Y-68346533D01*
X30127180Y-68441771D01*
X30079561Y-68584628D01*
X29984323Y-68679866D01*
X29889085Y-68727485D01*
X29698609Y-68775104D01*
X29555752Y-68775104D01*
X29365276Y-68727485D01*
X29270038Y-68679866D01*
X29174800Y-68584628D01*
X29127180Y-68441771D01*
X29127180Y-68346533D01*
X29174800Y-68203676D01*
X29222419Y-68156057D01*
X30127180Y-67203676D02*
X30127180Y-67775104D01*
X30127180Y-67489390D02*
X29127180Y-67489390D01*
X29270038Y-67584628D01*
X29365276Y-67679866D01*
X29412895Y-67775104D01*
X29127180Y-66870342D02*
X29127180Y-66203676D01*
X30127180Y-66632247D01*
%TO.C,Conn2*%
X27355990Y-69978542D02*
X27308371Y-70026161D01*
X27165514Y-70073780D01*
X27070276Y-70073780D01*
X26927419Y-70026161D01*
X26832180Y-69930923D01*
X26784561Y-69835685D01*
X26736942Y-69645209D01*
X26736942Y-69502352D01*
X26784561Y-69311876D01*
X26832180Y-69216638D01*
X26927419Y-69121400D01*
X27070276Y-69073780D01*
X27165514Y-69073780D01*
X27308371Y-69121400D01*
X27355990Y-69169019D01*
X27927419Y-70073780D02*
X27832180Y-70026161D01*
X27784561Y-69978542D01*
X27736942Y-69883304D01*
X27736942Y-69597590D01*
X27784561Y-69502352D01*
X27832180Y-69454733D01*
X27927419Y-69407114D01*
X28070276Y-69407114D01*
X28165514Y-69454733D01*
X28213133Y-69502352D01*
X28260752Y-69597590D01*
X28260752Y-69883304D01*
X28213133Y-69978542D01*
X28165514Y-70026161D01*
X28070276Y-70073780D01*
X27927419Y-70073780D01*
X28689323Y-69407114D02*
X28689323Y-70073780D01*
X28689323Y-69502352D02*
X28736942Y-69454733D01*
X28832180Y-69407114D01*
X28975038Y-69407114D01*
X29070276Y-69454733D01*
X29117895Y-69549971D01*
X29117895Y-70073780D01*
X29594085Y-69407114D02*
X29594085Y-70073780D01*
X29594085Y-69502352D02*
X29641704Y-69454733D01*
X29736942Y-69407114D01*
X29879800Y-69407114D01*
X29975038Y-69454733D01*
X30022657Y-69549971D01*
X30022657Y-70073780D01*
X30451228Y-69169019D02*
X30498847Y-69121400D01*
X30594085Y-69073780D01*
X30832180Y-69073780D01*
X30927419Y-69121400D01*
X30975038Y-69169019D01*
X31022657Y-69264257D01*
X31022657Y-69359495D01*
X30975038Y-69502352D01*
X30403609Y-70073780D01*
X31022657Y-70073780D01*
%TO.C,D1*%
X79032380Y-76430095D02*
X78032380Y-76430095D01*
X78032380Y-76192000D01*
X78080000Y-76049142D01*
X78175238Y-75953904D01*
X78270476Y-75906285D01*
X78460952Y-75858666D01*
X78603809Y-75858666D01*
X78794285Y-75906285D01*
X78889523Y-75953904D01*
X78984761Y-76049142D01*
X79032380Y-76192000D01*
X79032380Y-76430095D01*
X79032380Y-74906285D02*
X79032380Y-75477714D01*
X79032380Y-75192000D02*
X78032380Y-75192000D01*
X78175238Y-75287238D01*
X78270476Y-75382476D01*
X78318095Y-75477714D01*
%TO.C,D2*%
X82842380Y-76430095D02*
X81842380Y-76430095D01*
X81842380Y-76192000D01*
X81890000Y-76049142D01*
X81985238Y-75953904D01*
X82080476Y-75906285D01*
X82270952Y-75858666D01*
X82413809Y-75858666D01*
X82604285Y-75906285D01*
X82699523Y-75953904D01*
X82794761Y-76049142D01*
X82842380Y-76192000D01*
X82842380Y-76430095D01*
X81937619Y-75477714D02*
X81890000Y-75430095D01*
X81842380Y-75334857D01*
X81842380Y-75096761D01*
X81890000Y-75001523D01*
X81937619Y-74953904D01*
X82032857Y-74906285D01*
X82128095Y-74906285D01*
X82270952Y-74953904D01*
X82842380Y-75525333D01*
X82842380Y-74906285D01*
%TO.C,D3*%
X86652380Y-76430095D02*
X85652380Y-76430095D01*
X85652380Y-76192000D01*
X85700000Y-76049142D01*
X85795238Y-75953904D01*
X85890476Y-75906285D01*
X86080952Y-75858666D01*
X86223809Y-75858666D01*
X86414285Y-75906285D01*
X86509523Y-75953904D01*
X86604761Y-76049142D01*
X86652380Y-76192000D01*
X86652380Y-76430095D01*
X85652380Y-75525333D02*
X85652380Y-74906285D01*
X86033333Y-75239619D01*
X86033333Y-75096761D01*
X86080952Y-75001523D01*
X86128571Y-74953904D01*
X86223809Y-74906285D01*
X86461904Y-74906285D01*
X86557142Y-74953904D01*
X86604761Y-75001523D01*
X86652380Y-75096761D01*
X86652380Y-75382476D01*
X86604761Y-75477714D01*
X86557142Y-75525333D01*
%TO.C,D4*%
X90462380Y-76430095D02*
X89462380Y-76430095D01*
X89462380Y-76192000D01*
X89510000Y-76049142D01*
X89605238Y-75953904D01*
X89700476Y-75906285D01*
X89890952Y-75858666D01*
X90033809Y-75858666D01*
X90224285Y-75906285D01*
X90319523Y-75953904D01*
X90414761Y-76049142D01*
X90462380Y-76192000D01*
X90462380Y-76430095D01*
X89795714Y-75001523D02*
X90462380Y-75001523D01*
X89414761Y-75239619D02*
X90129047Y-75477714D01*
X90129047Y-74858666D01*
%TO.C,D5*%
X94272380Y-76430095D02*
X93272380Y-76430095D01*
X93272380Y-76192000D01*
X93320000Y-76049142D01*
X93415238Y-75953904D01*
X93510476Y-75906285D01*
X93700952Y-75858666D01*
X93843809Y-75858666D01*
X94034285Y-75906285D01*
X94129523Y-75953904D01*
X94224761Y-76049142D01*
X94272380Y-76192000D01*
X94272380Y-76430095D01*
X93272380Y-74953904D02*
X93272380Y-75430095D01*
X93748571Y-75477714D01*
X93700952Y-75430095D01*
X93653333Y-75334857D01*
X93653333Y-75096761D01*
X93700952Y-75001523D01*
X93748571Y-74953904D01*
X93843809Y-74906285D01*
X94081904Y-74906285D01*
X94177142Y-74953904D01*
X94224761Y-75001523D01*
X94272380Y-75096761D01*
X94272380Y-75334857D01*
X94224761Y-75430095D01*
X94177142Y-75477714D01*
%TO.C,D6*%
X98082380Y-76430095D02*
X97082380Y-76430095D01*
X97082380Y-76192000D01*
X97130000Y-76049142D01*
X97225238Y-75953904D01*
X97320476Y-75906285D01*
X97510952Y-75858666D01*
X97653809Y-75858666D01*
X97844285Y-75906285D01*
X97939523Y-75953904D01*
X98034761Y-76049142D01*
X98082380Y-76192000D01*
X98082380Y-76430095D01*
X97082380Y-75001523D02*
X97082380Y-75192000D01*
X97130000Y-75287238D01*
X97177619Y-75334857D01*
X97320476Y-75430095D01*
X97510952Y-75477714D01*
X97891904Y-75477714D01*
X97987142Y-75430095D01*
X98034761Y-75382476D01*
X98082380Y-75287238D01*
X98082380Y-75096761D01*
X98034761Y-75001523D01*
X97987142Y-74953904D01*
X97891904Y-74906285D01*
X97653809Y-74906285D01*
X97558571Y-74953904D01*
X97510952Y-75001523D01*
X97463333Y-75096761D01*
X97463333Y-75287238D01*
X97510952Y-75382476D01*
X97558571Y-75430095D01*
X97653809Y-75477714D01*
%TO.C,D7*%
X101892380Y-76430095D02*
X100892380Y-76430095D01*
X100892380Y-76192000D01*
X100940000Y-76049142D01*
X101035238Y-75953904D01*
X101130476Y-75906285D01*
X101320952Y-75858666D01*
X101463809Y-75858666D01*
X101654285Y-75906285D01*
X101749523Y-75953904D01*
X101844761Y-76049142D01*
X101892380Y-76192000D01*
X101892380Y-76430095D01*
X100892380Y-75525333D02*
X100892380Y-74858666D01*
X101892380Y-75287238D01*
%TO.C,D8*%
X105702380Y-76430095D02*
X104702380Y-76430095D01*
X104702380Y-76192000D01*
X104750000Y-76049142D01*
X104845238Y-75953904D01*
X104940476Y-75906285D01*
X105130952Y-75858666D01*
X105273809Y-75858666D01*
X105464285Y-75906285D01*
X105559523Y-75953904D01*
X105654761Y-76049142D01*
X105702380Y-76192000D01*
X105702380Y-76430095D01*
X105130952Y-75287238D02*
X105083333Y-75382476D01*
X105035714Y-75430095D01*
X104940476Y-75477714D01*
X104892857Y-75477714D01*
X104797619Y-75430095D01*
X104750000Y-75382476D01*
X104702380Y-75287238D01*
X104702380Y-75096761D01*
X104750000Y-75001523D01*
X104797619Y-74953904D01*
X104892857Y-74906285D01*
X104940476Y-74906285D01*
X105035714Y-74953904D01*
X105083333Y-75001523D01*
X105130952Y-75096761D01*
X105130952Y-75287238D01*
X105178571Y-75382476D01*
X105226190Y-75430095D01*
X105321428Y-75477714D01*
X105511904Y-75477714D01*
X105607142Y-75430095D01*
X105654761Y-75382476D01*
X105702380Y-75287238D01*
X105702380Y-75096761D01*
X105654761Y-75001523D01*
X105607142Y-74953904D01*
X105511904Y-74906285D01*
X105321428Y-74906285D01*
X105226190Y-74953904D01*
X105178571Y-75001523D01*
X105130952Y-75096761D01*
%TO.C,D9*%
X109512380Y-76430095D02*
X108512380Y-76430095D01*
X108512380Y-76192000D01*
X108560000Y-76049142D01*
X108655238Y-75953904D01*
X108750476Y-75906285D01*
X108940952Y-75858666D01*
X109083809Y-75858666D01*
X109274285Y-75906285D01*
X109369523Y-75953904D01*
X109464761Y-76049142D01*
X109512380Y-76192000D01*
X109512380Y-76430095D01*
X109512380Y-75382476D02*
X109512380Y-75192000D01*
X109464761Y-75096761D01*
X109417142Y-75049142D01*
X109274285Y-74953904D01*
X109083809Y-74906285D01*
X108702857Y-74906285D01*
X108607619Y-74953904D01*
X108560000Y-75001523D01*
X108512380Y-75096761D01*
X108512380Y-75287238D01*
X108560000Y-75382476D01*
X108607619Y-75430095D01*
X108702857Y-75477714D01*
X108940952Y-75477714D01*
X109036190Y-75430095D01*
X109083809Y-75382476D01*
X109131428Y-75287238D01*
X109131428Y-75096761D01*
X109083809Y-75001523D01*
X109036190Y-74953904D01*
X108940952Y-74906285D01*
%TO.C,D10*%
X113322380Y-76906285D02*
X112322380Y-76906285D01*
X112322380Y-76668190D01*
X112370000Y-76525333D01*
X112465238Y-76430095D01*
X112560476Y-76382476D01*
X112750952Y-76334857D01*
X112893809Y-76334857D01*
X113084285Y-76382476D01*
X113179523Y-76430095D01*
X113274761Y-76525333D01*
X113322380Y-76668190D01*
X113322380Y-76906285D01*
X113322380Y-75382476D02*
X113322380Y-75953904D01*
X113322380Y-75668190D02*
X112322380Y-75668190D01*
X112465238Y-75763428D01*
X112560476Y-75858666D01*
X112608095Y-75953904D01*
X112322380Y-74763428D02*
X112322380Y-74668190D01*
X112370000Y-74572952D01*
X112417619Y-74525333D01*
X112512857Y-74477714D01*
X112703333Y-74430095D01*
X112941428Y-74430095D01*
X113131904Y-74477714D01*
X113227142Y-74525333D01*
X113274761Y-74572952D01*
X113322380Y-74668190D01*
X113322380Y-74763428D01*
X113274761Y-74858666D01*
X113227142Y-74906285D01*
X113131904Y-74953904D01*
X112941428Y-75001523D01*
X112703333Y-75001523D01*
X112512857Y-74953904D01*
X112417619Y-74906285D01*
X112370000Y-74858666D01*
X112322380Y-74763428D01*
%TO.C,D11*%
X117132380Y-76906285D02*
X116132380Y-76906285D01*
X116132380Y-76668190D01*
X116180000Y-76525333D01*
X116275238Y-76430095D01*
X116370476Y-76382476D01*
X116560952Y-76334857D01*
X116703809Y-76334857D01*
X116894285Y-76382476D01*
X116989523Y-76430095D01*
X117084761Y-76525333D01*
X117132380Y-76668190D01*
X117132380Y-76906285D01*
X117132380Y-75382476D02*
X117132380Y-75953904D01*
X117132380Y-75668190D02*
X116132380Y-75668190D01*
X116275238Y-75763428D01*
X116370476Y-75858666D01*
X116418095Y-75953904D01*
X117132380Y-74430095D02*
X117132380Y-75001523D01*
X117132380Y-74715809D02*
X116132380Y-74715809D01*
X116275238Y-74811047D01*
X116370476Y-74906285D01*
X116418095Y-75001523D01*
%TO.C,D12*%
X120942380Y-76906285D02*
X119942380Y-76906285D01*
X119942380Y-76668190D01*
X119990000Y-76525333D01*
X120085238Y-76430095D01*
X120180476Y-76382476D01*
X120370952Y-76334857D01*
X120513809Y-76334857D01*
X120704285Y-76382476D01*
X120799523Y-76430095D01*
X120894761Y-76525333D01*
X120942380Y-76668190D01*
X120942380Y-76906285D01*
X120942380Y-75382476D02*
X120942380Y-75953904D01*
X120942380Y-75668190D02*
X119942380Y-75668190D01*
X120085238Y-75763428D01*
X120180476Y-75858666D01*
X120228095Y-75953904D01*
X120037619Y-75001523D02*
X119990000Y-74953904D01*
X119942380Y-74858666D01*
X119942380Y-74620571D01*
X119990000Y-74525333D01*
X120037619Y-74477714D01*
X120132857Y-74430095D01*
X120228095Y-74430095D01*
X120370952Y-74477714D01*
X120942380Y-75049142D01*
X120942380Y-74430095D01*
%TO.C,R1*%
X53427333Y-70716380D02*
X53094000Y-70240190D01*
X52855904Y-70716380D02*
X52855904Y-69716380D01*
X53236857Y-69716380D01*
X53332095Y-69764000D01*
X53379714Y-69811619D01*
X53427333Y-69906857D01*
X53427333Y-70049714D01*
X53379714Y-70144952D01*
X53332095Y-70192571D01*
X53236857Y-70240190D01*
X52855904Y-70240190D01*
X54379714Y-70716380D02*
X53808285Y-70716380D01*
X54094000Y-70716380D02*
X54094000Y-69716380D01*
X53998761Y-69859238D01*
X53903523Y-69954476D01*
X53808285Y-70002095D01*
%TO.C,R2*%
X35156380Y-67730666D02*
X34680190Y-68064000D01*
X35156380Y-68302095D02*
X34156380Y-68302095D01*
X34156380Y-67921142D01*
X34204000Y-67825904D01*
X34251619Y-67778285D01*
X34346857Y-67730666D01*
X34489714Y-67730666D01*
X34584952Y-67778285D01*
X34632571Y-67825904D01*
X34680190Y-67921142D01*
X34680190Y-68302095D01*
X34251619Y-67349714D02*
X34204000Y-67302095D01*
X34156380Y-67206857D01*
X34156380Y-66968761D01*
X34204000Y-66873523D01*
X34251619Y-66825904D01*
X34346857Y-66778285D01*
X34442095Y-66778285D01*
X34584952Y-66825904D01*
X35156380Y-67397333D01*
X35156380Y-66778285D01*
%TO.C,R3*%
X29756380Y-67730666D02*
X29280190Y-68064000D01*
X29756380Y-68302095D02*
X28756380Y-68302095D01*
X28756380Y-67921142D01*
X28804000Y-67825904D01*
X28851619Y-67778285D01*
X28946857Y-67730666D01*
X29089714Y-67730666D01*
X29184952Y-67778285D01*
X29232571Y-67825904D01*
X29280190Y-67921142D01*
X29280190Y-68302095D01*
X28756380Y-67397333D02*
X28756380Y-66778285D01*
X29137333Y-67111619D01*
X29137333Y-66968761D01*
X29184952Y-66873523D01*
X29232571Y-66825904D01*
X29327809Y-66778285D01*
X29565904Y-66778285D01*
X29661142Y-66825904D01*
X29708761Y-66873523D01*
X29756380Y-66968761D01*
X29756380Y-67254476D01*
X29708761Y-67349714D01*
X29661142Y-67397333D01*
%TO.C,R4*%
X105092833Y-59159380D02*
X104759500Y-58683190D01*
X104521404Y-59159380D02*
X104521404Y-58159380D01*
X104902357Y-58159380D01*
X104997595Y-58207000D01*
X105045214Y-58254619D01*
X105092833Y-58349857D01*
X105092833Y-58492714D01*
X105045214Y-58587952D01*
X104997595Y-58635571D01*
X104902357Y-58683190D01*
X104521404Y-58683190D01*
X105949976Y-58492714D02*
X105949976Y-59159380D01*
X105711880Y-58111761D02*
X105473785Y-58826047D01*
X106092833Y-58826047D01*
%TO.C,R5*%
X104989333Y-63223380D02*
X104656000Y-62747190D01*
X104417904Y-63223380D02*
X104417904Y-62223380D01*
X104798857Y-62223380D01*
X104894095Y-62271000D01*
X104941714Y-62318619D01*
X104989333Y-62413857D01*
X104989333Y-62556714D01*
X104941714Y-62651952D01*
X104894095Y-62699571D01*
X104798857Y-62747190D01*
X104417904Y-62747190D01*
X105894095Y-62223380D02*
X105417904Y-62223380D01*
X105370285Y-62699571D01*
X105417904Y-62651952D01*
X105513142Y-62604333D01*
X105751238Y-62604333D01*
X105846476Y-62651952D01*
X105894095Y-62699571D01*
X105941714Y-62794809D01*
X105941714Y-63032904D01*
X105894095Y-63128142D01*
X105846476Y-63175761D01*
X105751238Y-63223380D01*
X105513142Y-63223380D01*
X105417904Y-63175761D01*
X105370285Y-63128142D01*
%TO.C,R6*%
X121551980Y-66103166D02*
X121075790Y-66436500D01*
X121551980Y-66674595D02*
X120551980Y-66674595D01*
X120551980Y-66293642D01*
X120599600Y-66198404D01*
X120647219Y-66150785D01*
X120742457Y-66103166D01*
X120885314Y-66103166D01*
X120980552Y-66150785D01*
X121028171Y-66198404D01*
X121075790Y-66293642D01*
X121075790Y-66674595D01*
X120551980Y-65246023D02*
X120551980Y-65436500D01*
X120599600Y-65531738D01*
X120647219Y-65579357D01*
X120790076Y-65674595D01*
X120980552Y-65722214D01*
X121361504Y-65722214D01*
X121456742Y-65674595D01*
X121504361Y-65626976D01*
X121551980Y-65531738D01*
X121551980Y-65341261D01*
X121504361Y-65246023D01*
X121456742Y-65198404D01*
X121361504Y-65150785D01*
X121123409Y-65150785D01*
X121028171Y-65198404D01*
X120980552Y-65246023D01*
X120932933Y-65341261D01*
X120932933Y-65531738D01*
X120980552Y-65626976D01*
X121028171Y-65674595D01*
X121123409Y-65722214D01*
%TO.C,R7*%
X127849333Y-54902380D02*
X127516000Y-54426190D01*
X127277904Y-54902380D02*
X127277904Y-53902380D01*
X127658857Y-53902380D01*
X127754095Y-53950000D01*
X127801714Y-53997619D01*
X127849333Y-54092857D01*
X127849333Y-54235714D01*
X127801714Y-54330952D01*
X127754095Y-54378571D01*
X127658857Y-54426190D01*
X127277904Y-54426190D01*
X128182666Y-53902380D02*
X128849333Y-53902380D01*
X128420761Y-54902380D01*
%TO.C,R8*%
X127849333Y-64300380D02*
X127516000Y-63824190D01*
X127277904Y-64300380D02*
X127277904Y-63300380D01*
X127658857Y-63300380D01*
X127754095Y-63348000D01*
X127801714Y-63395619D01*
X127849333Y-63490857D01*
X127849333Y-63633714D01*
X127801714Y-63728952D01*
X127754095Y-63776571D01*
X127658857Y-63824190D01*
X127277904Y-63824190D01*
X128420761Y-63728952D02*
X128325523Y-63681333D01*
X128277904Y-63633714D01*
X128230285Y-63538476D01*
X128230285Y-63490857D01*
X128277904Y-63395619D01*
X128325523Y-63348000D01*
X128420761Y-63300380D01*
X128611238Y-63300380D01*
X128706476Y-63348000D01*
X128754095Y-63395619D01*
X128801714Y-63490857D01*
X128801714Y-63538476D01*
X128754095Y-63633714D01*
X128706476Y-63681333D01*
X128611238Y-63728952D01*
X128420761Y-63728952D01*
X128325523Y-63776571D01*
X128277904Y-63824190D01*
X128230285Y-63919428D01*
X128230285Y-64109904D01*
X128277904Y-64205142D01*
X128325523Y-64252761D01*
X128420761Y-64300380D01*
X128611238Y-64300380D01*
X128706476Y-64252761D01*
X128754095Y-64205142D01*
X128801714Y-64109904D01*
X128801714Y-63919428D01*
X128754095Y-63824190D01*
X128706476Y-63776571D01*
X128611238Y-63728952D01*
%TO.C,R9*%
X120754380Y-64936666D02*
X120278190Y-65270000D01*
X120754380Y-65508095D02*
X119754380Y-65508095D01*
X119754380Y-65127142D01*
X119802000Y-65031904D01*
X119849619Y-64984285D01*
X119944857Y-64936666D01*
X120087714Y-64936666D01*
X120182952Y-64984285D01*
X120230571Y-65031904D01*
X120278190Y-65127142D01*
X120278190Y-65508095D01*
X120754380Y-64460476D02*
X120754380Y-64270000D01*
X120706761Y-64174761D01*
X120659142Y-64127142D01*
X120516285Y-64031904D01*
X120325809Y-63984285D01*
X119944857Y-63984285D01*
X119849619Y-64031904D01*
X119802000Y-64079523D01*
X119754380Y-64174761D01*
X119754380Y-64365238D01*
X119802000Y-64460476D01*
X119849619Y-64508095D01*
X119944857Y-64555714D01*
X120182952Y-64555714D01*
X120278190Y-64508095D01*
X120325809Y-64460476D01*
X120373428Y-64365238D01*
X120373428Y-64174761D01*
X120325809Y-64079523D01*
X120278190Y-64031904D01*
X120182952Y-63984285D01*
%TO.C,R10*%
X127373142Y-61760380D02*
X127039809Y-61284190D01*
X126801714Y-61760380D02*
X126801714Y-60760380D01*
X127182666Y-60760380D01*
X127277904Y-60808000D01*
X127325523Y-60855619D01*
X127373142Y-60950857D01*
X127373142Y-61093714D01*
X127325523Y-61188952D01*
X127277904Y-61236571D01*
X127182666Y-61284190D01*
X126801714Y-61284190D01*
X128325523Y-61760380D02*
X127754095Y-61760380D01*
X128039809Y-61760380D02*
X128039809Y-60760380D01*
X127944571Y-60903238D01*
X127849333Y-60998476D01*
X127754095Y-61046095D01*
X128944571Y-60760380D02*
X129039809Y-60760380D01*
X129135047Y-60808000D01*
X129182666Y-60855619D01*
X129230285Y-60950857D01*
X129277904Y-61141333D01*
X129277904Y-61379428D01*
X129230285Y-61569904D01*
X129182666Y-61665142D01*
X129135047Y-61712761D01*
X129039809Y-61760380D01*
X128944571Y-61760380D01*
X128849333Y-61712761D01*
X128801714Y-61665142D01*
X128754095Y-61569904D01*
X128706476Y-61379428D01*
X128706476Y-61141333D01*
X128754095Y-60950857D01*
X128801714Y-60855619D01*
X128849333Y-60808000D01*
X128944571Y-60760380D01*
%TO.C,R11*%
X81892380Y-72524857D02*
X81416190Y-72858190D01*
X81892380Y-73096285D02*
X80892380Y-73096285D01*
X80892380Y-72715333D01*
X80940000Y-72620095D01*
X80987619Y-72572476D01*
X81082857Y-72524857D01*
X81225714Y-72524857D01*
X81320952Y-72572476D01*
X81368571Y-72620095D01*
X81416190Y-72715333D01*
X81416190Y-73096285D01*
X81892380Y-71572476D02*
X81892380Y-72143904D01*
X81892380Y-71858190D02*
X80892380Y-71858190D01*
X81035238Y-71953428D01*
X81130476Y-72048666D01*
X81178095Y-72143904D01*
X81892380Y-70620095D02*
X81892380Y-71191523D01*
X81892380Y-70905809D02*
X80892380Y-70905809D01*
X81035238Y-71001047D01*
X81130476Y-71096285D01*
X81178095Y-71191523D01*
%TO.C,R12*%
X85702380Y-72524857D02*
X85226190Y-72858190D01*
X85702380Y-73096285D02*
X84702380Y-73096285D01*
X84702380Y-72715333D01*
X84750000Y-72620095D01*
X84797619Y-72572476D01*
X84892857Y-72524857D01*
X85035714Y-72524857D01*
X85130952Y-72572476D01*
X85178571Y-72620095D01*
X85226190Y-72715333D01*
X85226190Y-73096285D01*
X85702380Y-71572476D02*
X85702380Y-72143904D01*
X85702380Y-71858190D02*
X84702380Y-71858190D01*
X84845238Y-71953428D01*
X84940476Y-72048666D01*
X84988095Y-72143904D01*
X84797619Y-71191523D02*
X84750000Y-71143904D01*
X84702380Y-71048666D01*
X84702380Y-70810571D01*
X84750000Y-70715333D01*
X84797619Y-70667714D01*
X84892857Y-70620095D01*
X84988095Y-70620095D01*
X85130952Y-70667714D01*
X85702380Y-71239142D01*
X85702380Y-70620095D01*
%TO.C,R13*%
X89512380Y-72524857D02*
X89036190Y-72858190D01*
X89512380Y-73096285D02*
X88512380Y-73096285D01*
X88512380Y-72715333D01*
X88560000Y-72620095D01*
X88607619Y-72572476D01*
X88702857Y-72524857D01*
X88845714Y-72524857D01*
X88940952Y-72572476D01*
X88988571Y-72620095D01*
X89036190Y-72715333D01*
X89036190Y-73096285D01*
X89512380Y-71572476D02*
X89512380Y-72143904D01*
X89512380Y-71858190D02*
X88512380Y-71858190D01*
X88655238Y-71953428D01*
X88750476Y-72048666D01*
X88798095Y-72143904D01*
X88512380Y-71239142D02*
X88512380Y-70620095D01*
X88893333Y-70953428D01*
X88893333Y-70810571D01*
X88940952Y-70715333D01*
X88988571Y-70667714D01*
X89083809Y-70620095D01*
X89321904Y-70620095D01*
X89417142Y-70667714D01*
X89464761Y-70715333D01*
X89512380Y-70810571D01*
X89512380Y-71096285D01*
X89464761Y-71191523D01*
X89417142Y-71239142D01*
%TO.C,R14*%
X93322380Y-72524857D02*
X92846190Y-72858190D01*
X93322380Y-73096285D02*
X92322380Y-73096285D01*
X92322380Y-72715333D01*
X92370000Y-72620095D01*
X92417619Y-72572476D01*
X92512857Y-72524857D01*
X92655714Y-72524857D01*
X92750952Y-72572476D01*
X92798571Y-72620095D01*
X92846190Y-72715333D01*
X92846190Y-73096285D01*
X93322380Y-71572476D02*
X93322380Y-72143904D01*
X93322380Y-71858190D02*
X92322380Y-71858190D01*
X92465238Y-71953428D01*
X92560476Y-72048666D01*
X92608095Y-72143904D01*
X92655714Y-70715333D02*
X93322380Y-70715333D01*
X92274761Y-70953428D02*
X92989047Y-71191523D01*
X92989047Y-70572476D01*
%TO.C,R15*%
X97132380Y-72524857D02*
X96656190Y-72858190D01*
X97132380Y-73096285D02*
X96132380Y-73096285D01*
X96132380Y-72715333D01*
X96180000Y-72620095D01*
X96227619Y-72572476D01*
X96322857Y-72524857D01*
X96465714Y-72524857D01*
X96560952Y-72572476D01*
X96608571Y-72620095D01*
X96656190Y-72715333D01*
X96656190Y-73096285D01*
X97132380Y-71572476D02*
X97132380Y-72143904D01*
X97132380Y-71858190D02*
X96132380Y-71858190D01*
X96275238Y-71953428D01*
X96370476Y-72048666D01*
X96418095Y-72143904D01*
X96132380Y-70667714D02*
X96132380Y-71143904D01*
X96608571Y-71191523D01*
X96560952Y-71143904D01*
X96513333Y-71048666D01*
X96513333Y-70810571D01*
X96560952Y-70715333D01*
X96608571Y-70667714D01*
X96703809Y-70620095D01*
X96941904Y-70620095D01*
X97037142Y-70667714D01*
X97084761Y-70715333D01*
X97132380Y-70810571D01*
X97132380Y-71048666D01*
X97084761Y-71143904D01*
X97037142Y-71191523D01*
%TO.C,R16*%
X100942380Y-72524857D02*
X100466190Y-72858190D01*
X100942380Y-73096285D02*
X99942380Y-73096285D01*
X99942380Y-72715333D01*
X99990000Y-72620095D01*
X100037619Y-72572476D01*
X100132857Y-72524857D01*
X100275714Y-72524857D01*
X100370952Y-72572476D01*
X100418571Y-72620095D01*
X100466190Y-72715333D01*
X100466190Y-73096285D01*
X100942380Y-71572476D02*
X100942380Y-72143904D01*
X100942380Y-71858190D02*
X99942380Y-71858190D01*
X100085238Y-71953428D01*
X100180476Y-72048666D01*
X100228095Y-72143904D01*
X99942380Y-70715333D02*
X99942380Y-70905809D01*
X99990000Y-71001047D01*
X100037619Y-71048666D01*
X100180476Y-71143904D01*
X100370952Y-71191523D01*
X100751904Y-71191523D01*
X100847142Y-71143904D01*
X100894761Y-71096285D01*
X100942380Y-71001047D01*
X100942380Y-70810571D01*
X100894761Y-70715333D01*
X100847142Y-70667714D01*
X100751904Y-70620095D01*
X100513809Y-70620095D01*
X100418571Y-70667714D01*
X100370952Y-70715333D01*
X100323333Y-70810571D01*
X100323333Y-71001047D01*
X100370952Y-71096285D01*
X100418571Y-71143904D01*
X100513809Y-71191523D01*
%TO.C,R17*%
X104752380Y-72524857D02*
X104276190Y-72858190D01*
X104752380Y-73096285D02*
X103752380Y-73096285D01*
X103752380Y-72715333D01*
X103800000Y-72620095D01*
X103847619Y-72572476D01*
X103942857Y-72524857D01*
X104085714Y-72524857D01*
X104180952Y-72572476D01*
X104228571Y-72620095D01*
X104276190Y-72715333D01*
X104276190Y-73096285D01*
X104752380Y-71572476D02*
X104752380Y-72143904D01*
X104752380Y-71858190D02*
X103752380Y-71858190D01*
X103895238Y-71953428D01*
X103990476Y-72048666D01*
X104038095Y-72143904D01*
X103752380Y-71239142D02*
X103752380Y-70572476D01*
X104752380Y-71001047D01*
%TO.C,R18*%
X108562380Y-72524857D02*
X108086190Y-72858190D01*
X108562380Y-73096285D02*
X107562380Y-73096285D01*
X107562380Y-72715333D01*
X107610000Y-72620095D01*
X107657619Y-72572476D01*
X107752857Y-72524857D01*
X107895714Y-72524857D01*
X107990952Y-72572476D01*
X108038571Y-72620095D01*
X108086190Y-72715333D01*
X108086190Y-73096285D01*
X108562380Y-71572476D02*
X108562380Y-72143904D01*
X108562380Y-71858190D02*
X107562380Y-71858190D01*
X107705238Y-71953428D01*
X107800476Y-72048666D01*
X107848095Y-72143904D01*
X107990952Y-71001047D02*
X107943333Y-71096285D01*
X107895714Y-71143904D01*
X107800476Y-71191523D01*
X107752857Y-71191523D01*
X107657619Y-71143904D01*
X107610000Y-71096285D01*
X107562380Y-71001047D01*
X107562380Y-70810571D01*
X107610000Y-70715333D01*
X107657619Y-70667714D01*
X107752857Y-70620095D01*
X107800476Y-70620095D01*
X107895714Y-70667714D01*
X107943333Y-70715333D01*
X107990952Y-70810571D01*
X107990952Y-71001047D01*
X108038571Y-71096285D01*
X108086190Y-71143904D01*
X108181428Y-71191523D01*
X108371904Y-71191523D01*
X108467142Y-71143904D01*
X108514761Y-71096285D01*
X108562380Y-71001047D01*
X108562380Y-70810571D01*
X108514761Y-70715333D01*
X108467142Y-70667714D01*
X108371904Y-70620095D01*
X108181428Y-70620095D01*
X108086190Y-70667714D01*
X108038571Y-70715333D01*
X107990952Y-70810571D01*
%TO.C,R19*%
X112372380Y-72524857D02*
X111896190Y-72858190D01*
X112372380Y-73096285D02*
X111372380Y-73096285D01*
X111372380Y-72715333D01*
X111420000Y-72620095D01*
X111467619Y-72572476D01*
X111562857Y-72524857D01*
X111705714Y-72524857D01*
X111800952Y-72572476D01*
X111848571Y-72620095D01*
X111896190Y-72715333D01*
X111896190Y-73096285D01*
X112372380Y-71572476D02*
X112372380Y-72143904D01*
X112372380Y-71858190D02*
X111372380Y-71858190D01*
X111515238Y-71953428D01*
X111610476Y-72048666D01*
X111658095Y-72143904D01*
X112372380Y-71096285D02*
X112372380Y-70905809D01*
X112324761Y-70810571D01*
X112277142Y-70762952D01*
X112134285Y-70667714D01*
X111943809Y-70620095D01*
X111562857Y-70620095D01*
X111467619Y-70667714D01*
X111420000Y-70715333D01*
X111372380Y-70810571D01*
X111372380Y-71001047D01*
X111420000Y-71096285D01*
X111467619Y-71143904D01*
X111562857Y-71191523D01*
X111800952Y-71191523D01*
X111896190Y-71143904D01*
X111943809Y-71096285D01*
X111991428Y-71001047D01*
X111991428Y-70810571D01*
X111943809Y-70715333D01*
X111896190Y-70667714D01*
X111800952Y-70620095D01*
%TO.C,R20*%
X116182380Y-72524857D02*
X115706190Y-72858190D01*
X116182380Y-73096285D02*
X115182380Y-73096285D01*
X115182380Y-72715333D01*
X115230000Y-72620095D01*
X115277619Y-72572476D01*
X115372857Y-72524857D01*
X115515714Y-72524857D01*
X115610952Y-72572476D01*
X115658571Y-72620095D01*
X115706190Y-72715333D01*
X115706190Y-73096285D01*
X115277619Y-72143904D02*
X115230000Y-72096285D01*
X115182380Y-72001047D01*
X115182380Y-71762952D01*
X115230000Y-71667714D01*
X115277619Y-71620095D01*
X115372857Y-71572476D01*
X115468095Y-71572476D01*
X115610952Y-71620095D01*
X116182380Y-72191523D01*
X116182380Y-71572476D01*
X115182380Y-70953428D02*
X115182380Y-70858190D01*
X115230000Y-70762952D01*
X115277619Y-70715333D01*
X115372857Y-70667714D01*
X115563333Y-70620095D01*
X115801428Y-70620095D01*
X115991904Y-70667714D01*
X116087142Y-70715333D01*
X116134761Y-70762952D01*
X116182380Y-70858190D01*
X116182380Y-70953428D01*
X116134761Y-71048666D01*
X116087142Y-71096285D01*
X115991904Y-71143904D01*
X115801428Y-71191523D01*
X115563333Y-71191523D01*
X115372857Y-71143904D01*
X115277619Y-71096285D01*
X115230000Y-71048666D01*
X115182380Y-70953428D01*
%TO.C,R21*%
X119992380Y-72524857D02*
X119516190Y-72858190D01*
X119992380Y-73096285D02*
X118992380Y-73096285D01*
X118992380Y-72715333D01*
X119040000Y-72620095D01*
X119087619Y-72572476D01*
X119182857Y-72524857D01*
X119325714Y-72524857D01*
X119420952Y-72572476D01*
X119468571Y-72620095D01*
X119516190Y-72715333D01*
X119516190Y-73096285D01*
X119087619Y-72143904D02*
X119040000Y-72096285D01*
X118992380Y-72001047D01*
X118992380Y-71762952D01*
X119040000Y-71667714D01*
X119087619Y-71620095D01*
X119182857Y-71572476D01*
X119278095Y-71572476D01*
X119420952Y-71620095D01*
X119992380Y-72191523D01*
X119992380Y-71572476D01*
X119992380Y-70620095D02*
X119992380Y-71191523D01*
X119992380Y-70905809D02*
X118992380Y-70905809D01*
X119135238Y-71001047D01*
X119230476Y-71096285D01*
X119278095Y-71191523D01*
%TO.C,R22*%
X123802380Y-72524857D02*
X123326190Y-72858190D01*
X123802380Y-73096285D02*
X122802380Y-73096285D01*
X122802380Y-72715333D01*
X122850000Y-72620095D01*
X122897619Y-72572476D01*
X122992857Y-72524857D01*
X123135714Y-72524857D01*
X123230952Y-72572476D01*
X123278571Y-72620095D01*
X123326190Y-72715333D01*
X123326190Y-73096285D01*
X122897619Y-72143904D02*
X122850000Y-72096285D01*
X122802380Y-72001047D01*
X122802380Y-71762952D01*
X122850000Y-71667714D01*
X122897619Y-71620095D01*
X122992857Y-71572476D01*
X123088095Y-71572476D01*
X123230952Y-71620095D01*
X123802380Y-72191523D01*
X123802380Y-71572476D01*
X122897619Y-71191523D02*
X122850000Y-71143904D01*
X122802380Y-71048666D01*
X122802380Y-70810571D01*
X122850000Y-70715333D01*
X122897619Y-70667714D01*
X122992857Y-70620095D01*
X123088095Y-70620095D01*
X123230952Y-70667714D01*
X123802380Y-71239142D01*
X123802380Y-70620095D01*
%TO.C,U1*%
X62412857Y-55586380D02*
X62603333Y-55586380D01*
X62698571Y-55634000D01*
X62793809Y-55729238D01*
X62841428Y-55919714D01*
X62841428Y-56253047D01*
X62793809Y-56443523D01*
X62698571Y-56538761D01*
X62603333Y-56586380D01*
X62412857Y-56586380D01*
X62317619Y-56538761D01*
X62222380Y-56443523D01*
X62174761Y-56253047D01*
X62174761Y-55919714D01*
X62222380Y-55729238D01*
X62317619Y-55634000D01*
X62412857Y-55586380D01*
X63270000Y-56586380D02*
X63270000Y-55586380D01*
X63841428Y-56586380D02*
X63412857Y-56014952D01*
X63841428Y-55586380D02*
X63270000Y-56157809D01*
X64270000Y-56586380D02*
X64270000Y-55586380D01*
X64746190Y-56205428D02*
X65508095Y-56205428D01*
X66460476Y-55586380D02*
X65984285Y-55586380D01*
X65936666Y-56062571D01*
X65984285Y-56014952D01*
X66079523Y-55967333D01*
X66317619Y-55967333D01*
X66412857Y-56014952D01*
X66460476Y-56062571D01*
X66508095Y-56157809D01*
X66508095Y-56395904D01*
X66460476Y-56491142D01*
X66412857Y-56538761D01*
X66317619Y-56586380D01*
X66079523Y-56586380D01*
X65984285Y-56538761D01*
X65936666Y-56491142D01*
X66793809Y-55586380D02*
X67127142Y-56586380D01*
X67460476Y-55586380D01*
%TO.C,U4*%
X44156666Y-60158380D02*
X44347142Y-60158380D01*
X44442380Y-60206000D01*
X44537619Y-60301238D01*
X44585238Y-60491714D01*
X44585238Y-60825047D01*
X44537619Y-61015523D01*
X44442380Y-61110761D01*
X44347142Y-61158380D01*
X44156666Y-61158380D01*
X44061428Y-61110761D01*
X43966190Y-61015523D01*
X43918571Y-60825047D01*
X43918571Y-60491714D01*
X43966190Y-60301238D01*
X44061428Y-60206000D01*
X44156666Y-60158380D01*
X45013809Y-61158380D02*
X45013809Y-60158380D01*
X45585238Y-61158380D02*
X45156666Y-60586952D01*
X45585238Y-60158380D02*
X45013809Y-60729809D01*
X46013809Y-61158380D02*
X46013809Y-60158380D01*
X46490000Y-60777428D02*
X47251904Y-60777428D01*
X47632857Y-60158380D02*
X48251904Y-60158380D01*
X47918571Y-60539333D01*
X48061428Y-60539333D01*
X48156666Y-60586952D01*
X48204285Y-60634571D01*
X48251904Y-60729809D01*
X48251904Y-60967904D01*
X48204285Y-61063142D01*
X48156666Y-61110761D01*
X48061428Y-61158380D01*
X47775714Y-61158380D01*
X47680476Y-61110761D01*
X47632857Y-61063142D01*
X48537619Y-60158380D02*
X48870952Y-61158380D01*
X49204285Y-60158380D01*
X49442380Y-60158380D02*
X50061428Y-60158380D01*
X49728095Y-60539333D01*
X49870952Y-60539333D01*
X49966190Y-60586952D01*
X50013809Y-60634571D01*
X50061428Y-60729809D01*
X50061428Y-60967904D01*
X50013809Y-61063142D01*
X49966190Y-61110761D01*
X49870952Y-61158380D01*
X49585238Y-61158380D01*
X49490000Y-61110761D01*
X49442380Y-61063142D01*
%TO.C,U5*%
D19*
X66488999Y-51105557D02*
X67299434Y-51105557D01*
X67394780Y-51057885D01*
X67442452Y-51010212D01*
X67490125Y-50914867D01*
X67490125Y-50724176D01*
X67442452Y-50628831D01*
X67394780Y-50581158D01*
X67299434Y-50533485D01*
X66488999Y-50533485D01*
X66488999Y-49580032D02*
X66488999Y-50056759D01*
X66965726Y-50104431D01*
X66918053Y-50056759D01*
X66870380Y-49961413D01*
X66870380Y-49723050D01*
X66918053Y-49627705D01*
X66965726Y-49580032D01*
X67061071Y-49532359D01*
X67299434Y-49532359D01*
X67394780Y-49580032D01*
X67442452Y-49627705D01*
X67490125Y-49723050D01*
X67490125Y-49961413D01*
X67442452Y-50056759D01*
X67394780Y-50104431D01*
%TO.C,U2*%
X99227095Y-43993180D02*
X99227095Y-44802704D01*
X99274714Y-44897942D01*
X99322333Y-44945561D01*
X99417571Y-44993180D01*
X99608047Y-44993180D01*
X99703285Y-44945561D01*
X99750904Y-44897942D01*
X99798523Y-44802704D01*
X99798523Y-43993180D01*
X100227095Y-44088419D02*
X100274714Y-44040800D01*
X100369952Y-43993180D01*
X100608047Y-43993180D01*
X100703285Y-44040800D01*
X100750904Y-44088419D01*
X100798523Y-44183657D01*
X100798523Y-44278895D01*
X100750904Y-44421752D01*
X100179476Y-44993180D01*
X100798523Y-44993180D01*
%TO.C,U3*%
X113287678Y-63526362D02*
X114098018Y-63526362D01*
X114193352Y-63478695D01*
X114241019Y-63431028D01*
X114288686Y-63335694D01*
X114288686Y-63145026D01*
X114241019Y-63049692D01*
X114193352Y-63002025D01*
X114098018Y-62954358D01*
X113287678Y-62954358D01*
X113287678Y-62573021D02*
X113287678Y-61953350D01*
X113669015Y-62287019D01*
X113669015Y-62144018D01*
X113716682Y-62048684D01*
X113764349Y-62001017D01*
X113859683Y-61953350D01*
X114098018Y-61953350D01*
X114193352Y-62001017D01*
X114241019Y-62048684D01*
X114288686Y-62144018D01*
X114288686Y-62430020D01*
X114241019Y-62525354D01*
X114193352Y-62573021D01*
%TD*%
M02*
