%TF.GenerationSoftware,KiCad,Pcbnew,(5.1.10)-1*%
%TF.CreationDate,2021-11-18T18:33:26-06:00*%
%TF.ProjectId,NavBoard_Hardware,4e617642-6f61-4726-945f-486172647761,rev?*%
%TF.SameCoordinates,Original*%
%TF.FileFunction,Legend,Bot*%
%TF.FilePolarity,Positive*%
%FSLAX46Y46*%
G04 Gerber Fmt 4.6, Leading zero omitted, Abs format (unit mm)*
G04 Created by KiCad (PCBNEW (5.1.10)-1) date 2021-11-18 18:33:26*
%MOMM*%
%LPD*%
G01*
G04 APERTURE LIST*
%ADD10C,0.010000*%
%ADD11C,0.150000*%
G04 APERTURE END LIST*
D10*
%TO.C,G\u002A\u002A\u002A*%
G36*
X62217424Y-108029851D02*
G01*
X62274112Y-108422895D01*
X62367147Y-108742909D01*
X62388283Y-108791721D01*
X62479062Y-108987617D01*
X62448589Y-108807475D01*
X62378275Y-108180514D01*
X62382956Y-107593266D01*
X62462345Y-107072407D01*
X62467683Y-107050900D01*
X62667287Y-106443939D01*
X62966385Y-105811445D01*
X63366734Y-105151260D01*
X63870090Y-104461226D01*
X64478210Y-103739187D01*
X65192848Y-102982985D01*
X66015762Y-102190461D01*
X66948708Y-101359460D01*
X67437208Y-100945370D01*
X67900537Y-100561738D01*
X68352352Y-100195233D01*
X68800956Y-99840114D01*
X69254651Y-99490635D01*
X69721738Y-99141054D01*
X70210522Y-98785627D01*
X70729303Y-98418611D01*
X71286385Y-98034263D01*
X71890069Y-97626839D01*
X72548658Y-97190595D01*
X73270456Y-96719789D01*
X74063762Y-96208677D01*
X74936882Y-95651516D01*
X75898115Y-95042561D01*
X76709802Y-94530814D01*
X78591653Y-93363828D01*
X80457233Y-92241399D01*
X82276429Y-91181571D01*
X82744553Y-90914840D01*
X83167497Y-90673788D01*
X83653941Y-90394520D01*
X84164059Y-90100028D01*
X84658026Y-89813301D01*
X85088537Y-89561722D01*
X85518080Y-89311145D01*
X85993774Y-89036275D01*
X86478609Y-88758327D01*
X86935574Y-88498515D01*
X87327658Y-88278054D01*
X87340310Y-88271000D01*
X87680850Y-88080868D01*
X88002831Y-87900496D01*
X88284914Y-87741883D01*
X88505757Y-87617032D01*
X88644020Y-87537941D01*
X88648301Y-87535451D01*
X88907604Y-87384400D01*
X88288017Y-87151285D01*
X87981591Y-87029018D01*
X87629663Y-86877008D01*
X87247195Y-86702882D01*
X86849146Y-86514266D01*
X86450479Y-86318786D01*
X86066154Y-86124068D01*
X85711131Y-85937737D01*
X85400372Y-85767420D01*
X85148836Y-85620744D01*
X84971486Y-85505333D01*
X84883282Y-85428813D01*
X84876232Y-85412189D01*
X84926435Y-85371842D01*
X85065647Y-85285232D01*
X85276771Y-85162349D01*
X85542712Y-85013185D01*
X85791953Y-84877048D01*
X86197431Y-84657228D01*
X86629458Y-84421514D01*
X87075131Y-84177083D01*
X87521544Y-83931115D01*
X87955795Y-83690789D01*
X88364979Y-83463282D01*
X88736192Y-83255774D01*
X89056530Y-83075443D01*
X89313089Y-82929469D01*
X89492966Y-82825029D01*
X89583255Y-82769302D01*
X89589943Y-82764175D01*
X89563584Y-82760010D01*
X89445196Y-82791928D01*
X89255203Y-82853862D01*
X89079542Y-82915803D01*
X88666213Y-83066232D01*
X88210251Y-83233446D01*
X87724387Y-83412666D01*
X87221350Y-83599114D01*
X86713870Y-83788009D01*
X86214678Y-83974571D01*
X85736503Y-84154023D01*
X85292076Y-84321583D01*
X84894127Y-84472473D01*
X84555385Y-84601913D01*
X84288581Y-84705124D01*
X84106445Y-84777326D01*
X84021706Y-84813739D01*
X84017557Y-84816315D01*
X84041038Y-84866963D01*
X84146151Y-84961957D01*
X84312002Y-85083109D01*
X84362829Y-85116868D01*
X84547943Y-85242117D01*
X84685736Y-85344202D01*
X84751895Y-85404854D01*
X84754420Y-85411100D01*
X84703302Y-85449119D01*
X84561060Y-85534590D01*
X84342808Y-85658967D01*
X84063661Y-85813703D01*
X83738735Y-85990253D01*
X83572174Y-86079579D01*
X83180502Y-86289941D01*
X82715115Y-86541799D01*
X82207191Y-86818165D01*
X81687905Y-87102048D01*
X81188435Y-87376458D01*
X80886775Y-87543024D01*
X80449202Y-87784810D01*
X79933965Y-88068831D01*
X79368833Y-88379820D01*
X78781578Y-88702511D01*
X78199968Y-89021638D01*
X77651774Y-89321935D01*
X77460393Y-89426626D01*
X76577601Y-89913188D01*
X75724233Y-90391106D01*
X74908973Y-90855202D01*
X74140508Y-91300300D01*
X73427521Y-91721222D01*
X72778698Y-92112792D01*
X72202725Y-92469833D01*
X71708286Y-92787167D01*
X71304066Y-93059618D01*
X71020343Y-93265407D01*
X70672764Y-93553665D01*
X70422859Y-93810752D01*
X70273007Y-94032408D01*
X70225587Y-94214371D01*
X70282977Y-94352382D01*
X70377639Y-94416513D01*
X70538040Y-94475958D01*
X70632342Y-94486189D01*
X70644934Y-94452358D01*
X70560208Y-94379621D01*
X70535850Y-94364273D01*
X70395110Y-94248401D01*
X70355775Y-94140746D01*
X70356030Y-94139320D01*
X70428061Y-94026471D01*
X70607927Y-93870179D01*
X70892261Y-93672341D01*
X71277690Y-93434858D01*
X71760847Y-93159628D01*
X72338360Y-92848550D01*
X73006861Y-92503523D01*
X73762979Y-92126447D01*
X74603345Y-91719219D01*
X74908383Y-91573889D01*
X75213362Y-91430763D01*
X75591135Y-91256070D01*
X76031817Y-91054207D01*
X76525528Y-90829569D01*
X77062384Y-90586551D01*
X77632504Y-90329549D01*
X78226004Y-90062959D01*
X78833003Y-89791175D01*
X79443618Y-89518594D01*
X80047967Y-89249611D01*
X80636167Y-88988622D01*
X81198335Y-88740022D01*
X81724591Y-88508206D01*
X82205050Y-88297571D01*
X82629831Y-88112511D01*
X82989051Y-87957423D01*
X83272828Y-87836702D01*
X83471279Y-87754743D01*
X83574522Y-87715942D01*
X83587235Y-87713668D01*
X83544268Y-87750430D01*
X83414791Y-87844570D01*
X83212171Y-87986776D01*
X82949773Y-88167736D01*
X82640964Y-88378136D01*
X82399034Y-88541518D01*
X81996807Y-88813877D01*
X81524845Y-89136325D01*
X80994906Y-89500631D01*
X80418749Y-89898566D01*
X79808132Y-90321898D01*
X79174815Y-90762398D01*
X78530557Y-91211834D01*
X77887117Y-91661976D01*
X77256253Y-92104594D01*
X76649725Y-92531457D01*
X76079291Y-92934336D01*
X75556711Y-93304998D01*
X75093742Y-93635215D01*
X74702146Y-93916755D01*
X74393679Y-94141388D01*
X74307910Y-94204760D01*
X72850368Y-95300895D01*
X71498197Y-96346230D01*
X70249034Y-97343033D01*
X69100515Y-98293570D01*
X68050278Y-99200108D01*
X67095960Y-100064912D01*
X66235196Y-100890250D01*
X65465623Y-101678388D01*
X64784879Y-102431592D01*
X64190600Y-103152129D01*
X63680423Y-103842266D01*
X63251983Y-104504269D01*
X62902919Y-105140404D01*
X62900839Y-105144591D01*
X62674533Y-105618777D01*
X62504647Y-106022361D01*
X62381344Y-106384906D01*
X62294786Y-106735973D01*
X62235138Y-107105126D01*
X62227351Y-107168547D01*
X62200648Y-107599746D01*
X62217424Y-108029851D01*
G37*
X62217424Y-108029851D02*
X62274112Y-108422895D01*
X62367147Y-108742909D01*
X62388283Y-108791721D01*
X62479062Y-108987617D01*
X62448589Y-108807475D01*
X62378275Y-108180514D01*
X62382956Y-107593266D01*
X62462345Y-107072407D01*
X62467683Y-107050900D01*
X62667287Y-106443939D01*
X62966385Y-105811445D01*
X63366734Y-105151260D01*
X63870090Y-104461226D01*
X64478210Y-103739187D01*
X65192848Y-102982985D01*
X66015762Y-102190461D01*
X66948708Y-101359460D01*
X67437208Y-100945370D01*
X67900537Y-100561738D01*
X68352352Y-100195233D01*
X68800956Y-99840114D01*
X69254651Y-99490635D01*
X69721738Y-99141054D01*
X70210522Y-98785627D01*
X70729303Y-98418611D01*
X71286385Y-98034263D01*
X71890069Y-97626839D01*
X72548658Y-97190595D01*
X73270456Y-96719789D01*
X74063762Y-96208677D01*
X74936882Y-95651516D01*
X75898115Y-95042561D01*
X76709802Y-94530814D01*
X78591653Y-93363828D01*
X80457233Y-92241399D01*
X82276429Y-91181571D01*
X82744553Y-90914840D01*
X83167497Y-90673788D01*
X83653941Y-90394520D01*
X84164059Y-90100028D01*
X84658026Y-89813301D01*
X85088537Y-89561722D01*
X85518080Y-89311145D01*
X85993774Y-89036275D01*
X86478609Y-88758327D01*
X86935574Y-88498515D01*
X87327658Y-88278054D01*
X87340310Y-88271000D01*
X87680850Y-88080868D01*
X88002831Y-87900496D01*
X88284914Y-87741883D01*
X88505757Y-87617032D01*
X88644020Y-87537941D01*
X88648301Y-87535451D01*
X88907604Y-87384400D01*
X88288017Y-87151285D01*
X87981591Y-87029018D01*
X87629663Y-86877008D01*
X87247195Y-86702882D01*
X86849146Y-86514266D01*
X86450479Y-86318786D01*
X86066154Y-86124068D01*
X85711131Y-85937737D01*
X85400372Y-85767420D01*
X85148836Y-85620744D01*
X84971486Y-85505333D01*
X84883282Y-85428813D01*
X84876232Y-85412189D01*
X84926435Y-85371842D01*
X85065647Y-85285232D01*
X85276771Y-85162349D01*
X85542712Y-85013185D01*
X85791953Y-84877048D01*
X86197431Y-84657228D01*
X86629458Y-84421514D01*
X87075131Y-84177083D01*
X87521544Y-83931115D01*
X87955795Y-83690789D01*
X88364979Y-83463282D01*
X88736192Y-83255774D01*
X89056530Y-83075443D01*
X89313089Y-82929469D01*
X89492966Y-82825029D01*
X89583255Y-82769302D01*
X89589943Y-82764175D01*
X89563584Y-82760010D01*
X89445196Y-82791928D01*
X89255203Y-82853862D01*
X89079542Y-82915803D01*
X88666213Y-83066232D01*
X88210251Y-83233446D01*
X87724387Y-83412666D01*
X87221350Y-83599114D01*
X86713870Y-83788009D01*
X86214678Y-83974571D01*
X85736503Y-84154023D01*
X85292076Y-84321583D01*
X84894127Y-84472473D01*
X84555385Y-84601913D01*
X84288581Y-84705124D01*
X84106445Y-84777326D01*
X84021706Y-84813739D01*
X84017557Y-84816315D01*
X84041038Y-84866963D01*
X84146151Y-84961957D01*
X84312002Y-85083109D01*
X84362829Y-85116868D01*
X84547943Y-85242117D01*
X84685736Y-85344202D01*
X84751895Y-85404854D01*
X84754420Y-85411100D01*
X84703302Y-85449119D01*
X84561060Y-85534590D01*
X84342808Y-85658967D01*
X84063661Y-85813703D01*
X83738735Y-85990253D01*
X83572174Y-86079579D01*
X83180502Y-86289941D01*
X82715115Y-86541799D01*
X82207191Y-86818165D01*
X81687905Y-87102048D01*
X81188435Y-87376458D01*
X80886775Y-87543024D01*
X80449202Y-87784810D01*
X79933965Y-88068831D01*
X79368833Y-88379820D01*
X78781578Y-88702511D01*
X78199968Y-89021638D01*
X77651774Y-89321935D01*
X77460393Y-89426626D01*
X76577601Y-89913188D01*
X75724233Y-90391106D01*
X74908973Y-90855202D01*
X74140508Y-91300300D01*
X73427521Y-91721222D01*
X72778698Y-92112792D01*
X72202725Y-92469833D01*
X71708286Y-92787167D01*
X71304066Y-93059618D01*
X71020343Y-93265407D01*
X70672764Y-93553665D01*
X70422859Y-93810752D01*
X70273007Y-94032408D01*
X70225587Y-94214371D01*
X70282977Y-94352382D01*
X70377639Y-94416513D01*
X70538040Y-94475958D01*
X70632342Y-94486189D01*
X70644934Y-94452358D01*
X70560208Y-94379621D01*
X70535850Y-94364273D01*
X70395110Y-94248401D01*
X70355775Y-94140746D01*
X70356030Y-94139320D01*
X70428061Y-94026471D01*
X70607927Y-93870179D01*
X70892261Y-93672341D01*
X71277690Y-93434858D01*
X71760847Y-93159628D01*
X72338360Y-92848550D01*
X73006861Y-92503523D01*
X73762979Y-92126447D01*
X74603345Y-91719219D01*
X74908383Y-91573889D01*
X75213362Y-91430763D01*
X75591135Y-91256070D01*
X76031817Y-91054207D01*
X76525528Y-90829569D01*
X77062384Y-90586551D01*
X77632504Y-90329549D01*
X78226004Y-90062959D01*
X78833003Y-89791175D01*
X79443618Y-89518594D01*
X80047967Y-89249611D01*
X80636167Y-88988622D01*
X81198335Y-88740022D01*
X81724591Y-88508206D01*
X82205050Y-88297571D01*
X82629831Y-88112511D01*
X82989051Y-87957423D01*
X83272828Y-87836702D01*
X83471279Y-87754743D01*
X83574522Y-87715942D01*
X83587235Y-87713668D01*
X83544268Y-87750430D01*
X83414791Y-87844570D01*
X83212171Y-87986776D01*
X82949773Y-88167736D01*
X82640964Y-88378136D01*
X82399034Y-88541518D01*
X81996807Y-88813877D01*
X81524845Y-89136325D01*
X80994906Y-89500631D01*
X80418749Y-89898566D01*
X79808132Y-90321898D01*
X79174815Y-90762398D01*
X78530557Y-91211834D01*
X77887117Y-91661976D01*
X77256253Y-92104594D01*
X76649725Y-92531457D01*
X76079291Y-92934336D01*
X75556711Y-93304998D01*
X75093742Y-93635215D01*
X74702146Y-93916755D01*
X74393679Y-94141388D01*
X74307910Y-94204760D01*
X72850368Y-95300895D01*
X71498197Y-96346230D01*
X70249034Y-97343033D01*
X69100515Y-98293570D01*
X68050278Y-99200108D01*
X67095960Y-100064912D01*
X66235196Y-100890250D01*
X65465623Y-101678388D01*
X64784879Y-102431592D01*
X64190600Y-103152129D01*
X63680423Y-103842266D01*
X63251983Y-104504269D01*
X62902919Y-105140404D01*
X62900839Y-105144591D01*
X62674533Y-105618777D01*
X62504647Y-106022361D01*
X62381344Y-106384906D01*
X62294786Y-106735973D01*
X62235138Y-107105126D01*
X62227351Y-107168547D01*
X62200648Y-107599746D01*
X62217424Y-108029851D01*
G36*
X89710038Y-82716932D02*
G01*
X89740062Y-82686908D01*
X89710038Y-82656884D01*
X89680014Y-82686908D01*
X89710038Y-82716932D01*
G37*
X89710038Y-82716932D02*
X89740062Y-82686908D01*
X89710038Y-82656884D01*
X89680014Y-82686908D01*
X89710038Y-82716932D01*
G36*
X75604631Y-88350539D02*
G01*
X75677006Y-88319094D01*
X75830965Y-88216833D01*
X75914036Y-88158163D01*
X76076042Y-88048410D01*
X76253863Y-87940876D01*
X76461721Y-87828813D01*
X76713836Y-87705472D01*
X77024427Y-87564107D01*
X77407715Y-87397969D01*
X77877919Y-87200310D01*
X78303412Y-87024339D01*
X78670807Y-86874681D01*
X79129998Y-86690101D01*
X79660619Y-86478602D01*
X80242304Y-86248187D01*
X80854687Y-86006859D01*
X81477402Y-85762618D01*
X82090083Y-85523469D01*
X82672365Y-85297412D01*
X83203881Y-85092452D01*
X83664265Y-84916589D01*
X83756632Y-84881597D01*
X83928049Y-84816779D01*
X83466851Y-84479970D01*
X83274033Y-84331054D01*
X83131680Y-84205308D01*
X83058438Y-84120132D01*
X83055245Y-84095901D01*
X83116549Y-84062298D01*
X83276949Y-83981078D01*
X83527322Y-83856702D01*
X83858551Y-83693632D01*
X84261514Y-83496330D01*
X84727092Y-83269256D01*
X85246164Y-83016874D01*
X85809611Y-82743644D01*
X86408312Y-82454029D01*
X86647627Y-82338453D01*
X88025253Y-81673054D01*
X89301885Y-81055602D01*
X90484977Y-80482454D01*
X91581983Y-79949962D01*
X92600356Y-79454481D01*
X93547550Y-78992367D01*
X94431019Y-78559973D01*
X95258215Y-78153655D01*
X96036594Y-77769766D01*
X96773608Y-77404661D01*
X97476711Y-77054695D01*
X98153357Y-76716223D01*
X98536988Y-76523556D01*
X99059268Y-76262430D01*
X99508248Y-76039451D01*
X99894236Y-75846689D01*
X100227541Y-75676214D01*
X100518474Y-75520095D01*
X100777344Y-75370403D01*
X101014459Y-75219206D01*
X101240129Y-75058576D01*
X101464663Y-74880580D01*
X101698371Y-74677291D01*
X101951561Y-74440776D01*
X102234544Y-74163105D01*
X102557628Y-73836350D01*
X102931123Y-73452578D01*
X103365337Y-73003861D01*
X103870581Y-72482267D01*
X104107298Y-72238681D01*
X104537208Y-71799319D01*
X104962307Y-71369472D01*
X105371194Y-70960357D01*
X105752469Y-70583190D01*
X106094730Y-70249185D01*
X106386575Y-69969560D01*
X106616604Y-69755529D01*
X106758129Y-69630944D01*
X107156521Y-69292114D01*
X107627600Y-68881246D01*
X108158279Y-68410355D01*
X108735469Y-67891458D01*
X109346083Y-67336571D01*
X109977033Y-66757713D01*
X110615232Y-66166898D01*
X111247592Y-65576145D01*
X111861024Y-64997469D01*
X112442442Y-64442887D01*
X112978758Y-63924415D01*
X113065685Y-63839577D01*
X113360063Y-63552643D01*
X113624508Y-63296445D01*
X113847460Y-63082056D01*
X114017356Y-62920549D01*
X114122636Y-62822997D01*
X114152649Y-62798504D01*
X114178944Y-62872310D01*
X114227054Y-63039533D01*
X114291010Y-63276758D01*
X114364841Y-63560564D01*
X114442579Y-63867536D01*
X114518253Y-64174254D01*
X114585896Y-64457300D01*
X114639537Y-64693257D01*
X114658866Y-64784416D01*
X114731583Y-65170061D01*
X114769881Y-65450326D01*
X114774461Y-65634674D01*
X114746026Y-65732571D01*
X114730259Y-65747067D01*
X114673658Y-65804436D01*
X114561167Y-65934247D01*
X114411355Y-66114712D01*
X114305049Y-66246001D01*
X113929358Y-66714331D01*
X114376311Y-66240449D01*
X114823265Y-65766566D01*
X114859715Y-65970236D01*
X114911929Y-66331235D01*
X114954226Y-66763918D01*
X114986723Y-67251889D01*
X115009542Y-67778755D01*
X115022802Y-68328122D01*
X115026624Y-68883595D01*
X115021127Y-69428779D01*
X115006432Y-69947280D01*
X114982658Y-70422704D01*
X114949925Y-70838657D01*
X114908354Y-71178744D01*
X114858064Y-71426570D01*
X114818987Y-71533951D01*
X114748141Y-71602613D01*
X114583493Y-71724139D01*
X114335652Y-71892054D01*
X114015226Y-72099881D01*
X113632823Y-72341147D01*
X113199053Y-72609375D01*
X112724523Y-72898089D01*
X112219841Y-73200814D01*
X111695617Y-73511074D01*
X111162459Y-73822394D01*
X110630975Y-74128298D01*
X110111774Y-74422311D01*
X109825877Y-74581826D01*
X109377213Y-74834950D01*
X108908792Y-75106807D01*
X108447002Y-75381547D01*
X108018230Y-75643324D01*
X107648863Y-75876287D01*
X107423986Y-76024402D01*
X107085613Y-76246007D01*
X106674505Y-76503367D01*
X106224158Y-76776222D01*
X105768070Y-77044311D01*
X105339734Y-77287372D01*
X105295786Y-77311691D01*
X104768576Y-77610108D01*
X104281310Y-77903560D01*
X103801232Y-78213153D01*
X103295587Y-78559998D01*
X102743777Y-78956323D01*
X101557992Y-79805018D01*
X100386442Y-80607009D01*
X99200233Y-81380941D01*
X97970472Y-82145457D01*
X96668265Y-82919200D01*
X96045026Y-83278745D01*
X95674293Y-83494492D01*
X95354282Y-83690818D01*
X95059918Y-83885420D01*
X94766125Y-84095993D01*
X94447827Y-84340233D01*
X94079949Y-84635837D01*
X93823277Y-84846631D01*
X93470384Y-85137556D01*
X93118384Y-85426935D01*
X92787309Y-85698360D01*
X92497193Y-85935423D01*
X92268066Y-86121713D01*
X92171977Y-86199257D01*
X91942081Y-86385878D01*
X91654615Y-86622162D01*
X91343553Y-86880037D01*
X91042868Y-87131433D01*
X90993457Y-87172997D01*
X90745610Y-87377686D01*
X90526190Y-87551371D01*
X90353064Y-87680484D01*
X90244098Y-87751458D01*
X90219317Y-87760903D01*
X90129145Y-87744884D01*
X89965270Y-87703662D01*
X89762986Y-87647496D01*
X89557588Y-87586641D01*
X89384371Y-87531353D01*
X89278630Y-87491890D01*
X89263428Y-87483126D01*
X89287742Y-87430696D01*
X89376975Y-87318028D01*
X89503618Y-87178300D01*
X89628495Y-87039724D01*
X89669872Y-86974853D01*
X89625428Y-86987430D01*
X89619967Y-86990738D01*
X89473993Y-87074690D01*
X89282273Y-87177971D01*
X89203476Y-87218719D01*
X89049448Y-87300662D01*
X88989639Y-87350919D01*
X89010346Y-87390489D01*
X89068925Y-87424962D01*
X89118056Y-87457279D01*
X89134893Y-87498095D01*
X89109784Y-87562844D01*
X89033077Y-87666961D01*
X88895123Y-87825883D01*
X88686268Y-88055045D01*
X88650856Y-88093574D01*
X88031226Y-88773208D01*
X87490826Y-89378677D01*
X87022197Y-89918926D01*
X86617876Y-90402900D01*
X86270403Y-90839543D01*
X85972318Y-91237802D01*
X85716160Y-91606621D01*
X85698028Y-91633953D01*
X85395339Y-92122793D01*
X85179872Y-92541093D01*
X85052363Y-92886773D01*
X85013552Y-93157751D01*
X85064175Y-93351949D01*
X85080291Y-93375324D01*
X85136438Y-93439426D01*
X85163858Y-93427493D01*
X85173240Y-93322131D01*
X85174559Y-93221950D01*
X85214263Y-92954247D01*
X85341319Y-92688635D01*
X85348759Y-92676807D01*
X85497361Y-92466489D01*
X85712237Y-92194090D01*
X85974037Y-91881742D01*
X86263416Y-91551576D01*
X86561024Y-91225725D01*
X86847515Y-90926320D01*
X87074090Y-90703220D01*
X87271595Y-90517934D01*
X87524811Y-90283214D01*
X87820162Y-90011383D01*
X88144075Y-89714761D01*
X88482975Y-89405668D01*
X88823288Y-89096427D01*
X89151440Y-88799357D01*
X89453857Y-88526780D01*
X89716964Y-88291018D01*
X89927187Y-88104390D01*
X90070951Y-87979218D01*
X90120401Y-87938157D01*
X90288655Y-87805809D01*
X91020150Y-87968218D01*
X91655511Y-88101631D01*
X92236986Y-88205367D01*
X92798521Y-88283351D01*
X93374064Y-88339509D01*
X93997562Y-88377767D01*
X94702964Y-88402049D01*
X94789867Y-88404100D01*
X95766059Y-88411626D01*
X96657168Y-88385459D01*
X97494245Y-88322485D01*
X98308343Y-88219594D01*
X99130513Y-88073673D01*
X99983637Y-87883591D01*
X101447337Y-87467934D01*
X102867633Y-86942461D01*
X104238755Y-86311401D01*
X105554934Y-85578982D01*
X106810401Y-84749434D01*
X107999387Y-83826986D01*
X109116122Y-82815866D01*
X110154837Y-81720304D01*
X111109763Y-80544529D01*
X111975131Y-79292769D01*
X112201566Y-78927638D01*
X112893352Y-77681485D01*
X113498499Y-76377925D01*
X114009482Y-75036932D01*
X114418776Y-73678481D01*
X114718856Y-72322546D01*
X114744150Y-72178634D01*
X114808401Y-71862980D01*
X114874668Y-71659310D01*
X114943350Y-71561074D01*
X115021026Y-71506602D01*
X115182820Y-71394386D01*
X115413869Y-71234691D01*
X115699308Y-71037783D01*
X116024274Y-70813927D01*
X116280960Y-70637302D01*
X117216497Y-69978332D01*
X118048545Y-69358429D01*
X118784624Y-68770830D01*
X119432251Y-68208775D01*
X119998946Y-67665501D01*
X120492227Y-67134249D01*
X120919613Y-66608255D01*
X121202677Y-66211291D01*
X121416293Y-65861429D01*
X121628006Y-65458665D01*
X121820133Y-65041204D01*
X121974990Y-64647252D01*
X122069102Y-64339397D01*
X122156531Y-63846965D01*
X122195410Y-63314107D01*
X122183944Y-62793165D01*
X122135289Y-62409350D01*
X121939425Y-61697765D01*
X121627392Y-61015778D01*
X121199643Y-60364308D01*
X121018570Y-60138798D01*
X120883021Y-59964734D01*
X120812661Y-59823045D01*
X120786996Y-59661955D01*
X120784506Y-59547462D01*
X120737344Y-58742757D01*
X120601144Y-57926238D01*
X120548441Y-57732053D01*
X120548441Y-62169700D01*
X120600582Y-62252831D01*
X120624956Y-62330880D01*
X120638059Y-62444770D01*
X120644481Y-62641762D01*
X120643267Y-62884998D01*
X120641275Y-62961376D01*
X120615984Y-63311650D01*
X120557802Y-63600680D01*
X120471018Y-63848802D01*
X120285691Y-64254696D01*
X120073460Y-64617943D01*
X119812080Y-64970926D01*
X119479306Y-65346031D01*
X119351182Y-65479013D01*
X119155685Y-65675258D01*
X119003557Y-65821122D01*
X118906670Y-65905798D01*
X118876893Y-65918481D01*
X118884663Y-65903693D01*
X119270132Y-65283050D01*
X119577526Y-64746781D01*
X119809459Y-64290313D01*
X119819601Y-64268466D01*
X119957720Y-63946223D01*
X120098867Y-63577161D01*
X120231817Y-63194663D01*
X120345342Y-62832114D01*
X120428217Y-62522898D01*
X120461330Y-62360156D01*
X120500792Y-62205695D01*
X120548441Y-62169700D01*
X120548441Y-57732053D01*
X120383837Y-57125567D01*
X120093354Y-56368408D01*
X119737623Y-55682426D01*
X119625293Y-55503652D01*
X119504982Y-55296878D01*
X119411472Y-55093631D01*
X119374051Y-54975088D01*
X119327601Y-54818736D01*
X119243697Y-54598986D01*
X119139217Y-54359539D01*
X119122810Y-54324615D01*
X118829286Y-53844262D01*
X118828555Y-53843484D01*
X118828555Y-59691050D01*
X118876161Y-59710968D01*
X118940529Y-59767097D01*
X118954631Y-59780342D01*
X119028709Y-59855465D01*
X119074507Y-59930121D01*
X119092727Y-60027532D01*
X119084068Y-60170920D01*
X119049232Y-60383505D01*
X118988920Y-60688508D01*
X118982933Y-60718005D01*
X118928218Y-60963389D01*
X118857834Y-61244511D01*
X118778206Y-61539638D01*
X118695764Y-61827038D01*
X118616934Y-62084977D01*
X118548144Y-62291722D01*
X118495823Y-62425541D01*
X118466397Y-62464700D01*
X118466351Y-62464655D01*
X118466103Y-62399708D01*
X118484331Y-62245342D01*
X118517404Y-62030180D01*
X118533091Y-61938536D01*
X118572947Y-61676572D01*
X118615449Y-61338861D01*
X118655442Y-60969496D01*
X118687047Y-60621609D01*
X118717231Y-60251764D01*
X118742048Y-59987700D01*
X118765924Y-59815502D01*
X118793284Y-59721256D01*
X118828555Y-59691050D01*
X118828555Y-53843484D01*
X118438442Y-53427759D01*
X117957087Y-53079126D01*
X117392030Y-52802383D01*
X116750079Y-52601548D01*
X116038046Y-52480640D01*
X115990619Y-52475754D01*
X115732409Y-52433504D01*
X115426229Y-52359300D01*
X115134507Y-52268465D01*
X115110038Y-52259610D01*
X114386619Y-52024572D01*
X114269376Y-51994330D01*
X114269376Y-53164457D01*
X114698876Y-53190651D01*
X114960425Y-53217191D01*
X115174860Y-53271238D01*
X115399221Y-53370072D01*
X115539538Y-53445341D01*
X116366009Y-53956300D01*
X117083957Y-54511067D01*
X117698097Y-55113458D01*
X117913146Y-55365395D01*
X118205017Y-55725679D01*
X118167799Y-56115986D01*
X118145332Y-56319297D01*
X118122976Y-56469303D01*
X118106480Y-56531313D01*
X118090312Y-56544178D01*
X118068993Y-56532717D01*
X118029155Y-56478053D01*
X117957432Y-56361309D01*
X117840457Y-56163607D01*
X117812397Y-56115986D01*
X117370188Y-55459709D01*
X116853100Y-54870424D01*
X116250431Y-54338537D01*
X115551484Y-53854457D01*
X114853226Y-53462925D01*
X114269376Y-53164457D01*
X114269376Y-51994330D01*
X113558492Y-51810960D01*
X112639602Y-51621665D01*
X111643896Y-51459573D01*
X110636516Y-51333088D01*
X110322114Y-51305499D01*
X109939582Y-51282351D01*
X109507135Y-51263771D01*
X109042991Y-51249887D01*
X108565367Y-51240826D01*
X108092479Y-51236716D01*
X107642545Y-51237684D01*
X107233781Y-51243858D01*
X106884405Y-51255366D01*
X106612633Y-51272335D01*
X106436683Y-51294892D01*
X106403182Y-51303444D01*
X106312345Y-51336542D01*
X106307744Y-51354930D01*
X106401510Y-51363780D01*
X106553300Y-51367431D01*
X107030375Y-51386926D01*
X107596911Y-51428944D01*
X108225138Y-51489933D01*
X108887288Y-51566344D01*
X109555593Y-51654625D01*
X110202281Y-51751226D01*
X110799586Y-51852595D01*
X111319737Y-51955181D01*
X111538169Y-52004851D01*
X111903877Y-52096597D01*
X112264559Y-52193839D01*
X112602367Y-52291023D01*
X112899449Y-52382594D01*
X113137956Y-52463000D01*
X113300037Y-52526685D01*
X113367843Y-52568096D01*
X113368044Y-52574205D01*
X113270840Y-52629361D01*
X113079892Y-52656932D01*
X112818330Y-52656959D01*
X112509283Y-52629489D01*
X112175880Y-52574565D01*
X112162840Y-52571896D01*
X111715293Y-52484915D01*
X111286928Y-52414236D01*
X110857359Y-52358185D01*
X110406198Y-52315091D01*
X109913059Y-52283281D01*
X109357555Y-52261084D01*
X108719300Y-52246827D01*
X108114530Y-52239845D01*
X106945118Y-52230485D01*
X106945118Y-52576134D01*
X107178444Y-52581902D01*
X107468966Y-52593814D01*
X107795838Y-52610825D01*
X108138213Y-52631892D01*
X108475246Y-52655969D01*
X108786090Y-52682012D01*
X108955192Y-52698548D01*
X109237043Y-52731906D01*
X109560235Y-52776226D01*
X109901193Y-52827567D01*
X110236341Y-52881987D01*
X110542103Y-52935542D01*
X110794902Y-52984290D01*
X110971164Y-53024288D01*
X111041345Y-53047405D01*
X111016958Y-53079827D01*
X110896685Y-53139297D01*
X110699470Y-53217689D01*
X110444256Y-53306877D01*
X110410849Y-53317848D01*
X110007993Y-53452939D01*
X109669698Y-53573747D01*
X109407468Y-53675700D01*
X109232806Y-53754229D01*
X109157217Y-53804764D01*
X109157102Y-53815926D01*
X109222119Y-53813908D01*
X109381161Y-53789989D01*
X109610979Y-53748134D01*
X109888322Y-53692308D01*
X109915071Y-53686681D01*
X110293653Y-53610011D01*
X110722035Y-53528352D01*
X111136837Y-53453580D01*
X111364153Y-53415113D01*
X112080690Y-53298214D01*
X112604584Y-53480682D01*
X113006323Y-53633367D01*
X113446859Y-53822170D01*
X113893106Y-54031191D01*
X114311976Y-54244529D01*
X114670382Y-54446282D01*
X114848215Y-54558914D01*
X115227449Y-54845258D01*
X115618120Y-55192743D01*
X115982424Y-55564961D01*
X116282557Y-55925506D01*
X116319082Y-55975459D01*
X116438585Y-56157197D01*
X116570251Y-56380997D01*
X116701951Y-56622877D01*
X116821558Y-56858856D01*
X116916946Y-57064954D01*
X116975987Y-57217190D01*
X116986553Y-57291582D01*
X116985387Y-57293041D01*
X116922960Y-57281987D01*
X116780434Y-57230062D01*
X116586233Y-57147834D01*
X116545638Y-57129566D01*
X116137662Y-56952284D01*
X115649315Y-56752857D01*
X115115046Y-56544340D01*
X114569302Y-56339789D01*
X114046532Y-56152259D01*
X113581186Y-55994805D01*
X113398690Y-55936933D01*
X113064202Y-55836864D01*
X112686158Y-55728896D01*
X112283434Y-55617887D01*
X111874902Y-55508696D01*
X111479435Y-55406182D01*
X111115908Y-55315203D01*
X110803195Y-55240620D01*
X110560168Y-55187290D01*
X110405701Y-55160072D01*
X110371472Y-55157601D01*
X110394479Y-55179494D01*
X110517218Y-55240565D01*
X110727810Y-55335651D01*
X111014379Y-55459590D01*
X111365047Y-55607220D01*
X111767935Y-55773378D01*
X112077650Y-55899153D01*
X112725719Y-56162849D01*
X113282120Y-56394698D01*
X113767832Y-56604492D01*
X114203831Y-56802026D01*
X114611094Y-56997094D01*
X115010599Y-57199488D01*
X115423323Y-57419003D01*
X115870242Y-57665433D01*
X115917845Y-57692059D01*
X116342475Y-57931559D01*
X116672426Y-58122593D01*
X116919043Y-58273100D01*
X117093673Y-58391022D01*
X117207659Y-58484299D01*
X117272346Y-58560870D01*
X117299081Y-58628678D01*
X117301764Y-58660678D01*
X117269778Y-58769507D01*
X117183449Y-58948829D01*
X117057218Y-59170693D01*
X116952115Y-59337457D01*
X116783704Y-59582225D01*
X116563566Y-59885357D01*
X116316896Y-60212992D01*
X116068887Y-60531267D01*
X115997852Y-60620033D01*
X115950700Y-60677595D01*
X115950700Y-64162322D01*
X115980724Y-64192345D01*
X115950700Y-64222369D01*
X115920676Y-64192345D01*
X115950700Y-64162322D01*
X115950700Y-60677595D01*
X115899934Y-60739569D01*
X115899934Y-64282416D01*
X115888560Y-64328318D01*
X115800583Y-64465523D01*
X115636531Y-64693285D01*
X115396931Y-65010854D01*
X115273071Y-65171903D01*
X115112440Y-65374124D01*
X114978976Y-65531452D01*
X114888902Y-65625417D01*
X114859330Y-65642977D01*
X114884773Y-65590087D01*
X114969640Y-65464326D01*
X115098090Y-65286403D01*
X115254282Y-65077030D01*
X115422377Y-64856919D01*
X115586532Y-64646781D01*
X115730908Y-64467327D01*
X115839663Y-64339268D01*
X115896957Y-64283317D01*
X115899934Y-64282416D01*
X115899934Y-60739569D01*
X115786140Y-60878487D01*
X115547987Y-61162252D01*
X115295569Y-61457579D01*
X115041060Y-61750719D01*
X114796638Y-62027922D01*
X114574477Y-62275439D01*
X114386753Y-62479521D01*
X114245642Y-62626418D01*
X114163320Y-62702382D01*
X114147753Y-62709251D01*
X114121431Y-62649184D01*
X114062604Y-62498651D01*
X113979848Y-62280031D01*
X113881741Y-62015707D01*
X113876773Y-62002200D01*
X113301234Y-60603628D01*
X112622797Y-59253553D01*
X111847456Y-57960083D01*
X110981204Y-56731327D01*
X110030033Y-55575395D01*
X108999938Y-54500396D01*
X107896910Y-53514439D01*
X107198809Y-52966163D01*
X106999805Y-52814532D01*
X106843277Y-52689477D01*
X106750163Y-52608045D01*
X106733442Y-52587211D01*
X106789836Y-52577556D01*
X106945118Y-52576134D01*
X106945118Y-52230485D01*
X106162993Y-52224224D01*
X105502473Y-51822739D01*
X104182233Y-51089918D01*
X102808859Y-50464245D01*
X101381684Y-49945497D01*
X99900041Y-49533453D01*
X98363262Y-49227888D01*
X97306019Y-49083023D01*
X96971614Y-49055028D01*
X96544774Y-49034270D01*
X96052940Y-49020748D01*
X95523552Y-49014463D01*
X94984052Y-49015414D01*
X94461881Y-49023602D01*
X93984479Y-49039027D01*
X93579287Y-49061689D01*
X93342899Y-49083023D01*
X91765944Y-49318649D01*
X90241359Y-49662329D01*
X88768869Y-50114176D01*
X87348202Y-50674301D01*
X85979086Y-51342817D01*
X84661247Y-52119835D01*
X83394412Y-53005468D01*
X82954719Y-53347758D01*
X82590530Y-53653454D01*
X82175140Y-54025823D01*
X81734630Y-54439611D01*
X81295079Y-54869567D01*
X80882570Y-55290437D01*
X80523183Y-55676970D01*
X80374732Y-55845773D01*
X79416093Y-57053447D01*
X78559327Y-58323235D01*
X77806421Y-59650582D01*
X77159359Y-61030933D01*
X76620126Y-62459732D01*
X76190708Y-63932425D01*
X75873089Y-65444455D01*
X75717137Y-66534189D01*
X75676702Y-66981058D01*
X75646837Y-67513721D01*
X75627782Y-68101010D01*
X75619777Y-68711755D01*
X75623063Y-69314785D01*
X75637882Y-69878933D01*
X75664472Y-70373027D01*
X75685609Y-70617404D01*
X75903351Y-72172454D01*
X76230883Y-73679166D01*
X76668735Y-75138821D01*
X77217435Y-76552698D01*
X77877512Y-77922078D01*
X78649495Y-79248240D01*
X79533913Y-80532465D01*
X80063915Y-81215750D01*
X80285888Y-81477854D01*
X80567191Y-81790484D01*
X80889850Y-82135418D01*
X81235888Y-82494434D01*
X81587329Y-82849312D01*
X81926197Y-83181831D01*
X82234517Y-83473768D01*
X82494311Y-83706904D01*
X82640818Y-83827806D01*
X82799075Y-83954845D01*
X82911136Y-84052533D01*
X82951644Y-84098019D01*
X82900459Y-84131231D01*
X82754410Y-84211586D01*
X82526060Y-84332537D01*
X82227970Y-84487534D01*
X81872699Y-84670029D01*
X81472809Y-84873474D01*
X81197670Y-85012453D01*
X80351032Y-85443368D01*
X79554142Y-85857791D01*
X78813213Y-86252130D01*
X78134461Y-86622796D01*
X77524097Y-86966197D01*
X76988336Y-87278744D01*
X76533392Y-87556844D01*
X76165479Y-87796909D01*
X75890810Y-87995347D01*
X75715599Y-88148567D01*
X75666061Y-88208869D01*
X75604197Y-88313140D01*
X75604631Y-88350539D01*
G37*
X75604631Y-88350539D02*
X75677006Y-88319094D01*
X75830965Y-88216833D01*
X75914036Y-88158163D01*
X76076042Y-88048410D01*
X76253863Y-87940876D01*
X76461721Y-87828813D01*
X76713836Y-87705472D01*
X77024427Y-87564107D01*
X77407715Y-87397969D01*
X77877919Y-87200310D01*
X78303412Y-87024339D01*
X78670807Y-86874681D01*
X79129998Y-86690101D01*
X79660619Y-86478602D01*
X80242304Y-86248187D01*
X80854687Y-86006859D01*
X81477402Y-85762618D01*
X82090083Y-85523469D01*
X82672365Y-85297412D01*
X83203881Y-85092452D01*
X83664265Y-84916589D01*
X83756632Y-84881597D01*
X83928049Y-84816779D01*
X83466851Y-84479970D01*
X83274033Y-84331054D01*
X83131680Y-84205308D01*
X83058438Y-84120132D01*
X83055245Y-84095901D01*
X83116549Y-84062298D01*
X83276949Y-83981078D01*
X83527322Y-83856702D01*
X83858551Y-83693632D01*
X84261514Y-83496330D01*
X84727092Y-83269256D01*
X85246164Y-83016874D01*
X85809611Y-82743644D01*
X86408312Y-82454029D01*
X86647627Y-82338453D01*
X88025253Y-81673054D01*
X89301885Y-81055602D01*
X90484977Y-80482454D01*
X91581983Y-79949962D01*
X92600356Y-79454481D01*
X93547550Y-78992367D01*
X94431019Y-78559973D01*
X95258215Y-78153655D01*
X96036594Y-77769766D01*
X96773608Y-77404661D01*
X97476711Y-77054695D01*
X98153357Y-76716223D01*
X98536988Y-76523556D01*
X99059268Y-76262430D01*
X99508248Y-76039451D01*
X99894236Y-75846689D01*
X100227541Y-75676214D01*
X100518474Y-75520095D01*
X100777344Y-75370403D01*
X101014459Y-75219206D01*
X101240129Y-75058576D01*
X101464663Y-74880580D01*
X101698371Y-74677291D01*
X101951561Y-74440776D01*
X102234544Y-74163105D01*
X102557628Y-73836350D01*
X102931123Y-73452578D01*
X103365337Y-73003861D01*
X103870581Y-72482267D01*
X104107298Y-72238681D01*
X104537208Y-71799319D01*
X104962307Y-71369472D01*
X105371194Y-70960357D01*
X105752469Y-70583190D01*
X106094730Y-70249185D01*
X106386575Y-69969560D01*
X106616604Y-69755529D01*
X106758129Y-69630944D01*
X107156521Y-69292114D01*
X107627600Y-68881246D01*
X108158279Y-68410355D01*
X108735469Y-67891458D01*
X109346083Y-67336571D01*
X109977033Y-66757713D01*
X110615232Y-66166898D01*
X111247592Y-65576145D01*
X111861024Y-64997469D01*
X112442442Y-64442887D01*
X112978758Y-63924415D01*
X113065685Y-63839577D01*
X113360063Y-63552643D01*
X113624508Y-63296445D01*
X113847460Y-63082056D01*
X114017356Y-62920549D01*
X114122636Y-62822997D01*
X114152649Y-62798504D01*
X114178944Y-62872310D01*
X114227054Y-63039533D01*
X114291010Y-63276758D01*
X114364841Y-63560564D01*
X114442579Y-63867536D01*
X114518253Y-64174254D01*
X114585896Y-64457300D01*
X114639537Y-64693257D01*
X114658866Y-64784416D01*
X114731583Y-65170061D01*
X114769881Y-65450326D01*
X114774461Y-65634674D01*
X114746026Y-65732571D01*
X114730259Y-65747067D01*
X114673658Y-65804436D01*
X114561167Y-65934247D01*
X114411355Y-66114712D01*
X114305049Y-66246001D01*
X113929358Y-66714331D01*
X114376311Y-66240449D01*
X114823265Y-65766566D01*
X114859715Y-65970236D01*
X114911929Y-66331235D01*
X114954226Y-66763918D01*
X114986723Y-67251889D01*
X115009542Y-67778755D01*
X115022802Y-68328122D01*
X115026624Y-68883595D01*
X115021127Y-69428779D01*
X115006432Y-69947280D01*
X114982658Y-70422704D01*
X114949925Y-70838657D01*
X114908354Y-71178744D01*
X114858064Y-71426570D01*
X114818987Y-71533951D01*
X114748141Y-71602613D01*
X114583493Y-71724139D01*
X114335652Y-71892054D01*
X114015226Y-72099881D01*
X113632823Y-72341147D01*
X113199053Y-72609375D01*
X112724523Y-72898089D01*
X112219841Y-73200814D01*
X111695617Y-73511074D01*
X111162459Y-73822394D01*
X110630975Y-74128298D01*
X110111774Y-74422311D01*
X109825877Y-74581826D01*
X109377213Y-74834950D01*
X108908792Y-75106807D01*
X108447002Y-75381547D01*
X108018230Y-75643324D01*
X107648863Y-75876287D01*
X107423986Y-76024402D01*
X107085613Y-76246007D01*
X106674505Y-76503367D01*
X106224158Y-76776222D01*
X105768070Y-77044311D01*
X105339734Y-77287372D01*
X105295786Y-77311691D01*
X104768576Y-77610108D01*
X104281310Y-77903560D01*
X103801232Y-78213153D01*
X103295587Y-78559998D01*
X102743777Y-78956323D01*
X101557992Y-79805018D01*
X100386442Y-80607009D01*
X99200233Y-81380941D01*
X97970472Y-82145457D01*
X96668265Y-82919200D01*
X96045026Y-83278745D01*
X95674293Y-83494492D01*
X95354282Y-83690818D01*
X95059918Y-83885420D01*
X94766125Y-84095993D01*
X94447827Y-84340233D01*
X94079949Y-84635837D01*
X93823277Y-84846631D01*
X93470384Y-85137556D01*
X93118384Y-85426935D01*
X92787309Y-85698360D01*
X92497193Y-85935423D01*
X92268066Y-86121713D01*
X92171977Y-86199257D01*
X91942081Y-86385878D01*
X91654615Y-86622162D01*
X91343553Y-86880037D01*
X91042868Y-87131433D01*
X90993457Y-87172997D01*
X90745610Y-87377686D01*
X90526190Y-87551371D01*
X90353064Y-87680484D01*
X90244098Y-87751458D01*
X90219317Y-87760903D01*
X90129145Y-87744884D01*
X89965270Y-87703662D01*
X89762986Y-87647496D01*
X89557588Y-87586641D01*
X89384371Y-87531353D01*
X89278630Y-87491890D01*
X89263428Y-87483126D01*
X89287742Y-87430696D01*
X89376975Y-87318028D01*
X89503618Y-87178300D01*
X89628495Y-87039724D01*
X89669872Y-86974853D01*
X89625428Y-86987430D01*
X89619967Y-86990738D01*
X89473993Y-87074690D01*
X89282273Y-87177971D01*
X89203476Y-87218719D01*
X89049448Y-87300662D01*
X88989639Y-87350919D01*
X89010346Y-87390489D01*
X89068925Y-87424962D01*
X89118056Y-87457279D01*
X89134893Y-87498095D01*
X89109784Y-87562844D01*
X89033077Y-87666961D01*
X88895123Y-87825883D01*
X88686268Y-88055045D01*
X88650856Y-88093574D01*
X88031226Y-88773208D01*
X87490826Y-89378677D01*
X87022197Y-89918926D01*
X86617876Y-90402900D01*
X86270403Y-90839543D01*
X85972318Y-91237802D01*
X85716160Y-91606621D01*
X85698028Y-91633953D01*
X85395339Y-92122793D01*
X85179872Y-92541093D01*
X85052363Y-92886773D01*
X85013552Y-93157751D01*
X85064175Y-93351949D01*
X85080291Y-93375324D01*
X85136438Y-93439426D01*
X85163858Y-93427493D01*
X85173240Y-93322131D01*
X85174559Y-93221950D01*
X85214263Y-92954247D01*
X85341319Y-92688635D01*
X85348759Y-92676807D01*
X85497361Y-92466489D01*
X85712237Y-92194090D01*
X85974037Y-91881742D01*
X86263416Y-91551576D01*
X86561024Y-91225725D01*
X86847515Y-90926320D01*
X87074090Y-90703220D01*
X87271595Y-90517934D01*
X87524811Y-90283214D01*
X87820162Y-90011383D01*
X88144075Y-89714761D01*
X88482975Y-89405668D01*
X88823288Y-89096427D01*
X89151440Y-88799357D01*
X89453857Y-88526780D01*
X89716964Y-88291018D01*
X89927187Y-88104390D01*
X90070951Y-87979218D01*
X90120401Y-87938157D01*
X90288655Y-87805809D01*
X91020150Y-87968218D01*
X91655511Y-88101631D01*
X92236986Y-88205367D01*
X92798521Y-88283351D01*
X93374064Y-88339509D01*
X93997562Y-88377767D01*
X94702964Y-88402049D01*
X94789867Y-88404100D01*
X95766059Y-88411626D01*
X96657168Y-88385459D01*
X97494245Y-88322485D01*
X98308343Y-88219594D01*
X99130513Y-88073673D01*
X99983637Y-87883591D01*
X101447337Y-87467934D01*
X102867633Y-86942461D01*
X104238755Y-86311401D01*
X105554934Y-85578982D01*
X106810401Y-84749434D01*
X107999387Y-83826986D01*
X109116122Y-82815866D01*
X110154837Y-81720304D01*
X111109763Y-80544529D01*
X111975131Y-79292769D01*
X112201566Y-78927638D01*
X112893352Y-77681485D01*
X113498499Y-76377925D01*
X114009482Y-75036932D01*
X114418776Y-73678481D01*
X114718856Y-72322546D01*
X114744150Y-72178634D01*
X114808401Y-71862980D01*
X114874668Y-71659310D01*
X114943350Y-71561074D01*
X115021026Y-71506602D01*
X115182820Y-71394386D01*
X115413869Y-71234691D01*
X115699308Y-71037783D01*
X116024274Y-70813927D01*
X116280960Y-70637302D01*
X117216497Y-69978332D01*
X118048545Y-69358429D01*
X118784624Y-68770830D01*
X119432251Y-68208775D01*
X119998946Y-67665501D01*
X120492227Y-67134249D01*
X120919613Y-66608255D01*
X121202677Y-66211291D01*
X121416293Y-65861429D01*
X121628006Y-65458665D01*
X121820133Y-65041204D01*
X121974990Y-64647252D01*
X122069102Y-64339397D01*
X122156531Y-63846965D01*
X122195410Y-63314107D01*
X122183944Y-62793165D01*
X122135289Y-62409350D01*
X121939425Y-61697765D01*
X121627392Y-61015778D01*
X121199643Y-60364308D01*
X121018570Y-60138798D01*
X120883021Y-59964734D01*
X120812661Y-59823045D01*
X120786996Y-59661955D01*
X120784506Y-59547462D01*
X120737344Y-58742757D01*
X120601144Y-57926238D01*
X120548441Y-57732053D01*
X120548441Y-62169700D01*
X120600582Y-62252831D01*
X120624956Y-62330880D01*
X120638059Y-62444770D01*
X120644481Y-62641762D01*
X120643267Y-62884998D01*
X120641275Y-62961376D01*
X120615984Y-63311650D01*
X120557802Y-63600680D01*
X120471018Y-63848802D01*
X120285691Y-64254696D01*
X120073460Y-64617943D01*
X119812080Y-64970926D01*
X119479306Y-65346031D01*
X119351182Y-65479013D01*
X119155685Y-65675258D01*
X119003557Y-65821122D01*
X118906670Y-65905798D01*
X118876893Y-65918481D01*
X118884663Y-65903693D01*
X119270132Y-65283050D01*
X119577526Y-64746781D01*
X119809459Y-64290313D01*
X119819601Y-64268466D01*
X119957720Y-63946223D01*
X120098867Y-63577161D01*
X120231817Y-63194663D01*
X120345342Y-62832114D01*
X120428217Y-62522898D01*
X120461330Y-62360156D01*
X120500792Y-62205695D01*
X120548441Y-62169700D01*
X120548441Y-57732053D01*
X120383837Y-57125567D01*
X120093354Y-56368408D01*
X119737623Y-55682426D01*
X119625293Y-55503652D01*
X119504982Y-55296878D01*
X119411472Y-55093631D01*
X119374051Y-54975088D01*
X119327601Y-54818736D01*
X119243697Y-54598986D01*
X119139217Y-54359539D01*
X119122810Y-54324615D01*
X118829286Y-53844262D01*
X118828555Y-53843484D01*
X118828555Y-59691050D01*
X118876161Y-59710968D01*
X118940529Y-59767097D01*
X118954631Y-59780342D01*
X119028709Y-59855465D01*
X119074507Y-59930121D01*
X119092727Y-60027532D01*
X119084068Y-60170920D01*
X119049232Y-60383505D01*
X118988920Y-60688508D01*
X118982933Y-60718005D01*
X118928218Y-60963389D01*
X118857834Y-61244511D01*
X118778206Y-61539638D01*
X118695764Y-61827038D01*
X118616934Y-62084977D01*
X118548144Y-62291722D01*
X118495823Y-62425541D01*
X118466397Y-62464700D01*
X118466351Y-62464655D01*
X118466103Y-62399708D01*
X118484331Y-62245342D01*
X118517404Y-62030180D01*
X118533091Y-61938536D01*
X118572947Y-61676572D01*
X118615449Y-61338861D01*
X118655442Y-60969496D01*
X118687047Y-60621609D01*
X118717231Y-60251764D01*
X118742048Y-59987700D01*
X118765924Y-59815502D01*
X118793284Y-59721256D01*
X118828555Y-59691050D01*
X118828555Y-53843484D01*
X118438442Y-53427759D01*
X117957087Y-53079126D01*
X117392030Y-52802383D01*
X116750079Y-52601548D01*
X116038046Y-52480640D01*
X115990619Y-52475754D01*
X115732409Y-52433504D01*
X115426229Y-52359300D01*
X115134507Y-52268465D01*
X115110038Y-52259610D01*
X114386619Y-52024572D01*
X114269376Y-51994330D01*
X114269376Y-53164457D01*
X114698876Y-53190651D01*
X114960425Y-53217191D01*
X115174860Y-53271238D01*
X115399221Y-53370072D01*
X115539538Y-53445341D01*
X116366009Y-53956300D01*
X117083957Y-54511067D01*
X117698097Y-55113458D01*
X117913146Y-55365395D01*
X118205017Y-55725679D01*
X118167799Y-56115986D01*
X118145332Y-56319297D01*
X118122976Y-56469303D01*
X118106480Y-56531313D01*
X118090312Y-56544178D01*
X118068993Y-56532717D01*
X118029155Y-56478053D01*
X117957432Y-56361309D01*
X117840457Y-56163607D01*
X117812397Y-56115986D01*
X117370188Y-55459709D01*
X116853100Y-54870424D01*
X116250431Y-54338537D01*
X115551484Y-53854457D01*
X114853226Y-53462925D01*
X114269376Y-53164457D01*
X114269376Y-51994330D01*
X113558492Y-51810960D01*
X112639602Y-51621665D01*
X111643896Y-51459573D01*
X110636516Y-51333088D01*
X110322114Y-51305499D01*
X109939582Y-51282351D01*
X109507135Y-51263771D01*
X109042991Y-51249887D01*
X108565367Y-51240826D01*
X108092479Y-51236716D01*
X107642545Y-51237684D01*
X107233781Y-51243858D01*
X106884405Y-51255366D01*
X106612633Y-51272335D01*
X106436683Y-51294892D01*
X106403182Y-51303444D01*
X106312345Y-51336542D01*
X106307744Y-51354930D01*
X106401510Y-51363780D01*
X106553300Y-51367431D01*
X107030375Y-51386926D01*
X107596911Y-51428944D01*
X108225138Y-51489933D01*
X108887288Y-51566344D01*
X109555593Y-51654625D01*
X110202281Y-51751226D01*
X110799586Y-51852595D01*
X111319737Y-51955181D01*
X111538169Y-52004851D01*
X111903877Y-52096597D01*
X112264559Y-52193839D01*
X112602367Y-52291023D01*
X112899449Y-52382594D01*
X113137956Y-52463000D01*
X113300037Y-52526685D01*
X113367843Y-52568096D01*
X113368044Y-52574205D01*
X113270840Y-52629361D01*
X113079892Y-52656932D01*
X112818330Y-52656959D01*
X112509283Y-52629489D01*
X112175880Y-52574565D01*
X112162840Y-52571896D01*
X111715293Y-52484915D01*
X111286928Y-52414236D01*
X110857359Y-52358185D01*
X110406198Y-52315091D01*
X109913059Y-52283281D01*
X109357555Y-52261084D01*
X108719300Y-52246827D01*
X108114530Y-52239845D01*
X106945118Y-52230485D01*
X106945118Y-52576134D01*
X107178444Y-52581902D01*
X107468966Y-52593814D01*
X107795838Y-52610825D01*
X108138213Y-52631892D01*
X108475246Y-52655969D01*
X108786090Y-52682012D01*
X108955192Y-52698548D01*
X109237043Y-52731906D01*
X109560235Y-52776226D01*
X109901193Y-52827567D01*
X110236341Y-52881987D01*
X110542103Y-52935542D01*
X110794902Y-52984290D01*
X110971164Y-53024288D01*
X111041345Y-53047405D01*
X111016958Y-53079827D01*
X110896685Y-53139297D01*
X110699470Y-53217689D01*
X110444256Y-53306877D01*
X110410849Y-53317848D01*
X110007993Y-53452939D01*
X109669698Y-53573747D01*
X109407468Y-53675700D01*
X109232806Y-53754229D01*
X109157217Y-53804764D01*
X109157102Y-53815926D01*
X109222119Y-53813908D01*
X109381161Y-53789989D01*
X109610979Y-53748134D01*
X109888322Y-53692308D01*
X109915071Y-53686681D01*
X110293653Y-53610011D01*
X110722035Y-53528352D01*
X111136837Y-53453580D01*
X111364153Y-53415113D01*
X112080690Y-53298214D01*
X112604584Y-53480682D01*
X113006323Y-53633367D01*
X113446859Y-53822170D01*
X113893106Y-54031191D01*
X114311976Y-54244529D01*
X114670382Y-54446282D01*
X114848215Y-54558914D01*
X115227449Y-54845258D01*
X115618120Y-55192743D01*
X115982424Y-55564961D01*
X116282557Y-55925506D01*
X116319082Y-55975459D01*
X116438585Y-56157197D01*
X116570251Y-56380997D01*
X116701951Y-56622877D01*
X116821558Y-56858856D01*
X116916946Y-57064954D01*
X116975987Y-57217190D01*
X116986553Y-57291582D01*
X116985387Y-57293041D01*
X116922960Y-57281987D01*
X116780434Y-57230062D01*
X116586233Y-57147834D01*
X116545638Y-57129566D01*
X116137662Y-56952284D01*
X115649315Y-56752857D01*
X115115046Y-56544340D01*
X114569302Y-56339789D01*
X114046532Y-56152259D01*
X113581186Y-55994805D01*
X113398690Y-55936933D01*
X113064202Y-55836864D01*
X112686158Y-55728896D01*
X112283434Y-55617887D01*
X111874902Y-55508696D01*
X111479435Y-55406182D01*
X111115908Y-55315203D01*
X110803195Y-55240620D01*
X110560168Y-55187290D01*
X110405701Y-55160072D01*
X110371472Y-55157601D01*
X110394479Y-55179494D01*
X110517218Y-55240565D01*
X110727810Y-55335651D01*
X111014379Y-55459590D01*
X111365047Y-55607220D01*
X111767935Y-55773378D01*
X112077650Y-55899153D01*
X112725719Y-56162849D01*
X113282120Y-56394698D01*
X113767832Y-56604492D01*
X114203831Y-56802026D01*
X114611094Y-56997094D01*
X115010599Y-57199488D01*
X115423323Y-57419003D01*
X115870242Y-57665433D01*
X115917845Y-57692059D01*
X116342475Y-57931559D01*
X116672426Y-58122593D01*
X116919043Y-58273100D01*
X117093673Y-58391022D01*
X117207659Y-58484299D01*
X117272346Y-58560870D01*
X117299081Y-58628678D01*
X117301764Y-58660678D01*
X117269778Y-58769507D01*
X117183449Y-58948829D01*
X117057218Y-59170693D01*
X116952115Y-59337457D01*
X116783704Y-59582225D01*
X116563566Y-59885357D01*
X116316896Y-60212992D01*
X116068887Y-60531267D01*
X115997852Y-60620033D01*
X115950700Y-60677595D01*
X115950700Y-64162322D01*
X115980724Y-64192345D01*
X115950700Y-64222369D01*
X115920676Y-64192345D01*
X115950700Y-64162322D01*
X115950700Y-60677595D01*
X115899934Y-60739569D01*
X115899934Y-64282416D01*
X115888560Y-64328318D01*
X115800583Y-64465523D01*
X115636531Y-64693285D01*
X115396931Y-65010854D01*
X115273071Y-65171903D01*
X115112440Y-65374124D01*
X114978976Y-65531452D01*
X114888902Y-65625417D01*
X114859330Y-65642977D01*
X114884773Y-65590087D01*
X114969640Y-65464326D01*
X115098090Y-65286403D01*
X115254282Y-65077030D01*
X115422377Y-64856919D01*
X115586532Y-64646781D01*
X115730908Y-64467327D01*
X115839663Y-64339268D01*
X115896957Y-64283317D01*
X115899934Y-64282416D01*
X115899934Y-60739569D01*
X115786140Y-60878487D01*
X115547987Y-61162252D01*
X115295569Y-61457579D01*
X115041060Y-61750719D01*
X114796638Y-62027922D01*
X114574477Y-62275439D01*
X114386753Y-62479521D01*
X114245642Y-62626418D01*
X114163320Y-62702382D01*
X114147753Y-62709251D01*
X114121431Y-62649184D01*
X114062604Y-62498651D01*
X113979848Y-62280031D01*
X113881741Y-62015707D01*
X113876773Y-62002200D01*
X113301234Y-60603628D01*
X112622797Y-59253553D01*
X111847456Y-57960083D01*
X110981204Y-56731327D01*
X110030033Y-55575395D01*
X108999938Y-54500396D01*
X107896910Y-53514439D01*
X107198809Y-52966163D01*
X106999805Y-52814532D01*
X106843277Y-52689477D01*
X106750163Y-52608045D01*
X106733442Y-52587211D01*
X106789836Y-52577556D01*
X106945118Y-52576134D01*
X106945118Y-52230485D01*
X106162993Y-52224224D01*
X105502473Y-51822739D01*
X104182233Y-51089918D01*
X102808859Y-50464245D01*
X101381684Y-49945497D01*
X99900041Y-49533453D01*
X98363262Y-49227888D01*
X97306019Y-49083023D01*
X96971614Y-49055028D01*
X96544774Y-49034270D01*
X96052940Y-49020748D01*
X95523552Y-49014463D01*
X94984052Y-49015414D01*
X94461881Y-49023602D01*
X93984479Y-49039027D01*
X93579287Y-49061689D01*
X93342899Y-49083023D01*
X91765944Y-49318649D01*
X90241359Y-49662329D01*
X88768869Y-50114176D01*
X87348202Y-50674301D01*
X85979086Y-51342817D01*
X84661247Y-52119835D01*
X83394412Y-53005468D01*
X82954719Y-53347758D01*
X82590530Y-53653454D01*
X82175140Y-54025823D01*
X81734630Y-54439611D01*
X81295079Y-54869567D01*
X80882570Y-55290437D01*
X80523183Y-55676970D01*
X80374732Y-55845773D01*
X79416093Y-57053447D01*
X78559327Y-58323235D01*
X77806421Y-59650582D01*
X77159359Y-61030933D01*
X76620126Y-62459732D01*
X76190708Y-63932425D01*
X75873089Y-65444455D01*
X75717137Y-66534189D01*
X75676702Y-66981058D01*
X75646837Y-67513721D01*
X75627782Y-68101010D01*
X75619777Y-68711755D01*
X75623063Y-69314785D01*
X75637882Y-69878933D01*
X75664472Y-70373027D01*
X75685609Y-70617404D01*
X75903351Y-72172454D01*
X76230883Y-73679166D01*
X76668735Y-75138821D01*
X77217435Y-76552698D01*
X77877512Y-77922078D01*
X78649495Y-79248240D01*
X79533913Y-80532465D01*
X80063915Y-81215750D01*
X80285888Y-81477854D01*
X80567191Y-81790484D01*
X80889850Y-82135418D01*
X81235888Y-82494434D01*
X81587329Y-82849312D01*
X81926197Y-83181831D01*
X82234517Y-83473768D01*
X82494311Y-83706904D01*
X82640818Y-83827806D01*
X82799075Y-83954845D01*
X82911136Y-84052533D01*
X82951644Y-84098019D01*
X82900459Y-84131231D01*
X82754410Y-84211586D01*
X82526060Y-84332537D01*
X82227970Y-84487534D01*
X81872699Y-84670029D01*
X81472809Y-84873474D01*
X81197670Y-85012453D01*
X80351032Y-85443368D01*
X79554142Y-85857791D01*
X78813213Y-86252130D01*
X78134461Y-86622796D01*
X77524097Y-86966197D01*
X76988336Y-87278744D01*
X76533392Y-87556844D01*
X76165479Y-87796909D01*
X75890810Y-87995347D01*
X75715599Y-88148567D01*
X75666061Y-88208869D01*
X75604197Y-88313140D01*
X75604631Y-88350539D01*
D11*
%TO.C,U6*%
X39649001Y-43459001D02*
X39649001Y-48539001D01*
X89179001Y-43713001D02*
X139979001Y-43713001D01*
X89179001Y-38633001D02*
X89179001Y-43713001D01*
X139979001Y-38633001D02*
X89179001Y-38633001D01*
X139979001Y-43713001D02*
X139979001Y-38633001D01*
%TD*%
M02*
