%TF.GenerationSoftware,KiCad,Pcbnew,(6.0.1)*%
%TF.CreationDate,2022-11-25T01:31:12-06:00*%
%TF.ProjectId,NavBoard_Hardware,4e617642-6f61-4726-945f-486172647761,rev?*%
%TF.SameCoordinates,Original*%
%TF.FileFunction,Other,Comment*%
%FSLAX46Y46*%
G04 Gerber Fmt 4.6, Leading zero omitted, Abs format (unit mm)*
G04 Created by KiCad (PCBNEW (6.0.1)) date 2022-11-25 01:31:12*
%MOMM*%
%LPD*%
G01*
G04 APERTURE LIST*
%ADD10C,0.150000*%
%ADD11C,0.100000*%
%ADD12C,0.002000*%
G04 APERTURE END LIST*
D10*
X114921190Y-51842380D02*
X114349761Y-51842380D01*
X114635476Y-51842380D02*
X114635476Y-50842380D01*
X114540238Y-50985238D01*
X114445000Y-51080476D01*
X114349761Y-51128095D01*
X115302142Y-50937619D02*
X115349761Y-50890000D01*
X115445000Y-50842380D01*
X115683095Y-50842380D01*
X115778333Y-50890000D01*
X115825952Y-50937619D01*
X115873571Y-51032857D01*
X115873571Y-51128095D01*
X115825952Y-51270952D01*
X115254523Y-51842380D01*
X115873571Y-51842380D01*
X116730714Y-51175714D02*
X116730714Y-51842380D01*
X116492619Y-50794761D02*
X116254523Y-51509047D01*
X116873571Y-51509047D01*
X117254523Y-51747142D02*
X117302142Y-51794761D01*
X117254523Y-51842380D01*
X117206904Y-51794761D01*
X117254523Y-51747142D01*
X117254523Y-51842380D01*
X117683095Y-50937619D02*
X117730714Y-50890000D01*
X117825952Y-50842380D01*
X118064047Y-50842380D01*
X118159285Y-50890000D01*
X118206904Y-50937619D01*
X118254523Y-51032857D01*
X118254523Y-51128095D01*
X118206904Y-51270952D01*
X117635476Y-51842380D01*
X118254523Y-51842380D01*
X118730714Y-51842380D02*
X118921190Y-51842380D01*
X119016428Y-51794761D01*
X119064047Y-51747142D01*
X119159285Y-51604285D01*
X119206904Y-51413809D01*
X119206904Y-51032857D01*
X119159285Y-50937619D01*
X119111666Y-50890000D01*
X119016428Y-50842380D01*
X118825952Y-50842380D01*
X118730714Y-50890000D01*
X118683095Y-50937619D01*
X118635476Y-51032857D01*
X118635476Y-51270952D01*
X118683095Y-51366190D01*
X118730714Y-51413809D01*
X118825952Y-51461428D01*
X119016428Y-51461428D01*
X119111666Y-51413809D01*
X119159285Y-51366190D01*
X119206904Y-51270952D01*
X119825952Y-50842380D02*
X119921190Y-50842380D01*
X120016428Y-50890000D01*
X120064047Y-50937619D01*
X120111666Y-51032857D01*
X120159285Y-51223333D01*
X120159285Y-51461428D01*
X120111666Y-51651904D01*
X120064047Y-51747142D01*
X120016428Y-51794761D01*
X119921190Y-51842380D01*
X119825952Y-51842380D01*
X119730714Y-51794761D01*
X119683095Y-51747142D01*
X119635476Y-51651904D01*
X119587857Y-51461428D01*
X119587857Y-51223333D01*
X119635476Y-51032857D01*
X119683095Y-50937619D01*
X119730714Y-50890000D01*
X119825952Y-50842380D01*
X120778333Y-50842380D02*
X120873571Y-50842380D01*
X120968809Y-50890000D01*
X121016428Y-50937619D01*
X121064047Y-51032857D01*
X121111666Y-51223333D01*
X121111666Y-51461428D01*
X121064047Y-51651904D01*
X121016428Y-51747142D01*
X120968809Y-51794761D01*
X120873571Y-51842380D01*
X120778333Y-51842380D01*
X120683095Y-51794761D01*
X120635476Y-51747142D01*
X120587857Y-51651904D01*
X120540238Y-51461428D01*
X120540238Y-51223333D01*
X120587857Y-51032857D01*
X120635476Y-50937619D01*
X120683095Y-50890000D01*
X120778333Y-50842380D01*
X122302142Y-51842380D02*
X122302142Y-51175714D01*
X122302142Y-51270952D02*
X122349761Y-51223333D01*
X122445000Y-51175714D01*
X122587857Y-51175714D01*
X122683095Y-51223333D01*
X122730714Y-51318571D01*
X122730714Y-51842380D01*
X122730714Y-51318571D02*
X122778333Y-51223333D01*
X122873571Y-51175714D01*
X123016428Y-51175714D01*
X123111666Y-51223333D01*
X123159285Y-51318571D01*
X123159285Y-51842380D01*
X123635476Y-51842380D02*
X123635476Y-51175714D01*
X123635476Y-51270952D02*
X123683095Y-51223333D01*
X123778333Y-51175714D01*
X123921190Y-51175714D01*
X124016428Y-51223333D01*
X124064047Y-51318571D01*
X124064047Y-51842380D01*
X124064047Y-51318571D02*
X124111666Y-51223333D01*
X124206904Y-51175714D01*
X124349761Y-51175714D01*
X124445000Y-51223333D01*
X124492619Y-51318571D01*
X124492619Y-51842380D01*
D11*
X57300000Y-57500000D02*
X57300000Y-51953580D01*
X181590000Y-57500000D02*
X181590000Y-51953580D01*
X57300000Y-52540000D02*
X181590000Y-52540000D01*
X57300000Y-52540000D02*
X181590000Y-52540000D01*
X57300000Y-52540000D02*
X58426504Y-53126421D01*
X57300000Y-52540000D02*
X58426504Y-51953579D01*
X181590000Y-52540000D02*
X180463496Y-51953579D01*
X181590000Y-52540000D02*
X180463496Y-53126421D01*
D10*
X102776190Y-89181665D02*
X102204761Y-89181665D01*
X102490476Y-89181665D02*
X102490476Y-88181665D01*
X102395238Y-88324523D01*
X102300000Y-88419761D01*
X102204761Y-88467380D01*
X103395238Y-88181665D02*
X103490476Y-88181665D01*
X103585714Y-88229285D01*
X103633333Y-88276904D01*
X103680952Y-88372142D01*
X103728571Y-88562618D01*
X103728571Y-88800713D01*
X103680952Y-88991189D01*
X103633333Y-89086427D01*
X103585714Y-89134046D01*
X103490476Y-89181665D01*
X103395238Y-89181665D01*
X103300000Y-89134046D01*
X103252380Y-89086427D01*
X103204761Y-88991189D01*
X103157142Y-88800713D01*
X103157142Y-88562618D01*
X103204761Y-88372142D01*
X103252380Y-88276904D01*
X103300000Y-88229285D01*
X103395238Y-88181665D01*
X104347619Y-88181665D02*
X104442857Y-88181665D01*
X104538095Y-88229285D01*
X104585714Y-88276904D01*
X104633333Y-88372142D01*
X104680952Y-88562618D01*
X104680952Y-88800713D01*
X104633333Y-88991189D01*
X104585714Y-89086427D01*
X104538095Y-89134046D01*
X104442857Y-89181665D01*
X104347619Y-89181665D01*
X104252380Y-89134046D01*
X104204761Y-89086427D01*
X104157142Y-88991189D01*
X104109523Y-88800713D01*
X104109523Y-88562618D01*
X104157142Y-88372142D01*
X104204761Y-88276904D01*
X104252380Y-88229285D01*
X104347619Y-88181665D01*
X105109523Y-89086427D02*
X105157142Y-89134046D01*
X105109523Y-89181665D01*
X105061904Y-89134046D01*
X105109523Y-89086427D01*
X105109523Y-89181665D01*
X105776190Y-88181665D02*
X105871428Y-88181665D01*
X105966666Y-88229285D01*
X106014285Y-88276904D01*
X106061904Y-88372142D01*
X106109523Y-88562618D01*
X106109523Y-88800713D01*
X106061904Y-88991189D01*
X106014285Y-89086427D01*
X105966666Y-89134046D01*
X105871428Y-89181665D01*
X105776190Y-89181665D01*
X105680952Y-89134046D01*
X105633333Y-89086427D01*
X105585714Y-88991189D01*
X105538095Y-88800713D01*
X105538095Y-88562618D01*
X105585714Y-88372142D01*
X105633333Y-88276904D01*
X105680952Y-88229285D01*
X105776190Y-88181665D01*
X106728571Y-88181665D02*
X106823809Y-88181665D01*
X106919047Y-88229285D01*
X106966666Y-88276904D01*
X107014285Y-88372142D01*
X107061904Y-88562618D01*
X107061904Y-88800713D01*
X107014285Y-88991189D01*
X106966666Y-89086427D01*
X106919047Y-89134046D01*
X106823809Y-89181665D01*
X106728571Y-89181665D01*
X106633333Y-89134046D01*
X106585714Y-89086427D01*
X106538095Y-88991189D01*
X106490476Y-88800713D01*
X106490476Y-88562618D01*
X106538095Y-88372142D01*
X106585714Y-88276904D01*
X106633333Y-88229285D01*
X106728571Y-88181665D01*
X107680952Y-88181665D02*
X107776190Y-88181665D01*
X107871428Y-88229285D01*
X107919047Y-88276904D01*
X107966666Y-88372142D01*
X108014285Y-88562618D01*
X108014285Y-88800713D01*
X107966666Y-88991189D01*
X107919047Y-89086427D01*
X107871428Y-89134046D01*
X107776190Y-89181665D01*
X107680952Y-89181665D01*
X107585714Y-89134046D01*
X107538095Y-89086427D01*
X107490476Y-88991189D01*
X107442857Y-88800713D01*
X107442857Y-88562618D01*
X107490476Y-88372142D01*
X107538095Y-88276904D01*
X107585714Y-88229285D01*
X107680952Y-88181665D01*
X108633333Y-88181665D02*
X108728571Y-88181665D01*
X108823809Y-88229285D01*
X108871428Y-88276904D01*
X108919047Y-88372142D01*
X108966666Y-88562618D01*
X108966666Y-88800713D01*
X108919047Y-88991189D01*
X108871428Y-89086427D01*
X108823809Y-89134046D01*
X108728571Y-89181665D01*
X108633333Y-89181665D01*
X108538095Y-89134046D01*
X108490476Y-89086427D01*
X108442857Y-88991189D01*
X108395238Y-88800713D01*
X108395238Y-88562618D01*
X108442857Y-88372142D01*
X108490476Y-88276904D01*
X108538095Y-88229285D01*
X108633333Y-88181665D01*
X110157142Y-89181665D02*
X110157142Y-88514999D01*
X110157142Y-88610237D02*
X110204761Y-88562618D01*
X110300000Y-88514999D01*
X110442857Y-88514999D01*
X110538095Y-88562618D01*
X110585714Y-88657856D01*
X110585714Y-89181665D01*
X110585714Y-88657856D02*
X110633333Y-88562618D01*
X110728571Y-88514999D01*
X110871428Y-88514999D01*
X110966666Y-88562618D01*
X111014285Y-88657856D01*
X111014285Y-89181665D01*
X111490476Y-89181665D02*
X111490476Y-88514999D01*
X111490476Y-88610237D02*
X111538095Y-88562618D01*
X111633333Y-88514999D01*
X111776190Y-88514999D01*
X111871428Y-88562618D01*
X111919047Y-88657856D01*
X111919047Y-89181665D01*
X111919047Y-88657856D02*
X111966666Y-88562618D01*
X112061904Y-88514999D01*
X112204761Y-88514999D01*
X112300000Y-88562618D01*
X112347619Y-88657856D01*
X112347619Y-89181665D01*
D11*
X57300000Y-83600000D02*
X57300000Y-90465705D01*
X157300000Y-83600000D02*
X157300000Y-90465705D01*
X57300000Y-89879285D02*
X157300000Y-89879285D01*
X57300000Y-89879285D02*
X157300000Y-89879285D01*
X57300000Y-89879285D02*
X58426504Y-90465706D01*
X57300000Y-89879285D02*
X58426504Y-89292864D01*
X157300000Y-89879285D02*
X156173496Y-89292864D01*
X157300000Y-89879285D02*
X156173496Y-90465706D01*
D10*
X48431310Y-75216666D02*
X48431310Y-74597619D01*
X48812263Y-74930952D01*
X48812263Y-74788095D01*
X48859882Y-74692857D01*
X48907501Y-74645238D01*
X49002739Y-74597619D01*
X49240834Y-74597619D01*
X49336072Y-74645238D01*
X49383691Y-74692857D01*
X49431310Y-74788095D01*
X49431310Y-75073809D01*
X49383691Y-75169047D01*
X49336072Y-75216666D01*
X48431310Y-74264285D02*
X48431310Y-73645238D01*
X48812263Y-73978571D01*
X48812263Y-73835714D01*
X48859882Y-73740476D01*
X48907501Y-73692857D01*
X49002739Y-73645238D01*
X49240834Y-73645238D01*
X49336072Y-73692857D01*
X49383691Y-73740476D01*
X49431310Y-73835714D01*
X49431310Y-74121428D01*
X49383691Y-74216666D01*
X49336072Y-74264285D01*
X49336072Y-73216666D02*
X49383691Y-73169047D01*
X49431310Y-73216666D01*
X49383691Y-73264285D01*
X49336072Y-73216666D01*
X49431310Y-73216666D01*
X49431310Y-72216666D02*
X49431310Y-72788095D01*
X49431310Y-72502380D02*
X48431310Y-72502380D01*
X48574168Y-72597619D01*
X48669406Y-72692857D01*
X48717025Y-72788095D01*
X48431310Y-71597619D02*
X48431310Y-71502380D01*
X48478930Y-71407142D01*
X48526549Y-71359523D01*
X48621787Y-71311904D01*
X48812263Y-71264285D01*
X49050358Y-71264285D01*
X49240834Y-71311904D01*
X49336072Y-71359523D01*
X49383691Y-71407142D01*
X49431310Y-71502380D01*
X49431310Y-71597619D01*
X49383691Y-71692857D01*
X49336072Y-71740476D01*
X49240834Y-71788095D01*
X49050358Y-71835714D01*
X48812263Y-71835714D01*
X48621787Y-71788095D01*
X48526549Y-71740476D01*
X48478930Y-71692857D01*
X48431310Y-71597619D01*
X48431310Y-70645238D02*
X48431310Y-70550000D01*
X48478930Y-70454761D01*
X48526549Y-70407142D01*
X48621787Y-70359523D01*
X48812263Y-70311904D01*
X49050358Y-70311904D01*
X49240834Y-70359523D01*
X49336072Y-70407142D01*
X49383691Y-70454761D01*
X49431310Y-70550000D01*
X49431310Y-70645238D01*
X49383691Y-70740476D01*
X49336072Y-70788095D01*
X49240834Y-70835714D01*
X49050358Y-70883333D01*
X48812263Y-70883333D01*
X48621787Y-70835714D01*
X48526549Y-70788095D01*
X48478930Y-70740476D01*
X48431310Y-70645238D01*
X48431310Y-69692857D02*
X48431310Y-69597619D01*
X48478930Y-69502380D01*
X48526549Y-69454761D01*
X48621787Y-69407142D01*
X48812263Y-69359523D01*
X49050358Y-69359523D01*
X49240834Y-69407142D01*
X49336072Y-69454761D01*
X49383691Y-69502380D01*
X49431310Y-69597619D01*
X49431310Y-69692857D01*
X49383691Y-69788095D01*
X49336072Y-69835714D01*
X49240834Y-69883333D01*
X49050358Y-69930952D01*
X48812263Y-69930952D01*
X48621787Y-69883333D01*
X48526549Y-69835714D01*
X48478930Y-69788095D01*
X48431310Y-69692857D01*
X49431310Y-68169047D02*
X48764644Y-68169047D01*
X48859882Y-68169047D02*
X48812263Y-68121428D01*
X48764644Y-68026190D01*
X48764644Y-67883333D01*
X48812263Y-67788095D01*
X48907501Y-67740476D01*
X49431310Y-67740476D01*
X48907501Y-67740476D02*
X48812263Y-67692857D01*
X48764644Y-67597619D01*
X48764644Y-67454761D01*
X48812263Y-67359523D01*
X48907501Y-67311904D01*
X49431310Y-67311904D01*
X49431310Y-66835714D02*
X48764644Y-66835714D01*
X48859882Y-66835714D02*
X48812263Y-66788095D01*
X48764644Y-66692857D01*
X48764644Y-66550000D01*
X48812263Y-66454761D01*
X48907501Y-66407142D01*
X49431310Y-66407142D01*
X48907501Y-66407142D02*
X48812263Y-66359523D01*
X48764644Y-66264285D01*
X48764644Y-66121428D01*
X48812263Y-66026190D01*
X48907501Y-65978571D01*
X49431310Y-65978571D01*
D11*
X60800000Y-54000000D02*
X49542510Y-54000000D01*
X60800000Y-87100000D02*
X49542510Y-87100000D01*
X50128930Y-54000000D02*
X50128930Y-87100000D01*
X50128930Y-54000000D02*
X50128930Y-87100000D01*
X50128930Y-54000000D02*
X49542509Y-55126504D01*
X50128930Y-54000000D02*
X50715351Y-55126504D01*
X50128930Y-87100000D02*
X50715351Y-85973496D01*
X50128930Y-87100000D02*
X49542509Y-85973496D01*
D12*
%TO.C,U3*%
X121781866Y-72894762D02*
X121787913Y-72900809D01*
X121793961Y-72918952D01*
X121793961Y-72931048D01*
X121787913Y-72949190D01*
X121775818Y-72961286D01*
X121763723Y-72967333D01*
X121739532Y-72973381D01*
X121721389Y-72973381D01*
X121697199Y-72967333D01*
X121685104Y-72961286D01*
X121673009Y-72949190D01*
X121666961Y-72931048D01*
X121666961Y-72918952D01*
X121673009Y-72900809D01*
X121679056Y-72894762D01*
X121793961Y-72822190D02*
X121787913Y-72834286D01*
X121781866Y-72840333D01*
X121769770Y-72846381D01*
X121733485Y-72846381D01*
X121721389Y-72840333D01*
X121715342Y-72834286D01*
X121709294Y-72822190D01*
X121709294Y-72804048D01*
X121715342Y-72791952D01*
X121721389Y-72785905D01*
X121733485Y-72779857D01*
X121769770Y-72779857D01*
X121781866Y-72785905D01*
X121787913Y-72791952D01*
X121793961Y-72804048D01*
X121793961Y-72822190D01*
X121709294Y-72725429D02*
X121836294Y-72725429D01*
X121715342Y-72725429D02*
X121709294Y-72713333D01*
X121709294Y-72689143D01*
X121715342Y-72677048D01*
X121721389Y-72671000D01*
X121733485Y-72664952D01*
X121769770Y-72664952D01*
X121781866Y-72671000D01*
X121787913Y-72677048D01*
X121793961Y-72689143D01*
X121793961Y-72713333D01*
X121787913Y-72725429D01*
X121709294Y-72622619D02*
X121793961Y-72592381D01*
X121709294Y-72562143D02*
X121793961Y-72592381D01*
X121824199Y-72604476D01*
X121830247Y-72610524D01*
X121836294Y-72622619D01*
X121793961Y-72513762D02*
X121709294Y-72513762D01*
X121733485Y-72513762D02*
X121721389Y-72507714D01*
X121715342Y-72501667D01*
X121709294Y-72489571D01*
X121709294Y-72477476D01*
X121793961Y-72435143D02*
X121709294Y-72435143D01*
X121666961Y-72435143D02*
X121673009Y-72441190D01*
X121679056Y-72435143D01*
X121673009Y-72429095D01*
X121666961Y-72435143D01*
X121679056Y-72435143D01*
X121709294Y-72320238D02*
X121812104Y-72320238D01*
X121824199Y-72326286D01*
X121830247Y-72332333D01*
X121836294Y-72344429D01*
X121836294Y-72362571D01*
X121830247Y-72374667D01*
X121787913Y-72320238D02*
X121793961Y-72332333D01*
X121793961Y-72356524D01*
X121787913Y-72368619D01*
X121781866Y-72374667D01*
X121769770Y-72380714D01*
X121733485Y-72380714D01*
X121721389Y-72374667D01*
X121715342Y-72368619D01*
X121709294Y-72356524D01*
X121709294Y-72332333D01*
X121715342Y-72320238D01*
X121793961Y-72259762D02*
X121666961Y-72259762D01*
X121793961Y-72205333D02*
X121727437Y-72205333D01*
X121715342Y-72211381D01*
X121709294Y-72223476D01*
X121709294Y-72241619D01*
X121715342Y-72253714D01*
X121721389Y-72259762D01*
X121709294Y-72163000D02*
X121709294Y-72114619D01*
X121666961Y-72144857D02*
X121775818Y-72144857D01*
X121787913Y-72138809D01*
X121793961Y-72126714D01*
X121793961Y-72114619D01*
X121679056Y-71981571D02*
X121673009Y-71975524D01*
X121666961Y-71963429D01*
X121666961Y-71933190D01*
X121673009Y-71921095D01*
X121679056Y-71915048D01*
X121691151Y-71909000D01*
X121703247Y-71909000D01*
X121721389Y-71915048D01*
X121793961Y-71987619D01*
X121793961Y-71909000D01*
X121666961Y-71830381D02*
X121666961Y-71818286D01*
X121673009Y-71806190D01*
X121679056Y-71800143D01*
X121691151Y-71794095D01*
X121715342Y-71788048D01*
X121745580Y-71788048D01*
X121769770Y-71794095D01*
X121781866Y-71800143D01*
X121787913Y-71806190D01*
X121793961Y-71818286D01*
X121793961Y-71830381D01*
X121787913Y-71842476D01*
X121781866Y-71848524D01*
X121769770Y-71854571D01*
X121745580Y-71860619D01*
X121715342Y-71860619D01*
X121691151Y-71854571D01*
X121679056Y-71848524D01*
X121673009Y-71842476D01*
X121666961Y-71830381D01*
X121679056Y-71739667D02*
X121673009Y-71733619D01*
X121666961Y-71721524D01*
X121666961Y-71691286D01*
X121673009Y-71679190D01*
X121679056Y-71673143D01*
X121691151Y-71667095D01*
X121703247Y-71667095D01*
X121721389Y-71673143D01*
X121793961Y-71745714D01*
X121793961Y-71667095D01*
X121793961Y-71546143D02*
X121793961Y-71618714D01*
X121793961Y-71582429D02*
X121666961Y-71582429D01*
X121685104Y-71594524D01*
X121697199Y-71606619D01*
X121703247Y-71618714D01*
X121757675Y-71401000D02*
X121757675Y-71340524D01*
X121793961Y-71413095D02*
X121666961Y-71370762D01*
X121793961Y-71328429D01*
X121787913Y-71231667D02*
X121793961Y-71243762D01*
X121793961Y-71267952D01*
X121787913Y-71280048D01*
X121781866Y-71286095D01*
X121769770Y-71292143D01*
X121733485Y-71292143D01*
X121721389Y-71286095D01*
X121715342Y-71280048D01*
X121709294Y-71267952D01*
X121709294Y-71243762D01*
X121715342Y-71231667D01*
X121787913Y-71122809D02*
X121793961Y-71134905D01*
X121793961Y-71159095D01*
X121787913Y-71171190D01*
X121781866Y-71177238D01*
X121769770Y-71183286D01*
X121733485Y-71183286D01*
X121721389Y-71177238D01*
X121715342Y-71171190D01*
X121709294Y-71159095D01*
X121709294Y-71134905D01*
X121715342Y-71122809D01*
X121787913Y-71020000D02*
X121793961Y-71032095D01*
X121793961Y-71056286D01*
X121787913Y-71068381D01*
X121775818Y-71074429D01*
X121727437Y-71074429D01*
X121715342Y-71068381D01*
X121709294Y-71056286D01*
X121709294Y-71032095D01*
X121715342Y-71020000D01*
X121727437Y-71013952D01*
X121739532Y-71013952D01*
X121751628Y-71074429D01*
X121793961Y-70941381D02*
X121787913Y-70953476D01*
X121775818Y-70959524D01*
X121666961Y-70959524D01*
X121787913Y-70844619D02*
X121793961Y-70856714D01*
X121793961Y-70880905D01*
X121787913Y-70893000D01*
X121775818Y-70899048D01*
X121727437Y-70899048D01*
X121715342Y-70893000D01*
X121709294Y-70880905D01*
X121709294Y-70856714D01*
X121715342Y-70844619D01*
X121727437Y-70838571D01*
X121739532Y-70838571D01*
X121751628Y-70899048D01*
X121793961Y-70784143D02*
X121709294Y-70784143D01*
X121733485Y-70784143D02*
X121721389Y-70778095D01*
X121715342Y-70772048D01*
X121709294Y-70759952D01*
X121709294Y-70747857D01*
X121793961Y-70651095D02*
X121727437Y-70651095D01*
X121715342Y-70657143D01*
X121709294Y-70669238D01*
X121709294Y-70693429D01*
X121715342Y-70705524D01*
X121787913Y-70651095D02*
X121793961Y-70663190D01*
X121793961Y-70693429D01*
X121787913Y-70705524D01*
X121775818Y-70711571D01*
X121763723Y-70711571D01*
X121751628Y-70705524D01*
X121745580Y-70693429D01*
X121745580Y-70663190D01*
X121739532Y-70651095D01*
X121709294Y-70608762D02*
X121709294Y-70560381D01*
X121666961Y-70590619D02*
X121775818Y-70590619D01*
X121787913Y-70584571D01*
X121793961Y-70572476D01*
X121793961Y-70560381D01*
X121787913Y-70469667D02*
X121793961Y-70481762D01*
X121793961Y-70505952D01*
X121787913Y-70518048D01*
X121775818Y-70524095D01*
X121727437Y-70524095D01*
X121715342Y-70518048D01*
X121709294Y-70505952D01*
X121709294Y-70481762D01*
X121715342Y-70469667D01*
X121727437Y-70463619D01*
X121739532Y-70463619D01*
X121751628Y-70524095D01*
X121793961Y-70354762D02*
X121666961Y-70354762D01*
X121787913Y-70354762D02*
X121793961Y-70366857D01*
X121793961Y-70391048D01*
X121787913Y-70403143D01*
X121781866Y-70409190D01*
X121769770Y-70415238D01*
X121733485Y-70415238D01*
X121721389Y-70409190D01*
X121715342Y-70403143D01*
X121709294Y-70391048D01*
X121709294Y-70366857D01*
X121715342Y-70354762D01*
X121793961Y-70197524D02*
X121666961Y-70197524D01*
X121666961Y-70167286D01*
X121673009Y-70149143D01*
X121685104Y-70137048D01*
X121697199Y-70131000D01*
X121721389Y-70124952D01*
X121739532Y-70124952D01*
X121763723Y-70131000D01*
X121775818Y-70137048D01*
X121787913Y-70149143D01*
X121793961Y-70167286D01*
X121793961Y-70197524D01*
X121787913Y-70022143D02*
X121793961Y-70034238D01*
X121793961Y-70058429D01*
X121787913Y-70070524D01*
X121775818Y-70076571D01*
X121727437Y-70076571D01*
X121715342Y-70070524D01*
X121709294Y-70058429D01*
X121709294Y-70034238D01*
X121715342Y-70022143D01*
X121727437Y-70016095D01*
X121739532Y-70016095D01*
X121751628Y-70076571D01*
X121787913Y-69967714D02*
X121793961Y-69955619D01*
X121793961Y-69931429D01*
X121787913Y-69919333D01*
X121775818Y-69913286D01*
X121769770Y-69913286D01*
X121757675Y-69919333D01*
X121751628Y-69931429D01*
X121751628Y-69949571D01*
X121745580Y-69961667D01*
X121733485Y-69967714D01*
X121727437Y-69967714D01*
X121715342Y-69961667D01*
X121709294Y-69949571D01*
X121709294Y-69931429D01*
X121715342Y-69919333D01*
X121793961Y-69858857D02*
X121709294Y-69858857D01*
X121666961Y-69858857D02*
X121673009Y-69864905D01*
X121679056Y-69858857D01*
X121673009Y-69852809D01*
X121666961Y-69858857D01*
X121679056Y-69858857D01*
X121709294Y-69743952D02*
X121812104Y-69743952D01*
X121824199Y-69750000D01*
X121830247Y-69756048D01*
X121836294Y-69768143D01*
X121836294Y-69786286D01*
X121830247Y-69798381D01*
X121787913Y-69743952D02*
X121793961Y-69756048D01*
X121793961Y-69780238D01*
X121787913Y-69792333D01*
X121781866Y-69798381D01*
X121769770Y-69804429D01*
X121733485Y-69804429D01*
X121721389Y-69798381D01*
X121715342Y-69792333D01*
X121709294Y-69780238D01*
X121709294Y-69756048D01*
X121715342Y-69743952D01*
X121709294Y-69683476D02*
X121793961Y-69683476D01*
X121721389Y-69683476D02*
X121715342Y-69677429D01*
X121709294Y-69665333D01*
X121709294Y-69647190D01*
X121715342Y-69635095D01*
X121727437Y-69629048D01*
X121793961Y-69629048D01*
X121787913Y-69574619D02*
X121793961Y-69562524D01*
X121793961Y-69538333D01*
X121787913Y-69526238D01*
X121775818Y-69520190D01*
X121769770Y-69520190D01*
X121757675Y-69526238D01*
X121751628Y-69538333D01*
X121751628Y-69556476D01*
X121745580Y-69568571D01*
X121733485Y-69574619D01*
X121727437Y-69574619D01*
X121715342Y-69568571D01*
X121709294Y-69556476D01*
X121709294Y-69538333D01*
X121715342Y-69526238D01*
X121781866Y-69465762D02*
X121787913Y-69459714D01*
X121793961Y-69465762D01*
X121787913Y-69471809D01*
X121781866Y-69465762D01*
X121793961Y-69465762D01*
X121757675Y-69314571D02*
X121757675Y-69254095D01*
X121793961Y-69326667D02*
X121666961Y-69284333D01*
X121793961Y-69242000D01*
X121793961Y-69181524D02*
X121787913Y-69193619D01*
X121775818Y-69199667D01*
X121666961Y-69199667D01*
X121793961Y-69115000D02*
X121787913Y-69127095D01*
X121775818Y-69133143D01*
X121666961Y-69133143D01*
X121793961Y-68969857D02*
X121709294Y-68969857D01*
X121733485Y-68969857D02*
X121721389Y-68963809D01*
X121715342Y-68957762D01*
X121709294Y-68945667D01*
X121709294Y-68933571D01*
X121793961Y-68891238D02*
X121709294Y-68891238D01*
X121666961Y-68891238D02*
X121673009Y-68897286D01*
X121679056Y-68891238D01*
X121673009Y-68885190D01*
X121666961Y-68891238D01*
X121679056Y-68891238D01*
X121709294Y-68776333D02*
X121812104Y-68776333D01*
X121824199Y-68782381D01*
X121830247Y-68788429D01*
X121836294Y-68800524D01*
X121836294Y-68818667D01*
X121830247Y-68830762D01*
X121787913Y-68776333D02*
X121793961Y-68788429D01*
X121793961Y-68812619D01*
X121787913Y-68824714D01*
X121781866Y-68830762D01*
X121769770Y-68836809D01*
X121733485Y-68836809D01*
X121721389Y-68830762D01*
X121715342Y-68824714D01*
X121709294Y-68812619D01*
X121709294Y-68788429D01*
X121715342Y-68776333D01*
X121793961Y-68715857D02*
X121666961Y-68715857D01*
X121793961Y-68661429D02*
X121727437Y-68661429D01*
X121715342Y-68667476D01*
X121709294Y-68679571D01*
X121709294Y-68697714D01*
X121715342Y-68709809D01*
X121721389Y-68715857D01*
X121709294Y-68619095D02*
X121709294Y-68570714D01*
X121666961Y-68600952D02*
X121775818Y-68600952D01*
X121787913Y-68594905D01*
X121793961Y-68582809D01*
X121793961Y-68570714D01*
X121787913Y-68534429D02*
X121793961Y-68522333D01*
X121793961Y-68498143D01*
X121787913Y-68486048D01*
X121775818Y-68480000D01*
X121769770Y-68480000D01*
X121757675Y-68486048D01*
X121751628Y-68498143D01*
X121751628Y-68516286D01*
X121745580Y-68528381D01*
X121733485Y-68534429D01*
X121727437Y-68534429D01*
X121715342Y-68528381D01*
X121709294Y-68516286D01*
X121709294Y-68498143D01*
X121715342Y-68486048D01*
X121793961Y-68328809D02*
X121709294Y-68328809D01*
X121733485Y-68328809D02*
X121721389Y-68322762D01*
X121715342Y-68316714D01*
X121709294Y-68304619D01*
X121709294Y-68292524D01*
X121787913Y-68201809D02*
X121793961Y-68213905D01*
X121793961Y-68238095D01*
X121787913Y-68250190D01*
X121775818Y-68256238D01*
X121727437Y-68256238D01*
X121715342Y-68250190D01*
X121709294Y-68238095D01*
X121709294Y-68213905D01*
X121715342Y-68201809D01*
X121727437Y-68195762D01*
X121739532Y-68195762D01*
X121751628Y-68256238D01*
X121787913Y-68147381D02*
X121793961Y-68135286D01*
X121793961Y-68111095D01*
X121787913Y-68099000D01*
X121775818Y-68092952D01*
X121769770Y-68092952D01*
X121757675Y-68099000D01*
X121751628Y-68111095D01*
X121751628Y-68129238D01*
X121745580Y-68141333D01*
X121733485Y-68147381D01*
X121727437Y-68147381D01*
X121715342Y-68141333D01*
X121709294Y-68129238D01*
X121709294Y-68111095D01*
X121715342Y-68099000D01*
X121787913Y-67990143D02*
X121793961Y-68002238D01*
X121793961Y-68026429D01*
X121787913Y-68038524D01*
X121775818Y-68044571D01*
X121727437Y-68044571D01*
X121715342Y-68038524D01*
X121709294Y-68026429D01*
X121709294Y-68002238D01*
X121715342Y-67990143D01*
X121727437Y-67984095D01*
X121739532Y-67984095D01*
X121751628Y-68044571D01*
X121793961Y-67929667D02*
X121709294Y-67929667D01*
X121733485Y-67929667D02*
X121721389Y-67923619D01*
X121715342Y-67917571D01*
X121709294Y-67905476D01*
X121709294Y-67893381D01*
X121709294Y-67863143D02*
X121793961Y-67832905D01*
X121709294Y-67802667D01*
X121787913Y-67705905D02*
X121793961Y-67718000D01*
X121793961Y-67742190D01*
X121787913Y-67754286D01*
X121775818Y-67760333D01*
X121727437Y-67760333D01*
X121715342Y-67754286D01*
X121709294Y-67742190D01*
X121709294Y-67718000D01*
X121715342Y-67705905D01*
X121727437Y-67699857D01*
X121739532Y-67699857D01*
X121751628Y-67760333D01*
X121793961Y-67591000D02*
X121666961Y-67591000D01*
X121787913Y-67591000D02*
X121793961Y-67603095D01*
X121793961Y-67627286D01*
X121787913Y-67639381D01*
X121781866Y-67645429D01*
X121769770Y-67651476D01*
X121733485Y-67651476D01*
X121721389Y-67645429D01*
X121715342Y-67639381D01*
X121709294Y-67627286D01*
X121709294Y-67603095D01*
X121715342Y-67591000D01*
X121781866Y-67530524D02*
X121787913Y-67524476D01*
X121793961Y-67530524D01*
X121787913Y-67536571D01*
X121781866Y-67530524D01*
X121793961Y-67530524D01*
%TD*%
M02*
