%TF.GenerationSoftware,KiCad,Pcbnew,(6.0.1)*%
%TF.CreationDate,2022-11-25T01:31:12-06:00*%
%TF.ProjectId,NavBoard_Hardware,4e617642-6f61-4726-945f-486172647761,rev?*%
%TF.SameCoordinates,Original*%
%TF.FileFunction,Soldermask,Bot*%
%TF.FilePolarity,Negative*%
%FSLAX46Y46*%
G04 Gerber Fmt 4.6, Leading zero omitted, Abs format (unit mm)*
G04 Created by KiCad (PCBNEW (6.0.1)) date 2022-11-25 01:31:12*
%MOMM*%
%LPD*%
G01*
G04 APERTURE LIST*
G04 Aperture macros list*
%AMRoundRect*
0 Rectangle with rounded corners*
0 $1 Rounding radius*
0 $2 $3 $4 $5 $6 $7 $8 $9 X,Y pos of 4 corners*
0 Add a 4 corners polygon primitive as box body*
4,1,4,$2,$3,$4,$5,$6,$7,$8,$9,$2,$3,0*
0 Add four circle primitives for the rounded corners*
1,1,$1+$1,$2,$3*
1,1,$1+$1,$4,$5*
1,1,$1+$1,$6,$7*
1,1,$1+$1,$8,$9*
0 Add four rect primitives between the rounded corners*
20,1,$1+$1,$2,$3,$4,$5,0*
20,1,$1+$1,$4,$5,$6,$7,0*
20,1,$1+$1,$6,$7,$8,$9,0*
20,1,$1+$1,$8,$9,$2,$3,0*%
G04 Aperture macros list end*
%ADD10R,1.800000X1.800000*%
%ADD11C,1.800000*%
%ADD12C,6.000000*%
%ADD13C,3.250000*%
%ADD14RoundRect,0.250500X-0.499500X0.499500X-0.499500X-0.499500X0.499500X-0.499500X0.499500X0.499500X0*%
%ADD15C,1.500000*%
%ADD16C,2.500000*%
%ADD17C,1.524000*%
%ADD18RoundRect,0.237500X0.344715X-0.008839X-0.008839X0.344715X-0.344715X0.008839X0.008839X-0.344715X0*%
%ADD19R,1.600000X1.600000*%
%ADD20C,1.600000*%
%ADD21R,1.300000X1.300000*%
%ADD22C,1.300000*%
%ADD23RoundRect,0.237500X0.008839X0.344715X-0.344715X-0.008839X-0.008839X-0.344715X0.344715X0.008839X0*%
%ADD24O,3.000000X5.100000*%
G04 APERTURE END LIST*
D10*
%TO.C,U2*%
X81480000Y-68087500D03*
D11*
X81480000Y-70627500D03*
X81480000Y-73167500D03*
%TD*%
D12*
%TO.C,H3*%
X153300000Y-83100000D03*
%TD*%
%TO.C,H2*%
X153300000Y-58000000D03*
%TD*%
%TO.C,H1*%
X61300000Y-58000000D03*
%TD*%
D13*
%TO.C,J2*%
X64075000Y-64830000D03*
X64075000Y-76260000D03*
D14*
X70425000Y-66100000D03*
D15*
X72965000Y-67370000D03*
X70425000Y-68640000D03*
X72965000Y-69910000D03*
X70425000Y-71180000D03*
X72965000Y-72450000D03*
X70425000Y-73720000D03*
X72965000Y-74990000D03*
X58995000Y-64220000D03*
X60695000Y-66760000D03*
X58995000Y-74330000D03*
X60695000Y-76870000D03*
D16*
X67125000Y-78420000D03*
X67125000Y-62670000D03*
%TD*%
D12*
%TO.C,H4*%
X61300000Y-83100000D03*
%TD*%
D17*
%TO.C,J1*%
X146612000Y-76900000D03*
X146612000Y-74360000D03*
X146612000Y-71820000D03*
X146612000Y-69280000D03*
X146612000Y-66740000D03*
X146612000Y-64200000D03*
%TD*%
D18*
%TO.C,R3*%
X140545235Y-72045235D03*
X139254765Y-70754765D03*
%TD*%
D19*
%TO.C,U1*%
X78550200Y-62900000D03*
D20*
X81090200Y-62900000D03*
X83630200Y-62900000D03*
X86170200Y-62900000D03*
X88710200Y-62900000D03*
X91250200Y-62900000D03*
X93790200Y-62900000D03*
X96330200Y-62900000D03*
X98870200Y-62900000D03*
X101410200Y-62900000D03*
X103950200Y-62900000D03*
X106490200Y-62900000D03*
X109030200Y-62900000D03*
X111570200Y-62900000D03*
X114110200Y-62900000D03*
X116650200Y-62900000D03*
X119190200Y-62900000D03*
X121730200Y-62900000D03*
X124270200Y-62900000D03*
X126810200Y-62900000D03*
X129350200Y-62900000D03*
X131890200Y-62900000D03*
X134430200Y-62900000D03*
X136970200Y-62900000D03*
X136970200Y-78140000D03*
X134430200Y-78140000D03*
X131890200Y-78140000D03*
X129350200Y-78140000D03*
X126810200Y-78140000D03*
X124270200Y-78140000D03*
X121730200Y-78140000D03*
X119190200Y-78140000D03*
X116650200Y-78140000D03*
X114110200Y-78140000D03*
X111570200Y-78140000D03*
X109030200Y-78140000D03*
X106490200Y-78140000D03*
X103950200Y-78140000D03*
X101410200Y-78140000D03*
X98870200Y-78140000D03*
X96330200Y-78140000D03*
X93790200Y-78140000D03*
X91250200Y-78140000D03*
X88710200Y-78140000D03*
X86170200Y-78140000D03*
X83630200Y-78140000D03*
X81090200Y-78140000D03*
X78550200Y-78140000D03*
D21*
X91520200Y-75701600D03*
D22*
X91520200Y-73701600D03*
X91520200Y-71701600D03*
X93520200Y-71701600D03*
X93520200Y-73701600D03*
X93520200Y-75701600D03*
%TD*%
D23*
%TO.C,R2*%
X143645235Y-68954765D03*
X142354765Y-70245235D03*
%TD*%
%TO.C,R1*%
X137345235Y-67354765D03*
X136054765Y-68645235D03*
%TD*%
D24*
%TO.C,Conn1*%
X153300000Y-66600000D03*
X153300000Y-74474000D03*
%TD*%
D18*
%TO.C,R4*%
X134323205Y-70435706D03*
X133032735Y-69145236D03*
%TD*%
M02*
