%TF.GenerationSoftware,KiCad,Pcbnew,(5.1.10)-1*%
%TF.CreationDate,2021-11-15T22:54:34-06:00*%
%TF.ProjectId,NavBoard_Hardware,4e617642-6f61-4726-945f-486172647761,rev?*%
%TF.SameCoordinates,Original*%
%TF.FileFunction,Copper,L2,Bot*%
%TF.FilePolarity,Positive*%
%FSLAX46Y46*%
G04 Gerber Fmt 4.6, Leading zero omitted, Abs format (unit mm)*
G04 Created by KiCad (PCBNEW (5.1.10)-1) date 2021-11-15 22:54:34*
%MOMM*%
%LPD*%
G01*
G04 APERTURE LIST*
%TA.AperFunction,ComponentPad*%
%ADD10C,1.700000*%
%TD*%
%TA.AperFunction,ComponentPad*%
%ADD11R,1.600000X1.600000*%
%TD*%
%TA.AperFunction,ComponentPad*%
%ADD12C,1.600000*%
%TD*%
%TA.AperFunction,ComponentPad*%
%ADD13C,5.080000*%
%TD*%
%TA.AperFunction,ComponentPad*%
%ADD14C,2.250000*%
%TD*%
%TA.AperFunction,ComponentPad*%
%ADD15C,1.524000*%
%TD*%
%TA.AperFunction,ViaPad*%
%ADD16C,0.800000*%
%TD*%
%TA.AperFunction,ViaPad*%
%ADD17C,1.016000*%
%TD*%
%TA.AperFunction,Conductor*%
%ADD18C,0.254000*%
%TD*%
%TA.AperFunction,Conductor*%
%ADD19C,1.016000*%
%TD*%
%TA.AperFunction,Conductor*%
%ADD20C,0.508000*%
%TD*%
%TA.AperFunction,Conductor*%
%ADD21C,0.100000*%
%TD*%
G04 APERTURE END LIST*
D10*
%TO.P,U6,40*%
%TO.N,M8P_CLK*%
X124460000Y-26924000D03*
%TO.P,U6,39*%
%TO.N,GND*%
X124460000Y-29464000D03*
%TO.P,U6,38*%
%TO.N,M8P_MOSI*%
X121920000Y-26924000D03*
%TO.P,U6,37*%
%TO.N,Net-(U6-Pad37)*%
X121920000Y-29464000D03*
%TO.P,U6,36*%
%TO.N,M8P_CS*%
X119380000Y-26924000D03*
%TO.P,U6,35*%
%TO.N,M8P_MISO*%
X119380000Y-29464000D03*
%TO.P,U6,34*%
%TO.N,GND*%
X116840000Y-26924000D03*
%TO.P,U6,33*%
%TO.N,Net-(U6-Pad33)*%
X116840000Y-29464000D03*
%TO.P,U6,32*%
%TO.N,Net-(U6-Pad32)*%
X114300000Y-26924000D03*
%TO.P,U6,31*%
%TO.N,Net-(U6-Pad31)*%
X114300000Y-29464000D03*
%TO.P,U6,30*%
%TO.N,GND*%
X111760000Y-26924000D03*
%TO.P,U6,29*%
%TO.N,Net-(U6-Pad29)*%
X111760000Y-29464000D03*
%TO.P,U6,28*%
%TO.N,Net-(U6-Pad28)*%
X109220000Y-26924000D03*
%TO.P,U6,27*%
%TO.N,Net-(U6-Pad27)*%
X109220000Y-29464000D03*
%TO.P,U6,26*%
%TO.N,Net-(U6-Pad26)*%
X106680000Y-26924000D03*
%TO.P,U6,25*%
%TO.N,GND*%
X106680000Y-29464000D03*
%TO.P,U6,24*%
%TO.N,Net-(U6-Pad24)*%
X104140000Y-26924000D03*
%TO.P,U6,23*%
%TO.N,ICM_SCLK*%
X104140000Y-29464000D03*
%TO.P,U6,22*%
%TO.N,Net-(U6-Pad22)*%
X101600000Y-26924000D03*
%TO.P,U6,21*%
%TO.N,ICM_MISO*%
X101600000Y-29464000D03*
%TO.P,U6,20*%
%TO.N,GND*%
X99060000Y-26924000D03*
%TO.P,U6,19*%
%TO.N,ICM_MOSI*%
X99060000Y-29464000D03*
%TO.P,U6,18*%
%TO.N,N/C*%
X96520000Y-26924000D03*
%TO.P,U6,17*%
%TO.N,Net-(U6-Pad17)*%
X96520000Y-29464000D03*
%TO.P,U6,16*%
%TO.N,Net-(U6-Pad16)*%
X93980000Y-26924000D03*
%TO.P,U6,15*%
%TO.N,Net-(U6-Pad15)*%
X93980000Y-29464000D03*
%TO.P,U6,14*%
%TO.N,GND*%
X91440000Y-26924000D03*
%TO.P,U6,13*%
%TO.N,Net-(U6-Pad13)*%
X91440000Y-29464000D03*
%TO.P,U6,12*%
%TO.N,ICM_CS*%
X88900000Y-26924000D03*
%TO.P,U6,11*%
%TO.N,Net-(U6-Pad11)*%
X88900000Y-29464000D03*
%TO.P,U6,10*%
%TO.N,BNO055_TX*%
X86360000Y-26924000D03*
%TO.P,U6,9*%
%TO.N,GND*%
X86360000Y-29464000D03*
%TO.P,U6,8*%
%TO.N,BNO055_RX*%
X83820000Y-26924000D03*
%TO.P,U6,7*%
%TO.N,Net-(U6-Pad7)*%
X83820000Y-29464000D03*
%TO.P,U6,6*%
%TO.N,GND*%
X81280000Y-26924000D03*
%TO.P,U6,5*%
%TO.N,BNO080_SCL*%
X81280000Y-29464000D03*
%TO.P,U6,4*%
%TO.N,+5V*%
X78740000Y-26924000D03*
%TO.P,U6,3*%
%TO.N,BNO080_SDA*%
X78740000Y-29464000D03*
%TO.P,U6,2*%
%TO.N,+5V*%
X76200000Y-26924000D03*
%TO.P,U6,1*%
%TO.N,Net-(U6-Pad1)*%
X76200000Y-29464000D03*
%TD*%
D11*
%TO.P,C1,1*%
%TO.N,+12V*%
X43180000Y-58674000D03*
D12*
%TO.P,C1,2*%
%TO.N,GND*%
X43180000Y-56174000D03*
%TD*%
%TO.P,C4,2*%
%TO.N,GND*%
X52070000Y-56174000D03*
D11*
%TO.P,C4,1*%
%TO.N,+12V*%
X52070000Y-58674000D03*
%TD*%
D13*
%TO.P,Conn1,2*%
%TO.N,+12V*%
X34315400Y-58674000D03*
%TO.P,Conn1,1*%
%TO.N,GND*%
X34315400Y-50800000D03*
%TD*%
D14*
%TO.P,Conn2,2*%
%TO.N,GND*%
X33284000Y-71618000D03*
X28184000Y-71618000D03*
X28184000Y-76718000D03*
X33284000Y-76718000D03*
%TO.P,Conn2,1*%
%TO.N,Net-(Conn2-Pad1)*%
X30734000Y-74168000D03*
%TD*%
D15*
%TO.P,U1,1*%
%TO.N,+12V*%
X60960000Y-58674000D03*
%TO.P,U1,2*%
%TO.N,GND*%
X63500000Y-58674000D03*
%TO.P,U1,3*%
%TO.N,+5V*%
X66040000Y-58674000D03*
%TD*%
%TO.P,U4,3*%
%TO.N,+3V3*%
X48260000Y-63246000D03*
%TO.P,U4,2*%
%TO.N,GND*%
X45720000Y-63246000D03*
%TO.P,U4,1*%
%TO.N,+12V*%
X43180000Y-63246000D03*
%TD*%
D16*
%TO.N,GND*%
X100076000Y-44958000D03*
X102108000Y-46482000D03*
X100584000Y-50800000D03*
X107950000Y-58928000D03*
X112014000Y-57404000D03*
X114401600Y-60756800D03*
X110744000Y-64947800D03*
X108534200Y-64922400D03*
X124460000Y-56642000D03*
X127254000Y-59944000D03*
X121666000Y-56642000D03*
X70104000Y-35814000D03*
X74168000Y-28448000D03*
X80010000Y-35052000D03*
X92456000Y-34798000D03*
D17*
X106680000Y-34798000D03*
D16*
X115824000Y-34798000D03*
%TO.N,+3V3*%
X57150000Y-66548000D03*
X57150000Y-56388000D03*
X67056000Y-55626000D03*
X67056000Y-44704000D03*
X96520000Y-50146000D03*
X102515500Y-50138500D03*
%TO.N,BNO080_SCL*%
X124968000Y-65278000D03*
X90678000Y-65024000D03*
X121920000Y-69850000D03*
%TO.N,BNO080_SDA*%
X125730000Y-64262000D03*
X89916000Y-66040000D03*
X118110000Y-69850000D03*
%TO.N,+5V*%
X66040000Y-56642000D03*
X70510400Y-62966600D03*
X71731500Y-70969500D03*
%TO.N,Net-(C9-Pad1)*%
X107950000Y-62103000D03*
X108204000Y-60325000D03*
%TO.N,Net-(Conn2-Pad1)*%
X37615242Y-69203500D03*
X38100000Y-52324000D03*
%TO.N,Net-(R1-Pad1)*%
X55880000Y-68326000D03*
X56388000Y-51562000D03*
%TO.N,Net-(R2-Pad2)*%
X38608000Y-68072000D03*
X39116000Y-53086000D03*
%TO.N,M8P_CS*%
X76962000Y-31496000D03*
X75806300Y-34518600D03*
X87630000Y-69469000D03*
X75800000Y-38843000D03*
%TO.N,M8P_MOSI*%
X72500000Y-38117000D03*
X88900000Y-69850000D03*
%TO.N,M8P_MISO*%
X74422000Y-32258000D03*
X73600000Y-37388999D03*
X92710000Y-69850000D03*
%TO.N,ICM_CS*%
X96520000Y-69850000D03*
X92964000Y-43180000D03*
%TO.N,ICM_MOSI*%
X100330000Y-69850000D03*
X93726000Y-44704000D03*
%TO.N,ICM_MISO*%
X104140000Y-69850000D03*
X94488000Y-50800000D03*
%TO.N,BNO055_TX*%
X92202000Y-68072000D03*
X107950000Y-69850000D03*
X112522000Y-64452500D03*
%TO.N,BNO055_RX*%
X91440000Y-67056000D03*
X111760000Y-69850000D03*
X111760000Y-66294000D03*
%TO.N,ICM_SCLK*%
X95250000Y-43977000D03*
%TD*%
D18*
%TO.N,GND*%
X112864001Y-28028001D02*
X111760000Y-26924000D01*
X115735999Y-28028001D02*
X112864001Y-28028001D01*
X116840000Y-26924000D02*
X115735999Y-28028001D01*
X108115999Y-28028001D02*
X106680000Y-29464000D01*
X110655999Y-28028001D02*
X108115999Y-28028001D01*
X111760000Y-26924000D02*
X110655999Y-28028001D01*
X100495999Y-28359999D02*
X99060000Y-26924000D01*
X105575999Y-28359999D02*
X100495999Y-28359999D01*
X106680000Y-29464000D02*
X105575999Y-28359999D01*
X92544001Y-28028001D02*
X91440000Y-26924000D01*
X97955999Y-28028001D02*
X92544001Y-28028001D01*
X99060000Y-26924000D02*
X97955999Y-28028001D01*
X90335999Y-25819999D02*
X85830079Y-25819999D01*
X91440000Y-26924000D02*
X90335999Y-25819999D01*
X81280000Y-26924000D02*
X82384001Y-25819999D01*
X86360000Y-28925171D02*
X85255999Y-27821170D01*
X86360000Y-29464000D02*
X86360000Y-28925171D01*
X85255999Y-25897997D02*
X85178001Y-25819999D01*
X85255999Y-27821170D02*
X85255999Y-25897997D01*
X85178001Y-25819999D02*
X85830079Y-25819999D01*
X82384001Y-25819999D02*
X85178001Y-25819999D01*
X74587999Y-28028001D02*
X74168000Y-28448000D01*
X80175999Y-28028001D02*
X74587999Y-28028001D01*
X81280000Y-26924000D02*
X80175999Y-28028001D01*
X80175999Y-34886001D02*
X80010000Y-35052000D01*
X80175999Y-28028001D02*
X80175999Y-34886001D01*
X92544001Y-34709999D02*
X92456000Y-34798000D01*
X92544001Y-28028001D02*
X92544001Y-34709999D01*
D19*
X106680000Y-29464000D02*
X106680000Y-34798000D01*
D18*
X115735999Y-34709999D02*
X115824000Y-34798000D01*
X115735999Y-28028001D02*
X115735999Y-34709999D01*
D20*
%TO.N,+3V3*%
X57150000Y-66548000D02*
X57150000Y-56388000D01*
X57150000Y-56388000D02*
X57150000Y-56388000D01*
D18*
X67056000Y-55626000D02*
X67056000Y-44704000D01*
X102508000Y-50146000D02*
X102515500Y-50138500D01*
X96520000Y-50146000D02*
X102508000Y-50146000D01*
%TO.N,BNO080_SCL*%
X81280000Y-31242000D02*
X81280000Y-29464000D01*
X81280000Y-35560000D02*
X81280000Y-31242000D01*
X81534000Y-35814000D02*
X81280000Y-35560000D01*
X88646000Y-35814000D02*
X81534000Y-35814000D01*
X90678000Y-37846000D02*
X88646000Y-35814000D01*
X90678000Y-65024000D02*
X90678000Y-37846000D01*
X124968000Y-66802000D02*
X121920000Y-69850000D01*
X124968000Y-65278000D02*
X124968000Y-66802000D01*
%TO.N,BNO080_SDA*%
X78740000Y-31242000D02*
X78740000Y-29464000D01*
X78740000Y-36322000D02*
X78740000Y-31242000D01*
X78994000Y-36576000D02*
X78740000Y-36322000D01*
X88392000Y-36576000D02*
X78994000Y-36576000D01*
X89916000Y-38100000D02*
X88392000Y-36576000D01*
X89916000Y-66040000D02*
X89916000Y-38100000D01*
X124910998Y-64262000D02*
X124206000Y-64966998D01*
X125730000Y-64262000D02*
X124910998Y-64262000D01*
X124206000Y-64966998D02*
X124206000Y-66802000D01*
X124206000Y-66802000D02*
X121920000Y-69088000D01*
X118872000Y-69088000D02*
X118110000Y-69850000D01*
X121920000Y-69088000D02*
X118872000Y-69088000D01*
D20*
%TO.N,+5V*%
X75515999Y-26239999D02*
X76200000Y-26924000D01*
X66470001Y-26239999D02*
X75515999Y-26239999D01*
X66040000Y-26670000D02*
X66470001Y-26239999D01*
X66040000Y-56642000D02*
X66040000Y-26670000D01*
D18*
X70510400Y-69748400D02*
X71731500Y-70969500D01*
X70510400Y-62966600D02*
X70510400Y-69748400D01*
%TO.N,Net-(C9-Pad1)*%
X107950000Y-60579000D02*
X108204000Y-60325000D01*
X107950000Y-62103000D02*
X107950000Y-60579000D01*
%TO.N,Net-(Conn2-Pad1)*%
X37615242Y-52808758D02*
X38100000Y-52324000D01*
X37615242Y-69203500D02*
X37615242Y-52808758D01*
%TO.N,Net-(R1-Pad1)*%
X55880000Y-52070000D02*
X56388000Y-51562000D01*
X55880000Y-68326000D02*
X55880000Y-52070000D01*
%TO.N,Net-(R2-Pad2)*%
X38608000Y-68072000D02*
X38608000Y-53594000D01*
X38608000Y-53594000D02*
X39116000Y-53086000D01*
%TO.N,M8P_CS*%
X76923900Y-31496000D02*
X76962000Y-31496000D01*
X75806300Y-32613600D02*
X76923900Y-31496000D01*
X75806300Y-34518600D02*
X75806300Y-32613600D01*
X87630000Y-69469000D02*
X87630000Y-39370000D01*
X87630000Y-39370000D02*
X87122000Y-38862000D01*
X75819000Y-38862000D02*
X75800000Y-38843000D01*
X87122000Y-38862000D02*
X75819000Y-38862000D01*
%TO.N,M8P_MOSI*%
X88392000Y-38989000D02*
X87518999Y-38115999D01*
X88392000Y-67945000D02*
X88392000Y-38989000D01*
X72501001Y-38115999D02*
X72500000Y-38117000D01*
X87518999Y-38115999D02*
X72501001Y-38115999D01*
X88392000Y-67945000D02*
X88392000Y-68822591D01*
X88392000Y-69342000D02*
X88900000Y-69850000D01*
X88392000Y-68822591D02*
X88392000Y-69342000D01*
%TO.N,M8P_MISO*%
X73600000Y-33080000D02*
X74422000Y-32258000D01*
X73600000Y-37388999D02*
X73600000Y-33080000D01*
X89154000Y-68834000D02*
X89662000Y-69342000D01*
X89154000Y-38608000D02*
X89154000Y-68834000D01*
X87884000Y-37338000D02*
X89154000Y-38608000D01*
X73650999Y-37338000D02*
X87884000Y-37338000D01*
X73600000Y-37388999D02*
X73650999Y-37338000D01*
X89662000Y-69342000D02*
X91694000Y-69342000D01*
X91694000Y-69342000D02*
X92202000Y-69342000D01*
X92202000Y-69342000D02*
X92710000Y-69850000D01*
%TO.N,ICM_CS*%
X96012000Y-69342000D02*
X96520000Y-69850000D01*
X93726000Y-69342000D02*
X96012000Y-69342000D01*
X92964000Y-68580000D02*
X93726000Y-69342000D01*
X92964000Y-37084000D02*
X92964000Y-42926000D01*
X90170000Y-34290000D02*
X92964000Y-37084000D01*
X90170000Y-28194000D02*
X90170000Y-34290000D01*
X88900000Y-26924000D02*
X90170000Y-28194000D01*
X92964000Y-42926000D02*
X92964000Y-68580000D01*
%TO.N,ICM_MOSI*%
X97087962Y-69342000D02*
X99822000Y-69342000D01*
X94234000Y-68834000D02*
X96579962Y-68834000D01*
X99822000Y-69342000D02*
X100330000Y-69850000D01*
X93726000Y-68326000D02*
X94234000Y-68834000D01*
X93726000Y-34798000D02*
X93726000Y-43942000D01*
X96579962Y-68834000D02*
X97087962Y-69342000D01*
X99060000Y-29464000D02*
X93726000Y-34798000D01*
X93726000Y-43942000D02*
X93726000Y-68326000D01*
%TO.N,ICM_MISO*%
X103632000Y-69342000D02*
X104140000Y-69850000D01*
X100584000Y-68834000D02*
X101092000Y-69342000D01*
X101092000Y-69342000D02*
X103632000Y-69342000D01*
X97536000Y-68834000D02*
X100584000Y-68834000D01*
X94795990Y-68379990D02*
X97081990Y-68379990D01*
X94488000Y-68072000D02*
X94795990Y-68379990D01*
X94488000Y-36576000D02*
X94488000Y-44958000D01*
X97081990Y-68379990D02*
X97536000Y-68834000D01*
X101600000Y-29464000D02*
X94488000Y-36576000D01*
X94488000Y-44958000D02*
X94488000Y-50292000D01*
X94488000Y-50292000D02*
X94488000Y-68072000D01*
%TO.N,BNO055_TX*%
X86360000Y-26924000D02*
X87630000Y-28194000D01*
X87630000Y-28194000D02*
X87630000Y-31242000D01*
X87630000Y-31242000D02*
X87630000Y-32766000D01*
X87630000Y-32766000D02*
X92202000Y-37338000D01*
X92202000Y-37338000D02*
X92202000Y-59690000D01*
X92202000Y-59690000D02*
X92202000Y-65532000D01*
X92202000Y-65532000D02*
X92202000Y-68072000D01*
X107950000Y-69024500D02*
X112522000Y-64452500D01*
X107950000Y-69850000D02*
X107950000Y-69024500D01*
%TO.N,BNO055_RX*%
X85090000Y-28194000D02*
X83820000Y-26924000D01*
X85090000Y-34798000D02*
X85090000Y-28194000D01*
X85344000Y-35052000D02*
X85090000Y-34798000D01*
X88900000Y-35052000D02*
X85344000Y-35052000D01*
X91440000Y-37592000D02*
X88900000Y-35052000D01*
X91440000Y-67056000D02*
X91440000Y-37592000D01*
X111760000Y-69850000D02*
X111760000Y-66294000D01*
%TO.N,ICM_SCLK*%
X104140000Y-29464000D02*
X95250000Y-38354000D01*
X95250000Y-38354000D02*
X95250000Y-41910000D01*
X95250000Y-41910000D02*
X95250000Y-43977000D01*
%TD*%
%TO.N,GND*%
X130313875Y-25581234D02*
X130569622Y-25658448D01*
X130805504Y-25783869D01*
X130937000Y-25891115D01*
X130937000Y-26781654D01*
X130690983Y-26535637D01*
X130341302Y-26301988D01*
X129952756Y-26141047D01*
X129540279Y-26059000D01*
X129119721Y-26059000D01*
X128707244Y-26141047D01*
X128318698Y-26301988D01*
X127969017Y-26535637D01*
X127671637Y-26833017D01*
X127437988Y-27182698D01*
X127277047Y-27571244D01*
X127195000Y-27983721D01*
X127195000Y-28404279D01*
X127277047Y-28816756D01*
X127437988Y-29205302D01*
X127671637Y-29554983D01*
X127969017Y-29852363D01*
X128318698Y-30086012D01*
X128707244Y-30246953D01*
X129119721Y-30329000D01*
X129540279Y-30329000D01*
X129952756Y-30246953D01*
X130341302Y-30086012D01*
X130690983Y-29852363D01*
X130937000Y-29606346D01*
X130937000Y-75781654D01*
X130690983Y-75535637D01*
X130341302Y-75301988D01*
X129952756Y-75141047D01*
X129540279Y-75059000D01*
X129119721Y-75059000D01*
X128707244Y-75141047D01*
X128318698Y-75301988D01*
X127969017Y-75535637D01*
X127671637Y-75833017D01*
X127437988Y-76182698D01*
X127277047Y-76571244D01*
X127195000Y-76983721D01*
X127195000Y-77404279D01*
X127277047Y-77816756D01*
X127437988Y-78205302D01*
X127671637Y-78554983D01*
X127969017Y-78852363D01*
X128318698Y-79086012D01*
X128403167Y-79121000D01*
X72256833Y-79121000D01*
X72341302Y-79086012D01*
X72690983Y-78852363D01*
X72988363Y-78554983D01*
X73222012Y-78205302D01*
X73382953Y-77816756D01*
X73465000Y-77404279D01*
X73465000Y-76983721D01*
X73382953Y-76571244D01*
X73222012Y-76182698D01*
X72988363Y-75833017D01*
X72690983Y-75535637D01*
X72341302Y-75301988D01*
X71952756Y-75141047D01*
X71540279Y-75059000D01*
X71119721Y-75059000D01*
X70707244Y-75141047D01*
X70318698Y-75301988D01*
X69969017Y-75535637D01*
X69671637Y-75833017D01*
X69437988Y-76182698D01*
X69277047Y-76571244D01*
X69195000Y-76983721D01*
X69195000Y-77404279D01*
X69277047Y-77816756D01*
X69437988Y-78205302D01*
X69671637Y-78554983D01*
X69969017Y-78852363D01*
X70318698Y-79086012D01*
X70403167Y-79121000D01*
X26289000Y-79121000D01*
X26289000Y-77942531D01*
X27139074Y-77942531D01*
X27249921Y-78219714D01*
X27560840Y-78373089D01*
X27895705Y-78462860D01*
X28241650Y-78485576D01*
X28585380Y-78440366D01*
X28913685Y-78328966D01*
X29118079Y-78219714D01*
X29228926Y-77942531D01*
X32239074Y-77942531D01*
X32349921Y-78219714D01*
X32660840Y-78373089D01*
X32995705Y-78462860D01*
X33341650Y-78485576D01*
X33685380Y-78440366D01*
X34013685Y-78328966D01*
X34218079Y-78219714D01*
X34328926Y-77942531D01*
X33284000Y-76897605D01*
X32239074Y-77942531D01*
X29228926Y-77942531D01*
X28184000Y-76897605D01*
X27139074Y-77942531D01*
X26289000Y-77942531D01*
X26289000Y-76775650D01*
X26416424Y-76775650D01*
X26461634Y-77119380D01*
X26573034Y-77447685D01*
X26682286Y-77652079D01*
X26959469Y-77762926D01*
X28004395Y-76718000D01*
X28363605Y-76718000D01*
X29408531Y-77762926D01*
X29685714Y-77652079D01*
X29839089Y-77341160D01*
X29928860Y-77006295D01*
X29944004Y-76775650D01*
X31516424Y-76775650D01*
X31561634Y-77119380D01*
X31673034Y-77447685D01*
X31782286Y-77652079D01*
X32059469Y-77762926D01*
X33104395Y-76718000D01*
X33463605Y-76718000D01*
X34508531Y-77762926D01*
X34785714Y-77652079D01*
X34939089Y-77341160D01*
X35028860Y-77006295D01*
X35051576Y-76660350D01*
X35006366Y-76316620D01*
X34894966Y-75988315D01*
X34785714Y-75783921D01*
X34508531Y-75673074D01*
X33463605Y-76718000D01*
X33104395Y-76718000D01*
X32059469Y-75673074D01*
X31782286Y-75783921D01*
X31628911Y-76094840D01*
X31539140Y-76429705D01*
X31516424Y-76775650D01*
X29944004Y-76775650D01*
X29951576Y-76660350D01*
X29906366Y-76316620D01*
X29794966Y-75988315D01*
X29685714Y-75783921D01*
X29408531Y-75673074D01*
X28363605Y-76718000D01*
X28004395Y-76718000D01*
X26959469Y-75673074D01*
X26682286Y-75783921D01*
X26528911Y-76094840D01*
X26439140Y-76429705D01*
X26416424Y-76775650D01*
X26289000Y-76775650D01*
X26289000Y-75493469D01*
X27139074Y-75493469D01*
X28184000Y-76538395D01*
X29228926Y-75493469D01*
X29118079Y-75216286D01*
X28807160Y-75062911D01*
X28472295Y-74973140D01*
X28126350Y-74950424D01*
X27782620Y-74995634D01*
X27454315Y-75107034D01*
X27249921Y-75216286D01*
X27139074Y-75493469D01*
X26289000Y-75493469D01*
X26289000Y-73994655D01*
X28974000Y-73994655D01*
X28974000Y-74341345D01*
X29041636Y-74681373D01*
X29174308Y-75001673D01*
X29366919Y-75289935D01*
X29612065Y-75535081D01*
X29900327Y-75727692D01*
X30220627Y-75860364D01*
X30560655Y-75928000D01*
X30907345Y-75928000D01*
X31247373Y-75860364D01*
X31567673Y-75727692D01*
X31855935Y-75535081D01*
X31897547Y-75493469D01*
X32239074Y-75493469D01*
X33284000Y-76538395D01*
X34328926Y-75493469D01*
X34218079Y-75216286D01*
X33907160Y-75062911D01*
X33572295Y-74973140D01*
X33226350Y-74950424D01*
X32882620Y-74995634D01*
X32554315Y-75107034D01*
X32349921Y-75216286D01*
X32239074Y-75493469D01*
X31897547Y-75493469D01*
X32101081Y-75289935D01*
X32293692Y-75001673D01*
X32426364Y-74681373D01*
X32494000Y-74341345D01*
X32494000Y-73994655D01*
X32426364Y-73654627D01*
X32293692Y-73334327D01*
X32101081Y-73046065D01*
X31897547Y-72842531D01*
X32239074Y-72842531D01*
X32349921Y-73119714D01*
X32660840Y-73273089D01*
X32995705Y-73362860D01*
X33341650Y-73385576D01*
X33685380Y-73340366D01*
X34013685Y-73228966D01*
X34218079Y-73119714D01*
X34328926Y-72842531D01*
X33284000Y-71797605D01*
X32239074Y-72842531D01*
X31897547Y-72842531D01*
X31855935Y-72800919D01*
X31567673Y-72608308D01*
X31247373Y-72475636D01*
X30907345Y-72408000D01*
X30560655Y-72408000D01*
X30220627Y-72475636D01*
X29900327Y-72608308D01*
X29612065Y-72800919D01*
X29366919Y-73046065D01*
X29174308Y-73334327D01*
X29041636Y-73654627D01*
X28974000Y-73994655D01*
X26289000Y-73994655D01*
X26289000Y-72842531D01*
X27139074Y-72842531D01*
X27249921Y-73119714D01*
X27560840Y-73273089D01*
X27895705Y-73362860D01*
X28241650Y-73385576D01*
X28585380Y-73340366D01*
X28913685Y-73228966D01*
X29118079Y-73119714D01*
X29228926Y-72842531D01*
X28184000Y-71797605D01*
X27139074Y-72842531D01*
X26289000Y-72842531D01*
X26289000Y-71675650D01*
X26416424Y-71675650D01*
X26461634Y-72019380D01*
X26573034Y-72347685D01*
X26682286Y-72552079D01*
X26959469Y-72662926D01*
X28004395Y-71618000D01*
X28363605Y-71618000D01*
X29408531Y-72662926D01*
X29685714Y-72552079D01*
X29839089Y-72241160D01*
X29928860Y-71906295D01*
X29944004Y-71675650D01*
X31516424Y-71675650D01*
X31561634Y-72019380D01*
X31673034Y-72347685D01*
X31782286Y-72552079D01*
X32059469Y-72662926D01*
X33104395Y-71618000D01*
X33463605Y-71618000D01*
X34508531Y-72662926D01*
X34785714Y-72552079D01*
X34939089Y-72241160D01*
X35028860Y-71906295D01*
X35051576Y-71560350D01*
X35006366Y-71216620D01*
X34894966Y-70888315D01*
X34785714Y-70683921D01*
X34508531Y-70573074D01*
X33463605Y-71618000D01*
X33104395Y-71618000D01*
X32059469Y-70573074D01*
X31782286Y-70683921D01*
X31628911Y-70994840D01*
X31539140Y-71329705D01*
X31516424Y-71675650D01*
X29944004Y-71675650D01*
X29951576Y-71560350D01*
X29906366Y-71216620D01*
X29794966Y-70888315D01*
X29685714Y-70683921D01*
X29408531Y-70573074D01*
X28363605Y-71618000D01*
X28004395Y-71618000D01*
X26959469Y-70573074D01*
X26682286Y-70683921D01*
X26528911Y-70994840D01*
X26439140Y-71329705D01*
X26416424Y-71675650D01*
X26289000Y-71675650D01*
X26289000Y-70393469D01*
X27139074Y-70393469D01*
X28184000Y-71438395D01*
X29228926Y-70393469D01*
X32239074Y-70393469D01*
X33284000Y-71438395D01*
X34328926Y-70393469D01*
X34218079Y-70116286D01*
X33907160Y-69962911D01*
X33572295Y-69873140D01*
X33226350Y-69850424D01*
X32882620Y-69895634D01*
X32554315Y-70007034D01*
X32349921Y-70116286D01*
X32239074Y-70393469D01*
X29228926Y-70393469D01*
X29118079Y-70116286D01*
X28807160Y-69962911D01*
X28472295Y-69873140D01*
X28126350Y-69850424D01*
X27782620Y-69895634D01*
X27454315Y-70007034D01*
X27249921Y-70116286D01*
X27139074Y-70393469D01*
X26289000Y-70393469D01*
X26289000Y-58361290D01*
X31140400Y-58361290D01*
X31140400Y-58986710D01*
X31262414Y-59600113D01*
X31501752Y-60177926D01*
X31849217Y-60697944D01*
X32291456Y-61140183D01*
X32811474Y-61487648D01*
X33389287Y-61726986D01*
X34002690Y-61849000D01*
X34628110Y-61849000D01*
X35241513Y-61726986D01*
X35819326Y-61487648D01*
X36339344Y-61140183D01*
X36781583Y-60697944D01*
X36853243Y-60590698D01*
X36853242Y-68501789D01*
X36811305Y-68543726D01*
X36698037Y-68713244D01*
X36620016Y-68901602D01*
X36580242Y-69101561D01*
X36580242Y-69305439D01*
X36620016Y-69505398D01*
X36698037Y-69693756D01*
X36811305Y-69863274D01*
X36955468Y-70007437D01*
X37124986Y-70120705D01*
X37313344Y-70198726D01*
X37513303Y-70238500D01*
X37717181Y-70238500D01*
X37917140Y-70198726D01*
X38105498Y-70120705D01*
X38275016Y-70007437D01*
X38419179Y-69863274D01*
X38532447Y-69693756D01*
X38610468Y-69505398D01*
X38650242Y-69305439D01*
X38650242Y-69107000D01*
X38709939Y-69107000D01*
X38909898Y-69067226D01*
X39098256Y-68989205D01*
X39267774Y-68875937D01*
X39411937Y-68731774D01*
X39525205Y-68562256D01*
X39603226Y-68373898D01*
X39633030Y-68224061D01*
X54845000Y-68224061D01*
X54845000Y-68427939D01*
X54884774Y-68627898D01*
X54962795Y-68816256D01*
X55076063Y-68985774D01*
X55220226Y-69129937D01*
X55389744Y-69243205D01*
X55578102Y-69321226D01*
X55778061Y-69361000D01*
X55981939Y-69361000D01*
X56181898Y-69321226D01*
X56370256Y-69243205D01*
X56539774Y-69129937D01*
X56683937Y-68985774D01*
X56797205Y-68816256D01*
X56875226Y-68627898D01*
X56915000Y-68427939D01*
X56915000Y-68224061D01*
X56875226Y-68024102D01*
X56797205Y-67835744D01*
X56683937Y-67666226D01*
X56642000Y-67624289D01*
X56642000Y-67453349D01*
X56659744Y-67465205D01*
X56848102Y-67543226D01*
X57048061Y-67583000D01*
X57251939Y-67583000D01*
X57451898Y-67543226D01*
X57640256Y-67465205D01*
X57809774Y-67351937D01*
X57953937Y-67207774D01*
X58067205Y-67038256D01*
X58145226Y-66849898D01*
X58185000Y-66649939D01*
X58185000Y-66446061D01*
X58145226Y-66246102D01*
X58067205Y-66057744D01*
X58039000Y-66015532D01*
X58039000Y-62864661D01*
X69475400Y-62864661D01*
X69475400Y-63068539D01*
X69515174Y-63268498D01*
X69593195Y-63456856D01*
X69706463Y-63626374D01*
X69748400Y-63668311D01*
X69748401Y-69710967D01*
X69744714Y-69748400D01*
X69759427Y-69897778D01*
X69802999Y-70041415D01*
X69873755Y-70173792D01*
X69911656Y-70219974D01*
X69968979Y-70289822D01*
X69998049Y-70313679D01*
X70696500Y-71012131D01*
X70696500Y-71071439D01*
X70736274Y-71271398D01*
X70814295Y-71459756D01*
X70927563Y-71629274D01*
X71071726Y-71773437D01*
X71241244Y-71886705D01*
X71429602Y-71964726D01*
X71629561Y-72004500D01*
X71833439Y-72004500D01*
X72033398Y-71964726D01*
X72221756Y-71886705D01*
X72391274Y-71773437D01*
X72535437Y-71629274D01*
X72648705Y-71459756D01*
X72726726Y-71271398D01*
X72766500Y-71071439D01*
X72766500Y-70867561D01*
X72726726Y-70667602D01*
X72648705Y-70479244D01*
X72535437Y-70309726D01*
X72391274Y-70165563D01*
X72221756Y-70052295D01*
X72033398Y-69974274D01*
X71833439Y-69934500D01*
X71774131Y-69934500D01*
X71272400Y-69432770D01*
X71272400Y-63668311D01*
X71314337Y-63626374D01*
X71427605Y-63456856D01*
X71505626Y-63268498D01*
X71545400Y-63068539D01*
X71545400Y-62864661D01*
X71505626Y-62664702D01*
X71427605Y-62476344D01*
X71314337Y-62306826D01*
X71170174Y-62162663D01*
X71000656Y-62049395D01*
X70812298Y-61971374D01*
X70612339Y-61931600D01*
X70408461Y-61931600D01*
X70208502Y-61971374D01*
X70020144Y-62049395D01*
X69850626Y-62162663D01*
X69706463Y-62306826D01*
X69593195Y-62476344D01*
X69515174Y-62664702D01*
X69475400Y-62864661D01*
X58039000Y-62864661D01*
X58039000Y-58536408D01*
X59563000Y-58536408D01*
X59563000Y-58811592D01*
X59616686Y-59081490D01*
X59721995Y-59335727D01*
X59874880Y-59564535D01*
X60069465Y-59759120D01*
X60298273Y-59912005D01*
X60552510Y-60017314D01*
X60822408Y-60071000D01*
X61097592Y-60071000D01*
X61367490Y-60017314D01*
X61621727Y-59912005D01*
X61850535Y-59759120D01*
X61970090Y-59639565D01*
X62714040Y-59639565D01*
X62781020Y-59879656D01*
X63030048Y-59996756D01*
X63297135Y-60063023D01*
X63572017Y-60075910D01*
X63844133Y-60034922D01*
X64103023Y-59941636D01*
X64218980Y-59879656D01*
X64285960Y-59639565D01*
X63500000Y-58853605D01*
X62714040Y-59639565D01*
X61970090Y-59639565D01*
X62045120Y-59564535D01*
X62198005Y-59335727D01*
X62227692Y-59264057D01*
X62232364Y-59277023D01*
X62294344Y-59392980D01*
X62534435Y-59459960D01*
X63320395Y-58674000D01*
X62534435Y-57888040D01*
X62294344Y-57955020D01*
X62230515Y-58090760D01*
X62198005Y-58012273D01*
X62045120Y-57783465D01*
X61970090Y-57708435D01*
X62714040Y-57708435D01*
X63500000Y-58494395D01*
X64285960Y-57708435D01*
X64218980Y-57468344D01*
X63969952Y-57351244D01*
X63702865Y-57284977D01*
X63427983Y-57272090D01*
X63155867Y-57313078D01*
X62896977Y-57406364D01*
X62781020Y-57468344D01*
X62714040Y-57708435D01*
X61970090Y-57708435D01*
X61850535Y-57588880D01*
X61621727Y-57435995D01*
X61367490Y-57330686D01*
X61097592Y-57277000D01*
X60822408Y-57277000D01*
X60552510Y-57330686D01*
X60298273Y-57435995D01*
X60069465Y-57588880D01*
X59874880Y-57783465D01*
X59721995Y-58012273D01*
X59616686Y-58266510D01*
X59563000Y-58536408D01*
X58039000Y-58536408D01*
X58039000Y-56920468D01*
X58067205Y-56878256D01*
X58145226Y-56689898D01*
X58185000Y-56489939D01*
X58185000Y-56286061D01*
X58145226Y-56086102D01*
X58067205Y-55897744D01*
X57953937Y-55728226D01*
X57809774Y-55584063D01*
X57640256Y-55470795D01*
X57451898Y-55392774D01*
X57251939Y-55353000D01*
X57048061Y-55353000D01*
X56848102Y-55392774D01*
X56659744Y-55470795D01*
X56642000Y-55482651D01*
X56642000Y-52566753D01*
X56689898Y-52557226D01*
X56878256Y-52479205D01*
X57047774Y-52365937D01*
X57191937Y-52221774D01*
X57305205Y-52052256D01*
X57383226Y-51863898D01*
X57423000Y-51663939D01*
X57423000Y-51460061D01*
X57383226Y-51260102D01*
X57305205Y-51071744D01*
X57191937Y-50902226D01*
X57047774Y-50758063D01*
X56878256Y-50644795D01*
X56689898Y-50566774D01*
X56489939Y-50527000D01*
X56286061Y-50527000D01*
X56086102Y-50566774D01*
X55897744Y-50644795D01*
X55728226Y-50758063D01*
X55584063Y-50902226D01*
X55470795Y-51071744D01*
X55392774Y-51260102D01*
X55353000Y-51460061D01*
X55353000Y-51516743D01*
X55338579Y-51528578D01*
X55314722Y-51557648D01*
X55314721Y-51557649D01*
X55243355Y-51644608D01*
X55172599Y-51776985D01*
X55129027Y-51920622D01*
X55114314Y-52070000D01*
X55118001Y-52107433D01*
X55118000Y-67624289D01*
X55076063Y-67666226D01*
X54962795Y-67835744D01*
X54884774Y-68024102D01*
X54845000Y-68224061D01*
X39633030Y-68224061D01*
X39643000Y-68173939D01*
X39643000Y-67970061D01*
X39603226Y-67770102D01*
X39525205Y-67581744D01*
X39411937Y-67412226D01*
X39370000Y-67370289D01*
X39370000Y-63108408D01*
X41783000Y-63108408D01*
X41783000Y-63383592D01*
X41836686Y-63653490D01*
X41941995Y-63907727D01*
X42094880Y-64136535D01*
X42289465Y-64331120D01*
X42518273Y-64484005D01*
X42772510Y-64589314D01*
X43042408Y-64643000D01*
X43317592Y-64643000D01*
X43587490Y-64589314D01*
X43841727Y-64484005D01*
X44070535Y-64331120D01*
X44190090Y-64211565D01*
X44934040Y-64211565D01*
X45001020Y-64451656D01*
X45250048Y-64568756D01*
X45517135Y-64635023D01*
X45792017Y-64647910D01*
X46064133Y-64606922D01*
X46323023Y-64513636D01*
X46438980Y-64451656D01*
X46505960Y-64211565D01*
X45720000Y-63425605D01*
X44934040Y-64211565D01*
X44190090Y-64211565D01*
X44265120Y-64136535D01*
X44418005Y-63907727D01*
X44447692Y-63836057D01*
X44452364Y-63849023D01*
X44514344Y-63964980D01*
X44754435Y-64031960D01*
X45540395Y-63246000D01*
X45899605Y-63246000D01*
X46685565Y-64031960D01*
X46925656Y-63964980D01*
X46989485Y-63829240D01*
X47021995Y-63907727D01*
X47174880Y-64136535D01*
X47369465Y-64331120D01*
X47598273Y-64484005D01*
X47852510Y-64589314D01*
X48122408Y-64643000D01*
X48397592Y-64643000D01*
X48667490Y-64589314D01*
X48921727Y-64484005D01*
X49150535Y-64331120D01*
X49345120Y-64136535D01*
X49498005Y-63907727D01*
X49603314Y-63653490D01*
X49657000Y-63383592D01*
X49657000Y-63108408D01*
X49603314Y-62838510D01*
X49498005Y-62584273D01*
X49345120Y-62355465D01*
X49150535Y-62160880D01*
X48921727Y-62007995D01*
X48667490Y-61902686D01*
X48397592Y-61849000D01*
X48122408Y-61849000D01*
X47852510Y-61902686D01*
X47598273Y-62007995D01*
X47369465Y-62160880D01*
X47174880Y-62355465D01*
X47021995Y-62584273D01*
X46992308Y-62655943D01*
X46987636Y-62642977D01*
X46925656Y-62527020D01*
X46685565Y-62460040D01*
X45899605Y-63246000D01*
X45540395Y-63246000D01*
X44754435Y-62460040D01*
X44514344Y-62527020D01*
X44450515Y-62662760D01*
X44418005Y-62584273D01*
X44265120Y-62355465D01*
X44190090Y-62280435D01*
X44934040Y-62280435D01*
X45720000Y-63066395D01*
X46505960Y-62280435D01*
X46438980Y-62040344D01*
X46189952Y-61923244D01*
X45922865Y-61856977D01*
X45647983Y-61844090D01*
X45375867Y-61885078D01*
X45116977Y-61978364D01*
X45001020Y-62040344D01*
X44934040Y-62280435D01*
X44190090Y-62280435D01*
X44070535Y-62160880D01*
X43841727Y-62007995D01*
X43587490Y-61902686D01*
X43317592Y-61849000D01*
X43042408Y-61849000D01*
X42772510Y-61902686D01*
X42518273Y-62007995D01*
X42289465Y-62160880D01*
X42094880Y-62355465D01*
X41941995Y-62584273D01*
X41836686Y-62838510D01*
X41783000Y-63108408D01*
X39370000Y-63108408D01*
X39370000Y-57874000D01*
X41741928Y-57874000D01*
X41741928Y-59474000D01*
X41754188Y-59598482D01*
X41790498Y-59718180D01*
X41849463Y-59828494D01*
X41928815Y-59925185D01*
X42025506Y-60004537D01*
X42135820Y-60063502D01*
X42255518Y-60099812D01*
X42380000Y-60112072D01*
X43980000Y-60112072D01*
X44104482Y-60099812D01*
X44224180Y-60063502D01*
X44334494Y-60004537D01*
X44431185Y-59925185D01*
X44510537Y-59828494D01*
X44569502Y-59718180D01*
X44605812Y-59598482D01*
X44618072Y-59474000D01*
X44618072Y-57874000D01*
X50631928Y-57874000D01*
X50631928Y-59474000D01*
X50644188Y-59598482D01*
X50680498Y-59718180D01*
X50739463Y-59828494D01*
X50818815Y-59925185D01*
X50915506Y-60004537D01*
X51025820Y-60063502D01*
X51145518Y-60099812D01*
X51270000Y-60112072D01*
X52870000Y-60112072D01*
X52994482Y-60099812D01*
X53114180Y-60063502D01*
X53224494Y-60004537D01*
X53321185Y-59925185D01*
X53400537Y-59828494D01*
X53459502Y-59718180D01*
X53495812Y-59598482D01*
X53508072Y-59474000D01*
X53508072Y-57874000D01*
X53495812Y-57749518D01*
X53459502Y-57629820D01*
X53400537Y-57519506D01*
X53321185Y-57422815D01*
X53224494Y-57343463D01*
X53114180Y-57284498D01*
X52994482Y-57248188D01*
X52870000Y-57235928D01*
X52862785Y-57235928D01*
X52883097Y-57166702D01*
X52070000Y-56353605D01*
X51256903Y-57166702D01*
X51277215Y-57235928D01*
X51270000Y-57235928D01*
X51145518Y-57248188D01*
X51025820Y-57284498D01*
X50915506Y-57343463D01*
X50818815Y-57422815D01*
X50739463Y-57519506D01*
X50680498Y-57629820D01*
X50644188Y-57749518D01*
X50631928Y-57874000D01*
X44618072Y-57874000D01*
X44605812Y-57749518D01*
X44569502Y-57629820D01*
X44510537Y-57519506D01*
X44431185Y-57422815D01*
X44334494Y-57343463D01*
X44224180Y-57284498D01*
X44104482Y-57248188D01*
X43980000Y-57235928D01*
X43972785Y-57235928D01*
X43993097Y-57166702D01*
X43180000Y-56353605D01*
X42366903Y-57166702D01*
X42387215Y-57235928D01*
X42380000Y-57235928D01*
X42255518Y-57248188D01*
X42135820Y-57284498D01*
X42025506Y-57343463D01*
X41928815Y-57422815D01*
X41849463Y-57519506D01*
X41790498Y-57629820D01*
X41754188Y-57749518D01*
X41741928Y-57874000D01*
X39370000Y-57874000D01*
X39370000Y-56244512D01*
X41739783Y-56244512D01*
X41781213Y-56524130D01*
X41876397Y-56790292D01*
X41943329Y-56915514D01*
X42187298Y-56987097D01*
X43000395Y-56174000D01*
X43359605Y-56174000D01*
X44172702Y-56987097D01*
X44416671Y-56915514D01*
X44537571Y-56660004D01*
X44606300Y-56385816D01*
X44613265Y-56244512D01*
X50629783Y-56244512D01*
X50671213Y-56524130D01*
X50766397Y-56790292D01*
X50833329Y-56915514D01*
X51077298Y-56987097D01*
X51890395Y-56174000D01*
X52249605Y-56174000D01*
X53062702Y-56987097D01*
X53306671Y-56915514D01*
X53427571Y-56660004D01*
X53496300Y-56385816D01*
X53510217Y-56103488D01*
X53468787Y-55823870D01*
X53373603Y-55557708D01*
X53306671Y-55432486D01*
X53062702Y-55360903D01*
X52249605Y-56174000D01*
X51890395Y-56174000D01*
X51077298Y-55360903D01*
X50833329Y-55432486D01*
X50712429Y-55687996D01*
X50643700Y-55962184D01*
X50629783Y-56244512D01*
X44613265Y-56244512D01*
X44620217Y-56103488D01*
X44578787Y-55823870D01*
X44483603Y-55557708D01*
X44416671Y-55432486D01*
X44172702Y-55360903D01*
X43359605Y-56174000D01*
X43000395Y-56174000D01*
X42187298Y-55360903D01*
X41943329Y-55432486D01*
X41822429Y-55687996D01*
X41753700Y-55962184D01*
X41739783Y-56244512D01*
X39370000Y-56244512D01*
X39370000Y-55181298D01*
X42366903Y-55181298D01*
X43180000Y-55994395D01*
X43993097Y-55181298D01*
X51256903Y-55181298D01*
X52070000Y-55994395D01*
X52883097Y-55181298D01*
X52811514Y-54937329D01*
X52556004Y-54816429D01*
X52281816Y-54747700D01*
X51999488Y-54733783D01*
X51719870Y-54775213D01*
X51453708Y-54870397D01*
X51328486Y-54937329D01*
X51256903Y-55181298D01*
X43993097Y-55181298D01*
X43921514Y-54937329D01*
X43666004Y-54816429D01*
X43391816Y-54747700D01*
X43109488Y-54733783D01*
X42829870Y-54775213D01*
X42563708Y-54870397D01*
X42438486Y-54937329D01*
X42366903Y-55181298D01*
X39370000Y-55181298D01*
X39370000Y-54090753D01*
X39417898Y-54081226D01*
X39606256Y-54003205D01*
X39775774Y-53889937D01*
X39919937Y-53745774D01*
X40033205Y-53576256D01*
X40111226Y-53387898D01*
X40151000Y-53187939D01*
X40151000Y-52984061D01*
X40111226Y-52784102D01*
X40033205Y-52595744D01*
X39919937Y-52426226D01*
X39775774Y-52282063D01*
X39606256Y-52168795D01*
X39417898Y-52090774D01*
X39217939Y-52051000D01*
X39100974Y-52051000D01*
X39095226Y-52022102D01*
X39017205Y-51833744D01*
X38903937Y-51664226D01*
X38759774Y-51520063D01*
X38590256Y-51406795D01*
X38401898Y-51328774D01*
X38201939Y-51289000D01*
X37998061Y-51289000D01*
X37798102Y-51328774D01*
X37609744Y-51406795D01*
X37440226Y-51520063D01*
X37403640Y-51556649D01*
X37444800Y-51420694D01*
X37505761Y-50798252D01*
X37444118Y-50175877D01*
X37262240Y-49577487D01*
X36969059Y-49028984D01*
X36546994Y-48748011D01*
X34495005Y-50800000D01*
X36546994Y-52851989D01*
X36871341Y-52636068D01*
X36864269Y-52659380D01*
X36849556Y-52808758D01*
X36853243Y-52846191D01*
X36853243Y-56757302D01*
X36781583Y-56650056D01*
X36339344Y-56207817D01*
X35819326Y-55860352D01*
X35241513Y-55621014D01*
X34628110Y-55499000D01*
X34002690Y-55499000D01*
X33389287Y-55621014D01*
X32811474Y-55860352D01*
X32291456Y-56207817D01*
X31849217Y-56650056D01*
X31501752Y-57170074D01*
X31262414Y-57747887D01*
X31140400Y-58361290D01*
X26289000Y-58361290D01*
X26289000Y-53031594D01*
X32263411Y-53031594D01*
X32544384Y-53453659D01*
X33096117Y-53748178D01*
X33694706Y-53929400D01*
X34317148Y-53990361D01*
X34939523Y-53928718D01*
X35537913Y-53746840D01*
X36086416Y-53453659D01*
X36367389Y-53031594D01*
X34315400Y-50979605D01*
X32263411Y-53031594D01*
X26289000Y-53031594D01*
X26289000Y-50801748D01*
X31125039Y-50801748D01*
X31186682Y-51424123D01*
X31368560Y-52022513D01*
X31661741Y-52571016D01*
X32083806Y-52851989D01*
X34135795Y-50800000D01*
X32083806Y-48748011D01*
X31661741Y-49028984D01*
X31367222Y-49580717D01*
X31186000Y-50179306D01*
X31125039Y-50801748D01*
X26289000Y-50801748D01*
X26289000Y-48568406D01*
X32263411Y-48568406D01*
X34315400Y-50620395D01*
X36367389Y-48568406D01*
X36086416Y-48146341D01*
X35534683Y-47851822D01*
X34936094Y-47670600D01*
X34313652Y-47609639D01*
X33691277Y-47671282D01*
X33092887Y-47853160D01*
X32544384Y-48146341D01*
X32263411Y-48568406D01*
X26289000Y-48568406D01*
X26289000Y-26171892D01*
X26291869Y-26166496D01*
X26460716Y-25959470D01*
X26666554Y-25789187D01*
X26684032Y-25779737D01*
X65767663Y-25685103D01*
X65442260Y-26010505D01*
X65408342Y-26038341D01*
X65380507Y-26072258D01*
X65380505Y-26072260D01*
X65297248Y-26173709D01*
X65214698Y-26328148D01*
X65163864Y-26495726D01*
X65146700Y-26670000D01*
X65151001Y-26713670D01*
X65151000Y-56109532D01*
X65122795Y-56151744D01*
X65044774Y-56340102D01*
X65005000Y-56540061D01*
X65005000Y-56743939D01*
X65044774Y-56943898D01*
X65122795Y-57132256D01*
X65236063Y-57301774D01*
X65373484Y-57439195D01*
X65149465Y-57588880D01*
X64954880Y-57783465D01*
X64801995Y-58012273D01*
X64772308Y-58083943D01*
X64767636Y-58070977D01*
X64705656Y-57955020D01*
X64465565Y-57888040D01*
X63679605Y-58674000D01*
X64465565Y-59459960D01*
X64705656Y-59392980D01*
X64769485Y-59257240D01*
X64801995Y-59335727D01*
X64954880Y-59564535D01*
X65149465Y-59759120D01*
X65378273Y-59912005D01*
X65632510Y-60017314D01*
X65902408Y-60071000D01*
X66177592Y-60071000D01*
X66447490Y-60017314D01*
X66701727Y-59912005D01*
X66930535Y-59759120D01*
X67125120Y-59564535D01*
X67278005Y-59335727D01*
X67383314Y-59081490D01*
X67437000Y-58811592D01*
X67437000Y-58536408D01*
X67383314Y-58266510D01*
X67278005Y-58012273D01*
X67125120Y-57783465D01*
X66930535Y-57588880D01*
X66706516Y-57439195D01*
X66843937Y-57301774D01*
X66957205Y-57132256D01*
X67035226Y-56943898D01*
X67075000Y-56743939D01*
X67075000Y-56661000D01*
X67157939Y-56661000D01*
X67357898Y-56621226D01*
X67546256Y-56543205D01*
X67715774Y-56429937D01*
X67859937Y-56285774D01*
X67973205Y-56116256D01*
X68051226Y-55927898D01*
X68091000Y-55727939D01*
X68091000Y-55524061D01*
X68051226Y-55324102D01*
X67973205Y-55135744D01*
X67859937Y-54966226D01*
X67818000Y-54924289D01*
X67818000Y-45405711D01*
X67859937Y-45363774D01*
X67973205Y-45194256D01*
X68051226Y-45005898D01*
X68091000Y-44805939D01*
X68091000Y-44602061D01*
X68051226Y-44402102D01*
X67973205Y-44213744D01*
X67859937Y-44044226D01*
X67715774Y-43900063D01*
X67546256Y-43786795D01*
X67357898Y-43708774D01*
X67157939Y-43669000D01*
X66954061Y-43669000D01*
X66929000Y-43673985D01*
X66929000Y-27128999D01*
X69473868Y-27128999D01*
X69437988Y-27182698D01*
X69277047Y-27571244D01*
X69195000Y-27983721D01*
X69195000Y-28404279D01*
X69277047Y-28816756D01*
X69437988Y-29205302D01*
X69671637Y-29554983D01*
X69969017Y-29852363D01*
X70318698Y-30086012D01*
X70707244Y-30246953D01*
X71119721Y-30329000D01*
X71540279Y-30329000D01*
X71952756Y-30246953D01*
X72341302Y-30086012D01*
X72690983Y-29852363D01*
X72988363Y-29554983D01*
X73222012Y-29205302D01*
X73382953Y-28816756D01*
X73465000Y-28404279D01*
X73465000Y-27983721D01*
X73382953Y-27571244D01*
X73222012Y-27182698D01*
X73186132Y-27128999D01*
X74726684Y-27128999D01*
X74772068Y-27357158D01*
X74884010Y-27627411D01*
X75046525Y-27870632D01*
X75253368Y-28077475D01*
X75427760Y-28194000D01*
X75253368Y-28310525D01*
X75046525Y-28517368D01*
X74884010Y-28760589D01*
X74772068Y-29030842D01*
X74715000Y-29317740D01*
X74715000Y-29610260D01*
X74772068Y-29897158D01*
X74884010Y-30167411D01*
X75046525Y-30410632D01*
X75253368Y-30617475D01*
X75496589Y-30779990D01*
X75766842Y-30891932D01*
X76053740Y-30949000D01*
X76082710Y-30949000D01*
X76044795Y-31005744D01*
X75966774Y-31194102D01*
X75927000Y-31394061D01*
X75927000Y-31415269D01*
X75408129Y-31934141D01*
X75339205Y-31767744D01*
X75225937Y-31598226D01*
X75081774Y-31454063D01*
X74912256Y-31340795D01*
X74723898Y-31262774D01*
X74523939Y-31223000D01*
X74320061Y-31223000D01*
X74120102Y-31262774D01*
X73931744Y-31340795D01*
X73762226Y-31454063D01*
X73618063Y-31598226D01*
X73504795Y-31767744D01*
X73426774Y-31956102D01*
X73387000Y-32156061D01*
X73387000Y-32215370D01*
X73087649Y-32514721D01*
X73058579Y-32538578D01*
X73034722Y-32567648D01*
X73034721Y-32567649D01*
X72963355Y-32654608D01*
X72892599Y-32786985D01*
X72849027Y-32930622D01*
X72834314Y-33080000D01*
X72838001Y-33117433D01*
X72838000Y-36687288D01*
X72796063Y-36729225D01*
X72682795Y-36898743D01*
X72606510Y-37082909D01*
X72601939Y-37082000D01*
X72398061Y-37082000D01*
X72198102Y-37121774D01*
X72009744Y-37199795D01*
X71840226Y-37313063D01*
X71696063Y-37457226D01*
X71582795Y-37626744D01*
X71504774Y-37815102D01*
X71465000Y-38015061D01*
X71465000Y-38218939D01*
X71504774Y-38418898D01*
X71582795Y-38607256D01*
X71696063Y-38776774D01*
X71840226Y-38920937D01*
X72009744Y-39034205D01*
X72198102Y-39112226D01*
X72398061Y-39152000D01*
X72601939Y-39152000D01*
X72801898Y-39112226D01*
X72990256Y-39034205D01*
X73159774Y-38920937D01*
X73202712Y-38877999D01*
X74765000Y-38877999D01*
X74765000Y-38944939D01*
X74804774Y-39144898D01*
X74882795Y-39333256D01*
X74996063Y-39502774D01*
X75140226Y-39646937D01*
X75309744Y-39760205D01*
X75498102Y-39838226D01*
X75698061Y-39878000D01*
X75901939Y-39878000D01*
X76101898Y-39838226D01*
X76290256Y-39760205D01*
X76459774Y-39646937D01*
X76482711Y-39624000D01*
X86806370Y-39624000D01*
X86868001Y-39685631D01*
X86868000Y-68767289D01*
X86826063Y-68809226D01*
X86712795Y-68978744D01*
X86634774Y-69167102D01*
X86595000Y-69367061D01*
X86595000Y-69570939D01*
X86634774Y-69770898D01*
X86712795Y-69959256D01*
X86826063Y-70128774D01*
X86970226Y-70272937D01*
X87139744Y-70386205D01*
X87328102Y-70464226D01*
X87528061Y-70504000D01*
X87731939Y-70504000D01*
X87931898Y-70464226D01*
X88036640Y-70420840D01*
X88096063Y-70509774D01*
X88240226Y-70653937D01*
X88409744Y-70767205D01*
X88598102Y-70845226D01*
X88798061Y-70885000D01*
X89001939Y-70885000D01*
X89201898Y-70845226D01*
X89390256Y-70767205D01*
X89559774Y-70653937D01*
X89703937Y-70509774D01*
X89817205Y-70340256D01*
X89895226Y-70151898D01*
X89904753Y-70104000D01*
X91705247Y-70104000D01*
X91714774Y-70151898D01*
X91792795Y-70340256D01*
X91906063Y-70509774D01*
X92050226Y-70653937D01*
X92219744Y-70767205D01*
X92408102Y-70845226D01*
X92608061Y-70885000D01*
X92811939Y-70885000D01*
X93011898Y-70845226D01*
X93200256Y-70767205D01*
X93369774Y-70653937D01*
X93513937Y-70509774D01*
X93627205Y-70340256D01*
X93705226Y-70151898D01*
X93714250Y-70106529D01*
X93726000Y-70107686D01*
X93763423Y-70104000D01*
X95515247Y-70104000D01*
X95524774Y-70151898D01*
X95602795Y-70340256D01*
X95716063Y-70509774D01*
X95860226Y-70653937D01*
X96029744Y-70767205D01*
X96218102Y-70845226D01*
X96418061Y-70885000D01*
X96621939Y-70885000D01*
X96821898Y-70845226D01*
X97010256Y-70767205D01*
X97179774Y-70653937D01*
X97323937Y-70509774D01*
X97437205Y-70340256D01*
X97515226Y-70151898D01*
X97524753Y-70104000D01*
X99325247Y-70104000D01*
X99334774Y-70151898D01*
X99412795Y-70340256D01*
X99526063Y-70509774D01*
X99670226Y-70653937D01*
X99839744Y-70767205D01*
X100028102Y-70845226D01*
X100228061Y-70885000D01*
X100431939Y-70885000D01*
X100631898Y-70845226D01*
X100820256Y-70767205D01*
X100989774Y-70653937D01*
X101133937Y-70509774D01*
X101247205Y-70340256D01*
X101325226Y-70151898D01*
X101334753Y-70104000D01*
X103135247Y-70104000D01*
X103144774Y-70151898D01*
X103222795Y-70340256D01*
X103336063Y-70509774D01*
X103480226Y-70653937D01*
X103649744Y-70767205D01*
X103838102Y-70845226D01*
X104038061Y-70885000D01*
X104241939Y-70885000D01*
X104441898Y-70845226D01*
X104630256Y-70767205D01*
X104799774Y-70653937D01*
X104943937Y-70509774D01*
X105057205Y-70340256D01*
X105135226Y-70151898D01*
X105175000Y-69951939D01*
X105175000Y-69748061D01*
X106915000Y-69748061D01*
X106915000Y-69951939D01*
X106954774Y-70151898D01*
X107032795Y-70340256D01*
X107146063Y-70509774D01*
X107290226Y-70653937D01*
X107459744Y-70767205D01*
X107648102Y-70845226D01*
X107848061Y-70885000D01*
X108051939Y-70885000D01*
X108251898Y-70845226D01*
X108440256Y-70767205D01*
X108609774Y-70653937D01*
X108753937Y-70509774D01*
X108867205Y-70340256D01*
X108945226Y-70151898D01*
X108985000Y-69951939D01*
X108985000Y-69748061D01*
X108945226Y-69548102D01*
X108867205Y-69359744D01*
X108797182Y-69254948D01*
X110998001Y-67054130D01*
X110998000Y-69148289D01*
X110956063Y-69190226D01*
X110842795Y-69359744D01*
X110764774Y-69548102D01*
X110725000Y-69748061D01*
X110725000Y-69951939D01*
X110764774Y-70151898D01*
X110842795Y-70340256D01*
X110956063Y-70509774D01*
X111100226Y-70653937D01*
X111269744Y-70767205D01*
X111458102Y-70845226D01*
X111658061Y-70885000D01*
X111861939Y-70885000D01*
X112061898Y-70845226D01*
X112250256Y-70767205D01*
X112419774Y-70653937D01*
X112563937Y-70509774D01*
X112677205Y-70340256D01*
X112755226Y-70151898D01*
X112795000Y-69951939D01*
X112795000Y-69748061D01*
X117075000Y-69748061D01*
X117075000Y-69951939D01*
X117114774Y-70151898D01*
X117192795Y-70340256D01*
X117306063Y-70509774D01*
X117450226Y-70653937D01*
X117619744Y-70767205D01*
X117808102Y-70845226D01*
X118008061Y-70885000D01*
X118211939Y-70885000D01*
X118411898Y-70845226D01*
X118600256Y-70767205D01*
X118769774Y-70653937D01*
X118913937Y-70509774D01*
X119027205Y-70340256D01*
X119105226Y-70151898D01*
X119145000Y-69951939D01*
X119145000Y-69892631D01*
X119187631Y-69850000D01*
X120885000Y-69850000D01*
X120885000Y-69951939D01*
X120924774Y-70151898D01*
X121002795Y-70340256D01*
X121116063Y-70509774D01*
X121260226Y-70653937D01*
X121429744Y-70767205D01*
X121618102Y-70845226D01*
X121818061Y-70885000D01*
X122021939Y-70885000D01*
X122221898Y-70845226D01*
X122410256Y-70767205D01*
X122579774Y-70653937D01*
X122723937Y-70509774D01*
X122837205Y-70340256D01*
X122915226Y-70151898D01*
X122955000Y-69951939D01*
X122955000Y-69892630D01*
X125480352Y-67367279D01*
X125509422Y-67343422D01*
X125539876Y-67306314D01*
X125604645Y-67227393D01*
X125673840Y-67097937D01*
X125675402Y-67095015D01*
X125718974Y-66951378D01*
X125730000Y-66839426D01*
X125730000Y-66839423D01*
X125733686Y-66802000D01*
X125730000Y-66764577D01*
X125730000Y-65979711D01*
X125771937Y-65937774D01*
X125885205Y-65768256D01*
X125963226Y-65579898D01*
X126003000Y-65379939D01*
X126003000Y-65262974D01*
X126031898Y-65257226D01*
X126220256Y-65179205D01*
X126389774Y-65065937D01*
X126533937Y-64921774D01*
X126647205Y-64752256D01*
X126725226Y-64563898D01*
X126765000Y-64363939D01*
X126765000Y-64160061D01*
X126725226Y-63960102D01*
X126647205Y-63771744D01*
X126533937Y-63602226D01*
X126389774Y-63458063D01*
X126220256Y-63344795D01*
X126031898Y-63266774D01*
X125831939Y-63227000D01*
X125628061Y-63227000D01*
X125428102Y-63266774D01*
X125239744Y-63344795D01*
X125070226Y-63458063D01*
X125028289Y-63500000D01*
X124948421Y-63500000D01*
X124910998Y-63496314D01*
X124873575Y-63500000D01*
X124873572Y-63500000D01*
X124761620Y-63511026D01*
X124617983Y-63554598D01*
X124556362Y-63587535D01*
X124485605Y-63625355D01*
X124451323Y-63653490D01*
X124369576Y-63720578D01*
X124345718Y-63749649D01*
X123693653Y-64401715D01*
X123664578Y-64425576D01*
X123616627Y-64484005D01*
X123569355Y-64541606D01*
X123553859Y-64570598D01*
X123498598Y-64673984D01*
X123455026Y-64817621D01*
X123449090Y-64877893D01*
X123440314Y-64966998D01*
X123444000Y-65004422D01*
X123444001Y-66486368D01*
X121604370Y-68326000D01*
X118909423Y-68326000D01*
X118872000Y-68322314D01*
X118834577Y-68326000D01*
X118834574Y-68326000D01*
X118722622Y-68337026D01*
X118578985Y-68380598D01*
X118547927Y-68397199D01*
X118446607Y-68451355D01*
X118372530Y-68512149D01*
X118330578Y-68546578D01*
X118306720Y-68575649D01*
X118067369Y-68815000D01*
X118008061Y-68815000D01*
X117808102Y-68854774D01*
X117619744Y-68932795D01*
X117450226Y-69046063D01*
X117306063Y-69190226D01*
X117192795Y-69359744D01*
X117114774Y-69548102D01*
X117075000Y-69748061D01*
X112795000Y-69748061D01*
X112755226Y-69548102D01*
X112677205Y-69359744D01*
X112563937Y-69190226D01*
X112522000Y-69148289D01*
X112522000Y-66995711D01*
X112563937Y-66953774D01*
X112677205Y-66784256D01*
X112755226Y-66595898D01*
X112795000Y-66395939D01*
X112795000Y-66192061D01*
X112755226Y-65992102D01*
X112677205Y-65803744D01*
X112563937Y-65634226D01*
X112490921Y-65561210D01*
X112564631Y-65487500D01*
X112623939Y-65487500D01*
X112823898Y-65447726D01*
X113012256Y-65369705D01*
X113181774Y-65256437D01*
X113325937Y-65112274D01*
X113439205Y-64942756D01*
X113517226Y-64754398D01*
X113557000Y-64554439D01*
X113557000Y-64350561D01*
X113517226Y-64150602D01*
X113439205Y-63962244D01*
X113325937Y-63792726D01*
X113181774Y-63648563D01*
X113012256Y-63535295D01*
X112823898Y-63457274D01*
X112623939Y-63417500D01*
X112420061Y-63417500D01*
X112220102Y-63457274D01*
X112031744Y-63535295D01*
X111862226Y-63648563D01*
X111718063Y-63792726D01*
X111604795Y-63962244D01*
X111526774Y-64150602D01*
X111487000Y-64350561D01*
X111487000Y-64409869D01*
X107437649Y-68459221D01*
X107408579Y-68483078D01*
X107384722Y-68512148D01*
X107384721Y-68512149D01*
X107313355Y-68599108D01*
X107261580Y-68695974D01*
X107242599Y-68731485D01*
X107199027Y-68875122D01*
X107188430Y-68982714D01*
X107184314Y-69024500D01*
X107188000Y-69061923D01*
X107188000Y-69148289D01*
X107146063Y-69190226D01*
X107032795Y-69359744D01*
X106954774Y-69548102D01*
X106915000Y-69748061D01*
X105175000Y-69748061D01*
X105135226Y-69548102D01*
X105057205Y-69359744D01*
X104943937Y-69190226D01*
X104799774Y-69046063D01*
X104630256Y-68932795D01*
X104441898Y-68854774D01*
X104241939Y-68815000D01*
X104185258Y-68815000D01*
X104173422Y-68800578D01*
X104057392Y-68705355D01*
X103925015Y-68634598D01*
X103781378Y-68591026D01*
X103669426Y-68580000D01*
X103669423Y-68580000D01*
X103632000Y-68576314D01*
X103594577Y-68580000D01*
X101407630Y-68580000D01*
X101149284Y-68321654D01*
X101125422Y-68292578D01*
X101009392Y-68197355D01*
X100877015Y-68126598D01*
X100733378Y-68083026D01*
X100621426Y-68072000D01*
X100621423Y-68072000D01*
X100584000Y-68068314D01*
X100546577Y-68072000D01*
X97851630Y-68072000D01*
X97647274Y-67867644D01*
X97623412Y-67838568D01*
X97507382Y-67743345D01*
X97375005Y-67672588D01*
X97231368Y-67629016D01*
X97119416Y-67617990D01*
X97119413Y-67617990D01*
X97081990Y-67614304D01*
X97044567Y-67617990D01*
X95250000Y-67617990D01*
X95250000Y-62001061D01*
X106915000Y-62001061D01*
X106915000Y-62204939D01*
X106954774Y-62404898D01*
X107032795Y-62593256D01*
X107146063Y-62762774D01*
X107290226Y-62906937D01*
X107459744Y-63020205D01*
X107648102Y-63098226D01*
X107848061Y-63138000D01*
X108051939Y-63138000D01*
X108251898Y-63098226D01*
X108440256Y-63020205D01*
X108609774Y-62906937D01*
X108753937Y-62762774D01*
X108867205Y-62593256D01*
X108945226Y-62404898D01*
X108985000Y-62204939D01*
X108985000Y-62001061D01*
X108945226Y-61801102D01*
X108867205Y-61612744D01*
X108753937Y-61443226D01*
X108712000Y-61401289D01*
X108712000Y-61230349D01*
X108863774Y-61128937D01*
X109007937Y-60984774D01*
X109121205Y-60815256D01*
X109199226Y-60626898D01*
X109239000Y-60426939D01*
X109239000Y-60223061D01*
X109199226Y-60023102D01*
X109121205Y-59834744D01*
X109007937Y-59665226D01*
X108863774Y-59521063D01*
X108694256Y-59407795D01*
X108505898Y-59329774D01*
X108305939Y-59290000D01*
X108102061Y-59290000D01*
X107902102Y-59329774D01*
X107713744Y-59407795D01*
X107544226Y-59521063D01*
X107400063Y-59665226D01*
X107286795Y-59834744D01*
X107208774Y-60023102D01*
X107169000Y-60223061D01*
X107169000Y-60426939D01*
X107189259Y-60528791D01*
X107184314Y-60579000D01*
X107188001Y-60616433D01*
X107188000Y-61401289D01*
X107146063Y-61443226D01*
X107032795Y-61612744D01*
X106954774Y-61801102D01*
X106915000Y-62001061D01*
X95250000Y-62001061D01*
X95250000Y-51501711D01*
X95291937Y-51459774D01*
X95405205Y-51290256D01*
X95483226Y-51101898D01*
X95523000Y-50901939D01*
X95523000Y-50698061D01*
X95483226Y-50498102D01*
X95405205Y-50309744D01*
X95291937Y-50140226D01*
X95250000Y-50098289D01*
X95250000Y-50044061D01*
X95485000Y-50044061D01*
X95485000Y-50247939D01*
X95524774Y-50447898D01*
X95602795Y-50636256D01*
X95716063Y-50805774D01*
X95860226Y-50949937D01*
X96029744Y-51063205D01*
X96218102Y-51141226D01*
X96418061Y-51181000D01*
X96621939Y-51181000D01*
X96821898Y-51141226D01*
X97010256Y-51063205D01*
X97179774Y-50949937D01*
X97221711Y-50908000D01*
X101821289Y-50908000D01*
X101855726Y-50942437D01*
X102025244Y-51055705D01*
X102213602Y-51133726D01*
X102413561Y-51173500D01*
X102617439Y-51173500D01*
X102817398Y-51133726D01*
X103005756Y-51055705D01*
X103175274Y-50942437D01*
X103319437Y-50798274D01*
X103432705Y-50628756D01*
X103510726Y-50440398D01*
X103550500Y-50240439D01*
X103550500Y-50036561D01*
X103510726Y-49836602D01*
X103432705Y-49648244D01*
X103319437Y-49478726D01*
X103175274Y-49334563D01*
X103005756Y-49221295D01*
X102817398Y-49143274D01*
X102617439Y-49103500D01*
X102413561Y-49103500D01*
X102213602Y-49143274D01*
X102025244Y-49221295D01*
X101855726Y-49334563D01*
X101806289Y-49384000D01*
X97221711Y-49384000D01*
X97179774Y-49342063D01*
X97010256Y-49228795D01*
X96821898Y-49150774D01*
X96621939Y-49111000D01*
X96418061Y-49111000D01*
X96218102Y-49150774D01*
X96029744Y-49228795D01*
X95860226Y-49342063D01*
X95716063Y-49486226D01*
X95602795Y-49655744D01*
X95524774Y-49844102D01*
X95485000Y-50044061D01*
X95250000Y-50044061D01*
X95250000Y-45012000D01*
X95351939Y-45012000D01*
X95551898Y-44972226D01*
X95740256Y-44894205D01*
X95909774Y-44780937D01*
X96053937Y-44636774D01*
X96167205Y-44467256D01*
X96245226Y-44278898D01*
X96285000Y-44078939D01*
X96285000Y-43875061D01*
X96245226Y-43675102D01*
X96167205Y-43486744D01*
X96053937Y-43317226D01*
X96012000Y-43275289D01*
X96012000Y-38669630D01*
X103775951Y-30905679D01*
X103993740Y-30949000D01*
X104286260Y-30949000D01*
X104573158Y-30891932D01*
X104843411Y-30779990D01*
X105086632Y-30617475D01*
X105211710Y-30492397D01*
X105831208Y-30492397D01*
X105908843Y-30741472D01*
X106172883Y-30867371D01*
X106456411Y-30939339D01*
X106748531Y-30954611D01*
X107038019Y-30912599D01*
X107313747Y-30814919D01*
X107451157Y-30741472D01*
X107528792Y-30492397D01*
X106680000Y-29643605D01*
X105831208Y-30492397D01*
X105211710Y-30492397D01*
X105293475Y-30410632D01*
X105409311Y-30237271D01*
X105651603Y-30312792D01*
X106500395Y-29464000D01*
X105651603Y-28615208D01*
X105409311Y-28690729D01*
X105293475Y-28517368D01*
X105086632Y-28310525D01*
X104912240Y-28194000D01*
X105086632Y-28077475D01*
X105293475Y-27870632D01*
X105410000Y-27696240D01*
X105526525Y-27870632D01*
X105733368Y-28077475D01*
X105906729Y-28193311D01*
X105831208Y-28435603D01*
X106680000Y-29284395D01*
X107528792Y-28435603D01*
X107453271Y-28193311D01*
X107626632Y-28077475D01*
X107833475Y-27870632D01*
X107950000Y-27696240D01*
X108066525Y-27870632D01*
X108273368Y-28077475D01*
X108447760Y-28194000D01*
X108273368Y-28310525D01*
X108066525Y-28517368D01*
X107950689Y-28690729D01*
X107708397Y-28615208D01*
X106859605Y-29464000D01*
X107708397Y-30312792D01*
X107950689Y-30237271D01*
X108066525Y-30410632D01*
X108273368Y-30617475D01*
X108516589Y-30779990D01*
X108786842Y-30891932D01*
X109073740Y-30949000D01*
X109366260Y-30949000D01*
X109653158Y-30891932D01*
X109923411Y-30779990D01*
X110166632Y-30617475D01*
X110373475Y-30410632D01*
X110490000Y-30236240D01*
X110606525Y-30410632D01*
X110813368Y-30617475D01*
X111056589Y-30779990D01*
X111326842Y-30891932D01*
X111613740Y-30949000D01*
X111906260Y-30949000D01*
X112193158Y-30891932D01*
X112463411Y-30779990D01*
X112706632Y-30617475D01*
X112913475Y-30410632D01*
X113030000Y-30236240D01*
X113146525Y-30410632D01*
X113353368Y-30617475D01*
X113596589Y-30779990D01*
X113866842Y-30891932D01*
X114153740Y-30949000D01*
X114446260Y-30949000D01*
X114733158Y-30891932D01*
X115003411Y-30779990D01*
X115246632Y-30617475D01*
X115453475Y-30410632D01*
X115570000Y-30236240D01*
X115686525Y-30410632D01*
X115893368Y-30617475D01*
X116136589Y-30779990D01*
X116406842Y-30891932D01*
X116693740Y-30949000D01*
X116986260Y-30949000D01*
X117273158Y-30891932D01*
X117543411Y-30779990D01*
X117786632Y-30617475D01*
X117993475Y-30410632D01*
X118110000Y-30236240D01*
X118226525Y-30410632D01*
X118433368Y-30617475D01*
X118676589Y-30779990D01*
X118946842Y-30891932D01*
X119233740Y-30949000D01*
X119526260Y-30949000D01*
X119813158Y-30891932D01*
X120083411Y-30779990D01*
X120326632Y-30617475D01*
X120533475Y-30410632D01*
X120650000Y-30236240D01*
X120766525Y-30410632D01*
X120973368Y-30617475D01*
X121216589Y-30779990D01*
X121486842Y-30891932D01*
X121773740Y-30949000D01*
X122066260Y-30949000D01*
X122353158Y-30891932D01*
X122623411Y-30779990D01*
X122866632Y-30617475D01*
X122991710Y-30492397D01*
X123611208Y-30492397D01*
X123688843Y-30741472D01*
X123952883Y-30867371D01*
X124236411Y-30939339D01*
X124528531Y-30954611D01*
X124818019Y-30912599D01*
X125093747Y-30814919D01*
X125231157Y-30741472D01*
X125308792Y-30492397D01*
X124460000Y-29643605D01*
X123611208Y-30492397D01*
X122991710Y-30492397D01*
X123073475Y-30410632D01*
X123189311Y-30237271D01*
X123431603Y-30312792D01*
X124280395Y-29464000D01*
X124639605Y-29464000D01*
X125488397Y-30312792D01*
X125737472Y-30235157D01*
X125863371Y-29971117D01*
X125935339Y-29687589D01*
X125950611Y-29395469D01*
X125908599Y-29105981D01*
X125810919Y-28830253D01*
X125737472Y-28692843D01*
X125488397Y-28615208D01*
X124639605Y-29464000D01*
X124280395Y-29464000D01*
X123431603Y-28615208D01*
X123189311Y-28690729D01*
X123073475Y-28517368D01*
X122866632Y-28310525D01*
X122692240Y-28194000D01*
X122866632Y-28077475D01*
X123073475Y-27870632D01*
X123190000Y-27696240D01*
X123306525Y-27870632D01*
X123513368Y-28077475D01*
X123686729Y-28193311D01*
X123611208Y-28435603D01*
X124460000Y-29284395D01*
X125308792Y-28435603D01*
X125233271Y-28193311D01*
X125406632Y-28077475D01*
X125613475Y-27870632D01*
X125775990Y-27627411D01*
X125887932Y-27357158D01*
X125945000Y-27070260D01*
X125945000Y-26777740D01*
X125887932Y-26490842D01*
X125775990Y-26220589D01*
X125613475Y-25977368D01*
X125406632Y-25770525D01*
X125163411Y-25608010D01*
X125028190Y-25552000D01*
X130015721Y-25552000D01*
X130313875Y-25581234D01*
%TA.AperFunction,Conductor*%
D21*
G36*
X130313875Y-25581234D02*
G01*
X130569622Y-25658448D01*
X130805504Y-25783869D01*
X130937000Y-25891115D01*
X130937000Y-26781654D01*
X130690983Y-26535637D01*
X130341302Y-26301988D01*
X129952756Y-26141047D01*
X129540279Y-26059000D01*
X129119721Y-26059000D01*
X128707244Y-26141047D01*
X128318698Y-26301988D01*
X127969017Y-26535637D01*
X127671637Y-26833017D01*
X127437988Y-27182698D01*
X127277047Y-27571244D01*
X127195000Y-27983721D01*
X127195000Y-28404279D01*
X127277047Y-28816756D01*
X127437988Y-29205302D01*
X127671637Y-29554983D01*
X127969017Y-29852363D01*
X128318698Y-30086012D01*
X128707244Y-30246953D01*
X129119721Y-30329000D01*
X129540279Y-30329000D01*
X129952756Y-30246953D01*
X130341302Y-30086012D01*
X130690983Y-29852363D01*
X130937000Y-29606346D01*
X130937000Y-75781654D01*
X130690983Y-75535637D01*
X130341302Y-75301988D01*
X129952756Y-75141047D01*
X129540279Y-75059000D01*
X129119721Y-75059000D01*
X128707244Y-75141047D01*
X128318698Y-75301988D01*
X127969017Y-75535637D01*
X127671637Y-75833017D01*
X127437988Y-76182698D01*
X127277047Y-76571244D01*
X127195000Y-76983721D01*
X127195000Y-77404279D01*
X127277047Y-77816756D01*
X127437988Y-78205302D01*
X127671637Y-78554983D01*
X127969017Y-78852363D01*
X128318698Y-79086012D01*
X128403167Y-79121000D01*
X72256833Y-79121000D01*
X72341302Y-79086012D01*
X72690983Y-78852363D01*
X72988363Y-78554983D01*
X73222012Y-78205302D01*
X73382953Y-77816756D01*
X73465000Y-77404279D01*
X73465000Y-76983721D01*
X73382953Y-76571244D01*
X73222012Y-76182698D01*
X72988363Y-75833017D01*
X72690983Y-75535637D01*
X72341302Y-75301988D01*
X71952756Y-75141047D01*
X71540279Y-75059000D01*
X71119721Y-75059000D01*
X70707244Y-75141047D01*
X70318698Y-75301988D01*
X69969017Y-75535637D01*
X69671637Y-75833017D01*
X69437988Y-76182698D01*
X69277047Y-76571244D01*
X69195000Y-76983721D01*
X69195000Y-77404279D01*
X69277047Y-77816756D01*
X69437988Y-78205302D01*
X69671637Y-78554983D01*
X69969017Y-78852363D01*
X70318698Y-79086012D01*
X70403167Y-79121000D01*
X26289000Y-79121000D01*
X26289000Y-77942531D01*
X27139074Y-77942531D01*
X27249921Y-78219714D01*
X27560840Y-78373089D01*
X27895705Y-78462860D01*
X28241650Y-78485576D01*
X28585380Y-78440366D01*
X28913685Y-78328966D01*
X29118079Y-78219714D01*
X29228926Y-77942531D01*
X32239074Y-77942531D01*
X32349921Y-78219714D01*
X32660840Y-78373089D01*
X32995705Y-78462860D01*
X33341650Y-78485576D01*
X33685380Y-78440366D01*
X34013685Y-78328966D01*
X34218079Y-78219714D01*
X34328926Y-77942531D01*
X33284000Y-76897605D01*
X32239074Y-77942531D01*
X29228926Y-77942531D01*
X28184000Y-76897605D01*
X27139074Y-77942531D01*
X26289000Y-77942531D01*
X26289000Y-76775650D01*
X26416424Y-76775650D01*
X26461634Y-77119380D01*
X26573034Y-77447685D01*
X26682286Y-77652079D01*
X26959469Y-77762926D01*
X28004395Y-76718000D01*
X28363605Y-76718000D01*
X29408531Y-77762926D01*
X29685714Y-77652079D01*
X29839089Y-77341160D01*
X29928860Y-77006295D01*
X29944004Y-76775650D01*
X31516424Y-76775650D01*
X31561634Y-77119380D01*
X31673034Y-77447685D01*
X31782286Y-77652079D01*
X32059469Y-77762926D01*
X33104395Y-76718000D01*
X33463605Y-76718000D01*
X34508531Y-77762926D01*
X34785714Y-77652079D01*
X34939089Y-77341160D01*
X35028860Y-77006295D01*
X35051576Y-76660350D01*
X35006366Y-76316620D01*
X34894966Y-75988315D01*
X34785714Y-75783921D01*
X34508531Y-75673074D01*
X33463605Y-76718000D01*
X33104395Y-76718000D01*
X32059469Y-75673074D01*
X31782286Y-75783921D01*
X31628911Y-76094840D01*
X31539140Y-76429705D01*
X31516424Y-76775650D01*
X29944004Y-76775650D01*
X29951576Y-76660350D01*
X29906366Y-76316620D01*
X29794966Y-75988315D01*
X29685714Y-75783921D01*
X29408531Y-75673074D01*
X28363605Y-76718000D01*
X28004395Y-76718000D01*
X26959469Y-75673074D01*
X26682286Y-75783921D01*
X26528911Y-76094840D01*
X26439140Y-76429705D01*
X26416424Y-76775650D01*
X26289000Y-76775650D01*
X26289000Y-75493469D01*
X27139074Y-75493469D01*
X28184000Y-76538395D01*
X29228926Y-75493469D01*
X29118079Y-75216286D01*
X28807160Y-75062911D01*
X28472295Y-74973140D01*
X28126350Y-74950424D01*
X27782620Y-74995634D01*
X27454315Y-75107034D01*
X27249921Y-75216286D01*
X27139074Y-75493469D01*
X26289000Y-75493469D01*
X26289000Y-73994655D01*
X28974000Y-73994655D01*
X28974000Y-74341345D01*
X29041636Y-74681373D01*
X29174308Y-75001673D01*
X29366919Y-75289935D01*
X29612065Y-75535081D01*
X29900327Y-75727692D01*
X30220627Y-75860364D01*
X30560655Y-75928000D01*
X30907345Y-75928000D01*
X31247373Y-75860364D01*
X31567673Y-75727692D01*
X31855935Y-75535081D01*
X31897547Y-75493469D01*
X32239074Y-75493469D01*
X33284000Y-76538395D01*
X34328926Y-75493469D01*
X34218079Y-75216286D01*
X33907160Y-75062911D01*
X33572295Y-74973140D01*
X33226350Y-74950424D01*
X32882620Y-74995634D01*
X32554315Y-75107034D01*
X32349921Y-75216286D01*
X32239074Y-75493469D01*
X31897547Y-75493469D01*
X32101081Y-75289935D01*
X32293692Y-75001673D01*
X32426364Y-74681373D01*
X32494000Y-74341345D01*
X32494000Y-73994655D01*
X32426364Y-73654627D01*
X32293692Y-73334327D01*
X32101081Y-73046065D01*
X31897547Y-72842531D01*
X32239074Y-72842531D01*
X32349921Y-73119714D01*
X32660840Y-73273089D01*
X32995705Y-73362860D01*
X33341650Y-73385576D01*
X33685380Y-73340366D01*
X34013685Y-73228966D01*
X34218079Y-73119714D01*
X34328926Y-72842531D01*
X33284000Y-71797605D01*
X32239074Y-72842531D01*
X31897547Y-72842531D01*
X31855935Y-72800919D01*
X31567673Y-72608308D01*
X31247373Y-72475636D01*
X30907345Y-72408000D01*
X30560655Y-72408000D01*
X30220627Y-72475636D01*
X29900327Y-72608308D01*
X29612065Y-72800919D01*
X29366919Y-73046065D01*
X29174308Y-73334327D01*
X29041636Y-73654627D01*
X28974000Y-73994655D01*
X26289000Y-73994655D01*
X26289000Y-72842531D01*
X27139074Y-72842531D01*
X27249921Y-73119714D01*
X27560840Y-73273089D01*
X27895705Y-73362860D01*
X28241650Y-73385576D01*
X28585380Y-73340366D01*
X28913685Y-73228966D01*
X29118079Y-73119714D01*
X29228926Y-72842531D01*
X28184000Y-71797605D01*
X27139074Y-72842531D01*
X26289000Y-72842531D01*
X26289000Y-71675650D01*
X26416424Y-71675650D01*
X26461634Y-72019380D01*
X26573034Y-72347685D01*
X26682286Y-72552079D01*
X26959469Y-72662926D01*
X28004395Y-71618000D01*
X28363605Y-71618000D01*
X29408531Y-72662926D01*
X29685714Y-72552079D01*
X29839089Y-72241160D01*
X29928860Y-71906295D01*
X29944004Y-71675650D01*
X31516424Y-71675650D01*
X31561634Y-72019380D01*
X31673034Y-72347685D01*
X31782286Y-72552079D01*
X32059469Y-72662926D01*
X33104395Y-71618000D01*
X33463605Y-71618000D01*
X34508531Y-72662926D01*
X34785714Y-72552079D01*
X34939089Y-72241160D01*
X35028860Y-71906295D01*
X35051576Y-71560350D01*
X35006366Y-71216620D01*
X34894966Y-70888315D01*
X34785714Y-70683921D01*
X34508531Y-70573074D01*
X33463605Y-71618000D01*
X33104395Y-71618000D01*
X32059469Y-70573074D01*
X31782286Y-70683921D01*
X31628911Y-70994840D01*
X31539140Y-71329705D01*
X31516424Y-71675650D01*
X29944004Y-71675650D01*
X29951576Y-71560350D01*
X29906366Y-71216620D01*
X29794966Y-70888315D01*
X29685714Y-70683921D01*
X29408531Y-70573074D01*
X28363605Y-71618000D01*
X28004395Y-71618000D01*
X26959469Y-70573074D01*
X26682286Y-70683921D01*
X26528911Y-70994840D01*
X26439140Y-71329705D01*
X26416424Y-71675650D01*
X26289000Y-71675650D01*
X26289000Y-70393469D01*
X27139074Y-70393469D01*
X28184000Y-71438395D01*
X29228926Y-70393469D01*
X32239074Y-70393469D01*
X33284000Y-71438395D01*
X34328926Y-70393469D01*
X34218079Y-70116286D01*
X33907160Y-69962911D01*
X33572295Y-69873140D01*
X33226350Y-69850424D01*
X32882620Y-69895634D01*
X32554315Y-70007034D01*
X32349921Y-70116286D01*
X32239074Y-70393469D01*
X29228926Y-70393469D01*
X29118079Y-70116286D01*
X28807160Y-69962911D01*
X28472295Y-69873140D01*
X28126350Y-69850424D01*
X27782620Y-69895634D01*
X27454315Y-70007034D01*
X27249921Y-70116286D01*
X27139074Y-70393469D01*
X26289000Y-70393469D01*
X26289000Y-58361290D01*
X31140400Y-58361290D01*
X31140400Y-58986710D01*
X31262414Y-59600113D01*
X31501752Y-60177926D01*
X31849217Y-60697944D01*
X32291456Y-61140183D01*
X32811474Y-61487648D01*
X33389287Y-61726986D01*
X34002690Y-61849000D01*
X34628110Y-61849000D01*
X35241513Y-61726986D01*
X35819326Y-61487648D01*
X36339344Y-61140183D01*
X36781583Y-60697944D01*
X36853243Y-60590698D01*
X36853242Y-68501789D01*
X36811305Y-68543726D01*
X36698037Y-68713244D01*
X36620016Y-68901602D01*
X36580242Y-69101561D01*
X36580242Y-69305439D01*
X36620016Y-69505398D01*
X36698037Y-69693756D01*
X36811305Y-69863274D01*
X36955468Y-70007437D01*
X37124986Y-70120705D01*
X37313344Y-70198726D01*
X37513303Y-70238500D01*
X37717181Y-70238500D01*
X37917140Y-70198726D01*
X38105498Y-70120705D01*
X38275016Y-70007437D01*
X38419179Y-69863274D01*
X38532447Y-69693756D01*
X38610468Y-69505398D01*
X38650242Y-69305439D01*
X38650242Y-69107000D01*
X38709939Y-69107000D01*
X38909898Y-69067226D01*
X39098256Y-68989205D01*
X39267774Y-68875937D01*
X39411937Y-68731774D01*
X39525205Y-68562256D01*
X39603226Y-68373898D01*
X39633030Y-68224061D01*
X54845000Y-68224061D01*
X54845000Y-68427939D01*
X54884774Y-68627898D01*
X54962795Y-68816256D01*
X55076063Y-68985774D01*
X55220226Y-69129937D01*
X55389744Y-69243205D01*
X55578102Y-69321226D01*
X55778061Y-69361000D01*
X55981939Y-69361000D01*
X56181898Y-69321226D01*
X56370256Y-69243205D01*
X56539774Y-69129937D01*
X56683937Y-68985774D01*
X56797205Y-68816256D01*
X56875226Y-68627898D01*
X56915000Y-68427939D01*
X56915000Y-68224061D01*
X56875226Y-68024102D01*
X56797205Y-67835744D01*
X56683937Y-67666226D01*
X56642000Y-67624289D01*
X56642000Y-67453349D01*
X56659744Y-67465205D01*
X56848102Y-67543226D01*
X57048061Y-67583000D01*
X57251939Y-67583000D01*
X57451898Y-67543226D01*
X57640256Y-67465205D01*
X57809774Y-67351937D01*
X57953937Y-67207774D01*
X58067205Y-67038256D01*
X58145226Y-66849898D01*
X58185000Y-66649939D01*
X58185000Y-66446061D01*
X58145226Y-66246102D01*
X58067205Y-66057744D01*
X58039000Y-66015532D01*
X58039000Y-62864661D01*
X69475400Y-62864661D01*
X69475400Y-63068539D01*
X69515174Y-63268498D01*
X69593195Y-63456856D01*
X69706463Y-63626374D01*
X69748400Y-63668311D01*
X69748401Y-69710967D01*
X69744714Y-69748400D01*
X69759427Y-69897778D01*
X69802999Y-70041415D01*
X69873755Y-70173792D01*
X69911656Y-70219974D01*
X69968979Y-70289822D01*
X69998049Y-70313679D01*
X70696500Y-71012131D01*
X70696500Y-71071439D01*
X70736274Y-71271398D01*
X70814295Y-71459756D01*
X70927563Y-71629274D01*
X71071726Y-71773437D01*
X71241244Y-71886705D01*
X71429602Y-71964726D01*
X71629561Y-72004500D01*
X71833439Y-72004500D01*
X72033398Y-71964726D01*
X72221756Y-71886705D01*
X72391274Y-71773437D01*
X72535437Y-71629274D01*
X72648705Y-71459756D01*
X72726726Y-71271398D01*
X72766500Y-71071439D01*
X72766500Y-70867561D01*
X72726726Y-70667602D01*
X72648705Y-70479244D01*
X72535437Y-70309726D01*
X72391274Y-70165563D01*
X72221756Y-70052295D01*
X72033398Y-69974274D01*
X71833439Y-69934500D01*
X71774131Y-69934500D01*
X71272400Y-69432770D01*
X71272400Y-63668311D01*
X71314337Y-63626374D01*
X71427605Y-63456856D01*
X71505626Y-63268498D01*
X71545400Y-63068539D01*
X71545400Y-62864661D01*
X71505626Y-62664702D01*
X71427605Y-62476344D01*
X71314337Y-62306826D01*
X71170174Y-62162663D01*
X71000656Y-62049395D01*
X70812298Y-61971374D01*
X70612339Y-61931600D01*
X70408461Y-61931600D01*
X70208502Y-61971374D01*
X70020144Y-62049395D01*
X69850626Y-62162663D01*
X69706463Y-62306826D01*
X69593195Y-62476344D01*
X69515174Y-62664702D01*
X69475400Y-62864661D01*
X58039000Y-62864661D01*
X58039000Y-58536408D01*
X59563000Y-58536408D01*
X59563000Y-58811592D01*
X59616686Y-59081490D01*
X59721995Y-59335727D01*
X59874880Y-59564535D01*
X60069465Y-59759120D01*
X60298273Y-59912005D01*
X60552510Y-60017314D01*
X60822408Y-60071000D01*
X61097592Y-60071000D01*
X61367490Y-60017314D01*
X61621727Y-59912005D01*
X61850535Y-59759120D01*
X61970090Y-59639565D01*
X62714040Y-59639565D01*
X62781020Y-59879656D01*
X63030048Y-59996756D01*
X63297135Y-60063023D01*
X63572017Y-60075910D01*
X63844133Y-60034922D01*
X64103023Y-59941636D01*
X64218980Y-59879656D01*
X64285960Y-59639565D01*
X63500000Y-58853605D01*
X62714040Y-59639565D01*
X61970090Y-59639565D01*
X62045120Y-59564535D01*
X62198005Y-59335727D01*
X62227692Y-59264057D01*
X62232364Y-59277023D01*
X62294344Y-59392980D01*
X62534435Y-59459960D01*
X63320395Y-58674000D01*
X62534435Y-57888040D01*
X62294344Y-57955020D01*
X62230515Y-58090760D01*
X62198005Y-58012273D01*
X62045120Y-57783465D01*
X61970090Y-57708435D01*
X62714040Y-57708435D01*
X63500000Y-58494395D01*
X64285960Y-57708435D01*
X64218980Y-57468344D01*
X63969952Y-57351244D01*
X63702865Y-57284977D01*
X63427983Y-57272090D01*
X63155867Y-57313078D01*
X62896977Y-57406364D01*
X62781020Y-57468344D01*
X62714040Y-57708435D01*
X61970090Y-57708435D01*
X61850535Y-57588880D01*
X61621727Y-57435995D01*
X61367490Y-57330686D01*
X61097592Y-57277000D01*
X60822408Y-57277000D01*
X60552510Y-57330686D01*
X60298273Y-57435995D01*
X60069465Y-57588880D01*
X59874880Y-57783465D01*
X59721995Y-58012273D01*
X59616686Y-58266510D01*
X59563000Y-58536408D01*
X58039000Y-58536408D01*
X58039000Y-56920468D01*
X58067205Y-56878256D01*
X58145226Y-56689898D01*
X58185000Y-56489939D01*
X58185000Y-56286061D01*
X58145226Y-56086102D01*
X58067205Y-55897744D01*
X57953937Y-55728226D01*
X57809774Y-55584063D01*
X57640256Y-55470795D01*
X57451898Y-55392774D01*
X57251939Y-55353000D01*
X57048061Y-55353000D01*
X56848102Y-55392774D01*
X56659744Y-55470795D01*
X56642000Y-55482651D01*
X56642000Y-52566753D01*
X56689898Y-52557226D01*
X56878256Y-52479205D01*
X57047774Y-52365937D01*
X57191937Y-52221774D01*
X57305205Y-52052256D01*
X57383226Y-51863898D01*
X57423000Y-51663939D01*
X57423000Y-51460061D01*
X57383226Y-51260102D01*
X57305205Y-51071744D01*
X57191937Y-50902226D01*
X57047774Y-50758063D01*
X56878256Y-50644795D01*
X56689898Y-50566774D01*
X56489939Y-50527000D01*
X56286061Y-50527000D01*
X56086102Y-50566774D01*
X55897744Y-50644795D01*
X55728226Y-50758063D01*
X55584063Y-50902226D01*
X55470795Y-51071744D01*
X55392774Y-51260102D01*
X55353000Y-51460061D01*
X55353000Y-51516743D01*
X55338579Y-51528578D01*
X55314722Y-51557648D01*
X55314721Y-51557649D01*
X55243355Y-51644608D01*
X55172599Y-51776985D01*
X55129027Y-51920622D01*
X55114314Y-52070000D01*
X55118001Y-52107433D01*
X55118000Y-67624289D01*
X55076063Y-67666226D01*
X54962795Y-67835744D01*
X54884774Y-68024102D01*
X54845000Y-68224061D01*
X39633030Y-68224061D01*
X39643000Y-68173939D01*
X39643000Y-67970061D01*
X39603226Y-67770102D01*
X39525205Y-67581744D01*
X39411937Y-67412226D01*
X39370000Y-67370289D01*
X39370000Y-63108408D01*
X41783000Y-63108408D01*
X41783000Y-63383592D01*
X41836686Y-63653490D01*
X41941995Y-63907727D01*
X42094880Y-64136535D01*
X42289465Y-64331120D01*
X42518273Y-64484005D01*
X42772510Y-64589314D01*
X43042408Y-64643000D01*
X43317592Y-64643000D01*
X43587490Y-64589314D01*
X43841727Y-64484005D01*
X44070535Y-64331120D01*
X44190090Y-64211565D01*
X44934040Y-64211565D01*
X45001020Y-64451656D01*
X45250048Y-64568756D01*
X45517135Y-64635023D01*
X45792017Y-64647910D01*
X46064133Y-64606922D01*
X46323023Y-64513636D01*
X46438980Y-64451656D01*
X46505960Y-64211565D01*
X45720000Y-63425605D01*
X44934040Y-64211565D01*
X44190090Y-64211565D01*
X44265120Y-64136535D01*
X44418005Y-63907727D01*
X44447692Y-63836057D01*
X44452364Y-63849023D01*
X44514344Y-63964980D01*
X44754435Y-64031960D01*
X45540395Y-63246000D01*
X45899605Y-63246000D01*
X46685565Y-64031960D01*
X46925656Y-63964980D01*
X46989485Y-63829240D01*
X47021995Y-63907727D01*
X47174880Y-64136535D01*
X47369465Y-64331120D01*
X47598273Y-64484005D01*
X47852510Y-64589314D01*
X48122408Y-64643000D01*
X48397592Y-64643000D01*
X48667490Y-64589314D01*
X48921727Y-64484005D01*
X49150535Y-64331120D01*
X49345120Y-64136535D01*
X49498005Y-63907727D01*
X49603314Y-63653490D01*
X49657000Y-63383592D01*
X49657000Y-63108408D01*
X49603314Y-62838510D01*
X49498005Y-62584273D01*
X49345120Y-62355465D01*
X49150535Y-62160880D01*
X48921727Y-62007995D01*
X48667490Y-61902686D01*
X48397592Y-61849000D01*
X48122408Y-61849000D01*
X47852510Y-61902686D01*
X47598273Y-62007995D01*
X47369465Y-62160880D01*
X47174880Y-62355465D01*
X47021995Y-62584273D01*
X46992308Y-62655943D01*
X46987636Y-62642977D01*
X46925656Y-62527020D01*
X46685565Y-62460040D01*
X45899605Y-63246000D01*
X45540395Y-63246000D01*
X44754435Y-62460040D01*
X44514344Y-62527020D01*
X44450515Y-62662760D01*
X44418005Y-62584273D01*
X44265120Y-62355465D01*
X44190090Y-62280435D01*
X44934040Y-62280435D01*
X45720000Y-63066395D01*
X46505960Y-62280435D01*
X46438980Y-62040344D01*
X46189952Y-61923244D01*
X45922865Y-61856977D01*
X45647983Y-61844090D01*
X45375867Y-61885078D01*
X45116977Y-61978364D01*
X45001020Y-62040344D01*
X44934040Y-62280435D01*
X44190090Y-62280435D01*
X44070535Y-62160880D01*
X43841727Y-62007995D01*
X43587490Y-61902686D01*
X43317592Y-61849000D01*
X43042408Y-61849000D01*
X42772510Y-61902686D01*
X42518273Y-62007995D01*
X42289465Y-62160880D01*
X42094880Y-62355465D01*
X41941995Y-62584273D01*
X41836686Y-62838510D01*
X41783000Y-63108408D01*
X39370000Y-63108408D01*
X39370000Y-57874000D01*
X41741928Y-57874000D01*
X41741928Y-59474000D01*
X41754188Y-59598482D01*
X41790498Y-59718180D01*
X41849463Y-59828494D01*
X41928815Y-59925185D01*
X42025506Y-60004537D01*
X42135820Y-60063502D01*
X42255518Y-60099812D01*
X42380000Y-60112072D01*
X43980000Y-60112072D01*
X44104482Y-60099812D01*
X44224180Y-60063502D01*
X44334494Y-60004537D01*
X44431185Y-59925185D01*
X44510537Y-59828494D01*
X44569502Y-59718180D01*
X44605812Y-59598482D01*
X44618072Y-59474000D01*
X44618072Y-57874000D01*
X50631928Y-57874000D01*
X50631928Y-59474000D01*
X50644188Y-59598482D01*
X50680498Y-59718180D01*
X50739463Y-59828494D01*
X50818815Y-59925185D01*
X50915506Y-60004537D01*
X51025820Y-60063502D01*
X51145518Y-60099812D01*
X51270000Y-60112072D01*
X52870000Y-60112072D01*
X52994482Y-60099812D01*
X53114180Y-60063502D01*
X53224494Y-60004537D01*
X53321185Y-59925185D01*
X53400537Y-59828494D01*
X53459502Y-59718180D01*
X53495812Y-59598482D01*
X53508072Y-59474000D01*
X53508072Y-57874000D01*
X53495812Y-57749518D01*
X53459502Y-57629820D01*
X53400537Y-57519506D01*
X53321185Y-57422815D01*
X53224494Y-57343463D01*
X53114180Y-57284498D01*
X52994482Y-57248188D01*
X52870000Y-57235928D01*
X52862785Y-57235928D01*
X52883097Y-57166702D01*
X52070000Y-56353605D01*
X51256903Y-57166702D01*
X51277215Y-57235928D01*
X51270000Y-57235928D01*
X51145518Y-57248188D01*
X51025820Y-57284498D01*
X50915506Y-57343463D01*
X50818815Y-57422815D01*
X50739463Y-57519506D01*
X50680498Y-57629820D01*
X50644188Y-57749518D01*
X50631928Y-57874000D01*
X44618072Y-57874000D01*
X44605812Y-57749518D01*
X44569502Y-57629820D01*
X44510537Y-57519506D01*
X44431185Y-57422815D01*
X44334494Y-57343463D01*
X44224180Y-57284498D01*
X44104482Y-57248188D01*
X43980000Y-57235928D01*
X43972785Y-57235928D01*
X43993097Y-57166702D01*
X43180000Y-56353605D01*
X42366903Y-57166702D01*
X42387215Y-57235928D01*
X42380000Y-57235928D01*
X42255518Y-57248188D01*
X42135820Y-57284498D01*
X42025506Y-57343463D01*
X41928815Y-57422815D01*
X41849463Y-57519506D01*
X41790498Y-57629820D01*
X41754188Y-57749518D01*
X41741928Y-57874000D01*
X39370000Y-57874000D01*
X39370000Y-56244512D01*
X41739783Y-56244512D01*
X41781213Y-56524130D01*
X41876397Y-56790292D01*
X41943329Y-56915514D01*
X42187298Y-56987097D01*
X43000395Y-56174000D01*
X43359605Y-56174000D01*
X44172702Y-56987097D01*
X44416671Y-56915514D01*
X44537571Y-56660004D01*
X44606300Y-56385816D01*
X44613265Y-56244512D01*
X50629783Y-56244512D01*
X50671213Y-56524130D01*
X50766397Y-56790292D01*
X50833329Y-56915514D01*
X51077298Y-56987097D01*
X51890395Y-56174000D01*
X52249605Y-56174000D01*
X53062702Y-56987097D01*
X53306671Y-56915514D01*
X53427571Y-56660004D01*
X53496300Y-56385816D01*
X53510217Y-56103488D01*
X53468787Y-55823870D01*
X53373603Y-55557708D01*
X53306671Y-55432486D01*
X53062702Y-55360903D01*
X52249605Y-56174000D01*
X51890395Y-56174000D01*
X51077298Y-55360903D01*
X50833329Y-55432486D01*
X50712429Y-55687996D01*
X50643700Y-55962184D01*
X50629783Y-56244512D01*
X44613265Y-56244512D01*
X44620217Y-56103488D01*
X44578787Y-55823870D01*
X44483603Y-55557708D01*
X44416671Y-55432486D01*
X44172702Y-55360903D01*
X43359605Y-56174000D01*
X43000395Y-56174000D01*
X42187298Y-55360903D01*
X41943329Y-55432486D01*
X41822429Y-55687996D01*
X41753700Y-55962184D01*
X41739783Y-56244512D01*
X39370000Y-56244512D01*
X39370000Y-55181298D01*
X42366903Y-55181298D01*
X43180000Y-55994395D01*
X43993097Y-55181298D01*
X51256903Y-55181298D01*
X52070000Y-55994395D01*
X52883097Y-55181298D01*
X52811514Y-54937329D01*
X52556004Y-54816429D01*
X52281816Y-54747700D01*
X51999488Y-54733783D01*
X51719870Y-54775213D01*
X51453708Y-54870397D01*
X51328486Y-54937329D01*
X51256903Y-55181298D01*
X43993097Y-55181298D01*
X43921514Y-54937329D01*
X43666004Y-54816429D01*
X43391816Y-54747700D01*
X43109488Y-54733783D01*
X42829870Y-54775213D01*
X42563708Y-54870397D01*
X42438486Y-54937329D01*
X42366903Y-55181298D01*
X39370000Y-55181298D01*
X39370000Y-54090753D01*
X39417898Y-54081226D01*
X39606256Y-54003205D01*
X39775774Y-53889937D01*
X39919937Y-53745774D01*
X40033205Y-53576256D01*
X40111226Y-53387898D01*
X40151000Y-53187939D01*
X40151000Y-52984061D01*
X40111226Y-52784102D01*
X40033205Y-52595744D01*
X39919937Y-52426226D01*
X39775774Y-52282063D01*
X39606256Y-52168795D01*
X39417898Y-52090774D01*
X39217939Y-52051000D01*
X39100974Y-52051000D01*
X39095226Y-52022102D01*
X39017205Y-51833744D01*
X38903937Y-51664226D01*
X38759774Y-51520063D01*
X38590256Y-51406795D01*
X38401898Y-51328774D01*
X38201939Y-51289000D01*
X37998061Y-51289000D01*
X37798102Y-51328774D01*
X37609744Y-51406795D01*
X37440226Y-51520063D01*
X37403640Y-51556649D01*
X37444800Y-51420694D01*
X37505761Y-50798252D01*
X37444118Y-50175877D01*
X37262240Y-49577487D01*
X36969059Y-49028984D01*
X36546994Y-48748011D01*
X34495005Y-50800000D01*
X36546994Y-52851989D01*
X36871341Y-52636068D01*
X36864269Y-52659380D01*
X36849556Y-52808758D01*
X36853243Y-52846191D01*
X36853243Y-56757302D01*
X36781583Y-56650056D01*
X36339344Y-56207817D01*
X35819326Y-55860352D01*
X35241513Y-55621014D01*
X34628110Y-55499000D01*
X34002690Y-55499000D01*
X33389287Y-55621014D01*
X32811474Y-55860352D01*
X32291456Y-56207817D01*
X31849217Y-56650056D01*
X31501752Y-57170074D01*
X31262414Y-57747887D01*
X31140400Y-58361290D01*
X26289000Y-58361290D01*
X26289000Y-53031594D01*
X32263411Y-53031594D01*
X32544384Y-53453659D01*
X33096117Y-53748178D01*
X33694706Y-53929400D01*
X34317148Y-53990361D01*
X34939523Y-53928718D01*
X35537913Y-53746840D01*
X36086416Y-53453659D01*
X36367389Y-53031594D01*
X34315400Y-50979605D01*
X32263411Y-53031594D01*
X26289000Y-53031594D01*
X26289000Y-50801748D01*
X31125039Y-50801748D01*
X31186682Y-51424123D01*
X31368560Y-52022513D01*
X31661741Y-52571016D01*
X32083806Y-52851989D01*
X34135795Y-50800000D01*
X32083806Y-48748011D01*
X31661741Y-49028984D01*
X31367222Y-49580717D01*
X31186000Y-50179306D01*
X31125039Y-50801748D01*
X26289000Y-50801748D01*
X26289000Y-48568406D01*
X32263411Y-48568406D01*
X34315400Y-50620395D01*
X36367389Y-48568406D01*
X36086416Y-48146341D01*
X35534683Y-47851822D01*
X34936094Y-47670600D01*
X34313652Y-47609639D01*
X33691277Y-47671282D01*
X33092887Y-47853160D01*
X32544384Y-48146341D01*
X32263411Y-48568406D01*
X26289000Y-48568406D01*
X26289000Y-26171892D01*
X26291869Y-26166496D01*
X26460716Y-25959470D01*
X26666554Y-25789187D01*
X26684032Y-25779737D01*
X65767663Y-25685103D01*
X65442260Y-26010505D01*
X65408342Y-26038341D01*
X65380507Y-26072258D01*
X65380505Y-26072260D01*
X65297248Y-26173709D01*
X65214698Y-26328148D01*
X65163864Y-26495726D01*
X65146700Y-26670000D01*
X65151001Y-26713670D01*
X65151000Y-56109532D01*
X65122795Y-56151744D01*
X65044774Y-56340102D01*
X65005000Y-56540061D01*
X65005000Y-56743939D01*
X65044774Y-56943898D01*
X65122795Y-57132256D01*
X65236063Y-57301774D01*
X65373484Y-57439195D01*
X65149465Y-57588880D01*
X64954880Y-57783465D01*
X64801995Y-58012273D01*
X64772308Y-58083943D01*
X64767636Y-58070977D01*
X64705656Y-57955020D01*
X64465565Y-57888040D01*
X63679605Y-58674000D01*
X64465565Y-59459960D01*
X64705656Y-59392980D01*
X64769485Y-59257240D01*
X64801995Y-59335727D01*
X64954880Y-59564535D01*
X65149465Y-59759120D01*
X65378273Y-59912005D01*
X65632510Y-60017314D01*
X65902408Y-60071000D01*
X66177592Y-60071000D01*
X66447490Y-60017314D01*
X66701727Y-59912005D01*
X66930535Y-59759120D01*
X67125120Y-59564535D01*
X67278005Y-59335727D01*
X67383314Y-59081490D01*
X67437000Y-58811592D01*
X67437000Y-58536408D01*
X67383314Y-58266510D01*
X67278005Y-58012273D01*
X67125120Y-57783465D01*
X66930535Y-57588880D01*
X66706516Y-57439195D01*
X66843937Y-57301774D01*
X66957205Y-57132256D01*
X67035226Y-56943898D01*
X67075000Y-56743939D01*
X67075000Y-56661000D01*
X67157939Y-56661000D01*
X67357898Y-56621226D01*
X67546256Y-56543205D01*
X67715774Y-56429937D01*
X67859937Y-56285774D01*
X67973205Y-56116256D01*
X68051226Y-55927898D01*
X68091000Y-55727939D01*
X68091000Y-55524061D01*
X68051226Y-55324102D01*
X67973205Y-55135744D01*
X67859937Y-54966226D01*
X67818000Y-54924289D01*
X67818000Y-45405711D01*
X67859937Y-45363774D01*
X67973205Y-45194256D01*
X68051226Y-45005898D01*
X68091000Y-44805939D01*
X68091000Y-44602061D01*
X68051226Y-44402102D01*
X67973205Y-44213744D01*
X67859937Y-44044226D01*
X67715774Y-43900063D01*
X67546256Y-43786795D01*
X67357898Y-43708774D01*
X67157939Y-43669000D01*
X66954061Y-43669000D01*
X66929000Y-43673985D01*
X66929000Y-27128999D01*
X69473868Y-27128999D01*
X69437988Y-27182698D01*
X69277047Y-27571244D01*
X69195000Y-27983721D01*
X69195000Y-28404279D01*
X69277047Y-28816756D01*
X69437988Y-29205302D01*
X69671637Y-29554983D01*
X69969017Y-29852363D01*
X70318698Y-30086012D01*
X70707244Y-30246953D01*
X71119721Y-30329000D01*
X71540279Y-30329000D01*
X71952756Y-30246953D01*
X72341302Y-30086012D01*
X72690983Y-29852363D01*
X72988363Y-29554983D01*
X73222012Y-29205302D01*
X73382953Y-28816756D01*
X73465000Y-28404279D01*
X73465000Y-27983721D01*
X73382953Y-27571244D01*
X73222012Y-27182698D01*
X73186132Y-27128999D01*
X74726684Y-27128999D01*
X74772068Y-27357158D01*
X74884010Y-27627411D01*
X75046525Y-27870632D01*
X75253368Y-28077475D01*
X75427760Y-28194000D01*
X75253368Y-28310525D01*
X75046525Y-28517368D01*
X74884010Y-28760589D01*
X74772068Y-29030842D01*
X74715000Y-29317740D01*
X74715000Y-29610260D01*
X74772068Y-29897158D01*
X74884010Y-30167411D01*
X75046525Y-30410632D01*
X75253368Y-30617475D01*
X75496589Y-30779990D01*
X75766842Y-30891932D01*
X76053740Y-30949000D01*
X76082710Y-30949000D01*
X76044795Y-31005744D01*
X75966774Y-31194102D01*
X75927000Y-31394061D01*
X75927000Y-31415269D01*
X75408129Y-31934141D01*
X75339205Y-31767744D01*
X75225937Y-31598226D01*
X75081774Y-31454063D01*
X74912256Y-31340795D01*
X74723898Y-31262774D01*
X74523939Y-31223000D01*
X74320061Y-31223000D01*
X74120102Y-31262774D01*
X73931744Y-31340795D01*
X73762226Y-31454063D01*
X73618063Y-31598226D01*
X73504795Y-31767744D01*
X73426774Y-31956102D01*
X73387000Y-32156061D01*
X73387000Y-32215370D01*
X73087649Y-32514721D01*
X73058579Y-32538578D01*
X73034722Y-32567648D01*
X73034721Y-32567649D01*
X72963355Y-32654608D01*
X72892599Y-32786985D01*
X72849027Y-32930622D01*
X72834314Y-33080000D01*
X72838001Y-33117433D01*
X72838000Y-36687288D01*
X72796063Y-36729225D01*
X72682795Y-36898743D01*
X72606510Y-37082909D01*
X72601939Y-37082000D01*
X72398061Y-37082000D01*
X72198102Y-37121774D01*
X72009744Y-37199795D01*
X71840226Y-37313063D01*
X71696063Y-37457226D01*
X71582795Y-37626744D01*
X71504774Y-37815102D01*
X71465000Y-38015061D01*
X71465000Y-38218939D01*
X71504774Y-38418898D01*
X71582795Y-38607256D01*
X71696063Y-38776774D01*
X71840226Y-38920937D01*
X72009744Y-39034205D01*
X72198102Y-39112226D01*
X72398061Y-39152000D01*
X72601939Y-39152000D01*
X72801898Y-39112226D01*
X72990256Y-39034205D01*
X73159774Y-38920937D01*
X73202712Y-38877999D01*
X74765000Y-38877999D01*
X74765000Y-38944939D01*
X74804774Y-39144898D01*
X74882795Y-39333256D01*
X74996063Y-39502774D01*
X75140226Y-39646937D01*
X75309744Y-39760205D01*
X75498102Y-39838226D01*
X75698061Y-39878000D01*
X75901939Y-39878000D01*
X76101898Y-39838226D01*
X76290256Y-39760205D01*
X76459774Y-39646937D01*
X76482711Y-39624000D01*
X86806370Y-39624000D01*
X86868001Y-39685631D01*
X86868000Y-68767289D01*
X86826063Y-68809226D01*
X86712795Y-68978744D01*
X86634774Y-69167102D01*
X86595000Y-69367061D01*
X86595000Y-69570939D01*
X86634774Y-69770898D01*
X86712795Y-69959256D01*
X86826063Y-70128774D01*
X86970226Y-70272937D01*
X87139744Y-70386205D01*
X87328102Y-70464226D01*
X87528061Y-70504000D01*
X87731939Y-70504000D01*
X87931898Y-70464226D01*
X88036640Y-70420840D01*
X88096063Y-70509774D01*
X88240226Y-70653937D01*
X88409744Y-70767205D01*
X88598102Y-70845226D01*
X88798061Y-70885000D01*
X89001939Y-70885000D01*
X89201898Y-70845226D01*
X89390256Y-70767205D01*
X89559774Y-70653937D01*
X89703937Y-70509774D01*
X89817205Y-70340256D01*
X89895226Y-70151898D01*
X89904753Y-70104000D01*
X91705247Y-70104000D01*
X91714774Y-70151898D01*
X91792795Y-70340256D01*
X91906063Y-70509774D01*
X92050226Y-70653937D01*
X92219744Y-70767205D01*
X92408102Y-70845226D01*
X92608061Y-70885000D01*
X92811939Y-70885000D01*
X93011898Y-70845226D01*
X93200256Y-70767205D01*
X93369774Y-70653937D01*
X93513937Y-70509774D01*
X93627205Y-70340256D01*
X93705226Y-70151898D01*
X93714250Y-70106529D01*
X93726000Y-70107686D01*
X93763423Y-70104000D01*
X95515247Y-70104000D01*
X95524774Y-70151898D01*
X95602795Y-70340256D01*
X95716063Y-70509774D01*
X95860226Y-70653937D01*
X96029744Y-70767205D01*
X96218102Y-70845226D01*
X96418061Y-70885000D01*
X96621939Y-70885000D01*
X96821898Y-70845226D01*
X97010256Y-70767205D01*
X97179774Y-70653937D01*
X97323937Y-70509774D01*
X97437205Y-70340256D01*
X97515226Y-70151898D01*
X97524753Y-70104000D01*
X99325247Y-70104000D01*
X99334774Y-70151898D01*
X99412795Y-70340256D01*
X99526063Y-70509774D01*
X99670226Y-70653937D01*
X99839744Y-70767205D01*
X100028102Y-70845226D01*
X100228061Y-70885000D01*
X100431939Y-70885000D01*
X100631898Y-70845226D01*
X100820256Y-70767205D01*
X100989774Y-70653937D01*
X101133937Y-70509774D01*
X101247205Y-70340256D01*
X101325226Y-70151898D01*
X101334753Y-70104000D01*
X103135247Y-70104000D01*
X103144774Y-70151898D01*
X103222795Y-70340256D01*
X103336063Y-70509774D01*
X103480226Y-70653937D01*
X103649744Y-70767205D01*
X103838102Y-70845226D01*
X104038061Y-70885000D01*
X104241939Y-70885000D01*
X104441898Y-70845226D01*
X104630256Y-70767205D01*
X104799774Y-70653937D01*
X104943937Y-70509774D01*
X105057205Y-70340256D01*
X105135226Y-70151898D01*
X105175000Y-69951939D01*
X105175000Y-69748061D01*
X106915000Y-69748061D01*
X106915000Y-69951939D01*
X106954774Y-70151898D01*
X107032795Y-70340256D01*
X107146063Y-70509774D01*
X107290226Y-70653937D01*
X107459744Y-70767205D01*
X107648102Y-70845226D01*
X107848061Y-70885000D01*
X108051939Y-70885000D01*
X108251898Y-70845226D01*
X108440256Y-70767205D01*
X108609774Y-70653937D01*
X108753937Y-70509774D01*
X108867205Y-70340256D01*
X108945226Y-70151898D01*
X108985000Y-69951939D01*
X108985000Y-69748061D01*
X108945226Y-69548102D01*
X108867205Y-69359744D01*
X108797182Y-69254948D01*
X110998001Y-67054130D01*
X110998000Y-69148289D01*
X110956063Y-69190226D01*
X110842795Y-69359744D01*
X110764774Y-69548102D01*
X110725000Y-69748061D01*
X110725000Y-69951939D01*
X110764774Y-70151898D01*
X110842795Y-70340256D01*
X110956063Y-70509774D01*
X111100226Y-70653937D01*
X111269744Y-70767205D01*
X111458102Y-70845226D01*
X111658061Y-70885000D01*
X111861939Y-70885000D01*
X112061898Y-70845226D01*
X112250256Y-70767205D01*
X112419774Y-70653937D01*
X112563937Y-70509774D01*
X112677205Y-70340256D01*
X112755226Y-70151898D01*
X112795000Y-69951939D01*
X112795000Y-69748061D01*
X117075000Y-69748061D01*
X117075000Y-69951939D01*
X117114774Y-70151898D01*
X117192795Y-70340256D01*
X117306063Y-70509774D01*
X117450226Y-70653937D01*
X117619744Y-70767205D01*
X117808102Y-70845226D01*
X118008061Y-70885000D01*
X118211939Y-70885000D01*
X118411898Y-70845226D01*
X118600256Y-70767205D01*
X118769774Y-70653937D01*
X118913937Y-70509774D01*
X119027205Y-70340256D01*
X119105226Y-70151898D01*
X119145000Y-69951939D01*
X119145000Y-69892631D01*
X119187631Y-69850000D01*
X120885000Y-69850000D01*
X120885000Y-69951939D01*
X120924774Y-70151898D01*
X121002795Y-70340256D01*
X121116063Y-70509774D01*
X121260226Y-70653937D01*
X121429744Y-70767205D01*
X121618102Y-70845226D01*
X121818061Y-70885000D01*
X122021939Y-70885000D01*
X122221898Y-70845226D01*
X122410256Y-70767205D01*
X122579774Y-70653937D01*
X122723937Y-70509774D01*
X122837205Y-70340256D01*
X122915226Y-70151898D01*
X122955000Y-69951939D01*
X122955000Y-69892630D01*
X125480352Y-67367279D01*
X125509422Y-67343422D01*
X125539876Y-67306314D01*
X125604645Y-67227393D01*
X125673840Y-67097937D01*
X125675402Y-67095015D01*
X125718974Y-66951378D01*
X125730000Y-66839426D01*
X125730000Y-66839423D01*
X125733686Y-66802000D01*
X125730000Y-66764577D01*
X125730000Y-65979711D01*
X125771937Y-65937774D01*
X125885205Y-65768256D01*
X125963226Y-65579898D01*
X126003000Y-65379939D01*
X126003000Y-65262974D01*
X126031898Y-65257226D01*
X126220256Y-65179205D01*
X126389774Y-65065937D01*
X126533937Y-64921774D01*
X126647205Y-64752256D01*
X126725226Y-64563898D01*
X126765000Y-64363939D01*
X126765000Y-64160061D01*
X126725226Y-63960102D01*
X126647205Y-63771744D01*
X126533937Y-63602226D01*
X126389774Y-63458063D01*
X126220256Y-63344795D01*
X126031898Y-63266774D01*
X125831939Y-63227000D01*
X125628061Y-63227000D01*
X125428102Y-63266774D01*
X125239744Y-63344795D01*
X125070226Y-63458063D01*
X125028289Y-63500000D01*
X124948421Y-63500000D01*
X124910998Y-63496314D01*
X124873575Y-63500000D01*
X124873572Y-63500000D01*
X124761620Y-63511026D01*
X124617983Y-63554598D01*
X124556362Y-63587535D01*
X124485605Y-63625355D01*
X124451323Y-63653490D01*
X124369576Y-63720578D01*
X124345718Y-63749649D01*
X123693653Y-64401715D01*
X123664578Y-64425576D01*
X123616627Y-64484005D01*
X123569355Y-64541606D01*
X123553859Y-64570598D01*
X123498598Y-64673984D01*
X123455026Y-64817621D01*
X123449090Y-64877893D01*
X123440314Y-64966998D01*
X123444000Y-65004422D01*
X123444001Y-66486368D01*
X121604370Y-68326000D01*
X118909423Y-68326000D01*
X118872000Y-68322314D01*
X118834577Y-68326000D01*
X118834574Y-68326000D01*
X118722622Y-68337026D01*
X118578985Y-68380598D01*
X118547927Y-68397199D01*
X118446607Y-68451355D01*
X118372530Y-68512149D01*
X118330578Y-68546578D01*
X118306720Y-68575649D01*
X118067369Y-68815000D01*
X118008061Y-68815000D01*
X117808102Y-68854774D01*
X117619744Y-68932795D01*
X117450226Y-69046063D01*
X117306063Y-69190226D01*
X117192795Y-69359744D01*
X117114774Y-69548102D01*
X117075000Y-69748061D01*
X112795000Y-69748061D01*
X112755226Y-69548102D01*
X112677205Y-69359744D01*
X112563937Y-69190226D01*
X112522000Y-69148289D01*
X112522000Y-66995711D01*
X112563937Y-66953774D01*
X112677205Y-66784256D01*
X112755226Y-66595898D01*
X112795000Y-66395939D01*
X112795000Y-66192061D01*
X112755226Y-65992102D01*
X112677205Y-65803744D01*
X112563937Y-65634226D01*
X112490921Y-65561210D01*
X112564631Y-65487500D01*
X112623939Y-65487500D01*
X112823898Y-65447726D01*
X113012256Y-65369705D01*
X113181774Y-65256437D01*
X113325937Y-65112274D01*
X113439205Y-64942756D01*
X113517226Y-64754398D01*
X113557000Y-64554439D01*
X113557000Y-64350561D01*
X113517226Y-64150602D01*
X113439205Y-63962244D01*
X113325937Y-63792726D01*
X113181774Y-63648563D01*
X113012256Y-63535295D01*
X112823898Y-63457274D01*
X112623939Y-63417500D01*
X112420061Y-63417500D01*
X112220102Y-63457274D01*
X112031744Y-63535295D01*
X111862226Y-63648563D01*
X111718063Y-63792726D01*
X111604795Y-63962244D01*
X111526774Y-64150602D01*
X111487000Y-64350561D01*
X111487000Y-64409869D01*
X107437649Y-68459221D01*
X107408579Y-68483078D01*
X107384722Y-68512148D01*
X107384721Y-68512149D01*
X107313355Y-68599108D01*
X107261580Y-68695974D01*
X107242599Y-68731485D01*
X107199027Y-68875122D01*
X107188430Y-68982714D01*
X107184314Y-69024500D01*
X107188000Y-69061923D01*
X107188000Y-69148289D01*
X107146063Y-69190226D01*
X107032795Y-69359744D01*
X106954774Y-69548102D01*
X106915000Y-69748061D01*
X105175000Y-69748061D01*
X105135226Y-69548102D01*
X105057205Y-69359744D01*
X104943937Y-69190226D01*
X104799774Y-69046063D01*
X104630256Y-68932795D01*
X104441898Y-68854774D01*
X104241939Y-68815000D01*
X104185258Y-68815000D01*
X104173422Y-68800578D01*
X104057392Y-68705355D01*
X103925015Y-68634598D01*
X103781378Y-68591026D01*
X103669426Y-68580000D01*
X103669423Y-68580000D01*
X103632000Y-68576314D01*
X103594577Y-68580000D01*
X101407630Y-68580000D01*
X101149284Y-68321654D01*
X101125422Y-68292578D01*
X101009392Y-68197355D01*
X100877015Y-68126598D01*
X100733378Y-68083026D01*
X100621426Y-68072000D01*
X100621423Y-68072000D01*
X100584000Y-68068314D01*
X100546577Y-68072000D01*
X97851630Y-68072000D01*
X97647274Y-67867644D01*
X97623412Y-67838568D01*
X97507382Y-67743345D01*
X97375005Y-67672588D01*
X97231368Y-67629016D01*
X97119416Y-67617990D01*
X97119413Y-67617990D01*
X97081990Y-67614304D01*
X97044567Y-67617990D01*
X95250000Y-67617990D01*
X95250000Y-62001061D01*
X106915000Y-62001061D01*
X106915000Y-62204939D01*
X106954774Y-62404898D01*
X107032795Y-62593256D01*
X107146063Y-62762774D01*
X107290226Y-62906937D01*
X107459744Y-63020205D01*
X107648102Y-63098226D01*
X107848061Y-63138000D01*
X108051939Y-63138000D01*
X108251898Y-63098226D01*
X108440256Y-63020205D01*
X108609774Y-62906937D01*
X108753937Y-62762774D01*
X108867205Y-62593256D01*
X108945226Y-62404898D01*
X108985000Y-62204939D01*
X108985000Y-62001061D01*
X108945226Y-61801102D01*
X108867205Y-61612744D01*
X108753937Y-61443226D01*
X108712000Y-61401289D01*
X108712000Y-61230349D01*
X108863774Y-61128937D01*
X109007937Y-60984774D01*
X109121205Y-60815256D01*
X109199226Y-60626898D01*
X109239000Y-60426939D01*
X109239000Y-60223061D01*
X109199226Y-60023102D01*
X109121205Y-59834744D01*
X109007937Y-59665226D01*
X108863774Y-59521063D01*
X108694256Y-59407795D01*
X108505898Y-59329774D01*
X108305939Y-59290000D01*
X108102061Y-59290000D01*
X107902102Y-59329774D01*
X107713744Y-59407795D01*
X107544226Y-59521063D01*
X107400063Y-59665226D01*
X107286795Y-59834744D01*
X107208774Y-60023102D01*
X107169000Y-60223061D01*
X107169000Y-60426939D01*
X107189259Y-60528791D01*
X107184314Y-60579000D01*
X107188001Y-60616433D01*
X107188000Y-61401289D01*
X107146063Y-61443226D01*
X107032795Y-61612744D01*
X106954774Y-61801102D01*
X106915000Y-62001061D01*
X95250000Y-62001061D01*
X95250000Y-51501711D01*
X95291937Y-51459774D01*
X95405205Y-51290256D01*
X95483226Y-51101898D01*
X95523000Y-50901939D01*
X95523000Y-50698061D01*
X95483226Y-50498102D01*
X95405205Y-50309744D01*
X95291937Y-50140226D01*
X95250000Y-50098289D01*
X95250000Y-50044061D01*
X95485000Y-50044061D01*
X95485000Y-50247939D01*
X95524774Y-50447898D01*
X95602795Y-50636256D01*
X95716063Y-50805774D01*
X95860226Y-50949937D01*
X96029744Y-51063205D01*
X96218102Y-51141226D01*
X96418061Y-51181000D01*
X96621939Y-51181000D01*
X96821898Y-51141226D01*
X97010256Y-51063205D01*
X97179774Y-50949937D01*
X97221711Y-50908000D01*
X101821289Y-50908000D01*
X101855726Y-50942437D01*
X102025244Y-51055705D01*
X102213602Y-51133726D01*
X102413561Y-51173500D01*
X102617439Y-51173500D01*
X102817398Y-51133726D01*
X103005756Y-51055705D01*
X103175274Y-50942437D01*
X103319437Y-50798274D01*
X103432705Y-50628756D01*
X103510726Y-50440398D01*
X103550500Y-50240439D01*
X103550500Y-50036561D01*
X103510726Y-49836602D01*
X103432705Y-49648244D01*
X103319437Y-49478726D01*
X103175274Y-49334563D01*
X103005756Y-49221295D01*
X102817398Y-49143274D01*
X102617439Y-49103500D01*
X102413561Y-49103500D01*
X102213602Y-49143274D01*
X102025244Y-49221295D01*
X101855726Y-49334563D01*
X101806289Y-49384000D01*
X97221711Y-49384000D01*
X97179774Y-49342063D01*
X97010256Y-49228795D01*
X96821898Y-49150774D01*
X96621939Y-49111000D01*
X96418061Y-49111000D01*
X96218102Y-49150774D01*
X96029744Y-49228795D01*
X95860226Y-49342063D01*
X95716063Y-49486226D01*
X95602795Y-49655744D01*
X95524774Y-49844102D01*
X95485000Y-50044061D01*
X95250000Y-50044061D01*
X95250000Y-45012000D01*
X95351939Y-45012000D01*
X95551898Y-44972226D01*
X95740256Y-44894205D01*
X95909774Y-44780937D01*
X96053937Y-44636774D01*
X96167205Y-44467256D01*
X96245226Y-44278898D01*
X96285000Y-44078939D01*
X96285000Y-43875061D01*
X96245226Y-43675102D01*
X96167205Y-43486744D01*
X96053937Y-43317226D01*
X96012000Y-43275289D01*
X96012000Y-38669630D01*
X103775951Y-30905679D01*
X103993740Y-30949000D01*
X104286260Y-30949000D01*
X104573158Y-30891932D01*
X104843411Y-30779990D01*
X105086632Y-30617475D01*
X105211710Y-30492397D01*
X105831208Y-30492397D01*
X105908843Y-30741472D01*
X106172883Y-30867371D01*
X106456411Y-30939339D01*
X106748531Y-30954611D01*
X107038019Y-30912599D01*
X107313747Y-30814919D01*
X107451157Y-30741472D01*
X107528792Y-30492397D01*
X106680000Y-29643605D01*
X105831208Y-30492397D01*
X105211710Y-30492397D01*
X105293475Y-30410632D01*
X105409311Y-30237271D01*
X105651603Y-30312792D01*
X106500395Y-29464000D01*
X105651603Y-28615208D01*
X105409311Y-28690729D01*
X105293475Y-28517368D01*
X105086632Y-28310525D01*
X104912240Y-28194000D01*
X105086632Y-28077475D01*
X105293475Y-27870632D01*
X105410000Y-27696240D01*
X105526525Y-27870632D01*
X105733368Y-28077475D01*
X105906729Y-28193311D01*
X105831208Y-28435603D01*
X106680000Y-29284395D01*
X107528792Y-28435603D01*
X107453271Y-28193311D01*
X107626632Y-28077475D01*
X107833475Y-27870632D01*
X107950000Y-27696240D01*
X108066525Y-27870632D01*
X108273368Y-28077475D01*
X108447760Y-28194000D01*
X108273368Y-28310525D01*
X108066525Y-28517368D01*
X107950689Y-28690729D01*
X107708397Y-28615208D01*
X106859605Y-29464000D01*
X107708397Y-30312792D01*
X107950689Y-30237271D01*
X108066525Y-30410632D01*
X108273368Y-30617475D01*
X108516589Y-30779990D01*
X108786842Y-30891932D01*
X109073740Y-30949000D01*
X109366260Y-30949000D01*
X109653158Y-30891932D01*
X109923411Y-30779990D01*
X110166632Y-30617475D01*
X110373475Y-30410632D01*
X110490000Y-30236240D01*
X110606525Y-30410632D01*
X110813368Y-30617475D01*
X111056589Y-30779990D01*
X111326842Y-30891932D01*
X111613740Y-30949000D01*
X111906260Y-30949000D01*
X112193158Y-30891932D01*
X112463411Y-30779990D01*
X112706632Y-30617475D01*
X112913475Y-30410632D01*
X113030000Y-30236240D01*
X113146525Y-30410632D01*
X113353368Y-30617475D01*
X113596589Y-30779990D01*
X113866842Y-30891932D01*
X114153740Y-30949000D01*
X114446260Y-30949000D01*
X114733158Y-30891932D01*
X115003411Y-30779990D01*
X115246632Y-30617475D01*
X115453475Y-30410632D01*
X115570000Y-30236240D01*
X115686525Y-30410632D01*
X115893368Y-30617475D01*
X116136589Y-30779990D01*
X116406842Y-30891932D01*
X116693740Y-30949000D01*
X116986260Y-30949000D01*
X117273158Y-30891932D01*
X117543411Y-30779990D01*
X117786632Y-30617475D01*
X117993475Y-30410632D01*
X118110000Y-30236240D01*
X118226525Y-30410632D01*
X118433368Y-30617475D01*
X118676589Y-30779990D01*
X118946842Y-30891932D01*
X119233740Y-30949000D01*
X119526260Y-30949000D01*
X119813158Y-30891932D01*
X120083411Y-30779990D01*
X120326632Y-30617475D01*
X120533475Y-30410632D01*
X120650000Y-30236240D01*
X120766525Y-30410632D01*
X120973368Y-30617475D01*
X121216589Y-30779990D01*
X121486842Y-30891932D01*
X121773740Y-30949000D01*
X122066260Y-30949000D01*
X122353158Y-30891932D01*
X122623411Y-30779990D01*
X122866632Y-30617475D01*
X122991710Y-30492397D01*
X123611208Y-30492397D01*
X123688843Y-30741472D01*
X123952883Y-30867371D01*
X124236411Y-30939339D01*
X124528531Y-30954611D01*
X124818019Y-30912599D01*
X125093747Y-30814919D01*
X125231157Y-30741472D01*
X125308792Y-30492397D01*
X124460000Y-29643605D01*
X123611208Y-30492397D01*
X122991710Y-30492397D01*
X123073475Y-30410632D01*
X123189311Y-30237271D01*
X123431603Y-30312792D01*
X124280395Y-29464000D01*
X124639605Y-29464000D01*
X125488397Y-30312792D01*
X125737472Y-30235157D01*
X125863371Y-29971117D01*
X125935339Y-29687589D01*
X125950611Y-29395469D01*
X125908599Y-29105981D01*
X125810919Y-28830253D01*
X125737472Y-28692843D01*
X125488397Y-28615208D01*
X124639605Y-29464000D01*
X124280395Y-29464000D01*
X123431603Y-28615208D01*
X123189311Y-28690729D01*
X123073475Y-28517368D01*
X122866632Y-28310525D01*
X122692240Y-28194000D01*
X122866632Y-28077475D01*
X123073475Y-27870632D01*
X123190000Y-27696240D01*
X123306525Y-27870632D01*
X123513368Y-28077475D01*
X123686729Y-28193311D01*
X123611208Y-28435603D01*
X124460000Y-29284395D01*
X125308792Y-28435603D01*
X125233271Y-28193311D01*
X125406632Y-28077475D01*
X125613475Y-27870632D01*
X125775990Y-27627411D01*
X125887932Y-27357158D01*
X125945000Y-27070260D01*
X125945000Y-26777740D01*
X125887932Y-26490842D01*
X125775990Y-26220589D01*
X125613475Y-25977368D01*
X125406632Y-25770525D01*
X125163411Y-25608010D01*
X125028190Y-25552000D01*
X130015721Y-25552000D01*
X130313875Y-25581234D01*
G37*
%TD.AperFunction*%
D18*
X95366525Y-30410632D02*
X95573368Y-30617475D01*
X95816589Y-30779990D01*
X96086842Y-30891932D01*
X96373740Y-30949000D01*
X96497369Y-30949000D01*
X93213654Y-34232716D01*
X93184578Y-34256578D01*
X93160175Y-34286314D01*
X93089355Y-34372608D01*
X93066507Y-34415355D01*
X93018598Y-34504986D01*
X92975026Y-34648623D01*
X92968450Y-34715392D01*
X92960314Y-34798000D01*
X92964000Y-34835423D01*
X92964000Y-36006370D01*
X90932000Y-33974370D01*
X90932000Y-30860932D01*
X91006842Y-30891932D01*
X91293740Y-30949000D01*
X91586260Y-30949000D01*
X91873158Y-30891932D01*
X92143411Y-30779990D01*
X92386632Y-30617475D01*
X92593475Y-30410632D01*
X92710000Y-30236240D01*
X92826525Y-30410632D01*
X93033368Y-30617475D01*
X93276589Y-30779990D01*
X93546842Y-30891932D01*
X93833740Y-30949000D01*
X94126260Y-30949000D01*
X94413158Y-30891932D01*
X94683411Y-30779990D01*
X94926632Y-30617475D01*
X95133475Y-30410632D01*
X95250000Y-30236240D01*
X95366525Y-30410632D01*
%TA.AperFunction,Conductor*%
D21*
G36*
X95366525Y-30410632D02*
G01*
X95573368Y-30617475D01*
X95816589Y-30779990D01*
X96086842Y-30891932D01*
X96373740Y-30949000D01*
X96497369Y-30949000D01*
X93213654Y-34232716D01*
X93184578Y-34256578D01*
X93160175Y-34286314D01*
X93089355Y-34372608D01*
X93066507Y-34415355D01*
X93018598Y-34504986D01*
X92975026Y-34648623D01*
X92968450Y-34715392D01*
X92960314Y-34798000D01*
X92964000Y-34835423D01*
X92964000Y-36006370D01*
X90932000Y-33974370D01*
X90932000Y-30860932D01*
X91006842Y-30891932D01*
X91293740Y-30949000D01*
X91586260Y-30949000D01*
X91873158Y-30891932D01*
X92143411Y-30779990D01*
X92386632Y-30617475D01*
X92593475Y-30410632D01*
X92710000Y-30236240D01*
X92826525Y-30410632D01*
X93033368Y-30617475D01*
X93276589Y-30779990D01*
X93546842Y-30891932D01*
X93833740Y-30949000D01*
X94126260Y-30949000D01*
X94413158Y-30891932D01*
X94683411Y-30779990D01*
X94926632Y-30617475D01*
X95133475Y-30410632D01*
X95250000Y-30236240D01*
X95366525Y-30410632D01*
G37*
%TD.AperFunction*%
D18*
X80126525Y-30410632D02*
X80333368Y-30617475D01*
X80518000Y-30740842D01*
X80518000Y-31279425D01*
X80518001Y-31279435D01*
X80518000Y-35522577D01*
X80514314Y-35560000D01*
X80518000Y-35597423D01*
X80518000Y-35597425D01*
X80529026Y-35709377D01*
X80560763Y-35814000D01*
X79502000Y-35814000D01*
X79502000Y-30740842D01*
X79686632Y-30617475D01*
X79893475Y-30410632D01*
X80010000Y-30236240D01*
X80126525Y-30410632D01*
%TA.AperFunction,Conductor*%
D21*
G36*
X80126525Y-30410632D02*
G01*
X80333368Y-30617475D01*
X80518000Y-30740842D01*
X80518000Y-31279425D01*
X80518001Y-31279435D01*
X80518000Y-35522577D01*
X80514314Y-35560000D01*
X80518000Y-35597423D01*
X80518000Y-35597425D01*
X80529026Y-35709377D01*
X80560763Y-35814000D01*
X79502000Y-35814000D01*
X79502000Y-30740842D01*
X79686632Y-30617475D01*
X79893475Y-30410632D01*
X80010000Y-30236240D01*
X80126525Y-30410632D01*
G37*
%TD.AperFunction*%
D18*
X86553748Y-29449858D02*
X86539605Y-29464000D01*
X86553748Y-29478143D01*
X86374143Y-29657748D01*
X86360000Y-29643605D01*
X86345858Y-29657748D01*
X86166253Y-29478143D01*
X86180395Y-29464000D01*
X86166253Y-29449858D01*
X86345858Y-29270253D01*
X86360000Y-29284395D01*
X86374143Y-29270253D01*
X86553748Y-29449858D01*
%TA.AperFunction,Conductor*%
D21*
G36*
X86553748Y-29449858D02*
G01*
X86539605Y-29464000D01*
X86553748Y-29478143D01*
X86374143Y-29657748D01*
X86360000Y-29643605D01*
X86345858Y-29657748D01*
X86166253Y-29478143D01*
X86180395Y-29464000D01*
X86166253Y-29449858D01*
X86345858Y-29270253D01*
X86360000Y-29284395D01*
X86374143Y-29270253D01*
X86553748Y-29449858D01*
G37*
%TD.AperFunction*%
D18*
X113596589Y-25608010D02*
X113353368Y-25770525D01*
X113146525Y-25977368D01*
X113030689Y-26150729D01*
X112788397Y-26075208D01*
X111939605Y-26924000D01*
X112788397Y-27772792D01*
X113030689Y-27697271D01*
X113146525Y-27870632D01*
X113353368Y-28077475D01*
X113527760Y-28194000D01*
X113353368Y-28310525D01*
X113146525Y-28517368D01*
X113030000Y-28691760D01*
X112913475Y-28517368D01*
X112706632Y-28310525D01*
X112533271Y-28194689D01*
X112608792Y-27952397D01*
X111760000Y-27103605D01*
X110911208Y-27952397D01*
X110986729Y-28194689D01*
X110813368Y-28310525D01*
X110606525Y-28517368D01*
X110490000Y-28691760D01*
X110373475Y-28517368D01*
X110166632Y-28310525D01*
X109992240Y-28194000D01*
X110166632Y-28077475D01*
X110373475Y-27870632D01*
X110489311Y-27697271D01*
X110731603Y-27772792D01*
X111580395Y-26924000D01*
X110731603Y-26075208D01*
X110489311Y-26150729D01*
X110373475Y-25977368D01*
X110166632Y-25770525D01*
X109923411Y-25608010D01*
X109851833Y-25578362D01*
X111122128Y-25575286D01*
X110988843Y-25646528D01*
X110911208Y-25895603D01*
X111760000Y-26744395D01*
X112608792Y-25895603D01*
X112531157Y-25646528D01*
X112375381Y-25572251D01*
X113690607Y-25569067D01*
X113596589Y-25608010D01*
%TA.AperFunction,Conductor*%
D21*
G36*
X113596589Y-25608010D02*
G01*
X113353368Y-25770525D01*
X113146525Y-25977368D01*
X113030689Y-26150729D01*
X112788397Y-26075208D01*
X111939605Y-26924000D01*
X112788397Y-27772792D01*
X113030689Y-27697271D01*
X113146525Y-27870632D01*
X113353368Y-28077475D01*
X113527760Y-28194000D01*
X113353368Y-28310525D01*
X113146525Y-28517368D01*
X113030000Y-28691760D01*
X112913475Y-28517368D01*
X112706632Y-28310525D01*
X112533271Y-28194689D01*
X112608792Y-27952397D01*
X111760000Y-27103605D01*
X110911208Y-27952397D01*
X110986729Y-28194689D01*
X110813368Y-28310525D01*
X110606525Y-28517368D01*
X110490000Y-28691760D01*
X110373475Y-28517368D01*
X110166632Y-28310525D01*
X109992240Y-28194000D01*
X110166632Y-28077475D01*
X110373475Y-27870632D01*
X110489311Y-27697271D01*
X110731603Y-27772792D01*
X111580395Y-26924000D01*
X110731603Y-26075208D01*
X110489311Y-26150729D01*
X110373475Y-25977368D01*
X110166632Y-25770525D01*
X109923411Y-25608010D01*
X109851833Y-25578362D01*
X111122128Y-25575286D01*
X110988843Y-25646528D01*
X110911208Y-25895603D01*
X111760000Y-26744395D01*
X112608792Y-25895603D01*
X112531157Y-25646528D01*
X112375381Y-25572251D01*
X113690607Y-25569067D01*
X113596589Y-25608010D01*
G37*
%TD.AperFunction*%
D18*
X93033368Y-25770525D02*
X92826525Y-25977368D01*
X92710689Y-26150729D01*
X92468397Y-26075208D01*
X91619605Y-26924000D01*
X92468397Y-27772792D01*
X92710689Y-27697271D01*
X92826525Y-27870632D01*
X93033368Y-28077475D01*
X93207760Y-28194000D01*
X93033368Y-28310525D01*
X92826525Y-28517368D01*
X92710000Y-28691760D01*
X92593475Y-28517368D01*
X92386632Y-28310525D01*
X92213271Y-28194689D01*
X92288792Y-27952397D01*
X91440000Y-27103605D01*
X91425858Y-27117748D01*
X91246253Y-26938143D01*
X91260395Y-26924000D01*
X90411603Y-26075208D01*
X90169311Y-26150729D01*
X90053475Y-25977368D01*
X89846632Y-25770525D01*
X89632310Y-25627319D01*
X90709660Y-25624711D01*
X90668843Y-25646528D01*
X90591208Y-25895603D01*
X91440000Y-26744395D01*
X92288792Y-25895603D01*
X92211157Y-25646528D01*
X92158046Y-25621204D01*
X93260839Y-25618534D01*
X93033368Y-25770525D01*
%TA.AperFunction,Conductor*%
D21*
G36*
X93033368Y-25770525D02*
G01*
X92826525Y-25977368D01*
X92710689Y-26150729D01*
X92468397Y-26075208D01*
X91619605Y-26924000D01*
X92468397Y-27772792D01*
X92710689Y-27697271D01*
X92826525Y-27870632D01*
X93033368Y-28077475D01*
X93207760Y-28194000D01*
X93033368Y-28310525D01*
X92826525Y-28517368D01*
X92710000Y-28691760D01*
X92593475Y-28517368D01*
X92386632Y-28310525D01*
X92213271Y-28194689D01*
X92288792Y-27952397D01*
X91440000Y-27103605D01*
X91425858Y-27117748D01*
X91246253Y-26938143D01*
X91260395Y-26924000D01*
X90411603Y-26075208D01*
X90169311Y-26150729D01*
X90053475Y-25977368D01*
X89846632Y-25770525D01*
X89632310Y-25627319D01*
X90709660Y-25624711D01*
X90668843Y-25646528D01*
X90591208Y-25895603D01*
X91440000Y-26744395D01*
X92288792Y-25895603D01*
X92211157Y-25646528D01*
X92158046Y-25621204D01*
X93260839Y-25618534D01*
X93033368Y-25770525D01*
G37*
%TD.AperFunction*%
D18*
X100896589Y-25608010D02*
X100653368Y-25770525D01*
X100446525Y-25977368D01*
X100330689Y-26150729D01*
X100088397Y-26075208D01*
X99239605Y-26924000D01*
X100088397Y-27772792D01*
X100330689Y-27697271D01*
X100446525Y-27870632D01*
X100653368Y-28077475D01*
X100827760Y-28194000D01*
X100653368Y-28310525D01*
X100446525Y-28517368D01*
X100330000Y-28691760D01*
X100213475Y-28517368D01*
X100006632Y-28310525D01*
X99833271Y-28194689D01*
X99908792Y-27952397D01*
X99060000Y-27103605D01*
X98211208Y-27952397D01*
X98286729Y-28194689D01*
X98113368Y-28310525D01*
X97906525Y-28517368D01*
X97790000Y-28691760D01*
X97673475Y-28517368D01*
X97466632Y-28310525D01*
X97292240Y-28194000D01*
X97466632Y-28077475D01*
X97673475Y-27870632D01*
X97789311Y-27697271D01*
X98031603Y-27772792D01*
X98880395Y-26924000D01*
X98031603Y-26075208D01*
X97789311Y-26150729D01*
X97673475Y-25977368D01*
X97466632Y-25770525D01*
X97224796Y-25608936D01*
X98364336Y-25606176D01*
X98288843Y-25646528D01*
X98211208Y-25895603D01*
X99060000Y-26744395D01*
X99908792Y-25895603D01*
X99831157Y-25646528D01*
X99739547Y-25602847D01*
X100915931Y-25599998D01*
X100896589Y-25608010D01*
%TA.AperFunction,Conductor*%
D21*
G36*
X100896589Y-25608010D02*
G01*
X100653368Y-25770525D01*
X100446525Y-25977368D01*
X100330689Y-26150729D01*
X100088397Y-26075208D01*
X99239605Y-26924000D01*
X100088397Y-27772792D01*
X100330689Y-27697271D01*
X100446525Y-27870632D01*
X100653368Y-28077475D01*
X100827760Y-28194000D01*
X100653368Y-28310525D01*
X100446525Y-28517368D01*
X100330000Y-28691760D01*
X100213475Y-28517368D01*
X100006632Y-28310525D01*
X99833271Y-28194689D01*
X99908792Y-27952397D01*
X99060000Y-27103605D01*
X98211208Y-27952397D01*
X98286729Y-28194689D01*
X98113368Y-28310525D01*
X97906525Y-28517368D01*
X97790000Y-28691760D01*
X97673475Y-28517368D01*
X97466632Y-28310525D01*
X97292240Y-28194000D01*
X97466632Y-28077475D01*
X97673475Y-27870632D01*
X97789311Y-27697271D01*
X98031603Y-27772792D01*
X98880395Y-26924000D01*
X98031603Y-26075208D01*
X97789311Y-26150729D01*
X97673475Y-25977368D01*
X97466632Y-25770525D01*
X97224796Y-25608936D01*
X98364336Y-25606176D01*
X98288843Y-25646528D01*
X98211208Y-25895603D01*
X99060000Y-26744395D01*
X99908792Y-25895603D01*
X99831157Y-25646528D01*
X99739547Y-25602847D01*
X100915931Y-25599998D01*
X100896589Y-25608010D01*
G37*
%TD.AperFunction*%
D18*
X118676589Y-25608010D02*
X118433368Y-25770525D01*
X118226525Y-25977368D01*
X118110689Y-26150729D01*
X117868397Y-26075208D01*
X117019605Y-26924000D01*
X117868397Y-27772792D01*
X118110689Y-27697271D01*
X118226525Y-27870632D01*
X118433368Y-28077475D01*
X118607760Y-28194000D01*
X118433368Y-28310525D01*
X118226525Y-28517368D01*
X118110000Y-28691760D01*
X117993475Y-28517368D01*
X117786632Y-28310525D01*
X117613271Y-28194689D01*
X117688792Y-27952397D01*
X116840000Y-27103605D01*
X115991208Y-27952397D01*
X116066729Y-28194689D01*
X115893368Y-28310525D01*
X115686525Y-28517368D01*
X115570000Y-28691760D01*
X115453475Y-28517368D01*
X115246632Y-28310525D01*
X115072240Y-28194000D01*
X115246632Y-28077475D01*
X115453475Y-27870632D01*
X115569311Y-27697271D01*
X115811603Y-27772792D01*
X116660395Y-26924000D01*
X115811603Y-26075208D01*
X115569311Y-26150729D01*
X115453475Y-25977368D01*
X115246632Y-25770525D01*
X115003411Y-25608010D01*
X114902310Y-25566133D01*
X116234974Y-25562906D01*
X116206253Y-25573081D01*
X116068843Y-25646528D01*
X115991208Y-25895603D01*
X116840000Y-26744395D01*
X117688792Y-25895603D01*
X117611157Y-25646528D01*
X117429715Y-25560013D01*
X118800477Y-25556694D01*
X118676589Y-25608010D01*
%TA.AperFunction,Conductor*%
D21*
G36*
X118676589Y-25608010D02*
G01*
X118433368Y-25770525D01*
X118226525Y-25977368D01*
X118110689Y-26150729D01*
X117868397Y-26075208D01*
X117019605Y-26924000D01*
X117868397Y-27772792D01*
X118110689Y-27697271D01*
X118226525Y-27870632D01*
X118433368Y-28077475D01*
X118607760Y-28194000D01*
X118433368Y-28310525D01*
X118226525Y-28517368D01*
X118110000Y-28691760D01*
X117993475Y-28517368D01*
X117786632Y-28310525D01*
X117613271Y-28194689D01*
X117688792Y-27952397D01*
X116840000Y-27103605D01*
X115991208Y-27952397D01*
X116066729Y-28194689D01*
X115893368Y-28310525D01*
X115686525Y-28517368D01*
X115570000Y-28691760D01*
X115453475Y-28517368D01*
X115246632Y-28310525D01*
X115072240Y-28194000D01*
X115246632Y-28077475D01*
X115453475Y-27870632D01*
X115569311Y-27697271D01*
X115811603Y-27772792D01*
X116660395Y-26924000D01*
X115811603Y-26075208D01*
X115569311Y-26150729D01*
X115453475Y-25977368D01*
X115246632Y-25770525D01*
X115003411Y-25608010D01*
X114902310Y-25566133D01*
X116234974Y-25562906D01*
X116206253Y-25573081D01*
X116068843Y-25646528D01*
X115991208Y-25895603D01*
X116840000Y-26744395D01*
X117688792Y-25895603D01*
X117611157Y-25646528D01*
X117429715Y-25560013D01*
X118800477Y-25556694D01*
X118676589Y-25608010D01*
G37*
%TD.AperFunction*%
D18*
X82873368Y-25770525D02*
X82666525Y-25977368D01*
X82550689Y-26150729D01*
X82308397Y-26075208D01*
X81459605Y-26924000D01*
X82308397Y-27772792D01*
X82550689Y-27697271D01*
X82666525Y-27870632D01*
X82873368Y-28077475D01*
X83047760Y-28194000D01*
X82873368Y-28310525D01*
X82666525Y-28517368D01*
X82550000Y-28691760D01*
X82433475Y-28517368D01*
X82226632Y-28310525D01*
X82053271Y-28194689D01*
X82128792Y-27952397D01*
X81280000Y-27103605D01*
X80431208Y-27952397D01*
X80506729Y-28194689D01*
X80333368Y-28310525D01*
X80126525Y-28517368D01*
X80010000Y-28691760D01*
X79893475Y-28517368D01*
X79686632Y-28310525D01*
X79512240Y-28194000D01*
X79686632Y-28077475D01*
X79893475Y-27870632D01*
X80009311Y-27697271D01*
X80251603Y-27772792D01*
X81100395Y-26924000D01*
X80251603Y-26075208D01*
X80009311Y-26150729D01*
X79893475Y-25977368D01*
X79686632Y-25770525D01*
X79508994Y-25651831D01*
X80507944Y-25649412D01*
X80431208Y-25895603D01*
X81280000Y-26744395D01*
X82128792Y-25895603D01*
X82051157Y-25646528D01*
X82049378Y-25645680D01*
X83063888Y-25643224D01*
X82873368Y-25770525D01*
%TA.AperFunction,Conductor*%
D21*
G36*
X82873368Y-25770525D02*
G01*
X82666525Y-25977368D01*
X82550689Y-26150729D01*
X82308397Y-26075208D01*
X81459605Y-26924000D01*
X82308397Y-27772792D01*
X82550689Y-27697271D01*
X82666525Y-27870632D01*
X82873368Y-28077475D01*
X83047760Y-28194000D01*
X82873368Y-28310525D01*
X82666525Y-28517368D01*
X82550000Y-28691760D01*
X82433475Y-28517368D01*
X82226632Y-28310525D01*
X82053271Y-28194689D01*
X82128792Y-27952397D01*
X81280000Y-27103605D01*
X80431208Y-27952397D01*
X80506729Y-28194689D01*
X80333368Y-28310525D01*
X80126525Y-28517368D01*
X80010000Y-28691760D01*
X79893475Y-28517368D01*
X79686632Y-28310525D01*
X79512240Y-28194000D01*
X79686632Y-28077475D01*
X79893475Y-27870632D01*
X80009311Y-27697271D01*
X80251603Y-27772792D01*
X81100395Y-26924000D01*
X80251603Y-26075208D01*
X80009311Y-26150729D01*
X79893475Y-25977368D01*
X79686632Y-25770525D01*
X79508994Y-25651831D01*
X80507944Y-25649412D01*
X80431208Y-25895603D01*
X81280000Y-26744395D01*
X82128792Y-25895603D01*
X82051157Y-25646528D01*
X82049378Y-25645680D01*
X83063888Y-25643224D01*
X82873368Y-25770525D01*
G37*
%TD.AperFunction*%
D18*
X85413368Y-25770525D02*
X85206525Y-25977368D01*
X85090000Y-26151760D01*
X84973475Y-25977368D01*
X84766632Y-25770525D01*
X84570652Y-25639575D01*
X85613126Y-25637051D01*
X85413368Y-25770525D01*
%TA.AperFunction,Conductor*%
D21*
G36*
X85413368Y-25770525D02*
G01*
X85206525Y-25977368D01*
X85090000Y-26151760D01*
X84973475Y-25977368D01*
X84766632Y-25770525D01*
X84570652Y-25639575D01*
X85613126Y-25637051D01*
X85413368Y-25770525D01*
G37*
%TD.AperFunction*%
%TD*%
M02*
