%TF.GenerationSoftware,KiCad,Pcbnew,(5.1.10)-1*%
%TF.CreationDate,2021-11-18T18:33:26-06:00*%
%TF.ProjectId,NavBoard_Hardware,4e617642-6f61-4726-945f-486172647761,rev?*%
%TF.SameCoordinates,Original*%
%TF.FileFunction,Copper,L2,Bot*%
%TF.FilePolarity,Positive*%
%FSLAX46Y46*%
G04 Gerber Fmt 4.6, Leading zero omitted, Abs format (unit mm)*
G04 Created by KiCad (PCBNEW (5.1.10)-1) date 2021-11-18 18:33:26*
%MOMM*%
%LPD*%
G01*
G04 APERTURE LIST*
%TA.AperFunction,ComponentPad*%
%ADD10C,1.700000*%
%TD*%
%TA.AperFunction,ComponentPad*%
%ADD11C,1.600000*%
%TD*%
%TA.AperFunction,ComponentPad*%
%ADD12R,1.600000X1.600000*%
%TD*%
%TA.AperFunction,ComponentPad*%
%ADD13C,5.080000*%
%TD*%
%TA.AperFunction,ComponentPad*%
%ADD14O,2.020000X1.500000*%
%TD*%
%TA.AperFunction,ComponentPad*%
%ADD15C,1.524000*%
%TD*%
%TA.AperFunction,ViaPad*%
%ADD16C,1.016000*%
%TD*%
%TA.AperFunction,ViaPad*%
%ADD17C,0.800000*%
%TD*%
%TA.AperFunction,Conductor*%
%ADD18C,0.508000*%
%TD*%
%TA.AperFunction,Conductor*%
%ADD19C,0.254000*%
%TD*%
%TA.AperFunction,Conductor*%
%ADD20C,0.100000*%
%TD*%
G04 APERTURE END LIST*
D10*
%TO.P,U6,1*%
%TO.N,Net-(U6-Pad1)*%
X90449001Y-42443001D03*
%TO.P,U6,2*%
%TO.N,+5V*%
X90449001Y-39903001D03*
%TO.P,U6,3*%
%TO.N,I2C-SDA*%
X92989001Y-42443001D03*
%TO.P,U6,4*%
%TO.N,+5V*%
X92989001Y-39903001D03*
%TO.P,U6,5*%
%TO.N,I2C-SCL*%
X95529001Y-42443001D03*
%TO.P,U6,6*%
%TO.N,GND*%
X95529001Y-39903001D03*
%TO.P,U6,7*%
%TO.N,Net-(U6-Pad7)*%
X98069001Y-42443001D03*
%TO.P,U6,8*%
%TO.N,M8Q-RX*%
X98069001Y-39903001D03*
%TO.P,U6,9*%
%TO.N,GND*%
X100609001Y-42443001D03*
%TO.P,U6,10*%
%TO.N,M8Q-TX*%
X100609001Y-39903001D03*
%TO.P,U6,11*%
%TO.N,Net-(U6-Pad11)*%
X103149001Y-42443001D03*
%TO.P,U6,12*%
%TO.N,Net-(U6-Pad12)*%
X103149001Y-39903001D03*
%TO.P,U6,13*%
%TO.N,Net-(U6-Pad13)*%
X105689001Y-42443001D03*
%TO.P,U6,14*%
%TO.N,GND*%
X105689001Y-39903001D03*
%TO.P,U6,15*%
%TO.N,Net-(U6-Pad15)*%
X108229001Y-42443001D03*
%TO.P,U6,16*%
%TO.N,Net-(U6-Pad16)*%
X108229001Y-39903001D03*
%TO.P,U6,17*%
%TO.N,Net-(U6-Pad17)*%
X110769001Y-42443001D03*
%TO.P,U6,18*%
%TO.N,N/C*%
X110769001Y-39903001D03*
%TO.P,U6,19*%
%TO.N,ICM-SDI*%
X113309001Y-42443001D03*
%TO.P,U6,20*%
%TO.N,GND*%
X113309001Y-39903001D03*
%TO.P,U6,21*%
%TO.N,ICM-SDO*%
X115849001Y-42443001D03*
%TO.P,U6,22*%
%TO.N,Net-(U6-Pad22)*%
X115849001Y-39903001D03*
%TO.P,U6,23*%
%TO.N,ICM-SCLK*%
X118389001Y-42443001D03*
%TO.P,U6,24*%
%TO.N,ICM-CS*%
X118389001Y-39903001D03*
%TO.P,U6,25*%
%TO.N,GND*%
X120929001Y-42443001D03*
%TO.P,U6,26*%
%TO.N,Net-(U6-Pad26)*%
X120929001Y-39903001D03*
%TO.P,U6,27*%
%TO.N,Net-(U6-Pad27)*%
X123469001Y-42443001D03*
%TO.P,U6,28*%
%TO.N,Net-(U6-Pad28)*%
X123469001Y-39903001D03*
%TO.P,U6,29*%
%TO.N,Net-(U6-Pad29)*%
X126009001Y-42443001D03*
%TO.P,U6,30*%
%TO.N,GND*%
X126009001Y-39903001D03*
%TO.P,U6,31*%
%TO.N,Net-(U6-Pad31)*%
X128549001Y-42443001D03*
%TO.P,U6,32*%
%TO.N,Net-(U6-Pad32)*%
X128549001Y-39903001D03*
%TO.P,U6,33*%
%TO.N,Net-(U6-Pad33)*%
X131089001Y-42443001D03*
%TO.P,U6,34*%
%TO.N,GND*%
X131089001Y-39903001D03*
%TO.P,U6,35*%
%TO.N,Net-(U6-Pad35)*%
X133629001Y-42443001D03*
%TO.P,U6,36*%
%TO.N,Net-(U6-Pad36)*%
X133629001Y-39903001D03*
%TO.P,U6,37*%
%TO.N,Net-(U6-Pad37)*%
X136169001Y-42443001D03*
%TO.P,U6,38*%
%TO.N,Net-(U6-Pad38)*%
X136169001Y-39903001D03*
%TO.P,U6,39*%
%TO.N,GND*%
X138709001Y-42443001D03*
%TO.P,U6,40*%
%TO.N,Net-(U6-Pad40)*%
X138709001Y-39903001D03*
%TD*%
D11*
%TO.P,C1,2*%
%TO.N,GND*%
X66040000Y-48300000D03*
D12*
%TO.P,C1,1*%
%TO.N,+12V*%
X66040000Y-50800000D03*
%TD*%
%TO.P,C4,1*%
%TO.N,+12V*%
X82550000Y-50800000D03*
D11*
%TO.P,C4,2*%
%TO.N,GND*%
X82550000Y-48300000D03*
%TD*%
D13*
%TO.P,Conn1,2*%
%TO.N,+12V*%
X50825400Y-56134000D03*
%TO.P,Conn1,1*%
%TO.N,GND*%
X50825400Y-48260000D03*
%TD*%
%TO.P,J1,1*%
%TO.N,+5V*%
%TA.AperFunction,ComponentPad*%
G36*
G01*
X48766000Y-88126000D02*
X47246000Y-88126000D01*
G75*
G02*
X46996000Y-87876000I0J250000D01*
G01*
X46996000Y-86876000D01*
G75*
G02*
X47246000Y-86626000I250000J0D01*
G01*
X48766000Y-86626000D01*
G75*
G02*
X49016000Y-86876000I0J-250000D01*
G01*
X49016000Y-87876000D01*
G75*
G02*
X48766000Y-88126000I-250000J0D01*
G01*
G37*
%TD.AperFunction*%
D14*
%TO.P,J1,2*%
%TO.N,GND*%
X48006000Y-84376000D03*
%TO.P,J1,3*%
%TO.N,M8Q-TX*%
X48006000Y-81376000D03*
%TO.P,J1,4*%
%TO.N,M8Q-RX*%
X48006000Y-78376000D03*
%TO.P,J1,5*%
%TO.N,I2C-SDA*%
X48006000Y-75376000D03*
%TO.P,J1,6*%
%TO.N,I2C-SCL*%
X48006000Y-72376000D03*
%TD*%
D15*
%TO.P,U1,3*%
%TO.N,+5V*%
X71120000Y-63500000D03*
%TO.P,U1,2*%
%TO.N,GND*%
X71120000Y-60960000D03*
%TO.P,U1,1*%
%TO.N,+12V*%
X71120000Y-58420000D03*
%TD*%
%TO.P,U4,1*%
%TO.N,+12V*%
X92710000Y-58420000D03*
%TO.P,U4,2*%
%TO.N,GND*%
X92710000Y-60960000D03*
%TO.P,U4,3*%
%TO.N,+3V3*%
X92710000Y-63500000D03*
%TD*%
D16*
%TO.N,GND*%
X138684000Y-45720000D03*
D17*
X119481600Y-57962800D03*
X117551200Y-62026800D03*
X113284000Y-53644800D03*
X111252000Y-57200800D03*
X107746800Y-55168800D03*
D16*
X120904000Y-45720000D03*
D17*
X129794000Y-44958000D03*
X94234000Y-45720000D03*
X101854000Y-45212000D03*
%TO.N,+5V*%
X93980000Y-79502000D03*
X74930000Y-45720000D03*
X74930000Y-62230000D03*
X68807500Y-68098500D03*
%TO.N,+3V3*%
X97790000Y-79502000D03*
X111226600Y-50647600D03*
X90397500Y-68098500D03*
X106680000Y-50647600D03*
%TO.N,M8Q-TX*%
X113030000Y-79502000D03*
X109220000Y-75692000D03*
%TO.N,M8Q-RX*%
X109220000Y-79502000D03*
X104267000Y-74549000D03*
%TO.N,I2C-SDA*%
X101600000Y-79502000D03*
X97790000Y-64262000D03*
X97790000Y-73406000D03*
%TO.N,I2C-SCL*%
X105410000Y-79502000D03*
X98806000Y-63500000D03*
X98806000Y-72390000D03*
%TO.N,ICM-SDI*%
X116840000Y-79502000D03*
X109728000Y-44450000D03*
%TO.N,ICM-SDO*%
X120650000Y-79502000D03*
X108966000Y-45212000D03*
%TO.N,ICM-SCLK*%
X124460000Y-79502000D03*
X110490000Y-46101000D03*
%TO.N,ICM-CS*%
X128270000Y-79502000D03*
X108204000Y-46863000D03*
%TD*%
D18*
%TO.N,+5V*%
X74930000Y-45720000D02*
X74930000Y-62230000D01*
X67056000Y-87376000D02*
X57912000Y-87376000D01*
X68807500Y-85624500D02*
X67056000Y-87376000D01*
D19*
X93980000Y-79502000D02*
X92710000Y-78232000D01*
X69035000Y-78232000D02*
X68807500Y-78004500D01*
X92710000Y-78232000D02*
X69035000Y-78232000D01*
D18*
X68807500Y-78004500D02*
X68807500Y-85624500D01*
X68807500Y-68098500D02*
X68807500Y-78004500D01*
X57912000Y-87376000D02*
X48006000Y-87376000D01*
D19*
%TO.N,+3V3*%
X90397500Y-72109500D02*
X97790000Y-79502000D01*
X90397500Y-68098500D02*
X90397500Y-72109500D01*
D18*
X111226600Y-50647600D02*
X106680000Y-50647600D01*
D19*
%TO.N,M8Q-TX*%
X100838000Y-44958000D02*
X100838000Y-67310000D01*
X100838000Y-67310000D02*
X113030000Y-79502000D01*
X100609001Y-39903001D02*
X101854000Y-41148000D01*
X101854000Y-43942000D02*
X100838000Y-44958000D01*
X101854000Y-41148000D02*
X101854000Y-43942000D01*
%TO.N,M8Q-RX*%
X98069001Y-39903001D02*
X99314000Y-41148000D01*
X99314000Y-41148000D02*
X99314000Y-44450000D01*
X99822000Y-44958000D02*
X99822000Y-70104000D01*
X99314000Y-44450000D02*
X99822000Y-44958000D01*
X104267000Y-74549000D02*
X109220000Y-79502000D01*
X99822000Y-70104000D02*
X104267000Y-74549000D01*
%TO.N,I2C-SDA*%
X97790000Y-75692000D02*
X101600000Y-79502000D01*
X92989001Y-42443001D02*
X97790000Y-47244000D01*
X97790000Y-47244000D02*
X97790000Y-64262000D01*
X97790000Y-74930000D02*
X97790000Y-75692000D01*
X97790000Y-73406000D02*
X97790000Y-74930000D01*
X97790000Y-64262000D02*
X97790000Y-73406000D01*
%TO.N,I2C-SCL*%
X95529001Y-42443001D02*
X98806000Y-45720000D01*
X100076000Y-74168000D02*
X105410000Y-79502000D01*
X98806000Y-72898000D02*
X100076000Y-74168000D01*
X98806000Y-45720000D02*
X98806000Y-63500000D01*
X98806000Y-72390000D02*
X98806000Y-72898000D01*
X98806000Y-63500000D02*
X98806000Y-72390000D01*
%TO.N,ICM-SDI*%
X101854000Y-64516000D02*
X116840000Y-79502000D01*
X101854000Y-57150000D02*
X101854000Y-64516000D01*
X101854000Y-46228000D02*
X101854000Y-57150000D01*
X113309001Y-42443001D02*
X113309001Y-43916999D01*
X113309001Y-43916999D02*
X112776000Y-44450000D01*
X103632000Y-44450000D02*
X101854000Y-46228000D01*
X109728000Y-44450000D02*
X103632000Y-44450000D01*
X112776000Y-44450000D02*
X109728000Y-44450000D01*
%TO.N,ICM-SDO*%
X102870000Y-61722000D02*
X120650000Y-79502000D01*
X104394000Y-45212000D02*
X102870000Y-46736000D01*
X115849001Y-44424999D02*
X115062000Y-45212000D01*
X102870000Y-46736000D02*
X102870000Y-61722000D01*
X115849001Y-42443001D02*
X115849001Y-44424999D01*
X108966000Y-45212000D02*
X104394000Y-45212000D01*
X115062000Y-45212000D02*
X108966000Y-45212000D01*
%TO.N,ICM-SCLK*%
X103886000Y-58928000D02*
X124460000Y-79502000D01*
X103886000Y-47244000D02*
X103886000Y-58928000D01*
X105029000Y-46101000D02*
X103886000Y-47244000D01*
X118389001Y-44170999D02*
X116459000Y-46101000D01*
X118389001Y-42443001D02*
X118389001Y-44170999D01*
X110490000Y-46101000D02*
X105029000Y-46101000D01*
X116459000Y-46101000D02*
X110490000Y-46101000D01*
%TO.N,ICM-CS*%
X104902000Y-56134000D02*
X107442000Y-58674000D01*
X119634000Y-44196000D02*
X116967000Y-46863000D01*
X119634000Y-41148000D02*
X119634000Y-44196000D01*
X107442000Y-58674000D02*
X128270000Y-79502000D01*
X104902000Y-47752000D02*
X104902000Y-56134000D01*
X105791000Y-46863000D02*
X104902000Y-47752000D01*
X118389001Y-39903001D02*
X119634000Y-41148000D01*
X108204000Y-46863000D02*
X105791000Y-46863000D01*
X116967000Y-46863000D02*
X108204000Y-46863000D01*
%TD*%
%TO.N,GND*%
X89502369Y-38749526D02*
X89295526Y-38956369D01*
X89133011Y-39199590D01*
X89021069Y-39469843D01*
X88964001Y-39756741D01*
X88964001Y-40049261D01*
X89021069Y-40336159D01*
X89133011Y-40606412D01*
X89295526Y-40849633D01*
X89502369Y-41056476D01*
X89676761Y-41173001D01*
X89502369Y-41289526D01*
X89295526Y-41496369D01*
X89133011Y-41739590D01*
X89021069Y-42009843D01*
X88964001Y-42296741D01*
X88964001Y-42589261D01*
X89021069Y-42876159D01*
X89133011Y-43146412D01*
X89295526Y-43389633D01*
X89502369Y-43596476D01*
X89745590Y-43758991D01*
X90015843Y-43870933D01*
X90302741Y-43928001D01*
X90595261Y-43928001D01*
X90882159Y-43870933D01*
X91152412Y-43758991D01*
X91395633Y-43596476D01*
X91602476Y-43389633D01*
X91719001Y-43215241D01*
X91835526Y-43389633D01*
X92042369Y-43596476D01*
X92285590Y-43758991D01*
X92555843Y-43870933D01*
X92842741Y-43928001D01*
X93135261Y-43928001D01*
X93353050Y-43884680D01*
X97028000Y-47559631D01*
X97028001Y-63560288D01*
X96986063Y-63602226D01*
X96872795Y-63771744D01*
X96794774Y-63960102D01*
X96755000Y-64160061D01*
X96755000Y-64363939D01*
X96794774Y-64563898D01*
X96872795Y-64752256D01*
X96986063Y-64921774D01*
X97028000Y-64963711D01*
X97028001Y-72704288D01*
X96986063Y-72746226D01*
X96872795Y-72915744D01*
X96794774Y-73104102D01*
X96755000Y-73304061D01*
X96755000Y-73507939D01*
X96794774Y-73707898D01*
X96872795Y-73896256D01*
X96986063Y-74065774D01*
X97028000Y-74107711D01*
X97028001Y-74892565D01*
X97028000Y-74892575D01*
X97028000Y-75654577D01*
X97024314Y-75692000D01*
X97028000Y-75729423D01*
X97028000Y-75729426D01*
X97039026Y-75841378D01*
X97082599Y-75985015D01*
X97153355Y-76117392D01*
X97179450Y-76149188D01*
X97248579Y-76233422D01*
X97277649Y-76257279D01*
X100565000Y-79544630D01*
X100565000Y-79603939D01*
X100604774Y-79803898D01*
X100682795Y-79992256D01*
X100796063Y-80161774D01*
X100940226Y-80305937D01*
X101109744Y-80419205D01*
X101298102Y-80497226D01*
X101498061Y-80537000D01*
X101701939Y-80537000D01*
X101901898Y-80497226D01*
X102090256Y-80419205D01*
X102259774Y-80305937D01*
X102403937Y-80161774D01*
X102517205Y-79992256D01*
X102595226Y-79803898D01*
X102635000Y-79603939D01*
X102635000Y-79400061D01*
X102595226Y-79200102D01*
X102517205Y-79011744D01*
X102403937Y-78842226D01*
X102259774Y-78698063D01*
X102090256Y-78584795D01*
X101901898Y-78506774D01*
X101701939Y-78467000D01*
X101642630Y-78467000D01*
X98552000Y-75376370D01*
X98552000Y-74107711D01*
X98593937Y-74065774D01*
X98707205Y-73896256D01*
X98712893Y-73882524D01*
X99563648Y-74733279D01*
X99563654Y-74733284D01*
X104375000Y-79544631D01*
X104375000Y-79603939D01*
X104414774Y-79803898D01*
X104492795Y-79992256D01*
X104606063Y-80161774D01*
X104750226Y-80305937D01*
X104919744Y-80419205D01*
X105108102Y-80497226D01*
X105308061Y-80537000D01*
X105511939Y-80537000D01*
X105711898Y-80497226D01*
X105900256Y-80419205D01*
X106069774Y-80305937D01*
X106213937Y-80161774D01*
X106327205Y-79992256D01*
X106405226Y-79803898D01*
X106445000Y-79603939D01*
X106445000Y-79400061D01*
X106405226Y-79200102D01*
X106327205Y-79011744D01*
X106213937Y-78842226D01*
X106069774Y-78698063D01*
X105900256Y-78584795D01*
X105711898Y-78506774D01*
X105511939Y-78467000D01*
X105452631Y-78467000D01*
X100641284Y-73655654D01*
X100641279Y-73655648D01*
X99764996Y-72779365D01*
X99801226Y-72691898D01*
X99841000Y-72491939D01*
X99841000Y-72288061D01*
X99801226Y-72088102D01*
X99723205Y-71899744D01*
X99609937Y-71730226D01*
X99568000Y-71688289D01*
X99568000Y-70927630D01*
X103232000Y-74591631D01*
X103232000Y-74650939D01*
X103271774Y-74850898D01*
X103349795Y-75039256D01*
X103463063Y-75208774D01*
X103607226Y-75352937D01*
X103776744Y-75466205D01*
X103965102Y-75544226D01*
X104165061Y-75584000D01*
X104224370Y-75584000D01*
X108185000Y-79544631D01*
X108185000Y-79603939D01*
X108224774Y-79803898D01*
X108302795Y-79992256D01*
X108416063Y-80161774D01*
X108560226Y-80305937D01*
X108729744Y-80419205D01*
X108918102Y-80497226D01*
X109118061Y-80537000D01*
X109321939Y-80537000D01*
X109521898Y-80497226D01*
X109710256Y-80419205D01*
X109879774Y-80305937D01*
X110023937Y-80161774D01*
X110137205Y-79992256D01*
X110215226Y-79803898D01*
X110255000Y-79603939D01*
X110255000Y-79400061D01*
X110215226Y-79200102D01*
X110137205Y-79011744D01*
X110023937Y-78842226D01*
X109879774Y-78698063D01*
X109710256Y-78584795D01*
X109521898Y-78506774D01*
X109321939Y-78467000D01*
X109262631Y-78467000D01*
X105302000Y-74506370D01*
X105302000Y-74447061D01*
X105262226Y-74247102D01*
X105184205Y-74058744D01*
X105070937Y-73889226D01*
X104926774Y-73745063D01*
X104757256Y-73631795D01*
X104568898Y-73553774D01*
X104368939Y-73514000D01*
X104309631Y-73514000D01*
X100584000Y-69788370D01*
X100584000Y-68133630D01*
X108185000Y-75734631D01*
X108185000Y-75793939D01*
X108224774Y-75993898D01*
X108302795Y-76182256D01*
X108416063Y-76351774D01*
X108560226Y-76495937D01*
X108729744Y-76609205D01*
X108918102Y-76687226D01*
X109118061Y-76727000D01*
X109177369Y-76727000D01*
X111995000Y-79544631D01*
X111995000Y-79603939D01*
X112034774Y-79803898D01*
X112112795Y-79992256D01*
X112226063Y-80161774D01*
X112370226Y-80305937D01*
X112539744Y-80419205D01*
X112728102Y-80497226D01*
X112928061Y-80537000D01*
X113131939Y-80537000D01*
X113331898Y-80497226D01*
X113520256Y-80419205D01*
X113689774Y-80305937D01*
X113833937Y-80161774D01*
X113947205Y-79992256D01*
X114025226Y-79803898D01*
X114065000Y-79603939D01*
X114065000Y-79400061D01*
X114025226Y-79200102D01*
X113947205Y-79011744D01*
X113833937Y-78842226D01*
X113689774Y-78698063D01*
X113520256Y-78584795D01*
X113331898Y-78506774D01*
X113131939Y-78467000D01*
X113072631Y-78467000D01*
X110255000Y-75649369D01*
X110255000Y-75590061D01*
X110215226Y-75390102D01*
X110137205Y-75201744D01*
X110023937Y-75032226D01*
X109879774Y-74888063D01*
X109710256Y-74774795D01*
X109521898Y-74696774D01*
X109321939Y-74657000D01*
X109262631Y-74657000D01*
X101600000Y-66994370D01*
X101600000Y-65339630D01*
X115805000Y-79544631D01*
X115805000Y-79603939D01*
X115844774Y-79803898D01*
X115922795Y-79992256D01*
X116036063Y-80161774D01*
X116180226Y-80305937D01*
X116349744Y-80419205D01*
X116538102Y-80497226D01*
X116738061Y-80537000D01*
X116941939Y-80537000D01*
X117141898Y-80497226D01*
X117330256Y-80419205D01*
X117499774Y-80305937D01*
X117643937Y-80161774D01*
X117757205Y-79992256D01*
X117835226Y-79803898D01*
X117875000Y-79603939D01*
X117875000Y-79400061D01*
X117835226Y-79200102D01*
X117757205Y-79011744D01*
X117643937Y-78842226D01*
X117499774Y-78698063D01*
X117330256Y-78584795D01*
X117141898Y-78506774D01*
X116941939Y-78467000D01*
X116882631Y-78467000D01*
X102616000Y-64200370D01*
X102616000Y-62545630D01*
X119615000Y-79544631D01*
X119615000Y-79603939D01*
X119654774Y-79803898D01*
X119732795Y-79992256D01*
X119846063Y-80161774D01*
X119990226Y-80305937D01*
X120159744Y-80419205D01*
X120348102Y-80497226D01*
X120548061Y-80537000D01*
X120751939Y-80537000D01*
X120951898Y-80497226D01*
X121140256Y-80419205D01*
X121309774Y-80305937D01*
X121453937Y-80161774D01*
X121567205Y-79992256D01*
X121645226Y-79803898D01*
X121685000Y-79603939D01*
X121685000Y-79400061D01*
X121645226Y-79200102D01*
X121567205Y-79011744D01*
X121453937Y-78842226D01*
X121309774Y-78698063D01*
X121140256Y-78584795D01*
X120951898Y-78506774D01*
X120751939Y-78467000D01*
X120692631Y-78467000D01*
X103632000Y-61406370D01*
X103632000Y-59751630D01*
X123425000Y-79544631D01*
X123425000Y-79603939D01*
X123464774Y-79803898D01*
X123542795Y-79992256D01*
X123656063Y-80161774D01*
X123800226Y-80305937D01*
X123969744Y-80419205D01*
X124158102Y-80497226D01*
X124358061Y-80537000D01*
X124561939Y-80537000D01*
X124761898Y-80497226D01*
X124950256Y-80419205D01*
X125119774Y-80305937D01*
X125263937Y-80161774D01*
X125377205Y-79992256D01*
X125455226Y-79803898D01*
X125495000Y-79603939D01*
X125495000Y-79400061D01*
X125455226Y-79200102D01*
X125377205Y-79011744D01*
X125263937Y-78842226D01*
X125119774Y-78698063D01*
X124950256Y-78584795D01*
X124761898Y-78506774D01*
X124561939Y-78467000D01*
X124502631Y-78467000D01*
X104648000Y-58612370D01*
X104648000Y-56957630D01*
X106929648Y-59239279D01*
X106929654Y-59239284D01*
X127235000Y-79544631D01*
X127235000Y-79603939D01*
X127274774Y-79803898D01*
X127352795Y-79992256D01*
X127466063Y-80161774D01*
X127610226Y-80305937D01*
X127779744Y-80419205D01*
X127968102Y-80497226D01*
X128168061Y-80537000D01*
X128371939Y-80537000D01*
X128571898Y-80497226D01*
X128760256Y-80419205D01*
X128929774Y-80305937D01*
X129073937Y-80161774D01*
X129187205Y-79992256D01*
X129265226Y-79803898D01*
X129305000Y-79603939D01*
X129305000Y-79400061D01*
X129265226Y-79200102D01*
X129187205Y-79011744D01*
X129073937Y-78842226D01*
X128929774Y-78698063D01*
X128760256Y-78584795D01*
X128571898Y-78506774D01*
X128371939Y-78467000D01*
X128312631Y-78467000D01*
X108007284Y-58161654D01*
X108007279Y-58161648D01*
X105664000Y-55818370D01*
X105664000Y-50845059D01*
X105684774Y-50949498D01*
X105762795Y-51137856D01*
X105876063Y-51307374D01*
X106020226Y-51451537D01*
X106189744Y-51564805D01*
X106378102Y-51642826D01*
X106578061Y-51682600D01*
X106781939Y-51682600D01*
X106981898Y-51642826D01*
X107170256Y-51564805D01*
X107212468Y-51536600D01*
X110694132Y-51536600D01*
X110736344Y-51564805D01*
X110924702Y-51642826D01*
X111124661Y-51682600D01*
X111328539Y-51682600D01*
X111528498Y-51642826D01*
X111716856Y-51564805D01*
X111886374Y-51451537D01*
X112030537Y-51307374D01*
X112143805Y-51137856D01*
X112221826Y-50949498D01*
X112261600Y-50749539D01*
X112261600Y-50545661D01*
X112221826Y-50345702D01*
X112143805Y-50157344D01*
X112030537Y-49987826D01*
X111886374Y-49843663D01*
X111716856Y-49730395D01*
X111528498Y-49652374D01*
X111328539Y-49612600D01*
X111124661Y-49612600D01*
X110924702Y-49652374D01*
X110736344Y-49730395D01*
X110694132Y-49758600D01*
X107212468Y-49758600D01*
X107170256Y-49730395D01*
X106981898Y-49652374D01*
X106781939Y-49612600D01*
X106578061Y-49612600D01*
X106378102Y-49652374D01*
X106189744Y-49730395D01*
X106020226Y-49843663D01*
X105876063Y-49987826D01*
X105762795Y-50157344D01*
X105684774Y-50345702D01*
X105664000Y-50450141D01*
X105664000Y-48067630D01*
X106106631Y-47625000D01*
X107502289Y-47625000D01*
X107544226Y-47666937D01*
X107713744Y-47780205D01*
X107902102Y-47858226D01*
X108102061Y-47898000D01*
X108305939Y-47898000D01*
X108505898Y-47858226D01*
X108694256Y-47780205D01*
X108863774Y-47666937D01*
X108905711Y-47625000D01*
X116929577Y-47625000D01*
X116967000Y-47628686D01*
X117004423Y-47625000D01*
X117004426Y-47625000D01*
X117116378Y-47613974D01*
X117260015Y-47570402D01*
X117392392Y-47499645D01*
X117508422Y-47404422D01*
X117532284Y-47375346D01*
X120146346Y-44761284D01*
X120175422Y-44737422D01*
X120268176Y-44624401D01*
X120270645Y-44621393D01*
X120308465Y-44550636D01*
X120341402Y-44489015D01*
X120384974Y-44345378D01*
X120396000Y-44233426D01*
X120396000Y-44233423D01*
X120399686Y-44196000D01*
X120396000Y-44158577D01*
X120396000Y-43834030D01*
X120421884Y-43846372D01*
X120705412Y-43918340D01*
X120997532Y-43933612D01*
X121287020Y-43891600D01*
X121562748Y-43793920D01*
X121700158Y-43720473D01*
X121777793Y-43471398D01*
X120929001Y-42622606D01*
X120914859Y-42636749D01*
X120735254Y-42457144D01*
X120749396Y-42443001D01*
X120735254Y-42428859D01*
X120914859Y-42249254D01*
X120929001Y-42263396D01*
X121777793Y-41414604D01*
X121702272Y-41172312D01*
X121875633Y-41056476D01*
X122082476Y-40849633D01*
X122199001Y-40675241D01*
X122315526Y-40849633D01*
X122522369Y-41056476D01*
X122696761Y-41173001D01*
X122522369Y-41289526D01*
X122315526Y-41496369D01*
X122199690Y-41669730D01*
X121957398Y-41594209D01*
X121108606Y-42443001D01*
X121957398Y-43291793D01*
X122199690Y-43216272D01*
X122315526Y-43389633D01*
X122522369Y-43596476D01*
X122765590Y-43758991D01*
X123035843Y-43870933D01*
X123322741Y-43928001D01*
X123615261Y-43928001D01*
X123902159Y-43870933D01*
X124172412Y-43758991D01*
X124415633Y-43596476D01*
X124622476Y-43389633D01*
X124739001Y-43215241D01*
X124855526Y-43389633D01*
X125062369Y-43596476D01*
X125305590Y-43758991D01*
X125575843Y-43870933D01*
X125862741Y-43928001D01*
X126155261Y-43928001D01*
X126442159Y-43870933D01*
X126712412Y-43758991D01*
X126955633Y-43596476D01*
X127162476Y-43389633D01*
X127279001Y-43215241D01*
X127395526Y-43389633D01*
X127602369Y-43596476D01*
X127845590Y-43758991D01*
X128115843Y-43870933D01*
X128402741Y-43928001D01*
X128695261Y-43928001D01*
X128982159Y-43870933D01*
X129252412Y-43758991D01*
X129495633Y-43596476D01*
X129702476Y-43389633D01*
X129819001Y-43215241D01*
X129935526Y-43389633D01*
X130142369Y-43596476D01*
X130385590Y-43758991D01*
X130655843Y-43870933D01*
X130942741Y-43928001D01*
X131235261Y-43928001D01*
X131522159Y-43870933D01*
X131792412Y-43758991D01*
X132035633Y-43596476D01*
X132242476Y-43389633D01*
X132359001Y-43215241D01*
X132475526Y-43389633D01*
X132682369Y-43596476D01*
X132925590Y-43758991D01*
X133195843Y-43870933D01*
X133482741Y-43928001D01*
X133775261Y-43928001D01*
X134062159Y-43870933D01*
X134332412Y-43758991D01*
X134575633Y-43596476D01*
X134782476Y-43389633D01*
X134899001Y-43215241D01*
X135015526Y-43389633D01*
X135222369Y-43596476D01*
X135465590Y-43758991D01*
X135735843Y-43870933D01*
X136022741Y-43928001D01*
X136315261Y-43928001D01*
X136602159Y-43870933D01*
X136872412Y-43758991D01*
X137115633Y-43596476D01*
X137240711Y-43471398D01*
X137860209Y-43471398D01*
X137937844Y-43720473D01*
X138201884Y-43846372D01*
X138485412Y-43918340D01*
X138777532Y-43933612D01*
X139067020Y-43891600D01*
X139342748Y-43793920D01*
X139480158Y-43720473D01*
X139557793Y-43471398D01*
X138709001Y-42622606D01*
X137860209Y-43471398D01*
X137240711Y-43471398D01*
X137322476Y-43389633D01*
X137438312Y-43216272D01*
X137680604Y-43291793D01*
X138529396Y-42443001D01*
X138888606Y-42443001D01*
X139737398Y-43291793D01*
X139986473Y-43214158D01*
X140112372Y-42950118D01*
X140184340Y-42666590D01*
X140199612Y-42374470D01*
X140157600Y-42084982D01*
X140059920Y-41809254D01*
X139986473Y-41671844D01*
X139737398Y-41594209D01*
X138888606Y-42443001D01*
X138529396Y-42443001D01*
X137680604Y-41594209D01*
X137438312Y-41669730D01*
X137322476Y-41496369D01*
X137115633Y-41289526D01*
X136941241Y-41173001D01*
X137115633Y-41056476D01*
X137322476Y-40849633D01*
X137439001Y-40675241D01*
X137555526Y-40849633D01*
X137762369Y-41056476D01*
X137935730Y-41172312D01*
X137860209Y-41414604D01*
X138709001Y-42263396D01*
X139557793Y-41414604D01*
X139482272Y-41172312D01*
X139655633Y-41056476D01*
X139862476Y-40849633D01*
X140024991Y-40606412D01*
X140136933Y-40336159D01*
X140194001Y-40049261D01*
X140194001Y-39756741D01*
X140136933Y-39469843D01*
X140024991Y-39199590D01*
X139862476Y-38956369D01*
X139655633Y-38749526D01*
X139633893Y-38735000D01*
X145001738Y-38735000D01*
X145054904Y-38763269D01*
X145261930Y-38932116D01*
X145415000Y-39117147D01*
X145415000Y-40077869D01*
X145237364Y-39812018D01*
X144939984Y-39514638D01*
X144590303Y-39280989D01*
X144201757Y-39120048D01*
X143789280Y-39038001D01*
X143368722Y-39038001D01*
X142956245Y-39120048D01*
X142567699Y-39280989D01*
X142218018Y-39514638D01*
X141920638Y-39812018D01*
X141686989Y-40161699D01*
X141526048Y-40550245D01*
X141444001Y-40962722D01*
X141444001Y-41383280D01*
X141526048Y-41795757D01*
X141686989Y-42184303D01*
X141920638Y-42533984D01*
X142218018Y-42831364D01*
X142567699Y-43065013D01*
X142956245Y-43225954D01*
X143368722Y-43308001D01*
X143789280Y-43308001D01*
X144201757Y-43225954D01*
X144590303Y-43065013D01*
X144939984Y-42831364D01*
X145237364Y-42533984D01*
X145415000Y-42268133D01*
X145415000Y-89077869D01*
X145237364Y-88812018D01*
X144939984Y-88514638D01*
X144590303Y-88280989D01*
X144201757Y-88120048D01*
X143789280Y-88038001D01*
X143368722Y-88038001D01*
X142956245Y-88120048D01*
X142567699Y-88280989D01*
X142218018Y-88514638D01*
X141920638Y-88812018D01*
X141686989Y-89161699D01*
X141526048Y-89550245D01*
X141444001Y-89962722D01*
X141444001Y-90383280D01*
X141526048Y-90795757D01*
X141686989Y-91184303D01*
X141920638Y-91533984D01*
X142218018Y-91831364D01*
X142567699Y-92065013D01*
X142956245Y-92225954D01*
X143368722Y-92308001D01*
X143789280Y-92308001D01*
X144201757Y-92225954D01*
X144590303Y-92065013D01*
X144939984Y-91831364D01*
X145237364Y-91533984D01*
X145415000Y-91268133D01*
X145415000Y-92964000D01*
X145417440Y-92988776D01*
X145424667Y-93012601D01*
X145436403Y-93034557D01*
X145452197Y-93053803D01*
X145471443Y-93069597D01*
X145493399Y-93081333D01*
X145517224Y-93088560D01*
X145542000Y-93091000D01*
X162781738Y-93091000D01*
X162834904Y-93119269D01*
X163041930Y-93288116D01*
X163195000Y-93473147D01*
X163195000Y-101895440D01*
X163109346Y-101922611D01*
X163054374Y-101946172D01*
X162999059Y-101968971D01*
X162990953Y-101973354D01*
X162977045Y-101981000D01*
X161671000Y-101981000D01*
X161646224Y-101983440D01*
X161622399Y-101990667D01*
X161600443Y-102002403D01*
X161581197Y-102018197D01*
X161565403Y-102037443D01*
X161553667Y-102059399D01*
X161546440Y-102083224D01*
X161544000Y-102108000D01*
X161544000Y-103635675D01*
X161480245Y-103852296D01*
X161469045Y-103911012D01*
X161457007Y-103969654D01*
X161456108Y-103978825D01*
X161420166Y-104373770D01*
X161420584Y-104433586D01*
X161420166Y-104493403D01*
X161421065Y-104502574D01*
X161462518Y-104896977D01*
X161474548Y-104955583D01*
X161485755Y-105014335D01*
X161488419Y-105023157D01*
X161544000Y-105202710D01*
X161544000Y-106680000D01*
X161546440Y-106704776D01*
X161553667Y-106728601D01*
X161565403Y-106750557D01*
X161581197Y-106769803D01*
X161600443Y-106785597D01*
X161622399Y-106797333D01*
X161646224Y-106804560D01*
X161671000Y-106807000D01*
X162886372Y-106807000D01*
X163025213Y-106880823D01*
X163080505Y-106903612D01*
X163135501Y-106927184D01*
X163144305Y-106929909D01*
X163195000Y-106945215D01*
X163195000Y-115872530D01*
X163048689Y-116051925D01*
X162862504Y-116205950D01*
X41687480Y-116456831D01*
X41415524Y-116430166D01*
X41159776Y-116352951D01*
X40923896Y-116227531D01*
X40767000Y-116099570D01*
X40767000Y-106865904D01*
X40767847Y-106865446D01*
X40874160Y-106807000D01*
X41910000Y-106807000D01*
X41934776Y-106804560D01*
X41958601Y-106797333D01*
X41980557Y-106785597D01*
X41999803Y-106769803D01*
X42015597Y-106750557D01*
X42027333Y-106728601D01*
X42034560Y-106704776D01*
X42037000Y-106680000D01*
X42037000Y-105641951D01*
X42118332Y-105486378D01*
X42140737Y-105430923D01*
X42163922Y-105375768D01*
X42166585Y-105366946D01*
X42278555Y-104986504D01*
X42289755Y-104927788D01*
X42301793Y-104869146D01*
X42302692Y-104859975D01*
X42338634Y-104465030D01*
X42338216Y-104405214D01*
X42338634Y-104345397D01*
X42337734Y-104336226D01*
X42296282Y-103941822D01*
X42284255Y-103883229D01*
X42273045Y-103824465D01*
X42270381Y-103815643D01*
X42153110Y-103436801D01*
X42129926Y-103381650D01*
X42107520Y-103326192D01*
X42103194Y-103318055D01*
X42037000Y-103195632D01*
X42037000Y-102108000D01*
X42034560Y-102083224D01*
X42027333Y-102059399D01*
X42015597Y-102037443D01*
X41999803Y-102018197D01*
X41980557Y-102002403D01*
X41958601Y-101990667D01*
X41934776Y-101983440D01*
X41910000Y-101981000D01*
X40776887Y-101981000D01*
X40733587Y-101957977D01*
X40678267Y-101935176D01*
X40623299Y-101911616D01*
X40614499Y-101908892D01*
X40614493Y-101908890D01*
X40513000Y-101878248D01*
X40513000Y-89962722D01*
X83444001Y-89962722D01*
X83444001Y-90383280D01*
X83526048Y-90795757D01*
X83686989Y-91184303D01*
X83920638Y-91533984D01*
X84218018Y-91831364D01*
X84567699Y-92065013D01*
X84956245Y-92225954D01*
X85368722Y-92308001D01*
X85789280Y-92308001D01*
X86201757Y-92225954D01*
X86590303Y-92065013D01*
X86939984Y-91831364D01*
X87237364Y-91533984D01*
X87471013Y-91184303D01*
X87631954Y-90795757D01*
X87714001Y-90383280D01*
X87714001Y-89962722D01*
X87631954Y-89550245D01*
X87471013Y-89161699D01*
X87237364Y-88812018D01*
X86939984Y-88514638D01*
X86590303Y-88280989D01*
X86201757Y-88120048D01*
X85789280Y-88038001D01*
X85368722Y-88038001D01*
X84956245Y-88120048D01*
X84567699Y-88280989D01*
X84218018Y-88514638D01*
X83920638Y-88812018D01*
X83686989Y-89161699D01*
X83526048Y-89550245D01*
X83444001Y-89962722D01*
X40513000Y-89962722D01*
X40513000Y-85015721D01*
X41551000Y-85015721D01*
X41551000Y-85436279D01*
X41633047Y-85848756D01*
X41793988Y-86237302D01*
X42027637Y-86586983D01*
X42325017Y-86884363D01*
X42674698Y-87118012D01*
X43063244Y-87278953D01*
X43475721Y-87361000D01*
X43896279Y-87361000D01*
X44308756Y-87278953D01*
X44697302Y-87118012D01*
X45046983Y-86884363D01*
X45055346Y-86876000D01*
X46357928Y-86876000D01*
X46357928Y-87876000D01*
X46374992Y-88049254D01*
X46425528Y-88215850D01*
X46507595Y-88369386D01*
X46618038Y-88503962D01*
X46752614Y-88614405D01*
X46906150Y-88696472D01*
X47072746Y-88747008D01*
X47246000Y-88764072D01*
X48766000Y-88764072D01*
X48939254Y-88747008D01*
X49105850Y-88696472D01*
X49259386Y-88614405D01*
X49393962Y-88503962D01*
X49504405Y-88369386D01*
X49560201Y-88265000D01*
X67012340Y-88265000D01*
X67056000Y-88269300D01*
X67099660Y-88265000D01*
X67099667Y-88265000D01*
X67230274Y-88252136D01*
X67397851Y-88201303D01*
X67552291Y-88118753D01*
X67687659Y-88007659D01*
X67715499Y-87973736D01*
X69405242Y-86283994D01*
X69439159Y-86256159D01*
X69550253Y-86120791D01*
X69632803Y-85966351D01*
X69683636Y-85798774D01*
X69696500Y-85668167D01*
X69696500Y-85668161D01*
X69700800Y-85624501D01*
X69696500Y-85580841D01*
X69696500Y-78994000D01*
X92394370Y-78994000D01*
X92945000Y-79544631D01*
X92945000Y-79603939D01*
X92984774Y-79803898D01*
X93062795Y-79992256D01*
X93176063Y-80161774D01*
X93320226Y-80305937D01*
X93489744Y-80419205D01*
X93678102Y-80497226D01*
X93878061Y-80537000D01*
X94081939Y-80537000D01*
X94281898Y-80497226D01*
X94470256Y-80419205D01*
X94639774Y-80305937D01*
X94783937Y-80161774D01*
X94897205Y-79992256D01*
X94975226Y-79803898D01*
X95015000Y-79603939D01*
X95015000Y-79400061D01*
X94975226Y-79200102D01*
X94897205Y-79011744D01*
X94783937Y-78842226D01*
X94639774Y-78698063D01*
X94470256Y-78584795D01*
X94281898Y-78506774D01*
X94081939Y-78467000D01*
X94022631Y-78467000D01*
X93275284Y-77719654D01*
X93251422Y-77690578D01*
X93135392Y-77595355D01*
X93003015Y-77524598D01*
X92859378Y-77481026D01*
X92747426Y-77470000D01*
X92747423Y-77470000D01*
X92710000Y-77466314D01*
X92672577Y-77470000D01*
X69696500Y-77470000D01*
X69696500Y-68630968D01*
X69724705Y-68588756D01*
X69802726Y-68400398D01*
X69842500Y-68200439D01*
X69842500Y-67996561D01*
X89362500Y-67996561D01*
X89362500Y-68200439D01*
X89402274Y-68400398D01*
X89480295Y-68588756D01*
X89593563Y-68758274D01*
X89635500Y-68800211D01*
X89635501Y-72072067D01*
X89631814Y-72109500D01*
X89646527Y-72258878D01*
X89690099Y-72402515D01*
X89760855Y-72534892D01*
X89832221Y-72621851D01*
X89856079Y-72650922D01*
X89885149Y-72674779D01*
X96755000Y-79544631D01*
X96755000Y-79603939D01*
X96794774Y-79803898D01*
X96872795Y-79992256D01*
X96986063Y-80161774D01*
X97130226Y-80305937D01*
X97299744Y-80419205D01*
X97488102Y-80497226D01*
X97688061Y-80537000D01*
X97891939Y-80537000D01*
X98091898Y-80497226D01*
X98280256Y-80419205D01*
X98449774Y-80305937D01*
X98593937Y-80161774D01*
X98707205Y-79992256D01*
X98785226Y-79803898D01*
X98825000Y-79603939D01*
X98825000Y-79400061D01*
X98785226Y-79200102D01*
X98707205Y-79011744D01*
X98593937Y-78842226D01*
X98449774Y-78698063D01*
X98280256Y-78584795D01*
X98091898Y-78506774D01*
X97891939Y-78467000D01*
X97832631Y-78467000D01*
X91159500Y-71793870D01*
X91159500Y-68800211D01*
X91201437Y-68758274D01*
X91314705Y-68588756D01*
X91392726Y-68400398D01*
X91432500Y-68200439D01*
X91432500Y-67996561D01*
X91392726Y-67796602D01*
X91314705Y-67608244D01*
X91201437Y-67438726D01*
X91057274Y-67294563D01*
X90887756Y-67181295D01*
X90699398Y-67103274D01*
X90499439Y-67063500D01*
X90295561Y-67063500D01*
X90095602Y-67103274D01*
X89907244Y-67181295D01*
X89737726Y-67294563D01*
X89593563Y-67438726D01*
X89480295Y-67608244D01*
X89402274Y-67796602D01*
X89362500Y-67996561D01*
X69842500Y-67996561D01*
X69802726Y-67796602D01*
X69724705Y-67608244D01*
X69611437Y-67438726D01*
X69467274Y-67294563D01*
X69297756Y-67181295D01*
X69109398Y-67103274D01*
X68909439Y-67063500D01*
X68705561Y-67063500D01*
X68505602Y-67103274D01*
X68317244Y-67181295D01*
X68147726Y-67294563D01*
X68003563Y-67438726D01*
X67890295Y-67608244D01*
X67812274Y-67796602D01*
X67772500Y-67996561D01*
X67772500Y-68200439D01*
X67812274Y-68400398D01*
X67890295Y-68588756D01*
X67918500Y-68630968D01*
X67918501Y-77960824D01*
X67918500Y-77960834D01*
X67918501Y-85256263D01*
X66687765Y-86487000D01*
X49560201Y-86487000D01*
X49504405Y-86382614D01*
X49393962Y-86248038D01*
X49259386Y-86137595D01*
X49105850Y-86055528D01*
X48939254Y-86004992D01*
X48766000Y-85987928D01*
X47246000Y-85987928D01*
X47072746Y-86004992D01*
X46906150Y-86055528D01*
X46752614Y-86137595D01*
X46618038Y-86248038D01*
X46507595Y-86382614D01*
X46425528Y-86536150D01*
X46374992Y-86702746D01*
X46357928Y-86876000D01*
X45055346Y-86876000D01*
X45344363Y-86586983D01*
X45578012Y-86237302D01*
X45738953Y-85848756D01*
X45821000Y-85436279D01*
X45821000Y-85015721D01*
X45761618Y-84717185D01*
X46403682Y-84717185D01*
X46417827Y-84788684D01*
X46523858Y-85039868D01*
X46676855Y-85265540D01*
X46870939Y-85457028D01*
X47098651Y-85606972D01*
X47351240Y-85709611D01*
X47619000Y-85761000D01*
X47879000Y-85761000D01*
X47879000Y-84503000D01*
X48133000Y-84503000D01*
X48133000Y-85761000D01*
X48393000Y-85761000D01*
X48660760Y-85709611D01*
X48913349Y-85606972D01*
X49141061Y-85457028D01*
X49335145Y-85265540D01*
X49488142Y-85039868D01*
X49594173Y-84788684D01*
X49608318Y-84717185D01*
X49485656Y-84503000D01*
X48133000Y-84503000D01*
X47879000Y-84503000D01*
X46526344Y-84503000D01*
X46403682Y-84717185D01*
X45761618Y-84717185D01*
X45738953Y-84603244D01*
X45578012Y-84214698D01*
X45457819Y-84034815D01*
X46403682Y-84034815D01*
X46526344Y-84249000D01*
X47879000Y-84249000D01*
X47879000Y-82991000D01*
X48133000Y-82991000D01*
X48133000Y-84249000D01*
X49485656Y-84249000D01*
X49608318Y-84034815D01*
X49594173Y-83963316D01*
X49488142Y-83712132D01*
X49335145Y-83486460D01*
X49141061Y-83294972D01*
X48913349Y-83145028D01*
X48660760Y-83042389D01*
X48393000Y-82991000D01*
X48133000Y-82991000D01*
X47879000Y-82991000D01*
X47619000Y-82991000D01*
X47351240Y-83042389D01*
X47098651Y-83145028D01*
X46870939Y-83294972D01*
X46676855Y-83486460D01*
X46523858Y-83712132D01*
X46417827Y-83963316D01*
X46403682Y-84034815D01*
X45457819Y-84034815D01*
X45344363Y-83865017D01*
X45046983Y-83567637D01*
X44697302Y-83333988D01*
X44308756Y-83173047D01*
X43896279Y-83091000D01*
X43475721Y-83091000D01*
X43063244Y-83173047D01*
X42674698Y-83333988D01*
X42325017Y-83567637D01*
X42027637Y-83865017D01*
X41793988Y-84214698D01*
X41633047Y-84603244D01*
X41551000Y-85015721D01*
X40513000Y-85015721D01*
X40513000Y-81376000D01*
X46354299Y-81376000D01*
X46381040Y-81647507D01*
X46460236Y-81908581D01*
X46588843Y-82149188D01*
X46761919Y-82360081D01*
X46972812Y-82533157D01*
X47213419Y-82661764D01*
X47474493Y-82740960D01*
X47677963Y-82761000D01*
X48334037Y-82761000D01*
X48537507Y-82740960D01*
X48798581Y-82661764D01*
X49039188Y-82533157D01*
X49250081Y-82360081D01*
X49423157Y-82149188D01*
X49551764Y-81908581D01*
X49630960Y-81647507D01*
X49657701Y-81376000D01*
X49630960Y-81104493D01*
X49551764Y-80843419D01*
X49423157Y-80602812D01*
X49250081Y-80391919D01*
X49039188Y-80218843D01*
X48798581Y-80090236D01*
X48537507Y-80011040D01*
X48334037Y-79991000D01*
X47677963Y-79991000D01*
X47474493Y-80011040D01*
X47213419Y-80090236D01*
X46972812Y-80218843D01*
X46761919Y-80391919D01*
X46588843Y-80602812D01*
X46460236Y-80843419D01*
X46381040Y-81104493D01*
X46354299Y-81376000D01*
X40513000Y-81376000D01*
X40513000Y-78376000D01*
X46354299Y-78376000D01*
X46381040Y-78647507D01*
X46460236Y-78908581D01*
X46588843Y-79149188D01*
X46761919Y-79360081D01*
X46972812Y-79533157D01*
X47213419Y-79661764D01*
X47474493Y-79740960D01*
X47677963Y-79761000D01*
X48334037Y-79761000D01*
X48537507Y-79740960D01*
X48798581Y-79661764D01*
X49039188Y-79533157D01*
X49250081Y-79360081D01*
X49423157Y-79149188D01*
X49551764Y-78908581D01*
X49630960Y-78647507D01*
X49657701Y-78376000D01*
X49630960Y-78104493D01*
X49551764Y-77843419D01*
X49423157Y-77602812D01*
X49250081Y-77391919D01*
X49039188Y-77218843D01*
X48798581Y-77090236D01*
X48537507Y-77011040D01*
X48334037Y-76991000D01*
X47677963Y-76991000D01*
X47474493Y-77011040D01*
X47213419Y-77090236D01*
X46972812Y-77218843D01*
X46761919Y-77391919D01*
X46588843Y-77602812D01*
X46460236Y-77843419D01*
X46381040Y-78104493D01*
X46354299Y-78376000D01*
X40513000Y-78376000D01*
X40513000Y-74315721D01*
X41551000Y-74315721D01*
X41551000Y-74736279D01*
X41633047Y-75148756D01*
X41793988Y-75537302D01*
X42027637Y-75886983D01*
X42325017Y-76184363D01*
X42674698Y-76418012D01*
X43063244Y-76578953D01*
X43475721Y-76661000D01*
X43896279Y-76661000D01*
X44308756Y-76578953D01*
X44697302Y-76418012D01*
X45046983Y-76184363D01*
X45344363Y-75886983D01*
X45578012Y-75537302D01*
X45644825Y-75376000D01*
X46354299Y-75376000D01*
X46381040Y-75647507D01*
X46460236Y-75908581D01*
X46588843Y-76149188D01*
X46761919Y-76360081D01*
X46972812Y-76533157D01*
X47213419Y-76661764D01*
X47474493Y-76740960D01*
X47677963Y-76761000D01*
X48334037Y-76761000D01*
X48537507Y-76740960D01*
X48798581Y-76661764D01*
X49039188Y-76533157D01*
X49250081Y-76360081D01*
X49423157Y-76149188D01*
X49551764Y-75908581D01*
X49630960Y-75647507D01*
X49657701Y-75376000D01*
X49630960Y-75104493D01*
X49551764Y-74843419D01*
X49423157Y-74602812D01*
X49250081Y-74391919D01*
X49039188Y-74218843D01*
X48798581Y-74090236D01*
X48537507Y-74011040D01*
X48334037Y-73991000D01*
X47677963Y-73991000D01*
X47474493Y-74011040D01*
X47213419Y-74090236D01*
X46972812Y-74218843D01*
X46761919Y-74391919D01*
X46588843Y-74602812D01*
X46460236Y-74843419D01*
X46381040Y-75104493D01*
X46354299Y-75376000D01*
X45644825Y-75376000D01*
X45738953Y-75148756D01*
X45821000Y-74736279D01*
X45821000Y-74315721D01*
X45738953Y-73903244D01*
X45578012Y-73514698D01*
X45344363Y-73165017D01*
X45046983Y-72867637D01*
X44697302Y-72633988D01*
X44308756Y-72473047D01*
X43896279Y-72391000D01*
X43475721Y-72391000D01*
X43063244Y-72473047D01*
X42674698Y-72633988D01*
X42325017Y-72867637D01*
X42027637Y-73165017D01*
X41793988Y-73514698D01*
X41633047Y-73903244D01*
X41551000Y-74315721D01*
X40513000Y-74315721D01*
X40513000Y-72376000D01*
X46354299Y-72376000D01*
X46381040Y-72647507D01*
X46460236Y-72908581D01*
X46588843Y-73149188D01*
X46761919Y-73360081D01*
X46972812Y-73533157D01*
X47213419Y-73661764D01*
X47474493Y-73740960D01*
X47677963Y-73761000D01*
X48334037Y-73761000D01*
X48537507Y-73740960D01*
X48798581Y-73661764D01*
X49039188Y-73533157D01*
X49250081Y-73360081D01*
X49423157Y-73149188D01*
X49551764Y-72908581D01*
X49630960Y-72647507D01*
X49657701Y-72376000D01*
X49630960Y-72104493D01*
X49551764Y-71843419D01*
X49423157Y-71602812D01*
X49250081Y-71391919D01*
X49039188Y-71218843D01*
X48798581Y-71090236D01*
X48537507Y-71011040D01*
X48334037Y-70991000D01*
X47677963Y-70991000D01*
X47474493Y-71011040D01*
X47213419Y-71090236D01*
X46972812Y-71218843D01*
X46761919Y-71391919D01*
X46588843Y-71602812D01*
X46460236Y-71843419D01*
X46381040Y-72104493D01*
X46354299Y-72376000D01*
X40513000Y-72376000D01*
X40513000Y-63362408D01*
X69723000Y-63362408D01*
X69723000Y-63637592D01*
X69776686Y-63907490D01*
X69881995Y-64161727D01*
X70034880Y-64390535D01*
X70229465Y-64585120D01*
X70458273Y-64738005D01*
X70712510Y-64843314D01*
X70982408Y-64897000D01*
X71257592Y-64897000D01*
X71527490Y-64843314D01*
X71781727Y-64738005D01*
X72010535Y-64585120D01*
X72205120Y-64390535D01*
X72358005Y-64161727D01*
X72463314Y-63907490D01*
X72517000Y-63637592D01*
X72517000Y-63362408D01*
X91313000Y-63362408D01*
X91313000Y-63637592D01*
X91366686Y-63907490D01*
X91471995Y-64161727D01*
X91624880Y-64390535D01*
X91819465Y-64585120D01*
X92048273Y-64738005D01*
X92302510Y-64843314D01*
X92572408Y-64897000D01*
X92847592Y-64897000D01*
X93117490Y-64843314D01*
X93371727Y-64738005D01*
X93600535Y-64585120D01*
X93795120Y-64390535D01*
X93948005Y-64161727D01*
X94053314Y-63907490D01*
X94107000Y-63637592D01*
X94107000Y-63362408D01*
X94053314Y-63092510D01*
X93948005Y-62838273D01*
X93795120Y-62609465D01*
X93600535Y-62414880D01*
X93371727Y-62261995D01*
X93300057Y-62232308D01*
X93313023Y-62227636D01*
X93428980Y-62165656D01*
X93495960Y-61925565D01*
X92710000Y-61139605D01*
X91924040Y-61925565D01*
X91991020Y-62165656D01*
X92126760Y-62229485D01*
X92048273Y-62261995D01*
X91819465Y-62414880D01*
X91624880Y-62609465D01*
X91471995Y-62838273D01*
X91366686Y-63092510D01*
X91313000Y-63362408D01*
X72517000Y-63362408D01*
X72463314Y-63092510D01*
X72358005Y-62838273D01*
X72205120Y-62609465D01*
X72010535Y-62414880D01*
X71781727Y-62261995D01*
X71710057Y-62232308D01*
X71723023Y-62227636D01*
X71838980Y-62165656D01*
X71905960Y-61925565D01*
X71120000Y-61139605D01*
X70334040Y-61925565D01*
X70401020Y-62165656D01*
X70536760Y-62229485D01*
X70458273Y-62261995D01*
X70229465Y-62414880D01*
X70034880Y-62609465D01*
X69881995Y-62838273D01*
X69776686Y-63092510D01*
X69723000Y-63362408D01*
X40513000Y-63362408D01*
X40513000Y-61032017D01*
X69718090Y-61032017D01*
X69759078Y-61304133D01*
X69852364Y-61563023D01*
X69914344Y-61678980D01*
X70154435Y-61745960D01*
X70940395Y-60960000D01*
X71299605Y-60960000D01*
X72085565Y-61745960D01*
X72325656Y-61678980D01*
X72442756Y-61429952D01*
X72509023Y-61162865D01*
X72521910Y-60887983D01*
X72480922Y-60615867D01*
X72387636Y-60356977D01*
X72325656Y-60241020D01*
X72085565Y-60174040D01*
X71299605Y-60960000D01*
X70940395Y-60960000D01*
X70154435Y-60174040D01*
X69914344Y-60241020D01*
X69797244Y-60490048D01*
X69730977Y-60757135D01*
X69718090Y-61032017D01*
X40513000Y-61032017D01*
X40513000Y-55821290D01*
X47650400Y-55821290D01*
X47650400Y-56446710D01*
X47772414Y-57060113D01*
X48011752Y-57637926D01*
X48359217Y-58157944D01*
X48801456Y-58600183D01*
X49321474Y-58947648D01*
X49899287Y-59186986D01*
X50512690Y-59309000D01*
X51138110Y-59309000D01*
X51751513Y-59186986D01*
X52329326Y-58947648D01*
X52849344Y-58600183D01*
X53167119Y-58282408D01*
X69723000Y-58282408D01*
X69723000Y-58557592D01*
X69776686Y-58827490D01*
X69881995Y-59081727D01*
X70034880Y-59310535D01*
X70229465Y-59505120D01*
X70458273Y-59658005D01*
X70529943Y-59687692D01*
X70516977Y-59692364D01*
X70401020Y-59754344D01*
X70334040Y-59994435D01*
X71120000Y-60780395D01*
X71905960Y-59994435D01*
X71838980Y-59754344D01*
X71703240Y-59690515D01*
X71781727Y-59658005D01*
X72010535Y-59505120D01*
X72205120Y-59310535D01*
X72358005Y-59081727D01*
X72463314Y-58827490D01*
X72517000Y-58557592D01*
X72517000Y-58282408D01*
X72463314Y-58012510D01*
X72358005Y-57758273D01*
X72205120Y-57529465D01*
X72010535Y-57334880D01*
X71781727Y-57181995D01*
X71527490Y-57076686D01*
X71257592Y-57023000D01*
X70982408Y-57023000D01*
X70712510Y-57076686D01*
X70458273Y-57181995D01*
X70229465Y-57334880D01*
X70034880Y-57529465D01*
X69881995Y-57758273D01*
X69776686Y-58012510D01*
X69723000Y-58282408D01*
X53167119Y-58282408D01*
X53291583Y-58157944D01*
X53639048Y-57637926D01*
X53878386Y-57060113D01*
X54000400Y-56446710D01*
X54000400Y-55821290D01*
X53878386Y-55207887D01*
X53639048Y-54630074D01*
X53291583Y-54110056D01*
X52849344Y-53667817D01*
X52329326Y-53320352D01*
X51751513Y-53081014D01*
X51138110Y-52959000D01*
X50512690Y-52959000D01*
X49899287Y-53081014D01*
X49321474Y-53320352D01*
X48801456Y-53667817D01*
X48359217Y-54110056D01*
X48011752Y-54630074D01*
X47772414Y-55207887D01*
X47650400Y-55821290D01*
X40513000Y-55821290D01*
X40513000Y-50491594D01*
X48773411Y-50491594D01*
X49054384Y-50913659D01*
X49606117Y-51208178D01*
X50204706Y-51389400D01*
X50827148Y-51450361D01*
X51449523Y-51388718D01*
X52047913Y-51206840D01*
X52596416Y-50913659D01*
X52877389Y-50491594D01*
X50825400Y-48439605D01*
X48773411Y-50491594D01*
X40513000Y-50491594D01*
X40513000Y-48261748D01*
X47635039Y-48261748D01*
X47696682Y-48884123D01*
X47878560Y-49482513D01*
X48171741Y-50031016D01*
X48593806Y-50311989D01*
X50645795Y-48260000D01*
X51005005Y-48260000D01*
X53056994Y-50311989D01*
X53479059Y-50031016D01*
X53495615Y-50000000D01*
X64601928Y-50000000D01*
X64601928Y-51600000D01*
X64614188Y-51724482D01*
X64650498Y-51844180D01*
X64709463Y-51954494D01*
X64788815Y-52051185D01*
X64885506Y-52130537D01*
X64995820Y-52189502D01*
X65115518Y-52225812D01*
X65240000Y-52238072D01*
X66840000Y-52238072D01*
X66964482Y-52225812D01*
X67084180Y-52189502D01*
X67194494Y-52130537D01*
X67291185Y-52051185D01*
X67370537Y-51954494D01*
X67429502Y-51844180D01*
X67465812Y-51724482D01*
X67478072Y-51600000D01*
X67478072Y-50000000D01*
X67465812Y-49875518D01*
X67429502Y-49755820D01*
X67370537Y-49645506D01*
X67291185Y-49548815D01*
X67194494Y-49469463D01*
X67084180Y-49410498D01*
X66964482Y-49374188D01*
X66840000Y-49361928D01*
X66832785Y-49361928D01*
X66853097Y-49292702D01*
X66040000Y-48479605D01*
X65226903Y-49292702D01*
X65247215Y-49361928D01*
X65240000Y-49361928D01*
X65115518Y-49374188D01*
X64995820Y-49410498D01*
X64885506Y-49469463D01*
X64788815Y-49548815D01*
X64709463Y-49645506D01*
X64650498Y-49755820D01*
X64614188Y-49875518D01*
X64601928Y-50000000D01*
X53495615Y-50000000D01*
X53773578Y-49479283D01*
X53954800Y-48880694D01*
X54004766Y-48370512D01*
X64599783Y-48370512D01*
X64641213Y-48650130D01*
X64736397Y-48916292D01*
X64803329Y-49041514D01*
X65047298Y-49113097D01*
X65860395Y-48300000D01*
X66219605Y-48300000D01*
X67032702Y-49113097D01*
X67276671Y-49041514D01*
X67397571Y-48786004D01*
X67466300Y-48511816D01*
X67480217Y-48229488D01*
X67438787Y-47949870D01*
X67343603Y-47683708D01*
X67276671Y-47558486D01*
X67032702Y-47486903D01*
X66219605Y-48300000D01*
X65860395Y-48300000D01*
X65047298Y-47486903D01*
X64803329Y-47558486D01*
X64682429Y-47813996D01*
X64613700Y-48088184D01*
X64599783Y-48370512D01*
X54004766Y-48370512D01*
X54015761Y-48258252D01*
X53954118Y-47635877D01*
X53854248Y-47307298D01*
X65226903Y-47307298D01*
X66040000Y-48120395D01*
X66853097Y-47307298D01*
X66781514Y-47063329D01*
X66526004Y-46942429D01*
X66251816Y-46873700D01*
X65969488Y-46859783D01*
X65689870Y-46901213D01*
X65423708Y-46996397D01*
X65298486Y-47063329D01*
X65226903Y-47307298D01*
X53854248Y-47307298D01*
X53772240Y-47037487D01*
X53479059Y-46488984D01*
X53056994Y-46208011D01*
X51005005Y-48260000D01*
X50645795Y-48260000D01*
X48593806Y-46208011D01*
X48171741Y-46488984D01*
X47877222Y-47040717D01*
X47696000Y-47639306D01*
X47635039Y-48261748D01*
X40513000Y-48261748D01*
X40513000Y-46028406D01*
X48773411Y-46028406D01*
X50825400Y-48080395D01*
X52877389Y-46028406D01*
X52604219Y-45618061D01*
X73895000Y-45618061D01*
X73895000Y-45821939D01*
X73934774Y-46021898D01*
X74012795Y-46210256D01*
X74041000Y-46252468D01*
X74041001Y-61697531D01*
X74012795Y-61739744D01*
X73934774Y-61928102D01*
X73895000Y-62128061D01*
X73895000Y-62331939D01*
X73934774Y-62531898D01*
X74012795Y-62720256D01*
X74126063Y-62889774D01*
X74270226Y-63033937D01*
X74439744Y-63147205D01*
X74628102Y-63225226D01*
X74828061Y-63265000D01*
X75031939Y-63265000D01*
X75231898Y-63225226D01*
X75420256Y-63147205D01*
X75589774Y-63033937D01*
X75733937Y-62889774D01*
X75847205Y-62720256D01*
X75925226Y-62531898D01*
X75965000Y-62331939D01*
X75965000Y-62128061D01*
X75925226Y-61928102D01*
X75847205Y-61739744D01*
X75819000Y-61697532D01*
X75819000Y-61032017D01*
X91308090Y-61032017D01*
X91349078Y-61304133D01*
X91442364Y-61563023D01*
X91504344Y-61678980D01*
X91744435Y-61745960D01*
X92530395Y-60960000D01*
X92889605Y-60960000D01*
X93675565Y-61745960D01*
X93915656Y-61678980D01*
X94032756Y-61429952D01*
X94099023Y-61162865D01*
X94111910Y-60887983D01*
X94070922Y-60615867D01*
X93977636Y-60356977D01*
X93915656Y-60241020D01*
X93675565Y-60174040D01*
X92889605Y-60960000D01*
X92530395Y-60960000D01*
X91744435Y-60174040D01*
X91504344Y-60241020D01*
X91387244Y-60490048D01*
X91320977Y-60757135D01*
X91308090Y-61032017D01*
X75819000Y-61032017D01*
X75819000Y-58282408D01*
X91313000Y-58282408D01*
X91313000Y-58557592D01*
X91366686Y-58827490D01*
X91471995Y-59081727D01*
X91624880Y-59310535D01*
X91819465Y-59505120D01*
X92048273Y-59658005D01*
X92119943Y-59687692D01*
X92106977Y-59692364D01*
X91991020Y-59754344D01*
X91924040Y-59994435D01*
X92710000Y-60780395D01*
X93495960Y-59994435D01*
X93428980Y-59754344D01*
X93293240Y-59690515D01*
X93371727Y-59658005D01*
X93600535Y-59505120D01*
X93795120Y-59310535D01*
X93948005Y-59081727D01*
X94053314Y-58827490D01*
X94107000Y-58557592D01*
X94107000Y-58282408D01*
X94053314Y-58012510D01*
X93948005Y-57758273D01*
X93795120Y-57529465D01*
X93600535Y-57334880D01*
X93371727Y-57181995D01*
X93117490Y-57076686D01*
X92847592Y-57023000D01*
X92572408Y-57023000D01*
X92302510Y-57076686D01*
X92048273Y-57181995D01*
X91819465Y-57334880D01*
X91624880Y-57529465D01*
X91471995Y-57758273D01*
X91366686Y-58012510D01*
X91313000Y-58282408D01*
X75819000Y-58282408D01*
X75819000Y-50000000D01*
X81111928Y-50000000D01*
X81111928Y-51600000D01*
X81124188Y-51724482D01*
X81160498Y-51844180D01*
X81219463Y-51954494D01*
X81298815Y-52051185D01*
X81395506Y-52130537D01*
X81505820Y-52189502D01*
X81625518Y-52225812D01*
X81750000Y-52238072D01*
X83350000Y-52238072D01*
X83474482Y-52225812D01*
X83594180Y-52189502D01*
X83704494Y-52130537D01*
X83801185Y-52051185D01*
X83880537Y-51954494D01*
X83939502Y-51844180D01*
X83975812Y-51724482D01*
X83988072Y-51600000D01*
X83988072Y-50000000D01*
X83975812Y-49875518D01*
X83939502Y-49755820D01*
X83880537Y-49645506D01*
X83801185Y-49548815D01*
X83704494Y-49469463D01*
X83594180Y-49410498D01*
X83474482Y-49374188D01*
X83350000Y-49361928D01*
X83342785Y-49361928D01*
X83363097Y-49292702D01*
X82550000Y-48479605D01*
X81736903Y-49292702D01*
X81757215Y-49361928D01*
X81750000Y-49361928D01*
X81625518Y-49374188D01*
X81505820Y-49410498D01*
X81395506Y-49469463D01*
X81298815Y-49548815D01*
X81219463Y-49645506D01*
X81160498Y-49755820D01*
X81124188Y-49875518D01*
X81111928Y-50000000D01*
X75819000Y-50000000D01*
X75819000Y-48370512D01*
X81109783Y-48370512D01*
X81151213Y-48650130D01*
X81246397Y-48916292D01*
X81313329Y-49041514D01*
X81557298Y-49113097D01*
X82370395Y-48300000D01*
X82729605Y-48300000D01*
X83542702Y-49113097D01*
X83786671Y-49041514D01*
X83907571Y-48786004D01*
X83976300Y-48511816D01*
X83990217Y-48229488D01*
X83948787Y-47949870D01*
X83853603Y-47683708D01*
X83786671Y-47558486D01*
X83542702Y-47486903D01*
X82729605Y-48300000D01*
X82370395Y-48300000D01*
X81557298Y-47486903D01*
X81313329Y-47558486D01*
X81192429Y-47813996D01*
X81123700Y-48088184D01*
X81109783Y-48370512D01*
X75819000Y-48370512D01*
X75819000Y-47307298D01*
X81736903Y-47307298D01*
X82550000Y-48120395D01*
X83363097Y-47307298D01*
X83291514Y-47063329D01*
X83036004Y-46942429D01*
X82761816Y-46873700D01*
X82479488Y-46859783D01*
X82199870Y-46901213D01*
X81933708Y-46996397D01*
X81808486Y-47063329D01*
X81736903Y-47307298D01*
X75819000Y-47307298D01*
X75819000Y-46252468D01*
X75847205Y-46210256D01*
X75925226Y-46021898D01*
X75965000Y-45821939D01*
X75965000Y-45618061D01*
X75925226Y-45418102D01*
X75847205Y-45229744D01*
X75733937Y-45060226D01*
X75589774Y-44916063D01*
X75420256Y-44802795D01*
X75231898Y-44724774D01*
X75031939Y-44685000D01*
X74828061Y-44685000D01*
X74628102Y-44724774D01*
X74439744Y-44802795D01*
X74270226Y-44916063D01*
X74126063Y-45060226D01*
X74012795Y-45229744D01*
X73934774Y-45418102D01*
X73895000Y-45618061D01*
X52604219Y-45618061D01*
X52596416Y-45606341D01*
X52044683Y-45311822D01*
X51446094Y-45130600D01*
X50823652Y-45069639D01*
X50201277Y-45131282D01*
X49602887Y-45313160D01*
X49054384Y-45606341D01*
X48773411Y-46028406D01*
X40513000Y-46028406D01*
X40513000Y-40962722D01*
X83444001Y-40962722D01*
X83444001Y-41383280D01*
X83526048Y-41795757D01*
X83686989Y-42184303D01*
X83920638Y-42533984D01*
X84218018Y-42831364D01*
X84567699Y-43065013D01*
X84956245Y-43225954D01*
X85368722Y-43308001D01*
X85789280Y-43308001D01*
X86201757Y-43225954D01*
X86590303Y-43065013D01*
X86939984Y-42831364D01*
X87237364Y-42533984D01*
X87471013Y-42184303D01*
X87631954Y-41795757D01*
X87714001Y-41383280D01*
X87714001Y-40962722D01*
X87631954Y-40550245D01*
X87471013Y-40161699D01*
X87237364Y-39812018D01*
X86939984Y-39514638D01*
X86590303Y-39280989D01*
X86201757Y-39120048D01*
X85789280Y-39038001D01*
X85368722Y-39038001D01*
X84956245Y-39120048D01*
X84567699Y-39280989D01*
X84218018Y-39514638D01*
X83920638Y-39812018D01*
X83686989Y-40161699D01*
X83526048Y-40550245D01*
X83444001Y-40962722D01*
X40513000Y-40962722D01*
X40513000Y-39199062D01*
X40541269Y-39145896D01*
X40710116Y-38938870D01*
X40915954Y-38768587D01*
X40978071Y-38735000D01*
X89524109Y-38735000D01*
X89502369Y-38749526D01*
%TA.AperFunction,Conductor*%
D20*
G36*
X89502369Y-38749526D02*
G01*
X89295526Y-38956369D01*
X89133011Y-39199590D01*
X89021069Y-39469843D01*
X88964001Y-39756741D01*
X88964001Y-40049261D01*
X89021069Y-40336159D01*
X89133011Y-40606412D01*
X89295526Y-40849633D01*
X89502369Y-41056476D01*
X89676761Y-41173001D01*
X89502369Y-41289526D01*
X89295526Y-41496369D01*
X89133011Y-41739590D01*
X89021069Y-42009843D01*
X88964001Y-42296741D01*
X88964001Y-42589261D01*
X89021069Y-42876159D01*
X89133011Y-43146412D01*
X89295526Y-43389633D01*
X89502369Y-43596476D01*
X89745590Y-43758991D01*
X90015843Y-43870933D01*
X90302741Y-43928001D01*
X90595261Y-43928001D01*
X90882159Y-43870933D01*
X91152412Y-43758991D01*
X91395633Y-43596476D01*
X91602476Y-43389633D01*
X91719001Y-43215241D01*
X91835526Y-43389633D01*
X92042369Y-43596476D01*
X92285590Y-43758991D01*
X92555843Y-43870933D01*
X92842741Y-43928001D01*
X93135261Y-43928001D01*
X93353050Y-43884680D01*
X97028000Y-47559631D01*
X97028001Y-63560288D01*
X96986063Y-63602226D01*
X96872795Y-63771744D01*
X96794774Y-63960102D01*
X96755000Y-64160061D01*
X96755000Y-64363939D01*
X96794774Y-64563898D01*
X96872795Y-64752256D01*
X96986063Y-64921774D01*
X97028000Y-64963711D01*
X97028001Y-72704288D01*
X96986063Y-72746226D01*
X96872795Y-72915744D01*
X96794774Y-73104102D01*
X96755000Y-73304061D01*
X96755000Y-73507939D01*
X96794774Y-73707898D01*
X96872795Y-73896256D01*
X96986063Y-74065774D01*
X97028000Y-74107711D01*
X97028001Y-74892565D01*
X97028000Y-74892575D01*
X97028000Y-75654577D01*
X97024314Y-75692000D01*
X97028000Y-75729423D01*
X97028000Y-75729426D01*
X97039026Y-75841378D01*
X97082599Y-75985015D01*
X97153355Y-76117392D01*
X97179450Y-76149188D01*
X97248579Y-76233422D01*
X97277649Y-76257279D01*
X100565000Y-79544630D01*
X100565000Y-79603939D01*
X100604774Y-79803898D01*
X100682795Y-79992256D01*
X100796063Y-80161774D01*
X100940226Y-80305937D01*
X101109744Y-80419205D01*
X101298102Y-80497226D01*
X101498061Y-80537000D01*
X101701939Y-80537000D01*
X101901898Y-80497226D01*
X102090256Y-80419205D01*
X102259774Y-80305937D01*
X102403937Y-80161774D01*
X102517205Y-79992256D01*
X102595226Y-79803898D01*
X102635000Y-79603939D01*
X102635000Y-79400061D01*
X102595226Y-79200102D01*
X102517205Y-79011744D01*
X102403937Y-78842226D01*
X102259774Y-78698063D01*
X102090256Y-78584795D01*
X101901898Y-78506774D01*
X101701939Y-78467000D01*
X101642630Y-78467000D01*
X98552000Y-75376370D01*
X98552000Y-74107711D01*
X98593937Y-74065774D01*
X98707205Y-73896256D01*
X98712893Y-73882524D01*
X99563648Y-74733279D01*
X99563654Y-74733284D01*
X104375000Y-79544631D01*
X104375000Y-79603939D01*
X104414774Y-79803898D01*
X104492795Y-79992256D01*
X104606063Y-80161774D01*
X104750226Y-80305937D01*
X104919744Y-80419205D01*
X105108102Y-80497226D01*
X105308061Y-80537000D01*
X105511939Y-80537000D01*
X105711898Y-80497226D01*
X105900256Y-80419205D01*
X106069774Y-80305937D01*
X106213937Y-80161774D01*
X106327205Y-79992256D01*
X106405226Y-79803898D01*
X106445000Y-79603939D01*
X106445000Y-79400061D01*
X106405226Y-79200102D01*
X106327205Y-79011744D01*
X106213937Y-78842226D01*
X106069774Y-78698063D01*
X105900256Y-78584795D01*
X105711898Y-78506774D01*
X105511939Y-78467000D01*
X105452631Y-78467000D01*
X100641284Y-73655654D01*
X100641279Y-73655648D01*
X99764996Y-72779365D01*
X99801226Y-72691898D01*
X99841000Y-72491939D01*
X99841000Y-72288061D01*
X99801226Y-72088102D01*
X99723205Y-71899744D01*
X99609937Y-71730226D01*
X99568000Y-71688289D01*
X99568000Y-70927630D01*
X103232000Y-74591631D01*
X103232000Y-74650939D01*
X103271774Y-74850898D01*
X103349795Y-75039256D01*
X103463063Y-75208774D01*
X103607226Y-75352937D01*
X103776744Y-75466205D01*
X103965102Y-75544226D01*
X104165061Y-75584000D01*
X104224370Y-75584000D01*
X108185000Y-79544631D01*
X108185000Y-79603939D01*
X108224774Y-79803898D01*
X108302795Y-79992256D01*
X108416063Y-80161774D01*
X108560226Y-80305937D01*
X108729744Y-80419205D01*
X108918102Y-80497226D01*
X109118061Y-80537000D01*
X109321939Y-80537000D01*
X109521898Y-80497226D01*
X109710256Y-80419205D01*
X109879774Y-80305937D01*
X110023937Y-80161774D01*
X110137205Y-79992256D01*
X110215226Y-79803898D01*
X110255000Y-79603939D01*
X110255000Y-79400061D01*
X110215226Y-79200102D01*
X110137205Y-79011744D01*
X110023937Y-78842226D01*
X109879774Y-78698063D01*
X109710256Y-78584795D01*
X109521898Y-78506774D01*
X109321939Y-78467000D01*
X109262631Y-78467000D01*
X105302000Y-74506370D01*
X105302000Y-74447061D01*
X105262226Y-74247102D01*
X105184205Y-74058744D01*
X105070937Y-73889226D01*
X104926774Y-73745063D01*
X104757256Y-73631795D01*
X104568898Y-73553774D01*
X104368939Y-73514000D01*
X104309631Y-73514000D01*
X100584000Y-69788370D01*
X100584000Y-68133630D01*
X108185000Y-75734631D01*
X108185000Y-75793939D01*
X108224774Y-75993898D01*
X108302795Y-76182256D01*
X108416063Y-76351774D01*
X108560226Y-76495937D01*
X108729744Y-76609205D01*
X108918102Y-76687226D01*
X109118061Y-76727000D01*
X109177369Y-76727000D01*
X111995000Y-79544631D01*
X111995000Y-79603939D01*
X112034774Y-79803898D01*
X112112795Y-79992256D01*
X112226063Y-80161774D01*
X112370226Y-80305937D01*
X112539744Y-80419205D01*
X112728102Y-80497226D01*
X112928061Y-80537000D01*
X113131939Y-80537000D01*
X113331898Y-80497226D01*
X113520256Y-80419205D01*
X113689774Y-80305937D01*
X113833937Y-80161774D01*
X113947205Y-79992256D01*
X114025226Y-79803898D01*
X114065000Y-79603939D01*
X114065000Y-79400061D01*
X114025226Y-79200102D01*
X113947205Y-79011744D01*
X113833937Y-78842226D01*
X113689774Y-78698063D01*
X113520256Y-78584795D01*
X113331898Y-78506774D01*
X113131939Y-78467000D01*
X113072631Y-78467000D01*
X110255000Y-75649369D01*
X110255000Y-75590061D01*
X110215226Y-75390102D01*
X110137205Y-75201744D01*
X110023937Y-75032226D01*
X109879774Y-74888063D01*
X109710256Y-74774795D01*
X109521898Y-74696774D01*
X109321939Y-74657000D01*
X109262631Y-74657000D01*
X101600000Y-66994370D01*
X101600000Y-65339630D01*
X115805000Y-79544631D01*
X115805000Y-79603939D01*
X115844774Y-79803898D01*
X115922795Y-79992256D01*
X116036063Y-80161774D01*
X116180226Y-80305937D01*
X116349744Y-80419205D01*
X116538102Y-80497226D01*
X116738061Y-80537000D01*
X116941939Y-80537000D01*
X117141898Y-80497226D01*
X117330256Y-80419205D01*
X117499774Y-80305937D01*
X117643937Y-80161774D01*
X117757205Y-79992256D01*
X117835226Y-79803898D01*
X117875000Y-79603939D01*
X117875000Y-79400061D01*
X117835226Y-79200102D01*
X117757205Y-79011744D01*
X117643937Y-78842226D01*
X117499774Y-78698063D01*
X117330256Y-78584795D01*
X117141898Y-78506774D01*
X116941939Y-78467000D01*
X116882631Y-78467000D01*
X102616000Y-64200370D01*
X102616000Y-62545630D01*
X119615000Y-79544631D01*
X119615000Y-79603939D01*
X119654774Y-79803898D01*
X119732795Y-79992256D01*
X119846063Y-80161774D01*
X119990226Y-80305937D01*
X120159744Y-80419205D01*
X120348102Y-80497226D01*
X120548061Y-80537000D01*
X120751939Y-80537000D01*
X120951898Y-80497226D01*
X121140256Y-80419205D01*
X121309774Y-80305937D01*
X121453937Y-80161774D01*
X121567205Y-79992256D01*
X121645226Y-79803898D01*
X121685000Y-79603939D01*
X121685000Y-79400061D01*
X121645226Y-79200102D01*
X121567205Y-79011744D01*
X121453937Y-78842226D01*
X121309774Y-78698063D01*
X121140256Y-78584795D01*
X120951898Y-78506774D01*
X120751939Y-78467000D01*
X120692631Y-78467000D01*
X103632000Y-61406370D01*
X103632000Y-59751630D01*
X123425000Y-79544631D01*
X123425000Y-79603939D01*
X123464774Y-79803898D01*
X123542795Y-79992256D01*
X123656063Y-80161774D01*
X123800226Y-80305937D01*
X123969744Y-80419205D01*
X124158102Y-80497226D01*
X124358061Y-80537000D01*
X124561939Y-80537000D01*
X124761898Y-80497226D01*
X124950256Y-80419205D01*
X125119774Y-80305937D01*
X125263937Y-80161774D01*
X125377205Y-79992256D01*
X125455226Y-79803898D01*
X125495000Y-79603939D01*
X125495000Y-79400061D01*
X125455226Y-79200102D01*
X125377205Y-79011744D01*
X125263937Y-78842226D01*
X125119774Y-78698063D01*
X124950256Y-78584795D01*
X124761898Y-78506774D01*
X124561939Y-78467000D01*
X124502631Y-78467000D01*
X104648000Y-58612370D01*
X104648000Y-56957630D01*
X106929648Y-59239279D01*
X106929654Y-59239284D01*
X127235000Y-79544631D01*
X127235000Y-79603939D01*
X127274774Y-79803898D01*
X127352795Y-79992256D01*
X127466063Y-80161774D01*
X127610226Y-80305937D01*
X127779744Y-80419205D01*
X127968102Y-80497226D01*
X128168061Y-80537000D01*
X128371939Y-80537000D01*
X128571898Y-80497226D01*
X128760256Y-80419205D01*
X128929774Y-80305937D01*
X129073937Y-80161774D01*
X129187205Y-79992256D01*
X129265226Y-79803898D01*
X129305000Y-79603939D01*
X129305000Y-79400061D01*
X129265226Y-79200102D01*
X129187205Y-79011744D01*
X129073937Y-78842226D01*
X128929774Y-78698063D01*
X128760256Y-78584795D01*
X128571898Y-78506774D01*
X128371939Y-78467000D01*
X128312631Y-78467000D01*
X108007284Y-58161654D01*
X108007279Y-58161648D01*
X105664000Y-55818370D01*
X105664000Y-50845059D01*
X105684774Y-50949498D01*
X105762795Y-51137856D01*
X105876063Y-51307374D01*
X106020226Y-51451537D01*
X106189744Y-51564805D01*
X106378102Y-51642826D01*
X106578061Y-51682600D01*
X106781939Y-51682600D01*
X106981898Y-51642826D01*
X107170256Y-51564805D01*
X107212468Y-51536600D01*
X110694132Y-51536600D01*
X110736344Y-51564805D01*
X110924702Y-51642826D01*
X111124661Y-51682600D01*
X111328539Y-51682600D01*
X111528498Y-51642826D01*
X111716856Y-51564805D01*
X111886374Y-51451537D01*
X112030537Y-51307374D01*
X112143805Y-51137856D01*
X112221826Y-50949498D01*
X112261600Y-50749539D01*
X112261600Y-50545661D01*
X112221826Y-50345702D01*
X112143805Y-50157344D01*
X112030537Y-49987826D01*
X111886374Y-49843663D01*
X111716856Y-49730395D01*
X111528498Y-49652374D01*
X111328539Y-49612600D01*
X111124661Y-49612600D01*
X110924702Y-49652374D01*
X110736344Y-49730395D01*
X110694132Y-49758600D01*
X107212468Y-49758600D01*
X107170256Y-49730395D01*
X106981898Y-49652374D01*
X106781939Y-49612600D01*
X106578061Y-49612600D01*
X106378102Y-49652374D01*
X106189744Y-49730395D01*
X106020226Y-49843663D01*
X105876063Y-49987826D01*
X105762795Y-50157344D01*
X105684774Y-50345702D01*
X105664000Y-50450141D01*
X105664000Y-48067630D01*
X106106631Y-47625000D01*
X107502289Y-47625000D01*
X107544226Y-47666937D01*
X107713744Y-47780205D01*
X107902102Y-47858226D01*
X108102061Y-47898000D01*
X108305939Y-47898000D01*
X108505898Y-47858226D01*
X108694256Y-47780205D01*
X108863774Y-47666937D01*
X108905711Y-47625000D01*
X116929577Y-47625000D01*
X116967000Y-47628686D01*
X117004423Y-47625000D01*
X117004426Y-47625000D01*
X117116378Y-47613974D01*
X117260015Y-47570402D01*
X117392392Y-47499645D01*
X117508422Y-47404422D01*
X117532284Y-47375346D01*
X120146346Y-44761284D01*
X120175422Y-44737422D01*
X120268176Y-44624401D01*
X120270645Y-44621393D01*
X120308465Y-44550636D01*
X120341402Y-44489015D01*
X120384974Y-44345378D01*
X120396000Y-44233426D01*
X120396000Y-44233423D01*
X120399686Y-44196000D01*
X120396000Y-44158577D01*
X120396000Y-43834030D01*
X120421884Y-43846372D01*
X120705412Y-43918340D01*
X120997532Y-43933612D01*
X121287020Y-43891600D01*
X121562748Y-43793920D01*
X121700158Y-43720473D01*
X121777793Y-43471398D01*
X120929001Y-42622606D01*
X120914859Y-42636749D01*
X120735254Y-42457144D01*
X120749396Y-42443001D01*
X120735254Y-42428859D01*
X120914859Y-42249254D01*
X120929001Y-42263396D01*
X121777793Y-41414604D01*
X121702272Y-41172312D01*
X121875633Y-41056476D01*
X122082476Y-40849633D01*
X122199001Y-40675241D01*
X122315526Y-40849633D01*
X122522369Y-41056476D01*
X122696761Y-41173001D01*
X122522369Y-41289526D01*
X122315526Y-41496369D01*
X122199690Y-41669730D01*
X121957398Y-41594209D01*
X121108606Y-42443001D01*
X121957398Y-43291793D01*
X122199690Y-43216272D01*
X122315526Y-43389633D01*
X122522369Y-43596476D01*
X122765590Y-43758991D01*
X123035843Y-43870933D01*
X123322741Y-43928001D01*
X123615261Y-43928001D01*
X123902159Y-43870933D01*
X124172412Y-43758991D01*
X124415633Y-43596476D01*
X124622476Y-43389633D01*
X124739001Y-43215241D01*
X124855526Y-43389633D01*
X125062369Y-43596476D01*
X125305590Y-43758991D01*
X125575843Y-43870933D01*
X125862741Y-43928001D01*
X126155261Y-43928001D01*
X126442159Y-43870933D01*
X126712412Y-43758991D01*
X126955633Y-43596476D01*
X127162476Y-43389633D01*
X127279001Y-43215241D01*
X127395526Y-43389633D01*
X127602369Y-43596476D01*
X127845590Y-43758991D01*
X128115843Y-43870933D01*
X128402741Y-43928001D01*
X128695261Y-43928001D01*
X128982159Y-43870933D01*
X129252412Y-43758991D01*
X129495633Y-43596476D01*
X129702476Y-43389633D01*
X129819001Y-43215241D01*
X129935526Y-43389633D01*
X130142369Y-43596476D01*
X130385590Y-43758991D01*
X130655843Y-43870933D01*
X130942741Y-43928001D01*
X131235261Y-43928001D01*
X131522159Y-43870933D01*
X131792412Y-43758991D01*
X132035633Y-43596476D01*
X132242476Y-43389633D01*
X132359001Y-43215241D01*
X132475526Y-43389633D01*
X132682369Y-43596476D01*
X132925590Y-43758991D01*
X133195843Y-43870933D01*
X133482741Y-43928001D01*
X133775261Y-43928001D01*
X134062159Y-43870933D01*
X134332412Y-43758991D01*
X134575633Y-43596476D01*
X134782476Y-43389633D01*
X134899001Y-43215241D01*
X135015526Y-43389633D01*
X135222369Y-43596476D01*
X135465590Y-43758991D01*
X135735843Y-43870933D01*
X136022741Y-43928001D01*
X136315261Y-43928001D01*
X136602159Y-43870933D01*
X136872412Y-43758991D01*
X137115633Y-43596476D01*
X137240711Y-43471398D01*
X137860209Y-43471398D01*
X137937844Y-43720473D01*
X138201884Y-43846372D01*
X138485412Y-43918340D01*
X138777532Y-43933612D01*
X139067020Y-43891600D01*
X139342748Y-43793920D01*
X139480158Y-43720473D01*
X139557793Y-43471398D01*
X138709001Y-42622606D01*
X137860209Y-43471398D01*
X137240711Y-43471398D01*
X137322476Y-43389633D01*
X137438312Y-43216272D01*
X137680604Y-43291793D01*
X138529396Y-42443001D01*
X138888606Y-42443001D01*
X139737398Y-43291793D01*
X139986473Y-43214158D01*
X140112372Y-42950118D01*
X140184340Y-42666590D01*
X140199612Y-42374470D01*
X140157600Y-42084982D01*
X140059920Y-41809254D01*
X139986473Y-41671844D01*
X139737398Y-41594209D01*
X138888606Y-42443001D01*
X138529396Y-42443001D01*
X137680604Y-41594209D01*
X137438312Y-41669730D01*
X137322476Y-41496369D01*
X137115633Y-41289526D01*
X136941241Y-41173001D01*
X137115633Y-41056476D01*
X137322476Y-40849633D01*
X137439001Y-40675241D01*
X137555526Y-40849633D01*
X137762369Y-41056476D01*
X137935730Y-41172312D01*
X137860209Y-41414604D01*
X138709001Y-42263396D01*
X139557793Y-41414604D01*
X139482272Y-41172312D01*
X139655633Y-41056476D01*
X139862476Y-40849633D01*
X140024991Y-40606412D01*
X140136933Y-40336159D01*
X140194001Y-40049261D01*
X140194001Y-39756741D01*
X140136933Y-39469843D01*
X140024991Y-39199590D01*
X139862476Y-38956369D01*
X139655633Y-38749526D01*
X139633893Y-38735000D01*
X145001738Y-38735000D01*
X145054904Y-38763269D01*
X145261930Y-38932116D01*
X145415000Y-39117147D01*
X145415000Y-40077869D01*
X145237364Y-39812018D01*
X144939984Y-39514638D01*
X144590303Y-39280989D01*
X144201757Y-39120048D01*
X143789280Y-39038001D01*
X143368722Y-39038001D01*
X142956245Y-39120048D01*
X142567699Y-39280989D01*
X142218018Y-39514638D01*
X141920638Y-39812018D01*
X141686989Y-40161699D01*
X141526048Y-40550245D01*
X141444001Y-40962722D01*
X141444001Y-41383280D01*
X141526048Y-41795757D01*
X141686989Y-42184303D01*
X141920638Y-42533984D01*
X142218018Y-42831364D01*
X142567699Y-43065013D01*
X142956245Y-43225954D01*
X143368722Y-43308001D01*
X143789280Y-43308001D01*
X144201757Y-43225954D01*
X144590303Y-43065013D01*
X144939984Y-42831364D01*
X145237364Y-42533984D01*
X145415000Y-42268133D01*
X145415000Y-89077869D01*
X145237364Y-88812018D01*
X144939984Y-88514638D01*
X144590303Y-88280989D01*
X144201757Y-88120048D01*
X143789280Y-88038001D01*
X143368722Y-88038001D01*
X142956245Y-88120048D01*
X142567699Y-88280989D01*
X142218018Y-88514638D01*
X141920638Y-88812018D01*
X141686989Y-89161699D01*
X141526048Y-89550245D01*
X141444001Y-89962722D01*
X141444001Y-90383280D01*
X141526048Y-90795757D01*
X141686989Y-91184303D01*
X141920638Y-91533984D01*
X142218018Y-91831364D01*
X142567699Y-92065013D01*
X142956245Y-92225954D01*
X143368722Y-92308001D01*
X143789280Y-92308001D01*
X144201757Y-92225954D01*
X144590303Y-92065013D01*
X144939984Y-91831364D01*
X145237364Y-91533984D01*
X145415000Y-91268133D01*
X145415000Y-92964000D01*
X145417440Y-92988776D01*
X145424667Y-93012601D01*
X145436403Y-93034557D01*
X145452197Y-93053803D01*
X145471443Y-93069597D01*
X145493399Y-93081333D01*
X145517224Y-93088560D01*
X145542000Y-93091000D01*
X162781738Y-93091000D01*
X162834904Y-93119269D01*
X163041930Y-93288116D01*
X163195000Y-93473147D01*
X163195000Y-101895440D01*
X163109346Y-101922611D01*
X163054374Y-101946172D01*
X162999059Y-101968971D01*
X162990953Y-101973354D01*
X162977045Y-101981000D01*
X161671000Y-101981000D01*
X161646224Y-101983440D01*
X161622399Y-101990667D01*
X161600443Y-102002403D01*
X161581197Y-102018197D01*
X161565403Y-102037443D01*
X161553667Y-102059399D01*
X161546440Y-102083224D01*
X161544000Y-102108000D01*
X161544000Y-103635675D01*
X161480245Y-103852296D01*
X161469045Y-103911012D01*
X161457007Y-103969654D01*
X161456108Y-103978825D01*
X161420166Y-104373770D01*
X161420584Y-104433586D01*
X161420166Y-104493403D01*
X161421065Y-104502574D01*
X161462518Y-104896977D01*
X161474548Y-104955583D01*
X161485755Y-105014335D01*
X161488419Y-105023157D01*
X161544000Y-105202710D01*
X161544000Y-106680000D01*
X161546440Y-106704776D01*
X161553667Y-106728601D01*
X161565403Y-106750557D01*
X161581197Y-106769803D01*
X161600443Y-106785597D01*
X161622399Y-106797333D01*
X161646224Y-106804560D01*
X161671000Y-106807000D01*
X162886372Y-106807000D01*
X163025213Y-106880823D01*
X163080505Y-106903612D01*
X163135501Y-106927184D01*
X163144305Y-106929909D01*
X163195000Y-106945215D01*
X163195000Y-115872530D01*
X163048689Y-116051925D01*
X162862504Y-116205950D01*
X41687480Y-116456831D01*
X41415524Y-116430166D01*
X41159776Y-116352951D01*
X40923896Y-116227531D01*
X40767000Y-116099570D01*
X40767000Y-106865904D01*
X40767847Y-106865446D01*
X40874160Y-106807000D01*
X41910000Y-106807000D01*
X41934776Y-106804560D01*
X41958601Y-106797333D01*
X41980557Y-106785597D01*
X41999803Y-106769803D01*
X42015597Y-106750557D01*
X42027333Y-106728601D01*
X42034560Y-106704776D01*
X42037000Y-106680000D01*
X42037000Y-105641951D01*
X42118332Y-105486378D01*
X42140737Y-105430923D01*
X42163922Y-105375768D01*
X42166585Y-105366946D01*
X42278555Y-104986504D01*
X42289755Y-104927788D01*
X42301793Y-104869146D01*
X42302692Y-104859975D01*
X42338634Y-104465030D01*
X42338216Y-104405214D01*
X42338634Y-104345397D01*
X42337734Y-104336226D01*
X42296282Y-103941822D01*
X42284255Y-103883229D01*
X42273045Y-103824465D01*
X42270381Y-103815643D01*
X42153110Y-103436801D01*
X42129926Y-103381650D01*
X42107520Y-103326192D01*
X42103194Y-103318055D01*
X42037000Y-103195632D01*
X42037000Y-102108000D01*
X42034560Y-102083224D01*
X42027333Y-102059399D01*
X42015597Y-102037443D01*
X41999803Y-102018197D01*
X41980557Y-102002403D01*
X41958601Y-101990667D01*
X41934776Y-101983440D01*
X41910000Y-101981000D01*
X40776887Y-101981000D01*
X40733587Y-101957977D01*
X40678267Y-101935176D01*
X40623299Y-101911616D01*
X40614499Y-101908892D01*
X40614493Y-101908890D01*
X40513000Y-101878248D01*
X40513000Y-89962722D01*
X83444001Y-89962722D01*
X83444001Y-90383280D01*
X83526048Y-90795757D01*
X83686989Y-91184303D01*
X83920638Y-91533984D01*
X84218018Y-91831364D01*
X84567699Y-92065013D01*
X84956245Y-92225954D01*
X85368722Y-92308001D01*
X85789280Y-92308001D01*
X86201757Y-92225954D01*
X86590303Y-92065013D01*
X86939984Y-91831364D01*
X87237364Y-91533984D01*
X87471013Y-91184303D01*
X87631954Y-90795757D01*
X87714001Y-90383280D01*
X87714001Y-89962722D01*
X87631954Y-89550245D01*
X87471013Y-89161699D01*
X87237364Y-88812018D01*
X86939984Y-88514638D01*
X86590303Y-88280989D01*
X86201757Y-88120048D01*
X85789280Y-88038001D01*
X85368722Y-88038001D01*
X84956245Y-88120048D01*
X84567699Y-88280989D01*
X84218018Y-88514638D01*
X83920638Y-88812018D01*
X83686989Y-89161699D01*
X83526048Y-89550245D01*
X83444001Y-89962722D01*
X40513000Y-89962722D01*
X40513000Y-85015721D01*
X41551000Y-85015721D01*
X41551000Y-85436279D01*
X41633047Y-85848756D01*
X41793988Y-86237302D01*
X42027637Y-86586983D01*
X42325017Y-86884363D01*
X42674698Y-87118012D01*
X43063244Y-87278953D01*
X43475721Y-87361000D01*
X43896279Y-87361000D01*
X44308756Y-87278953D01*
X44697302Y-87118012D01*
X45046983Y-86884363D01*
X45055346Y-86876000D01*
X46357928Y-86876000D01*
X46357928Y-87876000D01*
X46374992Y-88049254D01*
X46425528Y-88215850D01*
X46507595Y-88369386D01*
X46618038Y-88503962D01*
X46752614Y-88614405D01*
X46906150Y-88696472D01*
X47072746Y-88747008D01*
X47246000Y-88764072D01*
X48766000Y-88764072D01*
X48939254Y-88747008D01*
X49105850Y-88696472D01*
X49259386Y-88614405D01*
X49393962Y-88503962D01*
X49504405Y-88369386D01*
X49560201Y-88265000D01*
X67012340Y-88265000D01*
X67056000Y-88269300D01*
X67099660Y-88265000D01*
X67099667Y-88265000D01*
X67230274Y-88252136D01*
X67397851Y-88201303D01*
X67552291Y-88118753D01*
X67687659Y-88007659D01*
X67715499Y-87973736D01*
X69405242Y-86283994D01*
X69439159Y-86256159D01*
X69550253Y-86120791D01*
X69632803Y-85966351D01*
X69683636Y-85798774D01*
X69696500Y-85668167D01*
X69696500Y-85668161D01*
X69700800Y-85624501D01*
X69696500Y-85580841D01*
X69696500Y-78994000D01*
X92394370Y-78994000D01*
X92945000Y-79544631D01*
X92945000Y-79603939D01*
X92984774Y-79803898D01*
X93062795Y-79992256D01*
X93176063Y-80161774D01*
X93320226Y-80305937D01*
X93489744Y-80419205D01*
X93678102Y-80497226D01*
X93878061Y-80537000D01*
X94081939Y-80537000D01*
X94281898Y-80497226D01*
X94470256Y-80419205D01*
X94639774Y-80305937D01*
X94783937Y-80161774D01*
X94897205Y-79992256D01*
X94975226Y-79803898D01*
X95015000Y-79603939D01*
X95015000Y-79400061D01*
X94975226Y-79200102D01*
X94897205Y-79011744D01*
X94783937Y-78842226D01*
X94639774Y-78698063D01*
X94470256Y-78584795D01*
X94281898Y-78506774D01*
X94081939Y-78467000D01*
X94022631Y-78467000D01*
X93275284Y-77719654D01*
X93251422Y-77690578D01*
X93135392Y-77595355D01*
X93003015Y-77524598D01*
X92859378Y-77481026D01*
X92747426Y-77470000D01*
X92747423Y-77470000D01*
X92710000Y-77466314D01*
X92672577Y-77470000D01*
X69696500Y-77470000D01*
X69696500Y-68630968D01*
X69724705Y-68588756D01*
X69802726Y-68400398D01*
X69842500Y-68200439D01*
X69842500Y-67996561D01*
X89362500Y-67996561D01*
X89362500Y-68200439D01*
X89402274Y-68400398D01*
X89480295Y-68588756D01*
X89593563Y-68758274D01*
X89635500Y-68800211D01*
X89635501Y-72072067D01*
X89631814Y-72109500D01*
X89646527Y-72258878D01*
X89690099Y-72402515D01*
X89760855Y-72534892D01*
X89832221Y-72621851D01*
X89856079Y-72650922D01*
X89885149Y-72674779D01*
X96755000Y-79544631D01*
X96755000Y-79603939D01*
X96794774Y-79803898D01*
X96872795Y-79992256D01*
X96986063Y-80161774D01*
X97130226Y-80305937D01*
X97299744Y-80419205D01*
X97488102Y-80497226D01*
X97688061Y-80537000D01*
X97891939Y-80537000D01*
X98091898Y-80497226D01*
X98280256Y-80419205D01*
X98449774Y-80305937D01*
X98593937Y-80161774D01*
X98707205Y-79992256D01*
X98785226Y-79803898D01*
X98825000Y-79603939D01*
X98825000Y-79400061D01*
X98785226Y-79200102D01*
X98707205Y-79011744D01*
X98593937Y-78842226D01*
X98449774Y-78698063D01*
X98280256Y-78584795D01*
X98091898Y-78506774D01*
X97891939Y-78467000D01*
X97832631Y-78467000D01*
X91159500Y-71793870D01*
X91159500Y-68800211D01*
X91201437Y-68758274D01*
X91314705Y-68588756D01*
X91392726Y-68400398D01*
X91432500Y-68200439D01*
X91432500Y-67996561D01*
X91392726Y-67796602D01*
X91314705Y-67608244D01*
X91201437Y-67438726D01*
X91057274Y-67294563D01*
X90887756Y-67181295D01*
X90699398Y-67103274D01*
X90499439Y-67063500D01*
X90295561Y-67063500D01*
X90095602Y-67103274D01*
X89907244Y-67181295D01*
X89737726Y-67294563D01*
X89593563Y-67438726D01*
X89480295Y-67608244D01*
X89402274Y-67796602D01*
X89362500Y-67996561D01*
X69842500Y-67996561D01*
X69802726Y-67796602D01*
X69724705Y-67608244D01*
X69611437Y-67438726D01*
X69467274Y-67294563D01*
X69297756Y-67181295D01*
X69109398Y-67103274D01*
X68909439Y-67063500D01*
X68705561Y-67063500D01*
X68505602Y-67103274D01*
X68317244Y-67181295D01*
X68147726Y-67294563D01*
X68003563Y-67438726D01*
X67890295Y-67608244D01*
X67812274Y-67796602D01*
X67772500Y-67996561D01*
X67772500Y-68200439D01*
X67812274Y-68400398D01*
X67890295Y-68588756D01*
X67918500Y-68630968D01*
X67918501Y-77960824D01*
X67918500Y-77960834D01*
X67918501Y-85256263D01*
X66687765Y-86487000D01*
X49560201Y-86487000D01*
X49504405Y-86382614D01*
X49393962Y-86248038D01*
X49259386Y-86137595D01*
X49105850Y-86055528D01*
X48939254Y-86004992D01*
X48766000Y-85987928D01*
X47246000Y-85987928D01*
X47072746Y-86004992D01*
X46906150Y-86055528D01*
X46752614Y-86137595D01*
X46618038Y-86248038D01*
X46507595Y-86382614D01*
X46425528Y-86536150D01*
X46374992Y-86702746D01*
X46357928Y-86876000D01*
X45055346Y-86876000D01*
X45344363Y-86586983D01*
X45578012Y-86237302D01*
X45738953Y-85848756D01*
X45821000Y-85436279D01*
X45821000Y-85015721D01*
X45761618Y-84717185D01*
X46403682Y-84717185D01*
X46417827Y-84788684D01*
X46523858Y-85039868D01*
X46676855Y-85265540D01*
X46870939Y-85457028D01*
X47098651Y-85606972D01*
X47351240Y-85709611D01*
X47619000Y-85761000D01*
X47879000Y-85761000D01*
X47879000Y-84503000D01*
X48133000Y-84503000D01*
X48133000Y-85761000D01*
X48393000Y-85761000D01*
X48660760Y-85709611D01*
X48913349Y-85606972D01*
X49141061Y-85457028D01*
X49335145Y-85265540D01*
X49488142Y-85039868D01*
X49594173Y-84788684D01*
X49608318Y-84717185D01*
X49485656Y-84503000D01*
X48133000Y-84503000D01*
X47879000Y-84503000D01*
X46526344Y-84503000D01*
X46403682Y-84717185D01*
X45761618Y-84717185D01*
X45738953Y-84603244D01*
X45578012Y-84214698D01*
X45457819Y-84034815D01*
X46403682Y-84034815D01*
X46526344Y-84249000D01*
X47879000Y-84249000D01*
X47879000Y-82991000D01*
X48133000Y-82991000D01*
X48133000Y-84249000D01*
X49485656Y-84249000D01*
X49608318Y-84034815D01*
X49594173Y-83963316D01*
X49488142Y-83712132D01*
X49335145Y-83486460D01*
X49141061Y-83294972D01*
X48913349Y-83145028D01*
X48660760Y-83042389D01*
X48393000Y-82991000D01*
X48133000Y-82991000D01*
X47879000Y-82991000D01*
X47619000Y-82991000D01*
X47351240Y-83042389D01*
X47098651Y-83145028D01*
X46870939Y-83294972D01*
X46676855Y-83486460D01*
X46523858Y-83712132D01*
X46417827Y-83963316D01*
X46403682Y-84034815D01*
X45457819Y-84034815D01*
X45344363Y-83865017D01*
X45046983Y-83567637D01*
X44697302Y-83333988D01*
X44308756Y-83173047D01*
X43896279Y-83091000D01*
X43475721Y-83091000D01*
X43063244Y-83173047D01*
X42674698Y-83333988D01*
X42325017Y-83567637D01*
X42027637Y-83865017D01*
X41793988Y-84214698D01*
X41633047Y-84603244D01*
X41551000Y-85015721D01*
X40513000Y-85015721D01*
X40513000Y-81376000D01*
X46354299Y-81376000D01*
X46381040Y-81647507D01*
X46460236Y-81908581D01*
X46588843Y-82149188D01*
X46761919Y-82360081D01*
X46972812Y-82533157D01*
X47213419Y-82661764D01*
X47474493Y-82740960D01*
X47677963Y-82761000D01*
X48334037Y-82761000D01*
X48537507Y-82740960D01*
X48798581Y-82661764D01*
X49039188Y-82533157D01*
X49250081Y-82360081D01*
X49423157Y-82149188D01*
X49551764Y-81908581D01*
X49630960Y-81647507D01*
X49657701Y-81376000D01*
X49630960Y-81104493D01*
X49551764Y-80843419D01*
X49423157Y-80602812D01*
X49250081Y-80391919D01*
X49039188Y-80218843D01*
X48798581Y-80090236D01*
X48537507Y-80011040D01*
X48334037Y-79991000D01*
X47677963Y-79991000D01*
X47474493Y-80011040D01*
X47213419Y-80090236D01*
X46972812Y-80218843D01*
X46761919Y-80391919D01*
X46588843Y-80602812D01*
X46460236Y-80843419D01*
X46381040Y-81104493D01*
X46354299Y-81376000D01*
X40513000Y-81376000D01*
X40513000Y-78376000D01*
X46354299Y-78376000D01*
X46381040Y-78647507D01*
X46460236Y-78908581D01*
X46588843Y-79149188D01*
X46761919Y-79360081D01*
X46972812Y-79533157D01*
X47213419Y-79661764D01*
X47474493Y-79740960D01*
X47677963Y-79761000D01*
X48334037Y-79761000D01*
X48537507Y-79740960D01*
X48798581Y-79661764D01*
X49039188Y-79533157D01*
X49250081Y-79360081D01*
X49423157Y-79149188D01*
X49551764Y-78908581D01*
X49630960Y-78647507D01*
X49657701Y-78376000D01*
X49630960Y-78104493D01*
X49551764Y-77843419D01*
X49423157Y-77602812D01*
X49250081Y-77391919D01*
X49039188Y-77218843D01*
X48798581Y-77090236D01*
X48537507Y-77011040D01*
X48334037Y-76991000D01*
X47677963Y-76991000D01*
X47474493Y-77011040D01*
X47213419Y-77090236D01*
X46972812Y-77218843D01*
X46761919Y-77391919D01*
X46588843Y-77602812D01*
X46460236Y-77843419D01*
X46381040Y-78104493D01*
X46354299Y-78376000D01*
X40513000Y-78376000D01*
X40513000Y-74315721D01*
X41551000Y-74315721D01*
X41551000Y-74736279D01*
X41633047Y-75148756D01*
X41793988Y-75537302D01*
X42027637Y-75886983D01*
X42325017Y-76184363D01*
X42674698Y-76418012D01*
X43063244Y-76578953D01*
X43475721Y-76661000D01*
X43896279Y-76661000D01*
X44308756Y-76578953D01*
X44697302Y-76418012D01*
X45046983Y-76184363D01*
X45344363Y-75886983D01*
X45578012Y-75537302D01*
X45644825Y-75376000D01*
X46354299Y-75376000D01*
X46381040Y-75647507D01*
X46460236Y-75908581D01*
X46588843Y-76149188D01*
X46761919Y-76360081D01*
X46972812Y-76533157D01*
X47213419Y-76661764D01*
X47474493Y-76740960D01*
X47677963Y-76761000D01*
X48334037Y-76761000D01*
X48537507Y-76740960D01*
X48798581Y-76661764D01*
X49039188Y-76533157D01*
X49250081Y-76360081D01*
X49423157Y-76149188D01*
X49551764Y-75908581D01*
X49630960Y-75647507D01*
X49657701Y-75376000D01*
X49630960Y-75104493D01*
X49551764Y-74843419D01*
X49423157Y-74602812D01*
X49250081Y-74391919D01*
X49039188Y-74218843D01*
X48798581Y-74090236D01*
X48537507Y-74011040D01*
X48334037Y-73991000D01*
X47677963Y-73991000D01*
X47474493Y-74011040D01*
X47213419Y-74090236D01*
X46972812Y-74218843D01*
X46761919Y-74391919D01*
X46588843Y-74602812D01*
X46460236Y-74843419D01*
X46381040Y-75104493D01*
X46354299Y-75376000D01*
X45644825Y-75376000D01*
X45738953Y-75148756D01*
X45821000Y-74736279D01*
X45821000Y-74315721D01*
X45738953Y-73903244D01*
X45578012Y-73514698D01*
X45344363Y-73165017D01*
X45046983Y-72867637D01*
X44697302Y-72633988D01*
X44308756Y-72473047D01*
X43896279Y-72391000D01*
X43475721Y-72391000D01*
X43063244Y-72473047D01*
X42674698Y-72633988D01*
X42325017Y-72867637D01*
X42027637Y-73165017D01*
X41793988Y-73514698D01*
X41633047Y-73903244D01*
X41551000Y-74315721D01*
X40513000Y-74315721D01*
X40513000Y-72376000D01*
X46354299Y-72376000D01*
X46381040Y-72647507D01*
X46460236Y-72908581D01*
X46588843Y-73149188D01*
X46761919Y-73360081D01*
X46972812Y-73533157D01*
X47213419Y-73661764D01*
X47474493Y-73740960D01*
X47677963Y-73761000D01*
X48334037Y-73761000D01*
X48537507Y-73740960D01*
X48798581Y-73661764D01*
X49039188Y-73533157D01*
X49250081Y-73360081D01*
X49423157Y-73149188D01*
X49551764Y-72908581D01*
X49630960Y-72647507D01*
X49657701Y-72376000D01*
X49630960Y-72104493D01*
X49551764Y-71843419D01*
X49423157Y-71602812D01*
X49250081Y-71391919D01*
X49039188Y-71218843D01*
X48798581Y-71090236D01*
X48537507Y-71011040D01*
X48334037Y-70991000D01*
X47677963Y-70991000D01*
X47474493Y-71011040D01*
X47213419Y-71090236D01*
X46972812Y-71218843D01*
X46761919Y-71391919D01*
X46588843Y-71602812D01*
X46460236Y-71843419D01*
X46381040Y-72104493D01*
X46354299Y-72376000D01*
X40513000Y-72376000D01*
X40513000Y-63362408D01*
X69723000Y-63362408D01*
X69723000Y-63637592D01*
X69776686Y-63907490D01*
X69881995Y-64161727D01*
X70034880Y-64390535D01*
X70229465Y-64585120D01*
X70458273Y-64738005D01*
X70712510Y-64843314D01*
X70982408Y-64897000D01*
X71257592Y-64897000D01*
X71527490Y-64843314D01*
X71781727Y-64738005D01*
X72010535Y-64585120D01*
X72205120Y-64390535D01*
X72358005Y-64161727D01*
X72463314Y-63907490D01*
X72517000Y-63637592D01*
X72517000Y-63362408D01*
X91313000Y-63362408D01*
X91313000Y-63637592D01*
X91366686Y-63907490D01*
X91471995Y-64161727D01*
X91624880Y-64390535D01*
X91819465Y-64585120D01*
X92048273Y-64738005D01*
X92302510Y-64843314D01*
X92572408Y-64897000D01*
X92847592Y-64897000D01*
X93117490Y-64843314D01*
X93371727Y-64738005D01*
X93600535Y-64585120D01*
X93795120Y-64390535D01*
X93948005Y-64161727D01*
X94053314Y-63907490D01*
X94107000Y-63637592D01*
X94107000Y-63362408D01*
X94053314Y-63092510D01*
X93948005Y-62838273D01*
X93795120Y-62609465D01*
X93600535Y-62414880D01*
X93371727Y-62261995D01*
X93300057Y-62232308D01*
X93313023Y-62227636D01*
X93428980Y-62165656D01*
X93495960Y-61925565D01*
X92710000Y-61139605D01*
X91924040Y-61925565D01*
X91991020Y-62165656D01*
X92126760Y-62229485D01*
X92048273Y-62261995D01*
X91819465Y-62414880D01*
X91624880Y-62609465D01*
X91471995Y-62838273D01*
X91366686Y-63092510D01*
X91313000Y-63362408D01*
X72517000Y-63362408D01*
X72463314Y-63092510D01*
X72358005Y-62838273D01*
X72205120Y-62609465D01*
X72010535Y-62414880D01*
X71781727Y-62261995D01*
X71710057Y-62232308D01*
X71723023Y-62227636D01*
X71838980Y-62165656D01*
X71905960Y-61925565D01*
X71120000Y-61139605D01*
X70334040Y-61925565D01*
X70401020Y-62165656D01*
X70536760Y-62229485D01*
X70458273Y-62261995D01*
X70229465Y-62414880D01*
X70034880Y-62609465D01*
X69881995Y-62838273D01*
X69776686Y-63092510D01*
X69723000Y-63362408D01*
X40513000Y-63362408D01*
X40513000Y-61032017D01*
X69718090Y-61032017D01*
X69759078Y-61304133D01*
X69852364Y-61563023D01*
X69914344Y-61678980D01*
X70154435Y-61745960D01*
X70940395Y-60960000D01*
X71299605Y-60960000D01*
X72085565Y-61745960D01*
X72325656Y-61678980D01*
X72442756Y-61429952D01*
X72509023Y-61162865D01*
X72521910Y-60887983D01*
X72480922Y-60615867D01*
X72387636Y-60356977D01*
X72325656Y-60241020D01*
X72085565Y-60174040D01*
X71299605Y-60960000D01*
X70940395Y-60960000D01*
X70154435Y-60174040D01*
X69914344Y-60241020D01*
X69797244Y-60490048D01*
X69730977Y-60757135D01*
X69718090Y-61032017D01*
X40513000Y-61032017D01*
X40513000Y-55821290D01*
X47650400Y-55821290D01*
X47650400Y-56446710D01*
X47772414Y-57060113D01*
X48011752Y-57637926D01*
X48359217Y-58157944D01*
X48801456Y-58600183D01*
X49321474Y-58947648D01*
X49899287Y-59186986D01*
X50512690Y-59309000D01*
X51138110Y-59309000D01*
X51751513Y-59186986D01*
X52329326Y-58947648D01*
X52849344Y-58600183D01*
X53167119Y-58282408D01*
X69723000Y-58282408D01*
X69723000Y-58557592D01*
X69776686Y-58827490D01*
X69881995Y-59081727D01*
X70034880Y-59310535D01*
X70229465Y-59505120D01*
X70458273Y-59658005D01*
X70529943Y-59687692D01*
X70516977Y-59692364D01*
X70401020Y-59754344D01*
X70334040Y-59994435D01*
X71120000Y-60780395D01*
X71905960Y-59994435D01*
X71838980Y-59754344D01*
X71703240Y-59690515D01*
X71781727Y-59658005D01*
X72010535Y-59505120D01*
X72205120Y-59310535D01*
X72358005Y-59081727D01*
X72463314Y-58827490D01*
X72517000Y-58557592D01*
X72517000Y-58282408D01*
X72463314Y-58012510D01*
X72358005Y-57758273D01*
X72205120Y-57529465D01*
X72010535Y-57334880D01*
X71781727Y-57181995D01*
X71527490Y-57076686D01*
X71257592Y-57023000D01*
X70982408Y-57023000D01*
X70712510Y-57076686D01*
X70458273Y-57181995D01*
X70229465Y-57334880D01*
X70034880Y-57529465D01*
X69881995Y-57758273D01*
X69776686Y-58012510D01*
X69723000Y-58282408D01*
X53167119Y-58282408D01*
X53291583Y-58157944D01*
X53639048Y-57637926D01*
X53878386Y-57060113D01*
X54000400Y-56446710D01*
X54000400Y-55821290D01*
X53878386Y-55207887D01*
X53639048Y-54630074D01*
X53291583Y-54110056D01*
X52849344Y-53667817D01*
X52329326Y-53320352D01*
X51751513Y-53081014D01*
X51138110Y-52959000D01*
X50512690Y-52959000D01*
X49899287Y-53081014D01*
X49321474Y-53320352D01*
X48801456Y-53667817D01*
X48359217Y-54110056D01*
X48011752Y-54630074D01*
X47772414Y-55207887D01*
X47650400Y-55821290D01*
X40513000Y-55821290D01*
X40513000Y-50491594D01*
X48773411Y-50491594D01*
X49054384Y-50913659D01*
X49606117Y-51208178D01*
X50204706Y-51389400D01*
X50827148Y-51450361D01*
X51449523Y-51388718D01*
X52047913Y-51206840D01*
X52596416Y-50913659D01*
X52877389Y-50491594D01*
X50825400Y-48439605D01*
X48773411Y-50491594D01*
X40513000Y-50491594D01*
X40513000Y-48261748D01*
X47635039Y-48261748D01*
X47696682Y-48884123D01*
X47878560Y-49482513D01*
X48171741Y-50031016D01*
X48593806Y-50311989D01*
X50645795Y-48260000D01*
X51005005Y-48260000D01*
X53056994Y-50311989D01*
X53479059Y-50031016D01*
X53495615Y-50000000D01*
X64601928Y-50000000D01*
X64601928Y-51600000D01*
X64614188Y-51724482D01*
X64650498Y-51844180D01*
X64709463Y-51954494D01*
X64788815Y-52051185D01*
X64885506Y-52130537D01*
X64995820Y-52189502D01*
X65115518Y-52225812D01*
X65240000Y-52238072D01*
X66840000Y-52238072D01*
X66964482Y-52225812D01*
X67084180Y-52189502D01*
X67194494Y-52130537D01*
X67291185Y-52051185D01*
X67370537Y-51954494D01*
X67429502Y-51844180D01*
X67465812Y-51724482D01*
X67478072Y-51600000D01*
X67478072Y-50000000D01*
X67465812Y-49875518D01*
X67429502Y-49755820D01*
X67370537Y-49645506D01*
X67291185Y-49548815D01*
X67194494Y-49469463D01*
X67084180Y-49410498D01*
X66964482Y-49374188D01*
X66840000Y-49361928D01*
X66832785Y-49361928D01*
X66853097Y-49292702D01*
X66040000Y-48479605D01*
X65226903Y-49292702D01*
X65247215Y-49361928D01*
X65240000Y-49361928D01*
X65115518Y-49374188D01*
X64995820Y-49410498D01*
X64885506Y-49469463D01*
X64788815Y-49548815D01*
X64709463Y-49645506D01*
X64650498Y-49755820D01*
X64614188Y-49875518D01*
X64601928Y-50000000D01*
X53495615Y-50000000D01*
X53773578Y-49479283D01*
X53954800Y-48880694D01*
X54004766Y-48370512D01*
X64599783Y-48370512D01*
X64641213Y-48650130D01*
X64736397Y-48916292D01*
X64803329Y-49041514D01*
X65047298Y-49113097D01*
X65860395Y-48300000D01*
X66219605Y-48300000D01*
X67032702Y-49113097D01*
X67276671Y-49041514D01*
X67397571Y-48786004D01*
X67466300Y-48511816D01*
X67480217Y-48229488D01*
X67438787Y-47949870D01*
X67343603Y-47683708D01*
X67276671Y-47558486D01*
X67032702Y-47486903D01*
X66219605Y-48300000D01*
X65860395Y-48300000D01*
X65047298Y-47486903D01*
X64803329Y-47558486D01*
X64682429Y-47813996D01*
X64613700Y-48088184D01*
X64599783Y-48370512D01*
X54004766Y-48370512D01*
X54015761Y-48258252D01*
X53954118Y-47635877D01*
X53854248Y-47307298D01*
X65226903Y-47307298D01*
X66040000Y-48120395D01*
X66853097Y-47307298D01*
X66781514Y-47063329D01*
X66526004Y-46942429D01*
X66251816Y-46873700D01*
X65969488Y-46859783D01*
X65689870Y-46901213D01*
X65423708Y-46996397D01*
X65298486Y-47063329D01*
X65226903Y-47307298D01*
X53854248Y-47307298D01*
X53772240Y-47037487D01*
X53479059Y-46488984D01*
X53056994Y-46208011D01*
X51005005Y-48260000D01*
X50645795Y-48260000D01*
X48593806Y-46208011D01*
X48171741Y-46488984D01*
X47877222Y-47040717D01*
X47696000Y-47639306D01*
X47635039Y-48261748D01*
X40513000Y-48261748D01*
X40513000Y-46028406D01*
X48773411Y-46028406D01*
X50825400Y-48080395D01*
X52877389Y-46028406D01*
X52604219Y-45618061D01*
X73895000Y-45618061D01*
X73895000Y-45821939D01*
X73934774Y-46021898D01*
X74012795Y-46210256D01*
X74041000Y-46252468D01*
X74041001Y-61697531D01*
X74012795Y-61739744D01*
X73934774Y-61928102D01*
X73895000Y-62128061D01*
X73895000Y-62331939D01*
X73934774Y-62531898D01*
X74012795Y-62720256D01*
X74126063Y-62889774D01*
X74270226Y-63033937D01*
X74439744Y-63147205D01*
X74628102Y-63225226D01*
X74828061Y-63265000D01*
X75031939Y-63265000D01*
X75231898Y-63225226D01*
X75420256Y-63147205D01*
X75589774Y-63033937D01*
X75733937Y-62889774D01*
X75847205Y-62720256D01*
X75925226Y-62531898D01*
X75965000Y-62331939D01*
X75965000Y-62128061D01*
X75925226Y-61928102D01*
X75847205Y-61739744D01*
X75819000Y-61697532D01*
X75819000Y-61032017D01*
X91308090Y-61032017D01*
X91349078Y-61304133D01*
X91442364Y-61563023D01*
X91504344Y-61678980D01*
X91744435Y-61745960D01*
X92530395Y-60960000D01*
X92889605Y-60960000D01*
X93675565Y-61745960D01*
X93915656Y-61678980D01*
X94032756Y-61429952D01*
X94099023Y-61162865D01*
X94111910Y-60887983D01*
X94070922Y-60615867D01*
X93977636Y-60356977D01*
X93915656Y-60241020D01*
X93675565Y-60174040D01*
X92889605Y-60960000D01*
X92530395Y-60960000D01*
X91744435Y-60174040D01*
X91504344Y-60241020D01*
X91387244Y-60490048D01*
X91320977Y-60757135D01*
X91308090Y-61032017D01*
X75819000Y-61032017D01*
X75819000Y-58282408D01*
X91313000Y-58282408D01*
X91313000Y-58557592D01*
X91366686Y-58827490D01*
X91471995Y-59081727D01*
X91624880Y-59310535D01*
X91819465Y-59505120D01*
X92048273Y-59658005D01*
X92119943Y-59687692D01*
X92106977Y-59692364D01*
X91991020Y-59754344D01*
X91924040Y-59994435D01*
X92710000Y-60780395D01*
X93495960Y-59994435D01*
X93428980Y-59754344D01*
X93293240Y-59690515D01*
X93371727Y-59658005D01*
X93600535Y-59505120D01*
X93795120Y-59310535D01*
X93948005Y-59081727D01*
X94053314Y-58827490D01*
X94107000Y-58557592D01*
X94107000Y-58282408D01*
X94053314Y-58012510D01*
X93948005Y-57758273D01*
X93795120Y-57529465D01*
X93600535Y-57334880D01*
X93371727Y-57181995D01*
X93117490Y-57076686D01*
X92847592Y-57023000D01*
X92572408Y-57023000D01*
X92302510Y-57076686D01*
X92048273Y-57181995D01*
X91819465Y-57334880D01*
X91624880Y-57529465D01*
X91471995Y-57758273D01*
X91366686Y-58012510D01*
X91313000Y-58282408D01*
X75819000Y-58282408D01*
X75819000Y-50000000D01*
X81111928Y-50000000D01*
X81111928Y-51600000D01*
X81124188Y-51724482D01*
X81160498Y-51844180D01*
X81219463Y-51954494D01*
X81298815Y-52051185D01*
X81395506Y-52130537D01*
X81505820Y-52189502D01*
X81625518Y-52225812D01*
X81750000Y-52238072D01*
X83350000Y-52238072D01*
X83474482Y-52225812D01*
X83594180Y-52189502D01*
X83704494Y-52130537D01*
X83801185Y-52051185D01*
X83880537Y-51954494D01*
X83939502Y-51844180D01*
X83975812Y-51724482D01*
X83988072Y-51600000D01*
X83988072Y-50000000D01*
X83975812Y-49875518D01*
X83939502Y-49755820D01*
X83880537Y-49645506D01*
X83801185Y-49548815D01*
X83704494Y-49469463D01*
X83594180Y-49410498D01*
X83474482Y-49374188D01*
X83350000Y-49361928D01*
X83342785Y-49361928D01*
X83363097Y-49292702D01*
X82550000Y-48479605D01*
X81736903Y-49292702D01*
X81757215Y-49361928D01*
X81750000Y-49361928D01*
X81625518Y-49374188D01*
X81505820Y-49410498D01*
X81395506Y-49469463D01*
X81298815Y-49548815D01*
X81219463Y-49645506D01*
X81160498Y-49755820D01*
X81124188Y-49875518D01*
X81111928Y-50000000D01*
X75819000Y-50000000D01*
X75819000Y-48370512D01*
X81109783Y-48370512D01*
X81151213Y-48650130D01*
X81246397Y-48916292D01*
X81313329Y-49041514D01*
X81557298Y-49113097D01*
X82370395Y-48300000D01*
X82729605Y-48300000D01*
X83542702Y-49113097D01*
X83786671Y-49041514D01*
X83907571Y-48786004D01*
X83976300Y-48511816D01*
X83990217Y-48229488D01*
X83948787Y-47949870D01*
X83853603Y-47683708D01*
X83786671Y-47558486D01*
X83542702Y-47486903D01*
X82729605Y-48300000D01*
X82370395Y-48300000D01*
X81557298Y-47486903D01*
X81313329Y-47558486D01*
X81192429Y-47813996D01*
X81123700Y-48088184D01*
X81109783Y-48370512D01*
X75819000Y-48370512D01*
X75819000Y-47307298D01*
X81736903Y-47307298D01*
X82550000Y-48120395D01*
X83363097Y-47307298D01*
X83291514Y-47063329D01*
X83036004Y-46942429D01*
X82761816Y-46873700D01*
X82479488Y-46859783D01*
X82199870Y-46901213D01*
X81933708Y-46996397D01*
X81808486Y-47063329D01*
X81736903Y-47307298D01*
X75819000Y-47307298D01*
X75819000Y-46252468D01*
X75847205Y-46210256D01*
X75925226Y-46021898D01*
X75965000Y-45821939D01*
X75965000Y-45618061D01*
X75925226Y-45418102D01*
X75847205Y-45229744D01*
X75733937Y-45060226D01*
X75589774Y-44916063D01*
X75420256Y-44802795D01*
X75231898Y-44724774D01*
X75031939Y-44685000D01*
X74828061Y-44685000D01*
X74628102Y-44724774D01*
X74439744Y-44802795D01*
X74270226Y-44916063D01*
X74126063Y-45060226D01*
X74012795Y-45229744D01*
X73934774Y-45418102D01*
X73895000Y-45618061D01*
X52604219Y-45618061D01*
X52596416Y-45606341D01*
X52044683Y-45311822D01*
X51446094Y-45130600D01*
X50823652Y-45069639D01*
X50201277Y-45131282D01*
X49602887Y-45313160D01*
X49054384Y-45606341D01*
X48773411Y-46028406D01*
X40513000Y-46028406D01*
X40513000Y-40962722D01*
X83444001Y-40962722D01*
X83444001Y-41383280D01*
X83526048Y-41795757D01*
X83686989Y-42184303D01*
X83920638Y-42533984D01*
X84218018Y-42831364D01*
X84567699Y-43065013D01*
X84956245Y-43225954D01*
X85368722Y-43308001D01*
X85789280Y-43308001D01*
X86201757Y-43225954D01*
X86590303Y-43065013D01*
X86939984Y-42831364D01*
X87237364Y-42533984D01*
X87471013Y-42184303D01*
X87631954Y-41795757D01*
X87714001Y-41383280D01*
X87714001Y-40962722D01*
X87631954Y-40550245D01*
X87471013Y-40161699D01*
X87237364Y-39812018D01*
X86939984Y-39514638D01*
X86590303Y-39280989D01*
X86201757Y-39120048D01*
X85789280Y-39038001D01*
X85368722Y-39038001D01*
X84956245Y-39120048D01*
X84567699Y-39280989D01*
X84218018Y-39514638D01*
X83920638Y-39812018D01*
X83686989Y-40161699D01*
X83526048Y-40550245D01*
X83444001Y-40962722D01*
X40513000Y-40962722D01*
X40513000Y-39199062D01*
X40541269Y-39145896D01*
X40710116Y-38938870D01*
X40915954Y-38768587D01*
X40978071Y-38735000D01*
X89524109Y-38735000D01*
X89502369Y-38749526D01*
G37*
%TD.AperFunction*%
D19*
X102715843Y-43870933D02*
X103002741Y-43928001D01*
X103074638Y-43928001D01*
X103066716Y-43937654D01*
X101600000Y-45404370D01*
X101600000Y-45273630D01*
X102366351Y-44507279D01*
X102395422Y-44483422D01*
X102443368Y-44425000D01*
X102490645Y-44367393D01*
X102529449Y-44294795D01*
X102561402Y-44235015D01*
X102604974Y-44091378D01*
X102616000Y-43979426D01*
X102616000Y-43979423D01*
X102619686Y-43942000D01*
X102616000Y-43904577D01*
X102616000Y-43829577D01*
X102715843Y-43870933D01*
%TA.AperFunction,Conductor*%
D20*
G36*
X102715843Y-43870933D02*
G01*
X103002741Y-43928001D01*
X103074638Y-43928001D01*
X103066716Y-43937654D01*
X101600000Y-45404370D01*
X101600000Y-45273630D01*
X102366351Y-44507279D01*
X102395422Y-44483422D01*
X102443368Y-44425000D01*
X102490645Y-44367393D01*
X102529449Y-44294795D01*
X102561402Y-44235015D01*
X102604974Y-44091378D01*
X102616000Y-43979426D01*
X102616000Y-43979423D01*
X102619686Y-43942000D01*
X102616000Y-43904577D01*
X102616000Y-43829577D01*
X102715843Y-43870933D01*
G37*
%TD.AperFunction*%
D19*
X100802749Y-42428859D02*
X100788606Y-42443001D01*
X100802749Y-42457144D01*
X100623144Y-42636749D01*
X100609001Y-42622606D01*
X100594859Y-42636749D01*
X100415254Y-42457144D01*
X100429396Y-42443001D01*
X100415254Y-42428859D01*
X100594859Y-42249254D01*
X100609001Y-42263396D01*
X100623144Y-42249254D01*
X100802749Y-42428859D01*
%TA.AperFunction,Conductor*%
D20*
G36*
X100802749Y-42428859D02*
G01*
X100788606Y-42443001D01*
X100802749Y-42457144D01*
X100623144Y-42636749D01*
X100609001Y-42622606D01*
X100594859Y-42636749D01*
X100415254Y-42457144D01*
X100429396Y-42443001D01*
X100415254Y-42428859D01*
X100594859Y-42249254D01*
X100609001Y-42263396D01*
X100623144Y-42249254D01*
X100802749Y-42428859D01*
G37*
%TD.AperFunction*%
D19*
X130240209Y-38874604D02*
X131089001Y-39723396D01*
X131937793Y-38874604D01*
X131894279Y-38735000D01*
X132704109Y-38735000D01*
X132682369Y-38749526D01*
X132475526Y-38956369D01*
X132359690Y-39129730D01*
X132117398Y-39054209D01*
X131268606Y-39903001D01*
X132117398Y-40751793D01*
X132359690Y-40676272D01*
X132475526Y-40849633D01*
X132682369Y-41056476D01*
X132856761Y-41173001D01*
X132682369Y-41289526D01*
X132475526Y-41496369D01*
X132359001Y-41670761D01*
X132242476Y-41496369D01*
X132035633Y-41289526D01*
X131862272Y-41173690D01*
X131937793Y-40931398D01*
X131089001Y-40082606D01*
X130240209Y-40931398D01*
X130315730Y-41173690D01*
X130142369Y-41289526D01*
X129935526Y-41496369D01*
X129819001Y-41670761D01*
X129702476Y-41496369D01*
X129495633Y-41289526D01*
X129321241Y-41173001D01*
X129495633Y-41056476D01*
X129702476Y-40849633D01*
X129818312Y-40676272D01*
X130060604Y-40751793D01*
X130909396Y-39903001D01*
X130060604Y-39054209D01*
X129818312Y-39129730D01*
X129702476Y-38956369D01*
X129495633Y-38749526D01*
X129473893Y-38735000D01*
X130283723Y-38735000D01*
X130240209Y-38874604D01*
%TA.AperFunction,Conductor*%
D20*
G36*
X130240209Y-38874604D02*
G01*
X131089001Y-39723396D01*
X131937793Y-38874604D01*
X131894279Y-38735000D01*
X132704109Y-38735000D01*
X132682369Y-38749526D01*
X132475526Y-38956369D01*
X132359690Y-39129730D01*
X132117398Y-39054209D01*
X131268606Y-39903001D01*
X132117398Y-40751793D01*
X132359690Y-40676272D01*
X132475526Y-40849633D01*
X132682369Y-41056476D01*
X132856761Y-41173001D01*
X132682369Y-41289526D01*
X132475526Y-41496369D01*
X132359001Y-41670761D01*
X132242476Y-41496369D01*
X132035633Y-41289526D01*
X131862272Y-41173690D01*
X131937793Y-40931398D01*
X131089001Y-40082606D01*
X130240209Y-40931398D01*
X130315730Y-41173690D01*
X130142369Y-41289526D01*
X129935526Y-41496369D01*
X129819001Y-41670761D01*
X129702476Y-41496369D01*
X129495633Y-41289526D01*
X129321241Y-41173001D01*
X129495633Y-41056476D01*
X129702476Y-40849633D01*
X129818312Y-40676272D01*
X130060604Y-40751793D01*
X130909396Y-39903001D01*
X130060604Y-39054209D01*
X129818312Y-39129730D01*
X129702476Y-38956369D01*
X129495633Y-38749526D01*
X129473893Y-38735000D01*
X130283723Y-38735000D01*
X130240209Y-38874604D01*
G37*
%TD.AperFunction*%
D19*
X125160209Y-38874604D02*
X126009001Y-39723396D01*
X126857793Y-38874604D01*
X126814279Y-38735000D01*
X127624109Y-38735000D01*
X127602369Y-38749526D01*
X127395526Y-38956369D01*
X127279690Y-39129730D01*
X127037398Y-39054209D01*
X126188606Y-39903001D01*
X127037398Y-40751793D01*
X127279690Y-40676272D01*
X127395526Y-40849633D01*
X127602369Y-41056476D01*
X127776761Y-41173001D01*
X127602369Y-41289526D01*
X127395526Y-41496369D01*
X127279001Y-41670761D01*
X127162476Y-41496369D01*
X126955633Y-41289526D01*
X126782272Y-41173690D01*
X126857793Y-40931398D01*
X126009001Y-40082606D01*
X125160209Y-40931398D01*
X125235730Y-41173690D01*
X125062369Y-41289526D01*
X124855526Y-41496369D01*
X124739001Y-41670761D01*
X124622476Y-41496369D01*
X124415633Y-41289526D01*
X124241241Y-41173001D01*
X124415633Y-41056476D01*
X124622476Y-40849633D01*
X124738312Y-40676272D01*
X124980604Y-40751793D01*
X125829396Y-39903001D01*
X124980604Y-39054209D01*
X124738312Y-39129730D01*
X124622476Y-38956369D01*
X124415633Y-38749526D01*
X124393893Y-38735000D01*
X125203723Y-38735000D01*
X125160209Y-38874604D01*
%TA.AperFunction,Conductor*%
D20*
G36*
X125160209Y-38874604D02*
G01*
X126009001Y-39723396D01*
X126857793Y-38874604D01*
X126814279Y-38735000D01*
X127624109Y-38735000D01*
X127602369Y-38749526D01*
X127395526Y-38956369D01*
X127279690Y-39129730D01*
X127037398Y-39054209D01*
X126188606Y-39903001D01*
X127037398Y-40751793D01*
X127279690Y-40676272D01*
X127395526Y-40849633D01*
X127602369Y-41056476D01*
X127776761Y-41173001D01*
X127602369Y-41289526D01*
X127395526Y-41496369D01*
X127279001Y-41670761D01*
X127162476Y-41496369D01*
X126955633Y-41289526D01*
X126782272Y-41173690D01*
X126857793Y-40931398D01*
X126009001Y-40082606D01*
X125160209Y-40931398D01*
X125235730Y-41173690D01*
X125062369Y-41289526D01*
X124855526Y-41496369D01*
X124739001Y-41670761D01*
X124622476Y-41496369D01*
X124415633Y-41289526D01*
X124241241Y-41173001D01*
X124415633Y-41056476D01*
X124622476Y-40849633D01*
X124738312Y-40676272D01*
X124980604Y-40751793D01*
X125829396Y-39903001D01*
X124980604Y-39054209D01*
X124738312Y-39129730D01*
X124622476Y-38956369D01*
X124415633Y-38749526D01*
X124393893Y-38735000D01*
X125203723Y-38735000D01*
X125160209Y-38874604D01*
G37*
%TD.AperFunction*%
D19*
X104840209Y-38874604D02*
X105689001Y-39723396D01*
X106537793Y-38874604D01*
X106494279Y-38735000D01*
X107304109Y-38735000D01*
X107282369Y-38749526D01*
X107075526Y-38956369D01*
X106959690Y-39129730D01*
X106717398Y-39054209D01*
X105868606Y-39903001D01*
X106717398Y-40751793D01*
X106959690Y-40676272D01*
X107075526Y-40849633D01*
X107282369Y-41056476D01*
X107456761Y-41173001D01*
X107282369Y-41289526D01*
X107075526Y-41496369D01*
X106959001Y-41670761D01*
X106842476Y-41496369D01*
X106635633Y-41289526D01*
X106462272Y-41173690D01*
X106537793Y-40931398D01*
X105689001Y-40082606D01*
X104840209Y-40931398D01*
X104915730Y-41173690D01*
X104742369Y-41289526D01*
X104535526Y-41496369D01*
X104419001Y-41670761D01*
X104302476Y-41496369D01*
X104095633Y-41289526D01*
X103921241Y-41173001D01*
X104095633Y-41056476D01*
X104302476Y-40849633D01*
X104418312Y-40676272D01*
X104660604Y-40751793D01*
X105509396Y-39903001D01*
X104660604Y-39054209D01*
X104418312Y-39129730D01*
X104302476Y-38956369D01*
X104095633Y-38749526D01*
X104073893Y-38735000D01*
X104883723Y-38735000D01*
X104840209Y-38874604D01*
%TA.AperFunction,Conductor*%
D20*
G36*
X104840209Y-38874604D02*
G01*
X105689001Y-39723396D01*
X106537793Y-38874604D01*
X106494279Y-38735000D01*
X107304109Y-38735000D01*
X107282369Y-38749526D01*
X107075526Y-38956369D01*
X106959690Y-39129730D01*
X106717398Y-39054209D01*
X105868606Y-39903001D01*
X106717398Y-40751793D01*
X106959690Y-40676272D01*
X107075526Y-40849633D01*
X107282369Y-41056476D01*
X107456761Y-41173001D01*
X107282369Y-41289526D01*
X107075526Y-41496369D01*
X106959001Y-41670761D01*
X106842476Y-41496369D01*
X106635633Y-41289526D01*
X106462272Y-41173690D01*
X106537793Y-40931398D01*
X105689001Y-40082606D01*
X104840209Y-40931398D01*
X104915730Y-41173690D01*
X104742369Y-41289526D01*
X104535526Y-41496369D01*
X104419001Y-41670761D01*
X104302476Y-41496369D01*
X104095633Y-41289526D01*
X103921241Y-41173001D01*
X104095633Y-41056476D01*
X104302476Y-40849633D01*
X104418312Y-40676272D01*
X104660604Y-40751793D01*
X105509396Y-39903001D01*
X104660604Y-39054209D01*
X104418312Y-39129730D01*
X104302476Y-38956369D01*
X104095633Y-38749526D01*
X104073893Y-38735000D01*
X104883723Y-38735000D01*
X104840209Y-38874604D01*
G37*
%TD.AperFunction*%
D19*
X112460209Y-38874604D02*
X113309001Y-39723396D01*
X114157793Y-38874604D01*
X114114279Y-38735000D01*
X114924109Y-38735000D01*
X114902369Y-38749526D01*
X114695526Y-38956369D01*
X114579690Y-39129730D01*
X114337398Y-39054209D01*
X113488606Y-39903001D01*
X114337398Y-40751793D01*
X114579690Y-40676272D01*
X114695526Y-40849633D01*
X114902369Y-41056476D01*
X115076761Y-41173001D01*
X114902369Y-41289526D01*
X114695526Y-41496369D01*
X114579001Y-41670761D01*
X114462476Y-41496369D01*
X114255633Y-41289526D01*
X114082272Y-41173690D01*
X114157793Y-40931398D01*
X113309001Y-40082606D01*
X112460209Y-40931398D01*
X112535730Y-41173690D01*
X112362369Y-41289526D01*
X112155526Y-41496369D01*
X112039001Y-41670761D01*
X111922476Y-41496369D01*
X111715633Y-41289526D01*
X111541241Y-41173001D01*
X111715633Y-41056476D01*
X111922476Y-40849633D01*
X112038312Y-40676272D01*
X112280604Y-40751793D01*
X113129396Y-39903001D01*
X112280604Y-39054209D01*
X112038312Y-39129730D01*
X111922476Y-38956369D01*
X111715633Y-38749526D01*
X111693893Y-38735000D01*
X112503723Y-38735000D01*
X112460209Y-38874604D01*
%TA.AperFunction,Conductor*%
D20*
G36*
X112460209Y-38874604D02*
G01*
X113309001Y-39723396D01*
X114157793Y-38874604D01*
X114114279Y-38735000D01*
X114924109Y-38735000D01*
X114902369Y-38749526D01*
X114695526Y-38956369D01*
X114579690Y-39129730D01*
X114337398Y-39054209D01*
X113488606Y-39903001D01*
X114337398Y-40751793D01*
X114579690Y-40676272D01*
X114695526Y-40849633D01*
X114902369Y-41056476D01*
X115076761Y-41173001D01*
X114902369Y-41289526D01*
X114695526Y-41496369D01*
X114579001Y-41670761D01*
X114462476Y-41496369D01*
X114255633Y-41289526D01*
X114082272Y-41173690D01*
X114157793Y-40931398D01*
X113309001Y-40082606D01*
X112460209Y-40931398D01*
X112535730Y-41173690D01*
X112362369Y-41289526D01*
X112155526Y-41496369D01*
X112039001Y-41670761D01*
X111922476Y-41496369D01*
X111715633Y-41289526D01*
X111541241Y-41173001D01*
X111715633Y-41056476D01*
X111922476Y-40849633D01*
X112038312Y-40676272D01*
X112280604Y-40751793D01*
X113129396Y-39903001D01*
X112280604Y-39054209D01*
X112038312Y-39129730D01*
X111922476Y-38956369D01*
X111715633Y-38749526D01*
X111693893Y-38735000D01*
X112503723Y-38735000D01*
X112460209Y-38874604D01*
G37*
%TD.AperFunction*%
D19*
X94680209Y-38874604D02*
X95529001Y-39723396D01*
X96377793Y-38874604D01*
X96334279Y-38735000D01*
X97144109Y-38735000D01*
X97122369Y-38749526D01*
X96915526Y-38956369D01*
X96799690Y-39129730D01*
X96557398Y-39054209D01*
X95708606Y-39903001D01*
X96557398Y-40751793D01*
X96799690Y-40676272D01*
X96915526Y-40849633D01*
X97122369Y-41056476D01*
X97296761Y-41173001D01*
X97122369Y-41289526D01*
X96915526Y-41496369D01*
X96799001Y-41670761D01*
X96682476Y-41496369D01*
X96475633Y-41289526D01*
X96302272Y-41173690D01*
X96377793Y-40931398D01*
X95529001Y-40082606D01*
X94680209Y-40931398D01*
X94755730Y-41173690D01*
X94582369Y-41289526D01*
X94375526Y-41496369D01*
X94259001Y-41670761D01*
X94142476Y-41496369D01*
X93935633Y-41289526D01*
X93761241Y-41173001D01*
X93935633Y-41056476D01*
X94142476Y-40849633D01*
X94258312Y-40676272D01*
X94500604Y-40751793D01*
X95349396Y-39903001D01*
X94500604Y-39054209D01*
X94258312Y-39129730D01*
X94142476Y-38956369D01*
X93935633Y-38749526D01*
X93913893Y-38735000D01*
X94723723Y-38735000D01*
X94680209Y-38874604D01*
%TA.AperFunction,Conductor*%
D20*
G36*
X94680209Y-38874604D02*
G01*
X95529001Y-39723396D01*
X96377793Y-38874604D01*
X96334279Y-38735000D01*
X97144109Y-38735000D01*
X97122369Y-38749526D01*
X96915526Y-38956369D01*
X96799690Y-39129730D01*
X96557398Y-39054209D01*
X95708606Y-39903001D01*
X96557398Y-40751793D01*
X96799690Y-40676272D01*
X96915526Y-40849633D01*
X97122369Y-41056476D01*
X97296761Y-41173001D01*
X97122369Y-41289526D01*
X96915526Y-41496369D01*
X96799001Y-41670761D01*
X96682476Y-41496369D01*
X96475633Y-41289526D01*
X96302272Y-41173690D01*
X96377793Y-40931398D01*
X95529001Y-40082606D01*
X94680209Y-40931398D01*
X94755730Y-41173690D01*
X94582369Y-41289526D01*
X94375526Y-41496369D01*
X94259001Y-41670761D01*
X94142476Y-41496369D01*
X93935633Y-41289526D01*
X93761241Y-41173001D01*
X93935633Y-41056476D01*
X94142476Y-40849633D01*
X94258312Y-40676272D01*
X94500604Y-40751793D01*
X95349396Y-39903001D01*
X94500604Y-39054209D01*
X94258312Y-39129730D01*
X94142476Y-38956369D01*
X93935633Y-38749526D01*
X93913893Y-38735000D01*
X94723723Y-38735000D01*
X94680209Y-38874604D01*
G37*
%TD.AperFunction*%
%TD*%
M02*
