M48
;DRILL file {KiCad (5.0.0)} date 12/16/18 15:52:36
;FORMAT={-:-/ absolute / inch / decimal}
FMAT,2
INCH,TZ
T1C0.0157
T2C0.0300
T3C0.0315
T4C0.0350
T5C0.0394
T6C0.0591
T7C0.0669
T8C0.1598
%
G90
G05
M72
T1
X4.9793Y-4.6637
X5.075Y-4.655
X5.158Y-3.08
X5.185Y-2.605
X5.2129Y-2.96
X5.327Y-2.689
X5.328Y-2.6039
X5.368Y-2.7
X5.37Y-2.601
X5.53Y-2.85
X5.6Y-4.205
X5.6311Y-4.045
X5.665Y-3.305
X5.675Y-3.365
X5.8702Y-4.395
X6.005Y-4.585
X6.235Y-4.17
X6.67Y-2.48
T2
X5.53Y-2.58
X5.63Y-2.58
X5.73Y-2.58
X5.83Y-2.58
X5.93Y-2.58
X6.03Y-2.58
X6.13Y-2.58
X6.23Y-2.58
X6.5Y-2.58
X6.6Y-2.58
X6.7Y-2.58
X6.8Y-2.58
T3
X6.7016Y-3.055
X6.8Y-3.055
T4
X6.5925Y-3.5945
X6.6925Y-3.5945
X6.7925Y-3.5945
X6.215Y-3.6
X6.215Y-3.7
X6.215Y-3.8
T5
X4.5866Y-3.151
X4.5866Y-3.251
X4.5866Y-4.851
X4.5866Y-4.951
X4.6866Y-3.151
X4.6866Y-3.251
X4.6866Y-4.851
X4.6866Y-4.951
X4.7866Y-3.151
X4.7866Y-3.251
X4.7866Y-4.851
X4.7866Y-4.951
X4.8866Y-3.151
X4.8866Y-3.251
X4.8866Y-4.851
X4.8866Y-4.951
X4.9866Y-3.151
X4.9866Y-3.251
X4.9866Y-4.851
X4.9866Y-4.951
X5.0866Y-3.151
X5.0866Y-3.251
X5.0866Y-4.851
X5.0866Y-4.951
X5.1866Y-3.151
X5.1866Y-3.251
X5.1866Y-4.851
X5.1866Y-4.951
X5.2866Y-3.151
X5.2866Y-3.251
X5.2866Y-4.851
X5.2866Y-4.951
X5.3866Y-3.151
X5.3866Y-3.251
X5.3866Y-4.851
X5.3866Y-4.951
X5.4866Y-3.151
X5.4866Y-3.251
X5.4866Y-4.851
X5.4866Y-4.951
T6
X4.708Y-3.51
T7
X4.608Y-3.41
X4.608Y-3.61
X4.808Y-3.41
X4.808Y-3.61
T8
X5.261Y-3.875
X5.261Y-4.19
T0
M30
