%TF.GenerationSoftware,KiCad,Pcbnew,(5.1.10)-1*%
%TF.CreationDate,2021-11-15T22:54:35-06:00*%
%TF.ProjectId,NavBoard_Hardware,4e617642-6f61-4726-945f-486172647761,rev?*%
%TF.SameCoordinates,Original*%
%TF.FileFunction,Soldermask,Top*%
%TF.FilePolarity,Negative*%
%FSLAX46Y46*%
G04 Gerber Fmt 4.6, Leading zero omitted, Abs format (unit mm)*
G04 Created by KiCad (PCBNEW (5.1.10)-1) date 2021-11-15 22:54:35*
%MOMM*%
%LPD*%
G01*
G04 APERTURE LIST*
%ADD10C,0.010000*%
%ADD11C,3.000000*%
%ADD12C,1.700000*%
%ADD13R,0.675000X0.250000*%
%ADD14R,0.250000X0.575000*%
%ADD15R,6.000000X5.500000*%
%ADD16C,20.000000*%
%ADD17R,1.600000X1.600000*%
%ADD18C,1.600000*%
%ADD19C,5.080000*%
%ADD20C,2.250000*%
%ADD21C,1.524000*%
%ADD22R,0.640000X0.220000*%
%ADD23R,0.220000X0.640000*%
%ADD24R,0.525000X0.300000*%
%ADD25R,0.300000X0.425000*%
G04 APERTURE END LIST*
D10*
%TO.C,U5*%
G36*
X82800000Y-42144000D02*
G01*
X82800000Y-40344000D01*
X83600000Y-40344000D01*
X83600000Y-42144000D01*
X82800000Y-42144000D01*
G37*
X82800000Y-42144000D02*
X82800000Y-40344000D01*
X83600000Y-40344000D01*
X83600000Y-42144000D01*
X82800000Y-42144000D01*
G36*
X81700000Y-42144000D02*
G01*
X81700000Y-40344000D01*
X82500000Y-40344000D01*
X82500000Y-42144000D01*
X81700000Y-42144000D01*
G37*
X81700000Y-42144000D02*
X81700000Y-40344000D01*
X82500000Y-40344000D01*
X82500000Y-42144000D01*
X81700000Y-42144000D01*
G36*
X80600000Y-42144000D02*
G01*
X80600000Y-40344000D01*
X81400000Y-40344000D01*
X81400000Y-42144000D01*
X80600000Y-42144000D01*
G37*
X80600000Y-42144000D02*
X80600000Y-40344000D01*
X81400000Y-40344000D01*
X81400000Y-42144000D01*
X80600000Y-42144000D01*
G36*
X79500000Y-42144000D02*
G01*
X79500000Y-40344000D01*
X80300000Y-40344000D01*
X80300000Y-42144000D01*
X79500000Y-42144000D01*
G37*
X79500000Y-42144000D02*
X79500000Y-40344000D01*
X80300000Y-40344000D01*
X80300000Y-42144000D01*
X79500000Y-42144000D01*
G36*
X78400000Y-42144000D02*
G01*
X78400000Y-40344000D01*
X79200000Y-40344000D01*
X79200000Y-42144000D01*
X78400000Y-42144000D01*
G37*
X78400000Y-42144000D02*
X78400000Y-40344000D01*
X79200000Y-40344000D01*
X79200000Y-42144000D01*
X78400000Y-42144000D01*
G36*
X75400000Y-42144000D02*
G01*
X75400000Y-40344000D01*
X76200000Y-40344000D01*
X76200000Y-42144000D01*
X75400000Y-42144000D01*
G37*
X75400000Y-42144000D02*
X75400000Y-40344000D01*
X76200000Y-40344000D01*
X76200000Y-42144000D01*
X75400000Y-42144000D01*
G36*
X74300000Y-42144000D02*
G01*
X74300000Y-40344000D01*
X75100000Y-40344000D01*
X75100000Y-42144000D01*
X74300000Y-42144000D01*
G37*
X74300000Y-42144000D02*
X74300000Y-40344000D01*
X75100000Y-40344000D01*
X75100000Y-42144000D01*
X74300000Y-42144000D01*
G36*
X73200000Y-42144000D02*
G01*
X73200000Y-40344000D01*
X74000000Y-40344000D01*
X74000000Y-42144000D01*
X73200000Y-42144000D01*
G37*
X73200000Y-42144000D02*
X73200000Y-40344000D01*
X74000000Y-40344000D01*
X74000000Y-42144000D01*
X73200000Y-42144000D01*
G36*
X72100000Y-42144000D02*
G01*
X72100000Y-40344000D01*
X72900000Y-40344000D01*
X72900000Y-42144000D01*
X72100000Y-42144000D01*
G37*
X72100000Y-42144000D02*
X72100000Y-40344000D01*
X72900000Y-40344000D01*
X72900000Y-42144000D01*
X72100000Y-42144000D01*
G36*
X71000000Y-42144000D02*
G01*
X71000000Y-40344000D01*
X71800000Y-40344000D01*
X71800000Y-42144000D01*
X71000000Y-42144000D01*
G37*
X71000000Y-42144000D02*
X71000000Y-40344000D01*
X71800000Y-40344000D01*
X71800000Y-42144000D01*
X71000000Y-42144000D01*
G36*
X69900000Y-42144000D02*
G01*
X69900000Y-40344000D01*
X70700000Y-40344000D01*
X70700000Y-42144000D01*
X69900000Y-42144000D01*
G37*
X69900000Y-42144000D02*
X69900000Y-40344000D01*
X70700000Y-40344000D01*
X70700000Y-42144000D01*
X69900000Y-42144000D01*
G36*
X68800000Y-42144000D02*
G01*
X68800000Y-40344000D01*
X69600000Y-40344000D01*
X69600000Y-42144000D01*
X68800000Y-42144000D01*
G37*
X68800000Y-42144000D02*
X68800000Y-40344000D01*
X69600000Y-40344000D01*
X69600000Y-42144000D01*
X68800000Y-42144000D01*
G36*
X82800000Y-54144000D02*
G01*
X82800000Y-52344000D01*
X83600000Y-52344000D01*
X83600000Y-54144000D01*
X82800000Y-54144000D01*
G37*
X82800000Y-54144000D02*
X82800000Y-52344000D01*
X83600000Y-52344000D01*
X83600000Y-54144000D01*
X82800000Y-54144000D01*
G36*
X81700000Y-54144000D02*
G01*
X81700000Y-52344000D01*
X82500000Y-52344000D01*
X82500000Y-54144000D01*
X81700000Y-54144000D01*
G37*
X81700000Y-54144000D02*
X81700000Y-52344000D01*
X82500000Y-52344000D01*
X82500000Y-54144000D01*
X81700000Y-54144000D01*
G36*
X80600000Y-54144000D02*
G01*
X80600000Y-52344000D01*
X81400000Y-52344000D01*
X81400000Y-54144000D01*
X80600000Y-54144000D01*
G37*
X80600000Y-54144000D02*
X80600000Y-52344000D01*
X81400000Y-52344000D01*
X81400000Y-54144000D01*
X80600000Y-54144000D01*
G36*
X79500000Y-54144000D02*
G01*
X79500000Y-52344000D01*
X80300000Y-52344000D01*
X80300000Y-54144000D01*
X79500000Y-54144000D01*
G37*
X79500000Y-54144000D02*
X79500000Y-52344000D01*
X80300000Y-52344000D01*
X80300000Y-54144000D01*
X79500000Y-54144000D01*
G36*
X78400000Y-54144000D02*
G01*
X78400000Y-52344000D01*
X79200000Y-52344000D01*
X79200000Y-54144000D01*
X78400000Y-54144000D01*
G37*
X78400000Y-54144000D02*
X78400000Y-52344000D01*
X79200000Y-52344000D01*
X79200000Y-54144000D01*
X78400000Y-54144000D01*
G36*
X75400000Y-54144000D02*
G01*
X75400000Y-52344000D01*
X76200000Y-52344000D01*
X76200000Y-54144000D01*
X75400000Y-54144000D01*
G37*
X75400000Y-54144000D02*
X75400000Y-52344000D01*
X76200000Y-52344000D01*
X76200000Y-54144000D01*
X75400000Y-54144000D01*
G36*
X74300000Y-54144000D02*
G01*
X74300000Y-52344000D01*
X75100000Y-52344000D01*
X75100000Y-54144000D01*
X74300000Y-54144000D01*
G37*
X74300000Y-54144000D02*
X74300000Y-52344000D01*
X75100000Y-52344000D01*
X75100000Y-54144000D01*
X74300000Y-54144000D01*
G36*
X73200000Y-54144000D02*
G01*
X73200000Y-52344000D01*
X74000000Y-52344000D01*
X74000000Y-54144000D01*
X73200000Y-54144000D01*
G37*
X73200000Y-54144000D02*
X73200000Y-52344000D01*
X74000000Y-52344000D01*
X74000000Y-54144000D01*
X73200000Y-54144000D01*
G36*
X72100000Y-54144000D02*
G01*
X72100000Y-52344000D01*
X72900000Y-52344000D01*
X72900000Y-54144000D01*
X72100000Y-54144000D01*
G37*
X72100000Y-54144000D02*
X72100000Y-52344000D01*
X72900000Y-52344000D01*
X72900000Y-54144000D01*
X72100000Y-54144000D01*
G36*
X71000000Y-54144000D02*
G01*
X71000000Y-52344000D01*
X71800000Y-52344000D01*
X71800000Y-54144000D01*
X71000000Y-54144000D01*
G37*
X71000000Y-54144000D02*
X71000000Y-52344000D01*
X71800000Y-52344000D01*
X71800000Y-54144000D01*
X71000000Y-54144000D01*
G36*
X69900000Y-54144000D02*
G01*
X69900000Y-52344000D01*
X70700000Y-52344000D01*
X70700000Y-54144000D01*
X69900000Y-54144000D01*
G37*
X69900000Y-54144000D02*
X69900000Y-52344000D01*
X70700000Y-52344000D01*
X70700000Y-54144000D01*
X69900000Y-54144000D01*
G36*
X68800000Y-54144000D02*
G01*
X68800000Y-52344000D01*
X69600000Y-52344000D01*
X69600000Y-54144000D01*
X68800000Y-54144000D01*
G37*
X68800000Y-54144000D02*
X68800000Y-52344000D01*
X69600000Y-52344000D01*
X69600000Y-54144000D01*
X68800000Y-54144000D01*
%TD*%
D11*
%TO.C,U6*%
X129330000Y-77194000D03*
X129330000Y-28194000D03*
X71330000Y-77194000D03*
X71330000Y-28194000D03*
D12*
X124460000Y-26924000D03*
X124460000Y-29464000D03*
X121920000Y-26924000D03*
X121920000Y-29464000D03*
X119380000Y-26924000D03*
X119380000Y-29464000D03*
X116840000Y-26924000D03*
X116840000Y-29464000D03*
X114300000Y-26924000D03*
X114300000Y-29464000D03*
X111760000Y-26924000D03*
X111760000Y-29464000D03*
X109220000Y-26924000D03*
X109220000Y-29464000D03*
X106680000Y-26924000D03*
X106680000Y-29464000D03*
X104140000Y-26924000D03*
X104140000Y-29464000D03*
X101600000Y-26924000D03*
X101600000Y-29464000D03*
X99060000Y-26924000D03*
X99060000Y-29464000D03*
X96520000Y-26924000D03*
X96520000Y-29464000D03*
X93980000Y-26924000D03*
X93980000Y-29464000D03*
X91440000Y-26924000D03*
X91440000Y-29464000D03*
X88900000Y-26924000D03*
X88900000Y-29464000D03*
X86360000Y-26924000D03*
X86360000Y-29464000D03*
X83820000Y-26924000D03*
X83820000Y-29464000D03*
X81280000Y-26924000D03*
X81280000Y-29464000D03*
X78740000Y-26924000D03*
X78740000Y-29464000D03*
X76200000Y-26924000D03*
X76200000Y-29464000D03*
%TD*%
D13*
%TO.C,AC1*%
X124831000Y-58176600D03*
D14*
X124019000Y-58113600D03*
X123519000Y-58113600D03*
X123019000Y-58113600D03*
X122519000Y-58113600D03*
D13*
X121706000Y-58113600D03*
X121706000Y-58676600D03*
X121706000Y-59176600D03*
X121706000Y-59676600D03*
X121706000Y-60176600D03*
X121706000Y-60676600D03*
X121706000Y-61176600D03*
X121706000Y-61676600D03*
X121706000Y-62176600D03*
X121706000Y-62689600D03*
D14*
X122519000Y-62739600D03*
X123019000Y-62739600D03*
X123519000Y-62739600D03*
X124019000Y-62739600D03*
D13*
X124831000Y-62739600D03*
X124831000Y-62176600D03*
X124831000Y-61676600D03*
X124831000Y-61176600D03*
X124831000Y-60676600D03*
X124831000Y-60176600D03*
X124831000Y-59676600D03*
X124831000Y-59176600D03*
X124831000Y-58676600D03*
%TD*%
D15*
%TO.C,BT1*%
X61020000Y-38100000D03*
X30420000Y-38100000D03*
D16*
X45720000Y-38100000D03*
%TD*%
D17*
%TO.C,C1*%
X43180000Y-58674000D03*
D18*
X43180000Y-56174000D03*
%TD*%
%TO.C,C2*%
G36*
G01*
X69974000Y-61451500D02*
X69974000Y-60976500D01*
G75*
G02*
X70211500Y-60739000I237500J0D01*
G01*
X70811500Y-60739000D01*
G75*
G02*
X71049000Y-60976500I0J-237500D01*
G01*
X71049000Y-61451500D01*
G75*
G02*
X70811500Y-61689000I-237500J0D01*
G01*
X70211500Y-61689000D01*
G75*
G02*
X69974000Y-61451500I0J237500D01*
G01*
G37*
G36*
G01*
X71699000Y-61451500D02*
X71699000Y-60976500D01*
G75*
G02*
X71936500Y-60739000I237500J0D01*
G01*
X72536500Y-60739000D01*
G75*
G02*
X72774000Y-60976500I0J-237500D01*
G01*
X72774000Y-61451500D01*
G75*
G02*
X72536500Y-61689000I-237500J0D01*
G01*
X71936500Y-61689000D01*
G75*
G02*
X71699000Y-61451500I0J237500D01*
G01*
G37*
%TD*%
%TO.C,C3*%
G36*
G01*
X71699000Y-58911500D02*
X71699000Y-58436500D01*
G75*
G02*
X71936500Y-58199000I237500J0D01*
G01*
X72536500Y-58199000D01*
G75*
G02*
X72774000Y-58436500I0J-237500D01*
G01*
X72774000Y-58911500D01*
G75*
G02*
X72536500Y-59149000I-237500J0D01*
G01*
X71936500Y-59149000D01*
G75*
G02*
X71699000Y-58911500I0J237500D01*
G01*
G37*
G36*
G01*
X69974000Y-58911500D02*
X69974000Y-58436500D01*
G75*
G02*
X70211500Y-58199000I237500J0D01*
G01*
X70811500Y-58199000D01*
G75*
G02*
X71049000Y-58436500I0J-237500D01*
G01*
X71049000Y-58911500D01*
G75*
G02*
X70811500Y-59149000I-237500J0D01*
G01*
X70211500Y-59149000D01*
G75*
G02*
X69974000Y-58911500I0J237500D01*
G01*
G37*
%TD*%
%TO.C,C4*%
X52070000Y-56174000D03*
D17*
X52070000Y-58674000D03*
%TD*%
%TO.C,C5*%
G36*
G01*
X52194000Y-66023500D02*
X52194000Y-65548500D01*
G75*
G02*
X52431500Y-65311000I237500J0D01*
G01*
X53031500Y-65311000D01*
G75*
G02*
X53269000Y-65548500I0J-237500D01*
G01*
X53269000Y-66023500D01*
G75*
G02*
X53031500Y-66261000I-237500J0D01*
G01*
X52431500Y-66261000D01*
G75*
G02*
X52194000Y-66023500I0J237500D01*
G01*
G37*
G36*
G01*
X53919000Y-66023500D02*
X53919000Y-65548500D01*
G75*
G02*
X54156500Y-65311000I237500J0D01*
G01*
X54756500Y-65311000D01*
G75*
G02*
X54994000Y-65548500I0J-237500D01*
G01*
X54994000Y-66023500D01*
G75*
G02*
X54756500Y-66261000I-237500J0D01*
G01*
X54156500Y-66261000D01*
G75*
G02*
X53919000Y-66023500I0J237500D01*
G01*
G37*
%TD*%
%TO.C,C6*%
G36*
G01*
X53919000Y-63483500D02*
X53919000Y-63008500D01*
G75*
G02*
X54156500Y-62771000I237500J0D01*
G01*
X54756500Y-62771000D01*
G75*
G02*
X54994000Y-63008500I0J-237500D01*
G01*
X54994000Y-63483500D01*
G75*
G02*
X54756500Y-63721000I-237500J0D01*
G01*
X54156500Y-63721000D01*
G75*
G02*
X53919000Y-63483500I0J237500D01*
G01*
G37*
G36*
G01*
X52194000Y-63483500D02*
X52194000Y-63008500D01*
G75*
G02*
X52431500Y-62771000I237500J0D01*
G01*
X53031500Y-62771000D01*
G75*
G02*
X53269000Y-63008500I0J-237500D01*
G01*
X53269000Y-63483500D01*
G75*
G02*
X53031500Y-63721000I-237500J0D01*
G01*
X52431500Y-63721000D01*
G75*
G02*
X52194000Y-63483500I0J237500D01*
G01*
G37*
%TD*%
%TO.C,C7*%
G36*
G01*
X113567200Y-55087400D02*
X114042200Y-55087400D01*
G75*
G02*
X114279700Y-55324900I0J-237500D01*
G01*
X114279700Y-55924900D01*
G75*
G02*
X114042200Y-56162400I-237500J0D01*
G01*
X113567200Y-56162400D01*
G75*
G02*
X113329700Y-55924900I0J237500D01*
G01*
X113329700Y-55324900D01*
G75*
G02*
X113567200Y-55087400I237500J0D01*
G01*
G37*
G36*
G01*
X113567200Y-53362400D02*
X114042200Y-53362400D01*
G75*
G02*
X114279700Y-53599900I0J-237500D01*
G01*
X114279700Y-54199900D01*
G75*
G02*
X114042200Y-54437400I-237500J0D01*
G01*
X113567200Y-54437400D01*
G75*
G02*
X113329700Y-54199900I0J237500D01*
G01*
X113329700Y-53599900D01*
G75*
G02*
X113567200Y-53362400I237500J0D01*
G01*
G37*
%TD*%
%TO.C,C8*%
G36*
G01*
X111027200Y-55087400D02*
X111502200Y-55087400D01*
G75*
G02*
X111739700Y-55324900I0J-237500D01*
G01*
X111739700Y-55924900D01*
G75*
G02*
X111502200Y-56162400I-237500J0D01*
G01*
X111027200Y-56162400D01*
G75*
G02*
X110789700Y-55924900I0J237500D01*
G01*
X110789700Y-55324900D01*
G75*
G02*
X111027200Y-55087400I237500J0D01*
G01*
G37*
G36*
G01*
X111027200Y-53362400D02*
X111502200Y-53362400D01*
G75*
G02*
X111739700Y-53599900I0J-237500D01*
G01*
X111739700Y-54199900D01*
G75*
G02*
X111502200Y-54437400I-237500J0D01*
G01*
X111027200Y-54437400D01*
G75*
G02*
X110789700Y-54199900I0J237500D01*
G01*
X110789700Y-53599900D01*
G75*
G02*
X111027200Y-53362400I237500J0D01*
G01*
G37*
%TD*%
%TO.C,C9*%
G36*
G01*
X104831000Y-63897500D02*
X104831000Y-64372500D01*
G75*
G02*
X104593500Y-64610000I-237500J0D01*
G01*
X103993500Y-64610000D01*
G75*
G02*
X103756000Y-64372500I0J237500D01*
G01*
X103756000Y-63897500D01*
G75*
G02*
X103993500Y-63660000I237500J0D01*
G01*
X104593500Y-63660000D01*
G75*
G02*
X104831000Y-63897500I0J-237500D01*
G01*
G37*
G36*
G01*
X106556000Y-63897500D02*
X106556000Y-64372500D01*
G75*
G02*
X106318500Y-64610000I-237500J0D01*
G01*
X105718500Y-64610000D01*
G75*
G02*
X105481000Y-64372500I0J237500D01*
G01*
X105481000Y-63897500D01*
G75*
G02*
X105718500Y-63660000I237500J0D01*
G01*
X106318500Y-63660000D01*
G75*
G02*
X106556000Y-63897500I0J-237500D01*
G01*
G37*
%TD*%
%TO.C,C10*%
G36*
G01*
X103053000Y-48530500D02*
X103053000Y-49005500D01*
G75*
G02*
X102815500Y-49243000I-237500J0D01*
G01*
X102215500Y-49243000D01*
G75*
G02*
X101978000Y-49005500I0J237500D01*
G01*
X101978000Y-48530500D01*
G75*
G02*
X102215500Y-48293000I237500J0D01*
G01*
X102815500Y-48293000D01*
G75*
G02*
X103053000Y-48530500I0J-237500D01*
G01*
G37*
G36*
G01*
X104778000Y-48530500D02*
X104778000Y-49005500D01*
G75*
G02*
X104540500Y-49243000I-237500J0D01*
G01*
X103940500Y-49243000D01*
G75*
G02*
X103703000Y-49005500I0J237500D01*
G01*
X103703000Y-48530500D01*
G75*
G02*
X103940500Y-48293000I237500J0D01*
G01*
X104540500Y-48293000D01*
G75*
G02*
X104778000Y-48530500I0J-237500D01*
G01*
G37*
%TD*%
%TO.C,C11*%
G36*
G01*
X104778000Y-51070500D02*
X104778000Y-51545500D01*
G75*
G02*
X104540500Y-51783000I-237500J0D01*
G01*
X103940500Y-51783000D01*
G75*
G02*
X103703000Y-51545500I0J237500D01*
G01*
X103703000Y-51070500D01*
G75*
G02*
X103940500Y-50833000I237500J0D01*
G01*
X104540500Y-50833000D01*
G75*
G02*
X104778000Y-51070500I0J-237500D01*
G01*
G37*
G36*
G01*
X103053000Y-51070500D02*
X103053000Y-51545500D01*
G75*
G02*
X102815500Y-51783000I-237500J0D01*
G01*
X102215500Y-51783000D01*
G75*
G02*
X101978000Y-51545500I0J237500D01*
G01*
X101978000Y-51070500D01*
G75*
G02*
X102215500Y-50833000I237500J0D01*
G01*
X102815500Y-50833000D01*
G75*
G02*
X103053000Y-51070500I0J-237500D01*
G01*
G37*
%TD*%
%TO.C,C12*%
G36*
G01*
X99754700Y-52443500D02*
X99279700Y-52443500D01*
G75*
G02*
X99042200Y-52206000I0J237500D01*
G01*
X99042200Y-51606000D01*
G75*
G02*
X99279700Y-51368500I237500J0D01*
G01*
X99754700Y-51368500D01*
G75*
G02*
X99992200Y-51606000I0J-237500D01*
G01*
X99992200Y-52206000D01*
G75*
G02*
X99754700Y-52443500I-237500J0D01*
G01*
G37*
G36*
G01*
X99754700Y-54168500D02*
X99279700Y-54168500D01*
G75*
G02*
X99042200Y-53931000I0J237500D01*
G01*
X99042200Y-53331000D01*
G75*
G02*
X99279700Y-53093500I237500J0D01*
G01*
X99754700Y-53093500D01*
G75*
G02*
X99992200Y-53331000I0J-237500D01*
G01*
X99992200Y-53931000D01*
G75*
G02*
X99754700Y-54168500I-237500J0D01*
G01*
G37*
%TD*%
%TO.C,C13*%
G36*
G01*
X63229500Y-30663000D02*
X62754500Y-30663000D01*
G75*
G02*
X62517000Y-30425500I0J237500D01*
G01*
X62517000Y-29825500D01*
G75*
G02*
X62754500Y-29588000I237500J0D01*
G01*
X63229500Y-29588000D01*
G75*
G02*
X63467000Y-29825500I0J-237500D01*
G01*
X63467000Y-30425500D01*
G75*
G02*
X63229500Y-30663000I-237500J0D01*
G01*
G37*
G36*
G01*
X63229500Y-32388000D02*
X62754500Y-32388000D01*
G75*
G02*
X62517000Y-32150500I0J237500D01*
G01*
X62517000Y-31550500D01*
G75*
G02*
X62754500Y-31313000I237500J0D01*
G01*
X63229500Y-31313000D01*
G75*
G02*
X63467000Y-31550500I0J-237500D01*
G01*
X63467000Y-32150500D01*
G75*
G02*
X63229500Y-32388000I-237500J0D01*
G01*
G37*
%TD*%
%TO.C,C14*%
G36*
G01*
X119256000Y-56150500D02*
X119256000Y-56625500D01*
G75*
G02*
X119018500Y-56863000I-237500J0D01*
G01*
X118418500Y-56863000D01*
G75*
G02*
X118181000Y-56625500I0J237500D01*
G01*
X118181000Y-56150500D01*
G75*
G02*
X118418500Y-55913000I237500J0D01*
G01*
X119018500Y-55913000D01*
G75*
G02*
X119256000Y-56150500I0J-237500D01*
G01*
G37*
G36*
G01*
X117531000Y-56150500D02*
X117531000Y-56625500D01*
G75*
G02*
X117293500Y-56863000I-237500J0D01*
G01*
X116693500Y-56863000D01*
G75*
G02*
X116456000Y-56625500I0J237500D01*
G01*
X116456000Y-56150500D01*
G75*
G02*
X116693500Y-55913000I237500J0D01*
G01*
X117293500Y-55913000D01*
G75*
G02*
X117531000Y-56150500I0J-237500D01*
G01*
G37*
%TD*%
%TO.C,C15*%
G36*
G01*
X116569500Y-58984000D02*
X116094500Y-58984000D01*
G75*
G02*
X115857000Y-58746500I0J237500D01*
G01*
X115857000Y-58146500D01*
G75*
G02*
X116094500Y-57909000I237500J0D01*
G01*
X116569500Y-57909000D01*
G75*
G02*
X116807000Y-58146500I0J-237500D01*
G01*
X116807000Y-58746500D01*
G75*
G02*
X116569500Y-58984000I-237500J0D01*
G01*
G37*
G36*
G01*
X116569500Y-60709000D02*
X116094500Y-60709000D01*
G75*
G02*
X115857000Y-60471500I0J237500D01*
G01*
X115857000Y-59871500D01*
G75*
G02*
X116094500Y-59634000I237500J0D01*
G01*
X116569500Y-59634000D01*
G75*
G02*
X116807000Y-59871500I0J-237500D01*
G01*
X116807000Y-60471500D01*
G75*
G02*
X116569500Y-60709000I-237500J0D01*
G01*
G37*
%TD*%
%TO.C,C16*%
G36*
G01*
X119109500Y-60709000D02*
X118634500Y-60709000D01*
G75*
G02*
X118397000Y-60471500I0J237500D01*
G01*
X118397000Y-59871500D01*
G75*
G02*
X118634500Y-59634000I237500J0D01*
G01*
X119109500Y-59634000D01*
G75*
G02*
X119347000Y-59871500I0J-237500D01*
G01*
X119347000Y-60471500D01*
G75*
G02*
X119109500Y-60709000I-237500J0D01*
G01*
G37*
G36*
G01*
X119109500Y-58984000D02*
X118634500Y-58984000D01*
G75*
G02*
X118397000Y-58746500I0J237500D01*
G01*
X118397000Y-58146500D01*
G75*
G02*
X118634500Y-57909000I237500J0D01*
G01*
X119109500Y-57909000D01*
G75*
G02*
X119347000Y-58146500I0J-237500D01*
G01*
X119347000Y-58746500D01*
G75*
G02*
X119109500Y-58984000I-237500J0D01*
G01*
G37*
%TD*%
%TO.C,C17*%
G36*
G01*
X28007300Y-67838200D02*
X28482300Y-67838200D01*
G75*
G02*
X28719800Y-68075700I0J-237500D01*
G01*
X28719800Y-68675700D01*
G75*
G02*
X28482300Y-68913200I-237500J0D01*
G01*
X28007300Y-68913200D01*
G75*
G02*
X27769800Y-68675700I0J237500D01*
G01*
X27769800Y-68075700D01*
G75*
G02*
X28007300Y-67838200I237500J0D01*
G01*
G37*
G36*
G01*
X28007300Y-66113200D02*
X28482300Y-66113200D01*
G75*
G02*
X28719800Y-66350700I0J-237500D01*
G01*
X28719800Y-66950700D01*
G75*
G02*
X28482300Y-67188200I-237500J0D01*
G01*
X28007300Y-67188200D01*
G75*
G02*
X27769800Y-66950700I0J237500D01*
G01*
X27769800Y-66350700D01*
G75*
G02*
X28007300Y-66113200I237500J0D01*
G01*
G37*
%TD*%
D19*
%TO.C,Conn1*%
X34315400Y-58674000D03*
X34315400Y-50800000D03*
%TD*%
D20*
%TO.C,Conn2*%
X33284000Y-71618000D03*
X28184000Y-71618000D03*
X28184000Y-76718000D03*
X33284000Y-76718000D03*
X30734000Y-74168000D03*
%TD*%
%TO.C,D1*%
G36*
G01*
X80247500Y-77092000D02*
X79772500Y-77092000D01*
G75*
G02*
X79535000Y-76854500I0J237500D01*
G01*
X79535000Y-76279500D01*
G75*
G02*
X79772500Y-76042000I237500J0D01*
G01*
X80247500Y-76042000D01*
G75*
G02*
X80485000Y-76279500I0J-237500D01*
G01*
X80485000Y-76854500D01*
G75*
G02*
X80247500Y-77092000I-237500J0D01*
G01*
G37*
G36*
G01*
X80247500Y-75342000D02*
X79772500Y-75342000D01*
G75*
G02*
X79535000Y-75104500I0J237500D01*
G01*
X79535000Y-74529500D01*
G75*
G02*
X79772500Y-74292000I237500J0D01*
G01*
X80247500Y-74292000D01*
G75*
G02*
X80485000Y-74529500I0J-237500D01*
G01*
X80485000Y-75104500D01*
G75*
G02*
X80247500Y-75342000I-237500J0D01*
G01*
G37*
%TD*%
%TO.C,D2*%
G36*
G01*
X84057500Y-75342000D02*
X83582500Y-75342000D01*
G75*
G02*
X83345000Y-75104500I0J237500D01*
G01*
X83345000Y-74529500D01*
G75*
G02*
X83582500Y-74292000I237500J0D01*
G01*
X84057500Y-74292000D01*
G75*
G02*
X84295000Y-74529500I0J-237500D01*
G01*
X84295000Y-75104500D01*
G75*
G02*
X84057500Y-75342000I-237500J0D01*
G01*
G37*
G36*
G01*
X84057500Y-77092000D02*
X83582500Y-77092000D01*
G75*
G02*
X83345000Y-76854500I0J237500D01*
G01*
X83345000Y-76279500D01*
G75*
G02*
X83582500Y-76042000I237500J0D01*
G01*
X84057500Y-76042000D01*
G75*
G02*
X84295000Y-76279500I0J-237500D01*
G01*
X84295000Y-76854500D01*
G75*
G02*
X84057500Y-77092000I-237500J0D01*
G01*
G37*
%TD*%
%TO.C,D3*%
G36*
G01*
X87867500Y-75342000D02*
X87392500Y-75342000D01*
G75*
G02*
X87155000Y-75104500I0J237500D01*
G01*
X87155000Y-74529500D01*
G75*
G02*
X87392500Y-74292000I237500J0D01*
G01*
X87867500Y-74292000D01*
G75*
G02*
X88105000Y-74529500I0J-237500D01*
G01*
X88105000Y-75104500D01*
G75*
G02*
X87867500Y-75342000I-237500J0D01*
G01*
G37*
G36*
G01*
X87867500Y-77092000D02*
X87392500Y-77092000D01*
G75*
G02*
X87155000Y-76854500I0J237500D01*
G01*
X87155000Y-76279500D01*
G75*
G02*
X87392500Y-76042000I237500J0D01*
G01*
X87867500Y-76042000D01*
G75*
G02*
X88105000Y-76279500I0J-237500D01*
G01*
X88105000Y-76854500D01*
G75*
G02*
X87867500Y-77092000I-237500J0D01*
G01*
G37*
%TD*%
%TO.C,D4*%
G36*
G01*
X91677500Y-77092000D02*
X91202500Y-77092000D01*
G75*
G02*
X90965000Y-76854500I0J237500D01*
G01*
X90965000Y-76279500D01*
G75*
G02*
X91202500Y-76042000I237500J0D01*
G01*
X91677500Y-76042000D01*
G75*
G02*
X91915000Y-76279500I0J-237500D01*
G01*
X91915000Y-76854500D01*
G75*
G02*
X91677500Y-77092000I-237500J0D01*
G01*
G37*
G36*
G01*
X91677500Y-75342000D02*
X91202500Y-75342000D01*
G75*
G02*
X90965000Y-75104500I0J237500D01*
G01*
X90965000Y-74529500D01*
G75*
G02*
X91202500Y-74292000I237500J0D01*
G01*
X91677500Y-74292000D01*
G75*
G02*
X91915000Y-74529500I0J-237500D01*
G01*
X91915000Y-75104500D01*
G75*
G02*
X91677500Y-75342000I-237500J0D01*
G01*
G37*
%TD*%
%TO.C,D5*%
G36*
G01*
X95487500Y-77092000D02*
X95012500Y-77092000D01*
G75*
G02*
X94775000Y-76854500I0J237500D01*
G01*
X94775000Y-76279500D01*
G75*
G02*
X95012500Y-76042000I237500J0D01*
G01*
X95487500Y-76042000D01*
G75*
G02*
X95725000Y-76279500I0J-237500D01*
G01*
X95725000Y-76854500D01*
G75*
G02*
X95487500Y-77092000I-237500J0D01*
G01*
G37*
G36*
G01*
X95487500Y-75342000D02*
X95012500Y-75342000D01*
G75*
G02*
X94775000Y-75104500I0J237500D01*
G01*
X94775000Y-74529500D01*
G75*
G02*
X95012500Y-74292000I237500J0D01*
G01*
X95487500Y-74292000D01*
G75*
G02*
X95725000Y-74529500I0J-237500D01*
G01*
X95725000Y-75104500D01*
G75*
G02*
X95487500Y-75342000I-237500J0D01*
G01*
G37*
%TD*%
%TO.C,D6*%
G36*
G01*
X99297500Y-77092000D02*
X98822500Y-77092000D01*
G75*
G02*
X98585000Y-76854500I0J237500D01*
G01*
X98585000Y-76279500D01*
G75*
G02*
X98822500Y-76042000I237500J0D01*
G01*
X99297500Y-76042000D01*
G75*
G02*
X99535000Y-76279500I0J-237500D01*
G01*
X99535000Y-76854500D01*
G75*
G02*
X99297500Y-77092000I-237500J0D01*
G01*
G37*
G36*
G01*
X99297500Y-75342000D02*
X98822500Y-75342000D01*
G75*
G02*
X98585000Y-75104500I0J237500D01*
G01*
X98585000Y-74529500D01*
G75*
G02*
X98822500Y-74292000I237500J0D01*
G01*
X99297500Y-74292000D01*
G75*
G02*
X99535000Y-74529500I0J-237500D01*
G01*
X99535000Y-75104500D01*
G75*
G02*
X99297500Y-75342000I-237500J0D01*
G01*
G37*
%TD*%
%TO.C,D7*%
G36*
G01*
X103107500Y-75342000D02*
X102632500Y-75342000D01*
G75*
G02*
X102395000Y-75104500I0J237500D01*
G01*
X102395000Y-74529500D01*
G75*
G02*
X102632500Y-74292000I237500J0D01*
G01*
X103107500Y-74292000D01*
G75*
G02*
X103345000Y-74529500I0J-237500D01*
G01*
X103345000Y-75104500D01*
G75*
G02*
X103107500Y-75342000I-237500J0D01*
G01*
G37*
G36*
G01*
X103107500Y-77092000D02*
X102632500Y-77092000D01*
G75*
G02*
X102395000Y-76854500I0J237500D01*
G01*
X102395000Y-76279500D01*
G75*
G02*
X102632500Y-76042000I237500J0D01*
G01*
X103107500Y-76042000D01*
G75*
G02*
X103345000Y-76279500I0J-237500D01*
G01*
X103345000Y-76854500D01*
G75*
G02*
X103107500Y-77092000I-237500J0D01*
G01*
G37*
%TD*%
%TO.C,D8*%
G36*
G01*
X106917500Y-75342000D02*
X106442500Y-75342000D01*
G75*
G02*
X106205000Y-75104500I0J237500D01*
G01*
X106205000Y-74529500D01*
G75*
G02*
X106442500Y-74292000I237500J0D01*
G01*
X106917500Y-74292000D01*
G75*
G02*
X107155000Y-74529500I0J-237500D01*
G01*
X107155000Y-75104500D01*
G75*
G02*
X106917500Y-75342000I-237500J0D01*
G01*
G37*
G36*
G01*
X106917500Y-77092000D02*
X106442500Y-77092000D01*
G75*
G02*
X106205000Y-76854500I0J237500D01*
G01*
X106205000Y-76279500D01*
G75*
G02*
X106442500Y-76042000I237500J0D01*
G01*
X106917500Y-76042000D01*
G75*
G02*
X107155000Y-76279500I0J-237500D01*
G01*
X107155000Y-76854500D01*
G75*
G02*
X106917500Y-77092000I-237500J0D01*
G01*
G37*
%TD*%
%TO.C,D9*%
G36*
G01*
X110727500Y-77092000D02*
X110252500Y-77092000D01*
G75*
G02*
X110015000Y-76854500I0J237500D01*
G01*
X110015000Y-76279500D01*
G75*
G02*
X110252500Y-76042000I237500J0D01*
G01*
X110727500Y-76042000D01*
G75*
G02*
X110965000Y-76279500I0J-237500D01*
G01*
X110965000Y-76854500D01*
G75*
G02*
X110727500Y-77092000I-237500J0D01*
G01*
G37*
G36*
G01*
X110727500Y-75342000D02*
X110252500Y-75342000D01*
G75*
G02*
X110015000Y-75104500I0J237500D01*
G01*
X110015000Y-74529500D01*
G75*
G02*
X110252500Y-74292000I237500J0D01*
G01*
X110727500Y-74292000D01*
G75*
G02*
X110965000Y-74529500I0J-237500D01*
G01*
X110965000Y-75104500D01*
G75*
G02*
X110727500Y-75342000I-237500J0D01*
G01*
G37*
%TD*%
%TO.C,D10*%
G36*
G01*
X114537500Y-77092000D02*
X114062500Y-77092000D01*
G75*
G02*
X113825000Y-76854500I0J237500D01*
G01*
X113825000Y-76279500D01*
G75*
G02*
X114062500Y-76042000I237500J0D01*
G01*
X114537500Y-76042000D01*
G75*
G02*
X114775000Y-76279500I0J-237500D01*
G01*
X114775000Y-76854500D01*
G75*
G02*
X114537500Y-77092000I-237500J0D01*
G01*
G37*
G36*
G01*
X114537500Y-75342000D02*
X114062500Y-75342000D01*
G75*
G02*
X113825000Y-75104500I0J237500D01*
G01*
X113825000Y-74529500D01*
G75*
G02*
X114062500Y-74292000I237500J0D01*
G01*
X114537500Y-74292000D01*
G75*
G02*
X114775000Y-74529500I0J-237500D01*
G01*
X114775000Y-75104500D01*
G75*
G02*
X114537500Y-75342000I-237500J0D01*
G01*
G37*
%TD*%
%TO.C,D11*%
G36*
G01*
X118347500Y-75342000D02*
X117872500Y-75342000D01*
G75*
G02*
X117635000Y-75104500I0J237500D01*
G01*
X117635000Y-74529500D01*
G75*
G02*
X117872500Y-74292000I237500J0D01*
G01*
X118347500Y-74292000D01*
G75*
G02*
X118585000Y-74529500I0J-237500D01*
G01*
X118585000Y-75104500D01*
G75*
G02*
X118347500Y-75342000I-237500J0D01*
G01*
G37*
G36*
G01*
X118347500Y-77092000D02*
X117872500Y-77092000D01*
G75*
G02*
X117635000Y-76854500I0J237500D01*
G01*
X117635000Y-76279500D01*
G75*
G02*
X117872500Y-76042000I237500J0D01*
G01*
X118347500Y-76042000D01*
G75*
G02*
X118585000Y-76279500I0J-237500D01*
G01*
X118585000Y-76854500D01*
G75*
G02*
X118347500Y-77092000I-237500J0D01*
G01*
G37*
%TD*%
%TO.C,D12*%
G36*
G01*
X122157500Y-75342000D02*
X121682500Y-75342000D01*
G75*
G02*
X121445000Y-75104500I0J237500D01*
G01*
X121445000Y-74529500D01*
G75*
G02*
X121682500Y-74292000I237500J0D01*
G01*
X122157500Y-74292000D01*
G75*
G02*
X122395000Y-74529500I0J-237500D01*
G01*
X122395000Y-75104500D01*
G75*
G02*
X122157500Y-75342000I-237500J0D01*
G01*
G37*
G36*
G01*
X122157500Y-77092000D02*
X121682500Y-77092000D01*
G75*
G02*
X121445000Y-76854500I0J237500D01*
G01*
X121445000Y-76279500D01*
G75*
G02*
X121682500Y-76042000I237500J0D01*
G01*
X122157500Y-76042000D01*
G75*
G02*
X122395000Y-76279500I0J-237500D01*
G01*
X122395000Y-76854500D01*
G75*
G02*
X122157500Y-77092000I-237500J0D01*
G01*
G37*
%TD*%
%TO.C,R1*%
G36*
G01*
X53169000Y-68596500D02*
X53169000Y-69071500D01*
G75*
G02*
X52931500Y-69309000I-237500J0D01*
G01*
X52431500Y-69309000D01*
G75*
G02*
X52194000Y-69071500I0J237500D01*
G01*
X52194000Y-68596500D01*
G75*
G02*
X52431500Y-68359000I237500J0D01*
G01*
X52931500Y-68359000D01*
G75*
G02*
X53169000Y-68596500I0J-237500D01*
G01*
G37*
G36*
G01*
X54994000Y-68596500D02*
X54994000Y-69071500D01*
G75*
G02*
X54756500Y-69309000I-237500J0D01*
G01*
X54256500Y-69309000D01*
G75*
G02*
X54019000Y-69071500I0J237500D01*
G01*
X54019000Y-68596500D01*
G75*
G02*
X54256500Y-68359000I237500J0D01*
G01*
X54756500Y-68359000D01*
G75*
G02*
X54994000Y-68596500I0J-237500D01*
G01*
G37*
%TD*%
%TO.C,R2*%
G36*
G01*
X33036500Y-67989000D02*
X33511500Y-67989000D01*
G75*
G02*
X33749000Y-68226500I0J-237500D01*
G01*
X33749000Y-68726500D01*
G75*
G02*
X33511500Y-68964000I-237500J0D01*
G01*
X33036500Y-68964000D01*
G75*
G02*
X32799000Y-68726500I0J237500D01*
G01*
X32799000Y-68226500D01*
G75*
G02*
X33036500Y-67989000I237500J0D01*
G01*
G37*
G36*
G01*
X33036500Y-66164000D02*
X33511500Y-66164000D01*
G75*
G02*
X33749000Y-66401500I0J-237500D01*
G01*
X33749000Y-66901500D01*
G75*
G02*
X33511500Y-67139000I-237500J0D01*
G01*
X33036500Y-67139000D01*
G75*
G02*
X32799000Y-66901500I0J237500D01*
G01*
X32799000Y-66401500D01*
G75*
G02*
X33036500Y-66164000I237500J0D01*
G01*
G37*
%TD*%
%TO.C,R3*%
G36*
G01*
X30971500Y-68964000D02*
X30496500Y-68964000D01*
G75*
G02*
X30259000Y-68726500I0J237500D01*
G01*
X30259000Y-68226500D01*
G75*
G02*
X30496500Y-67989000I237500J0D01*
G01*
X30971500Y-67989000D01*
G75*
G02*
X31209000Y-68226500I0J-237500D01*
G01*
X31209000Y-68726500D01*
G75*
G02*
X30971500Y-68964000I-237500J0D01*
G01*
G37*
G36*
G01*
X30971500Y-67139000D02*
X30496500Y-67139000D01*
G75*
G02*
X30259000Y-66901500I0J237500D01*
G01*
X30259000Y-66401500D01*
G75*
G02*
X30496500Y-66164000I237500J0D01*
G01*
X30971500Y-66164000D01*
G75*
G02*
X31209000Y-66401500I0J-237500D01*
G01*
X31209000Y-66901500D01*
G75*
G02*
X30971500Y-67139000I-237500J0D01*
G01*
G37*
%TD*%
%TO.C,R4*%
G36*
G01*
X106659500Y-57039500D02*
X106659500Y-57514500D01*
G75*
G02*
X106422000Y-57752000I-237500J0D01*
G01*
X105922000Y-57752000D01*
G75*
G02*
X105684500Y-57514500I0J237500D01*
G01*
X105684500Y-57039500D01*
G75*
G02*
X105922000Y-56802000I237500J0D01*
G01*
X106422000Y-56802000D01*
G75*
G02*
X106659500Y-57039500I0J-237500D01*
G01*
G37*
G36*
G01*
X104834500Y-57039500D02*
X104834500Y-57514500D01*
G75*
G02*
X104597000Y-57752000I-237500J0D01*
G01*
X104097000Y-57752000D01*
G75*
G02*
X103859500Y-57514500I0J237500D01*
G01*
X103859500Y-57039500D01*
G75*
G02*
X104097000Y-56802000I237500J0D01*
G01*
X104597000Y-56802000D01*
G75*
G02*
X104834500Y-57039500I0J-237500D01*
G01*
G37*
%TD*%
%TO.C,R5*%
G36*
G01*
X104731000Y-61103500D02*
X104731000Y-61578500D01*
G75*
G02*
X104493500Y-61816000I-237500J0D01*
G01*
X103993500Y-61816000D01*
G75*
G02*
X103756000Y-61578500I0J237500D01*
G01*
X103756000Y-61103500D01*
G75*
G02*
X103993500Y-60866000I237500J0D01*
G01*
X104493500Y-60866000D01*
G75*
G02*
X104731000Y-61103500I0J-237500D01*
G01*
G37*
G36*
G01*
X106556000Y-61103500D02*
X106556000Y-61578500D01*
G75*
G02*
X106318500Y-61816000I-237500J0D01*
G01*
X105818500Y-61816000D01*
G75*
G02*
X105581000Y-61578500I0J237500D01*
G01*
X105581000Y-61103500D01*
G75*
G02*
X105818500Y-60866000I237500J0D01*
G01*
X106318500Y-60866000D01*
G75*
G02*
X106556000Y-61103500I0J-237500D01*
G01*
G37*
%TD*%
%TO.C,R6*%
G36*
G01*
X122767100Y-65511500D02*
X122292100Y-65511500D01*
G75*
G02*
X122054600Y-65274000I0J237500D01*
G01*
X122054600Y-64774000D01*
G75*
G02*
X122292100Y-64536500I237500J0D01*
G01*
X122767100Y-64536500D01*
G75*
G02*
X123004600Y-64774000I0J-237500D01*
G01*
X123004600Y-65274000D01*
G75*
G02*
X122767100Y-65511500I-237500J0D01*
G01*
G37*
G36*
G01*
X122767100Y-67336500D02*
X122292100Y-67336500D01*
G75*
G02*
X122054600Y-67099000I0J237500D01*
G01*
X122054600Y-66599000D01*
G75*
G02*
X122292100Y-66361500I237500J0D01*
G01*
X122767100Y-66361500D01*
G75*
G02*
X123004600Y-66599000I0J-237500D01*
G01*
X123004600Y-67099000D01*
G75*
G02*
X122767100Y-67336500I-237500J0D01*
G01*
G37*
%TD*%
%TO.C,R7*%
G36*
G01*
X126616000Y-56117500D02*
X126616000Y-55642500D01*
G75*
G02*
X126853500Y-55405000I237500J0D01*
G01*
X127353500Y-55405000D01*
G75*
G02*
X127591000Y-55642500I0J-237500D01*
G01*
X127591000Y-56117500D01*
G75*
G02*
X127353500Y-56355000I-237500J0D01*
G01*
X126853500Y-56355000D01*
G75*
G02*
X126616000Y-56117500I0J237500D01*
G01*
G37*
G36*
G01*
X128441000Y-56117500D02*
X128441000Y-55642500D01*
G75*
G02*
X128678500Y-55405000I237500J0D01*
G01*
X129178500Y-55405000D01*
G75*
G02*
X129416000Y-55642500I0J-237500D01*
G01*
X129416000Y-56117500D01*
G75*
G02*
X129178500Y-56355000I-237500J0D01*
G01*
X128678500Y-56355000D01*
G75*
G02*
X128441000Y-56117500I0J237500D01*
G01*
G37*
%TD*%
%TO.C,R8*%
G36*
G01*
X126616000Y-65515500D02*
X126616000Y-65040500D01*
G75*
G02*
X126853500Y-64803000I237500J0D01*
G01*
X127353500Y-64803000D01*
G75*
G02*
X127591000Y-65040500I0J-237500D01*
G01*
X127591000Y-65515500D01*
G75*
G02*
X127353500Y-65753000I-237500J0D01*
G01*
X126853500Y-65753000D01*
G75*
G02*
X126616000Y-65515500I0J237500D01*
G01*
G37*
G36*
G01*
X128441000Y-65515500D02*
X128441000Y-65040500D01*
G75*
G02*
X128678500Y-64803000I237500J0D01*
G01*
X129178500Y-64803000D01*
G75*
G02*
X129416000Y-65040500I0J-237500D01*
G01*
X129416000Y-65515500D01*
G75*
G02*
X129178500Y-65753000I-237500J0D01*
G01*
X128678500Y-65753000D01*
G75*
G02*
X128441000Y-65515500I0J237500D01*
G01*
G37*
%TD*%
%TO.C,R9*%
G36*
G01*
X118634500Y-65195000D02*
X119109500Y-65195000D01*
G75*
G02*
X119347000Y-65432500I0J-237500D01*
G01*
X119347000Y-65932500D01*
G75*
G02*
X119109500Y-66170000I-237500J0D01*
G01*
X118634500Y-66170000D01*
G75*
G02*
X118397000Y-65932500I0J237500D01*
G01*
X118397000Y-65432500D01*
G75*
G02*
X118634500Y-65195000I237500J0D01*
G01*
G37*
G36*
G01*
X118634500Y-63370000D02*
X119109500Y-63370000D01*
G75*
G02*
X119347000Y-63607500I0J-237500D01*
G01*
X119347000Y-64107500D01*
G75*
G02*
X119109500Y-64345000I-237500J0D01*
G01*
X118634500Y-64345000D01*
G75*
G02*
X118397000Y-64107500I0J237500D01*
G01*
X118397000Y-63607500D01*
G75*
G02*
X118634500Y-63370000I237500J0D01*
G01*
G37*
%TD*%
%TO.C,R10*%
G36*
G01*
X128441000Y-62975500D02*
X128441000Y-62500500D01*
G75*
G02*
X128678500Y-62263000I237500J0D01*
G01*
X129178500Y-62263000D01*
G75*
G02*
X129416000Y-62500500I0J-237500D01*
G01*
X129416000Y-62975500D01*
G75*
G02*
X129178500Y-63213000I-237500J0D01*
G01*
X128678500Y-63213000D01*
G75*
G02*
X128441000Y-62975500I0J237500D01*
G01*
G37*
G36*
G01*
X126616000Y-62975500D02*
X126616000Y-62500500D01*
G75*
G02*
X126853500Y-62263000I237500J0D01*
G01*
X127353500Y-62263000D01*
G75*
G02*
X127591000Y-62500500I0J-237500D01*
G01*
X127591000Y-62975500D01*
G75*
G02*
X127353500Y-63213000I-237500J0D01*
G01*
X126853500Y-63213000D01*
G75*
G02*
X126616000Y-62975500I0J237500D01*
G01*
G37*
%TD*%
%TO.C,R11*%
G36*
G01*
X79772500Y-70482000D02*
X80247500Y-70482000D01*
G75*
G02*
X80485000Y-70719500I0J-237500D01*
G01*
X80485000Y-71219500D01*
G75*
G02*
X80247500Y-71457000I-237500J0D01*
G01*
X79772500Y-71457000D01*
G75*
G02*
X79535000Y-71219500I0J237500D01*
G01*
X79535000Y-70719500D01*
G75*
G02*
X79772500Y-70482000I237500J0D01*
G01*
G37*
G36*
G01*
X79772500Y-72307000D02*
X80247500Y-72307000D01*
G75*
G02*
X80485000Y-72544500I0J-237500D01*
G01*
X80485000Y-73044500D01*
G75*
G02*
X80247500Y-73282000I-237500J0D01*
G01*
X79772500Y-73282000D01*
G75*
G02*
X79535000Y-73044500I0J237500D01*
G01*
X79535000Y-72544500D01*
G75*
G02*
X79772500Y-72307000I237500J0D01*
G01*
G37*
%TD*%
%TO.C,R12*%
G36*
G01*
X83582500Y-72307000D02*
X84057500Y-72307000D01*
G75*
G02*
X84295000Y-72544500I0J-237500D01*
G01*
X84295000Y-73044500D01*
G75*
G02*
X84057500Y-73282000I-237500J0D01*
G01*
X83582500Y-73282000D01*
G75*
G02*
X83345000Y-73044500I0J237500D01*
G01*
X83345000Y-72544500D01*
G75*
G02*
X83582500Y-72307000I237500J0D01*
G01*
G37*
G36*
G01*
X83582500Y-70482000D02*
X84057500Y-70482000D01*
G75*
G02*
X84295000Y-70719500I0J-237500D01*
G01*
X84295000Y-71219500D01*
G75*
G02*
X84057500Y-71457000I-237500J0D01*
G01*
X83582500Y-71457000D01*
G75*
G02*
X83345000Y-71219500I0J237500D01*
G01*
X83345000Y-70719500D01*
G75*
G02*
X83582500Y-70482000I237500J0D01*
G01*
G37*
%TD*%
%TO.C,R13*%
G36*
G01*
X87392500Y-70482000D02*
X87867500Y-70482000D01*
G75*
G02*
X88105000Y-70719500I0J-237500D01*
G01*
X88105000Y-71219500D01*
G75*
G02*
X87867500Y-71457000I-237500J0D01*
G01*
X87392500Y-71457000D01*
G75*
G02*
X87155000Y-71219500I0J237500D01*
G01*
X87155000Y-70719500D01*
G75*
G02*
X87392500Y-70482000I237500J0D01*
G01*
G37*
G36*
G01*
X87392500Y-72307000D02*
X87867500Y-72307000D01*
G75*
G02*
X88105000Y-72544500I0J-237500D01*
G01*
X88105000Y-73044500D01*
G75*
G02*
X87867500Y-73282000I-237500J0D01*
G01*
X87392500Y-73282000D01*
G75*
G02*
X87155000Y-73044500I0J237500D01*
G01*
X87155000Y-72544500D01*
G75*
G02*
X87392500Y-72307000I237500J0D01*
G01*
G37*
%TD*%
%TO.C,R14*%
G36*
G01*
X91202500Y-70482000D02*
X91677500Y-70482000D01*
G75*
G02*
X91915000Y-70719500I0J-237500D01*
G01*
X91915000Y-71219500D01*
G75*
G02*
X91677500Y-71457000I-237500J0D01*
G01*
X91202500Y-71457000D01*
G75*
G02*
X90965000Y-71219500I0J237500D01*
G01*
X90965000Y-70719500D01*
G75*
G02*
X91202500Y-70482000I237500J0D01*
G01*
G37*
G36*
G01*
X91202500Y-72307000D02*
X91677500Y-72307000D01*
G75*
G02*
X91915000Y-72544500I0J-237500D01*
G01*
X91915000Y-73044500D01*
G75*
G02*
X91677500Y-73282000I-237500J0D01*
G01*
X91202500Y-73282000D01*
G75*
G02*
X90965000Y-73044500I0J237500D01*
G01*
X90965000Y-72544500D01*
G75*
G02*
X91202500Y-72307000I237500J0D01*
G01*
G37*
%TD*%
%TO.C,R15*%
G36*
G01*
X95012500Y-72307000D02*
X95487500Y-72307000D01*
G75*
G02*
X95725000Y-72544500I0J-237500D01*
G01*
X95725000Y-73044500D01*
G75*
G02*
X95487500Y-73282000I-237500J0D01*
G01*
X95012500Y-73282000D01*
G75*
G02*
X94775000Y-73044500I0J237500D01*
G01*
X94775000Y-72544500D01*
G75*
G02*
X95012500Y-72307000I237500J0D01*
G01*
G37*
G36*
G01*
X95012500Y-70482000D02*
X95487500Y-70482000D01*
G75*
G02*
X95725000Y-70719500I0J-237500D01*
G01*
X95725000Y-71219500D01*
G75*
G02*
X95487500Y-71457000I-237500J0D01*
G01*
X95012500Y-71457000D01*
G75*
G02*
X94775000Y-71219500I0J237500D01*
G01*
X94775000Y-70719500D01*
G75*
G02*
X95012500Y-70482000I237500J0D01*
G01*
G37*
%TD*%
%TO.C,R16*%
G36*
G01*
X98822500Y-70482000D02*
X99297500Y-70482000D01*
G75*
G02*
X99535000Y-70719500I0J-237500D01*
G01*
X99535000Y-71219500D01*
G75*
G02*
X99297500Y-71457000I-237500J0D01*
G01*
X98822500Y-71457000D01*
G75*
G02*
X98585000Y-71219500I0J237500D01*
G01*
X98585000Y-70719500D01*
G75*
G02*
X98822500Y-70482000I237500J0D01*
G01*
G37*
G36*
G01*
X98822500Y-72307000D02*
X99297500Y-72307000D01*
G75*
G02*
X99535000Y-72544500I0J-237500D01*
G01*
X99535000Y-73044500D01*
G75*
G02*
X99297500Y-73282000I-237500J0D01*
G01*
X98822500Y-73282000D01*
G75*
G02*
X98585000Y-73044500I0J237500D01*
G01*
X98585000Y-72544500D01*
G75*
G02*
X98822500Y-72307000I237500J0D01*
G01*
G37*
%TD*%
%TO.C,R17*%
G36*
G01*
X102632500Y-72307000D02*
X103107500Y-72307000D01*
G75*
G02*
X103345000Y-72544500I0J-237500D01*
G01*
X103345000Y-73044500D01*
G75*
G02*
X103107500Y-73282000I-237500J0D01*
G01*
X102632500Y-73282000D01*
G75*
G02*
X102395000Y-73044500I0J237500D01*
G01*
X102395000Y-72544500D01*
G75*
G02*
X102632500Y-72307000I237500J0D01*
G01*
G37*
G36*
G01*
X102632500Y-70482000D02*
X103107500Y-70482000D01*
G75*
G02*
X103345000Y-70719500I0J-237500D01*
G01*
X103345000Y-71219500D01*
G75*
G02*
X103107500Y-71457000I-237500J0D01*
G01*
X102632500Y-71457000D01*
G75*
G02*
X102395000Y-71219500I0J237500D01*
G01*
X102395000Y-70719500D01*
G75*
G02*
X102632500Y-70482000I237500J0D01*
G01*
G37*
%TD*%
%TO.C,R18*%
G36*
G01*
X106442500Y-70482000D02*
X106917500Y-70482000D01*
G75*
G02*
X107155000Y-70719500I0J-237500D01*
G01*
X107155000Y-71219500D01*
G75*
G02*
X106917500Y-71457000I-237500J0D01*
G01*
X106442500Y-71457000D01*
G75*
G02*
X106205000Y-71219500I0J237500D01*
G01*
X106205000Y-70719500D01*
G75*
G02*
X106442500Y-70482000I237500J0D01*
G01*
G37*
G36*
G01*
X106442500Y-72307000D02*
X106917500Y-72307000D01*
G75*
G02*
X107155000Y-72544500I0J-237500D01*
G01*
X107155000Y-73044500D01*
G75*
G02*
X106917500Y-73282000I-237500J0D01*
G01*
X106442500Y-73282000D01*
G75*
G02*
X106205000Y-73044500I0J237500D01*
G01*
X106205000Y-72544500D01*
G75*
G02*
X106442500Y-72307000I237500J0D01*
G01*
G37*
%TD*%
%TO.C,R19*%
G36*
G01*
X110252500Y-72307000D02*
X110727500Y-72307000D01*
G75*
G02*
X110965000Y-72544500I0J-237500D01*
G01*
X110965000Y-73044500D01*
G75*
G02*
X110727500Y-73282000I-237500J0D01*
G01*
X110252500Y-73282000D01*
G75*
G02*
X110015000Y-73044500I0J237500D01*
G01*
X110015000Y-72544500D01*
G75*
G02*
X110252500Y-72307000I237500J0D01*
G01*
G37*
G36*
G01*
X110252500Y-70482000D02*
X110727500Y-70482000D01*
G75*
G02*
X110965000Y-70719500I0J-237500D01*
G01*
X110965000Y-71219500D01*
G75*
G02*
X110727500Y-71457000I-237500J0D01*
G01*
X110252500Y-71457000D01*
G75*
G02*
X110015000Y-71219500I0J237500D01*
G01*
X110015000Y-70719500D01*
G75*
G02*
X110252500Y-70482000I237500J0D01*
G01*
G37*
%TD*%
%TO.C,R20*%
G36*
G01*
X114062500Y-70482000D02*
X114537500Y-70482000D01*
G75*
G02*
X114775000Y-70719500I0J-237500D01*
G01*
X114775000Y-71219500D01*
G75*
G02*
X114537500Y-71457000I-237500J0D01*
G01*
X114062500Y-71457000D01*
G75*
G02*
X113825000Y-71219500I0J237500D01*
G01*
X113825000Y-70719500D01*
G75*
G02*
X114062500Y-70482000I237500J0D01*
G01*
G37*
G36*
G01*
X114062500Y-72307000D02*
X114537500Y-72307000D01*
G75*
G02*
X114775000Y-72544500I0J-237500D01*
G01*
X114775000Y-73044500D01*
G75*
G02*
X114537500Y-73282000I-237500J0D01*
G01*
X114062500Y-73282000D01*
G75*
G02*
X113825000Y-73044500I0J237500D01*
G01*
X113825000Y-72544500D01*
G75*
G02*
X114062500Y-72307000I237500J0D01*
G01*
G37*
%TD*%
%TO.C,R21*%
G36*
G01*
X117872500Y-72307000D02*
X118347500Y-72307000D01*
G75*
G02*
X118585000Y-72544500I0J-237500D01*
G01*
X118585000Y-73044500D01*
G75*
G02*
X118347500Y-73282000I-237500J0D01*
G01*
X117872500Y-73282000D01*
G75*
G02*
X117635000Y-73044500I0J237500D01*
G01*
X117635000Y-72544500D01*
G75*
G02*
X117872500Y-72307000I237500J0D01*
G01*
G37*
G36*
G01*
X117872500Y-70482000D02*
X118347500Y-70482000D01*
G75*
G02*
X118585000Y-70719500I0J-237500D01*
G01*
X118585000Y-71219500D01*
G75*
G02*
X118347500Y-71457000I-237500J0D01*
G01*
X117872500Y-71457000D01*
G75*
G02*
X117635000Y-71219500I0J237500D01*
G01*
X117635000Y-70719500D01*
G75*
G02*
X117872500Y-70482000I237500J0D01*
G01*
G37*
%TD*%
%TO.C,R22*%
G36*
G01*
X121682500Y-70482000D02*
X122157500Y-70482000D01*
G75*
G02*
X122395000Y-70719500I0J-237500D01*
G01*
X122395000Y-71219500D01*
G75*
G02*
X122157500Y-71457000I-237500J0D01*
G01*
X121682500Y-71457000D01*
G75*
G02*
X121445000Y-71219500I0J237500D01*
G01*
X121445000Y-70719500D01*
G75*
G02*
X121682500Y-70482000I237500J0D01*
G01*
G37*
G36*
G01*
X121682500Y-72307000D02*
X122157500Y-72307000D01*
G75*
G02*
X122395000Y-72544500I0J-237500D01*
G01*
X122395000Y-73044500D01*
G75*
G02*
X122157500Y-73282000I-237500J0D01*
G01*
X121682500Y-73282000D01*
G75*
G02*
X121445000Y-73044500I0J237500D01*
G01*
X121445000Y-72544500D01*
G75*
G02*
X121682500Y-72307000I237500J0D01*
G01*
G37*
%TD*%
D21*
%TO.C,U1*%
X60960000Y-58674000D03*
X63500000Y-58674000D03*
X66040000Y-58674000D03*
%TD*%
%TO.C,U4*%
X48260000Y-63246000D03*
X45720000Y-63246000D03*
X43180000Y-63246000D03*
%TD*%
D22*
%TO.C,U2*%
X97769000Y-46675800D03*
X97769000Y-47075800D03*
X97769000Y-47475800D03*
X97769000Y-47875800D03*
X97769000Y-48275800D03*
X97769000Y-48675800D03*
D23*
X98314000Y-49220800D03*
X98714000Y-49220800D03*
X99114000Y-49220800D03*
X99514000Y-49220800D03*
X99914000Y-49220800D03*
X100314000Y-49220800D03*
D22*
X100859000Y-48675800D03*
X100859000Y-48275800D03*
X100859000Y-47875800D03*
X100859000Y-47475800D03*
X100859000Y-47075800D03*
X100859000Y-46675800D03*
D23*
X100314000Y-46130800D03*
X99914000Y-46130800D03*
X99514000Y-46130800D03*
X99114000Y-46130800D03*
X98714000Y-46130800D03*
X98314000Y-46130800D03*
%TD*%
D24*
%TO.C,U3*%
X112560500Y-58837000D03*
D25*
X111748000Y-58774500D03*
X111248000Y-58774500D03*
X110748000Y-58774500D03*
X110248000Y-58774500D03*
D24*
X109435500Y-58837000D03*
X109435500Y-59337000D03*
X109435500Y-59837000D03*
X109435500Y-60337000D03*
X109435500Y-60837000D03*
X109435500Y-61337000D03*
X109435500Y-61837000D03*
X109435500Y-62337000D03*
X109435500Y-62837000D03*
X109435500Y-63337000D03*
D25*
X110248000Y-63399500D03*
X110748000Y-63399500D03*
X111248000Y-63399500D03*
X111748000Y-63399500D03*
D24*
X112560500Y-63337000D03*
X112560500Y-62837000D03*
X112560500Y-62337000D03*
X112560500Y-61837000D03*
X112560500Y-61337000D03*
X112560500Y-60837000D03*
X112560500Y-60337000D03*
X112560500Y-59837000D03*
X112560500Y-59337000D03*
%TD*%
M02*
