M48
;DRILL file {KiCad (5.0.2)-1} date 3/24/2019 1:02:07 PM
;FORMAT={-:-/ absolute / inch / decimal}
FMAT,2
INCH,TZ
T1C0.0157
T2C0.0300
T3C0.0315
T4C0.0350
T5C0.0354
T6C0.0394
T7C0.0551
T8C0.0591
T9C0.1598
%
G90
G05
T1
X4.6Y-5.1
X4.6856Y-1.5556
X4.7Y-4.1
X4.7Y-4.35
X4.7Y-4.6
X4.8Y-1.8
X4.8Y-2.
X4.8Y-2.2
X4.8Y-2.6
X4.9Y-3.44
X4.9Y-3.67
X4.9Y-4.6
X5.Y-1.8
X5.Y-2.
X5.Y-2.2
X5.Y-2.6
X5.Y-2.8
X5.Y-3.
X5.11Y-1.5556
X5.209Y-4.7911
X5.257Y-4.2
X5.32Y-4.64
X5.4Y-2.415
X5.4Y-2.415
X5.4Y-4.2
X5.4Y-4.5
X5.44Y-3.44
X5.44Y-3.67
X5.5367Y-3.7267
X5.57Y-3.46
X5.6Y-1.7
X5.6Y-1.9
X5.6Y-4.2
X5.6Y-4.5
X5.6Y-4.9
X5.61Y-3.1
X5.61Y-3.3
X5.63Y-3.38
X5.8Y-4.2
X5.8Y-4.5
X5.8Y-4.9
X5.81Y-3.67
X5.86Y-5.02
X5.87Y-3.44
X5.9Y-3.1
X5.9Y-3.3
X5.93Y-4.05
X5.98Y-4.05
X5.98Y-4.61
X6.Y-1.7
X6.Y-1.9
X6.Y-2.1
X6.Y-2.3
X6.02Y-4.05
X6.06Y-3.38
X6.06Y-4.05
X6.06Y-5.
X6.09Y-2.29
X6.1Y-4.05
X6.1Y-4.61
X6.1Y-5.1
X6.12Y-3.44
X6.14Y-2.28
X6.14Y-4.05
X6.14Y-4.61
X6.18Y-2.395
X6.2Y-3.1
X6.2Y-3.3
X6.4Y-1.8
X6.4Y-2.
X6.4Y-2.2
X6.4025Y-2.4175
X6.46Y-2.74
X6.46Y-3.6005
X6.46Y-3.71
X6.521Y-3.054
X6.5479Y-3.3
X6.5657Y-2.904
X6.63Y-2.74
X6.745Y-1.63
X6.7475Y-3.055
X6.749Y-2.9574
X6.75Y-2.53
X6.75Y-3.42
X6.84Y-3.6
X6.84Y-3.8
X6.84Y-4.01
X6.87Y-2.9885
T2
X6.43Y-1.53
X6.53Y-1.53
X6.63Y-1.53
X6.73Y-1.53
X5.6Y-1.53
T3
X5.5779Y-2.26
X5.77Y-2.26
X5.18Y-2.6
X5.18Y-2.9
X5.28Y-2.6
X5.28Y-2.9
X5.38Y-2.6
X5.38Y-2.9
X5.48Y-2.6
X5.48Y-2.9
X5.58Y-2.6
X5.58Y-2.9
X5.68Y-2.6
X5.68Y-2.9
X5.78Y-2.6
X5.78Y-2.9
X5.88Y-2.6
X5.88Y-2.9
X5.98Y-2.6
X5.98Y-2.9
X6.08Y-2.6
X6.08Y-2.9
X6.18Y-2.6
X6.18Y-2.9
X6.28Y-2.6
X6.28Y-2.9
X6.38Y-2.6
X6.38Y-2.9
X6.48Y-2.6
X6.48Y-2.9
X6.68Y-1.91
X6.7784Y-1.91
T4
X5.14Y-4.29
X5.14Y-4.39
X5.14Y-4.49
X5.1Y-3.93
X5.2Y-3.93
X5.3Y-3.93
T5
X5.8609Y-1.531
X5.9609Y-1.531
X6.0609Y-1.531
X6.1609Y-1.531
X5.4Y-1.53
X5.5Y-1.53
T6
X4.55Y-3.15
X4.55Y-3.25
X4.55Y-4.85
X4.55Y-4.95
X4.65Y-3.15
X4.65Y-3.25
X4.65Y-4.85
X4.65Y-4.95
X4.75Y-3.15
X4.75Y-3.25
X4.75Y-4.85
X4.75Y-4.95
X4.85Y-3.15
X4.85Y-3.25
X4.85Y-4.85
X4.85Y-4.95
X4.95Y-3.15
X4.95Y-3.25
X4.95Y-4.85
X4.95Y-4.95
X5.05Y-3.15
X5.05Y-3.25
X5.05Y-4.85
X5.05Y-4.95
X5.15Y-3.15
X5.15Y-3.25
X5.15Y-4.85
X5.15Y-4.95
X5.25Y-3.15
X5.25Y-3.25
X5.25Y-4.85
X5.25Y-4.95
X5.35Y-3.15
X5.35Y-3.25
X5.35Y-4.85
X5.35Y-4.95
X5.45Y-3.15
X5.45Y-3.25
X5.45Y-4.85
X5.45Y-4.95
T7
X4.66Y-2.88
T8
X4.5596Y-2.7796
X4.5596Y-2.9804
X4.7604Y-2.7796
X4.7604Y-2.9804
T9
X4.721Y-3.515
X4.721Y-3.825
T0
M30
