G04 #@! TF.GenerationSoftware,KiCad,Pcbnew,(5.0.0)*
G04 #@! TF.CreationDate,2018-12-16T15:52:41-06:00*
G04 #@! TF.ProjectId,NavBoard_Hardware,4E6176426F6172645F48617264776172,rev?*
G04 #@! TF.SameCoordinates,Original*
G04 #@! TF.FileFunction,Legend,Bot*
G04 #@! TF.FilePolarity,Positive*
%FSLAX46Y46*%
G04 Gerber Fmt 4.6, Leading zero omitted, Abs format (unit mm)*
G04 Created by KiCad (PCBNEW (5.0.0)) date 12/16/18 15:52:41*
%MOMM*%
%LPD*%
G01*
G04 APERTURE LIST*
%ADD10C,0.300000*%
G04 APERTURE END LIST*
D10*
X158349142Y-58571142D02*
X158349142Y-59714000D01*
X158920571Y-59142571D02*
X157777714Y-59142571D01*
X157420571Y-60285428D02*
X157420571Y-61213999D01*
X157992000Y-60713999D01*
X157992000Y-60928285D01*
X158063428Y-61071142D01*
X158134857Y-61142571D01*
X158277714Y-61214000D01*
X158634857Y-61214000D01*
X158777714Y-61142571D01*
X158849142Y-61071142D01*
X158920571Y-60928285D01*
X158920571Y-60499714D01*
X158849142Y-60356857D01*
X158777714Y-60285428D01*
X157420571Y-61642571D02*
X158920571Y-62142571D01*
X157420571Y-62642571D01*
X157420571Y-62999714D02*
X157420571Y-63928285D01*
X157991999Y-63428285D01*
X157991999Y-63642571D01*
X158063428Y-63785428D01*
X158134857Y-63856857D01*
X158277714Y-63928285D01*
X158634857Y-63928285D01*
X158777714Y-63856857D01*
X158849142Y-63785428D01*
X158920571Y-63642571D01*
X158920571Y-63214000D01*
X158849142Y-63071142D01*
X158777714Y-62999714D01*
X156309142Y-60190285D02*
X156380571Y-60404571D01*
X156380571Y-60761714D01*
X156309142Y-60904571D01*
X156237714Y-60975999D01*
X156094857Y-61047428D01*
X155952000Y-61047428D01*
X155809142Y-60975999D01*
X155737714Y-60904571D01*
X155666285Y-60761714D01*
X155594857Y-60475999D01*
X155523428Y-60333142D01*
X155452000Y-60261714D01*
X155309142Y-60190285D01*
X155166285Y-60190285D01*
X155023428Y-60261714D01*
X154952000Y-60333142D01*
X154880571Y-60475999D01*
X154880571Y-60833142D01*
X154952000Y-61047428D01*
X156237714Y-62547428D02*
X156309142Y-62475999D01*
X156380571Y-62261714D01*
X156380571Y-62118857D01*
X156309142Y-61904571D01*
X156166285Y-61761714D01*
X156023428Y-61690285D01*
X155737714Y-61618857D01*
X155523428Y-61618857D01*
X155237714Y-61690285D01*
X155094857Y-61761714D01*
X154952000Y-61904571D01*
X154880571Y-62118857D01*
X154880571Y-62261714D01*
X154951999Y-62475999D01*
X155023428Y-62547428D01*
X156380571Y-63904571D02*
X156380571Y-63190285D01*
X154880571Y-63190285D01*
X153769142Y-60154571D02*
X153840571Y-60368857D01*
X153840571Y-60726000D01*
X153769142Y-60868857D01*
X153697714Y-60940285D01*
X153554857Y-61011714D01*
X153412000Y-61011714D01*
X153269142Y-60940285D01*
X153197714Y-60868857D01*
X153126285Y-60726000D01*
X153054857Y-60440285D01*
X152983428Y-60297428D01*
X152912000Y-60226000D01*
X152769142Y-60154571D01*
X152626285Y-60154571D01*
X152483428Y-60226000D01*
X152412000Y-60297428D01*
X152340571Y-60440285D01*
X152340571Y-60797428D01*
X152412000Y-61011714D01*
X153840571Y-61654571D02*
X152340571Y-61654571D01*
X152340571Y-62011714D01*
X152411999Y-62226000D01*
X152554857Y-62368857D01*
X152697714Y-62440285D01*
X152983428Y-62511714D01*
X153197714Y-62511714D01*
X153483428Y-62440285D01*
X153626285Y-62368857D01*
X153769142Y-62226000D01*
X153840571Y-62011714D01*
X153840571Y-61654571D01*
X153411999Y-63083142D02*
X153411999Y-63797428D01*
X153840571Y-62940285D02*
X152340571Y-63440285D01*
X153840571Y-63940285D01*
X151300571Y-57059142D02*
X149800571Y-57059142D01*
X149800571Y-57416285D01*
X149872000Y-57630571D01*
X150014857Y-57773428D01*
X150157714Y-57844857D01*
X150443428Y-57916285D01*
X150657714Y-57916285D01*
X150943428Y-57844857D01*
X151086285Y-57773428D01*
X151229142Y-57630571D01*
X151300571Y-57416285D01*
X151300571Y-57059142D01*
X151300571Y-59416285D02*
X150586285Y-58916285D01*
X151300571Y-58559142D02*
X149800571Y-58559142D01*
X149800571Y-59130571D01*
X149872000Y-59273428D01*
X149943428Y-59344857D01*
X150086285Y-59416285D01*
X150300571Y-59416285D01*
X150443428Y-59344857D01*
X150514857Y-59273428D01*
X150586285Y-59130571D01*
X150586285Y-58559142D01*
X151300571Y-60059142D02*
X149800571Y-60059142D01*
X149800571Y-60416285D01*
X149871999Y-60630571D01*
X150014857Y-60773428D01*
X150157714Y-60844857D01*
X150443428Y-60916285D01*
X150657714Y-60916285D01*
X150943428Y-60844857D01*
X151086285Y-60773428D01*
X151229142Y-60630571D01*
X151300571Y-60416285D01*
X151300571Y-60059142D01*
X150586285Y-61844857D02*
X151300571Y-61844857D01*
X149800571Y-61344857D02*
X150586285Y-61844857D01*
X149800571Y-62344857D01*
X151300571Y-62844857D02*
X149800571Y-62844857D01*
X150871999Y-63344857D01*
X149800571Y-63844857D01*
X151300571Y-63844857D01*
X148760571Y-59507714D02*
X147260571Y-59507714D01*
X148760571Y-60221999D02*
X147260571Y-60221999D01*
X148760571Y-61079142D01*
X147260571Y-61079142D01*
X147260571Y-61579142D02*
X147260571Y-62436285D01*
X148760571Y-62007714D02*
X147260571Y-62007714D01*
X148760571Y-62936285D02*
X147260571Y-62936285D01*
X148331999Y-63436285D01*
X147260571Y-63936285D01*
X148760571Y-63936285D01*
X146474571Y-56987714D02*
X144974571Y-56987714D01*
X146474571Y-57701999D02*
X144974571Y-57701999D01*
X146474571Y-58559142D01*
X144974571Y-58559142D01*
X144974571Y-59059142D02*
X144974571Y-59916285D01*
X146474571Y-59487714D02*
X144974571Y-59487714D01*
X146474571Y-61201999D02*
X146474571Y-60344857D01*
X146474571Y-60773428D02*
X144974571Y-60773428D01*
X145188857Y-60630571D01*
X145331714Y-60487714D01*
X145403142Y-60344857D01*
X146045999Y-61773428D02*
X146045999Y-62487714D01*
X146474571Y-61630571D02*
X144974571Y-62130571D01*
X146474571Y-62630571D01*
X145045999Y-63916285D02*
X144974571Y-63773428D01*
X144974571Y-63559142D01*
X145045999Y-63344857D01*
X145188857Y-63201999D01*
X145331714Y-63130571D01*
X145617428Y-63059142D01*
X145831714Y-63059142D01*
X146117428Y-63130571D01*
X146260285Y-63201999D01*
X146403142Y-63344857D01*
X146474571Y-63559142D01*
X146474571Y-63701999D01*
X146403142Y-63916285D01*
X146331714Y-63987714D01*
X145831714Y-63987714D01*
X145831714Y-63701999D01*
X143934571Y-56987714D02*
X142434571Y-56987714D01*
X143934571Y-57701999D02*
X142434571Y-57701999D01*
X143934571Y-58559142D01*
X142434571Y-58559142D01*
X142434571Y-59059142D02*
X142434571Y-59916285D01*
X143934571Y-59487714D02*
X142434571Y-59487714D01*
X142577428Y-60344857D02*
X142506000Y-60416285D01*
X142434571Y-60559142D01*
X142434571Y-60916285D01*
X142505999Y-61059142D01*
X142577428Y-61130571D01*
X142720285Y-61201999D01*
X142863142Y-61201999D01*
X143077428Y-61130571D01*
X143934571Y-60273428D01*
X143934571Y-61201999D01*
X143505999Y-61773428D02*
X143505999Y-62487714D01*
X143934571Y-61630571D02*
X142434571Y-62130571D01*
X143934571Y-62630571D01*
X142505999Y-63916285D02*
X142434571Y-63773428D01*
X142434571Y-63559142D01*
X142505999Y-63344857D01*
X142648857Y-63201999D01*
X142791714Y-63130571D01*
X143077428Y-63059142D01*
X143291714Y-63059142D01*
X143577428Y-63130571D01*
X143720285Y-63201999D01*
X143863142Y-63344857D01*
X143934571Y-63559142D01*
X143934571Y-63701999D01*
X143863142Y-63916285D01*
X143791714Y-63987714D01*
X143291714Y-63987714D01*
X143291714Y-63701999D01*
X139966000Y-60833142D02*
X139894571Y-60690285D01*
X139894571Y-60476000D01*
X139966000Y-60261714D01*
X140108857Y-60118857D01*
X140251714Y-60047428D01*
X140537428Y-59976000D01*
X140751714Y-59976000D01*
X141037428Y-60047428D01*
X141180285Y-60118857D01*
X141323142Y-60261714D01*
X141394571Y-60476000D01*
X141394571Y-60618857D01*
X141323142Y-60833142D01*
X141251714Y-60904571D01*
X140751714Y-60904571D01*
X140751714Y-60618857D01*
X141394571Y-61547428D02*
X139894571Y-61547428D01*
X141394571Y-62404571D01*
X139894571Y-62404571D01*
X141394571Y-63118857D02*
X139894571Y-63118857D01*
X139894571Y-63476000D01*
X139965999Y-63690285D01*
X140108857Y-63833142D01*
X140251714Y-63904571D01*
X140537428Y-63976000D01*
X140751714Y-63976000D01*
X141037428Y-63904571D01*
X141180285Y-63833142D01*
X141323142Y-63690285D01*
X141394571Y-63476000D01*
X141394571Y-63118857D01*
X158494857Y-53415428D02*
X158637714Y-53344000D01*
X158709142Y-53272571D01*
X158780571Y-53129714D01*
X158780571Y-53058285D01*
X158709142Y-52915428D01*
X158637714Y-52844000D01*
X158494857Y-52772571D01*
X158209142Y-52772571D01*
X158066285Y-52844000D01*
X157994857Y-52915428D01*
X157923428Y-53058285D01*
X157923428Y-53129714D01*
X157994857Y-53272571D01*
X158066285Y-53344000D01*
X158209142Y-53415428D01*
X158494857Y-53415428D01*
X158637714Y-53486857D01*
X158709142Y-53558285D01*
X158780571Y-53701142D01*
X158780571Y-53986857D01*
X158709142Y-54129714D01*
X158637714Y-54201142D01*
X158494857Y-54272571D01*
X158209142Y-54272571D01*
X158066285Y-54201142D01*
X157994857Y-54129714D01*
X157923428Y-53986857D01*
X157923428Y-53701142D01*
X157994857Y-53558285D01*
X158066285Y-53486857D01*
X158209142Y-53415428D01*
X156280571Y-52772571D02*
X155280571Y-52772571D01*
X155923428Y-54272571D01*
X152923428Y-52772571D02*
X153209142Y-52772571D01*
X153352000Y-52844000D01*
X153423428Y-52915428D01*
X153566285Y-53129714D01*
X153637714Y-53415428D01*
X153637714Y-53986857D01*
X153566285Y-54129714D01*
X153494857Y-54201142D01*
X153352000Y-54272571D01*
X153066285Y-54272571D01*
X152923428Y-54201142D01*
X152852000Y-54129714D01*
X152780571Y-53986857D01*
X152780571Y-53629714D01*
X152852000Y-53486857D01*
X152923428Y-53415428D01*
X153066285Y-53344000D01*
X153352000Y-53344000D01*
X153494857Y-53415428D01*
X153566285Y-53486857D01*
X153637714Y-53629714D01*
X150280571Y-52772571D02*
X150994857Y-52772571D01*
X151066285Y-53486857D01*
X150994857Y-53415428D01*
X150852000Y-53344000D01*
X150494857Y-53344000D01*
X150352000Y-53415428D01*
X150280571Y-53486857D01*
X150209142Y-53629714D01*
X150209142Y-53986857D01*
X150280571Y-54129714D01*
X150352000Y-54201142D01*
X150494857Y-54272571D01*
X150852000Y-54272571D01*
X150994857Y-54201142D01*
X151066285Y-54129714D01*
X147780571Y-53272571D02*
X147780571Y-54272571D01*
X148137714Y-52701142D02*
X148494857Y-53772571D01*
X147566285Y-53772571D01*
X145994857Y-52772571D02*
X145066285Y-52772571D01*
X145566285Y-53344000D01*
X145352000Y-53344000D01*
X145209142Y-53415428D01*
X145137714Y-53486857D01*
X145066285Y-53629714D01*
X145066285Y-53986857D01*
X145137714Y-54129714D01*
X145209142Y-54201142D01*
X145352000Y-54272571D01*
X145780571Y-54272571D01*
X145923428Y-54201142D01*
X145994857Y-54129714D01*
X143352000Y-52915428D02*
X143280571Y-52844000D01*
X143137714Y-52772571D01*
X142780571Y-52772571D01*
X142637714Y-52844000D01*
X142566285Y-52915428D01*
X142494857Y-53058285D01*
X142494857Y-53201142D01*
X142566285Y-53415428D01*
X143423428Y-54272571D01*
X142494857Y-54272571D01*
X139923428Y-54272571D02*
X140780571Y-54272571D01*
X140352000Y-54272571D02*
X140352000Y-52772571D01*
X140494857Y-52986857D01*
X140637714Y-53129714D01*
X140780571Y-53201142D01*
X164699142Y-59793428D02*
X164699142Y-60936285D01*
X165270571Y-60364857D02*
X164127714Y-60364857D01*
X163770571Y-62364857D02*
X163770571Y-61650571D01*
X164484857Y-61579142D01*
X164413428Y-61650571D01*
X164342000Y-61793428D01*
X164341999Y-62150571D01*
X164413428Y-62293428D01*
X164484857Y-62364857D01*
X164627714Y-62436285D01*
X164984857Y-62436285D01*
X165127714Y-62364857D01*
X165199142Y-62293428D01*
X165270571Y-62150571D01*
X165270571Y-61793428D01*
X165199142Y-61650571D01*
X165127714Y-61579142D01*
X163770571Y-62864857D02*
X165270571Y-63364857D01*
X163770571Y-63864857D01*
X167993142Y-60190285D02*
X168064571Y-60404571D01*
X168064571Y-60761714D01*
X167993142Y-60904571D01*
X167921714Y-60975999D01*
X167778857Y-61047428D01*
X167636000Y-61047428D01*
X167493142Y-60975999D01*
X167421714Y-60904571D01*
X167350285Y-60761714D01*
X167278857Y-60475999D01*
X167207428Y-60333142D01*
X167136000Y-60261714D01*
X166993142Y-60190285D01*
X166850285Y-60190285D01*
X166707428Y-60261714D01*
X166636000Y-60333142D01*
X166564571Y-60475999D01*
X166564571Y-60833142D01*
X166636000Y-61047428D01*
X167921714Y-62547428D02*
X167993142Y-62475999D01*
X168064571Y-62261714D01*
X168064571Y-62118857D01*
X167993142Y-61904571D01*
X167850285Y-61761714D01*
X167707428Y-61690285D01*
X167421714Y-61618857D01*
X167207428Y-61618857D01*
X166921714Y-61690285D01*
X166778857Y-61761714D01*
X166636000Y-61904571D01*
X166564571Y-62118857D01*
X166564571Y-62261714D01*
X166635999Y-62475999D01*
X166707428Y-62547428D01*
X168064571Y-63904571D02*
X168064571Y-63190285D01*
X166564571Y-63190285D01*
X170787142Y-60154571D02*
X170858571Y-60368857D01*
X170858571Y-60726000D01*
X170787142Y-60868857D01*
X170715714Y-60940285D01*
X170572857Y-61011714D01*
X170430000Y-61011714D01*
X170287142Y-60940285D01*
X170215714Y-60868857D01*
X170144285Y-60726000D01*
X170072857Y-60440285D01*
X170001428Y-60297428D01*
X169930000Y-60226000D01*
X169787142Y-60154571D01*
X169644285Y-60154571D01*
X169501428Y-60226000D01*
X169430000Y-60297428D01*
X169358571Y-60440285D01*
X169358571Y-60797428D01*
X169430000Y-61011714D01*
X170858571Y-61654571D02*
X169358571Y-61654571D01*
X169358571Y-62011714D01*
X169429999Y-62226000D01*
X169572857Y-62368857D01*
X169715714Y-62440285D01*
X170001428Y-62511714D01*
X170215714Y-62511714D01*
X170501428Y-62440285D01*
X170644285Y-62368857D01*
X170787142Y-62226000D01*
X170858571Y-62011714D01*
X170858571Y-61654571D01*
X170429999Y-63083142D02*
X170429999Y-63797428D01*
X170858571Y-62940285D02*
X169358571Y-63440285D01*
X170858571Y-63940285D01*
X171970000Y-60579142D02*
X171898571Y-60436285D01*
X171898571Y-60222000D01*
X171970000Y-60007714D01*
X172112857Y-59864857D01*
X172255714Y-59793428D01*
X172541428Y-59722000D01*
X172755714Y-59722000D01*
X173041428Y-59793428D01*
X173184285Y-59864857D01*
X173327142Y-60007714D01*
X173398571Y-60222000D01*
X173398571Y-60364857D01*
X173327142Y-60579142D01*
X173255714Y-60650571D01*
X172755714Y-60650571D01*
X172755714Y-60364857D01*
X173398571Y-61293428D02*
X171898571Y-61293428D01*
X173398571Y-62150571D01*
X171898571Y-62150571D01*
X173398571Y-62864857D02*
X171898571Y-62864857D01*
X171898571Y-63222000D01*
X171969999Y-63436285D01*
X172112857Y-63579142D01*
X172255714Y-63650571D01*
X172541428Y-63722000D01*
X172755714Y-63722000D01*
X173041428Y-63650571D01*
X173184285Y-63579142D01*
X173327142Y-63436285D01*
X173398571Y-63222000D01*
X173398571Y-62864857D01*
X172379828Y-53272571D02*
X172379828Y-54272571D01*
X172736971Y-52701142D02*
X173094114Y-53772571D01*
X172165542Y-53772571D01*
X170594114Y-52772571D02*
X169665542Y-52772571D01*
X170165542Y-53344000D01*
X169951257Y-53344000D01*
X169808400Y-53415428D01*
X169736971Y-53486857D01*
X169665542Y-53629714D01*
X169665542Y-53986857D01*
X169736971Y-54129714D01*
X169808400Y-54201142D01*
X169951257Y-54272571D01*
X170379828Y-54272571D01*
X170522685Y-54201142D01*
X170594114Y-54129714D01*
X167951257Y-52915428D02*
X167879828Y-52844000D01*
X167736971Y-52772571D01*
X167379828Y-52772571D01*
X167236971Y-52844000D01*
X167165542Y-52915428D01*
X167094114Y-53058285D01*
X167094114Y-53201142D01*
X167165542Y-53415428D01*
X168022685Y-54272571D01*
X167094114Y-54272571D01*
X164522685Y-54272571D02*
X165379828Y-54272571D01*
X164951257Y-54272571D02*
X164951257Y-52772571D01*
X165094114Y-52986857D01*
X165236971Y-53129714D01*
X165379828Y-53201142D01*
M02*
