G04 #@! TF.GenerationSoftware,KiCad,Pcbnew,(5.0.0)*
G04 #@! TF.CreationDate,2018-12-16T15:52:41-06:00*
G04 #@! TF.ProjectId,NavBoard_Hardware,4E6176426F6172645F48617264776172,rev?*
G04 #@! TF.SameCoordinates,Original*
G04 #@! TF.FileFunction,Soldermask,Top*
G04 #@! TF.FilePolarity,Negative*
%FSLAX46Y46*%
G04 Gerber Fmt 4.6, Leading zero omitted, Abs format (unit mm)*
G04 Created by KiCad (PCBNEW (5.0.0)) date 12/16/18 15:52:41*
%MOMM*%
%LPD*%
G01*
G04 APERTURE LIST*
%ADD10C,5.480000*%
%ADD11C,0.100000*%
%ADD12C,1.350000*%
%ADD13R,2.400000X1.400000*%
%ADD14C,1.924000*%
%ADD15C,3.850000*%
%ADD16C,2.450000*%
%ADD17C,2.650000*%
%ADD18C,1.920000*%
%ADD19R,2.940000X6.750000*%
%ADD20C,10.560000*%
%ADD21R,2.000000X2.000000*%
%ADD22C,2.000000*%
G04 APERTURE END LIST*
D10*
G04 #@! TO.C,Conn1*
X133629400Y-106427000D03*
X133629400Y-98426000D03*
G04 #@! TD*
D11*
G04 #@! TO.C,C10*
G36*
X169076581Y-86942988D02*
X169109343Y-86947848D01*
X169141471Y-86955896D01*
X169172656Y-86967054D01*
X169202596Y-86981215D01*
X169231005Y-86998242D01*
X169257608Y-87017972D01*
X169282149Y-87040214D01*
X169304391Y-87064755D01*
X169324121Y-87091358D01*
X169341148Y-87119767D01*
X169355309Y-87149707D01*
X169366467Y-87180892D01*
X169374515Y-87213020D01*
X169379375Y-87245782D01*
X169381000Y-87278863D01*
X169381000Y-87953863D01*
X169379375Y-87986944D01*
X169374515Y-88019706D01*
X169366467Y-88051834D01*
X169355309Y-88083019D01*
X169341148Y-88112959D01*
X169324121Y-88141368D01*
X169304391Y-88167971D01*
X169282149Y-88192512D01*
X169257608Y-88214754D01*
X169231005Y-88234484D01*
X169202596Y-88251511D01*
X169172656Y-88265672D01*
X169141471Y-88276830D01*
X169109343Y-88284878D01*
X169076581Y-88289738D01*
X169043500Y-88291363D01*
X168268500Y-88291363D01*
X168235419Y-88289738D01*
X168202657Y-88284878D01*
X168170529Y-88276830D01*
X168139344Y-88265672D01*
X168109404Y-88251511D01*
X168080995Y-88234484D01*
X168054392Y-88214754D01*
X168029851Y-88192512D01*
X168007609Y-88167971D01*
X167987879Y-88141368D01*
X167970852Y-88112959D01*
X167956691Y-88083019D01*
X167945533Y-88051834D01*
X167937485Y-88019706D01*
X167932625Y-87986944D01*
X167931000Y-87953863D01*
X167931000Y-87278863D01*
X167932625Y-87245782D01*
X167937485Y-87213020D01*
X167945533Y-87180892D01*
X167956691Y-87149707D01*
X167970852Y-87119767D01*
X167987879Y-87091358D01*
X168007609Y-87064755D01*
X168029851Y-87040214D01*
X168054392Y-87017972D01*
X168080995Y-86998242D01*
X168109404Y-86981215D01*
X168139344Y-86967054D01*
X168170529Y-86955896D01*
X168202657Y-86947848D01*
X168235419Y-86942988D01*
X168268500Y-86941363D01*
X169043500Y-86941363D01*
X169076581Y-86942988D01*
X169076581Y-86942988D01*
G37*
D12*
X168656000Y-87616363D03*
D11*
G36*
X167326581Y-86942988D02*
X167359343Y-86947848D01*
X167391471Y-86955896D01*
X167422656Y-86967054D01*
X167452596Y-86981215D01*
X167481005Y-86998242D01*
X167507608Y-87017972D01*
X167532149Y-87040214D01*
X167554391Y-87064755D01*
X167574121Y-87091358D01*
X167591148Y-87119767D01*
X167605309Y-87149707D01*
X167616467Y-87180892D01*
X167624515Y-87213020D01*
X167629375Y-87245782D01*
X167631000Y-87278863D01*
X167631000Y-87953863D01*
X167629375Y-87986944D01*
X167624515Y-88019706D01*
X167616467Y-88051834D01*
X167605309Y-88083019D01*
X167591148Y-88112959D01*
X167574121Y-88141368D01*
X167554391Y-88167971D01*
X167532149Y-88192512D01*
X167507608Y-88214754D01*
X167481005Y-88234484D01*
X167452596Y-88251511D01*
X167422656Y-88265672D01*
X167391471Y-88276830D01*
X167359343Y-88284878D01*
X167326581Y-88289738D01*
X167293500Y-88291363D01*
X166518500Y-88291363D01*
X166485419Y-88289738D01*
X166452657Y-88284878D01*
X166420529Y-88276830D01*
X166389344Y-88265672D01*
X166359404Y-88251511D01*
X166330995Y-88234484D01*
X166304392Y-88214754D01*
X166279851Y-88192512D01*
X166257609Y-88167971D01*
X166237879Y-88141368D01*
X166220852Y-88112959D01*
X166206691Y-88083019D01*
X166195533Y-88051834D01*
X166187485Y-88019706D01*
X166182625Y-87986944D01*
X166181000Y-87953863D01*
X166181000Y-87278863D01*
X166182625Y-87245782D01*
X166187485Y-87213020D01*
X166195533Y-87180892D01*
X166206691Y-87149707D01*
X166220852Y-87119767D01*
X166237879Y-87091358D01*
X166257609Y-87064755D01*
X166279851Y-87040214D01*
X166304392Y-87017972D01*
X166330995Y-86998242D01*
X166359404Y-86981215D01*
X166389344Y-86967054D01*
X166420529Y-86955896D01*
X166452657Y-86947848D01*
X166485419Y-86942988D01*
X166518500Y-86941363D01*
X167293500Y-86941363D01*
X167326581Y-86942988D01*
X167326581Y-86942988D01*
G37*
D12*
X166906000Y-87616363D03*
G04 #@! TD*
D11*
G04 #@! TO.C,R8*
G36*
X124245581Y-72351625D02*
X124278343Y-72356485D01*
X124310471Y-72364533D01*
X124341656Y-72375691D01*
X124371596Y-72389852D01*
X124400005Y-72406879D01*
X124426608Y-72426609D01*
X124451149Y-72448851D01*
X124473391Y-72473392D01*
X124493121Y-72499995D01*
X124510148Y-72528404D01*
X124524309Y-72558344D01*
X124535467Y-72589529D01*
X124543515Y-72621657D01*
X124548375Y-72654419D01*
X124550000Y-72687500D01*
X124550000Y-73362500D01*
X124548375Y-73395581D01*
X124543515Y-73428343D01*
X124535467Y-73460471D01*
X124524309Y-73491656D01*
X124510148Y-73521596D01*
X124493121Y-73550005D01*
X124473391Y-73576608D01*
X124451149Y-73601149D01*
X124426608Y-73623391D01*
X124400005Y-73643121D01*
X124371596Y-73660148D01*
X124341656Y-73674309D01*
X124310471Y-73685467D01*
X124278343Y-73693515D01*
X124245581Y-73698375D01*
X124212500Y-73700000D01*
X123437500Y-73700000D01*
X123404419Y-73698375D01*
X123371657Y-73693515D01*
X123339529Y-73685467D01*
X123308344Y-73674309D01*
X123278404Y-73660148D01*
X123249995Y-73643121D01*
X123223392Y-73623391D01*
X123198851Y-73601149D01*
X123176609Y-73576608D01*
X123156879Y-73550005D01*
X123139852Y-73521596D01*
X123125691Y-73491656D01*
X123114533Y-73460471D01*
X123106485Y-73428343D01*
X123101625Y-73395581D01*
X123100000Y-73362500D01*
X123100000Y-72687500D01*
X123101625Y-72654419D01*
X123106485Y-72621657D01*
X123114533Y-72589529D01*
X123125691Y-72558344D01*
X123139852Y-72528404D01*
X123156879Y-72499995D01*
X123176609Y-72473392D01*
X123198851Y-72448851D01*
X123223392Y-72426609D01*
X123249995Y-72406879D01*
X123278404Y-72389852D01*
X123308344Y-72375691D01*
X123339529Y-72364533D01*
X123371657Y-72356485D01*
X123404419Y-72351625D01*
X123437500Y-72350000D01*
X124212500Y-72350000D01*
X124245581Y-72351625D01*
X124245581Y-72351625D01*
G37*
D12*
X123825000Y-73025000D03*
D11*
G36*
X125995581Y-72351625D02*
X126028343Y-72356485D01*
X126060471Y-72364533D01*
X126091656Y-72375691D01*
X126121596Y-72389852D01*
X126150005Y-72406879D01*
X126176608Y-72426609D01*
X126201149Y-72448851D01*
X126223391Y-72473392D01*
X126243121Y-72499995D01*
X126260148Y-72528404D01*
X126274309Y-72558344D01*
X126285467Y-72589529D01*
X126293515Y-72621657D01*
X126298375Y-72654419D01*
X126300000Y-72687500D01*
X126300000Y-73362500D01*
X126298375Y-73395581D01*
X126293515Y-73428343D01*
X126285467Y-73460471D01*
X126274309Y-73491656D01*
X126260148Y-73521596D01*
X126243121Y-73550005D01*
X126223391Y-73576608D01*
X126201149Y-73601149D01*
X126176608Y-73623391D01*
X126150005Y-73643121D01*
X126121596Y-73660148D01*
X126091656Y-73674309D01*
X126060471Y-73685467D01*
X126028343Y-73693515D01*
X125995581Y-73698375D01*
X125962500Y-73700000D01*
X125187500Y-73700000D01*
X125154419Y-73698375D01*
X125121657Y-73693515D01*
X125089529Y-73685467D01*
X125058344Y-73674309D01*
X125028404Y-73660148D01*
X124999995Y-73643121D01*
X124973392Y-73623391D01*
X124948851Y-73601149D01*
X124926609Y-73576608D01*
X124906879Y-73550005D01*
X124889852Y-73521596D01*
X124875691Y-73491656D01*
X124864533Y-73460471D01*
X124856485Y-73428343D01*
X124851625Y-73395581D01*
X124850000Y-73362500D01*
X124850000Y-72687500D01*
X124851625Y-72654419D01*
X124856485Y-72621657D01*
X124864533Y-72589529D01*
X124875691Y-72558344D01*
X124889852Y-72528404D01*
X124906879Y-72499995D01*
X124926609Y-72473392D01*
X124948851Y-72448851D01*
X124973392Y-72426609D01*
X124999995Y-72406879D01*
X125028404Y-72389852D01*
X125058344Y-72375691D01*
X125089529Y-72364533D01*
X125121657Y-72356485D01*
X125154419Y-72351625D01*
X125187500Y-72350000D01*
X125962500Y-72350000D01*
X125995581Y-72351625D01*
X125995581Y-72351625D01*
G37*
D12*
X125575000Y-73025000D03*
G04 #@! TD*
D11*
G04 #@! TO.C,D8*
G36*
X120798818Y-72358814D02*
X120831580Y-72363674D01*
X120863708Y-72371722D01*
X120894893Y-72382880D01*
X120924833Y-72397041D01*
X120953242Y-72414068D01*
X120979845Y-72433798D01*
X121004386Y-72456040D01*
X121026628Y-72480581D01*
X121046358Y-72507184D01*
X121063385Y-72535593D01*
X121077546Y-72565533D01*
X121088704Y-72596718D01*
X121096752Y-72628846D01*
X121101612Y-72661608D01*
X121103237Y-72694689D01*
X121103237Y-73369689D01*
X121101612Y-73402770D01*
X121096752Y-73435532D01*
X121088704Y-73467660D01*
X121077546Y-73498845D01*
X121063385Y-73528785D01*
X121046358Y-73557194D01*
X121026628Y-73583797D01*
X121004386Y-73608338D01*
X120979845Y-73630580D01*
X120953242Y-73650310D01*
X120924833Y-73667337D01*
X120894893Y-73681498D01*
X120863708Y-73692656D01*
X120831580Y-73700704D01*
X120798818Y-73705564D01*
X120765737Y-73707189D01*
X119990737Y-73707189D01*
X119957656Y-73705564D01*
X119924894Y-73700704D01*
X119892766Y-73692656D01*
X119861581Y-73681498D01*
X119831641Y-73667337D01*
X119803232Y-73650310D01*
X119776629Y-73630580D01*
X119752088Y-73608338D01*
X119729846Y-73583797D01*
X119710116Y-73557194D01*
X119693089Y-73528785D01*
X119678928Y-73498845D01*
X119667770Y-73467660D01*
X119659722Y-73435532D01*
X119654862Y-73402770D01*
X119653237Y-73369689D01*
X119653237Y-72694689D01*
X119654862Y-72661608D01*
X119659722Y-72628846D01*
X119667770Y-72596718D01*
X119678928Y-72565533D01*
X119693089Y-72535593D01*
X119710116Y-72507184D01*
X119729846Y-72480581D01*
X119752088Y-72456040D01*
X119776629Y-72433798D01*
X119803232Y-72414068D01*
X119831641Y-72397041D01*
X119861581Y-72382880D01*
X119892766Y-72371722D01*
X119924894Y-72363674D01*
X119957656Y-72358814D01*
X119990737Y-72357189D01*
X120765737Y-72357189D01*
X120798818Y-72358814D01*
X120798818Y-72358814D01*
G37*
D12*
X120378237Y-73032189D03*
D11*
G36*
X122548818Y-72358814D02*
X122581580Y-72363674D01*
X122613708Y-72371722D01*
X122644893Y-72382880D01*
X122674833Y-72397041D01*
X122703242Y-72414068D01*
X122729845Y-72433798D01*
X122754386Y-72456040D01*
X122776628Y-72480581D01*
X122796358Y-72507184D01*
X122813385Y-72535593D01*
X122827546Y-72565533D01*
X122838704Y-72596718D01*
X122846752Y-72628846D01*
X122851612Y-72661608D01*
X122853237Y-72694689D01*
X122853237Y-73369689D01*
X122851612Y-73402770D01*
X122846752Y-73435532D01*
X122838704Y-73467660D01*
X122827546Y-73498845D01*
X122813385Y-73528785D01*
X122796358Y-73557194D01*
X122776628Y-73583797D01*
X122754386Y-73608338D01*
X122729845Y-73630580D01*
X122703242Y-73650310D01*
X122674833Y-73667337D01*
X122644893Y-73681498D01*
X122613708Y-73692656D01*
X122581580Y-73700704D01*
X122548818Y-73705564D01*
X122515737Y-73707189D01*
X121740737Y-73707189D01*
X121707656Y-73705564D01*
X121674894Y-73700704D01*
X121642766Y-73692656D01*
X121611581Y-73681498D01*
X121581641Y-73667337D01*
X121553232Y-73650310D01*
X121526629Y-73630580D01*
X121502088Y-73608338D01*
X121479846Y-73583797D01*
X121460116Y-73557194D01*
X121443089Y-73528785D01*
X121428928Y-73498845D01*
X121417770Y-73467660D01*
X121409722Y-73435532D01*
X121404862Y-73402770D01*
X121403237Y-73369689D01*
X121403237Y-72694689D01*
X121404862Y-72661608D01*
X121409722Y-72628846D01*
X121417770Y-72596718D01*
X121428928Y-72565533D01*
X121443089Y-72535593D01*
X121460116Y-72507184D01*
X121479846Y-72480581D01*
X121502088Y-72456040D01*
X121526629Y-72433798D01*
X121553232Y-72414068D01*
X121581641Y-72397041D01*
X121611581Y-72382880D01*
X121642766Y-72371722D01*
X121674894Y-72363674D01*
X121707656Y-72358814D01*
X121740737Y-72357189D01*
X122515737Y-72357189D01*
X122548818Y-72358814D01*
X122548818Y-72358814D01*
G37*
D12*
X122128237Y-73032189D03*
G04 #@! TD*
D11*
G04 #@! TO.C,C3*
G36*
X144071581Y-71208625D02*
X144104343Y-71213485D01*
X144136471Y-71221533D01*
X144167656Y-71232691D01*
X144197596Y-71246852D01*
X144226005Y-71263879D01*
X144252608Y-71283609D01*
X144277149Y-71305851D01*
X144299391Y-71330392D01*
X144319121Y-71356995D01*
X144336148Y-71385404D01*
X144350309Y-71415344D01*
X144361467Y-71446529D01*
X144369515Y-71478657D01*
X144374375Y-71511419D01*
X144376000Y-71544500D01*
X144376000Y-72219500D01*
X144374375Y-72252581D01*
X144369515Y-72285343D01*
X144361467Y-72317471D01*
X144350309Y-72348656D01*
X144336148Y-72378596D01*
X144319121Y-72407005D01*
X144299391Y-72433608D01*
X144277149Y-72458149D01*
X144252608Y-72480391D01*
X144226005Y-72500121D01*
X144197596Y-72517148D01*
X144167656Y-72531309D01*
X144136471Y-72542467D01*
X144104343Y-72550515D01*
X144071581Y-72555375D01*
X144038500Y-72557000D01*
X143263500Y-72557000D01*
X143230419Y-72555375D01*
X143197657Y-72550515D01*
X143165529Y-72542467D01*
X143134344Y-72531309D01*
X143104404Y-72517148D01*
X143075995Y-72500121D01*
X143049392Y-72480391D01*
X143024851Y-72458149D01*
X143002609Y-72433608D01*
X142982879Y-72407005D01*
X142965852Y-72378596D01*
X142951691Y-72348656D01*
X142940533Y-72317471D01*
X142932485Y-72285343D01*
X142927625Y-72252581D01*
X142926000Y-72219500D01*
X142926000Y-71544500D01*
X142927625Y-71511419D01*
X142932485Y-71478657D01*
X142940533Y-71446529D01*
X142951691Y-71415344D01*
X142965852Y-71385404D01*
X142982879Y-71356995D01*
X143002609Y-71330392D01*
X143024851Y-71305851D01*
X143049392Y-71283609D01*
X143075995Y-71263879D01*
X143104404Y-71246852D01*
X143134344Y-71232691D01*
X143165529Y-71221533D01*
X143197657Y-71213485D01*
X143230419Y-71208625D01*
X143263500Y-71207000D01*
X144038500Y-71207000D01*
X144071581Y-71208625D01*
X144071581Y-71208625D01*
G37*
D12*
X143651000Y-71882000D03*
D11*
G36*
X145821581Y-71208625D02*
X145854343Y-71213485D01*
X145886471Y-71221533D01*
X145917656Y-71232691D01*
X145947596Y-71246852D01*
X145976005Y-71263879D01*
X146002608Y-71283609D01*
X146027149Y-71305851D01*
X146049391Y-71330392D01*
X146069121Y-71356995D01*
X146086148Y-71385404D01*
X146100309Y-71415344D01*
X146111467Y-71446529D01*
X146119515Y-71478657D01*
X146124375Y-71511419D01*
X146126000Y-71544500D01*
X146126000Y-72219500D01*
X146124375Y-72252581D01*
X146119515Y-72285343D01*
X146111467Y-72317471D01*
X146100309Y-72348656D01*
X146086148Y-72378596D01*
X146069121Y-72407005D01*
X146049391Y-72433608D01*
X146027149Y-72458149D01*
X146002608Y-72480391D01*
X145976005Y-72500121D01*
X145947596Y-72517148D01*
X145917656Y-72531309D01*
X145886471Y-72542467D01*
X145854343Y-72550515D01*
X145821581Y-72555375D01*
X145788500Y-72557000D01*
X145013500Y-72557000D01*
X144980419Y-72555375D01*
X144947657Y-72550515D01*
X144915529Y-72542467D01*
X144884344Y-72531309D01*
X144854404Y-72517148D01*
X144825995Y-72500121D01*
X144799392Y-72480391D01*
X144774851Y-72458149D01*
X144752609Y-72433608D01*
X144732879Y-72407005D01*
X144715852Y-72378596D01*
X144701691Y-72348656D01*
X144690533Y-72317471D01*
X144682485Y-72285343D01*
X144677625Y-72252581D01*
X144676000Y-72219500D01*
X144676000Y-71544500D01*
X144677625Y-71511419D01*
X144682485Y-71478657D01*
X144690533Y-71446529D01*
X144701691Y-71415344D01*
X144715852Y-71385404D01*
X144732879Y-71356995D01*
X144752609Y-71330392D01*
X144774851Y-71305851D01*
X144799392Y-71283609D01*
X144825995Y-71263879D01*
X144854404Y-71246852D01*
X144884344Y-71232691D01*
X144915529Y-71221533D01*
X144947657Y-71213485D01*
X144980419Y-71208625D01*
X145013500Y-71207000D01*
X145788500Y-71207000D01*
X145821581Y-71208625D01*
X145821581Y-71208625D01*
G37*
D12*
X145401000Y-71882000D03*
G04 #@! TD*
D13*
G04 #@! TO.C,U5*
X148209000Y-71882000D03*
X148209000Y-73382000D03*
X148209000Y-74882000D03*
X148209000Y-76382000D03*
X148209000Y-77882000D03*
X148209000Y-79382000D03*
X148209000Y-80882000D03*
X148209000Y-82382000D03*
X148209000Y-83882000D03*
X148209000Y-85382000D03*
X164374634Y-85611608D03*
X164374634Y-84111608D03*
X164374634Y-82611608D03*
X164374634Y-81111608D03*
X164374634Y-79611608D03*
X164374634Y-78111608D03*
X164374634Y-76611608D03*
X164374634Y-75111608D03*
X164374634Y-73611608D03*
X164374634Y-72111608D03*
G04 #@! TD*
D11*
G04 #@! TO.C,C4*
G36*
X145821581Y-73240625D02*
X145854343Y-73245485D01*
X145886471Y-73253533D01*
X145917656Y-73264691D01*
X145947596Y-73278852D01*
X145976005Y-73295879D01*
X146002608Y-73315609D01*
X146027149Y-73337851D01*
X146049391Y-73362392D01*
X146069121Y-73388995D01*
X146086148Y-73417404D01*
X146100309Y-73447344D01*
X146111467Y-73478529D01*
X146119515Y-73510657D01*
X146124375Y-73543419D01*
X146126000Y-73576500D01*
X146126000Y-74251500D01*
X146124375Y-74284581D01*
X146119515Y-74317343D01*
X146111467Y-74349471D01*
X146100309Y-74380656D01*
X146086148Y-74410596D01*
X146069121Y-74439005D01*
X146049391Y-74465608D01*
X146027149Y-74490149D01*
X146002608Y-74512391D01*
X145976005Y-74532121D01*
X145947596Y-74549148D01*
X145917656Y-74563309D01*
X145886471Y-74574467D01*
X145854343Y-74582515D01*
X145821581Y-74587375D01*
X145788500Y-74589000D01*
X145013500Y-74589000D01*
X144980419Y-74587375D01*
X144947657Y-74582515D01*
X144915529Y-74574467D01*
X144884344Y-74563309D01*
X144854404Y-74549148D01*
X144825995Y-74532121D01*
X144799392Y-74512391D01*
X144774851Y-74490149D01*
X144752609Y-74465608D01*
X144732879Y-74439005D01*
X144715852Y-74410596D01*
X144701691Y-74380656D01*
X144690533Y-74349471D01*
X144682485Y-74317343D01*
X144677625Y-74284581D01*
X144676000Y-74251500D01*
X144676000Y-73576500D01*
X144677625Y-73543419D01*
X144682485Y-73510657D01*
X144690533Y-73478529D01*
X144701691Y-73447344D01*
X144715852Y-73417404D01*
X144732879Y-73388995D01*
X144752609Y-73362392D01*
X144774851Y-73337851D01*
X144799392Y-73315609D01*
X144825995Y-73295879D01*
X144854404Y-73278852D01*
X144884344Y-73264691D01*
X144915529Y-73253533D01*
X144947657Y-73245485D01*
X144980419Y-73240625D01*
X145013500Y-73239000D01*
X145788500Y-73239000D01*
X145821581Y-73240625D01*
X145821581Y-73240625D01*
G37*
D12*
X145401000Y-73914000D03*
D11*
G36*
X144071581Y-73240625D02*
X144104343Y-73245485D01*
X144136471Y-73253533D01*
X144167656Y-73264691D01*
X144197596Y-73278852D01*
X144226005Y-73295879D01*
X144252608Y-73315609D01*
X144277149Y-73337851D01*
X144299391Y-73362392D01*
X144319121Y-73388995D01*
X144336148Y-73417404D01*
X144350309Y-73447344D01*
X144361467Y-73478529D01*
X144369515Y-73510657D01*
X144374375Y-73543419D01*
X144376000Y-73576500D01*
X144376000Y-74251500D01*
X144374375Y-74284581D01*
X144369515Y-74317343D01*
X144361467Y-74349471D01*
X144350309Y-74380656D01*
X144336148Y-74410596D01*
X144319121Y-74439005D01*
X144299391Y-74465608D01*
X144277149Y-74490149D01*
X144252608Y-74512391D01*
X144226005Y-74532121D01*
X144197596Y-74549148D01*
X144167656Y-74563309D01*
X144136471Y-74574467D01*
X144104343Y-74582515D01*
X144071581Y-74587375D01*
X144038500Y-74589000D01*
X143263500Y-74589000D01*
X143230419Y-74587375D01*
X143197657Y-74582515D01*
X143165529Y-74574467D01*
X143134344Y-74563309D01*
X143104404Y-74549148D01*
X143075995Y-74532121D01*
X143049392Y-74512391D01*
X143024851Y-74490149D01*
X143002609Y-74465608D01*
X142982879Y-74439005D01*
X142965852Y-74410596D01*
X142951691Y-74380656D01*
X142940533Y-74349471D01*
X142932485Y-74317343D01*
X142927625Y-74284581D01*
X142926000Y-74251500D01*
X142926000Y-73576500D01*
X142927625Y-73543419D01*
X142932485Y-73510657D01*
X142940533Y-73478529D01*
X142951691Y-73447344D01*
X142965852Y-73417404D01*
X142982879Y-73388995D01*
X143002609Y-73362392D01*
X143024851Y-73337851D01*
X143049392Y-73315609D01*
X143075995Y-73295879D01*
X143104404Y-73278852D01*
X143134344Y-73264691D01*
X143165529Y-73253533D01*
X143197657Y-73245485D01*
X143230419Y-73240625D01*
X143263500Y-73239000D01*
X144038500Y-73239000D01*
X144071581Y-73240625D01*
X144071581Y-73240625D01*
G37*
D12*
X143651000Y-73914000D03*
G04 #@! TD*
D11*
G04 #@! TO.C,C5*
G36*
X118050581Y-64858625D02*
X118083343Y-64863485D01*
X118115471Y-64871533D01*
X118146656Y-64882691D01*
X118176596Y-64896852D01*
X118205005Y-64913879D01*
X118231608Y-64933609D01*
X118256149Y-64955851D01*
X118278391Y-64980392D01*
X118298121Y-65006995D01*
X118315148Y-65035404D01*
X118329309Y-65065344D01*
X118340467Y-65096529D01*
X118348515Y-65128657D01*
X118353375Y-65161419D01*
X118355000Y-65194500D01*
X118355000Y-65869500D01*
X118353375Y-65902581D01*
X118348515Y-65935343D01*
X118340467Y-65967471D01*
X118329309Y-65998656D01*
X118315148Y-66028596D01*
X118298121Y-66057005D01*
X118278391Y-66083608D01*
X118256149Y-66108149D01*
X118231608Y-66130391D01*
X118205005Y-66150121D01*
X118176596Y-66167148D01*
X118146656Y-66181309D01*
X118115471Y-66192467D01*
X118083343Y-66200515D01*
X118050581Y-66205375D01*
X118017500Y-66207000D01*
X117242500Y-66207000D01*
X117209419Y-66205375D01*
X117176657Y-66200515D01*
X117144529Y-66192467D01*
X117113344Y-66181309D01*
X117083404Y-66167148D01*
X117054995Y-66150121D01*
X117028392Y-66130391D01*
X117003851Y-66108149D01*
X116981609Y-66083608D01*
X116961879Y-66057005D01*
X116944852Y-66028596D01*
X116930691Y-65998656D01*
X116919533Y-65967471D01*
X116911485Y-65935343D01*
X116906625Y-65902581D01*
X116905000Y-65869500D01*
X116905000Y-65194500D01*
X116906625Y-65161419D01*
X116911485Y-65128657D01*
X116919533Y-65096529D01*
X116930691Y-65065344D01*
X116944852Y-65035404D01*
X116961879Y-65006995D01*
X116981609Y-64980392D01*
X117003851Y-64955851D01*
X117028392Y-64933609D01*
X117054995Y-64913879D01*
X117083404Y-64896852D01*
X117113344Y-64882691D01*
X117144529Y-64871533D01*
X117176657Y-64863485D01*
X117209419Y-64858625D01*
X117242500Y-64857000D01*
X118017500Y-64857000D01*
X118050581Y-64858625D01*
X118050581Y-64858625D01*
G37*
D12*
X117630000Y-65532000D03*
D11*
G36*
X119800581Y-64858625D02*
X119833343Y-64863485D01*
X119865471Y-64871533D01*
X119896656Y-64882691D01*
X119926596Y-64896852D01*
X119955005Y-64913879D01*
X119981608Y-64933609D01*
X120006149Y-64955851D01*
X120028391Y-64980392D01*
X120048121Y-65006995D01*
X120065148Y-65035404D01*
X120079309Y-65065344D01*
X120090467Y-65096529D01*
X120098515Y-65128657D01*
X120103375Y-65161419D01*
X120105000Y-65194500D01*
X120105000Y-65869500D01*
X120103375Y-65902581D01*
X120098515Y-65935343D01*
X120090467Y-65967471D01*
X120079309Y-65998656D01*
X120065148Y-66028596D01*
X120048121Y-66057005D01*
X120028391Y-66083608D01*
X120006149Y-66108149D01*
X119981608Y-66130391D01*
X119955005Y-66150121D01*
X119926596Y-66167148D01*
X119896656Y-66181309D01*
X119865471Y-66192467D01*
X119833343Y-66200515D01*
X119800581Y-66205375D01*
X119767500Y-66207000D01*
X118992500Y-66207000D01*
X118959419Y-66205375D01*
X118926657Y-66200515D01*
X118894529Y-66192467D01*
X118863344Y-66181309D01*
X118833404Y-66167148D01*
X118804995Y-66150121D01*
X118778392Y-66130391D01*
X118753851Y-66108149D01*
X118731609Y-66083608D01*
X118711879Y-66057005D01*
X118694852Y-66028596D01*
X118680691Y-65998656D01*
X118669533Y-65967471D01*
X118661485Y-65935343D01*
X118656625Y-65902581D01*
X118655000Y-65869500D01*
X118655000Y-65194500D01*
X118656625Y-65161419D01*
X118661485Y-65128657D01*
X118669533Y-65096529D01*
X118680691Y-65065344D01*
X118694852Y-65035404D01*
X118711879Y-65006995D01*
X118731609Y-64980392D01*
X118753851Y-64955851D01*
X118778392Y-64933609D01*
X118804995Y-64913879D01*
X118833404Y-64896852D01*
X118863344Y-64882691D01*
X118894529Y-64871533D01*
X118926657Y-64863485D01*
X118959419Y-64858625D01*
X118992500Y-64857000D01*
X119767500Y-64857000D01*
X119800581Y-64858625D01*
X119800581Y-64858625D01*
G37*
D12*
X119380000Y-65532000D03*
G04 #@! TD*
D11*
G04 #@! TO.C,C8*
G36*
X162118064Y-90716625D02*
X162150826Y-90721485D01*
X162182954Y-90729533D01*
X162214139Y-90740691D01*
X162244079Y-90754852D01*
X162272488Y-90771879D01*
X162299091Y-90791609D01*
X162323632Y-90813851D01*
X162345874Y-90838392D01*
X162365604Y-90864995D01*
X162382631Y-90893404D01*
X162396792Y-90923344D01*
X162407950Y-90954529D01*
X162415998Y-90986657D01*
X162420858Y-91019419D01*
X162422483Y-91052500D01*
X162422483Y-91827500D01*
X162420858Y-91860581D01*
X162415998Y-91893343D01*
X162407950Y-91925471D01*
X162396792Y-91956656D01*
X162382631Y-91986596D01*
X162365604Y-92015005D01*
X162345874Y-92041608D01*
X162323632Y-92066149D01*
X162299091Y-92088391D01*
X162272488Y-92108121D01*
X162244079Y-92125148D01*
X162214139Y-92139309D01*
X162182954Y-92150467D01*
X162150826Y-92158515D01*
X162118064Y-92163375D01*
X162084983Y-92165000D01*
X161409983Y-92165000D01*
X161376902Y-92163375D01*
X161344140Y-92158515D01*
X161312012Y-92150467D01*
X161280827Y-92139309D01*
X161250887Y-92125148D01*
X161222478Y-92108121D01*
X161195875Y-92088391D01*
X161171334Y-92066149D01*
X161149092Y-92041608D01*
X161129362Y-92015005D01*
X161112335Y-91986596D01*
X161098174Y-91956656D01*
X161087016Y-91925471D01*
X161078968Y-91893343D01*
X161074108Y-91860581D01*
X161072483Y-91827500D01*
X161072483Y-91052500D01*
X161074108Y-91019419D01*
X161078968Y-90986657D01*
X161087016Y-90954529D01*
X161098174Y-90923344D01*
X161112335Y-90893404D01*
X161129362Y-90864995D01*
X161149092Y-90838392D01*
X161171334Y-90813851D01*
X161195875Y-90791609D01*
X161222478Y-90771879D01*
X161250887Y-90754852D01*
X161280827Y-90740691D01*
X161312012Y-90729533D01*
X161344140Y-90721485D01*
X161376902Y-90716625D01*
X161409983Y-90715000D01*
X162084983Y-90715000D01*
X162118064Y-90716625D01*
X162118064Y-90716625D01*
G37*
D12*
X161747483Y-91440000D03*
D11*
G36*
X162118064Y-92466625D02*
X162150826Y-92471485D01*
X162182954Y-92479533D01*
X162214139Y-92490691D01*
X162244079Y-92504852D01*
X162272488Y-92521879D01*
X162299091Y-92541609D01*
X162323632Y-92563851D01*
X162345874Y-92588392D01*
X162365604Y-92614995D01*
X162382631Y-92643404D01*
X162396792Y-92673344D01*
X162407950Y-92704529D01*
X162415998Y-92736657D01*
X162420858Y-92769419D01*
X162422483Y-92802500D01*
X162422483Y-93577500D01*
X162420858Y-93610581D01*
X162415998Y-93643343D01*
X162407950Y-93675471D01*
X162396792Y-93706656D01*
X162382631Y-93736596D01*
X162365604Y-93765005D01*
X162345874Y-93791608D01*
X162323632Y-93816149D01*
X162299091Y-93838391D01*
X162272488Y-93858121D01*
X162244079Y-93875148D01*
X162214139Y-93889309D01*
X162182954Y-93900467D01*
X162150826Y-93908515D01*
X162118064Y-93913375D01*
X162084983Y-93915000D01*
X161409983Y-93915000D01*
X161376902Y-93913375D01*
X161344140Y-93908515D01*
X161312012Y-93900467D01*
X161280827Y-93889309D01*
X161250887Y-93875148D01*
X161222478Y-93858121D01*
X161195875Y-93838391D01*
X161171334Y-93816149D01*
X161149092Y-93791608D01*
X161129362Y-93765005D01*
X161112335Y-93736596D01*
X161098174Y-93706656D01*
X161087016Y-93675471D01*
X161078968Y-93643343D01*
X161074108Y-93610581D01*
X161072483Y-93577500D01*
X161072483Y-92802500D01*
X161074108Y-92769419D01*
X161078968Y-92736657D01*
X161087016Y-92704529D01*
X161098174Y-92673344D01*
X161112335Y-92643404D01*
X161129362Y-92614995D01*
X161149092Y-92588392D01*
X161171334Y-92563851D01*
X161195875Y-92541609D01*
X161222478Y-92521879D01*
X161250887Y-92504852D01*
X161280827Y-92490691D01*
X161312012Y-92479533D01*
X161344140Y-92471485D01*
X161376902Y-92466625D01*
X161409983Y-92465000D01*
X162084983Y-92465000D01*
X162118064Y-92466625D01*
X162118064Y-92466625D01*
G37*
D12*
X161747483Y-93190000D03*
G04 #@! TD*
D11*
G04 #@! TO.C,C9*
G36*
X173140581Y-86942988D02*
X173173343Y-86947848D01*
X173205471Y-86955896D01*
X173236656Y-86967054D01*
X173266596Y-86981215D01*
X173295005Y-86998242D01*
X173321608Y-87017972D01*
X173346149Y-87040214D01*
X173368391Y-87064755D01*
X173388121Y-87091358D01*
X173405148Y-87119767D01*
X173419309Y-87149707D01*
X173430467Y-87180892D01*
X173438515Y-87213020D01*
X173443375Y-87245782D01*
X173445000Y-87278863D01*
X173445000Y-87953863D01*
X173443375Y-87986944D01*
X173438515Y-88019706D01*
X173430467Y-88051834D01*
X173419309Y-88083019D01*
X173405148Y-88112959D01*
X173388121Y-88141368D01*
X173368391Y-88167971D01*
X173346149Y-88192512D01*
X173321608Y-88214754D01*
X173295005Y-88234484D01*
X173266596Y-88251511D01*
X173236656Y-88265672D01*
X173205471Y-88276830D01*
X173173343Y-88284878D01*
X173140581Y-88289738D01*
X173107500Y-88291363D01*
X172332500Y-88291363D01*
X172299419Y-88289738D01*
X172266657Y-88284878D01*
X172234529Y-88276830D01*
X172203344Y-88265672D01*
X172173404Y-88251511D01*
X172144995Y-88234484D01*
X172118392Y-88214754D01*
X172093851Y-88192512D01*
X172071609Y-88167971D01*
X172051879Y-88141368D01*
X172034852Y-88112959D01*
X172020691Y-88083019D01*
X172009533Y-88051834D01*
X172001485Y-88019706D01*
X171996625Y-87986944D01*
X171995000Y-87953863D01*
X171995000Y-87278863D01*
X171996625Y-87245782D01*
X172001485Y-87213020D01*
X172009533Y-87180892D01*
X172020691Y-87149707D01*
X172034852Y-87119767D01*
X172051879Y-87091358D01*
X172071609Y-87064755D01*
X172093851Y-87040214D01*
X172118392Y-87017972D01*
X172144995Y-86998242D01*
X172173404Y-86981215D01*
X172203344Y-86967054D01*
X172234529Y-86955896D01*
X172266657Y-86947848D01*
X172299419Y-86942988D01*
X172332500Y-86941363D01*
X173107500Y-86941363D01*
X173140581Y-86942988D01*
X173140581Y-86942988D01*
G37*
D12*
X172720000Y-87616363D03*
D11*
G36*
X171390581Y-86942988D02*
X171423343Y-86947848D01*
X171455471Y-86955896D01*
X171486656Y-86967054D01*
X171516596Y-86981215D01*
X171545005Y-86998242D01*
X171571608Y-87017972D01*
X171596149Y-87040214D01*
X171618391Y-87064755D01*
X171638121Y-87091358D01*
X171655148Y-87119767D01*
X171669309Y-87149707D01*
X171680467Y-87180892D01*
X171688515Y-87213020D01*
X171693375Y-87245782D01*
X171695000Y-87278863D01*
X171695000Y-87953863D01*
X171693375Y-87986944D01*
X171688515Y-88019706D01*
X171680467Y-88051834D01*
X171669309Y-88083019D01*
X171655148Y-88112959D01*
X171638121Y-88141368D01*
X171618391Y-88167971D01*
X171596149Y-88192512D01*
X171571608Y-88214754D01*
X171545005Y-88234484D01*
X171516596Y-88251511D01*
X171486656Y-88265672D01*
X171455471Y-88276830D01*
X171423343Y-88284878D01*
X171390581Y-88289738D01*
X171357500Y-88291363D01*
X170582500Y-88291363D01*
X170549419Y-88289738D01*
X170516657Y-88284878D01*
X170484529Y-88276830D01*
X170453344Y-88265672D01*
X170423404Y-88251511D01*
X170394995Y-88234484D01*
X170368392Y-88214754D01*
X170343851Y-88192512D01*
X170321609Y-88167971D01*
X170301879Y-88141368D01*
X170284852Y-88112959D01*
X170270691Y-88083019D01*
X170259533Y-88051834D01*
X170251485Y-88019706D01*
X170246625Y-87986944D01*
X170245000Y-87953863D01*
X170245000Y-87278863D01*
X170246625Y-87245782D01*
X170251485Y-87213020D01*
X170259533Y-87180892D01*
X170270691Y-87149707D01*
X170284852Y-87119767D01*
X170301879Y-87091358D01*
X170321609Y-87064755D01*
X170343851Y-87040214D01*
X170368392Y-87017972D01*
X170394995Y-86998242D01*
X170423404Y-86981215D01*
X170453344Y-86967054D01*
X170484529Y-86955896D01*
X170516657Y-86947848D01*
X170549419Y-86942988D01*
X170582500Y-86941363D01*
X171357500Y-86941363D01*
X171390581Y-86942988D01*
X171390581Y-86942988D01*
G37*
D12*
X170970000Y-87616363D03*
G04 #@! TD*
D11*
G04 #@! TO.C,C11*
G36*
X162118064Y-94554625D02*
X162150826Y-94559485D01*
X162182954Y-94567533D01*
X162214139Y-94578691D01*
X162244079Y-94592852D01*
X162272488Y-94609879D01*
X162299091Y-94629609D01*
X162323632Y-94651851D01*
X162345874Y-94676392D01*
X162365604Y-94702995D01*
X162382631Y-94731404D01*
X162396792Y-94761344D01*
X162407950Y-94792529D01*
X162415998Y-94824657D01*
X162420858Y-94857419D01*
X162422483Y-94890500D01*
X162422483Y-95665500D01*
X162420858Y-95698581D01*
X162415998Y-95731343D01*
X162407950Y-95763471D01*
X162396792Y-95794656D01*
X162382631Y-95824596D01*
X162365604Y-95853005D01*
X162345874Y-95879608D01*
X162323632Y-95904149D01*
X162299091Y-95926391D01*
X162272488Y-95946121D01*
X162244079Y-95963148D01*
X162214139Y-95977309D01*
X162182954Y-95988467D01*
X162150826Y-95996515D01*
X162118064Y-96001375D01*
X162084983Y-96003000D01*
X161409983Y-96003000D01*
X161376902Y-96001375D01*
X161344140Y-95996515D01*
X161312012Y-95988467D01*
X161280827Y-95977309D01*
X161250887Y-95963148D01*
X161222478Y-95946121D01*
X161195875Y-95926391D01*
X161171334Y-95904149D01*
X161149092Y-95879608D01*
X161129362Y-95853005D01*
X161112335Y-95824596D01*
X161098174Y-95794656D01*
X161087016Y-95763471D01*
X161078968Y-95731343D01*
X161074108Y-95698581D01*
X161072483Y-95665500D01*
X161072483Y-94890500D01*
X161074108Y-94857419D01*
X161078968Y-94824657D01*
X161087016Y-94792529D01*
X161098174Y-94761344D01*
X161112335Y-94731404D01*
X161129362Y-94702995D01*
X161149092Y-94676392D01*
X161171334Y-94651851D01*
X161195875Y-94629609D01*
X161222478Y-94609879D01*
X161250887Y-94592852D01*
X161280827Y-94578691D01*
X161312012Y-94567533D01*
X161344140Y-94559485D01*
X161376902Y-94554625D01*
X161409983Y-94553000D01*
X162084983Y-94553000D01*
X162118064Y-94554625D01*
X162118064Y-94554625D01*
G37*
D12*
X161747483Y-95278000D03*
D11*
G36*
X162118064Y-96304625D02*
X162150826Y-96309485D01*
X162182954Y-96317533D01*
X162214139Y-96328691D01*
X162244079Y-96342852D01*
X162272488Y-96359879D01*
X162299091Y-96379609D01*
X162323632Y-96401851D01*
X162345874Y-96426392D01*
X162365604Y-96452995D01*
X162382631Y-96481404D01*
X162396792Y-96511344D01*
X162407950Y-96542529D01*
X162415998Y-96574657D01*
X162420858Y-96607419D01*
X162422483Y-96640500D01*
X162422483Y-97415500D01*
X162420858Y-97448581D01*
X162415998Y-97481343D01*
X162407950Y-97513471D01*
X162396792Y-97544656D01*
X162382631Y-97574596D01*
X162365604Y-97603005D01*
X162345874Y-97629608D01*
X162323632Y-97654149D01*
X162299091Y-97676391D01*
X162272488Y-97696121D01*
X162244079Y-97713148D01*
X162214139Y-97727309D01*
X162182954Y-97738467D01*
X162150826Y-97746515D01*
X162118064Y-97751375D01*
X162084983Y-97753000D01*
X161409983Y-97753000D01*
X161376902Y-97751375D01*
X161344140Y-97746515D01*
X161312012Y-97738467D01*
X161280827Y-97727309D01*
X161250887Y-97713148D01*
X161222478Y-97696121D01*
X161195875Y-97676391D01*
X161171334Y-97654149D01*
X161149092Y-97629608D01*
X161129362Y-97603005D01*
X161112335Y-97574596D01*
X161098174Y-97544656D01*
X161087016Y-97513471D01*
X161078968Y-97481343D01*
X161074108Y-97448581D01*
X161072483Y-97415500D01*
X161072483Y-96640500D01*
X161074108Y-96607419D01*
X161078968Y-96574657D01*
X161087016Y-96542529D01*
X161098174Y-96511344D01*
X161112335Y-96481404D01*
X161129362Y-96452995D01*
X161149092Y-96426392D01*
X161171334Y-96401851D01*
X161195875Y-96379609D01*
X161222478Y-96359879D01*
X161250887Y-96342852D01*
X161280827Y-96328691D01*
X161312012Y-96317533D01*
X161344140Y-96309485D01*
X161376902Y-96304625D01*
X161409983Y-96303000D01*
X162084983Y-96303000D01*
X162118064Y-96304625D01*
X162118064Y-96304625D01*
G37*
D12*
X161747483Y-97028000D03*
G04 #@! TD*
D14*
G04 #@! TO.C,Conn2*
X165100000Y-65532000D03*
X167640000Y-65532000D03*
X170180000Y-65532000D03*
X172720000Y-65532000D03*
D15*
X163830000Y-56896000D03*
X173990000Y-56896000D03*
G04 #@! TD*
D14*
G04 #@! TO.C,Conn3*
X140462000Y-65532000D03*
X143002000Y-65532000D03*
X145542000Y-65532000D03*
X148082000Y-65532000D03*
X150622000Y-65532000D03*
D15*
X139192000Y-56896000D03*
X159512000Y-56896000D03*
D14*
X153162000Y-65532000D03*
X155702000Y-65532000D03*
X158242000Y-65532000D03*
G04 #@! TD*
D11*
G04 #@! TO.C,D1*
G36*
X144071581Y-79209625D02*
X144104343Y-79214485D01*
X144136471Y-79222533D01*
X144167656Y-79233691D01*
X144197596Y-79247852D01*
X144226005Y-79264879D01*
X144252608Y-79284609D01*
X144277149Y-79306851D01*
X144299391Y-79331392D01*
X144319121Y-79357995D01*
X144336148Y-79386404D01*
X144350309Y-79416344D01*
X144361467Y-79447529D01*
X144369515Y-79479657D01*
X144374375Y-79512419D01*
X144376000Y-79545500D01*
X144376000Y-80220500D01*
X144374375Y-80253581D01*
X144369515Y-80286343D01*
X144361467Y-80318471D01*
X144350309Y-80349656D01*
X144336148Y-80379596D01*
X144319121Y-80408005D01*
X144299391Y-80434608D01*
X144277149Y-80459149D01*
X144252608Y-80481391D01*
X144226005Y-80501121D01*
X144197596Y-80518148D01*
X144167656Y-80532309D01*
X144136471Y-80543467D01*
X144104343Y-80551515D01*
X144071581Y-80556375D01*
X144038500Y-80558000D01*
X143263500Y-80558000D01*
X143230419Y-80556375D01*
X143197657Y-80551515D01*
X143165529Y-80543467D01*
X143134344Y-80532309D01*
X143104404Y-80518148D01*
X143075995Y-80501121D01*
X143049392Y-80481391D01*
X143024851Y-80459149D01*
X143002609Y-80434608D01*
X142982879Y-80408005D01*
X142965852Y-80379596D01*
X142951691Y-80349656D01*
X142940533Y-80318471D01*
X142932485Y-80286343D01*
X142927625Y-80253581D01*
X142926000Y-80220500D01*
X142926000Y-79545500D01*
X142927625Y-79512419D01*
X142932485Y-79479657D01*
X142940533Y-79447529D01*
X142951691Y-79416344D01*
X142965852Y-79386404D01*
X142982879Y-79357995D01*
X143002609Y-79331392D01*
X143024851Y-79306851D01*
X143049392Y-79284609D01*
X143075995Y-79264879D01*
X143104404Y-79247852D01*
X143134344Y-79233691D01*
X143165529Y-79222533D01*
X143197657Y-79214485D01*
X143230419Y-79209625D01*
X143263500Y-79208000D01*
X144038500Y-79208000D01*
X144071581Y-79209625D01*
X144071581Y-79209625D01*
G37*
D12*
X143651000Y-79883000D03*
D11*
G36*
X145821581Y-79209625D02*
X145854343Y-79214485D01*
X145886471Y-79222533D01*
X145917656Y-79233691D01*
X145947596Y-79247852D01*
X145976005Y-79264879D01*
X146002608Y-79284609D01*
X146027149Y-79306851D01*
X146049391Y-79331392D01*
X146069121Y-79357995D01*
X146086148Y-79386404D01*
X146100309Y-79416344D01*
X146111467Y-79447529D01*
X146119515Y-79479657D01*
X146124375Y-79512419D01*
X146126000Y-79545500D01*
X146126000Y-80220500D01*
X146124375Y-80253581D01*
X146119515Y-80286343D01*
X146111467Y-80318471D01*
X146100309Y-80349656D01*
X146086148Y-80379596D01*
X146069121Y-80408005D01*
X146049391Y-80434608D01*
X146027149Y-80459149D01*
X146002608Y-80481391D01*
X145976005Y-80501121D01*
X145947596Y-80518148D01*
X145917656Y-80532309D01*
X145886471Y-80543467D01*
X145854343Y-80551515D01*
X145821581Y-80556375D01*
X145788500Y-80558000D01*
X145013500Y-80558000D01*
X144980419Y-80556375D01*
X144947657Y-80551515D01*
X144915529Y-80543467D01*
X144884344Y-80532309D01*
X144854404Y-80518148D01*
X144825995Y-80501121D01*
X144799392Y-80481391D01*
X144774851Y-80459149D01*
X144752609Y-80434608D01*
X144732879Y-80408005D01*
X144715852Y-80379596D01*
X144701691Y-80349656D01*
X144690533Y-80318471D01*
X144682485Y-80286343D01*
X144677625Y-80253581D01*
X144676000Y-80220500D01*
X144676000Y-79545500D01*
X144677625Y-79512419D01*
X144682485Y-79479657D01*
X144690533Y-79447529D01*
X144701691Y-79416344D01*
X144715852Y-79386404D01*
X144732879Y-79357995D01*
X144752609Y-79331392D01*
X144774851Y-79306851D01*
X144799392Y-79284609D01*
X144825995Y-79264879D01*
X144854404Y-79247852D01*
X144884344Y-79233691D01*
X144915529Y-79222533D01*
X144947657Y-79214485D01*
X144980419Y-79209625D01*
X145013500Y-79208000D01*
X145788500Y-79208000D01*
X145821581Y-79209625D01*
X145821581Y-79209625D01*
G37*
D12*
X145401000Y-79883000D03*
G04 #@! TD*
D11*
G04 #@! TO.C,D2*
G36*
X156757581Y-110951125D02*
X156790343Y-110955985D01*
X156822471Y-110964033D01*
X156853656Y-110975191D01*
X156883596Y-110989352D01*
X156912005Y-111006379D01*
X156938608Y-111026109D01*
X156963149Y-111048351D01*
X156985391Y-111072892D01*
X157005121Y-111099495D01*
X157022148Y-111127904D01*
X157036309Y-111157844D01*
X157047467Y-111189029D01*
X157055515Y-111221157D01*
X157060375Y-111253919D01*
X157062000Y-111287000D01*
X157062000Y-111962000D01*
X157060375Y-111995081D01*
X157055515Y-112027843D01*
X157047467Y-112059971D01*
X157036309Y-112091156D01*
X157022148Y-112121096D01*
X157005121Y-112149505D01*
X156985391Y-112176108D01*
X156963149Y-112200649D01*
X156938608Y-112222891D01*
X156912005Y-112242621D01*
X156883596Y-112259648D01*
X156853656Y-112273809D01*
X156822471Y-112284967D01*
X156790343Y-112293015D01*
X156757581Y-112297875D01*
X156724500Y-112299500D01*
X155949500Y-112299500D01*
X155916419Y-112297875D01*
X155883657Y-112293015D01*
X155851529Y-112284967D01*
X155820344Y-112273809D01*
X155790404Y-112259648D01*
X155761995Y-112242621D01*
X155735392Y-112222891D01*
X155710851Y-112200649D01*
X155688609Y-112176108D01*
X155668879Y-112149505D01*
X155651852Y-112121096D01*
X155637691Y-112091156D01*
X155626533Y-112059971D01*
X155618485Y-112027843D01*
X155613625Y-111995081D01*
X155612000Y-111962000D01*
X155612000Y-111287000D01*
X155613625Y-111253919D01*
X155618485Y-111221157D01*
X155626533Y-111189029D01*
X155637691Y-111157844D01*
X155651852Y-111127904D01*
X155668879Y-111099495D01*
X155688609Y-111072892D01*
X155710851Y-111048351D01*
X155735392Y-111026109D01*
X155761995Y-111006379D01*
X155790404Y-110989352D01*
X155820344Y-110975191D01*
X155851529Y-110964033D01*
X155883657Y-110955985D01*
X155916419Y-110951125D01*
X155949500Y-110949500D01*
X156724500Y-110949500D01*
X156757581Y-110951125D01*
X156757581Y-110951125D01*
G37*
D12*
X156337000Y-111624500D03*
D11*
G36*
X155007581Y-110951125D02*
X155040343Y-110955985D01*
X155072471Y-110964033D01*
X155103656Y-110975191D01*
X155133596Y-110989352D01*
X155162005Y-111006379D01*
X155188608Y-111026109D01*
X155213149Y-111048351D01*
X155235391Y-111072892D01*
X155255121Y-111099495D01*
X155272148Y-111127904D01*
X155286309Y-111157844D01*
X155297467Y-111189029D01*
X155305515Y-111221157D01*
X155310375Y-111253919D01*
X155312000Y-111287000D01*
X155312000Y-111962000D01*
X155310375Y-111995081D01*
X155305515Y-112027843D01*
X155297467Y-112059971D01*
X155286309Y-112091156D01*
X155272148Y-112121096D01*
X155255121Y-112149505D01*
X155235391Y-112176108D01*
X155213149Y-112200649D01*
X155188608Y-112222891D01*
X155162005Y-112242621D01*
X155133596Y-112259648D01*
X155103656Y-112273809D01*
X155072471Y-112284967D01*
X155040343Y-112293015D01*
X155007581Y-112297875D01*
X154974500Y-112299500D01*
X154199500Y-112299500D01*
X154166419Y-112297875D01*
X154133657Y-112293015D01*
X154101529Y-112284967D01*
X154070344Y-112273809D01*
X154040404Y-112259648D01*
X154011995Y-112242621D01*
X153985392Y-112222891D01*
X153960851Y-112200649D01*
X153938609Y-112176108D01*
X153918879Y-112149505D01*
X153901852Y-112121096D01*
X153887691Y-112091156D01*
X153876533Y-112059971D01*
X153868485Y-112027843D01*
X153863625Y-111995081D01*
X153862000Y-111962000D01*
X153862000Y-111287000D01*
X153863625Y-111253919D01*
X153868485Y-111221157D01*
X153876533Y-111189029D01*
X153887691Y-111157844D01*
X153901852Y-111127904D01*
X153918879Y-111099495D01*
X153938609Y-111072892D01*
X153960851Y-111048351D01*
X153985392Y-111026109D01*
X154011995Y-111006379D01*
X154040404Y-110989352D01*
X154070344Y-110975191D01*
X154101529Y-110964033D01*
X154133657Y-110955985D01*
X154166419Y-110951125D01*
X154199500Y-110949500D01*
X154974500Y-110949500D01*
X155007581Y-110951125D01*
X155007581Y-110951125D01*
G37*
D12*
X154587000Y-111624500D03*
G04 #@! TD*
D11*
G04 #@! TO.C,D5*
G36*
X155007581Y-114134625D02*
X155040343Y-114139485D01*
X155072471Y-114147533D01*
X155103656Y-114158691D01*
X155133596Y-114172852D01*
X155162005Y-114189879D01*
X155188608Y-114209609D01*
X155213149Y-114231851D01*
X155235391Y-114256392D01*
X155255121Y-114282995D01*
X155272148Y-114311404D01*
X155286309Y-114341344D01*
X155297467Y-114372529D01*
X155305515Y-114404657D01*
X155310375Y-114437419D01*
X155312000Y-114470500D01*
X155312000Y-115145500D01*
X155310375Y-115178581D01*
X155305515Y-115211343D01*
X155297467Y-115243471D01*
X155286309Y-115274656D01*
X155272148Y-115304596D01*
X155255121Y-115333005D01*
X155235391Y-115359608D01*
X155213149Y-115384149D01*
X155188608Y-115406391D01*
X155162005Y-115426121D01*
X155133596Y-115443148D01*
X155103656Y-115457309D01*
X155072471Y-115468467D01*
X155040343Y-115476515D01*
X155007581Y-115481375D01*
X154974500Y-115483000D01*
X154199500Y-115483000D01*
X154166419Y-115481375D01*
X154133657Y-115476515D01*
X154101529Y-115468467D01*
X154070344Y-115457309D01*
X154040404Y-115443148D01*
X154011995Y-115426121D01*
X153985392Y-115406391D01*
X153960851Y-115384149D01*
X153938609Y-115359608D01*
X153918879Y-115333005D01*
X153901852Y-115304596D01*
X153887691Y-115274656D01*
X153876533Y-115243471D01*
X153868485Y-115211343D01*
X153863625Y-115178581D01*
X153862000Y-115145500D01*
X153862000Y-114470500D01*
X153863625Y-114437419D01*
X153868485Y-114404657D01*
X153876533Y-114372529D01*
X153887691Y-114341344D01*
X153901852Y-114311404D01*
X153918879Y-114282995D01*
X153938609Y-114256392D01*
X153960851Y-114231851D01*
X153985392Y-114209609D01*
X154011995Y-114189879D01*
X154040404Y-114172852D01*
X154070344Y-114158691D01*
X154101529Y-114147533D01*
X154133657Y-114139485D01*
X154166419Y-114134625D01*
X154199500Y-114133000D01*
X154974500Y-114133000D01*
X155007581Y-114134625D01*
X155007581Y-114134625D01*
G37*
D12*
X154587000Y-114808000D03*
D11*
G36*
X156757581Y-114134625D02*
X156790343Y-114139485D01*
X156822471Y-114147533D01*
X156853656Y-114158691D01*
X156883596Y-114172852D01*
X156912005Y-114189879D01*
X156938608Y-114209609D01*
X156963149Y-114231851D01*
X156985391Y-114256392D01*
X157005121Y-114282995D01*
X157022148Y-114311404D01*
X157036309Y-114341344D01*
X157047467Y-114372529D01*
X157055515Y-114404657D01*
X157060375Y-114437419D01*
X157062000Y-114470500D01*
X157062000Y-115145500D01*
X157060375Y-115178581D01*
X157055515Y-115211343D01*
X157047467Y-115243471D01*
X157036309Y-115274656D01*
X157022148Y-115304596D01*
X157005121Y-115333005D01*
X156985391Y-115359608D01*
X156963149Y-115384149D01*
X156938608Y-115406391D01*
X156912005Y-115426121D01*
X156883596Y-115443148D01*
X156853656Y-115457309D01*
X156822471Y-115468467D01*
X156790343Y-115476515D01*
X156757581Y-115481375D01*
X156724500Y-115483000D01*
X155949500Y-115483000D01*
X155916419Y-115481375D01*
X155883657Y-115476515D01*
X155851529Y-115468467D01*
X155820344Y-115457309D01*
X155790404Y-115443148D01*
X155761995Y-115426121D01*
X155735392Y-115406391D01*
X155710851Y-115384149D01*
X155688609Y-115359608D01*
X155668879Y-115333005D01*
X155651852Y-115304596D01*
X155637691Y-115274656D01*
X155626533Y-115243471D01*
X155618485Y-115211343D01*
X155613625Y-115178581D01*
X155612000Y-115145500D01*
X155612000Y-114470500D01*
X155613625Y-114437419D01*
X155618485Y-114404657D01*
X155626533Y-114372529D01*
X155637691Y-114341344D01*
X155651852Y-114311404D01*
X155668879Y-114282995D01*
X155688609Y-114256392D01*
X155710851Y-114231851D01*
X155735392Y-114209609D01*
X155761995Y-114189879D01*
X155790404Y-114172852D01*
X155820344Y-114158691D01*
X155851529Y-114147533D01*
X155883657Y-114139485D01*
X155916419Y-114134625D01*
X155949500Y-114133000D01*
X156724500Y-114133000D01*
X156757581Y-114134625D01*
X156757581Y-114134625D01*
G37*
D12*
X156337000Y-114808000D03*
G04 #@! TD*
D11*
G04 #@! TO.C,D6*
G36*
X154993581Y-118198625D02*
X155026343Y-118203485D01*
X155058471Y-118211533D01*
X155089656Y-118222691D01*
X155119596Y-118236852D01*
X155148005Y-118253879D01*
X155174608Y-118273609D01*
X155199149Y-118295851D01*
X155221391Y-118320392D01*
X155241121Y-118346995D01*
X155258148Y-118375404D01*
X155272309Y-118405344D01*
X155283467Y-118436529D01*
X155291515Y-118468657D01*
X155296375Y-118501419D01*
X155298000Y-118534500D01*
X155298000Y-119209500D01*
X155296375Y-119242581D01*
X155291515Y-119275343D01*
X155283467Y-119307471D01*
X155272309Y-119338656D01*
X155258148Y-119368596D01*
X155241121Y-119397005D01*
X155221391Y-119423608D01*
X155199149Y-119448149D01*
X155174608Y-119470391D01*
X155148005Y-119490121D01*
X155119596Y-119507148D01*
X155089656Y-119521309D01*
X155058471Y-119532467D01*
X155026343Y-119540515D01*
X154993581Y-119545375D01*
X154960500Y-119547000D01*
X154185500Y-119547000D01*
X154152419Y-119545375D01*
X154119657Y-119540515D01*
X154087529Y-119532467D01*
X154056344Y-119521309D01*
X154026404Y-119507148D01*
X153997995Y-119490121D01*
X153971392Y-119470391D01*
X153946851Y-119448149D01*
X153924609Y-119423608D01*
X153904879Y-119397005D01*
X153887852Y-119368596D01*
X153873691Y-119338656D01*
X153862533Y-119307471D01*
X153854485Y-119275343D01*
X153849625Y-119242581D01*
X153848000Y-119209500D01*
X153848000Y-118534500D01*
X153849625Y-118501419D01*
X153854485Y-118468657D01*
X153862533Y-118436529D01*
X153873691Y-118405344D01*
X153887852Y-118375404D01*
X153904879Y-118346995D01*
X153924609Y-118320392D01*
X153946851Y-118295851D01*
X153971392Y-118273609D01*
X153997995Y-118253879D01*
X154026404Y-118236852D01*
X154056344Y-118222691D01*
X154087529Y-118211533D01*
X154119657Y-118203485D01*
X154152419Y-118198625D01*
X154185500Y-118197000D01*
X154960500Y-118197000D01*
X154993581Y-118198625D01*
X154993581Y-118198625D01*
G37*
D12*
X154573000Y-118872000D03*
D11*
G36*
X156743581Y-118198625D02*
X156776343Y-118203485D01*
X156808471Y-118211533D01*
X156839656Y-118222691D01*
X156869596Y-118236852D01*
X156898005Y-118253879D01*
X156924608Y-118273609D01*
X156949149Y-118295851D01*
X156971391Y-118320392D01*
X156991121Y-118346995D01*
X157008148Y-118375404D01*
X157022309Y-118405344D01*
X157033467Y-118436529D01*
X157041515Y-118468657D01*
X157046375Y-118501419D01*
X157048000Y-118534500D01*
X157048000Y-119209500D01*
X157046375Y-119242581D01*
X157041515Y-119275343D01*
X157033467Y-119307471D01*
X157022309Y-119338656D01*
X157008148Y-119368596D01*
X156991121Y-119397005D01*
X156971391Y-119423608D01*
X156949149Y-119448149D01*
X156924608Y-119470391D01*
X156898005Y-119490121D01*
X156869596Y-119507148D01*
X156839656Y-119521309D01*
X156808471Y-119532467D01*
X156776343Y-119540515D01*
X156743581Y-119545375D01*
X156710500Y-119547000D01*
X155935500Y-119547000D01*
X155902419Y-119545375D01*
X155869657Y-119540515D01*
X155837529Y-119532467D01*
X155806344Y-119521309D01*
X155776404Y-119507148D01*
X155747995Y-119490121D01*
X155721392Y-119470391D01*
X155696851Y-119448149D01*
X155674609Y-119423608D01*
X155654879Y-119397005D01*
X155637852Y-119368596D01*
X155623691Y-119338656D01*
X155612533Y-119307471D01*
X155604485Y-119275343D01*
X155599625Y-119242581D01*
X155598000Y-119209500D01*
X155598000Y-118534500D01*
X155599625Y-118501419D01*
X155604485Y-118468657D01*
X155612533Y-118436529D01*
X155623691Y-118405344D01*
X155637852Y-118375404D01*
X155654879Y-118346995D01*
X155674609Y-118320392D01*
X155696851Y-118295851D01*
X155721392Y-118273609D01*
X155747995Y-118253879D01*
X155776404Y-118236852D01*
X155806344Y-118222691D01*
X155837529Y-118211533D01*
X155869657Y-118203485D01*
X155902419Y-118198625D01*
X155935500Y-118197000D01*
X156710500Y-118197000D01*
X156743581Y-118198625D01*
X156743581Y-118198625D01*
G37*
D12*
X156323000Y-118872000D03*
G04 #@! TD*
D11*
G04 #@! TO.C,D7*
G36*
X122594581Y-75272625D02*
X122627343Y-75277485D01*
X122659471Y-75285533D01*
X122690656Y-75296691D01*
X122720596Y-75310852D01*
X122749005Y-75327879D01*
X122775608Y-75347609D01*
X122800149Y-75369851D01*
X122822391Y-75394392D01*
X122842121Y-75420995D01*
X122859148Y-75449404D01*
X122873309Y-75479344D01*
X122884467Y-75510529D01*
X122892515Y-75542657D01*
X122897375Y-75575419D01*
X122899000Y-75608500D01*
X122899000Y-76283500D01*
X122897375Y-76316581D01*
X122892515Y-76349343D01*
X122884467Y-76381471D01*
X122873309Y-76412656D01*
X122859148Y-76442596D01*
X122842121Y-76471005D01*
X122822391Y-76497608D01*
X122800149Y-76522149D01*
X122775608Y-76544391D01*
X122749005Y-76564121D01*
X122720596Y-76581148D01*
X122690656Y-76595309D01*
X122659471Y-76606467D01*
X122627343Y-76614515D01*
X122594581Y-76619375D01*
X122561500Y-76621000D01*
X121786500Y-76621000D01*
X121753419Y-76619375D01*
X121720657Y-76614515D01*
X121688529Y-76606467D01*
X121657344Y-76595309D01*
X121627404Y-76581148D01*
X121598995Y-76564121D01*
X121572392Y-76544391D01*
X121547851Y-76522149D01*
X121525609Y-76497608D01*
X121505879Y-76471005D01*
X121488852Y-76442596D01*
X121474691Y-76412656D01*
X121463533Y-76381471D01*
X121455485Y-76349343D01*
X121450625Y-76316581D01*
X121449000Y-76283500D01*
X121449000Y-75608500D01*
X121450625Y-75575419D01*
X121455485Y-75542657D01*
X121463533Y-75510529D01*
X121474691Y-75479344D01*
X121488852Y-75449404D01*
X121505879Y-75420995D01*
X121525609Y-75394392D01*
X121547851Y-75369851D01*
X121572392Y-75347609D01*
X121598995Y-75327879D01*
X121627404Y-75310852D01*
X121657344Y-75296691D01*
X121688529Y-75285533D01*
X121720657Y-75277485D01*
X121753419Y-75272625D01*
X121786500Y-75271000D01*
X122561500Y-75271000D01*
X122594581Y-75272625D01*
X122594581Y-75272625D01*
G37*
D12*
X122174000Y-75946000D03*
D11*
G36*
X120844581Y-75272625D02*
X120877343Y-75277485D01*
X120909471Y-75285533D01*
X120940656Y-75296691D01*
X120970596Y-75310852D01*
X120999005Y-75327879D01*
X121025608Y-75347609D01*
X121050149Y-75369851D01*
X121072391Y-75394392D01*
X121092121Y-75420995D01*
X121109148Y-75449404D01*
X121123309Y-75479344D01*
X121134467Y-75510529D01*
X121142515Y-75542657D01*
X121147375Y-75575419D01*
X121149000Y-75608500D01*
X121149000Y-76283500D01*
X121147375Y-76316581D01*
X121142515Y-76349343D01*
X121134467Y-76381471D01*
X121123309Y-76412656D01*
X121109148Y-76442596D01*
X121092121Y-76471005D01*
X121072391Y-76497608D01*
X121050149Y-76522149D01*
X121025608Y-76544391D01*
X120999005Y-76564121D01*
X120970596Y-76581148D01*
X120940656Y-76595309D01*
X120909471Y-76606467D01*
X120877343Y-76614515D01*
X120844581Y-76619375D01*
X120811500Y-76621000D01*
X120036500Y-76621000D01*
X120003419Y-76619375D01*
X119970657Y-76614515D01*
X119938529Y-76606467D01*
X119907344Y-76595309D01*
X119877404Y-76581148D01*
X119848995Y-76564121D01*
X119822392Y-76544391D01*
X119797851Y-76522149D01*
X119775609Y-76497608D01*
X119755879Y-76471005D01*
X119738852Y-76442596D01*
X119724691Y-76412656D01*
X119713533Y-76381471D01*
X119705485Y-76349343D01*
X119700625Y-76316581D01*
X119699000Y-76283500D01*
X119699000Y-75608500D01*
X119700625Y-75575419D01*
X119705485Y-75542657D01*
X119713533Y-75510529D01*
X119724691Y-75479344D01*
X119738852Y-75449404D01*
X119755879Y-75420995D01*
X119775609Y-75394392D01*
X119797851Y-75369851D01*
X119822392Y-75347609D01*
X119848995Y-75327879D01*
X119877404Y-75310852D01*
X119907344Y-75296691D01*
X119938529Y-75285533D01*
X119970657Y-75277485D01*
X120003419Y-75272625D01*
X120036500Y-75271000D01*
X120811500Y-75271000D01*
X120844581Y-75272625D01*
X120844581Y-75272625D01*
G37*
D12*
X120424000Y-75946000D03*
G04 #@! TD*
D11*
G04 #@! TO.C,D9*
G36*
X156884581Y-103784485D02*
X156917343Y-103789345D01*
X156949471Y-103797393D01*
X156980656Y-103808551D01*
X157010596Y-103822712D01*
X157039005Y-103839739D01*
X157065608Y-103859469D01*
X157090149Y-103881711D01*
X157112391Y-103906252D01*
X157132121Y-103932855D01*
X157149148Y-103961264D01*
X157163309Y-103991204D01*
X157174467Y-104022389D01*
X157182515Y-104054517D01*
X157187375Y-104087279D01*
X157189000Y-104120360D01*
X157189000Y-104795360D01*
X157187375Y-104828441D01*
X157182515Y-104861203D01*
X157174467Y-104893331D01*
X157163309Y-104924516D01*
X157149148Y-104954456D01*
X157132121Y-104982865D01*
X157112391Y-105009468D01*
X157090149Y-105034009D01*
X157065608Y-105056251D01*
X157039005Y-105075981D01*
X157010596Y-105093008D01*
X156980656Y-105107169D01*
X156949471Y-105118327D01*
X156917343Y-105126375D01*
X156884581Y-105131235D01*
X156851500Y-105132860D01*
X156076500Y-105132860D01*
X156043419Y-105131235D01*
X156010657Y-105126375D01*
X155978529Y-105118327D01*
X155947344Y-105107169D01*
X155917404Y-105093008D01*
X155888995Y-105075981D01*
X155862392Y-105056251D01*
X155837851Y-105034009D01*
X155815609Y-105009468D01*
X155795879Y-104982865D01*
X155778852Y-104954456D01*
X155764691Y-104924516D01*
X155753533Y-104893331D01*
X155745485Y-104861203D01*
X155740625Y-104828441D01*
X155739000Y-104795360D01*
X155739000Y-104120360D01*
X155740625Y-104087279D01*
X155745485Y-104054517D01*
X155753533Y-104022389D01*
X155764691Y-103991204D01*
X155778852Y-103961264D01*
X155795879Y-103932855D01*
X155815609Y-103906252D01*
X155837851Y-103881711D01*
X155862392Y-103859469D01*
X155888995Y-103839739D01*
X155917404Y-103822712D01*
X155947344Y-103808551D01*
X155978529Y-103797393D01*
X156010657Y-103789345D01*
X156043419Y-103784485D01*
X156076500Y-103782860D01*
X156851500Y-103782860D01*
X156884581Y-103784485D01*
X156884581Y-103784485D01*
G37*
D12*
X156464000Y-104457860D03*
D11*
G36*
X155134581Y-103784485D02*
X155167343Y-103789345D01*
X155199471Y-103797393D01*
X155230656Y-103808551D01*
X155260596Y-103822712D01*
X155289005Y-103839739D01*
X155315608Y-103859469D01*
X155340149Y-103881711D01*
X155362391Y-103906252D01*
X155382121Y-103932855D01*
X155399148Y-103961264D01*
X155413309Y-103991204D01*
X155424467Y-104022389D01*
X155432515Y-104054517D01*
X155437375Y-104087279D01*
X155439000Y-104120360D01*
X155439000Y-104795360D01*
X155437375Y-104828441D01*
X155432515Y-104861203D01*
X155424467Y-104893331D01*
X155413309Y-104924516D01*
X155399148Y-104954456D01*
X155382121Y-104982865D01*
X155362391Y-105009468D01*
X155340149Y-105034009D01*
X155315608Y-105056251D01*
X155289005Y-105075981D01*
X155260596Y-105093008D01*
X155230656Y-105107169D01*
X155199471Y-105118327D01*
X155167343Y-105126375D01*
X155134581Y-105131235D01*
X155101500Y-105132860D01*
X154326500Y-105132860D01*
X154293419Y-105131235D01*
X154260657Y-105126375D01*
X154228529Y-105118327D01*
X154197344Y-105107169D01*
X154167404Y-105093008D01*
X154138995Y-105075981D01*
X154112392Y-105056251D01*
X154087851Y-105034009D01*
X154065609Y-105009468D01*
X154045879Y-104982865D01*
X154028852Y-104954456D01*
X154014691Y-104924516D01*
X154003533Y-104893331D01*
X153995485Y-104861203D01*
X153990625Y-104828441D01*
X153989000Y-104795360D01*
X153989000Y-104120360D01*
X153990625Y-104087279D01*
X153995485Y-104054517D01*
X154003533Y-104022389D01*
X154014691Y-103991204D01*
X154028852Y-103961264D01*
X154045879Y-103932855D01*
X154065609Y-103906252D01*
X154087851Y-103881711D01*
X154112392Y-103859469D01*
X154138995Y-103839739D01*
X154167404Y-103822712D01*
X154197344Y-103808551D01*
X154228529Y-103797393D01*
X154260657Y-103789345D01*
X154293419Y-103784485D01*
X154326500Y-103782860D01*
X155101500Y-103782860D01*
X155134581Y-103784485D01*
X155134581Y-103784485D01*
G37*
D12*
X154714000Y-104457860D03*
G04 #@! TD*
D11*
G04 #@! TO.C,D10*
G36*
X156743581Y-107111018D02*
X156776343Y-107115878D01*
X156808471Y-107123926D01*
X156839656Y-107135084D01*
X156869596Y-107149245D01*
X156898005Y-107166272D01*
X156924608Y-107186002D01*
X156949149Y-107208244D01*
X156971391Y-107232785D01*
X156991121Y-107259388D01*
X157008148Y-107287797D01*
X157022309Y-107317737D01*
X157033467Y-107348922D01*
X157041515Y-107381050D01*
X157046375Y-107413812D01*
X157048000Y-107446893D01*
X157048000Y-108121893D01*
X157046375Y-108154974D01*
X157041515Y-108187736D01*
X157033467Y-108219864D01*
X157022309Y-108251049D01*
X157008148Y-108280989D01*
X156991121Y-108309398D01*
X156971391Y-108336001D01*
X156949149Y-108360542D01*
X156924608Y-108382784D01*
X156898005Y-108402514D01*
X156869596Y-108419541D01*
X156839656Y-108433702D01*
X156808471Y-108444860D01*
X156776343Y-108452908D01*
X156743581Y-108457768D01*
X156710500Y-108459393D01*
X155935500Y-108459393D01*
X155902419Y-108457768D01*
X155869657Y-108452908D01*
X155837529Y-108444860D01*
X155806344Y-108433702D01*
X155776404Y-108419541D01*
X155747995Y-108402514D01*
X155721392Y-108382784D01*
X155696851Y-108360542D01*
X155674609Y-108336001D01*
X155654879Y-108309398D01*
X155637852Y-108280989D01*
X155623691Y-108251049D01*
X155612533Y-108219864D01*
X155604485Y-108187736D01*
X155599625Y-108154974D01*
X155598000Y-108121893D01*
X155598000Y-107446893D01*
X155599625Y-107413812D01*
X155604485Y-107381050D01*
X155612533Y-107348922D01*
X155623691Y-107317737D01*
X155637852Y-107287797D01*
X155654879Y-107259388D01*
X155674609Y-107232785D01*
X155696851Y-107208244D01*
X155721392Y-107186002D01*
X155747995Y-107166272D01*
X155776404Y-107149245D01*
X155806344Y-107135084D01*
X155837529Y-107123926D01*
X155869657Y-107115878D01*
X155902419Y-107111018D01*
X155935500Y-107109393D01*
X156710500Y-107109393D01*
X156743581Y-107111018D01*
X156743581Y-107111018D01*
G37*
D12*
X156323000Y-107784393D03*
D11*
G36*
X154993581Y-107111018D02*
X155026343Y-107115878D01*
X155058471Y-107123926D01*
X155089656Y-107135084D01*
X155119596Y-107149245D01*
X155148005Y-107166272D01*
X155174608Y-107186002D01*
X155199149Y-107208244D01*
X155221391Y-107232785D01*
X155241121Y-107259388D01*
X155258148Y-107287797D01*
X155272309Y-107317737D01*
X155283467Y-107348922D01*
X155291515Y-107381050D01*
X155296375Y-107413812D01*
X155298000Y-107446893D01*
X155298000Y-108121893D01*
X155296375Y-108154974D01*
X155291515Y-108187736D01*
X155283467Y-108219864D01*
X155272309Y-108251049D01*
X155258148Y-108280989D01*
X155241121Y-108309398D01*
X155221391Y-108336001D01*
X155199149Y-108360542D01*
X155174608Y-108382784D01*
X155148005Y-108402514D01*
X155119596Y-108419541D01*
X155089656Y-108433702D01*
X155058471Y-108444860D01*
X155026343Y-108452908D01*
X154993581Y-108457768D01*
X154960500Y-108459393D01*
X154185500Y-108459393D01*
X154152419Y-108457768D01*
X154119657Y-108452908D01*
X154087529Y-108444860D01*
X154056344Y-108433702D01*
X154026404Y-108419541D01*
X153997995Y-108402514D01*
X153971392Y-108382784D01*
X153946851Y-108360542D01*
X153924609Y-108336001D01*
X153904879Y-108309398D01*
X153887852Y-108280989D01*
X153873691Y-108251049D01*
X153862533Y-108219864D01*
X153854485Y-108187736D01*
X153849625Y-108154974D01*
X153848000Y-108121893D01*
X153848000Y-107446893D01*
X153849625Y-107413812D01*
X153854485Y-107381050D01*
X153862533Y-107348922D01*
X153873691Y-107317737D01*
X153887852Y-107287797D01*
X153904879Y-107259388D01*
X153924609Y-107232785D01*
X153946851Y-107208244D01*
X153971392Y-107186002D01*
X153997995Y-107166272D01*
X154026404Y-107149245D01*
X154056344Y-107135084D01*
X154087529Y-107123926D01*
X154119657Y-107115878D01*
X154152419Y-107111018D01*
X154185500Y-107109393D01*
X154960500Y-107109393D01*
X154993581Y-107111018D01*
X154993581Y-107111018D01*
G37*
D12*
X154573000Y-107784393D03*
G04 #@! TD*
D16*
G04 #@! TO.C,J1*
X119583200Y-89154000D03*
D17*
X122123200Y-91694000D03*
X122123200Y-86614000D03*
X117043200Y-86614000D03*
X117043200Y-91694000D03*
G04 #@! TD*
D11*
G04 #@! TO.C,L1*
G36*
X144071581Y-69176625D02*
X144104343Y-69181485D01*
X144136471Y-69189533D01*
X144167656Y-69200691D01*
X144197596Y-69214852D01*
X144226005Y-69231879D01*
X144252608Y-69251609D01*
X144277149Y-69273851D01*
X144299391Y-69298392D01*
X144319121Y-69324995D01*
X144336148Y-69353404D01*
X144350309Y-69383344D01*
X144361467Y-69414529D01*
X144369515Y-69446657D01*
X144374375Y-69479419D01*
X144376000Y-69512500D01*
X144376000Y-70187500D01*
X144374375Y-70220581D01*
X144369515Y-70253343D01*
X144361467Y-70285471D01*
X144350309Y-70316656D01*
X144336148Y-70346596D01*
X144319121Y-70375005D01*
X144299391Y-70401608D01*
X144277149Y-70426149D01*
X144252608Y-70448391D01*
X144226005Y-70468121D01*
X144197596Y-70485148D01*
X144167656Y-70499309D01*
X144136471Y-70510467D01*
X144104343Y-70518515D01*
X144071581Y-70523375D01*
X144038500Y-70525000D01*
X143263500Y-70525000D01*
X143230419Y-70523375D01*
X143197657Y-70518515D01*
X143165529Y-70510467D01*
X143134344Y-70499309D01*
X143104404Y-70485148D01*
X143075995Y-70468121D01*
X143049392Y-70448391D01*
X143024851Y-70426149D01*
X143002609Y-70401608D01*
X142982879Y-70375005D01*
X142965852Y-70346596D01*
X142951691Y-70316656D01*
X142940533Y-70285471D01*
X142932485Y-70253343D01*
X142927625Y-70220581D01*
X142926000Y-70187500D01*
X142926000Y-69512500D01*
X142927625Y-69479419D01*
X142932485Y-69446657D01*
X142940533Y-69414529D01*
X142951691Y-69383344D01*
X142965852Y-69353404D01*
X142982879Y-69324995D01*
X143002609Y-69298392D01*
X143024851Y-69273851D01*
X143049392Y-69251609D01*
X143075995Y-69231879D01*
X143104404Y-69214852D01*
X143134344Y-69200691D01*
X143165529Y-69189533D01*
X143197657Y-69181485D01*
X143230419Y-69176625D01*
X143263500Y-69175000D01*
X144038500Y-69175000D01*
X144071581Y-69176625D01*
X144071581Y-69176625D01*
G37*
D12*
X143651000Y-69850000D03*
D11*
G36*
X145821581Y-69176625D02*
X145854343Y-69181485D01*
X145886471Y-69189533D01*
X145917656Y-69200691D01*
X145947596Y-69214852D01*
X145976005Y-69231879D01*
X146002608Y-69251609D01*
X146027149Y-69273851D01*
X146049391Y-69298392D01*
X146069121Y-69324995D01*
X146086148Y-69353404D01*
X146100309Y-69383344D01*
X146111467Y-69414529D01*
X146119515Y-69446657D01*
X146124375Y-69479419D01*
X146126000Y-69512500D01*
X146126000Y-70187500D01*
X146124375Y-70220581D01*
X146119515Y-70253343D01*
X146111467Y-70285471D01*
X146100309Y-70316656D01*
X146086148Y-70346596D01*
X146069121Y-70375005D01*
X146049391Y-70401608D01*
X146027149Y-70426149D01*
X146002608Y-70448391D01*
X145976005Y-70468121D01*
X145947596Y-70485148D01*
X145917656Y-70499309D01*
X145886471Y-70510467D01*
X145854343Y-70518515D01*
X145821581Y-70523375D01*
X145788500Y-70525000D01*
X145013500Y-70525000D01*
X144980419Y-70523375D01*
X144947657Y-70518515D01*
X144915529Y-70510467D01*
X144884344Y-70499309D01*
X144854404Y-70485148D01*
X144825995Y-70468121D01*
X144799392Y-70448391D01*
X144774851Y-70426149D01*
X144752609Y-70401608D01*
X144732879Y-70375005D01*
X144715852Y-70346596D01*
X144701691Y-70316656D01*
X144690533Y-70285471D01*
X144682485Y-70253343D01*
X144677625Y-70220581D01*
X144676000Y-70187500D01*
X144676000Y-69512500D01*
X144677625Y-69479419D01*
X144682485Y-69446657D01*
X144690533Y-69414529D01*
X144701691Y-69383344D01*
X144715852Y-69353404D01*
X144732879Y-69324995D01*
X144752609Y-69298392D01*
X144774851Y-69273851D01*
X144799392Y-69251609D01*
X144825995Y-69231879D01*
X144854404Y-69214852D01*
X144884344Y-69200691D01*
X144915529Y-69189533D01*
X144947657Y-69181485D01*
X144980419Y-69176625D01*
X145013500Y-69175000D01*
X145788500Y-69175000D01*
X145821581Y-69176625D01*
X145821581Y-69176625D01*
G37*
D12*
X145401000Y-69850000D03*
G04 #@! TD*
D11*
G04 #@! TO.C,R1*
G36*
X145835581Y-77177625D02*
X145868343Y-77182485D01*
X145900471Y-77190533D01*
X145931656Y-77201691D01*
X145961596Y-77215852D01*
X145990005Y-77232879D01*
X146016608Y-77252609D01*
X146041149Y-77274851D01*
X146063391Y-77299392D01*
X146083121Y-77325995D01*
X146100148Y-77354404D01*
X146114309Y-77384344D01*
X146125467Y-77415529D01*
X146133515Y-77447657D01*
X146138375Y-77480419D01*
X146140000Y-77513500D01*
X146140000Y-78188500D01*
X146138375Y-78221581D01*
X146133515Y-78254343D01*
X146125467Y-78286471D01*
X146114309Y-78317656D01*
X146100148Y-78347596D01*
X146083121Y-78376005D01*
X146063391Y-78402608D01*
X146041149Y-78427149D01*
X146016608Y-78449391D01*
X145990005Y-78469121D01*
X145961596Y-78486148D01*
X145931656Y-78500309D01*
X145900471Y-78511467D01*
X145868343Y-78519515D01*
X145835581Y-78524375D01*
X145802500Y-78526000D01*
X145027500Y-78526000D01*
X144994419Y-78524375D01*
X144961657Y-78519515D01*
X144929529Y-78511467D01*
X144898344Y-78500309D01*
X144868404Y-78486148D01*
X144839995Y-78469121D01*
X144813392Y-78449391D01*
X144788851Y-78427149D01*
X144766609Y-78402608D01*
X144746879Y-78376005D01*
X144729852Y-78347596D01*
X144715691Y-78317656D01*
X144704533Y-78286471D01*
X144696485Y-78254343D01*
X144691625Y-78221581D01*
X144690000Y-78188500D01*
X144690000Y-77513500D01*
X144691625Y-77480419D01*
X144696485Y-77447657D01*
X144704533Y-77415529D01*
X144715691Y-77384344D01*
X144729852Y-77354404D01*
X144746879Y-77325995D01*
X144766609Y-77299392D01*
X144788851Y-77274851D01*
X144813392Y-77252609D01*
X144839995Y-77232879D01*
X144868404Y-77215852D01*
X144898344Y-77201691D01*
X144929529Y-77190533D01*
X144961657Y-77182485D01*
X144994419Y-77177625D01*
X145027500Y-77176000D01*
X145802500Y-77176000D01*
X145835581Y-77177625D01*
X145835581Y-77177625D01*
G37*
D12*
X145415000Y-77851000D03*
D11*
G36*
X144085581Y-77177625D02*
X144118343Y-77182485D01*
X144150471Y-77190533D01*
X144181656Y-77201691D01*
X144211596Y-77215852D01*
X144240005Y-77232879D01*
X144266608Y-77252609D01*
X144291149Y-77274851D01*
X144313391Y-77299392D01*
X144333121Y-77325995D01*
X144350148Y-77354404D01*
X144364309Y-77384344D01*
X144375467Y-77415529D01*
X144383515Y-77447657D01*
X144388375Y-77480419D01*
X144390000Y-77513500D01*
X144390000Y-78188500D01*
X144388375Y-78221581D01*
X144383515Y-78254343D01*
X144375467Y-78286471D01*
X144364309Y-78317656D01*
X144350148Y-78347596D01*
X144333121Y-78376005D01*
X144313391Y-78402608D01*
X144291149Y-78427149D01*
X144266608Y-78449391D01*
X144240005Y-78469121D01*
X144211596Y-78486148D01*
X144181656Y-78500309D01*
X144150471Y-78511467D01*
X144118343Y-78519515D01*
X144085581Y-78524375D01*
X144052500Y-78526000D01*
X143277500Y-78526000D01*
X143244419Y-78524375D01*
X143211657Y-78519515D01*
X143179529Y-78511467D01*
X143148344Y-78500309D01*
X143118404Y-78486148D01*
X143089995Y-78469121D01*
X143063392Y-78449391D01*
X143038851Y-78427149D01*
X143016609Y-78402608D01*
X142996879Y-78376005D01*
X142979852Y-78347596D01*
X142965691Y-78317656D01*
X142954533Y-78286471D01*
X142946485Y-78254343D01*
X142941625Y-78221581D01*
X142940000Y-78188500D01*
X142940000Y-77513500D01*
X142941625Y-77480419D01*
X142946485Y-77447657D01*
X142954533Y-77415529D01*
X142965691Y-77384344D01*
X142979852Y-77354404D01*
X142996879Y-77325995D01*
X143016609Y-77299392D01*
X143038851Y-77274851D01*
X143063392Y-77252609D01*
X143089995Y-77232879D01*
X143118404Y-77215852D01*
X143148344Y-77201691D01*
X143179529Y-77190533D01*
X143211657Y-77182485D01*
X143244419Y-77177625D01*
X143277500Y-77176000D01*
X144052500Y-77176000D01*
X144085581Y-77177625D01*
X144085581Y-77177625D01*
G37*
D12*
X143665000Y-77851000D03*
G04 #@! TD*
D11*
G04 #@! TO.C,R2*
G36*
X151189081Y-110959625D02*
X151221843Y-110964485D01*
X151253971Y-110972533D01*
X151285156Y-110983691D01*
X151315096Y-110997852D01*
X151343505Y-111014879D01*
X151370108Y-111034609D01*
X151394649Y-111056851D01*
X151416891Y-111081392D01*
X151436621Y-111107995D01*
X151453648Y-111136404D01*
X151467809Y-111166344D01*
X151478967Y-111197529D01*
X151487015Y-111229657D01*
X151491875Y-111262419D01*
X151493500Y-111295500D01*
X151493500Y-111970500D01*
X151491875Y-112003581D01*
X151487015Y-112036343D01*
X151478967Y-112068471D01*
X151467809Y-112099656D01*
X151453648Y-112129596D01*
X151436621Y-112158005D01*
X151416891Y-112184608D01*
X151394649Y-112209149D01*
X151370108Y-112231391D01*
X151343505Y-112251121D01*
X151315096Y-112268148D01*
X151285156Y-112282309D01*
X151253971Y-112293467D01*
X151221843Y-112301515D01*
X151189081Y-112306375D01*
X151156000Y-112308000D01*
X150381000Y-112308000D01*
X150347919Y-112306375D01*
X150315157Y-112301515D01*
X150283029Y-112293467D01*
X150251844Y-112282309D01*
X150221904Y-112268148D01*
X150193495Y-112251121D01*
X150166892Y-112231391D01*
X150142351Y-112209149D01*
X150120109Y-112184608D01*
X150100379Y-112158005D01*
X150083352Y-112129596D01*
X150069191Y-112099656D01*
X150058033Y-112068471D01*
X150049985Y-112036343D01*
X150045125Y-112003581D01*
X150043500Y-111970500D01*
X150043500Y-111295500D01*
X150045125Y-111262419D01*
X150049985Y-111229657D01*
X150058033Y-111197529D01*
X150069191Y-111166344D01*
X150083352Y-111136404D01*
X150100379Y-111107995D01*
X150120109Y-111081392D01*
X150142351Y-111056851D01*
X150166892Y-111034609D01*
X150193495Y-111014879D01*
X150221904Y-110997852D01*
X150251844Y-110983691D01*
X150283029Y-110972533D01*
X150315157Y-110964485D01*
X150347919Y-110959625D01*
X150381000Y-110958000D01*
X151156000Y-110958000D01*
X151189081Y-110959625D01*
X151189081Y-110959625D01*
G37*
D12*
X150768500Y-111633000D03*
D11*
G36*
X152939081Y-110959625D02*
X152971843Y-110964485D01*
X153003971Y-110972533D01*
X153035156Y-110983691D01*
X153065096Y-110997852D01*
X153093505Y-111014879D01*
X153120108Y-111034609D01*
X153144649Y-111056851D01*
X153166891Y-111081392D01*
X153186621Y-111107995D01*
X153203648Y-111136404D01*
X153217809Y-111166344D01*
X153228967Y-111197529D01*
X153237015Y-111229657D01*
X153241875Y-111262419D01*
X153243500Y-111295500D01*
X153243500Y-111970500D01*
X153241875Y-112003581D01*
X153237015Y-112036343D01*
X153228967Y-112068471D01*
X153217809Y-112099656D01*
X153203648Y-112129596D01*
X153186621Y-112158005D01*
X153166891Y-112184608D01*
X153144649Y-112209149D01*
X153120108Y-112231391D01*
X153093505Y-112251121D01*
X153065096Y-112268148D01*
X153035156Y-112282309D01*
X153003971Y-112293467D01*
X152971843Y-112301515D01*
X152939081Y-112306375D01*
X152906000Y-112308000D01*
X152131000Y-112308000D01*
X152097919Y-112306375D01*
X152065157Y-112301515D01*
X152033029Y-112293467D01*
X152001844Y-112282309D01*
X151971904Y-112268148D01*
X151943495Y-112251121D01*
X151916892Y-112231391D01*
X151892351Y-112209149D01*
X151870109Y-112184608D01*
X151850379Y-112158005D01*
X151833352Y-112129596D01*
X151819191Y-112099656D01*
X151808033Y-112068471D01*
X151799985Y-112036343D01*
X151795125Y-112003581D01*
X151793500Y-111970500D01*
X151793500Y-111295500D01*
X151795125Y-111262419D01*
X151799985Y-111229657D01*
X151808033Y-111197529D01*
X151819191Y-111166344D01*
X151833352Y-111136404D01*
X151850379Y-111107995D01*
X151870109Y-111081392D01*
X151892351Y-111056851D01*
X151916892Y-111034609D01*
X151943495Y-111014879D01*
X151971904Y-110997852D01*
X152001844Y-110983691D01*
X152033029Y-110972533D01*
X152065157Y-110964485D01*
X152097919Y-110959625D01*
X152131000Y-110958000D01*
X152906000Y-110958000D01*
X152939081Y-110959625D01*
X152939081Y-110959625D01*
G37*
D12*
X152518500Y-111633000D03*
G04 #@! TD*
D11*
G04 #@! TO.C,R3*
G36*
X170169581Y-70640013D02*
X170202343Y-70644873D01*
X170234471Y-70652921D01*
X170265656Y-70664079D01*
X170295596Y-70678240D01*
X170324005Y-70695267D01*
X170350608Y-70714997D01*
X170375149Y-70737239D01*
X170397391Y-70761780D01*
X170417121Y-70788383D01*
X170434148Y-70816792D01*
X170448309Y-70846732D01*
X170459467Y-70877917D01*
X170467515Y-70910045D01*
X170472375Y-70942807D01*
X170474000Y-70975888D01*
X170474000Y-71750888D01*
X170472375Y-71783969D01*
X170467515Y-71816731D01*
X170459467Y-71848859D01*
X170448309Y-71880044D01*
X170434148Y-71909984D01*
X170417121Y-71938393D01*
X170397391Y-71964996D01*
X170375149Y-71989537D01*
X170350608Y-72011779D01*
X170324005Y-72031509D01*
X170295596Y-72048536D01*
X170265656Y-72062697D01*
X170234471Y-72073855D01*
X170202343Y-72081903D01*
X170169581Y-72086763D01*
X170136500Y-72088388D01*
X169461500Y-72088388D01*
X169428419Y-72086763D01*
X169395657Y-72081903D01*
X169363529Y-72073855D01*
X169332344Y-72062697D01*
X169302404Y-72048536D01*
X169273995Y-72031509D01*
X169247392Y-72011779D01*
X169222851Y-71989537D01*
X169200609Y-71964996D01*
X169180879Y-71938393D01*
X169163852Y-71909984D01*
X169149691Y-71880044D01*
X169138533Y-71848859D01*
X169130485Y-71816731D01*
X169125625Y-71783969D01*
X169124000Y-71750888D01*
X169124000Y-70975888D01*
X169125625Y-70942807D01*
X169130485Y-70910045D01*
X169138533Y-70877917D01*
X169149691Y-70846732D01*
X169163852Y-70816792D01*
X169180879Y-70788383D01*
X169200609Y-70761780D01*
X169222851Y-70737239D01*
X169247392Y-70714997D01*
X169273995Y-70695267D01*
X169302404Y-70678240D01*
X169332344Y-70664079D01*
X169363529Y-70652921D01*
X169395657Y-70644873D01*
X169428419Y-70640013D01*
X169461500Y-70638388D01*
X170136500Y-70638388D01*
X170169581Y-70640013D01*
X170169581Y-70640013D01*
G37*
D12*
X169799000Y-71363388D03*
D11*
G36*
X170169581Y-68890013D02*
X170202343Y-68894873D01*
X170234471Y-68902921D01*
X170265656Y-68914079D01*
X170295596Y-68928240D01*
X170324005Y-68945267D01*
X170350608Y-68964997D01*
X170375149Y-68987239D01*
X170397391Y-69011780D01*
X170417121Y-69038383D01*
X170434148Y-69066792D01*
X170448309Y-69096732D01*
X170459467Y-69127917D01*
X170467515Y-69160045D01*
X170472375Y-69192807D01*
X170474000Y-69225888D01*
X170474000Y-70000888D01*
X170472375Y-70033969D01*
X170467515Y-70066731D01*
X170459467Y-70098859D01*
X170448309Y-70130044D01*
X170434148Y-70159984D01*
X170417121Y-70188393D01*
X170397391Y-70214996D01*
X170375149Y-70239537D01*
X170350608Y-70261779D01*
X170324005Y-70281509D01*
X170295596Y-70298536D01*
X170265656Y-70312697D01*
X170234471Y-70323855D01*
X170202343Y-70331903D01*
X170169581Y-70336763D01*
X170136500Y-70338388D01*
X169461500Y-70338388D01*
X169428419Y-70336763D01*
X169395657Y-70331903D01*
X169363529Y-70323855D01*
X169332344Y-70312697D01*
X169302404Y-70298536D01*
X169273995Y-70281509D01*
X169247392Y-70261779D01*
X169222851Y-70239537D01*
X169200609Y-70214996D01*
X169180879Y-70188393D01*
X169163852Y-70159984D01*
X169149691Y-70130044D01*
X169138533Y-70098859D01*
X169130485Y-70066731D01*
X169125625Y-70033969D01*
X169124000Y-70000888D01*
X169124000Y-69225888D01*
X169125625Y-69192807D01*
X169130485Y-69160045D01*
X169138533Y-69127917D01*
X169149691Y-69096732D01*
X169163852Y-69066792D01*
X169180879Y-69038383D01*
X169200609Y-69011780D01*
X169222851Y-68987239D01*
X169247392Y-68964997D01*
X169273995Y-68945267D01*
X169302404Y-68928240D01*
X169332344Y-68914079D01*
X169363529Y-68902921D01*
X169395657Y-68894873D01*
X169428419Y-68890013D01*
X169461500Y-68888388D01*
X170136500Y-68888388D01*
X170169581Y-68890013D01*
X170169581Y-68890013D01*
G37*
D12*
X169799000Y-69613388D03*
G04 #@! TD*
D11*
G04 #@! TO.C,R4*
G36*
X168044187Y-70640013D02*
X168076949Y-70644873D01*
X168109077Y-70652921D01*
X168140262Y-70664079D01*
X168170202Y-70678240D01*
X168198611Y-70695267D01*
X168225214Y-70714997D01*
X168249755Y-70737239D01*
X168271997Y-70761780D01*
X168291727Y-70788383D01*
X168308754Y-70816792D01*
X168322915Y-70846732D01*
X168334073Y-70877917D01*
X168342121Y-70910045D01*
X168346981Y-70942807D01*
X168348606Y-70975888D01*
X168348606Y-71750888D01*
X168346981Y-71783969D01*
X168342121Y-71816731D01*
X168334073Y-71848859D01*
X168322915Y-71880044D01*
X168308754Y-71909984D01*
X168291727Y-71938393D01*
X168271997Y-71964996D01*
X168249755Y-71989537D01*
X168225214Y-72011779D01*
X168198611Y-72031509D01*
X168170202Y-72048536D01*
X168140262Y-72062697D01*
X168109077Y-72073855D01*
X168076949Y-72081903D01*
X168044187Y-72086763D01*
X168011106Y-72088388D01*
X167336106Y-72088388D01*
X167303025Y-72086763D01*
X167270263Y-72081903D01*
X167238135Y-72073855D01*
X167206950Y-72062697D01*
X167177010Y-72048536D01*
X167148601Y-72031509D01*
X167121998Y-72011779D01*
X167097457Y-71989537D01*
X167075215Y-71964996D01*
X167055485Y-71938393D01*
X167038458Y-71909984D01*
X167024297Y-71880044D01*
X167013139Y-71848859D01*
X167005091Y-71816731D01*
X167000231Y-71783969D01*
X166998606Y-71750888D01*
X166998606Y-70975888D01*
X167000231Y-70942807D01*
X167005091Y-70910045D01*
X167013139Y-70877917D01*
X167024297Y-70846732D01*
X167038458Y-70816792D01*
X167055485Y-70788383D01*
X167075215Y-70761780D01*
X167097457Y-70737239D01*
X167121998Y-70714997D01*
X167148601Y-70695267D01*
X167177010Y-70678240D01*
X167206950Y-70664079D01*
X167238135Y-70652921D01*
X167270263Y-70644873D01*
X167303025Y-70640013D01*
X167336106Y-70638388D01*
X168011106Y-70638388D01*
X168044187Y-70640013D01*
X168044187Y-70640013D01*
G37*
D12*
X167673606Y-71363388D03*
D11*
G36*
X168044187Y-68890013D02*
X168076949Y-68894873D01*
X168109077Y-68902921D01*
X168140262Y-68914079D01*
X168170202Y-68928240D01*
X168198611Y-68945267D01*
X168225214Y-68964997D01*
X168249755Y-68987239D01*
X168271997Y-69011780D01*
X168291727Y-69038383D01*
X168308754Y-69066792D01*
X168322915Y-69096732D01*
X168334073Y-69127917D01*
X168342121Y-69160045D01*
X168346981Y-69192807D01*
X168348606Y-69225888D01*
X168348606Y-70000888D01*
X168346981Y-70033969D01*
X168342121Y-70066731D01*
X168334073Y-70098859D01*
X168322915Y-70130044D01*
X168308754Y-70159984D01*
X168291727Y-70188393D01*
X168271997Y-70214996D01*
X168249755Y-70239537D01*
X168225214Y-70261779D01*
X168198611Y-70281509D01*
X168170202Y-70298536D01*
X168140262Y-70312697D01*
X168109077Y-70323855D01*
X168076949Y-70331903D01*
X168044187Y-70336763D01*
X168011106Y-70338388D01*
X167336106Y-70338388D01*
X167303025Y-70336763D01*
X167270263Y-70331903D01*
X167238135Y-70323855D01*
X167206950Y-70312697D01*
X167177010Y-70298536D01*
X167148601Y-70281509D01*
X167121998Y-70261779D01*
X167097457Y-70239537D01*
X167075215Y-70214996D01*
X167055485Y-70188393D01*
X167038458Y-70159984D01*
X167024297Y-70130044D01*
X167013139Y-70098859D01*
X167005091Y-70066731D01*
X167000231Y-70033969D01*
X166998606Y-70000888D01*
X166998606Y-69225888D01*
X167000231Y-69192807D01*
X167005091Y-69160045D01*
X167013139Y-69127917D01*
X167024297Y-69096732D01*
X167038458Y-69066792D01*
X167055485Y-69038383D01*
X167075215Y-69011780D01*
X167097457Y-68987239D01*
X167121998Y-68964997D01*
X167148601Y-68945267D01*
X167177010Y-68928240D01*
X167206950Y-68914079D01*
X167238135Y-68902921D01*
X167270263Y-68894873D01*
X167303025Y-68890013D01*
X167336106Y-68888388D01*
X168011106Y-68888388D01*
X168044187Y-68890013D01*
X168044187Y-68890013D01*
G37*
D12*
X167673606Y-69613388D03*
G04 #@! TD*
D11*
G04 #@! TO.C,R5*
G36*
X151203081Y-114134625D02*
X151235843Y-114139485D01*
X151267971Y-114147533D01*
X151299156Y-114158691D01*
X151329096Y-114172852D01*
X151357505Y-114189879D01*
X151384108Y-114209609D01*
X151408649Y-114231851D01*
X151430891Y-114256392D01*
X151450621Y-114282995D01*
X151467648Y-114311404D01*
X151481809Y-114341344D01*
X151492967Y-114372529D01*
X151501015Y-114404657D01*
X151505875Y-114437419D01*
X151507500Y-114470500D01*
X151507500Y-115145500D01*
X151505875Y-115178581D01*
X151501015Y-115211343D01*
X151492967Y-115243471D01*
X151481809Y-115274656D01*
X151467648Y-115304596D01*
X151450621Y-115333005D01*
X151430891Y-115359608D01*
X151408649Y-115384149D01*
X151384108Y-115406391D01*
X151357505Y-115426121D01*
X151329096Y-115443148D01*
X151299156Y-115457309D01*
X151267971Y-115468467D01*
X151235843Y-115476515D01*
X151203081Y-115481375D01*
X151170000Y-115483000D01*
X150395000Y-115483000D01*
X150361919Y-115481375D01*
X150329157Y-115476515D01*
X150297029Y-115468467D01*
X150265844Y-115457309D01*
X150235904Y-115443148D01*
X150207495Y-115426121D01*
X150180892Y-115406391D01*
X150156351Y-115384149D01*
X150134109Y-115359608D01*
X150114379Y-115333005D01*
X150097352Y-115304596D01*
X150083191Y-115274656D01*
X150072033Y-115243471D01*
X150063985Y-115211343D01*
X150059125Y-115178581D01*
X150057500Y-115145500D01*
X150057500Y-114470500D01*
X150059125Y-114437419D01*
X150063985Y-114404657D01*
X150072033Y-114372529D01*
X150083191Y-114341344D01*
X150097352Y-114311404D01*
X150114379Y-114282995D01*
X150134109Y-114256392D01*
X150156351Y-114231851D01*
X150180892Y-114209609D01*
X150207495Y-114189879D01*
X150235904Y-114172852D01*
X150265844Y-114158691D01*
X150297029Y-114147533D01*
X150329157Y-114139485D01*
X150361919Y-114134625D01*
X150395000Y-114133000D01*
X151170000Y-114133000D01*
X151203081Y-114134625D01*
X151203081Y-114134625D01*
G37*
D12*
X150782500Y-114808000D03*
D11*
G36*
X152953081Y-114134625D02*
X152985843Y-114139485D01*
X153017971Y-114147533D01*
X153049156Y-114158691D01*
X153079096Y-114172852D01*
X153107505Y-114189879D01*
X153134108Y-114209609D01*
X153158649Y-114231851D01*
X153180891Y-114256392D01*
X153200621Y-114282995D01*
X153217648Y-114311404D01*
X153231809Y-114341344D01*
X153242967Y-114372529D01*
X153251015Y-114404657D01*
X153255875Y-114437419D01*
X153257500Y-114470500D01*
X153257500Y-115145500D01*
X153255875Y-115178581D01*
X153251015Y-115211343D01*
X153242967Y-115243471D01*
X153231809Y-115274656D01*
X153217648Y-115304596D01*
X153200621Y-115333005D01*
X153180891Y-115359608D01*
X153158649Y-115384149D01*
X153134108Y-115406391D01*
X153107505Y-115426121D01*
X153079096Y-115443148D01*
X153049156Y-115457309D01*
X153017971Y-115468467D01*
X152985843Y-115476515D01*
X152953081Y-115481375D01*
X152920000Y-115483000D01*
X152145000Y-115483000D01*
X152111919Y-115481375D01*
X152079157Y-115476515D01*
X152047029Y-115468467D01*
X152015844Y-115457309D01*
X151985904Y-115443148D01*
X151957495Y-115426121D01*
X151930892Y-115406391D01*
X151906351Y-115384149D01*
X151884109Y-115359608D01*
X151864379Y-115333005D01*
X151847352Y-115304596D01*
X151833191Y-115274656D01*
X151822033Y-115243471D01*
X151813985Y-115211343D01*
X151809125Y-115178581D01*
X151807500Y-115145500D01*
X151807500Y-114470500D01*
X151809125Y-114437419D01*
X151813985Y-114404657D01*
X151822033Y-114372529D01*
X151833191Y-114341344D01*
X151847352Y-114311404D01*
X151864379Y-114282995D01*
X151884109Y-114256392D01*
X151906351Y-114231851D01*
X151930892Y-114209609D01*
X151957495Y-114189879D01*
X151985904Y-114172852D01*
X152015844Y-114158691D01*
X152047029Y-114147533D01*
X152079157Y-114139485D01*
X152111919Y-114134625D01*
X152145000Y-114133000D01*
X152920000Y-114133000D01*
X152953081Y-114134625D01*
X152953081Y-114134625D01*
G37*
D12*
X152532500Y-114808000D03*
G04 #@! TD*
D11*
G04 #@! TO.C,R6*
G36*
X151070581Y-118198625D02*
X151103343Y-118203485D01*
X151135471Y-118211533D01*
X151166656Y-118222691D01*
X151196596Y-118236852D01*
X151225005Y-118253879D01*
X151251608Y-118273609D01*
X151276149Y-118295851D01*
X151298391Y-118320392D01*
X151318121Y-118346995D01*
X151335148Y-118375404D01*
X151349309Y-118405344D01*
X151360467Y-118436529D01*
X151368515Y-118468657D01*
X151373375Y-118501419D01*
X151375000Y-118534500D01*
X151375000Y-119209500D01*
X151373375Y-119242581D01*
X151368515Y-119275343D01*
X151360467Y-119307471D01*
X151349309Y-119338656D01*
X151335148Y-119368596D01*
X151318121Y-119397005D01*
X151298391Y-119423608D01*
X151276149Y-119448149D01*
X151251608Y-119470391D01*
X151225005Y-119490121D01*
X151196596Y-119507148D01*
X151166656Y-119521309D01*
X151135471Y-119532467D01*
X151103343Y-119540515D01*
X151070581Y-119545375D01*
X151037500Y-119547000D01*
X150262500Y-119547000D01*
X150229419Y-119545375D01*
X150196657Y-119540515D01*
X150164529Y-119532467D01*
X150133344Y-119521309D01*
X150103404Y-119507148D01*
X150074995Y-119490121D01*
X150048392Y-119470391D01*
X150023851Y-119448149D01*
X150001609Y-119423608D01*
X149981879Y-119397005D01*
X149964852Y-119368596D01*
X149950691Y-119338656D01*
X149939533Y-119307471D01*
X149931485Y-119275343D01*
X149926625Y-119242581D01*
X149925000Y-119209500D01*
X149925000Y-118534500D01*
X149926625Y-118501419D01*
X149931485Y-118468657D01*
X149939533Y-118436529D01*
X149950691Y-118405344D01*
X149964852Y-118375404D01*
X149981879Y-118346995D01*
X150001609Y-118320392D01*
X150023851Y-118295851D01*
X150048392Y-118273609D01*
X150074995Y-118253879D01*
X150103404Y-118236852D01*
X150133344Y-118222691D01*
X150164529Y-118211533D01*
X150196657Y-118203485D01*
X150229419Y-118198625D01*
X150262500Y-118197000D01*
X151037500Y-118197000D01*
X151070581Y-118198625D01*
X151070581Y-118198625D01*
G37*
D12*
X150650000Y-118872000D03*
D11*
G36*
X152820581Y-118198625D02*
X152853343Y-118203485D01*
X152885471Y-118211533D01*
X152916656Y-118222691D01*
X152946596Y-118236852D01*
X152975005Y-118253879D01*
X153001608Y-118273609D01*
X153026149Y-118295851D01*
X153048391Y-118320392D01*
X153068121Y-118346995D01*
X153085148Y-118375404D01*
X153099309Y-118405344D01*
X153110467Y-118436529D01*
X153118515Y-118468657D01*
X153123375Y-118501419D01*
X153125000Y-118534500D01*
X153125000Y-119209500D01*
X153123375Y-119242581D01*
X153118515Y-119275343D01*
X153110467Y-119307471D01*
X153099309Y-119338656D01*
X153085148Y-119368596D01*
X153068121Y-119397005D01*
X153048391Y-119423608D01*
X153026149Y-119448149D01*
X153001608Y-119470391D01*
X152975005Y-119490121D01*
X152946596Y-119507148D01*
X152916656Y-119521309D01*
X152885471Y-119532467D01*
X152853343Y-119540515D01*
X152820581Y-119545375D01*
X152787500Y-119547000D01*
X152012500Y-119547000D01*
X151979419Y-119545375D01*
X151946657Y-119540515D01*
X151914529Y-119532467D01*
X151883344Y-119521309D01*
X151853404Y-119507148D01*
X151824995Y-119490121D01*
X151798392Y-119470391D01*
X151773851Y-119448149D01*
X151751609Y-119423608D01*
X151731879Y-119397005D01*
X151714852Y-119368596D01*
X151700691Y-119338656D01*
X151689533Y-119307471D01*
X151681485Y-119275343D01*
X151676625Y-119242581D01*
X151675000Y-119209500D01*
X151675000Y-118534500D01*
X151676625Y-118501419D01*
X151681485Y-118468657D01*
X151689533Y-118436529D01*
X151700691Y-118405344D01*
X151714852Y-118375404D01*
X151731879Y-118346995D01*
X151751609Y-118320392D01*
X151773851Y-118295851D01*
X151798392Y-118273609D01*
X151824995Y-118253879D01*
X151853404Y-118236852D01*
X151883344Y-118222691D01*
X151914529Y-118211533D01*
X151946657Y-118203485D01*
X151979419Y-118198625D01*
X152012500Y-118197000D01*
X152787500Y-118197000D01*
X152820581Y-118198625D01*
X152820581Y-118198625D01*
G37*
D12*
X152400000Y-118872000D03*
G04 #@! TD*
D11*
G04 #@! TO.C,R7*
G36*
X124245581Y-75272625D02*
X124278343Y-75277485D01*
X124310471Y-75285533D01*
X124341656Y-75296691D01*
X124371596Y-75310852D01*
X124400005Y-75327879D01*
X124426608Y-75347609D01*
X124451149Y-75369851D01*
X124473391Y-75394392D01*
X124493121Y-75420995D01*
X124510148Y-75449404D01*
X124524309Y-75479344D01*
X124535467Y-75510529D01*
X124543515Y-75542657D01*
X124548375Y-75575419D01*
X124550000Y-75608500D01*
X124550000Y-76283500D01*
X124548375Y-76316581D01*
X124543515Y-76349343D01*
X124535467Y-76381471D01*
X124524309Y-76412656D01*
X124510148Y-76442596D01*
X124493121Y-76471005D01*
X124473391Y-76497608D01*
X124451149Y-76522149D01*
X124426608Y-76544391D01*
X124400005Y-76564121D01*
X124371596Y-76581148D01*
X124341656Y-76595309D01*
X124310471Y-76606467D01*
X124278343Y-76614515D01*
X124245581Y-76619375D01*
X124212500Y-76621000D01*
X123437500Y-76621000D01*
X123404419Y-76619375D01*
X123371657Y-76614515D01*
X123339529Y-76606467D01*
X123308344Y-76595309D01*
X123278404Y-76581148D01*
X123249995Y-76564121D01*
X123223392Y-76544391D01*
X123198851Y-76522149D01*
X123176609Y-76497608D01*
X123156879Y-76471005D01*
X123139852Y-76442596D01*
X123125691Y-76412656D01*
X123114533Y-76381471D01*
X123106485Y-76349343D01*
X123101625Y-76316581D01*
X123100000Y-76283500D01*
X123100000Y-75608500D01*
X123101625Y-75575419D01*
X123106485Y-75542657D01*
X123114533Y-75510529D01*
X123125691Y-75479344D01*
X123139852Y-75449404D01*
X123156879Y-75420995D01*
X123176609Y-75394392D01*
X123198851Y-75369851D01*
X123223392Y-75347609D01*
X123249995Y-75327879D01*
X123278404Y-75310852D01*
X123308344Y-75296691D01*
X123339529Y-75285533D01*
X123371657Y-75277485D01*
X123404419Y-75272625D01*
X123437500Y-75271000D01*
X124212500Y-75271000D01*
X124245581Y-75272625D01*
X124245581Y-75272625D01*
G37*
D12*
X123825000Y-75946000D03*
D11*
G36*
X125995581Y-75272625D02*
X126028343Y-75277485D01*
X126060471Y-75285533D01*
X126091656Y-75296691D01*
X126121596Y-75310852D01*
X126150005Y-75327879D01*
X126176608Y-75347609D01*
X126201149Y-75369851D01*
X126223391Y-75394392D01*
X126243121Y-75420995D01*
X126260148Y-75449404D01*
X126274309Y-75479344D01*
X126285467Y-75510529D01*
X126293515Y-75542657D01*
X126298375Y-75575419D01*
X126300000Y-75608500D01*
X126300000Y-76283500D01*
X126298375Y-76316581D01*
X126293515Y-76349343D01*
X126285467Y-76381471D01*
X126274309Y-76412656D01*
X126260148Y-76442596D01*
X126243121Y-76471005D01*
X126223391Y-76497608D01*
X126201149Y-76522149D01*
X126176608Y-76544391D01*
X126150005Y-76564121D01*
X126121596Y-76581148D01*
X126091656Y-76595309D01*
X126060471Y-76606467D01*
X126028343Y-76614515D01*
X125995581Y-76619375D01*
X125962500Y-76621000D01*
X125187500Y-76621000D01*
X125154419Y-76619375D01*
X125121657Y-76614515D01*
X125089529Y-76606467D01*
X125058344Y-76595309D01*
X125028404Y-76581148D01*
X124999995Y-76564121D01*
X124973392Y-76544391D01*
X124948851Y-76522149D01*
X124926609Y-76497608D01*
X124906879Y-76471005D01*
X124889852Y-76442596D01*
X124875691Y-76412656D01*
X124864533Y-76381471D01*
X124856485Y-76349343D01*
X124851625Y-76316581D01*
X124850000Y-76283500D01*
X124850000Y-75608500D01*
X124851625Y-75575419D01*
X124856485Y-75542657D01*
X124864533Y-75510529D01*
X124875691Y-75479344D01*
X124889852Y-75449404D01*
X124906879Y-75420995D01*
X124926609Y-75394392D01*
X124948851Y-75369851D01*
X124973392Y-75347609D01*
X124999995Y-75327879D01*
X125028404Y-75310852D01*
X125058344Y-75296691D01*
X125089529Y-75285533D01*
X125121657Y-75277485D01*
X125154419Y-75272625D01*
X125187500Y-75271000D01*
X125962500Y-75271000D01*
X125995581Y-75272625D01*
X125995581Y-75272625D01*
G37*
D12*
X125575000Y-75946000D03*
G04 #@! TD*
D11*
G04 #@! TO.C,R9*
G36*
X152799336Y-103784485D02*
X152832098Y-103789345D01*
X152864226Y-103797393D01*
X152895411Y-103808551D01*
X152925351Y-103822712D01*
X152953760Y-103839739D01*
X152980363Y-103859469D01*
X153004904Y-103881711D01*
X153027146Y-103906252D01*
X153046876Y-103932855D01*
X153063903Y-103961264D01*
X153078064Y-103991204D01*
X153089222Y-104022389D01*
X153097270Y-104054517D01*
X153102130Y-104087279D01*
X153103755Y-104120360D01*
X153103755Y-104795360D01*
X153102130Y-104828441D01*
X153097270Y-104861203D01*
X153089222Y-104893331D01*
X153078064Y-104924516D01*
X153063903Y-104954456D01*
X153046876Y-104982865D01*
X153027146Y-105009468D01*
X153004904Y-105034009D01*
X152980363Y-105056251D01*
X152953760Y-105075981D01*
X152925351Y-105093008D01*
X152895411Y-105107169D01*
X152864226Y-105118327D01*
X152832098Y-105126375D01*
X152799336Y-105131235D01*
X152766255Y-105132860D01*
X151991255Y-105132860D01*
X151958174Y-105131235D01*
X151925412Y-105126375D01*
X151893284Y-105118327D01*
X151862099Y-105107169D01*
X151832159Y-105093008D01*
X151803750Y-105075981D01*
X151777147Y-105056251D01*
X151752606Y-105034009D01*
X151730364Y-105009468D01*
X151710634Y-104982865D01*
X151693607Y-104954456D01*
X151679446Y-104924516D01*
X151668288Y-104893331D01*
X151660240Y-104861203D01*
X151655380Y-104828441D01*
X151653755Y-104795360D01*
X151653755Y-104120360D01*
X151655380Y-104087279D01*
X151660240Y-104054517D01*
X151668288Y-104022389D01*
X151679446Y-103991204D01*
X151693607Y-103961264D01*
X151710634Y-103932855D01*
X151730364Y-103906252D01*
X151752606Y-103881711D01*
X151777147Y-103859469D01*
X151803750Y-103839739D01*
X151832159Y-103822712D01*
X151862099Y-103808551D01*
X151893284Y-103797393D01*
X151925412Y-103789345D01*
X151958174Y-103784485D01*
X151991255Y-103782860D01*
X152766255Y-103782860D01*
X152799336Y-103784485D01*
X152799336Y-103784485D01*
G37*
D12*
X152378755Y-104457860D03*
D11*
G36*
X151049336Y-103784485D02*
X151082098Y-103789345D01*
X151114226Y-103797393D01*
X151145411Y-103808551D01*
X151175351Y-103822712D01*
X151203760Y-103839739D01*
X151230363Y-103859469D01*
X151254904Y-103881711D01*
X151277146Y-103906252D01*
X151296876Y-103932855D01*
X151313903Y-103961264D01*
X151328064Y-103991204D01*
X151339222Y-104022389D01*
X151347270Y-104054517D01*
X151352130Y-104087279D01*
X151353755Y-104120360D01*
X151353755Y-104795360D01*
X151352130Y-104828441D01*
X151347270Y-104861203D01*
X151339222Y-104893331D01*
X151328064Y-104924516D01*
X151313903Y-104954456D01*
X151296876Y-104982865D01*
X151277146Y-105009468D01*
X151254904Y-105034009D01*
X151230363Y-105056251D01*
X151203760Y-105075981D01*
X151175351Y-105093008D01*
X151145411Y-105107169D01*
X151114226Y-105118327D01*
X151082098Y-105126375D01*
X151049336Y-105131235D01*
X151016255Y-105132860D01*
X150241255Y-105132860D01*
X150208174Y-105131235D01*
X150175412Y-105126375D01*
X150143284Y-105118327D01*
X150112099Y-105107169D01*
X150082159Y-105093008D01*
X150053750Y-105075981D01*
X150027147Y-105056251D01*
X150002606Y-105034009D01*
X149980364Y-105009468D01*
X149960634Y-104982865D01*
X149943607Y-104954456D01*
X149929446Y-104924516D01*
X149918288Y-104893331D01*
X149910240Y-104861203D01*
X149905380Y-104828441D01*
X149903755Y-104795360D01*
X149903755Y-104120360D01*
X149905380Y-104087279D01*
X149910240Y-104054517D01*
X149918288Y-104022389D01*
X149929446Y-103991204D01*
X149943607Y-103961264D01*
X149960634Y-103932855D01*
X149980364Y-103906252D01*
X150002606Y-103881711D01*
X150027147Y-103859469D01*
X150053750Y-103839739D01*
X150082159Y-103822712D01*
X150112099Y-103808551D01*
X150143284Y-103797393D01*
X150175412Y-103789345D01*
X150208174Y-103784485D01*
X150241255Y-103782860D01*
X151016255Y-103782860D01*
X151049336Y-103784485D01*
X151049336Y-103784485D01*
G37*
D12*
X150628755Y-104457860D03*
G04 #@! TD*
D11*
G04 #@! TO.C,R10*
G36*
X152919668Y-107111018D02*
X152952430Y-107115878D01*
X152984558Y-107123926D01*
X153015743Y-107135084D01*
X153045683Y-107149245D01*
X153074092Y-107166272D01*
X153100695Y-107186002D01*
X153125236Y-107208244D01*
X153147478Y-107232785D01*
X153167208Y-107259388D01*
X153184235Y-107287797D01*
X153198396Y-107317737D01*
X153209554Y-107348922D01*
X153217602Y-107381050D01*
X153222462Y-107413812D01*
X153224087Y-107446893D01*
X153224087Y-108121893D01*
X153222462Y-108154974D01*
X153217602Y-108187736D01*
X153209554Y-108219864D01*
X153198396Y-108251049D01*
X153184235Y-108280989D01*
X153167208Y-108309398D01*
X153147478Y-108336001D01*
X153125236Y-108360542D01*
X153100695Y-108382784D01*
X153074092Y-108402514D01*
X153045683Y-108419541D01*
X153015743Y-108433702D01*
X152984558Y-108444860D01*
X152952430Y-108452908D01*
X152919668Y-108457768D01*
X152886587Y-108459393D01*
X152111587Y-108459393D01*
X152078506Y-108457768D01*
X152045744Y-108452908D01*
X152013616Y-108444860D01*
X151982431Y-108433702D01*
X151952491Y-108419541D01*
X151924082Y-108402514D01*
X151897479Y-108382784D01*
X151872938Y-108360542D01*
X151850696Y-108336001D01*
X151830966Y-108309398D01*
X151813939Y-108280989D01*
X151799778Y-108251049D01*
X151788620Y-108219864D01*
X151780572Y-108187736D01*
X151775712Y-108154974D01*
X151774087Y-108121893D01*
X151774087Y-107446893D01*
X151775712Y-107413812D01*
X151780572Y-107381050D01*
X151788620Y-107348922D01*
X151799778Y-107317737D01*
X151813939Y-107287797D01*
X151830966Y-107259388D01*
X151850696Y-107232785D01*
X151872938Y-107208244D01*
X151897479Y-107186002D01*
X151924082Y-107166272D01*
X151952491Y-107149245D01*
X151982431Y-107135084D01*
X152013616Y-107123926D01*
X152045744Y-107115878D01*
X152078506Y-107111018D01*
X152111587Y-107109393D01*
X152886587Y-107109393D01*
X152919668Y-107111018D01*
X152919668Y-107111018D01*
G37*
D12*
X152499087Y-107784393D03*
D11*
G36*
X151169668Y-107111018D02*
X151202430Y-107115878D01*
X151234558Y-107123926D01*
X151265743Y-107135084D01*
X151295683Y-107149245D01*
X151324092Y-107166272D01*
X151350695Y-107186002D01*
X151375236Y-107208244D01*
X151397478Y-107232785D01*
X151417208Y-107259388D01*
X151434235Y-107287797D01*
X151448396Y-107317737D01*
X151459554Y-107348922D01*
X151467602Y-107381050D01*
X151472462Y-107413812D01*
X151474087Y-107446893D01*
X151474087Y-108121893D01*
X151472462Y-108154974D01*
X151467602Y-108187736D01*
X151459554Y-108219864D01*
X151448396Y-108251049D01*
X151434235Y-108280989D01*
X151417208Y-108309398D01*
X151397478Y-108336001D01*
X151375236Y-108360542D01*
X151350695Y-108382784D01*
X151324092Y-108402514D01*
X151295683Y-108419541D01*
X151265743Y-108433702D01*
X151234558Y-108444860D01*
X151202430Y-108452908D01*
X151169668Y-108457768D01*
X151136587Y-108459393D01*
X150361587Y-108459393D01*
X150328506Y-108457768D01*
X150295744Y-108452908D01*
X150263616Y-108444860D01*
X150232431Y-108433702D01*
X150202491Y-108419541D01*
X150174082Y-108402514D01*
X150147479Y-108382784D01*
X150122938Y-108360542D01*
X150100696Y-108336001D01*
X150080966Y-108309398D01*
X150063939Y-108280989D01*
X150049778Y-108251049D01*
X150038620Y-108219864D01*
X150030572Y-108187736D01*
X150025712Y-108154974D01*
X150024087Y-108121893D01*
X150024087Y-107446893D01*
X150025712Y-107413812D01*
X150030572Y-107381050D01*
X150038620Y-107348922D01*
X150049778Y-107317737D01*
X150063939Y-107287797D01*
X150080966Y-107259388D01*
X150100696Y-107232785D01*
X150122938Y-107208244D01*
X150147479Y-107186002D01*
X150174082Y-107166272D01*
X150202491Y-107149245D01*
X150232431Y-107135084D01*
X150263616Y-107123926D01*
X150295744Y-107115878D01*
X150328506Y-107111018D01*
X150361587Y-107109393D01*
X151136587Y-107109393D01*
X151169668Y-107111018D01*
X151169668Y-107111018D01*
G37*
D12*
X150749087Y-107784393D03*
G04 #@! TD*
D18*
G04 #@! TO.C,U1*
X139360601Y-80034401D03*
X136820601Y-80034401D03*
X134280601Y-80034401D03*
X131740601Y-80034401D03*
X129200601Y-80034401D03*
X126660601Y-80034401D03*
X124120601Y-80034401D03*
X121580601Y-80034401D03*
X119040601Y-80034401D03*
X116500601Y-80034401D03*
X139360601Y-82574401D03*
X136820601Y-82574401D03*
X134280601Y-82574401D03*
X131740601Y-82574401D03*
X129200601Y-82574401D03*
X126660601Y-82574401D03*
X124120601Y-82574401D03*
X121580601Y-82574401D03*
X119040601Y-82574401D03*
X116500601Y-82574401D03*
X139360601Y-125754401D03*
X136820601Y-125754401D03*
X134280601Y-125754401D03*
X131740601Y-125754401D03*
X129200601Y-125754401D03*
X126660601Y-125754401D03*
X124120601Y-125754401D03*
X121580601Y-125754401D03*
X119040601Y-125754401D03*
X116500601Y-125754401D03*
X139360601Y-123214401D03*
X136820601Y-123214401D03*
X134280601Y-123214401D03*
X131740601Y-123214401D03*
X129200601Y-123214401D03*
X126660601Y-123214401D03*
X124120601Y-123214401D03*
X121580601Y-123214401D03*
X119040601Y-123214401D03*
X116500601Y-123214401D03*
G04 #@! TD*
D11*
G04 #@! TO.C,D11*
G36*
X155007581Y-121368542D02*
X155040343Y-121373402D01*
X155072471Y-121381450D01*
X155103656Y-121392608D01*
X155133596Y-121406769D01*
X155162005Y-121423796D01*
X155188608Y-121443526D01*
X155213149Y-121465768D01*
X155235391Y-121490309D01*
X155255121Y-121516912D01*
X155272148Y-121545321D01*
X155286309Y-121575261D01*
X155297467Y-121606446D01*
X155305515Y-121638574D01*
X155310375Y-121671336D01*
X155312000Y-121704417D01*
X155312000Y-122379417D01*
X155310375Y-122412498D01*
X155305515Y-122445260D01*
X155297467Y-122477388D01*
X155286309Y-122508573D01*
X155272148Y-122538513D01*
X155255121Y-122566922D01*
X155235391Y-122593525D01*
X155213149Y-122618066D01*
X155188608Y-122640308D01*
X155162005Y-122660038D01*
X155133596Y-122677065D01*
X155103656Y-122691226D01*
X155072471Y-122702384D01*
X155040343Y-122710432D01*
X155007581Y-122715292D01*
X154974500Y-122716917D01*
X154199500Y-122716917D01*
X154166419Y-122715292D01*
X154133657Y-122710432D01*
X154101529Y-122702384D01*
X154070344Y-122691226D01*
X154040404Y-122677065D01*
X154011995Y-122660038D01*
X153985392Y-122640308D01*
X153960851Y-122618066D01*
X153938609Y-122593525D01*
X153918879Y-122566922D01*
X153901852Y-122538513D01*
X153887691Y-122508573D01*
X153876533Y-122477388D01*
X153868485Y-122445260D01*
X153863625Y-122412498D01*
X153862000Y-122379417D01*
X153862000Y-121704417D01*
X153863625Y-121671336D01*
X153868485Y-121638574D01*
X153876533Y-121606446D01*
X153887691Y-121575261D01*
X153901852Y-121545321D01*
X153918879Y-121516912D01*
X153938609Y-121490309D01*
X153960851Y-121465768D01*
X153985392Y-121443526D01*
X154011995Y-121423796D01*
X154040404Y-121406769D01*
X154070344Y-121392608D01*
X154101529Y-121381450D01*
X154133657Y-121373402D01*
X154166419Y-121368542D01*
X154199500Y-121366917D01*
X154974500Y-121366917D01*
X155007581Y-121368542D01*
X155007581Y-121368542D01*
G37*
D12*
X154587000Y-122041917D03*
D11*
G36*
X156757581Y-121368542D02*
X156790343Y-121373402D01*
X156822471Y-121381450D01*
X156853656Y-121392608D01*
X156883596Y-121406769D01*
X156912005Y-121423796D01*
X156938608Y-121443526D01*
X156963149Y-121465768D01*
X156985391Y-121490309D01*
X157005121Y-121516912D01*
X157022148Y-121545321D01*
X157036309Y-121575261D01*
X157047467Y-121606446D01*
X157055515Y-121638574D01*
X157060375Y-121671336D01*
X157062000Y-121704417D01*
X157062000Y-122379417D01*
X157060375Y-122412498D01*
X157055515Y-122445260D01*
X157047467Y-122477388D01*
X157036309Y-122508573D01*
X157022148Y-122538513D01*
X157005121Y-122566922D01*
X156985391Y-122593525D01*
X156963149Y-122618066D01*
X156938608Y-122640308D01*
X156912005Y-122660038D01*
X156883596Y-122677065D01*
X156853656Y-122691226D01*
X156822471Y-122702384D01*
X156790343Y-122710432D01*
X156757581Y-122715292D01*
X156724500Y-122716917D01*
X155949500Y-122716917D01*
X155916419Y-122715292D01*
X155883657Y-122710432D01*
X155851529Y-122702384D01*
X155820344Y-122691226D01*
X155790404Y-122677065D01*
X155761995Y-122660038D01*
X155735392Y-122640308D01*
X155710851Y-122618066D01*
X155688609Y-122593525D01*
X155668879Y-122566922D01*
X155651852Y-122538513D01*
X155637691Y-122508573D01*
X155626533Y-122477388D01*
X155618485Y-122445260D01*
X155613625Y-122412498D01*
X155612000Y-122379417D01*
X155612000Y-121704417D01*
X155613625Y-121671336D01*
X155618485Y-121638574D01*
X155626533Y-121606446D01*
X155637691Y-121575261D01*
X155651852Y-121545321D01*
X155668879Y-121516912D01*
X155688609Y-121490309D01*
X155710851Y-121465768D01*
X155735392Y-121443526D01*
X155761995Y-121423796D01*
X155790404Y-121406769D01*
X155820344Y-121392608D01*
X155851529Y-121381450D01*
X155883657Y-121373402D01*
X155916419Y-121368542D01*
X155949500Y-121366917D01*
X156724500Y-121366917D01*
X156757581Y-121368542D01*
X156757581Y-121368542D01*
G37*
D12*
X156337000Y-122041917D03*
G04 #@! TD*
D11*
G04 #@! TO.C,D12*
G36*
X156757581Y-124421625D02*
X156790343Y-124426485D01*
X156822471Y-124434533D01*
X156853656Y-124445691D01*
X156883596Y-124459852D01*
X156912005Y-124476879D01*
X156938608Y-124496609D01*
X156963149Y-124518851D01*
X156985391Y-124543392D01*
X157005121Y-124569995D01*
X157022148Y-124598404D01*
X157036309Y-124628344D01*
X157047467Y-124659529D01*
X157055515Y-124691657D01*
X157060375Y-124724419D01*
X157062000Y-124757500D01*
X157062000Y-125432500D01*
X157060375Y-125465581D01*
X157055515Y-125498343D01*
X157047467Y-125530471D01*
X157036309Y-125561656D01*
X157022148Y-125591596D01*
X157005121Y-125620005D01*
X156985391Y-125646608D01*
X156963149Y-125671149D01*
X156938608Y-125693391D01*
X156912005Y-125713121D01*
X156883596Y-125730148D01*
X156853656Y-125744309D01*
X156822471Y-125755467D01*
X156790343Y-125763515D01*
X156757581Y-125768375D01*
X156724500Y-125770000D01*
X155949500Y-125770000D01*
X155916419Y-125768375D01*
X155883657Y-125763515D01*
X155851529Y-125755467D01*
X155820344Y-125744309D01*
X155790404Y-125730148D01*
X155761995Y-125713121D01*
X155735392Y-125693391D01*
X155710851Y-125671149D01*
X155688609Y-125646608D01*
X155668879Y-125620005D01*
X155651852Y-125591596D01*
X155637691Y-125561656D01*
X155626533Y-125530471D01*
X155618485Y-125498343D01*
X155613625Y-125465581D01*
X155612000Y-125432500D01*
X155612000Y-124757500D01*
X155613625Y-124724419D01*
X155618485Y-124691657D01*
X155626533Y-124659529D01*
X155637691Y-124628344D01*
X155651852Y-124598404D01*
X155668879Y-124569995D01*
X155688609Y-124543392D01*
X155710851Y-124518851D01*
X155735392Y-124496609D01*
X155761995Y-124476879D01*
X155790404Y-124459852D01*
X155820344Y-124445691D01*
X155851529Y-124434533D01*
X155883657Y-124426485D01*
X155916419Y-124421625D01*
X155949500Y-124420000D01*
X156724500Y-124420000D01*
X156757581Y-124421625D01*
X156757581Y-124421625D01*
G37*
D12*
X156337000Y-125095000D03*
D11*
G36*
X155007581Y-124421625D02*
X155040343Y-124426485D01*
X155072471Y-124434533D01*
X155103656Y-124445691D01*
X155133596Y-124459852D01*
X155162005Y-124476879D01*
X155188608Y-124496609D01*
X155213149Y-124518851D01*
X155235391Y-124543392D01*
X155255121Y-124569995D01*
X155272148Y-124598404D01*
X155286309Y-124628344D01*
X155297467Y-124659529D01*
X155305515Y-124691657D01*
X155310375Y-124724419D01*
X155312000Y-124757500D01*
X155312000Y-125432500D01*
X155310375Y-125465581D01*
X155305515Y-125498343D01*
X155297467Y-125530471D01*
X155286309Y-125561656D01*
X155272148Y-125591596D01*
X155255121Y-125620005D01*
X155235391Y-125646608D01*
X155213149Y-125671149D01*
X155188608Y-125693391D01*
X155162005Y-125713121D01*
X155133596Y-125730148D01*
X155103656Y-125744309D01*
X155072471Y-125755467D01*
X155040343Y-125763515D01*
X155007581Y-125768375D01*
X154974500Y-125770000D01*
X154199500Y-125770000D01*
X154166419Y-125768375D01*
X154133657Y-125763515D01*
X154101529Y-125755467D01*
X154070344Y-125744309D01*
X154040404Y-125730148D01*
X154011995Y-125713121D01*
X153985392Y-125693391D01*
X153960851Y-125671149D01*
X153938609Y-125646608D01*
X153918879Y-125620005D01*
X153901852Y-125591596D01*
X153887691Y-125561656D01*
X153876533Y-125530471D01*
X153868485Y-125498343D01*
X153863625Y-125465581D01*
X153862000Y-125432500D01*
X153862000Y-124757500D01*
X153863625Y-124724419D01*
X153868485Y-124691657D01*
X153876533Y-124659529D01*
X153887691Y-124628344D01*
X153901852Y-124598404D01*
X153918879Y-124569995D01*
X153938609Y-124543392D01*
X153960851Y-124518851D01*
X153985392Y-124496609D01*
X154011995Y-124476879D01*
X154040404Y-124459852D01*
X154070344Y-124445691D01*
X154101529Y-124434533D01*
X154133657Y-124426485D01*
X154166419Y-124421625D01*
X154199500Y-124420000D01*
X154974500Y-124420000D01*
X155007581Y-124421625D01*
X155007581Y-124421625D01*
G37*
D12*
X154587000Y-125095000D03*
G04 #@! TD*
D11*
G04 #@! TO.C,R11*
G36*
X151077683Y-121368542D02*
X151110445Y-121373402D01*
X151142573Y-121381450D01*
X151173758Y-121392608D01*
X151203698Y-121406769D01*
X151232107Y-121423796D01*
X151258710Y-121443526D01*
X151283251Y-121465768D01*
X151305493Y-121490309D01*
X151325223Y-121516912D01*
X151342250Y-121545321D01*
X151356411Y-121575261D01*
X151367569Y-121606446D01*
X151375617Y-121638574D01*
X151380477Y-121671336D01*
X151382102Y-121704417D01*
X151382102Y-122379417D01*
X151380477Y-122412498D01*
X151375617Y-122445260D01*
X151367569Y-122477388D01*
X151356411Y-122508573D01*
X151342250Y-122538513D01*
X151325223Y-122566922D01*
X151305493Y-122593525D01*
X151283251Y-122618066D01*
X151258710Y-122640308D01*
X151232107Y-122660038D01*
X151203698Y-122677065D01*
X151173758Y-122691226D01*
X151142573Y-122702384D01*
X151110445Y-122710432D01*
X151077683Y-122715292D01*
X151044602Y-122716917D01*
X150269602Y-122716917D01*
X150236521Y-122715292D01*
X150203759Y-122710432D01*
X150171631Y-122702384D01*
X150140446Y-122691226D01*
X150110506Y-122677065D01*
X150082097Y-122660038D01*
X150055494Y-122640308D01*
X150030953Y-122618066D01*
X150008711Y-122593525D01*
X149988981Y-122566922D01*
X149971954Y-122538513D01*
X149957793Y-122508573D01*
X149946635Y-122477388D01*
X149938587Y-122445260D01*
X149933727Y-122412498D01*
X149932102Y-122379417D01*
X149932102Y-121704417D01*
X149933727Y-121671336D01*
X149938587Y-121638574D01*
X149946635Y-121606446D01*
X149957793Y-121575261D01*
X149971954Y-121545321D01*
X149988981Y-121516912D01*
X150008711Y-121490309D01*
X150030953Y-121465768D01*
X150055494Y-121443526D01*
X150082097Y-121423796D01*
X150110506Y-121406769D01*
X150140446Y-121392608D01*
X150171631Y-121381450D01*
X150203759Y-121373402D01*
X150236521Y-121368542D01*
X150269602Y-121366917D01*
X151044602Y-121366917D01*
X151077683Y-121368542D01*
X151077683Y-121368542D01*
G37*
D12*
X150657102Y-122041917D03*
D11*
G36*
X152827683Y-121368542D02*
X152860445Y-121373402D01*
X152892573Y-121381450D01*
X152923758Y-121392608D01*
X152953698Y-121406769D01*
X152982107Y-121423796D01*
X153008710Y-121443526D01*
X153033251Y-121465768D01*
X153055493Y-121490309D01*
X153075223Y-121516912D01*
X153092250Y-121545321D01*
X153106411Y-121575261D01*
X153117569Y-121606446D01*
X153125617Y-121638574D01*
X153130477Y-121671336D01*
X153132102Y-121704417D01*
X153132102Y-122379417D01*
X153130477Y-122412498D01*
X153125617Y-122445260D01*
X153117569Y-122477388D01*
X153106411Y-122508573D01*
X153092250Y-122538513D01*
X153075223Y-122566922D01*
X153055493Y-122593525D01*
X153033251Y-122618066D01*
X153008710Y-122640308D01*
X152982107Y-122660038D01*
X152953698Y-122677065D01*
X152923758Y-122691226D01*
X152892573Y-122702384D01*
X152860445Y-122710432D01*
X152827683Y-122715292D01*
X152794602Y-122716917D01*
X152019602Y-122716917D01*
X151986521Y-122715292D01*
X151953759Y-122710432D01*
X151921631Y-122702384D01*
X151890446Y-122691226D01*
X151860506Y-122677065D01*
X151832097Y-122660038D01*
X151805494Y-122640308D01*
X151780953Y-122618066D01*
X151758711Y-122593525D01*
X151738981Y-122566922D01*
X151721954Y-122538513D01*
X151707793Y-122508573D01*
X151696635Y-122477388D01*
X151688587Y-122445260D01*
X151683727Y-122412498D01*
X151682102Y-122379417D01*
X151682102Y-121704417D01*
X151683727Y-121671336D01*
X151688587Y-121638574D01*
X151696635Y-121606446D01*
X151707793Y-121575261D01*
X151721954Y-121545321D01*
X151738981Y-121516912D01*
X151758711Y-121490309D01*
X151780953Y-121465768D01*
X151805494Y-121443526D01*
X151832097Y-121423796D01*
X151860506Y-121406769D01*
X151890446Y-121392608D01*
X151921631Y-121381450D01*
X151953759Y-121373402D01*
X151986521Y-121368542D01*
X152019602Y-121366917D01*
X152794602Y-121366917D01*
X152827683Y-121368542D01*
X152827683Y-121368542D01*
G37*
D12*
X152407102Y-122041917D03*
G04 #@! TD*
D11*
G04 #@! TO.C,R12*
G36*
X152827683Y-124416542D02*
X152860445Y-124421402D01*
X152892573Y-124429450D01*
X152923758Y-124440608D01*
X152953698Y-124454769D01*
X152982107Y-124471796D01*
X153008710Y-124491526D01*
X153033251Y-124513768D01*
X153055493Y-124538309D01*
X153075223Y-124564912D01*
X153092250Y-124593321D01*
X153106411Y-124623261D01*
X153117569Y-124654446D01*
X153125617Y-124686574D01*
X153130477Y-124719336D01*
X153132102Y-124752417D01*
X153132102Y-125427417D01*
X153130477Y-125460498D01*
X153125617Y-125493260D01*
X153117569Y-125525388D01*
X153106411Y-125556573D01*
X153092250Y-125586513D01*
X153075223Y-125614922D01*
X153055493Y-125641525D01*
X153033251Y-125666066D01*
X153008710Y-125688308D01*
X152982107Y-125708038D01*
X152953698Y-125725065D01*
X152923758Y-125739226D01*
X152892573Y-125750384D01*
X152860445Y-125758432D01*
X152827683Y-125763292D01*
X152794602Y-125764917D01*
X152019602Y-125764917D01*
X151986521Y-125763292D01*
X151953759Y-125758432D01*
X151921631Y-125750384D01*
X151890446Y-125739226D01*
X151860506Y-125725065D01*
X151832097Y-125708038D01*
X151805494Y-125688308D01*
X151780953Y-125666066D01*
X151758711Y-125641525D01*
X151738981Y-125614922D01*
X151721954Y-125586513D01*
X151707793Y-125556573D01*
X151696635Y-125525388D01*
X151688587Y-125493260D01*
X151683727Y-125460498D01*
X151682102Y-125427417D01*
X151682102Y-124752417D01*
X151683727Y-124719336D01*
X151688587Y-124686574D01*
X151696635Y-124654446D01*
X151707793Y-124623261D01*
X151721954Y-124593321D01*
X151738981Y-124564912D01*
X151758711Y-124538309D01*
X151780953Y-124513768D01*
X151805494Y-124491526D01*
X151832097Y-124471796D01*
X151860506Y-124454769D01*
X151890446Y-124440608D01*
X151921631Y-124429450D01*
X151953759Y-124421402D01*
X151986521Y-124416542D01*
X152019602Y-124414917D01*
X152794602Y-124414917D01*
X152827683Y-124416542D01*
X152827683Y-124416542D01*
G37*
D12*
X152407102Y-125089917D03*
D11*
G36*
X151077683Y-124416542D02*
X151110445Y-124421402D01*
X151142573Y-124429450D01*
X151173758Y-124440608D01*
X151203698Y-124454769D01*
X151232107Y-124471796D01*
X151258710Y-124491526D01*
X151283251Y-124513768D01*
X151305493Y-124538309D01*
X151325223Y-124564912D01*
X151342250Y-124593321D01*
X151356411Y-124623261D01*
X151367569Y-124654446D01*
X151375617Y-124686574D01*
X151380477Y-124719336D01*
X151382102Y-124752417D01*
X151382102Y-125427417D01*
X151380477Y-125460498D01*
X151375617Y-125493260D01*
X151367569Y-125525388D01*
X151356411Y-125556573D01*
X151342250Y-125586513D01*
X151325223Y-125614922D01*
X151305493Y-125641525D01*
X151283251Y-125666066D01*
X151258710Y-125688308D01*
X151232107Y-125708038D01*
X151203698Y-125725065D01*
X151173758Y-125739226D01*
X151142573Y-125750384D01*
X151110445Y-125758432D01*
X151077683Y-125763292D01*
X151044602Y-125764917D01*
X150269602Y-125764917D01*
X150236521Y-125763292D01*
X150203759Y-125758432D01*
X150171631Y-125750384D01*
X150140446Y-125739226D01*
X150110506Y-125725065D01*
X150082097Y-125708038D01*
X150055494Y-125688308D01*
X150030953Y-125666066D01*
X150008711Y-125641525D01*
X149988981Y-125614922D01*
X149971954Y-125586513D01*
X149957793Y-125556573D01*
X149946635Y-125525388D01*
X149938587Y-125493260D01*
X149933727Y-125460498D01*
X149932102Y-125427417D01*
X149932102Y-124752417D01*
X149933727Y-124719336D01*
X149938587Y-124686574D01*
X149946635Y-124654446D01*
X149957793Y-124623261D01*
X149971954Y-124593321D01*
X149988981Y-124564912D01*
X150008711Y-124538309D01*
X150030953Y-124513768D01*
X150055494Y-124491526D01*
X150082097Y-124471796D01*
X150110506Y-124454769D01*
X150140446Y-124440608D01*
X150171631Y-124429450D01*
X150203759Y-124421402D01*
X150236521Y-124416542D01*
X150269602Y-124414917D01*
X151044602Y-124414917D01*
X151077683Y-124416542D01*
X151077683Y-124416542D01*
G37*
D12*
X150657102Y-125089917D03*
G04 #@! TD*
D14*
G04 #@! TO.C,U3*
X167450101Y-91299363D03*
X169990101Y-91299363D03*
X172530101Y-91299363D03*
G04 #@! TD*
G04 #@! TO.C,U4*
X157861000Y-96520000D03*
X157861000Y-93980000D03*
X157861000Y-91440000D03*
G04 #@! TD*
D19*
G04 #@! TO.C,BT1*
X133858000Y-58166000D03*
X118618000Y-58166000D03*
D20*
X126238000Y-58166000D03*
G04 #@! TD*
D21*
G04 #@! TO.C,C7*
X170220000Y-77597000D03*
D22*
X172720000Y-77597000D03*
G04 #@! TD*
M02*
