%TF.GenerationSoftware,KiCad,Pcbnew,(6.0.1)*%
%TF.CreationDate,2022-11-25T01:31:12-06:00*%
%TF.ProjectId,NavBoard_Hardware,4e617642-6f61-4726-945f-486172647761,rev?*%
%TF.SameCoordinates,Original*%
%TF.FileFunction,Profile,NP*%
%FSLAX46Y46*%
G04 Gerber Fmt 4.6, Leading zero omitted, Abs format (unit mm)*
G04 Created by KiCad (PCBNEW (6.0.1)) date 2022-11-25 01:31:12*
%MOMM*%
%LPD*%
G01*
G04 APERTURE LIST*
%TA.AperFunction,Profile*%
%ADD10C,0.050000*%
%TD*%
G04 APERTURE END LIST*
D10*
X149099999Y-83950001D02*
G75*
G03*
X153300000Y-87100000I4074316J1057422D01*
G01*
X65500000Y-57150000D02*
G75*
G03*
X61300000Y-54000000I-4074312J-1057416D01*
G01*
X157300000Y-58000000D02*
G75*
G03*
X153300000Y-54000000I-4000000J0D01*
G01*
X144500000Y-61550000D02*
G75*
G03*
X148650000Y-58600000I125548J4217450D01*
G01*
X153300000Y-87100000D02*
G75*
G03*
X157300000Y-83100000I0J4000000D01*
G01*
X157300000Y-58000000D02*
X157300000Y-83100000D01*
X144500000Y-79550000D02*
X70100000Y-79550000D01*
X57300000Y-83100000D02*
G75*
G03*
X61300000Y-87100000I4000000J0D01*
G01*
X149099999Y-83950001D02*
X148650000Y-82500001D01*
X65500000Y-57150000D02*
X65950000Y-58600000D01*
X148650000Y-82500001D02*
G75*
G03*
X144500000Y-79550000I-4024450J-1267446D01*
G01*
X148650000Y-58600000D02*
X149100000Y-57150000D01*
X61300000Y-54000000D02*
G75*
G03*
X57300000Y-58000000I0J-4000000D01*
G01*
X70100000Y-79550000D02*
G75*
G03*
X65950000Y-82500001I-125546J-4217452D01*
G01*
X65950000Y-82500001D02*
X65500001Y-83950001D01*
X70100000Y-61550000D02*
X144500000Y-61550000D01*
X153300000Y-54000000D02*
G75*
G03*
X149100000Y-57150000I-125688J-4207416D01*
G01*
X65950000Y-58600000D02*
G75*
G03*
X70100000Y-61550000I4024452J1267450D01*
G01*
X57300000Y-83100000D02*
X57300000Y-58000000D01*
X61300000Y-87100000D02*
G75*
G03*
X65500001Y-83950001I125693J4207411D01*
G01*
M02*
