M48
; DRILL file {KiCad (5.1.10)-1} date 11/15/21 22:54:28
; FORMAT={-:-/ absolute / inch / decimal}
; #@! TF.CreationDate,2021-11-15T22:54:28-06:00
; #@! TF.GenerationSoftware,Kicad,Pcbnew,(5.1.10)-1
; #@! TF.FileFunction,Plated,1,2,PTH
FMAT,2
INCH
T1C0.0157
T2C0.0315
T3C0.0350
T4C0.0354
T5C0.0551
T6C0.0591
T7C0.1598
%
G90
G05
T1
X1.4809Y-2.7245
X1.5Y-2.06
X1.52Y-2.68
X1.54Y-2.09
X2.2Y-2.69
X2.22Y-2.03
X2.25Y-2.22
X2.25Y-2.62
X2.6Y-2.23
X2.64Y-1.76
X2.64Y-2.19
X2.76Y-1.41
X2.776Y-2.479
X2.8241Y-2.7941
X2.8543Y-1.5007
X2.8976Y-1.472
X2.92Y-1.12
X2.93Y-1.27
X2.9843Y-1.5293
X2.9845Y-1.359
X3.03Y-1.24
X3.15Y-1.38
X3.45Y-2.735
X3.5Y-2.75
X3.54Y-2.6
X3.57Y-2.56
X3.6Y-2.64
X3.63Y-2.68
X3.64Y-1.37
X3.65Y-2.75
X3.66Y-1.7
X3.69Y-1.76
X3.72Y-2.0
X3.75Y-1.7314
X3.8Y-1.9743
X3.8Y-2.75
X3.94Y-1.77
X3.95Y-2.75
X3.96Y-2.0
X4.02Y-1.83
X4.036Y-1.974
X4.1Y-2.75
X4.2Y-1.37
X4.25Y-2.32
X4.25Y-2.445
X4.25Y-2.75
X4.26Y-2.375
X4.273Y-2.556
X4.36Y-2.557
X4.4Y-2.61
X4.4Y-2.75
X4.41Y-2.26
X4.43Y-2.5375
X4.504Y-2.392
X4.56Y-1.37
X4.65Y-2.75
X4.79Y-2.23
X4.8Y-2.75
X4.9Y-2.23
X4.92Y-2.57
X4.95Y-2.53
X5.01Y-2.36
T2
X1.7Y-2.2116
X1.7Y-2.31
X2.05Y-2.2116
X2.05Y-2.31
T3
X1.7Y-2.49
X1.8Y-2.49
X1.9Y-2.49
X2.4Y-2.31
X2.5Y-2.31
X2.6Y-2.31
T4
X3.0Y-1.06
X3.0Y-1.16
X3.1Y-1.06
X3.1Y-1.16
X3.2Y-1.06
X3.2Y-1.16
X3.3Y-1.06
X3.3Y-1.16
X3.4Y-1.06
X3.4Y-1.16
X3.5Y-1.06
X3.5Y-1.16
X3.6Y-1.06
X3.6Y-1.16
X3.7Y-1.06
X3.7Y-1.16
X3.8Y-1.06
X3.8Y-1.16
X3.9Y-1.06
X3.9Y-1.16
X4.0Y-1.06
X4.0Y-1.16
X4.1Y-1.06
X4.1Y-1.16
X4.2Y-1.06
X4.2Y-1.16
X4.3Y-1.06
X4.3Y-1.16
X4.4Y-1.06
X4.4Y-1.16
X4.5Y-1.06
X4.5Y-1.16
X4.6Y-1.06
X4.6Y-1.16
X4.7Y-1.06
X4.7Y-1.16
X4.8Y-1.06
X4.8Y-1.16
X4.9Y-1.06
X4.9Y-1.16
T5
X1.21Y-2.92
T6
X1.1096Y-2.8196
X1.1096Y-3.0204
X1.3104Y-2.8196
X1.3104Y-3.0204
T7
X1.351Y-2.0
X1.351Y-2.31
T0
M30
