G04 #@! TF.GenerationSoftware,KiCad,Pcbnew,(5.0.0)*
G04 #@! TF.CreationDate,2018-12-16T15:52:41-06:00*
G04 #@! TF.ProjectId,NavBoard_Hardware,4E6176426F6172645F48617264776172,rev?*
G04 #@! TF.SameCoordinates,Original*
G04 #@! TF.FileFunction,Paste,Top*
G04 #@! TF.FilePolarity,Positive*
%FSLAX46Y46*%
G04 Gerber Fmt 4.6, Leading zero omitted, Abs format (unit mm)*
G04 Created by KiCad (PCBNEW (5.0.0)) date 12/16/18 15:52:41*
%MOMM*%
%LPD*%
G01*
G04 APERTURE LIST*
%ADD10C,5.080000*%
%ADD11C,0.100000*%
%ADD12C,0.950000*%
%ADD13R,2.000000X1.000000*%
%ADD14C,1.520000*%
%ADD15R,2.540000X6.350000*%
%ADD16C,10.160000*%
G04 APERTURE END LIST*
D10*
G04 #@! TO.C,Conn1*
X133629400Y-106427000D03*
X133629400Y-98426000D03*
G04 #@! TD*
D11*
G04 #@! TO.C,C10*
G36*
X168966779Y-87142507D02*
X168989834Y-87145926D01*
X169012443Y-87151590D01*
X169034387Y-87159442D01*
X169055457Y-87169407D01*
X169075448Y-87181389D01*
X169094168Y-87195273D01*
X169111438Y-87210925D01*
X169127090Y-87228195D01*
X169140974Y-87246915D01*
X169152956Y-87266906D01*
X169162921Y-87287976D01*
X169170773Y-87309920D01*
X169176437Y-87332529D01*
X169179856Y-87355584D01*
X169181000Y-87378863D01*
X169181000Y-87853863D01*
X169179856Y-87877142D01*
X169176437Y-87900197D01*
X169170773Y-87922806D01*
X169162921Y-87944750D01*
X169152956Y-87965820D01*
X169140974Y-87985811D01*
X169127090Y-88004531D01*
X169111438Y-88021801D01*
X169094168Y-88037453D01*
X169075448Y-88051337D01*
X169055457Y-88063319D01*
X169034387Y-88073284D01*
X169012443Y-88081136D01*
X168989834Y-88086800D01*
X168966779Y-88090219D01*
X168943500Y-88091363D01*
X168368500Y-88091363D01*
X168345221Y-88090219D01*
X168322166Y-88086800D01*
X168299557Y-88081136D01*
X168277613Y-88073284D01*
X168256543Y-88063319D01*
X168236552Y-88051337D01*
X168217832Y-88037453D01*
X168200562Y-88021801D01*
X168184910Y-88004531D01*
X168171026Y-87985811D01*
X168159044Y-87965820D01*
X168149079Y-87944750D01*
X168141227Y-87922806D01*
X168135563Y-87900197D01*
X168132144Y-87877142D01*
X168131000Y-87853863D01*
X168131000Y-87378863D01*
X168132144Y-87355584D01*
X168135563Y-87332529D01*
X168141227Y-87309920D01*
X168149079Y-87287976D01*
X168159044Y-87266906D01*
X168171026Y-87246915D01*
X168184910Y-87228195D01*
X168200562Y-87210925D01*
X168217832Y-87195273D01*
X168236552Y-87181389D01*
X168256543Y-87169407D01*
X168277613Y-87159442D01*
X168299557Y-87151590D01*
X168322166Y-87145926D01*
X168345221Y-87142507D01*
X168368500Y-87141363D01*
X168943500Y-87141363D01*
X168966779Y-87142507D01*
X168966779Y-87142507D01*
G37*
D12*
X168656000Y-87616363D03*
D11*
G36*
X167216779Y-87142507D02*
X167239834Y-87145926D01*
X167262443Y-87151590D01*
X167284387Y-87159442D01*
X167305457Y-87169407D01*
X167325448Y-87181389D01*
X167344168Y-87195273D01*
X167361438Y-87210925D01*
X167377090Y-87228195D01*
X167390974Y-87246915D01*
X167402956Y-87266906D01*
X167412921Y-87287976D01*
X167420773Y-87309920D01*
X167426437Y-87332529D01*
X167429856Y-87355584D01*
X167431000Y-87378863D01*
X167431000Y-87853863D01*
X167429856Y-87877142D01*
X167426437Y-87900197D01*
X167420773Y-87922806D01*
X167412921Y-87944750D01*
X167402956Y-87965820D01*
X167390974Y-87985811D01*
X167377090Y-88004531D01*
X167361438Y-88021801D01*
X167344168Y-88037453D01*
X167325448Y-88051337D01*
X167305457Y-88063319D01*
X167284387Y-88073284D01*
X167262443Y-88081136D01*
X167239834Y-88086800D01*
X167216779Y-88090219D01*
X167193500Y-88091363D01*
X166618500Y-88091363D01*
X166595221Y-88090219D01*
X166572166Y-88086800D01*
X166549557Y-88081136D01*
X166527613Y-88073284D01*
X166506543Y-88063319D01*
X166486552Y-88051337D01*
X166467832Y-88037453D01*
X166450562Y-88021801D01*
X166434910Y-88004531D01*
X166421026Y-87985811D01*
X166409044Y-87965820D01*
X166399079Y-87944750D01*
X166391227Y-87922806D01*
X166385563Y-87900197D01*
X166382144Y-87877142D01*
X166381000Y-87853863D01*
X166381000Y-87378863D01*
X166382144Y-87355584D01*
X166385563Y-87332529D01*
X166391227Y-87309920D01*
X166399079Y-87287976D01*
X166409044Y-87266906D01*
X166421026Y-87246915D01*
X166434910Y-87228195D01*
X166450562Y-87210925D01*
X166467832Y-87195273D01*
X166486552Y-87181389D01*
X166506543Y-87169407D01*
X166527613Y-87159442D01*
X166549557Y-87151590D01*
X166572166Y-87145926D01*
X166595221Y-87142507D01*
X166618500Y-87141363D01*
X167193500Y-87141363D01*
X167216779Y-87142507D01*
X167216779Y-87142507D01*
G37*
D12*
X166906000Y-87616363D03*
G04 #@! TD*
D11*
G04 #@! TO.C,R8*
G36*
X124135779Y-72551144D02*
X124158834Y-72554563D01*
X124181443Y-72560227D01*
X124203387Y-72568079D01*
X124224457Y-72578044D01*
X124244448Y-72590026D01*
X124263168Y-72603910D01*
X124280438Y-72619562D01*
X124296090Y-72636832D01*
X124309974Y-72655552D01*
X124321956Y-72675543D01*
X124331921Y-72696613D01*
X124339773Y-72718557D01*
X124345437Y-72741166D01*
X124348856Y-72764221D01*
X124350000Y-72787500D01*
X124350000Y-73262500D01*
X124348856Y-73285779D01*
X124345437Y-73308834D01*
X124339773Y-73331443D01*
X124331921Y-73353387D01*
X124321956Y-73374457D01*
X124309974Y-73394448D01*
X124296090Y-73413168D01*
X124280438Y-73430438D01*
X124263168Y-73446090D01*
X124244448Y-73459974D01*
X124224457Y-73471956D01*
X124203387Y-73481921D01*
X124181443Y-73489773D01*
X124158834Y-73495437D01*
X124135779Y-73498856D01*
X124112500Y-73500000D01*
X123537500Y-73500000D01*
X123514221Y-73498856D01*
X123491166Y-73495437D01*
X123468557Y-73489773D01*
X123446613Y-73481921D01*
X123425543Y-73471956D01*
X123405552Y-73459974D01*
X123386832Y-73446090D01*
X123369562Y-73430438D01*
X123353910Y-73413168D01*
X123340026Y-73394448D01*
X123328044Y-73374457D01*
X123318079Y-73353387D01*
X123310227Y-73331443D01*
X123304563Y-73308834D01*
X123301144Y-73285779D01*
X123300000Y-73262500D01*
X123300000Y-72787500D01*
X123301144Y-72764221D01*
X123304563Y-72741166D01*
X123310227Y-72718557D01*
X123318079Y-72696613D01*
X123328044Y-72675543D01*
X123340026Y-72655552D01*
X123353910Y-72636832D01*
X123369562Y-72619562D01*
X123386832Y-72603910D01*
X123405552Y-72590026D01*
X123425543Y-72578044D01*
X123446613Y-72568079D01*
X123468557Y-72560227D01*
X123491166Y-72554563D01*
X123514221Y-72551144D01*
X123537500Y-72550000D01*
X124112500Y-72550000D01*
X124135779Y-72551144D01*
X124135779Y-72551144D01*
G37*
D12*
X123825000Y-73025000D03*
D11*
G36*
X125885779Y-72551144D02*
X125908834Y-72554563D01*
X125931443Y-72560227D01*
X125953387Y-72568079D01*
X125974457Y-72578044D01*
X125994448Y-72590026D01*
X126013168Y-72603910D01*
X126030438Y-72619562D01*
X126046090Y-72636832D01*
X126059974Y-72655552D01*
X126071956Y-72675543D01*
X126081921Y-72696613D01*
X126089773Y-72718557D01*
X126095437Y-72741166D01*
X126098856Y-72764221D01*
X126100000Y-72787500D01*
X126100000Y-73262500D01*
X126098856Y-73285779D01*
X126095437Y-73308834D01*
X126089773Y-73331443D01*
X126081921Y-73353387D01*
X126071956Y-73374457D01*
X126059974Y-73394448D01*
X126046090Y-73413168D01*
X126030438Y-73430438D01*
X126013168Y-73446090D01*
X125994448Y-73459974D01*
X125974457Y-73471956D01*
X125953387Y-73481921D01*
X125931443Y-73489773D01*
X125908834Y-73495437D01*
X125885779Y-73498856D01*
X125862500Y-73500000D01*
X125287500Y-73500000D01*
X125264221Y-73498856D01*
X125241166Y-73495437D01*
X125218557Y-73489773D01*
X125196613Y-73481921D01*
X125175543Y-73471956D01*
X125155552Y-73459974D01*
X125136832Y-73446090D01*
X125119562Y-73430438D01*
X125103910Y-73413168D01*
X125090026Y-73394448D01*
X125078044Y-73374457D01*
X125068079Y-73353387D01*
X125060227Y-73331443D01*
X125054563Y-73308834D01*
X125051144Y-73285779D01*
X125050000Y-73262500D01*
X125050000Y-72787500D01*
X125051144Y-72764221D01*
X125054563Y-72741166D01*
X125060227Y-72718557D01*
X125068079Y-72696613D01*
X125078044Y-72675543D01*
X125090026Y-72655552D01*
X125103910Y-72636832D01*
X125119562Y-72619562D01*
X125136832Y-72603910D01*
X125155552Y-72590026D01*
X125175543Y-72578044D01*
X125196613Y-72568079D01*
X125218557Y-72560227D01*
X125241166Y-72554563D01*
X125264221Y-72551144D01*
X125287500Y-72550000D01*
X125862500Y-72550000D01*
X125885779Y-72551144D01*
X125885779Y-72551144D01*
G37*
D12*
X125575000Y-73025000D03*
G04 #@! TD*
D11*
G04 #@! TO.C,D8*
G36*
X120689016Y-72558333D02*
X120712071Y-72561752D01*
X120734680Y-72567416D01*
X120756624Y-72575268D01*
X120777694Y-72585233D01*
X120797685Y-72597215D01*
X120816405Y-72611099D01*
X120833675Y-72626751D01*
X120849327Y-72644021D01*
X120863211Y-72662741D01*
X120875193Y-72682732D01*
X120885158Y-72703802D01*
X120893010Y-72725746D01*
X120898674Y-72748355D01*
X120902093Y-72771410D01*
X120903237Y-72794689D01*
X120903237Y-73269689D01*
X120902093Y-73292968D01*
X120898674Y-73316023D01*
X120893010Y-73338632D01*
X120885158Y-73360576D01*
X120875193Y-73381646D01*
X120863211Y-73401637D01*
X120849327Y-73420357D01*
X120833675Y-73437627D01*
X120816405Y-73453279D01*
X120797685Y-73467163D01*
X120777694Y-73479145D01*
X120756624Y-73489110D01*
X120734680Y-73496962D01*
X120712071Y-73502626D01*
X120689016Y-73506045D01*
X120665737Y-73507189D01*
X120090737Y-73507189D01*
X120067458Y-73506045D01*
X120044403Y-73502626D01*
X120021794Y-73496962D01*
X119999850Y-73489110D01*
X119978780Y-73479145D01*
X119958789Y-73467163D01*
X119940069Y-73453279D01*
X119922799Y-73437627D01*
X119907147Y-73420357D01*
X119893263Y-73401637D01*
X119881281Y-73381646D01*
X119871316Y-73360576D01*
X119863464Y-73338632D01*
X119857800Y-73316023D01*
X119854381Y-73292968D01*
X119853237Y-73269689D01*
X119853237Y-72794689D01*
X119854381Y-72771410D01*
X119857800Y-72748355D01*
X119863464Y-72725746D01*
X119871316Y-72703802D01*
X119881281Y-72682732D01*
X119893263Y-72662741D01*
X119907147Y-72644021D01*
X119922799Y-72626751D01*
X119940069Y-72611099D01*
X119958789Y-72597215D01*
X119978780Y-72585233D01*
X119999850Y-72575268D01*
X120021794Y-72567416D01*
X120044403Y-72561752D01*
X120067458Y-72558333D01*
X120090737Y-72557189D01*
X120665737Y-72557189D01*
X120689016Y-72558333D01*
X120689016Y-72558333D01*
G37*
D12*
X120378237Y-73032189D03*
D11*
G36*
X122439016Y-72558333D02*
X122462071Y-72561752D01*
X122484680Y-72567416D01*
X122506624Y-72575268D01*
X122527694Y-72585233D01*
X122547685Y-72597215D01*
X122566405Y-72611099D01*
X122583675Y-72626751D01*
X122599327Y-72644021D01*
X122613211Y-72662741D01*
X122625193Y-72682732D01*
X122635158Y-72703802D01*
X122643010Y-72725746D01*
X122648674Y-72748355D01*
X122652093Y-72771410D01*
X122653237Y-72794689D01*
X122653237Y-73269689D01*
X122652093Y-73292968D01*
X122648674Y-73316023D01*
X122643010Y-73338632D01*
X122635158Y-73360576D01*
X122625193Y-73381646D01*
X122613211Y-73401637D01*
X122599327Y-73420357D01*
X122583675Y-73437627D01*
X122566405Y-73453279D01*
X122547685Y-73467163D01*
X122527694Y-73479145D01*
X122506624Y-73489110D01*
X122484680Y-73496962D01*
X122462071Y-73502626D01*
X122439016Y-73506045D01*
X122415737Y-73507189D01*
X121840737Y-73507189D01*
X121817458Y-73506045D01*
X121794403Y-73502626D01*
X121771794Y-73496962D01*
X121749850Y-73489110D01*
X121728780Y-73479145D01*
X121708789Y-73467163D01*
X121690069Y-73453279D01*
X121672799Y-73437627D01*
X121657147Y-73420357D01*
X121643263Y-73401637D01*
X121631281Y-73381646D01*
X121621316Y-73360576D01*
X121613464Y-73338632D01*
X121607800Y-73316023D01*
X121604381Y-73292968D01*
X121603237Y-73269689D01*
X121603237Y-72794689D01*
X121604381Y-72771410D01*
X121607800Y-72748355D01*
X121613464Y-72725746D01*
X121621316Y-72703802D01*
X121631281Y-72682732D01*
X121643263Y-72662741D01*
X121657147Y-72644021D01*
X121672799Y-72626751D01*
X121690069Y-72611099D01*
X121708789Y-72597215D01*
X121728780Y-72585233D01*
X121749850Y-72575268D01*
X121771794Y-72567416D01*
X121794403Y-72561752D01*
X121817458Y-72558333D01*
X121840737Y-72557189D01*
X122415737Y-72557189D01*
X122439016Y-72558333D01*
X122439016Y-72558333D01*
G37*
D12*
X122128237Y-73032189D03*
G04 #@! TD*
D11*
G04 #@! TO.C,C3*
G36*
X143961779Y-71408144D02*
X143984834Y-71411563D01*
X144007443Y-71417227D01*
X144029387Y-71425079D01*
X144050457Y-71435044D01*
X144070448Y-71447026D01*
X144089168Y-71460910D01*
X144106438Y-71476562D01*
X144122090Y-71493832D01*
X144135974Y-71512552D01*
X144147956Y-71532543D01*
X144157921Y-71553613D01*
X144165773Y-71575557D01*
X144171437Y-71598166D01*
X144174856Y-71621221D01*
X144176000Y-71644500D01*
X144176000Y-72119500D01*
X144174856Y-72142779D01*
X144171437Y-72165834D01*
X144165773Y-72188443D01*
X144157921Y-72210387D01*
X144147956Y-72231457D01*
X144135974Y-72251448D01*
X144122090Y-72270168D01*
X144106438Y-72287438D01*
X144089168Y-72303090D01*
X144070448Y-72316974D01*
X144050457Y-72328956D01*
X144029387Y-72338921D01*
X144007443Y-72346773D01*
X143984834Y-72352437D01*
X143961779Y-72355856D01*
X143938500Y-72357000D01*
X143363500Y-72357000D01*
X143340221Y-72355856D01*
X143317166Y-72352437D01*
X143294557Y-72346773D01*
X143272613Y-72338921D01*
X143251543Y-72328956D01*
X143231552Y-72316974D01*
X143212832Y-72303090D01*
X143195562Y-72287438D01*
X143179910Y-72270168D01*
X143166026Y-72251448D01*
X143154044Y-72231457D01*
X143144079Y-72210387D01*
X143136227Y-72188443D01*
X143130563Y-72165834D01*
X143127144Y-72142779D01*
X143126000Y-72119500D01*
X143126000Y-71644500D01*
X143127144Y-71621221D01*
X143130563Y-71598166D01*
X143136227Y-71575557D01*
X143144079Y-71553613D01*
X143154044Y-71532543D01*
X143166026Y-71512552D01*
X143179910Y-71493832D01*
X143195562Y-71476562D01*
X143212832Y-71460910D01*
X143231552Y-71447026D01*
X143251543Y-71435044D01*
X143272613Y-71425079D01*
X143294557Y-71417227D01*
X143317166Y-71411563D01*
X143340221Y-71408144D01*
X143363500Y-71407000D01*
X143938500Y-71407000D01*
X143961779Y-71408144D01*
X143961779Y-71408144D01*
G37*
D12*
X143651000Y-71882000D03*
D11*
G36*
X145711779Y-71408144D02*
X145734834Y-71411563D01*
X145757443Y-71417227D01*
X145779387Y-71425079D01*
X145800457Y-71435044D01*
X145820448Y-71447026D01*
X145839168Y-71460910D01*
X145856438Y-71476562D01*
X145872090Y-71493832D01*
X145885974Y-71512552D01*
X145897956Y-71532543D01*
X145907921Y-71553613D01*
X145915773Y-71575557D01*
X145921437Y-71598166D01*
X145924856Y-71621221D01*
X145926000Y-71644500D01*
X145926000Y-72119500D01*
X145924856Y-72142779D01*
X145921437Y-72165834D01*
X145915773Y-72188443D01*
X145907921Y-72210387D01*
X145897956Y-72231457D01*
X145885974Y-72251448D01*
X145872090Y-72270168D01*
X145856438Y-72287438D01*
X145839168Y-72303090D01*
X145820448Y-72316974D01*
X145800457Y-72328956D01*
X145779387Y-72338921D01*
X145757443Y-72346773D01*
X145734834Y-72352437D01*
X145711779Y-72355856D01*
X145688500Y-72357000D01*
X145113500Y-72357000D01*
X145090221Y-72355856D01*
X145067166Y-72352437D01*
X145044557Y-72346773D01*
X145022613Y-72338921D01*
X145001543Y-72328956D01*
X144981552Y-72316974D01*
X144962832Y-72303090D01*
X144945562Y-72287438D01*
X144929910Y-72270168D01*
X144916026Y-72251448D01*
X144904044Y-72231457D01*
X144894079Y-72210387D01*
X144886227Y-72188443D01*
X144880563Y-72165834D01*
X144877144Y-72142779D01*
X144876000Y-72119500D01*
X144876000Y-71644500D01*
X144877144Y-71621221D01*
X144880563Y-71598166D01*
X144886227Y-71575557D01*
X144894079Y-71553613D01*
X144904044Y-71532543D01*
X144916026Y-71512552D01*
X144929910Y-71493832D01*
X144945562Y-71476562D01*
X144962832Y-71460910D01*
X144981552Y-71447026D01*
X145001543Y-71435044D01*
X145022613Y-71425079D01*
X145044557Y-71417227D01*
X145067166Y-71411563D01*
X145090221Y-71408144D01*
X145113500Y-71407000D01*
X145688500Y-71407000D01*
X145711779Y-71408144D01*
X145711779Y-71408144D01*
G37*
D12*
X145401000Y-71882000D03*
G04 #@! TD*
D13*
G04 #@! TO.C,U5*
X148209000Y-71882000D03*
X148209000Y-73382000D03*
X148209000Y-74882000D03*
X148209000Y-76382000D03*
X148209000Y-77882000D03*
X148209000Y-79382000D03*
X148209000Y-80882000D03*
X148209000Y-82382000D03*
X148209000Y-83882000D03*
X148209000Y-85382000D03*
X164374634Y-85611608D03*
X164374634Y-84111608D03*
X164374634Y-82611608D03*
X164374634Y-81111608D03*
X164374634Y-79611608D03*
X164374634Y-78111608D03*
X164374634Y-76611608D03*
X164374634Y-75111608D03*
X164374634Y-73611608D03*
X164374634Y-72111608D03*
G04 #@! TD*
D11*
G04 #@! TO.C,C4*
G36*
X145711779Y-73440144D02*
X145734834Y-73443563D01*
X145757443Y-73449227D01*
X145779387Y-73457079D01*
X145800457Y-73467044D01*
X145820448Y-73479026D01*
X145839168Y-73492910D01*
X145856438Y-73508562D01*
X145872090Y-73525832D01*
X145885974Y-73544552D01*
X145897956Y-73564543D01*
X145907921Y-73585613D01*
X145915773Y-73607557D01*
X145921437Y-73630166D01*
X145924856Y-73653221D01*
X145926000Y-73676500D01*
X145926000Y-74151500D01*
X145924856Y-74174779D01*
X145921437Y-74197834D01*
X145915773Y-74220443D01*
X145907921Y-74242387D01*
X145897956Y-74263457D01*
X145885974Y-74283448D01*
X145872090Y-74302168D01*
X145856438Y-74319438D01*
X145839168Y-74335090D01*
X145820448Y-74348974D01*
X145800457Y-74360956D01*
X145779387Y-74370921D01*
X145757443Y-74378773D01*
X145734834Y-74384437D01*
X145711779Y-74387856D01*
X145688500Y-74389000D01*
X145113500Y-74389000D01*
X145090221Y-74387856D01*
X145067166Y-74384437D01*
X145044557Y-74378773D01*
X145022613Y-74370921D01*
X145001543Y-74360956D01*
X144981552Y-74348974D01*
X144962832Y-74335090D01*
X144945562Y-74319438D01*
X144929910Y-74302168D01*
X144916026Y-74283448D01*
X144904044Y-74263457D01*
X144894079Y-74242387D01*
X144886227Y-74220443D01*
X144880563Y-74197834D01*
X144877144Y-74174779D01*
X144876000Y-74151500D01*
X144876000Y-73676500D01*
X144877144Y-73653221D01*
X144880563Y-73630166D01*
X144886227Y-73607557D01*
X144894079Y-73585613D01*
X144904044Y-73564543D01*
X144916026Y-73544552D01*
X144929910Y-73525832D01*
X144945562Y-73508562D01*
X144962832Y-73492910D01*
X144981552Y-73479026D01*
X145001543Y-73467044D01*
X145022613Y-73457079D01*
X145044557Y-73449227D01*
X145067166Y-73443563D01*
X145090221Y-73440144D01*
X145113500Y-73439000D01*
X145688500Y-73439000D01*
X145711779Y-73440144D01*
X145711779Y-73440144D01*
G37*
D12*
X145401000Y-73914000D03*
D11*
G36*
X143961779Y-73440144D02*
X143984834Y-73443563D01*
X144007443Y-73449227D01*
X144029387Y-73457079D01*
X144050457Y-73467044D01*
X144070448Y-73479026D01*
X144089168Y-73492910D01*
X144106438Y-73508562D01*
X144122090Y-73525832D01*
X144135974Y-73544552D01*
X144147956Y-73564543D01*
X144157921Y-73585613D01*
X144165773Y-73607557D01*
X144171437Y-73630166D01*
X144174856Y-73653221D01*
X144176000Y-73676500D01*
X144176000Y-74151500D01*
X144174856Y-74174779D01*
X144171437Y-74197834D01*
X144165773Y-74220443D01*
X144157921Y-74242387D01*
X144147956Y-74263457D01*
X144135974Y-74283448D01*
X144122090Y-74302168D01*
X144106438Y-74319438D01*
X144089168Y-74335090D01*
X144070448Y-74348974D01*
X144050457Y-74360956D01*
X144029387Y-74370921D01*
X144007443Y-74378773D01*
X143984834Y-74384437D01*
X143961779Y-74387856D01*
X143938500Y-74389000D01*
X143363500Y-74389000D01*
X143340221Y-74387856D01*
X143317166Y-74384437D01*
X143294557Y-74378773D01*
X143272613Y-74370921D01*
X143251543Y-74360956D01*
X143231552Y-74348974D01*
X143212832Y-74335090D01*
X143195562Y-74319438D01*
X143179910Y-74302168D01*
X143166026Y-74283448D01*
X143154044Y-74263457D01*
X143144079Y-74242387D01*
X143136227Y-74220443D01*
X143130563Y-74197834D01*
X143127144Y-74174779D01*
X143126000Y-74151500D01*
X143126000Y-73676500D01*
X143127144Y-73653221D01*
X143130563Y-73630166D01*
X143136227Y-73607557D01*
X143144079Y-73585613D01*
X143154044Y-73564543D01*
X143166026Y-73544552D01*
X143179910Y-73525832D01*
X143195562Y-73508562D01*
X143212832Y-73492910D01*
X143231552Y-73479026D01*
X143251543Y-73467044D01*
X143272613Y-73457079D01*
X143294557Y-73449227D01*
X143317166Y-73443563D01*
X143340221Y-73440144D01*
X143363500Y-73439000D01*
X143938500Y-73439000D01*
X143961779Y-73440144D01*
X143961779Y-73440144D01*
G37*
D12*
X143651000Y-73914000D03*
G04 #@! TD*
D11*
G04 #@! TO.C,C5*
G36*
X117940779Y-65058144D02*
X117963834Y-65061563D01*
X117986443Y-65067227D01*
X118008387Y-65075079D01*
X118029457Y-65085044D01*
X118049448Y-65097026D01*
X118068168Y-65110910D01*
X118085438Y-65126562D01*
X118101090Y-65143832D01*
X118114974Y-65162552D01*
X118126956Y-65182543D01*
X118136921Y-65203613D01*
X118144773Y-65225557D01*
X118150437Y-65248166D01*
X118153856Y-65271221D01*
X118155000Y-65294500D01*
X118155000Y-65769500D01*
X118153856Y-65792779D01*
X118150437Y-65815834D01*
X118144773Y-65838443D01*
X118136921Y-65860387D01*
X118126956Y-65881457D01*
X118114974Y-65901448D01*
X118101090Y-65920168D01*
X118085438Y-65937438D01*
X118068168Y-65953090D01*
X118049448Y-65966974D01*
X118029457Y-65978956D01*
X118008387Y-65988921D01*
X117986443Y-65996773D01*
X117963834Y-66002437D01*
X117940779Y-66005856D01*
X117917500Y-66007000D01*
X117342500Y-66007000D01*
X117319221Y-66005856D01*
X117296166Y-66002437D01*
X117273557Y-65996773D01*
X117251613Y-65988921D01*
X117230543Y-65978956D01*
X117210552Y-65966974D01*
X117191832Y-65953090D01*
X117174562Y-65937438D01*
X117158910Y-65920168D01*
X117145026Y-65901448D01*
X117133044Y-65881457D01*
X117123079Y-65860387D01*
X117115227Y-65838443D01*
X117109563Y-65815834D01*
X117106144Y-65792779D01*
X117105000Y-65769500D01*
X117105000Y-65294500D01*
X117106144Y-65271221D01*
X117109563Y-65248166D01*
X117115227Y-65225557D01*
X117123079Y-65203613D01*
X117133044Y-65182543D01*
X117145026Y-65162552D01*
X117158910Y-65143832D01*
X117174562Y-65126562D01*
X117191832Y-65110910D01*
X117210552Y-65097026D01*
X117230543Y-65085044D01*
X117251613Y-65075079D01*
X117273557Y-65067227D01*
X117296166Y-65061563D01*
X117319221Y-65058144D01*
X117342500Y-65057000D01*
X117917500Y-65057000D01*
X117940779Y-65058144D01*
X117940779Y-65058144D01*
G37*
D12*
X117630000Y-65532000D03*
D11*
G36*
X119690779Y-65058144D02*
X119713834Y-65061563D01*
X119736443Y-65067227D01*
X119758387Y-65075079D01*
X119779457Y-65085044D01*
X119799448Y-65097026D01*
X119818168Y-65110910D01*
X119835438Y-65126562D01*
X119851090Y-65143832D01*
X119864974Y-65162552D01*
X119876956Y-65182543D01*
X119886921Y-65203613D01*
X119894773Y-65225557D01*
X119900437Y-65248166D01*
X119903856Y-65271221D01*
X119905000Y-65294500D01*
X119905000Y-65769500D01*
X119903856Y-65792779D01*
X119900437Y-65815834D01*
X119894773Y-65838443D01*
X119886921Y-65860387D01*
X119876956Y-65881457D01*
X119864974Y-65901448D01*
X119851090Y-65920168D01*
X119835438Y-65937438D01*
X119818168Y-65953090D01*
X119799448Y-65966974D01*
X119779457Y-65978956D01*
X119758387Y-65988921D01*
X119736443Y-65996773D01*
X119713834Y-66002437D01*
X119690779Y-66005856D01*
X119667500Y-66007000D01*
X119092500Y-66007000D01*
X119069221Y-66005856D01*
X119046166Y-66002437D01*
X119023557Y-65996773D01*
X119001613Y-65988921D01*
X118980543Y-65978956D01*
X118960552Y-65966974D01*
X118941832Y-65953090D01*
X118924562Y-65937438D01*
X118908910Y-65920168D01*
X118895026Y-65901448D01*
X118883044Y-65881457D01*
X118873079Y-65860387D01*
X118865227Y-65838443D01*
X118859563Y-65815834D01*
X118856144Y-65792779D01*
X118855000Y-65769500D01*
X118855000Y-65294500D01*
X118856144Y-65271221D01*
X118859563Y-65248166D01*
X118865227Y-65225557D01*
X118873079Y-65203613D01*
X118883044Y-65182543D01*
X118895026Y-65162552D01*
X118908910Y-65143832D01*
X118924562Y-65126562D01*
X118941832Y-65110910D01*
X118960552Y-65097026D01*
X118980543Y-65085044D01*
X119001613Y-65075079D01*
X119023557Y-65067227D01*
X119046166Y-65061563D01*
X119069221Y-65058144D01*
X119092500Y-65057000D01*
X119667500Y-65057000D01*
X119690779Y-65058144D01*
X119690779Y-65058144D01*
G37*
D12*
X119380000Y-65532000D03*
G04 #@! TD*
D11*
G04 #@! TO.C,C8*
G36*
X162008262Y-90916144D02*
X162031317Y-90919563D01*
X162053926Y-90925227D01*
X162075870Y-90933079D01*
X162096940Y-90943044D01*
X162116931Y-90955026D01*
X162135651Y-90968910D01*
X162152921Y-90984562D01*
X162168573Y-91001832D01*
X162182457Y-91020552D01*
X162194439Y-91040543D01*
X162204404Y-91061613D01*
X162212256Y-91083557D01*
X162217920Y-91106166D01*
X162221339Y-91129221D01*
X162222483Y-91152500D01*
X162222483Y-91727500D01*
X162221339Y-91750779D01*
X162217920Y-91773834D01*
X162212256Y-91796443D01*
X162204404Y-91818387D01*
X162194439Y-91839457D01*
X162182457Y-91859448D01*
X162168573Y-91878168D01*
X162152921Y-91895438D01*
X162135651Y-91911090D01*
X162116931Y-91924974D01*
X162096940Y-91936956D01*
X162075870Y-91946921D01*
X162053926Y-91954773D01*
X162031317Y-91960437D01*
X162008262Y-91963856D01*
X161984983Y-91965000D01*
X161509983Y-91965000D01*
X161486704Y-91963856D01*
X161463649Y-91960437D01*
X161441040Y-91954773D01*
X161419096Y-91946921D01*
X161398026Y-91936956D01*
X161378035Y-91924974D01*
X161359315Y-91911090D01*
X161342045Y-91895438D01*
X161326393Y-91878168D01*
X161312509Y-91859448D01*
X161300527Y-91839457D01*
X161290562Y-91818387D01*
X161282710Y-91796443D01*
X161277046Y-91773834D01*
X161273627Y-91750779D01*
X161272483Y-91727500D01*
X161272483Y-91152500D01*
X161273627Y-91129221D01*
X161277046Y-91106166D01*
X161282710Y-91083557D01*
X161290562Y-91061613D01*
X161300527Y-91040543D01*
X161312509Y-91020552D01*
X161326393Y-91001832D01*
X161342045Y-90984562D01*
X161359315Y-90968910D01*
X161378035Y-90955026D01*
X161398026Y-90943044D01*
X161419096Y-90933079D01*
X161441040Y-90925227D01*
X161463649Y-90919563D01*
X161486704Y-90916144D01*
X161509983Y-90915000D01*
X161984983Y-90915000D01*
X162008262Y-90916144D01*
X162008262Y-90916144D01*
G37*
D12*
X161747483Y-91440000D03*
D11*
G36*
X162008262Y-92666144D02*
X162031317Y-92669563D01*
X162053926Y-92675227D01*
X162075870Y-92683079D01*
X162096940Y-92693044D01*
X162116931Y-92705026D01*
X162135651Y-92718910D01*
X162152921Y-92734562D01*
X162168573Y-92751832D01*
X162182457Y-92770552D01*
X162194439Y-92790543D01*
X162204404Y-92811613D01*
X162212256Y-92833557D01*
X162217920Y-92856166D01*
X162221339Y-92879221D01*
X162222483Y-92902500D01*
X162222483Y-93477500D01*
X162221339Y-93500779D01*
X162217920Y-93523834D01*
X162212256Y-93546443D01*
X162204404Y-93568387D01*
X162194439Y-93589457D01*
X162182457Y-93609448D01*
X162168573Y-93628168D01*
X162152921Y-93645438D01*
X162135651Y-93661090D01*
X162116931Y-93674974D01*
X162096940Y-93686956D01*
X162075870Y-93696921D01*
X162053926Y-93704773D01*
X162031317Y-93710437D01*
X162008262Y-93713856D01*
X161984983Y-93715000D01*
X161509983Y-93715000D01*
X161486704Y-93713856D01*
X161463649Y-93710437D01*
X161441040Y-93704773D01*
X161419096Y-93696921D01*
X161398026Y-93686956D01*
X161378035Y-93674974D01*
X161359315Y-93661090D01*
X161342045Y-93645438D01*
X161326393Y-93628168D01*
X161312509Y-93609448D01*
X161300527Y-93589457D01*
X161290562Y-93568387D01*
X161282710Y-93546443D01*
X161277046Y-93523834D01*
X161273627Y-93500779D01*
X161272483Y-93477500D01*
X161272483Y-92902500D01*
X161273627Y-92879221D01*
X161277046Y-92856166D01*
X161282710Y-92833557D01*
X161290562Y-92811613D01*
X161300527Y-92790543D01*
X161312509Y-92770552D01*
X161326393Y-92751832D01*
X161342045Y-92734562D01*
X161359315Y-92718910D01*
X161378035Y-92705026D01*
X161398026Y-92693044D01*
X161419096Y-92683079D01*
X161441040Y-92675227D01*
X161463649Y-92669563D01*
X161486704Y-92666144D01*
X161509983Y-92665000D01*
X161984983Y-92665000D01*
X162008262Y-92666144D01*
X162008262Y-92666144D01*
G37*
D12*
X161747483Y-93190000D03*
G04 #@! TD*
D11*
G04 #@! TO.C,C9*
G36*
X173030779Y-87142507D02*
X173053834Y-87145926D01*
X173076443Y-87151590D01*
X173098387Y-87159442D01*
X173119457Y-87169407D01*
X173139448Y-87181389D01*
X173158168Y-87195273D01*
X173175438Y-87210925D01*
X173191090Y-87228195D01*
X173204974Y-87246915D01*
X173216956Y-87266906D01*
X173226921Y-87287976D01*
X173234773Y-87309920D01*
X173240437Y-87332529D01*
X173243856Y-87355584D01*
X173245000Y-87378863D01*
X173245000Y-87853863D01*
X173243856Y-87877142D01*
X173240437Y-87900197D01*
X173234773Y-87922806D01*
X173226921Y-87944750D01*
X173216956Y-87965820D01*
X173204974Y-87985811D01*
X173191090Y-88004531D01*
X173175438Y-88021801D01*
X173158168Y-88037453D01*
X173139448Y-88051337D01*
X173119457Y-88063319D01*
X173098387Y-88073284D01*
X173076443Y-88081136D01*
X173053834Y-88086800D01*
X173030779Y-88090219D01*
X173007500Y-88091363D01*
X172432500Y-88091363D01*
X172409221Y-88090219D01*
X172386166Y-88086800D01*
X172363557Y-88081136D01*
X172341613Y-88073284D01*
X172320543Y-88063319D01*
X172300552Y-88051337D01*
X172281832Y-88037453D01*
X172264562Y-88021801D01*
X172248910Y-88004531D01*
X172235026Y-87985811D01*
X172223044Y-87965820D01*
X172213079Y-87944750D01*
X172205227Y-87922806D01*
X172199563Y-87900197D01*
X172196144Y-87877142D01*
X172195000Y-87853863D01*
X172195000Y-87378863D01*
X172196144Y-87355584D01*
X172199563Y-87332529D01*
X172205227Y-87309920D01*
X172213079Y-87287976D01*
X172223044Y-87266906D01*
X172235026Y-87246915D01*
X172248910Y-87228195D01*
X172264562Y-87210925D01*
X172281832Y-87195273D01*
X172300552Y-87181389D01*
X172320543Y-87169407D01*
X172341613Y-87159442D01*
X172363557Y-87151590D01*
X172386166Y-87145926D01*
X172409221Y-87142507D01*
X172432500Y-87141363D01*
X173007500Y-87141363D01*
X173030779Y-87142507D01*
X173030779Y-87142507D01*
G37*
D12*
X172720000Y-87616363D03*
D11*
G36*
X171280779Y-87142507D02*
X171303834Y-87145926D01*
X171326443Y-87151590D01*
X171348387Y-87159442D01*
X171369457Y-87169407D01*
X171389448Y-87181389D01*
X171408168Y-87195273D01*
X171425438Y-87210925D01*
X171441090Y-87228195D01*
X171454974Y-87246915D01*
X171466956Y-87266906D01*
X171476921Y-87287976D01*
X171484773Y-87309920D01*
X171490437Y-87332529D01*
X171493856Y-87355584D01*
X171495000Y-87378863D01*
X171495000Y-87853863D01*
X171493856Y-87877142D01*
X171490437Y-87900197D01*
X171484773Y-87922806D01*
X171476921Y-87944750D01*
X171466956Y-87965820D01*
X171454974Y-87985811D01*
X171441090Y-88004531D01*
X171425438Y-88021801D01*
X171408168Y-88037453D01*
X171389448Y-88051337D01*
X171369457Y-88063319D01*
X171348387Y-88073284D01*
X171326443Y-88081136D01*
X171303834Y-88086800D01*
X171280779Y-88090219D01*
X171257500Y-88091363D01*
X170682500Y-88091363D01*
X170659221Y-88090219D01*
X170636166Y-88086800D01*
X170613557Y-88081136D01*
X170591613Y-88073284D01*
X170570543Y-88063319D01*
X170550552Y-88051337D01*
X170531832Y-88037453D01*
X170514562Y-88021801D01*
X170498910Y-88004531D01*
X170485026Y-87985811D01*
X170473044Y-87965820D01*
X170463079Y-87944750D01*
X170455227Y-87922806D01*
X170449563Y-87900197D01*
X170446144Y-87877142D01*
X170445000Y-87853863D01*
X170445000Y-87378863D01*
X170446144Y-87355584D01*
X170449563Y-87332529D01*
X170455227Y-87309920D01*
X170463079Y-87287976D01*
X170473044Y-87266906D01*
X170485026Y-87246915D01*
X170498910Y-87228195D01*
X170514562Y-87210925D01*
X170531832Y-87195273D01*
X170550552Y-87181389D01*
X170570543Y-87169407D01*
X170591613Y-87159442D01*
X170613557Y-87151590D01*
X170636166Y-87145926D01*
X170659221Y-87142507D01*
X170682500Y-87141363D01*
X171257500Y-87141363D01*
X171280779Y-87142507D01*
X171280779Y-87142507D01*
G37*
D12*
X170970000Y-87616363D03*
G04 #@! TD*
D11*
G04 #@! TO.C,C11*
G36*
X162008262Y-94754144D02*
X162031317Y-94757563D01*
X162053926Y-94763227D01*
X162075870Y-94771079D01*
X162096940Y-94781044D01*
X162116931Y-94793026D01*
X162135651Y-94806910D01*
X162152921Y-94822562D01*
X162168573Y-94839832D01*
X162182457Y-94858552D01*
X162194439Y-94878543D01*
X162204404Y-94899613D01*
X162212256Y-94921557D01*
X162217920Y-94944166D01*
X162221339Y-94967221D01*
X162222483Y-94990500D01*
X162222483Y-95565500D01*
X162221339Y-95588779D01*
X162217920Y-95611834D01*
X162212256Y-95634443D01*
X162204404Y-95656387D01*
X162194439Y-95677457D01*
X162182457Y-95697448D01*
X162168573Y-95716168D01*
X162152921Y-95733438D01*
X162135651Y-95749090D01*
X162116931Y-95762974D01*
X162096940Y-95774956D01*
X162075870Y-95784921D01*
X162053926Y-95792773D01*
X162031317Y-95798437D01*
X162008262Y-95801856D01*
X161984983Y-95803000D01*
X161509983Y-95803000D01*
X161486704Y-95801856D01*
X161463649Y-95798437D01*
X161441040Y-95792773D01*
X161419096Y-95784921D01*
X161398026Y-95774956D01*
X161378035Y-95762974D01*
X161359315Y-95749090D01*
X161342045Y-95733438D01*
X161326393Y-95716168D01*
X161312509Y-95697448D01*
X161300527Y-95677457D01*
X161290562Y-95656387D01*
X161282710Y-95634443D01*
X161277046Y-95611834D01*
X161273627Y-95588779D01*
X161272483Y-95565500D01*
X161272483Y-94990500D01*
X161273627Y-94967221D01*
X161277046Y-94944166D01*
X161282710Y-94921557D01*
X161290562Y-94899613D01*
X161300527Y-94878543D01*
X161312509Y-94858552D01*
X161326393Y-94839832D01*
X161342045Y-94822562D01*
X161359315Y-94806910D01*
X161378035Y-94793026D01*
X161398026Y-94781044D01*
X161419096Y-94771079D01*
X161441040Y-94763227D01*
X161463649Y-94757563D01*
X161486704Y-94754144D01*
X161509983Y-94753000D01*
X161984983Y-94753000D01*
X162008262Y-94754144D01*
X162008262Y-94754144D01*
G37*
D12*
X161747483Y-95278000D03*
D11*
G36*
X162008262Y-96504144D02*
X162031317Y-96507563D01*
X162053926Y-96513227D01*
X162075870Y-96521079D01*
X162096940Y-96531044D01*
X162116931Y-96543026D01*
X162135651Y-96556910D01*
X162152921Y-96572562D01*
X162168573Y-96589832D01*
X162182457Y-96608552D01*
X162194439Y-96628543D01*
X162204404Y-96649613D01*
X162212256Y-96671557D01*
X162217920Y-96694166D01*
X162221339Y-96717221D01*
X162222483Y-96740500D01*
X162222483Y-97315500D01*
X162221339Y-97338779D01*
X162217920Y-97361834D01*
X162212256Y-97384443D01*
X162204404Y-97406387D01*
X162194439Y-97427457D01*
X162182457Y-97447448D01*
X162168573Y-97466168D01*
X162152921Y-97483438D01*
X162135651Y-97499090D01*
X162116931Y-97512974D01*
X162096940Y-97524956D01*
X162075870Y-97534921D01*
X162053926Y-97542773D01*
X162031317Y-97548437D01*
X162008262Y-97551856D01*
X161984983Y-97553000D01*
X161509983Y-97553000D01*
X161486704Y-97551856D01*
X161463649Y-97548437D01*
X161441040Y-97542773D01*
X161419096Y-97534921D01*
X161398026Y-97524956D01*
X161378035Y-97512974D01*
X161359315Y-97499090D01*
X161342045Y-97483438D01*
X161326393Y-97466168D01*
X161312509Y-97447448D01*
X161300527Y-97427457D01*
X161290562Y-97406387D01*
X161282710Y-97384443D01*
X161277046Y-97361834D01*
X161273627Y-97338779D01*
X161272483Y-97315500D01*
X161272483Y-96740500D01*
X161273627Y-96717221D01*
X161277046Y-96694166D01*
X161282710Y-96671557D01*
X161290562Y-96649613D01*
X161300527Y-96628543D01*
X161312509Y-96608552D01*
X161326393Y-96589832D01*
X161342045Y-96572562D01*
X161359315Y-96556910D01*
X161378035Y-96543026D01*
X161398026Y-96531044D01*
X161419096Y-96521079D01*
X161441040Y-96513227D01*
X161463649Y-96507563D01*
X161486704Y-96504144D01*
X161509983Y-96503000D01*
X161984983Y-96503000D01*
X162008262Y-96504144D01*
X162008262Y-96504144D01*
G37*
D12*
X161747483Y-97028000D03*
G04 #@! TD*
D11*
G04 #@! TO.C,D1*
G36*
X143961779Y-79409144D02*
X143984834Y-79412563D01*
X144007443Y-79418227D01*
X144029387Y-79426079D01*
X144050457Y-79436044D01*
X144070448Y-79448026D01*
X144089168Y-79461910D01*
X144106438Y-79477562D01*
X144122090Y-79494832D01*
X144135974Y-79513552D01*
X144147956Y-79533543D01*
X144157921Y-79554613D01*
X144165773Y-79576557D01*
X144171437Y-79599166D01*
X144174856Y-79622221D01*
X144176000Y-79645500D01*
X144176000Y-80120500D01*
X144174856Y-80143779D01*
X144171437Y-80166834D01*
X144165773Y-80189443D01*
X144157921Y-80211387D01*
X144147956Y-80232457D01*
X144135974Y-80252448D01*
X144122090Y-80271168D01*
X144106438Y-80288438D01*
X144089168Y-80304090D01*
X144070448Y-80317974D01*
X144050457Y-80329956D01*
X144029387Y-80339921D01*
X144007443Y-80347773D01*
X143984834Y-80353437D01*
X143961779Y-80356856D01*
X143938500Y-80358000D01*
X143363500Y-80358000D01*
X143340221Y-80356856D01*
X143317166Y-80353437D01*
X143294557Y-80347773D01*
X143272613Y-80339921D01*
X143251543Y-80329956D01*
X143231552Y-80317974D01*
X143212832Y-80304090D01*
X143195562Y-80288438D01*
X143179910Y-80271168D01*
X143166026Y-80252448D01*
X143154044Y-80232457D01*
X143144079Y-80211387D01*
X143136227Y-80189443D01*
X143130563Y-80166834D01*
X143127144Y-80143779D01*
X143126000Y-80120500D01*
X143126000Y-79645500D01*
X143127144Y-79622221D01*
X143130563Y-79599166D01*
X143136227Y-79576557D01*
X143144079Y-79554613D01*
X143154044Y-79533543D01*
X143166026Y-79513552D01*
X143179910Y-79494832D01*
X143195562Y-79477562D01*
X143212832Y-79461910D01*
X143231552Y-79448026D01*
X143251543Y-79436044D01*
X143272613Y-79426079D01*
X143294557Y-79418227D01*
X143317166Y-79412563D01*
X143340221Y-79409144D01*
X143363500Y-79408000D01*
X143938500Y-79408000D01*
X143961779Y-79409144D01*
X143961779Y-79409144D01*
G37*
D12*
X143651000Y-79883000D03*
D11*
G36*
X145711779Y-79409144D02*
X145734834Y-79412563D01*
X145757443Y-79418227D01*
X145779387Y-79426079D01*
X145800457Y-79436044D01*
X145820448Y-79448026D01*
X145839168Y-79461910D01*
X145856438Y-79477562D01*
X145872090Y-79494832D01*
X145885974Y-79513552D01*
X145897956Y-79533543D01*
X145907921Y-79554613D01*
X145915773Y-79576557D01*
X145921437Y-79599166D01*
X145924856Y-79622221D01*
X145926000Y-79645500D01*
X145926000Y-80120500D01*
X145924856Y-80143779D01*
X145921437Y-80166834D01*
X145915773Y-80189443D01*
X145907921Y-80211387D01*
X145897956Y-80232457D01*
X145885974Y-80252448D01*
X145872090Y-80271168D01*
X145856438Y-80288438D01*
X145839168Y-80304090D01*
X145820448Y-80317974D01*
X145800457Y-80329956D01*
X145779387Y-80339921D01*
X145757443Y-80347773D01*
X145734834Y-80353437D01*
X145711779Y-80356856D01*
X145688500Y-80358000D01*
X145113500Y-80358000D01*
X145090221Y-80356856D01*
X145067166Y-80353437D01*
X145044557Y-80347773D01*
X145022613Y-80339921D01*
X145001543Y-80329956D01*
X144981552Y-80317974D01*
X144962832Y-80304090D01*
X144945562Y-80288438D01*
X144929910Y-80271168D01*
X144916026Y-80252448D01*
X144904044Y-80232457D01*
X144894079Y-80211387D01*
X144886227Y-80189443D01*
X144880563Y-80166834D01*
X144877144Y-80143779D01*
X144876000Y-80120500D01*
X144876000Y-79645500D01*
X144877144Y-79622221D01*
X144880563Y-79599166D01*
X144886227Y-79576557D01*
X144894079Y-79554613D01*
X144904044Y-79533543D01*
X144916026Y-79513552D01*
X144929910Y-79494832D01*
X144945562Y-79477562D01*
X144962832Y-79461910D01*
X144981552Y-79448026D01*
X145001543Y-79436044D01*
X145022613Y-79426079D01*
X145044557Y-79418227D01*
X145067166Y-79412563D01*
X145090221Y-79409144D01*
X145113500Y-79408000D01*
X145688500Y-79408000D01*
X145711779Y-79409144D01*
X145711779Y-79409144D01*
G37*
D12*
X145401000Y-79883000D03*
G04 #@! TD*
D11*
G04 #@! TO.C,D2*
G36*
X156647779Y-111150644D02*
X156670834Y-111154063D01*
X156693443Y-111159727D01*
X156715387Y-111167579D01*
X156736457Y-111177544D01*
X156756448Y-111189526D01*
X156775168Y-111203410D01*
X156792438Y-111219062D01*
X156808090Y-111236332D01*
X156821974Y-111255052D01*
X156833956Y-111275043D01*
X156843921Y-111296113D01*
X156851773Y-111318057D01*
X156857437Y-111340666D01*
X156860856Y-111363721D01*
X156862000Y-111387000D01*
X156862000Y-111862000D01*
X156860856Y-111885279D01*
X156857437Y-111908334D01*
X156851773Y-111930943D01*
X156843921Y-111952887D01*
X156833956Y-111973957D01*
X156821974Y-111993948D01*
X156808090Y-112012668D01*
X156792438Y-112029938D01*
X156775168Y-112045590D01*
X156756448Y-112059474D01*
X156736457Y-112071456D01*
X156715387Y-112081421D01*
X156693443Y-112089273D01*
X156670834Y-112094937D01*
X156647779Y-112098356D01*
X156624500Y-112099500D01*
X156049500Y-112099500D01*
X156026221Y-112098356D01*
X156003166Y-112094937D01*
X155980557Y-112089273D01*
X155958613Y-112081421D01*
X155937543Y-112071456D01*
X155917552Y-112059474D01*
X155898832Y-112045590D01*
X155881562Y-112029938D01*
X155865910Y-112012668D01*
X155852026Y-111993948D01*
X155840044Y-111973957D01*
X155830079Y-111952887D01*
X155822227Y-111930943D01*
X155816563Y-111908334D01*
X155813144Y-111885279D01*
X155812000Y-111862000D01*
X155812000Y-111387000D01*
X155813144Y-111363721D01*
X155816563Y-111340666D01*
X155822227Y-111318057D01*
X155830079Y-111296113D01*
X155840044Y-111275043D01*
X155852026Y-111255052D01*
X155865910Y-111236332D01*
X155881562Y-111219062D01*
X155898832Y-111203410D01*
X155917552Y-111189526D01*
X155937543Y-111177544D01*
X155958613Y-111167579D01*
X155980557Y-111159727D01*
X156003166Y-111154063D01*
X156026221Y-111150644D01*
X156049500Y-111149500D01*
X156624500Y-111149500D01*
X156647779Y-111150644D01*
X156647779Y-111150644D01*
G37*
D12*
X156337000Y-111624500D03*
D11*
G36*
X154897779Y-111150644D02*
X154920834Y-111154063D01*
X154943443Y-111159727D01*
X154965387Y-111167579D01*
X154986457Y-111177544D01*
X155006448Y-111189526D01*
X155025168Y-111203410D01*
X155042438Y-111219062D01*
X155058090Y-111236332D01*
X155071974Y-111255052D01*
X155083956Y-111275043D01*
X155093921Y-111296113D01*
X155101773Y-111318057D01*
X155107437Y-111340666D01*
X155110856Y-111363721D01*
X155112000Y-111387000D01*
X155112000Y-111862000D01*
X155110856Y-111885279D01*
X155107437Y-111908334D01*
X155101773Y-111930943D01*
X155093921Y-111952887D01*
X155083956Y-111973957D01*
X155071974Y-111993948D01*
X155058090Y-112012668D01*
X155042438Y-112029938D01*
X155025168Y-112045590D01*
X155006448Y-112059474D01*
X154986457Y-112071456D01*
X154965387Y-112081421D01*
X154943443Y-112089273D01*
X154920834Y-112094937D01*
X154897779Y-112098356D01*
X154874500Y-112099500D01*
X154299500Y-112099500D01*
X154276221Y-112098356D01*
X154253166Y-112094937D01*
X154230557Y-112089273D01*
X154208613Y-112081421D01*
X154187543Y-112071456D01*
X154167552Y-112059474D01*
X154148832Y-112045590D01*
X154131562Y-112029938D01*
X154115910Y-112012668D01*
X154102026Y-111993948D01*
X154090044Y-111973957D01*
X154080079Y-111952887D01*
X154072227Y-111930943D01*
X154066563Y-111908334D01*
X154063144Y-111885279D01*
X154062000Y-111862000D01*
X154062000Y-111387000D01*
X154063144Y-111363721D01*
X154066563Y-111340666D01*
X154072227Y-111318057D01*
X154080079Y-111296113D01*
X154090044Y-111275043D01*
X154102026Y-111255052D01*
X154115910Y-111236332D01*
X154131562Y-111219062D01*
X154148832Y-111203410D01*
X154167552Y-111189526D01*
X154187543Y-111177544D01*
X154208613Y-111167579D01*
X154230557Y-111159727D01*
X154253166Y-111154063D01*
X154276221Y-111150644D01*
X154299500Y-111149500D01*
X154874500Y-111149500D01*
X154897779Y-111150644D01*
X154897779Y-111150644D01*
G37*
D12*
X154587000Y-111624500D03*
G04 #@! TD*
D11*
G04 #@! TO.C,D5*
G36*
X154897779Y-114334144D02*
X154920834Y-114337563D01*
X154943443Y-114343227D01*
X154965387Y-114351079D01*
X154986457Y-114361044D01*
X155006448Y-114373026D01*
X155025168Y-114386910D01*
X155042438Y-114402562D01*
X155058090Y-114419832D01*
X155071974Y-114438552D01*
X155083956Y-114458543D01*
X155093921Y-114479613D01*
X155101773Y-114501557D01*
X155107437Y-114524166D01*
X155110856Y-114547221D01*
X155112000Y-114570500D01*
X155112000Y-115045500D01*
X155110856Y-115068779D01*
X155107437Y-115091834D01*
X155101773Y-115114443D01*
X155093921Y-115136387D01*
X155083956Y-115157457D01*
X155071974Y-115177448D01*
X155058090Y-115196168D01*
X155042438Y-115213438D01*
X155025168Y-115229090D01*
X155006448Y-115242974D01*
X154986457Y-115254956D01*
X154965387Y-115264921D01*
X154943443Y-115272773D01*
X154920834Y-115278437D01*
X154897779Y-115281856D01*
X154874500Y-115283000D01*
X154299500Y-115283000D01*
X154276221Y-115281856D01*
X154253166Y-115278437D01*
X154230557Y-115272773D01*
X154208613Y-115264921D01*
X154187543Y-115254956D01*
X154167552Y-115242974D01*
X154148832Y-115229090D01*
X154131562Y-115213438D01*
X154115910Y-115196168D01*
X154102026Y-115177448D01*
X154090044Y-115157457D01*
X154080079Y-115136387D01*
X154072227Y-115114443D01*
X154066563Y-115091834D01*
X154063144Y-115068779D01*
X154062000Y-115045500D01*
X154062000Y-114570500D01*
X154063144Y-114547221D01*
X154066563Y-114524166D01*
X154072227Y-114501557D01*
X154080079Y-114479613D01*
X154090044Y-114458543D01*
X154102026Y-114438552D01*
X154115910Y-114419832D01*
X154131562Y-114402562D01*
X154148832Y-114386910D01*
X154167552Y-114373026D01*
X154187543Y-114361044D01*
X154208613Y-114351079D01*
X154230557Y-114343227D01*
X154253166Y-114337563D01*
X154276221Y-114334144D01*
X154299500Y-114333000D01*
X154874500Y-114333000D01*
X154897779Y-114334144D01*
X154897779Y-114334144D01*
G37*
D12*
X154587000Y-114808000D03*
D11*
G36*
X156647779Y-114334144D02*
X156670834Y-114337563D01*
X156693443Y-114343227D01*
X156715387Y-114351079D01*
X156736457Y-114361044D01*
X156756448Y-114373026D01*
X156775168Y-114386910D01*
X156792438Y-114402562D01*
X156808090Y-114419832D01*
X156821974Y-114438552D01*
X156833956Y-114458543D01*
X156843921Y-114479613D01*
X156851773Y-114501557D01*
X156857437Y-114524166D01*
X156860856Y-114547221D01*
X156862000Y-114570500D01*
X156862000Y-115045500D01*
X156860856Y-115068779D01*
X156857437Y-115091834D01*
X156851773Y-115114443D01*
X156843921Y-115136387D01*
X156833956Y-115157457D01*
X156821974Y-115177448D01*
X156808090Y-115196168D01*
X156792438Y-115213438D01*
X156775168Y-115229090D01*
X156756448Y-115242974D01*
X156736457Y-115254956D01*
X156715387Y-115264921D01*
X156693443Y-115272773D01*
X156670834Y-115278437D01*
X156647779Y-115281856D01*
X156624500Y-115283000D01*
X156049500Y-115283000D01*
X156026221Y-115281856D01*
X156003166Y-115278437D01*
X155980557Y-115272773D01*
X155958613Y-115264921D01*
X155937543Y-115254956D01*
X155917552Y-115242974D01*
X155898832Y-115229090D01*
X155881562Y-115213438D01*
X155865910Y-115196168D01*
X155852026Y-115177448D01*
X155840044Y-115157457D01*
X155830079Y-115136387D01*
X155822227Y-115114443D01*
X155816563Y-115091834D01*
X155813144Y-115068779D01*
X155812000Y-115045500D01*
X155812000Y-114570500D01*
X155813144Y-114547221D01*
X155816563Y-114524166D01*
X155822227Y-114501557D01*
X155830079Y-114479613D01*
X155840044Y-114458543D01*
X155852026Y-114438552D01*
X155865910Y-114419832D01*
X155881562Y-114402562D01*
X155898832Y-114386910D01*
X155917552Y-114373026D01*
X155937543Y-114361044D01*
X155958613Y-114351079D01*
X155980557Y-114343227D01*
X156003166Y-114337563D01*
X156026221Y-114334144D01*
X156049500Y-114333000D01*
X156624500Y-114333000D01*
X156647779Y-114334144D01*
X156647779Y-114334144D01*
G37*
D12*
X156337000Y-114808000D03*
G04 #@! TD*
D11*
G04 #@! TO.C,D6*
G36*
X154883779Y-118398144D02*
X154906834Y-118401563D01*
X154929443Y-118407227D01*
X154951387Y-118415079D01*
X154972457Y-118425044D01*
X154992448Y-118437026D01*
X155011168Y-118450910D01*
X155028438Y-118466562D01*
X155044090Y-118483832D01*
X155057974Y-118502552D01*
X155069956Y-118522543D01*
X155079921Y-118543613D01*
X155087773Y-118565557D01*
X155093437Y-118588166D01*
X155096856Y-118611221D01*
X155098000Y-118634500D01*
X155098000Y-119109500D01*
X155096856Y-119132779D01*
X155093437Y-119155834D01*
X155087773Y-119178443D01*
X155079921Y-119200387D01*
X155069956Y-119221457D01*
X155057974Y-119241448D01*
X155044090Y-119260168D01*
X155028438Y-119277438D01*
X155011168Y-119293090D01*
X154992448Y-119306974D01*
X154972457Y-119318956D01*
X154951387Y-119328921D01*
X154929443Y-119336773D01*
X154906834Y-119342437D01*
X154883779Y-119345856D01*
X154860500Y-119347000D01*
X154285500Y-119347000D01*
X154262221Y-119345856D01*
X154239166Y-119342437D01*
X154216557Y-119336773D01*
X154194613Y-119328921D01*
X154173543Y-119318956D01*
X154153552Y-119306974D01*
X154134832Y-119293090D01*
X154117562Y-119277438D01*
X154101910Y-119260168D01*
X154088026Y-119241448D01*
X154076044Y-119221457D01*
X154066079Y-119200387D01*
X154058227Y-119178443D01*
X154052563Y-119155834D01*
X154049144Y-119132779D01*
X154048000Y-119109500D01*
X154048000Y-118634500D01*
X154049144Y-118611221D01*
X154052563Y-118588166D01*
X154058227Y-118565557D01*
X154066079Y-118543613D01*
X154076044Y-118522543D01*
X154088026Y-118502552D01*
X154101910Y-118483832D01*
X154117562Y-118466562D01*
X154134832Y-118450910D01*
X154153552Y-118437026D01*
X154173543Y-118425044D01*
X154194613Y-118415079D01*
X154216557Y-118407227D01*
X154239166Y-118401563D01*
X154262221Y-118398144D01*
X154285500Y-118397000D01*
X154860500Y-118397000D01*
X154883779Y-118398144D01*
X154883779Y-118398144D01*
G37*
D12*
X154573000Y-118872000D03*
D11*
G36*
X156633779Y-118398144D02*
X156656834Y-118401563D01*
X156679443Y-118407227D01*
X156701387Y-118415079D01*
X156722457Y-118425044D01*
X156742448Y-118437026D01*
X156761168Y-118450910D01*
X156778438Y-118466562D01*
X156794090Y-118483832D01*
X156807974Y-118502552D01*
X156819956Y-118522543D01*
X156829921Y-118543613D01*
X156837773Y-118565557D01*
X156843437Y-118588166D01*
X156846856Y-118611221D01*
X156848000Y-118634500D01*
X156848000Y-119109500D01*
X156846856Y-119132779D01*
X156843437Y-119155834D01*
X156837773Y-119178443D01*
X156829921Y-119200387D01*
X156819956Y-119221457D01*
X156807974Y-119241448D01*
X156794090Y-119260168D01*
X156778438Y-119277438D01*
X156761168Y-119293090D01*
X156742448Y-119306974D01*
X156722457Y-119318956D01*
X156701387Y-119328921D01*
X156679443Y-119336773D01*
X156656834Y-119342437D01*
X156633779Y-119345856D01*
X156610500Y-119347000D01*
X156035500Y-119347000D01*
X156012221Y-119345856D01*
X155989166Y-119342437D01*
X155966557Y-119336773D01*
X155944613Y-119328921D01*
X155923543Y-119318956D01*
X155903552Y-119306974D01*
X155884832Y-119293090D01*
X155867562Y-119277438D01*
X155851910Y-119260168D01*
X155838026Y-119241448D01*
X155826044Y-119221457D01*
X155816079Y-119200387D01*
X155808227Y-119178443D01*
X155802563Y-119155834D01*
X155799144Y-119132779D01*
X155798000Y-119109500D01*
X155798000Y-118634500D01*
X155799144Y-118611221D01*
X155802563Y-118588166D01*
X155808227Y-118565557D01*
X155816079Y-118543613D01*
X155826044Y-118522543D01*
X155838026Y-118502552D01*
X155851910Y-118483832D01*
X155867562Y-118466562D01*
X155884832Y-118450910D01*
X155903552Y-118437026D01*
X155923543Y-118425044D01*
X155944613Y-118415079D01*
X155966557Y-118407227D01*
X155989166Y-118401563D01*
X156012221Y-118398144D01*
X156035500Y-118397000D01*
X156610500Y-118397000D01*
X156633779Y-118398144D01*
X156633779Y-118398144D01*
G37*
D12*
X156323000Y-118872000D03*
G04 #@! TD*
D11*
G04 #@! TO.C,D7*
G36*
X122484779Y-75472144D02*
X122507834Y-75475563D01*
X122530443Y-75481227D01*
X122552387Y-75489079D01*
X122573457Y-75499044D01*
X122593448Y-75511026D01*
X122612168Y-75524910D01*
X122629438Y-75540562D01*
X122645090Y-75557832D01*
X122658974Y-75576552D01*
X122670956Y-75596543D01*
X122680921Y-75617613D01*
X122688773Y-75639557D01*
X122694437Y-75662166D01*
X122697856Y-75685221D01*
X122699000Y-75708500D01*
X122699000Y-76183500D01*
X122697856Y-76206779D01*
X122694437Y-76229834D01*
X122688773Y-76252443D01*
X122680921Y-76274387D01*
X122670956Y-76295457D01*
X122658974Y-76315448D01*
X122645090Y-76334168D01*
X122629438Y-76351438D01*
X122612168Y-76367090D01*
X122593448Y-76380974D01*
X122573457Y-76392956D01*
X122552387Y-76402921D01*
X122530443Y-76410773D01*
X122507834Y-76416437D01*
X122484779Y-76419856D01*
X122461500Y-76421000D01*
X121886500Y-76421000D01*
X121863221Y-76419856D01*
X121840166Y-76416437D01*
X121817557Y-76410773D01*
X121795613Y-76402921D01*
X121774543Y-76392956D01*
X121754552Y-76380974D01*
X121735832Y-76367090D01*
X121718562Y-76351438D01*
X121702910Y-76334168D01*
X121689026Y-76315448D01*
X121677044Y-76295457D01*
X121667079Y-76274387D01*
X121659227Y-76252443D01*
X121653563Y-76229834D01*
X121650144Y-76206779D01*
X121649000Y-76183500D01*
X121649000Y-75708500D01*
X121650144Y-75685221D01*
X121653563Y-75662166D01*
X121659227Y-75639557D01*
X121667079Y-75617613D01*
X121677044Y-75596543D01*
X121689026Y-75576552D01*
X121702910Y-75557832D01*
X121718562Y-75540562D01*
X121735832Y-75524910D01*
X121754552Y-75511026D01*
X121774543Y-75499044D01*
X121795613Y-75489079D01*
X121817557Y-75481227D01*
X121840166Y-75475563D01*
X121863221Y-75472144D01*
X121886500Y-75471000D01*
X122461500Y-75471000D01*
X122484779Y-75472144D01*
X122484779Y-75472144D01*
G37*
D12*
X122174000Y-75946000D03*
D11*
G36*
X120734779Y-75472144D02*
X120757834Y-75475563D01*
X120780443Y-75481227D01*
X120802387Y-75489079D01*
X120823457Y-75499044D01*
X120843448Y-75511026D01*
X120862168Y-75524910D01*
X120879438Y-75540562D01*
X120895090Y-75557832D01*
X120908974Y-75576552D01*
X120920956Y-75596543D01*
X120930921Y-75617613D01*
X120938773Y-75639557D01*
X120944437Y-75662166D01*
X120947856Y-75685221D01*
X120949000Y-75708500D01*
X120949000Y-76183500D01*
X120947856Y-76206779D01*
X120944437Y-76229834D01*
X120938773Y-76252443D01*
X120930921Y-76274387D01*
X120920956Y-76295457D01*
X120908974Y-76315448D01*
X120895090Y-76334168D01*
X120879438Y-76351438D01*
X120862168Y-76367090D01*
X120843448Y-76380974D01*
X120823457Y-76392956D01*
X120802387Y-76402921D01*
X120780443Y-76410773D01*
X120757834Y-76416437D01*
X120734779Y-76419856D01*
X120711500Y-76421000D01*
X120136500Y-76421000D01*
X120113221Y-76419856D01*
X120090166Y-76416437D01*
X120067557Y-76410773D01*
X120045613Y-76402921D01*
X120024543Y-76392956D01*
X120004552Y-76380974D01*
X119985832Y-76367090D01*
X119968562Y-76351438D01*
X119952910Y-76334168D01*
X119939026Y-76315448D01*
X119927044Y-76295457D01*
X119917079Y-76274387D01*
X119909227Y-76252443D01*
X119903563Y-76229834D01*
X119900144Y-76206779D01*
X119899000Y-76183500D01*
X119899000Y-75708500D01*
X119900144Y-75685221D01*
X119903563Y-75662166D01*
X119909227Y-75639557D01*
X119917079Y-75617613D01*
X119927044Y-75596543D01*
X119939026Y-75576552D01*
X119952910Y-75557832D01*
X119968562Y-75540562D01*
X119985832Y-75524910D01*
X120004552Y-75511026D01*
X120024543Y-75499044D01*
X120045613Y-75489079D01*
X120067557Y-75481227D01*
X120090166Y-75475563D01*
X120113221Y-75472144D01*
X120136500Y-75471000D01*
X120711500Y-75471000D01*
X120734779Y-75472144D01*
X120734779Y-75472144D01*
G37*
D12*
X120424000Y-75946000D03*
G04 #@! TD*
D11*
G04 #@! TO.C,D9*
G36*
X156774779Y-103984004D02*
X156797834Y-103987423D01*
X156820443Y-103993087D01*
X156842387Y-104000939D01*
X156863457Y-104010904D01*
X156883448Y-104022886D01*
X156902168Y-104036770D01*
X156919438Y-104052422D01*
X156935090Y-104069692D01*
X156948974Y-104088412D01*
X156960956Y-104108403D01*
X156970921Y-104129473D01*
X156978773Y-104151417D01*
X156984437Y-104174026D01*
X156987856Y-104197081D01*
X156989000Y-104220360D01*
X156989000Y-104695360D01*
X156987856Y-104718639D01*
X156984437Y-104741694D01*
X156978773Y-104764303D01*
X156970921Y-104786247D01*
X156960956Y-104807317D01*
X156948974Y-104827308D01*
X156935090Y-104846028D01*
X156919438Y-104863298D01*
X156902168Y-104878950D01*
X156883448Y-104892834D01*
X156863457Y-104904816D01*
X156842387Y-104914781D01*
X156820443Y-104922633D01*
X156797834Y-104928297D01*
X156774779Y-104931716D01*
X156751500Y-104932860D01*
X156176500Y-104932860D01*
X156153221Y-104931716D01*
X156130166Y-104928297D01*
X156107557Y-104922633D01*
X156085613Y-104914781D01*
X156064543Y-104904816D01*
X156044552Y-104892834D01*
X156025832Y-104878950D01*
X156008562Y-104863298D01*
X155992910Y-104846028D01*
X155979026Y-104827308D01*
X155967044Y-104807317D01*
X155957079Y-104786247D01*
X155949227Y-104764303D01*
X155943563Y-104741694D01*
X155940144Y-104718639D01*
X155939000Y-104695360D01*
X155939000Y-104220360D01*
X155940144Y-104197081D01*
X155943563Y-104174026D01*
X155949227Y-104151417D01*
X155957079Y-104129473D01*
X155967044Y-104108403D01*
X155979026Y-104088412D01*
X155992910Y-104069692D01*
X156008562Y-104052422D01*
X156025832Y-104036770D01*
X156044552Y-104022886D01*
X156064543Y-104010904D01*
X156085613Y-104000939D01*
X156107557Y-103993087D01*
X156130166Y-103987423D01*
X156153221Y-103984004D01*
X156176500Y-103982860D01*
X156751500Y-103982860D01*
X156774779Y-103984004D01*
X156774779Y-103984004D01*
G37*
D12*
X156464000Y-104457860D03*
D11*
G36*
X155024779Y-103984004D02*
X155047834Y-103987423D01*
X155070443Y-103993087D01*
X155092387Y-104000939D01*
X155113457Y-104010904D01*
X155133448Y-104022886D01*
X155152168Y-104036770D01*
X155169438Y-104052422D01*
X155185090Y-104069692D01*
X155198974Y-104088412D01*
X155210956Y-104108403D01*
X155220921Y-104129473D01*
X155228773Y-104151417D01*
X155234437Y-104174026D01*
X155237856Y-104197081D01*
X155239000Y-104220360D01*
X155239000Y-104695360D01*
X155237856Y-104718639D01*
X155234437Y-104741694D01*
X155228773Y-104764303D01*
X155220921Y-104786247D01*
X155210956Y-104807317D01*
X155198974Y-104827308D01*
X155185090Y-104846028D01*
X155169438Y-104863298D01*
X155152168Y-104878950D01*
X155133448Y-104892834D01*
X155113457Y-104904816D01*
X155092387Y-104914781D01*
X155070443Y-104922633D01*
X155047834Y-104928297D01*
X155024779Y-104931716D01*
X155001500Y-104932860D01*
X154426500Y-104932860D01*
X154403221Y-104931716D01*
X154380166Y-104928297D01*
X154357557Y-104922633D01*
X154335613Y-104914781D01*
X154314543Y-104904816D01*
X154294552Y-104892834D01*
X154275832Y-104878950D01*
X154258562Y-104863298D01*
X154242910Y-104846028D01*
X154229026Y-104827308D01*
X154217044Y-104807317D01*
X154207079Y-104786247D01*
X154199227Y-104764303D01*
X154193563Y-104741694D01*
X154190144Y-104718639D01*
X154189000Y-104695360D01*
X154189000Y-104220360D01*
X154190144Y-104197081D01*
X154193563Y-104174026D01*
X154199227Y-104151417D01*
X154207079Y-104129473D01*
X154217044Y-104108403D01*
X154229026Y-104088412D01*
X154242910Y-104069692D01*
X154258562Y-104052422D01*
X154275832Y-104036770D01*
X154294552Y-104022886D01*
X154314543Y-104010904D01*
X154335613Y-104000939D01*
X154357557Y-103993087D01*
X154380166Y-103987423D01*
X154403221Y-103984004D01*
X154426500Y-103982860D01*
X155001500Y-103982860D01*
X155024779Y-103984004D01*
X155024779Y-103984004D01*
G37*
D12*
X154714000Y-104457860D03*
G04 #@! TD*
D11*
G04 #@! TO.C,D10*
G36*
X156633779Y-107310537D02*
X156656834Y-107313956D01*
X156679443Y-107319620D01*
X156701387Y-107327472D01*
X156722457Y-107337437D01*
X156742448Y-107349419D01*
X156761168Y-107363303D01*
X156778438Y-107378955D01*
X156794090Y-107396225D01*
X156807974Y-107414945D01*
X156819956Y-107434936D01*
X156829921Y-107456006D01*
X156837773Y-107477950D01*
X156843437Y-107500559D01*
X156846856Y-107523614D01*
X156848000Y-107546893D01*
X156848000Y-108021893D01*
X156846856Y-108045172D01*
X156843437Y-108068227D01*
X156837773Y-108090836D01*
X156829921Y-108112780D01*
X156819956Y-108133850D01*
X156807974Y-108153841D01*
X156794090Y-108172561D01*
X156778438Y-108189831D01*
X156761168Y-108205483D01*
X156742448Y-108219367D01*
X156722457Y-108231349D01*
X156701387Y-108241314D01*
X156679443Y-108249166D01*
X156656834Y-108254830D01*
X156633779Y-108258249D01*
X156610500Y-108259393D01*
X156035500Y-108259393D01*
X156012221Y-108258249D01*
X155989166Y-108254830D01*
X155966557Y-108249166D01*
X155944613Y-108241314D01*
X155923543Y-108231349D01*
X155903552Y-108219367D01*
X155884832Y-108205483D01*
X155867562Y-108189831D01*
X155851910Y-108172561D01*
X155838026Y-108153841D01*
X155826044Y-108133850D01*
X155816079Y-108112780D01*
X155808227Y-108090836D01*
X155802563Y-108068227D01*
X155799144Y-108045172D01*
X155798000Y-108021893D01*
X155798000Y-107546893D01*
X155799144Y-107523614D01*
X155802563Y-107500559D01*
X155808227Y-107477950D01*
X155816079Y-107456006D01*
X155826044Y-107434936D01*
X155838026Y-107414945D01*
X155851910Y-107396225D01*
X155867562Y-107378955D01*
X155884832Y-107363303D01*
X155903552Y-107349419D01*
X155923543Y-107337437D01*
X155944613Y-107327472D01*
X155966557Y-107319620D01*
X155989166Y-107313956D01*
X156012221Y-107310537D01*
X156035500Y-107309393D01*
X156610500Y-107309393D01*
X156633779Y-107310537D01*
X156633779Y-107310537D01*
G37*
D12*
X156323000Y-107784393D03*
D11*
G36*
X154883779Y-107310537D02*
X154906834Y-107313956D01*
X154929443Y-107319620D01*
X154951387Y-107327472D01*
X154972457Y-107337437D01*
X154992448Y-107349419D01*
X155011168Y-107363303D01*
X155028438Y-107378955D01*
X155044090Y-107396225D01*
X155057974Y-107414945D01*
X155069956Y-107434936D01*
X155079921Y-107456006D01*
X155087773Y-107477950D01*
X155093437Y-107500559D01*
X155096856Y-107523614D01*
X155098000Y-107546893D01*
X155098000Y-108021893D01*
X155096856Y-108045172D01*
X155093437Y-108068227D01*
X155087773Y-108090836D01*
X155079921Y-108112780D01*
X155069956Y-108133850D01*
X155057974Y-108153841D01*
X155044090Y-108172561D01*
X155028438Y-108189831D01*
X155011168Y-108205483D01*
X154992448Y-108219367D01*
X154972457Y-108231349D01*
X154951387Y-108241314D01*
X154929443Y-108249166D01*
X154906834Y-108254830D01*
X154883779Y-108258249D01*
X154860500Y-108259393D01*
X154285500Y-108259393D01*
X154262221Y-108258249D01*
X154239166Y-108254830D01*
X154216557Y-108249166D01*
X154194613Y-108241314D01*
X154173543Y-108231349D01*
X154153552Y-108219367D01*
X154134832Y-108205483D01*
X154117562Y-108189831D01*
X154101910Y-108172561D01*
X154088026Y-108153841D01*
X154076044Y-108133850D01*
X154066079Y-108112780D01*
X154058227Y-108090836D01*
X154052563Y-108068227D01*
X154049144Y-108045172D01*
X154048000Y-108021893D01*
X154048000Y-107546893D01*
X154049144Y-107523614D01*
X154052563Y-107500559D01*
X154058227Y-107477950D01*
X154066079Y-107456006D01*
X154076044Y-107434936D01*
X154088026Y-107414945D01*
X154101910Y-107396225D01*
X154117562Y-107378955D01*
X154134832Y-107363303D01*
X154153552Y-107349419D01*
X154173543Y-107337437D01*
X154194613Y-107327472D01*
X154216557Y-107319620D01*
X154239166Y-107313956D01*
X154262221Y-107310537D01*
X154285500Y-107309393D01*
X154860500Y-107309393D01*
X154883779Y-107310537D01*
X154883779Y-107310537D01*
G37*
D12*
X154573000Y-107784393D03*
G04 #@! TD*
D11*
G04 #@! TO.C,L1*
G36*
X143961779Y-69376144D02*
X143984834Y-69379563D01*
X144007443Y-69385227D01*
X144029387Y-69393079D01*
X144050457Y-69403044D01*
X144070448Y-69415026D01*
X144089168Y-69428910D01*
X144106438Y-69444562D01*
X144122090Y-69461832D01*
X144135974Y-69480552D01*
X144147956Y-69500543D01*
X144157921Y-69521613D01*
X144165773Y-69543557D01*
X144171437Y-69566166D01*
X144174856Y-69589221D01*
X144176000Y-69612500D01*
X144176000Y-70087500D01*
X144174856Y-70110779D01*
X144171437Y-70133834D01*
X144165773Y-70156443D01*
X144157921Y-70178387D01*
X144147956Y-70199457D01*
X144135974Y-70219448D01*
X144122090Y-70238168D01*
X144106438Y-70255438D01*
X144089168Y-70271090D01*
X144070448Y-70284974D01*
X144050457Y-70296956D01*
X144029387Y-70306921D01*
X144007443Y-70314773D01*
X143984834Y-70320437D01*
X143961779Y-70323856D01*
X143938500Y-70325000D01*
X143363500Y-70325000D01*
X143340221Y-70323856D01*
X143317166Y-70320437D01*
X143294557Y-70314773D01*
X143272613Y-70306921D01*
X143251543Y-70296956D01*
X143231552Y-70284974D01*
X143212832Y-70271090D01*
X143195562Y-70255438D01*
X143179910Y-70238168D01*
X143166026Y-70219448D01*
X143154044Y-70199457D01*
X143144079Y-70178387D01*
X143136227Y-70156443D01*
X143130563Y-70133834D01*
X143127144Y-70110779D01*
X143126000Y-70087500D01*
X143126000Y-69612500D01*
X143127144Y-69589221D01*
X143130563Y-69566166D01*
X143136227Y-69543557D01*
X143144079Y-69521613D01*
X143154044Y-69500543D01*
X143166026Y-69480552D01*
X143179910Y-69461832D01*
X143195562Y-69444562D01*
X143212832Y-69428910D01*
X143231552Y-69415026D01*
X143251543Y-69403044D01*
X143272613Y-69393079D01*
X143294557Y-69385227D01*
X143317166Y-69379563D01*
X143340221Y-69376144D01*
X143363500Y-69375000D01*
X143938500Y-69375000D01*
X143961779Y-69376144D01*
X143961779Y-69376144D01*
G37*
D12*
X143651000Y-69850000D03*
D11*
G36*
X145711779Y-69376144D02*
X145734834Y-69379563D01*
X145757443Y-69385227D01*
X145779387Y-69393079D01*
X145800457Y-69403044D01*
X145820448Y-69415026D01*
X145839168Y-69428910D01*
X145856438Y-69444562D01*
X145872090Y-69461832D01*
X145885974Y-69480552D01*
X145897956Y-69500543D01*
X145907921Y-69521613D01*
X145915773Y-69543557D01*
X145921437Y-69566166D01*
X145924856Y-69589221D01*
X145926000Y-69612500D01*
X145926000Y-70087500D01*
X145924856Y-70110779D01*
X145921437Y-70133834D01*
X145915773Y-70156443D01*
X145907921Y-70178387D01*
X145897956Y-70199457D01*
X145885974Y-70219448D01*
X145872090Y-70238168D01*
X145856438Y-70255438D01*
X145839168Y-70271090D01*
X145820448Y-70284974D01*
X145800457Y-70296956D01*
X145779387Y-70306921D01*
X145757443Y-70314773D01*
X145734834Y-70320437D01*
X145711779Y-70323856D01*
X145688500Y-70325000D01*
X145113500Y-70325000D01*
X145090221Y-70323856D01*
X145067166Y-70320437D01*
X145044557Y-70314773D01*
X145022613Y-70306921D01*
X145001543Y-70296956D01*
X144981552Y-70284974D01*
X144962832Y-70271090D01*
X144945562Y-70255438D01*
X144929910Y-70238168D01*
X144916026Y-70219448D01*
X144904044Y-70199457D01*
X144894079Y-70178387D01*
X144886227Y-70156443D01*
X144880563Y-70133834D01*
X144877144Y-70110779D01*
X144876000Y-70087500D01*
X144876000Y-69612500D01*
X144877144Y-69589221D01*
X144880563Y-69566166D01*
X144886227Y-69543557D01*
X144894079Y-69521613D01*
X144904044Y-69500543D01*
X144916026Y-69480552D01*
X144929910Y-69461832D01*
X144945562Y-69444562D01*
X144962832Y-69428910D01*
X144981552Y-69415026D01*
X145001543Y-69403044D01*
X145022613Y-69393079D01*
X145044557Y-69385227D01*
X145067166Y-69379563D01*
X145090221Y-69376144D01*
X145113500Y-69375000D01*
X145688500Y-69375000D01*
X145711779Y-69376144D01*
X145711779Y-69376144D01*
G37*
D12*
X145401000Y-69850000D03*
G04 #@! TD*
D11*
G04 #@! TO.C,R1*
G36*
X145725779Y-77377144D02*
X145748834Y-77380563D01*
X145771443Y-77386227D01*
X145793387Y-77394079D01*
X145814457Y-77404044D01*
X145834448Y-77416026D01*
X145853168Y-77429910D01*
X145870438Y-77445562D01*
X145886090Y-77462832D01*
X145899974Y-77481552D01*
X145911956Y-77501543D01*
X145921921Y-77522613D01*
X145929773Y-77544557D01*
X145935437Y-77567166D01*
X145938856Y-77590221D01*
X145940000Y-77613500D01*
X145940000Y-78088500D01*
X145938856Y-78111779D01*
X145935437Y-78134834D01*
X145929773Y-78157443D01*
X145921921Y-78179387D01*
X145911956Y-78200457D01*
X145899974Y-78220448D01*
X145886090Y-78239168D01*
X145870438Y-78256438D01*
X145853168Y-78272090D01*
X145834448Y-78285974D01*
X145814457Y-78297956D01*
X145793387Y-78307921D01*
X145771443Y-78315773D01*
X145748834Y-78321437D01*
X145725779Y-78324856D01*
X145702500Y-78326000D01*
X145127500Y-78326000D01*
X145104221Y-78324856D01*
X145081166Y-78321437D01*
X145058557Y-78315773D01*
X145036613Y-78307921D01*
X145015543Y-78297956D01*
X144995552Y-78285974D01*
X144976832Y-78272090D01*
X144959562Y-78256438D01*
X144943910Y-78239168D01*
X144930026Y-78220448D01*
X144918044Y-78200457D01*
X144908079Y-78179387D01*
X144900227Y-78157443D01*
X144894563Y-78134834D01*
X144891144Y-78111779D01*
X144890000Y-78088500D01*
X144890000Y-77613500D01*
X144891144Y-77590221D01*
X144894563Y-77567166D01*
X144900227Y-77544557D01*
X144908079Y-77522613D01*
X144918044Y-77501543D01*
X144930026Y-77481552D01*
X144943910Y-77462832D01*
X144959562Y-77445562D01*
X144976832Y-77429910D01*
X144995552Y-77416026D01*
X145015543Y-77404044D01*
X145036613Y-77394079D01*
X145058557Y-77386227D01*
X145081166Y-77380563D01*
X145104221Y-77377144D01*
X145127500Y-77376000D01*
X145702500Y-77376000D01*
X145725779Y-77377144D01*
X145725779Y-77377144D01*
G37*
D12*
X145415000Y-77851000D03*
D11*
G36*
X143975779Y-77377144D02*
X143998834Y-77380563D01*
X144021443Y-77386227D01*
X144043387Y-77394079D01*
X144064457Y-77404044D01*
X144084448Y-77416026D01*
X144103168Y-77429910D01*
X144120438Y-77445562D01*
X144136090Y-77462832D01*
X144149974Y-77481552D01*
X144161956Y-77501543D01*
X144171921Y-77522613D01*
X144179773Y-77544557D01*
X144185437Y-77567166D01*
X144188856Y-77590221D01*
X144190000Y-77613500D01*
X144190000Y-78088500D01*
X144188856Y-78111779D01*
X144185437Y-78134834D01*
X144179773Y-78157443D01*
X144171921Y-78179387D01*
X144161956Y-78200457D01*
X144149974Y-78220448D01*
X144136090Y-78239168D01*
X144120438Y-78256438D01*
X144103168Y-78272090D01*
X144084448Y-78285974D01*
X144064457Y-78297956D01*
X144043387Y-78307921D01*
X144021443Y-78315773D01*
X143998834Y-78321437D01*
X143975779Y-78324856D01*
X143952500Y-78326000D01*
X143377500Y-78326000D01*
X143354221Y-78324856D01*
X143331166Y-78321437D01*
X143308557Y-78315773D01*
X143286613Y-78307921D01*
X143265543Y-78297956D01*
X143245552Y-78285974D01*
X143226832Y-78272090D01*
X143209562Y-78256438D01*
X143193910Y-78239168D01*
X143180026Y-78220448D01*
X143168044Y-78200457D01*
X143158079Y-78179387D01*
X143150227Y-78157443D01*
X143144563Y-78134834D01*
X143141144Y-78111779D01*
X143140000Y-78088500D01*
X143140000Y-77613500D01*
X143141144Y-77590221D01*
X143144563Y-77567166D01*
X143150227Y-77544557D01*
X143158079Y-77522613D01*
X143168044Y-77501543D01*
X143180026Y-77481552D01*
X143193910Y-77462832D01*
X143209562Y-77445562D01*
X143226832Y-77429910D01*
X143245552Y-77416026D01*
X143265543Y-77404044D01*
X143286613Y-77394079D01*
X143308557Y-77386227D01*
X143331166Y-77380563D01*
X143354221Y-77377144D01*
X143377500Y-77376000D01*
X143952500Y-77376000D01*
X143975779Y-77377144D01*
X143975779Y-77377144D01*
G37*
D12*
X143665000Y-77851000D03*
G04 #@! TD*
D11*
G04 #@! TO.C,R2*
G36*
X151079279Y-111159144D02*
X151102334Y-111162563D01*
X151124943Y-111168227D01*
X151146887Y-111176079D01*
X151167957Y-111186044D01*
X151187948Y-111198026D01*
X151206668Y-111211910D01*
X151223938Y-111227562D01*
X151239590Y-111244832D01*
X151253474Y-111263552D01*
X151265456Y-111283543D01*
X151275421Y-111304613D01*
X151283273Y-111326557D01*
X151288937Y-111349166D01*
X151292356Y-111372221D01*
X151293500Y-111395500D01*
X151293500Y-111870500D01*
X151292356Y-111893779D01*
X151288937Y-111916834D01*
X151283273Y-111939443D01*
X151275421Y-111961387D01*
X151265456Y-111982457D01*
X151253474Y-112002448D01*
X151239590Y-112021168D01*
X151223938Y-112038438D01*
X151206668Y-112054090D01*
X151187948Y-112067974D01*
X151167957Y-112079956D01*
X151146887Y-112089921D01*
X151124943Y-112097773D01*
X151102334Y-112103437D01*
X151079279Y-112106856D01*
X151056000Y-112108000D01*
X150481000Y-112108000D01*
X150457721Y-112106856D01*
X150434666Y-112103437D01*
X150412057Y-112097773D01*
X150390113Y-112089921D01*
X150369043Y-112079956D01*
X150349052Y-112067974D01*
X150330332Y-112054090D01*
X150313062Y-112038438D01*
X150297410Y-112021168D01*
X150283526Y-112002448D01*
X150271544Y-111982457D01*
X150261579Y-111961387D01*
X150253727Y-111939443D01*
X150248063Y-111916834D01*
X150244644Y-111893779D01*
X150243500Y-111870500D01*
X150243500Y-111395500D01*
X150244644Y-111372221D01*
X150248063Y-111349166D01*
X150253727Y-111326557D01*
X150261579Y-111304613D01*
X150271544Y-111283543D01*
X150283526Y-111263552D01*
X150297410Y-111244832D01*
X150313062Y-111227562D01*
X150330332Y-111211910D01*
X150349052Y-111198026D01*
X150369043Y-111186044D01*
X150390113Y-111176079D01*
X150412057Y-111168227D01*
X150434666Y-111162563D01*
X150457721Y-111159144D01*
X150481000Y-111158000D01*
X151056000Y-111158000D01*
X151079279Y-111159144D01*
X151079279Y-111159144D01*
G37*
D12*
X150768500Y-111633000D03*
D11*
G36*
X152829279Y-111159144D02*
X152852334Y-111162563D01*
X152874943Y-111168227D01*
X152896887Y-111176079D01*
X152917957Y-111186044D01*
X152937948Y-111198026D01*
X152956668Y-111211910D01*
X152973938Y-111227562D01*
X152989590Y-111244832D01*
X153003474Y-111263552D01*
X153015456Y-111283543D01*
X153025421Y-111304613D01*
X153033273Y-111326557D01*
X153038937Y-111349166D01*
X153042356Y-111372221D01*
X153043500Y-111395500D01*
X153043500Y-111870500D01*
X153042356Y-111893779D01*
X153038937Y-111916834D01*
X153033273Y-111939443D01*
X153025421Y-111961387D01*
X153015456Y-111982457D01*
X153003474Y-112002448D01*
X152989590Y-112021168D01*
X152973938Y-112038438D01*
X152956668Y-112054090D01*
X152937948Y-112067974D01*
X152917957Y-112079956D01*
X152896887Y-112089921D01*
X152874943Y-112097773D01*
X152852334Y-112103437D01*
X152829279Y-112106856D01*
X152806000Y-112108000D01*
X152231000Y-112108000D01*
X152207721Y-112106856D01*
X152184666Y-112103437D01*
X152162057Y-112097773D01*
X152140113Y-112089921D01*
X152119043Y-112079956D01*
X152099052Y-112067974D01*
X152080332Y-112054090D01*
X152063062Y-112038438D01*
X152047410Y-112021168D01*
X152033526Y-112002448D01*
X152021544Y-111982457D01*
X152011579Y-111961387D01*
X152003727Y-111939443D01*
X151998063Y-111916834D01*
X151994644Y-111893779D01*
X151993500Y-111870500D01*
X151993500Y-111395500D01*
X151994644Y-111372221D01*
X151998063Y-111349166D01*
X152003727Y-111326557D01*
X152011579Y-111304613D01*
X152021544Y-111283543D01*
X152033526Y-111263552D01*
X152047410Y-111244832D01*
X152063062Y-111227562D01*
X152080332Y-111211910D01*
X152099052Y-111198026D01*
X152119043Y-111186044D01*
X152140113Y-111176079D01*
X152162057Y-111168227D01*
X152184666Y-111162563D01*
X152207721Y-111159144D01*
X152231000Y-111158000D01*
X152806000Y-111158000D01*
X152829279Y-111159144D01*
X152829279Y-111159144D01*
G37*
D12*
X152518500Y-111633000D03*
G04 #@! TD*
D11*
G04 #@! TO.C,R3*
G36*
X170059779Y-70839532D02*
X170082834Y-70842951D01*
X170105443Y-70848615D01*
X170127387Y-70856467D01*
X170148457Y-70866432D01*
X170168448Y-70878414D01*
X170187168Y-70892298D01*
X170204438Y-70907950D01*
X170220090Y-70925220D01*
X170233974Y-70943940D01*
X170245956Y-70963931D01*
X170255921Y-70985001D01*
X170263773Y-71006945D01*
X170269437Y-71029554D01*
X170272856Y-71052609D01*
X170274000Y-71075888D01*
X170274000Y-71650888D01*
X170272856Y-71674167D01*
X170269437Y-71697222D01*
X170263773Y-71719831D01*
X170255921Y-71741775D01*
X170245956Y-71762845D01*
X170233974Y-71782836D01*
X170220090Y-71801556D01*
X170204438Y-71818826D01*
X170187168Y-71834478D01*
X170168448Y-71848362D01*
X170148457Y-71860344D01*
X170127387Y-71870309D01*
X170105443Y-71878161D01*
X170082834Y-71883825D01*
X170059779Y-71887244D01*
X170036500Y-71888388D01*
X169561500Y-71888388D01*
X169538221Y-71887244D01*
X169515166Y-71883825D01*
X169492557Y-71878161D01*
X169470613Y-71870309D01*
X169449543Y-71860344D01*
X169429552Y-71848362D01*
X169410832Y-71834478D01*
X169393562Y-71818826D01*
X169377910Y-71801556D01*
X169364026Y-71782836D01*
X169352044Y-71762845D01*
X169342079Y-71741775D01*
X169334227Y-71719831D01*
X169328563Y-71697222D01*
X169325144Y-71674167D01*
X169324000Y-71650888D01*
X169324000Y-71075888D01*
X169325144Y-71052609D01*
X169328563Y-71029554D01*
X169334227Y-71006945D01*
X169342079Y-70985001D01*
X169352044Y-70963931D01*
X169364026Y-70943940D01*
X169377910Y-70925220D01*
X169393562Y-70907950D01*
X169410832Y-70892298D01*
X169429552Y-70878414D01*
X169449543Y-70866432D01*
X169470613Y-70856467D01*
X169492557Y-70848615D01*
X169515166Y-70842951D01*
X169538221Y-70839532D01*
X169561500Y-70838388D01*
X170036500Y-70838388D01*
X170059779Y-70839532D01*
X170059779Y-70839532D01*
G37*
D12*
X169799000Y-71363388D03*
D11*
G36*
X170059779Y-69089532D02*
X170082834Y-69092951D01*
X170105443Y-69098615D01*
X170127387Y-69106467D01*
X170148457Y-69116432D01*
X170168448Y-69128414D01*
X170187168Y-69142298D01*
X170204438Y-69157950D01*
X170220090Y-69175220D01*
X170233974Y-69193940D01*
X170245956Y-69213931D01*
X170255921Y-69235001D01*
X170263773Y-69256945D01*
X170269437Y-69279554D01*
X170272856Y-69302609D01*
X170274000Y-69325888D01*
X170274000Y-69900888D01*
X170272856Y-69924167D01*
X170269437Y-69947222D01*
X170263773Y-69969831D01*
X170255921Y-69991775D01*
X170245956Y-70012845D01*
X170233974Y-70032836D01*
X170220090Y-70051556D01*
X170204438Y-70068826D01*
X170187168Y-70084478D01*
X170168448Y-70098362D01*
X170148457Y-70110344D01*
X170127387Y-70120309D01*
X170105443Y-70128161D01*
X170082834Y-70133825D01*
X170059779Y-70137244D01*
X170036500Y-70138388D01*
X169561500Y-70138388D01*
X169538221Y-70137244D01*
X169515166Y-70133825D01*
X169492557Y-70128161D01*
X169470613Y-70120309D01*
X169449543Y-70110344D01*
X169429552Y-70098362D01*
X169410832Y-70084478D01*
X169393562Y-70068826D01*
X169377910Y-70051556D01*
X169364026Y-70032836D01*
X169352044Y-70012845D01*
X169342079Y-69991775D01*
X169334227Y-69969831D01*
X169328563Y-69947222D01*
X169325144Y-69924167D01*
X169324000Y-69900888D01*
X169324000Y-69325888D01*
X169325144Y-69302609D01*
X169328563Y-69279554D01*
X169334227Y-69256945D01*
X169342079Y-69235001D01*
X169352044Y-69213931D01*
X169364026Y-69193940D01*
X169377910Y-69175220D01*
X169393562Y-69157950D01*
X169410832Y-69142298D01*
X169429552Y-69128414D01*
X169449543Y-69116432D01*
X169470613Y-69106467D01*
X169492557Y-69098615D01*
X169515166Y-69092951D01*
X169538221Y-69089532D01*
X169561500Y-69088388D01*
X170036500Y-69088388D01*
X170059779Y-69089532D01*
X170059779Y-69089532D01*
G37*
D12*
X169799000Y-69613388D03*
G04 #@! TD*
D11*
G04 #@! TO.C,R4*
G36*
X167934385Y-70839532D02*
X167957440Y-70842951D01*
X167980049Y-70848615D01*
X168001993Y-70856467D01*
X168023063Y-70866432D01*
X168043054Y-70878414D01*
X168061774Y-70892298D01*
X168079044Y-70907950D01*
X168094696Y-70925220D01*
X168108580Y-70943940D01*
X168120562Y-70963931D01*
X168130527Y-70985001D01*
X168138379Y-71006945D01*
X168144043Y-71029554D01*
X168147462Y-71052609D01*
X168148606Y-71075888D01*
X168148606Y-71650888D01*
X168147462Y-71674167D01*
X168144043Y-71697222D01*
X168138379Y-71719831D01*
X168130527Y-71741775D01*
X168120562Y-71762845D01*
X168108580Y-71782836D01*
X168094696Y-71801556D01*
X168079044Y-71818826D01*
X168061774Y-71834478D01*
X168043054Y-71848362D01*
X168023063Y-71860344D01*
X168001993Y-71870309D01*
X167980049Y-71878161D01*
X167957440Y-71883825D01*
X167934385Y-71887244D01*
X167911106Y-71888388D01*
X167436106Y-71888388D01*
X167412827Y-71887244D01*
X167389772Y-71883825D01*
X167367163Y-71878161D01*
X167345219Y-71870309D01*
X167324149Y-71860344D01*
X167304158Y-71848362D01*
X167285438Y-71834478D01*
X167268168Y-71818826D01*
X167252516Y-71801556D01*
X167238632Y-71782836D01*
X167226650Y-71762845D01*
X167216685Y-71741775D01*
X167208833Y-71719831D01*
X167203169Y-71697222D01*
X167199750Y-71674167D01*
X167198606Y-71650888D01*
X167198606Y-71075888D01*
X167199750Y-71052609D01*
X167203169Y-71029554D01*
X167208833Y-71006945D01*
X167216685Y-70985001D01*
X167226650Y-70963931D01*
X167238632Y-70943940D01*
X167252516Y-70925220D01*
X167268168Y-70907950D01*
X167285438Y-70892298D01*
X167304158Y-70878414D01*
X167324149Y-70866432D01*
X167345219Y-70856467D01*
X167367163Y-70848615D01*
X167389772Y-70842951D01*
X167412827Y-70839532D01*
X167436106Y-70838388D01*
X167911106Y-70838388D01*
X167934385Y-70839532D01*
X167934385Y-70839532D01*
G37*
D12*
X167673606Y-71363388D03*
D11*
G36*
X167934385Y-69089532D02*
X167957440Y-69092951D01*
X167980049Y-69098615D01*
X168001993Y-69106467D01*
X168023063Y-69116432D01*
X168043054Y-69128414D01*
X168061774Y-69142298D01*
X168079044Y-69157950D01*
X168094696Y-69175220D01*
X168108580Y-69193940D01*
X168120562Y-69213931D01*
X168130527Y-69235001D01*
X168138379Y-69256945D01*
X168144043Y-69279554D01*
X168147462Y-69302609D01*
X168148606Y-69325888D01*
X168148606Y-69900888D01*
X168147462Y-69924167D01*
X168144043Y-69947222D01*
X168138379Y-69969831D01*
X168130527Y-69991775D01*
X168120562Y-70012845D01*
X168108580Y-70032836D01*
X168094696Y-70051556D01*
X168079044Y-70068826D01*
X168061774Y-70084478D01*
X168043054Y-70098362D01*
X168023063Y-70110344D01*
X168001993Y-70120309D01*
X167980049Y-70128161D01*
X167957440Y-70133825D01*
X167934385Y-70137244D01*
X167911106Y-70138388D01*
X167436106Y-70138388D01*
X167412827Y-70137244D01*
X167389772Y-70133825D01*
X167367163Y-70128161D01*
X167345219Y-70120309D01*
X167324149Y-70110344D01*
X167304158Y-70098362D01*
X167285438Y-70084478D01*
X167268168Y-70068826D01*
X167252516Y-70051556D01*
X167238632Y-70032836D01*
X167226650Y-70012845D01*
X167216685Y-69991775D01*
X167208833Y-69969831D01*
X167203169Y-69947222D01*
X167199750Y-69924167D01*
X167198606Y-69900888D01*
X167198606Y-69325888D01*
X167199750Y-69302609D01*
X167203169Y-69279554D01*
X167208833Y-69256945D01*
X167216685Y-69235001D01*
X167226650Y-69213931D01*
X167238632Y-69193940D01*
X167252516Y-69175220D01*
X167268168Y-69157950D01*
X167285438Y-69142298D01*
X167304158Y-69128414D01*
X167324149Y-69116432D01*
X167345219Y-69106467D01*
X167367163Y-69098615D01*
X167389772Y-69092951D01*
X167412827Y-69089532D01*
X167436106Y-69088388D01*
X167911106Y-69088388D01*
X167934385Y-69089532D01*
X167934385Y-69089532D01*
G37*
D12*
X167673606Y-69613388D03*
G04 #@! TD*
D11*
G04 #@! TO.C,R5*
G36*
X151093279Y-114334144D02*
X151116334Y-114337563D01*
X151138943Y-114343227D01*
X151160887Y-114351079D01*
X151181957Y-114361044D01*
X151201948Y-114373026D01*
X151220668Y-114386910D01*
X151237938Y-114402562D01*
X151253590Y-114419832D01*
X151267474Y-114438552D01*
X151279456Y-114458543D01*
X151289421Y-114479613D01*
X151297273Y-114501557D01*
X151302937Y-114524166D01*
X151306356Y-114547221D01*
X151307500Y-114570500D01*
X151307500Y-115045500D01*
X151306356Y-115068779D01*
X151302937Y-115091834D01*
X151297273Y-115114443D01*
X151289421Y-115136387D01*
X151279456Y-115157457D01*
X151267474Y-115177448D01*
X151253590Y-115196168D01*
X151237938Y-115213438D01*
X151220668Y-115229090D01*
X151201948Y-115242974D01*
X151181957Y-115254956D01*
X151160887Y-115264921D01*
X151138943Y-115272773D01*
X151116334Y-115278437D01*
X151093279Y-115281856D01*
X151070000Y-115283000D01*
X150495000Y-115283000D01*
X150471721Y-115281856D01*
X150448666Y-115278437D01*
X150426057Y-115272773D01*
X150404113Y-115264921D01*
X150383043Y-115254956D01*
X150363052Y-115242974D01*
X150344332Y-115229090D01*
X150327062Y-115213438D01*
X150311410Y-115196168D01*
X150297526Y-115177448D01*
X150285544Y-115157457D01*
X150275579Y-115136387D01*
X150267727Y-115114443D01*
X150262063Y-115091834D01*
X150258644Y-115068779D01*
X150257500Y-115045500D01*
X150257500Y-114570500D01*
X150258644Y-114547221D01*
X150262063Y-114524166D01*
X150267727Y-114501557D01*
X150275579Y-114479613D01*
X150285544Y-114458543D01*
X150297526Y-114438552D01*
X150311410Y-114419832D01*
X150327062Y-114402562D01*
X150344332Y-114386910D01*
X150363052Y-114373026D01*
X150383043Y-114361044D01*
X150404113Y-114351079D01*
X150426057Y-114343227D01*
X150448666Y-114337563D01*
X150471721Y-114334144D01*
X150495000Y-114333000D01*
X151070000Y-114333000D01*
X151093279Y-114334144D01*
X151093279Y-114334144D01*
G37*
D12*
X150782500Y-114808000D03*
D11*
G36*
X152843279Y-114334144D02*
X152866334Y-114337563D01*
X152888943Y-114343227D01*
X152910887Y-114351079D01*
X152931957Y-114361044D01*
X152951948Y-114373026D01*
X152970668Y-114386910D01*
X152987938Y-114402562D01*
X153003590Y-114419832D01*
X153017474Y-114438552D01*
X153029456Y-114458543D01*
X153039421Y-114479613D01*
X153047273Y-114501557D01*
X153052937Y-114524166D01*
X153056356Y-114547221D01*
X153057500Y-114570500D01*
X153057500Y-115045500D01*
X153056356Y-115068779D01*
X153052937Y-115091834D01*
X153047273Y-115114443D01*
X153039421Y-115136387D01*
X153029456Y-115157457D01*
X153017474Y-115177448D01*
X153003590Y-115196168D01*
X152987938Y-115213438D01*
X152970668Y-115229090D01*
X152951948Y-115242974D01*
X152931957Y-115254956D01*
X152910887Y-115264921D01*
X152888943Y-115272773D01*
X152866334Y-115278437D01*
X152843279Y-115281856D01*
X152820000Y-115283000D01*
X152245000Y-115283000D01*
X152221721Y-115281856D01*
X152198666Y-115278437D01*
X152176057Y-115272773D01*
X152154113Y-115264921D01*
X152133043Y-115254956D01*
X152113052Y-115242974D01*
X152094332Y-115229090D01*
X152077062Y-115213438D01*
X152061410Y-115196168D01*
X152047526Y-115177448D01*
X152035544Y-115157457D01*
X152025579Y-115136387D01*
X152017727Y-115114443D01*
X152012063Y-115091834D01*
X152008644Y-115068779D01*
X152007500Y-115045500D01*
X152007500Y-114570500D01*
X152008644Y-114547221D01*
X152012063Y-114524166D01*
X152017727Y-114501557D01*
X152025579Y-114479613D01*
X152035544Y-114458543D01*
X152047526Y-114438552D01*
X152061410Y-114419832D01*
X152077062Y-114402562D01*
X152094332Y-114386910D01*
X152113052Y-114373026D01*
X152133043Y-114361044D01*
X152154113Y-114351079D01*
X152176057Y-114343227D01*
X152198666Y-114337563D01*
X152221721Y-114334144D01*
X152245000Y-114333000D01*
X152820000Y-114333000D01*
X152843279Y-114334144D01*
X152843279Y-114334144D01*
G37*
D12*
X152532500Y-114808000D03*
G04 #@! TD*
D11*
G04 #@! TO.C,R6*
G36*
X150960779Y-118398144D02*
X150983834Y-118401563D01*
X151006443Y-118407227D01*
X151028387Y-118415079D01*
X151049457Y-118425044D01*
X151069448Y-118437026D01*
X151088168Y-118450910D01*
X151105438Y-118466562D01*
X151121090Y-118483832D01*
X151134974Y-118502552D01*
X151146956Y-118522543D01*
X151156921Y-118543613D01*
X151164773Y-118565557D01*
X151170437Y-118588166D01*
X151173856Y-118611221D01*
X151175000Y-118634500D01*
X151175000Y-119109500D01*
X151173856Y-119132779D01*
X151170437Y-119155834D01*
X151164773Y-119178443D01*
X151156921Y-119200387D01*
X151146956Y-119221457D01*
X151134974Y-119241448D01*
X151121090Y-119260168D01*
X151105438Y-119277438D01*
X151088168Y-119293090D01*
X151069448Y-119306974D01*
X151049457Y-119318956D01*
X151028387Y-119328921D01*
X151006443Y-119336773D01*
X150983834Y-119342437D01*
X150960779Y-119345856D01*
X150937500Y-119347000D01*
X150362500Y-119347000D01*
X150339221Y-119345856D01*
X150316166Y-119342437D01*
X150293557Y-119336773D01*
X150271613Y-119328921D01*
X150250543Y-119318956D01*
X150230552Y-119306974D01*
X150211832Y-119293090D01*
X150194562Y-119277438D01*
X150178910Y-119260168D01*
X150165026Y-119241448D01*
X150153044Y-119221457D01*
X150143079Y-119200387D01*
X150135227Y-119178443D01*
X150129563Y-119155834D01*
X150126144Y-119132779D01*
X150125000Y-119109500D01*
X150125000Y-118634500D01*
X150126144Y-118611221D01*
X150129563Y-118588166D01*
X150135227Y-118565557D01*
X150143079Y-118543613D01*
X150153044Y-118522543D01*
X150165026Y-118502552D01*
X150178910Y-118483832D01*
X150194562Y-118466562D01*
X150211832Y-118450910D01*
X150230552Y-118437026D01*
X150250543Y-118425044D01*
X150271613Y-118415079D01*
X150293557Y-118407227D01*
X150316166Y-118401563D01*
X150339221Y-118398144D01*
X150362500Y-118397000D01*
X150937500Y-118397000D01*
X150960779Y-118398144D01*
X150960779Y-118398144D01*
G37*
D12*
X150650000Y-118872000D03*
D11*
G36*
X152710779Y-118398144D02*
X152733834Y-118401563D01*
X152756443Y-118407227D01*
X152778387Y-118415079D01*
X152799457Y-118425044D01*
X152819448Y-118437026D01*
X152838168Y-118450910D01*
X152855438Y-118466562D01*
X152871090Y-118483832D01*
X152884974Y-118502552D01*
X152896956Y-118522543D01*
X152906921Y-118543613D01*
X152914773Y-118565557D01*
X152920437Y-118588166D01*
X152923856Y-118611221D01*
X152925000Y-118634500D01*
X152925000Y-119109500D01*
X152923856Y-119132779D01*
X152920437Y-119155834D01*
X152914773Y-119178443D01*
X152906921Y-119200387D01*
X152896956Y-119221457D01*
X152884974Y-119241448D01*
X152871090Y-119260168D01*
X152855438Y-119277438D01*
X152838168Y-119293090D01*
X152819448Y-119306974D01*
X152799457Y-119318956D01*
X152778387Y-119328921D01*
X152756443Y-119336773D01*
X152733834Y-119342437D01*
X152710779Y-119345856D01*
X152687500Y-119347000D01*
X152112500Y-119347000D01*
X152089221Y-119345856D01*
X152066166Y-119342437D01*
X152043557Y-119336773D01*
X152021613Y-119328921D01*
X152000543Y-119318956D01*
X151980552Y-119306974D01*
X151961832Y-119293090D01*
X151944562Y-119277438D01*
X151928910Y-119260168D01*
X151915026Y-119241448D01*
X151903044Y-119221457D01*
X151893079Y-119200387D01*
X151885227Y-119178443D01*
X151879563Y-119155834D01*
X151876144Y-119132779D01*
X151875000Y-119109500D01*
X151875000Y-118634500D01*
X151876144Y-118611221D01*
X151879563Y-118588166D01*
X151885227Y-118565557D01*
X151893079Y-118543613D01*
X151903044Y-118522543D01*
X151915026Y-118502552D01*
X151928910Y-118483832D01*
X151944562Y-118466562D01*
X151961832Y-118450910D01*
X151980552Y-118437026D01*
X152000543Y-118425044D01*
X152021613Y-118415079D01*
X152043557Y-118407227D01*
X152066166Y-118401563D01*
X152089221Y-118398144D01*
X152112500Y-118397000D01*
X152687500Y-118397000D01*
X152710779Y-118398144D01*
X152710779Y-118398144D01*
G37*
D12*
X152400000Y-118872000D03*
G04 #@! TD*
D11*
G04 #@! TO.C,R7*
G36*
X124135779Y-75472144D02*
X124158834Y-75475563D01*
X124181443Y-75481227D01*
X124203387Y-75489079D01*
X124224457Y-75499044D01*
X124244448Y-75511026D01*
X124263168Y-75524910D01*
X124280438Y-75540562D01*
X124296090Y-75557832D01*
X124309974Y-75576552D01*
X124321956Y-75596543D01*
X124331921Y-75617613D01*
X124339773Y-75639557D01*
X124345437Y-75662166D01*
X124348856Y-75685221D01*
X124350000Y-75708500D01*
X124350000Y-76183500D01*
X124348856Y-76206779D01*
X124345437Y-76229834D01*
X124339773Y-76252443D01*
X124331921Y-76274387D01*
X124321956Y-76295457D01*
X124309974Y-76315448D01*
X124296090Y-76334168D01*
X124280438Y-76351438D01*
X124263168Y-76367090D01*
X124244448Y-76380974D01*
X124224457Y-76392956D01*
X124203387Y-76402921D01*
X124181443Y-76410773D01*
X124158834Y-76416437D01*
X124135779Y-76419856D01*
X124112500Y-76421000D01*
X123537500Y-76421000D01*
X123514221Y-76419856D01*
X123491166Y-76416437D01*
X123468557Y-76410773D01*
X123446613Y-76402921D01*
X123425543Y-76392956D01*
X123405552Y-76380974D01*
X123386832Y-76367090D01*
X123369562Y-76351438D01*
X123353910Y-76334168D01*
X123340026Y-76315448D01*
X123328044Y-76295457D01*
X123318079Y-76274387D01*
X123310227Y-76252443D01*
X123304563Y-76229834D01*
X123301144Y-76206779D01*
X123300000Y-76183500D01*
X123300000Y-75708500D01*
X123301144Y-75685221D01*
X123304563Y-75662166D01*
X123310227Y-75639557D01*
X123318079Y-75617613D01*
X123328044Y-75596543D01*
X123340026Y-75576552D01*
X123353910Y-75557832D01*
X123369562Y-75540562D01*
X123386832Y-75524910D01*
X123405552Y-75511026D01*
X123425543Y-75499044D01*
X123446613Y-75489079D01*
X123468557Y-75481227D01*
X123491166Y-75475563D01*
X123514221Y-75472144D01*
X123537500Y-75471000D01*
X124112500Y-75471000D01*
X124135779Y-75472144D01*
X124135779Y-75472144D01*
G37*
D12*
X123825000Y-75946000D03*
D11*
G36*
X125885779Y-75472144D02*
X125908834Y-75475563D01*
X125931443Y-75481227D01*
X125953387Y-75489079D01*
X125974457Y-75499044D01*
X125994448Y-75511026D01*
X126013168Y-75524910D01*
X126030438Y-75540562D01*
X126046090Y-75557832D01*
X126059974Y-75576552D01*
X126071956Y-75596543D01*
X126081921Y-75617613D01*
X126089773Y-75639557D01*
X126095437Y-75662166D01*
X126098856Y-75685221D01*
X126100000Y-75708500D01*
X126100000Y-76183500D01*
X126098856Y-76206779D01*
X126095437Y-76229834D01*
X126089773Y-76252443D01*
X126081921Y-76274387D01*
X126071956Y-76295457D01*
X126059974Y-76315448D01*
X126046090Y-76334168D01*
X126030438Y-76351438D01*
X126013168Y-76367090D01*
X125994448Y-76380974D01*
X125974457Y-76392956D01*
X125953387Y-76402921D01*
X125931443Y-76410773D01*
X125908834Y-76416437D01*
X125885779Y-76419856D01*
X125862500Y-76421000D01*
X125287500Y-76421000D01*
X125264221Y-76419856D01*
X125241166Y-76416437D01*
X125218557Y-76410773D01*
X125196613Y-76402921D01*
X125175543Y-76392956D01*
X125155552Y-76380974D01*
X125136832Y-76367090D01*
X125119562Y-76351438D01*
X125103910Y-76334168D01*
X125090026Y-76315448D01*
X125078044Y-76295457D01*
X125068079Y-76274387D01*
X125060227Y-76252443D01*
X125054563Y-76229834D01*
X125051144Y-76206779D01*
X125050000Y-76183500D01*
X125050000Y-75708500D01*
X125051144Y-75685221D01*
X125054563Y-75662166D01*
X125060227Y-75639557D01*
X125068079Y-75617613D01*
X125078044Y-75596543D01*
X125090026Y-75576552D01*
X125103910Y-75557832D01*
X125119562Y-75540562D01*
X125136832Y-75524910D01*
X125155552Y-75511026D01*
X125175543Y-75499044D01*
X125196613Y-75489079D01*
X125218557Y-75481227D01*
X125241166Y-75475563D01*
X125264221Y-75472144D01*
X125287500Y-75471000D01*
X125862500Y-75471000D01*
X125885779Y-75472144D01*
X125885779Y-75472144D01*
G37*
D12*
X125575000Y-75946000D03*
G04 #@! TD*
D11*
G04 #@! TO.C,R9*
G36*
X152689534Y-103984004D02*
X152712589Y-103987423D01*
X152735198Y-103993087D01*
X152757142Y-104000939D01*
X152778212Y-104010904D01*
X152798203Y-104022886D01*
X152816923Y-104036770D01*
X152834193Y-104052422D01*
X152849845Y-104069692D01*
X152863729Y-104088412D01*
X152875711Y-104108403D01*
X152885676Y-104129473D01*
X152893528Y-104151417D01*
X152899192Y-104174026D01*
X152902611Y-104197081D01*
X152903755Y-104220360D01*
X152903755Y-104695360D01*
X152902611Y-104718639D01*
X152899192Y-104741694D01*
X152893528Y-104764303D01*
X152885676Y-104786247D01*
X152875711Y-104807317D01*
X152863729Y-104827308D01*
X152849845Y-104846028D01*
X152834193Y-104863298D01*
X152816923Y-104878950D01*
X152798203Y-104892834D01*
X152778212Y-104904816D01*
X152757142Y-104914781D01*
X152735198Y-104922633D01*
X152712589Y-104928297D01*
X152689534Y-104931716D01*
X152666255Y-104932860D01*
X152091255Y-104932860D01*
X152067976Y-104931716D01*
X152044921Y-104928297D01*
X152022312Y-104922633D01*
X152000368Y-104914781D01*
X151979298Y-104904816D01*
X151959307Y-104892834D01*
X151940587Y-104878950D01*
X151923317Y-104863298D01*
X151907665Y-104846028D01*
X151893781Y-104827308D01*
X151881799Y-104807317D01*
X151871834Y-104786247D01*
X151863982Y-104764303D01*
X151858318Y-104741694D01*
X151854899Y-104718639D01*
X151853755Y-104695360D01*
X151853755Y-104220360D01*
X151854899Y-104197081D01*
X151858318Y-104174026D01*
X151863982Y-104151417D01*
X151871834Y-104129473D01*
X151881799Y-104108403D01*
X151893781Y-104088412D01*
X151907665Y-104069692D01*
X151923317Y-104052422D01*
X151940587Y-104036770D01*
X151959307Y-104022886D01*
X151979298Y-104010904D01*
X152000368Y-104000939D01*
X152022312Y-103993087D01*
X152044921Y-103987423D01*
X152067976Y-103984004D01*
X152091255Y-103982860D01*
X152666255Y-103982860D01*
X152689534Y-103984004D01*
X152689534Y-103984004D01*
G37*
D12*
X152378755Y-104457860D03*
D11*
G36*
X150939534Y-103984004D02*
X150962589Y-103987423D01*
X150985198Y-103993087D01*
X151007142Y-104000939D01*
X151028212Y-104010904D01*
X151048203Y-104022886D01*
X151066923Y-104036770D01*
X151084193Y-104052422D01*
X151099845Y-104069692D01*
X151113729Y-104088412D01*
X151125711Y-104108403D01*
X151135676Y-104129473D01*
X151143528Y-104151417D01*
X151149192Y-104174026D01*
X151152611Y-104197081D01*
X151153755Y-104220360D01*
X151153755Y-104695360D01*
X151152611Y-104718639D01*
X151149192Y-104741694D01*
X151143528Y-104764303D01*
X151135676Y-104786247D01*
X151125711Y-104807317D01*
X151113729Y-104827308D01*
X151099845Y-104846028D01*
X151084193Y-104863298D01*
X151066923Y-104878950D01*
X151048203Y-104892834D01*
X151028212Y-104904816D01*
X151007142Y-104914781D01*
X150985198Y-104922633D01*
X150962589Y-104928297D01*
X150939534Y-104931716D01*
X150916255Y-104932860D01*
X150341255Y-104932860D01*
X150317976Y-104931716D01*
X150294921Y-104928297D01*
X150272312Y-104922633D01*
X150250368Y-104914781D01*
X150229298Y-104904816D01*
X150209307Y-104892834D01*
X150190587Y-104878950D01*
X150173317Y-104863298D01*
X150157665Y-104846028D01*
X150143781Y-104827308D01*
X150131799Y-104807317D01*
X150121834Y-104786247D01*
X150113982Y-104764303D01*
X150108318Y-104741694D01*
X150104899Y-104718639D01*
X150103755Y-104695360D01*
X150103755Y-104220360D01*
X150104899Y-104197081D01*
X150108318Y-104174026D01*
X150113982Y-104151417D01*
X150121834Y-104129473D01*
X150131799Y-104108403D01*
X150143781Y-104088412D01*
X150157665Y-104069692D01*
X150173317Y-104052422D01*
X150190587Y-104036770D01*
X150209307Y-104022886D01*
X150229298Y-104010904D01*
X150250368Y-104000939D01*
X150272312Y-103993087D01*
X150294921Y-103987423D01*
X150317976Y-103984004D01*
X150341255Y-103982860D01*
X150916255Y-103982860D01*
X150939534Y-103984004D01*
X150939534Y-103984004D01*
G37*
D12*
X150628755Y-104457860D03*
G04 #@! TD*
D11*
G04 #@! TO.C,R10*
G36*
X152809866Y-107310537D02*
X152832921Y-107313956D01*
X152855530Y-107319620D01*
X152877474Y-107327472D01*
X152898544Y-107337437D01*
X152918535Y-107349419D01*
X152937255Y-107363303D01*
X152954525Y-107378955D01*
X152970177Y-107396225D01*
X152984061Y-107414945D01*
X152996043Y-107434936D01*
X153006008Y-107456006D01*
X153013860Y-107477950D01*
X153019524Y-107500559D01*
X153022943Y-107523614D01*
X153024087Y-107546893D01*
X153024087Y-108021893D01*
X153022943Y-108045172D01*
X153019524Y-108068227D01*
X153013860Y-108090836D01*
X153006008Y-108112780D01*
X152996043Y-108133850D01*
X152984061Y-108153841D01*
X152970177Y-108172561D01*
X152954525Y-108189831D01*
X152937255Y-108205483D01*
X152918535Y-108219367D01*
X152898544Y-108231349D01*
X152877474Y-108241314D01*
X152855530Y-108249166D01*
X152832921Y-108254830D01*
X152809866Y-108258249D01*
X152786587Y-108259393D01*
X152211587Y-108259393D01*
X152188308Y-108258249D01*
X152165253Y-108254830D01*
X152142644Y-108249166D01*
X152120700Y-108241314D01*
X152099630Y-108231349D01*
X152079639Y-108219367D01*
X152060919Y-108205483D01*
X152043649Y-108189831D01*
X152027997Y-108172561D01*
X152014113Y-108153841D01*
X152002131Y-108133850D01*
X151992166Y-108112780D01*
X151984314Y-108090836D01*
X151978650Y-108068227D01*
X151975231Y-108045172D01*
X151974087Y-108021893D01*
X151974087Y-107546893D01*
X151975231Y-107523614D01*
X151978650Y-107500559D01*
X151984314Y-107477950D01*
X151992166Y-107456006D01*
X152002131Y-107434936D01*
X152014113Y-107414945D01*
X152027997Y-107396225D01*
X152043649Y-107378955D01*
X152060919Y-107363303D01*
X152079639Y-107349419D01*
X152099630Y-107337437D01*
X152120700Y-107327472D01*
X152142644Y-107319620D01*
X152165253Y-107313956D01*
X152188308Y-107310537D01*
X152211587Y-107309393D01*
X152786587Y-107309393D01*
X152809866Y-107310537D01*
X152809866Y-107310537D01*
G37*
D12*
X152499087Y-107784393D03*
D11*
G36*
X151059866Y-107310537D02*
X151082921Y-107313956D01*
X151105530Y-107319620D01*
X151127474Y-107327472D01*
X151148544Y-107337437D01*
X151168535Y-107349419D01*
X151187255Y-107363303D01*
X151204525Y-107378955D01*
X151220177Y-107396225D01*
X151234061Y-107414945D01*
X151246043Y-107434936D01*
X151256008Y-107456006D01*
X151263860Y-107477950D01*
X151269524Y-107500559D01*
X151272943Y-107523614D01*
X151274087Y-107546893D01*
X151274087Y-108021893D01*
X151272943Y-108045172D01*
X151269524Y-108068227D01*
X151263860Y-108090836D01*
X151256008Y-108112780D01*
X151246043Y-108133850D01*
X151234061Y-108153841D01*
X151220177Y-108172561D01*
X151204525Y-108189831D01*
X151187255Y-108205483D01*
X151168535Y-108219367D01*
X151148544Y-108231349D01*
X151127474Y-108241314D01*
X151105530Y-108249166D01*
X151082921Y-108254830D01*
X151059866Y-108258249D01*
X151036587Y-108259393D01*
X150461587Y-108259393D01*
X150438308Y-108258249D01*
X150415253Y-108254830D01*
X150392644Y-108249166D01*
X150370700Y-108241314D01*
X150349630Y-108231349D01*
X150329639Y-108219367D01*
X150310919Y-108205483D01*
X150293649Y-108189831D01*
X150277997Y-108172561D01*
X150264113Y-108153841D01*
X150252131Y-108133850D01*
X150242166Y-108112780D01*
X150234314Y-108090836D01*
X150228650Y-108068227D01*
X150225231Y-108045172D01*
X150224087Y-108021893D01*
X150224087Y-107546893D01*
X150225231Y-107523614D01*
X150228650Y-107500559D01*
X150234314Y-107477950D01*
X150242166Y-107456006D01*
X150252131Y-107434936D01*
X150264113Y-107414945D01*
X150277997Y-107396225D01*
X150293649Y-107378955D01*
X150310919Y-107363303D01*
X150329639Y-107349419D01*
X150349630Y-107337437D01*
X150370700Y-107327472D01*
X150392644Y-107319620D01*
X150415253Y-107313956D01*
X150438308Y-107310537D01*
X150461587Y-107309393D01*
X151036587Y-107309393D01*
X151059866Y-107310537D01*
X151059866Y-107310537D01*
G37*
D12*
X150749087Y-107784393D03*
G04 #@! TD*
D14*
G04 #@! TO.C,U1*
X139360601Y-80034401D03*
X136820601Y-80034401D03*
X134280601Y-80034401D03*
X131740601Y-80034401D03*
X129200601Y-80034401D03*
X126660601Y-80034401D03*
X124120601Y-80034401D03*
X121580601Y-80034401D03*
X119040601Y-80034401D03*
X116500601Y-80034401D03*
X139360601Y-82574401D03*
X136820601Y-82574401D03*
X134280601Y-82574401D03*
X131740601Y-82574401D03*
X129200601Y-82574401D03*
X126660601Y-82574401D03*
X124120601Y-82574401D03*
X121580601Y-82574401D03*
X119040601Y-82574401D03*
X116500601Y-82574401D03*
X139360601Y-125754401D03*
X136820601Y-125754401D03*
X134280601Y-125754401D03*
X131740601Y-125754401D03*
X129200601Y-125754401D03*
X126660601Y-125754401D03*
X124120601Y-125754401D03*
X121580601Y-125754401D03*
X119040601Y-125754401D03*
X116500601Y-125754401D03*
X139360601Y-123214401D03*
X136820601Y-123214401D03*
X134280601Y-123214401D03*
X131740601Y-123214401D03*
X129200601Y-123214401D03*
X126660601Y-123214401D03*
X124120601Y-123214401D03*
X121580601Y-123214401D03*
X119040601Y-123214401D03*
X116500601Y-123214401D03*
G04 #@! TD*
D11*
G04 #@! TO.C,D11*
G36*
X154897779Y-121568061D02*
X154920834Y-121571480D01*
X154943443Y-121577144D01*
X154965387Y-121584996D01*
X154986457Y-121594961D01*
X155006448Y-121606943D01*
X155025168Y-121620827D01*
X155042438Y-121636479D01*
X155058090Y-121653749D01*
X155071974Y-121672469D01*
X155083956Y-121692460D01*
X155093921Y-121713530D01*
X155101773Y-121735474D01*
X155107437Y-121758083D01*
X155110856Y-121781138D01*
X155112000Y-121804417D01*
X155112000Y-122279417D01*
X155110856Y-122302696D01*
X155107437Y-122325751D01*
X155101773Y-122348360D01*
X155093921Y-122370304D01*
X155083956Y-122391374D01*
X155071974Y-122411365D01*
X155058090Y-122430085D01*
X155042438Y-122447355D01*
X155025168Y-122463007D01*
X155006448Y-122476891D01*
X154986457Y-122488873D01*
X154965387Y-122498838D01*
X154943443Y-122506690D01*
X154920834Y-122512354D01*
X154897779Y-122515773D01*
X154874500Y-122516917D01*
X154299500Y-122516917D01*
X154276221Y-122515773D01*
X154253166Y-122512354D01*
X154230557Y-122506690D01*
X154208613Y-122498838D01*
X154187543Y-122488873D01*
X154167552Y-122476891D01*
X154148832Y-122463007D01*
X154131562Y-122447355D01*
X154115910Y-122430085D01*
X154102026Y-122411365D01*
X154090044Y-122391374D01*
X154080079Y-122370304D01*
X154072227Y-122348360D01*
X154066563Y-122325751D01*
X154063144Y-122302696D01*
X154062000Y-122279417D01*
X154062000Y-121804417D01*
X154063144Y-121781138D01*
X154066563Y-121758083D01*
X154072227Y-121735474D01*
X154080079Y-121713530D01*
X154090044Y-121692460D01*
X154102026Y-121672469D01*
X154115910Y-121653749D01*
X154131562Y-121636479D01*
X154148832Y-121620827D01*
X154167552Y-121606943D01*
X154187543Y-121594961D01*
X154208613Y-121584996D01*
X154230557Y-121577144D01*
X154253166Y-121571480D01*
X154276221Y-121568061D01*
X154299500Y-121566917D01*
X154874500Y-121566917D01*
X154897779Y-121568061D01*
X154897779Y-121568061D01*
G37*
D12*
X154587000Y-122041917D03*
D11*
G36*
X156647779Y-121568061D02*
X156670834Y-121571480D01*
X156693443Y-121577144D01*
X156715387Y-121584996D01*
X156736457Y-121594961D01*
X156756448Y-121606943D01*
X156775168Y-121620827D01*
X156792438Y-121636479D01*
X156808090Y-121653749D01*
X156821974Y-121672469D01*
X156833956Y-121692460D01*
X156843921Y-121713530D01*
X156851773Y-121735474D01*
X156857437Y-121758083D01*
X156860856Y-121781138D01*
X156862000Y-121804417D01*
X156862000Y-122279417D01*
X156860856Y-122302696D01*
X156857437Y-122325751D01*
X156851773Y-122348360D01*
X156843921Y-122370304D01*
X156833956Y-122391374D01*
X156821974Y-122411365D01*
X156808090Y-122430085D01*
X156792438Y-122447355D01*
X156775168Y-122463007D01*
X156756448Y-122476891D01*
X156736457Y-122488873D01*
X156715387Y-122498838D01*
X156693443Y-122506690D01*
X156670834Y-122512354D01*
X156647779Y-122515773D01*
X156624500Y-122516917D01*
X156049500Y-122516917D01*
X156026221Y-122515773D01*
X156003166Y-122512354D01*
X155980557Y-122506690D01*
X155958613Y-122498838D01*
X155937543Y-122488873D01*
X155917552Y-122476891D01*
X155898832Y-122463007D01*
X155881562Y-122447355D01*
X155865910Y-122430085D01*
X155852026Y-122411365D01*
X155840044Y-122391374D01*
X155830079Y-122370304D01*
X155822227Y-122348360D01*
X155816563Y-122325751D01*
X155813144Y-122302696D01*
X155812000Y-122279417D01*
X155812000Y-121804417D01*
X155813144Y-121781138D01*
X155816563Y-121758083D01*
X155822227Y-121735474D01*
X155830079Y-121713530D01*
X155840044Y-121692460D01*
X155852026Y-121672469D01*
X155865910Y-121653749D01*
X155881562Y-121636479D01*
X155898832Y-121620827D01*
X155917552Y-121606943D01*
X155937543Y-121594961D01*
X155958613Y-121584996D01*
X155980557Y-121577144D01*
X156003166Y-121571480D01*
X156026221Y-121568061D01*
X156049500Y-121566917D01*
X156624500Y-121566917D01*
X156647779Y-121568061D01*
X156647779Y-121568061D01*
G37*
D12*
X156337000Y-122041917D03*
G04 #@! TD*
D11*
G04 #@! TO.C,D12*
G36*
X156647779Y-124621144D02*
X156670834Y-124624563D01*
X156693443Y-124630227D01*
X156715387Y-124638079D01*
X156736457Y-124648044D01*
X156756448Y-124660026D01*
X156775168Y-124673910D01*
X156792438Y-124689562D01*
X156808090Y-124706832D01*
X156821974Y-124725552D01*
X156833956Y-124745543D01*
X156843921Y-124766613D01*
X156851773Y-124788557D01*
X156857437Y-124811166D01*
X156860856Y-124834221D01*
X156862000Y-124857500D01*
X156862000Y-125332500D01*
X156860856Y-125355779D01*
X156857437Y-125378834D01*
X156851773Y-125401443D01*
X156843921Y-125423387D01*
X156833956Y-125444457D01*
X156821974Y-125464448D01*
X156808090Y-125483168D01*
X156792438Y-125500438D01*
X156775168Y-125516090D01*
X156756448Y-125529974D01*
X156736457Y-125541956D01*
X156715387Y-125551921D01*
X156693443Y-125559773D01*
X156670834Y-125565437D01*
X156647779Y-125568856D01*
X156624500Y-125570000D01*
X156049500Y-125570000D01*
X156026221Y-125568856D01*
X156003166Y-125565437D01*
X155980557Y-125559773D01*
X155958613Y-125551921D01*
X155937543Y-125541956D01*
X155917552Y-125529974D01*
X155898832Y-125516090D01*
X155881562Y-125500438D01*
X155865910Y-125483168D01*
X155852026Y-125464448D01*
X155840044Y-125444457D01*
X155830079Y-125423387D01*
X155822227Y-125401443D01*
X155816563Y-125378834D01*
X155813144Y-125355779D01*
X155812000Y-125332500D01*
X155812000Y-124857500D01*
X155813144Y-124834221D01*
X155816563Y-124811166D01*
X155822227Y-124788557D01*
X155830079Y-124766613D01*
X155840044Y-124745543D01*
X155852026Y-124725552D01*
X155865910Y-124706832D01*
X155881562Y-124689562D01*
X155898832Y-124673910D01*
X155917552Y-124660026D01*
X155937543Y-124648044D01*
X155958613Y-124638079D01*
X155980557Y-124630227D01*
X156003166Y-124624563D01*
X156026221Y-124621144D01*
X156049500Y-124620000D01*
X156624500Y-124620000D01*
X156647779Y-124621144D01*
X156647779Y-124621144D01*
G37*
D12*
X156337000Y-125095000D03*
D11*
G36*
X154897779Y-124621144D02*
X154920834Y-124624563D01*
X154943443Y-124630227D01*
X154965387Y-124638079D01*
X154986457Y-124648044D01*
X155006448Y-124660026D01*
X155025168Y-124673910D01*
X155042438Y-124689562D01*
X155058090Y-124706832D01*
X155071974Y-124725552D01*
X155083956Y-124745543D01*
X155093921Y-124766613D01*
X155101773Y-124788557D01*
X155107437Y-124811166D01*
X155110856Y-124834221D01*
X155112000Y-124857500D01*
X155112000Y-125332500D01*
X155110856Y-125355779D01*
X155107437Y-125378834D01*
X155101773Y-125401443D01*
X155093921Y-125423387D01*
X155083956Y-125444457D01*
X155071974Y-125464448D01*
X155058090Y-125483168D01*
X155042438Y-125500438D01*
X155025168Y-125516090D01*
X155006448Y-125529974D01*
X154986457Y-125541956D01*
X154965387Y-125551921D01*
X154943443Y-125559773D01*
X154920834Y-125565437D01*
X154897779Y-125568856D01*
X154874500Y-125570000D01*
X154299500Y-125570000D01*
X154276221Y-125568856D01*
X154253166Y-125565437D01*
X154230557Y-125559773D01*
X154208613Y-125551921D01*
X154187543Y-125541956D01*
X154167552Y-125529974D01*
X154148832Y-125516090D01*
X154131562Y-125500438D01*
X154115910Y-125483168D01*
X154102026Y-125464448D01*
X154090044Y-125444457D01*
X154080079Y-125423387D01*
X154072227Y-125401443D01*
X154066563Y-125378834D01*
X154063144Y-125355779D01*
X154062000Y-125332500D01*
X154062000Y-124857500D01*
X154063144Y-124834221D01*
X154066563Y-124811166D01*
X154072227Y-124788557D01*
X154080079Y-124766613D01*
X154090044Y-124745543D01*
X154102026Y-124725552D01*
X154115910Y-124706832D01*
X154131562Y-124689562D01*
X154148832Y-124673910D01*
X154167552Y-124660026D01*
X154187543Y-124648044D01*
X154208613Y-124638079D01*
X154230557Y-124630227D01*
X154253166Y-124624563D01*
X154276221Y-124621144D01*
X154299500Y-124620000D01*
X154874500Y-124620000D01*
X154897779Y-124621144D01*
X154897779Y-124621144D01*
G37*
D12*
X154587000Y-125095000D03*
G04 #@! TD*
D11*
G04 #@! TO.C,R11*
G36*
X150967881Y-121568061D02*
X150990936Y-121571480D01*
X151013545Y-121577144D01*
X151035489Y-121584996D01*
X151056559Y-121594961D01*
X151076550Y-121606943D01*
X151095270Y-121620827D01*
X151112540Y-121636479D01*
X151128192Y-121653749D01*
X151142076Y-121672469D01*
X151154058Y-121692460D01*
X151164023Y-121713530D01*
X151171875Y-121735474D01*
X151177539Y-121758083D01*
X151180958Y-121781138D01*
X151182102Y-121804417D01*
X151182102Y-122279417D01*
X151180958Y-122302696D01*
X151177539Y-122325751D01*
X151171875Y-122348360D01*
X151164023Y-122370304D01*
X151154058Y-122391374D01*
X151142076Y-122411365D01*
X151128192Y-122430085D01*
X151112540Y-122447355D01*
X151095270Y-122463007D01*
X151076550Y-122476891D01*
X151056559Y-122488873D01*
X151035489Y-122498838D01*
X151013545Y-122506690D01*
X150990936Y-122512354D01*
X150967881Y-122515773D01*
X150944602Y-122516917D01*
X150369602Y-122516917D01*
X150346323Y-122515773D01*
X150323268Y-122512354D01*
X150300659Y-122506690D01*
X150278715Y-122498838D01*
X150257645Y-122488873D01*
X150237654Y-122476891D01*
X150218934Y-122463007D01*
X150201664Y-122447355D01*
X150186012Y-122430085D01*
X150172128Y-122411365D01*
X150160146Y-122391374D01*
X150150181Y-122370304D01*
X150142329Y-122348360D01*
X150136665Y-122325751D01*
X150133246Y-122302696D01*
X150132102Y-122279417D01*
X150132102Y-121804417D01*
X150133246Y-121781138D01*
X150136665Y-121758083D01*
X150142329Y-121735474D01*
X150150181Y-121713530D01*
X150160146Y-121692460D01*
X150172128Y-121672469D01*
X150186012Y-121653749D01*
X150201664Y-121636479D01*
X150218934Y-121620827D01*
X150237654Y-121606943D01*
X150257645Y-121594961D01*
X150278715Y-121584996D01*
X150300659Y-121577144D01*
X150323268Y-121571480D01*
X150346323Y-121568061D01*
X150369602Y-121566917D01*
X150944602Y-121566917D01*
X150967881Y-121568061D01*
X150967881Y-121568061D01*
G37*
D12*
X150657102Y-122041917D03*
D11*
G36*
X152717881Y-121568061D02*
X152740936Y-121571480D01*
X152763545Y-121577144D01*
X152785489Y-121584996D01*
X152806559Y-121594961D01*
X152826550Y-121606943D01*
X152845270Y-121620827D01*
X152862540Y-121636479D01*
X152878192Y-121653749D01*
X152892076Y-121672469D01*
X152904058Y-121692460D01*
X152914023Y-121713530D01*
X152921875Y-121735474D01*
X152927539Y-121758083D01*
X152930958Y-121781138D01*
X152932102Y-121804417D01*
X152932102Y-122279417D01*
X152930958Y-122302696D01*
X152927539Y-122325751D01*
X152921875Y-122348360D01*
X152914023Y-122370304D01*
X152904058Y-122391374D01*
X152892076Y-122411365D01*
X152878192Y-122430085D01*
X152862540Y-122447355D01*
X152845270Y-122463007D01*
X152826550Y-122476891D01*
X152806559Y-122488873D01*
X152785489Y-122498838D01*
X152763545Y-122506690D01*
X152740936Y-122512354D01*
X152717881Y-122515773D01*
X152694602Y-122516917D01*
X152119602Y-122516917D01*
X152096323Y-122515773D01*
X152073268Y-122512354D01*
X152050659Y-122506690D01*
X152028715Y-122498838D01*
X152007645Y-122488873D01*
X151987654Y-122476891D01*
X151968934Y-122463007D01*
X151951664Y-122447355D01*
X151936012Y-122430085D01*
X151922128Y-122411365D01*
X151910146Y-122391374D01*
X151900181Y-122370304D01*
X151892329Y-122348360D01*
X151886665Y-122325751D01*
X151883246Y-122302696D01*
X151882102Y-122279417D01*
X151882102Y-121804417D01*
X151883246Y-121781138D01*
X151886665Y-121758083D01*
X151892329Y-121735474D01*
X151900181Y-121713530D01*
X151910146Y-121692460D01*
X151922128Y-121672469D01*
X151936012Y-121653749D01*
X151951664Y-121636479D01*
X151968934Y-121620827D01*
X151987654Y-121606943D01*
X152007645Y-121594961D01*
X152028715Y-121584996D01*
X152050659Y-121577144D01*
X152073268Y-121571480D01*
X152096323Y-121568061D01*
X152119602Y-121566917D01*
X152694602Y-121566917D01*
X152717881Y-121568061D01*
X152717881Y-121568061D01*
G37*
D12*
X152407102Y-122041917D03*
G04 #@! TD*
D11*
G04 #@! TO.C,R12*
G36*
X152717881Y-124616061D02*
X152740936Y-124619480D01*
X152763545Y-124625144D01*
X152785489Y-124632996D01*
X152806559Y-124642961D01*
X152826550Y-124654943D01*
X152845270Y-124668827D01*
X152862540Y-124684479D01*
X152878192Y-124701749D01*
X152892076Y-124720469D01*
X152904058Y-124740460D01*
X152914023Y-124761530D01*
X152921875Y-124783474D01*
X152927539Y-124806083D01*
X152930958Y-124829138D01*
X152932102Y-124852417D01*
X152932102Y-125327417D01*
X152930958Y-125350696D01*
X152927539Y-125373751D01*
X152921875Y-125396360D01*
X152914023Y-125418304D01*
X152904058Y-125439374D01*
X152892076Y-125459365D01*
X152878192Y-125478085D01*
X152862540Y-125495355D01*
X152845270Y-125511007D01*
X152826550Y-125524891D01*
X152806559Y-125536873D01*
X152785489Y-125546838D01*
X152763545Y-125554690D01*
X152740936Y-125560354D01*
X152717881Y-125563773D01*
X152694602Y-125564917D01*
X152119602Y-125564917D01*
X152096323Y-125563773D01*
X152073268Y-125560354D01*
X152050659Y-125554690D01*
X152028715Y-125546838D01*
X152007645Y-125536873D01*
X151987654Y-125524891D01*
X151968934Y-125511007D01*
X151951664Y-125495355D01*
X151936012Y-125478085D01*
X151922128Y-125459365D01*
X151910146Y-125439374D01*
X151900181Y-125418304D01*
X151892329Y-125396360D01*
X151886665Y-125373751D01*
X151883246Y-125350696D01*
X151882102Y-125327417D01*
X151882102Y-124852417D01*
X151883246Y-124829138D01*
X151886665Y-124806083D01*
X151892329Y-124783474D01*
X151900181Y-124761530D01*
X151910146Y-124740460D01*
X151922128Y-124720469D01*
X151936012Y-124701749D01*
X151951664Y-124684479D01*
X151968934Y-124668827D01*
X151987654Y-124654943D01*
X152007645Y-124642961D01*
X152028715Y-124632996D01*
X152050659Y-124625144D01*
X152073268Y-124619480D01*
X152096323Y-124616061D01*
X152119602Y-124614917D01*
X152694602Y-124614917D01*
X152717881Y-124616061D01*
X152717881Y-124616061D01*
G37*
D12*
X152407102Y-125089917D03*
D11*
G36*
X150967881Y-124616061D02*
X150990936Y-124619480D01*
X151013545Y-124625144D01*
X151035489Y-124632996D01*
X151056559Y-124642961D01*
X151076550Y-124654943D01*
X151095270Y-124668827D01*
X151112540Y-124684479D01*
X151128192Y-124701749D01*
X151142076Y-124720469D01*
X151154058Y-124740460D01*
X151164023Y-124761530D01*
X151171875Y-124783474D01*
X151177539Y-124806083D01*
X151180958Y-124829138D01*
X151182102Y-124852417D01*
X151182102Y-125327417D01*
X151180958Y-125350696D01*
X151177539Y-125373751D01*
X151171875Y-125396360D01*
X151164023Y-125418304D01*
X151154058Y-125439374D01*
X151142076Y-125459365D01*
X151128192Y-125478085D01*
X151112540Y-125495355D01*
X151095270Y-125511007D01*
X151076550Y-125524891D01*
X151056559Y-125536873D01*
X151035489Y-125546838D01*
X151013545Y-125554690D01*
X150990936Y-125560354D01*
X150967881Y-125563773D01*
X150944602Y-125564917D01*
X150369602Y-125564917D01*
X150346323Y-125563773D01*
X150323268Y-125560354D01*
X150300659Y-125554690D01*
X150278715Y-125546838D01*
X150257645Y-125536873D01*
X150237654Y-125524891D01*
X150218934Y-125511007D01*
X150201664Y-125495355D01*
X150186012Y-125478085D01*
X150172128Y-125459365D01*
X150160146Y-125439374D01*
X150150181Y-125418304D01*
X150142329Y-125396360D01*
X150136665Y-125373751D01*
X150133246Y-125350696D01*
X150132102Y-125327417D01*
X150132102Y-124852417D01*
X150133246Y-124829138D01*
X150136665Y-124806083D01*
X150142329Y-124783474D01*
X150150181Y-124761530D01*
X150160146Y-124740460D01*
X150172128Y-124720469D01*
X150186012Y-124701749D01*
X150201664Y-124684479D01*
X150218934Y-124668827D01*
X150237654Y-124654943D01*
X150257645Y-124642961D01*
X150278715Y-124632996D01*
X150300659Y-124625144D01*
X150323268Y-124619480D01*
X150346323Y-124616061D01*
X150369602Y-124614917D01*
X150944602Y-124614917D01*
X150967881Y-124616061D01*
X150967881Y-124616061D01*
G37*
D12*
X150657102Y-125089917D03*
G04 #@! TD*
D15*
G04 #@! TO.C,BT1*
X133858000Y-58166000D03*
X118618000Y-58166000D03*
D16*
X126238000Y-58166000D03*
G04 #@! TD*
M02*
