%TF.GenerationSoftware,KiCad,Pcbnew,(6.0.1)*%
%TF.CreationDate,2022-11-25T01:31:12-06:00*%
%TF.ProjectId,NavBoard_Hardware,4e617642-6f61-4726-945f-486172647761,rev?*%
%TF.SameCoordinates,Original*%
%TF.FileFunction,Copper,L2,Inr*%
%TF.FilePolarity,Positive*%
%FSLAX46Y46*%
G04 Gerber Fmt 4.6, Leading zero omitted, Abs format (unit mm)*
G04 Created by KiCad (PCBNEW (6.0.1)) date 2022-11-25 01:31:12*
%MOMM*%
%LPD*%
G01*
G04 APERTURE LIST*
G04 Aperture macros list*
%AMRoundRect*
0 Rectangle with rounded corners*
0 $1 Rounding radius*
0 $2 $3 $4 $5 $6 $7 $8 $9 X,Y pos of 4 corners*
0 Add a 4 corners polygon primitive as box body*
4,1,4,$2,$3,$4,$5,$6,$7,$8,$9,$2,$3,0*
0 Add four circle primitives for the rounded corners*
1,1,$1+$1,$2,$3*
1,1,$1+$1,$4,$5*
1,1,$1+$1,$6,$7*
1,1,$1+$1,$8,$9*
0 Add four rect primitives between the rounded corners*
20,1,$1+$1,$2,$3,$4,$5,0*
20,1,$1+$1,$4,$5,$6,$7,0*
20,1,$1+$1,$6,$7,$8,$9,0*
20,1,$1+$1,$8,$9,$2,$3,0*%
G04 Aperture macros list end*
%TA.AperFunction,ComponentPad*%
%ADD10R,1.800000X1.800000*%
%TD*%
%TA.AperFunction,ComponentPad*%
%ADD11C,1.800000*%
%TD*%
%TA.AperFunction,ComponentPad*%
%ADD12C,6.000000*%
%TD*%
%TA.AperFunction,ComponentPad*%
%ADD13RoundRect,0.250500X-0.499500X0.499500X-0.499500X-0.499500X0.499500X-0.499500X0.499500X0.499500X0*%
%TD*%
%TA.AperFunction,ComponentPad*%
%ADD14C,1.500000*%
%TD*%
%TA.AperFunction,ComponentPad*%
%ADD15C,2.500000*%
%TD*%
%TA.AperFunction,ComponentPad*%
%ADD16C,1.524000*%
%TD*%
%TA.AperFunction,ComponentPad*%
%ADD17R,1.600000X1.600000*%
%TD*%
%TA.AperFunction,ComponentPad*%
%ADD18C,1.600000*%
%TD*%
%TA.AperFunction,ComponentPad*%
%ADD19R,1.300000X1.300000*%
%TD*%
%TA.AperFunction,ComponentPad*%
%ADD20C,1.300000*%
%TD*%
%TA.AperFunction,ComponentPad*%
%ADD21O,3.000000X5.100000*%
%TD*%
%TA.AperFunction,ViaPad*%
%ADD22C,0.800000*%
%TD*%
G04 APERTURE END LIST*
D10*
%TO.N,+12V*%
%TO.C,U2*%
X81480000Y-68087500D03*
D11*
%TO.N,GND*%
X81480000Y-70627500D03*
%TO.N,+5V*%
X81480000Y-73167500D03*
%TD*%
D12*
%TO.N,GND*%
%TO.C,H3*%
X153300000Y-83100000D03*
%TD*%
%TO.N,GND*%
%TO.C,H2*%
X153300000Y-58000000D03*
%TD*%
%TO.N,GND*%
%TO.C,H1*%
X61300000Y-58000000D03*
%TD*%
D13*
%TO.N,/ETHERNET_TX+*%
%TO.C,J2*%
X70425000Y-66100000D03*
D14*
%TO.N,Net-(C1-Pad1)*%
X72965000Y-67370000D03*
%TO.N,/ETHERNET_TX-*%
X70425000Y-68640000D03*
%TO.N,/ETHERNET_RX+*%
X72965000Y-69910000D03*
%TO.N,Net-(C1-Pad1)*%
X70425000Y-71180000D03*
%TO.N,/ETHERNET_RX-*%
X72965000Y-72450000D03*
%TO.N,unconnected-(J2-Pad7)*%
X70425000Y-73720000D03*
%TO.N,GND*%
X72965000Y-74990000D03*
X58995000Y-64220000D03*
%TO.N,/ETHERNET_LED*%
X60695000Y-66760000D03*
%TO.N,unconnected-(J2-Pad11)*%
X58995000Y-74330000D03*
%TO.N,unconnected-(J2-Pad12)*%
X60695000Y-76870000D03*
D15*
%TO.N,GND*%
X67125000Y-78420000D03*
X67125000Y-62670000D03*
%TD*%
D12*
%TO.N,GND*%
%TO.C,H4*%
X61300000Y-83100000D03*
%TD*%
D16*
%TO.N,+5V*%
%TO.C,J1*%
X146612000Y-76900000D03*
%TO.N,GND*%
X146612000Y-74360000D03*
%TO.N,/GPS-TX*%
X146612000Y-71820000D03*
%TO.N,/GPS-RX*%
X146612000Y-69280000D03*
%TO.N,Net-(J1-Pad5)*%
X146612000Y-66740000D03*
%TO.N,Net-(J1-Pad6)*%
X146612000Y-64200000D03*
%TD*%
D17*
%TO.N,GND*%
%TO.C,U1*%
X78550200Y-62900000D03*
D18*
%TO.N,unconnected-(U1-Pad2)*%
X81090200Y-62900000D03*
%TO.N,unconnected-(U1-Pad3)*%
X83630200Y-62900000D03*
%TO.N,unconnected-(U1-Pad4)*%
X86170200Y-62900000D03*
%TO.N,unconnected-(U1-Pad5)*%
X88710200Y-62900000D03*
%TO.N,unconnected-(U1-Pad6)*%
X91250200Y-62900000D03*
%TO.N,unconnected-(U1-Pad7)*%
X93790200Y-62900000D03*
%TO.N,unconnected-(U1-Pad8)*%
X96330200Y-62900000D03*
%TO.N,unconnected-(U1-Pad9)*%
X98870200Y-62900000D03*
%TO.N,/BHI-SDA*%
X101410200Y-62900000D03*
%TO.N,/BHI-SCL*%
X103950200Y-62900000D03*
%TO.N,unconnected-(U1-Pad12)*%
X106490200Y-62900000D03*
%TO.N,unconnected-(U1-Pad13)*%
X109030200Y-62900000D03*
%TO.N,/ICM-SCLK*%
X111570200Y-62900000D03*
%TO.N,+3V3*%
X114110200Y-62900000D03*
%TO.N,unconnected-(U1-Pad16)*%
X116650200Y-62900000D03*
%TO.N,unconnected-(U1-Pad17)*%
X119190200Y-62900000D03*
%TO.N,unconnected-(U1-Pad18)*%
X121730200Y-62900000D03*
%TO.N,unconnected-(U1-Pad19)*%
X124270200Y-62900000D03*
%TO.N,unconnected-(U1-Pad20)*%
X126810200Y-62900000D03*
%TO.N,unconnected-(U1-Pad21)*%
X129350200Y-62900000D03*
%TO.N,/GPS-TX*%
X131890200Y-62900000D03*
%TO.N,/GPS-RX*%
X134430200Y-62900000D03*
%TO.N,unconnected-(U1-Pad24)*%
X136970200Y-62900000D03*
%TO.N,unconnected-(U1-Pad25)*%
X136970200Y-78140000D03*
%TO.N,/SPI_LED*%
X134430200Y-78140000D03*
%TO.N,/UART_LED*%
X131890200Y-78140000D03*
%TO.N,/I2C_LED*%
X129350200Y-78140000D03*
%TO.N,unconnected-(U1-Pad29)*%
X126810200Y-78140000D03*
%TO.N,unconnected-(U1-Pad30)*%
X124270200Y-78140000D03*
%TO.N,unconnected-(U1-Pad31)*%
X121730200Y-78140000D03*
%TO.N,/GPS-SDA*%
X119190200Y-78140000D03*
%TO.N,/GPS-SCL*%
X116650200Y-78140000D03*
%TO.N,GND*%
X114110200Y-78140000D03*
%TO.N,/ICM-MISO*%
X111570200Y-78140000D03*
%TO.N,/ICM-MOSI*%
X109030200Y-78140000D03*
%TO.N,/ICM-CS*%
X106490200Y-78140000D03*
%TO.N,unconnected-(U1-Pad38)*%
X103950200Y-78140000D03*
%TO.N,unconnected-(U1-Pad39)*%
X101410200Y-78140000D03*
%TO.N,unconnected-(U1-Pad40)*%
X98870200Y-78140000D03*
%TO.N,unconnected-(U1-Pad41)*%
X96330200Y-78140000D03*
%TO.N,unconnected-(U1-Pad42)*%
X93790200Y-78140000D03*
%TO.N,unconnected-(U1-Pad43)*%
X91250200Y-78140000D03*
%TO.N,unconnected-(U1-Pad44)*%
X88710200Y-78140000D03*
%TO.N,unconnected-(U1-Pad45)*%
X86170200Y-78140000D03*
%TO.N,+3V3*%
X83630200Y-78140000D03*
%TO.N,GND*%
X81090200Y-78140000D03*
%TO.N,+5V*%
X78550200Y-78140000D03*
D19*
%TO.N,/ETHERNET_RX+*%
X91520200Y-75701600D03*
D20*
%TO.N,/ETHERNET_LED*%
X91520200Y-73701600D03*
%TO.N,/ETHERNET_TX-*%
X91520200Y-71701600D03*
%TO.N,/ETHERNET_TX+*%
X93520200Y-71701600D03*
%TO.N,GND*%
X93520200Y-73701600D03*
%TO.N,/ETHERNET_RX-*%
X93520200Y-75701600D03*
%TD*%
D21*
%TO.N,GND*%
%TO.C,Conn1*%
X153300000Y-66600000D03*
%TO.N,+12V*%
X153300000Y-74474000D03*
%TD*%
D22*
%TO.N,+3V3*%
X107950000Y-71049999D03*
X106455000Y-71049999D03*
X123648929Y-67938570D03*
X139200000Y-69400000D03*
X85700000Y-73600000D03*
X129900000Y-67100000D03*
X104755000Y-72350000D03*
X132400000Y-66900000D03*
X124548929Y-72038570D03*
X114000000Y-76400000D03*
X122648929Y-67438570D03*
X117400000Y-65200000D03*
%TO.N,GND*%
X78800000Y-67700000D03*
X115400000Y-68000000D03*
X134950000Y-65400000D03*
X142650000Y-68050000D03*
X110900000Y-65600000D03*
X106700000Y-75250000D03*
X107700000Y-65600000D03*
X102855000Y-72650000D03*
X116100000Y-73400000D03*
X98067501Y-75262499D03*
X140650000Y-66050000D03*
X100855000Y-70600000D03*
X138200000Y-68500000D03*
X96300000Y-75300000D03*
X79000000Y-69000000D03*
X100479999Y-75375001D03*
X126248929Y-71938570D03*
X120748929Y-67538570D03*
X121748929Y-70338570D03*
X103755000Y-69550000D03*
X99400000Y-64700000D03*
X119900000Y-64700000D03*
X111000000Y-76000000D03*
X102800000Y-64100000D03*
X144700000Y-69900000D03*
X108255000Y-75250000D03*
%TO.N,+5V*%
X85000000Y-68000000D03*
%TO.N,/ETHERNET_LED*%
X87300000Y-75200000D03*
%TO.N,Net-(R11-Pad1)*%
X118948929Y-69838570D03*
%TO.N,/ICM-CS*%
X112600000Y-69700000D03*
%TO.N,/ICM-SCLK*%
X109300000Y-71000000D03*
%TD*%
%TA.AperFunction,Conductor*%
%TO.N,GND*%
G36*
X61664960Y-54514153D02*
G01*
X61677035Y-54514955D01*
X62018575Y-54554209D01*
X62030520Y-54556167D01*
X62126100Y-54576601D01*
X62366711Y-54628042D01*
X62378424Y-54631142D01*
X62706157Y-54734976D01*
X62717517Y-54739187D01*
X63033743Y-54874010D01*
X63044647Y-54879292D01*
X63346475Y-55043871D01*
X63356822Y-55050176D01*
X63641442Y-55242981D01*
X63651125Y-55250242D01*
X63717019Y-55304804D01*
X63915921Y-55469501D01*
X63924871Y-55477668D01*
X64167379Y-55721340D01*
X64175498Y-55730324D01*
X64393480Y-55996160D01*
X64400700Y-56005883D01*
X64579395Y-56272415D01*
X64592146Y-56291434D01*
X64598401Y-56301811D01*
X64761531Y-56604421D01*
X64766761Y-56615350D01*
X64900070Y-56932225D01*
X64904225Y-56943604D01*
X64936027Y-57045676D01*
X64995479Y-57236500D01*
X65000559Y-57261467D01*
X65000803Y-57263917D01*
X65000804Y-57263921D01*
X65001695Y-57272848D01*
X65017813Y-57312743D01*
X65019271Y-57316352D01*
X65022783Y-57326205D01*
X65449450Y-58701025D01*
X65453906Y-58720982D01*
X65456185Y-58737339D01*
X65456188Y-58737352D01*
X65456858Y-58742162D01*
X65460479Y-58754168D01*
X65462587Y-58758561D01*
X65464257Y-58762865D01*
X65466295Y-58767718D01*
X65586327Y-59098303D01*
X65600706Y-59137906D01*
X65772730Y-59508440D01*
X65976073Y-59862755D01*
X66209221Y-60198210D01*
X66470435Y-60512304D01*
X66472348Y-60514237D01*
X66472354Y-60514244D01*
X66605307Y-60648613D01*
X66757768Y-60802697D01*
X66759827Y-60804446D01*
X66759835Y-60804454D01*
X66884295Y-60910209D01*
X67069078Y-61067222D01*
X67071298Y-61068800D01*
X67071303Y-61068804D01*
X67218733Y-61173604D01*
X67402045Y-61303910D01*
X67404372Y-61305279D01*
X67404376Y-61305281D01*
X67751840Y-61509614D01*
X67754187Y-61510994D01*
X68122878Y-61686933D01*
X68125422Y-61687887D01*
X68125426Y-61687889D01*
X68402357Y-61791771D01*
X68505372Y-61830414D01*
X68507982Y-61831143D01*
X68507993Y-61831147D01*
X68896191Y-61939635D01*
X68896198Y-61939637D01*
X68898815Y-61940368D01*
X69300277Y-62015974D01*
X69706764Y-62056671D01*
X69709473Y-62056707D01*
X69709484Y-62056708D01*
X69907711Y-62059368D01*
X70085051Y-62061749D01*
X70093046Y-62062352D01*
X70093051Y-62062262D01*
X70097911Y-62062553D01*
X70102733Y-62063217D01*
X70107596Y-62063132D01*
X70107601Y-62063132D01*
X70109431Y-62063099D01*
X70115271Y-62062997D01*
X70133335Y-62059859D01*
X70154900Y-62058000D01*
X79841947Y-62058000D01*
X79910068Y-62078002D01*
X79956561Y-62131658D01*
X79966665Y-62201932D01*
X79952407Y-62243125D01*
X79952677Y-62243251D01*
X79855916Y-62450757D01*
X79796657Y-62671913D01*
X79776702Y-62900000D01*
X79796657Y-63128087D01*
X79798081Y-63133400D01*
X79798081Y-63133402D01*
X79811966Y-63185219D01*
X79855916Y-63349243D01*
X79858239Y-63354224D01*
X79858239Y-63354225D01*
X79950351Y-63551762D01*
X79950354Y-63551767D01*
X79952677Y-63556749D01*
X80084002Y-63744300D01*
X80245900Y-63906198D01*
X80250408Y-63909355D01*
X80250411Y-63909357D01*
X80328589Y-63964098D01*
X80433451Y-64037523D01*
X80438433Y-64039846D01*
X80438438Y-64039849D01*
X80635975Y-64131961D01*
X80640957Y-64134284D01*
X80646265Y-64135706D01*
X80646267Y-64135707D01*
X80856798Y-64192119D01*
X80856800Y-64192119D01*
X80862113Y-64193543D01*
X81090200Y-64213498D01*
X81318287Y-64193543D01*
X81323600Y-64192119D01*
X81323602Y-64192119D01*
X81534133Y-64135707D01*
X81534135Y-64135706D01*
X81539443Y-64134284D01*
X81544425Y-64131961D01*
X81741962Y-64039849D01*
X81741967Y-64039846D01*
X81746949Y-64037523D01*
X81851811Y-63964098D01*
X81929989Y-63909357D01*
X81929992Y-63909355D01*
X81934500Y-63906198D01*
X82096398Y-63744300D01*
X82227723Y-63556749D01*
X82230046Y-63551767D01*
X82230049Y-63551762D01*
X82246005Y-63517543D01*
X82292922Y-63464258D01*
X82361199Y-63444797D01*
X82429159Y-63465339D01*
X82474395Y-63517543D01*
X82490351Y-63551762D01*
X82490354Y-63551767D01*
X82492677Y-63556749D01*
X82624002Y-63744300D01*
X82785900Y-63906198D01*
X82790408Y-63909355D01*
X82790411Y-63909357D01*
X82868589Y-63964098D01*
X82973451Y-64037523D01*
X82978433Y-64039846D01*
X82978438Y-64039849D01*
X83175975Y-64131961D01*
X83180957Y-64134284D01*
X83186265Y-64135706D01*
X83186267Y-64135707D01*
X83396798Y-64192119D01*
X83396800Y-64192119D01*
X83402113Y-64193543D01*
X83630200Y-64213498D01*
X83858287Y-64193543D01*
X83863600Y-64192119D01*
X83863602Y-64192119D01*
X84074133Y-64135707D01*
X84074135Y-64135706D01*
X84079443Y-64134284D01*
X84084425Y-64131961D01*
X84281962Y-64039849D01*
X84281967Y-64039846D01*
X84286949Y-64037523D01*
X84391811Y-63964098D01*
X84469989Y-63909357D01*
X84469992Y-63909355D01*
X84474500Y-63906198D01*
X84636398Y-63744300D01*
X84767723Y-63556749D01*
X84770046Y-63551767D01*
X84770049Y-63551762D01*
X84786005Y-63517543D01*
X84832922Y-63464258D01*
X84901199Y-63444797D01*
X84969159Y-63465339D01*
X85014395Y-63517543D01*
X85030351Y-63551762D01*
X85030354Y-63551767D01*
X85032677Y-63556749D01*
X85164002Y-63744300D01*
X85325900Y-63906198D01*
X85330408Y-63909355D01*
X85330411Y-63909357D01*
X85408589Y-63964098D01*
X85513451Y-64037523D01*
X85518433Y-64039846D01*
X85518438Y-64039849D01*
X85715975Y-64131961D01*
X85720957Y-64134284D01*
X85726265Y-64135706D01*
X85726267Y-64135707D01*
X85936798Y-64192119D01*
X85936800Y-64192119D01*
X85942113Y-64193543D01*
X86170200Y-64213498D01*
X86398287Y-64193543D01*
X86403600Y-64192119D01*
X86403602Y-64192119D01*
X86614133Y-64135707D01*
X86614135Y-64135706D01*
X86619443Y-64134284D01*
X86624425Y-64131961D01*
X86821962Y-64039849D01*
X86821967Y-64039846D01*
X86826949Y-64037523D01*
X86931811Y-63964098D01*
X87009989Y-63909357D01*
X87009992Y-63909355D01*
X87014500Y-63906198D01*
X87176398Y-63744300D01*
X87307723Y-63556749D01*
X87310046Y-63551767D01*
X87310049Y-63551762D01*
X87326005Y-63517543D01*
X87372922Y-63464258D01*
X87441199Y-63444797D01*
X87509159Y-63465339D01*
X87554395Y-63517543D01*
X87570351Y-63551762D01*
X87570354Y-63551767D01*
X87572677Y-63556749D01*
X87704002Y-63744300D01*
X87865900Y-63906198D01*
X87870408Y-63909355D01*
X87870411Y-63909357D01*
X87948589Y-63964098D01*
X88053451Y-64037523D01*
X88058433Y-64039846D01*
X88058438Y-64039849D01*
X88255975Y-64131961D01*
X88260957Y-64134284D01*
X88266265Y-64135706D01*
X88266267Y-64135707D01*
X88476798Y-64192119D01*
X88476800Y-64192119D01*
X88482113Y-64193543D01*
X88710200Y-64213498D01*
X88938287Y-64193543D01*
X88943600Y-64192119D01*
X88943602Y-64192119D01*
X89154133Y-64135707D01*
X89154135Y-64135706D01*
X89159443Y-64134284D01*
X89164425Y-64131961D01*
X89361962Y-64039849D01*
X89361967Y-64039846D01*
X89366949Y-64037523D01*
X89471811Y-63964098D01*
X89549989Y-63909357D01*
X89549992Y-63909355D01*
X89554500Y-63906198D01*
X89716398Y-63744300D01*
X89847723Y-63556749D01*
X89850046Y-63551767D01*
X89850049Y-63551762D01*
X89866005Y-63517543D01*
X89912922Y-63464258D01*
X89981199Y-63444797D01*
X90049159Y-63465339D01*
X90094395Y-63517543D01*
X90110351Y-63551762D01*
X90110354Y-63551767D01*
X90112677Y-63556749D01*
X90244002Y-63744300D01*
X90405900Y-63906198D01*
X90410408Y-63909355D01*
X90410411Y-63909357D01*
X90488589Y-63964098D01*
X90593451Y-64037523D01*
X90598433Y-64039846D01*
X90598438Y-64039849D01*
X90795975Y-64131961D01*
X90800957Y-64134284D01*
X90806265Y-64135706D01*
X90806267Y-64135707D01*
X91016798Y-64192119D01*
X91016800Y-64192119D01*
X91022113Y-64193543D01*
X91250200Y-64213498D01*
X91478287Y-64193543D01*
X91483600Y-64192119D01*
X91483602Y-64192119D01*
X91694133Y-64135707D01*
X91694135Y-64135706D01*
X91699443Y-64134284D01*
X91704425Y-64131961D01*
X91901962Y-64039849D01*
X91901967Y-64039846D01*
X91906949Y-64037523D01*
X92011811Y-63964098D01*
X92089989Y-63909357D01*
X92089992Y-63909355D01*
X92094500Y-63906198D01*
X92256398Y-63744300D01*
X92387723Y-63556749D01*
X92390046Y-63551767D01*
X92390049Y-63551762D01*
X92406005Y-63517543D01*
X92452922Y-63464258D01*
X92521199Y-63444797D01*
X92589159Y-63465339D01*
X92634395Y-63517543D01*
X92650351Y-63551762D01*
X92650354Y-63551767D01*
X92652677Y-63556749D01*
X92784002Y-63744300D01*
X92945900Y-63906198D01*
X92950408Y-63909355D01*
X92950411Y-63909357D01*
X93028589Y-63964098D01*
X93133451Y-64037523D01*
X93138433Y-64039846D01*
X93138438Y-64039849D01*
X93335975Y-64131961D01*
X93340957Y-64134284D01*
X93346265Y-64135706D01*
X93346267Y-64135707D01*
X93556798Y-64192119D01*
X93556800Y-64192119D01*
X93562113Y-64193543D01*
X93790200Y-64213498D01*
X94018287Y-64193543D01*
X94023600Y-64192119D01*
X94023602Y-64192119D01*
X94234133Y-64135707D01*
X94234135Y-64135706D01*
X94239443Y-64134284D01*
X94244425Y-64131961D01*
X94441962Y-64039849D01*
X94441967Y-64039846D01*
X94446949Y-64037523D01*
X94551811Y-63964098D01*
X94629989Y-63909357D01*
X94629992Y-63909355D01*
X94634500Y-63906198D01*
X94796398Y-63744300D01*
X94927723Y-63556749D01*
X94930046Y-63551767D01*
X94930049Y-63551762D01*
X94946005Y-63517543D01*
X94992922Y-63464258D01*
X95061199Y-63444797D01*
X95129159Y-63465339D01*
X95174395Y-63517543D01*
X95190351Y-63551762D01*
X95190354Y-63551767D01*
X95192677Y-63556749D01*
X95324002Y-63744300D01*
X95485900Y-63906198D01*
X95490408Y-63909355D01*
X95490411Y-63909357D01*
X95568589Y-63964098D01*
X95673451Y-64037523D01*
X95678433Y-64039846D01*
X95678438Y-64039849D01*
X95875975Y-64131961D01*
X95880957Y-64134284D01*
X95886265Y-64135706D01*
X95886267Y-64135707D01*
X96096798Y-64192119D01*
X96096800Y-64192119D01*
X96102113Y-64193543D01*
X96330200Y-64213498D01*
X96558287Y-64193543D01*
X96563600Y-64192119D01*
X96563602Y-64192119D01*
X96774133Y-64135707D01*
X96774135Y-64135706D01*
X96779443Y-64134284D01*
X96784425Y-64131961D01*
X96981962Y-64039849D01*
X96981967Y-64039846D01*
X96986949Y-64037523D01*
X97091811Y-63964098D01*
X97169989Y-63909357D01*
X97169992Y-63909355D01*
X97174500Y-63906198D01*
X97336398Y-63744300D01*
X97467723Y-63556749D01*
X97470046Y-63551767D01*
X97470049Y-63551762D01*
X97486005Y-63517543D01*
X97532922Y-63464258D01*
X97601199Y-63444797D01*
X97669159Y-63465339D01*
X97714395Y-63517543D01*
X97730351Y-63551762D01*
X97730354Y-63551767D01*
X97732677Y-63556749D01*
X97864002Y-63744300D01*
X98025900Y-63906198D01*
X98030408Y-63909355D01*
X98030411Y-63909357D01*
X98108589Y-63964098D01*
X98213451Y-64037523D01*
X98218433Y-64039846D01*
X98218438Y-64039849D01*
X98415975Y-64131961D01*
X98420957Y-64134284D01*
X98426265Y-64135706D01*
X98426267Y-64135707D01*
X98636798Y-64192119D01*
X98636800Y-64192119D01*
X98642113Y-64193543D01*
X98870200Y-64213498D01*
X99098287Y-64193543D01*
X99103600Y-64192119D01*
X99103602Y-64192119D01*
X99314133Y-64135707D01*
X99314135Y-64135706D01*
X99319443Y-64134284D01*
X99324425Y-64131961D01*
X99521962Y-64039849D01*
X99521967Y-64039846D01*
X99526949Y-64037523D01*
X99631811Y-63964098D01*
X99709989Y-63909357D01*
X99709992Y-63909355D01*
X99714500Y-63906198D01*
X99876398Y-63744300D01*
X100007723Y-63556749D01*
X100010046Y-63551767D01*
X100010049Y-63551762D01*
X100026005Y-63517543D01*
X100072922Y-63464258D01*
X100141199Y-63444797D01*
X100209159Y-63465339D01*
X100254395Y-63517543D01*
X100270351Y-63551762D01*
X100270354Y-63551767D01*
X100272677Y-63556749D01*
X100404002Y-63744300D01*
X100565900Y-63906198D01*
X100570408Y-63909355D01*
X100570411Y-63909357D01*
X100648589Y-63964098D01*
X100753451Y-64037523D01*
X100758433Y-64039846D01*
X100758438Y-64039849D01*
X100955975Y-64131961D01*
X100960957Y-64134284D01*
X100966265Y-64135706D01*
X100966267Y-64135707D01*
X101176798Y-64192119D01*
X101176800Y-64192119D01*
X101182113Y-64193543D01*
X101410200Y-64213498D01*
X101638287Y-64193543D01*
X101643600Y-64192119D01*
X101643602Y-64192119D01*
X101854133Y-64135707D01*
X101854135Y-64135706D01*
X101859443Y-64134284D01*
X101864425Y-64131961D01*
X102061962Y-64039849D01*
X102061967Y-64039846D01*
X102066949Y-64037523D01*
X102171811Y-63964098D01*
X102249989Y-63909357D01*
X102249992Y-63909355D01*
X102254500Y-63906198D01*
X102416398Y-63744300D01*
X102547723Y-63556749D01*
X102550046Y-63551767D01*
X102550049Y-63551762D01*
X102566005Y-63517543D01*
X102612922Y-63464258D01*
X102681199Y-63444797D01*
X102749159Y-63465339D01*
X102794395Y-63517543D01*
X102810351Y-63551762D01*
X102810354Y-63551767D01*
X102812677Y-63556749D01*
X102944002Y-63744300D01*
X103105900Y-63906198D01*
X103110408Y-63909355D01*
X103110411Y-63909357D01*
X103188589Y-63964098D01*
X103293451Y-64037523D01*
X103298433Y-64039846D01*
X103298438Y-64039849D01*
X103495975Y-64131961D01*
X103500957Y-64134284D01*
X103506265Y-64135706D01*
X103506267Y-64135707D01*
X103716798Y-64192119D01*
X103716800Y-64192119D01*
X103722113Y-64193543D01*
X103950200Y-64213498D01*
X104178287Y-64193543D01*
X104183600Y-64192119D01*
X104183602Y-64192119D01*
X104394133Y-64135707D01*
X104394135Y-64135706D01*
X104399443Y-64134284D01*
X104404425Y-64131961D01*
X104601962Y-64039849D01*
X104601967Y-64039846D01*
X104606949Y-64037523D01*
X104711811Y-63964098D01*
X104789989Y-63909357D01*
X104789992Y-63909355D01*
X104794500Y-63906198D01*
X104956398Y-63744300D01*
X105087723Y-63556749D01*
X105090046Y-63551767D01*
X105090049Y-63551762D01*
X105106005Y-63517543D01*
X105152922Y-63464258D01*
X105221199Y-63444797D01*
X105289159Y-63465339D01*
X105334395Y-63517543D01*
X105350351Y-63551762D01*
X105350354Y-63551767D01*
X105352677Y-63556749D01*
X105484002Y-63744300D01*
X105645900Y-63906198D01*
X105650408Y-63909355D01*
X105650411Y-63909357D01*
X105728589Y-63964098D01*
X105833451Y-64037523D01*
X105838433Y-64039846D01*
X105838438Y-64039849D01*
X106035975Y-64131961D01*
X106040957Y-64134284D01*
X106046265Y-64135706D01*
X106046267Y-64135707D01*
X106256798Y-64192119D01*
X106256800Y-64192119D01*
X106262113Y-64193543D01*
X106490200Y-64213498D01*
X106718287Y-64193543D01*
X106723600Y-64192119D01*
X106723602Y-64192119D01*
X106934133Y-64135707D01*
X106934135Y-64135706D01*
X106939443Y-64134284D01*
X106944425Y-64131961D01*
X107141962Y-64039849D01*
X107141967Y-64039846D01*
X107146949Y-64037523D01*
X107251811Y-63964098D01*
X107329989Y-63909357D01*
X107329992Y-63909355D01*
X107334500Y-63906198D01*
X107496398Y-63744300D01*
X107627723Y-63556749D01*
X107630046Y-63551767D01*
X107630049Y-63551762D01*
X107646005Y-63517543D01*
X107692922Y-63464258D01*
X107761199Y-63444797D01*
X107829159Y-63465339D01*
X107874395Y-63517543D01*
X107890351Y-63551762D01*
X107890354Y-63551767D01*
X107892677Y-63556749D01*
X108024002Y-63744300D01*
X108185900Y-63906198D01*
X108190408Y-63909355D01*
X108190411Y-63909357D01*
X108268589Y-63964098D01*
X108373451Y-64037523D01*
X108378433Y-64039846D01*
X108378438Y-64039849D01*
X108575975Y-64131961D01*
X108580957Y-64134284D01*
X108586265Y-64135706D01*
X108586267Y-64135707D01*
X108796798Y-64192119D01*
X108796800Y-64192119D01*
X108802113Y-64193543D01*
X109030200Y-64213498D01*
X109258287Y-64193543D01*
X109263600Y-64192119D01*
X109263602Y-64192119D01*
X109474133Y-64135707D01*
X109474135Y-64135706D01*
X109479443Y-64134284D01*
X109484425Y-64131961D01*
X109681962Y-64039849D01*
X109681967Y-64039846D01*
X109686949Y-64037523D01*
X109791811Y-63964098D01*
X109869989Y-63909357D01*
X109869992Y-63909355D01*
X109874500Y-63906198D01*
X110036398Y-63744300D01*
X110167723Y-63556749D01*
X110170046Y-63551767D01*
X110170049Y-63551762D01*
X110186005Y-63517543D01*
X110232922Y-63464258D01*
X110301199Y-63444797D01*
X110369159Y-63465339D01*
X110414395Y-63517543D01*
X110430351Y-63551762D01*
X110430354Y-63551767D01*
X110432677Y-63556749D01*
X110564002Y-63744300D01*
X110725900Y-63906198D01*
X110730408Y-63909355D01*
X110730411Y-63909357D01*
X110808589Y-63964098D01*
X110913451Y-64037523D01*
X110918433Y-64039846D01*
X110918438Y-64039849D01*
X111115975Y-64131961D01*
X111120957Y-64134284D01*
X111126265Y-64135706D01*
X111126267Y-64135707D01*
X111336798Y-64192119D01*
X111336800Y-64192119D01*
X111342113Y-64193543D01*
X111570200Y-64213498D01*
X111798287Y-64193543D01*
X111803600Y-64192119D01*
X111803602Y-64192119D01*
X112014133Y-64135707D01*
X112014135Y-64135706D01*
X112019443Y-64134284D01*
X112024425Y-64131961D01*
X112221962Y-64039849D01*
X112221967Y-64039846D01*
X112226949Y-64037523D01*
X112331811Y-63964098D01*
X112409989Y-63909357D01*
X112409992Y-63909355D01*
X112414500Y-63906198D01*
X112576398Y-63744300D01*
X112707723Y-63556749D01*
X112710046Y-63551767D01*
X112710049Y-63551762D01*
X112726005Y-63517543D01*
X112772922Y-63464258D01*
X112841199Y-63444797D01*
X112909159Y-63465339D01*
X112954395Y-63517543D01*
X112970351Y-63551762D01*
X112970354Y-63551767D01*
X112972677Y-63556749D01*
X113104002Y-63744300D01*
X113265900Y-63906198D01*
X113270408Y-63909355D01*
X113270411Y-63909357D01*
X113348589Y-63964098D01*
X113453451Y-64037523D01*
X113458433Y-64039846D01*
X113458438Y-64039849D01*
X113655975Y-64131961D01*
X113660957Y-64134284D01*
X113666265Y-64135706D01*
X113666267Y-64135707D01*
X113876798Y-64192119D01*
X113876800Y-64192119D01*
X113882113Y-64193543D01*
X114110200Y-64213498D01*
X114338287Y-64193543D01*
X114343600Y-64192119D01*
X114343602Y-64192119D01*
X114554133Y-64135707D01*
X114554135Y-64135706D01*
X114559443Y-64134284D01*
X114564425Y-64131961D01*
X114761962Y-64039849D01*
X114761967Y-64039846D01*
X114766949Y-64037523D01*
X114871811Y-63964098D01*
X114949989Y-63909357D01*
X114949992Y-63909355D01*
X114954500Y-63906198D01*
X115116398Y-63744300D01*
X115247723Y-63556749D01*
X115250046Y-63551767D01*
X115250049Y-63551762D01*
X115266005Y-63517543D01*
X115312922Y-63464258D01*
X115381199Y-63444797D01*
X115449159Y-63465339D01*
X115494395Y-63517543D01*
X115510351Y-63551762D01*
X115510354Y-63551767D01*
X115512677Y-63556749D01*
X115644002Y-63744300D01*
X115805900Y-63906198D01*
X115810408Y-63909355D01*
X115810411Y-63909357D01*
X115888589Y-63964098D01*
X115993451Y-64037523D01*
X115998433Y-64039846D01*
X115998438Y-64039849D01*
X116195975Y-64131961D01*
X116200957Y-64134284D01*
X116206265Y-64135706D01*
X116206267Y-64135707D01*
X116416798Y-64192119D01*
X116416800Y-64192119D01*
X116422113Y-64193543D01*
X116650200Y-64213498D01*
X116836495Y-64197199D01*
X116906098Y-64211188D01*
X116957090Y-64260587D01*
X116973281Y-64329713D01*
X116949529Y-64396619D01*
X116921537Y-64424656D01*
X116788747Y-64521134D01*
X116660960Y-64663056D01*
X116565473Y-64828444D01*
X116506458Y-65010072D01*
X116505768Y-65016633D01*
X116505768Y-65016635D01*
X116494181Y-65126885D01*
X116486496Y-65200000D01*
X116487186Y-65206565D01*
X116502872Y-65355805D01*
X116506458Y-65389928D01*
X116565473Y-65571556D01*
X116660960Y-65736944D01*
X116665378Y-65741851D01*
X116665379Y-65741852D01*
X116718503Y-65800852D01*
X116788747Y-65878866D01*
X116943248Y-65991118D01*
X116949276Y-65993802D01*
X116949278Y-65993803D01*
X117076537Y-66050462D01*
X117117712Y-66068794D01*
X117211113Y-66088647D01*
X117298056Y-66107128D01*
X117298061Y-66107128D01*
X117304513Y-66108500D01*
X117495487Y-66108500D01*
X117501939Y-66107128D01*
X117501944Y-66107128D01*
X117588888Y-66088647D01*
X117682288Y-66068794D01*
X117723463Y-66050462D01*
X117850722Y-65993803D01*
X117850724Y-65993802D01*
X117856752Y-65991118D01*
X118011253Y-65878866D01*
X118081497Y-65800852D01*
X118134621Y-65741852D01*
X118134622Y-65741851D01*
X118139040Y-65736944D01*
X118234527Y-65571556D01*
X118293542Y-65389928D01*
X118297129Y-65355805D01*
X118312814Y-65206565D01*
X118313504Y-65200000D01*
X118305819Y-65126885D01*
X118294232Y-65016635D01*
X118294232Y-65016633D01*
X118293542Y-65010072D01*
X118234527Y-64828444D01*
X118139040Y-64663056D01*
X118011253Y-64521134D01*
X117856752Y-64408882D01*
X117850724Y-64406198D01*
X117850722Y-64406197D01*
X117688319Y-64333891D01*
X117688318Y-64333891D01*
X117682288Y-64331206D01*
X117588887Y-64311353D01*
X117501944Y-64292872D01*
X117501939Y-64292872D01*
X117495487Y-64291500D01*
X117330643Y-64291500D01*
X117262522Y-64271498D01*
X117216029Y-64217842D01*
X117205925Y-64147568D01*
X117235419Y-64082988D01*
X117277394Y-64051305D01*
X117301958Y-64039851D01*
X117301964Y-64039847D01*
X117306949Y-64037523D01*
X117411811Y-63964098D01*
X117489989Y-63909357D01*
X117489992Y-63909355D01*
X117494500Y-63906198D01*
X117656398Y-63744300D01*
X117787723Y-63556749D01*
X117790046Y-63551767D01*
X117790049Y-63551762D01*
X117806005Y-63517543D01*
X117852922Y-63464258D01*
X117921199Y-63444797D01*
X117989159Y-63465339D01*
X118034395Y-63517543D01*
X118050351Y-63551762D01*
X118050354Y-63551767D01*
X118052677Y-63556749D01*
X118184002Y-63744300D01*
X118345900Y-63906198D01*
X118350408Y-63909355D01*
X118350411Y-63909357D01*
X118428589Y-63964098D01*
X118533451Y-64037523D01*
X118538433Y-64039846D01*
X118538438Y-64039849D01*
X118735975Y-64131961D01*
X118740957Y-64134284D01*
X118746265Y-64135706D01*
X118746267Y-64135707D01*
X118956798Y-64192119D01*
X118956800Y-64192119D01*
X118962113Y-64193543D01*
X119190200Y-64213498D01*
X119418287Y-64193543D01*
X119423600Y-64192119D01*
X119423602Y-64192119D01*
X119634133Y-64135707D01*
X119634135Y-64135706D01*
X119639443Y-64134284D01*
X119644425Y-64131961D01*
X119841962Y-64039849D01*
X119841967Y-64039846D01*
X119846949Y-64037523D01*
X119951811Y-63964098D01*
X120029989Y-63909357D01*
X120029992Y-63909355D01*
X120034500Y-63906198D01*
X120196398Y-63744300D01*
X120327723Y-63556749D01*
X120330046Y-63551767D01*
X120330049Y-63551762D01*
X120346005Y-63517543D01*
X120392922Y-63464258D01*
X120461199Y-63444797D01*
X120529159Y-63465339D01*
X120574395Y-63517543D01*
X120590351Y-63551762D01*
X120590354Y-63551767D01*
X120592677Y-63556749D01*
X120724002Y-63744300D01*
X120885900Y-63906198D01*
X120890408Y-63909355D01*
X120890411Y-63909357D01*
X120968589Y-63964098D01*
X121073451Y-64037523D01*
X121078433Y-64039846D01*
X121078438Y-64039849D01*
X121275975Y-64131961D01*
X121280957Y-64134284D01*
X121286265Y-64135706D01*
X121286267Y-64135707D01*
X121496798Y-64192119D01*
X121496800Y-64192119D01*
X121502113Y-64193543D01*
X121730200Y-64213498D01*
X121958287Y-64193543D01*
X121963600Y-64192119D01*
X121963602Y-64192119D01*
X122174133Y-64135707D01*
X122174135Y-64135706D01*
X122179443Y-64134284D01*
X122184425Y-64131961D01*
X122381962Y-64039849D01*
X122381967Y-64039846D01*
X122386949Y-64037523D01*
X122491811Y-63964098D01*
X122569989Y-63909357D01*
X122569992Y-63909355D01*
X122574500Y-63906198D01*
X122736398Y-63744300D01*
X122867723Y-63556749D01*
X122870046Y-63551767D01*
X122870049Y-63551762D01*
X122886005Y-63517543D01*
X122932922Y-63464258D01*
X123001199Y-63444797D01*
X123069159Y-63465339D01*
X123114395Y-63517543D01*
X123130351Y-63551762D01*
X123130354Y-63551767D01*
X123132677Y-63556749D01*
X123264002Y-63744300D01*
X123425900Y-63906198D01*
X123430408Y-63909355D01*
X123430411Y-63909357D01*
X123508589Y-63964098D01*
X123613451Y-64037523D01*
X123618433Y-64039846D01*
X123618438Y-64039849D01*
X123815975Y-64131961D01*
X123820957Y-64134284D01*
X123826265Y-64135706D01*
X123826267Y-64135707D01*
X124036798Y-64192119D01*
X124036800Y-64192119D01*
X124042113Y-64193543D01*
X124270200Y-64213498D01*
X124498287Y-64193543D01*
X124503600Y-64192119D01*
X124503602Y-64192119D01*
X124714133Y-64135707D01*
X124714135Y-64135706D01*
X124719443Y-64134284D01*
X124724425Y-64131961D01*
X124921962Y-64039849D01*
X124921967Y-64039846D01*
X124926949Y-64037523D01*
X125031811Y-63964098D01*
X125109989Y-63909357D01*
X125109992Y-63909355D01*
X125114500Y-63906198D01*
X125276398Y-63744300D01*
X125407723Y-63556749D01*
X125410046Y-63551767D01*
X125410049Y-63551762D01*
X125426005Y-63517543D01*
X125472922Y-63464258D01*
X125541199Y-63444797D01*
X125609159Y-63465339D01*
X125654395Y-63517543D01*
X125670351Y-63551762D01*
X125670354Y-63551767D01*
X125672677Y-63556749D01*
X125804002Y-63744300D01*
X125965900Y-63906198D01*
X125970408Y-63909355D01*
X125970411Y-63909357D01*
X126048589Y-63964098D01*
X126153451Y-64037523D01*
X126158433Y-64039846D01*
X126158438Y-64039849D01*
X126355975Y-64131961D01*
X126360957Y-64134284D01*
X126366265Y-64135706D01*
X126366267Y-64135707D01*
X126576798Y-64192119D01*
X126576800Y-64192119D01*
X126582113Y-64193543D01*
X126810200Y-64213498D01*
X127038287Y-64193543D01*
X127043600Y-64192119D01*
X127043602Y-64192119D01*
X127254133Y-64135707D01*
X127254135Y-64135706D01*
X127259443Y-64134284D01*
X127264425Y-64131961D01*
X127461962Y-64039849D01*
X127461967Y-64039846D01*
X127466949Y-64037523D01*
X127571811Y-63964098D01*
X127649989Y-63909357D01*
X127649992Y-63909355D01*
X127654500Y-63906198D01*
X127816398Y-63744300D01*
X127947723Y-63556749D01*
X127950046Y-63551767D01*
X127950049Y-63551762D01*
X127966005Y-63517543D01*
X128012922Y-63464258D01*
X128081199Y-63444797D01*
X128149159Y-63465339D01*
X128194395Y-63517543D01*
X128210351Y-63551762D01*
X128210354Y-63551767D01*
X128212677Y-63556749D01*
X128344002Y-63744300D01*
X128505900Y-63906198D01*
X128510408Y-63909355D01*
X128510411Y-63909357D01*
X128588589Y-63964098D01*
X128693451Y-64037523D01*
X128698433Y-64039846D01*
X128698438Y-64039849D01*
X128895975Y-64131961D01*
X128900957Y-64134284D01*
X128906265Y-64135706D01*
X128906267Y-64135707D01*
X129116798Y-64192119D01*
X129116800Y-64192119D01*
X129122113Y-64193543D01*
X129350200Y-64213498D01*
X129578287Y-64193543D01*
X129583600Y-64192119D01*
X129583602Y-64192119D01*
X129794133Y-64135707D01*
X129794135Y-64135706D01*
X129799443Y-64134284D01*
X129804425Y-64131961D01*
X130001962Y-64039849D01*
X130001967Y-64039846D01*
X130006949Y-64037523D01*
X130111811Y-63964098D01*
X130189989Y-63909357D01*
X130189992Y-63909355D01*
X130194500Y-63906198D01*
X130356398Y-63744300D01*
X130487723Y-63556749D01*
X130490046Y-63551767D01*
X130490049Y-63551762D01*
X130506005Y-63517543D01*
X130552922Y-63464258D01*
X130621199Y-63444797D01*
X130689159Y-63465339D01*
X130734395Y-63517543D01*
X130750351Y-63551762D01*
X130750354Y-63551767D01*
X130752677Y-63556749D01*
X130884002Y-63744300D01*
X131045900Y-63906198D01*
X131050408Y-63909355D01*
X131050411Y-63909357D01*
X131128589Y-63964098D01*
X131233451Y-64037523D01*
X131238433Y-64039846D01*
X131238438Y-64039849D01*
X131435975Y-64131961D01*
X131440957Y-64134284D01*
X131446265Y-64135706D01*
X131446267Y-64135707D01*
X131656798Y-64192119D01*
X131656800Y-64192119D01*
X131662113Y-64193543D01*
X131890200Y-64213498D01*
X132118287Y-64193543D01*
X132123600Y-64192119D01*
X132123602Y-64192119D01*
X132334133Y-64135707D01*
X132334135Y-64135706D01*
X132339443Y-64134284D01*
X132344425Y-64131961D01*
X132541962Y-64039849D01*
X132541967Y-64039846D01*
X132546949Y-64037523D01*
X132651811Y-63964098D01*
X132729989Y-63909357D01*
X132729992Y-63909355D01*
X132734500Y-63906198D01*
X132896398Y-63744300D01*
X133027723Y-63556749D01*
X133030046Y-63551767D01*
X133030049Y-63551762D01*
X133046005Y-63517543D01*
X133092922Y-63464258D01*
X133161199Y-63444797D01*
X133229159Y-63465339D01*
X133274395Y-63517543D01*
X133290351Y-63551762D01*
X133290354Y-63551767D01*
X133292677Y-63556749D01*
X133424002Y-63744300D01*
X133585900Y-63906198D01*
X133590408Y-63909355D01*
X133590411Y-63909357D01*
X133668589Y-63964098D01*
X133773451Y-64037523D01*
X133778433Y-64039846D01*
X133778438Y-64039849D01*
X133975975Y-64131961D01*
X133980957Y-64134284D01*
X133986265Y-64135706D01*
X133986267Y-64135707D01*
X134196798Y-64192119D01*
X134196800Y-64192119D01*
X134202113Y-64193543D01*
X134430200Y-64213498D01*
X134658287Y-64193543D01*
X134663600Y-64192119D01*
X134663602Y-64192119D01*
X134874133Y-64135707D01*
X134874135Y-64135706D01*
X134879443Y-64134284D01*
X134884425Y-64131961D01*
X135081962Y-64039849D01*
X135081967Y-64039846D01*
X135086949Y-64037523D01*
X135191811Y-63964098D01*
X135269989Y-63909357D01*
X135269992Y-63909355D01*
X135274500Y-63906198D01*
X135436398Y-63744300D01*
X135567723Y-63556749D01*
X135570046Y-63551767D01*
X135570049Y-63551762D01*
X135586005Y-63517543D01*
X135632922Y-63464258D01*
X135701199Y-63444797D01*
X135769159Y-63465339D01*
X135814395Y-63517543D01*
X135830351Y-63551762D01*
X135830354Y-63551767D01*
X135832677Y-63556749D01*
X135964002Y-63744300D01*
X136125900Y-63906198D01*
X136130408Y-63909355D01*
X136130411Y-63909357D01*
X136208589Y-63964098D01*
X136313451Y-64037523D01*
X136318433Y-64039846D01*
X136318438Y-64039849D01*
X136515975Y-64131961D01*
X136520957Y-64134284D01*
X136526265Y-64135706D01*
X136526267Y-64135707D01*
X136736798Y-64192119D01*
X136736800Y-64192119D01*
X136742113Y-64193543D01*
X136970200Y-64213498D01*
X137198287Y-64193543D01*
X137203600Y-64192119D01*
X137203602Y-64192119D01*
X137414133Y-64135707D01*
X137414135Y-64135706D01*
X137419443Y-64134284D01*
X137424425Y-64131961D01*
X137621962Y-64039849D01*
X137621967Y-64039846D01*
X137626949Y-64037523D01*
X137731811Y-63964098D01*
X137809989Y-63909357D01*
X137809992Y-63909355D01*
X137814500Y-63906198D01*
X137976398Y-63744300D01*
X138107723Y-63556749D01*
X138110046Y-63551767D01*
X138110049Y-63551762D01*
X138202161Y-63354225D01*
X138202161Y-63354224D01*
X138204484Y-63349243D01*
X138248435Y-63185219D01*
X138262319Y-63133402D01*
X138262319Y-63133400D01*
X138263743Y-63128087D01*
X138283698Y-62900000D01*
X138263743Y-62671913D01*
X138204484Y-62450757D01*
X138107723Y-62243251D01*
X138108354Y-62242957D01*
X138092595Y-62178010D01*
X138115813Y-62110917D01*
X138171619Y-62067028D01*
X138218453Y-62058000D01*
X144437317Y-62058000D01*
X144461907Y-62060423D01*
X144472200Y-62062471D01*
X144477743Y-62062704D01*
X144479861Y-62062793D01*
X144479866Y-62062793D01*
X144484729Y-62062997D01*
X144489575Y-62062450D01*
X144494185Y-62062287D01*
X144499433Y-62061956D01*
X144655676Y-62059859D01*
X144890516Y-62056707D01*
X144890527Y-62056706D01*
X144893236Y-62056670D01*
X145073251Y-62038647D01*
X145297001Y-62016246D01*
X145297012Y-62016244D01*
X145299723Y-62015973D01*
X145302406Y-62015468D01*
X145302411Y-62015467D01*
X145698499Y-61940872D01*
X145698506Y-61940870D01*
X145701184Y-61940366D01*
X145800150Y-61912709D01*
X146092007Y-61831146D01*
X146092018Y-61831142D01*
X146094628Y-61830413D01*
X146474570Y-61687889D01*
X146474573Y-61687888D01*
X146474577Y-61687886D01*
X146477121Y-61686932D01*
X146845813Y-61510993D01*
X147197955Y-61303909D01*
X147381185Y-61173661D01*
X147528696Y-61068804D01*
X147528702Y-61068800D01*
X147530921Y-61067222D01*
X147715704Y-60910209D01*
X147840165Y-60804453D01*
X147840173Y-60804445D01*
X147842232Y-60802696D01*
X147994693Y-60648611D01*
X148127645Y-60514244D01*
X148127651Y-60514237D01*
X148129564Y-60512304D01*
X148390778Y-60198210D01*
X148623926Y-59862755D01*
X148827270Y-59508440D01*
X148999294Y-59137906D01*
X149128407Y-58782309D01*
X149131608Y-58774944D01*
X149131526Y-58774910D01*
X149133393Y-58770426D01*
X149135609Y-58766082D01*
X149139521Y-58754168D01*
X149144258Y-58725338D01*
X149148253Y-58708421D01*
X149222218Y-58470088D01*
X149574954Y-57333497D01*
X149579652Y-57320810D01*
X149591589Y-57293225D01*
X149591589Y-57293224D01*
X149595154Y-57284986D01*
X149596263Y-57276080D01*
X149596264Y-57276077D01*
X149597585Y-57265465D01*
X149602322Y-57243556D01*
X149671639Y-57021073D01*
X149695775Y-56943605D01*
X149699930Y-56932225D01*
X149833239Y-56615350D01*
X149838469Y-56604421D01*
X150001599Y-56301811D01*
X150007854Y-56291434D01*
X150020606Y-56272415D01*
X150199300Y-56005883D01*
X150206520Y-55996160D01*
X150424502Y-55730324D01*
X150432621Y-55721340D01*
X150675129Y-55477668D01*
X150684079Y-55469501D01*
X150882981Y-55304804D01*
X150948875Y-55250242D01*
X150958558Y-55242981D01*
X151243178Y-55050176D01*
X151253525Y-55043871D01*
X151555353Y-54879292D01*
X151566257Y-54874010D01*
X151882483Y-54739187D01*
X151893843Y-54734976D01*
X152221576Y-54631142D01*
X152233289Y-54628042D01*
X152473900Y-54576601D01*
X152569480Y-54556167D01*
X152581425Y-54554209D01*
X152922965Y-54514955D01*
X152935040Y-54514153D01*
X153241773Y-54508559D01*
X153267160Y-54510673D01*
X153278409Y-54512770D01*
X153286096Y-54511997D01*
X153293730Y-54513186D01*
X153313054Y-54510659D01*
X153335570Y-54509747D01*
X153636100Y-54524512D01*
X153648394Y-54525722D01*
X153975139Y-54574191D01*
X153987249Y-54576599D01*
X154307674Y-54656861D01*
X154319507Y-54660451D01*
X154630494Y-54771725D01*
X154641918Y-54776456D01*
X154940523Y-54917685D01*
X154951428Y-54923514D01*
X155234745Y-55093328D01*
X155245026Y-55100198D01*
X155510329Y-55296960D01*
X155519887Y-55304804D01*
X155764630Y-55526626D01*
X155773374Y-55535370D01*
X155995196Y-55780113D01*
X156003040Y-55789671D01*
X156199802Y-56054974D01*
X156206672Y-56065255D01*
X156376486Y-56348572D01*
X156382315Y-56359477D01*
X156523544Y-56658082D01*
X156528275Y-56669506D01*
X156639549Y-56980493D01*
X156643138Y-56992324D01*
X156714215Y-57276077D01*
X156723399Y-57312743D01*
X156725809Y-57324861D01*
X156774277Y-57651601D01*
X156775489Y-57663907D01*
X156789890Y-57957062D01*
X156788543Y-57982624D01*
X156788195Y-57984857D01*
X156788195Y-57984861D01*
X156786814Y-57993730D01*
X156787978Y-58002632D01*
X156787978Y-58002635D01*
X156790936Y-58025251D01*
X156792000Y-58041589D01*
X156792000Y-83050672D01*
X156790500Y-83070056D01*
X156786814Y-83093730D01*
X156789274Y-83112539D01*
X156789341Y-83113050D01*
X156790253Y-83135573D01*
X156775489Y-83436094D01*
X156774278Y-83448394D01*
X156726007Y-83773810D01*
X156725811Y-83775130D01*
X156723401Y-83787249D01*
X156704302Y-83863495D01*
X156643139Y-84107674D01*
X156639549Y-84119507D01*
X156528275Y-84430494D01*
X156523544Y-84441918D01*
X156382315Y-84740523D01*
X156376488Y-84751424D01*
X156292039Y-84892319D01*
X156206672Y-85034745D01*
X156199802Y-85045026D01*
X156003040Y-85310329D01*
X155995196Y-85319887D01*
X155773374Y-85564630D01*
X155764630Y-85573374D01*
X155519887Y-85795196D01*
X155510329Y-85803040D01*
X155245026Y-85999802D01*
X155234745Y-86006672D01*
X154951428Y-86176486D01*
X154940523Y-86182315D01*
X154641918Y-86323544D01*
X154630494Y-86328275D01*
X154319507Y-86439549D01*
X154307676Y-86443138D01*
X153987249Y-86523401D01*
X153975139Y-86525809D01*
X153648394Y-86574278D01*
X153636098Y-86575489D01*
X153547344Y-86579849D01*
X153342938Y-86589890D01*
X153317376Y-86588543D01*
X153315142Y-86588195D01*
X153315139Y-86588195D01*
X153306270Y-86586814D01*
X153298608Y-86587816D01*
X153290944Y-86586856D01*
X153282084Y-86588285D01*
X153282082Y-86588285D01*
X153271516Y-86589989D01*
X153249157Y-86591576D01*
X152935036Y-86585846D01*
X152922968Y-86585045D01*
X152581422Y-86545791D01*
X152569466Y-86543830D01*
X152233295Y-86471958D01*
X152221583Y-86468859D01*
X151893848Y-86365025D01*
X151882487Y-86360814D01*
X151566257Y-86225989D01*
X151555353Y-86220707D01*
X151253526Y-86056129D01*
X151243180Y-86049824D01*
X151169337Y-85999802D01*
X150958558Y-85857019D01*
X150948870Y-85849753D01*
X150892456Y-85803040D01*
X150684080Y-85630499D01*
X150675130Y-85622332D01*
X150432617Y-85378654D01*
X150424494Y-85369665D01*
X150271272Y-85182806D01*
X150206516Y-85103834D01*
X150199309Y-85094130D01*
X150007849Y-84808557D01*
X150001603Y-84798197D01*
X149838469Y-84495580D01*
X149833239Y-84484650D01*
X149699931Y-84167777D01*
X149695775Y-84156397D01*
X149604518Y-83863495D01*
X149599438Y-83838526D01*
X149599195Y-83836086D01*
X149599194Y-83836083D01*
X149598303Y-83827152D01*
X149593400Y-83815015D01*
X149580733Y-83783664D01*
X149577220Y-83773810D01*
X149150550Y-82398978D01*
X149146094Y-82379020D01*
X149143816Y-82362671D01*
X149143814Y-82362661D01*
X149143142Y-82357839D01*
X149139521Y-82345833D01*
X149137419Y-82341452D01*
X149135743Y-82337132D01*
X149133707Y-82332288D01*
X149131094Y-82325089D01*
X149073867Y-82167479D01*
X149000225Y-81964655D01*
X149000221Y-81964645D01*
X148999295Y-81962095D01*
X148827272Y-81591560D01*
X148623928Y-81237245D01*
X148390780Y-80901790D01*
X148129566Y-80587696D01*
X148127653Y-80585763D01*
X148127647Y-80585756D01*
X147850574Y-80305733D01*
X147842233Y-80297303D01*
X147840174Y-80295554D01*
X147840166Y-80295546D01*
X147566222Y-80062772D01*
X147530923Y-80032778D01*
X147528699Y-80031197D01*
X147528698Y-80031196D01*
X147364440Y-79914434D01*
X147197956Y-79796090D01*
X146845814Y-79589005D01*
X146477122Y-79413067D01*
X146474576Y-79412112D01*
X146474574Y-79412111D01*
X146097172Y-79270540D01*
X146097173Y-79270540D01*
X146094629Y-79269586D01*
X146092019Y-79268857D01*
X146092008Y-79268853D01*
X145703822Y-79160369D01*
X145701185Y-79159632D01*
X145698504Y-79159127D01*
X145698500Y-79159126D01*
X145302411Y-79084531D01*
X145302406Y-79084530D01*
X145299723Y-79084025D01*
X145297012Y-79083754D01*
X145297001Y-79083752D01*
X145044461Y-79058469D01*
X144893236Y-79043329D01*
X144890527Y-79043293D01*
X144890516Y-79043292D01*
X144692289Y-79040632D01*
X144514949Y-79038251D01*
X144506954Y-79037648D01*
X144506949Y-79037738D01*
X144502089Y-79037447D01*
X144497267Y-79036783D01*
X144492404Y-79036868D01*
X144492399Y-79036868D01*
X144490569Y-79036901D01*
X144484729Y-79037003D01*
X144469912Y-79039577D01*
X144466665Y-79040141D01*
X144445100Y-79042000D01*
X138178040Y-79042000D01*
X138109919Y-79021998D01*
X138063426Y-78968342D01*
X138053322Y-78898068D01*
X138074827Y-78843729D01*
X138104566Y-78801257D01*
X138107723Y-78796749D01*
X138110046Y-78791767D01*
X138110049Y-78791762D01*
X138202161Y-78594225D01*
X138202161Y-78594224D01*
X138204484Y-78589243D01*
X138261133Y-78377830D01*
X138262319Y-78373402D01*
X138262319Y-78373400D01*
X138263743Y-78368087D01*
X138283698Y-78140000D01*
X138263743Y-77911913D01*
X138243871Y-77837749D01*
X138205907Y-77696067D01*
X138205906Y-77696065D01*
X138204484Y-77690757D01*
X138150348Y-77574661D01*
X138110049Y-77488238D01*
X138110046Y-77488233D01*
X138107723Y-77483251D01*
X137976398Y-77295700D01*
X137814500Y-77133802D01*
X137809992Y-77130645D01*
X137809989Y-77130643D01*
X137729030Y-77073955D01*
X137626949Y-77002477D01*
X137621967Y-77000154D01*
X137621962Y-77000151D01*
X137424425Y-76908039D01*
X137424424Y-76908039D01*
X137419443Y-76905716D01*
X137414135Y-76904294D01*
X137414133Y-76904293D01*
X137398111Y-76900000D01*
X145336647Y-76900000D01*
X145356022Y-77121463D01*
X145413560Y-77336196D01*
X145415882Y-77341177D01*
X145415883Y-77341178D01*
X145505186Y-77532689D01*
X145505189Y-77532694D01*
X145507512Y-77537676D01*
X145510668Y-77542183D01*
X145510669Y-77542185D01*
X145624065Y-77704131D01*
X145635023Y-77719781D01*
X145792219Y-77876977D01*
X145796727Y-77880134D01*
X145796730Y-77880136D01*
X145849939Y-77917393D01*
X145974323Y-78004488D01*
X145979305Y-78006811D01*
X145979310Y-78006814D01*
X146135159Y-78079487D01*
X146175804Y-78098440D01*
X146181112Y-78099862D01*
X146181114Y-78099863D01*
X146228993Y-78112692D01*
X146390537Y-78155978D01*
X146612000Y-78175353D01*
X146833463Y-78155978D01*
X146995007Y-78112692D01*
X147042886Y-78099863D01*
X147042888Y-78099862D01*
X147048196Y-78098440D01*
X147088841Y-78079487D01*
X147244690Y-78006814D01*
X147244695Y-78006811D01*
X147249677Y-78004488D01*
X147374061Y-77917393D01*
X147427270Y-77880136D01*
X147427273Y-77880134D01*
X147431781Y-77876977D01*
X147588977Y-77719781D01*
X147599936Y-77704131D01*
X147713331Y-77542185D01*
X147713332Y-77542183D01*
X147716488Y-77537676D01*
X147718811Y-77532694D01*
X147718814Y-77532689D01*
X147808117Y-77341178D01*
X147808118Y-77341177D01*
X147810440Y-77336196D01*
X147867978Y-77121463D01*
X147887353Y-76900000D01*
X147867978Y-76678537D01*
X147815979Y-76484477D01*
X147811863Y-76469114D01*
X147811862Y-76469112D01*
X147810440Y-76463804D01*
X147805896Y-76454060D01*
X147718814Y-76267311D01*
X147718811Y-76267306D01*
X147716488Y-76262324D01*
X147684499Y-76216639D01*
X147592136Y-76084730D01*
X147592134Y-76084727D01*
X147588977Y-76080219D01*
X147431781Y-75923023D01*
X147427273Y-75919866D01*
X147427270Y-75919864D01*
X147351505Y-75866813D01*
X147249677Y-75795512D01*
X147244695Y-75793189D01*
X147244690Y-75793186D01*
X147053178Y-75703883D01*
X147053177Y-75703882D01*
X147048196Y-75701560D01*
X147042888Y-75700138D01*
X147042886Y-75700137D01*
X146973171Y-75681457D01*
X146833463Y-75644022D01*
X146612000Y-75624647D01*
X146390537Y-75644022D01*
X146250829Y-75681457D01*
X146181114Y-75700137D01*
X146181112Y-75700138D01*
X146175804Y-75701560D01*
X146170823Y-75703882D01*
X146170822Y-75703883D01*
X145979311Y-75793186D01*
X145979306Y-75793189D01*
X145974324Y-75795512D01*
X145969817Y-75798668D01*
X145969815Y-75798669D01*
X145796730Y-75919864D01*
X145796727Y-75919866D01*
X145792219Y-75923023D01*
X145635023Y-76080219D01*
X145631866Y-76084727D01*
X145631864Y-76084730D01*
X145539501Y-76216639D01*
X145507512Y-76262324D01*
X145505189Y-76267306D01*
X145505186Y-76267311D01*
X145418104Y-76454060D01*
X145413560Y-76463804D01*
X145412138Y-76469112D01*
X145412137Y-76469114D01*
X145408021Y-76484477D01*
X145356022Y-76678537D01*
X145336647Y-76900000D01*
X137398111Y-76900000D01*
X137203602Y-76847881D01*
X137203600Y-76847881D01*
X137198287Y-76846457D01*
X136970200Y-76826502D01*
X136742113Y-76846457D01*
X136736800Y-76847881D01*
X136736798Y-76847881D01*
X136526267Y-76904293D01*
X136526265Y-76904294D01*
X136520957Y-76905716D01*
X136515976Y-76908039D01*
X136515975Y-76908039D01*
X136318438Y-77000151D01*
X136318433Y-77000154D01*
X136313451Y-77002477D01*
X136211370Y-77073955D01*
X136130411Y-77130643D01*
X136130408Y-77130645D01*
X136125900Y-77133802D01*
X135964002Y-77295700D01*
X135832677Y-77483251D01*
X135830354Y-77488233D01*
X135830351Y-77488238D01*
X135814395Y-77522457D01*
X135767478Y-77575742D01*
X135699201Y-77595203D01*
X135631241Y-77574661D01*
X135586005Y-77522457D01*
X135570049Y-77488238D01*
X135570046Y-77488233D01*
X135567723Y-77483251D01*
X135436398Y-77295700D01*
X135274500Y-77133802D01*
X135269992Y-77130645D01*
X135269989Y-77130643D01*
X135189030Y-77073955D01*
X135086949Y-77002477D01*
X135081967Y-77000154D01*
X135081962Y-77000151D01*
X134884425Y-76908039D01*
X134884424Y-76908039D01*
X134879443Y-76905716D01*
X134874135Y-76904294D01*
X134874133Y-76904293D01*
X134663602Y-76847881D01*
X134663600Y-76847881D01*
X134658287Y-76846457D01*
X134430200Y-76826502D01*
X134202113Y-76846457D01*
X134196800Y-76847881D01*
X134196798Y-76847881D01*
X133986267Y-76904293D01*
X133986265Y-76904294D01*
X133980957Y-76905716D01*
X133975976Y-76908039D01*
X133975975Y-76908039D01*
X133778438Y-77000151D01*
X133778433Y-77000154D01*
X133773451Y-77002477D01*
X133671370Y-77073955D01*
X133590411Y-77130643D01*
X133590408Y-77130645D01*
X133585900Y-77133802D01*
X133424002Y-77295700D01*
X133292677Y-77483251D01*
X133290354Y-77488233D01*
X133290351Y-77488238D01*
X133274395Y-77522457D01*
X133227478Y-77575742D01*
X133159201Y-77595203D01*
X133091241Y-77574661D01*
X133046005Y-77522457D01*
X133030049Y-77488238D01*
X133030046Y-77488233D01*
X133027723Y-77483251D01*
X132896398Y-77295700D01*
X132734500Y-77133802D01*
X132729992Y-77130645D01*
X132729989Y-77130643D01*
X132649030Y-77073955D01*
X132546949Y-77002477D01*
X132541967Y-77000154D01*
X132541962Y-77000151D01*
X132344425Y-76908039D01*
X132344424Y-76908039D01*
X132339443Y-76905716D01*
X132334135Y-76904294D01*
X132334133Y-76904293D01*
X132123602Y-76847881D01*
X132123600Y-76847881D01*
X132118287Y-76846457D01*
X131890200Y-76826502D01*
X131662113Y-76846457D01*
X131656800Y-76847881D01*
X131656798Y-76847881D01*
X131446267Y-76904293D01*
X131446265Y-76904294D01*
X131440957Y-76905716D01*
X131435976Y-76908039D01*
X131435975Y-76908039D01*
X131238438Y-77000151D01*
X131238433Y-77000154D01*
X131233451Y-77002477D01*
X131131370Y-77073955D01*
X131050411Y-77130643D01*
X131050408Y-77130645D01*
X131045900Y-77133802D01*
X130884002Y-77295700D01*
X130752677Y-77483251D01*
X130750354Y-77488233D01*
X130750351Y-77488238D01*
X130734395Y-77522457D01*
X130687478Y-77575742D01*
X130619201Y-77595203D01*
X130551241Y-77574661D01*
X130506005Y-77522457D01*
X130490049Y-77488238D01*
X130490046Y-77488233D01*
X130487723Y-77483251D01*
X130356398Y-77295700D01*
X130194500Y-77133802D01*
X130189992Y-77130645D01*
X130189989Y-77130643D01*
X130109030Y-77073955D01*
X130006949Y-77002477D01*
X130001967Y-77000154D01*
X130001962Y-77000151D01*
X129804425Y-76908039D01*
X129804424Y-76908039D01*
X129799443Y-76905716D01*
X129794135Y-76904294D01*
X129794133Y-76904293D01*
X129583602Y-76847881D01*
X129583600Y-76847881D01*
X129578287Y-76846457D01*
X129350200Y-76826502D01*
X129122113Y-76846457D01*
X129116800Y-76847881D01*
X129116798Y-76847881D01*
X128906267Y-76904293D01*
X128906265Y-76904294D01*
X128900957Y-76905716D01*
X128895976Y-76908039D01*
X128895975Y-76908039D01*
X128698438Y-77000151D01*
X128698433Y-77000154D01*
X128693451Y-77002477D01*
X128591370Y-77073955D01*
X128510411Y-77130643D01*
X128510408Y-77130645D01*
X128505900Y-77133802D01*
X128344002Y-77295700D01*
X128212677Y-77483251D01*
X128210354Y-77488233D01*
X128210351Y-77488238D01*
X128194395Y-77522457D01*
X128147478Y-77575742D01*
X128079201Y-77595203D01*
X128011241Y-77574661D01*
X127966005Y-77522457D01*
X127950049Y-77488238D01*
X127950046Y-77488233D01*
X127947723Y-77483251D01*
X127816398Y-77295700D01*
X127654500Y-77133802D01*
X127649992Y-77130645D01*
X127649989Y-77130643D01*
X127569030Y-77073955D01*
X127466949Y-77002477D01*
X127461967Y-77000154D01*
X127461962Y-77000151D01*
X127264425Y-76908039D01*
X127264424Y-76908039D01*
X127259443Y-76905716D01*
X127254135Y-76904294D01*
X127254133Y-76904293D01*
X127043602Y-76847881D01*
X127043600Y-76847881D01*
X127038287Y-76846457D01*
X126810200Y-76826502D01*
X126582113Y-76846457D01*
X126576800Y-76847881D01*
X126576798Y-76847881D01*
X126366267Y-76904293D01*
X126366265Y-76904294D01*
X126360957Y-76905716D01*
X126355976Y-76908039D01*
X126355975Y-76908039D01*
X126158438Y-77000151D01*
X126158433Y-77000154D01*
X126153451Y-77002477D01*
X126051370Y-77073955D01*
X125970411Y-77130643D01*
X125970408Y-77130645D01*
X125965900Y-77133802D01*
X125804002Y-77295700D01*
X125672677Y-77483251D01*
X125670354Y-77488233D01*
X125670351Y-77488238D01*
X125654395Y-77522457D01*
X125607478Y-77575742D01*
X125539201Y-77595203D01*
X125471241Y-77574661D01*
X125426005Y-77522457D01*
X125410049Y-77488238D01*
X125410046Y-77488233D01*
X125407723Y-77483251D01*
X125276398Y-77295700D01*
X125114500Y-77133802D01*
X125109992Y-77130645D01*
X125109989Y-77130643D01*
X125029030Y-77073955D01*
X124926949Y-77002477D01*
X124921967Y-77000154D01*
X124921962Y-77000151D01*
X124724425Y-76908039D01*
X124724424Y-76908039D01*
X124719443Y-76905716D01*
X124714135Y-76904294D01*
X124714133Y-76904293D01*
X124503602Y-76847881D01*
X124503600Y-76847881D01*
X124498287Y-76846457D01*
X124270200Y-76826502D01*
X124042113Y-76846457D01*
X124036800Y-76847881D01*
X124036798Y-76847881D01*
X123826267Y-76904293D01*
X123826265Y-76904294D01*
X123820957Y-76905716D01*
X123815976Y-76908039D01*
X123815975Y-76908039D01*
X123618438Y-77000151D01*
X123618433Y-77000154D01*
X123613451Y-77002477D01*
X123511370Y-77073955D01*
X123430411Y-77130643D01*
X123430408Y-77130645D01*
X123425900Y-77133802D01*
X123264002Y-77295700D01*
X123132677Y-77483251D01*
X123130354Y-77488233D01*
X123130351Y-77488238D01*
X123114395Y-77522457D01*
X123067478Y-77575742D01*
X122999201Y-77595203D01*
X122931241Y-77574661D01*
X122886005Y-77522457D01*
X122870049Y-77488238D01*
X122870046Y-77488233D01*
X122867723Y-77483251D01*
X122736398Y-77295700D01*
X122574500Y-77133802D01*
X122569992Y-77130645D01*
X122569989Y-77130643D01*
X122489030Y-77073955D01*
X122386949Y-77002477D01*
X122381967Y-77000154D01*
X122381962Y-77000151D01*
X122184425Y-76908039D01*
X122184424Y-76908039D01*
X122179443Y-76905716D01*
X122174135Y-76904294D01*
X122174133Y-76904293D01*
X121963602Y-76847881D01*
X121963600Y-76847881D01*
X121958287Y-76846457D01*
X121730200Y-76826502D01*
X121502113Y-76846457D01*
X121496800Y-76847881D01*
X121496798Y-76847881D01*
X121286267Y-76904293D01*
X121286265Y-76904294D01*
X121280957Y-76905716D01*
X121275976Y-76908039D01*
X121275975Y-76908039D01*
X121078438Y-77000151D01*
X121078433Y-77000154D01*
X121073451Y-77002477D01*
X120971370Y-77073955D01*
X120890411Y-77130643D01*
X120890408Y-77130645D01*
X120885900Y-77133802D01*
X120724002Y-77295700D01*
X120592677Y-77483251D01*
X120590354Y-77488233D01*
X120590351Y-77488238D01*
X120574395Y-77522457D01*
X120527478Y-77575742D01*
X120459201Y-77595203D01*
X120391241Y-77574661D01*
X120346005Y-77522457D01*
X120330049Y-77488238D01*
X120330046Y-77488233D01*
X120327723Y-77483251D01*
X120196398Y-77295700D01*
X120034500Y-77133802D01*
X120029992Y-77130645D01*
X120029989Y-77130643D01*
X119949030Y-77073955D01*
X119846949Y-77002477D01*
X119841967Y-77000154D01*
X119841962Y-77000151D01*
X119644425Y-76908039D01*
X119644424Y-76908039D01*
X119639443Y-76905716D01*
X119634135Y-76904294D01*
X119634133Y-76904293D01*
X119423602Y-76847881D01*
X119423600Y-76847881D01*
X119418287Y-76846457D01*
X119190200Y-76826502D01*
X118962113Y-76846457D01*
X118956800Y-76847881D01*
X118956798Y-76847881D01*
X118746267Y-76904293D01*
X118746265Y-76904294D01*
X118740957Y-76905716D01*
X118735976Y-76908039D01*
X118735975Y-76908039D01*
X118538438Y-77000151D01*
X118538433Y-77000154D01*
X118533451Y-77002477D01*
X118431370Y-77073955D01*
X118350411Y-77130643D01*
X118350408Y-77130645D01*
X118345900Y-77133802D01*
X118184002Y-77295700D01*
X118052677Y-77483251D01*
X118050354Y-77488233D01*
X118050351Y-77488238D01*
X118034395Y-77522457D01*
X117987478Y-77575742D01*
X117919201Y-77595203D01*
X117851241Y-77574661D01*
X117806005Y-77522457D01*
X117790049Y-77488238D01*
X117790046Y-77488233D01*
X117787723Y-77483251D01*
X117656398Y-77295700D01*
X117494500Y-77133802D01*
X117489992Y-77130645D01*
X117489989Y-77130643D01*
X117409030Y-77073955D01*
X117306949Y-77002477D01*
X117301967Y-77000154D01*
X117301962Y-77000151D01*
X117104425Y-76908039D01*
X117104424Y-76908039D01*
X117099443Y-76905716D01*
X117094135Y-76904294D01*
X117094133Y-76904293D01*
X116883602Y-76847881D01*
X116883600Y-76847881D01*
X116878287Y-76846457D01*
X116650200Y-76826502D01*
X116422113Y-76846457D01*
X116416800Y-76847881D01*
X116416798Y-76847881D01*
X116206267Y-76904293D01*
X116206265Y-76904294D01*
X116200957Y-76905716D01*
X116195976Y-76908039D01*
X116195975Y-76908039D01*
X115998438Y-77000151D01*
X115998433Y-77000154D01*
X115993451Y-77002477D01*
X115891370Y-77073955D01*
X115810411Y-77130643D01*
X115810408Y-77130645D01*
X115805900Y-77133802D01*
X115644002Y-77295700D01*
X115512677Y-77483251D01*
X115510354Y-77488233D01*
X115510351Y-77488238D01*
X115470052Y-77574661D01*
X115415916Y-77690757D01*
X115414494Y-77696065D01*
X115414493Y-77696067D01*
X115376529Y-77837749D01*
X115356657Y-77911913D01*
X115336702Y-78140000D01*
X115356657Y-78368087D01*
X115358081Y-78373400D01*
X115358081Y-78373402D01*
X115359268Y-78377830D01*
X115415916Y-78589243D01*
X115418239Y-78594224D01*
X115418239Y-78594225D01*
X115510351Y-78791762D01*
X115510354Y-78791767D01*
X115512677Y-78796749D01*
X115515834Y-78801257D01*
X115545573Y-78843729D01*
X115568261Y-78911003D01*
X115550976Y-78979863D01*
X115499207Y-79028448D01*
X115442360Y-79042000D01*
X112778040Y-79042000D01*
X112709919Y-79021998D01*
X112663426Y-78968342D01*
X112653322Y-78898068D01*
X112674827Y-78843729D01*
X112704566Y-78801257D01*
X112707723Y-78796749D01*
X112710046Y-78791767D01*
X112710049Y-78791762D01*
X112802161Y-78594225D01*
X112802161Y-78594224D01*
X112804484Y-78589243D01*
X112861133Y-78377830D01*
X112862319Y-78373402D01*
X112862319Y-78373400D01*
X112863743Y-78368087D01*
X112883698Y-78140000D01*
X112863743Y-77911913D01*
X112843871Y-77837749D01*
X112805907Y-77696067D01*
X112805906Y-77696065D01*
X112804484Y-77690757D01*
X112750348Y-77574661D01*
X112710049Y-77488238D01*
X112710046Y-77488233D01*
X112707723Y-77483251D01*
X112576398Y-77295700D01*
X112414500Y-77133802D01*
X112409992Y-77130645D01*
X112409989Y-77130643D01*
X112329030Y-77073955D01*
X112226949Y-77002477D01*
X112221967Y-77000154D01*
X112221962Y-77000151D01*
X112024425Y-76908039D01*
X112024424Y-76908039D01*
X112019443Y-76905716D01*
X112014135Y-76904294D01*
X112014133Y-76904293D01*
X111803602Y-76847881D01*
X111803600Y-76847881D01*
X111798287Y-76846457D01*
X111570200Y-76826502D01*
X111342113Y-76846457D01*
X111336800Y-76847881D01*
X111336798Y-76847881D01*
X111126267Y-76904293D01*
X111126265Y-76904294D01*
X111120957Y-76905716D01*
X111115976Y-76908039D01*
X111115975Y-76908039D01*
X110918438Y-77000151D01*
X110918433Y-77000154D01*
X110913451Y-77002477D01*
X110811370Y-77073955D01*
X110730411Y-77130643D01*
X110730408Y-77130645D01*
X110725900Y-77133802D01*
X110564002Y-77295700D01*
X110432677Y-77483251D01*
X110430354Y-77488233D01*
X110430351Y-77488238D01*
X110414395Y-77522457D01*
X110367478Y-77575742D01*
X110299201Y-77595203D01*
X110231241Y-77574661D01*
X110186005Y-77522457D01*
X110170049Y-77488238D01*
X110170046Y-77488233D01*
X110167723Y-77483251D01*
X110036398Y-77295700D01*
X109874500Y-77133802D01*
X109869992Y-77130645D01*
X109869989Y-77130643D01*
X109789030Y-77073955D01*
X109686949Y-77002477D01*
X109681967Y-77000154D01*
X109681962Y-77000151D01*
X109484425Y-76908039D01*
X109484424Y-76908039D01*
X109479443Y-76905716D01*
X109474135Y-76904294D01*
X109474133Y-76904293D01*
X109263602Y-76847881D01*
X109263600Y-76847881D01*
X109258287Y-76846457D01*
X109030200Y-76826502D01*
X108802113Y-76846457D01*
X108796800Y-76847881D01*
X108796798Y-76847881D01*
X108586267Y-76904293D01*
X108586265Y-76904294D01*
X108580957Y-76905716D01*
X108575976Y-76908039D01*
X108575975Y-76908039D01*
X108378438Y-77000151D01*
X108378433Y-77000154D01*
X108373451Y-77002477D01*
X108271370Y-77073955D01*
X108190411Y-77130643D01*
X108190408Y-77130645D01*
X108185900Y-77133802D01*
X108024002Y-77295700D01*
X107892677Y-77483251D01*
X107890354Y-77488233D01*
X107890351Y-77488238D01*
X107874395Y-77522457D01*
X107827478Y-77575742D01*
X107759201Y-77595203D01*
X107691241Y-77574661D01*
X107646005Y-77522457D01*
X107630049Y-77488238D01*
X107630046Y-77488233D01*
X107627723Y-77483251D01*
X107496398Y-77295700D01*
X107334500Y-77133802D01*
X107329992Y-77130645D01*
X107329989Y-77130643D01*
X107249030Y-77073955D01*
X107146949Y-77002477D01*
X107141967Y-77000154D01*
X107141962Y-77000151D01*
X106944425Y-76908039D01*
X106944424Y-76908039D01*
X106939443Y-76905716D01*
X106934135Y-76904294D01*
X106934133Y-76904293D01*
X106723602Y-76847881D01*
X106723600Y-76847881D01*
X106718287Y-76846457D01*
X106490200Y-76826502D01*
X106262113Y-76846457D01*
X106256800Y-76847881D01*
X106256798Y-76847881D01*
X106046267Y-76904293D01*
X106046265Y-76904294D01*
X106040957Y-76905716D01*
X106035976Y-76908039D01*
X106035975Y-76908039D01*
X105838438Y-77000151D01*
X105838433Y-77000154D01*
X105833451Y-77002477D01*
X105731370Y-77073955D01*
X105650411Y-77130643D01*
X105650408Y-77130645D01*
X105645900Y-77133802D01*
X105484002Y-77295700D01*
X105352677Y-77483251D01*
X105350354Y-77488233D01*
X105350351Y-77488238D01*
X105334395Y-77522457D01*
X105287478Y-77575742D01*
X105219201Y-77595203D01*
X105151241Y-77574661D01*
X105106005Y-77522457D01*
X105090049Y-77488238D01*
X105090046Y-77488233D01*
X105087723Y-77483251D01*
X104956398Y-77295700D01*
X104794500Y-77133802D01*
X104789992Y-77130645D01*
X104789989Y-77130643D01*
X104709030Y-77073955D01*
X104606949Y-77002477D01*
X104601967Y-77000154D01*
X104601962Y-77000151D01*
X104404425Y-76908039D01*
X104404424Y-76908039D01*
X104399443Y-76905716D01*
X104394135Y-76904294D01*
X104394133Y-76904293D01*
X104183602Y-76847881D01*
X104183600Y-76847881D01*
X104178287Y-76846457D01*
X103950200Y-76826502D01*
X103722113Y-76846457D01*
X103716800Y-76847881D01*
X103716798Y-76847881D01*
X103506267Y-76904293D01*
X103506265Y-76904294D01*
X103500957Y-76905716D01*
X103495976Y-76908039D01*
X103495975Y-76908039D01*
X103298438Y-77000151D01*
X103298433Y-77000154D01*
X103293451Y-77002477D01*
X103191370Y-77073955D01*
X103110411Y-77130643D01*
X103110408Y-77130645D01*
X103105900Y-77133802D01*
X102944002Y-77295700D01*
X102812677Y-77483251D01*
X102810354Y-77488233D01*
X102810351Y-77488238D01*
X102794395Y-77522457D01*
X102747478Y-77575742D01*
X102679201Y-77595203D01*
X102611241Y-77574661D01*
X102566005Y-77522457D01*
X102550049Y-77488238D01*
X102550046Y-77488233D01*
X102547723Y-77483251D01*
X102416398Y-77295700D01*
X102254500Y-77133802D01*
X102249992Y-77130645D01*
X102249989Y-77130643D01*
X102169030Y-77073955D01*
X102066949Y-77002477D01*
X102061967Y-77000154D01*
X102061962Y-77000151D01*
X101864425Y-76908039D01*
X101864424Y-76908039D01*
X101859443Y-76905716D01*
X101854135Y-76904294D01*
X101854133Y-76904293D01*
X101643602Y-76847881D01*
X101643600Y-76847881D01*
X101638287Y-76846457D01*
X101410200Y-76826502D01*
X101182113Y-76846457D01*
X101176800Y-76847881D01*
X101176798Y-76847881D01*
X100966267Y-76904293D01*
X100966265Y-76904294D01*
X100960957Y-76905716D01*
X100955976Y-76908039D01*
X100955975Y-76908039D01*
X100758438Y-77000151D01*
X100758433Y-77000154D01*
X100753451Y-77002477D01*
X100651370Y-77073955D01*
X100570411Y-77130643D01*
X100570408Y-77130645D01*
X100565900Y-77133802D01*
X100404002Y-77295700D01*
X100272677Y-77483251D01*
X100270354Y-77488233D01*
X100270351Y-77488238D01*
X100254395Y-77522457D01*
X100207478Y-77575742D01*
X100139201Y-77595203D01*
X100071241Y-77574661D01*
X100026005Y-77522457D01*
X100010049Y-77488238D01*
X100010046Y-77488233D01*
X100007723Y-77483251D01*
X99876398Y-77295700D01*
X99714500Y-77133802D01*
X99709992Y-77130645D01*
X99709989Y-77130643D01*
X99629030Y-77073955D01*
X99526949Y-77002477D01*
X99521967Y-77000154D01*
X99521962Y-77000151D01*
X99324425Y-76908039D01*
X99324424Y-76908039D01*
X99319443Y-76905716D01*
X99314135Y-76904294D01*
X99314133Y-76904293D01*
X99103602Y-76847881D01*
X99103600Y-76847881D01*
X99098287Y-76846457D01*
X98870200Y-76826502D01*
X98642113Y-76846457D01*
X98636800Y-76847881D01*
X98636798Y-76847881D01*
X98426267Y-76904293D01*
X98426265Y-76904294D01*
X98420957Y-76905716D01*
X98415976Y-76908039D01*
X98415975Y-76908039D01*
X98218438Y-77000151D01*
X98218433Y-77000154D01*
X98213451Y-77002477D01*
X98111370Y-77073955D01*
X98030411Y-77130643D01*
X98030408Y-77130645D01*
X98025900Y-77133802D01*
X97864002Y-77295700D01*
X97732677Y-77483251D01*
X97730354Y-77488233D01*
X97730351Y-77488238D01*
X97714395Y-77522457D01*
X97667478Y-77575742D01*
X97599201Y-77595203D01*
X97531241Y-77574661D01*
X97486005Y-77522457D01*
X97470049Y-77488238D01*
X97470046Y-77488233D01*
X97467723Y-77483251D01*
X97336398Y-77295700D01*
X97174500Y-77133802D01*
X97169992Y-77130645D01*
X97169989Y-77130643D01*
X97089030Y-77073955D01*
X96986949Y-77002477D01*
X96981967Y-77000154D01*
X96981962Y-77000151D01*
X96784425Y-76908039D01*
X96784424Y-76908039D01*
X96779443Y-76905716D01*
X96774135Y-76904294D01*
X96774133Y-76904293D01*
X96563602Y-76847881D01*
X96563600Y-76847881D01*
X96558287Y-76846457D01*
X96330200Y-76826502D01*
X96102113Y-76846457D01*
X96096800Y-76847881D01*
X96096798Y-76847881D01*
X95886267Y-76904293D01*
X95886265Y-76904294D01*
X95880957Y-76905716D01*
X95875976Y-76908039D01*
X95875975Y-76908039D01*
X95678438Y-77000151D01*
X95678433Y-77000154D01*
X95673451Y-77002477D01*
X95571370Y-77073955D01*
X95490411Y-77130643D01*
X95490408Y-77130645D01*
X95485900Y-77133802D01*
X95324002Y-77295700D01*
X95192677Y-77483251D01*
X95190354Y-77488233D01*
X95190351Y-77488238D01*
X95174395Y-77522457D01*
X95127478Y-77575742D01*
X95059201Y-77595203D01*
X94991241Y-77574661D01*
X94946005Y-77522457D01*
X94930049Y-77488238D01*
X94930046Y-77488233D01*
X94927723Y-77483251D01*
X94796398Y-77295700D01*
X94634500Y-77133802D01*
X94629992Y-77130645D01*
X94629989Y-77130643D01*
X94549030Y-77073955D01*
X94446949Y-77002477D01*
X94441967Y-77000154D01*
X94441962Y-77000151D01*
X94244425Y-76908039D01*
X94244424Y-76908039D01*
X94239443Y-76905716D01*
X94234135Y-76904294D01*
X94234133Y-76904293D01*
X94201809Y-76895632D01*
X94141186Y-76858680D01*
X94110165Y-76794820D01*
X94118593Y-76724325D01*
X94163796Y-76669578D01*
X94172854Y-76663990D01*
X94174159Y-76663259D01*
X94179193Y-76660440D01*
X94342893Y-76524293D01*
X94446266Y-76400000D01*
X113086496Y-76400000D01*
X113087186Y-76406565D01*
X113099948Y-76527984D01*
X113106458Y-76589928D01*
X113165473Y-76771556D01*
X113168776Y-76777278D01*
X113168777Y-76777279D01*
X113180064Y-76796829D01*
X113260960Y-76936944D01*
X113265378Y-76941851D01*
X113265379Y-76941852D01*
X113322806Y-77005631D01*
X113388747Y-77078866D01*
X113543248Y-77191118D01*
X113549276Y-77193802D01*
X113549278Y-77193803D01*
X113709644Y-77265202D01*
X113717712Y-77268794D01*
X113811113Y-77288647D01*
X113898056Y-77307128D01*
X113898061Y-77307128D01*
X113904513Y-77308500D01*
X114095487Y-77308500D01*
X114101939Y-77307128D01*
X114101944Y-77307128D01*
X114188887Y-77288647D01*
X114282288Y-77268794D01*
X114290356Y-77265202D01*
X114450722Y-77193803D01*
X114450724Y-77193802D01*
X114456752Y-77191118D01*
X114611253Y-77078866D01*
X114677194Y-77005631D01*
X114734621Y-76941852D01*
X114734622Y-76941851D01*
X114739040Y-76936944D01*
X114819936Y-76796829D01*
X114831223Y-76777279D01*
X114831224Y-76777278D01*
X114834527Y-76771556D01*
X114893542Y-76589928D01*
X114900053Y-76527984D01*
X114912814Y-76406565D01*
X114913504Y-76400000D01*
X114893542Y-76210072D01*
X114834527Y-76028444D01*
X114739040Y-75863056D01*
X114712132Y-75833171D01*
X114615675Y-75726045D01*
X114615674Y-75726044D01*
X114611253Y-75721134D01*
X114456752Y-75608882D01*
X114450724Y-75606198D01*
X114450722Y-75606197D01*
X114423655Y-75594146D01*
X151291500Y-75594146D01*
X151291653Y-75596332D01*
X151291653Y-75596336D01*
X151305581Y-75795512D01*
X151306189Y-75804212D01*
X151364591Y-76078970D01*
X151366094Y-76083099D01*
X151366095Y-76083103D01*
X151424415Y-76243334D01*
X151460663Y-76342926D01*
X151592536Y-76590942D01*
X151595122Y-76594501D01*
X151595123Y-76594503D01*
X151750324Y-76808119D01*
X151757642Y-76818192D01*
X151760698Y-76821356D01*
X151760700Y-76821359D01*
X151831356Y-76894525D01*
X151952769Y-77020252D01*
X152174118Y-77193188D01*
X152177922Y-77195384D01*
X152177929Y-77195389D01*
X152359487Y-77300211D01*
X152417381Y-77333636D01*
X152677824Y-77438862D01*
X152682097Y-77439927D01*
X152682099Y-77439928D01*
X152946107Y-77505753D01*
X152946112Y-77505754D01*
X152950376Y-77506817D01*
X152954744Y-77507276D01*
X152954749Y-77507277D01*
X153225364Y-77535719D01*
X153225367Y-77535719D01*
X153229733Y-77536178D01*
X153234121Y-77536025D01*
X153234127Y-77536025D01*
X153506061Y-77526529D01*
X153506067Y-77526528D01*
X153510458Y-77526375D01*
X153514781Y-77525613D01*
X153514788Y-77525612D01*
X153726744Y-77488238D01*
X153787087Y-77477598D01*
X154054235Y-77390797D01*
X154058188Y-77388869D01*
X154058193Y-77388867D01*
X154171432Y-77333636D01*
X154306702Y-77267660D01*
X154310341Y-77265205D01*
X154310347Y-77265202D01*
X154436618Y-77180031D01*
X154539576Y-77110585D01*
X154574804Y-77078866D01*
X154726973Y-76941852D01*
X154748322Y-76922629D01*
X154760565Y-76908039D01*
X154838945Y-76814629D01*
X154928879Y-76707450D01*
X155077731Y-76469236D01*
X155167634Y-76267311D01*
X155190195Y-76216639D01*
X155190196Y-76216637D01*
X155191982Y-76212625D01*
X155237448Y-76054065D01*
X155268195Y-75946837D01*
X155268195Y-75946836D01*
X155269407Y-75942610D01*
X155274532Y-75906148D01*
X155288254Y-75808507D01*
X155308500Y-75664448D01*
X155308500Y-73353854D01*
X155302069Y-73261887D01*
X155294118Y-73148173D01*
X155294117Y-73148168D01*
X155293811Y-73143788D01*
X155235409Y-72869030D01*
X155233385Y-72863469D01*
X155140846Y-72609219D01*
X155140844Y-72609215D01*
X155139337Y-72605074D01*
X155007464Y-72357058D01*
X155002336Y-72350000D01*
X154844947Y-72133371D01*
X154844944Y-72133368D01*
X154842358Y-72129808D01*
X154827436Y-72114355D01*
X154713078Y-71995935D01*
X154647231Y-71927748D01*
X154425882Y-71754812D01*
X154422078Y-71752616D01*
X154422071Y-71752611D01*
X154216742Y-71634065D01*
X154182619Y-71614364D01*
X153922176Y-71509138D01*
X153914981Y-71507344D01*
X153653893Y-71442247D01*
X153653888Y-71442246D01*
X153649624Y-71441183D01*
X153645256Y-71440724D01*
X153645251Y-71440723D01*
X153374636Y-71412281D01*
X153374633Y-71412281D01*
X153370267Y-71411822D01*
X153365879Y-71411975D01*
X153365873Y-71411975D01*
X153093939Y-71421471D01*
X153093933Y-71421472D01*
X153089542Y-71421625D01*
X153085219Y-71422387D01*
X153085212Y-71422388D01*
X152909506Y-71453370D01*
X152812913Y-71470402D01*
X152545765Y-71557203D01*
X152541812Y-71559131D01*
X152541807Y-71559133D01*
X152484789Y-71586943D01*
X152293298Y-71680340D01*
X152289659Y-71682795D01*
X152289653Y-71682798D01*
X152186151Y-71752611D01*
X152060424Y-71837415D01*
X152057153Y-71840360D01*
X152057152Y-71840361D01*
X152047955Y-71848642D01*
X151851678Y-72025371D01*
X151671121Y-72240550D01*
X151668789Y-72244282D01*
X151525192Y-72474087D01*
X151522269Y-72478764D01*
X151457776Y-72623618D01*
X151411623Y-72727279D01*
X151408018Y-72735375D01*
X151330593Y-73005390D01*
X151329982Y-73009740D01*
X151329981Y-73009743D01*
X151319280Y-73085885D01*
X151291500Y-73283552D01*
X151291500Y-75594146D01*
X114423655Y-75594146D01*
X114288319Y-75533891D01*
X114288318Y-75533891D01*
X114282288Y-75531206D01*
X114188888Y-75511353D01*
X114101944Y-75492872D01*
X114101939Y-75492872D01*
X114095487Y-75491500D01*
X113904513Y-75491500D01*
X113898061Y-75492872D01*
X113898056Y-75492872D01*
X113811113Y-75511353D01*
X113717712Y-75531206D01*
X113711682Y-75533891D01*
X113711681Y-75533891D01*
X113549278Y-75606197D01*
X113549276Y-75606198D01*
X113543248Y-75608882D01*
X113388747Y-75721134D01*
X113384326Y-75726044D01*
X113384325Y-75726045D01*
X113287869Y-75833171D01*
X113260960Y-75863056D01*
X113165473Y-76028444D01*
X113106458Y-76210072D01*
X113086496Y-76400000D01*
X94446266Y-76400000D01*
X94449329Y-76396317D01*
X94475349Y-76365031D01*
X94479040Y-76360593D01*
X94583076Y-76174823D01*
X94651516Y-75973205D01*
X94655340Y-75946837D01*
X94681537Y-75766161D01*
X94681537Y-75766159D01*
X94682069Y-75762491D01*
X94683663Y-75701600D01*
X94664181Y-75489576D01*
X94606386Y-75284652D01*
X94564641Y-75200000D01*
X94514770Y-75098873D01*
X94512215Y-75093692D01*
X94384822Y-74923091D01*
X94228471Y-74778563D01*
X94048401Y-74664947D01*
X93850641Y-74586049D01*
X93844981Y-74584923D01*
X93844977Y-74584922D01*
X93647482Y-74545638D01*
X93647480Y-74545638D01*
X93641815Y-74544511D01*
X93636040Y-74544435D01*
X93636036Y-74544435D01*
X93529361Y-74543039D01*
X93428916Y-74541724D01*
X93423219Y-74542703D01*
X93423218Y-74542703D01*
X93224764Y-74576803D01*
X93224761Y-74576804D01*
X93219074Y-74577781D01*
X93019316Y-74651475D01*
X92836334Y-74760339D01*
X92793722Y-74797709D01*
X92788439Y-74802342D01*
X92724034Y-74832218D01*
X92653702Y-74822532D01*
X92604536Y-74783174D01*
X92590274Y-74764144D01*
X92533461Y-74688339D01*
X92507356Y-74668774D01*
X92438082Y-74616856D01*
X92395567Y-74559997D01*
X92390541Y-74489178D01*
X92416773Y-74435461D01*
X92420637Y-74430816D01*
X92479040Y-74360593D01*
X92583076Y-74174823D01*
X92651516Y-73973205D01*
X92652667Y-73965271D01*
X92681537Y-73766161D01*
X92681537Y-73766159D01*
X92682069Y-73762491D01*
X92683663Y-73701600D01*
X92664181Y-73489576D01*
X92648456Y-73433820D01*
X92607954Y-73290211D01*
X92607953Y-73290209D01*
X92606386Y-73284652D01*
X92603698Y-73279200D01*
X92514770Y-73098873D01*
X92512215Y-73093692D01*
X92498988Y-73075978D01*
X92398806Y-72941818D01*
X92384822Y-72923091D01*
X92243371Y-72792336D01*
X92206926Y-72731410D01*
X92209206Y-72660450D01*
X92248331Y-72602939D01*
X92338455Y-72527984D01*
X92342893Y-72524293D01*
X92392104Y-72465123D01*
X92421708Y-72429528D01*
X92480645Y-72389944D01*
X92551627Y-72388507D01*
X92612118Y-72425675D01*
X92621478Y-72437375D01*
X92629695Y-72449001D01*
X92635496Y-72457209D01*
X92788009Y-72605781D01*
X92792805Y-72608986D01*
X92792808Y-72608988D01*
X92883178Y-72669371D01*
X92965043Y-72724071D01*
X92970346Y-72726349D01*
X92970349Y-72726351D01*
X93142089Y-72800136D01*
X93160670Y-72808119D01*
X93236516Y-72825281D01*
X93362701Y-72853834D01*
X93362706Y-72853835D01*
X93368338Y-72855109D01*
X93374109Y-72855336D01*
X93374111Y-72855336D01*
X93435452Y-72857746D01*
X93581091Y-72863469D01*
X93586800Y-72862641D01*
X93586804Y-72862641D01*
X93786090Y-72833745D01*
X93786094Y-72833744D01*
X93791805Y-72832916D01*
X93993423Y-72764476D01*
X94179193Y-72660440D01*
X94342893Y-72524293D01*
X94479040Y-72360593D01*
X94484972Y-72350000D01*
X103841496Y-72350000D01*
X103842186Y-72356565D01*
X103860203Y-72527984D01*
X103861458Y-72539928D01*
X103920473Y-72721556D01*
X103923776Y-72727278D01*
X103923777Y-72727279D01*
X103928383Y-72735256D01*
X104015960Y-72886944D01*
X104020378Y-72891851D01*
X104020379Y-72891852D01*
X104132268Y-73016117D01*
X104143747Y-73028866D01*
X104298248Y-73141118D01*
X104304276Y-73143802D01*
X104304278Y-73143803D01*
X104357503Y-73167500D01*
X104472712Y-73218794D01*
X104542458Y-73233619D01*
X104653056Y-73257128D01*
X104653061Y-73257128D01*
X104659513Y-73258500D01*
X104850487Y-73258500D01*
X104856939Y-73257128D01*
X104856944Y-73257128D01*
X104967542Y-73233619D01*
X105037288Y-73218794D01*
X105152497Y-73167500D01*
X105205722Y-73143803D01*
X105205724Y-73143802D01*
X105211752Y-73141118D01*
X105366253Y-73028866D01*
X105377732Y-73016117D01*
X105489621Y-72891852D01*
X105489622Y-72891851D01*
X105494040Y-72886944D01*
X105581617Y-72735256D01*
X105586223Y-72727279D01*
X105586224Y-72727278D01*
X105589527Y-72721556D01*
X105648542Y-72539928D01*
X105649798Y-72527984D01*
X105667814Y-72356565D01*
X105668504Y-72350000D01*
X105663792Y-72305165D01*
X105649232Y-72166635D01*
X105649232Y-72166633D01*
X105648542Y-72160072D01*
X105609063Y-72038570D01*
X123635425Y-72038570D01*
X123636115Y-72045135D01*
X123649746Y-72174823D01*
X123655387Y-72228498D01*
X123714402Y-72410126D01*
X123717705Y-72415848D01*
X123717706Y-72415849D01*
X123741585Y-72457209D01*
X123809889Y-72575514D01*
X123814307Y-72580421D01*
X123814308Y-72580422D01*
X123889831Y-72664299D01*
X123937676Y-72717436D01*
X124002421Y-72764476D01*
X124059845Y-72806197D01*
X124092177Y-72829688D01*
X124098205Y-72832372D01*
X124098207Y-72832373D01*
X124259231Y-72904065D01*
X124266641Y-72907364D01*
X124347203Y-72924488D01*
X124446985Y-72945698D01*
X124446990Y-72945698D01*
X124453442Y-72947070D01*
X124644416Y-72947070D01*
X124650868Y-72945698D01*
X124650873Y-72945698D01*
X124750655Y-72924488D01*
X124831217Y-72907364D01*
X124838627Y-72904065D01*
X124999651Y-72832373D01*
X124999653Y-72832372D01*
X125005681Y-72829688D01*
X125038014Y-72806197D01*
X125095437Y-72764476D01*
X125160182Y-72717436D01*
X125208027Y-72664299D01*
X125283550Y-72580422D01*
X125283551Y-72580421D01*
X125287969Y-72575514D01*
X125356273Y-72457209D01*
X125380152Y-72415849D01*
X125380153Y-72415848D01*
X125383456Y-72410126D01*
X125442471Y-72228498D01*
X125448113Y-72174823D01*
X125461743Y-72045135D01*
X125462433Y-72038570D01*
X125457361Y-71990310D01*
X125443161Y-71855205D01*
X125443161Y-71855203D01*
X125442471Y-71848642D01*
X125433165Y-71820000D01*
X145336647Y-71820000D01*
X145356022Y-72041463D01*
X145389562Y-72166635D01*
X145410368Y-72244282D01*
X145413560Y-72256196D01*
X145415882Y-72261177D01*
X145415883Y-72261178D01*
X145505186Y-72452689D01*
X145505189Y-72452694D01*
X145507512Y-72457676D01*
X145510668Y-72462183D01*
X145510669Y-72462185D01*
X145627545Y-72629101D01*
X145635023Y-72639781D01*
X145792219Y-72796977D01*
X145796727Y-72800134D01*
X145796730Y-72800136D01*
X145843545Y-72832916D01*
X145974323Y-72924488D01*
X145979305Y-72926811D01*
X145979310Y-72926814D01*
X146138753Y-73001163D01*
X146175804Y-73018440D01*
X146181112Y-73019862D01*
X146181114Y-73019863D01*
X146196386Y-73023955D01*
X146390537Y-73075978D01*
X146612000Y-73095353D01*
X146833463Y-73075978D01*
X147027614Y-73023955D01*
X147042886Y-73019863D01*
X147042888Y-73019862D01*
X147048196Y-73018440D01*
X147085247Y-73001163D01*
X147244690Y-72926814D01*
X147244695Y-72926811D01*
X147249677Y-72924488D01*
X147380455Y-72832916D01*
X147427270Y-72800136D01*
X147427273Y-72800134D01*
X147431781Y-72796977D01*
X147588977Y-72639781D01*
X147596456Y-72629101D01*
X147713331Y-72462185D01*
X147713332Y-72462183D01*
X147716488Y-72457676D01*
X147718811Y-72452694D01*
X147718814Y-72452689D01*
X147808117Y-72261178D01*
X147808118Y-72261177D01*
X147810440Y-72256196D01*
X147813633Y-72244282D01*
X147834438Y-72166635D01*
X147867978Y-72041463D01*
X147887353Y-71820000D01*
X147867978Y-71598537D01*
X147820574Y-71421625D01*
X147811863Y-71389114D01*
X147811862Y-71389112D01*
X147810440Y-71383804D01*
X147796364Y-71353618D01*
X147718814Y-71187311D01*
X147718811Y-71187306D01*
X147716488Y-71182324D01*
X147680860Y-71131442D01*
X147592136Y-71004730D01*
X147592134Y-71004727D01*
X147588977Y-71000219D01*
X147431781Y-70843023D01*
X147427273Y-70839866D01*
X147427270Y-70839864D01*
X147335320Y-70775480D01*
X147249677Y-70715512D01*
X147244695Y-70713189D01*
X147244690Y-70713186D01*
X147139627Y-70664195D01*
X147086342Y-70617278D01*
X147066881Y-70549001D01*
X147087423Y-70481041D01*
X147139627Y-70435805D01*
X147244690Y-70386814D01*
X147244695Y-70386811D01*
X147249677Y-70384488D01*
X147360158Y-70307128D01*
X147427270Y-70260136D01*
X147427273Y-70260134D01*
X147431781Y-70256977D01*
X147588977Y-70099781D01*
X147594776Y-70091500D01*
X147713331Y-69922185D01*
X147713332Y-69922183D01*
X147716488Y-69917676D01*
X147718811Y-69912694D01*
X147718814Y-69912689D01*
X147808117Y-69721178D01*
X147808118Y-69721177D01*
X147810440Y-69716196D01*
X147867978Y-69501463D01*
X147887353Y-69280000D01*
X147867978Y-69058537D01*
X147814611Y-68859371D01*
X147811863Y-68849114D01*
X147811862Y-68849112D01*
X147810440Y-68843804D01*
X147808117Y-68838822D01*
X147718814Y-68647311D01*
X147718811Y-68647306D01*
X147716488Y-68642324D01*
X147701780Y-68621319D01*
X147592136Y-68464730D01*
X147592134Y-68464727D01*
X147588977Y-68460219D01*
X147431781Y-68303023D01*
X147427273Y-68299866D01*
X147427270Y-68299864D01*
X147295966Y-68207924D01*
X147249677Y-68175512D01*
X147244695Y-68173189D01*
X147244690Y-68173186D01*
X147139627Y-68124195D01*
X147086342Y-68077278D01*
X147066881Y-68009001D01*
X147087423Y-67941041D01*
X147139627Y-67895805D01*
X147149679Y-67891118D01*
X147158001Y-67887237D01*
X147244690Y-67846814D01*
X147244695Y-67846811D01*
X147249677Y-67844488D01*
X147351505Y-67773187D01*
X147427270Y-67720136D01*
X147427273Y-67720134D01*
X147431781Y-67716977D01*
X147588977Y-67559781D01*
X147646746Y-67477279D01*
X147713331Y-67382185D01*
X147713332Y-67382183D01*
X147716488Y-67377676D01*
X147718811Y-67372694D01*
X147718814Y-67372689D01*
X147808117Y-67181178D01*
X147808118Y-67181177D01*
X147810440Y-67176196D01*
X147818862Y-67144767D01*
X147849227Y-67031442D01*
X147867978Y-66961463D01*
X147887353Y-66740000D01*
X147867978Y-66518537D01*
X147810440Y-66303804D01*
X147804271Y-66290575D01*
X147718814Y-66107311D01*
X147718811Y-66107306D01*
X147716488Y-66102324D01*
X147713331Y-66097815D01*
X147592136Y-65924730D01*
X147592134Y-65924727D01*
X147588977Y-65920219D01*
X147431781Y-65763023D01*
X147427273Y-65759866D01*
X147427270Y-65759864D01*
X147293138Y-65665944D01*
X147249677Y-65635512D01*
X147244695Y-65633189D01*
X147244690Y-65633186D01*
X147139627Y-65584195D01*
X147086342Y-65537278D01*
X147066881Y-65469001D01*
X147087423Y-65401041D01*
X147139627Y-65355805D01*
X147244690Y-65306814D01*
X147244695Y-65306811D01*
X147249677Y-65304488D01*
X147408277Y-65193435D01*
X147427270Y-65180136D01*
X147427273Y-65180134D01*
X147431781Y-65176977D01*
X147588977Y-65019781D01*
X147595776Y-65010072D01*
X147713331Y-64842185D01*
X147713332Y-64842183D01*
X147716488Y-64837676D01*
X147718811Y-64832694D01*
X147718814Y-64832689D01*
X147808117Y-64641178D01*
X147808118Y-64641177D01*
X147810440Y-64636196D01*
X147867978Y-64421463D01*
X147887353Y-64200000D01*
X147867978Y-63978537D01*
X147810440Y-63763804D01*
X147740223Y-63613223D01*
X147718814Y-63567311D01*
X147718811Y-63567306D01*
X147716488Y-63562324D01*
X147713331Y-63557815D01*
X147592136Y-63384730D01*
X147592134Y-63384727D01*
X147588977Y-63380219D01*
X147431781Y-63223023D01*
X147427273Y-63219866D01*
X147427270Y-63219864D01*
X147303789Y-63133402D01*
X147249677Y-63095512D01*
X147244695Y-63093189D01*
X147244690Y-63093186D01*
X147053178Y-63003883D01*
X147053177Y-63003882D01*
X147048196Y-63001560D01*
X147042888Y-63000138D01*
X147042886Y-63000137D01*
X146977051Y-62982497D01*
X146833463Y-62944022D01*
X146612000Y-62924647D01*
X146390537Y-62944022D01*
X146246949Y-62982497D01*
X146181114Y-63000137D01*
X146181112Y-63000138D01*
X146175804Y-63001560D01*
X146170823Y-63003882D01*
X146170822Y-63003883D01*
X145979311Y-63093186D01*
X145979306Y-63093189D01*
X145974324Y-63095512D01*
X145969817Y-63098668D01*
X145969815Y-63098669D01*
X145796730Y-63219864D01*
X145796727Y-63219866D01*
X145792219Y-63223023D01*
X145635023Y-63380219D01*
X145631866Y-63384727D01*
X145631864Y-63384730D01*
X145510669Y-63557815D01*
X145507512Y-63562324D01*
X145505189Y-63567306D01*
X145505186Y-63567311D01*
X145483777Y-63613223D01*
X145413560Y-63763804D01*
X145356022Y-63978537D01*
X145336647Y-64200000D01*
X145356022Y-64421463D01*
X145413560Y-64636196D01*
X145415882Y-64641177D01*
X145415883Y-64641178D01*
X145505186Y-64832689D01*
X145505189Y-64832694D01*
X145507512Y-64837676D01*
X145510668Y-64842183D01*
X145510669Y-64842185D01*
X145628225Y-65010072D01*
X145635023Y-65019781D01*
X145792219Y-65176977D01*
X145796727Y-65180134D01*
X145796730Y-65180136D01*
X145815723Y-65193435D01*
X145974323Y-65304488D01*
X145979305Y-65306811D01*
X145979310Y-65306814D01*
X146084373Y-65355805D01*
X146137658Y-65402722D01*
X146157119Y-65470999D01*
X146136577Y-65538959D01*
X146084373Y-65584195D01*
X145979311Y-65633186D01*
X145979306Y-65633189D01*
X145974324Y-65635512D01*
X145969817Y-65638668D01*
X145969815Y-65638669D01*
X145796730Y-65759864D01*
X145796727Y-65759866D01*
X145792219Y-65763023D01*
X145635023Y-65920219D01*
X145631866Y-65924727D01*
X145631864Y-65924730D01*
X145510669Y-66097815D01*
X145507512Y-66102324D01*
X145505189Y-66107306D01*
X145505186Y-66107311D01*
X145419729Y-66290575D01*
X145413560Y-66303804D01*
X145356022Y-66518537D01*
X145336647Y-66740000D01*
X145356022Y-66961463D01*
X145374773Y-67031442D01*
X145405139Y-67144767D01*
X145413560Y-67176196D01*
X145415882Y-67181177D01*
X145415883Y-67181178D01*
X145505186Y-67372689D01*
X145505189Y-67372694D01*
X145507512Y-67377676D01*
X145510668Y-67382183D01*
X145510669Y-67382185D01*
X145577255Y-67477279D01*
X145635023Y-67559781D01*
X145792219Y-67716977D01*
X145796727Y-67720134D01*
X145796730Y-67720136D01*
X145872495Y-67773187D01*
X145974323Y-67844488D01*
X145979305Y-67846811D01*
X145979310Y-67846814D01*
X146065999Y-67887237D01*
X146074322Y-67891118D01*
X146084373Y-67895805D01*
X146137658Y-67942722D01*
X146157119Y-68010999D01*
X146136577Y-68078959D01*
X146084373Y-68124195D01*
X145979311Y-68173186D01*
X145979306Y-68173189D01*
X145974324Y-68175512D01*
X145969817Y-68178668D01*
X145969815Y-68178669D01*
X145796730Y-68299864D01*
X145796727Y-68299866D01*
X145792219Y-68303023D01*
X145635023Y-68460219D01*
X145631866Y-68464727D01*
X145631864Y-68464730D01*
X145522220Y-68621319D01*
X145507512Y-68642324D01*
X145505189Y-68647306D01*
X145505186Y-68647311D01*
X145415883Y-68838822D01*
X145413560Y-68843804D01*
X145412138Y-68849112D01*
X145412137Y-68849114D01*
X145409389Y-68859371D01*
X145356022Y-69058537D01*
X145336647Y-69280000D01*
X145356022Y-69501463D01*
X145413560Y-69716196D01*
X145415882Y-69721177D01*
X145415883Y-69721178D01*
X145505186Y-69912689D01*
X145505189Y-69912694D01*
X145507512Y-69917676D01*
X145510668Y-69922183D01*
X145510669Y-69922185D01*
X145629225Y-70091500D01*
X145635023Y-70099781D01*
X145792219Y-70256977D01*
X145796727Y-70260134D01*
X145796730Y-70260136D01*
X145863842Y-70307128D01*
X145974323Y-70384488D01*
X145979305Y-70386811D01*
X145979310Y-70386814D01*
X146084373Y-70435805D01*
X146137658Y-70482722D01*
X146157119Y-70550999D01*
X146136577Y-70618959D01*
X146084373Y-70664195D01*
X145979311Y-70713186D01*
X145979306Y-70713189D01*
X145974324Y-70715512D01*
X145969817Y-70718668D01*
X145969815Y-70718669D01*
X145796730Y-70839864D01*
X145796727Y-70839866D01*
X145792219Y-70843023D01*
X145635023Y-71000219D01*
X145631866Y-71004727D01*
X145631864Y-71004730D01*
X145543140Y-71131442D01*
X145507512Y-71182324D01*
X145505189Y-71187306D01*
X145505186Y-71187311D01*
X145427636Y-71353618D01*
X145413560Y-71383804D01*
X145412138Y-71389112D01*
X145412137Y-71389114D01*
X145403426Y-71421625D01*
X145356022Y-71598537D01*
X145336647Y-71820000D01*
X125433165Y-71820000D01*
X125383456Y-71667014D01*
X125287969Y-71501626D01*
X125272001Y-71483891D01*
X125164604Y-71364615D01*
X125164603Y-71364614D01*
X125160182Y-71359704D01*
X125005681Y-71247452D01*
X124999653Y-71244768D01*
X124999651Y-71244767D01*
X124837248Y-71172461D01*
X124837247Y-71172461D01*
X124831217Y-71169776D01*
X124737816Y-71149923D01*
X124650873Y-71131442D01*
X124650868Y-71131442D01*
X124644416Y-71130070D01*
X124453442Y-71130070D01*
X124446990Y-71131442D01*
X124446985Y-71131442D01*
X124360041Y-71149923D01*
X124266641Y-71169776D01*
X124260611Y-71172461D01*
X124260610Y-71172461D01*
X124098207Y-71244767D01*
X124098205Y-71244768D01*
X124092177Y-71247452D01*
X123937676Y-71359704D01*
X123933255Y-71364614D01*
X123933254Y-71364615D01*
X123825858Y-71483891D01*
X123809889Y-71501626D01*
X123714402Y-71667014D01*
X123655387Y-71848642D01*
X123654697Y-71855203D01*
X123654697Y-71855205D01*
X123640497Y-71990310D01*
X123635425Y-72038570D01*
X105609063Y-72038570D01*
X105589527Y-71978444D01*
X105494040Y-71813056D01*
X105488287Y-71806666D01*
X105370675Y-71676045D01*
X105370674Y-71676044D01*
X105366253Y-71671134D01*
X105257130Y-71591851D01*
X105217094Y-71562763D01*
X105217093Y-71562762D01*
X105211752Y-71558882D01*
X105205724Y-71556198D01*
X105205722Y-71556197D01*
X105043319Y-71483891D01*
X105043318Y-71483891D01*
X105037288Y-71481206D01*
X104936120Y-71459702D01*
X104856944Y-71442872D01*
X104856939Y-71442872D01*
X104850487Y-71441500D01*
X104659513Y-71441500D01*
X104653061Y-71442872D01*
X104653056Y-71442872D01*
X104573880Y-71459702D01*
X104472712Y-71481206D01*
X104466682Y-71483891D01*
X104466681Y-71483891D01*
X104304278Y-71556197D01*
X104304276Y-71556198D01*
X104298248Y-71558882D01*
X104292907Y-71562762D01*
X104292906Y-71562763D01*
X104252870Y-71591851D01*
X104143747Y-71671134D01*
X104139326Y-71676044D01*
X104139325Y-71676045D01*
X104021714Y-71806666D01*
X104015960Y-71813056D01*
X103920473Y-71978444D01*
X103861458Y-72160072D01*
X103860768Y-72166633D01*
X103860768Y-72166635D01*
X103846208Y-72305165D01*
X103841496Y-72350000D01*
X94484972Y-72350000D01*
X94583076Y-72174823D01*
X94651516Y-71973205D01*
X94653649Y-71958499D01*
X94681537Y-71766161D01*
X94681537Y-71766159D01*
X94682069Y-71762491D01*
X94683663Y-71701600D01*
X94670270Y-71555842D01*
X94664710Y-71495330D01*
X94664709Y-71495327D01*
X94664181Y-71489576D01*
X94661820Y-71481206D01*
X94607954Y-71290211D01*
X94607953Y-71290209D01*
X94606386Y-71284652D01*
X94595650Y-71262880D01*
X94514770Y-71098873D01*
X94512215Y-71093692D01*
X94479588Y-71049999D01*
X105541496Y-71049999D01*
X105561458Y-71239927D01*
X105620473Y-71421555D01*
X105623776Y-71427277D01*
X105623777Y-71427278D01*
X105642497Y-71459702D01*
X105715960Y-71586943D01*
X105720378Y-71591850D01*
X105720379Y-71591851D01*
X105826155Y-71709327D01*
X105843747Y-71728865D01*
X105942843Y-71800863D01*
X105967496Y-71818774D01*
X105998248Y-71841117D01*
X106004276Y-71843801D01*
X106004278Y-71843802D01*
X106149593Y-71908500D01*
X106172712Y-71918793D01*
X106266113Y-71938646D01*
X106353056Y-71957127D01*
X106353061Y-71957127D01*
X106359513Y-71958499D01*
X106550487Y-71958499D01*
X106556939Y-71957127D01*
X106556944Y-71957127D01*
X106643887Y-71938646D01*
X106737288Y-71918793D01*
X106760407Y-71908500D01*
X106905722Y-71843802D01*
X106905724Y-71843801D01*
X106911752Y-71841117D01*
X106942505Y-71818774D01*
X106967157Y-71800863D01*
X107066253Y-71728865D01*
X107108865Y-71681539D01*
X107169310Y-71644301D01*
X107240294Y-71645653D01*
X107296135Y-71681539D01*
X107338747Y-71728865D01*
X107437843Y-71800863D01*
X107462496Y-71818774D01*
X107493248Y-71841117D01*
X107499276Y-71843801D01*
X107499278Y-71843802D01*
X107644593Y-71908500D01*
X107667712Y-71918793D01*
X107761113Y-71938646D01*
X107848056Y-71957127D01*
X107848061Y-71957127D01*
X107854513Y-71958499D01*
X108045487Y-71958499D01*
X108051939Y-71957127D01*
X108051944Y-71957127D01*
X108138887Y-71938646D01*
X108232288Y-71918793D01*
X108255407Y-71908500D01*
X108400722Y-71843802D01*
X108400724Y-71843801D01*
X108406752Y-71841117D01*
X108428282Y-71825475D01*
X108539671Y-71744545D01*
X108561253Y-71728865D01*
X108565668Y-71723962D01*
X108570580Y-71719539D01*
X108572158Y-71721291D01*
X108623440Y-71689708D01*
X108694424Y-71691070D01*
X108730672Y-71709327D01*
X108843248Y-71791118D01*
X108849276Y-71793802D01*
X108849278Y-71793803D01*
X109011681Y-71866109D01*
X109017712Y-71868794D01*
X109087397Y-71883606D01*
X109198056Y-71907128D01*
X109198061Y-71907128D01*
X109204513Y-71908500D01*
X109395487Y-71908500D01*
X109401939Y-71907128D01*
X109401944Y-71907128D01*
X109512603Y-71883606D01*
X109582288Y-71868794D01*
X109588319Y-71866109D01*
X109750722Y-71793803D01*
X109750724Y-71793802D01*
X109756752Y-71791118D01*
X109911253Y-71678866D01*
X109941158Y-71645653D01*
X110034621Y-71541852D01*
X110034622Y-71541851D01*
X110039040Y-71536944D01*
X110134527Y-71371556D01*
X110193542Y-71189928D01*
X110194481Y-71180999D01*
X110212814Y-71006565D01*
X110213504Y-71000000D01*
X110200655Y-70877749D01*
X110194232Y-70816635D01*
X110194232Y-70816633D01*
X110193542Y-70810072D01*
X110134527Y-70628444D01*
X110039040Y-70463056D01*
X109970392Y-70386814D01*
X109915675Y-70326045D01*
X109915674Y-70326044D01*
X109911253Y-70321134D01*
X109756752Y-70208882D01*
X109750724Y-70206198D01*
X109750722Y-70206197D01*
X109588319Y-70133891D01*
X109588318Y-70133891D01*
X109582288Y-70131206D01*
X109488888Y-70111353D01*
X109401944Y-70092872D01*
X109401939Y-70092872D01*
X109395487Y-70091500D01*
X109204513Y-70091500D01*
X109198061Y-70092872D01*
X109198056Y-70092872D01*
X109111113Y-70111353D01*
X109017712Y-70131206D01*
X109011682Y-70133891D01*
X109011681Y-70133891D01*
X108849278Y-70206197D01*
X108849276Y-70206198D01*
X108843248Y-70208882D01*
X108837907Y-70212762D01*
X108837906Y-70212763D01*
X108758898Y-70270166D01*
X108688747Y-70321134D01*
X108684332Y-70326037D01*
X108679420Y-70330460D01*
X108677842Y-70328708D01*
X108626560Y-70360291D01*
X108555576Y-70358929D01*
X108519327Y-70340672D01*
X108492436Y-70321134D01*
X108473158Y-70307128D01*
X108412094Y-70262762D01*
X108412093Y-70262761D01*
X108406752Y-70258881D01*
X108400724Y-70256197D01*
X108400722Y-70256196D01*
X108238319Y-70183890D01*
X108238318Y-70183890D01*
X108232288Y-70181205D01*
X108138887Y-70161352D01*
X108051944Y-70142871D01*
X108051939Y-70142871D01*
X108045487Y-70141499D01*
X107854513Y-70141499D01*
X107848061Y-70142871D01*
X107848056Y-70142871D01*
X107761112Y-70161352D01*
X107667712Y-70181205D01*
X107661682Y-70183890D01*
X107661681Y-70183890D01*
X107499278Y-70256196D01*
X107499276Y-70256197D01*
X107493248Y-70258881D01*
X107487907Y-70262761D01*
X107487906Y-70262762D01*
X107437843Y-70299135D01*
X107338747Y-70371133D01*
X107296135Y-70418459D01*
X107235690Y-70455697D01*
X107164706Y-70454345D01*
X107108865Y-70418459D01*
X107066253Y-70371133D01*
X106967157Y-70299135D01*
X106917094Y-70262762D01*
X106917093Y-70262761D01*
X106911752Y-70258881D01*
X106905724Y-70256197D01*
X106905722Y-70256196D01*
X106743319Y-70183890D01*
X106743318Y-70183890D01*
X106737288Y-70181205D01*
X106643887Y-70161352D01*
X106556944Y-70142871D01*
X106556939Y-70142871D01*
X106550487Y-70141499D01*
X106359513Y-70141499D01*
X106353061Y-70142871D01*
X106353056Y-70142871D01*
X106266112Y-70161352D01*
X106172712Y-70181205D01*
X106166682Y-70183890D01*
X106166681Y-70183890D01*
X106004278Y-70256196D01*
X106004276Y-70256197D01*
X105998248Y-70258881D01*
X105992907Y-70262761D01*
X105992906Y-70262762D01*
X105942843Y-70299135D01*
X105843747Y-70371133D01*
X105839329Y-70376040D01*
X105839325Y-70376044D01*
X105733295Y-70493803D01*
X105715960Y-70513055D01*
X105620473Y-70678443D01*
X105561458Y-70860071D01*
X105560768Y-70866632D01*
X105560768Y-70866634D01*
X105551447Y-70955319D01*
X105541496Y-71049999D01*
X94479588Y-71049999D01*
X94384822Y-70923091D01*
X94228471Y-70778563D01*
X94048401Y-70664947D01*
X93850641Y-70586049D01*
X93844981Y-70584923D01*
X93844977Y-70584922D01*
X93647482Y-70545638D01*
X93647480Y-70545638D01*
X93641815Y-70544511D01*
X93636040Y-70544435D01*
X93636036Y-70544435D01*
X93529361Y-70543039D01*
X93428916Y-70541724D01*
X93423219Y-70542703D01*
X93423218Y-70542703D01*
X93224764Y-70576803D01*
X93224761Y-70576804D01*
X93219074Y-70577781D01*
X93019316Y-70651475D01*
X92929889Y-70704679D01*
X92848275Y-70753235D01*
X92836334Y-70760339D01*
X92676254Y-70900725D01*
X92672683Y-70905255D01*
X92672682Y-70905256D01*
X92619671Y-70972500D01*
X92561790Y-71013613D01*
X92490870Y-71016907D01*
X92429427Y-70981335D01*
X92419763Y-70969883D01*
X92388274Y-70927714D01*
X92384822Y-70923091D01*
X92228471Y-70778563D01*
X92048401Y-70664947D01*
X91850641Y-70586049D01*
X91844981Y-70584923D01*
X91844977Y-70584922D01*
X91647482Y-70545638D01*
X91647480Y-70545638D01*
X91641815Y-70544511D01*
X91636040Y-70544435D01*
X91636036Y-70544435D01*
X91529361Y-70543039D01*
X91428916Y-70541724D01*
X91423219Y-70542703D01*
X91423218Y-70542703D01*
X91224764Y-70576803D01*
X91224761Y-70576804D01*
X91219074Y-70577781D01*
X91019316Y-70651475D01*
X90929889Y-70704679D01*
X90848275Y-70753235D01*
X90836334Y-70760339D01*
X90676254Y-70900725D01*
X90544438Y-71067933D01*
X90541749Y-71073044D01*
X90541747Y-71073047D01*
X90521248Y-71112009D01*
X90445300Y-71256362D01*
X90443586Y-71261883D01*
X90443584Y-71261887D01*
X90397028Y-71411822D01*
X90382161Y-71459702D01*
X90357136Y-71671144D01*
X90371061Y-71883606D01*
X90372482Y-71889202D01*
X90372483Y-71889207D01*
X90410417Y-72038570D01*
X90423472Y-72089972D01*
X90425889Y-72095215D01*
X90462589Y-72174823D01*
X90512611Y-72283331D01*
X90635496Y-72457209D01*
X90788009Y-72605781D01*
X90789677Y-72606895D01*
X90829336Y-72664299D01*
X90831706Y-72735256D01*
X90792771Y-72798543D01*
X90676254Y-72900725D01*
X90544438Y-73067933D01*
X90541749Y-73073044D01*
X90541747Y-73073047D01*
X90492053Y-73167500D01*
X90445300Y-73256362D01*
X90443586Y-73261883D01*
X90443584Y-73261887D01*
X90399521Y-73403794D01*
X90382161Y-73459702D01*
X90357136Y-73671144D01*
X90371061Y-73883606D01*
X90372482Y-73889202D01*
X90372483Y-73889207D01*
X90420764Y-74079308D01*
X90423472Y-74089972D01*
X90425889Y-74095215D01*
X90462589Y-74174823D01*
X90512611Y-74283331D01*
X90515944Y-74288047D01*
X90627050Y-74445259D01*
X90650031Y-74512433D01*
X90633046Y-74581368D01*
X90599718Y-74618805D01*
X90506939Y-74688339D01*
X90419585Y-74804895D01*
X90368455Y-74941284D01*
X90361700Y-75003466D01*
X90361700Y-76399734D01*
X90368455Y-76461916D01*
X90419585Y-76598305D01*
X90506939Y-76714861D01*
X90514119Y-76720242D01*
X90514120Y-76720243D01*
X90609008Y-76791358D01*
X90651523Y-76848218D01*
X90656549Y-76919036D01*
X90622489Y-76981329D01*
X90597179Y-77000739D01*
X90593451Y-77002477D01*
X90548637Y-77033856D01*
X90410411Y-77130643D01*
X90410408Y-77130645D01*
X90405900Y-77133802D01*
X90244002Y-77295700D01*
X90112677Y-77483251D01*
X90110354Y-77488233D01*
X90110351Y-77488238D01*
X90094395Y-77522457D01*
X90047478Y-77575742D01*
X89979201Y-77595203D01*
X89911241Y-77574661D01*
X89866005Y-77522457D01*
X89850049Y-77488238D01*
X89850046Y-77488233D01*
X89847723Y-77483251D01*
X89716398Y-77295700D01*
X89554500Y-77133802D01*
X89549992Y-77130645D01*
X89549989Y-77130643D01*
X89469030Y-77073955D01*
X89366949Y-77002477D01*
X89361967Y-77000154D01*
X89361962Y-77000151D01*
X89164425Y-76908039D01*
X89164424Y-76908039D01*
X89159443Y-76905716D01*
X89154135Y-76904294D01*
X89154133Y-76904293D01*
X88943602Y-76847881D01*
X88943600Y-76847881D01*
X88938287Y-76846457D01*
X88710200Y-76826502D01*
X88482113Y-76846457D01*
X88476800Y-76847881D01*
X88476798Y-76847881D01*
X88266267Y-76904293D01*
X88266265Y-76904294D01*
X88260957Y-76905716D01*
X88255976Y-76908039D01*
X88255975Y-76908039D01*
X88058438Y-77000151D01*
X88058433Y-77000154D01*
X88053451Y-77002477D01*
X87951370Y-77073955D01*
X87870411Y-77130643D01*
X87870408Y-77130645D01*
X87865900Y-77133802D01*
X87704002Y-77295700D01*
X87572677Y-77483251D01*
X87570354Y-77488233D01*
X87570351Y-77488238D01*
X87554395Y-77522457D01*
X87507478Y-77575742D01*
X87439201Y-77595203D01*
X87371241Y-77574661D01*
X87326005Y-77522457D01*
X87310049Y-77488238D01*
X87310046Y-77488233D01*
X87307723Y-77483251D01*
X87176398Y-77295700D01*
X87014500Y-77133802D01*
X87009992Y-77130645D01*
X87009989Y-77130643D01*
X86929030Y-77073955D01*
X86826949Y-77002477D01*
X86821967Y-77000154D01*
X86821962Y-77000151D01*
X86624425Y-76908039D01*
X86624424Y-76908039D01*
X86619443Y-76905716D01*
X86614135Y-76904294D01*
X86614133Y-76904293D01*
X86403602Y-76847881D01*
X86403600Y-76847881D01*
X86398287Y-76846457D01*
X86170200Y-76826502D01*
X85942113Y-76846457D01*
X85936800Y-76847881D01*
X85936798Y-76847881D01*
X85726267Y-76904293D01*
X85726265Y-76904294D01*
X85720957Y-76905716D01*
X85715976Y-76908039D01*
X85715975Y-76908039D01*
X85518438Y-77000151D01*
X85518433Y-77000154D01*
X85513451Y-77002477D01*
X85411370Y-77073955D01*
X85330411Y-77130643D01*
X85330408Y-77130645D01*
X85325900Y-77133802D01*
X85164002Y-77295700D01*
X85032677Y-77483251D01*
X85030354Y-77488233D01*
X85030351Y-77488238D01*
X85014395Y-77522457D01*
X84967478Y-77575742D01*
X84899201Y-77595203D01*
X84831241Y-77574661D01*
X84786005Y-77522457D01*
X84770049Y-77488238D01*
X84770046Y-77488233D01*
X84767723Y-77483251D01*
X84636398Y-77295700D01*
X84474500Y-77133802D01*
X84469992Y-77130645D01*
X84469989Y-77130643D01*
X84389030Y-77073955D01*
X84286949Y-77002477D01*
X84281967Y-77000154D01*
X84281962Y-77000151D01*
X84084425Y-76908039D01*
X84084424Y-76908039D01*
X84079443Y-76905716D01*
X84074135Y-76904294D01*
X84074133Y-76904293D01*
X83863602Y-76847881D01*
X83863600Y-76847881D01*
X83858287Y-76846457D01*
X83630200Y-76826502D01*
X83402113Y-76846457D01*
X83396800Y-76847881D01*
X83396798Y-76847881D01*
X83186267Y-76904293D01*
X83186265Y-76904294D01*
X83180957Y-76905716D01*
X83175976Y-76908039D01*
X83175975Y-76908039D01*
X82978438Y-77000151D01*
X82978433Y-77000154D01*
X82973451Y-77002477D01*
X82871370Y-77073955D01*
X82790411Y-77130643D01*
X82790408Y-77130645D01*
X82785900Y-77133802D01*
X82624002Y-77295700D01*
X82492677Y-77483251D01*
X82490354Y-77488233D01*
X82490351Y-77488238D01*
X82450052Y-77574661D01*
X82395916Y-77690757D01*
X82394494Y-77696065D01*
X82394493Y-77696067D01*
X82356529Y-77837749D01*
X82336657Y-77911913D01*
X82316702Y-78140000D01*
X82336657Y-78368087D01*
X82338081Y-78373400D01*
X82338081Y-78373402D01*
X82339268Y-78377830D01*
X82395916Y-78589243D01*
X82398239Y-78594224D01*
X82398239Y-78594225D01*
X82490351Y-78791762D01*
X82490354Y-78791767D01*
X82492677Y-78796749D01*
X82495834Y-78801257D01*
X82525573Y-78843729D01*
X82548261Y-78911003D01*
X82530976Y-78979863D01*
X82479207Y-79028448D01*
X82422360Y-79042000D01*
X79758040Y-79042000D01*
X79689919Y-79021998D01*
X79643426Y-78968342D01*
X79633322Y-78898068D01*
X79654827Y-78843729D01*
X79684566Y-78801257D01*
X79687723Y-78796749D01*
X79690046Y-78791767D01*
X79690049Y-78791762D01*
X79782161Y-78594225D01*
X79782161Y-78594224D01*
X79784484Y-78589243D01*
X79841133Y-78377830D01*
X79842319Y-78373402D01*
X79842319Y-78373400D01*
X79843743Y-78368087D01*
X79863698Y-78140000D01*
X79843743Y-77911913D01*
X79823871Y-77837749D01*
X79785907Y-77696067D01*
X79785906Y-77696065D01*
X79784484Y-77690757D01*
X79730348Y-77574661D01*
X79690049Y-77488238D01*
X79690046Y-77488233D01*
X79687723Y-77483251D01*
X79556398Y-77295700D01*
X79394500Y-77133802D01*
X79389992Y-77130645D01*
X79389989Y-77130643D01*
X79309030Y-77073955D01*
X79206949Y-77002477D01*
X79201967Y-77000154D01*
X79201962Y-77000151D01*
X79004425Y-76908039D01*
X79004424Y-76908039D01*
X78999443Y-76905716D01*
X78994135Y-76904294D01*
X78994133Y-76904293D01*
X78783602Y-76847881D01*
X78783600Y-76847881D01*
X78778287Y-76846457D01*
X78550200Y-76826502D01*
X78322113Y-76846457D01*
X78316800Y-76847881D01*
X78316798Y-76847881D01*
X78106267Y-76904293D01*
X78106265Y-76904294D01*
X78100957Y-76905716D01*
X78095976Y-76908039D01*
X78095975Y-76908039D01*
X77898438Y-77000151D01*
X77898433Y-77000154D01*
X77893451Y-77002477D01*
X77791370Y-77073955D01*
X77710411Y-77130643D01*
X77710408Y-77130645D01*
X77705900Y-77133802D01*
X77544002Y-77295700D01*
X77412677Y-77483251D01*
X77410354Y-77488233D01*
X77410351Y-77488238D01*
X77370052Y-77574661D01*
X77315916Y-77690757D01*
X77314494Y-77696065D01*
X77314493Y-77696067D01*
X77276529Y-77837749D01*
X77256657Y-77911913D01*
X77236702Y-78140000D01*
X77256657Y-78368087D01*
X77258081Y-78373400D01*
X77258081Y-78373402D01*
X77259268Y-78377830D01*
X77315916Y-78589243D01*
X77318239Y-78594224D01*
X77318239Y-78594225D01*
X77410351Y-78791762D01*
X77410354Y-78791767D01*
X77412677Y-78796749D01*
X77415834Y-78801257D01*
X77445573Y-78843729D01*
X77468261Y-78911003D01*
X77450976Y-78979863D01*
X77399207Y-79028448D01*
X77342360Y-79042000D01*
X70162683Y-79042000D01*
X70138093Y-79039577D01*
X70127800Y-79037529D01*
X70122193Y-79037294D01*
X70120138Y-79037207D01*
X70120134Y-79037207D01*
X70115271Y-79037003D01*
X70110431Y-79037550D01*
X70105798Y-79037713D01*
X70100574Y-79038043D01*
X69958959Y-79039944D01*
X69709484Y-79043292D01*
X69709473Y-79043293D01*
X69706764Y-79043329D01*
X69526749Y-79061352D01*
X69302999Y-79083753D01*
X69302988Y-79083755D01*
X69300277Y-79084026D01*
X69297594Y-79084531D01*
X69297589Y-79084532D01*
X68901500Y-79159127D01*
X68901493Y-79159129D01*
X68898815Y-79159633D01*
X68801754Y-79186758D01*
X68507992Y-79268854D01*
X68507981Y-79268858D01*
X68505371Y-79269587D01*
X68502827Y-79270541D01*
X68502828Y-79270541D01*
X68125426Y-79412112D01*
X68125422Y-79412114D01*
X68122878Y-79413068D01*
X67754187Y-79589006D01*
X67402045Y-79796091D01*
X67235561Y-79914435D01*
X67071303Y-80031197D01*
X67071298Y-80031201D01*
X67069078Y-80032779D01*
X67067002Y-80034543D01*
X67067001Y-80034544D01*
X66759835Y-80295547D01*
X66759827Y-80295555D01*
X66757768Y-80297304D01*
X66470435Y-80587696D01*
X66468699Y-80589784D01*
X66468694Y-80589789D01*
X66427627Y-80639170D01*
X66209221Y-80901791D01*
X65976073Y-81237245D01*
X65772729Y-81591560D01*
X65771584Y-81594025D01*
X65771581Y-81594032D01*
X65682099Y-81786774D01*
X65600705Y-81962094D01*
X65599781Y-81964639D01*
X65471591Y-82317695D01*
X65468393Y-82325055D01*
X65468475Y-82325089D01*
X65466606Y-82329577D01*
X65464391Y-82333919D01*
X65460479Y-82345832D01*
X65459692Y-82350623D01*
X65459690Y-82350630D01*
X65455741Y-82374666D01*
X65451747Y-82391578D01*
X65125670Y-83442276D01*
X65025049Y-83766499D01*
X65020354Y-83779177D01*
X65004847Y-83815015D01*
X65003738Y-83823923D01*
X65003737Y-83823925D01*
X65002415Y-83834543D01*
X64997678Y-83856450D01*
X64919407Y-84107674D01*
X64904227Y-84156398D01*
X64900071Y-84167777D01*
X64787092Y-84436331D01*
X64766763Y-84484652D01*
X64761533Y-84495581D01*
X64598403Y-84798191D01*
X64592151Y-84808563D01*
X64459125Y-85006978D01*
X64400705Y-85094115D01*
X64393485Y-85103837D01*
X64220090Y-85315301D01*
X64175500Y-85369680D01*
X64167375Y-85378669D01*
X63924878Y-85622329D01*
X63915929Y-85630496D01*
X63846306Y-85688146D01*
X63651136Y-85849753D01*
X63651132Y-85849756D01*
X63641439Y-85857025D01*
X63356822Y-86049827D01*
X63346476Y-86056132D01*
X63044649Y-86220710D01*
X63033745Y-86225992D01*
X62717515Y-86360817D01*
X62706154Y-86365028D01*
X62378420Y-86468861D01*
X62366708Y-86471960D01*
X62030535Y-86543832D01*
X62018579Y-86545793D01*
X61677033Y-86585047D01*
X61664964Y-86585848D01*
X61358228Y-86591441D01*
X61332840Y-86589327D01*
X61321591Y-86587230D01*
X61313904Y-86588003D01*
X61306270Y-86586814D01*
X61286946Y-86589341D01*
X61264430Y-86590253D01*
X60963900Y-86575488D01*
X60951606Y-86574278D01*
X60624861Y-86525809D01*
X60612751Y-86523401D01*
X60292324Y-86443138D01*
X60280493Y-86439549D01*
X59969506Y-86328275D01*
X59958082Y-86323544D01*
X59659477Y-86182315D01*
X59648572Y-86176486D01*
X59365255Y-86006672D01*
X59354974Y-85999802D01*
X59089671Y-85803040D01*
X59080113Y-85795196D01*
X58835370Y-85573374D01*
X58826626Y-85564630D01*
X58604804Y-85319887D01*
X58596960Y-85310329D01*
X58400198Y-85045026D01*
X58393328Y-85034745D01*
X58307961Y-84892319D01*
X58223512Y-84751424D01*
X58217685Y-84740523D01*
X58076456Y-84441918D01*
X58071725Y-84430494D01*
X57960451Y-84119507D01*
X57956861Y-84107674D01*
X57895698Y-83863495D01*
X57876599Y-83787249D01*
X57874189Y-83775130D01*
X57873994Y-83773810D01*
X57825722Y-83448394D01*
X57824511Y-83436093D01*
X57810293Y-83146665D01*
X57811886Y-83119586D01*
X57812264Y-83117340D01*
X57812265Y-83117331D01*
X57813071Y-83112539D01*
X57813224Y-83100000D01*
X57809273Y-83072412D01*
X57808000Y-83054549D01*
X57808000Y-76870000D01*
X59431693Y-76870000D01*
X59450885Y-77089371D01*
X59507880Y-77302076D01*
X59526114Y-77341178D01*
X59598618Y-77496666D01*
X59598621Y-77496671D01*
X59600944Y-77501653D01*
X59604100Y-77506160D01*
X59604101Y-77506162D01*
X59652822Y-77575742D01*
X59727251Y-77682038D01*
X59882962Y-77837749D01*
X59887471Y-77840906D01*
X59887473Y-77840908D01*
X59962241Y-77893261D01*
X60063346Y-77964056D01*
X60262924Y-78057120D01*
X60475629Y-78114115D01*
X60695000Y-78133307D01*
X60914371Y-78114115D01*
X61127076Y-78057120D01*
X61326654Y-77964056D01*
X61427759Y-77893261D01*
X61502527Y-77840908D01*
X61502529Y-77840906D01*
X61507038Y-77837749D01*
X61662749Y-77682038D01*
X61737179Y-77575742D01*
X61785899Y-77506162D01*
X61785900Y-77506160D01*
X61789056Y-77501653D01*
X61791379Y-77496671D01*
X61791382Y-77496666D01*
X61863886Y-77341178D01*
X61882120Y-77302076D01*
X61883543Y-77296764D01*
X61883547Y-77296754D01*
X61910316Y-77196853D01*
X61947267Y-77136231D01*
X62011128Y-77105209D01*
X62081623Y-77113638D01*
X62136369Y-77158842D01*
X62147915Y-77180022D01*
X62169596Y-77230852D01*
X62318985Y-77480462D01*
X62321669Y-77483813D01*
X62321671Y-77483815D01*
X62363254Y-77535719D01*
X62500867Y-77707489D01*
X62711878Y-77907731D01*
X62948113Y-78077483D01*
X62973924Y-78091149D01*
X63097270Y-78156457D01*
X63205200Y-78213603D01*
X63209223Y-78215075D01*
X63209227Y-78215077D01*
X63233709Y-78224036D01*
X63478382Y-78313574D01*
X63762604Y-78375544D01*
X63791650Y-78377830D01*
X63988297Y-78393307D01*
X63988304Y-78393307D01*
X63990753Y-78393500D01*
X64148121Y-78393500D01*
X64150257Y-78393354D01*
X64150268Y-78393354D01*
X64360949Y-78378991D01*
X64360955Y-78378990D01*
X64365226Y-78378699D01*
X64369421Y-78377830D01*
X64369423Y-78377830D01*
X64507653Y-78349204D01*
X64650081Y-78319709D01*
X64924295Y-78222605D01*
X65097306Y-78133307D01*
X65178986Y-78091149D01*
X65178987Y-78091149D01*
X65182793Y-78089184D01*
X65186294Y-78086723D01*
X65186298Y-78086721D01*
X65357523Y-77966381D01*
X65420792Y-77921915D01*
X65633888Y-77723894D01*
X65637255Y-77719781D01*
X65756034Y-77574661D01*
X65818139Y-77498784D01*
X65970133Y-77250752D01*
X65978869Y-77230852D01*
X66078234Y-77004490D01*
X66087059Y-76984386D01*
X66093073Y-76963276D01*
X66131897Y-76826981D01*
X66166754Y-76704616D01*
X66173042Y-76660440D01*
X66207137Y-76420870D01*
X66207742Y-76416619D01*
X66208810Y-76212625D01*
X66209243Y-76130009D01*
X66209243Y-76130003D01*
X66209265Y-76125723D01*
X66195705Y-76022721D01*
X66185158Y-75942610D01*
X66171295Y-75837313D01*
X66094535Y-75556724D01*
X66026068Y-75396206D01*
X65982090Y-75293100D01*
X65982088Y-75293096D01*
X65980404Y-75289148D01*
X65927050Y-75200000D01*
X86386496Y-75200000D01*
X86387186Y-75206565D01*
X86393391Y-75265598D01*
X86406458Y-75389928D01*
X86465473Y-75571556D01*
X86560960Y-75736944D01*
X86565378Y-75741851D01*
X86565379Y-75741852D01*
X86655165Y-75841569D01*
X86688747Y-75878866D01*
X86843248Y-75991118D01*
X86849276Y-75993802D01*
X86849278Y-75993803D01*
X87003526Y-76062478D01*
X87017712Y-76068794D01*
X87092685Y-76084730D01*
X87198056Y-76107128D01*
X87198061Y-76107128D01*
X87204513Y-76108500D01*
X87395487Y-76108500D01*
X87401939Y-76107128D01*
X87401944Y-76107128D01*
X87507315Y-76084730D01*
X87582288Y-76068794D01*
X87596474Y-76062478D01*
X87750722Y-75993803D01*
X87750724Y-75993802D01*
X87756752Y-75991118D01*
X87911253Y-75878866D01*
X87944835Y-75841569D01*
X88034621Y-75741852D01*
X88034622Y-75741851D01*
X88039040Y-75736944D01*
X88134527Y-75571556D01*
X88193542Y-75389928D01*
X88206610Y-75265598D01*
X88212814Y-75206565D01*
X88213504Y-75200000D01*
X88202331Y-75093692D01*
X88194232Y-75016635D01*
X88194232Y-75016633D01*
X88193542Y-75010072D01*
X88134527Y-74828444D01*
X88127563Y-74816381D01*
X88093143Y-74756765D01*
X88039040Y-74663056D01*
X88028613Y-74651475D01*
X87915675Y-74526045D01*
X87915674Y-74526044D01*
X87911253Y-74521134D01*
X87803046Y-74442517D01*
X87762094Y-74412763D01*
X87762093Y-74412762D01*
X87756752Y-74408882D01*
X87750724Y-74406198D01*
X87750722Y-74406197D01*
X87588319Y-74333891D01*
X87588318Y-74333891D01*
X87582288Y-74331206D01*
X87488887Y-74311353D01*
X87401944Y-74292872D01*
X87401939Y-74292872D01*
X87395487Y-74291500D01*
X87204513Y-74291500D01*
X87198061Y-74292872D01*
X87198056Y-74292872D01*
X87111112Y-74311353D01*
X87017712Y-74331206D01*
X87011682Y-74333891D01*
X87011681Y-74333891D01*
X86849278Y-74406197D01*
X86849276Y-74406198D01*
X86843248Y-74408882D01*
X86837907Y-74412762D01*
X86837906Y-74412763D01*
X86796954Y-74442517D01*
X86688747Y-74521134D01*
X86684326Y-74526044D01*
X86684325Y-74526045D01*
X86571388Y-74651475D01*
X86560960Y-74663056D01*
X86506857Y-74756765D01*
X86472438Y-74816381D01*
X86465473Y-74828444D01*
X86406458Y-75010072D01*
X86405768Y-75016633D01*
X86405768Y-75016635D01*
X86397669Y-75093692D01*
X86386496Y-75200000D01*
X65927050Y-75200000D01*
X65831015Y-75039538D01*
X65816337Y-75021216D01*
X65664921Y-74832218D01*
X65649133Y-74812511D01*
X65482548Y-74654428D01*
X65441231Y-74615219D01*
X65441228Y-74615217D01*
X65438122Y-74612269D01*
X65201887Y-74442517D01*
X65090918Y-74383762D01*
X64948587Y-74308402D01*
X64948586Y-74308401D01*
X64944800Y-74306397D01*
X64940777Y-74304925D01*
X64940773Y-74304923D01*
X64675649Y-74207901D01*
X64675647Y-74207900D01*
X64671618Y-74206426D01*
X64387396Y-74144456D01*
X64343598Y-74141009D01*
X64161703Y-74126693D01*
X64161696Y-74126693D01*
X64159247Y-74126500D01*
X64001879Y-74126500D01*
X63999743Y-74126646D01*
X63999732Y-74126646D01*
X63789051Y-74141009D01*
X63789045Y-74141010D01*
X63784774Y-74141301D01*
X63780579Y-74142170D01*
X63780577Y-74142170D01*
X63708671Y-74157061D01*
X63499919Y-74200291D01*
X63225705Y-74297395D01*
X63221896Y-74299361D01*
X63113015Y-74355559D01*
X62967207Y-74430816D01*
X62963706Y-74433277D01*
X62963702Y-74433279D01*
X62858626Y-74507128D01*
X62729208Y-74598085D01*
X62726067Y-74601004D01*
X62530767Y-74782488D01*
X62516112Y-74796106D01*
X62513398Y-74799422D01*
X62513395Y-74799425D01*
X62484499Y-74834729D01*
X62331861Y-75021216D01*
X62179867Y-75269248D01*
X62178148Y-75273165D01*
X62178146Y-75273168D01*
X62167356Y-75297749D01*
X62062941Y-75535614D01*
X62061765Y-75539742D01*
X62061764Y-75539745D01*
X62042557Y-75607172D01*
X61983246Y-75815384D01*
X61982642Y-75819626D01*
X61982641Y-75819632D01*
X61945370Y-76081515D01*
X61915969Y-76146137D01*
X61856298Y-76184606D01*
X61785301Y-76184708D01*
X61725520Y-76146409D01*
X61717414Y-76136031D01*
X61665912Y-76062478D01*
X61665907Y-76062472D01*
X61662749Y-76057962D01*
X61507038Y-75902251D01*
X61479187Y-75882749D01*
X61408382Y-75833171D01*
X61326654Y-75775944D01*
X61127076Y-75682880D01*
X60914371Y-75625885D01*
X60695000Y-75606693D01*
X60475629Y-75625885D01*
X60262924Y-75682880D01*
X60189215Y-75717251D01*
X60068334Y-75773618D01*
X60068329Y-75773621D01*
X60063347Y-75775944D01*
X60058840Y-75779100D01*
X60058838Y-75779101D01*
X59887473Y-75899092D01*
X59887470Y-75899094D01*
X59882962Y-75902251D01*
X59727251Y-76057962D01*
X59724094Y-76062470D01*
X59724092Y-76062473D01*
X59616147Y-76216635D01*
X59600944Y-76238347D01*
X59598621Y-76243329D01*
X59598618Y-76243334D01*
X59589763Y-76262324D01*
X59507880Y-76437924D01*
X59450885Y-76650629D01*
X59431693Y-76870000D01*
X57808000Y-76870000D01*
X57808000Y-75226180D01*
X57828002Y-75158059D01*
X57881658Y-75111566D01*
X57951932Y-75101462D01*
X58016512Y-75130956D01*
X58026834Y-75141442D01*
X58027251Y-75142038D01*
X58182962Y-75297749D01*
X58363346Y-75424056D01*
X58562924Y-75517120D01*
X58775629Y-75574115D01*
X58995000Y-75593307D01*
X59214371Y-75574115D01*
X59427076Y-75517120D01*
X59626654Y-75424056D01*
X59807038Y-75297749D01*
X59962749Y-75142038D01*
X59992974Y-75098873D01*
X60085899Y-74966162D01*
X60085900Y-74966160D01*
X60089056Y-74961653D01*
X60091379Y-74956671D01*
X60091382Y-74956666D01*
X60157881Y-74814056D01*
X60182120Y-74762076D01*
X60239115Y-74549371D01*
X60258307Y-74330000D01*
X60239115Y-74110629D01*
X60182120Y-73897924D01*
X60131761Y-73789928D01*
X60099153Y-73720000D01*
X69161693Y-73720000D01*
X69180885Y-73939371D01*
X69237880Y-74152076D01*
X69259958Y-74199422D01*
X69328618Y-74346666D01*
X69328621Y-74346671D01*
X69330944Y-74351653D01*
X69334100Y-74356160D01*
X69334101Y-74356162D01*
X69453055Y-74526045D01*
X69457251Y-74532038D01*
X69612962Y-74687749D01*
X69617471Y-74690906D01*
X69617473Y-74690908D01*
X69692241Y-74743261D01*
X69793346Y-74814056D01*
X69992924Y-74907120D01*
X70205629Y-74964115D01*
X70425000Y-74983307D01*
X70644371Y-74964115D01*
X70857076Y-74907120D01*
X71056654Y-74814056D01*
X71157759Y-74743261D01*
X71232527Y-74690908D01*
X71232529Y-74690906D01*
X71237038Y-74687749D01*
X71392749Y-74532038D01*
X71396946Y-74526045D01*
X71515899Y-74356162D01*
X71515900Y-74356160D01*
X71519056Y-74351653D01*
X71521379Y-74346671D01*
X71521382Y-74346666D01*
X71590042Y-74199422D01*
X71612120Y-74152076D01*
X71669115Y-73939371D01*
X71688307Y-73720000D01*
X71669115Y-73500629D01*
X71612120Y-73287924D01*
X71545569Y-73145205D01*
X71521382Y-73093334D01*
X71521379Y-73093329D01*
X71519056Y-73088347D01*
X71501347Y-73063056D01*
X71395908Y-72912473D01*
X71395906Y-72912470D01*
X71392749Y-72907962D01*
X71237038Y-72752251D01*
X71218974Y-72739602D01*
X71157759Y-72696739D01*
X71056654Y-72625944D01*
X71051672Y-72623621D01*
X71051667Y-72623618D01*
X70924232Y-72564195D01*
X70870947Y-72517278D01*
X70851486Y-72449001D01*
X70872028Y-72381041D01*
X70924232Y-72335805D01*
X71051667Y-72276382D01*
X71051672Y-72276379D01*
X71056654Y-72274056D01*
X71206182Y-72169355D01*
X71232527Y-72150908D01*
X71232529Y-72150906D01*
X71237038Y-72147749D01*
X71392749Y-71992038D01*
X71404920Y-71974657D01*
X71515899Y-71816162D01*
X71515900Y-71816160D01*
X71519056Y-71811653D01*
X71521379Y-71806671D01*
X71521382Y-71806666D01*
X71579165Y-71682749D01*
X71612120Y-71612076D01*
X71669115Y-71399371D01*
X71688307Y-71180000D01*
X71669115Y-70960629D01*
X71612120Y-70747924D01*
X71566213Y-70649476D01*
X71521382Y-70553334D01*
X71521379Y-70553329D01*
X71519056Y-70548347D01*
X71510396Y-70535978D01*
X71395908Y-70372473D01*
X71395906Y-70372470D01*
X71392749Y-70367962D01*
X71237038Y-70212251D01*
X71228393Y-70206197D01*
X71110852Y-70123894D01*
X71056654Y-70085944D01*
X71051672Y-70083621D01*
X71051667Y-70083618D01*
X70924232Y-70024195D01*
X70870947Y-69977278D01*
X70851486Y-69909001D01*
X70872028Y-69841041D01*
X70924232Y-69795805D01*
X71051667Y-69736382D01*
X71051672Y-69736379D01*
X71056654Y-69734056D01*
X71237038Y-69607749D01*
X71392749Y-69452038D01*
X71406270Y-69432729D01*
X71515899Y-69276162D01*
X71515900Y-69276160D01*
X71519056Y-69271653D01*
X71521379Y-69266671D01*
X71521382Y-69266666D01*
X71569695Y-69163056D01*
X71612120Y-69072076D01*
X71669115Y-68859371D01*
X71688307Y-68640000D01*
X71669115Y-68420629D01*
X71612120Y-68207924D01*
X71551199Y-68077278D01*
X71521382Y-68013334D01*
X71521379Y-68013329D01*
X71519056Y-68008347D01*
X71515899Y-68003838D01*
X71395908Y-67832473D01*
X71395906Y-67832470D01*
X71392749Y-67827962D01*
X71237038Y-67672251D01*
X71183519Y-67634776D01*
X71126257Y-67594681D01*
X71077496Y-67560538D01*
X71033169Y-67505082D01*
X71025860Y-67434463D01*
X71057891Y-67371102D01*
X71109892Y-67337802D01*
X71241720Y-67293821D01*
X71248659Y-67291506D01*
X71399161Y-67198373D01*
X71502307Y-67095046D01*
X71564587Y-67060968D01*
X71635407Y-67065971D01*
X71692280Y-67108468D01*
X71717149Y-67174966D01*
X71716999Y-67195046D01*
X71709805Y-67277279D01*
X71701693Y-67370000D01*
X71720885Y-67589371D01*
X71777880Y-67802076D01*
X71802119Y-67854056D01*
X71868618Y-67996666D01*
X71868621Y-67996671D01*
X71870944Y-68001653D01*
X71874100Y-68006160D01*
X71874101Y-68006162D01*
X71991053Y-68173186D01*
X71997251Y-68182038D01*
X72152962Y-68337749D01*
X72157471Y-68340906D01*
X72157473Y-68340908D01*
X72192267Y-68365271D01*
X72333346Y-68464056D01*
X72338328Y-68466379D01*
X72338333Y-68466382D01*
X72465768Y-68525805D01*
X72519053Y-68572722D01*
X72538514Y-68640999D01*
X72517972Y-68708959D01*
X72465768Y-68754195D01*
X72338334Y-68813618D01*
X72338329Y-68813621D01*
X72333347Y-68815944D01*
X72328840Y-68819100D01*
X72328838Y-68819101D01*
X72157473Y-68939092D01*
X72157470Y-68939094D01*
X72152962Y-68942251D01*
X71997251Y-69097962D01*
X71994094Y-69102470D01*
X71994092Y-69102473D01*
X71896821Y-69241391D01*
X71870944Y-69278347D01*
X71868621Y-69283329D01*
X71868618Y-69283334D01*
X71840525Y-69343581D01*
X71777880Y-69477924D01*
X71720885Y-69690629D01*
X71701693Y-69910000D01*
X71720885Y-70129371D01*
X71777880Y-70342076D01*
X71795761Y-70380422D01*
X71868618Y-70536666D01*
X71868621Y-70536671D01*
X71870944Y-70541653D01*
X71874100Y-70546160D01*
X71874101Y-70546162D01*
X71991053Y-70713186D01*
X71997251Y-70722038D01*
X72152962Y-70877749D01*
X72333346Y-71004056D01*
X72338328Y-71006379D01*
X72338333Y-71006382D01*
X72465768Y-71065805D01*
X72519053Y-71112722D01*
X72538514Y-71180999D01*
X72517972Y-71248959D01*
X72465768Y-71294195D01*
X72338334Y-71353618D01*
X72338329Y-71353621D01*
X72333347Y-71355944D01*
X72328840Y-71359100D01*
X72328838Y-71359101D01*
X72157473Y-71479092D01*
X72157470Y-71479094D01*
X72152962Y-71482251D01*
X71997251Y-71637962D01*
X71994094Y-71642470D01*
X71994092Y-71642473D01*
X71879123Y-71806666D01*
X71870944Y-71818347D01*
X71868621Y-71823329D01*
X71868618Y-71823334D01*
X71829545Y-71907128D01*
X71777880Y-72017924D01*
X71720885Y-72230629D01*
X71701693Y-72450000D01*
X71720885Y-72669371D01*
X71777880Y-72882076D01*
X71803336Y-72936667D01*
X71868618Y-73076666D01*
X71868621Y-73076671D01*
X71870944Y-73081653D01*
X71874100Y-73086160D01*
X71874101Y-73086162D01*
X71993277Y-73256362D01*
X71997251Y-73262038D01*
X72152962Y-73417749D01*
X72157471Y-73420906D01*
X72157473Y-73420908D01*
X72204346Y-73453729D01*
X72333346Y-73544056D01*
X72532924Y-73637120D01*
X72745629Y-73694115D01*
X72965000Y-73713307D01*
X73184371Y-73694115D01*
X73397076Y-73637120D01*
X73596654Y-73544056D01*
X73725654Y-73453729D01*
X73772527Y-73420908D01*
X73772529Y-73420906D01*
X73777038Y-73417749D01*
X73932749Y-73262038D01*
X73936724Y-73256362D01*
X74023124Y-73132969D01*
X80067095Y-73132969D01*
X80067392Y-73138122D01*
X80067392Y-73138125D01*
X80079704Y-73351664D01*
X80080427Y-73364197D01*
X80081564Y-73369243D01*
X80081565Y-73369249D01*
X80107429Y-73484016D01*
X80131346Y-73590142D01*
X80133288Y-73594924D01*
X80133289Y-73594928D01*
X80215020Y-73796206D01*
X80218484Y-73804737D01*
X80339501Y-74002219D01*
X80491147Y-74177284D01*
X80669349Y-74325230D01*
X80869322Y-74442084D01*
X80874147Y-74443926D01*
X80874148Y-74443927D01*
X80877636Y-74445259D01*
X81085694Y-74524709D01*
X81090760Y-74525740D01*
X81090761Y-74525740D01*
X81121717Y-74532038D01*
X81312656Y-74570885D01*
X81443324Y-74575676D01*
X81538949Y-74579183D01*
X81538953Y-74579183D01*
X81544113Y-74579372D01*
X81549233Y-74578716D01*
X81549235Y-74578716D01*
X81622270Y-74569360D01*
X81773847Y-74549942D01*
X81778795Y-74548457D01*
X81778802Y-74548456D01*
X81990747Y-74484869D01*
X81995690Y-74483386D01*
X82000324Y-74481116D01*
X82199049Y-74383762D01*
X82199052Y-74383760D01*
X82203684Y-74381491D01*
X82392243Y-74246994D01*
X82556303Y-74083505D01*
X82691458Y-73895417D01*
X82697296Y-73883606D01*
X82791784Y-73692422D01*
X82791785Y-73692420D01*
X82794078Y-73687780D01*
X82820748Y-73600000D01*
X84786496Y-73600000D01*
X84787186Y-73606565D01*
X84803185Y-73758784D01*
X84806458Y-73789928D01*
X84865473Y-73971556D01*
X84960960Y-74136944D01*
X84965378Y-74141851D01*
X84965379Y-74141852D01*
X84967421Y-74144120D01*
X85088747Y-74278866D01*
X85156154Y-74327840D01*
X85229998Y-74381491D01*
X85243248Y-74391118D01*
X85249276Y-74393802D01*
X85249278Y-74393803D01*
X85411681Y-74466109D01*
X85417712Y-74468794D01*
X85486362Y-74483386D01*
X85598056Y-74507128D01*
X85598061Y-74507128D01*
X85604513Y-74508500D01*
X85795487Y-74508500D01*
X85801939Y-74507128D01*
X85801944Y-74507128D01*
X85913638Y-74483386D01*
X85982288Y-74468794D01*
X85988319Y-74466109D01*
X86150722Y-74393803D01*
X86150724Y-74393802D01*
X86156752Y-74391118D01*
X86170003Y-74381491D01*
X86243846Y-74327840D01*
X86311253Y-74278866D01*
X86432579Y-74144120D01*
X86434621Y-74141852D01*
X86434622Y-74141851D01*
X86439040Y-74136944D01*
X86534527Y-73971556D01*
X86593542Y-73789928D01*
X86596816Y-73758784D01*
X86612814Y-73606565D01*
X86613504Y-73600000D01*
X86608684Y-73554137D01*
X86594232Y-73416635D01*
X86594232Y-73416633D01*
X86593542Y-73410072D01*
X86534527Y-73228444D01*
X86527406Y-73216109D01*
X86485651Y-73143788D01*
X86439040Y-73063056D01*
X86411752Y-73032749D01*
X86315675Y-72926045D01*
X86315674Y-72926044D01*
X86311253Y-72921134D01*
X86189832Y-72832916D01*
X86162094Y-72812763D01*
X86162093Y-72812762D01*
X86156752Y-72808882D01*
X86150724Y-72806198D01*
X86150722Y-72806197D01*
X85988319Y-72733891D01*
X85988318Y-72733891D01*
X85982288Y-72731206D01*
X85869806Y-72707297D01*
X85801944Y-72692872D01*
X85801939Y-72692872D01*
X85795487Y-72691500D01*
X85604513Y-72691500D01*
X85598061Y-72692872D01*
X85598056Y-72692872D01*
X85530194Y-72707297D01*
X85417712Y-72731206D01*
X85411682Y-72733891D01*
X85411681Y-72733891D01*
X85249278Y-72806197D01*
X85249276Y-72806198D01*
X85243248Y-72808882D01*
X85237907Y-72812762D01*
X85237906Y-72812763D01*
X85210168Y-72832916D01*
X85088747Y-72921134D01*
X85084326Y-72926044D01*
X85084325Y-72926045D01*
X84988249Y-73032749D01*
X84960960Y-73063056D01*
X84914349Y-73143788D01*
X84872595Y-73216109D01*
X84865473Y-73228444D01*
X84806458Y-73410072D01*
X84805768Y-73416633D01*
X84805768Y-73416635D01*
X84791316Y-73554137D01*
X84786496Y-73600000D01*
X82820748Y-73600000D01*
X82861408Y-73466171D01*
X82891640Y-73236541D01*
X82893327Y-73167500D01*
X82885842Y-73076457D01*
X82874773Y-72941818D01*
X82874772Y-72941812D01*
X82874349Y-72936667D01*
X82831098Y-72764476D01*
X82819184Y-72717044D01*
X82819183Y-72717040D01*
X82817925Y-72712033D01*
X82808997Y-72691500D01*
X82727630Y-72504368D01*
X82727628Y-72504365D01*
X82725570Y-72499631D01*
X82599764Y-72305165D01*
X82568585Y-72270899D01*
X82540969Y-72240550D01*
X82443887Y-72133858D01*
X82439836Y-72130659D01*
X82439832Y-72130655D01*
X82266177Y-71993511D01*
X82266172Y-71993508D01*
X82262123Y-71990310D01*
X82257607Y-71987817D01*
X82257604Y-71987815D01*
X82063879Y-71880873D01*
X82063875Y-71880871D01*
X82059355Y-71878376D01*
X82054486Y-71876652D01*
X82054482Y-71876650D01*
X81845903Y-71802788D01*
X81845899Y-71802787D01*
X81841028Y-71801062D01*
X81835935Y-71800155D01*
X81835932Y-71800154D01*
X81618095Y-71761351D01*
X81618089Y-71761350D01*
X81613006Y-71760445D01*
X81540096Y-71759554D01*
X81386581Y-71757679D01*
X81386579Y-71757679D01*
X81381411Y-71757616D01*
X81152464Y-71792650D01*
X80932314Y-71864606D01*
X80927726Y-71866994D01*
X80927722Y-71866996D01*
X80734675Y-71967490D01*
X80726872Y-71971552D01*
X80722739Y-71974655D01*
X80722736Y-71974657D01*
X80545790Y-72107512D01*
X80541655Y-72110617D01*
X80538083Y-72114355D01*
X80397776Y-72261178D01*
X80381639Y-72278064D01*
X80378725Y-72282336D01*
X80378724Y-72282337D01*
X80330182Y-72353497D01*
X80251119Y-72469399D01*
X80153602Y-72679481D01*
X80091707Y-72902669D01*
X80067095Y-73132969D01*
X74023124Y-73132969D01*
X74055899Y-73086162D01*
X74055900Y-73086160D01*
X74059056Y-73081653D01*
X74061379Y-73076671D01*
X74061382Y-73076666D01*
X74126664Y-72936667D01*
X74152120Y-72882076D01*
X74209115Y-72669371D01*
X74228307Y-72450000D01*
X74209115Y-72230629D01*
X74152120Y-72017924D01*
X74100455Y-71907128D01*
X74061382Y-71823334D01*
X74061379Y-71823329D01*
X74059056Y-71818347D01*
X74050877Y-71806666D01*
X73935908Y-71642473D01*
X73935906Y-71642470D01*
X73932749Y-71637962D01*
X73777038Y-71482251D01*
X73762056Y-71471760D01*
X73676674Y-71411975D01*
X73596654Y-71355944D01*
X73591672Y-71353621D01*
X73591667Y-71353618D01*
X73464232Y-71294195D01*
X73410947Y-71247278D01*
X73391486Y-71179001D01*
X73412028Y-71111041D01*
X73464232Y-71065805D01*
X73591667Y-71006382D01*
X73591672Y-71006379D01*
X73596654Y-71004056D01*
X73777038Y-70877749D01*
X73932749Y-70722038D01*
X73938948Y-70713186D01*
X74055899Y-70546162D01*
X74055900Y-70546160D01*
X74059056Y-70541653D01*
X74061379Y-70536671D01*
X74061382Y-70536666D01*
X74134239Y-70380422D01*
X74152120Y-70342076D01*
X74209115Y-70129371D01*
X74228307Y-69910000D01*
X74209935Y-69700000D01*
X111686496Y-69700000D01*
X111687186Y-69706565D01*
X111701497Y-69842722D01*
X111706458Y-69889928D01*
X111765473Y-70071556D01*
X111768776Y-70077278D01*
X111768777Y-70077279D01*
X111776988Y-70091500D01*
X111860960Y-70236944D01*
X111865378Y-70241851D01*
X111865379Y-70241852D01*
X111945162Y-70330460D01*
X111988747Y-70378866D01*
X112087843Y-70450864D01*
X112092635Y-70454345D01*
X112143248Y-70491118D01*
X112149276Y-70493802D01*
X112149278Y-70493803D01*
X112311681Y-70566109D01*
X112317712Y-70568794D01*
X112393588Y-70584922D01*
X112498056Y-70607128D01*
X112498061Y-70607128D01*
X112504513Y-70608500D01*
X112695487Y-70608500D01*
X112701939Y-70607128D01*
X112701944Y-70607128D01*
X112806412Y-70584922D01*
X112882288Y-70568794D01*
X112888319Y-70566109D01*
X113050722Y-70493803D01*
X113050724Y-70493802D01*
X113056752Y-70491118D01*
X113107366Y-70454345D01*
X113112157Y-70450864D01*
X113211253Y-70378866D01*
X113254838Y-70330460D01*
X113334621Y-70241852D01*
X113334622Y-70241851D01*
X113339040Y-70236944D01*
X113423012Y-70091500D01*
X113431223Y-70077279D01*
X113431224Y-70077278D01*
X113434527Y-70071556D01*
X113493542Y-69889928D01*
X113498504Y-69842722D01*
X113498940Y-69838570D01*
X118035425Y-69838570D01*
X118036115Y-69845135D01*
X118050004Y-69977278D01*
X118055387Y-70028498D01*
X118114402Y-70210126D01*
X118117705Y-70215848D01*
X118117706Y-70215849D01*
X118141001Y-70256196D01*
X118209889Y-70375514D01*
X118214307Y-70380421D01*
X118214308Y-70380422D01*
X118302564Y-70478440D01*
X118337676Y-70517436D01*
X118492177Y-70629688D01*
X118498205Y-70632372D01*
X118498207Y-70632373D01*
X118601683Y-70678443D01*
X118666641Y-70707364D01*
X118754010Y-70725935D01*
X118846985Y-70745698D01*
X118846990Y-70745698D01*
X118853442Y-70747070D01*
X119044416Y-70747070D01*
X119050868Y-70745698D01*
X119050873Y-70745698D01*
X119143848Y-70725935D01*
X119231217Y-70707364D01*
X119296175Y-70678443D01*
X119399651Y-70632373D01*
X119399653Y-70632372D01*
X119405681Y-70629688D01*
X119560182Y-70517436D01*
X119595294Y-70478440D01*
X119683550Y-70380422D01*
X119683551Y-70380421D01*
X119687969Y-70375514D01*
X119756857Y-70256196D01*
X119780152Y-70215849D01*
X119780153Y-70215848D01*
X119783456Y-70210126D01*
X119842471Y-70028498D01*
X119847855Y-69977278D01*
X119861743Y-69845135D01*
X119862433Y-69838570D01*
X119851448Y-69734056D01*
X119843161Y-69655205D01*
X119843161Y-69655203D01*
X119842471Y-69648642D01*
X119783456Y-69467014D01*
X119744765Y-69400000D01*
X138286496Y-69400000D01*
X138287186Y-69406565D01*
X138295966Y-69490098D01*
X138306458Y-69589928D01*
X138365473Y-69771556D01*
X138460960Y-69936944D01*
X138588747Y-70078866D01*
X138674954Y-70141499D01*
X138733300Y-70183890D01*
X138743248Y-70191118D01*
X138749276Y-70193802D01*
X138749278Y-70193803D01*
X138911681Y-70266109D01*
X138917712Y-70268794D01*
X139011113Y-70288647D01*
X139098056Y-70307128D01*
X139098061Y-70307128D01*
X139104513Y-70308500D01*
X139295487Y-70308500D01*
X139301939Y-70307128D01*
X139301944Y-70307128D01*
X139388887Y-70288647D01*
X139482288Y-70268794D01*
X139488319Y-70266109D01*
X139650722Y-70193803D01*
X139650724Y-70193802D01*
X139656752Y-70191118D01*
X139666701Y-70183890D01*
X139725046Y-70141499D01*
X139811253Y-70078866D01*
X139939040Y-69936944D01*
X140034527Y-69771556D01*
X140093542Y-69589928D01*
X140104035Y-69490098D01*
X140112814Y-69406565D01*
X140113504Y-69400000D01*
X140096834Y-69241391D01*
X140094232Y-69216635D01*
X140094232Y-69216633D01*
X140093542Y-69210072D01*
X140034527Y-69028444D01*
X139939040Y-68863056D01*
X139921706Y-68843804D01*
X139815675Y-68726045D01*
X139815674Y-68726044D01*
X139811253Y-68721134D01*
X139696575Y-68637815D01*
X139662094Y-68612763D01*
X139662093Y-68612762D01*
X139656752Y-68608882D01*
X139650724Y-68606198D01*
X139650722Y-68606197D01*
X139488319Y-68533891D01*
X139488318Y-68533891D01*
X139482288Y-68531206D01*
X139388887Y-68511353D01*
X139301944Y-68492872D01*
X139301939Y-68492872D01*
X139295487Y-68491500D01*
X139104513Y-68491500D01*
X139098061Y-68492872D01*
X139098056Y-68492872D01*
X139011112Y-68511353D01*
X138917712Y-68531206D01*
X138911682Y-68533891D01*
X138911681Y-68533891D01*
X138749278Y-68606197D01*
X138749276Y-68606198D01*
X138743248Y-68608882D01*
X138737907Y-68612762D01*
X138737906Y-68612763D01*
X138703425Y-68637815D01*
X138588747Y-68721134D01*
X138584326Y-68726044D01*
X138584325Y-68726045D01*
X138478295Y-68843804D01*
X138460960Y-68863056D01*
X138365473Y-69028444D01*
X138306458Y-69210072D01*
X138305768Y-69216633D01*
X138305768Y-69216635D01*
X138303166Y-69241391D01*
X138286496Y-69400000D01*
X119744765Y-69400000D01*
X119687969Y-69301626D01*
X119560182Y-69159704D01*
X119420938Y-69058537D01*
X119411023Y-69051333D01*
X119411022Y-69051332D01*
X119405681Y-69047452D01*
X119399653Y-69044768D01*
X119399651Y-69044767D01*
X119237248Y-68972461D01*
X119237247Y-68972461D01*
X119231217Y-68969776D01*
X119120057Y-68946148D01*
X119050873Y-68931442D01*
X119050868Y-68931442D01*
X119044416Y-68930070D01*
X118853442Y-68930070D01*
X118846990Y-68931442D01*
X118846985Y-68931442D01*
X118777801Y-68946148D01*
X118666641Y-68969776D01*
X118660611Y-68972461D01*
X118660610Y-68972461D01*
X118498207Y-69044767D01*
X118498205Y-69044768D01*
X118492177Y-69047452D01*
X118486836Y-69051332D01*
X118486835Y-69051333D01*
X118476920Y-69058537D01*
X118337676Y-69159704D01*
X118209889Y-69301626D01*
X118114402Y-69467014D01*
X118055387Y-69648642D01*
X118054697Y-69655203D01*
X118054697Y-69655205D01*
X118046410Y-69734056D01*
X118035425Y-69838570D01*
X113498940Y-69838570D01*
X113512814Y-69706565D01*
X113513504Y-69700000D01*
X113493542Y-69510072D01*
X113434527Y-69328444D01*
X113339040Y-69163056D01*
X113211253Y-69021134D01*
X113056752Y-68908882D01*
X113050724Y-68906198D01*
X113050722Y-68906197D01*
X112888319Y-68833891D01*
X112888318Y-68833891D01*
X112882288Y-68831206D01*
X112770121Y-68807364D01*
X112701944Y-68792872D01*
X112701939Y-68792872D01*
X112695487Y-68791500D01*
X112504513Y-68791500D01*
X112498061Y-68792872D01*
X112498056Y-68792872D01*
X112429879Y-68807364D01*
X112317712Y-68831206D01*
X112311682Y-68833891D01*
X112311681Y-68833891D01*
X112149278Y-68906197D01*
X112149276Y-68906198D01*
X112143248Y-68908882D01*
X111988747Y-69021134D01*
X111860960Y-69163056D01*
X111765473Y-69328444D01*
X111706458Y-69510072D01*
X111686496Y-69700000D01*
X74209935Y-69700000D01*
X74209115Y-69690629D01*
X74152120Y-69477924D01*
X74089475Y-69343581D01*
X74061382Y-69283334D01*
X74061379Y-69283329D01*
X74059056Y-69278347D01*
X74033179Y-69241391D01*
X73935908Y-69102473D01*
X73935906Y-69102470D01*
X73932749Y-69097962D01*
X73870421Y-69035634D01*
X80071500Y-69035634D01*
X80078255Y-69097816D01*
X80129385Y-69234205D01*
X80216739Y-69350761D01*
X80333295Y-69438115D01*
X80469684Y-69489245D01*
X80531866Y-69496000D01*
X82428134Y-69496000D01*
X82490316Y-69489245D01*
X82626705Y-69438115D01*
X82743261Y-69350761D01*
X82830615Y-69234205D01*
X82881745Y-69097816D01*
X82888500Y-69035634D01*
X82888500Y-68000000D01*
X84086496Y-68000000D01*
X84087186Y-68006565D01*
X84105275Y-68178669D01*
X84106458Y-68189928D01*
X84165473Y-68371556D01*
X84168776Y-68377278D01*
X84168777Y-68377279D01*
X84202686Y-68436010D01*
X84260960Y-68536944D01*
X84265378Y-68541851D01*
X84265379Y-68541852D01*
X84352852Y-68639001D01*
X84388747Y-68678866D01*
X84543248Y-68791118D01*
X84549276Y-68793802D01*
X84549278Y-68793803D01*
X84696547Y-68859371D01*
X84717712Y-68868794D01*
X84811113Y-68888647D01*
X84898056Y-68907128D01*
X84898061Y-68907128D01*
X84904513Y-68908500D01*
X85095487Y-68908500D01*
X85101939Y-68907128D01*
X85101944Y-68907128D01*
X85188888Y-68888647D01*
X85282288Y-68868794D01*
X85303453Y-68859371D01*
X85450722Y-68793803D01*
X85450724Y-68793802D01*
X85456752Y-68791118D01*
X85611253Y-68678866D01*
X85647148Y-68639001D01*
X85734621Y-68541852D01*
X85734622Y-68541851D01*
X85739040Y-68536944D01*
X85797314Y-68436010D01*
X85831223Y-68377279D01*
X85831224Y-68377278D01*
X85834527Y-68371556D01*
X85893542Y-68189928D01*
X85894726Y-68178669D01*
X85912814Y-68006565D01*
X85913504Y-68000000D01*
X85897159Y-67844488D01*
X85894232Y-67816635D01*
X85894232Y-67816633D01*
X85893542Y-67810072D01*
X85834527Y-67628444D01*
X85739040Y-67463056D01*
X85729878Y-67452880D01*
X85716993Y-67438570D01*
X121735425Y-67438570D01*
X121736115Y-67445135D01*
X121751275Y-67589371D01*
X121755387Y-67628498D01*
X121814402Y-67810126D01*
X121817705Y-67815848D01*
X121817706Y-67815849D01*
X121827304Y-67832473D01*
X121909889Y-67975514D01*
X121914307Y-67980421D01*
X121914308Y-67980422D01*
X122003031Y-68078959D01*
X122037676Y-68117436D01*
X122120384Y-68177527D01*
X122162222Y-68207924D01*
X122192177Y-68229688D01*
X122198205Y-68232372D01*
X122198207Y-68232373D01*
X122356891Y-68303023D01*
X122366641Y-68307364D01*
X122460041Y-68327217D01*
X122546985Y-68345698D01*
X122546990Y-68345698D01*
X122553442Y-68347070D01*
X122744416Y-68347070D01*
X122749330Y-68346026D01*
X122818591Y-68358692D01*
X122871041Y-68408228D01*
X122909889Y-68475514D01*
X123037676Y-68617436D01*
X123122227Y-68678866D01*
X123182807Y-68722880D01*
X123192177Y-68729688D01*
X123198205Y-68732372D01*
X123198207Y-68732373D01*
X123334091Y-68792872D01*
X123366641Y-68807364D01*
X123460042Y-68827217D01*
X123546985Y-68845698D01*
X123546990Y-68845698D01*
X123553442Y-68847070D01*
X123744416Y-68847070D01*
X123750868Y-68845698D01*
X123750873Y-68845698D01*
X123837816Y-68827217D01*
X123931217Y-68807364D01*
X123963767Y-68792872D01*
X124099651Y-68732373D01*
X124099653Y-68732372D01*
X124105681Y-68729688D01*
X124115052Y-68722880D01*
X124175631Y-68678866D01*
X124260182Y-68617436D01*
X124387969Y-68475514D01*
X124462790Y-68345920D01*
X124480152Y-68315849D01*
X124480153Y-68315848D01*
X124483456Y-68310126D01*
X124542471Y-68128498D01*
X124547855Y-68077278D01*
X124561743Y-67945135D01*
X124562433Y-67938570D01*
X124548933Y-67810126D01*
X124543161Y-67755205D01*
X124543161Y-67755203D01*
X124542471Y-67748642D01*
X124483456Y-67567014D01*
X124387969Y-67401626D01*
X124366405Y-67377676D01*
X124264604Y-67264615D01*
X124264603Y-67264614D01*
X124260182Y-67259704D01*
X124105681Y-67147452D01*
X124099653Y-67144768D01*
X124099651Y-67144767D01*
X123999102Y-67100000D01*
X128986496Y-67100000D01*
X128987186Y-67106565D01*
X129005129Y-67277279D01*
X129006458Y-67289928D01*
X129065473Y-67471556D01*
X129160960Y-67636944D01*
X129165378Y-67641851D01*
X129165379Y-67641852D01*
X129279678Y-67768794D01*
X129288747Y-67778866D01*
X129443248Y-67891118D01*
X129449276Y-67893802D01*
X129449278Y-67893803D01*
X129569031Y-67947120D01*
X129617712Y-67968794D01*
X129711113Y-67988647D01*
X129798056Y-68007128D01*
X129798061Y-68007128D01*
X129804513Y-68008500D01*
X129995487Y-68008500D01*
X130001939Y-68007128D01*
X130001944Y-68007128D01*
X130088887Y-67988647D01*
X130182288Y-67968794D01*
X130230969Y-67947120D01*
X130350722Y-67893803D01*
X130350724Y-67893802D01*
X130356752Y-67891118D01*
X130511253Y-67778866D01*
X130520322Y-67768794D01*
X130634621Y-67641852D01*
X130634622Y-67641851D01*
X130639040Y-67636944D01*
X130734527Y-67471556D01*
X130793542Y-67289928D01*
X130794872Y-67277279D01*
X130812814Y-67106565D01*
X130813504Y-67100000D01*
X130799502Y-66966776D01*
X130794232Y-66916635D01*
X130794232Y-66916633D01*
X130793542Y-66910072D01*
X130790269Y-66900000D01*
X131486496Y-66900000D01*
X131487186Y-66906565D01*
X131505119Y-67077184D01*
X131506458Y-67089928D01*
X131565473Y-67271556D01*
X131568776Y-67277278D01*
X131568777Y-67277279D01*
X131579705Y-67296206D01*
X131660960Y-67436944D01*
X131788747Y-67578866D01*
X131887843Y-67650864D01*
X131922644Y-67676148D01*
X131943248Y-67691118D01*
X131949276Y-67693802D01*
X131949278Y-67693803D01*
X132087190Y-67755205D01*
X132117712Y-67768794D01*
X132183365Y-67782749D01*
X132298056Y-67807128D01*
X132298061Y-67807128D01*
X132304513Y-67808500D01*
X132495487Y-67808500D01*
X132501939Y-67807128D01*
X132501944Y-67807128D01*
X132616635Y-67782749D01*
X132682288Y-67768794D01*
X132712810Y-67755205D01*
X132850722Y-67693803D01*
X132850724Y-67693802D01*
X132856752Y-67691118D01*
X132877357Y-67676148D01*
X132912157Y-67650864D01*
X133011253Y-67578866D01*
X133139040Y-67436944D01*
X133220295Y-67296206D01*
X133231223Y-67277279D01*
X133231224Y-67277278D01*
X133234527Y-67271556D01*
X133293542Y-67089928D01*
X133294882Y-67077184D01*
X133312814Y-66906565D01*
X133313504Y-66900000D01*
X133302367Y-66794036D01*
X133294232Y-66716635D01*
X133294232Y-66716633D01*
X133293542Y-66710072D01*
X133234527Y-66528444D01*
X133139040Y-66363056D01*
X133090471Y-66309114D01*
X133015675Y-66226045D01*
X133015674Y-66226044D01*
X133011253Y-66221134D01*
X132856752Y-66108882D01*
X132850724Y-66106198D01*
X132850722Y-66106197D01*
X132688319Y-66033891D01*
X132688318Y-66033891D01*
X132682288Y-66031206D01*
X132588888Y-66011353D01*
X132501944Y-65992872D01*
X132501939Y-65992872D01*
X132495487Y-65991500D01*
X132304513Y-65991500D01*
X132298061Y-65992872D01*
X132298056Y-65992872D01*
X132211112Y-66011353D01*
X132117712Y-66031206D01*
X132111682Y-66033891D01*
X132111681Y-66033891D01*
X131949278Y-66106197D01*
X131949276Y-66106198D01*
X131943248Y-66108882D01*
X131788747Y-66221134D01*
X131784326Y-66226044D01*
X131784325Y-66226045D01*
X131709530Y-66309114D01*
X131660960Y-66363056D01*
X131565473Y-66528444D01*
X131506458Y-66710072D01*
X131505768Y-66716633D01*
X131505768Y-66716635D01*
X131497633Y-66794036D01*
X131486496Y-66900000D01*
X130790269Y-66900000D01*
X130734527Y-66728444D01*
X130709881Y-66685755D01*
X130681789Y-66637100D01*
X130639040Y-66563056D01*
X130634454Y-66557962D01*
X130515675Y-66426045D01*
X130515674Y-66426044D01*
X130511253Y-66421134D01*
X130356752Y-66308882D01*
X130350724Y-66306198D01*
X130350722Y-66306197D01*
X130188319Y-66233891D01*
X130188318Y-66233891D01*
X130182288Y-66231206D01*
X130088888Y-66211353D01*
X130001944Y-66192872D01*
X130001939Y-66192872D01*
X129995487Y-66191500D01*
X129804513Y-66191500D01*
X129798061Y-66192872D01*
X129798056Y-66192872D01*
X129711113Y-66211353D01*
X129617712Y-66231206D01*
X129611682Y-66233891D01*
X129611681Y-66233891D01*
X129449278Y-66306197D01*
X129449276Y-66306198D01*
X129443248Y-66308882D01*
X129288747Y-66421134D01*
X129284326Y-66426044D01*
X129284325Y-66426045D01*
X129165547Y-66557962D01*
X129160960Y-66563056D01*
X129118211Y-66637100D01*
X129090120Y-66685755D01*
X129065473Y-66728444D01*
X129006458Y-66910072D01*
X129005768Y-66916633D01*
X129005768Y-66916635D01*
X129000498Y-66966776D01*
X128986496Y-67100000D01*
X123999102Y-67100000D01*
X123937248Y-67072461D01*
X123937247Y-67072461D01*
X123931217Y-67069776D01*
X123837816Y-67049923D01*
X123750873Y-67031442D01*
X123750868Y-67031442D01*
X123744416Y-67030070D01*
X123553442Y-67030070D01*
X123548528Y-67031114D01*
X123479267Y-67018448D01*
X123426816Y-66968911D01*
X123387969Y-66901626D01*
X123378022Y-66890578D01*
X123264604Y-66764615D01*
X123264603Y-66764614D01*
X123260182Y-66759704D01*
X123105681Y-66647452D01*
X123099653Y-66644768D01*
X123099651Y-66644767D01*
X122937248Y-66572461D01*
X122937247Y-66572461D01*
X122931217Y-66569776D01*
X122819859Y-66546106D01*
X122750873Y-66531442D01*
X122750868Y-66531442D01*
X122744416Y-66530070D01*
X122553442Y-66530070D01*
X122546990Y-66531442D01*
X122546985Y-66531442D01*
X122477999Y-66546106D01*
X122366641Y-66569776D01*
X122360611Y-66572461D01*
X122360610Y-66572461D01*
X122198207Y-66644767D01*
X122198205Y-66644768D01*
X122192177Y-66647452D01*
X122037676Y-66759704D01*
X122033255Y-66764614D01*
X122033254Y-66764615D01*
X121919837Y-66890578D01*
X121909889Y-66901626D01*
X121874250Y-66963354D01*
X121817893Y-67060968D01*
X121814402Y-67067014D01*
X121755387Y-67248642D01*
X121754697Y-67255203D01*
X121754697Y-67255205D01*
X121750580Y-67294375D01*
X121735425Y-67438570D01*
X85716993Y-67438570D01*
X85615675Y-67326045D01*
X85615674Y-67326044D01*
X85611253Y-67321134D01*
X85456752Y-67208882D01*
X85450724Y-67206198D01*
X85450722Y-67206197D01*
X85288319Y-67133891D01*
X85288318Y-67133891D01*
X85282288Y-67131206D01*
X85166362Y-67106565D01*
X85101944Y-67092872D01*
X85101939Y-67092872D01*
X85095487Y-67091500D01*
X84904513Y-67091500D01*
X84898061Y-67092872D01*
X84898056Y-67092872D01*
X84833638Y-67106565D01*
X84717712Y-67131206D01*
X84711682Y-67133891D01*
X84711681Y-67133891D01*
X84549278Y-67206197D01*
X84549276Y-67206198D01*
X84543248Y-67208882D01*
X84388747Y-67321134D01*
X84384326Y-67326044D01*
X84384325Y-67326045D01*
X84270123Y-67452880D01*
X84260960Y-67463056D01*
X84165473Y-67628444D01*
X84106458Y-67810072D01*
X84105768Y-67816633D01*
X84105768Y-67816635D01*
X84102841Y-67844488D01*
X84086496Y-68000000D01*
X82888500Y-68000000D01*
X82888500Y-67139366D01*
X82881745Y-67077184D01*
X82830615Y-66940795D01*
X82743261Y-66824239D01*
X82626705Y-66736885D01*
X82490316Y-66685755D01*
X82428134Y-66679000D01*
X80531866Y-66679000D01*
X80469684Y-66685755D01*
X80333295Y-66736885D01*
X80216739Y-66824239D01*
X80129385Y-66940795D01*
X80078255Y-67077184D01*
X80071500Y-67139366D01*
X80071500Y-69035634D01*
X73870421Y-69035634D01*
X73777038Y-68942251D01*
X73761602Y-68931442D01*
X73697759Y-68886739D01*
X73596654Y-68815944D01*
X73591672Y-68813621D01*
X73591667Y-68813618D01*
X73464232Y-68754195D01*
X73410947Y-68707278D01*
X73391486Y-68639001D01*
X73412028Y-68571041D01*
X73464232Y-68525805D01*
X73591667Y-68466382D01*
X73591672Y-68466379D01*
X73596654Y-68464056D01*
X73737733Y-68365271D01*
X73772527Y-68340908D01*
X73772529Y-68340906D01*
X73777038Y-68337749D01*
X73932749Y-68182038D01*
X73938948Y-68173186D01*
X74055899Y-68006162D01*
X74055900Y-68006160D01*
X74059056Y-68001653D01*
X74061379Y-67996671D01*
X74061382Y-67996666D01*
X74127881Y-67854056D01*
X74152120Y-67802076D01*
X74209115Y-67589371D01*
X74228307Y-67370000D01*
X74209115Y-67150629D01*
X74152120Y-66937924D01*
X74083440Y-66790639D01*
X74061382Y-66743334D01*
X74061379Y-66743329D01*
X74059056Y-66738347D01*
X74034862Y-66703794D01*
X73935908Y-66562473D01*
X73935906Y-66562470D01*
X73932749Y-66557962D01*
X73777038Y-66402251D01*
X73596654Y-66275944D01*
X73397076Y-66182880D01*
X73184371Y-66125885D01*
X72965000Y-66106693D01*
X72745629Y-66125885D01*
X72532924Y-66182880D01*
X72459215Y-66217251D01*
X72338334Y-66273618D01*
X72338329Y-66273621D01*
X72333347Y-66275944D01*
X72328840Y-66279100D01*
X72328838Y-66279101D01*
X72157473Y-66399092D01*
X72157470Y-66399094D01*
X72152962Y-66402251D01*
X71997251Y-66557962D01*
X71994094Y-66562470D01*
X71994092Y-66562473D01*
X71941838Y-66637100D01*
X71933165Y-66649487D01*
X71912713Y-66678695D01*
X71857256Y-66723023D01*
X71786637Y-66730332D01*
X71723276Y-66698301D01*
X71687291Y-66637100D01*
X71683500Y-66606424D01*
X71683499Y-65553337D01*
X71683499Y-65550070D01*
X71682347Y-65538959D01*
X71675295Y-65470999D01*
X71672518Y-65444231D01*
X71616506Y-65276341D01*
X71523373Y-65125839D01*
X71398115Y-65000800D01*
X71247451Y-64907929D01*
X71079463Y-64852210D01*
X71072627Y-64851510D01*
X71072624Y-64851509D01*
X71020325Y-64846151D01*
X70974931Y-64841500D01*
X70429241Y-64841500D01*
X69875070Y-64841501D01*
X69871826Y-64841838D01*
X69871818Y-64841838D01*
X69825438Y-64846650D01*
X69769231Y-64852482D01*
X69601341Y-64908494D01*
X69450839Y-65001627D01*
X69325800Y-65126885D01*
X69284778Y-65193435D01*
X69237508Y-65270121D01*
X69232929Y-65277549D01*
X69177210Y-65445537D01*
X69176510Y-65452373D01*
X69176509Y-65452376D01*
X69174601Y-65470999D01*
X69166500Y-65550069D01*
X69166501Y-66649930D01*
X69166838Y-66653174D01*
X69166838Y-66653182D01*
X69167461Y-66659184D01*
X69177482Y-66755769D01*
X69233494Y-66923659D01*
X69326627Y-67074161D01*
X69451885Y-67199200D01*
X69467592Y-67208882D01*
X69569268Y-67271556D01*
X69602549Y-67292071D01*
X69678465Y-67317251D01*
X69740001Y-67337662D01*
X69798361Y-67378093D01*
X69825598Y-67443657D01*
X69813064Y-67513539D01*
X69772606Y-67560467D01*
X69703896Y-67608578D01*
X69617473Y-67669092D01*
X69617470Y-67669094D01*
X69612962Y-67672251D01*
X69457251Y-67827962D01*
X69454094Y-67832470D01*
X69454092Y-67832473D01*
X69334101Y-68003838D01*
X69330944Y-68008347D01*
X69328621Y-68013329D01*
X69328618Y-68013334D01*
X69298801Y-68077278D01*
X69237880Y-68207924D01*
X69180885Y-68420629D01*
X69161693Y-68640000D01*
X69180885Y-68859371D01*
X69237880Y-69072076D01*
X69280305Y-69163056D01*
X69328618Y-69266666D01*
X69328621Y-69266671D01*
X69330944Y-69271653D01*
X69334100Y-69276160D01*
X69334101Y-69276162D01*
X69443731Y-69432729D01*
X69457251Y-69452038D01*
X69612962Y-69607749D01*
X69793346Y-69734056D01*
X69798328Y-69736379D01*
X69798333Y-69736382D01*
X69925768Y-69795805D01*
X69979053Y-69842722D01*
X69998514Y-69910999D01*
X69977972Y-69978959D01*
X69925768Y-70024195D01*
X69798334Y-70083618D01*
X69798329Y-70083621D01*
X69793347Y-70085944D01*
X69788840Y-70089100D01*
X69788838Y-70089101D01*
X69617473Y-70209092D01*
X69617470Y-70209094D01*
X69612962Y-70212251D01*
X69457251Y-70367962D01*
X69454094Y-70372470D01*
X69454092Y-70372473D01*
X69339605Y-70535978D01*
X69330944Y-70548347D01*
X69328621Y-70553329D01*
X69328618Y-70553334D01*
X69283787Y-70649476D01*
X69237880Y-70747924D01*
X69180885Y-70960629D01*
X69161693Y-71180000D01*
X69180885Y-71399371D01*
X69237880Y-71612076D01*
X69270835Y-71682749D01*
X69328618Y-71806666D01*
X69328621Y-71806671D01*
X69330944Y-71811653D01*
X69334100Y-71816160D01*
X69334101Y-71816162D01*
X69445081Y-71974657D01*
X69457251Y-71992038D01*
X69612962Y-72147749D01*
X69617471Y-72150906D01*
X69617473Y-72150908D01*
X69643818Y-72169355D01*
X69793346Y-72274056D01*
X69798328Y-72276379D01*
X69798333Y-72276382D01*
X69925768Y-72335805D01*
X69979053Y-72382722D01*
X69998514Y-72450999D01*
X69977972Y-72518959D01*
X69925768Y-72564195D01*
X69798334Y-72623618D01*
X69798329Y-72623621D01*
X69793347Y-72625944D01*
X69788840Y-72629100D01*
X69788838Y-72629101D01*
X69617473Y-72749092D01*
X69617470Y-72749094D01*
X69612962Y-72752251D01*
X69457251Y-72907962D01*
X69454094Y-72912470D01*
X69454092Y-72912473D01*
X69348653Y-73063056D01*
X69330944Y-73088347D01*
X69328621Y-73093329D01*
X69328618Y-73093334D01*
X69304431Y-73145205D01*
X69237880Y-73287924D01*
X69180885Y-73500629D01*
X69161693Y-73720000D01*
X60099153Y-73720000D01*
X60091382Y-73703334D01*
X60091379Y-73703329D01*
X60089056Y-73698347D01*
X60085899Y-73693838D01*
X59965908Y-73522473D01*
X59965906Y-73522470D01*
X59962749Y-73517962D01*
X59807038Y-73362251D01*
X59791919Y-73351664D01*
X59727759Y-73306739D01*
X59626654Y-73235944D01*
X59427076Y-73142880D01*
X59214371Y-73085885D01*
X58995000Y-73066693D01*
X58775629Y-73085885D01*
X58562924Y-73142880D01*
X58502910Y-73170865D01*
X58368334Y-73233618D01*
X58368329Y-73233621D01*
X58363347Y-73235944D01*
X58358840Y-73239100D01*
X58358838Y-73239101D01*
X58187473Y-73359092D01*
X58187470Y-73359094D01*
X58182962Y-73362251D01*
X58027251Y-73517962D01*
X58026666Y-73517377D01*
X57971413Y-73554137D01*
X57900425Y-73555264D01*
X57840097Y-73517834D01*
X57809583Y-73453729D01*
X57808000Y-73433820D01*
X57808000Y-66760000D01*
X59431693Y-66760000D01*
X59450885Y-66979371D01*
X59507880Y-67192076D01*
X59537605Y-67255821D01*
X59598618Y-67386666D01*
X59598621Y-67386671D01*
X59600944Y-67391653D01*
X59604100Y-67396160D01*
X59604101Y-67396162D01*
X59719150Y-67560468D01*
X59727251Y-67572038D01*
X59882962Y-67727749D01*
X60063346Y-67854056D01*
X60262924Y-67947120D01*
X60475629Y-68004115D01*
X60695000Y-68023307D01*
X60914371Y-68004115D01*
X61127076Y-67947120D01*
X61326654Y-67854056D01*
X61507038Y-67727749D01*
X61662749Y-67572038D01*
X61670851Y-67560468D01*
X61785899Y-67396162D01*
X61785900Y-67396160D01*
X61789056Y-67391653D01*
X61791379Y-67386671D01*
X61791382Y-67386666D01*
X61852395Y-67255821D01*
X61882120Y-67192076D01*
X61939115Y-66979371D01*
X61958307Y-66760000D01*
X61939115Y-66540629D01*
X61882120Y-66327924D01*
X61832323Y-66221134D01*
X61791382Y-66133334D01*
X61791379Y-66133329D01*
X61789056Y-66128347D01*
X61778144Y-66112763D01*
X61665908Y-65952473D01*
X61665906Y-65952470D01*
X61662749Y-65947962D01*
X61507038Y-65792251D01*
X61465297Y-65763023D01*
X61419886Y-65731226D01*
X61326654Y-65665944D01*
X61127076Y-65572880D01*
X60914371Y-65515885D01*
X60695000Y-65496693D01*
X60475629Y-65515885D01*
X60262924Y-65572880D01*
X60169562Y-65616415D01*
X60068334Y-65663618D01*
X60068329Y-65663621D01*
X60063347Y-65665944D01*
X60058840Y-65669100D01*
X60058838Y-65669101D01*
X59887473Y-65789092D01*
X59887470Y-65789094D01*
X59882962Y-65792251D01*
X59727251Y-65947962D01*
X59724094Y-65952470D01*
X59724092Y-65952473D01*
X59611856Y-66112763D01*
X59600944Y-66128347D01*
X59598621Y-66133329D01*
X59598618Y-66133334D01*
X59557677Y-66221134D01*
X59507880Y-66327924D01*
X59450885Y-66540629D01*
X59431693Y-66760000D01*
X57808000Y-66760000D01*
X57808000Y-64964277D01*
X61940735Y-64964277D01*
X61941294Y-64968521D01*
X61941294Y-64968525D01*
X61946224Y-65005972D01*
X61978705Y-65252687D01*
X62055465Y-65533276D01*
X62057149Y-65537224D01*
X62167590Y-65796148D01*
X62169596Y-65800852D01*
X62318985Y-66050462D01*
X62321669Y-66053813D01*
X62321671Y-66053815D01*
X62334771Y-66070166D01*
X62500867Y-66277489D01*
X62711878Y-66477731D01*
X62948113Y-66647483D01*
X63008335Y-66679369D01*
X63160622Y-66760000D01*
X63205200Y-66783603D01*
X63209223Y-66785075D01*
X63209227Y-66785077D01*
X63474351Y-66882099D01*
X63478382Y-66883574D01*
X63762604Y-66945544D01*
X63791650Y-66947830D01*
X63988297Y-66963307D01*
X63988304Y-66963307D01*
X63990753Y-66963500D01*
X64148121Y-66963500D01*
X64150257Y-66963354D01*
X64150268Y-66963354D01*
X64360949Y-66948991D01*
X64360955Y-66948990D01*
X64365226Y-66948699D01*
X64369421Y-66947830D01*
X64369423Y-66947830D01*
X64564938Y-66907341D01*
X64650081Y-66889709D01*
X64924295Y-66792605D01*
X65032250Y-66736885D01*
X65178986Y-66661149D01*
X65178987Y-66661149D01*
X65182793Y-66659184D01*
X65186294Y-66656723D01*
X65186298Y-66656721D01*
X65351479Y-66540629D01*
X65420792Y-66491915D01*
X65517282Y-66402251D01*
X65630745Y-66296815D01*
X65630748Y-66296812D01*
X65633888Y-66293894D01*
X65644895Y-66280447D01*
X65769387Y-66128347D01*
X65818139Y-66068784D01*
X65970133Y-65820752D01*
X65978869Y-65800852D01*
X66039110Y-65663618D01*
X66087059Y-65554386D01*
X66088289Y-65550070D01*
X66130741Y-65401041D01*
X66166754Y-65274616D01*
X66169286Y-65256829D01*
X66207137Y-64990870D01*
X66207742Y-64986619D01*
X66209265Y-64695723D01*
X66171295Y-64407313D01*
X66168370Y-64396619D01*
X66134140Y-64271498D01*
X66094535Y-64126724D01*
X66062366Y-64051305D01*
X65982090Y-63863100D01*
X65982088Y-63863096D01*
X65980404Y-63859148D01*
X65831015Y-63609538D01*
X65816337Y-63591216D01*
X65651823Y-63385869D01*
X65649133Y-63382511D01*
X65477739Y-63219864D01*
X65441231Y-63185219D01*
X65441228Y-63185217D01*
X65438122Y-63182269D01*
X65201887Y-63012517D01*
X65071617Y-62943543D01*
X64948587Y-62878402D01*
X64948586Y-62878401D01*
X64944800Y-62876397D01*
X64940777Y-62874925D01*
X64940773Y-62874923D01*
X64675649Y-62777901D01*
X64675647Y-62777900D01*
X64671618Y-62776426D01*
X64387396Y-62714456D01*
X64343598Y-62711009D01*
X64161703Y-62696693D01*
X64161696Y-62696693D01*
X64159247Y-62696500D01*
X64001879Y-62696500D01*
X63999743Y-62696646D01*
X63999732Y-62696646D01*
X63789051Y-62711009D01*
X63789045Y-62711010D01*
X63784774Y-62711301D01*
X63780579Y-62712170D01*
X63780577Y-62712170D01*
X63765130Y-62715369D01*
X63499919Y-62770291D01*
X63225705Y-62867395D01*
X62967207Y-63000816D01*
X62963706Y-63003277D01*
X62963702Y-63003279D01*
X62950558Y-63012517D01*
X62729208Y-63168085D01*
X62726067Y-63171004D01*
X62534259Y-63349243D01*
X62516112Y-63366106D01*
X62513398Y-63369422D01*
X62513395Y-63369425D01*
X62500868Y-63384730D01*
X62331861Y-63591216D01*
X62179867Y-63839248D01*
X62178148Y-63843165D01*
X62178146Y-63843168D01*
X62169397Y-63863100D01*
X62062941Y-64105614D01*
X62061765Y-64109742D01*
X62061764Y-64109745D01*
X62055436Y-64131961D01*
X61983246Y-64385384D01*
X61982642Y-64389626D01*
X61982641Y-64389632D01*
X61964478Y-64517255D01*
X61942258Y-64673381D01*
X61940735Y-64964277D01*
X57808000Y-64964277D01*
X57808000Y-58053207D01*
X57809746Y-58032303D01*
X57812264Y-58017335D01*
X57813071Y-58012539D01*
X57813224Y-58000000D01*
X57811048Y-57984804D01*
X57809927Y-57960763D01*
X57824511Y-57663906D01*
X57825723Y-57651601D01*
X57874191Y-57324861D01*
X57876601Y-57312743D01*
X57885786Y-57276077D01*
X57956862Y-56992324D01*
X57960451Y-56980493D01*
X58071725Y-56669506D01*
X58076456Y-56658082D01*
X58217685Y-56359477D01*
X58223514Y-56348572D01*
X58393328Y-56065255D01*
X58400198Y-56054974D01*
X58596960Y-55789671D01*
X58604804Y-55780113D01*
X58826626Y-55535370D01*
X58835370Y-55526626D01*
X59080113Y-55304804D01*
X59089671Y-55296960D01*
X59354974Y-55100198D01*
X59365255Y-55093328D01*
X59648572Y-54923514D01*
X59659477Y-54917685D01*
X59958082Y-54776456D01*
X59969506Y-54771725D01*
X60280493Y-54660451D01*
X60292326Y-54656861D01*
X60612751Y-54576599D01*
X60624861Y-54574191D01*
X60951606Y-54525722D01*
X60963902Y-54524511D01*
X61052656Y-54520151D01*
X61257062Y-54510110D01*
X61282624Y-54511457D01*
X61284858Y-54511805D01*
X61284861Y-54511805D01*
X61293730Y-54513186D01*
X61301392Y-54512184D01*
X61309056Y-54513144D01*
X61328483Y-54510011D01*
X61350839Y-54508424D01*
X61664960Y-54514153D01*
G37*
%TD.AperFunction*%
%TD*%
M02*
