M48
; DRILL file {KiCad (5.1.10)-1} date 11/18/21 18:33:20
; FORMAT={-:-/ absolute / inch / decimal}
; #@! TF.CreationDate,2021-11-18T18:33:20-06:00
; #@! TF.GenerationSoftware,Kicad,Pcbnew,(5.1.10)-1
; #@! TF.FileFunction,Plated,1,2,PTH
FMAT,2
INCH
T1C0.0157
T2C0.0315
T3C0.0350
T4C0.0354
T5C0.0402
T6C0.1598
%
G90
G05
T1
X2.709Y-2.681
X2.95Y-1.8
X2.95Y-2.45
X3.559Y-2.681
X3.7Y-3.13
X3.71Y-1.8
X3.85Y-2.53
X3.85Y-2.89
X3.85Y-3.13
X3.89Y-2.5
X3.89Y-2.85
X4.0Y-3.13
X4.01Y-1.78
X4.105Y-2.935
X4.15Y-3.13
X4.2Y-1.994
X4.242Y-2.172
X4.26Y-1.845
X4.29Y-1.78
X4.3Y-2.98
X4.3Y-3.13
X4.32Y-1.75
X4.35Y-1.815
X4.379Y-1.994
X4.38Y-2.252
X4.45Y-3.13
X4.46Y-2.112
X4.6Y-3.13
X4.628Y-2.442
X4.704Y-2.282
X4.75Y-3.13
X4.76Y-1.8
X4.9Y-3.13
X5.05Y-3.13
X5.11Y-1.77
X5.46Y-1.8
T2
X2.6Y-1.9016
X2.6Y-2.0
X3.25Y-1.9016
X3.25Y-2.0
T3
X2.8Y-2.3
X2.8Y-2.4
X2.8Y-2.5
X3.65Y-2.3
X3.65Y-2.4
X3.65Y-2.5
T4
X3.561Y-1.571
X3.561Y-1.671
X3.661Y-1.571
X3.661Y-1.671
X3.761Y-1.571
X3.761Y-1.671
X3.861Y-1.571
X3.861Y-1.671
X3.961Y-1.571
X3.961Y-1.671
X4.061Y-1.571
X4.061Y-1.671
X4.161Y-1.571
X4.161Y-1.671
X4.261Y-1.571
X4.261Y-1.671
X4.361Y-1.571
X4.361Y-1.671
X4.461Y-1.571
X4.461Y-1.671
X4.561Y-1.571
X4.561Y-1.671
X4.661Y-1.571
X4.661Y-1.671
X4.761Y-1.571
X4.761Y-1.671
X4.861Y-1.571
X4.861Y-1.671
X4.961Y-1.571
X4.961Y-1.671
X5.061Y-1.571
X5.061Y-1.671
X5.161Y-1.571
X5.161Y-1.671
X5.261Y-1.571
X5.261Y-1.671
X5.361Y-1.571
X5.361Y-1.671
X5.461Y-1.571
X5.461Y-1.671
T5
X1.89Y-2.8494
X1.89Y-2.9676
X1.89Y-3.0857
X1.89Y-3.2038
X1.89Y-3.3219
X1.89Y-3.44
T6
X2.001Y-1.9
X2.001Y-2.21
T0
M30
