G04 #@! TF.GenerationSoftware,KiCad,Pcbnew,(5.0.2)-1*
G04 #@! TF.CreationDate,2019-03-24T13:01:03-05:00*
G04 #@! TF.ProjectId,NavBoard_Hardware,4e617642-6f61-4726-945f-486172647761,rev?*
G04 #@! TF.SameCoordinates,Original*
G04 #@! TF.FileFunction,Copper,L2,Bot*
G04 #@! TF.FilePolarity,Positive*
%FSLAX46Y46*%
G04 Gerber Fmt 4.6, Leading zero omitted, Abs format (unit mm)*
G04 Created by KiCad (PCBNEW (5.0.2)-1) date 3/24/2019 1:01:03 PM*
%MOMM*%
%LPD*%
G01*
G04 APERTURE LIST*
G04 #@! TA.AperFunction,ComponentPad*
%ADD10C,1.520000*%
G04 #@! TD*
G04 #@! TA.AperFunction,ComponentPad*
%ADD11R,1.600000X1.600000*%
G04 #@! TD*
G04 #@! TA.AperFunction,ComponentPad*
%ADD12O,1.600000X1.600000*%
G04 #@! TD*
G04 #@! TA.AperFunction,ComponentPad*
%ADD13C,1.524000*%
G04 #@! TD*
G04 #@! TA.AperFunction,ComponentPad*
%ADD14C,1.500000*%
G04 #@! TD*
G04 #@! TA.AperFunction,ComponentPad*
%ADD15C,2.250000*%
G04 #@! TD*
G04 #@! TA.AperFunction,ComponentPad*
%ADD16C,5.080000*%
G04 #@! TD*
G04 #@! TA.AperFunction,ComponentPad*
%ADD17C,1.600000*%
G04 #@! TD*
G04 #@! TA.AperFunction,ViaPad*
%ADD18C,0.800000*%
G04 #@! TD*
G04 #@! TA.AperFunction,Conductor*
%ADD19C,0.381000*%
G04 #@! TD*
G04 #@! TA.AperFunction,Conductor*
%ADD20C,0.508000*%
G04 #@! TD*
G04 #@! TA.AperFunction,Conductor*
%ADD21C,0.254000*%
G04 #@! TD*
G04 APERTURE END LIST*
D10*
G04 #@! TO.P,U1,PP2*
G04 #@! TO.N,Net-(U1-PadPP2)*
X138430000Y-80010000D03*
G04 #@! TO.P,U1,PN3*
G04 #@! TO.N,Net-(U1-PadPN3)*
X135890000Y-80010000D03*
G04 #@! TO.P,U1,PN2*
G04 #@! TO.N,Net-(U1-PadPN2)*
X133350000Y-80010000D03*
G04 #@! TO.P,U1,PD0*
G04 #@! TO.N,Net-(U1-PadPD0)*
X130810000Y-80010000D03*
G04 #@! TO.P,U1,PD1*
G04 #@! TO.N,Net-(U1-PadPD1)*
X128270000Y-80010000D03*
G04 #@! TO.P,U1,Rese*
G04 #@! TO.N,Net-(U1-PadRese)*
X125730000Y-80010000D03*
G04 #@! TO.P,U1,PH3*
G04 #@! TO.N,Net-(U1-PadPH3)*
X123190000Y-80010000D03*
G04 #@! TO.P,U1,PH2*
G04 #@! TO.N,Net-(U1-PadPH2)*
X120650000Y-80010000D03*
G04 #@! TO.P,U1,PM3*
G04 #@! TO.N,Net-(U1-PadPM3)*
X118110000Y-80010000D03*
G04 #@! TO.P,U1,GND*
G04 #@! TO.N,GND*
X115570000Y-80010000D03*
G04 #@! TO.P,U1,PL3*
G04 #@! TO.N,Net-(U1-PadPL3)*
X138430000Y-82550000D03*
G04 #@! TO.P,U1,PL2*
G04 #@! TO.N,Net-(U1-PadPL2)*
X135890000Y-82550000D03*
G04 #@! TO.P,U1,PL1*
G04 #@! TO.N,Net-(U1-PadPL1)*
X133350000Y-82550000D03*
G04 #@! TO.P,U1,PL0*
G04 #@! TO.N,Net-(U1-PadPL0)*
X130810000Y-82550000D03*
G04 #@! TO.P,U1,PL5*
G04 #@! TO.N,Net-(U1-PadPL5)*
X128270000Y-82550000D03*
G04 #@! TO.P,U1,PL4*
G04 #@! TO.N,Net-(U1-PadPL4)*
X125730000Y-82550000D03*
G04 #@! TO.P,U1,PG0*
G04 #@! TO.N,Net-(U1-PadPG0)*
X123190000Y-82550000D03*
G04 #@! TO.P,U1,PF3*
G04 #@! TO.N,Net-(U1-PadPF3)*
X120650000Y-82550000D03*
G04 #@! TO.P,U1,PF2*
G04 #@! TO.N,Net-(U1-PadPF2)*
X118110000Y-82550000D03*
G04 #@! TO.P,U1,PF1*
G04 #@! TO.N,Net-(U1-PadPF1)*
X115570000Y-82550000D03*
G04 #@! TO.P,U1,PB3*
G04 #@! TO.N,Net-(U1-PadPB3)*
X138430000Y-125730000D03*
G04 #@! TO.P,U1,PB2*
G04 #@! TO.N,Net-(U1-PadPB2)*
X135890000Y-125730000D03*
G04 #@! TO.P,U1,PC7*
G04 #@! TO.N,TIVA_TX*
X133350000Y-125730000D03*
G04 #@! TO.P,U1,PD3*
G04 #@! TO.N,Net-(U1-PadPD3)*
X130810000Y-125730000D03*
G04 #@! TO.P,U1,PE5*
G04 #@! TO.N,Net-(U1-PadPE5)*
X128270000Y-125730000D03*
G04 #@! TO.P,U1,PC6*
G04 #@! TO.N,TIVA_RX*
X125730000Y-125730000D03*
G04 #@! TO.P,U1,PC5*
G04 #@! TO.N,GPS_TX*
X123190000Y-125730000D03*
G04 #@! TO.P,U1,PC4*
G04 #@! TO.N,GPS_RX*
X120650000Y-125730000D03*
G04 #@! TO.P,U1,PE4*
G04 #@! TO.N,Net-(U1-PadPE4)*
X118110000Y-125730000D03*
G04 #@! TO.P,U1,+3V3*
G04 #@! TO.N,+3V3*
X115570000Y-125730000D03*
G04 #@! TO.P,U1,PM5*
G04 #@! TO.N,Net-(U1-PadPM5)*
X138430000Y-123190000D03*
G04 #@! TO.P,U1,PM4*
G04 #@! TO.N,Net-(U1-PadPM4)*
X135890000Y-123190000D03*
G04 #@! TO.P,U1,PA6*
G04 #@! TO.N,IMU_RX*
X133350000Y-123190000D03*
G04 #@! TO.P,U1,PD7*
G04 #@! TO.N,Net-(U1-PadPD7)*
X130810000Y-123190000D03*
G04 #@! TO.P,U1,PE3*
G04 #@! TO.N,Net-(U1-PadPE3)*
X128270000Y-123190000D03*
G04 #@! TO.P,U1,PE2*
G04 #@! TO.N,SW_Flg2*
X125730000Y-123190000D03*
G04 #@! TO.P,U1,PE1*
G04 #@! TO.N,SW_Flg1*
X123190000Y-123190000D03*
G04 #@! TO.P,U1,PE0*
G04 #@! TO.N,Error_LED*
X120650000Y-123190000D03*
G04 #@! TO.P,U1,GND*
G04 #@! TO.N,GND*
X118110000Y-123190000D03*
G04 #@! TO.P,U1,+5V*
G04 #@! TO.N,+5V*
X115570000Y-123190000D03*
G04 #@! TD*
D11*
G04 #@! TO.P,U2,1*
G04 #@! TO.N,RESET*
X164592000Y-66040000D03*
D12*
G04 #@! TO.P,U2,15*
G04 #@! TO.N,Net-(U2-Pad15)*
X131572000Y-73660000D03*
G04 #@! TO.P,U2,2*
G04 #@! TO.N,Net-(R5-Pad2)*
X162052000Y-66040000D03*
G04 #@! TO.P,U2,16*
G04 #@! TO.N,Net-(U2-Pad16)*
X134112000Y-73660000D03*
G04 #@! TO.P,U2,3*
G04 #@! TO.N,Net-(R6-Pad2)*
X159512000Y-66040000D03*
G04 #@! TO.P,U2,17*
G04 #@! TO.N,Net-(U2-Pad17)*
X136652000Y-73660000D03*
G04 #@! TO.P,U2,4*
G04 #@! TO.N,ATM_RX*
X156972000Y-66040000D03*
G04 #@! TO.P,U2,18*
G04 #@! TO.N,Net-(U2-Pad18)*
X139192000Y-73660000D03*
G04 #@! TO.P,U2,5*
G04 #@! TO.N,ATM_TX*
X154432000Y-66040000D03*
G04 #@! TO.P,U2,19*
G04 #@! TO.N,Net-(U2-Pad19)*
X141732000Y-73660000D03*
G04 #@! TO.P,U2,6*
G04 #@! TO.N,Net-(U2-Pad6)*
X151892000Y-66040000D03*
G04 #@! TO.P,U2,20*
G04 #@! TO.N,+5V*
X144272000Y-73660000D03*
G04 #@! TO.P,U2,7*
X149352000Y-66040000D03*
G04 #@! TO.P,U2,21*
G04 #@! TO.N,Net-(U2-Pad21)*
X146812000Y-73660000D03*
G04 #@! TO.P,U2,8*
G04 #@! TO.N,GND*
X146812000Y-66040000D03*
G04 #@! TO.P,U2,22*
X149352000Y-73660000D03*
G04 #@! TO.P,U2,9*
G04 #@! TO.N,Net-(C2-Pad1)*
X144272000Y-66040000D03*
G04 #@! TO.P,U2,23*
G04 #@! TO.N,Net-(U2-Pad23)*
X151892000Y-73660000D03*
G04 #@! TO.P,U2,10*
G04 #@! TO.N,Net-(C6-Pad1)*
X141732000Y-66040000D03*
G04 #@! TO.P,U2,24*
G04 #@! TO.N,Net-(U2-Pad24)*
X154432000Y-73660000D03*
G04 #@! TO.P,U2,11*
G04 #@! TO.N,Net-(U2-Pad11)*
X139192000Y-66040000D03*
G04 #@! TO.P,U2,25*
G04 #@! TO.N,Net-(U2-Pad25)*
X156972000Y-73660000D03*
G04 #@! TO.P,U2,12*
G04 #@! TO.N,Net-(U2-Pad12)*
X136652000Y-66040000D03*
G04 #@! TO.P,U2,26*
G04 #@! TO.N,Net-(U2-Pad26)*
X159512000Y-73660000D03*
G04 #@! TO.P,U2,13*
G04 #@! TO.N,Net-(U2-Pad13)*
X134112000Y-66040000D03*
G04 #@! TO.P,U2,27*
G04 #@! TO.N,LIDAR_SDA*
X162052000Y-73660000D03*
G04 #@! TO.P,U2,14*
G04 #@! TO.N,Net-(U2-Pad14)*
X131572000Y-66040000D03*
G04 #@! TO.P,U2,28*
G04 #@! TO.N,LIDAR_SCL*
X164592000Y-73660000D03*
G04 #@! TD*
D13*
G04 #@! TO.P,U4,3*
G04 #@! TO.N,+3V3*
X130556000Y-114046000D03*
G04 #@! TO.P,U4,2*
G04 #@! TO.N,GND*
X130556000Y-111506000D03*
G04 #@! TO.P,U4,1*
G04 #@! TO.N,Net-(C10-Pad1)*
X130556000Y-108966000D03*
G04 #@! TD*
D14*
G04 #@! TO.P,Y1,2*
G04 #@! TO.N,Net-(C6-Pad1)*
X141678000Y-57404000D03*
G04 #@! TO.P,Y1,1*
G04 #@! TO.N,Net-(C2-Pad1)*
X146558000Y-57404000D03*
G04 #@! TD*
D13*
G04 #@! TO.P,Conn4,1*
G04 #@! TO.N,GND*
X148866800Y-38887400D03*
G04 #@! TO.P,Conn4,2*
G04 #@! TO.N,Programming_RX*
X151406800Y-38887400D03*
G04 #@! TO.P,Conn4,3*
G04 #@! TO.N,Programming_TX*
X153946800Y-38887400D03*
G04 #@! TO.P,Conn4,4*
G04 #@! TO.N,RESET*
X156486800Y-38887400D03*
G04 #@! TD*
D15*
G04 #@! TO.P,J1,2*
G04 #@! TO.N,GND*
X120914000Y-70602000D03*
X115814000Y-70602000D03*
X115814000Y-75702000D03*
X120914000Y-75702000D03*
G04 #@! TO.P,J1,1*
G04 #@! TO.N,/EXAnt*
X118364000Y-73152000D03*
G04 #@! TD*
D16*
G04 #@! TO.P,Conn1,1*
G04 #@! TO.N,GND*
X119913400Y-89281000D03*
G04 #@! TO.P,Conn1,2*
G04 #@! TO.N,Net-(C10-Pad1)*
X119913400Y-97155000D03*
G04 #@! TD*
D13*
G04 #@! TO.P,Conn2,4*
G04 #@! TO.N,GND*
X170942000Y-38862000D03*
G04 #@! TO.P,Conn2,3*
G04 #@! TO.N,LIDAR_SDA*
X168402000Y-38862000D03*
G04 #@! TO.P,Conn2,2*
G04 #@! TO.N,LIDAR_SCL*
X165862000Y-38862000D03*
G04 #@! TO.P,Conn2,1*
G04 #@! TO.N,+5V*
X163322000Y-38862000D03*
G04 #@! TD*
G04 #@! TO.P,U3,3*
G04 #@! TO.N,+5V*
X129540000Y-99822000D03*
G04 #@! TO.P,U3,2*
G04 #@! TO.N,GND*
X132080000Y-99822000D03*
G04 #@! TO.P,U3,1*
G04 #@! TO.N,Net-(C10-Pad1)*
X134620000Y-99822000D03*
G04 #@! TD*
D17*
G04 #@! TO.P,C7,2*
G04 #@! TO.N,GND*
X169672000Y-48514000D03*
D11*
G04 #@! TO.P,C7,1*
G04 #@! TO.N,+5V*
X172172000Y-48514000D03*
G04 #@! TD*
D13*
G04 #@! TO.P,Conn3,1*
G04 #@! TO.N,+3V3*
X137160000Y-38862000D03*
G04 #@! TO.P,Conn3,2*
G04 #@! TO.N,IMU_RX*
X139700000Y-38862000D03*
G04 #@! TO.P,Conn3,3*
G04 #@! TO.N,GND*
X142240000Y-38862000D03*
G04 #@! TD*
D18*
G04 #@! TO.N,GND*
X171424600Y-75117400D03*
X171386500Y-77597000D03*
X137160000Y-114300000D03*
X137160000Y-106680000D03*
X142240000Y-106680000D03*
X142240000Y-114300000D03*
X147320000Y-114300000D03*
X147320000Y-106680000D03*
X147320000Y-124460000D03*
X142240000Y-124460000D03*
X154940000Y-129540000D03*
X116840000Y-129540000D03*
X119380000Y-104140000D03*
X124460000Y-87376000D03*
X124460000Y-93218000D03*
X138176000Y-93218000D03*
X149860000Y-78740000D03*
X149860000Y-83820000D03*
X127000000Y-76200000D03*
X127000000Y-71120000D03*
X121920000Y-66040000D03*
X127000000Y-66040000D03*
X127000000Y-45720000D03*
X121920000Y-45720000D03*
X121920000Y-55880000D03*
X127000000Y-55880000D03*
X121920000Y-50800000D03*
X127000000Y-50800000D03*
X162560000Y-45720000D03*
X162560000Y-50800000D03*
X162560000Y-55880000D03*
X152400000Y-48260000D03*
X142240000Y-48260000D03*
X142240000Y-43180000D03*
X152400000Y-43180000D03*
X152400000Y-53340000D03*
X152400000Y-58420000D03*
X157480000Y-78740000D03*
X157480000Y-83820000D03*
X119380000Y-116840000D03*
X124460000Y-116840000D03*
X168402000Y-69596000D03*
X164084000Y-69596000D03*
X138176000Y-87376000D03*
X142494000Y-78740000D03*
X142494000Y-83820000D03*
X119380000Y-110490000D03*
X173736000Y-91440000D03*
X173736000Y-96520000D03*
X173736000Y-101854000D03*
G04 #@! TO.N,VBACKUP*
X129794000Y-39511000D03*
X119013000Y-39511000D03*
G04 #@! TO.N,+3V3*
X140632000Y-94658000D03*
X141478000Y-87884000D03*
X149098000Y-87376000D03*
X137160000Y-61341000D03*
X137160000Y-61341000D03*
X147574000Y-93218000D03*
X164084000Y-94234000D03*
G04 #@! TO.N,+5V*
X171323000Y-41402000D03*
X153924000Y-85852000D03*
X171450000Y-64262000D03*
X143002000Y-85852000D03*
X155448000Y-87376000D03*
X164084000Y-91452700D03*
G04 #@! TO.N,LIDAR_SDA*
X165633400Y-77571600D03*
X166770020Y-73761600D03*
G04 #@! TO.N,Error_LED*
X154940000Y-102870000D03*
X154940000Y-117094000D03*
G04 #@! TO.N,SW_Flg1*
X155956000Y-102870000D03*
X155956000Y-117094000D03*
G04 #@! TO.N,IMU_RX*
X174498000Y-75907900D03*
X151892000Y-102870000D03*
X151892000Y-117094000D03*
X135128000Y-117856000D03*
G04 #@! TO.N,GPS_RX*
X154686000Y-58166000D03*
X152908000Y-102870000D03*
X166317000Y-83820000D03*
G04 #@! TO.N,GPS_TX*
X155956000Y-57912000D03*
X171450000Y-86868000D03*
X153924000Y-102870000D03*
X153924000Y-127000000D03*
G04 #@! TO.N,Programming_RX*
X156971500Y-60833000D03*
X162623500Y-61404500D03*
G04 #@! TO.N,TIVA_RX*
X133527800Y-106680000D03*
X132308600Y-121694500D03*
G04 #@! TO.N,TIVA_TX*
X148844000Y-127508000D03*
X150622000Y-102870000D03*
G04 #@! TD*
D19*
G04 #@! TO.N,GND*
X171424600Y-75117400D02*
X171424600Y-77558900D01*
X171424600Y-77558900D02*
X171386500Y-77597000D01*
G04 #@! TO.N,VBACKUP*
X119013000Y-39511000D02*
X129794000Y-39511000D01*
G04 #@! TO.N,+3V3*
X141877999Y-87484001D02*
X141478000Y-87884000D01*
X142385999Y-86976001D02*
X141877999Y-87484001D01*
X148698001Y-86976001D02*
X142385999Y-86976001D01*
X149098000Y-87376000D02*
X148698001Y-86976001D01*
X137160000Y-61341000D02*
X137160000Y-38862000D01*
X132511800Y-112090200D02*
X130556000Y-114046000D01*
X132511800Y-105156000D02*
X132511800Y-112090200D01*
X135267700Y-102400100D02*
X132511800Y-105156000D01*
X140632000Y-101633200D02*
X139865100Y-102400100D01*
X139865100Y-102400100D02*
X135267700Y-102400100D01*
X140632000Y-94658000D02*
X140632000Y-101633200D01*
X148367801Y-94011801D02*
X147574000Y-93218000D01*
X148590000Y-94234000D02*
X147574000Y-93218000D01*
X164084000Y-94234000D02*
X148590000Y-94234000D01*
D20*
G04 #@! TO.N,+5V*
X149352000Y-64908630D02*
X149998630Y-64262000D01*
X149352000Y-66040000D02*
X149352000Y-64908630D01*
X149998630Y-64262000D02*
X167640000Y-64262000D01*
X149352000Y-66040000D02*
X149352000Y-70866000D01*
X149352000Y-70866000D02*
X148717000Y-71501000D01*
D19*
X148717000Y-71501000D02*
X148717000Y-71564500D01*
D20*
X144272000Y-72390000D02*
X144272000Y-73660000D01*
X144653000Y-72009000D02*
X144272000Y-72390000D01*
X148209000Y-72009000D02*
X144653000Y-72009000D01*
X148717000Y-71501000D02*
X148209000Y-72009000D01*
X163322000Y-37592000D02*
X163322000Y-38862000D01*
X172974000Y-41402000D02*
X173736000Y-42164000D01*
X171323000Y-41402000D02*
X172974000Y-41402000D01*
X173736000Y-42164000D02*
X173736000Y-38354000D01*
X172212000Y-36830000D02*
X164084000Y-36830000D01*
X173736000Y-38354000D02*
X172212000Y-36830000D01*
X164084000Y-36830000D02*
X163322000Y-37592000D01*
X173736000Y-42164000D02*
X173736000Y-48260000D01*
X173482000Y-48514000D02*
X172172000Y-48514000D01*
X173736000Y-48260000D02*
X173482000Y-48514000D01*
X152400000Y-85852000D02*
X153924000Y-85852000D01*
X167640000Y-64262000D02*
X171450000Y-64262000D01*
X156705300Y-91452700D02*
X155448000Y-90195400D01*
X164084000Y-91452700D02*
X156705300Y-91452700D01*
X155448000Y-87376000D02*
X155448000Y-90195400D01*
X144272000Y-85344000D02*
X143764000Y-85852000D01*
X144272000Y-73660000D02*
X144272000Y-85344000D01*
X143002000Y-85852000D02*
X143764000Y-85852000D01*
X143764000Y-85852000D02*
X152400000Y-85852000D01*
X141033500Y-85852000D02*
X143002000Y-85852000D01*
X131064000Y-85852000D02*
X141033500Y-85852000D01*
X129540000Y-99822000D02*
X129540000Y-87376000D01*
X129540000Y-87376000D02*
X131064000Y-85852000D01*
D19*
G04 #@! TO.N,LIDAR_SDA*
X162052000Y-74980800D02*
X162052000Y-73660000D01*
X162490180Y-75418980D02*
X162052000Y-74980800D01*
X166217600Y-75418980D02*
X162490180Y-75418980D01*
X166217600Y-75418980D02*
X166008020Y-75418980D01*
X166008020Y-75418980D02*
X165633400Y-75793600D01*
X165633400Y-75793600D02*
X165633400Y-77571600D01*
X166217600Y-75418980D02*
X166389020Y-75418980D01*
X166770020Y-75037980D02*
X166770020Y-73761600D01*
X166389020Y-75418980D02*
X166770020Y-75037980D01*
G04 #@! TO.N,Error_LED*
X154940000Y-102870000D02*
X154940000Y-117094000D01*
G04 #@! TO.N,SW_Flg1*
X155956000Y-102870000D02*
X155956000Y-117094000D01*
G04 #@! TO.N,IMU_RX*
X139700000Y-36322000D02*
X140970000Y-35052000D01*
X139700000Y-38862000D02*
X139700000Y-36322000D01*
X140970000Y-35052000D02*
X172720000Y-35052000D01*
X172720000Y-35052000D02*
X174498000Y-36830000D01*
X174498000Y-36830000D02*
X174498000Y-75907900D01*
X151892000Y-102870000D02*
X151892000Y-103435685D01*
X151892000Y-103435685D02*
X151892000Y-117094000D01*
X135128000Y-117856000D02*
X134112000Y-118872000D01*
X134112000Y-122428000D02*
X133350000Y-123190000D01*
X134112000Y-118872000D02*
X134112000Y-122428000D01*
G04 #@! TO.N,GPS_RX*
X152908000Y-102870000D02*
X152908000Y-128016000D01*
X152908000Y-128016000D02*
X151892000Y-129032000D01*
X151892000Y-129032000D02*
X121412000Y-129032000D01*
X121412000Y-129032000D02*
X120650000Y-128270000D01*
X120650000Y-128270000D02*
X120650000Y-125730000D01*
X171704000Y-83820000D02*
X166317000Y-83820000D01*
X172466000Y-83820000D02*
X171704000Y-83820000D01*
X172720000Y-83566000D02*
X172466000Y-83820000D01*
X154686000Y-58166000D02*
X154686000Y-58731685D01*
X154686000Y-58731685D02*
X155028314Y-59073999D01*
X155028314Y-59073999D02*
X171640509Y-59073999D01*
X171640509Y-59073999D02*
X172720000Y-60153490D01*
X172720000Y-60153490D02*
X172720000Y-83566000D01*
G04 #@! TO.N,GPS_TX*
X156464000Y-58420000D02*
X155956000Y-57912000D01*
X171808182Y-58420000D02*
X156464000Y-58420000D01*
X173301009Y-59912827D02*
X171808182Y-58420000D01*
X173301010Y-86032990D02*
X173301009Y-59912827D01*
X172466000Y-86868000D02*
X173301010Y-86032990D01*
X171450000Y-86868000D02*
X172466000Y-86868000D01*
X153924000Y-126492000D02*
X153924000Y-102870000D01*
X153924000Y-126492000D02*
X153924000Y-127000000D01*
G04 #@! TO.N,Programming_RX*
X157371499Y-61232999D02*
X157371999Y-61232999D01*
X157543500Y-61404500D02*
X162623500Y-61404500D01*
X157371999Y-61232999D02*
X157543500Y-61404500D01*
X156971500Y-60833000D02*
X157371499Y-61232999D01*
G04 #@! TO.N,TIVA_RX*
X133527800Y-120475300D02*
X132308600Y-121694500D01*
X133527800Y-106680000D02*
X133527800Y-120475300D01*
G04 #@! TO.N,TIVA_TX*
X148844000Y-127508000D02*
X149352000Y-127000000D01*
X149352000Y-127000000D02*
X149860000Y-126492000D01*
X149860000Y-126492000D02*
X150622000Y-125730000D01*
X150622000Y-125730000D02*
X150622000Y-102870000D01*
G04 #@! TD*
D21*
G04 #@! TO.N,GND*
G36*
X156770001Y-127438069D02*
X156756091Y-127508000D01*
X156811195Y-127785028D01*
X156968119Y-128019881D01*
X157202972Y-128176805D01*
X157410074Y-128218000D01*
X157410075Y-128218000D01*
X157480000Y-128231909D01*
X157549926Y-128218000D01*
X173177419Y-128218000D01*
X173597009Y-128278090D01*
X173936352Y-128432381D01*
X174218752Y-128675712D01*
X174421506Y-128988523D01*
X174535348Y-129369184D01*
X174550000Y-129566350D01*
X174550001Y-137057281D01*
X174464491Y-137083423D01*
X174372033Y-137110460D01*
X174364159Y-137114098D01*
X173842644Y-137358948D01*
X173762075Y-137411872D01*
X173680927Y-137463768D01*
X173674390Y-137469470D01*
X173242558Y-137850851D01*
X173180096Y-137924244D01*
X173116760Y-137996847D01*
X173112087Y-138004154D01*
X172804654Y-138491407D01*
X172765298Y-138579387D01*
X172724889Y-138666840D01*
X172722457Y-138675160D01*
X172722454Y-138675166D01*
X172722453Y-138675173D01*
X172564134Y-139229118D01*
X172551056Y-139324586D01*
X172536813Y-139419890D01*
X172536813Y-139428564D01*
X172540333Y-140004687D01*
X172554588Y-140100068D01*
X172567654Y-140195455D01*
X172570088Y-140203781D01*
X172735164Y-140755758D01*
X172775591Y-140843250D01*
X172814930Y-140931194D01*
X172819603Y-140938501D01*
X173132966Y-141421961D01*
X173196328Y-141494594D01*
X173258763Y-141567955D01*
X173265296Y-141573654D01*
X173265300Y-141573658D01*
X173265305Y-141573661D01*
X173701759Y-141949734D01*
X173782942Y-142001653D01*
X173863475Y-142054554D01*
X173871346Y-142058190D01*
X173871349Y-142058192D01*
X173871352Y-142058193D01*
X174395817Y-142296653D01*
X174488309Y-142323700D01*
X174550000Y-142342561D01*
X174550001Y-150317412D01*
X174489910Y-150737009D01*
X174335619Y-151076352D01*
X174092288Y-151358752D01*
X173779479Y-151561506D01*
X173398815Y-151675348D01*
X173201649Y-151690000D01*
X116382581Y-151690000D01*
X115962991Y-151629910D01*
X115623648Y-151475619D01*
X115341248Y-151232288D01*
X115138494Y-150919479D01*
X115024652Y-150538815D01*
X115010000Y-150341649D01*
X115010000Y-142342719D01*
X115095509Y-142316577D01*
X115187967Y-142289540D01*
X115195841Y-142285902D01*
X115717356Y-142041052D01*
X115797925Y-141988128D01*
X115879073Y-141936232D01*
X115885610Y-141930530D01*
X116317442Y-141549149D01*
X116379887Y-141475776D01*
X116443240Y-141403153D01*
X116447913Y-141395846D01*
X116755346Y-140908593D01*
X116794687Y-140820645D01*
X116835111Y-140733160D01*
X116837545Y-140724835D01*
X116995866Y-140170882D01*
X117008943Y-140075421D01*
X117023187Y-139980111D01*
X117023187Y-139971436D01*
X117019667Y-139395313D01*
X117005414Y-139299943D01*
X116992346Y-139204544D01*
X116989912Y-139196219D01*
X116824836Y-138644241D01*
X116784418Y-138556769D01*
X116745071Y-138468806D01*
X116740397Y-138461499D01*
X116427034Y-137978040D01*
X116363707Y-137905447D01*
X116301237Y-137832045D01*
X116294700Y-137826343D01*
X115858241Y-137450266D01*
X115777058Y-137398347D01*
X115696525Y-137345446D01*
X115688654Y-137341810D01*
X115688651Y-137341808D01*
X115688648Y-137341807D01*
X115164183Y-137103347D01*
X115071691Y-137076300D01*
X115010000Y-137057439D01*
X115010000Y-127007978D01*
X115292517Y-127125000D01*
X115847483Y-127125000D01*
X116360204Y-126912624D01*
X116752624Y-126520204D01*
X116840000Y-126309260D01*
X116927376Y-126520204D01*
X117319796Y-126912624D01*
X117832517Y-127125000D01*
X118387483Y-127125000D01*
X118900204Y-126912624D01*
X119292624Y-126520204D01*
X119380000Y-126309260D01*
X119467376Y-126520204D01*
X119824501Y-126877329D01*
X119824500Y-128188698D01*
X119808328Y-128270000D01*
X119824500Y-128351301D01*
X119824500Y-128351302D01*
X119872396Y-128592093D01*
X120054848Y-128865152D01*
X120123777Y-128911209D01*
X120770793Y-129558226D01*
X120816848Y-129627152D01*
X120885773Y-129673206D01*
X121089905Y-129809604D01*
X121412000Y-129873672D01*
X121493303Y-129857500D01*
X151810699Y-129857500D01*
X151892000Y-129873672D01*
X151973301Y-129857500D01*
X151973303Y-129857500D01*
X152214094Y-129809604D01*
X152487152Y-129627152D01*
X152533209Y-129558223D01*
X153434226Y-128657207D01*
X153503152Y-128611152D01*
X153685604Y-128338094D01*
X153733500Y-128097303D01*
X153733500Y-128097302D01*
X153745893Y-128035000D01*
X154129874Y-128035000D01*
X154510280Y-127877431D01*
X154801431Y-127586280D01*
X154959000Y-127205874D01*
X154959000Y-126794126D01*
X154801431Y-126413720D01*
X154749500Y-126361789D01*
X154749500Y-118129000D01*
X155145874Y-118129000D01*
X155448000Y-118003856D01*
X155750126Y-118129000D01*
X156161874Y-118129000D01*
X156542280Y-117971431D01*
X156770001Y-117743710D01*
X156770001Y-127438069D01*
X156770001Y-127438069D01*
G37*
X156770001Y-127438069D02*
X156756091Y-127508000D01*
X156811195Y-127785028D01*
X156968119Y-128019881D01*
X157202972Y-128176805D01*
X157410074Y-128218000D01*
X157410075Y-128218000D01*
X157480000Y-128231909D01*
X157549926Y-128218000D01*
X173177419Y-128218000D01*
X173597009Y-128278090D01*
X173936352Y-128432381D01*
X174218752Y-128675712D01*
X174421506Y-128988523D01*
X174535348Y-129369184D01*
X174550000Y-129566350D01*
X174550001Y-137057281D01*
X174464491Y-137083423D01*
X174372033Y-137110460D01*
X174364159Y-137114098D01*
X173842644Y-137358948D01*
X173762075Y-137411872D01*
X173680927Y-137463768D01*
X173674390Y-137469470D01*
X173242558Y-137850851D01*
X173180096Y-137924244D01*
X173116760Y-137996847D01*
X173112087Y-138004154D01*
X172804654Y-138491407D01*
X172765298Y-138579387D01*
X172724889Y-138666840D01*
X172722457Y-138675160D01*
X172722454Y-138675166D01*
X172722453Y-138675173D01*
X172564134Y-139229118D01*
X172551056Y-139324586D01*
X172536813Y-139419890D01*
X172536813Y-139428564D01*
X172540333Y-140004687D01*
X172554588Y-140100068D01*
X172567654Y-140195455D01*
X172570088Y-140203781D01*
X172735164Y-140755758D01*
X172775591Y-140843250D01*
X172814930Y-140931194D01*
X172819603Y-140938501D01*
X173132966Y-141421961D01*
X173196328Y-141494594D01*
X173258763Y-141567955D01*
X173265296Y-141573654D01*
X173265300Y-141573658D01*
X173265305Y-141573661D01*
X173701759Y-141949734D01*
X173782942Y-142001653D01*
X173863475Y-142054554D01*
X173871346Y-142058190D01*
X173871349Y-142058192D01*
X173871352Y-142058193D01*
X174395817Y-142296653D01*
X174488309Y-142323700D01*
X174550000Y-142342561D01*
X174550001Y-150317412D01*
X174489910Y-150737009D01*
X174335619Y-151076352D01*
X174092288Y-151358752D01*
X173779479Y-151561506D01*
X173398815Y-151675348D01*
X173201649Y-151690000D01*
X116382581Y-151690000D01*
X115962991Y-151629910D01*
X115623648Y-151475619D01*
X115341248Y-151232288D01*
X115138494Y-150919479D01*
X115024652Y-150538815D01*
X115010000Y-150341649D01*
X115010000Y-142342719D01*
X115095509Y-142316577D01*
X115187967Y-142289540D01*
X115195841Y-142285902D01*
X115717356Y-142041052D01*
X115797925Y-141988128D01*
X115879073Y-141936232D01*
X115885610Y-141930530D01*
X116317442Y-141549149D01*
X116379887Y-141475776D01*
X116443240Y-141403153D01*
X116447913Y-141395846D01*
X116755346Y-140908593D01*
X116794687Y-140820645D01*
X116835111Y-140733160D01*
X116837545Y-140724835D01*
X116995866Y-140170882D01*
X117008943Y-140075421D01*
X117023187Y-139980111D01*
X117023187Y-139971436D01*
X117019667Y-139395313D01*
X117005414Y-139299943D01*
X116992346Y-139204544D01*
X116989912Y-139196219D01*
X116824836Y-138644241D01*
X116784418Y-138556769D01*
X116745071Y-138468806D01*
X116740397Y-138461499D01*
X116427034Y-137978040D01*
X116363707Y-137905447D01*
X116301237Y-137832045D01*
X116294700Y-137826343D01*
X115858241Y-137450266D01*
X115777058Y-137398347D01*
X115696525Y-137345446D01*
X115688654Y-137341810D01*
X115688651Y-137341808D01*
X115688648Y-137341807D01*
X115164183Y-137103347D01*
X115071691Y-137076300D01*
X115010000Y-137057439D01*
X115010000Y-127007978D01*
X115292517Y-127125000D01*
X115847483Y-127125000D01*
X116360204Y-126912624D01*
X116752624Y-126520204D01*
X116840000Y-126309260D01*
X116927376Y-126520204D01*
X117319796Y-126912624D01*
X117832517Y-127125000D01*
X118387483Y-127125000D01*
X118900204Y-126912624D01*
X119292624Y-126520204D01*
X119380000Y-126309260D01*
X119467376Y-126520204D01*
X119824501Y-126877329D01*
X119824500Y-128188698D01*
X119808328Y-128270000D01*
X119824500Y-128351301D01*
X119824500Y-128351302D01*
X119872396Y-128592093D01*
X120054848Y-128865152D01*
X120123777Y-128911209D01*
X120770793Y-129558226D01*
X120816848Y-129627152D01*
X120885773Y-129673206D01*
X121089905Y-129809604D01*
X121412000Y-129873672D01*
X121493303Y-129857500D01*
X151810699Y-129857500D01*
X151892000Y-129873672D01*
X151973301Y-129857500D01*
X151973303Y-129857500D01*
X152214094Y-129809604D01*
X152487152Y-129627152D01*
X152533209Y-129558223D01*
X153434226Y-128657207D01*
X153503152Y-128611152D01*
X153685604Y-128338094D01*
X153733500Y-128097303D01*
X153733500Y-128097302D01*
X153745893Y-128035000D01*
X154129874Y-128035000D01*
X154510280Y-127877431D01*
X154801431Y-127586280D01*
X154959000Y-127205874D01*
X154959000Y-126794126D01*
X154801431Y-126413720D01*
X154749500Y-126361789D01*
X154749500Y-118129000D01*
X155145874Y-118129000D01*
X155448000Y-118003856D01*
X155750126Y-118129000D01*
X156161874Y-118129000D01*
X156542280Y-117971431D01*
X156770001Y-117743710D01*
X156770001Y-127438069D01*
G36*
X174177787Y-26154065D02*
X174342920Y-26249405D01*
X174465488Y-26395477D01*
X174541555Y-26604465D01*
X174550000Y-26700996D01*
X174550000Y-29703455D01*
X174212711Y-28889167D01*
X173548833Y-28225289D01*
X172681433Y-27866000D01*
X171742567Y-27866000D01*
X170875167Y-28225289D01*
X170211289Y-28889167D01*
X169852000Y-29756567D01*
X169852000Y-30695433D01*
X170211289Y-31562833D01*
X170875167Y-32226711D01*
X171742567Y-32586000D01*
X172681433Y-32586000D01*
X173548833Y-32226711D01*
X174212711Y-31562833D01*
X174550000Y-30748545D01*
X174550000Y-35714568D01*
X173361209Y-34525777D01*
X173315152Y-34456848D01*
X173042094Y-34274396D01*
X172801303Y-34226500D01*
X172801301Y-34226500D01*
X172720000Y-34210328D01*
X172638699Y-34226500D01*
X141051297Y-34226500D01*
X140969999Y-34210329D01*
X140888701Y-34226500D01*
X140888697Y-34226500D01*
X140647906Y-34274396D01*
X140374848Y-34456848D01*
X140328793Y-34525774D01*
X139173775Y-35680793D01*
X139104849Y-35726848D01*
X139058794Y-35795774D01*
X138922397Y-35999906D01*
X138858328Y-36322000D01*
X138874501Y-36403306D01*
X138874500Y-37711843D01*
X138515680Y-38070663D01*
X138430000Y-38277513D01*
X138344320Y-38070663D01*
X137951337Y-37677680D01*
X137437881Y-37465000D01*
X136882119Y-37465000D01*
X136368663Y-37677680D01*
X135975680Y-38070663D01*
X135763000Y-38584119D01*
X135763000Y-39139881D01*
X135975680Y-39653337D01*
X136334501Y-40012158D01*
X136334500Y-60702789D01*
X136282569Y-60754720D01*
X136125000Y-61135126D01*
X136125000Y-61546874D01*
X136282569Y-61927280D01*
X136573720Y-62218431D01*
X136954126Y-62376000D01*
X137365874Y-62376000D01*
X137746280Y-62218431D01*
X138037431Y-61927280D01*
X138195000Y-61546874D01*
X138195000Y-61135126D01*
X138037431Y-60754720D01*
X137985500Y-60702789D01*
X137985500Y-57128506D01*
X140293000Y-57128506D01*
X140293000Y-57679494D01*
X140503853Y-58188540D01*
X140893460Y-58578147D01*
X141402506Y-58789000D01*
X141953494Y-58789000D01*
X142462540Y-58578147D01*
X142852147Y-58188540D01*
X143063000Y-57679494D01*
X143063000Y-57128506D01*
X145173000Y-57128506D01*
X145173000Y-57679494D01*
X145383853Y-58188540D01*
X145773460Y-58578147D01*
X146282506Y-58789000D01*
X146833494Y-58789000D01*
X147342540Y-58578147D01*
X147732147Y-58188540D01*
X147943000Y-57679494D01*
X147943000Y-57128506D01*
X147732147Y-56619460D01*
X147342540Y-56229853D01*
X146833494Y-56019000D01*
X146282506Y-56019000D01*
X145773460Y-56229853D01*
X145383853Y-56619460D01*
X145173000Y-57128506D01*
X143063000Y-57128506D01*
X142852147Y-56619460D01*
X142462540Y-56229853D01*
X141953494Y-56019000D01*
X141402506Y-56019000D01*
X140893460Y-56229853D01*
X140503853Y-56619460D01*
X140293000Y-57128506D01*
X137985500Y-57128506D01*
X137985500Y-40012157D01*
X138344320Y-39653337D01*
X138430000Y-39446487D01*
X138515680Y-39653337D01*
X138908663Y-40046320D01*
X139422119Y-40259000D01*
X139977881Y-40259000D01*
X140491337Y-40046320D01*
X140884320Y-39653337D01*
X141097000Y-39139881D01*
X141097000Y-38609519D01*
X150009800Y-38609519D01*
X150009800Y-39165281D01*
X150222480Y-39678737D01*
X150615463Y-40071720D01*
X151128919Y-40284400D01*
X151684681Y-40284400D01*
X152198137Y-40071720D01*
X152591120Y-39678737D01*
X152676800Y-39471887D01*
X152762480Y-39678737D01*
X153155463Y-40071720D01*
X153668919Y-40284400D01*
X154224681Y-40284400D01*
X154738137Y-40071720D01*
X155131120Y-39678737D01*
X155216800Y-39471887D01*
X155302480Y-39678737D01*
X155695463Y-40071720D01*
X156208919Y-40284400D01*
X156764681Y-40284400D01*
X157278137Y-40071720D01*
X157671120Y-39678737D01*
X157883800Y-39165281D01*
X157883800Y-38609519D01*
X157671120Y-38096063D01*
X157278137Y-37703080D01*
X156764681Y-37490400D01*
X156208919Y-37490400D01*
X155695463Y-37703080D01*
X155302480Y-38096063D01*
X155216800Y-38302913D01*
X155131120Y-38096063D01*
X154738137Y-37703080D01*
X154224681Y-37490400D01*
X153668919Y-37490400D01*
X153155463Y-37703080D01*
X152762480Y-38096063D01*
X152676800Y-38302913D01*
X152591120Y-38096063D01*
X152198137Y-37703080D01*
X151684681Y-37490400D01*
X151128919Y-37490400D01*
X150615463Y-37703080D01*
X150222480Y-38096063D01*
X150009800Y-38609519D01*
X141097000Y-38609519D01*
X141097000Y-38584119D01*
X140884320Y-38070663D01*
X140525500Y-37711843D01*
X140525500Y-36663932D01*
X141311933Y-35877500D01*
X172378068Y-35877500D01*
X172476830Y-35976262D01*
X172299556Y-35941000D01*
X172299555Y-35941000D01*
X172212000Y-35923584D01*
X172124445Y-35941000D01*
X164171555Y-35941000D01*
X164084000Y-35923584D01*
X163996445Y-35941000D01*
X163996444Y-35941000D01*
X163737130Y-35992581D01*
X163443067Y-36189067D01*
X163393471Y-36263294D01*
X162755296Y-36901469D01*
X162681067Y-36951067D01*
X162484581Y-37245131D01*
X162440846Y-37465000D01*
X162415584Y-37592000D01*
X162433000Y-37679555D01*
X162433000Y-37775343D01*
X162137680Y-38070663D01*
X161925000Y-38584119D01*
X161925000Y-39139881D01*
X162137680Y-39653337D01*
X162530663Y-40046320D01*
X163044119Y-40259000D01*
X163599881Y-40259000D01*
X164113337Y-40046320D01*
X164506320Y-39653337D01*
X164592000Y-39446487D01*
X164677680Y-39653337D01*
X165070663Y-40046320D01*
X165584119Y-40259000D01*
X166139881Y-40259000D01*
X166653337Y-40046320D01*
X167046320Y-39653337D01*
X167132000Y-39446487D01*
X167217680Y-39653337D01*
X167610663Y-40046320D01*
X168124119Y-40259000D01*
X168679881Y-40259000D01*
X169193337Y-40046320D01*
X169586320Y-39653337D01*
X169799000Y-39139881D01*
X169799000Y-38584119D01*
X169586320Y-38070663D01*
X169234657Y-37719000D01*
X171843765Y-37719000D01*
X172847001Y-38722237D01*
X172847000Y-40513000D01*
X171881350Y-40513000D01*
X171528874Y-40367000D01*
X171117126Y-40367000D01*
X170736720Y-40524569D01*
X170445569Y-40815720D01*
X170288000Y-41196126D01*
X170288000Y-41607874D01*
X170445569Y-41988280D01*
X170736720Y-42279431D01*
X171117126Y-42437000D01*
X171528874Y-42437000D01*
X171881350Y-42291000D01*
X172605765Y-42291000D01*
X172847000Y-42532236D01*
X172847001Y-47066560D01*
X171372000Y-47066560D01*
X171124235Y-47115843D01*
X170914191Y-47256191D01*
X170773843Y-47466235D01*
X170724560Y-47714000D01*
X170724560Y-49314000D01*
X170773843Y-49561765D01*
X170914191Y-49771809D01*
X171124235Y-49912157D01*
X171372000Y-49961440D01*
X172972000Y-49961440D01*
X173219765Y-49912157D01*
X173429809Y-49771809D01*
X173570157Y-49561765D01*
X173603063Y-49396335D01*
X173672500Y-49382523D01*
X173672501Y-59116886D01*
X172449391Y-57893777D01*
X172403334Y-57824848D01*
X172130276Y-57642396D01*
X171889485Y-57594500D01*
X171889483Y-57594500D01*
X171808182Y-57578328D01*
X171726881Y-57594500D01*
X156944763Y-57594500D01*
X156833431Y-57325720D01*
X156542280Y-57034569D01*
X156161874Y-56877000D01*
X155750126Y-56877000D01*
X155369720Y-57034569D01*
X155161575Y-57242714D01*
X154891874Y-57131000D01*
X154480126Y-57131000D01*
X154099720Y-57288569D01*
X153808569Y-57579720D01*
X153651000Y-57960126D01*
X153651000Y-58371874D01*
X153808569Y-58752280D01*
X153858321Y-58802032D01*
X153860500Y-58812986D01*
X153860500Y-58812988D01*
X153908396Y-59053779D01*
X154090849Y-59326837D01*
X154159775Y-59372892D01*
X154387105Y-59600222D01*
X154433162Y-59669151D01*
X154706220Y-59851603D01*
X154947011Y-59899499D01*
X154947015Y-59899499D01*
X155028313Y-59915670D01*
X155109611Y-59899499D01*
X156520585Y-59899499D01*
X156385220Y-59955569D01*
X156094069Y-60246720D01*
X155936500Y-60627126D01*
X155936500Y-61038874D01*
X156094069Y-61419280D01*
X156385220Y-61710431D01*
X156765626Y-61868000D01*
X156835985Y-61868000D01*
X156846783Y-61875215D01*
X156902291Y-61930723D01*
X156948348Y-61999652D01*
X157221406Y-62182104D01*
X157462197Y-62230000D01*
X157462198Y-62230000D01*
X157543499Y-62246172D01*
X157624801Y-62230000D01*
X161985289Y-62230000D01*
X162037220Y-62281931D01*
X162417626Y-62439500D01*
X162829374Y-62439500D01*
X163209780Y-62281931D01*
X163500931Y-61990780D01*
X163658500Y-61610374D01*
X163658500Y-61198626D01*
X163500931Y-60818220D01*
X163209780Y-60527069D01*
X162829374Y-60369500D01*
X162417626Y-60369500D01*
X162037220Y-60527069D01*
X161985289Y-60579000D01*
X157986566Y-60579000D01*
X157848931Y-60246720D01*
X157557780Y-59955569D01*
X157422415Y-59899499D01*
X171298577Y-59899499D01*
X171894500Y-60495423D01*
X171894500Y-63325842D01*
X171655874Y-63227000D01*
X171244126Y-63227000D01*
X170891650Y-63373000D01*
X150086185Y-63373000D01*
X149998630Y-63355584D01*
X149911075Y-63373000D01*
X149911074Y-63373000D01*
X149651760Y-63424581D01*
X149357697Y-63621067D01*
X149308100Y-63695294D01*
X148785294Y-64218101D01*
X148711068Y-64267697D01*
X148661472Y-64341923D01*
X148661471Y-64341924D01*
X148514582Y-64561760D01*
X148445584Y-64908630D01*
X148447543Y-64918479D01*
X148317423Y-65005423D01*
X148000260Y-65480091D01*
X147888887Y-66040000D01*
X148000260Y-66599909D01*
X148317423Y-67074577D01*
X148463000Y-67171849D01*
X148463001Y-70497764D01*
X147840765Y-71120000D01*
X144740550Y-71120000D01*
X144652999Y-71102585D01*
X144565448Y-71120000D01*
X144565444Y-71120000D01*
X144306130Y-71171581D01*
X144012067Y-71368067D01*
X143962469Y-71442296D01*
X143705296Y-71699469D01*
X143631067Y-71749067D01*
X143434581Y-72043131D01*
X143405063Y-72191529D01*
X143365584Y-72390000D01*
X143383000Y-72477555D01*
X143383000Y-72528151D01*
X143237423Y-72625423D01*
X143002000Y-72977758D01*
X142766577Y-72625423D01*
X142291909Y-72308260D01*
X141873333Y-72225000D01*
X141590667Y-72225000D01*
X141172091Y-72308260D01*
X140697423Y-72625423D01*
X140462000Y-72977758D01*
X140226577Y-72625423D01*
X139751909Y-72308260D01*
X139333333Y-72225000D01*
X139050667Y-72225000D01*
X138632091Y-72308260D01*
X138157423Y-72625423D01*
X137922000Y-72977758D01*
X137686577Y-72625423D01*
X137211909Y-72308260D01*
X136793333Y-72225000D01*
X136510667Y-72225000D01*
X136092091Y-72308260D01*
X135617423Y-72625423D01*
X135382000Y-72977758D01*
X135146577Y-72625423D01*
X134671909Y-72308260D01*
X134253333Y-72225000D01*
X133970667Y-72225000D01*
X133552091Y-72308260D01*
X133077423Y-72625423D01*
X132842000Y-72977758D01*
X132606577Y-72625423D01*
X132131909Y-72308260D01*
X131713333Y-72225000D01*
X131430667Y-72225000D01*
X131012091Y-72308260D01*
X130537423Y-72625423D01*
X130220260Y-73100091D01*
X130108887Y-73660000D01*
X130220260Y-74219909D01*
X130537423Y-74694577D01*
X131012091Y-75011740D01*
X131430667Y-75095000D01*
X131713333Y-75095000D01*
X132131909Y-75011740D01*
X132606577Y-74694577D01*
X132842000Y-74342242D01*
X133077423Y-74694577D01*
X133552091Y-75011740D01*
X133970667Y-75095000D01*
X134253333Y-75095000D01*
X134671909Y-75011740D01*
X135146577Y-74694577D01*
X135382000Y-74342242D01*
X135617423Y-74694577D01*
X136092091Y-75011740D01*
X136510667Y-75095000D01*
X136793333Y-75095000D01*
X137211909Y-75011740D01*
X137686577Y-74694577D01*
X137922000Y-74342242D01*
X138157423Y-74694577D01*
X138632091Y-75011740D01*
X139050667Y-75095000D01*
X139333333Y-75095000D01*
X139751909Y-75011740D01*
X140226577Y-74694577D01*
X140462000Y-74342242D01*
X140697423Y-74694577D01*
X141172091Y-75011740D01*
X141590667Y-75095000D01*
X141873333Y-75095000D01*
X142291909Y-75011740D01*
X142766577Y-74694577D01*
X143002000Y-74342242D01*
X143237423Y-74694577D01*
X143383000Y-74791849D01*
X143383001Y-84889540D01*
X143207874Y-84817000D01*
X142796126Y-84817000D01*
X142443650Y-84963000D01*
X131151550Y-84963000D01*
X131063999Y-84945585D01*
X130976448Y-84963000D01*
X130976444Y-84963000D01*
X130717130Y-85014581D01*
X130423067Y-85211067D01*
X130373471Y-85285293D01*
X128973294Y-86685471D01*
X128899068Y-86735067D01*
X128849472Y-86809293D01*
X128849471Y-86809294D01*
X128702582Y-87029130D01*
X128633584Y-87376000D01*
X128651001Y-87463559D01*
X128651000Y-98735343D01*
X128355680Y-99030663D01*
X128143000Y-99544119D01*
X128143000Y-100099881D01*
X128355680Y-100613337D01*
X128748663Y-101006320D01*
X129262119Y-101219000D01*
X129817881Y-101219000D01*
X130331337Y-101006320D01*
X130724320Y-100613337D01*
X130937000Y-100099881D01*
X130937000Y-99544119D01*
X133223000Y-99544119D01*
X133223000Y-100099881D01*
X133435680Y-100613337D01*
X133828663Y-101006320D01*
X134342119Y-101219000D01*
X134897881Y-101219000D01*
X135411337Y-101006320D01*
X135804320Y-100613337D01*
X136017000Y-100099881D01*
X136017000Y-99544119D01*
X135804320Y-99030663D01*
X135411337Y-98637680D01*
X134897881Y-98425000D01*
X134342119Y-98425000D01*
X133828663Y-98637680D01*
X133435680Y-99030663D01*
X133223000Y-99544119D01*
X130937000Y-99544119D01*
X130724320Y-99030663D01*
X130429000Y-98735343D01*
X130429000Y-93012126D01*
X146539000Y-93012126D01*
X146539000Y-93423874D01*
X146696569Y-93804280D01*
X146987720Y-94095431D01*
X147368126Y-94253000D01*
X147441568Y-94253000D01*
X147948793Y-94760226D01*
X147994848Y-94829152D01*
X148267906Y-95011604D01*
X148508697Y-95059500D01*
X148508698Y-95059500D01*
X148590000Y-95075672D01*
X148671301Y-95059500D01*
X163445789Y-95059500D01*
X163497720Y-95111431D01*
X163878126Y-95269000D01*
X164289874Y-95269000D01*
X164670280Y-95111431D01*
X164961431Y-94820280D01*
X165119000Y-94439874D01*
X165119000Y-94028126D01*
X164961431Y-93647720D01*
X164670280Y-93356569D01*
X164289874Y-93199000D01*
X163878126Y-93199000D01*
X163497720Y-93356569D01*
X163445789Y-93408500D01*
X148931933Y-93408500D01*
X148609000Y-93085568D01*
X148609000Y-93012126D01*
X148451431Y-92631720D01*
X148160280Y-92340569D01*
X147779874Y-92183000D01*
X147368126Y-92183000D01*
X146987720Y-92340569D01*
X146696569Y-92631720D01*
X146539000Y-93012126D01*
X130429000Y-93012126D01*
X130429000Y-87744235D01*
X131432236Y-86741000D01*
X141453568Y-86741000D01*
X141351772Y-86842795D01*
X141351773Y-86842795D01*
X141345568Y-86849000D01*
X141272126Y-86849000D01*
X140891720Y-87006569D01*
X140600569Y-87297720D01*
X140443000Y-87678126D01*
X140443000Y-88089874D01*
X140600569Y-88470280D01*
X140891720Y-88761431D01*
X141272126Y-88919000D01*
X141683874Y-88919000D01*
X142064280Y-88761431D01*
X142355431Y-88470280D01*
X142513000Y-88089874D01*
X142513000Y-88016432D01*
X142519205Y-88010227D01*
X142727932Y-87801501D01*
X148153972Y-87801501D01*
X148220569Y-87962280D01*
X148511720Y-88253431D01*
X148892126Y-88411000D01*
X149303874Y-88411000D01*
X149684280Y-88253431D01*
X149975431Y-87962280D01*
X150133000Y-87581874D01*
X150133000Y-87170126D01*
X154413000Y-87170126D01*
X154413000Y-87581874D01*
X154559000Y-87934350D01*
X154559001Y-90107841D01*
X154541584Y-90195400D01*
X154585803Y-90417700D01*
X154610582Y-90542270D01*
X154807068Y-90836333D01*
X154881294Y-90885929D01*
X156014771Y-92019407D01*
X156064367Y-92093633D01*
X156358430Y-92290119D01*
X156617744Y-92341700D01*
X156617745Y-92341700D01*
X156705300Y-92359116D01*
X156792855Y-92341700D01*
X163525650Y-92341700D01*
X163878126Y-92487700D01*
X164289874Y-92487700D01*
X164670280Y-92330131D01*
X164961431Y-92038980D01*
X165119000Y-91658574D01*
X165119000Y-91246826D01*
X164961431Y-90866420D01*
X164670280Y-90575269D01*
X164289874Y-90417700D01*
X163878126Y-90417700D01*
X163525650Y-90563700D01*
X157073536Y-90563700D01*
X156337000Y-89827165D01*
X156337000Y-87934350D01*
X156483000Y-87581874D01*
X156483000Y-87170126D01*
X156325431Y-86789720D01*
X156034280Y-86498569D01*
X155653874Y-86341000D01*
X155242126Y-86341000D01*
X154861720Y-86498569D01*
X154570569Y-86789720D01*
X154413000Y-87170126D01*
X150133000Y-87170126D01*
X149975431Y-86789720D01*
X149926711Y-86741000D01*
X153365650Y-86741000D01*
X153718126Y-86887000D01*
X154129874Y-86887000D01*
X154510280Y-86729431D01*
X154801431Y-86438280D01*
X154959000Y-86057874D01*
X154959000Y-85646126D01*
X154801431Y-85265720D01*
X154510280Y-84974569D01*
X154129874Y-84817000D01*
X153718126Y-84817000D01*
X153365650Y-84963000D01*
X145161000Y-84963000D01*
X145161000Y-74791848D01*
X145306577Y-74694577D01*
X145542000Y-74342242D01*
X145777423Y-74694577D01*
X146252091Y-75011740D01*
X146670667Y-75095000D01*
X146953333Y-75095000D01*
X147371909Y-75011740D01*
X147846577Y-74694577D01*
X148163740Y-74219909D01*
X148275113Y-73660000D01*
X150428887Y-73660000D01*
X150540260Y-74219909D01*
X150857423Y-74694577D01*
X151332091Y-75011740D01*
X151750667Y-75095000D01*
X152033333Y-75095000D01*
X152451909Y-75011740D01*
X152926577Y-74694577D01*
X153162000Y-74342242D01*
X153397423Y-74694577D01*
X153872091Y-75011740D01*
X154290667Y-75095000D01*
X154573333Y-75095000D01*
X154991909Y-75011740D01*
X155466577Y-74694577D01*
X155702000Y-74342242D01*
X155937423Y-74694577D01*
X156412091Y-75011740D01*
X156830667Y-75095000D01*
X157113333Y-75095000D01*
X157531909Y-75011740D01*
X158006577Y-74694577D01*
X158242000Y-74342242D01*
X158477423Y-74694577D01*
X158952091Y-75011740D01*
X159370667Y-75095000D01*
X159653333Y-75095000D01*
X160071909Y-75011740D01*
X160546577Y-74694577D01*
X160782000Y-74342242D01*
X161017423Y-74694577D01*
X161226500Y-74834278D01*
X161226500Y-74899498D01*
X161210328Y-74980800D01*
X161226500Y-75062101D01*
X161226500Y-75062102D01*
X161274396Y-75302893D01*
X161456848Y-75575952D01*
X161525777Y-75622009D01*
X161848971Y-75945203D01*
X161895028Y-76014132D01*
X162168086Y-76196584D01*
X162408877Y-76244480D01*
X162408881Y-76244480D01*
X162490179Y-76260651D01*
X162571477Y-76244480D01*
X164807900Y-76244480D01*
X164807901Y-76933388D01*
X164755969Y-76985320D01*
X164598400Y-77365726D01*
X164598400Y-77777474D01*
X164755969Y-78157880D01*
X165047120Y-78449031D01*
X165427526Y-78606600D01*
X165839274Y-78606600D01*
X166219680Y-78449031D01*
X166510831Y-78157880D01*
X166668400Y-77777474D01*
X166668400Y-77365726D01*
X166510831Y-76985320D01*
X166458900Y-76933389D01*
X166458900Y-76246752D01*
X166470321Y-76244480D01*
X166470323Y-76244480D01*
X166711114Y-76196584D01*
X166984172Y-76014132D01*
X167030229Y-75945204D01*
X167296246Y-75679187D01*
X167365172Y-75633132D01*
X167547624Y-75360074D01*
X167595520Y-75119283D01*
X167595520Y-75119279D01*
X167611691Y-75037981D01*
X167595520Y-74956683D01*
X167595520Y-74399811D01*
X167647451Y-74347880D01*
X167805020Y-73967474D01*
X167805020Y-73555726D01*
X167647451Y-73175320D01*
X167356300Y-72884169D01*
X166975894Y-72726600D01*
X166564146Y-72726600D01*
X166183740Y-72884169D01*
X165947735Y-73120174D01*
X165943740Y-73100091D01*
X165626577Y-72625423D01*
X165151909Y-72308260D01*
X164733333Y-72225000D01*
X164450667Y-72225000D01*
X164032091Y-72308260D01*
X163557423Y-72625423D01*
X163322000Y-72977758D01*
X163086577Y-72625423D01*
X162611909Y-72308260D01*
X162193333Y-72225000D01*
X161910667Y-72225000D01*
X161492091Y-72308260D01*
X161017423Y-72625423D01*
X160782000Y-72977758D01*
X160546577Y-72625423D01*
X160071909Y-72308260D01*
X159653333Y-72225000D01*
X159370667Y-72225000D01*
X158952091Y-72308260D01*
X158477423Y-72625423D01*
X158242000Y-72977758D01*
X158006577Y-72625423D01*
X157531909Y-72308260D01*
X157113333Y-72225000D01*
X156830667Y-72225000D01*
X156412091Y-72308260D01*
X155937423Y-72625423D01*
X155702000Y-72977758D01*
X155466577Y-72625423D01*
X154991909Y-72308260D01*
X154573333Y-72225000D01*
X154290667Y-72225000D01*
X153872091Y-72308260D01*
X153397423Y-72625423D01*
X153162000Y-72977758D01*
X152926577Y-72625423D01*
X152451909Y-72308260D01*
X152033333Y-72225000D01*
X151750667Y-72225000D01*
X151332091Y-72308260D01*
X150857423Y-72625423D01*
X150540260Y-73100091D01*
X150428887Y-73660000D01*
X148275113Y-73660000D01*
X148163740Y-73100091D01*
X148028707Y-72898000D01*
X148121445Y-72898000D01*
X148209000Y-72915416D01*
X148296555Y-72898000D01*
X148296556Y-72898000D01*
X148555870Y-72846419D01*
X148849933Y-72649933D01*
X148899531Y-72575704D01*
X149407529Y-72067706D01*
X149918706Y-71556530D01*
X149992933Y-71506933D01*
X150118859Y-71318471D01*
X150189419Y-71212871D01*
X150258416Y-70866000D01*
X150241000Y-70778444D01*
X150241000Y-67171848D01*
X150386577Y-67074577D01*
X150622000Y-66722242D01*
X150857423Y-67074577D01*
X151332091Y-67391740D01*
X151750667Y-67475000D01*
X152033333Y-67475000D01*
X152451909Y-67391740D01*
X152926577Y-67074577D01*
X153162000Y-66722242D01*
X153397423Y-67074577D01*
X153872091Y-67391740D01*
X154290667Y-67475000D01*
X154573333Y-67475000D01*
X154991909Y-67391740D01*
X155466577Y-67074577D01*
X155702000Y-66722242D01*
X155937423Y-67074577D01*
X156412091Y-67391740D01*
X156830667Y-67475000D01*
X157113333Y-67475000D01*
X157531909Y-67391740D01*
X158006577Y-67074577D01*
X158242000Y-66722242D01*
X158477423Y-67074577D01*
X158952091Y-67391740D01*
X159370667Y-67475000D01*
X159653333Y-67475000D01*
X160071909Y-67391740D01*
X160546577Y-67074577D01*
X160782000Y-66722242D01*
X161017423Y-67074577D01*
X161492091Y-67391740D01*
X161910667Y-67475000D01*
X162193333Y-67475000D01*
X162611909Y-67391740D01*
X163086577Y-67074577D01*
X163167215Y-66953894D01*
X163193843Y-67087765D01*
X163334191Y-67297809D01*
X163544235Y-67438157D01*
X163792000Y-67487440D01*
X165392000Y-67487440D01*
X165639765Y-67438157D01*
X165849809Y-67297809D01*
X165990157Y-67087765D01*
X166039440Y-66840000D01*
X166039440Y-65240000D01*
X166021737Y-65151000D01*
X170891650Y-65151000D01*
X171244126Y-65297000D01*
X171655874Y-65297000D01*
X171894500Y-65198158D01*
X171894501Y-82994500D01*
X166955211Y-82994500D01*
X166903280Y-82942569D01*
X166522874Y-82785000D01*
X166111126Y-82785000D01*
X165730720Y-82942569D01*
X165439569Y-83233720D01*
X165282000Y-83614126D01*
X165282000Y-84025874D01*
X165439569Y-84406280D01*
X165730720Y-84697431D01*
X166111126Y-84855000D01*
X166522874Y-84855000D01*
X166903280Y-84697431D01*
X166955211Y-84645500D01*
X172384699Y-84645500D01*
X172466000Y-84661672D01*
X172475511Y-84659780D01*
X172475511Y-85691056D01*
X172124067Y-86042500D01*
X172088211Y-86042500D01*
X172036280Y-85990569D01*
X171655874Y-85833000D01*
X171244126Y-85833000D01*
X170863720Y-85990569D01*
X170572569Y-86281720D01*
X170415000Y-86662126D01*
X170415000Y-87073874D01*
X170572569Y-87454280D01*
X170863720Y-87745431D01*
X171244126Y-87903000D01*
X171655874Y-87903000D01*
X172036280Y-87745431D01*
X172088211Y-87693500D01*
X172384699Y-87693500D01*
X172466000Y-87709672D01*
X172547301Y-87693500D01*
X172547303Y-87693500D01*
X172788094Y-87645604D01*
X173061152Y-87463152D01*
X173107209Y-87394224D01*
X173827241Y-86674192D01*
X173896162Y-86628141D01*
X173942213Y-86559221D01*
X173942216Y-86559218D01*
X174078613Y-86355085D01*
X174078613Y-86355084D01*
X174078614Y-86355083D01*
X174126510Y-86114292D01*
X174126510Y-86114289D01*
X174142681Y-86032991D01*
X174126510Y-85951693D01*
X174126509Y-76874299D01*
X174292126Y-76942900D01*
X174550000Y-76942900D01*
X174550001Y-101530074D01*
X174550000Y-104597418D01*
X174489910Y-105017009D01*
X174335619Y-105356352D01*
X174092288Y-105638752D01*
X173779479Y-105841506D01*
X173398815Y-105955348D01*
X173201649Y-105970000D01*
X157549925Y-105970000D01*
X157480000Y-105956091D01*
X157410074Y-105970000D01*
X157202972Y-106011195D01*
X156968119Y-106168119D01*
X156811195Y-106402972D01*
X156781500Y-106552260D01*
X156781500Y-103508211D01*
X156833431Y-103456280D01*
X156991000Y-103075874D01*
X156991000Y-102664126D01*
X156833431Y-102283720D01*
X156542280Y-101992569D01*
X156161874Y-101835000D01*
X155750126Y-101835000D01*
X155448000Y-101960144D01*
X155145874Y-101835000D01*
X154734126Y-101835000D01*
X154432000Y-101960144D01*
X154129874Y-101835000D01*
X153718126Y-101835000D01*
X153416000Y-101960144D01*
X153113874Y-101835000D01*
X152702126Y-101835000D01*
X152400000Y-101960144D01*
X152097874Y-101835000D01*
X151686126Y-101835000D01*
X151305720Y-101992569D01*
X151257000Y-102041289D01*
X151208280Y-101992569D01*
X150827874Y-101835000D01*
X150416126Y-101835000D01*
X150035720Y-101992569D01*
X149744569Y-102283720D01*
X149587000Y-102664126D01*
X149587000Y-103075874D01*
X149744569Y-103456280D01*
X149796501Y-103508212D01*
X149796500Y-125388067D01*
X149333776Y-125850792D01*
X149333773Y-125850794D01*
X148711567Y-126473000D01*
X148638126Y-126473000D01*
X148257720Y-126630569D01*
X147966569Y-126921720D01*
X147809000Y-127302126D01*
X147809000Y-127713874D01*
X147966569Y-128094280D01*
X148078789Y-128206500D01*
X121753933Y-128206500D01*
X121475500Y-127928068D01*
X121475500Y-126877328D01*
X121832624Y-126520204D01*
X121920000Y-126309260D01*
X122007376Y-126520204D01*
X122399796Y-126912624D01*
X122912517Y-127125000D01*
X123467483Y-127125000D01*
X123980204Y-126912624D01*
X124372624Y-126520204D01*
X124460000Y-126309260D01*
X124547376Y-126520204D01*
X124939796Y-126912624D01*
X125452517Y-127125000D01*
X126007483Y-127125000D01*
X126520204Y-126912624D01*
X126912624Y-126520204D01*
X127000000Y-126309260D01*
X127087376Y-126520204D01*
X127479796Y-126912624D01*
X127992517Y-127125000D01*
X128547483Y-127125000D01*
X129060204Y-126912624D01*
X129452624Y-126520204D01*
X129540000Y-126309260D01*
X129627376Y-126520204D01*
X130019796Y-126912624D01*
X130532517Y-127125000D01*
X131087483Y-127125000D01*
X131600204Y-126912624D01*
X131992624Y-126520204D01*
X132080000Y-126309260D01*
X132167376Y-126520204D01*
X132559796Y-126912624D01*
X133072517Y-127125000D01*
X133627483Y-127125000D01*
X134140204Y-126912624D01*
X134532624Y-126520204D01*
X134620000Y-126309260D01*
X134707376Y-126520204D01*
X135099796Y-126912624D01*
X135612517Y-127125000D01*
X136167483Y-127125000D01*
X136680204Y-126912624D01*
X137072624Y-126520204D01*
X137160000Y-126309260D01*
X137247376Y-126520204D01*
X137639796Y-126912624D01*
X138152517Y-127125000D01*
X138707483Y-127125000D01*
X139220204Y-126912624D01*
X139612624Y-126520204D01*
X139825000Y-126007483D01*
X139825000Y-125452517D01*
X139612624Y-124939796D01*
X139220204Y-124547376D01*
X139009260Y-124460000D01*
X139220204Y-124372624D01*
X139612624Y-123980204D01*
X139825000Y-123467483D01*
X139825000Y-122912517D01*
X139612624Y-122399796D01*
X139220204Y-122007376D01*
X138707483Y-121795000D01*
X138152517Y-121795000D01*
X137639796Y-122007376D01*
X137247376Y-122399796D01*
X137160000Y-122610740D01*
X137072624Y-122399796D01*
X136680204Y-122007376D01*
X136167483Y-121795000D01*
X135612517Y-121795000D01*
X135099796Y-122007376D01*
X134937500Y-122169672D01*
X134937500Y-119213932D01*
X135260433Y-118891000D01*
X135333874Y-118891000D01*
X135714280Y-118733431D01*
X136005431Y-118442280D01*
X136163000Y-118061874D01*
X136163000Y-117650126D01*
X136005431Y-117269720D01*
X135714280Y-116978569D01*
X135333874Y-116821000D01*
X134922126Y-116821000D01*
X134541720Y-116978569D01*
X134353300Y-117166989D01*
X134353300Y-107318211D01*
X134405231Y-107266280D01*
X134562800Y-106885874D01*
X134562800Y-106474126D01*
X134405231Y-106093720D01*
X134114080Y-105802569D01*
X133733674Y-105645000D01*
X133337300Y-105645000D01*
X133337300Y-105497932D01*
X135609633Y-103225600D01*
X139783799Y-103225600D01*
X139865100Y-103241772D01*
X139946401Y-103225600D01*
X139946403Y-103225600D01*
X140187194Y-103177704D01*
X140460252Y-102995252D01*
X140506308Y-102926324D01*
X141158228Y-102274406D01*
X141227152Y-102228352D01*
X141409604Y-101955294D01*
X141457500Y-101714503D01*
X141457500Y-101714499D01*
X141473671Y-101633201D01*
X141457500Y-101551903D01*
X141457500Y-95296211D01*
X141509431Y-95244280D01*
X141667000Y-94863874D01*
X141667000Y-94452126D01*
X141509431Y-94071720D01*
X141218280Y-93780569D01*
X140837874Y-93623000D01*
X140426126Y-93623000D01*
X140045720Y-93780569D01*
X139754569Y-94071720D01*
X139597000Y-94452126D01*
X139597000Y-94863874D01*
X139754569Y-95244280D01*
X139806500Y-95296211D01*
X139806501Y-101291266D01*
X139523167Y-101574600D01*
X135348997Y-101574600D01*
X135267699Y-101558429D01*
X135186401Y-101574600D01*
X135186397Y-101574600D01*
X134945606Y-101622496D01*
X134672548Y-101804948D01*
X134626493Y-101873874D01*
X131985577Y-104514791D01*
X131916648Y-104560848D01*
X131734196Y-104833907D01*
X131686300Y-105074697D01*
X131670128Y-105156000D01*
X131686300Y-105237302D01*
X131686300Y-108120643D01*
X131347337Y-107781680D01*
X130833881Y-107569000D01*
X130278119Y-107569000D01*
X129764663Y-107781680D01*
X129371680Y-108174663D01*
X129159000Y-108688119D01*
X129159000Y-109243881D01*
X129371680Y-109757337D01*
X129764663Y-110150320D01*
X130278119Y-110363000D01*
X130833881Y-110363000D01*
X131347337Y-110150320D01*
X131686301Y-109811356D01*
X131686301Y-111748266D01*
X130785568Y-112649000D01*
X130278119Y-112649000D01*
X129764663Y-112861680D01*
X129371680Y-113254663D01*
X129159000Y-113768119D01*
X129159000Y-114323881D01*
X129371680Y-114837337D01*
X129764663Y-115230320D01*
X130278119Y-115443000D01*
X130833881Y-115443000D01*
X131347337Y-115230320D01*
X131740320Y-114837337D01*
X131953000Y-114323881D01*
X131953000Y-113816432D01*
X132702300Y-113067132D01*
X132702301Y-120133366D01*
X132176168Y-120659500D01*
X132102726Y-120659500D01*
X131722320Y-120817069D01*
X131431169Y-121108220D01*
X131273600Y-121488626D01*
X131273600Y-121872092D01*
X131087483Y-121795000D01*
X130532517Y-121795000D01*
X130019796Y-122007376D01*
X129627376Y-122399796D01*
X129540000Y-122610740D01*
X129452624Y-122399796D01*
X129060204Y-122007376D01*
X128547483Y-121795000D01*
X127992517Y-121795000D01*
X127479796Y-122007376D01*
X127087376Y-122399796D01*
X127000000Y-122610740D01*
X126912624Y-122399796D01*
X126520204Y-122007376D01*
X126007483Y-121795000D01*
X125452517Y-121795000D01*
X124939796Y-122007376D01*
X124547376Y-122399796D01*
X124460000Y-122610740D01*
X124372624Y-122399796D01*
X123980204Y-122007376D01*
X123467483Y-121795000D01*
X122912517Y-121795000D01*
X122399796Y-122007376D01*
X122007376Y-122399796D01*
X121920000Y-122610740D01*
X121832624Y-122399796D01*
X121440204Y-122007376D01*
X120927483Y-121795000D01*
X120372517Y-121795000D01*
X119859796Y-122007376D01*
X119467376Y-122399796D01*
X119255000Y-122912517D01*
X119255000Y-123467483D01*
X119467376Y-123980204D01*
X119859796Y-124372624D01*
X120070740Y-124460000D01*
X119859796Y-124547376D01*
X119467376Y-124939796D01*
X119380000Y-125150740D01*
X119292624Y-124939796D01*
X118900204Y-124547376D01*
X118387483Y-124335000D01*
X117832517Y-124335000D01*
X117319796Y-124547376D01*
X116927376Y-124939796D01*
X116840000Y-125150740D01*
X116752624Y-124939796D01*
X116360204Y-124547376D01*
X116149260Y-124460000D01*
X116360204Y-124372624D01*
X116752624Y-123980204D01*
X116965000Y-123467483D01*
X116965000Y-122912517D01*
X116752624Y-122399796D01*
X116360204Y-122007376D01*
X115847483Y-121795000D01*
X115292517Y-121795000D01*
X115010000Y-121912022D01*
X115010000Y-96523453D01*
X116738400Y-96523453D01*
X116738400Y-97786547D01*
X117221765Y-98953493D01*
X118114907Y-99846635D01*
X119281853Y-100330000D01*
X120544947Y-100330000D01*
X121711893Y-99846635D01*
X122605035Y-98953493D01*
X123088400Y-97786547D01*
X123088400Y-96523453D01*
X122605035Y-95356507D01*
X121711893Y-94463365D01*
X120544947Y-93980000D01*
X119281853Y-93980000D01*
X118114907Y-94463365D01*
X117221765Y-95356507D01*
X116738400Y-96523453D01*
X115010000Y-96523453D01*
X115010000Y-83827978D01*
X115292517Y-83945000D01*
X115847483Y-83945000D01*
X116360204Y-83732624D01*
X116752624Y-83340204D01*
X116840000Y-83129260D01*
X116927376Y-83340204D01*
X117319796Y-83732624D01*
X117832517Y-83945000D01*
X118387483Y-83945000D01*
X118900204Y-83732624D01*
X119292624Y-83340204D01*
X119380000Y-83129260D01*
X119467376Y-83340204D01*
X119859796Y-83732624D01*
X120372517Y-83945000D01*
X120927483Y-83945000D01*
X121440204Y-83732624D01*
X121832624Y-83340204D01*
X121920000Y-83129260D01*
X122007376Y-83340204D01*
X122399796Y-83732624D01*
X122912517Y-83945000D01*
X123467483Y-83945000D01*
X123980204Y-83732624D01*
X124372624Y-83340204D01*
X124460000Y-83129260D01*
X124547376Y-83340204D01*
X124939796Y-83732624D01*
X125452517Y-83945000D01*
X126007483Y-83945000D01*
X126520204Y-83732624D01*
X126912624Y-83340204D01*
X127000000Y-83129260D01*
X127087376Y-83340204D01*
X127479796Y-83732624D01*
X127992517Y-83945000D01*
X128547483Y-83945000D01*
X129060204Y-83732624D01*
X129452624Y-83340204D01*
X129540000Y-83129260D01*
X129627376Y-83340204D01*
X130019796Y-83732624D01*
X130532517Y-83945000D01*
X131087483Y-83945000D01*
X131600204Y-83732624D01*
X131992624Y-83340204D01*
X132080000Y-83129260D01*
X132167376Y-83340204D01*
X132559796Y-83732624D01*
X133072517Y-83945000D01*
X133627483Y-83945000D01*
X134140204Y-83732624D01*
X134532624Y-83340204D01*
X134620000Y-83129260D01*
X134707376Y-83340204D01*
X135099796Y-83732624D01*
X135612517Y-83945000D01*
X136167483Y-83945000D01*
X136680204Y-83732624D01*
X137072624Y-83340204D01*
X137160000Y-83129260D01*
X137247376Y-83340204D01*
X137639796Y-83732624D01*
X138152517Y-83945000D01*
X138707483Y-83945000D01*
X139220204Y-83732624D01*
X139612624Y-83340204D01*
X139825000Y-82827483D01*
X139825000Y-82272517D01*
X139612624Y-81759796D01*
X139220204Y-81367376D01*
X139009260Y-81280000D01*
X139220204Y-81192624D01*
X139612624Y-80800204D01*
X139825000Y-80287483D01*
X139825000Y-79732517D01*
X139612624Y-79219796D01*
X139220204Y-78827376D01*
X138707483Y-78615000D01*
X138152517Y-78615000D01*
X137639796Y-78827376D01*
X137247376Y-79219796D01*
X137160000Y-79430740D01*
X137072624Y-79219796D01*
X136680204Y-78827376D01*
X136167483Y-78615000D01*
X135612517Y-78615000D01*
X135099796Y-78827376D01*
X134707376Y-79219796D01*
X134620000Y-79430740D01*
X134532624Y-79219796D01*
X134140204Y-78827376D01*
X133627483Y-78615000D01*
X133072517Y-78615000D01*
X132559796Y-78827376D01*
X132167376Y-79219796D01*
X132080000Y-79430740D01*
X131992624Y-79219796D01*
X131600204Y-78827376D01*
X131087483Y-78615000D01*
X130532517Y-78615000D01*
X130019796Y-78827376D01*
X129627376Y-79219796D01*
X129540000Y-79430740D01*
X129452624Y-79219796D01*
X129060204Y-78827376D01*
X128547483Y-78615000D01*
X127992517Y-78615000D01*
X127479796Y-78827376D01*
X127087376Y-79219796D01*
X127000000Y-79430740D01*
X126912624Y-79219796D01*
X126520204Y-78827376D01*
X126007483Y-78615000D01*
X125452517Y-78615000D01*
X124939796Y-78827376D01*
X124547376Y-79219796D01*
X124460000Y-79430740D01*
X124372624Y-79219796D01*
X123980204Y-78827376D01*
X123467483Y-78615000D01*
X122912517Y-78615000D01*
X122399796Y-78827376D01*
X122007376Y-79219796D01*
X121920000Y-79430740D01*
X121832624Y-79219796D01*
X121440204Y-78827376D01*
X120927483Y-78615000D01*
X120372517Y-78615000D01*
X119859796Y-78827376D01*
X119467376Y-79219796D01*
X119380000Y-79430740D01*
X119292624Y-79219796D01*
X118900204Y-78827376D01*
X118387483Y-78615000D01*
X117832517Y-78615000D01*
X117319796Y-78827376D01*
X116927376Y-79219796D01*
X116715000Y-79732517D01*
X116715000Y-80287483D01*
X116927376Y-80800204D01*
X117319796Y-81192624D01*
X117530740Y-81280000D01*
X117319796Y-81367376D01*
X116927376Y-81759796D01*
X116840000Y-81970740D01*
X116752624Y-81759796D01*
X116360204Y-81367376D01*
X115847483Y-81155000D01*
X115292517Y-81155000D01*
X115010000Y-81272022D01*
X115010000Y-72801914D01*
X116604000Y-72801914D01*
X116604000Y-73502086D01*
X116871944Y-74148960D01*
X117367040Y-74644056D01*
X118013914Y-74912000D01*
X118714086Y-74912000D01*
X119360960Y-74644056D01*
X119856056Y-74148960D01*
X120124000Y-73502086D01*
X120124000Y-72801914D01*
X119856056Y-72155040D01*
X119360960Y-71659944D01*
X118714086Y-71392000D01*
X118013914Y-71392000D01*
X117367040Y-71659944D01*
X116871944Y-72155040D01*
X116604000Y-72801914D01*
X115010000Y-72801914D01*
X115010000Y-66040000D01*
X130108887Y-66040000D01*
X130220260Y-66599909D01*
X130537423Y-67074577D01*
X131012091Y-67391740D01*
X131430667Y-67475000D01*
X131713333Y-67475000D01*
X132131909Y-67391740D01*
X132606577Y-67074577D01*
X132842000Y-66722242D01*
X133077423Y-67074577D01*
X133552091Y-67391740D01*
X133970667Y-67475000D01*
X134253333Y-67475000D01*
X134671909Y-67391740D01*
X135146577Y-67074577D01*
X135382000Y-66722242D01*
X135617423Y-67074577D01*
X136092091Y-67391740D01*
X136510667Y-67475000D01*
X136793333Y-67475000D01*
X137211909Y-67391740D01*
X137686577Y-67074577D01*
X137922000Y-66722242D01*
X138157423Y-67074577D01*
X138632091Y-67391740D01*
X139050667Y-67475000D01*
X139333333Y-67475000D01*
X139751909Y-67391740D01*
X140226577Y-67074577D01*
X140462000Y-66722242D01*
X140697423Y-67074577D01*
X141172091Y-67391740D01*
X141590667Y-67475000D01*
X141873333Y-67475000D01*
X142291909Y-67391740D01*
X142766577Y-67074577D01*
X143002000Y-66722242D01*
X143237423Y-67074577D01*
X143712091Y-67391740D01*
X144130667Y-67475000D01*
X144413333Y-67475000D01*
X144831909Y-67391740D01*
X145306577Y-67074577D01*
X145623740Y-66599909D01*
X145735113Y-66040000D01*
X145623740Y-65480091D01*
X145306577Y-65005423D01*
X144831909Y-64688260D01*
X144413333Y-64605000D01*
X144130667Y-64605000D01*
X143712091Y-64688260D01*
X143237423Y-65005423D01*
X143002000Y-65357758D01*
X142766577Y-65005423D01*
X142291909Y-64688260D01*
X141873333Y-64605000D01*
X141590667Y-64605000D01*
X141172091Y-64688260D01*
X140697423Y-65005423D01*
X140462000Y-65357758D01*
X140226577Y-65005423D01*
X139751909Y-64688260D01*
X139333333Y-64605000D01*
X139050667Y-64605000D01*
X138632091Y-64688260D01*
X138157423Y-65005423D01*
X137922000Y-65357758D01*
X137686577Y-65005423D01*
X137211909Y-64688260D01*
X136793333Y-64605000D01*
X136510667Y-64605000D01*
X136092091Y-64688260D01*
X135617423Y-65005423D01*
X135382000Y-65357758D01*
X135146577Y-65005423D01*
X134671909Y-64688260D01*
X134253333Y-64605000D01*
X133970667Y-64605000D01*
X133552091Y-64688260D01*
X133077423Y-65005423D01*
X132842000Y-65357758D01*
X132606577Y-65005423D01*
X132131909Y-64688260D01*
X131713333Y-64605000D01*
X131430667Y-64605000D01*
X131012091Y-64688260D01*
X130537423Y-65005423D01*
X130220260Y-65480091D01*
X130108887Y-66040000D01*
X115010000Y-66040000D01*
X115010000Y-39305126D01*
X117978000Y-39305126D01*
X117978000Y-39716874D01*
X118135569Y-40097280D01*
X118426720Y-40388431D01*
X118807126Y-40546000D01*
X119218874Y-40546000D01*
X119599280Y-40388431D01*
X119651211Y-40336500D01*
X129155789Y-40336500D01*
X129207720Y-40388431D01*
X129588126Y-40546000D01*
X129999874Y-40546000D01*
X130380280Y-40388431D01*
X130671431Y-40097280D01*
X130829000Y-39716874D01*
X130829000Y-39305126D01*
X130671431Y-38924720D01*
X130380280Y-38633569D01*
X129999874Y-38476000D01*
X129588126Y-38476000D01*
X129207720Y-38633569D01*
X129155789Y-38685500D01*
X119651211Y-38685500D01*
X119599280Y-38633569D01*
X119218874Y-38476000D01*
X118807126Y-38476000D01*
X118426720Y-38633569D01*
X118135569Y-38924720D01*
X117978000Y-39305126D01*
X115010000Y-39305126D01*
X115010000Y-29756567D01*
X133530000Y-29756567D01*
X133530000Y-30695433D01*
X133889289Y-31562833D01*
X134553167Y-32226711D01*
X135420567Y-32586000D01*
X136359433Y-32586000D01*
X137226833Y-32226711D01*
X137890711Y-31562833D01*
X138250000Y-30695433D01*
X138250000Y-29756567D01*
X141150000Y-29756567D01*
X141150000Y-30695433D01*
X141509289Y-31562833D01*
X142173167Y-32226711D01*
X143040567Y-32586000D01*
X143979433Y-32586000D01*
X144846833Y-32226711D01*
X145510711Y-31562833D01*
X145548139Y-31472473D01*
X145596089Y-31588233D01*
X146259967Y-32252111D01*
X147127367Y-32611400D01*
X148066233Y-32611400D01*
X148933633Y-32252111D01*
X149597511Y-31588233D01*
X149956800Y-30720833D01*
X149956800Y-29781967D01*
X155396800Y-29781967D01*
X155396800Y-30720833D01*
X155756089Y-31588233D01*
X156419967Y-32252111D01*
X157287367Y-32611400D01*
X158226233Y-32611400D01*
X159093633Y-32252111D01*
X159757511Y-31588233D01*
X159909661Y-31220912D01*
X160051289Y-31562833D01*
X160715167Y-32226711D01*
X161582567Y-32586000D01*
X162521433Y-32586000D01*
X163388833Y-32226711D01*
X164052711Y-31562833D01*
X164412000Y-30695433D01*
X164412000Y-29756567D01*
X164052711Y-28889167D01*
X163388833Y-28225289D01*
X162521433Y-27866000D01*
X161582567Y-27866000D01*
X160715167Y-28225289D01*
X160051289Y-28889167D01*
X159899139Y-29256488D01*
X159757511Y-28914567D01*
X159093633Y-28250689D01*
X158226233Y-27891400D01*
X157287367Y-27891400D01*
X156419967Y-28250689D01*
X155756089Y-28914567D01*
X155396800Y-29781967D01*
X149956800Y-29781967D01*
X149597511Y-28914567D01*
X148933633Y-28250689D01*
X148066233Y-27891400D01*
X147127367Y-27891400D01*
X146259967Y-28250689D01*
X145596089Y-28914567D01*
X145558661Y-29004927D01*
X145510711Y-28889167D01*
X144846833Y-28225289D01*
X143979433Y-27866000D01*
X143040567Y-27866000D01*
X142173167Y-28225289D01*
X141509289Y-28889167D01*
X141150000Y-29756567D01*
X138250000Y-29756567D01*
X137890711Y-28889167D01*
X137226833Y-28225289D01*
X136359433Y-27866000D01*
X135420567Y-27866000D01*
X134553167Y-28225289D01*
X133889289Y-28889167D01*
X133530000Y-29756567D01*
X115010000Y-29756567D01*
X115010000Y-26732119D01*
X115054065Y-26482213D01*
X115149405Y-26317080D01*
X115295477Y-26194512D01*
X115504465Y-26118445D01*
X115600996Y-26110000D01*
X173927881Y-26110000D01*
X174177787Y-26154065D01*
X174177787Y-26154065D01*
G37*
X174177787Y-26154065D02*
X174342920Y-26249405D01*
X174465488Y-26395477D01*
X174541555Y-26604465D01*
X174550000Y-26700996D01*
X174550000Y-29703455D01*
X174212711Y-28889167D01*
X173548833Y-28225289D01*
X172681433Y-27866000D01*
X171742567Y-27866000D01*
X170875167Y-28225289D01*
X170211289Y-28889167D01*
X169852000Y-29756567D01*
X169852000Y-30695433D01*
X170211289Y-31562833D01*
X170875167Y-32226711D01*
X171742567Y-32586000D01*
X172681433Y-32586000D01*
X173548833Y-32226711D01*
X174212711Y-31562833D01*
X174550000Y-30748545D01*
X174550000Y-35714568D01*
X173361209Y-34525777D01*
X173315152Y-34456848D01*
X173042094Y-34274396D01*
X172801303Y-34226500D01*
X172801301Y-34226500D01*
X172720000Y-34210328D01*
X172638699Y-34226500D01*
X141051297Y-34226500D01*
X140969999Y-34210329D01*
X140888701Y-34226500D01*
X140888697Y-34226500D01*
X140647906Y-34274396D01*
X140374848Y-34456848D01*
X140328793Y-34525774D01*
X139173775Y-35680793D01*
X139104849Y-35726848D01*
X139058794Y-35795774D01*
X138922397Y-35999906D01*
X138858328Y-36322000D01*
X138874501Y-36403306D01*
X138874500Y-37711843D01*
X138515680Y-38070663D01*
X138430000Y-38277513D01*
X138344320Y-38070663D01*
X137951337Y-37677680D01*
X137437881Y-37465000D01*
X136882119Y-37465000D01*
X136368663Y-37677680D01*
X135975680Y-38070663D01*
X135763000Y-38584119D01*
X135763000Y-39139881D01*
X135975680Y-39653337D01*
X136334501Y-40012158D01*
X136334500Y-60702789D01*
X136282569Y-60754720D01*
X136125000Y-61135126D01*
X136125000Y-61546874D01*
X136282569Y-61927280D01*
X136573720Y-62218431D01*
X136954126Y-62376000D01*
X137365874Y-62376000D01*
X137746280Y-62218431D01*
X138037431Y-61927280D01*
X138195000Y-61546874D01*
X138195000Y-61135126D01*
X138037431Y-60754720D01*
X137985500Y-60702789D01*
X137985500Y-57128506D01*
X140293000Y-57128506D01*
X140293000Y-57679494D01*
X140503853Y-58188540D01*
X140893460Y-58578147D01*
X141402506Y-58789000D01*
X141953494Y-58789000D01*
X142462540Y-58578147D01*
X142852147Y-58188540D01*
X143063000Y-57679494D01*
X143063000Y-57128506D01*
X145173000Y-57128506D01*
X145173000Y-57679494D01*
X145383853Y-58188540D01*
X145773460Y-58578147D01*
X146282506Y-58789000D01*
X146833494Y-58789000D01*
X147342540Y-58578147D01*
X147732147Y-58188540D01*
X147943000Y-57679494D01*
X147943000Y-57128506D01*
X147732147Y-56619460D01*
X147342540Y-56229853D01*
X146833494Y-56019000D01*
X146282506Y-56019000D01*
X145773460Y-56229853D01*
X145383853Y-56619460D01*
X145173000Y-57128506D01*
X143063000Y-57128506D01*
X142852147Y-56619460D01*
X142462540Y-56229853D01*
X141953494Y-56019000D01*
X141402506Y-56019000D01*
X140893460Y-56229853D01*
X140503853Y-56619460D01*
X140293000Y-57128506D01*
X137985500Y-57128506D01*
X137985500Y-40012157D01*
X138344320Y-39653337D01*
X138430000Y-39446487D01*
X138515680Y-39653337D01*
X138908663Y-40046320D01*
X139422119Y-40259000D01*
X139977881Y-40259000D01*
X140491337Y-40046320D01*
X140884320Y-39653337D01*
X141097000Y-39139881D01*
X141097000Y-38609519D01*
X150009800Y-38609519D01*
X150009800Y-39165281D01*
X150222480Y-39678737D01*
X150615463Y-40071720D01*
X151128919Y-40284400D01*
X151684681Y-40284400D01*
X152198137Y-40071720D01*
X152591120Y-39678737D01*
X152676800Y-39471887D01*
X152762480Y-39678737D01*
X153155463Y-40071720D01*
X153668919Y-40284400D01*
X154224681Y-40284400D01*
X154738137Y-40071720D01*
X155131120Y-39678737D01*
X155216800Y-39471887D01*
X155302480Y-39678737D01*
X155695463Y-40071720D01*
X156208919Y-40284400D01*
X156764681Y-40284400D01*
X157278137Y-40071720D01*
X157671120Y-39678737D01*
X157883800Y-39165281D01*
X157883800Y-38609519D01*
X157671120Y-38096063D01*
X157278137Y-37703080D01*
X156764681Y-37490400D01*
X156208919Y-37490400D01*
X155695463Y-37703080D01*
X155302480Y-38096063D01*
X155216800Y-38302913D01*
X155131120Y-38096063D01*
X154738137Y-37703080D01*
X154224681Y-37490400D01*
X153668919Y-37490400D01*
X153155463Y-37703080D01*
X152762480Y-38096063D01*
X152676800Y-38302913D01*
X152591120Y-38096063D01*
X152198137Y-37703080D01*
X151684681Y-37490400D01*
X151128919Y-37490400D01*
X150615463Y-37703080D01*
X150222480Y-38096063D01*
X150009800Y-38609519D01*
X141097000Y-38609519D01*
X141097000Y-38584119D01*
X140884320Y-38070663D01*
X140525500Y-37711843D01*
X140525500Y-36663932D01*
X141311933Y-35877500D01*
X172378068Y-35877500D01*
X172476830Y-35976262D01*
X172299556Y-35941000D01*
X172299555Y-35941000D01*
X172212000Y-35923584D01*
X172124445Y-35941000D01*
X164171555Y-35941000D01*
X164084000Y-35923584D01*
X163996445Y-35941000D01*
X163996444Y-35941000D01*
X163737130Y-35992581D01*
X163443067Y-36189067D01*
X163393471Y-36263294D01*
X162755296Y-36901469D01*
X162681067Y-36951067D01*
X162484581Y-37245131D01*
X162440846Y-37465000D01*
X162415584Y-37592000D01*
X162433000Y-37679555D01*
X162433000Y-37775343D01*
X162137680Y-38070663D01*
X161925000Y-38584119D01*
X161925000Y-39139881D01*
X162137680Y-39653337D01*
X162530663Y-40046320D01*
X163044119Y-40259000D01*
X163599881Y-40259000D01*
X164113337Y-40046320D01*
X164506320Y-39653337D01*
X164592000Y-39446487D01*
X164677680Y-39653337D01*
X165070663Y-40046320D01*
X165584119Y-40259000D01*
X166139881Y-40259000D01*
X166653337Y-40046320D01*
X167046320Y-39653337D01*
X167132000Y-39446487D01*
X167217680Y-39653337D01*
X167610663Y-40046320D01*
X168124119Y-40259000D01*
X168679881Y-40259000D01*
X169193337Y-40046320D01*
X169586320Y-39653337D01*
X169799000Y-39139881D01*
X169799000Y-38584119D01*
X169586320Y-38070663D01*
X169234657Y-37719000D01*
X171843765Y-37719000D01*
X172847001Y-38722237D01*
X172847000Y-40513000D01*
X171881350Y-40513000D01*
X171528874Y-40367000D01*
X171117126Y-40367000D01*
X170736720Y-40524569D01*
X170445569Y-40815720D01*
X170288000Y-41196126D01*
X170288000Y-41607874D01*
X170445569Y-41988280D01*
X170736720Y-42279431D01*
X171117126Y-42437000D01*
X171528874Y-42437000D01*
X171881350Y-42291000D01*
X172605765Y-42291000D01*
X172847000Y-42532236D01*
X172847001Y-47066560D01*
X171372000Y-47066560D01*
X171124235Y-47115843D01*
X170914191Y-47256191D01*
X170773843Y-47466235D01*
X170724560Y-47714000D01*
X170724560Y-49314000D01*
X170773843Y-49561765D01*
X170914191Y-49771809D01*
X171124235Y-49912157D01*
X171372000Y-49961440D01*
X172972000Y-49961440D01*
X173219765Y-49912157D01*
X173429809Y-49771809D01*
X173570157Y-49561765D01*
X173603063Y-49396335D01*
X173672500Y-49382523D01*
X173672501Y-59116886D01*
X172449391Y-57893777D01*
X172403334Y-57824848D01*
X172130276Y-57642396D01*
X171889485Y-57594500D01*
X171889483Y-57594500D01*
X171808182Y-57578328D01*
X171726881Y-57594500D01*
X156944763Y-57594500D01*
X156833431Y-57325720D01*
X156542280Y-57034569D01*
X156161874Y-56877000D01*
X155750126Y-56877000D01*
X155369720Y-57034569D01*
X155161575Y-57242714D01*
X154891874Y-57131000D01*
X154480126Y-57131000D01*
X154099720Y-57288569D01*
X153808569Y-57579720D01*
X153651000Y-57960126D01*
X153651000Y-58371874D01*
X153808569Y-58752280D01*
X153858321Y-58802032D01*
X153860500Y-58812986D01*
X153860500Y-58812988D01*
X153908396Y-59053779D01*
X154090849Y-59326837D01*
X154159775Y-59372892D01*
X154387105Y-59600222D01*
X154433162Y-59669151D01*
X154706220Y-59851603D01*
X154947011Y-59899499D01*
X154947015Y-59899499D01*
X155028313Y-59915670D01*
X155109611Y-59899499D01*
X156520585Y-59899499D01*
X156385220Y-59955569D01*
X156094069Y-60246720D01*
X155936500Y-60627126D01*
X155936500Y-61038874D01*
X156094069Y-61419280D01*
X156385220Y-61710431D01*
X156765626Y-61868000D01*
X156835985Y-61868000D01*
X156846783Y-61875215D01*
X156902291Y-61930723D01*
X156948348Y-61999652D01*
X157221406Y-62182104D01*
X157462197Y-62230000D01*
X157462198Y-62230000D01*
X157543499Y-62246172D01*
X157624801Y-62230000D01*
X161985289Y-62230000D01*
X162037220Y-62281931D01*
X162417626Y-62439500D01*
X162829374Y-62439500D01*
X163209780Y-62281931D01*
X163500931Y-61990780D01*
X163658500Y-61610374D01*
X163658500Y-61198626D01*
X163500931Y-60818220D01*
X163209780Y-60527069D01*
X162829374Y-60369500D01*
X162417626Y-60369500D01*
X162037220Y-60527069D01*
X161985289Y-60579000D01*
X157986566Y-60579000D01*
X157848931Y-60246720D01*
X157557780Y-59955569D01*
X157422415Y-59899499D01*
X171298577Y-59899499D01*
X171894500Y-60495423D01*
X171894500Y-63325842D01*
X171655874Y-63227000D01*
X171244126Y-63227000D01*
X170891650Y-63373000D01*
X150086185Y-63373000D01*
X149998630Y-63355584D01*
X149911075Y-63373000D01*
X149911074Y-63373000D01*
X149651760Y-63424581D01*
X149357697Y-63621067D01*
X149308100Y-63695294D01*
X148785294Y-64218101D01*
X148711068Y-64267697D01*
X148661472Y-64341923D01*
X148661471Y-64341924D01*
X148514582Y-64561760D01*
X148445584Y-64908630D01*
X148447543Y-64918479D01*
X148317423Y-65005423D01*
X148000260Y-65480091D01*
X147888887Y-66040000D01*
X148000260Y-66599909D01*
X148317423Y-67074577D01*
X148463000Y-67171849D01*
X148463001Y-70497764D01*
X147840765Y-71120000D01*
X144740550Y-71120000D01*
X144652999Y-71102585D01*
X144565448Y-71120000D01*
X144565444Y-71120000D01*
X144306130Y-71171581D01*
X144012067Y-71368067D01*
X143962469Y-71442296D01*
X143705296Y-71699469D01*
X143631067Y-71749067D01*
X143434581Y-72043131D01*
X143405063Y-72191529D01*
X143365584Y-72390000D01*
X143383000Y-72477555D01*
X143383000Y-72528151D01*
X143237423Y-72625423D01*
X143002000Y-72977758D01*
X142766577Y-72625423D01*
X142291909Y-72308260D01*
X141873333Y-72225000D01*
X141590667Y-72225000D01*
X141172091Y-72308260D01*
X140697423Y-72625423D01*
X140462000Y-72977758D01*
X140226577Y-72625423D01*
X139751909Y-72308260D01*
X139333333Y-72225000D01*
X139050667Y-72225000D01*
X138632091Y-72308260D01*
X138157423Y-72625423D01*
X137922000Y-72977758D01*
X137686577Y-72625423D01*
X137211909Y-72308260D01*
X136793333Y-72225000D01*
X136510667Y-72225000D01*
X136092091Y-72308260D01*
X135617423Y-72625423D01*
X135382000Y-72977758D01*
X135146577Y-72625423D01*
X134671909Y-72308260D01*
X134253333Y-72225000D01*
X133970667Y-72225000D01*
X133552091Y-72308260D01*
X133077423Y-72625423D01*
X132842000Y-72977758D01*
X132606577Y-72625423D01*
X132131909Y-72308260D01*
X131713333Y-72225000D01*
X131430667Y-72225000D01*
X131012091Y-72308260D01*
X130537423Y-72625423D01*
X130220260Y-73100091D01*
X130108887Y-73660000D01*
X130220260Y-74219909D01*
X130537423Y-74694577D01*
X131012091Y-75011740D01*
X131430667Y-75095000D01*
X131713333Y-75095000D01*
X132131909Y-75011740D01*
X132606577Y-74694577D01*
X132842000Y-74342242D01*
X133077423Y-74694577D01*
X133552091Y-75011740D01*
X133970667Y-75095000D01*
X134253333Y-75095000D01*
X134671909Y-75011740D01*
X135146577Y-74694577D01*
X135382000Y-74342242D01*
X135617423Y-74694577D01*
X136092091Y-75011740D01*
X136510667Y-75095000D01*
X136793333Y-75095000D01*
X137211909Y-75011740D01*
X137686577Y-74694577D01*
X137922000Y-74342242D01*
X138157423Y-74694577D01*
X138632091Y-75011740D01*
X139050667Y-75095000D01*
X139333333Y-75095000D01*
X139751909Y-75011740D01*
X140226577Y-74694577D01*
X140462000Y-74342242D01*
X140697423Y-74694577D01*
X141172091Y-75011740D01*
X141590667Y-75095000D01*
X141873333Y-75095000D01*
X142291909Y-75011740D01*
X142766577Y-74694577D01*
X143002000Y-74342242D01*
X143237423Y-74694577D01*
X143383000Y-74791849D01*
X143383001Y-84889540D01*
X143207874Y-84817000D01*
X142796126Y-84817000D01*
X142443650Y-84963000D01*
X131151550Y-84963000D01*
X131063999Y-84945585D01*
X130976448Y-84963000D01*
X130976444Y-84963000D01*
X130717130Y-85014581D01*
X130423067Y-85211067D01*
X130373471Y-85285293D01*
X128973294Y-86685471D01*
X128899068Y-86735067D01*
X128849472Y-86809293D01*
X128849471Y-86809294D01*
X128702582Y-87029130D01*
X128633584Y-87376000D01*
X128651001Y-87463559D01*
X128651000Y-98735343D01*
X128355680Y-99030663D01*
X128143000Y-99544119D01*
X128143000Y-100099881D01*
X128355680Y-100613337D01*
X128748663Y-101006320D01*
X129262119Y-101219000D01*
X129817881Y-101219000D01*
X130331337Y-101006320D01*
X130724320Y-100613337D01*
X130937000Y-100099881D01*
X130937000Y-99544119D01*
X133223000Y-99544119D01*
X133223000Y-100099881D01*
X133435680Y-100613337D01*
X133828663Y-101006320D01*
X134342119Y-101219000D01*
X134897881Y-101219000D01*
X135411337Y-101006320D01*
X135804320Y-100613337D01*
X136017000Y-100099881D01*
X136017000Y-99544119D01*
X135804320Y-99030663D01*
X135411337Y-98637680D01*
X134897881Y-98425000D01*
X134342119Y-98425000D01*
X133828663Y-98637680D01*
X133435680Y-99030663D01*
X133223000Y-99544119D01*
X130937000Y-99544119D01*
X130724320Y-99030663D01*
X130429000Y-98735343D01*
X130429000Y-93012126D01*
X146539000Y-93012126D01*
X146539000Y-93423874D01*
X146696569Y-93804280D01*
X146987720Y-94095431D01*
X147368126Y-94253000D01*
X147441568Y-94253000D01*
X147948793Y-94760226D01*
X147994848Y-94829152D01*
X148267906Y-95011604D01*
X148508697Y-95059500D01*
X148508698Y-95059500D01*
X148590000Y-95075672D01*
X148671301Y-95059500D01*
X163445789Y-95059500D01*
X163497720Y-95111431D01*
X163878126Y-95269000D01*
X164289874Y-95269000D01*
X164670280Y-95111431D01*
X164961431Y-94820280D01*
X165119000Y-94439874D01*
X165119000Y-94028126D01*
X164961431Y-93647720D01*
X164670280Y-93356569D01*
X164289874Y-93199000D01*
X163878126Y-93199000D01*
X163497720Y-93356569D01*
X163445789Y-93408500D01*
X148931933Y-93408500D01*
X148609000Y-93085568D01*
X148609000Y-93012126D01*
X148451431Y-92631720D01*
X148160280Y-92340569D01*
X147779874Y-92183000D01*
X147368126Y-92183000D01*
X146987720Y-92340569D01*
X146696569Y-92631720D01*
X146539000Y-93012126D01*
X130429000Y-93012126D01*
X130429000Y-87744235D01*
X131432236Y-86741000D01*
X141453568Y-86741000D01*
X141351772Y-86842795D01*
X141351773Y-86842795D01*
X141345568Y-86849000D01*
X141272126Y-86849000D01*
X140891720Y-87006569D01*
X140600569Y-87297720D01*
X140443000Y-87678126D01*
X140443000Y-88089874D01*
X140600569Y-88470280D01*
X140891720Y-88761431D01*
X141272126Y-88919000D01*
X141683874Y-88919000D01*
X142064280Y-88761431D01*
X142355431Y-88470280D01*
X142513000Y-88089874D01*
X142513000Y-88016432D01*
X142519205Y-88010227D01*
X142727932Y-87801501D01*
X148153972Y-87801501D01*
X148220569Y-87962280D01*
X148511720Y-88253431D01*
X148892126Y-88411000D01*
X149303874Y-88411000D01*
X149684280Y-88253431D01*
X149975431Y-87962280D01*
X150133000Y-87581874D01*
X150133000Y-87170126D01*
X154413000Y-87170126D01*
X154413000Y-87581874D01*
X154559000Y-87934350D01*
X154559001Y-90107841D01*
X154541584Y-90195400D01*
X154585803Y-90417700D01*
X154610582Y-90542270D01*
X154807068Y-90836333D01*
X154881294Y-90885929D01*
X156014771Y-92019407D01*
X156064367Y-92093633D01*
X156358430Y-92290119D01*
X156617744Y-92341700D01*
X156617745Y-92341700D01*
X156705300Y-92359116D01*
X156792855Y-92341700D01*
X163525650Y-92341700D01*
X163878126Y-92487700D01*
X164289874Y-92487700D01*
X164670280Y-92330131D01*
X164961431Y-92038980D01*
X165119000Y-91658574D01*
X165119000Y-91246826D01*
X164961431Y-90866420D01*
X164670280Y-90575269D01*
X164289874Y-90417700D01*
X163878126Y-90417700D01*
X163525650Y-90563700D01*
X157073536Y-90563700D01*
X156337000Y-89827165D01*
X156337000Y-87934350D01*
X156483000Y-87581874D01*
X156483000Y-87170126D01*
X156325431Y-86789720D01*
X156034280Y-86498569D01*
X155653874Y-86341000D01*
X155242126Y-86341000D01*
X154861720Y-86498569D01*
X154570569Y-86789720D01*
X154413000Y-87170126D01*
X150133000Y-87170126D01*
X149975431Y-86789720D01*
X149926711Y-86741000D01*
X153365650Y-86741000D01*
X153718126Y-86887000D01*
X154129874Y-86887000D01*
X154510280Y-86729431D01*
X154801431Y-86438280D01*
X154959000Y-86057874D01*
X154959000Y-85646126D01*
X154801431Y-85265720D01*
X154510280Y-84974569D01*
X154129874Y-84817000D01*
X153718126Y-84817000D01*
X153365650Y-84963000D01*
X145161000Y-84963000D01*
X145161000Y-74791848D01*
X145306577Y-74694577D01*
X145542000Y-74342242D01*
X145777423Y-74694577D01*
X146252091Y-75011740D01*
X146670667Y-75095000D01*
X146953333Y-75095000D01*
X147371909Y-75011740D01*
X147846577Y-74694577D01*
X148163740Y-74219909D01*
X148275113Y-73660000D01*
X150428887Y-73660000D01*
X150540260Y-74219909D01*
X150857423Y-74694577D01*
X151332091Y-75011740D01*
X151750667Y-75095000D01*
X152033333Y-75095000D01*
X152451909Y-75011740D01*
X152926577Y-74694577D01*
X153162000Y-74342242D01*
X153397423Y-74694577D01*
X153872091Y-75011740D01*
X154290667Y-75095000D01*
X154573333Y-75095000D01*
X154991909Y-75011740D01*
X155466577Y-74694577D01*
X155702000Y-74342242D01*
X155937423Y-74694577D01*
X156412091Y-75011740D01*
X156830667Y-75095000D01*
X157113333Y-75095000D01*
X157531909Y-75011740D01*
X158006577Y-74694577D01*
X158242000Y-74342242D01*
X158477423Y-74694577D01*
X158952091Y-75011740D01*
X159370667Y-75095000D01*
X159653333Y-75095000D01*
X160071909Y-75011740D01*
X160546577Y-74694577D01*
X160782000Y-74342242D01*
X161017423Y-74694577D01*
X161226500Y-74834278D01*
X161226500Y-74899498D01*
X161210328Y-74980800D01*
X161226500Y-75062101D01*
X161226500Y-75062102D01*
X161274396Y-75302893D01*
X161456848Y-75575952D01*
X161525777Y-75622009D01*
X161848971Y-75945203D01*
X161895028Y-76014132D01*
X162168086Y-76196584D01*
X162408877Y-76244480D01*
X162408881Y-76244480D01*
X162490179Y-76260651D01*
X162571477Y-76244480D01*
X164807900Y-76244480D01*
X164807901Y-76933388D01*
X164755969Y-76985320D01*
X164598400Y-77365726D01*
X164598400Y-77777474D01*
X164755969Y-78157880D01*
X165047120Y-78449031D01*
X165427526Y-78606600D01*
X165839274Y-78606600D01*
X166219680Y-78449031D01*
X166510831Y-78157880D01*
X166668400Y-77777474D01*
X166668400Y-77365726D01*
X166510831Y-76985320D01*
X166458900Y-76933389D01*
X166458900Y-76246752D01*
X166470321Y-76244480D01*
X166470323Y-76244480D01*
X166711114Y-76196584D01*
X166984172Y-76014132D01*
X167030229Y-75945204D01*
X167296246Y-75679187D01*
X167365172Y-75633132D01*
X167547624Y-75360074D01*
X167595520Y-75119283D01*
X167595520Y-75119279D01*
X167611691Y-75037981D01*
X167595520Y-74956683D01*
X167595520Y-74399811D01*
X167647451Y-74347880D01*
X167805020Y-73967474D01*
X167805020Y-73555726D01*
X167647451Y-73175320D01*
X167356300Y-72884169D01*
X166975894Y-72726600D01*
X166564146Y-72726600D01*
X166183740Y-72884169D01*
X165947735Y-73120174D01*
X165943740Y-73100091D01*
X165626577Y-72625423D01*
X165151909Y-72308260D01*
X164733333Y-72225000D01*
X164450667Y-72225000D01*
X164032091Y-72308260D01*
X163557423Y-72625423D01*
X163322000Y-72977758D01*
X163086577Y-72625423D01*
X162611909Y-72308260D01*
X162193333Y-72225000D01*
X161910667Y-72225000D01*
X161492091Y-72308260D01*
X161017423Y-72625423D01*
X160782000Y-72977758D01*
X160546577Y-72625423D01*
X160071909Y-72308260D01*
X159653333Y-72225000D01*
X159370667Y-72225000D01*
X158952091Y-72308260D01*
X158477423Y-72625423D01*
X158242000Y-72977758D01*
X158006577Y-72625423D01*
X157531909Y-72308260D01*
X157113333Y-72225000D01*
X156830667Y-72225000D01*
X156412091Y-72308260D01*
X155937423Y-72625423D01*
X155702000Y-72977758D01*
X155466577Y-72625423D01*
X154991909Y-72308260D01*
X154573333Y-72225000D01*
X154290667Y-72225000D01*
X153872091Y-72308260D01*
X153397423Y-72625423D01*
X153162000Y-72977758D01*
X152926577Y-72625423D01*
X152451909Y-72308260D01*
X152033333Y-72225000D01*
X151750667Y-72225000D01*
X151332091Y-72308260D01*
X150857423Y-72625423D01*
X150540260Y-73100091D01*
X150428887Y-73660000D01*
X148275113Y-73660000D01*
X148163740Y-73100091D01*
X148028707Y-72898000D01*
X148121445Y-72898000D01*
X148209000Y-72915416D01*
X148296555Y-72898000D01*
X148296556Y-72898000D01*
X148555870Y-72846419D01*
X148849933Y-72649933D01*
X148899531Y-72575704D01*
X149407529Y-72067706D01*
X149918706Y-71556530D01*
X149992933Y-71506933D01*
X150118859Y-71318471D01*
X150189419Y-71212871D01*
X150258416Y-70866000D01*
X150241000Y-70778444D01*
X150241000Y-67171848D01*
X150386577Y-67074577D01*
X150622000Y-66722242D01*
X150857423Y-67074577D01*
X151332091Y-67391740D01*
X151750667Y-67475000D01*
X152033333Y-67475000D01*
X152451909Y-67391740D01*
X152926577Y-67074577D01*
X153162000Y-66722242D01*
X153397423Y-67074577D01*
X153872091Y-67391740D01*
X154290667Y-67475000D01*
X154573333Y-67475000D01*
X154991909Y-67391740D01*
X155466577Y-67074577D01*
X155702000Y-66722242D01*
X155937423Y-67074577D01*
X156412091Y-67391740D01*
X156830667Y-67475000D01*
X157113333Y-67475000D01*
X157531909Y-67391740D01*
X158006577Y-67074577D01*
X158242000Y-66722242D01*
X158477423Y-67074577D01*
X158952091Y-67391740D01*
X159370667Y-67475000D01*
X159653333Y-67475000D01*
X160071909Y-67391740D01*
X160546577Y-67074577D01*
X160782000Y-66722242D01*
X161017423Y-67074577D01*
X161492091Y-67391740D01*
X161910667Y-67475000D01*
X162193333Y-67475000D01*
X162611909Y-67391740D01*
X163086577Y-67074577D01*
X163167215Y-66953894D01*
X163193843Y-67087765D01*
X163334191Y-67297809D01*
X163544235Y-67438157D01*
X163792000Y-67487440D01*
X165392000Y-67487440D01*
X165639765Y-67438157D01*
X165849809Y-67297809D01*
X165990157Y-67087765D01*
X166039440Y-66840000D01*
X166039440Y-65240000D01*
X166021737Y-65151000D01*
X170891650Y-65151000D01*
X171244126Y-65297000D01*
X171655874Y-65297000D01*
X171894500Y-65198158D01*
X171894501Y-82994500D01*
X166955211Y-82994500D01*
X166903280Y-82942569D01*
X166522874Y-82785000D01*
X166111126Y-82785000D01*
X165730720Y-82942569D01*
X165439569Y-83233720D01*
X165282000Y-83614126D01*
X165282000Y-84025874D01*
X165439569Y-84406280D01*
X165730720Y-84697431D01*
X166111126Y-84855000D01*
X166522874Y-84855000D01*
X166903280Y-84697431D01*
X166955211Y-84645500D01*
X172384699Y-84645500D01*
X172466000Y-84661672D01*
X172475511Y-84659780D01*
X172475511Y-85691056D01*
X172124067Y-86042500D01*
X172088211Y-86042500D01*
X172036280Y-85990569D01*
X171655874Y-85833000D01*
X171244126Y-85833000D01*
X170863720Y-85990569D01*
X170572569Y-86281720D01*
X170415000Y-86662126D01*
X170415000Y-87073874D01*
X170572569Y-87454280D01*
X170863720Y-87745431D01*
X171244126Y-87903000D01*
X171655874Y-87903000D01*
X172036280Y-87745431D01*
X172088211Y-87693500D01*
X172384699Y-87693500D01*
X172466000Y-87709672D01*
X172547301Y-87693500D01*
X172547303Y-87693500D01*
X172788094Y-87645604D01*
X173061152Y-87463152D01*
X173107209Y-87394224D01*
X173827241Y-86674192D01*
X173896162Y-86628141D01*
X173942213Y-86559221D01*
X173942216Y-86559218D01*
X174078613Y-86355085D01*
X174078613Y-86355084D01*
X174078614Y-86355083D01*
X174126510Y-86114292D01*
X174126510Y-86114289D01*
X174142681Y-86032991D01*
X174126510Y-85951693D01*
X174126509Y-76874299D01*
X174292126Y-76942900D01*
X174550000Y-76942900D01*
X174550001Y-101530074D01*
X174550000Y-104597418D01*
X174489910Y-105017009D01*
X174335619Y-105356352D01*
X174092288Y-105638752D01*
X173779479Y-105841506D01*
X173398815Y-105955348D01*
X173201649Y-105970000D01*
X157549925Y-105970000D01*
X157480000Y-105956091D01*
X157410074Y-105970000D01*
X157202972Y-106011195D01*
X156968119Y-106168119D01*
X156811195Y-106402972D01*
X156781500Y-106552260D01*
X156781500Y-103508211D01*
X156833431Y-103456280D01*
X156991000Y-103075874D01*
X156991000Y-102664126D01*
X156833431Y-102283720D01*
X156542280Y-101992569D01*
X156161874Y-101835000D01*
X155750126Y-101835000D01*
X155448000Y-101960144D01*
X155145874Y-101835000D01*
X154734126Y-101835000D01*
X154432000Y-101960144D01*
X154129874Y-101835000D01*
X153718126Y-101835000D01*
X153416000Y-101960144D01*
X153113874Y-101835000D01*
X152702126Y-101835000D01*
X152400000Y-101960144D01*
X152097874Y-101835000D01*
X151686126Y-101835000D01*
X151305720Y-101992569D01*
X151257000Y-102041289D01*
X151208280Y-101992569D01*
X150827874Y-101835000D01*
X150416126Y-101835000D01*
X150035720Y-101992569D01*
X149744569Y-102283720D01*
X149587000Y-102664126D01*
X149587000Y-103075874D01*
X149744569Y-103456280D01*
X149796501Y-103508212D01*
X149796500Y-125388067D01*
X149333776Y-125850792D01*
X149333773Y-125850794D01*
X148711567Y-126473000D01*
X148638126Y-126473000D01*
X148257720Y-126630569D01*
X147966569Y-126921720D01*
X147809000Y-127302126D01*
X147809000Y-127713874D01*
X147966569Y-128094280D01*
X148078789Y-128206500D01*
X121753933Y-128206500D01*
X121475500Y-127928068D01*
X121475500Y-126877328D01*
X121832624Y-126520204D01*
X121920000Y-126309260D01*
X122007376Y-126520204D01*
X122399796Y-126912624D01*
X122912517Y-127125000D01*
X123467483Y-127125000D01*
X123980204Y-126912624D01*
X124372624Y-126520204D01*
X124460000Y-126309260D01*
X124547376Y-126520204D01*
X124939796Y-126912624D01*
X125452517Y-127125000D01*
X126007483Y-127125000D01*
X126520204Y-126912624D01*
X126912624Y-126520204D01*
X127000000Y-126309260D01*
X127087376Y-126520204D01*
X127479796Y-126912624D01*
X127992517Y-127125000D01*
X128547483Y-127125000D01*
X129060204Y-126912624D01*
X129452624Y-126520204D01*
X129540000Y-126309260D01*
X129627376Y-126520204D01*
X130019796Y-126912624D01*
X130532517Y-127125000D01*
X131087483Y-127125000D01*
X131600204Y-126912624D01*
X131992624Y-126520204D01*
X132080000Y-126309260D01*
X132167376Y-126520204D01*
X132559796Y-126912624D01*
X133072517Y-127125000D01*
X133627483Y-127125000D01*
X134140204Y-126912624D01*
X134532624Y-126520204D01*
X134620000Y-126309260D01*
X134707376Y-126520204D01*
X135099796Y-126912624D01*
X135612517Y-127125000D01*
X136167483Y-127125000D01*
X136680204Y-126912624D01*
X137072624Y-126520204D01*
X137160000Y-126309260D01*
X137247376Y-126520204D01*
X137639796Y-126912624D01*
X138152517Y-127125000D01*
X138707483Y-127125000D01*
X139220204Y-126912624D01*
X139612624Y-126520204D01*
X139825000Y-126007483D01*
X139825000Y-125452517D01*
X139612624Y-124939796D01*
X139220204Y-124547376D01*
X139009260Y-124460000D01*
X139220204Y-124372624D01*
X139612624Y-123980204D01*
X139825000Y-123467483D01*
X139825000Y-122912517D01*
X139612624Y-122399796D01*
X139220204Y-122007376D01*
X138707483Y-121795000D01*
X138152517Y-121795000D01*
X137639796Y-122007376D01*
X137247376Y-122399796D01*
X137160000Y-122610740D01*
X137072624Y-122399796D01*
X136680204Y-122007376D01*
X136167483Y-121795000D01*
X135612517Y-121795000D01*
X135099796Y-122007376D01*
X134937500Y-122169672D01*
X134937500Y-119213932D01*
X135260433Y-118891000D01*
X135333874Y-118891000D01*
X135714280Y-118733431D01*
X136005431Y-118442280D01*
X136163000Y-118061874D01*
X136163000Y-117650126D01*
X136005431Y-117269720D01*
X135714280Y-116978569D01*
X135333874Y-116821000D01*
X134922126Y-116821000D01*
X134541720Y-116978569D01*
X134353300Y-117166989D01*
X134353300Y-107318211D01*
X134405231Y-107266280D01*
X134562800Y-106885874D01*
X134562800Y-106474126D01*
X134405231Y-106093720D01*
X134114080Y-105802569D01*
X133733674Y-105645000D01*
X133337300Y-105645000D01*
X133337300Y-105497932D01*
X135609633Y-103225600D01*
X139783799Y-103225600D01*
X139865100Y-103241772D01*
X139946401Y-103225600D01*
X139946403Y-103225600D01*
X140187194Y-103177704D01*
X140460252Y-102995252D01*
X140506308Y-102926324D01*
X141158228Y-102274406D01*
X141227152Y-102228352D01*
X141409604Y-101955294D01*
X141457500Y-101714503D01*
X141457500Y-101714499D01*
X141473671Y-101633201D01*
X141457500Y-101551903D01*
X141457500Y-95296211D01*
X141509431Y-95244280D01*
X141667000Y-94863874D01*
X141667000Y-94452126D01*
X141509431Y-94071720D01*
X141218280Y-93780569D01*
X140837874Y-93623000D01*
X140426126Y-93623000D01*
X140045720Y-93780569D01*
X139754569Y-94071720D01*
X139597000Y-94452126D01*
X139597000Y-94863874D01*
X139754569Y-95244280D01*
X139806500Y-95296211D01*
X139806501Y-101291266D01*
X139523167Y-101574600D01*
X135348997Y-101574600D01*
X135267699Y-101558429D01*
X135186401Y-101574600D01*
X135186397Y-101574600D01*
X134945606Y-101622496D01*
X134672548Y-101804948D01*
X134626493Y-101873874D01*
X131985577Y-104514791D01*
X131916648Y-104560848D01*
X131734196Y-104833907D01*
X131686300Y-105074697D01*
X131670128Y-105156000D01*
X131686300Y-105237302D01*
X131686300Y-108120643D01*
X131347337Y-107781680D01*
X130833881Y-107569000D01*
X130278119Y-107569000D01*
X129764663Y-107781680D01*
X129371680Y-108174663D01*
X129159000Y-108688119D01*
X129159000Y-109243881D01*
X129371680Y-109757337D01*
X129764663Y-110150320D01*
X130278119Y-110363000D01*
X130833881Y-110363000D01*
X131347337Y-110150320D01*
X131686301Y-109811356D01*
X131686301Y-111748266D01*
X130785568Y-112649000D01*
X130278119Y-112649000D01*
X129764663Y-112861680D01*
X129371680Y-113254663D01*
X129159000Y-113768119D01*
X129159000Y-114323881D01*
X129371680Y-114837337D01*
X129764663Y-115230320D01*
X130278119Y-115443000D01*
X130833881Y-115443000D01*
X131347337Y-115230320D01*
X131740320Y-114837337D01*
X131953000Y-114323881D01*
X131953000Y-113816432D01*
X132702300Y-113067132D01*
X132702301Y-120133366D01*
X132176168Y-120659500D01*
X132102726Y-120659500D01*
X131722320Y-120817069D01*
X131431169Y-121108220D01*
X131273600Y-121488626D01*
X131273600Y-121872092D01*
X131087483Y-121795000D01*
X130532517Y-121795000D01*
X130019796Y-122007376D01*
X129627376Y-122399796D01*
X129540000Y-122610740D01*
X129452624Y-122399796D01*
X129060204Y-122007376D01*
X128547483Y-121795000D01*
X127992517Y-121795000D01*
X127479796Y-122007376D01*
X127087376Y-122399796D01*
X127000000Y-122610740D01*
X126912624Y-122399796D01*
X126520204Y-122007376D01*
X126007483Y-121795000D01*
X125452517Y-121795000D01*
X124939796Y-122007376D01*
X124547376Y-122399796D01*
X124460000Y-122610740D01*
X124372624Y-122399796D01*
X123980204Y-122007376D01*
X123467483Y-121795000D01*
X122912517Y-121795000D01*
X122399796Y-122007376D01*
X122007376Y-122399796D01*
X121920000Y-122610740D01*
X121832624Y-122399796D01*
X121440204Y-122007376D01*
X120927483Y-121795000D01*
X120372517Y-121795000D01*
X119859796Y-122007376D01*
X119467376Y-122399796D01*
X119255000Y-122912517D01*
X119255000Y-123467483D01*
X119467376Y-123980204D01*
X119859796Y-124372624D01*
X120070740Y-124460000D01*
X119859796Y-124547376D01*
X119467376Y-124939796D01*
X119380000Y-125150740D01*
X119292624Y-124939796D01*
X118900204Y-124547376D01*
X118387483Y-124335000D01*
X117832517Y-124335000D01*
X117319796Y-124547376D01*
X116927376Y-124939796D01*
X116840000Y-125150740D01*
X116752624Y-124939796D01*
X116360204Y-124547376D01*
X116149260Y-124460000D01*
X116360204Y-124372624D01*
X116752624Y-123980204D01*
X116965000Y-123467483D01*
X116965000Y-122912517D01*
X116752624Y-122399796D01*
X116360204Y-122007376D01*
X115847483Y-121795000D01*
X115292517Y-121795000D01*
X115010000Y-121912022D01*
X115010000Y-96523453D01*
X116738400Y-96523453D01*
X116738400Y-97786547D01*
X117221765Y-98953493D01*
X118114907Y-99846635D01*
X119281853Y-100330000D01*
X120544947Y-100330000D01*
X121711893Y-99846635D01*
X122605035Y-98953493D01*
X123088400Y-97786547D01*
X123088400Y-96523453D01*
X122605035Y-95356507D01*
X121711893Y-94463365D01*
X120544947Y-93980000D01*
X119281853Y-93980000D01*
X118114907Y-94463365D01*
X117221765Y-95356507D01*
X116738400Y-96523453D01*
X115010000Y-96523453D01*
X115010000Y-83827978D01*
X115292517Y-83945000D01*
X115847483Y-83945000D01*
X116360204Y-83732624D01*
X116752624Y-83340204D01*
X116840000Y-83129260D01*
X116927376Y-83340204D01*
X117319796Y-83732624D01*
X117832517Y-83945000D01*
X118387483Y-83945000D01*
X118900204Y-83732624D01*
X119292624Y-83340204D01*
X119380000Y-83129260D01*
X119467376Y-83340204D01*
X119859796Y-83732624D01*
X120372517Y-83945000D01*
X120927483Y-83945000D01*
X121440204Y-83732624D01*
X121832624Y-83340204D01*
X121920000Y-83129260D01*
X122007376Y-83340204D01*
X122399796Y-83732624D01*
X122912517Y-83945000D01*
X123467483Y-83945000D01*
X123980204Y-83732624D01*
X124372624Y-83340204D01*
X124460000Y-83129260D01*
X124547376Y-83340204D01*
X124939796Y-83732624D01*
X125452517Y-83945000D01*
X126007483Y-83945000D01*
X126520204Y-83732624D01*
X126912624Y-83340204D01*
X127000000Y-83129260D01*
X127087376Y-83340204D01*
X127479796Y-83732624D01*
X127992517Y-83945000D01*
X128547483Y-83945000D01*
X129060204Y-83732624D01*
X129452624Y-83340204D01*
X129540000Y-83129260D01*
X129627376Y-83340204D01*
X130019796Y-83732624D01*
X130532517Y-83945000D01*
X131087483Y-83945000D01*
X131600204Y-83732624D01*
X131992624Y-83340204D01*
X132080000Y-83129260D01*
X132167376Y-83340204D01*
X132559796Y-83732624D01*
X133072517Y-83945000D01*
X133627483Y-83945000D01*
X134140204Y-83732624D01*
X134532624Y-83340204D01*
X134620000Y-83129260D01*
X134707376Y-83340204D01*
X135099796Y-83732624D01*
X135612517Y-83945000D01*
X136167483Y-83945000D01*
X136680204Y-83732624D01*
X137072624Y-83340204D01*
X137160000Y-83129260D01*
X137247376Y-83340204D01*
X137639796Y-83732624D01*
X138152517Y-83945000D01*
X138707483Y-83945000D01*
X139220204Y-83732624D01*
X139612624Y-83340204D01*
X139825000Y-82827483D01*
X139825000Y-82272517D01*
X139612624Y-81759796D01*
X139220204Y-81367376D01*
X139009260Y-81280000D01*
X139220204Y-81192624D01*
X139612624Y-80800204D01*
X139825000Y-80287483D01*
X139825000Y-79732517D01*
X139612624Y-79219796D01*
X139220204Y-78827376D01*
X138707483Y-78615000D01*
X138152517Y-78615000D01*
X137639796Y-78827376D01*
X137247376Y-79219796D01*
X137160000Y-79430740D01*
X137072624Y-79219796D01*
X136680204Y-78827376D01*
X136167483Y-78615000D01*
X135612517Y-78615000D01*
X135099796Y-78827376D01*
X134707376Y-79219796D01*
X134620000Y-79430740D01*
X134532624Y-79219796D01*
X134140204Y-78827376D01*
X133627483Y-78615000D01*
X133072517Y-78615000D01*
X132559796Y-78827376D01*
X132167376Y-79219796D01*
X132080000Y-79430740D01*
X131992624Y-79219796D01*
X131600204Y-78827376D01*
X131087483Y-78615000D01*
X130532517Y-78615000D01*
X130019796Y-78827376D01*
X129627376Y-79219796D01*
X129540000Y-79430740D01*
X129452624Y-79219796D01*
X129060204Y-78827376D01*
X128547483Y-78615000D01*
X127992517Y-78615000D01*
X127479796Y-78827376D01*
X127087376Y-79219796D01*
X127000000Y-79430740D01*
X126912624Y-79219796D01*
X126520204Y-78827376D01*
X126007483Y-78615000D01*
X125452517Y-78615000D01*
X124939796Y-78827376D01*
X124547376Y-79219796D01*
X124460000Y-79430740D01*
X124372624Y-79219796D01*
X123980204Y-78827376D01*
X123467483Y-78615000D01*
X122912517Y-78615000D01*
X122399796Y-78827376D01*
X122007376Y-79219796D01*
X121920000Y-79430740D01*
X121832624Y-79219796D01*
X121440204Y-78827376D01*
X120927483Y-78615000D01*
X120372517Y-78615000D01*
X119859796Y-78827376D01*
X119467376Y-79219796D01*
X119380000Y-79430740D01*
X119292624Y-79219796D01*
X118900204Y-78827376D01*
X118387483Y-78615000D01*
X117832517Y-78615000D01*
X117319796Y-78827376D01*
X116927376Y-79219796D01*
X116715000Y-79732517D01*
X116715000Y-80287483D01*
X116927376Y-80800204D01*
X117319796Y-81192624D01*
X117530740Y-81280000D01*
X117319796Y-81367376D01*
X116927376Y-81759796D01*
X116840000Y-81970740D01*
X116752624Y-81759796D01*
X116360204Y-81367376D01*
X115847483Y-81155000D01*
X115292517Y-81155000D01*
X115010000Y-81272022D01*
X115010000Y-72801914D01*
X116604000Y-72801914D01*
X116604000Y-73502086D01*
X116871944Y-74148960D01*
X117367040Y-74644056D01*
X118013914Y-74912000D01*
X118714086Y-74912000D01*
X119360960Y-74644056D01*
X119856056Y-74148960D01*
X120124000Y-73502086D01*
X120124000Y-72801914D01*
X119856056Y-72155040D01*
X119360960Y-71659944D01*
X118714086Y-71392000D01*
X118013914Y-71392000D01*
X117367040Y-71659944D01*
X116871944Y-72155040D01*
X116604000Y-72801914D01*
X115010000Y-72801914D01*
X115010000Y-66040000D01*
X130108887Y-66040000D01*
X130220260Y-66599909D01*
X130537423Y-67074577D01*
X131012091Y-67391740D01*
X131430667Y-67475000D01*
X131713333Y-67475000D01*
X132131909Y-67391740D01*
X132606577Y-67074577D01*
X132842000Y-66722242D01*
X133077423Y-67074577D01*
X133552091Y-67391740D01*
X133970667Y-67475000D01*
X134253333Y-67475000D01*
X134671909Y-67391740D01*
X135146577Y-67074577D01*
X135382000Y-66722242D01*
X135617423Y-67074577D01*
X136092091Y-67391740D01*
X136510667Y-67475000D01*
X136793333Y-67475000D01*
X137211909Y-67391740D01*
X137686577Y-67074577D01*
X137922000Y-66722242D01*
X138157423Y-67074577D01*
X138632091Y-67391740D01*
X139050667Y-67475000D01*
X139333333Y-67475000D01*
X139751909Y-67391740D01*
X140226577Y-67074577D01*
X140462000Y-66722242D01*
X140697423Y-67074577D01*
X141172091Y-67391740D01*
X141590667Y-67475000D01*
X141873333Y-67475000D01*
X142291909Y-67391740D01*
X142766577Y-67074577D01*
X143002000Y-66722242D01*
X143237423Y-67074577D01*
X143712091Y-67391740D01*
X144130667Y-67475000D01*
X144413333Y-67475000D01*
X144831909Y-67391740D01*
X145306577Y-67074577D01*
X145623740Y-66599909D01*
X145735113Y-66040000D01*
X145623740Y-65480091D01*
X145306577Y-65005423D01*
X144831909Y-64688260D01*
X144413333Y-64605000D01*
X144130667Y-64605000D01*
X143712091Y-64688260D01*
X143237423Y-65005423D01*
X143002000Y-65357758D01*
X142766577Y-65005423D01*
X142291909Y-64688260D01*
X141873333Y-64605000D01*
X141590667Y-64605000D01*
X141172091Y-64688260D01*
X140697423Y-65005423D01*
X140462000Y-65357758D01*
X140226577Y-65005423D01*
X139751909Y-64688260D01*
X139333333Y-64605000D01*
X139050667Y-64605000D01*
X138632091Y-64688260D01*
X138157423Y-65005423D01*
X137922000Y-65357758D01*
X137686577Y-65005423D01*
X137211909Y-64688260D01*
X136793333Y-64605000D01*
X136510667Y-64605000D01*
X136092091Y-64688260D01*
X135617423Y-65005423D01*
X135382000Y-65357758D01*
X135146577Y-65005423D01*
X134671909Y-64688260D01*
X134253333Y-64605000D01*
X133970667Y-64605000D01*
X133552091Y-64688260D01*
X133077423Y-65005423D01*
X132842000Y-65357758D01*
X132606577Y-65005423D01*
X132131909Y-64688260D01*
X131713333Y-64605000D01*
X131430667Y-64605000D01*
X131012091Y-64688260D01*
X130537423Y-65005423D01*
X130220260Y-65480091D01*
X130108887Y-66040000D01*
X115010000Y-66040000D01*
X115010000Y-39305126D01*
X117978000Y-39305126D01*
X117978000Y-39716874D01*
X118135569Y-40097280D01*
X118426720Y-40388431D01*
X118807126Y-40546000D01*
X119218874Y-40546000D01*
X119599280Y-40388431D01*
X119651211Y-40336500D01*
X129155789Y-40336500D01*
X129207720Y-40388431D01*
X129588126Y-40546000D01*
X129999874Y-40546000D01*
X130380280Y-40388431D01*
X130671431Y-40097280D01*
X130829000Y-39716874D01*
X130829000Y-39305126D01*
X130671431Y-38924720D01*
X130380280Y-38633569D01*
X129999874Y-38476000D01*
X129588126Y-38476000D01*
X129207720Y-38633569D01*
X129155789Y-38685500D01*
X119651211Y-38685500D01*
X119599280Y-38633569D01*
X119218874Y-38476000D01*
X118807126Y-38476000D01*
X118426720Y-38633569D01*
X118135569Y-38924720D01*
X117978000Y-39305126D01*
X115010000Y-39305126D01*
X115010000Y-29756567D01*
X133530000Y-29756567D01*
X133530000Y-30695433D01*
X133889289Y-31562833D01*
X134553167Y-32226711D01*
X135420567Y-32586000D01*
X136359433Y-32586000D01*
X137226833Y-32226711D01*
X137890711Y-31562833D01*
X138250000Y-30695433D01*
X138250000Y-29756567D01*
X141150000Y-29756567D01*
X141150000Y-30695433D01*
X141509289Y-31562833D01*
X142173167Y-32226711D01*
X143040567Y-32586000D01*
X143979433Y-32586000D01*
X144846833Y-32226711D01*
X145510711Y-31562833D01*
X145548139Y-31472473D01*
X145596089Y-31588233D01*
X146259967Y-32252111D01*
X147127367Y-32611400D01*
X148066233Y-32611400D01*
X148933633Y-32252111D01*
X149597511Y-31588233D01*
X149956800Y-30720833D01*
X149956800Y-29781967D01*
X155396800Y-29781967D01*
X155396800Y-30720833D01*
X155756089Y-31588233D01*
X156419967Y-32252111D01*
X157287367Y-32611400D01*
X158226233Y-32611400D01*
X159093633Y-32252111D01*
X159757511Y-31588233D01*
X159909661Y-31220912D01*
X160051289Y-31562833D01*
X160715167Y-32226711D01*
X161582567Y-32586000D01*
X162521433Y-32586000D01*
X163388833Y-32226711D01*
X164052711Y-31562833D01*
X164412000Y-30695433D01*
X164412000Y-29756567D01*
X164052711Y-28889167D01*
X163388833Y-28225289D01*
X162521433Y-27866000D01*
X161582567Y-27866000D01*
X160715167Y-28225289D01*
X160051289Y-28889167D01*
X159899139Y-29256488D01*
X159757511Y-28914567D01*
X159093633Y-28250689D01*
X158226233Y-27891400D01*
X157287367Y-27891400D01*
X156419967Y-28250689D01*
X155756089Y-28914567D01*
X155396800Y-29781967D01*
X149956800Y-29781967D01*
X149597511Y-28914567D01*
X148933633Y-28250689D01*
X148066233Y-27891400D01*
X147127367Y-27891400D01*
X146259967Y-28250689D01*
X145596089Y-28914567D01*
X145558661Y-29004927D01*
X145510711Y-28889167D01*
X144846833Y-28225289D01*
X143979433Y-27866000D01*
X143040567Y-27866000D01*
X142173167Y-28225289D01*
X141509289Y-28889167D01*
X141150000Y-29756567D01*
X138250000Y-29756567D01*
X137890711Y-28889167D01*
X137226833Y-28225289D01*
X136359433Y-27866000D01*
X135420567Y-27866000D01*
X134553167Y-28225289D01*
X133889289Y-28889167D01*
X133530000Y-29756567D01*
X115010000Y-29756567D01*
X115010000Y-26732119D01*
X115054065Y-26482213D01*
X115149405Y-26317080D01*
X115295477Y-26194512D01*
X115504465Y-26118445D01*
X115600996Y-26110000D01*
X173927881Y-26110000D01*
X174177787Y-26154065D01*
G04 #@! TD*
M02*
