G04 #@! TF.GenerationSoftware,KiCad,Pcbnew,(5.0.2)-1*
G04 #@! TF.CreationDate,2019-03-24T13:01:03-05:00*
G04 #@! TF.ProjectId,NavBoard_Hardware,4e617642-6f61-4726-945f-486172647761,rev?*
G04 #@! TF.SameCoordinates,Original*
G04 #@! TF.FileFunction,Paste,Top*
G04 #@! TF.FilePolarity,Positive*
%FSLAX46Y46*%
G04 Gerber Fmt 4.6, Leading zero omitted, Abs format (unit mm)*
G04 Created by KiCad (PCBNEW (5.0.2)-1) date 3/24/2019 1:01:03 PM*
%MOMM*%
%LPD*%
G01*
G04 APERTURE LIST*
%ADD10C,1.520000*%
%ADD11R,0.900000X0.800000*%
%ADD12C,0.100000*%
%ADD13C,0.950000*%
%ADD14C,10.160000*%
%ADD15R,2.540000X6.350000*%
%ADD16R,2.000000X1.000000*%
%ADD17C,5.080000*%
%ADD18R,0.450000X0.600000*%
G04 APERTURE END LIST*
D10*
G04 #@! TO.C,U1*
X138430000Y-80010000D03*
X135890000Y-80010000D03*
X133350000Y-80010000D03*
X130810000Y-80010000D03*
X128270000Y-80010000D03*
X125730000Y-80010000D03*
X123190000Y-80010000D03*
X120650000Y-80010000D03*
X118110000Y-80010000D03*
X115570000Y-80010000D03*
X138430000Y-82550000D03*
X135890000Y-82550000D03*
X133350000Y-82550000D03*
X130810000Y-82550000D03*
X128270000Y-82550000D03*
X125730000Y-82550000D03*
X123190000Y-82550000D03*
X120650000Y-82550000D03*
X118110000Y-82550000D03*
X115570000Y-82550000D03*
X138430000Y-125730000D03*
X135890000Y-125730000D03*
X133350000Y-125730000D03*
X130810000Y-125730000D03*
X128270000Y-125730000D03*
X125730000Y-125730000D03*
X123190000Y-125730000D03*
X120650000Y-125730000D03*
X118110000Y-125730000D03*
X115570000Y-125730000D03*
X138430000Y-123190000D03*
X135890000Y-123190000D03*
X133350000Y-123190000D03*
X130810000Y-123190000D03*
X128270000Y-123190000D03*
X125730000Y-123190000D03*
X123190000Y-123190000D03*
X120650000Y-123190000D03*
X118110000Y-123190000D03*
X115570000Y-123190000D03*
G04 #@! TD*
D11*
G04 #@! TO.C,Q1*
X143526000Y-89220000D03*
X143526000Y-91120000D03*
X145526000Y-90170000D03*
G04 #@! TD*
D12*
G04 #@! TO.C,R1*
G36*
X138458779Y-51596144D02*
X138481834Y-51599563D01*
X138504443Y-51605227D01*
X138526387Y-51613079D01*
X138547457Y-51623044D01*
X138567448Y-51635026D01*
X138586168Y-51648910D01*
X138603438Y-51664562D01*
X138619090Y-51681832D01*
X138632974Y-51700552D01*
X138644956Y-51720543D01*
X138654921Y-51741613D01*
X138662773Y-51763557D01*
X138668437Y-51786166D01*
X138671856Y-51809221D01*
X138673000Y-51832500D01*
X138673000Y-52307500D01*
X138671856Y-52330779D01*
X138668437Y-52353834D01*
X138662773Y-52376443D01*
X138654921Y-52398387D01*
X138644956Y-52419457D01*
X138632974Y-52439448D01*
X138619090Y-52458168D01*
X138603438Y-52475438D01*
X138586168Y-52491090D01*
X138567448Y-52504974D01*
X138547457Y-52516956D01*
X138526387Y-52526921D01*
X138504443Y-52534773D01*
X138481834Y-52540437D01*
X138458779Y-52543856D01*
X138435500Y-52545000D01*
X137860500Y-52545000D01*
X137837221Y-52543856D01*
X137814166Y-52540437D01*
X137791557Y-52534773D01*
X137769613Y-52526921D01*
X137748543Y-52516956D01*
X137728552Y-52504974D01*
X137709832Y-52491090D01*
X137692562Y-52475438D01*
X137676910Y-52458168D01*
X137663026Y-52439448D01*
X137651044Y-52419457D01*
X137641079Y-52398387D01*
X137633227Y-52376443D01*
X137627563Y-52353834D01*
X137624144Y-52330779D01*
X137623000Y-52307500D01*
X137623000Y-51832500D01*
X137624144Y-51809221D01*
X137627563Y-51786166D01*
X137633227Y-51763557D01*
X137641079Y-51741613D01*
X137651044Y-51720543D01*
X137663026Y-51700552D01*
X137676910Y-51681832D01*
X137692562Y-51664562D01*
X137709832Y-51648910D01*
X137728552Y-51635026D01*
X137748543Y-51623044D01*
X137769613Y-51613079D01*
X137791557Y-51605227D01*
X137814166Y-51599563D01*
X137837221Y-51596144D01*
X137860500Y-51595000D01*
X138435500Y-51595000D01*
X138458779Y-51596144D01*
X138458779Y-51596144D01*
G37*
D13*
X138148000Y-52070000D03*
D12*
G36*
X136708779Y-51596144D02*
X136731834Y-51599563D01*
X136754443Y-51605227D01*
X136776387Y-51613079D01*
X136797457Y-51623044D01*
X136817448Y-51635026D01*
X136836168Y-51648910D01*
X136853438Y-51664562D01*
X136869090Y-51681832D01*
X136882974Y-51700552D01*
X136894956Y-51720543D01*
X136904921Y-51741613D01*
X136912773Y-51763557D01*
X136918437Y-51786166D01*
X136921856Y-51809221D01*
X136923000Y-51832500D01*
X136923000Y-52307500D01*
X136921856Y-52330779D01*
X136918437Y-52353834D01*
X136912773Y-52376443D01*
X136904921Y-52398387D01*
X136894956Y-52419457D01*
X136882974Y-52439448D01*
X136869090Y-52458168D01*
X136853438Y-52475438D01*
X136836168Y-52491090D01*
X136817448Y-52504974D01*
X136797457Y-52516956D01*
X136776387Y-52526921D01*
X136754443Y-52534773D01*
X136731834Y-52540437D01*
X136708779Y-52543856D01*
X136685500Y-52545000D01*
X136110500Y-52545000D01*
X136087221Y-52543856D01*
X136064166Y-52540437D01*
X136041557Y-52534773D01*
X136019613Y-52526921D01*
X135998543Y-52516956D01*
X135978552Y-52504974D01*
X135959832Y-52491090D01*
X135942562Y-52475438D01*
X135926910Y-52458168D01*
X135913026Y-52439448D01*
X135901044Y-52419457D01*
X135891079Y-52398387D01*
X135883227Y-52376443D01*
X135877563Y-52353834D01*
X135874144Y-52330779D01*
X135873000Y-52307500D01*
X135873000Y-51832500D01*
X135874144Y-51809221D01*
X135877563Y-51786166D01*
X135883227Y-51763557D01*
X135891079Y-51741613D01*
X135901044Y-51720543D01*
X135913026Y-51700552D01*
X135926910Y-51681832D01*
X135942562Y-51664562D01*
X135959832Y-51648910D01*
X135978552Y-51635026D01*
X135998543Y-51623044D01*
X136019613Y-51613079D01*
X136041557Y-51605227D01*
X136064166Y-51599563D01*
X136087221Y-51596144D01*
X136110500Y-51595000D01*
X136685500Y-51595000D01*
X136708779Y-51596144D01*
X136708779Y-51596144D01*
G37*
D13*
X136398000Y-52070000D03*
G04 #@! TD*
D14*
G04 #@! TO.C,BT1*
X124206000Y-30734000D03*
D15*
X116586000Y-30734000D03*
X131826000Y-30734000D03*
G04 #@! TD*
D16*
G04 #@! TO.C,U5*
X117692366Y-57768392D03*
X117692366Y-56268392D03*
X117692366Y-54768392D03*
X117692366Y-53268392D03*
X117692366Y-51768392D03*
X117692366Y-50268392D03*
X117692366Y-48768392D03*
X117692366Y-47268392D03*
X117692366Y-45768392D03*
X117692366Y-44268392D03*
X133858000Y-44498000D03*
X133858000Y-45998000D03*
X133858000Y-47498000D03*
X133858000Y-48998000D03*
X133858000Y-50498000D03*
X133858000Y-51998000D03*
X133858000Y-53498000D03*
X133858000Y-54998000D03*
X133858000Y-56498000D03*
X133858000Y-57998000D03*
G04 #@! TD*
D17*
G04 #@! TO.C,Conn1*
X119913400Y-89281000D03*
X119913400Y-97155000D03*
G04 #@! TD*
D12*
G04 #@! TO.C,C10*
G36*
X139452779Y-97548144D02*
X139475834Y-97551563D01*
X139498443Y-97557227D01*
X139520387Y-97565079D01*
X139541457Y-97575044D01*
X139561448Y-97587026D01*
X139580168Y-97600910D01*
X139597438Y-97616562D01*
X139613090Y-97633832D01*
X139626974Y-97652552D01*
X139638956Y-97672543D01*
X139648921Y-97693613D01*
X139656773Y-97715557D01*
X139662437Y-97738166D01*
X139665856Y-97761221D01*
X139667000Y-97784500D01*
X139667000Y-98359500D01*
X139665856Y-98382779D01*
X139662437Y-98405834D01*
X139656773Y-98428443D01*
X139648921Y-98450387D01*
X139638956Y-98471457D01*
X139626974Y-98491448D01*
X139613090Y-98510168D01*
X139597438Y-98527438D01*
X139580168Y-98543090D01*
X139561448Y-98556974D01*
X139541457Y-98568956D01*
X139520387Y-98578921D01*
X139498443Y-98586773D01*
X139475834Y-98592437D01*
X139452779Y-98595856D01*
X139429500Y-98597000D01*
X138954500Y-98597000D01*
X138931221Y-98595856D01*
X138908166Y-98592437D01*
X138885557Y-98586773D01*
X138863613Y-98578921D01*
X138842543Y-98568956D01*
X138822552Y-98556974D01*
X138803832Y-98543090D01*
X138786562Y-98527438D01*
X138770910Y-98510168D01*
X138757026Y-98491448D01*
X138745044Y-98471457D01*
X138735079Y-98450387D01*
X138727227Y-98428443D01*
X138721563Y-98405834D01*
X138718144Y-98382779D01*
X138717000Y-98359500D01*
X138717000Y-97784500D01*
X138718144Y-97761221D01*
X138721563Y-97738166D01*
X138727227Y-97715557D01*
X138735079Y-97693613D01*
X138745044Y-97672543D01*
X138757026Y-97652552D01*
X138770910Y-97633832D01*
X138786562Y-97616562D01*
X138803832Y-97600910D01*
X138822552Y-97587026D01*
X138842543Y-97575044D01*
X138863613Y-97565079D01*
X138885557Y-97557227D01*
X138908166Y-97551563D01*
X138931221Y-97548144D01*
X138954500Y-97547000D01*
X139429500Y-97547000D01*
X139452779Y-97548144D01*
X139452779Y-97548144D01*
G37*
D13*
X139192000Y-98072000D03*
D12*
G36*
X139452779Y-99298144D02*
X139475834Y-99301563D01*
X139498443Y-99307227D01*
X139520387Y-99315079D01*
X139541457Y-99325044D01*
X139561448Y-99337026D01*
X139580168Y-99350910D01*
X139597438Y-99366562D01*
X139613090Y-99383832D01*
X139626974Y-99402552D01*
X139638956Y-99422543D01*
X139648921Y-99443613D01*
X139656773Y-99465557D01*
X139662437Y-99488166D01*
X139665856Y-99511221D01*
X139667000Y-99534500D01*
X139667000Y-100109500D01*
X139665856Y-100132779D01*
X139662437Y-100155834D01*
X139656773Y-100178443D01*
X139648921Y-100200387D01*
X139638956Y-100221457D01*
X139626974Y-100241448D01*
X139613090Y-100260168D01*
X139597438Y-100277438D01*
X139580168Y-100293090D01*
X139561448Y-100306974D01*
X139541457Y-100318956D01*
X139520387Y-100328921D01*
X139498443Y-100336773D01*
X139475834Y-100342437D01*
X139452779Y-100345856D01*
X139429500Y-100347000D01*
X138954500Y-100347000D01*
X138931221Y-100345856D01*
X138908166Y-100342437D01*
X138885557Y-100336773D01*
X138863613Y-100328921D01*
X138842543Y-100318956D01*
X138822552Y-100306974D01*
X138803832Y-100293090D01*
X138786562Y-100277438D01*
X138770910Y-100260168D01*
X138757026Y-100241448D01*
X138745044Y-100221457D01*
X138735079Y-100200387D01*
X138727227Y-100178443D01*
X138721563Y-100155834D01*
X138718144Y-100132779D01*
X138717000Y-100109500D01*
X138717000Y-99534500D01*
X138718144Y-99511221D01*
X138721563Y-99488166D01*
X138727227Y-99465557D01*
X138735079Y-99443613D01*
X138745044Y-99422543D01*
X138757026Y-99402552D01*
X138770910Y-99383832D01*
X138786562Y-99366562D01*
X138803832Y-99350910D01*
X138822552Y-99337026D01*
X138842543Y-99325044D01*
X138863613Y-99315079D01*
X138885557Y-99307227D01*
X138908166Y-99301563D01*
X138931221Y-99298144D01*
X138954500Y-99297000D01*
X139429500Y-99297000D01*
X139452779Y-99298144D01*
X139452779Y-99298144D01*
G37*
D13*
X139192000Y-99822000D03*
G04 #@! TD*
D12*
G04 #@! TO.C,R8*
G36*
X167668779Y-90978844D02*
X167691834Y-90982263D01*
X167714443Y-90987927D01*
X167736387Y-90995779D01*
X167757457Y-91005744D01*
X167777448Y-91017726D01*
X167796168Y-91031610D01*
X167813438Y-91047262D01*
X167829090Y-91064532D01*
X167842974Y-91083252D01*
X167854956Y-91103243D01*
X167864921Y-91124313D01*
X167872773Y-91146257D01*
X167878437Y-91168866D01*
X167881856Y-91191921D01*
X167883000Y-91215200D01*
X167883000Y-91690200D01*
X167881856Y-91713479D01*
X167878437Y-91736534D01*
X167872773Y-91759143D01*
X167864921Y-91781087D01*
X167854956Y-91802157D01*
X167842974Y-91822148D01*
X167829090Y-91840868D01*
X167813438Y-91858138D01*
X167796168Y-91873790D01*
X167777448Y-91887674D01*
X167757457Y-91899656D01*
X167736387Y-91909621D01*
X167714443Y-91917473D01*
X167691834Y-91923137D01*
X167668779Y-91926556D01*
X167645500Y-91927700D01*
X167070500Y-91927700D01*
X167047221Y-91926556D01*
X167024166Y-91923137D01*
X167001557Y-91917473D01*
X166979613Y-91909621D01*
X166958543Y-91899656D01*
X166938552Y-91887674D01*
X166919832Y-91873790D01*
X166902562Y-91858138D01*
X166886910Y-91840868D01*
X166873026Y-91822148D01*
X166861044Y-91802157D01*
X166851079Y-91781087D01*
X166843227Y-91759143D01*
X166837563Y-91736534D01*
X166834144Y-91713479D01*
X166833000Y-91690200D01*
X166833000Y-91215200D01*
X166834144Y-91191921D01*
X166837563Y-91168866D01*
X166843227Y-91146257D01*
X166851079Y-91124313D01*
X166861044Y-91103243D01*
X166873026Y-91083252D01*
X166886910Y-91064532D01*
X166902562Y-91047262D01*
X166919832Y-91031610D01*
X166938552Y-91017726D01*
X166958543Y-91005744D01*
X166979613Y-90995779D01*
X167001557Y-90987927D01*
X167024166Y-90982263D01*
X167047221Y-90978844D01*
X167070500Y-90977700D01*
X167645500Y-90977700D01*
X167668779Y-90978844D01*
X167668779Y-90978844D01*
G37*
D13*
X167358000Y-91452700D03*
D12*
G36*
X165918779Y-90978844D02*
X165941834Y-90982263D01*
X165964443Y-90987927D01*
X165986387Y-90995779D01*
X166007457Y-91005744D01*
X166027448Y-91017726D01*
X166046168Y-91031610D01*
X166063438Y-91047262D01*
X166079090Y-91064532D01*
X166092974Y-91083252D01*
X166104956Y-91103243D01*
X166114921Y-91124313D01*
X166122773Y-91146257D01*
X166128437Y-91168866D01*
X166131856Y-91191921D01*
X166133000Y-91215200D01*
X166133000Y-91690200D01*
X166131856Y-91713479D01*
X166128437Y-91736534D01*
X166122773Y-91759143D01*
X166114921Y-91781087D01*
X166104956Y-91802157D01*
X166092974Y-91822148D01*
X166079090Y-91840868D01*
X166063438Y-91858138D01*
X166046168Y-91873790D01*
X166027448Y-91887674D01*
X166007457Y-91899656D01*
X165986387Y-91909621D01*
X165964443Y-91917473D01*
X165941834Y-91923137D01*
X165918779Y-91926556D01*
X165895500Y-91927700D01*
X165320500Y-91927700D01*
X165297221Y-91926556D01*
X165274166Y-91923137D01*
X165251557Y-91917473D01*
X165229613Y-91909621D01*
X165208543Y-91899656D01*
X165188552Y-91887674D01*
X165169832Y-91873790D01*
X165152562Y-91858138D01*
X165136910Y-91840868D01*
X165123026Y-91822148D01*
X165111044Y-91802157D01*
X165101079Y-91781087D01*
X165093227Y-91759143D01*
X165087563Y-91736534D01*
X165084144Y-91713479D01*
X165083000Y-91690200D01*
X165083000Y-91215200D01*
X165084144Y-91191921D01*
X165087563Y-91168866D01*
X165093227Y-91146257D01*
X165101079Y-91124313D01*
X165111044Y-91103243D01*
X165123026Y-91083252D01*
X165136910Y-91064532D01*
X165152562Y-91047262D01*
X165169832Y-91031610D01*
X165188552Y-91017726D01*
X165208543Y-91005744D01*
X165229613Y-90995779D01*
X165251557Y-90987927D01*
X165274166Y-90982263D01*
X165297221Y-90978844D01*
X165320500Y-90977700D01*
X165895500Y-90977700D01*
X165918779Y-90978844D01*
X165918779Y-90978844D01*
G37*
D13*
X165608000Y-91452700D03*
G04 #@! TD*
D12*
G04 #@! TO.C,D8*
G36*
X169756779Y-88045144D02*
X169779834Y-88048563D01*
X169802443Y-88054227D01*
X169824387Y-88062079D01*
X169845457Y-88072044D01*
X169865448Y-88084026D01*
X169884168Y-88097910D01*
X169901438Y-88113562D01*
X169917090Y-88130832D01*
X169930974Y-88149552D01*
X169942956Y-88169543D01*
X169952921Y-88190613D01*
X169960773Y-88212557D01*
X169966437Y-88235166D01*
X169969856Y-88258221D01*
X169971000Y-88281500D01*
X169971000Y-88756500D01*
X169969856Y-88779779D01*
X169966437Y-88802834D01*
X169960773Y-88825443D01*
X169952921Y-88847387D01*
X169942956Y-88868457D01*
X169930974Y-88888448D01*
X169917090Y-88907168D01*
X169901438Y-88924438D01*
X169884168Y-88940090D01*
X169865448Y-88953974D01*
X169845457Y-88965956D01*
X169824387Y-88975921D01*
X169802443Y-88983773D01*
X169779834Y-88989437D01*
X169756779Y-88992856D01*
X169733500Y-88994000D01*
X169158500Y-88994000D01*
X169135221Y-88992856D01*
X169112166Y-88989437D01*
X169089557Y-88983773D01*
X169067613Y-88975921D01*
X169046543Y-88965956D01*
X169026552Y-88953974D01*
X169007832Y-88940090D01*
X168990562Y-88924438D01*
X168974910Y-88907168D01*
X168961026Y-88888448D01*
X168949044Y-88868457D01*
X168939079Y-88847387D01*
X168931227Y-88825443D01*
X168925563Y-88802834D01*
X168922144Y-88779779D01*
X168921000Y-88756500D01*
X168921000Y-88281500D01*
X168922144Y-88258221D01*
X168925563Y-88235166D01*
X168931227Y-88212557D01*
X168939079Y-88190613D01*
X168949044Y-88169543D01*
X168961026Y-88149552D01*
X168974910Y-88130832D01*
X168990562Y-88113562D01*
X169007832Y-88097910D01*
X169026552Y-88084026D01*
X169046543Y-88072044D01*
X169067613Y-88062079D01*
X169089557Y-88054227D01*
X169112166Y-88048563D01*
X169135221Y-88045144D01*
X169158500Y-88044000D01*
X169733500Y-88044000D01*
X169756779Y-88045144D01*
X169756779Y-88045144D01*
G37*
D13*
X169446000Y-88519000D03*
D12*
G36*
X171506779Y-88045144D02*
X171529834Y-88048563D01*
X171552443Y-88054227D01*
X171574387Y-88062079D01*
X171595457Y-88072044D01*
X171615448Y-88084026D01*
X171634168Y-88097910D01*
X171651438Y-88113562D01*
X171667090Y-88130832D01*
X171680974Y-88149552D01*
X171692956Y-88169543D01*
X171702921Y-88190613D01*
X171710773Y-88212557D01*
X171716437Y-88235166D01*
X171719856Y-88258221D01*
X171721000Y-88281500D01*
X171721000Y-88756500D01*
X171719856Y-88779779D01*
X171716437Y-88802834D01*
X171710773Y-88825443D01*
X171702921Y-88847387D01*
X171692956Y-88868457D01*
X171680974Y-88888448D01*
X171667090Y-88907168D01*
X171651438Y-88924438D01*
X171634168Y-88940090D01*
X171615448Y-88953974D01*
X171595457Y-88965956D01*
X171574387Y-88975921D01*
X171552443Y-88983773D01*
X171529834Y-88989437D01*
X171506779Y-88992856D01*
X171483500Y-88994000D01*
X170908500Y-88994000D01*
X170885221Y-88992856D01*
X170862166Y-88989437D01*
X170839557Y-88983773D01*
X170817613Y-88975921D01*
X170796543Y-88965956D01*
X170776552Y-88953974D01*
X170757832Y-88940090D01*
X170740562Y-88924438D01*
X170724910Y-88907168D01*
X170711026Y-88888448D01*
X170699044Y-88868457D01*
X170689079Y-88847387D01*
X170681227Y-88825443D01*
X170675563Y-88802834D01*
X170672144Y-88779779D01*
X170671000Y-88756500D01*
X170671000Y-88281500D01*
X170672144Y-88258221D01*
X170675563Y-88235166D01*
X170681227Y-88212557D01*
X170689079Y-88190613D01*
X170699044Y-88169543D01*
X170711026Y-88149552D01*
X170724910Y-88130832D01*
X170740562Y-88113562D01*
X170757832Y-88097910D01*
X170776552Y-88084026D01*
X170796543Y-88072044D01*
X170817613Y-88062079D01*
X170839557Y-88054227D01*
X170862166Y-88048563D01*
X170885221Y-88045144D01*
X170908500Y-88044000D01*
X171483500Y-88044000D01*
X171506779Y-88045144D01*
X171506779Y-88045144D01*
G37*
D13*
X171196000Y-88519000D03*
G04 #@! TD*
D12*
G04 #@! TO.C,C3*
G36*
X132472029Y-60013704D02*
X132495084Y-60017123D01*
X132517693Y-60022787D01*
X132539637Y-60030639D01*
X132560707Y-60040604D01*
X132580698Y-60052586D01*
X132599418Y-60066470D01*
X132616688Y-60082122D01*
X132632340Y-60099392D01*
X132646224Y-60118112D01*
X132658206Y-60138103D01*
X132668171Y-60159173D01*
X132676023Y-60181117D01*
X132681687Y-60203726D01*
X132685106Y-60226781D01*
X132686250Y-60250060D01*
X132686250Y-60725060D01*
X132685106Y-60748339D01*
X132681687Y-60771394D01*
X132676023Y-60794003D01*
X132668171Y-60815947D01*
X132658206Y-60837017D01*
X132646224Y-60857008D01*
X132632340Y-60875728D01*
X132616688Y-60892998D01*
X132599418Y-60908650D01*
X132580698Y-60922534D01*
X132560707Y-60934516D01*
X132539637Y-60944481D01*
X132517693Y-60952333D01*
X132495084Y-60957997D01*
X132472029Y-60961416D01*
X132448750Y-60962560D01*
X131873750Y-60962560D01*
X131850471Y-60961416D01*
X131827416Y-60957997D01*
X131804807Y-60952333D01*
X131782863Y-60944481D01*
X131761793Y-60934516D01*
X131741802Y-60922534D01*
X131723082Y-60908650D01*
X131705812Y-60892998D01*
X131690160Y-60875728D01*
X131676276Y-60857008D01*
X131664294Y-60837017D01*
X131654329Y-60815947D01*
X131646477Y-60794003D01*
X131640813Y-60771394D01*
X131637394Y-60748339D01*
X131636250Y-60725060D01*
X131636250Y-60250060D01*
X131637394Y-60226781D01*
X131640813Y-60203726D01*
X131646477Y-60181117D01*
X131654329Y-60159173D01*
X131664294Y-60138103D01*
X131676276Y-60118112D01*
X131690160Y-60099392D01*
X131705812Y-60082122D01*
X131723082Y-60066470D01*
X131741802Y-60052586D01*
X131761793Y-60040604D01*
X131782863Y-60030639D01*
X131804807Y-60022787D01*
X131827416Y-60017123D01*
X131850471Y-60013704D01*
X131873750Y-60012560D01*
X132448750Y-60012560D01*
X132472029Y-60013704D01*
X132472029Y-60013704D01*
G37*
D13*
X132161250Y-60487560D03*
D12*
G36*
X130722029Y-60013704D02*
X130745084Y-60017123D01*
X130767693Y-60022787D01*
X130789637Y-60030639D01*
X130810707Y-60040604D01*
X130830698Y-60052586D01*
X130849418Y-60066470D01*
X130866688Y-60082122D01*
X130882340Y-60099392D01*
X130896224Y-60118112D01*
X130908206Y-60138103D01*
X130918171Y-60159173D01*
X130926023Y-60181117D01*
X130931687Y-60203726D01*
X130935106Y-60226781D01*
X130936250Y-60250060D01*
X130936250Y-60725060D01*
X130935106Y-60748339D01*
X130931687Y-60771394D01*
X130926023Y-60794003D01*
X130918171Y-60815947D01*
X130908206Y-60837017D01*
X130896224Y-60857008D01*
X130882340Y-60875728D01*
X130866688Y-60892998D01*
X130849418Y-60908650D01*
X130830698Y-60922534D01*
X130810707Y-60934516D01*
X130789637Y-60944481D01*
X130767693Y-60952333D01*
X130745084Y-60957997D01*
X130722029Y-60961416D01*
X130698750Y-60962560D01*
X130123750Y-60962560D01*
X130100471Y-60961416D01*
X130077416Y-60957997D01*
X130054807Y-60952333D01*
X130032863Y-60944481D01*
X130011793Y-60934516D01*
X129991802Y-60922534D01*
X129973082Y-60908650D01*
X129955812Y-60892998D01*
X129940160Y-60875728D01*
X129926276Y-60857008D01*
X129914294Y-60837017D01*
X129904329Y-60815947D01*
X129896477Y-60794003D01*
X129890813Y-60771394D01*
X129887394Y-60748339D01*
X129886250Y-60725060D01*
X129886250Y-60250060D01*
X129887394Y-60226781D01*
X129890813Y-60203726D01*
X129896477Y-60181117D01*
X129904329Y-60159173D01*
X129914294Y-60138103D01*
X129926276Y-60118112D01*
X129940160Y-60099392D01*
X129955812Y-60082122D01*
X129973082Y-60066470D01*
X129991802Y-60052586D01*
X130011793Y-60040604D01*
X130032863Y-60030639D01*
X130054807Y-60022787D01*
X130077416Y-60017123D01*
X130100471Y-60013704D01*
X130123750Y-60012560D01*
X130698750Y-60012560D01*
X130722029Y-60013704D01*
X130722029Y-60013704D01*
G37*
D13*
X130411250Y-60487560D03*
G04 #@! TD*
D12*
G04 #@! TO.C,C4*
G36*
X132472029Y-62045704D02*
X132495084Y-62049123D01*
X132517693Y-62054787D01*
X132539637Y-62062639D01*
X132560707Y-62072604D01*
X132580698Y-62084586D01*
X132599418Y-62098470D01*
X132616688Y-62114122D01*
X132632340Y-62131392D01*
X132646224Y-62150112D01*
X132658206Y-62170103D01*
X132668171Y-62191173D01*
X132676023Y-62213117D01*
X132681687Y-62235726D01*
X132685106Y-62258781D01*
X132686250Y-62282060D01*
X132686250Y-62757060D01*
X132685106Y-62780339D01*
X132681687Y-62803394D01*
X132676023Y-62826003D01*
X132668171Y-62847947D01*
X132658206Y-62869017D01*
X132646224Y-62889008D01*
X132632340Y-62907728D01*
X132616688Y-62924998D01*
X132599418Y-62940650D01*
X132580698Y-62954534D01*
X132560707Y-62966516D01*
X132539637Y-62976481D01*
X132517693Y-62984333D01*
X132495084Y-62989997D01*
X132472029Y-62993416D01*
X132448750Y-62994560D01*
X131873750Y-62994560D01*
X131850471Y-62993416D01*
X131827416Y-62989997D01*
X131804807Y-62984333D01*
X131782863Y-62976481D01*
X131761793Y-62966516D01*
X131741802Y-62954534D01*
X131723082Y-62940650D01*
X131705812Y-62924998D01*
X131690160Y-62907728D01*
X131676276Y-62889008D01*
X131664294Y-62869017D01*
X131654329Y-62847947D01*
X131646477Y-62826003D01*
X131640813Y-62803394D01*
X131637394Y-62780339D01*
X131636250Y-62757060D01*
X131636250Y-62282060D01*
X131637394Y-62258781D01*
X131640813Y-62235726D01*
X131646477Y-62213117D01*
X131654329Y-62191173D01*
X131664294Y-62170103D01*
X131676276Y-62150112D01*
X131690160Y-62131392D01*
X131705812Y-62114122D01*
X131723082Y-62098470D01*
X131741802Y-62084586D01*
X131761793Y-62072604D01*
X131782863Y-62062639D01*
X131804807Y-62054787D01*
X131827416Y-62049123D01*
X131850471Y-62045704D01*
X131873750Y-62044560D01*
X132448750Y-62044560D01*
X132472029Y-62045704D01*
X132472029Y-62045704D01*
G37*
D13*
X132161250Y-62519560D03*
D12*
G36*
X130722029Y-62045704D02*
X130745084Y-62049123D01*
X130767693Y-62054787D01*
X130789637Y-62062639D01*
X130810707Y-62072604D01*
X130830698Y-62084586D01*
X130849418Y-62098470D01*
X130866688Y-62114122D01*
X130882340Y-62131392D01*
X130896224Y-62150112D01*
X130908206Y-62170103D01*
X130918171Y-62191173D01*
X130926023Y-62213117D01*
X130931687Y-62235726D01*
X130935106Y-62258781D01*
X130936250Y-62282060D01*
X130936250Y-62757060D01*
X130935106Y-62780339D01*
X130931687Y-62803394D01*
X130926023Y-62826003D01*
X130918171Y-62847947D01*
X130908206Y-62869017D01*
X130896224Y-62889008D01*
X130882340Y-62907728D01*
X130866688Y-62924998D01*
X130849418Y-62940650D01*
X130830698Y-62954534D01*
X130810707Y-62966516D01*
X130789637Y-62976481D01*
X130767693Y-62984333D01*
X130745084Y-62989997D01*
X130722029Y-62993416D01*
X130698750Y-62994560D01*
X130123750Y-62994560D01*
X130100471Y-62993416D01*
X130077416Y-62989997D01*
X130054807Y-62984333D01*
X130032863Y-62976481D01*
X130011793Y-62966516D01*
X129991802Y-62954534D01*
X129973082Y-62940650D01*
X129955812Y-62924998D01*
X129940160Y-62907728D01*
X129926276Y-62889008D01*
X129914294Y-62869017D01*
X129904329Y-62847947D01*
X129896477Y-62826003D01*
X129890813Y-62803394D01*
X129887394Y-62780339D01*
X129886250Y-62757060D01*
X129886250Y-62282060D01*
X129887394Y-62258781D01*
X129890813Y-62235726D01*
X129896477Y-62213117D01*
X129904329Y-62191173D01*
X129914294Y-62170103D01*
X129926276Y-62150112D01*
X129940160Y-62131392D01*
X129955812Y-62114122D01*
X129973082Y-62098470D01*
X129991802Y-62084586D01*
X130011793Y-62072604D01*
X130032863Y-62062639D01*
X130054807Y-62054787D01*
X130077416Y-62049123D01*
X130100471Y-62045704D01*
X130123750Y-62044560D01*
X130698750Y-62044560D01*
X130722029Y-62045704D01*
X130722029Y-62045704D01*
G37*
D13*
X130411250Y-62519560D03*
G04 #@! TD*
D12*
G04 #@! TO.C,C5*
G36*
X132086779Y-38705144D02*
X132109834Y-38708563D01*
X132132443Y-38714227D01*
X132154387Y-38722079D01*
X132175457Y-38732044D01*
X132195448Y-38744026D01*
X132214168Y-38757910D01*
X132231438Y-38773562D01*
X132247090Y-38790832D01*
X132260974Y-38809552D01*
X132272956Y-38829543D01*
X132282921Y-38850613D01*
X132290773Y-38872557D01*
X132296437Y-38895166D01*
X132299856Y-38918221D01*
X132301000Y-38941500D01*
X132301000Y-39516500D01*
X132299856Y-39539779D01*
X132296437Y-39562834D01*
X132290773Y-39585443D01*
X132282921Y-39607387D01*
X132272956Y-39628457D01*
X132260974Y-39648448D01*
X132247090Y-39667168D01*
X132231438Y-39684438D01*
X132214168Y-39700090D01*
X132195448Y-39713974D01*
X132175457Y-39725956D01*
X132154387Y-39735921D01*
X132132443Y-39743773D01*
X132109834Y-39749437D01*
X132086779Y-39752856D01*
X132063500Y-39754000D01*
X131588500Y-39754000D01*
X131565221Y-39752856D01*
X131542166Y-39749437D01*
X131519557Y-39743773D01*
X131497613Y-39735921D01*
X131476543Y-39725956D01*
X131456552Y-39713974D01*
X131437832Y-39700090D01*
X131420562Y-39684438D01*
X131404910Y-39667168D01*
X131391026Y-39648448D01*
X131379044Y-39628457D01*
X131369079Y-39607387D01*
X131361227Y-39585443D01*
X131355563Y-39562834D01*
X131352144Y-39539779D01*
X131351000Y-39516500D01*
X131351000Y-38941500D01*
X131352144Y-38918221D01*
X131355563Y-38895166D01*
X131361227Y-38872557D01*
X131369079Y-38850613D01*
X131379044Y-38829543D01*
X131391026Y-38809552D01*
X131404910Y-38790832D01*
X131420562Y-38773562D01*
X131437832Y-38757910D01*
X131456552Y-38744026D01*
X131476543Y-38732044D01*
X131497613Y-38722079D01*
X131519557Y-38714227D01*
X131542166Y-38708563D01*
X131565221Y-38705144D01*
X131588500Y-38704000D01*
X132063500Y-38704000D01*
X132086779Y-38705144D01*
X132086779Y-38705144D01*
G37*
D13*
X131826000Y-39229000D03*
D12*
G36*
X132086779Y-36955144D02*
X132109834Y-36958563D01*
X132132443Y-36964227D01*
X132154387Y-36972079D01*
X132175457Y-36982044D01*
X132195448Y-36994026D01*
X132214168Y-37007910D01*
X132231438Y-37023562D01*
X132247090Y-37040832D01*
X132260974Y-37059552D01*
X132272956Y-37079543D01*
X132282921Y-37100613D01*
X132290773Y-37122557D01*
X132296437Y-37145166D01*
X132299856Y-37168221D01*
X132301000Y-37191500D01*
X132301000Y-37766500D01*
X132299856Y-37789779D01*
X132296437Y-37812834D01*
X132290773Y-37835443D01*
X132282921Y-37857387D01*
X132272956Y-37878457D01*
X132260974Y-37898448D01*
X132247090Y-37917168D01*
X132231438Y-37934438D01*
X132214168Y-37950090D01*
X132195448Y-37963974D01*
X132175457Y-37975956D01*
X132154387Y-37985921D01*
X132132443Y-37993773D01*
X132109834Y-37999437D01*
X132086779Y-38002856D01*
X132063500Y-38004000D01*
X131588500Y-38004000D01*
X131565221Y-38002856D01*
X131542166Y-37999437D01*
X131519557Y-37993773D01*
X131497613Y-37985921D01*
X131476543Y-37975956D01*
X131456552Y-37963974D01*
X131437832Y-37950090D01*
X131420562Y-37934438D01*
X131404910Y-37917168D01*
X131391026Y-37898448D01*
X131379044Y-37878457D01*
X131369079Y-37857387D01*
X131361227Y-37835443D01*
X131355563Y-37812834D01*
X131352144Y-37789779D01*
X131351000Y-37766500D01*
X131351000Y-37191500D01*
X131352144Y-37168221D01*
X131355563Y-37145166D01*
X131361227Y-37122557D01*
X131369079Y-37100613D01*
X131379044Y-37079543D01*
X131391026Y-37059552D01*
X131404910Y-37040832D01*
X131420562Y-37023562D01*
X131437832Y-37007910D01*
X131456552Y-36994026D01*
X131476543Y-36982044D01*
X131497613Y-36972079D01*
X131519557Y-36964227D01*
X131542166Y-36958563D01*
X131565221Y-36955144D01*
X131588500Y-36954000D01*
X132063500Y-36954000D01*
X132086779Y-36955144D01*
X132086779Y-36955144D01*
G37*
D13*
X131826000Y-37479000D03*
G04 #@! TD*
D12*
G04 #@! TO.C,C8*
G36*
X129116779Y-103920144D02*
X129139834Y-103923563D01*
X129162443Y-103929227D01*
X129184387Y-103937079D01*
X129205457Y-103947044D01*
X129225448Y-103959026D01*
X129244168Y-103972910D01*
X129261438Y-103988562D01*
X129277090Y-104005832D01*
X129290974Y-104024552D01*
X129302956Y-104044543D01*
X129312921Y-104065613D01*
X129320773Y-104087557D01*
X129326437Y-104110166D01*
X129329856Y-104133221D01*
X129331000Y-104156500D01*
X129331000Y-104631500D01*
X129329856Y-104654779D01*
X129326437Y-104677834D01*
X129320773Y-104700443D01*
X129312921Y-104722387D01*
X129302956Y-104743457D01*
X129290974Y-104763448D01*
X129277090Y-104782168D01*
X129261438Y-104799438D01*
X129244168Y-104815090D01*
X129225448Y-104828974D01*
X129205457Y-104840956D01*
X129184387Y-104850921D01*
X129162443Y-104858773D01*
X129139834Y-104864437D01*
X129116779Y-104867856D01*
X129093500Y-104869000D01*
X128518500Y-104869000D01*
X128495221Y-104867856D01*
X128472166Y-104864437D01*
X128449557Y-104858773D01*
X128427613Y-104850921D01*
X128406543Y-104840956D01*
X128386552Y-104828974D01*
X128367832Y-104815090D01*
X128350562Y-104799438D01*
X128334910Y-104782168D01*
X128321026Y-104763448D01*
X128309044Y-104743457D01*
X128299079Y-104722387D01*
X128291227Y-104700443D01*
X128285563Y-104677834D01*
X128282144Y-104654779D01*
X128281000Y-104631500D01*
X128281000Y-104156500D01*
X128282144Y-104133221D01*
X128285563Y-104110166D01*
X128291227Y-104087557D01*
X128299079Y-104065613D01*
X128309044Y-104044543D01*
X128321026Y-104024552D01*
X128334910Y-104005832D01*
X128350562Y-103988562D01*
X128367832Y-103972910D01*
X128386552Y-103959026D01*
X128406543Y-103947044D01*
X128427613Y-103937079D01*
X128449557Y-103929227D01*
X128472166Y-103923563D01*
X128495221Y-103920144D01*
X128518500Y-103919000D01*
X129093500Y-103919000D01*
X129116779Y-103920144D01*
X129116779Y-103920144D01*
G37*
D13*
X128806000Y-104394000D03*
D12*
G36*
X130866779Y-103920144D02*
X130889834Y-103923563D01*
X130912443Y-103929227D01*
X130934387Y-103937079D01*
X130955457Y-103947044D01*
X130975448Y-103959026D01*
X130994168Y-103972910D01*
X131011438Y-103988562D01*
X131027090Y-104005832D01*
X131040974Y-104024552D01*
X131052956Y-104044543D01*
X131062921Y-104065613D01*
X131070773Y-104087557D01*
X131076437Y-104110166D01*
X131079856Y-104133221D01*
X131081000Y-104156500D01*
X131081000Y-104631500D01*
X131079856Y-104654779D01*
X131076437Y-104677834D01*
X131070773Y-104700443D01*
X131062921Y-104722387D01*
X131052956Y-104743457D01*
X131040974Y-104763448D01*
X131027090Y-104782168D01*
X131011438Y-104799438D01*
X130994168Y-104815090D01*
X130975448Y-104828974D01*
X130955457Y-104840956D01*
X130934387Y-104850921D01*
X130912443Y-104858773D01*
X130889834Y-104864437D01*
X130866779Y-104867856D01*
X130843500Y-104869000D01*
X130268500Y-104869000D01*
X130245221Y-104867856D01*
X130222166Y-104864437D01*
X130199557Y-104858773D01*
X130177613Y-104850921D01*
X130156543Y-104840956D01*
X130136552Y-104828974D01*
X130117832Y-104815090D01*
X130100562Y-104799438D01*
X130084910Y-104782168D01*
X130071026Y-104763448D01*
X130059044Y-104743457D01*
X130049079Y-104722387D01*
X130041227Y-104700443D01*
X130035563Y-104677834D01*
X130032144Y-104654779D01*
X130031000Y-104631500D01*
X130031000Y-104156500D01*
X130032144Y-104133221D01*
X130035563Y-104110166D01*
X130041227Y-104087557D01*
X130049079Y-104065613D01*
X130059044Y-104044543D01*
X130071026Y-104024552D01*
X130084910Y-104005832D01*
X130100562Y-103988562D01*
X130117832Y-103972910D01*
X130136552Y-103959026D01*
X130156543Y-103947044D01*
X130177613Y-103937079D01*
X130199557Y-103929227D01*
X130222166Y-103923563D01*
X130245221Y-103920144D01*
X130268500Y-103919000D01*
X130843500Y-103919000D01*
X130866779Y-103920144D01*
X130866779Y-103920144D01*
G37*
D13*
X130556000Y-104394000D03*
G04 #@! TD*
D12*
G04 #@! TO.C,C9*
G36*
X125736779Y-97661144D02*
X125759834Y-97664563D01*
X125782443Y-97670227D01*
X125804387Y-97678079D01*
X125825457Y-97688044D01*
X125845448Y-97700026D01*
X125864168Y-97713910D01*
X125881438Y-97729562D01*
X125897090Y-97746832D01*
X125910974Y-97765552D01*
X125922956Y-97785543D01*
X125932921Y-97806613D01*
X125940773Y-97828557D01*
X125946437Y-97851166D01*
X125949856Y-97874221D01*
X125951000Y-97897500D01*
X125951000Y-98472500D01*
X125949856Y-98495779D01*
X125946437Y-98518834D01*
X125940773Y-98541443D01*
X125932921Y-98563387D01*
X125922956Y-98584457D01*
X125910974Y-98604448D01*
X125897090Y-98623168D01*
X125881438Y-98640438D01*
X125864168Y-98656090D01*
X125845448Y-98669974D01*
X125825457Y-98681956D01*
X125804387Y-98691921D01*
X125782443Y-98699773D01*
X125759834Y-98705437D01*
X125736779Y-98708856D01*
X125713500Y-98710000D01*
X125238500Y-98710000D01*
X125215221Y-98708856D01*
X125192166Y-98705437D01*
X125169557Y-98699773D01*
X125147613Y-98691921D01*
X125126543Y-98681956D01*
X125106552Y-98669974D01*
X125087832Y-98656090D01*
X125070562Y-98640438D01*
X125054910Y-98623168D01*
X125041026Y-98604448D01*
X125029044Y-98584457D01*
X125019079Y-98563387D01*
X125011227Y-98541443D01*
X125005563Y-98518834D01*
X125002144Y-98495779D01*
X125001000Y-98472500D01*
X125001000Y-97897500D01*
X125002144Y-97874221D01*
X125005563Y-97851166D01*
X125011227Y-97828557D01*
X125019079Y-97806613D01*
X125029044Y-97785543D01*
X125041026Y-97765552D01*
X125054910Y-97746832D01*
X125070562Y-97729562D01*
X125087832Y-97713910D01*
X125106552Y-97700026D01*
X125126543Y-97688044D01*
X125147613Y-97678079D01*
X125169557Y-97670227D01*
X125192166Y-97664563D01*
X125215221Y-97661144D01*
X125238500Y-97660000D01*
X125713500Y-97660000D01*
X125736779Y-97661144D01*
X125736779Y-97661144D01*
G37*
D13*
X125476000Y-98185000D03*
D12*
G36*
X125736779Y-99411144D02*
X125759834Y-99414563D01*
X125782443Y-99420227D01*
X125804387Y-99428079D01*
X125825457Y-99438044D01*
X125845448Y-99450026D01*
X125864168Y-99463910D01*
X125881438Y-99479562D01*
X125897090Y-99496832D01*
X125910974Y-99515552D01*
X125922956Y-99535543D01*
X125932921Y-99556613D01*
X125940773Y-99578557D01*
X125946437Y-99601166D01*
X125949856Y-99624221D01*
X125951000Y-99647500D01*
X125951000Y-100222500D01*
X125949856Y-100245779D01*
X125946437Y-100268834D01*
X125940773Y-100291443D01*
X125932921Y-100313387D01*
X125922956Y-100334457D01*
X125910974Y-100354448D01*
X125897090Y-100373168D01*
X125881438Y-100390438D01*
X125864168Y-100406090D01*
X125845448Y-100419974D01*
X125825457Y-100431956D01*
X125804387Y-100441921D01*
X125782443Y-100449773D01*
X125759834Y-100455437D01*
X125736779Y-100458856D01*
X125713500Y-100460000D01*
X125238500Y-100460000D01*
X125215221Y-100458856D01*
X125192166Y-100455437D01*
X125169557Y-100449773D01*
X125147613Y-100441921D01*
X125126543Y-100431956D01*
X125106552Y-100419974D01*
X125087832Y-100406090D01*
X125070562Y-100390438D01*
X125054910Y-100373168D01*
X125041026Y-100354448D01*
X125029044Y-100334457D01*
X125019079Y-100313387D01*
X125011227Y-100291443D01*
X125005563Y-100268834D01*
X125002144Y-100245779D01*
X125001000Y-100222500D01*
X125001000Y-99647500D01*
X125002144Y-99624221D01*
X125005563Y-99601166D01*
X125011227Y-99578557D01*
X125019079Y-99556613D01*
X125029044Y-99535543D01*
X125041026Y-99515552D01*
X125054910Y-99496832D01*
X125070562Y-99479562D01*
X125087832Y-99463910D01*
X125106552Y-99450026D01*
X125126543Y-99438044D01*
X125147613Y-99428079D01*
X125169557Y-99420227D01*
X125192166Y-99414563D01*
X125215221Y-99411144D01*
X125238500Y-99410000D01*
X125713500Y-99410000D01*
X125736779Y-99411144D01*
X125736779Y-99411144D01*
G37*
D13*
X125476000Y-99935000D03*
G04 #@! TD*
D12*
G04 #@! TO.C,C11*
G36*
X126915779Y-103920144D02*
X126938834Y-103923563D01*
X126961443Y-103929227D01*
X126983387Y-103937079D01*
X127004457Y-103947044D01*
X127024448Y-103959026D01*
X127043168Y-103972910D01*
X127060438Y-103988562D01*
X127076090Y-104005832D01*
X127089974Y-104024552D01*
X127101956Y-104044543D01*
X127111921Y-104065613D01*
X127119773Y-104087557D01*
X127125437Y-104110166D01*
X127128856Y-104133221D01*
X127130000Y-104156500D01*
X127130000Y-104631500D01*
X127128856Y-104654779D01*
X127125437Y-104677834D01*
X127119773Y-104700443D01*
X127111921Y-104722387D01*
X127101956Y-104743457D01*
X127089974Y-104763448D01*
X127076090Y-104782168D01*
X127060438Y-104799438D01*
X127043168Y-104815090D01*
X127024448Y-104828974D01*
X127004457Y-104840956D01*
X126983387Y-104850921D01*
X126961443Y-104858773D01*
X126938834Y-104864437D01*
X126915779Y-104867856D01*
X126892500Y-104869000D01*
X126317500Y-104869000D01*
X126294221Y-104867856D01*
X126271166Y-104864437D01*
X126248557Y-104858773D01*
X126226613Y-104850921D01*
X126205543Y-104840956D01*
X126185552Y-104828974D01*
X126166832Y-104815090D01*
X126149562Y-104799438D01*
X126133910Y-104782168D01*
X126120026Y-104763448D01*
X126108044Y-104743457D01*
X126098079Y-104722387D01*
X126090227Y-104700443D01*
X126084563Y-104677834D01*
X126081144Y-104654779D01*
X126080000Y-104631500D01*
X126080000Y-104156500D01*
X126081144Y-104133221D01*
X126084563Y-104110166D01*
X126090227Y-104087557D01*
X126098079Y-104065613D01*
X126108044Y-104044543D01*
X126120026Y-104024552D01*
X126133910Y-104005832D01*
X126149562Y-103988562D01*
X126166832Y-103972910D01*
X126185552Y-103959026D01*
X126205543Y-103947044D01*
X126226613Y-103937079D01*
X126248557Y-103929227D01*
X126271166Y-103923563D01*
X126294221Y-103920144D01*
X126317500Y-103919000D01*
X126892500Y-103919000D01*
X126915779Y-103920144D01*
X126915779Y-103920144D01*
G37*
D13*
X126605000Y-104394000D03*
D12*
G36*
X125165779Y-103920144D02*
X125188834Y-103923563D01*
X125211443Y-103929227D01*
X125233387Y-103937079D01*
X125254457Y-103947044D01*
X125274448Y-103959026D01*
X125293168Y-103972910D01*
X125310438Y-103988562D01*
X125326090Y-104005832D01*
X125339974Y-104024552D01*
X125351956Y-104044543D01*
X125361921Y-104065613D01*
X125369773Y-104087557D01*
X125375437Y-104110166D01*
X125378856Y-104133221D01*
X125380000Y-104156500D01*
X125380000Y-104631500D01*
X125378856Y-104654779D01*
X125375437Y-104677834D01*
X125369773Y-104700443D01*
X125361921Y-104722387D01*
X125351956Y-104743457D01*
X125339974Y-104763448D01*
X125326090Y-104782168D01*
X125310438Y-104799438D01*
X125293168Y-104815090D01*
X125274448Y-104828974D01*
X125254457Y-104840956D01*
X125233387Y-104850921D01*
X125211443Y-104858773D01*
X125188834Y-104864437D01*
X125165779Y-104867856D01*
X125142500Y-104869000D01*
X124567500Y-104869000D01*
X124544221Y-104867856D01*
X124521166Y-104864437D01*
X124498557Y-104858773D01*
X124476613Y-104850921D01*
X124455543Y-104840956D01*
X124435552Y-104828974D01*
X124416832Y-104815090D01*
X124399562Y-104799438D01*
X124383910Y-104782168D01*
X124370026Y-104763448D01*
X124358044Y-104743457D01*
X124348079Y-104722387D01*
X124340227Y-104700443D01*
X124334563Y-104677834D01*
X124331144Y-104654779D01*
X124330000Y-104631500D01*
X124330000Y-104156500D01*
X124331144Y-104133221D01*
X124334563Y-104110166D01*
X124340227Y-104087557D01*
X124348079Y-104065613D01*
X124358044Y-104044543D01*
X124370026Y-104024552D01*
X124383910Y-104005832D01*
X124399562Y-103988562D01*
X124416832Y-103972910D01*
X124435552Y-103959026D01*
X124455543Y-103947044D01*
X124476613Y-103937079D01*
X124498557Y-103929227D01*
X124521166Y-103923563D01*
X124544221Y-103920144D01*
X124567500Y-103919000D01*
X125142500Y-103919000D01*
X125165779Y-103920144D01*
X125165779Y-103920144D01*
G37*
D13*
X124855000Y-104394000D03*
G04 #@! TD*
D12*
G04 #@! TO.C,D1*
G36*
X138486779Y-49818144D02*
X138509834Y-49821563D01*
X138532443Y-49827227D01*
X138554387Y-49835079D01*
X138575457Y-49845044D01*
X138595448Y-49857026D01*
X138614168Y-49870910D01*
X138631438Y-49886562D01*
X138647090Y-49903832D01*
X138660974Y-49922552D01*
X138672956Y-49942543D01*
X138682921Y-49963613D01*
X138690773Y-49985557D01*
X138696437Y-50008166D01*
X138699856Y-50031221D01*
X138701000Y-50054500D01*
X138701000Y-50529500D01*
X138699856Y-50552779D01*
X138696437Y-50575834D01*
X138690773Y-50598443D01*
X138682921Y-50620387D01*
X138672956Y-50641457D01*
X138660974Y-50661448D01*
X138647090Y-50680168D01*
X138631438Y-50697438D01*
X138614168Y-50713090D01*
X138595448Y-50726974D01*
X138575457Y-50738956D01*
X138554387Y-50748921D01*
X138532443Y-50756773D01*
X138509834Y-50762437D01*
X138486779Y-50765856D01*
X138463500Y-50767000D01*
X137888500Y-50767000D01*
X137865221Y-50765856D01*
X137842166Y-50762437D01*
X137819557Y-50756773D01*
X137797613Y-50748921D01*
X137776543Y-50738956D01*
X137756552Y-50726974D01*
X137737832Y-50713090D01*
X137720562Y-50697438D01*
X137704910Y-50680168D01*
X137691026Y-50661448D01*
X137679044Y-50641457D01*
X137669079Y-50620387D01*
X137661227Y-50598443D01*
X137655563Y-50575834D01*
X137652144Y-50552779D01*
X137651000Y-50529500D01*
X137651000Y-50054500D01*
X137652144Y-50031221D01*
X137655563Y-50008166D01*
X137661227Y-49985557D01*
X137669079Y-49963613D01*
X137679044Y-49942543D01*
X137691026Y-49922552D01*
X137704910Y-49903832D01*
X137720562Y-49886562D01*
X137737832Y-49870910D01*
X137756552Y-49857026D01*
X137776543Y-49845044D01*
X137797613Y-49835079D01*
X137819557Y-49827227D01*
X137842166Y-49821563D01*
X137865221Y-49818144D01*
X137888500Y-49817000D01*
X138463500Y-49817000D01*
X138486779Y-49818144D01*
X138486779Y-49818144D01*
G37*
D13*
X138176000Y-50292000D03*
D12*
G36*
X136736779Y-49818144D02*
X136759834Y-49821563D01*
X136782443Y-49827227D01*
X136804387Y-49835079D01*
X136825457Y-49845044D01*
X136845448Y-49857026D01*
X136864168Y-49870910D01*
X136881438Y-49886562D01*
X136897090Y-49903832D01*
X136910974Y-49922552D01*
X136922956Y-49942543D01*
X136932921Y-49963613D01*
X136940773Y-49985557D01*
X136946437Y-50008166D01*
X136949856Y-50031221D01*
X136951000Y-50054500D01*
X136951000Y-50529500D01*
X136949856Y-50552779D01*
X136946437Y-50575834D01*
X136940773Y-50598443D01*
X136932921Y-50620387D01*
X136922956Y-50641457D01*
X136910974Y-50661448D01*
X136897090Y-50680168D01*
X136881438Y-50697438D01*
X136864168Y-50713090D01*
X136845448Y-50726974D01*
X136825457Y-50738956D01*
X136804387Y-50748921D01*
X136782443Y-50756773D01*
X136759834Y-50762437D01*
X136736779Y-50765856D01*
X136713500Y-50767000D01*
X136138500Y-50767000D01*
X136115221Y-50765856D01*
X136092166Y-50762437D01*
X136069557Y-50756773D01*
X136047613Y-50748921D01*
X136026543Y-50738956D01*
X136006552Y-50726974D01*
X135987832Y-50713090D01*
X135970562Y-50697438D01*
X135954910Y-50680168D01*
X135941026Y-50661448D01*
X135929044Y-50641457D01*
X135919079Y-50620387D01*
X135911227Y-50598443D01*
X135905563Y-50575834D01*
X135902144Y-50552779D01*
X135901000Y-50529500D01*
X135901000Y-50054500D01*
X135902144Y-50031221D01*
X135905563Y-50008166D01*
X135911227Y-49985557D01*
X135919079Y-49963613D01*
X135929044Y-49942543D01*
X135941026Y-49922552D01*
X135954910Y-49903832D01*
X135970562Y-49886562D01*
X135987832Y-49870910D01*
X136006552Y-49857026D01*
X136026543Y-49845044D01*
X136047613Y-49835079D01*
X136069557Y-49827227D01*
X136092166Y-49821563D01*
X136115221Y-49818144D01*
X136138500Y-49817000D01*
X136713500Y-49817000D01*
X136736779Y-49818144D01*
X136736779Y-49818144D01*
G37*
D13*
X136426000Y-50292000D03*
G04 #@! TD*
D12*
G04 #@! TO.C,D2*
G36*
X169756779Y-93802444D02*
X169779834Y-93805863D01*
X169802443Y-93811527D01*
X169824387Y-93819379D01*
X169845457Y-93829344D01*
X169865448Y-93841326D01*
X169884168Y-93855210D01*
X169901438Y-93870862D01*
X169917090Y-93888132D01*
X169930974Y-93906852D01*
X169942956Y-93926843D01*
X169952921Y-93947913D01*
X169960773Y-93969857D01*
X169966437Y-93992466D01*
X169969856Y-94015521D01*
X169971000Y-94038800D01*
X169971000Y-94513800D01*
X169969856Y-94537079D01*
X169966437Y-94560134D01*
X169960773Y-94582743D01*
X169952921Y-94604687D01*
X169942956Y-94625757D01*
X169930974Y-94645748D01*
X169917090Y-94664468D01*
X169901438Y-94681738D01*
X169884168Y-94697390D01*
X169865448Y-94711274D01*
X169845457Y-94723256D01*
X169824387Y-94733221D01*
X169802443Y-94741073D01*
X169779834Y-94746737D01*
X169756779Y-94750156D01*
X169733500Y-94751300D01*
X169158500Y-94751300D01*
X169135221Y-94750156D01*
X169112166Y-94746737D01*
X169089557Y-94741073D01*
X169067613Y-94733221D01*
X169046543Y-94723256D01*
X169026552Y-94711274D01*
X169007832Y-94697390D01*
X168990562Y-94681738D01*
X168974910Y-94664468D01*
X168961026Y-94645748D01*
X168949044Y-94625757D01*
X168939079Y-94604687D01*
X168931227Y-94582743D01*
X168925563Y-94560134D01*
X168922144Y-94537079D01*
X168921000Y-94513800D01*
X168921000Y-94038800D01*
X168922144Y-94015521D01*
X168925563Y-93992466D01*
X168931227Y-93969857D01*
X168939079Y-93947913D01*
X168949044Y-93926843D01*
X168961026Y-93906852D01*
X168974910Y-93888132D01*
X168990562Y-93870862D01*
X169007832Y-93855210D01*
X169026552Y-93841326D01*
X169046543Y-93829344D01*
X169067613Y-93819379D01*
X169089557Y-93811527D01*
X169112166Y-93805863D01*
X169135221Y-93802444D01*
X169158500Y-93801300D01*
X169733500Y-93801300D01*
X169756779Y-93802444D01*
X169756779Y-93802444D01*
G37*
D13*
X169446000Y-94276300D03*
D12*
G36*
X171506779Y-93802444D02*
X171529834Y-93805863D01*
X171552443Y-93811527D01*
X171574387Y-93819379D01*
X171595457Y-93829344D01*
X171615448Y-93841326D01*
X171634168Y-93855210D01*
X171651438Y-93870862D01*
X171667090Y-93888132D01*
X171680974Y-93906852D01*
X171692956Y-93926843D01*
X171702921Y-93947913D01*
X171710773Y-93969857D01*
X171716437Y-93992466D01*
X171719856Y-94015521D01*
X171721000Y-94038800D01*
X171721000Y-94513800D01*
X171719856Y-94537079D01*
X171716437Y-94560134D01*
X171710773Y-94582743D01*
X171702921Y-94604687D01*
X171692956Y-94625757D01*
X171680974Y-94645748D01*
X171667090Y-94664468D01*
X171651438Y-94681738D01*
X171634168Y-94697390D01*
X171615448Y-94711274D01*
X171595457Y-94723256D01*
X171574387Y-94733221D01*
X171552443Y-94741073D01*
X171529834Y-94746737D01*
X171506779Y-94750156D01*
X171483500Y-94751300D01*
X170908500Y-94751300D01*
X170885221Y-94750156D01*
X170862166Y-94746737D01*
X170839557Y-94741073D01*
X170817613Y-94733221D01*
X170796543Y-94723256D01*
X170776552Y-94711274D01*
X170757832Y-94697390D01*
X170740562Y-94681738D01*
X170724910Y-94664468D01*
X170711026Y-94645748D01*
X170699044Y-94625757D01*
X170689079Y-94604687D01*
X170681227Y-94582743D01*
X170675563Y-94560134D01*
X170672144Y-94537079D01*
X170671000Y-94513800D01*
X170671000Y-94038800D01*
X170672144Y-94015521D01*
X170675563Y-93992466D01*
X170681227Y-93969857D01*
X170689079Y-93947913D01*
X170699044Y-93926843D01*
X170711026Y-93906852D01*
X170724910Y-93888132D01*
X170740562Y-93870862D01*
X170757832Y-93855210D01*
X170776552Y-93841326D01*
X170796543Y-93829344D01*
X170817613Y-93819379D01*
X170839557Y-93811527D01*
X170862166Y-93805863D01*
X170885221Y-93802444D01*
X170908500Y-93801300D01*
X171483500Y-93801300D01*
X171506779Y-93802444D01*
X171506779Y-93802444D01*
G37*
D13*
X171196000Y-94276300D03*
G04 #@! TD*
D12*
G04 #@! TO.C,D5*
G36*
X169893879Y-78710644D02*
X169916934Y-78714063D01*
X169939543Y-78719727D01*
X169961487Y-78727579D01*
X169982557Y-78737544D01*
X170002548Y-78749526D01*
X170021268Y-78763410D01*
X170038538Y-78779062D01*
X170054190Y-78796332D01*
X170068074Y-78815052D01*
X170080056Y-78835043D01*
X170090021Y-78856113D01*
X170097873Y-78878057D01*
X170103537Y-78900666D01*
X170106956Y-78923721D01*
X170108100Y-78947000D01*
X170108100Y-79422000D01*
X170106956Y-79445279D01*
X170103537Y-79468334D01*
X170097873Y-79490943D01*
X170090021Y-79512887D01*
X170080056Y-79533957D01*
X170068074Y-79553948D01*
X170054190Y-79572668D01*
X170038538Y-79589938D01*
X170021268Y-79605590D01*
X170002548Y-79619474D01*
X169982557Y-79631456D01*
X169961487Y-79641421D01*
X169939543Y-79649273D01*
X169916934Y-79654937D01*
X169893879Y-79658356D01*
X169870600Y-79659500D01*
X169295600Y-79659500D01*
X169272321Y-79658356D01*
X169249266Y-79654937D01*
X169226657Y-79649273D01*
X169204713Y-79641421D01*
X169183643Y-79631456D01*
X169163652Y-79619474D01*
X169144932Y-79605590D01*
X169127662Y-79589938D01*
X169112010Y-79572668D01*
X169098126Y-79553948D01*
X169086144Y-79533957D01*
X169076179Y-79512887D01*
X169068327Y-79490943D01*
X169062663Y-79468334D01*
X169059244Y-79445279D01*
X169058100Y-79422000D01*
X169058100Y-78947000D01*
X169059244Y-78923721D01*
X169062663Y-78900666D01*
X169068327Y-78878057D01*
X169076179Y-78856113D01*
X169086144Y-78835043D01*
X169098126Y-78815052D01*
X169112010Y-78796332D01*
X169127662Y-78779062D01*
X169144932Y-78763410D01*
X169163652Y-78749526D01*
X169183643Y-78737544D01*
X169204713Y-78727579D01*
X169226657Y-78719727D01*
X169249266Y-78714063D01*
X169272321Y-78710644D01*
X169295600Y-78709500D01*
X169870600Y-78709500D01*
X169893879Y-78710644D01*
X169893879Y-78710644D01*
G37*
D13*
X169583100Y-79184500D03*
D12*
G36*
X171643879Y-78710644D02*
X171666934Y-78714063D01*
X171689543Y-78719727D01*
X171711487Y-78727579D01*
X171732557Y-78737544D01*
X171752548Y-78749526D01*
X171771268Y-78763410D01*
X171788538Y-78779062D01*
X171804190Y-78796332D01*
X171818074Y-78815052D01*
X171830056Y-78835043D01*
X171840021Y-78856113D01*
X171847873Y-78878057D01*
X171853537Y-78900666D01*
X171856956Y-78923721D01*
X171858100Y-78947000D01*
X171858100Y-79422000D01*
X171856956Y-79445279D01*
X171853537Y-79468334D01*
X171847873Y-79490943D01*
X171840021Y-79512887D01*
X171830056Y-79533957D01*
X171818074Y-79553948D01*
X171804190Y-79572668D01*
X171788538Y-79589938D01*
X171771268Y-79605590D01*
X171752548Y-79619474D01*
X171732557Y-79631456D01*
X171711487Y-79641421D01*
X171689543Y-79649273D01*
X171666934Y-79654937D01*
X171643879Y-79658356D01*
X171620600Y-79659500D01*
X171045600Y-79659500D01*
X171022321Y-79658356D01*
X170999266Y-79654937D01*
X170976657Y-79649273D01*
X170954713Y-79641421D01*
X170933643Y-79631456D01*
X170913652Y-79619474D01*
X170894932Y-79605590D01*
X170877662Y-79589938D01*
X170862010Y-79572668D01*
X170848126Y-79553948D01*
X170836144Y-79533957D01*
X170826179Y-79512887D01*
X170818327Y-79490943D01*
X170812663Y-79468334D01*
X170809244Y-79445279D01*
X170808100Y-79422000D01*
X170808100Y-78947000D01*
X170809244Y-78923721D01*
X170812663Y-78900666D01*
X170818327Y-78878057D01*
X170826179Y-78856113D01*
X170836144Y-78835043D01*
X170848126Y-78815052D01*
X170862010Y-78796332D01*
X170877662Y-78779062D01*
X170894932Y-78763410D01*
X170913652Y-78749526D01*
X170933643Y-78737544D01*
X170954713Y-78727579D01*
X170976657Y-78719727D01*
X170999266Y-78714063D01*
X171022321Y-78710644D01*
X171045600Y-78709500D01*
X171620600Y-78709500D01*
X171643879Y-78710644D01*
X171643879Y-78710644D01*
G37*
D13*
X171333100Y-79184500D03*
G04 #@! TD*
D12*
G04 #@! TO.C,D6*
G36*
X169861413Y-81521552D02*
X169884468Y-81524971D01*
X169907077Y-81530635D01*
X169929021Y-81538487D01*
X169950091Y-81548452D01*
X169970082Y-81560434D01*
X169988802Y-81574318D01*
X170006072Y-81589970D01*
X170021724Y-81607240D01*
X170035608Y-81625960D01*
X170047590Y-81645951D01*
X170057555Y-81667021D01*
X170065407Y-81688965D01*
X170071071Y-81711574D01*
X170074490Y-81734629D01*
X170075634Y-81757908D01*
X170075634Y-82232908D01*
X170074490Y-82256187D01*
X170071071Y-82279242D01*
X170065407Y-82301851D01*
X170057555Y-82323795D01*
X170047590Y-82344865D01*
X170035608Y-82364856D01*
X170021724Y-82383576D01*
X170006072Y-82400846D01*
X169988802Y-82416498D01*
X169970082Y-82430382D01*
X169950091Y-82442364D01*
X169929021Y-82452329D01*
X169907077Y-82460181D01*
X169884468Y-82465845D01*
X169861413Y-82469264D01*
X169838134Y-82470408D01*
X169263134Y-82470408D01*
X169239855Y-82469264D01*
X169216800Y-82465845D01*
X169194191Y-82460181D01*
X169172247Y-82452329D01*
X169151177Y-82442364D01*
X169131186Y-82430382D01*
X169112466Y-82416498D01*
X169095196Y-82400846D01*
X169079544Y-82383576D01*
X169065660Y-82364856D01*
X169053678Y-82344865D01*
X169043713Y-82323795D01*
X169035861Y-82301851D01*
X169030197Y-82279242D01*
X169026778Y-82256187D01*
X169025634Y-82232908D01*
X169025634Y-81757908D01*
X169026778Y-81734629D01*
X169030197Y-81711574D01*
X169035861Y-81688965D01*
X169043713Y-81667021D01*
X169053678Y-81645951D01*
X169065660Y-81625960D01*
X169079544Y-81607240D01*
X169095196Y-81589970D01*
X169112466Y-81574318D01*
X169131186Y-81560434D01*
X169151177Y-81548452D01*
X169172247Y-81538487D01*
X169194191Y-81530635D01*
X169216800Y-81524971D01*
X169239855Y-81521552D01*
X169263134Y-81520408D01*
X169838134Y-81520408D01*
X169861413Y-81521552D01*
X169861413Y-81521552D01*
G37*
D13*
X169550634Y-81995408D03*
D12*
G36*
X171611413Y-81521552D02*
X171634468Y-81524971D01*
X171657077Y-81530635D01*
X171679021Y-81538487D01*
X171700091Y-81548452D01*
X171720082Y-81560434D01*
X171738802Y-81574318D01*
X171756072Y-81589970D01*
X171771724Y-81607240D01*
X171785608Y-81625960D01*
X171797590Y-81645951D01*
X171807555Y-81667021D01*
X171815407Y-81688965D01*
X171821071Y-81711574D01*
X171824490Y-81734629D01*
X171825634Y-81757908D01*
X171825634Y-82232908D01*
X171824490Y-82256187D01*
X171821071Y-82279242D01*
X171815407Y-82301851D01*
X171807555Y-82323795D01*
X171797590Y-82344865D01*
X171785608Y-82364856D01*
X171771724Y-82383576D01*
X171756072Y-82400846D01*
X171738802Y-82416498D01*
X171720082Y-82430382D01*
X171700091Y-82442364D01*
X171679021Y-82452329D01*
X171657077Y-82460181D01*
X171634468Y-82465845D01*
X171611413Y-82469264D01*
X171588134Y-82470408D01*
X171013134Y-82470408D01*
X170989855Y-82469264D01*
X170966800Y-82465845D01*
X170944191Y-82460181D01*
X170922247Y-82452329D01*
X170901177Y-82442364D01*
X170881186Y-82430382D01*
X170862466Y-82416498D01*
X170845196Y-82400846D01*
X170829544Y-82383576D01*
X170815660Y-82364856D01*
X170803678Y-82344865D01*
X170793713Y-82323795D01*
X170785861Y-82301851D01*
X170780197Y-82279242D01*
X170776778Y-82256187D01*
X170775634Y-82232908D01*
X170775634Y-81757908D01*
X170776778Y-81734629D01*
X170780197Y-81711574D01*
X170785861Y-81688965D01*
X170793713Y-81667021D01*
X170803678Y-81645951D01*
X170815660Y-81625960D01*
X170829544Y-81607240D01*
X170845196Y-81589970D01*
X170862466Y-81574318D01*
X170881186Y-81560434D01*
X170901177Y-81548452D01*
X170922247Y-81538487D01*
X170944191Y-81530635D01*
X170966800Y-81524971D01*
X170989855Y-81521552D01*
X171013134Y-81520408D01*
X171588134Y-81520408D01*
X171611413Y-81521552D01*
X171611413Y-81521552D01*
G37*
D13*
X171300634Y-81995408D03*
G04 #@! TD*
D12*
G04 #@! TO.C,D7*
G36*
X169756779Y-84680004D02*
X169779834Y-84683423D01*
X169802443Y-84689087D01*
X169824387Y-84696939D01*
X169845457Y-84706904D01*
X169865448Y-84718886D01*
X169884168Y-84732770D01*
X169901438Y-84748422D01*
X169917090Y-84765692D01*
X169930974Y-84784412D01*
X169942956Y-84804403D01*
X169952921Y-84825473D01*
X169960773Y-84847417D01*
X169966437Y-84870026D01*
X169969856Y-84893081D01*
X169971000Y-84916360D01*
X169971000Y-85391360D01*
X169969856Y-85414639D01*
X169966437Y-85437694D01*
X169960773Y-85460303D01*
X169952921Y-85482247D01*
X169942956Y-85503317D01*
X169930974Y-85523308D01*
X169917090Y-85542028D01*
X169901438Y-85559298D01*
X169884168Y-85574950D01*
X169865448Y-85588834D01*
X169845457Y-85600816D01*
X169824387Y-85610781D01*
X169802443Y-85618633D01*
X169779834Y-85624297D01*
X169756779Y-85627716D01*
X169733500Y-85628860D01*
X169158500Y-85628860D01*
X169135221Y-85627716D01*
X169112166Y-85624297D01*
X169089557Y-85618633D01*
X169067613Y-85610781D01*
X169046543Y-85600816D01*
X169026552Y-85588834D01*
X169007832Y-85574950D01*
X168990562Y-85559298D01*
X168974910Y-85542028D01*
X168961026Y-85523308D01*
X168949044Y-85503317D01*
X168939079Y-85482247D01*
X168931227Y-85460303D01*
X168925563Y-85437694D01*
X168922144Y-85414639D01*
X168921000Y-85391360D01*
X168921000Y-84916360D01*
X168922144Y-84893081D01*
X168925563Y-84870026D01*
X168931227Y-84847417D01*
X168939079Y-84825473D01*
X168949044Y-84804403D01*
X168961026Y-84784412D01*
X168974910Y-84765692D01*
X168990562Y-84748422D01*
X169007832Y-84732770D01*
X169026552Y-84718886D01*
X169046543Y-84706904D01*
X169067613Y-84696939D01*
X169089557Y-84689087D01*
X169112166Y-84683423D01*
X169135221Y-84680004D01*
X169158500Y-84678860D01*
X169733500Y-84678860D01*
X169756779Y-84680004D01*
X169756779Y-84680004D01*
G37*
D13*
X169446000Y-85153860D03*
D12*
G36*
X171506779Y-84680004D02*
X171529834Y-84683423D01*
X171552443Y-84689087D01*
X171574387Y-84696939D01*
X171595457Y-84706904D01*
X171615448Y-84718886D01*
X171634168Y-84732770D01*
X171651438Y-84748422D01*
X171667090Y-84765692D01*
X171680974Y-84784412D01*
X171692956Y-84804403D01*
X171702921Y-84825473D01*
X171710773Y-84847417D01*
X171716437Y-84870026D01*
X171719856Y-84893081D01*
X171721000Y-84916360D01*
X171721000Y-85391360D01*
X171719856Y-85414639D01*
X171716437Y-85437694D01*
X171710773Y-85460303D01*
X171702921Y-85482247D01*
X171692956Y-85503317D01*
X171680974Y-85523308D01*
X171667090Y-85542028D01*
X171651438Y-85559298D01*
X171634168Y-85574950D01*
X171615448Y-85588834D01*
X171595457Y-85600816D01*
X171574387Y-85610781D01*
X171552443Y-85618633D01*
X171529834Y-85624297D01*
X171506779Y-85627716D01*
X171483500Y-85628860D01*
X170908500Y-85628860D01*
X170885221Y-85627716D01*
X170862166Y-85624297D01*
X170839557Y-85618633D01*
X170817613Y-85610781D01*
X170796543Y-85600816D01*
X170776552Y-85588834D01*
X170757832Y-85574950D01*
X170740562Y-85559298D01*
X170724910Y-85542028D01*
X170711026Y-85523308D01*
X170699044Y-85503317D01*
X170689079Y-85482247D01*
X170681227Y-85460303D01*
X170675563Y-85437694D01*
X170672144Y-85414639D01*
X170671000Y-85391360D01*
X170671000Y-84916360D01*
X170672144Y-84893081D01*
X170675563Y-84870026D01*
X170681227Y-84847417D01*
X170689079Y-84825473D01*
X170699044Y-84804403D01*
X170711026Y-84784412D01*
X170724910Y-84765692D01*
X170740562Y-84748422D01*
X170757832Y-84732770D01*
X170776552Y-84718886D01*
X170796543Y-84706904D01*
X170817613Y-84696939D01*
X170839557Y-84689087D01*
X170862166Y-84683423D01*
X170885221Y-84680004D01*
X170908500Y-84678860D01*
X171483500Y-84678860D01*
X171506779Y-84680004D01*
X171506779Y-84680004D01*
G37*
D13*
X171196000Y-85153860D03*
G04 #@! TD*
D12*
G04 #@! TO.C,D9*
G36*
X169629779Y-101248061D02*
X169652834Y-101251480D01*
X169675443Y-101257144D01*
X169697387Y-101264996D01*
X169718457Y-101274961D01*
X169738448Y-101286943D01*
X169757168Y-101300827D01*
X169774438Y-101316479D01*
X169790090Y-101333749D01*
X169803974Y-101352469D01*
X169815956Y-101372460D01*
X169825921Y-101393530D01*
X169833773Y-101415474D01*
X169839437Y-101438083D01*
X169842856Y-101461138D01*
X169844000Y-101484417D01*
X169844000Y-101959417D01*
X169842856Y-101982696D01*
X169839437Y-102005751D01*
X169833773Y-102028360D01*
X169825921Y-102050304D01*
X169815956Y-102071374D01*
X169803974Y-102091365D01*
X169790090Y-102110085D01*
X169774438Y-102127355D01*
X169757168Y-102143007D01*
X169738448Y-102156891D01*
X169718457Y-102168873D01*
X169697387Y-102178838D01*
X169675443Y-102186690D01*
X169652834Y-102192354D01*
X169629779Y-102195773D01*
X169606500Y-102196917D01*
X169031500Y-102196917D01*
X169008221Y-102195773D01*
X168985166Y-102192354D01*
X168962557Y-102186690D01*
X168940613Y-102178838D01*
X168919543Y-102168873D01*
X168899552Y-102156891D01*
X168880832Y-102143007D01*
X168863562Y-102127355D01*
X168847910Y-102110085D01*
X168834026Y-102091365D01*
X168822044Y-102071374D01*
X168812079Y-102050304D01*
X168804227Y-102028360D01*
X168798563Y-102005751D01*
X168795144Y-101982696D01*
X168794000Y-101959417D01*
X168794000Y-101484417D01*
X168795144Y-101461138D01*
X168798563Y-101438083D01*
X168804227Y-101415474D01*
X168812079Y-101393530D01*
X168822044Y-101372460D01*
X168834026Y-101352469D01*
X168847910Y-101333749D01*
X168863562Y-101316479D01*
X168880832Y-101300827D01*
X168899552Y-101286943D01*
X168919543Y-101274961D01*
X168940613Y-101264996D01*
X168962557Y-101257144D01*
X168985166Y-101251480D01*
X169008221Y-101248061D01*
X169031500Y-101246917D01*
X169606500Y-101246917D01*
X169629779Y-101248061D01*
X169629779Y-101248061D01*
G37*
D13*
X169319000Y-101721917D03*
D12*
G36*
X171379779Y-101248061D02*
X171402834Y-101251480D01*
X171425443Y-101257144D01*
X171447387Y-101264996D01*
X171468457Y-101274961D01*
X171488448Y-101286943D01*
X171507168Y-101300827D01*
X171524438Y-101316479D01*
X171540090Y-101333749D01*
X171553974Y-101352469D01*
X171565956Y-101372460D01*
X171575921Y-101393530D01*
X171583773Y-101415474D01*
X171589437Y-101438083D01*
X171592856Y-101461138D01*
X171594000Y-101484417D01*
X171594000Y-101959417D01*
X171592856Y-101982696D01*
X171589437Y-102005751D01*
X171583773Y-102028360D01*
X171575921Y-102050304D01*
X171565956Y-102071374D01*
X171553974Y-102091365D01*
X171540090Y-102110085D01*
X171524438Y-102127355D01*
X171507168Y-102143007D01*
X171488448Y-102156891D01*
X171468457Y-102168873D01*
X171447387Y-102178838D01*
X171425443Y-102186690D01*
X171402834Y-102192354D01*
X171379779Y-102195773D01*
X171356500Y-102196917D01*
X170781500Y-102196917D01*
X170758221Y-102195773D01*
X170735166Y-102192354D01*
X170712557Y-102186690D01*
X170690613Y-102178838D01*
X170669543Y-102168873D01*
X170649552Y-102156891D01*
X170630832Y-102143007D01*
X170613562Y-102127355D01*
X170597910Y-102110085D01*
X170584026Y-102091365D01*
X170572044Y-102071374D01*
X170562079Y-102050304D01*
X170554227Y-102028360D01*
X170548563Y-102005751D01*
X170545144Y-101982696D01*
X170544000Y-101959417D01*
X170544000Y-101484417D01*
X170545144Y-101461138D01*
X170548563Y-101438083D01*
X170554227Y-101415474D01*
X170562079Y-101393530D01*
X170572044Y-101372460D01*
X170584026Y-101352469D01*
X170597910Y-101333749D01*
X170613562Y-101316479D01*
X170630832Y-101300827D01*
X170649552Y-101286943D01*
X170669543Y-101274961D01*
X170690613Y-101264996D01*
X170712557Y-101257144D01*
X170735166Y-101251480D01*
X170758221Y-101248061D01*
X170781500Y-101246917D01*
X171356500Y-101246917D01*
X171379779Y-101248061D01*
X171379779Y-101248061D01*
G37*
D13*
X171069000Y-101721917D03*
G04 #@! TD*
D12*
G04 #@! TO.C,D10*
G36*
X169474779Y-104174144D02*
X169497834Y-104177563D01*
X169520443Y-104183227D01*
X169542387Y-104191079D01*
X169563457Y-104201044D01*
X169583448Y-104213026D01*
X169602168Y-104226910D01*
X169619438Y-104242562D01*
X169635090Y-104259832D01*
X169648974Y-104278552D01*
X169660956Y-104298543D01*
X169670921Y-104319613D01*
X169678773Y-104341557D01*
X169684437Y-104364166D01*
X169687856Y-104387221D01*
X169689000Y-104410500D01*
X169689000Y-104885500D01*
X169687856Y-104908779D01*
X169684437Y-104931834D01*
X169678773Y-104954443D01*
X169670921Y-104976387D01*
X169660956Y-104997457D01*
X169648974Y-105017448D01*
X169635090Y-105036168D01*
X169619438Y-105053438D01*
X169602168Y-105069090D01*
X169583448Y-105082974D01*
X169563457Y-105094956D01*
X169542387Y-105104921D01*
X169520443Y-105112773D01*
X169497834Y-105118437D01*
X169474779Y-105121856D01*
X169451500Y-105123000D01*
X168876500Y-105123000D01*
X168853221Y-105121856D01*
X168830166Y-105118437D01*
X168807557Y-105112773D01*
X168785613Y-105104921D01*
X168764543Y-105094956D01*
X168744552Y-105082974D01*
X168725832Y-105069090D01*
X168708562Y-105053438D01*
X168692910Y-105036168D01*
X168679026Y-105017448D01*
X168667044Y-104997457D01*
X168657079Y-104976387D01*
X168649227Y-104954443D01*
X168643563Y-104931834D01*
X168640144Y-104908779D01*
X168639000Y-104885500D01*
X168639000Y-104410500D01*
X168640144Y-104387221D01*
X168643563Y-104364166D01*
X168649227Y-104341557D01*
X168657079Y-104319613D01*
X168667044Y-104298543D01*
X168679026Y-104278552D01*
X168692910Y-104259832D01*
X168708562Y-104242562D01*
X168725832Y-104226910D01*
X168744552Y-104213026D01*
X168764543Y-104201044D01*
X168785613Y-104191079D01*
X168807557Y-104183227D01*
X168830166Y-104177563D01*
X168853221Y-104174144D01*
X168876500Y-104173000D01*
X169451500Y-104173000D01*
X169474779Y-104174144D01*
X169474779Y-104174144D01*
G37*
D13*
X169164000Y-104648000D03*
D12*
G36*
X171224779Y-104174144D02*
X171247834Y-104177563D01*
X171270443Y-104183227D01*
X171292387Y-104191079D01*
X171313457Y-104201044D01*
X171333448Y-104213026D01*
X171352168Y-104226910D01*
X171369438Y-104242562D01*
X171385090Y-104259832D01*
X171398974Y-104278552D01*
X171410956Y-104298543D01*
X171420921Y-104319613D01*
X171428773Y-104341557D01*
X171434437Y-104364166D01*
X171437856Y-104387221D01*
X171439000Y-104410500D01*
X171439000Y-104885500D01*
X171437856Y-104908779D01*
X171434437Y-104931834D01*
X171428773Y-104954443D01*
X171420921Y-104976387D01*
X171410956Y-104997457D01*
X171398974Y-105017448D01*
X171385090Y-105036168D01*
X171369438Y-105053438D01*
X171352168Y-105069090D01*
X171333448Y-105082974D01*
X171313457Y-105094956D01*
X171292387Y-105104921D01*
X171270443Y-105112773D01*
X171247834Y-105118437D01*
X171224779Y-105121856D01*
X171201500Y-105123000D01*
X170626500Y-105123000D01*
X170603221Y-105121856D01*
X170580166Y-105118437D01*
X170557557Y-105112773D01*
X170535613Y-105104921D01*
X170514543Y-105094956D01*
X170494552Y-105082974D01*
X170475832Y-105069090D01*
X170458562Y-105053438D01*
X170442910Y-105036168D01*
X170429026Y-105017448D01*
X170417044Y-104997457D01*
X170407079Y-104976387D01*
X170399227Y-104954443D01*
X170393563Y-104931834D01*
X170390144Y-104908779D01*
X170389000Y-104885500D01*
X170389000Y-104410500D01*
X170390144Y-104387221D01*
X170393563Y-104364166D01*
X170399227Y-104341557D01*
X170407079Y-104319613D01*
X170417044Y-104298543D01*
X170429026Y-104278552D01*
X170442910Y-104259832D01*
X170458562Y-104242562D01*
X170475832Y-104226910D01*
X170494552Y-104213026D01*
X170514543Y-104201044D01*
X170535613Y-104191079D01*
X170557557Y-104183227D01*
X170580166Y-104177563D01*
X170603221Y-104174144D01*
X170626500Y-104173000D01*
X171201500Y-104173000D01*
X171224779Y-104174144D01*
X171224779Y-104174144D01*
G37*
D13*
X170914000Y-104648000D03*
G04 #@! TD*
D12*
G04 #@! TO.C,L1*
G36*
X134118779Y-60069144D02*
X134141834Y-60072563D01*
X134164443Y-60078227D01*
X134186387Y-60086079D01*
X134207457Y-60096044D01*
X134227448Y-60108026D01*
X134246168Y-60121910D01*
X134263438Y-60137562D01*
X134279090Y-60154832D01*
X134292974Y-60173552D01*
X134304956Y-60193543D01*
X134314921Y-60214613D01*
X134322773Y-60236557D01*
X134328437Y-60259166D01*
X134331856Y-60282221D01*
X134333000Y-60305500D01*
X134333000Y-60880500D01*
X134331856Y-60903779D01*
X134328437Y-60926834D01*
X134322773Y-60949443D01*
X134314921Y-60971387D01*
X134304956Y-60992457D01*
X134292974Y-61012448D01*
X134279090Y-61031168D01*
X134263438Y-61048438D01*
X134246168Y-61064090D01*
X134227448Y-61077974D01*
X134207457Y-61089956D01*
X134186387Y-61099921D01*
X134164443Y-61107773D01*
X134141834Y-61113437D01*
X134118779Y-61116856D01*
X134095500Y-61118000D01*
X133620500Y-61118000D01*
X133597221Y-61116856D01*
X133574166Y-61113437D01*
X133551557Y-61107773D01*
X133529613Y-61099921D01*
X133508543Y-61089956D01*
X133488552Y-61077974D01*
X133469832Y-61064090D01*
X133452562Y-61048438D01*
X133436910Y-61031168D01*
X133423026Y-61012448D01*
X133411044Y-60992457D01*
X133401079Y-60971387D01*
X133393227Y-60949443D01*
X133387563Y-60926834D01*
X133384144Y-60903779D01*
X133383000Y-60880500D01*
X133383000Y-60305500D01*
X133384144Y-60282221D01*
X133387563Y-60259166D01*
X133393227Y-60236557D01*
X133401079Y-60214613D01*
X133411044Y-60193543D01*
X133423026Y-60173552D01*
X133436910Y-60154832D01*
X133452562Y-60137562D01*
X133469832Y-60121910D01*
X133488552Y-60108026D01*
X133508543Y-60096044D01*
X133529613Y-60086079D01*
X133551557Y-60078227D01*
X133574166Y-60072563D01*
X133597221Y-60069144D01*
X133620500Y-60068000D01*
X134095500Y-60068000D01*
X134118779Y-60069144D01*
X134118779Y-60069144D01*
G37*
D13*
X133858000Y-60593000D03*
D12*
G36*
X134118779Y-61819144D02*
X134141834Y-61822563D01*
X134164443Y-61828227D01*
X134186387Y-61836079D01*
X134207457Y-61846044D01*
X134227448Y-61858026D01*
X134246168Y-61871910D01*
X134263438Y-61887562D01*
X134279090Y-61904832D01*
X134292974Y-61923552D01*
X134304956Y-61943543D01*
X134314921Y-61964613D01*
X134322773Y-61986557D01*
X134328437Y-62009166D01*
X134331856Y-62032221D01*
X134333000Y-62055500D01*
X134333000Y-62630500D01*
X134331856Y-62653779D01*
X134328437Y-62676834D01*
X134322773Y-62699443D01*
X134314921Y-62721387D01*
X134304956Y-62742457D01*
X134292974Y-62762448D01*
X134279090Y-62781168D01*
X134263438Y-62798438D01*
X134246168Y-62814090D01*
X134227448Y-62827974D01*
X134207457Y-62839956D01*
X134186387Y-62849921D01*
X134164443Y-62857773D01*
X134141834Y-62863437D01*
X134118779Y-62866856D01*
X134095500Y-62868000D01*
X133620500Y-62868000D01*
X133597221Y-62866856D01*
X133574166Y-62863437D01*
X133551557Y-62857773D01*
X133529613Y-62849921D01*
X133508543Y-62839956D01*
X133488552Y-62827974D01*
X133469832Y-62814090D01*
X133452562Y-62798438D01*
X133436910Y-62781168D01*
X133423026Y-62762448D01*
X133411044Y-62742457D01*
X133401079Y-62721387D01*
X133393227Y-62699443D01*
X133387563Y-62676834D01*
X133384144Y-62653779D01*
X133383000Y-62630500D01*
X133383000Y-62055500D01*
X133384144Y-62032221D01*
X133387563Y-62009166D01*
X133393227Y-61986557D01*
X133401079Y-61964613D01*
X133411044Y-61943543D01*
X133423026Y-61923552D01*
X133436910Y-61904832D01*
X133452562Y-61887562D01*
X133469832Y-61871910D01*
X133488552Y-61858026D01*
X133508543Y-61846044D01*
X133529613Y-61836079D01*
X133551557Y-61828227D01*
X133574166Y-61822563D01*
X133597221Y-61819144D01*
X133620500Y-61818000D01*
X134095500Y-61818000D01*
X134118779Y-61819144D01*
X134118779Y-61819144D01*
G37*
D13*
X133858000Y-62343000D03*
G04 #@! TD*
D12*
G04 #@! TO.C,R2*
G36*
X159455779Y-40928144D02*
X159478834Y-40931563D01*
X159501443Y-40937227D01*
X159523387Y-40945079D01*
X159544457Y-40955044D01*
X159564448Y-40967026D01*
X159583168Y-40980910D01*
X159600438Y-40996562D01*
X159616090Y-41013832D01*
X159629974Y-41032552D01*
X159641956Y-41052543D01*
X159651921Y-41073613D01*
X159659773Y-41095557D01*
X159665437Y-41118166D01*
X159668856Y-41141221D01*
X159670000Y-41164500D01*
X159670000Y-41639500D01*
X159668856Y-41662779D01*
X159665437Y-41685834D01*
X159659773Y-41708443D01*
X159651921Y-41730387D01*
X159641956Y-41751457D01*
X159629974Y-41771448D01*
X159616090Y-41790168D01*
X159600438Y-41807438D01*
X159583168Y-41823090D01*
X159564448Y-41836974D01*
X159544457Y-41848956D01*
X159523387Y-41858921D01*
X159501443Y-41866773D01*
X159478834Y-41872437D01*
X159455779Y-41875856D01*
X159432500Y-41877000D01*
X158857500Y-41877000D01*
X158834221Y-41875856D01*
X158811166Y-41872437D01*
X158788557Y-41866773D01*
X158766613Y-41858921D01*
X158745543Y-41848956D01*
X158725552Y-41836974D01*
X158706832Y-41823090D01*
X158689562Y-41807438D01*
X158673910Y-41790168D01*
X158660026Y-41771448D01*
X158648044Y-41751457D01*
X158638079Y-41730387D01*
X158630227Y-41708443D01*
X158624563Y-41685834D01*
X158621144Y-41662779D01*
X158620000Y-41639500D01*
X158620000Y-41164500D01*
X158621144Y-41141221D01*
X158624563Y-41118166D01*
X158630227Y-41095557D01*
X158638079Y-41073613D01*
X158648044Y-41052543D01*
X158660026Y-41032552D01*
X158673910Y-41013832D01*
X158689562Y-40996562D01*
X158706832Y-40980910D01*
X158725552Y-40967026D01*
X158745543Y-40955044D01*
X158766613Y-40945079D01*
X158788557Y-40937227D01*
X158811166Y-40931563D01*
X158834221Y-40928144D01*
X158857500Y-40927000D01*
X159432500Y-40927000D01*
X159455779Y-40928144D01*
X159455779Y-40928144D01*
G37*
D13*
X159145000Y-41402000D03*
D12*
G36*
X161205779Y-40928144D02*
X161228834Y-40931563D01*
X161251443Y-40937227D01*
X161273387Y-40945079D01*
X161294457Y-40955044D01*
X161314448Y-40967026D01*
X161333168Y-40980910D01*
X161350438Y-40996562D01*
X161366090Y-41013832D01*
X161379974Y-41032552D01*
X161391956Y-41052543D01*
X161401921Y-41073613D01*
X161409773Y-41095557D01*
X161415437Y-41118166D01*
X161418856Y-41141221D01*
X161420000Y-41164500D01*
X161420000Y-41639500D01*
X161418856Y-41662779D01*
X161415437Y-41685834D01*
X161409773Y-41708443D01*
X161401921Y-41730387D01*
X161391956Y-41751457D01*
X161379974Y-41771448D01*
X161366090Y-41790168D01*
X161350438Y-41807438D01*
X161333168Y-41823090D01*
X161314448Y-41836974D01*
X161294457Y-41848956D01*
X161273387Y-41858921D01*
X161251443Y-41866773D01*
X161228834Y-41872437D01*
X161205779Y-41875856D01*
X161182500Y-41877000D01*
X160607500Y-41877000D01*
X160584221Y-41875856D01*
X160561166Y-41872437D01*
X160538557Y-41866773D01*
X160516613Y-41858921D01*
X160495543Y-41848956D01*
X160475552Y-41836974D01*
X160456832Y-41823090D01*
X160439562Y-41807438D01*
X160423910Y-41790168D01*
X160410026Y-41771448D01*
X160398044Y-41751457D01*
X160388079Y-41730387D01*
X160380227Y-41708443D01*
X160374563Y-41685834D01*
X160371144Y-41662779D01*
X160370000Y-41639500D01*
X160370000Y-41164500D01*
X160371144Y-41141221D01*
X160374563Y-41118166D01*
X160380227Y-41095557D01*
X160388079Y-41073613D01*
X160398044Y-41052543D01*
X160410026Y-41032552D01*
X160423910Y-41013832D01*
X160439562Y-40996562D01*
X160456832Y-40980910D01*
X160475552Y-40967026D01*
X160495543Y-40955044D01*
X160516613Y-40945079D01*
X160538557Y-40937227D01*
X160561166Y-40931563D01*
X160584221Y-40928144D01*
X160607500Y-40927000D01*
X161182500Y-40927000D01*
X161205779Y-40928144D01*
X161205779Y-40928144D01*
G37*
D13*
X160895000Y-41402000D03*
G04 #@! TD*
D12*
G04 #@! TO.C,R3*
G36*
X168740779Y-40928144D02*
X168763834Y-40931563D01*
X168786443Y-40937227D01*
X168808387Y-40945079D01*
X168829457Y-40955044D01*
X168849448Y-40967026D01*
X168868168Y-40980910D01*
X168885438Y-40996562D01*
X168901090Y-41013832D01*
X168914974Y-41032552D01*
X168926956Y-41052543D01*
X168936921Y-41073613D01*
X168944773Y-41095557D01*
X168950437Y-41118166D01*
X168953856Y-41141221D01*
X168955000Y-41164500D01*
X168955000Y-41639500D01*
X168953856Y-41662779D01*
X168950437Y-41685834D01*
X168944773Y-41708443D01*
X168936921Y-41730387D01*
X168926956Y-41751457D01*
X168914974Y-41771448D01*
X168901090Y-41790168D01*
X168885438Y-41807438D01*
X168868168Y-41823090D01*
X168849448Y-41836974D01*
X168829457Y-41848956D01*
X168808387Y-41858921D01*
X168786443Y-41866773D01*
X168763834Y-41872437D01*
X168740779Y-41875856D01*
X168717500Y-41877000D01*
X168142500Y-41877000D01*
X168119221Y-41875856D01*
X168096166Y-41872437D01*
X168073557Y-41866773D01*
X168051613Y-41858921D01*
X168030543Y-41848956D01*
X168010552Y-41836974D01*
X167991832Y-41823090D01*
X167974562Y-41807438D01*
X167958910Y-41790168D01*
X167945026Y-41771448D01*
X167933044Y-41751457D01*
X167923079Y-41730387D01*
X167915227Y-41708443D01*
X167909563Y-41685834D01*
X167906144Y-41662779D01*
X167905000Y-41639500D01*
X167905000Y-41164500D01*
X167906144Y-41141221D01*
X167909563Y-41118166D01*
X167915227Y-41095557D01*
X167923079Y-41073613D01*
X167933044Y-41052543D01*
X167945026Y-41032552D01*
X167958910Y-41013832D01*
X167974562Y-40996562D01*
X167991832Y-40980910D01*
X168010552Y-40967026D01*
X168030543Y-40955044D01*
X168051613Y-40945079D01*
X168073557Y-40937227D01*
X168096166Y-40931563D01*
X168119221Y-40928144D01*
X168142500Y-40927000D01*
X168717500Y-40927000D01*
X168740779Y-40928144D01*
X168740779Y-40928144D01*
G37*
D13*
X168430000Y-41402000D03*
D12*
G36*
X170490779Y-40928144D02*
X170513834Y-40931563D01*
X170536443Y-40937227D01*
X170558387Y-40945079D01*
X170579457Y-40955044D01*
X170599448Y-40967026D01*
X170618168Y-40980910D01*
X170635438Y-40996562D01*
X170651090Y-41013832D01*
X170664974Y-41032552D01*
X170676956Y-41052543D01*
X170686921Y-41073613D01*
X170694773Y-41095557D01*
X170700437Y-41118166D01*
X170703856Y-41141221D01*
X170705000Y-41164500D01*
X170705000Y-41639500D01*
X170703856Y-41662779D01*
X170700437Y-41685834D01*
X170694773Y-41708443D01*
X170686921Y-41730387D01*
X170676956Y-41751457D01*
X170664974Y-41771448D01*
X170651090Y-41790168D01*
X170635438Y-41807438D01*
X170618168Y-41823090D01*
X170599448Y-41836974D01*
X170579457Y-41848956D01*
X170558387Y-41858921D01*
X170536443Y-41866773D01*
X170513834Y-41872437D01*
X170490779Y-41875856D01*
X170467500Y-41877000D01*
X169892500Y-41877000D01*
X169869221Y-41875856D01*
X169846166Y-41872437D01*
X169823557Y-41866773D01*
X169801613Y-41858921D01*
X169780543Y-41848956D01*
X169760552Y-41836974D01*
X169741832Y-41823090D01*
X169724562Y-41807438D01*
X169708910Y-41790168D01*
X169695026Y-41771448D01*
X169683044Y-41751457D01*
X169673079Y-41730387D01*
X169665227Y-41708443D01*
X169659563Y-41685834D01*
X169656144Y-41662779D01*
X169655000Y-41639500D01*
X169655000Y-41164500D01*
X169656144Y-41141221D01*
X169659563Y-41118166D01*
X169665227Y-41095557D01*
X169673079Y-41073613D01*
X169683044Y-41052543D01*
X169695026Y-41032552D01*
X169708910Y-41013832D01*
X169724562Y-40996562D01*
X169741832Y-40980910D01*
X169760552Y-40967026D01*
X169780543Y-40955044D01*
X169801613Y-40945079D01*
X169823557Y-40937227D01*
X169846166Y-40931563D01*
X169869221Y-40928144D01*
X169892500Y-40927000D01*
X170467500Y-40927000D01*
X170490779Y-40928144D01*
X170490779Y-40928144D01*
G37*
D13*
X170180000Y-41402000D03*
G04 #@! TD*
D12*
G04 #@! TO.C,R4*
G36*
X164422779Y-40928144D02*
X164445834Y-40931563D01*
X164468443Y-40937227D01*
X164490387Y-40945079D01*
X164511457Y-40955044D01*
X164531448Y-40967026D01*
X164550168Y-40980910D01*
X164567438Y-40996562D01*
X164583090Y-41013832D01*
X164596974Y-41032552D01*
X164608956Y-41052543D01*
X164618921Y-41073613D01*
X164626773Y-41095557D01*
X164632437Y-41118166D01*
X164635856Y-41141221D01*
X164637000Y-41164500D01*
X164637000Y-41639500D01*
X164635856Y-41662779D01*
X164632437Y-41685834D01*
X164626773Y-41708443D01*
X164618921Y-41730387D01*
X164608956Y-41751457D01*
X164596974Y-41771448D01*
X164583090Y-41790168D01*
X164567438Y-41807438D01*
X164550168Y-41823090D01*
X164531448Y-41836974D01*
X164511457Y-41848956D01*
X164490387Y-41858921D01*
X164468443Y-41866773D01*
X164445834Y-41872437D01*
X164422779Y-41875856D01*
X164399500Y-41877000D01*
X163824500Y-41877000D01*
X163801221Y-41875856D01*
X163778166Y-41872437D01*
X163755557Y-41866773D01*
X163733613Y-41858921D01*
X163712543Y-41848956D01*
X163692552Y-41836974D01*
X163673832Y-41823090D01*
X163656562Y-41807438D01*
X163640910Y-41790168D01*
X163627026Y-41771448D01*
X163615044Y-41751457D01*
X163605079Y-41730387D01*
X163597227Y-41708443D01*
X163591563Y-41685834D01*
X163588144Y-41662779D01*
X163587000Y-41639500D01*
X163587000Y-41164500D01*
X163588144Y-41141221D01*
X163591563Y-41118166D01*
X163597227Y-41095557D01*
X163605079Y-41073613D01*
X163615044Y-41052543D01*
X163627026Y-41032552D01*
X163640910Y-41013832D01*
X163656562Y-40996562D01*
X163673832Y-40980910D01*
X163692552Y-40967026D01*
X163712543Y-40955044D01*
X163733613Y-40945079D01*
X163755557Y-40937227D01*
X163778166Y-40931563D01*
X163801221Y-40928144D01*
X163824500Y-40927000D01*
X164399500Y-40927000D01*
X164422779Y-40928144D01*
X164422779Y-40928144D01*
G37*
D13*
X164112000Y-41402000D03*
D12*
G36*
X166172779Y-40928144D02*
X166195834Y-40931563D01*
X166218443Y-40937227D01*
X166240387Y-40945079D01*
X166261457Y-40955044D01*
X166281448Y-40967026D01*
X166300168Y-40980910D01*
X166317438Y-40996562D01*
X166333090Y-41013832D01*
X166346974Y-41032552D01*
X166358956Y-41052543D01*
X166368921Y-41073613D01*
X166376773Y-41095557D01*
X166382437Y-41118166D01*
X166385856Y-41141221D01*
X166387000Y-41164500D01*
X166387000Y-41639500D01*
X166385856Y-41662779D01*
X166382437Y-41685834D01*
X166376773Y-41708443D01*
X166368921Y-41730387D01*
X166358956Y-41751457D01*
X166346974Y-41771448D01*
X166333090Y-41790168D01*
X166317438Y-41807438D01*
X166300168Y-41823090D01*
X166281448Y-41836974D01*
X166261457Y-41848956D01*
X166240387Y-41858921D01*
X166218443Y-41866773D01*
X166195834Y-41872437D01*
X166172779Y-41875856D01*
X166149500Y-41877000D01*
X165574500Y-41877000D01*
X165551221Y-41875856D01*
X165528166Y-41872437D01*
X165505557Y-41866773D01*
X165483613Y-41858921D01*
X165462543Y-41848956D01*
X165442552Y-41836974D01*
X165423832Y-41823090D01*
X165406562Y-41807438D01*
X165390910Y-41790168D01*
X165377026Y-41771448D01*
X165365044Y-41751457D01*
X165355079Y-41730387D01*
X165347227Y-41708443D01*
X165341563Y-41685834D01*
X165338144Y-41662779D01*
X165337000Y-41639500D01*
X165337000Y-41164500D01*
X165338144Y-41141221D01*
X165341563Y-41118166D01*
X165347227Y-41095557D01*
X165355079Y-41073613D01*
X165365044Y-41052543D01*
X165377026Y-41032552D01*
X165390910Y-41013832D01*
X165406562Y-40996562D01*
X165423832Y-40980910D01*
X165442552Y-40967026D01*
X165462543Y-40955044D01*
X165483613Y-40945079D01*
X165505557Y-40937227D01*
X165528166Y-40931563D01*
X165551221Y-40928144D01*
X165574500Y-40927000D01*
X166149500Y-40927000D01*
X166172779Y-40928144D01*
X166172779Y-40928144D01*
G37*
D13*
X165862000Y-41402000D03*
G04 #@! TD*
D12*
G04 #@! TO.C,R5*
G36*
X162249779Y-62518144D02*
X162272834Y-62521563D01*
X162295443Y-62527227D01*
X162317387Y-62535079D01*
X162338457Y-62545044D01*
X162358448Y-62557026D01*
X162377168Y-62570910D01*
X162394438Y-62586562D01*
X162410090Y-62603832D01*
X162423974Y-62622552D01*
X162435956Y-62642543D01*
X162445921Y-62663613D01*
X162453773Y-62685557D01*
X162459437Y-62708166D01*
X162462856Y-62731221D01*
X162464000Y-62754500D01*
X162464000Y-63229500D01*
X162462856Y-63252779D01*
X162459437Y-63275834D01*
X162453773Y-63298443D01*
X162445921Y-63320387D01*
X162435956Y-63341457D01*
X162423974Y-63361448D01*
X162410090Y-63380168D01*
X162394438Y-63397438D01*
X162377168Y-63413090D01*
X162358448Y-63426974D01*
X162338457Y-63438956D01*
X162317387Y-63448921D01*
X162295443Y-63456773D01*
X162272834Y-63462437D01*
X162249779Y-63465856D01*
X162226500Y-63467000D01*
X161651500Y-63467000D01*
X161628221Y-63465856D01*
X161605166Y-63462437D01*
X161582557Y-63456773D01*
X161560613Y-63448921D01*
X161539543Y-63438956D01*
X161519552Y-63426974D01*
X161500832Y-63413090D01*
X161483562Y-63397438D01*
X161467910Y-63380168D01*
X161454026Y-63361448D01*
X161442044Y-63341457D01*
X161432079Y-63320387D01*
X161424227Y-63298443D01*
X161418563Y-63275834D01*
X161415144Y-63252779D01*
X161414000Y-63229500D01*
X161414000Y-62754500D01*
X161415144Y-62731221D01*
X161418563Y-62708166D01*
X161424227Y-62685557D01*
X161432079Y-62663613D01*
X161442044Y-62642543D01*
X161454026Y-62622552D01*
X161467910Y-62603832D01*
X161483562Y-62586562D01*
X161500832Y-62570910D01*
X161519552Y-62557026D01*
X161539543Y-62545044D01*
X161560613Y-62535079D01*
X161582557Y-62527227D01*
X161605166Y-62521563D01*
X161628221Y-62518144D01*
X161651500Y-62517000D01*
X162226500Y-62517000D01*
X162249779Y-62518144D01*
X162249779Y-62518144D01*
G37*
D13*
X161939000Y-62992000D03*
D12*
G36*
X163999779Y-62518144D02*
X164022834Y-62521563D01*
X164045443Y-62527227D01*
X164067387Y-62535079D01*
X164088457Y-62545044D01*
X164108448Y-62557026D01*
X164127168Y-62570910D01*
X164144438Y-62586562D01*
X164160090Y-62603832D01*
X164173974Y-62622552D01*
X164185956Y-62642543D01*
X164195921Y-62663613D01*
X164203773Y-62685557D01*
X164209437Y-62708166D01*
X164212856Y-62731221D01*
X164214000Y-62754500D01*
X164214000Y-63229500D01*
X164212856Y-63252779D01*
X164209437Y-63275834D01*
X164203773Y-63298443D01*
X164195921Y-63320387D01*
X164185956Y-63341457D01*
X164173974Y-63361448D01*
X164160090Y-63380168D01*
X164144438Y-63397438D01*
X164127168Y-63413090D01*
X164108448Y-63426974D01*
X164088457Y-63438956D01*
X164067387Y-63448921D01*
X164045443Y-63456773D01*
X164022834Y-63462437D01*
X163999779Y-63465856D01*
X163976500Y-63467000D01*
X163401500Y-63467000D01*
X163378221Y-63465856D01*
X163355166Y-63462437D01*
X163332557Y-63456773D01*
X163310613Y-63448921D01*
X163289543Y-63438956D01*
X163269552Y-63426974D01*
X163250832Y-63413090D01*
X163233562Y-63397438D01*
X163217910Y-63380168D01*
X163204026Y-63361448D01*
X163192044Y-63341457D01*
X163182079Y-63320387D01*
X163174227Y-63298443D01*
X163168563Y-63275834D01*
X163165144Y-63252779D01*
X163164000Y-63229500D01*
X163164000Y-62754500D01*
X163165144Y-62731221D01*
X163168563Y-62708166D01*
X163174227Y-62685557D01*
X163182079Y-62663613D01*
X163192044Y-62642543D01*
X163204026Y-62622552D01*
X163217910Y-62603832D01*
X163233562Y-62586562D01*
X163250832Y-62570910D01*
X163269552Y-62557026D01*
X163289543Y-62545044D01*
X163310613Y-62535079D01*
X163332557Y-62527227D01*
X163355166Y-62521563D01*
X163378221Y-62518144D01*
X163401500Y-62517000D01*
X163976500Y-62517000D01*
X163999779Y-62518144D01*
X163999779Y-62518144D01*
G37*
D13*
X163689000Y-62992000D03*
G04 #@! TD*
D12*
G04 #@! TO.C,R6*
G36*
X159822779Y-62518144D02*
X159845834Y-62521563D01*
X159868443Y-62527227D01*
X159890387Y-62535079D01*
X159911457Y-62545044D01*
X159931448Y-62557026D01*
X159950168Y-62570910D01*
X159967438Y-62586562D01*
X159983090Y-62603832D01*
X159996974Y-62622552D01*
X160008956Y-62642543D01*
X160018921Y-62663613D01*
X160026773Y-62685557D01*
X160032437Y-62708166D01*
X160035856Y-62731221D01*
X160037000Y-62754500D01*
X160037000Y-63229500D01*
X160035856Y-63252779D01*
X160032437Y-63275834D01*
X160026773Y-63298443D01*
X160018921Y-63320387D01*
X160008956Y-63341457D01*
X159996974Y-63361448D01*
X159983090Y-63380168D01*
X159967438Y-63397438D01*
X159950168Y-63413090D01*
X159931448Y-63426974D01*
X159911457Y-63438956D01*
X159890387Y-63448921D01*
X159868443Y-63456773D01*
X159845834Y-63462437D01*
X159822779Y-63465856D01*
X159799500Y-63467000D01*
X159224500Y-63467000D01*
X159201221Y-63465856D01*
X159178166Y-63462437D01*
X159155557Y-63456773D01*
X159133613Y-63448921D01*
X159112543Y-63438956D01*
X159092552Y-63426974D01*
X159073832Y-63413090D01*
X159056562Y-63397438D01*
X159040910Y-63380168D01*
X159027026Y-63361448D01*
X159015044Y-63341457D01*
X159005079Y-63320387D01*
X158997227Y-63298443D01*
X158991563Y-63275834D01*
X158988144Y-63252779D01*
X158987000Y-63229500D01*
X158987000Y-62754500D01*
X158988144Y-62731221D01*
X158991563Y-62708166D01*
X158997227Y-62685557D01*
X159005079Y-62663613D01*
X159015044Y-62642543D01*
X159027026Y-62622552D01*
X159040910Y-62603832D01*
X159056562Y-62586562D01*
X159073832Y-62570910D01*
X159092552Y-62557026D01*
X159112543Y-62545044D01*
X159133613Y-62535079D01*
X159155557Y-62527227D01*
X159178166Y-62521563D01*
X159201221Y-62518144D01*
X159224500Y-62517000D01*
X159799500Y-62517000D01*
X159822779Y-62518144D01*
X159822779Y-62518144D01*
G37*
D13*
X159512000Y-62992000D03*
D12*
G36*
X158072779Y-62518144D02*
X158095834Y-62521563D01*
X158118443Y-62527227D01*
X158140387Y-62535079D01*
X158161457Y-62545044D01*
X158181448Y-62557026D01*
X158200168Y-62570910D01*
X158217438Y-62586562D01*
X158233090Y-62603832D01*
X158246974Y-62622552D01*
X158258956Y-62642543D01*
X158268921Y-62663613D01*
X158276773Y-62685557D01*
X158282437Y-62708166D01*
X158285856Y-62731221D01*
X158287000Y-62754500D01*
X158287000Y-63229500D01*
X158285856Y-63252779D01*
X158282437Y-63275834D01*
X158276773Y-63298443D01*
X158268921Y-63320387D01*
X158258956Y-63341457D01*
X158246974Y-63361448D01*
X158233090Y-63380168D01*
X158217438Y-63397438D01*
X158200168Y-63413090D01*
X158181448Y-63426974D01*
X158161457Y-63438956D01*
X158140387Y-63448921D01*
X158118443Y-63456773D01*
X158095834Y-63462437D01*
X158072779Y-63465856D01*
X158049500Y-63467000D01*
X157474500Y-63467000D01*
X157451221Y-63465856D01*
X157428166Y-63462437D01*
X157405557Y-63456773D01*
X157383613Y-63448921D01*
X157362543Y-63438956D01*
X157342552Y-63426974D01*
X157323832Y-63413090D01*
X157306562Y-63397438D01*
X157290910Y-63380168D01*
X157277026Y-63361448D01*
X157265044Y-63341457D01*
X157255079Y-63320387D01*
X157247227Y-63298443D01*
X157241563Y-63275834D01*
X157238144Y-63252779D01*
X157237000Y-63229500D01*
X157237000Y-62754500D01*
X157238144Y-62731221D01*
X157241563Y-62708166D01*
X157247227Y-62685557D01*
X157255079Y-62663613D01*
X157265044Y-62642543D01*
X157277026Y-62622552D01*
X157290910Y-62603832D01*
X157306562Y-62586562D01*
X157323832Y-62570910D01*
X157342552Y-62557026D01*
X157362543Y-62545044D01*
X157383613Y-62535079D01*
X157405557Y-62527227D01*
X157428166Y-62521563D01*
X157451221Y-62518144D01*
X157474500Y-62517000D01*
X158049500Y-62517000D01*
X158072779Y-62518144D01*
X158072779Y-62518144D01*
G37*
D13*
X157762000Y-62992000D03*
G04 #@! TD*
D12*
G04 #@! TO.C,R7*
G36*
X167936779Y-93810944D02*
X167959834Y-93814363D01*
X167982443Y-93820027D01*
X168004387Y-93827879D01*
X168025457Y-93837844D01*
X168045448Y-93849826D01*
X168064168Y-93863710D01*
X168081438Y-93879362D01*
X168097090Y-93896632D01*
X168110974Y-93915352D01*
X168122956Y-93935343D01*
X168132921Y-93956413D01*
X168140773Y-93978357D01*
X168146437Y-94000966D01*
X168149856Y-94024021D01*
X168151000Y-94047300D01*
X168151000Y-94522300D01*
X168149856Y-94545579D01*
X168146437Y-94568634D01*
X168140773Y-94591243D01*
X168132921Y-94613187D01*
X168122956Y-94634257D01*
X168110974Y-94654248D01*
X168097090Y-94672968D01*
X168081438Y-94690238D01*
X168064168Y-94705890D01*
X168045448Y-94719774D01*
X168025457Y-94731756D01*
X168004387Y-94741721D01*
X167982443Y-94749573D01*
X167959834Y-94755237D01*
X167936779Y-94758656D01*
X167913500Y-94759800D01*
X167338500Y-94759800D01*
X167315221Y-94758656D01*
X167292166Y-94755237D01*
X167269557Y-94749573D01*
X167247613Y-94741721D01*
X167226543Y-94731756D01*
X167206552Y-94719774D01*
X167187832Y-94705890D01*
X167170562Y-94690238D01*
X167154910Y-94672968D01*
X167141026Y-94654248D01*
X167129044Y-94634257D01*
X167119079Y-94613187D01*
X167111227Y-94591243D01*
X167105563Y-94568634D01*
X167102144Y-94545579D01*
X167101000Y-94522300D01*
X167101000Y-94047300D01*
X167102144Y-94024021D01*
X167105563Y-94000966D01*
X167111227Y-93978357D01*
X167119079Y-93956413D01*
X167129044Y-93935343D01*
X167141026Y-93915352D01*
X167154910Y-93896632D01*
X167170562Y-93879362D01*
X167187832Y-93863710D01*
X167206552Y-93849826D01*
X167226543Y-93837844D01*
X167247613Y-93827879D01*
X167269557Y-93820027D01*
X167292166Y-93814363D01*
X167315221Y-93810944D01*
X167338500Y-93809800D01*
X167913500Y-93809800D01*
X167936779Y-93810944D01*
X167936779Y-93810944D01*
G37*
D13*
X167626000Y-94284800D03*
D12*
G36*
X166186779Y-93810944D02*
X166209834Y-93814363D01*
X166232443Y-93820027D01*
X166254387Y-93827879D01*
X166275457Y-93837844D01*
X166295448Y-93849826D01*
X166314168Y-93863710D01*
X166331438Y-93879362D01*
X166347090Y-93896632D01*
X166360974Y-93915352D01*
X166372956Y-93935343D01*
X166382921Y-93956413D01*
X166390773Y-93978357D01*
X166396437Y-94000966D01*
X166399856Y-94024021D01*
X166401000Y-94047300D01*
X166401000Y-94522300D01*
X166399856Y-94545579D01*
X166396437Y-94568634D01*
X166390773Y-94591243D01*
X166382921Y-94613187D01*
X166372956Y-94634257D01*
X166360974Y-94654248D01*
X166347090Y-94672968D01*
X166331438Y-94690238D01*
X166314168Y-94705890D01*
X166295448Y-94719774D01*
X166275457Y-94731756D01*
X166254387Y-94741721D01*
X166232443Y-94749573D01*
X166209834Y-94755237D01*
X166186779Y-94758656D01*
X166163500Y-94759800D01*
X165588500Y-94759800D01*
X165565221Y-94758656D01*
X165542166Y-94755237D01*
X165519557Y-94749573D01*
X165497613Y-94741721D01*
X165476543Y-94731756D01*
X165456552Y-94719774D01*
X165437832Y-94705890D01*
X165420562Y-94690238D01*
X165404910Y-94672968D01*
X165391026Y-94654248D01*
X165379044Y-94634257D01*
X165369079Y-94613187D01*
X165361227Y-94591243D01*
X165355563Y-94568634D01*
X165352144Y-94545579D01*
X165351000Y-94522300D01*
X165351000Y-94047300D01*
X165352144Y-94024021D01*
X165355563Y-94000966D01*
X165361227Y-93978357D01*
X165369079Y-93956413D01*
X165379044Y-93935343D01*
X165391026Y-93915352D01*
X165404910Y-93896632D01*
X165420562Y-93879362D01*
X165437832Y-93863710D01*
X165456552Y-93849826D01*
X165476543Y-93837844D01*
X165497613Y-93827879D01*
X165519557Y-93820027D01*
X165542166Y-93814363D01*
X165565221Y-93810944D01*
X165588500Y-93809800D01*
X166163500Y-93809800D01*
X166186779Y-93810944D01*
X166186779Y-93810944D01*
G37*
D13*
X165876000Y-94284800D03*
G04 #@! TD*
D12*
G04 #@! TO.C,R9*
G36*
X167688279Y-98078144D02*
X167711334Y-98081563D01*
X167733943Y-98087227D01*
X167755887Y-98095079D01*
X167776957Y-98105044D01*
X167796948Y-98117026D01*
X167815668Y-98130910D01*
X167832938Y-98146562D01*
X167848590Y-98163832D01*
X167862474Y-98182552D01*
X167874456Y-98202543D01*
X167884421Y-98223613D01*
X167892273Y-98245557D01*
X167897937Y-98268166D01*
X167901356Y-98291221D01*
X167902500Y-98314500D01*
X167902500Y-98789500D01*
X167901356Y-98812779D01*
X167897937Y-98835834D01*
X167892273Y-98858443D01*
X167884421Y-98880387D01*
X167874456Y-98901457D01*
X167862474Y-98921448D01*
X167848590Y-98940168D01*
X167832938Y-98957438D01*
X167815668Y-98973090D01*
X167796948Y-98986974D01*
X167776957Y-98998956D01*
X167755887Y-99008921D01*
X167733943Y-99016773D01*
X167711334Y-99022437D01*
X167688279Y-99025856D01*
X167665000Y-99027000D01*
X167090000Y-99027000D01*
X167066721Y-99025856D01*
X167043666Y-99022437D01*
X167021057Y-99016773D01*
X166999113Y-99008921D01*
X166978043Y-98998956D01*
X166958052Y-98986974D01*
X166939332Y-98973090D01*
X166922062Y-98957438D01*
X166906410Y-98940168D01*
X166892526Y-98921448D01*
X166880544Y-98901457D01*
X166870579Y-98880387D01*
X166862727Y-98858443D01*
X166857063Y-98835834D01*
X166853644Y-98812779D01*
X166852500Y-98789500D01*
X166852500Y-98314500D01*
X166853644Y-98291221D01*
X166857063Y-98268166D01*
X166862727Y-98245557D01*
X166870579Y-98223613D01*
X166880544Y-98202543D01*
X166892526Y-98182552D01*
X166906410Y-98163832D01*
X166922062Y-98146562D01*
X166939332Y-98130910D01*
X166958052Y-98117026D01*
X166978043Y-98105044D01*
X166999113Y-98095079D01*
X167021057Y-98087227D01*
X167043666Y-98081563D01*
X167066721Y-98078144D01*
X167090000Y-98077000D01*
X167665000Y-98077000D01*
X167688279Y-98078144D01*
X167688279Y-98078144D01*
G37*
D13*
X167377500Y-98552000D03*
D12*
G36*
X165938279Y-98078144D02*
X165961334Y-98081563D01*
X165983943Y-98087227D01*
X166005887Y-98095079D01*
X166026957Y-98105044D01*
X166046948Y-98117026D01*
X166065668Y-98130910D01*
X166082938Y-98146562D01*
X166098590Y-98163832D01*
X166112474Y-98182552D01*
X166124456Y-98202543D01*
X166134421Y-98223613D01*
X166142273Y-98245557D01*
X166147937Y-98268166D01*
X166151356Y-98291221D01*
X166152500Y-98314500D01*
X166152500Y-98789500D01*
X166151356Y-98812779D01*
X166147937Y-98835834D01*
X166142273Y-98858443D01*
X166134421Y-98880387D01*
X166124456Y-98901457D01*
X166112474Y-98921448D01*
X166098590Y-98940168D01*
X166082938Y-98957438D01*
X166065668Y-98973090D01*
X166046948Y-98986974D01*
X166026957Y-98998956D01*
X166005887Y-99008921D01*
X165983943Y-99016773D01*
X165961334Y-99022437D01*
X165938279Y-99025856D01*
X165915000Y-99027000D01*
X165340000Y-99027000D01*
X165316721Y-99025856D01*
X165293666Y-99022437D01*
X165271057Y-99016773D01*
X165249113Y-99008921D01*
X165228043Y-98998956D01*
X165208052Y-98986974D01*
X165189332Y-98973090D01*
X165172062Y-98957438D01*
X165156410Y-98940168D01*
X165142526Y-98921448D01*
X165130544Y-98901457D01*
X165120579Y-98880387D01*
X165112727Y-98858443D01*
X165107063Y-98835834D01*
X165103644Y-98812779D01*
X165102500Y-98789500D01*
X165102500Y-98314500D01*
X165103644Y-98291221D01*
X165107063Y-98268166D01*
X165112727Y-98245557D01*
X165120579Y-98223613D01*
X165130544Y-98202543D01*
X165142526Y-98182552D01*
X165156410Y-98163832D01*
X165172062Y-98146562D01*
X165189332Y-98130910D01*
X165208052Y-98117026D01*
X165228043Y-98105044D01*
X165249113Y-98095079D01*
X165271057Y-98087227D01*
X165293666Y-98081563D01*
X165316721Y-98078144D01*
X165340000Y-98077000D01*
X165915000Y-98077000D01*
X165938279Y-98078144D01*
X165938279Y-98078144D01*
G37*
D13*
X165627500Y-98552000D03*
G04 #@! TD*
D12*
G04 #@! TO.C,R10*
G36*
X167734879Y-78710644D02*
X167757934Y-78714063D01*
X167780543Y-78719727D01*
X167802487Y-78727579D01*
X167823557Y-78737544D01*
X167843548Y-78749526D01*
X167862268Y-78763410D01*
X167879538Y-78779062D01*
X167895190Y-78796332D01*
X167909074Y-78815052D01*
X167921056Y-78835043D01*
X167931021Y-78856113D01*
X167938873Y-78878057D01*
X167944537Y-78900666D01*
X167947956Y-78923721D01*
X167949100Y-78947000D01*
X167949100Y-79422000D01*
X167947956Y-79445279D01*
X167944537Y-79468334D01*
X167938873Y-79490943D01*
X167931021Y-79512887D01*
X167921056Y-79533957D01*
X167909074Y-79553948D01*
X167895190Y-79572668D01*
X167879538Y-79589938D01*
X167862268Y-79605590D01*
X167843548Y-79619474D01*
X167823557Y-79631456D01*
X167802487Y-79641421D01*
X167780543Y-79649273D01*
X167757934Y-79654937D01*
X167734879Y-79658356D01*
X167711600Y-79659500D01*
X167136600Y-79659500D01*
X167113321Y-79658356D01*
X167090266Y-79654937D01*
X167067657Y-79649273D01*
X167045713Y-79641421D01*
X167024643Y-79631456D01*
X167004652Y-79619474D01*
X166985932Y-79605590D01*
X166968662Y-79589938D01*
X166953010Y-79572668D01*
X166939126Y-79553948D01*
X166927144Y-79533957D01*
X166917179Y-79512887D01*
X166909327Y-79490943D01*
X166903663Y-79468334D01*
X166900244Y-79445279D01*
X166899100Y-79422000D01*
X166899100Y-78947000D01*
X166900244Y-78923721D01*
X166903663Y-78900666D01*
X166909327Y-78878057D01*
X166917179Y-78856113D01*
X166927144Y-78835043D01*
X166939126Y-78815052D01*
X166953010Y-78796332D01*
X166968662Y-78779062D01*
X166985932Y-78763410D01*
X167004652Y-78749526D01*
X167024643Y-78737544D01*
X167045713Y-78727579D01*
X167067657Y-78719727D01*
X167090266Y-78714063D01*
X167113321Y-78710644D01*
X167136600Y-78709500D01*
X167711600Y-78709500D01*
X167734879Y-78710644D01*
X167734879Y-78710644D01*
G37*
D13*
X167424100Y-79184500D03*
D12*
G36*
X165984879Y-78710644D02*
X166007934Y-78714063D01*
X166030543Y-78719727D01*
X166052487Y-78727579D01*
X166073557Y-78737544D01*
X166093548Y-78749526D01*
X166112268Y-78763410D01*
X166129538Y-78779062D01*
X166145190Y-78796332D01*
X166159074Y-78815052D01*
X166171056Y-78835043D01*
X166181021Y-78856113D01*
X166188873Y-78878057D01*
X166194537Y-78900666D01*
X166197956Y-78923721D01*
X166199100Y-78947000D01*
X166199100Y-79422000D01*
X166197956Y-79445279D01*
X166194537Y-79468334D01*
X166188873Y-79490943D01*
X166181021Y-79512887D01*
X166171056Y-79533957D01*
X166159074Y-79553948D01*
X166145190Y-79572668D01*
X166129538Y-79589938D01*
X166112268Y-79605590D01*
X166093548Y-79619474D01*
X166073557Y-79631456D01*
X166052487Y-79641421D01*
X166030543Y-79649273D01*
X166007934Y-79654937D01*
X165984879Y-79658356D01*
X165961600Y-79659500D01*
X165386600Y-79659500D01*
X165363321Y-79658356D01*
X165340266Y-79654937D01*
X165317657Y-79649273D01*
X165295713Y-79641421D01*
X165274643Y-79631456D01*
X165254652Y-79619474D01*
X165235932Y-79605590D01*
X165218662Y-79589938D01*
X165203010Y-79572668D01*
X165189126Y-79553948D01*
X165177144Y-79533957D01*
X165167179Y-79512887D01*
X165159327Y-79490943D01*
X165153663Y-79468334D01*
X165150244Y-79445279D01*
X165149100Y-79422000D01*
X165149100Y-78947000D01*
X165150244Y-78923721D01*
X165153663Y-78900666D01*
X165159327Y-78878057D01*
X165167179Y-78856113D01*
X165177144Y-78835043D01*
X165189126Y-78815052D01*
X165203010Y-78796332D01*
X165218662Y-78779062D01*
X165235932Y-78763410D01*
X165254652Y-78749526D01*
X165274643Y-78737544D01*
X165295713Y-78727579D01*
X165317657Y-78719727D01*
X165340266Y-78714063D01*
X165363321Y-78710644D01*
X165386600Y-78709500D01*
X165961600Y-78709500D01*
X165984879Y-78710644D01*
X165984879Y-78710644D01*
G37*
D13*
X165674100Y-79184500D03*
G04 #@! TD*
D12*
G04 #@! TO.C,R11*
G36*
X167787413Y-81521552D02*
X167810468Y-81524971D01*
X167833077Y-81530635D01*
X167855021Y-81538487D01*
X167876091Y-81548452D01*
X167896082Y-81560434D01*
X167914802Y-81574318D01*
X167932072Y-81589970D01*
X167947724Y-81607240D01*
X167961608Y-81625960D01*
X167973590Y-81645951D01*
X167983555Y-81667021D01*
X167991407Y-81688965D01*
X167997071Y-81711574D01*
X168000490Y-81734629D01*
X168001634Y-81757908D01*
X168001634Y-82232908D01*
X168000490Y-82256187D01*
X167997071Y-82279242D01*
X167991407Y-82301851D01*
X167983555Y-82323795D01*
X167973590Y-82344865D01*
X167961608Y-82364856D01*
X167947724Y-82383576D01*
X167932072Y-82400846D01*
X167914802Y-82416498D01*
X167896082Y-82430382D01*
X167876091Y-82442364D01*
X167855021Y-82452329D01*
X167833077Y-82460181D01*
X167810468Y-82465845D01*
X167787413Y-82469264D01*
X167764134Y-82470408D01*
X167189134Y-82470408D01*
X167165855Y-82469264D01*
X167142800Y-82465845D01*
X167120191Y-82460181D01*
X167098247Y-82452329D01*
X167077177Y-82442364D01*
X167057186Y-82430382D01*
X167038466Y-82416498D01*
X167021196Y-82400846D01*
X167005544Y-82383576D01*
X166991660Y-82364856D01*
X166979678Y-82344865D01*
X166969713Y-82323795D01*
X166961861Y-82301851D01*
X166956197Y-82279242D01*
X166952778Y-82256187D01*
X166951634Y-82232908D01*
X166951634Y-81757908D01*
X166952778Y-81734629D01*
X166956197Y-81711574D01*
X166961861Y-81688965D01*
X166969713Y-81667021D01*
X166979678Y-81645951D01*
X166991660Y-81625960D01*
X167005544Y-81607240D01*
X167021196Y-81589970D01*
X167038466Y-81574318D01*
X167057186Y-81560434D01*
X167077177Y-81548452D01*
X167098247Y-81538487D01*
X167120191Y-81530635D01*
X167142800Y-81524971D01*
X167165855Y-81521552D01*
X167189134Y-81520408D01*
X167764134Y-81520408D01*
X167787413Y-81521552D01*
X167787413Y-81521552D01*
G37*
D13*
X167476634Y-81995408D03*
D12*
G36*
X166037413Y-81521552D02*
X166060468Y-81524971D01*
X166083077Y-81530635D01*
X166105021Y-81538487D01*
X166126091Y-81548452D01*
X166146082Y-81560434D01*
X166164802Y-81574318D01*
X166182072Y-81589970D01*
X166197724Y-81607240D01*
X166211608Y-81625960D01*
X166223590Y-81645951D01*
X166233555Y-81667021D01*
X166241407Y-81688965D01*
X166247071Y-81711574D01*
X166250490Y-81734629D01*
X166251634Y-81757908D01*
X166251634Y-82232908D01*
X166250490Y-82256187D01*
X166247071Y-82279242D01*
X166241407Y-82301851D01*
X166233555Y-82323795D01*
X166223590Y-82344865D01*
X166211608Y-82364856D01*
X166197724Y-82383576D01*
X166182072Y-82400846D01*
X166164802Y-82416498D01*
X166146082Y-82430382D01*
X166126091Y-82442364D01*
X166105021Y-82452329D01*
X166083077Y-82460181D01*
X166060468Y-82465845D01*
X166037413Y-82469264D01*
X166014134Y-82470408D01*
X165439134Y-82470408D01*
X165415855Y-82469264D01*
X165392800Y-82465845D01*
X165370191Y-82460181D01*
X165348247Y-82452329D01*
X165327177Y-82442364D01*
X165307186Y-82430382D01*
X165288466Y-82416498D01*
X165271196Y-82400846D01*
X165255544Y-82383576D01*
X165241660Y-82364856D01*
X165229678Y-82344865D01*
X165219713Y-82323795D01*
X165211861Y-82301851D01*
X165206197Y-82279242D01*
X165202778Y-82256187D01*
X165201634Y-82232908D01*
X165201634Y-81757908D01*
X165202778Y-81734629D01*
X165206197Y-81711574D01*
X165211861Y-81688965D01*
X165219713Y-81667021D01*
X165229678Y-81645951D01*
X165241660Y-81625960D01*
X165255544Y-81607240D01*
X165271196Y-81589970D01*
X165288466Y-81574318D01*
X165307186Y-81560434D01*
X165327177Y-81548452D01*
X165348247Y-81538487D01*
X165370191Y-81530635D01*
X165392800Y-81524971D01*
X165415855Y-81521552D01*
X165439134Y-81520408D01*
X166014134Y-81520408D01*
X166037413Y-81521552D01*
X166037413Y-81521552D01*
G37*
D13*
X165726634Y-81995408D03*
G04 #@! TD*
D12*
G04 #@! TO.C,R12*
G36*
X167555779Y-84743144D02*
X167578834Y-84746563D01*
X167601443Y-84752227D01*
X167623387Y-84760079D01*
X167644457Y-84770044D01*
X167664448Y-84782026D01*
X167683168Y-84795910D01*
X167700438Y-84811562D01*
X167716090Y-84828832D01*
X167729974Y-84847552D01*
X167741956Y-84867543D01*
X167751921Y-84888613D01*
X167759773Y-84910557D01*
X167765437Y-84933166D01*
X167768856Y-84956221D01*
X167770000Y-84979500D01*
X167770000Y-85454500D01*
X167768856Y-85477779D01*
X167765437Y-85500834D01*
X167759773Y-85523443D01*
X167751921Y-85545387D01*
X167741956Y-85566457D01*
X167729974Y-85586448D01*
X167716090Y-85605168D01*
X167700438Y-85622438D01*
X167683168Y-85638090D01*
X167664448Y-85651974D01*
X167644457Y-85663956D01*
X167623387Y-85673921D01*
X167601443Y-85681773D01*
X167578834Y-85687437D01*
X167555779Y-85690856D01*
X167532500Y-85692000D01*
X166957500Y-85692000D01*
X166934221Y-85690856D01*
X166911166Y-85687437D01*
X166888557Y-85681773D01*
X166866613Y-85673921D01*
X166845543Y-85663956D01*
X166825552Y-85651974D01*
X166806832Y-85638090D01*
X166789562Y-85622438D01*
X166773910Y-85605168D01*
X166760026Y-85586448D01*
X166748044Y-85566457D01*
X166738079Y-85545387D01*
X166730227Y-85523443D01*
X166724563Y-85500834D01*
X166721144Y-85477779D01*
X166720000Y-85454500D01*
X166720000Y-84979500D01*
X166721144Y-84956221D01*
X166724563Y-84933166D01*
X166730227Y-84910557D01*
X166738079Y-84888613D01*
X166748044Y-84867543D01*
X166760026Y-84847552D01*
X166773910Y-84828832D01*
X166789562Y-84811562D01*
X166806832Y-84795910D01*
X166825552Y-84782026D01*
X166845543Y-84770044D01*
X166866613Y-84760079D01*
X166888557Y-84752227D01*
X166911166Y-84746563D01*
X166934221Y-84743144D01*
X166957500Y-84742000D01*
X167532500Y-84742000D01*
X167555779Y-84743144D01*
X167555779Y-84743144D01*
G37*
D13*
X167245000Y-85217000D03*
D12*
G36*
X165805779Y-84743144D02*
X165828834Y-84746563D01*
X165851443Y-84752227D01*
X165873387Y-84760079D01*
X165894457Y-84770044D01*
X165914448Y-84782026D01*
X165933168Y-84795910D01*
X165950438Y-84811562D01*
X165966090Y-84828832D01*
X165979974Y-84847552D01*
X165991956Y-84867543D01*
X166001921Y-84888613D01*
X166009773Y-84910557D01*
X166015437Y-84933166D01*
X166018856Y-84956221D01*
X166020000Y-84979500D01*
X166020000Y-85454500D01*
X166018856Y-85477779D01*
X166015437Y-85500834D01*
X166009773Y-85523443D01*
X166001921Y-85545387D01*
X165991956Y-85566457D01*
X165979974Y-85586448D01*
X165966090Y-85605168D01*
X165950438Y-85622438D01*
X165933168Y-85638090D01*
X165914448Y-85651974D01*
X165894457Y-85663956D01*
X165873387Y-85673921D01*
X165851443Y-85681773D01*
X165828834Y-85687437D01*
X165805779Y-85690856D01*
X165782500Y-85692000D01*
X165207500Y-85692000D01*
X165184221Y-85690856D01*
X165161166Y-85687437D01*
X165138557Y-85681773D01*
X165116613Y-85673921D01*
X165095543Y-85663956D01*
X165075552Y-85651974D01*
X165056832Y-85638090D01*
X165039562Y-85622438D01*
X165023910Y-85605168D01*
X165010026Y-85586448D01*
X164998044Y-85566457D01*
X164988079Y-85545387D01*
X164980227Y-85523443D01*
X164974563Y-85500834D01*
X164971144Y-85477779D01*
X164970000Y-85454500D01*
X164970000Y-84979500D01*
X164971144Y-84956221D01*
X164974563Y-84933166D01*
X164980227Y-84910557D01*
X164988079Y-84888613D01*
X164998044Y-84867543D01*
X165010026Y-84847552D01*
X165023910Y-84828832D01*
X165039562Y-84811562D01*
X165056832Y-84795910D01*
X165075552Y-84782026D01*
X165095543Y-84770044D01*
X165116613Y-84760079D01*
X165138557Y-84752227D01*
X165161166Y-84746563D01*
X165184221Y-84743144D01*
X165207500Y-84742000D01*
X165782500Y-84742000D01*
X165805779Y-84743144D01*
X165805779Y-84743144D01*
G37*
D13*
X165495000Y-85217000D03*
G04 #@! TD*
D12*
G04 #@! TO.C,C1*
G36*
X172522779Y-54390144D02*
X172545834Y-54393563D01*
X172568443Y-54399227D01*
X172590387Y-54407079D01*
X172611457Y-54417044D01*
X172631448Y-54429026D01*
X172650168Y-54442910D01*
X172667438Y-54458562D01*
X172683090Y-54475832D01*
X172696974Y-54494552D01*
X172708956Y-54514543D01*
X172718921Y-54535613D01*
X172726773Y-54557557D01*
X172732437Y-54580166D01*
X172735856Y-54603221D01*
X172737000Y-54626500D01*
X172737000Y-55101500D01*
X172735856Y-55124779D01*
X172732437Y-55147834D01*
X172726773Y-55170443D01*
X172718921Y-55192387D01*
X172708956Y-55213457D01*
X172696974Y-55233448D01*
X172683090Y-55252168D01*
X172667438Y-55269438D01*
X172650168Y-55285090D01*
X172631448Y-55298974D01*
X172611457Y-55310956D01*
X172590387Y-55320921D01*
X172568443Y-55328773D01*
X172545834Y-55334437D01*
X172522779Y-55337856D01*
X172499500Y-55339000D01*
X171924500Y-55339000D01*
X171901221Y-55337856D01*
X171878166Y-55334437D01*
X171855557Y-55328773D01*
X171833613Y-55320921D01*
X171812543Y-55310956D01*
X171792552Y-55298974D01*
X171773832Y-55285090D01*
X171756562Y-55269438D01*
X171740910Y-55252168D01*
X171727026Y-55233448D01*
X171715044Y-55213457D01*
X171705079Y-55192387D01*
X171697227Y-55170443D01*
X171691563Y-55147834D01*
X171688144Y-55124779D01*
X171687000Y-55101500D01*
X171687000Y-54626500D01*
X171688144Y-54603221D01*
X171691563Y-54580166D01*
X171697227Y-54557557D01*
X171705079Y-54535613D01*
X171715044Y-54514543D01*
X171727026Y-54494552D01*
X171740910Y-54475832D01*
X171756562Y-54458562D01*
X171773832Y-54442910D01*
X171792552Y-54429026D01*
X171812543Y-54417044D01*
X171833613Y-54407079D01*
X171855557Y-54399227D01*
X171878166Y-54393563D01*
X171901221Y-54390144D01*
X171924500Y-54389000D01*
X172499500Y-54389000D01*
X172522779Y-54390144D01*
X172522779Y-54390144D01*
G37*
D13*
X172212000Y-54864000D03*
D12*
G36*
X170772779Y-54390144D02*
X170795834Y-54393563D01*
X170818443Y-54399227D01*
X170840387Y-54407079D01*
X170861457Y-54417044D01*
X170881448Y-54429026D01*
X170900168Y-54442910D01*
X170917438Y-54458562D01*
X170933090Y-54475832D01*
X170946974Y-54494552D01*
X170958956Y-54514543D01*
X170968921Y-54535613D01*
X170976773Y-54557557D01*
X170982437Y-54580166D01*
X170985856Y-54603221D01*
X170987000Y-54626500D01*
X170987000Y-55101500D01*
X170985856Y-55124779D01*
X170982437Y-55147834D01*
X170976773Y-55170443D01*
X170968921Y-55192387D01*
X170958956Y-55213457D01*
X170946974Y-55233448D01*
X170933090Y-55252168D01*
X170917438Y-55269438D01*
X170900168Y-55285090D01*
X170881448Y-55298974D01*
X170861457Y-55310956D01*
X170840387Y-55320921D01*
X170818443Y-55328773D01*
X170795834Y-55334437D01*
X170772779Y-55337856D01*
X170749500Y-55339000D01*
X170174500Y-55339000D01*
X170151221Y-55337856D01*
X170128166Y-55334437D01*
X170105557Y-55328773D01*
X170083613Y-55320921D01*
X170062543Y-55310956D01*
X170042552Y-55298974D01*
X170023832Y-55285090D01*
X170006562Y-55269438D01*
X169990910Y-55252168D01*
X169977026Y-55233448D01*
X169965044Y-55213457D01*
X169955079Y-55192387D01*
X169947227Y-55170443D01*
X169941563Y-55147834D01*
X169938144Y-55124779D01*
X169937000Y-55101500D01*
X169937000Y-54626500D01*
X169938144Y-54603221D01*
X169941563Y-54580166D01*
X169947227Y-54557557D01*
X169955079Y-54535613D01*
X169965044Y-54514543D01*
X169977026Y-54494552D01*
X169990910Y-54475832D01*
X170006562Y-54458562D01*
X170023832Y-54442910D01*
X170042552Y-54429026D01*
X170062543Y-54417044D01*
X170083613Y-54407079D01*
X170105557Y-54399227D01*
X170128166Y-54393563D01*
X170151221Y-54390144D01*
X170174500Y-54389000D01*
X170749500Y-54389000D01*
X170772779Y-54390144D01*
X170772779Y-54390144D01*
G37*
D13*
X170462000Y-54864000D03*
G04 #@! TD*
D12*
G04 #@! TO.C,C2*
G36*
X144582779Y-62772144D02*
X144605834Y-62775563D01*
X144628443Y-62781227D01*
X144650387Y-62789079D01*
X144671457Y-62799044D01*
X144691448Y-62811026D01*
X144710168Y-62824910D01*
X144727438Y-62840562D01*
X144743090Y-62857832D01*
X144756974Y-62876552D01*
X144768956Y-62896543D01*
X144778921Y-62917613D01*
X144786773Y-62939557D01*
X144792437Y-62962166D01*
X144795856Y-62985221D01*
X144797000Y-63008500D01*
X144797000Y-63483500D01*
X144795856Y-63506779D01*
X144792437Y-63529834D01*
X144786773Y-63552443D01*
X144778921Y-63574387D01*
X144768956Y-63595457D01*
X144756974Y-63615448D01*
X144743090Y-63634168D01*
X144727438Y-63651438D01*
X144710168Y-63667090D01*
X144691448Y-63680974D01*
X144671457Y-63692956D01*
X144650387Y-63702921D01*
X144628443Y-63710773D01*
X144605834Y-63716437D01*
X144582779Y-63719856D01*
X144559500Y-63721000D01*
X143984500Y-63721000D01*
X143961221Y-63719856D01*
X143938166Y-63716437D01*
X143915557Y-63710773D01*
X143893613Y-63702921D01*
X143872543Y-63692956D01*
X143852552Y-63680974D01*
X143833832Y-63667090D01*
X143816562Y-63651438D01*
X143800910Y-63634168D01*
X143787026Y-63615448D01*
X143775044Y-63595457D01*
X143765079Y-63574387D01*
X143757227Y-63552443D01*
X143751563Y-63529834D01*
X143748144Y-63506779D01*
X143747000Y-63483500D01*
X143747000Y-63008500D01*
X143748144Y-62985221D01*
X143751563Y-62962166D01*
X143757227Y-62939557D01*
X143765079Y-62917613D01*
X143775044Y-62896543D01*
X143787026Y-62876552D01*
X143800910Y-62857832D01*
X143816562Y-62840562D01*
X143833832Y-62824910D01*
X143852552Y-62811026D01*
X143872543Y-62799044D01*
X143893613Y-62789079D01*
X143915557Y-62781227D01*
X143938166Y-62775563D01*
X143961221Y-62772144D01*
X143984500Y-62771000D01*
X144559500Y-62771000D01*
X144582779Y-62772144D01*
X144582779Y-62772144D01*
G37*
D13*
X144272000Y-63246000D03*
D12*
G36*
X146332779Y-62772144D02*
X146355834Y-62775563D01*
X146378443Y-62781227D01*
X146400387Y-62789079D01*
X146421457Y-62799044D01*
X146441448Y-62811026D01*
X146460168Y-62824910D01*
X146477438Y-62840562D01*
X146493090Y-62857832D01*
X146506974Y-62876552D01*
X146518956Y-62896543D01*
X146528921Y-62917613D01*
X146536773Y-62939557D01*
X146542437Y-62962166D01*
X146545856Y-62985221D01*
X146547000Y-63008500D01*
X146547000Y-63483500D01*
X146545856Y-63506779D01*
X146542437Y-63529834D01*
X146536773Y-63552443D01*
X146528921Y-63574387D01*
X146518956Y-63595457D01*
X146506974Y-63615448D01*
X146493090Y-63634168D01*
X146477438Y-63651438D01*
X146460168Y-63667090D01*
X146441448Y-63680974D01*
X146421457Y-63692956D01*
X146400387Y-63702921D01*
X146378443Y-63710773D01*
X146355834Y-63716437D01*
X146332779Y-63719856D01*
X146309500Y-63721000D01*
X145734500Y-63721000D01*
X145711221Y-63719856D01*
X145688166Y-63716437D01*
X145665557Y-63710773D01*
X145643613Y-63702921D01*
X145622543Y-63692956D01*
X145602552Y-63680974D01*
X145583832Y-63667090D01*
X145566562Y-63651438D01*
X145550910Y-63634168D01*
X145537026Y-63615448D01*
X145525044Y-63595457D01*
X145515079Y-63574387D01*
X145507227Y-63552443D01*
X145501563Y-63529834D01*
X145498144Y-63506779D01*
X145497000Y-63483500D01*
X145497000Y-63008500D01*
X145498144Y-62985221D01*
X145501563Y-62962166D01*
X145507227Y-62939557D01*
X145515079Y-62917613D01*
X145525044Y-62896543D01*
X145537026Y-62876552D01*
X145550910Y-62857832D01*
X145566562Y-62840562D01*
X145583832Y-62824910D01*
X145602552Y-62811026D01*
X145622543Y-62799044D01*
X145643613Y-62789079D01*
X145665557Y-62781227D01*
X145688166Y-62775563D01*
X145711221Y-62772144D01*
X145734500Y-62771000D01*
X146309500Y-62771000D01*
X146332779Y-62772144D01*
X146332779Y-62772144D01*
G37*
D13*
X146022000Y-63246000D03*
G04 #@! TD*
D12*
G04 #@! TO.C,C6*
G36*
X140292779Y-62772144D02*
X140315834Y-62775563D01*
X140338443Y-62781227D01*
X140360387Y-62789079D01*
X140381457Y-62799044D01*
X140401448Y-62811026D01*
X140420168Y-62824910D01*
X140437438Y-62840562D01*
X140453090Y-62857832D01*
X140466974Y-62876552D01*
X140478956Y-62896543D01*
X140488921Y-62917613D01*
X140496773Y-62939557D01*
X140502437Y-62962166D01*
X140505856Y-62985221D01*
X140507000Y-63008500D01*
X140507000Y-63483500D01*
X140505856Y-63506779D01*
X140502437Y-63529834D01*
X140496773Y-63552443D01*
X140488921Y-63574387D01*
X140478956Y-63595457D01*
X140466974Y-63615448D01*
X140453090Y-63634168D01*
X140437438Y-63651438D01*
X140420168Y-63667090D01*
X140401448Y-63680974D01*
X140381457Y-63692956D01*
X140360387Y-63702921D01*
X140338443Y-63710773D01*
X140315834Y-63716437D01*
X140292779Y-63719856D01*
X140269500Y-63721000D01*
X139694500Y-63721000D01*
X139671221Y-63719856D01*
X139648166Y-63716437D01*
X139625557Y-63710773D01*
X139603613Y-63702921D01*
X139582543Y-63692956D01*
X139562552Y-63680974D01*
X139543832Y-63667090D01*
X139526562Y-63651438D01*
X139510910Y-63634168D01*
X139497026Y-63615448D01*
X139485044Y-63595457D01*
X139475079Y-63574387D01*
X139467227Y-63552443D01*
X139461563Y-63529834D01*
X139458144Y-63506779D01*
X139457000Y-63483500D01*
X139457000Y-63008500D01*
X139458144Y-62985221D01*
X139461563Y-62962166D01*
X139467227Y-62939557D01*
X139475079Y-62917613D01*
X139485044Y-62896543D01*
X139497026Y-62876552D01*
X139510910Y-62857832D01*
X139526562Y-62840562D01*
X139543832Y-62824910D01*
X139562552Y-62811026D01*
X139582543Y-62799044D01*
X139603613Y-62789079D01*
X139625557Y-62781227D01*
X139648166Y-62775563D01*
X139671221Y-62772144D01*
X139694500Y-62771000D01*
X140269500Y-62771000D01*
X140292779Y-62772144D01*
X140292779Y-62772144D01*
G37*
D13*
X139982000Y-63246000D03*
D12*
G36*
X142042779Y-62772144D02*
X142065834Y-62775563D01*
X142088443Y-62781227D01*
X142110387Y-62789079D01*
X142131457Y-62799044D01*
X142151448Y-62811026D01*
X142170168Y-62824910D01*
X142187438Y-62840562D01*
X142203090Y-62857832D01*
X142216974Y-62876552D01*
X142228956Y-62896543D01*
X142238921Y-62917613D01*
X142246773Y-62939557D01*
X142252437Y-62962166D01*
X142255856Y-62985221D01*
X142257000Y-63008500D01*
X142257000Y-63483500D01*
X142255856Y-63506779D01*
X142252437Y-63529834D01*
X142246773Y-63552443D01*
X142238921Y-63574387D01*
X142228956Y-63595457D01*
X142216974Y-63615448D01*
X142203090Y-63634168D01*
X142187438Y-63651438D01*
X142170168Y-63667090D01*
X142151448Y-63680974D01*
X142131457Y-63692956D01*
X142110387Y-63702921D01*
X142088443Y-63710773D01*
X142065834Y-63716437D01*
X142042779Y-63719856D01*
X142019500Y-63721000D01*
X141444500Y-63721000D01*
X141421221Y-63719856D01*
X141398166Y-63716437D01*
X141375557Y-63710773D01*
X141353613Y-63702921D01*
X141332543Y-63692956D01*
X141312552Y-63680974D01*
X141293832Y-63667090D01*
X141276562Y-63651438D01*
X141260910Y-63634168D01*
X141247026Y-63615448D01*
X141235044Y-63595457D01*
X141225079Y-63574387D01*
X141217227Y-63552443D01*
X141211563Y-63529834D01*
X141208144Y-63506779D01*
X141207000Y-63483500D01*
X141207000Y-63008500D01*
X141208144Y-62985221D01*
X141211563Y-62962166D01*
X141217227Y-62939557D01*
X141225079Y-62917613D01*
X141235044Y-62896543D01*
X141247026Y-62876552D01*
X141260910Y-62857832D01*
X141276562Y-62840562D01*
X141293832Y-62824910D01*
X141312552Y-62811026D01*
X141332543Y-62799044D01*
X141353613Y-62789079D01*
X141375557Y-62781227D01*
X141398166Y-62775563D01*
X141421221Y-62772144D01*
X141444500Y-62771000D01*
X142019500Y-62771000D01*
X142042779Y-62772144D01*
X142042779Y-62772144D01*
G37*
D13*
X141732000Y-63246000D03*
G04 #@! TD*
D12*
G04 #@! TO.C,R13*
G36*
X165805779Y-88045144D02*
X165828834Y-88048563D01*
X165851443Y-88054227D01*
X165873387Y-88062079D01*
X165894457Y-88072044D01*
X165914448Y-88084026D01*
X165933168Y-88097910D01*
X165950438Y-88113562D01*
X165966090Y-88130832D01*
X165979974Y-88149552D01*
X165991956Y-88169543D01*
X166001921Y-88190613D01*
X166009773Y-88212557D01*
X166015437Y-88235166D01*
X166018856Y-88258221D01*
X166020000Y-88281500D01*
X166020000Y-88756500D01*
X166018856Y-88779779D01*
X166015437Y-88802834D01*
X166009773Y-88825443D01*
X166001921Y-88847387D01*
X165991956Y-88868457D01*
X165979974Y-88888448D01*
X165966090Y-88907168D01*
X165950438Y-88924438D01*
X165933168Y-88940090D01*
X165914448Y-88953974D01*
X165894457Y-88965956D01*
X165873387Y-88975921D01*
X165851443Y-88983773D01*
X165828834Y-88989437D01*
X165805779Y-88992856D01*
X165782500Y-88994000D01*
X165207500Y-88994000D01*
X165184221Y-88992856D01*
X165161166Y-88989437D01*
X165138557Y-88983773D01*
X165116613Y-88975921D01*
X165095543Y-88965956D01*
X165075552Y-88953974D01*
X165056832Y-88940090D01*
X165039562Y-88924438D01*
X165023910Y-88907168D01*
X165010026Y-88888448D01*
X164998044Y-88868457D01*
X164988079Y-88847387D01*
X164980227Y-88825443D01*
X164974563Y-88802834D01*
X164971144Y-88779779D01*
X164970000Y-88756500D01*
X164970000Y-88281500D01*
X164971144Y-88258221D01*
X164974563Y-88235166D01*
X164980227Y-88212557D01*
X164988079Y-88190613D01*
X164998044Y-88169543D01*
X165010026Y-88149552D01*
X165023910Y-88130832D01*
X165039562Y-88113562D01*
X165056832Y-88097910D01*
X165075552Y-88084026D01*
X165095543Y-88072044D01*
X165116613Y-88062079D01*
X165138557Y-88054227D01*
X165161166Y-88048563D01*
X165184221Y-88045144D01*
X165207500Y-88044000D01*
X165782500Y-88044000D01*
X165805779Y-88045144D01*
X165805779Y-88045144D01*
G37*
D13*
X165495000Y-88519000D03*
D12*
G36*
X167555779Y-88045144D02*
X167578834Y-88048563D01*
X167601443Y-88054227D01*
X167623387Y-88062079D01*
X167644457Y-88072044D01*
X167664448Y-88084026D01*
X167683168Y-88097910D01*
X167700438Y-88113562D01*
X167716090Y-88130832D01*
X167729974Y-88149552D01*
X167741956Y-88169543D01*
X167751921Y-88190613D01*
X167759773Y-88212557D01*
X167765437Y-88235166D01*
X167768856Y-88258221D01*
X167770000Y-88281500D01*
X167770000Y-88756500D01*
X167768856Y-88779779D01*
X167765437Y-88802834D01*
X167759773Y-88825443D01*
X167751921Y-88847387D01*
X167741956Y-88868457D01*
X167729974Y-88888448D01*
X167716090Y-88907168D01*
X167700438Y-88924438D01*
X167683168Y-88940090D01*
X167664448Y-88953974D01*
X167644457Y-88965956D01*
X167623387Y-88975921D01*
X167601443Y-88983773D01*
X167578834Y-88989437D01*
X167555779Y-88992856D01*
X167532500Y-88994000D01*
X166957500Y-88994000D01*
X166934221Y-88992856D01*
X166911166Y-88989437D01*
X166888557Y-88983773D01*
X166866613Y-88975921D01*
X166845543Y-88965956D01*
X166825552Y-88953974D01*
X166806832Y-88940090D01*
X166789562Y-88924438D01*
X166773910Y-88907168D01*
X166760026Y-88888448D01*
X166748044Y-88868457D01*
X166738079Y-88847387D01*
X166730227Y-88825443D01*
X166724563Y-88802834D01*
X166721144Y-88779779D01*
X166720000Y-88756500D01*
X166720000Y-88281500D01*
X166721144Y-88258221D01*
X166724563Y-88235166D01*
X166730227Y-88212557D01*
X166738079Y-88190613D01*
X166748044Y-88169543D01*
X166760026Y-88149552D01*
X166773910Y-88130832D01*
X166789562Y-88113562D01*
X166806832Y-88097910D01*
X166825552Y-88084026D01*
X166845543Y-88072044D01*
X166866613Y-88062079D01*
X166888557Y-88054227D01*
X166911166Y-88048563D01*
X166934221Y-88045144D01*
X166957500Y-88044000D01*
X167532500Y-88044000D01*
X167555779Y-88045144D01*
X167555779Y-88045144D01*
G37*
D13*
X167245000Y-88519000D03*
G04 #@! TD*
D12*
G04 #@! TO.C,R14*
G36*
X167682779Y-101253144D02*
X167705834Y-101256563D01*
X167728443Y-101262227D01*
X167750387Y-101270079D01*
X167771457Y-101280044D01*
X167791448Y-101292026D01*
X167810168Y-101305910D01*
X167827438Y-101321562D01*
X167843090Y-101338832D01*
X167856974Y-101357552D01*
X167868956Y-101377543D01*
X167878921Y-101398613D01*
X167886773Y-101420557D01*
X167892437Y-101443166D01*
X167895856Y-101466221D01*
X167897000Y-101489500D01*
X167897000Y-101964500D01*
X167895856Y-101987779D01*
X167892437Y-102010834D01*
X167886773Y-102033443D01*
X167878921Y-102055387D01*
X167868956Y-102076457D01*
X167856974Y-102096448D01*
X167843090Y-102115168D01*
X167827438Y-102132438D01*
X167810168Y-102148090D01*
X167791448Y-102161974D01*
X167771457Y-102173956D01*
X167750387Y-102183921D01*
X167728443Y-102191773D01*
X167705834Y-102197437D01*
X167682779Y-102200856D01*
X167659500Y-102202000D01*
X167084500Y-102202000D01*
X167061221Y-102200856D01*
X167038166Y-102197437D01*
X167015557Y-102191773D01*
X166993613Y-102183921D01*
X166972543Y-102173956D01*
X166952552Y-102161974D01*
X166933832Y-102148090D01*
X166916562Y-102132438D01*
X166900910Y-102115168D01*
X166887026Y-102096448D01*
X166875044Y-102076457D01*
X166865079Y-102055387D01*
X166857227Y-102033443D01*
X166851563Y-102010834D01*
X166848144Y-101987779D01*
X166847000Y-101964500D01*
X166847000Y-101489500D01*
X166848144Y-101466221D01*
X166851563Y-101443166D01*
X166857227Y-101420557D01*
X166865079Y-101398613D01*
X166875044Y-101377543D01*
X166887026Y-101357552D01*
X166900910Y-101338832D01*
X166916562Y-101321562D01*
X166933832Y-101305910D01*
X166952552Y-101292026D01*
X166972543Y-101280044D01*
X166993613Y-101270079D01*
X167015557Y-101262227D01*
X167038166Y-101256563D01*
X167061221Y-101253144D01*
X167084500Y-101252000D01*
X167659500Y-101252000D01*
X167682779Y-101253144D01*
X167682779Y-101253144D01*
G37*
D13*
X167372000Y-101727000D03*
D12*
G36*
X165932779Y-101253144D02*
X165955834Y-101256563D01*
X165978443Y-101262227D01*
X166000387Y-101270079D01*
X166021457Y-101280044D01*
X166041448Y-101292026D01*
X166060168Y-101305910D01*
X166077438Y-101321562D01*
X166093090Y-101338832D01*
X166106974Y-101357552D01*
X166118956Y-101377543D01*
X166128921Y-101398613D01*
X166136773Y-101420557D01*
X166142437Y-101443166D01*
X166145856Y-101466221D01*
X166147000Y-101489500D01*
X166147000Y-101964500D01*
X166145856Y-101987779D01*
X166142437Y-102010834D01*
X166136773Y-102033443D01*
X166128921Y-102055387D01*
X166118956Y-102076457D01*
X166106974Y-102096448D01*
X166093090Y-102115168D01*
X166077438Y-102132438D01*
X166060168Y-102148090D01*
X166041448Y-102161974D01*
X166021457Y-102173956D01*
X166000387Y-102183921D01*
X165978443Y-102191773D01*
X165955834Y-102197437D01*
X165932779Y-102200856D01*
X165909500Y-102202000D01*
X165334500Y-102202000D01*
X165311221Y-102200856D01*
X165288166Y-102197437D01*
X165265557Y-102191773D01*
X165243613Y-102183921D01*
X165222543Y-102173956D01*
X165202552Y-102161974D01*
X165183832Y-102148090D01*
X165166562Y-102132438D01*
X165150910Y-102115168D01*
X165137026Y-102096448D01*
X165125044Y-102076457D01*
X165115079Y-102055387D01*
X165107227Y-102033443D01*
X165101563Y-102010834D01*
X165098144Y-101987779D01*
X165097000Y-101964500D01*
X165097000Y-101489500D01*
X165098144Y-101466221D01*
X165101563Y-101443166D01*
X165107227Y-101420557D01*
X165115079Y-101398613D01*
X165125044Y-101377543D01*
X165137026Y-101357552D01*
X165150910Y-101338832D01*
X165166562Y-101321562D01*
X165183832Y-101305910D01*
X165202552Y-101292026D01*
X165222543Y-101280044D01*
X165243613Y-101270079D01*
X165265557Y-101262227D01*
X165288166Y-101256563D01*
X165311221Y-101253144D01*
X165334500Y-101252000D01*
X165909500Y-101252000D01*
X165932779Y-101253144D01*
X165932779Y-101253144D01*
G37*
D13*
X165622000Y-101727000D03*
G04 #@! TD*
D12*
G04 #@! TO.C,R15*
G36*
X165791779Y-104174144D02*
X165814834Y-104177563D01*
X165837443Y-104183227D01*
X165859387Y-104191079D01*
X165880457Y-104201044D01*
X165900448Y-104213026D01*
X165919168Y-104226910D01*
X165936438Y-104242562D01*
X165952090Y-104259832D01*
X165965974Y-104278552D01*
X165977956Y-104298543D01*
X165987921Y-104319613D01*
X165995773Y-104341557D01*
X166001437Y-104364166D01*
X166004856Y-104387221D01*
X166006000Y-104410500D01*
X166006000Y-104885500D01*
X166004856Y-104908779D01*
X166001437Y-104931834D01*
X165995773Y-104954443D01*
X165987921Y-104976387D01*
X165977956Y-104997457D01*
X165965974Y-105017448D01*
X165952090Y-105036168D01*
X165936438Y-105053438D01*
X165919168Y-105069090D01*
X165900448Y-105082974D01*
X165880457Y-105094956D01*
X165859387Y-105104921D01*
X165837443Y-105112773D01*
X165814834Y-105118437D01*
X165791779Y-105121856D01*
X165768500Y-105123000D01*
X165193500Y-105123000D01*
X165170221Y-105121856D01*
X165147166Y-105118437D01*
X165124557Y-105112773D01*
X165102613Y-105104921D01*
X165081543Y-105094956D01*
X165061552Y-105082974D01*
X165042832Y-105069090D01*
X165025562Y-105053438D01*
X165009910Y-105036168D01*
X164996026Y-105017448D01*
X164984044Y-104997457D01*
X164974079Y-104976387D01*
X164966227Y-104954443D01*
X164960563Y-104931834D01*
X164957144Y-104908779D01*
X164956000Y-104885500D01*
X164956000Y-104410500D01*
X164957144Y-104387221D01*
X164960563Y-104364166D01*
X164966227Y-104341557D01*
X164974079Y-104319613D01*
X164984044Y-104298543D01*
X164996026Y-104278552D01*
X165009910Y-104259832D01*
X165025562Y-104242562D01*
X165042832Y-104226910D01*
X165061552Y-104213026D01*
X165081543Y-104201044D01*
X165102613Y-104191079D01*
X165124557Y-104183227D01*
X165147166Y-104177563D01*
X165170221Y-104174144D01*
X165193500Y-104173000D01*
X165768500Y-104173000D01*
X165791779Y-104174144D01*
X165791779Y-104174144D01*
G37*
D13*
X165481000Y-104648000D03*
D12*
G36*
X167541779Y-104174144D02*
X167564834Y-104177563D01*
X167587443Y-104183227D01*
X167609387Y-104191079D01*
X167630457Y-104201044D01*
X167650448Y-104213026D01*
X167669168Y-104226910D01*
X167686438Y-104242562D01*
X167702090Y-104259832D01*
X167715974Y-104278552D01*
X167727956Y-104298543D01*
X167737921Y-104319613D01*
X167745773Y-104341557D01*
X167751437Y-104364166D01*
X167754856Y-104387221D01*
X167756000Y-104410500D01*
X167756000Y-104885500D01*
X167754856Y-104908779D01*
X167751437Y-104931834D01*
X167745773Y-104954443D01*
X167737921Y-104976387D01*
X167727956Y-104997457D01*
X167715974Y-105017448D01*
X167702090Y-105036168D01*
X167686438Y-105053438D01*
X167669168Y-105069090D01*
X167650448Y-105082974D01*
X167630457Y-105094956D01*
X167609387Y-105104921D01*
X167587443Y-105112773D01*
X167564834Y-105118437D01*
X167541779Y-105121856D01*
X167518500Y-105123000D01*
X166943500Y-105123000D01*
X166920221Y-105121856D01*
X166897166Y-105118437D01*
X166874557Y-105112773D01*
X166852613Y-105104921D01*
X166831543Y-105094956D01*
X166811552Y-105082974D01*
X166792832Y-105069090D01*
X166775562Y-105053438D01*
X166759910Y-105036168D01*
X166746026Y-105017448D01*
X166734044Y-104997457D01*
X166724079Y-104976387D01*
X166716227Y-104954443D01*
X166710563Y-104931834D01*
X166707144Y-104908779D01*
X166706000Y-104885500D01*
X166706000Y-104410500D01*
X166707144Y-104387221D01*
X166710563Y-104364166D01*
X166716227Y-104341557D01*
X166724079Y-104319613D01*
X166734044Y-104298543D01*
X166746026Y-104278552D01*
X166759910Y-104259832D01*
X166775562Y-104242562D01*
X166792832Y-104226910D01*
X166811552Y-104213026D01*
X166831543Y-104201044D01*
X166852613Y-104191079D01*
X166874557Y-104183227D01*
X166897166Y-104177563D01*
X166920221Y-104174144D01*
X166943500Y-104173000D01*
X167518500Y-104173000D01*
X167541779Y-104174144D01*
X167541779Y-104174144D01*
G37*
D13*
X167231000Y-104648000D03*
G04 #@! TD*
D12*
G04 #@! TO.C,D3*
G36*
X171492779Y-90978844D02*
X171515834Y-90982263D01*
X171538443Y-90987927D01*
X171560387Y-90995779D01*
X171581457Y-91005744D01*
X171601448Y-91017726D01*
X171620168Y-91031610D01*
X171637438Y-91047262D01*
X171653090Y-91064532D01*
X171666974Y-91083252D01*
X171678956Y-91103243D01*
X171688921Y-91124313D01*
X171696773Y-91146257D01*
X171702437Y-91168866D01*
X171705856Y-91191921D01*
X171707000Y-91215200D01*
X171707000Y-91690200D01*
X171705856Y-91713479D01*
X171702437Y-91736534D01*
X171696773Y-91759143D01*
X171688921Y-91781087D01*
X171678956Y-91802157D01*
X171666974Y-91822148D01*
X171653090Y-91840868D01*
X171637438Y-91858138D01*
X171620168Y-91873790D01*
X171601448Y-91887674D01*
X171581457Y-91899656D01*
X171560387Y-91909621D01*
X171538443Y-91917473D01*
X171515834Y-91923137D01*
X171492779Y-91926556D01*
X171469500Y-91927700D01*
X170894500Y-91927700D01*
X170871221Y-91926556D01*
X170848166Y-91923137D01*
X170825557Y-91917473D01*
X170803613Y-91909621D01*
X170782543Y-91899656D01*
X170762552Y-91887674D01*
X170743832Y-91873790D01*
X170726562Y-91858138D01*
X170710910Y-91840868D01*
X170697026Y-91822148D01*
X170685044Y-91802157D01*
X170675079Y-91781087D01*
X170667227Y-91759143D01*
X170661563Y-91736534D01*
X170658144Y-91713479D01*
X170657000Y-91690200D01*
X170657000Y-91215200D01*
X170658144Y-91191921D01*
X170661563Y-91168866D01*
X170667227Y-91146257D01*
X170675079Y-91124313D01*
X170685044Y-91103243D01*
X170697026Y-91083252D01*
X170710910Y-91064532D01*
X170726562Y-91047262D01*
X170743832Y-91031610D01*
X170762552Y-91017726D01*
X170782543Y-91005744D01*
X170803613Y-90995779D01*
X170825557Y-90987927D01*
X170848166Y-90982263D01*
X170871221Y-90978844D01*
X170894500Y-90977700D01*
X171469500Y-90977700D01*
X171492779Y-90978844D01*
X171492779Y-90978844D01*
G37*
D13*
X171182000Y-91452700D03*
D12*
G36*
X169742779Y-90978844D02*
X169765834Y-90982263D01*
X169788443Y-90987927D01*
X169810387Y-90995779D01*
X169831457Y-91005744D01*
X169851448Y-91017726D01*
X169870168Y-91031610D01*
X169887438Y-91047262D01*
X169903090Y-91064532D01*
X169916974Y-91083252D01*
X169928956Y-91103243D01*
X169938921Y-91124313D01*
X169946773Y-91146257D01*
X169952437Y-91168866D01*
X169955856Y-91191921D01*
X169957000Y-91215200D01*
X169957000Y-91690200D01*
X169955856Y-91713479D01*
X169952437Y-91736534D01*
X169946773Y-91759143D01*
X169938921Y-91781087D01*
X169928956Y-91802157D01*
X169916974Y-91822148D01*
X169903090Y-91840868D01*
X169887438Y-91858138D01*
X169870168Y-91873790D01*
X169851448Y-91887674D01*
X169831457Y-91899656D01*
X169810387Y-91909621D01*
X169788443Y-91917473D01*
X169765834Y-91923137D01*
X169742779Y-91926556D01*
X169719500Y-91927700D01*
X169144500Y-91927700D01*
X169121221Y-91926556D01*
X169098166Y-91923137D01*
X169075557Y-91917473D01*
X169053613Y-91909621D01*
X169032543Y-91899656D01*
X169012552Y-91887674D01*
X168993832Y-91873790D01*
X168976562Y-91858138D01*
X168960910Y-91840868D01*
X168947026Y-91822148D01*
X168935044Y-91802157D01*
X168925079Y-91781087D01*
X168917227Y-91759143D01*
X168911563Y-91736534D01*
X168908144Y-91713479D01*
X168907000Y-91690200D01*
X168907000Y-91215200D01*
X168908144Y-91191921D01*
X168911563Y-91168866D01*
X168917227Y-91146257D01*
X168925079Y-91124313D01*
X168935044Y-91103243D01*
X168947026Y-91083252D01*
X168960910Y-91064532D01*
X168976562Y-91047262D01*
X168993832Y-91031610D01*
X169012552Y-91017726D01*
X169032543Y-91005744D01*
X169053613Y-90995779D01*
X169075557Y-90987927D01*
X169098166Y-90982263D01*
X169121221Y-90978844D01*
X169144500Y-90977700D01*
X169719500Y-90977700D01*
X169742779Y-90978844D01*
X169742779Y-90978844D01*
G37*
D13*
X169432000Y-91452700D03*
G04 #@! TD*
D12*
G04 #@! TO.C,D4*
G36*
X169629779Y-98078144D02*
X169652834Y-98081563D01*
X169675443Y-98087227D01*
X169697387Y-98095079D01*
X169718457Y-98105044D01*
X169738448Y-98117026D01*
X169757168Y-98130910D01*
X169774438Y-98146562D01*
X169790090Y-98163832D01*
X169803974Y-98182552D01*
X169815956Y-98202543D01*
X169825921Y-98223613D01*
X169833773Y-98245557D01*
X169839437Y-98268166D01*
X169842856Y-98291221D01*
X169844000Y-98314500D01*
X169844000Y-98789500D01*
X169842856Y-98812779D01*
X169839437Y-98835834D01*
X169833773Y-98858443D01*
X169825921Y-98880387D01*
X169815956Y-98901457D01*
X169803974Y-98921448D01*
X169790090Y-98940168D01*
X169774438Y-98957438D01*
X169757168Y-98973090D01*
X169738448Y-98986974D01*
X169718457Y-98998956D01*
X169697387Y-99008921D01*
X169675443Y-99016773D01*
X169652834Y-99022437D01*
X169629779Y-99025856D01*
X169606500Y-99027000D01*
X169031500Y-99027000D01*
X169008221Y-99025856D01*
X168985166Y-99022437D01*
X168962557Y-99016773D01*
X168940613Y-99008921D01*
X168919543Y-98998956D01*
X168899552Y-98986974D01*
X168880832Y-98973090D01*
X168863562Y-98957438D01*
X168847910Y-98940168D01*
X168834026Y-98921448D01*
X168822044Y-98901457D01*
X168812079Y-98880387D01*
X168804227Y-98858443D01*
X168798563Y-98835834D01*
X168795144Y-98812779D01*
X168794000Y-98789500D01*
X168794000Y-98314500D01*
X168795144Y-98291221D01*
X168798563Y-98268166D01*
X168804227Y-98245557D01*
X168812079Y-98223613D01*
X168822044Y-98202543D01*
X168834026Y-98182552D01*
X168847910Y-98163832D01*
X168863562Y-98146562D01*
X168880832Y-98130910D01*
X168899552Y-98117026D01*
X168919543Y-98105044D01*
X168940613Y-98095079D01*
X168962557Y-98087227D01*
X168985166Y-98081563D01*
X169008221Y-98078144D01*
X169031500Y-98077000D01*
X169606500Y-98077000D01*
X169629779Y-98078144D01*
X169629779Y-98078144D01*
G37*
D13*
X169319000Y-98552000D03*
D12*
G36*
X171379779Y-98078144D02*
X171402834Y-98081563D01*
X171425443Y-98087227D01*
X171447387Y-98095079D01*
X171468457Y-98105044D01*
X171488448Y-98117026D01*
X171507168Y-98130910D01*
X171524438Y-98146562D01*
X171540090Y-98163832D01*
X171553974Y-98182552D01*
X171565956Y-98202543D01*
X171575921Y-98223613D01*
X171583773Y-98245557D01*
X171589437Y-98268166D01*
X171592856Y-98291221D01*
X171594000Y-98314500D01*
X171594000Y-98789500D01*
X171592856Y-98812779D01*
X171589437Y-98835834D01*
X171583773Y-98858443D01*
X171575921Y-98880387D01*
X171565956Y-98901457D01*
X171553974Y-98921448D01*
X171540090Y-98940168D01*
X171524438Y-98957438D01*
X171507168Y-98973090D01*
X171488448Y-98986974D01*
X171468457Y-98998956D01*
X171447387Y-99008921D01*
X171425443Y-99016773D01*
X171402834Y-99022437D01*
X171379779Y-99025856D01*
X171356500Y-99027000D01*
X170781500Y-99027000D01*
X170758221Y-99025856D01*
X170735166Y-99022437D01*
X170712557Y-99016773D01*
X170690613Y-99008921D01*
X170669543Y-98998956D01*
X170649552Y-98986974D01*
X170630832Y-98973090D01*
X170613562Y-98957438D01*
X170597910Y-98940168D01*
X170584026Y-98921448D01*
X170572044Y-98901457D01*
X170562079Y-98880387D01*
X170554227Y-98858443D01*
X170548563Y-98835834D01*
X170545144Y-98812779D01*
X170544000Y-98789500D01*
X170544000Y-98314500D01*
X170545144Y-98291221D01*
X170548563Y-98268166D01*
X170554227Y-98245557D01*
X170562079Y-98223613D01*
X170572044Y-98202543D01*
X170584026Y-98182552D01*
X170597910Y-98163832D01*
X170613562Y-98146562D01*
X170630832Y-98130910D01*
X170649552Y-98117026D01*
X170669543Y-98105044D01*
X170690613Y-98095079D01*
X170712557Y-98087227D01*
X170735166Y-98081563D01*
X170758221Y-98078144D01*
X170781500Y-98077000D01*
X171356500Y-98077000D01*
X171379779Y-98078144D01*
X171379779Y-98078144D01*
G37*
D13*
X171069000Y-98552000D03*
G04 #@! TD*
D11*
G04 #@! TO.C,Q2*
X153146000Y-89916000D03*
X151146000Y-90866000D03*
X151146000Y-88966000D03*
G04 #@! TD*
D12*
G04 #@! TO.C,R17*
G36*
X141738779Y-90521144D02*
X141761834Y-90524563D01*
X141784443Y-90530227D01*
X141806387Y-90538079D01*
X141827457Y-90548044D01*
X141847448Y-90560026D01*
X141866168Y-90573910D01*
X141883438Y-90589562D01*
X141899090Y-90606832D01*
X141912974Y-90625552D01*
X141924956Y-90645543D01*
X141934921Y-90666613D01*
X141942773Y-90688557D01*
X141948437Y-90711166D01*
X141951856Y-90734221D01*
X141953000Y-90757500D01*
X141953000Y-91332500D01*
X141951856Y-91355779D01*
X141948437Y-91378834D01*
X141942773Y-91401443D01*
X141934921Y-91423387D01*
X141924956Y-91444457D01*
X141912974Y-91464448D01*
X141899090Y-91483168D01*
X141883438Y-91500438D01*
X141866168Y-91516090D01*
X141847448Y-91529974D01*
X141827457Y-91541956D01*
X141806387Y-91551921D01*
X141784443Y-91559773D01*
X141761834Y-91565437D01*
X141738779Y-91568856D01*
X141715500Y-91570000D01*
X141240500Y-91570000D01*
X141217221Y-91568856D01*
X141194166Y-91565437D01*
X141171557Y-91559773D01*
X141149613Y-91551921D01*
X141128543Y-91541956D01*
X141108552Y-91529974D01*
X141089832Y-91516090D01*
X141072562Y-91500438D01*
X141056910Y-91483168D01*
X141043026Y-91464448D01*
X141031044Y-91444457D01*
X141021079Y-91423387D01*
X141013227Y-91401443D01*
X141007563Y-91378834D01*
X141004144Y-91355779D01*
X141003000Y-91332500D01*
X141003000Y-90757500D01*
X141004144Y-90734221D01*
X141007563Y-90711166D01*
X141013227Y-90688557D01*
X141021079Y-90666613D01*
X141031044Y-90645543D01*
X141043026Y-90625552D01*
X141056910Y-90606832D01*
X141072562Y-90589562D01*
X141089832Y-90573910D01*
X141108552Y-90560026D01*
X141128543Y-90548044D01*
X141149613Y-90538079D01*
X141171557Y-90530227D01*
X141194166Y-90524563D01*
X141217221Y-90521144D01*
X141240500Y-90520000D01*
X141715500Y-90520000D01*
X141738779Y-90521144D01*
X141738779Y-90521144D01*
G37*
D13*
X141478000Y-91045000D03*
D12*
G36*
X141738779Y-88771144D02*
X141761834Y-88774563D01*
X141784443Y-88780227D01*
X141806387Y-88788079D01*
X141827457Y-88798044D01*
X141847448Y-88810026D01*
X141866168Y-88823910D01*
X141883438Y-88839562D01*
X141899090Y-88856832D01*
X141912974Y-88875552D01*
X141924956Y-88895543D01*
X141934921Y-88916613D01*
X141942773Y-88938557D01*
X141948437Y-88961166D01*
X141951856Y-88984221D01*
X141953000Y-89007500D01*
X141953000Y-89582500D01*
X141951856Y-89605779D01*
X141948437Y-89628834D01*
X141942773Y-89651443D01*
X141934921Y-89673387D01*
X141924956Y-89694457D01*
X141912974Y-89714448D01*
X141899090Y-89733168D01*
X141883438Y-89750438D01*
X141866168Y-89766090D01*
X141847448Y-89779974D01*
X141827457Y-89791956D01*
X141806387Y-89801921D01*
X141784443Y-89809773D01*
X141761834Y-89815437D01*
X141738779Y-89818856D01*
X141715500Y-89820000D01*
X141240500Y-89820000D01*
X141217221Y-89818856D01*
X141194166Y-89815437D01*
X141171557Y-89809773D01*
X141149613Y-89801921D01*
X141128543Y-89791956D01*
X141108552Y-89779974D01*
X141089832Y-89766090D01*
X141072562Y-89750438D01*
X141056910Y-89733168D01*
X141043026Y-89714448D01*
X141031044Y-89694457D01*
X141021079Y-89673387D01*
X141013227Y-89651443D01*
X141007563Y-89628834D01*
X141004144Y-89605779D01*
X141003000Y-89582500D01*
X141003000Y-89007500D01*
X141004144Y-88984221D01*
X141007563Y-88961166D01*
X141013227Y-88938557D01*
X141021079Y-88916613D01*
X141031044Y-88895543D01*
X141043026Y-88875552D01*
X141056910Y-88856832D01*
X141072562Y-88839562D01*
X141089832Y-88823910D01*
X141108552Y-88810026D01*
X141128543Y-88798044D01*
X141149613Y-88788079D01*
X141171557Y-88780227D01*
X141194166Y-88774563D01*
X141217221Y-88771144D01*
X141240500Y-88770000D01*
X141715500Y-88770000D01*
X141738779Y-88771144D01*
X141738779Y-88771144D01*
G37*
D13*
X141478000Y-89295000D03*
G04 #@! TD*
D12*
G04 #@! TO.C,R18*
G36*
X149358779Y-90267144D02*
X149381834Y-90270563D01*
X149404443Y-90276227D01*
X149426387Y-90284079D01*
X149447457Y-90294044D01*
X149467448Y-90306026D01*
X149486168Y-90319910D01*
X149503438Y-90335562D01*
X149519090Y-90352832D01*
X149532974Y-90371552D01*
X149544956Y-90391543D01*
X149554921Y-90412613D01*
X149562773Y-90434557D01*
X149568437Y-90457166D01*
X149571856Y-90480221D01*
X149573000Y-90503500D01*
X149573000Y-91078500D01*
X149571856Y-91101779D01*
X149568437Y-91124834D01*
X149562773Y-91147443D01*
X149554921Y-91169387D01*
X149544956Y-91190457D01*
X149532974Y-91210448D01*
X149519090Y-91229168D01*
X149503438Y-91246438D01*
X149486168Y-91262090D01*
X149467448Y-91275974D01*
X149447457Y-91287956D01*
X149426387Y-91297921D01*
X149404443Y-91305773D01*
X149381834Y-91311437D01*
X149358779Y-91314856D01*
X149335500Y-91316000D01*
X148860500Y-91316000D01*
X148837221Y-91314856D01*
X148814166Y-91311437D01*
X148791557Y-91305773D01*
X148769613Y-91297921D01*
X148748543Y-91287956D01*
X148728552Y-91275974D01*
X148709832Y-91262090D01*
X148692562Y-91246438D01*
X148676910Y-91229168D01*
X148663026Y-91210448D01*
X148651044Y-91190457D01*
X148641079Y-91169387D01*
X148633227Y-91147443D01*
X148627563Y-91124834D01*
X148624144Y-91101779D01*
X148623000Y-91078500D01*
X148623000Y-90503500D01*
X148624144Y-90480221D01*
X148627563Y-90457166D01*
X148633227Y-90434557D01*
X148641079Y-90412613D01*
X148651044Y-90391543D01*
X148663026Y-90371552D01*
X148676910Y-90352832D01*
X148692562Y-90335562D01*
X148709832Y-90319910D01*
X148728552Y-90306026D01*
X148748543Y-90294044D01*
X148769613Y-90284079D01*
X148791557Y-90276227D01*
X148814166Y-90270563D01*
X148837221Y-90267144D01*
X148860500Y-90266000D01*
X149335500Y-90266000D01*
X149358779Y-90267144D01*
X149358779Y-90267144D01*
G37*
D13*
X149098000Y-90791000D03*
D12*
G36*
X149358779Y-88517144D02*
X149381834Y-88520563D01*
X149404443Y-88526227D01*
X149426387Y-88534079D01*
X149447457Y-88544044D01*
X149467448Y-88556026D01*
X149486168Y-88569910D01*
X149503438Y-88585562D01*
X149519090Y-88602832D01*
X149532974Y-88621552D01*
X149544956Y-88641543D01*
X149554921Y-88662613D01*
X149562773Y-88684557D01*
X149568437Y-88707166D01*
X149571856Y-88730221D01*
X149573000Y-88753500D01*
X149573000Y-89328500D01*
X149571856Y-89351779D01*
X149568437Y-89374834D01*
X149562773Y-89397443D01*
X149554921Y-89419387D01*
X149544956Y-89440457D01*
X149532974Y-89460448D01*
X149519090Y-89479168D01*
X149503438Y-89496438D01*
X149486168Y-89512090D01*
X149467448Y-89525974D01*
X149447457Y-89537956D01*
X149426387Y-89547921D01*
X149404443Y-89555773D01*
X149381834Y-89561437D01*
X149358779Y-89564856D01*
X149335500Y-89566000D01*
X148860500Y-89566000D01*
X148837221Y-89564856D01*
X148814166Y-89561437D01*
X148791557Y-89555773D01*
X148769613Y-89547921D01*
X148748543Y-89537956D01*
X148728552Y-89525974D01*
X148709832Y-89512090D01*
X148692562Y-89496438D01*
X148676910Y-89479168D01*
X148663026Y-89460448D01*
X148651044Y-89440457D01*
X148641079Y-89419387D01*
X148633227Y-89397443D01*
X148627563Y-89374834D01*
X148624144Y-89351779D01*
X148623000Y-89328500D01*
X148623000Y-88753500D01*
X148624144Y-88730221D01*
X148627563Y-88707166D01*
X148633227Y-88684557D01*
X148641079Y-88662613D01*
X148651044Y-88641543D01*
X148663026Y-88621552D01*
X148676910Y-88602832D01*
X148692562Y-88585562D01*
X148709832Y-88569910D01*
X148728552Y-88556026D01*
X148748543Y-88544044D01*
X148769613Y-88534079D01*
X148791557Y-88526227D01*
X148814166Y-88520563D01*
X148837221Y-88517144D01*
X148860500Y-88516000D01*
X149335500Y-88516000D01*
X149358779Y-88517144D01*
X149358779Y-88517144D01*
G37*
D13*
X149098000Y-89041000D03*
G04 #@! TD*
D12*
G04 #@! TO.C,R19*
G36*
X145965779Y-86902144D02*
X145988834Y-86905563D01*
X146011443Y-86911227D01*
X146033387Y-86919079D01*
X146054457Y-86929044D01*
X146074448Y-86941026D01*
X146093168Y-86954910D01*
X146110438Y-86970562D01*
X146126090Y-86987832D01*
X146139974Y-87006552D01*
X146151956Y-87026543D01*
X146161921Y-87047613D01*
X146169773Y-87069557D01*
X146175437Y-87092166D01*
X146178856Y-87115221D01*
X146180000Y-87138500D01*
X146180000Y-87613500D01*
X146178856Y-87636779D01*
X146175437Y-87659834D01*
X146169773Y-87682443D01*
X146161921Y-87704387D01*
X146151956Y-87725457D01*
X146139974Y-87745448D01*
X146126090Y-87764168D01*
X146110438Y-87781438D01*
X146093168Y-87797090D01*
X146074448Y-87810974D01*
X146054457Y-87822956D01*
X146033387Y-87832921D01*
X146011443Y-87840773D01*
X145988834Y-87846437D01*
X145965779Y-87849856D01*
X145942500Y-87851000D01*
X145367500Y-87851000D01*
X145344221Y-87849856D01*
X145321166Y-87846437D01*
X145298557Y-87840773D01*
X145276613Y-87832921D01*
X145255543Y-87822956D01*
X145235552Y-87810974D01*
X145216832Y-87797090D01*
X145199562Y-87781438D01*
X145183910Y-87764168D01*
X145170026Y-87745448D01*
X145158044Y-87725457D01*
X145148079Y-87704387D01*
X145140227Y-87682443D01*
X145134563Y-87659834D01*
X145131144Y-87636779D01*
X145130000Y-87613500D01*
X145130000Y-87138500D01*
X145131144Y-87115221D01*
X145134563Y-87092166D01*
X145140227Y-87069557D01*
X145148079Y-87047613D01*
X145158044Y-87026543D01*
X145170026Y-87006552D01*
X145183910Y-86987832D01*
X145199562Y-86970562D01*
X145216832Y-86954910D01*
X145235552Y-86941026D01*
X145255543Y-86929044D01*
X145276613Y-86919079D01*
X145298557Y-86911227D01*
X145321166Y-86905563D01*
X145344221Y-86902144D01*
X145367500Y-86901000D01*
X145942500Y-86901000D01*
X145965779Y-86902144D01*
X145965779Y-86902144D01*
G37*
D13*
X145655000Y-87376000D03*
D12*
G36*
X144215779Y-86902144D02*
X144238834Y-86905563D01*
X144261443Y-86911227D01*
X144283387Y-86919079D01*
X144304457Y-86929044D01*
X144324448Y-86941026D01*
X144343168Y-86954910D01*
X144360438Y-86970562D01*
X144376090Y-86987832D01*
X144389974Y-87006552D01*
X144401956Y-87026543D01*
X144411921Y-87047613D01*
X144419773Y-87069557D01*
X144425437Y-87092166D01*
X144428856Y-87115221D01*
X144430000Y-87138500D01*
X144430000Y-87613500D01*
X144428856Y-87636779D01*
X144425437Y-87659834D01*
X144419773Y-87682443D01*
X144411921Y-87704387D01*
X144401956Y-87725457D01*
X144389974Y-87745448D01*
X144376090Y-87764168D01*
X144360438Y-87781438D01*
X144343168Y-87797090D01*
X144324448Y-87810974D01*
X144304457Y-87822956D01*
X144283387Y-87832921D01*
X144261443Y-87840773D01*
X144238834Y-87846437D01*
X144215779Y-87849856D01*
X144192500Y-87851000D01*
X143617500Y-87851000D01*
X143594221Y-87849856D01*
X143571166Y-87846437D01*
X143548557Y-87840773D01*
X143526613Y-87832921D01*
X143505543Y-87822956D01*
X143485552Y-87810974D01*
X143466832Y-87797090D01*
X143449562Y-87781438D01*
X143433910Y-87764168D01*
X143420026Y-87745448D01*
X143408044Y-87725457D01*
X143398079Y-87704387D01*
X143390227Y-87682443D01*
X143384563Y-87659834D01*
X143381144Y-87636779D01*
X143380000Y-87613500D01*
X143380000Y-87138500D01*
X143381144Y-87115221D01*
X143384563Y-87092166D01*
X143390227Y-87069557D01*
X143398079Y-87047613D01*
X143408044Y-87026543D01*
X143420026Y-87006552D01*
X143433910Y-86987832D01*
X143449562Y-86970562D01*
X143466832Y-86954910D01*
X143485552Y-86941026D01*
X143505543Y-86929044D01*
X143526613Y-86919079D01*
X143548557Y-86911227D01*
X143571166Y-86905563D01*
X143594221Y-86902144D01*
X143617500Y-86901000D01*
X144192500Y-86901000D01*
X144215779Y-86902144D01*
X144215779Y-86902144D01*
G37*
D13*
X143905000Y-87376000D03*
G04 #@! TD*
D12*
G04 #@! TO.C,R20*
G36*
X154488779Y-86648144D02*
X154511834Y-86651563D01*
X154534443Y-86657227D01*
X154556387Y-86665079D01*
X154577457Y-86675044D01*
X154597448Y-86687026D01*
X154616168Y-86700910D01*
X154633438Y-86716562D01*
X154649090Y-86733832D01*
X154662974Y-86752552D01*
X154674956Y-86772543D01*
X154684921Y-86793613D01*
X154692773Y-86815557D01*
X154698437Y-86838166D01*
X154701856Y-86861221D01*
X154703000Y-86884500D01*
X154703000Y-87359500D01*
X154701856Y-87382779D01*
X154698437Y-87405834D01*
X154692773Y-87428443D01*
X154684921Y-87450387D01*
X154674956Y-87471457D01*
X154662974Y-87491448D01*
X154649090Y-87510168D01*
X154633438Y-87527438D01*
X154616168Y-87543090D01*
X154597448Y-87556974D01*
X154577457Y-87568956D01*
X154556387Y-87578921D01*
X154534443Y-87586773D01*
X154511834Y-87592437D01*
X154488779Y-87595856D01*
X154465500Y-87597000D01*
X153890500Y-87597000D01*
X153867221Y-87595856D01*
X153844166Y-87592437D01*
X153821557Y-87586773D01*
X153799613Y-87578921D01*
X153778543Y-87568956D01*
X153758552Y-87556974D01*
X153739832Y-87543090D01*
X153722562Y-87527438D01*
X153706910Y-87510168D01*
X153693026Y-87491448D01*
X153681044Y-87471457D01*
X153671079Y-87450387D01*
X153663227Y-87428443D01*
X153657563Y-87405834D01*
X153654144Y-87382779D01*
X153653000Y-87359500D01*
X153653000Y-86884500D01*
X153654144Y-86861221D01*
X153657563Y-86838166D01*
X153663227Y-86815557D01*
X153671079Y-86793613D01*
X153681044Y-86772543D01*
X153693026Y-86752552D01*
X153706910Y-86733832D01*
X153722562Y-86716562D01*
X153739832Y-86700910D01*
X153758552Y-86687026D01*
X153778543Y-86675044D01*
X153799613Y-86665079D01*
X153821557Y-86657227D01*
X153844166Y-86651563D01*
X153867221Y-86648144D01*
X153890500Y-86647000D01*
X154465500Y-86647000D01*
X154488779Y-86648144D01*
X154488779Y-86648144D01*
G37*
D13*
X154178000Y-87122000D03*
D12*
G36*
X152738779Y-86648144D02*
X152761834Y-86651563D01*
X152784443Y-86657227D01*
X152806387Y-86665079D01*
X152827457Y-86675044D01*
X152847448Y-86687026D01*
X152866168Y-86700910D01*
X152883438Y-86716562D01*
X152899090Y-86733832D01*
X152912974Y-86752552D01*
X152924956Y-86772543D01*
X152934921Y-86793613D01*
X152942773Y-86815557D01*
X152948437Y-86838166D01*
X152951856Y-86861221D01*
X152953000Y-86884500D01*
X152953000Y-87359500D01*
X152951856Y-87382779D01*
X152948437Y-87405834D01*
X152942773Y-87428443D01*
X152934921Y-87450387D01*
X152924956Y-87471457D01*
X152912974Y-87491448D01*
X152899090Y-87510168D01*
X152883438Y-87527438D01*
X152866168Y-87543090D01*
X152847448Y-87556974D01*
X152827457Y-87568956D01*
X152806387Y-87578921D01*
X152784443Y-87586773D01*
X152761834Y-87592437D01*
X152738779Y-87595856D01*
X152715500Y-87597000D01*
X152140500Y-87597000D01*
X152117221Y-87595856D01*
X152094166Y-87592437D01*
X152071557Y-87586773D01*
X152049613Y-87578921D01*
X152028543Y-87568956D01*
X152008552Y-87556974D01*
X151989832Y-87543090D01*
X151972562Y-87527438D01*
X151956910Y-87510168D01*
X151943026Y-87491448D01*
X151931044Y-87471457D01*
X151921079Y-87450387D01*
X151913227Y-87428443D01*
X151907563Y-87405834D01*
X151904144Y-87382779D01*
X151903000Y-87359500D01*
X151903000Y-86884500D01*
X151904144Y-86861221D01*
X151907563Y-86838166D01*
X151913227Y-86815557D01*
X151921079Y-86793613D01*
X151931044Y-86772543D01*
X151943026Y-86752552D01*
X151956910Y-86733832D01*
X151972562Y-86716562D01*
X151989832Y-86700910D01*
X152008552Y-86687026D01*
X152028543Y-86675044D01*
X152049613Y-86665079D01*
X152071557Y-86657227D01*
X152094166Y-86651563D01*
X152117221Y-86648144D01*
X152140500Y-86647000D01*
X152715500Y-86647000D01*
X152738779Y-86648144D01*
X152738779Y-86648144D01*
G37*
D13*
X152428000Y-87122000D03*
G04 #@! TD*
D12*
G04 #@! TO.C,R21*
G36*
X142212779Y-94184144D02*
X142235834Y-94187563D01*
X142258443Y-94193227D01*
X142280387Y-94201079D01*
X142301457Y-94211044D01*
X142321448Y-94223026D01*
X142340168Y-94236910D01*
X142357438Y-94252562D01*
X142373090Y-94269832D01*
X142386974Y-94288552D01*
X142398956Y-94308543D01*
X142408921Y-94329613D01*
X142416773Y-94351557D01*
X142422437Y-94374166D01*
X142425856Y-94397221D01*
X142427000Y-94420500D01*
X142427000Y-94895500D01*
X142425856Y-94918779D01*
X142422437Y-94941834D01*
X142416773Y-94964443D01*
X142408921Y-94986387D01*
X142398956Y-95007457D01*
X142386974Y-95027448D01*
X142373090Y-95046168D01*
X142357438Y-95063438D01*
X142340168Y-95079090D01*
X142321448Y-95092974D01*
X142301457Y-95104956D01*
X142280387Y-95114921D01*
X142258443Y-95122773D01*
X142235834Y-95128437D01*
X142212779Y-95131856D01*
X142189500Y-95133000D01*
X141614500Y-95133000D01*
X141591221Y-95131856D01*
X141568166Y-95128437D01*
X141545557Y-95122773D01*
X141523613Y-95114921D01*
X141502543Y-95104956D01*
X141482552Y-95092974D01*
X141463832Y-95079090D01*
X141446562Y-95063438D01*
X141430910Y-95046168D01*
X141417026Y-95027448D01*
X141405044Y-95007457D01*
X141395079Y-94986387D01*
X141387227Y-94964443D01*
X141381563Y-94941834D01*
X141378144Y-94918779D01*
X141377000Y-94895500D01*
X141377000Y-94420500D01*
X141378144Y-94397221D01*
X141381563Y-94374166D01*
X141387227Y-94351557D01*
X141395079Y-94329613D01*
X141405044Y-94308543D01*
X141417026Y-94288552D01*
X141430910Y-94269832D01*
X141446562Y-94252562D01*
X141463832Y-94236910D01*
X141482552Y-94223026D01*
X141502543Y-94211044D01*
X141523613Y-94201079D01*
X141545557Y-94193227D01*
X141568166Y-94187563D01*
X141591221Y-94184144D01*
X141614500Y-94183000D01*
X142189500Y-94183000D01*
X142212779Y-94184144D01*
X142212779Y-94184144D01*
G37*
D13*
X141902000Y-94658000D03*
D12*
G36*
X143962779Y-94184144D02*
X143985834Y-94187563D01*
X144008443Y-94193227D01*
X144030387Y-94201079D01*
X144051457Y-94211044D01*
X144071448Y-94223026D01*
X144090168Y-94236910D01*
X144107438Y-94252562D01*
X144123090Y-94269832D01*
X144136974Y-94288552D01*
X144148956Y-94308543D01*
X144158921Y-94329613D01*
X144166773Y-94351557D01*
X144172437Y-94374166D01*
X144175856Y-94397221D01*
X144177000Y-94420500D01*
X144177000Y-94895500D01*
X144175856Y-94918779D01*
X144172437Y-94941834D01*
X144166773Y-94964443D01*
X144158921Y-94986387D01*
X144148956Y-95007457D01*
X144136974Y-95027448D01*
X144123090Y-95046168D01*
X144107438Y-95063438D01*
X144090168Y-95079090D01*
X144071448Y-95092974D01*
X144051457Y-95104956D01*
X144030387Y-95114921D01*
X144008443Y-95122773D01*
X143985834Y-95128437D01*
X143962779Y-95131856D01*
X143939500Y-95133000D01*
X143364500Y-95133000D01*
X143341221Y-95131856D01*
X143318166Y-95128437D01*
X143295557Y-95122773D01*
X143273613Y-95114921D01*
X143252543Y-95104956D01*
X143232552Y-95092974D01*
X143213832Y-95079090D01*
X143196562Y-95063438D01*
X143180910Y-95046168D01*
X143167026Y-95027448D01*
X143155044Y-95007457D01*
X143145079Y-94986387D01*
X143137227Y-94964443D01*
X143131563Y-94941834D01*
X143128144Y-94918779D01*
X143127000Y-94895500D01*
X143127000Y-94420500D01*
X143128144Y-94397221D01*
X143131563Y-94374166D01*
X143137227Y-94351557D01*
X143145079Y-94329613D01*
X143155044Y-94308543D01*
X143167026Y-94288552D01*
X143180910Y-94269832D01*
X143196562Y-94252562D01*
X143213832Y-94236910D01*
X143232552Y-94223026D01*
X143252543Y-94211044D01*
X143273613Y-94201079D01*
X143295557Y-94193227D01*
X143318166Y-94187563D01*
X143341221Y-94184144D01*
X143364500Y-94183000D01*
X143939500Y-94183000D01*
X143962779Y-94184144D01*
X143962779Y-94184144D01*
G37*
D13*
X143652000Y-94658000D03*
G04 #@! TD*
D12*
G04 #@! TO.C,R22*
G36*
X142240779Y-96724144D02*
X142263834Y-96727563D01*
X142286443Y-96733227D01*
X142308387Y-96741079D01*
X142329457Y-96751044D01*
X142349448Y-96763026D01*
X142368168Y-96776910D01*
X142385438Y-96792562D01*
X142401090Y-96809832D01*
X142414974Y-96828552D01*
X142426956Y-96848543D01*
X142436921Y-96869613D01*
X142444773Y-96891557D01*
X142450437Y-96914166D01*
X142453856Y-96937221D01*
X142455000Y-96960500D01*
X142455000Y-97435500D01*
X142453856Y-97458779D01*
X142450437Y-97481834D01*
X142444773Y-97504443D01*
X142436921Y-97526387D01*
X142426956Y-97547457D01*
X142414974Y-97567448D01*
X142401090Y-97586168D01*
X142385438Y-97603438D01*
X142368168Y-97619090D01*
X142349448Y-97632974D01*
X142329457Y-97644956D01*
X142308387Y-97654921D01*
X142286443Y-97662773D01*
X142263834Y-97668437D01*
X142240779Y-97671856D01*
X142217500Y-97673000D01*
X141642500Y-97673000D01*
X141619221Y-97671856D01*
X141596166Y-97668437D01*
X141573557Y-97662773D01*
X141551613Y-97654921D01*
X141530543Y-97644956D01*
X141510552Y-97632974D01*
X141491832Y-97619090D01*
X141474562Y-97603438D01*
X141458910Y-97586168D01*
X141445026Y-97567448D01*
X141433044Y-97547457D01*
X141423079Y-97526387D01*
X141415227Y-97504443D01*
X141409563Y-97481834D01*
X141406144Y-97458779D01*
X141405000Y-97435500D01*
X141405000Y-96960500D01*
X141406144Y-96937221D01*
X141409563Y-96914166D01*
X141415227Y-96891557D01*
X141423079Y-96869613D01*
X141433044Y-96848543D01*
X141445026Y-96828552D01*
X141458910Y-96809832D01*
X141474562Y-96792562D01*
X141491832Y-96776910D01*
X141510552Y-96763026D01*
X141530543Y-96751044D01*
X141551613Y-96741079D01*
X141573557Y-96733227D01*
X141596166Y-96727563D01*
X141619221Y-96724144D01*
X141642500Y-96723000D01*
X142217500Y-96723000D01*
X142240779Y-96724144D01*
X142240779Y-96724144D01*
G37*
D13*
X141930000Y-97198000D03*
D12*
G36*
X143990779Y-96724144D02*
X144013834Y-96727563D01*
X144036443Y-96733227D01*
X144058387Y-96741079D01*
X144079457Y-96751044D01*
X144099448Y-96763026D01*
X144118168Y-96776910D01*
X144135438Y-96792562D01*
X144151090Y-96809832D01*
X144164974Y-96828552D01*
X144176956Y-96848543D01*
X144186921Y-96869613D01*
X144194773Y-96891557D01*
X144200437Y-96914166D01*
X144203856Y-96937221D01*
X144205000Y-96960500D01*
X144205000Y-97435500D01*
X144203856Y-97458779D01*
X144200437Y-97481834D01*
X144194773Y-97504443D01*
X144186921Y-97526387D01*
X144176956Y-97547457D01*
X144164974Y-97567448D01*
X144151090Y-97586168D01*
X144135438Y-97603438D01*
X144118168Y-97619090D01*
X144099448Y-97632974D01*
X144079457Y-97644956D01*
X144058387Y-97654921D01*
X144036443Y-97662773D01*
X144013834Y-97668437D01*
X143990779Y-97671856D01*
X143967500Y-97673000D01*
X143392500Y-97673000D01*
X143369221Y-97671856D01*
X143346166Y-97668437D01*
X143323557Y-97662773D01*
X143301613Y-97654921D01*
X143280543Y-97644956D01*
X143260552Y-97632974D01*
X143241832Y-97619090D01*
X143224562Y-97603438D01*
X143208910Y-97586168D01*
X143195026Y-97567448D01*
X143183044Y-97547457D01*
X143173079Y-97526387D01*
X143165227Y-97504443D01*
X143159563Y-97481834D01*
X143156144Y-97458779D01*
X143155000Y-97435500D01*
X143155000Y-96960500D01*
X143156144Y-96937221D01*
X143159563Y-96914166D01*
X143165227Y-96891557D01*
X143173079Y-96869613D01*
X143183044Y-96848543D01*
X143195026Y-96828552D01*
X143208910Y-96809832D01*
X143224562Y-96792562D01*
X143241832Y-96776910D01*
X143260552Y-96763026D01*
X143280543Y-96751044D01*
X143301613Y-96741079D01*
X143323557Y-96733227D01*
X143346166Y-96727563D01*
X143369221Y-96724144D01*
X143392500Y-96723000D01*
X143967500Y-96723000D01*
X143990779Y-96724144D01*
X143990779Y-96724144D01*
G37*
D13*
X143680000Y-97198000D03*
G04 #@! TD*
D12*
G04 #@! TO.C,R23*
G36*
X153331779Y-92744144D02*
X153354834Y-92747563D01*
X153377443Y-92753227D01*
X153399387Y-92761079D01*
X153420457Y-92771044D01*
X153440448Y-92783026D01*
X153459168Y-92796910D01*
X153476438Y-92812562D01*
X153492090Y-92829832D01*
X153505974Y-92848552D01*
X153517956Y-92868543D01*
X153527921Y-92889613D01*
X153535773Y-92911557D01*
X153541437Y-92934166D01*
X153544856Y-92957221D01*
X153546000Y-92980500D01*
X153546000Y-93455500D01*
X153544856Y-93478779D01*
X153541437Y-93501834D01*
X153535773Y-93524443D01*
X153527921Y-93546387D01*
X153517956Y-93567457D01*
X153505974Y-93587448D01*
X153492090Y-93606168D01*
X153476438Y-93623438D01*
X153459168Y-93639090D01*
X153440448Y-93652974D01*
X153420457Y-93664956D01*
X153399387Y-93674921D01*
X153377443Y-93682773D01*
X153354834Y-93688437D01*
X153331779Y-93691856D01*
X153308500Y-93693000D01*
X152733500Y-93693000D01*
X152710221Y-93691856D01*
X152687166Y-93688437D01*
X152664557Y-93682773D01*
X152642613Y-93674921D01*
X152621543Y-93664956D01*
X152601552Y-93652974D01*
X152582832Y-93639090D01*
X152565562Y-93623438D01*
X152549910Y-93606168D01*
X152536026Y-93587448D01*
X152524044Y-93567457D01*
X152514079Y-93546387D01*
X152506227Y-93524443D01*
X152500563Y-93501834D01*
X152497144Y-93478779D01*
X152496000Y-93455500D01*
X152496000Y-92980500D01*
X152497144Y-92957221D01*
X152500563Y-92934166D01*
X152506227Y-92911557D01*
X152514079Y-92889613D01*
X152524044Y-92868543D01*
X152536026Y-92848552D01*
X152549910Y-92829832D01*
X152565562Y-92812562D01*
X152582832Y-92796910D01*
X152601552Y-92783026D01*
X152621543Y-92771044D01*
X152642613Y-92761079D01*
X152664557Y-92753227D01*
X152687166Y-92747563D01*
X152710221Y-92744144D01*
X152733500Y-92743000D01*
X153308500Y-92743000D01*
X153331779Y-92744144D01*
X153331779Y-92744144D01*
G37*
D13*
X153021000Y-93218000D03*
D12*
G36*
X151581779Y-92744144D02*
X151604834Y-92747563D01*
X151627443Y-92753227D01*
X151649387Y-92761079D01*
X151670457Y-92771044D01*
X151690448Y-92783026D01*
X151709168Y-92796910D01*
X151726438Y-92812562D01*
X151742090Y-92829832D01*
X151755974Y-92848552D01*
X151767956Y-92868543D01*
X151777921Y-92889613D01*
X151785773Y-92911557D01*
X151791437Y-92934166D01*
X151794856Y-92957221D01*
X151796000Y-92980500D01*
X151796000Y-93455500D01*
X151794856Y-93478779D01*
X151791437Y-93501834D01*
X151785773Y-93524443D01*
X151777921Y-93546387D01*
X151767956Y-93567457D01*
X151755974Y-93587448D01*
X151742090Y-93606168D01*
X151726438Y-93623438D01*
X151709168Y-93639090D01*
X151690448Y-93652974D01*
X151670457Y-93664956D01*
X151649387Y-93674921D01*
X151627443Y-93682773D01*
X151604834Y-93688437D01*
X151581779Y-93691856D01*
X151558500Y-93693000D01*
X150983500Y-93693000D01*
X150960221Y-93691856D01*
X150937166Y-93688437D01*
X150914557Y-93682773D01*
X150892613Y-93674921D01*
X150871543Y-93664956D01*
X150851552Y-93652974D01*
X150832832Y-93639090D01*
X150815562Y-93623438D01*
X150799910Y-93606168D01*
X150786026Y-93587448D01*
X150774044Y-93567457D01*
X150764079Y-93546387D01*
X150756227Y-93524443D01*
X150750563Y-93501834D01*
X150747144Y-93478779D01*
X150746000Y-93455500D01*
X150746000Y-92980500D01*
X150747144Y-92957221D01*
X150750563Y-92934166D01*
X150756227Y-92911557D01*
X150764079Y-92889613D01*
X150774044Y-92868543D01*
X150786026Y-92848552D01*
X150799910Y-92829832D01*
X150815562Y-92812562D01*
X150832832Y-92796910D01*
X150851552Y-92783026D01*
X150871543Y-92771044D01*
X150892613Y-92761079D01*
X150914557Y-92753227D01*
X150937166Y-92747563D01*
X150960221Y-92744144D01*
X150983500Y-92743000D01*
X151558500Y-92743000D01*
X151581779Y-92744144D01*
X151581779Y-92744144D01*
G37*
D13*
X151271000Y-93218000D03*
G04 #@! TD*
D18*
G04 #@! TO.C,D12*
X145966000Y-94590000D03*
X145966000Y-96690000D03*
G04 #@! TD*
M02*
