G04 #@! TF.GenerationSoftware,KiCad,Pcbnew,(5.0.0)*
G04 #@! TF.CreationDate,2018-12-16T15:52:41-06:00*
G04 #@! TF.ProjectId,NavBoard_Hardware,4E6176426F6172645F48617264776172,rev?*
G04 #@! TF.SameCoordinates,Original*
G04 #@! TF.FileFunction,Soldermask,Bot*
G04 #@! TF.FilePolarity,Negative*
%FSLAX46Y46*%
G04 Gerber Fmt 4.6, Leading zero omitted, Abs format (unit mm)*
G04 Created by KiCad (PCBNEW (5.0.0)) date 12/16/18 15:52:41*
%MOMM*%
%LPD*%
G01*
G04 APERTURE LIST*
%ADD10C,5.480000*%
%ADD11C,1.924000*%
%ADD12C,3.850000*%
%ADD13C,2.450000*%
%ADD14C,2.650000*%
%ADD15C,1.920000*%
%ADD16R,2.000000X2.000000*%
%ADD17C,2.000000*%
G04 APERTURE END LIST*
D10*
G04 #@! TO.C,Conn1*
X133629400Y-106427000D03*
X133629400Y-98426000D03*
G04 #@! TD*
D11*
G04 #@! TO.C,Conn2*
X165100000Y-65532000D03*
X167640000Y-65532000D03*
X170180000Y-65532000D03*
X172720000Y-65532000D03*
D12*
X163830000Y-56896000D03*
X173990000Y-56896000D03*
G04 #@! TD*
D11*
G04 #@! TO.C,Conn3*
X140462000Y-65532000D03*
X143002000Y-65532000D03*
X145542000Y-65532000D03*
X148082000Y-65532000D03*
X150622000Y-65532000D03*
D12*
X139192000Y-56896000D03*
X159512000Y-56896000D03*
D11*
X153162000Y-65532000D03*
X155702000Y-65532000D03*
X158242000Y-65532000D03*
G04 #@! TD*
D13*
G04 #@! TO.C,J1*
X119583200Y-89154000D03*
D14*
X122123200Y-91694000D03*
X122123200Y-86614000D03*
X117043200Y-86614000D03*
X117043200Y-91694000D03*
G04 #@! TD*
D15*
G04 #@! TO.C,U1*
X139360601Y-80034401D03*
X136820601Y-80034401D03*
X134280601Y-80034401D03*
X131740601Y-80034401D03*
X129200601Y-80034401D03*
X126660601Y-80034401D03*
X124120601Y-80034401D03*
X121580601Y-80034401D03*
X119040601Y-80034401D03*
X116500601Y-80034401D03*
X139360601Y-82574401D03*
X136820601Y-82574401D03*
X134280601Y-82574401D03*
X131740601Y-82574401D03*
X129200601Y-82574401D03*
X126660601Y-82574401D03*
X124120601Y-82574401D03*
X121580601Y-82574401D03*
X119040601Y-82574401D03*
X116500601Y-82574401D03*
X139360601Y-125754401D03*
X136820601Y-125754401D03*
X134280601Y-125754401D03*
X131740601Y-125754401D03*
X129200601Y-125754401D03*
X126660601Y-125754401D03*
X124120601Y-125754401D03*
X121580601Y-125754401D03*
X119040601Y-125754401D03*
X116500601Y-125754401D03*
X139360601Y-123214401D03*
X136820601Y-123214401D03*
X134280601Y-123214401D03*
X131740601Y-123214401D03*
X129200601Y-123214401D03*
X126660601Y-123214401D03*
X124120601Y-123214401D03*
X121580601Y-123214401D03*
X119040601Y-123214401D03*
X116500601Y-123214401D03*
G04 #@! TD*
D11*
G04 #@! TO.C,U3*
X167450101Y-91299363D03*
X169990101Y-91299363D03*
X172530101Y-91299363D03*
G04 #@! TD*
G04 #@! TO.C,U4*
X157861000Y-96520000D03*
X157861000Y-93980000D03*
X157861000Y-91440000D03*
G04 #@! TD*
D16*
G04 #@! TO.C,C7*
X170220000Y-77597000D03*
D17*
X172720000Y-77597000D03*
G04 #@! TD*
M02*
