G04 #@! TF.GenerationSoftware,KiCad,Pcbnew,(6.0.8)*
G04 #@! TF.CreationDate,2022-11-19T16:11:50-06:00*
G04 #@! TF.ProjectId,NavBoard_Hardware,4e617642-6f61-4726-945f-486172647761,2_ 2023*
G04 #@! TF.SameCoordinates,Original*
G04 #@! TF.FileFunction,Soldermask,Top*
G04 #@! TF.FilePolarity,Negative*
%FSLAX46Y46*%
G04 Gerber Fmt 4.6, Leading zero omitted, Abs format (unit mm)*
G04 Created by KiCad (PCBNEW (6.0.8)) date 2022-11-19 16:11:50*
%MOMM*%
%LPD*%
G01*
G04 APERTURE LIST*
G04 Aperture macros list*
%AMRoundRect*
0 Rectangle with rounded corners*
0 $1 Rounding radius*
0 $2 $3 $4 $5 $6 $7 $8 $9 X,Y pos of 4 corners*
0 Add a 4 corners polygon primitive as box body*
4,1,4,$2,$3,$4,$5,$6,$7,$8,$9,$2,$3,0*
0 Add four circle primitives for the rounded corners*
1,1,$1+$1,$2,$3*
1,1,$1+$1,$4,$5*
1,1,$1+$1,$6,$7*
1,1,$1+$1,$8,$9*
0 Add four rect primitives between the rounded corners*
20,1,$1+$1,$2,$3,$4,$5,0*
20,1,$1+$1,$4,$5,$6,$7,0*
20,1,$1+$1,$6,$7,$8,$9,0*
20,1,$1+$1,$8,$9,$2,$3,0*%
%AMFreePoly0*
4,1,22,0.500000,-0.750000,0.000000,-0.750000,0.000000,-0.745033,-0.079941,-0.743568,-0.215256,-0.701293,-0.333266,-0.622738,-0.424486,-0.514219,-0.481581,-0.384460,-0.499164,-0.250000,-0.500000,-0.250000,-0.500000,0.250000,-0.499164,0.250000,-0.499963,0.256109,-0.478152,0.396186,-0.417904,0.524511,-0.324060,0.630769,-0.204165,0.706417,-0.067858,0.745374,0.000000,0.744959,0.000000,0.750000,
0.500000,0.750000,0.500000,-0.750000,0.500000,-0.750000,$1*%
%AMFreePoly1*
4,1,20,0.000000,0.744959,0.073905,0.744508,0.209726,0.703889,0.328688,0.626782,0.421226,0.519385,0.479903,0.390333,0.500000,0.250000,0.500000,-0.250000,0.499851,-0.262216,0.476331,-0.402017,0.414519,-0.529596,0.319384,-0.634700,0.198574,-0.708877,0.061801,-0.746166,0.000000,-0.745033,0.000000,-0.750000,-0.500000,-0.750000,-0.500000,0.750000,0.000000,0.750000,0.000000,0.744959,
0.000000,0.744959,$1*%
G04 Aperture macros list end*
%ADD10R,1.600000X1.600000*%
%ADD11C,1.600000*%
%ADD12RoundRect,0.237500X-0.300000X-0.237500X0.300000X-0.237500X0.300000X0.237500X-0.300000X0.237500X0*%
%ADD13RoundRect,0.237500X0.300000X0.237500X-0.300000X0.237500X-0.300000X-0.237500X0.300000X-0.237500X0*%
%ADD14O,3.000000X5.100000*%
%ADD15RoundRect,0.237500X-0.287500X-0.237500X0.287500X-0.237500X0.287500X0.237500X-0.287500X0.237500X0*%
%ADD16RoundRect,0.237500X0.250000X0.237500X-0.250000X0.237500X-0.250000X-0.237500X0.250000X-0.237500X0*%
%ADD17C,3.000000*%
%ADD18C,1.700000*%
%ADD19R,0.350000X0.490000*%
%ADD20R,0.490000X0.350000*%
%ADD21RoundRect,0.237500X-0.237500X0.300000X-0.237500X-0.300000X0.237500X-0.300000X0.237500X0.300000X0*%
%ADD22RoundRect,0.237500X0.044194X0.380070X-0.380070X-0.044194X-0.044194X-0.380070X0.380070X0.044194X0*%
%ADD23R,0.152400X0.228600*%
%ADD24R,0.279400X0.228600*%
%ADD25R,0.228600X0.152400*%
%ADD26R,0.228600X0.279400*%
%ADD27RoundRect,0.237500X0.237500X-0.300000X0.237500X0.300000X-0.237500X0.300000X-0.237500X-0.300000X0*%
%ADD28RoundRect,0.250000X0.760000X-0.500000X0.760000X0.500000X-0.760000X0.500000X-0.760000X-0.500000X0*%
%ADD29O,2.020000X1.500000*%
%ADD30RoundRect,0.237500X-0.250000X-0.237500X0.250000X-0.237500X0.250000X0.237500X-0.250000X0.237500X0*%
%ADD31FreePoly0,90.000000*%
%ADD32FreePoly1,90.000000*%
%ADD33C,2.000000*%
%ADD34RoundRect,0.237500X-0.237500X0.250000X-0.237500X-0.250000X0.237500X-0.250000X0.237500X0.250000X0*%
%ADD35R,2.500000X1.500000*%
%ADD36O,2.500000X1.500000*%
%ADD37RoundRect,0.237500X0.237500X-0.250000X0.237500X0.250000X-0.237500X0.250000X-0.237500X-0.250000X0*%
G04 APERTURE END LIST*
D10*
X66040000Y-50800000D03*
D11*
X66040000Y-48300000D03*
D12*
X72050000Y-70100000D03*
X73775000Y-70100000D03*
D13*
X70212500Y-70100000D03*
X68487500Y-70100000D03*
D10*
X82550000Y-50800000D03*
D11*
X82550000Y-48300000D03*
D14*
X50400000Y-48026000D03*
X50400000Y-55900000D03*
D15*
X136285000Y-48260000D03*
X138035000Y-48260000D03*
X136285000Y-68580000D03*
X138035000Y-68580000D03*
X136285000Y-63500000D03*
X138035000Y-63500000D03*
D16*
X143152501Y-48260000D03*
X141327501Y-48260000D03*
X143152500Y-68579999D03*
X141327500Y-68579999D03*
X143152500Y-63500001D03*
X141327500Y-63500001D03*
X143034998Y-58457499D03*
X141209998Y-58457499D03*
X143035000Y-53365000D03*
X141210000Y-53365000D03*
D17*
X143580000Y-90170000D03*
X85580000Y-90170000D03*
X143580000Y-41170000D03*
X85580000Y-41170000D03*
D18*
X90450000Y-42440000D03*
X90450000Y-39900000D03*
X92990000Y-42440000D03*
X92990000Y-39900000D03*
X95530000Y-42440000D03*
X95530000Y-39900000D03*
X98070000Y-42440000D03*
X98070000Y-39900000D03*
X100610000Y-42440000D03*
X100610000Y-39900000D03*
X103150000Y-42440000D03*
X103150000Y-39900000D03*
X105690000Y-42440000D03*
X105690000Y-39900000D03*
X108230000Y-42440000D03*
X108230000Y-39900000D03*
X110770000Y-42440000D03*
X110770000Y-39900000D03*
X113310000Y-42440000D03*
X113310000Y-39900000D03*
X115850000Y-42440000D03*
X115850000Y-39900000D03*
X118390000Y-42440000D03*
X118390000Y-39900000D03*
X120930000Y-42440000D03*
X120930000Y-39900000D03*
X123470000Y-42440000D03*
X123470000Y-39900000D03*
X126010000Y-42440000D03*
X126010000Y-39900000D03*
X128550000Y-42440000D03*
X128550000Y-39900000D03*
X131090000Y-42440000D03*
X131090000Y-39900000D03*
X133630000Y-42440000D03*
X133630000Y-39900000D03*
X136170000Y-42440000D03*
X136170000Y-39900000D03*
X138710000Y-42440000D03*
X138710000Y-39900000D03*
D19*
X115139999Y-53360000D03*
X115639999Y-53360000D03*
X116139999Y-53360000D03*
X116639999Y-53360000D03*
X117139999Y-53360000D03*
D20*
X117399999Y-52600000D03*
X117399999Y-52100000D03*
X117399999Y-51600000D03*
D19*
X117139999Y-50840000D03*
X116639999Y-50840000D03*
X116139999Y-50840000D03*
X115639999Y-50840000D03*
X115139999Y-50840000D03*
D20*
X114879999Y-51600000D03*
X114879999Y-52100000D03*
X114879999Y-52600000D03*
D21*
X113475000Y-75150000D03*
X113475000Y-76875000D03*
D22*
X114384880Y-55965120D03*
X113165120Y-57184880D03*
D21*
X109449999Y-74675000D03*
X109449999Y-76400000D03*
X111075000Y-74675000D03*
X111075000Y-76400000D03*
D13*
X112085000Y-51824250D03*
X110360000Y-51824250D03*
D12*
X115987500Y-71406249D03*
X117712500Y-71406249D03*
D21*
X111510000Y-53960000D03*
X111510000Y-55685000D03*
D23*
X110429000Y-69406249D03*
D24*
X110492500Y-69806251D03*
X110492500Y-70206250D03*
X110492500Y-70606250D03*
X110492500Y-71006249D03*
D23*
X110429000Y-71406251D03*
D25*
X110762499Y-71739750D03*
D26*
X111162501Y-71676250D03*
X111562500Y-71676250D03*
X111962500Y-71676250D03*
X112362499Y-71676250D03*
D25*
X112762501Y-71739750D03*
D23*
X113096000Y-71406251D03*
D24*
X113032500Y-71006249D03*
X113032500Y-70606250D03*
X113032500Y-70206250D03*
X113032500Y-69806251D03*
D23*
X113096000Y-69406249D03*
D25*
X112762501Y-69072750D03*
D26*
X112362499Y-69136250D03*
X111962500Y-69136250D03*
X111562500Y-69136250D03*
X111162501Y-69136250D03*
D25*
X110762499Y-69072750D03*
D27*
X112349999Y-49925000D03*
X112349999Y-48200000D03*
D17*
X43686000Y-74526000D03*
X43686000Y-85226000D03*
D28*
X48006000Y-87376000D03*
D29*
X48006000Y-84376000D03*
X48006000Y-81376000D03*
X48006000Y-78376000D03*
X48006000Y-75376000D03*
X48006000Y-72376000D03*
D30*
X90487500Y-75400000D03*
X92312500Y-75400000D03*
D31*
X112250000Y-80650000D03*
D32*
X112250000Y-79350000D03*
D33*
X121551001Y-49410000D03*
D30*
X58777500Y-75438000D03*
X60602500Y-75438000D03*
D34*
X115187500Y-77356250D03*
X115187500Y-79181250D03*
D35*
X71120000Y-58420000D03*
D36*
X71120000Y-60960000D03*
X71120000Y-63500000D03*
D30*
X115950000Y-73256250D03*
X117775000Y-73256250D03*
D33*
X121551001Y-54947501D03*
D16*
X106975000Y-72325000D03*
X105150000Y-72325000D03*
D34*
X121551001Y-57422500D03*
X121551001Y-59247500D03*
D30*
X58777500Y-72390000D03*
X60602500Y-72390000D03*
X86187500Y-72400000D03*
X88012500Y-72400000D03*
D13*
X91792500Y-70103750D03*
X90067500Y-70103750D03*
D35*
X92710000Y-58420000D03*
D36*
X92710000Y-60960000D03*
X92710000Y-63500000D03*
D37*
X113325000Y-66850000D03*
X113325000Y-65025000D03*
X107250000Y-69825000D03*
X107250000Y-68000000D03*
D30*
X123975001Y-49425000D03*
X125800001Y-49425000D03*
D33*
X118174999Y-79681250D03*
D15*
X136285000Y-58420000D03*
X138035000Y-58420000D03*
X136285000Y-53340000D03*
X138035000Y-53340000D03*
D33*
X104570000Y-69300000D03*
D12*
X93630000Y-70103750D03*
X95355000Y-70103750D03*
M02*
