G04 #@! TF.GenerationSoftware,KiCad,Pcbnew,(6.0.8)*
G04 #@! TF.CreationDate,2022-11-19T16:18:39-06:00*
G04 #@! TF.ProjectId,NavBoard_Hardware,4e617642-6f61-4726-945f-486172647761,rev?*
G04 #@! TF.SameCoordinates,Original*
G04 #@! TF.FileFunction,Soldermask,Top*
G04 #@! TF.FilePolarity,Negative*
%FSLAX46Y46*%
G04 Gerber Fmt 4.6, Leading zero omitted, Abs format (unit mm)*
G04 Created by KiCad (PCBNEW (6.0.8)) date 2022-11-19 16:18:39*
%MOMM*%
%LPD*%
G01*
G04 APERTURE LIST*
G04 Aperture macros list*
%AMRoundRect*
0 Rectangle with rounded corners*
0 $1 Rounding radius*
0 $2 $3 $4 $5 $6 $7 $8 $9 X,Y pos of 4 corners*
0 Add a 4 corners polygon primitive as box body*
4,1,4,$2,$3,$4,$5,$6,$7,$8,$9,$2,$3,0*
0 Add four circle primitives for the rounded corners*
1,1,$1+$1,$2,$3*
1,1,$1+$1,$4,$5*
1,1,$1+$1,$6,$7*
1,1,$1+$1,$8,$9*
0 Add four rect primitives between the rounded corners*
20,1,$1+$1,$2,$3,$4,$5,0*
20,1,$1+$1,$4,$5,$6,$7,0*
20,1,$1+$1,$6,$7,$8,$9,0*
20,1,$1+$1,$8,$9,$2,$3,0*%
G04 Aperture macros list end*
%ADD10RoundRect,0.237500X-0.237500X0.250000X-0.237500X-0.250000X0.237500X-0.250000X0.237500X0.250000X0*%
%ADD11RoundRect,0.237500X0.300000X0.237500X-0.300000X0.237500X-0.300000X-0.237500X0.300000X-0.237500X0*%
%ADD12C,1.500000*%
%ADD13RoundRect,0.237500X-0.250000X-0.237500X0.250000X-0.237500X0.250000X0.237500X-0.250000X0.237500X0*%
%ADD14R,1.800000X1.800000*%
%ADD15C,1.800000*%
%ADD16R,0.228600X0.875000*%
%ADD17R,0.228600X1.000000*%
%ADD18R,0.850000X0.228600*%
%ADD19R,1.000000X0.228600*%
%ADD20R,0.228600X0.850000*%
%ADD21R,0.875000X0.228600*%
%ADD22RoundRect,0.237500X-0.300000X-0.237500X0.300000X-0.237500X0.300000X0.237500X-0.300000X0.237500X0*%
%ADD23RoundRect,0.237500X-0.237500X0.300000X-0.237500X-0.300000X0.237500X-0.300000X0.237500X0.300000X0*%
%ADD24RoundRect,0.250000X-0.650000X0.412500X-0.650000X-0.412500X0.650000X-0.412500X0.650000X0.412500X0*%
%ADD25RoundRect,0.237500X0.237500X-0.287500X0.237500X0.287500X-0.237500X0.287500X-0.237500X-0.287500X0*%
%ADD26R,1.200000X0.350000*%
%ADD27R,0.350000X1.200000*%
%ADD28C,6.000000*%
%ADD29RoundRect,0.237500X0.287500X0.237500X-0.287500X0.237500X-0.287500X-0.237500X0.287500X-0.237500X0*%
%ADD30RoundRect,0.237500X0.237500X-0.250000X0.237500X0.250000X-0.237500X0.250000X-0.237500X-0.250000X0*%
%ADD31RoundRect,0.237500X0.250000X0.237500X-0.250000X0.237500X-0.250000X-0.237500X0.250000X-0.237500X0*%
%ADD32RoundRect,0.237500X0.237500X-0.300000X0.237500X0.300000X-0.237500X0.300000X-0.237500X-0.300000X0*%
%ADD33C,3.000000*%
%ADD34RoundRect,0.250001X0.759999X-0.499999X0.759999X0.499999X-0.759999X0.499999X-0.759999X-0.499999X0*%
%ADD35O,2.020000X1.500000*%
%ADD36C,3.250000*%
%ADD37RoundRect,0.250500X-0.499500X0.499500X-0.499500X-0.499500X0.499500X-0.499500X0.499500X0.499500X0*%
%ADD38C,2.500000*%
%ADD39RoundRect,0.237500X0.008839X0.344715X-0.344715X-0.008839X-0.008839X-0.344715X0.344715X0.008839X0*%
%ADD40RoundRect,0.237500X-0.237500X0.287500X-0.237500X-0.287500X0.237500X-0.287500X0.237500X0.287500X0*%
%ADD41R,1.600000X1.600000*%
%ADD42C,1.600000*%
%ADD43R,1.300000X1.300000*%
%ADD44C,1.300000*%
%ADD45C,5.080000*%
G04 APERTURE END LIST*
D10*
X162448929Y-100726070D03*
X162448929Y-102551070D03*
D11*
X162261429Y-93338570D03*
X160536429Y-93338570D03*
D12*
X139155001Y-93950000D03*
D13*
X169575000Y-95400000D03*
X171400000Y-95400000D03*
D14*
X121180000Y-95187500D03*
D15*
X121180000Y-97727500D03*
X121180000Y-100267500D03*
D16*
X160436508Y-99048570D03*
D17*
X160836510Y-98988570D03*
X161236509Y-98988570D03*
X161636509Y-98988570D03*
X162036508Y-98988570D03*
D16*
X162436510Y-99048570D03*
D18*
X163123929Y-98348930D03*
D19*
X163048929Y-97948928D03*
X163048929Y-97548929D03*
X163048929Y-97148929D03*
X163048929Y-96748930D03*
D18*
X163123929Y-96348928D03*
D20*
X162436510Y-95663570D03*
D17*
X162036508Y-95738570D03*
X161636509Y-95738570D03*
X161236509Y-95738570D03*
X160836510Y-95738570D03*
D20*
X160436508Y-95663570D03*
D21*
X159738929Y-96348928D03*
D19*
X159798929Y-96748930D03*
X159798929Y-97148929D03*
X159798929Y-97548929D03*
X159798929Y-97948928D03*
D21*
X159738929Y-98348930D03*
D22*
X115937500Y-97700000D03*
X117662500Y-97700000D03*
D23*
X140155000Y-99550000D03*
X140155000Y-101275000D03*
D12*
X165048929Y-102338570D03*
X139155000Y-96950000D03*
D13*
X169575000Y-97000000D03*
X171400000Y-97000000D03*
D24*
X116900000Y-92637500D03*
X116900000Y-95762500D03*
D25*
X129500000Y-103100001D03*
X129500000Y-101350001D03*
D11*
X144417500Y-101068750D03*
X142692500Y-101068750D03*
D26*
X145045000Y-97650000D03*
X145045000Y-97150000D03*
X145045000Y-96650000D03*
X145045000Y-96150000D03*
X145045000Y-95650000D03*
D27*
X143955000Y-95050000D03*
X143455000Y-95050000D03*
X142955000Y-95050000D03*
D26*
X141845000Y-95650000D03*
X141845000Y-96150000D03*
X141845000Y-96650000D03*
X141845000Y-97150000D03*
X141845000Y-97650000D03*
D27*
X142955000Y-98250000D03*
X143455000Y-98250000D03*
X143955000Y-98250000D03*
D28*
X193000000Y-110200000D03*
D29*
X174862500Y-98600000D03*
X173112500Y-98600000D03*
D22*
X165786429Y-97438570D03*
X167511429Y-97438570D03*
D30*
X128000000Y-100712500D03*
X128000000Y-98887500D03*
D31*
X158812500Y-100500000D03*
X156987500Y-100500000D03*
D10*
X136000000Y-99387500D03*
X136000000Y-101212500D03*
D28*
X193000000Y-85100000D03*
D29*
X174862500Y-95400000D03*
X173112500Y-95400000D03*
X174862500Y-97000000D03*
X173112500Y-97000000D03*
D13*
X169575000Y-98600000D03*
X171400000Y-98600000D03*
D10*
X137755001Y-99337500D03*
X137755001Y-101162500D03*
D23*
X115900000Y-99837500D03*
X115900000Y-101562500D03*
X147955000Y-99387500D03*
X147955000Y-101112500D03*
D32*
X164348929Y-95138570D03*
X164348929Y-93413570D03*
D33*
X183250000Y-102350000D03*
X183250000Y-91650000D03*
D34*
X187570000Y-104500000D03*
D35*
X187570000Y-101500000D03*
X187570000Y-98500000D03*
X187570000Y-95500000D03*
X187570000Y-92500000D03*
X187570000Y-89500000D03*
D22*
X164186429Y-100238570D03*
X165911429Y-100238570D03*
D23*
X117700000Y-99837500D03*
X117700000Y-101562500D03*
X146155000Y-99387501D03*
X146155000Y-101112501D03*
D12*
X160000000Y-102338570D03*
D30*
X166048929Y-95151070D03*
X166048929Y-93326070D03*
D28*
X101000000Y-85100000D03*
D30*
X128000000Y-96812500D03*
X128000000Y-94987500D03*
D36*
X103775000Y-91930000D03*
X103775000Y-103360000D03*
D37*
X110125000Y-93200000D03*
D12*
X112665000Y-94470000D03*
X110125000Y-95740000D03*
X112665000Y-97010000D03*
X110125000Y-98280000D03*
X112665000Y-99550000D03*
X110125000Y-100820000D03*
X112665000Y-102090000D03*
X98695000Y-91320000D03*
X100395000Y-93860000D03*
X98695000Y-101430000D03*
X100395000Y-103970000D03*
D38*
X106825000Y-105520000D03*
X106825000Y-89770000D03*
D28*
X101000000Y-110200000D03*
D30*
X167748929Y-95438570D03*
X167748929Y-93613570D03*
X158548929Y-94763570D03*
X158548929Y-92938570D03*
D39*
X154945235Y-96854765D03*
X153654765Y-98145235D03*
D13*
X153887500Y-92300000D03*
X155712500Y-92300000D03*
D40*
X129500000Y-92399999D03*
X129500000Y-94149999D03*
D41*
X118250200Y-90000000D03*
D42*
X120790200Y-90000000D03*
X123330200Y-90000000D03*
X125870200Y-90000000D03*
X128410200Y-90000000D03*
X130950200Y-90000000D03*
X133490200Y-90000000D03*
X136030200Y-90000000D03*
X138570200Y-90000000D03*
X141110200Y-90000000D03*
X143650200Y-90000000D03*
X146190200Y-90000000D03*
X148730200Y-90000000D03*
X151270200Y-90000000D03*
X153810200Y-90000000D03*
X156350200Y-90000000D03*
X158890200Y-90000000D03*
X161430200Y-90000000D03*
X163970200Y-90000000D03*
X166510200Y-90000000D03*
X169050200Y-90000000D03*
X171590200Y-90000000D03*
X174130200Y-90000000D03*
X176670200Y-90000000D03*
X176670200Y-105240000D03*
X174130200Y-105240000D03*
X171590200Y-105240000D03*
X169050200Y-105240000D03*
X166510200Y-105240000D03*
X163970200Y-105240000D03*
X161430200Y-105240000D03*
X158890200Y-105240000D03*
X156350200Y-105240000D03*
X153810200Y-105240000D03*
X151270200Y-105240000D03*
X148730200Y-105240000D03*
X146190200Y-105240000D03*
X143650200Y-105240000D03*
X141110200Y-105240000D03*
X138570200Y-105240000D03*
X136030200Y-105240000D03*
X133490200Y-105240000D03*
X130950200Y-105240000D03*
X128410200Y-105240000D03*
X125870200Y-105240000D03*
X123330200Y-105240000D03*
X120790200Y-105240000D03*
X118250200Y-105240000D03*
D43*
X131220200Y-102801600D03*
D44*
X131220200Y-100801600D03*
X131220200Y-98801600D03*
X133220200Y-98801600D03*
X133220200Y-100801600D03*
X133220200Y-102801600D03*
D45*
X193322800Y-93333000D03*
X193322800Y-101207000D03*
M02*
