G04 #@! TF.GenerationSoftware,KiCad,Pcbnew,(6.0.8)*
G04 #@! TF.CreationDate,2022-11-19T16:18:39-06:00*
G04 #@! TF.ProjectId,NavBoard_Hardware,4e617642-6f61-4726-945f-486172647761,rev?*
G04 #@! TF.SameCoordinates,Original*
G04 #@! TF.FileFunction,Copper,L2,Inr*
G04 #@! TF.FilePolarity,Positive*
%FSLAX46Y46*%
G04 Gerber Fmt 4.6, Leading zero omitted, Abs format (unit mm)*
G04 Created by KiCad (PCBNEW (6.0.8)) date 2022-11-19 16:18:39*
%MOMM*%
%LPD*%
G01*
G04 APERTURE LIST*
G04 Aperture macros list*
%AMRoundRect*
0 Rectangle with rounded corners*
0 $1 Rounding radius*
0 $2 $3 $4 $5 $6 $7 $8 $9 X,Y pos of 4 corners*
0 Add a 4 corners polygon primitive as box body*
4,1,4,$2,$3,$4,$5,$6,$7,$8,$9,$2,$3,0*
0 Add four circle primitives for the rounded corners*
1,1,$1+$1,$2,$3*
1,1,$1+$1,$4,$5*
1,1,$1+$1,$6,$7*
1,1,$1+$1,$8,$9*
0 Add four rect primitives between the rounded corners*
20,1,$1+$1,$2,$3,$4,$5,0*
20,1,$1+$1,$4,$5,$6,$7,0*
20,1,$1+$1,$6,$7,$8,$9,0*
20,1,$1+$1,$8,$9,$2,$3,0*%
G04 Aperture macros list end*
G04 #@! TA.AperFunction,ComponentPad*
%ADD10R,1.800000X1.800000*%
G04 #@! TD*
G04 #@! TA.AperFunction,ComponentPad*
%ADD11C,1.800000*%
G04 #@! TD*
G04 #@! TA.AperFunction,ComponentPad*
%ADD12C,6.000000*%
G04 #@! TD*
G04 #@! TA.AperFunction,ComponentPad*
%ADD13RoundRect,0.250001X0.759999X-0.499999X0.759999X0.499999X-0.759999X0.499999X-0.759999X-0.499999X0*%
G04 #@! TD*
G04 #@! TA.AperFunction,ComponentPad*
%ADD14O,2.020000X1.500000*%
G04 #@! TD*
G04 #@! TA.AperFunction,ComponentPad*
%ADD15RoundRect,0.250500X-0.499500X0.499500X-0.499500X-0.499500X0.499500X-0.499500X0.499500X0.499500X0*%
G04 #@! TD*
G04 #@! TA.AperFunction,ComponentPad*
%ADD16C,1.500000*%
G04 #@! TD*
G04 #@! TA.AperFunction,ComponentPad*
%ADD17C,2.500000*%
G04 #@! TD*
G04 #@! TA.AperFunction,ComponentPad*
%ADD18R,1.600000X1.600000*%
G04 #@! TD*
G04 #@! TA.AperFunction,ComponentPad*
%ADD19C,1.600000*%
G04 #@! TD*
G04 #@! TA.AperFunction,ComponentPad*
%ADD20R,1.300000X1.300000*%
G04 #@! TD*
G04 #@! TA.AperFunction,ComponentPad*
%ADD21C,1.300000*%
G04 #@! TD*
G04 #@! TA.AperFunction,ComponentPad*
%ADD22C,5.080000*%
G04 #@! TD*
G04 #@! TA.AperFunction,ViaPad*
%ADD23C,0.800000*%
G04 #@! TD*
G04 APERTURE END LIST*
D10*
X121180000Y-95187500D03*
D11*
X121180000Y-97727500D03*
X121180000Y-100267500D03*
D12*
X193000000Y-110200000D03*
X193000000Y-85100000D03*
D13*
X187570000Y-104500000D03*
D14*
X187570000Y-101500000D03*
X187570000Y-98500000D03*
X187570000Y-95500000D03*
X187570000Y-92500000D03*
X187570000Y-89500000D03*
D12*
X101000000Y-85100000D03*
D15*
X110125000Y-93200000D03*
D16*
X112665000Y-94470000D03*
X110125000Y-95740000D03*
X112665000Y-97010000D03*
X110125000Y-98280000D03*
X112665000Y-99550000D03*
X110125000Y-100820000D03*
X112665000Y-102090000D03*
X98695000Y-91320000D03*
X100395000Y-93860000D03*
X98695000Y-101430000D03*
X100395000Y-103970000D03*
D17*
X106825000Y-105520000D03*
X106825000Y-89770000D03*
D12*
X101000000Y-110200000D03*
D18*
X118250200Y-90000000D03*
D19*
X120790200Y-90000000D03*
X123330200Y-90000000D03*
X125870200Y-90000000D03*
X128410200Y-90000000D03*
X130950200Y-90000000D03*
X133490200Y-90000000D03*
X136030200Y-90000000D03*
X138570200Y-90000000D03*
X141110200Y-90000000D03*
X143650200Y-90000000D03*
X146190200Y-90000000D03*
X148730200Y-90000000D03*
X151270200Y-90000000D03*
X153810200Y-90000000D03*
X156350200Y-90000000D03*
X158890200Y-90000000D03*
X161430200Y-90000000D03*
X163970200Y-90000000D03*
X166510200Y-90000000D03*
X169050200Y-90000000D03*
X171590200Y-90000000D03*
X174130200Y-90000000D03*
X176670200Y-90000000D03*
X176670200Y-105240000D03*
X174130200Y-105240000D03*
X171590200Y-105240000D03*
X169050200Y-105240000D03*
X166510200Y-105240000D03*
X163970200Y-105240000D03*
X161430200Y-105240000D03*
X158890200Y-105240000D03*
X156350200Y-105240000D03*
X153810200Y-105240000D03*
X151270200Y-105240000D03*
X148730200Y-105240000D03*
X146190200Y-105240000D03*
X143650200Y-105240000D03*
X141110200Y-105240000D03*
X138570200Y-105240000D03*
X136030200Y-105240000D03*
X133490200Y-105240000D03*
X130950200Y-105240000D03*
X128410200Y-105240000D03*
X125870200Y-105240000D03*
X123330200Y-105240000D03*
X120790200Y-105240000D03*
X118250200Y-105240000D03*
D20*
X131220200Y-102801600D03*
D21*
X131220200Y-100801600D03*
X131220200Y-98801600D03*
X133220200Y-98801600D03*
X133220200Y-100801600D03*
X133220200Y-102801600D03*
D22*
X193322800Y-93333000D03*
X193322800Y-101207000D03*
D23*
X147650000Y-98149999D03*
X146155000Y-98149999D03*
X163348929Y-95038570D03*
X125400000Y-100700000D03*
X169600000Y-94200000D03*
X144455000Y-99450000D03*
X164248929Y-99138570D03*
X162348929Y-94538570D03*
X118500000Y-94800000D03*
X155100000Y-95100000D03*
X175800000Y-92800000D03*
X181900000Y-95500000D03*
X150600000Y-92700000D03*
X146400000Y-102350000D03*
X147400000Y-92700000D03*
X142555000Y-99750000D03*
X155800000Y-100500000D03*
X137767501Y-102362499D03*
X179900000Y-93500000D03*
X140555000Y-97700000D03*
X178000000Y-95500000D03*
X136000000Y-102400000D03*
X118700000Y-96100000D03*
X140179999Y-102475001D03*
X165948929Y-99038570D03*
X154500000Y-99000000D03*
X160448929Y-94638570D03*
X161448929Y-97438570D03*
X172100000Y-94000000D03*
X143455000Y-96650000D03*
X139100000Y-91800000D03*
X159600000Y-91800000D03*
X150700000Y-103100000D03*
X142500000Y-91200000D03*
X157100000Y-92300000D03*
X184400000Y-97000000D03*
X147955000Y-102350000D03*
X124700000Y-95100000D03*
X127000000Y-102300000D03*
X158648929Y-96938570D03*
X152300000Y-96800000D03*
X149000000Y-98100000D03*
G04 #@! TA.AperFunction,Conductor*
G36*
X104579684Y-84100058D02*
G01*
X104632218Y-84147814D01*
X104644924Y-84175909D01*
X104666762Y-84246001D01*
X104694987Y-84336594D01*
X104700066Y-84361555D01*
X104701205Y-84372968D01*
X104704567Y-84381290D01*
X104704568Y-84381293D01*
X104718797Y-84416511D01*
X104722309Y-84426363D01*
X105067831Y-85539712D01*
X105148960Y-85801129D01*
X105153417Y-85821093D01*
X105156370Y-85842295D01*
X105157773Y-85846948D01*
X105157775Y-85846955D01*
X105158548Y-85849517D01*
X105159995Y-85854313D01*
X105162102Y-85858704D01*
X105163208Y-85861554D01*
X105166195Y-85868663D01*
X105202794Y-85969467D01*
X105300313Y-86238064D01*
X105301453Y-86240519D01*
X105440605Y-86540260D01*
X105472348Y-86608637D01*
X105675707Y-86962989D01*
X105908873Y-87298480D01*
X106170108Y-87612608D01*
X106172018Y-87614538D01*
X106172024Y-87614545D01*
X106418372Y-87863523D01*
X106452066Y-87926015D01*
X106446625Y-87996803D01*
X106403777Y-88053412D01*
X106364063Y-88073110D01*
X106212098Y-88117404D01*
X106203367Y-88120667D01*
X105974558Y-88226151D01*
X105966406Y-88230670D01*
X105787353Y-88348062D01*
X105778216Y-88358803D01*
X105782789Y-88368579D01*
X108224913Y-90810703D01*
X108237293Y-90817463D01*
X108245634Y-90811219D01*
X108371765Y-90615127D01*
X108376212Y-90606936D01*
X108479691Y-90377222D01*
X108482882Y-90368455D01*
X108551269Y-90125976D01*
X108553129Y-90116834D01*
X108585116Y-89865396D01*
X108585597Y-89859108D01*
X108587847Y-89773160D01*
X108587696Y-89766851D01*
X108568912Y-89514074D01*
X108567536Y-89504868D01*
X108511929Y-89259126D01*
X108509203Y-89250210D01*
X108496520Y-89217594D01*
X108490473Y-89146855D01*
X108523630Y-89084077D01*
X108585464Y-89049191D01*
X108637274Y-89048105D01*
X108756727Y-89070603D01*
X109000207Y-89116460D01*
X109178698Y-89134332D01*
X109404022Y-89156894D01*
X109404032Y-89156895D01*
X109406733Y-89157165D01*
X109409441Y-89157201D01*
X109409452Y-89157202D01*
X109608658Y-89159878D01*
X109785003Y-89162247D01*
X109793048Y-89162854D01*
X109793053Y-89162767D01*
X109797908Y-89163057D01*
X109802730Y-89163722D01*
X109807590Y-89163637D01*
X109807593Y-89163637D01*
X109808750Y-89163616D01*
X109815281Y-89163502D01*
X109833375Y-89160359D01*
X109854939Y-89158500D01*
X116816200Y-89158500D01*
X116884321Y-89178502D01*
X116930814Y-89232158D01*
X116942200Y-89284500D01*
X116942200Y-89727885D01*
X116946675Y-89743124D01*
X116948065Y-89744329D01*
X116955748Y-89746000D01*
X118378200Y-89746000D01*
X118446321Y-89766002D01*
X118492814Y-89819658D01*
X118504200Y-89872000D01*
X118504200Y-91289884D01*
X118508675Y-91305123D01*
X118510065Y-91306328D01*
X118517748Y-91307999D01*
X119094869Y-91307999D01*
X119101690Y-91307629D01*
X119152552Y-91302105D01*
X119167804Y-91298479D01*
X119288254Y-91253324D01*
X119303849Y-91244786D01*
X119405924Y-91168285D01*
X119418485Y-91155724D01*
X119494986Y-91053649D01*
X119503524Y-91038054D01*
X119548678Y-90917606D01*
X119552304Y-90902357D01*
X119552679Y-90898904D01*
X119553722Y-90896394D01*
X119554132Y-90894669D01*
X119554411Y-90894735D01*
X119579919Y-90833341D01*
X119638280Y-90792912D01*
X119709234Y-90790454D01*
X119770254Y-90826747D01*
X119779544Y-90838240D01*
X119780841Y-90839786D01*
X119784002Y-90844300D01*
X119945900Y-91006198D01*
X119950408Y-91009355D01*
X119950411Y-91009357D01*
X119961855Y-91017370D01*
X120133451Y-91137523D01*
X120138433Y-91139846D01*
X120138438Y-91139849D01*
X120324744Y-91226724D01*
X120340957Y-91234284D01*
X120346265Y-91235706D01*
X120346267Y-91235707D01*
X120556798Y-91292119D01*
X120556800Y-91292119D01*
X120562113Y-91293543D01*
X120790200Y-91313498D01*
X121018287Y-91293543D01*
X121023600Y-91292119D01*
X121023602Y-91292119D01*
X121234133Y-91235707D01*
X121234135Y-91235706D01*
X121239443Y-91234284D01*
X121255656Y-91226724D01*
X121441962Y-91139849D01*
X121441967Y-91139846D01*
X121446949Y-91137523D01*
X121618545Y-91017370D01*
X121629989Y-91009357D01*
X121629992Y-91009355D01*
X121634500Y-91006198D01*
X121796398Y-90844300D01*
X121800642Y-90838240D01*
X121856476Y-90758500D01*
X121927723Y-90656749D01*
X121930046Y-90651767D01*
X121930049Y-90651762D01*
X121946005Y-90617543D01*
X121992922Y-90564258D01*
X122061199Y-90544797D01*
X122129159Y-90565339D01*
X122174395Y-90617543D01*
X122190351Y-90651762D01*
X122190354Y-90651767D01*
X122192677Y-90656749D01*
X122263924Y-90758500D01*
X122319759Y-90838240D01*
X122324002Y-90844300D01*
X122485900Y-91006198D01*
X122490408Y-91009355D01*
X122490411Y-91009357D01*
X122501855Y-91017370D01*
X122673451Y-91137523D01*
X122678433Y-91139846D01*
X122678438Y-91139849D01*
X122864744Y-91226724D01*
X122880957Y-91234284D01*
X122886265Y-91235706D01*
X122886267Y-91235707D01*
X123096798Y-91292119D01*
X123096800Y-91292119D01*
X123102113Y-91293543D01*
X123330200Y-91313498D01*
X123558287Y-91293543D01*
X123563600Y-91292119D01*
X123563602Y-91292119D01*
X123774133Y-91235707D01*
X123774135Y-91235706D01*
X123779443Y-91234284D01*
X123795656Y-91226724D01*
X123981962Y-91139849D01*
X123981967Y-91139846D01*
X123986949Y-91137523D01*
X124158545Y-91017370D01*
X124169989Y-91009357D01*
X124169992Y-91009355D01*
X124174500Y-91006198D01*
X124336398Y-90844300D01*
X124340642Y-90838240D01*
X124396476Y-90758500D01*
X124467723Y-90656749D01*
X124470046Y-90651767D01*
X124470049Y-90651762D01*
X124486005Y-90617543D01*
X124532922Y-90564258D01*
X124601199Y-90544797D01*
X124669159Y-90565339D01*
X124714395Y-90617543D01*
X124730351Y-90651762D01*
X124730354Y-90651767D01*
X124732677Y-90656749D01*
X124803924Y-90758500D01*
X124859759Y-90838240D01*
X124864002Y-90844300D01*
X125025900Y-91006198D01*
X125030408Y-91009355D01*
X125030411Y-91009357D01*
X125041855Y-91017370D01*
X125213451Y-91137523D01*
X125218433Y-91139846D01*
X125218438Y-91139849D01*
X125404744Y-91226724D01*
X125420957Y-91234284D01*
X125426265Y-91235706D01*
X125426267Y-91235707D01*
X125636798Y-91292119D01*
X125636800Y-91292119D01*
X125642113Y-91293543D01*
X125870200Y-91313498D01*
X126098287Y-91293543D01*
X126103600Y-91292119D01*
X126103602Y-91292119D01*
X126314133Y-91235707D01*
X126314135Y-91235706D01*
X126319443Y-91234284D01*
X126335656Y-91226724D01*
X126521962Y-91139849D01*
X126521967Y-91139846D01*
X126526949Y-91137523D01*
X126698545Y-91017370D01*
X126709989Y-91009357D01*
X126709992Y-91009355D01*
X126714500Y-91006198D01*
X126876398Y-90844300D01*
X126880642Y-90838240D01*
X126936476Y-90758500D01*
X127007723Y-90656749D01*
X127010046Y-90651767D01*
X127010049Y-90651762D01*
X127026005Y-90617543D01*
X127072922Y-90564258D01*
X127141199Y-90544797D01*
X127209159Y-90565339D01*
X127254395Y-90617543D01*
X127270351Y-90651762D01*
X127270354Y-90651767D01*
X127272677Y-90656749D01*
X127343924Y-90758500D01*
X127399759Y-90838240D01*
X127404002Y-90844300D01*
X127565900Y-91006198D01*
X127570408Y-91009355D01*
X127570411Y-91009357D01*
X127581855Y-91017370D01*
X127753451Y-91137523D01*
X127758433Y-91139846D01*
X127758438Y-91139849D01*
X127944744Y-91226724D01*
X127960957Y-91234284D01*
X127966265Y-91235706D01*
X127966267Y-91235707D01*
X128176798Y-91292119D01*
X128176800Y-91292119D01*
X128182113Y-91293543D01*
X128410200Y-91313498D01*
X128638287Y-91293543D01*
X128643600Y-91292119D01*
X128643602Y-91292119D01*
X128854133Y-91235707D01*
X128854135Y-91235706D01*
X128859443Y-91234284D01*
X128875656Y-91226724D01*
X129061962Y-91139849D01*
X129061967Y-91139846D01*
X129066949Y-91137523D01*
X129238545Y-91017370D01*
X129249989Y-91009357D01*
X129249992Y-91009355D01*
X129254500Y-91006198D01*
X129416398Y-90844300D01*
X129420642Y-90838240D01*
X129476476Y-90758500D01*
X129547723Y-90656749D01*
X129550046Y-90651767D01*
X129550049Y-90651762D01*
X129566005Y-90617543D01*
X129612922Y-90564258D01*
X129681199Y-90544797D01*
X129749159Y-90565339D01*
X129794395Y-90617543D01*
X129810351Y-90651762D01*
X129810354Y-90651767D01*
X129812677Y-90656749D01*
X129883924Y-90758500D01*
X129939759Y-90838240D01*
X129944002Y-90844300D01*
X130105900Y-91006198D01*
X130110408Y-91009355D01*
X130110411Y-91009357D01*
X130121855Y-91017370D01*
X130293451Y-91137523D01*
X130298433Y-91139846D01*
X130298438Y-91139849D01*
X130484744Y-91226724D01*
X130500957Y-91234284D01*
X130506265Y-91235706D01*
X130506267Y-91235707D01*
X130716798Y-91292119D01*
X130716800Y-91292119D01*
X130722113Y-91293543D01*
X130950200Y-91313498D01*
X131178287Y-91293543D01*
X131183600Y-91292119D01*
X131183602Y-91292119D01*
X131394133Y-91235707D01*
X131394135Y-91235706D01*
X131399443Y-91234284D01*
X131415656Y-91226724D01*
X131601962Y-91139849D01*
X131601967Y-91139846D01*
X131606949Y-91137523D01*
X131778545Y-91017370D01*
X131789989Y-91009357D01*
X131789992Y-91009355D01*
X131794500Y-91006198D01*
X131956398Y-90844300D01*
X131960642Y-90838240D01*
X132016476Y-90758500D01*
X132087723Y-90656749D01*
X132090046Y-90651767D01*
X132090049Y-90651762D01*
X132106005Y-90617543D01*
X132152922Y-90564258D01*
X132221199Y-90544797D01*
X132289159Y-90565339D01*
X132334395Y-90617543D01*
X132350351Y-90651762D01*
X132350354Y-90651767D01*
X132352677Y-90656749D01*
X132423924Y-90758500D01*
X132479759Y-90838240D01*
X132484002Y-90844300D01*
X132645900Y-91006198D01*
X132650408Y-91009355D01*
X132650411Y-91009357D01*
X132661855Y-91017370D01*
X132833451Y-91137523D01*
X132838433Y-91139846D01*
X132838438Y-91139849D01*
X133024744Y-91226724D01*
X133040957Y-91234284D01*
X133046265Y-91235706D01*
X133046267Y-91235707D01*
X133256798Y-91292119D01*
X133256800Y-91292119D01*
X133262113Y-91293543D01*
X133490200Y-91313498D01*
X133718287Y-91293543D01*
X133723600Y-91292119D01*
X133723602Y-91292119D01*
X133934133Y-91235707D01*
X133934135Y-91235706D01*
X133939443Y-91234284D01*
X133955656Y-91226724D01*
X134141962Y-91139849D01*
X134141967Y-91139846D01*
X134146949Y-91137523D01*
X134318545Y-91017370D01*
X134329989Y-91009357D01*
X134329992Y-91009355D01*
X134334500Y-91006198D01*
X134496398Y-90844300D01*
X134500642Y-90838240D01*
X134556476Y-90758500D01*
X134627723Y-90656749D01*
X134630046Y-90651767D01*
X134630049Y-90651762D01*
X134646005Y-90617543D01*
X134692922Y-90564258D01*
X134761199Y-90544797D01*
X134829159Y-90565339D01*
X134874395Y-90617543D01*
X134890351Y-90651762D01*
X134890354Y-90651767D01*
X134892677Y-90656749D01*
X134963924Y-90758500D01*
X135019759Y-90838240D01*
X135024002Y-90844300D01*
X135185900Y-91006198D01*
X135190408Y-91009355D01*
X135190411Y-91009357D01*
X135201855Y-91017370D01*
X135373451Y-91137523D01*
X135378433Y-91139846D01*
X135378438Y-91139849D01*
X135564744Y-91226724D01*
X135580957Y-91234284D01*
X135586265Y-91235706D01*
X135586267Y-91235707D01*
X135796798Y-91292119D01*
X135796800Y-91292119D01*
X135802113Y-91293543D01*
X136030200Y-91313498D01*
X136258287Y-91293543D01*
X136263600Y-91292119D01*
X136263602Y-91292119D01*
X136474133Y-91235707D01*
X136474135Y-91235706D01*
X136479443Y-91234284D01*
X136495656Y-91226724D01*
X136681962Y-91139849D01*
X136681967Y-91139846D01*
X136686949Y-91137523D01*
X136858545Y-91017370D01*
X136869989Y-91009357D01*
X136869992Y-91009355D01*
X136874500Y-91006198D01*
X137036398Y-90844300D01*
X137040642Y-90838240D01*
X137096476Y-90758500D01*
X137167723Y-90656749D01*
X137170046Y-90651767D01*
X137170049Y-90651762D01*
X137186005Y-90617543D01*
X137232922Y-90564258D01*
X137301199Y-90544797D01*
X137369159Y-90565339D01*
X137414395Y-90617543D01*
X137430351Y-90651762D01*
X137430354Y-90651767D01*
X137432677Y-90656749D01*
X137503924Y-90758500D01*
X137559759Y-90838240D01*
X137564002Y-90844300D01*
X137725900Y-91006198D01*
X137730408Y-91009355D01*
X137730411Y-91009357D01*
X137741855Y-91017370D01*
X137913451Y-91137523D01*
X137918433Y-91139846D01*
X137918438Y-91139849D01*
X138104744Y-91226724D01*
X138120957Y-91234284D01*
X138126265Y-91235706D01*
X138126267Y-91235707D01*
X138336798Y-91292119D01*
X138336800Y-91292119D01*
X138342113Y-91293543D01*
X138570200Y-91313498D01*
X138798287Y-91293543D01*
X138803600Y-91292119D01*
X138803602Y-91292119D01*
X139014133Y-91235707D01*
X139014135Y-91235706D01*
X139019443Y-91234284D01*
X139035656Y-91226724D01*
X139221962Y-91139849D01*
X139221967Y-91139846D01*
X139226949Y-91137523D01*
X139398545Y-91017370D01*
X139409989Y-91009357D01*
X139409992Y-91009355D01*
X139414500Y-91006198D01*
X139576398Y-90844300D01*
X139580642Y-90838240D01*
X139636476Y-90758500D01*
X139707723Y-90656749D01*
X139710046Y-90651767D01*
X139710049Y-90651762D01*
X139726005Y-90617543D01*
X139772922Y-90564258D01*
X139841199Y-90544797D01*
X139909159Y-90565339D01*
X139954395Y-90617543D01*
X139970351Y-90651762D01*
X139970354Y-90651767D01*
X139972677Y-90656749D01*
X140043924Y-90758500D01*
X140099759Y-90838240D01*
X140104002Y-90844300D01*
X140265900Y-91006198D01*
X140270408Y-91009355D01*
X140270411Y-91009357D01*
X140281855Y-91017370D01*
X140453451Y-91137523D01*
X140458433Y-91139846D01*
X140458438Y-91139849D01*
X140644744Y-91226724D01*
X140660957Y-91234284D01*
X140666265Y-91235706D01*
X140666267Y-91235707D01*
X140876798Y-91292119D01*
X140876800Y-91292119D01*
X140882113Y-91293543D01*
X141110200Y-91313498D01*
X141338287Y-91293543D01*
X141343600Y-91292119D01*
X141343602Y-91292119D01*
X141554133Y-91235707D01*
X141554135Y-91235706D01*
X141559443Y-91234284D01*
X141575656Y-91226724D01*
X141761962Y-91139849D01*
X141761967Y-91139846D01*
X141766949Y-91137523D01*
X141938545Y-91017370D01*
X141949989Y-91009357D01*
X141949992Y-91009355D01*
X141954500Y-91006198D01*
X142116398Y-90844300D01*
X142120642Y-90838240D01*
X142176476Y-90758500D01*
X142247723Y-90656749D01*
X142250046Y-90651767D01*
X142250049Y-90651762D01*
X142266005Y-90617543D01*
X142312922Y-90564258D01*
X142381199Y-90544797D01*
X142449159Y-90565339D01*
X142494395Y-90617543D01*
X142510351Y-90651762D01*
X142510354Y-90651767D01*
X142512677Y-90656749D01*
X142583924Y-90758500D01*
X142639759Y-90838240D01*
X142644002Y-90844300D01*
X142805900Y-91006198D01*
X142810408Y-91009355D01*
X142810411Y-91009357D01*
X142821855Y-91017370D01*
X142993451Y-91137523D01*
X142998433Y-91139846D01*
X142998438Y-91139849D01*
X143184744Y-91226724D01*
X143200957Y-91234284D01*
X143206265Y-91235706D01*
X143206267Y-91235707D01*
X143416798Y-91292119D01*
X143416800Y-91292119D01*
X143422113Y-91293543D01*
X143650200Y-91313498D01*
X143878287Y-91293543D01*
X143883600Y-91292119D01*
X143883602Y-91292119D01*
X144094133Y-91235707D01*
X144094135Y-91235706D01*
X144099443Y-91234284D01*
X144115656Y-91226724D01*
X144301962Y-91139849D01*
X144301967Y-91139846D01*
X144306949Y-91137523D01*
X144478545Y-91017370D01*
X144489989Y-91009357D01*
X144489992Y-91009355D01*
X144494500Y-91006198D01*
X144656398Y-90844300D01*
X144660642Y-90838240D01*
X144716476Y-90758500D01*
X144787723Y-90656749D01*
X144790046Y-90651767D01*
X144790049Y-90651762D01*
X144806005Y-90617543D01*
X144852922Y-90564258D01*
X144921199Y-90544797D01*
X144989159Y-90565339D01*
X145034395Y-90617543D01*
X145050351Y-90651762D01*
X145050354Y-90651767D01*
X145052677Y-90656749D01*
X145123924Y-90758500D01*
X145179759Y-90838240D01*
X145184002Y-90844300D01*
X145345900Y-91006198D01*
X145350408Y-91009355D01*
X145350411Y-91009357D01*
X145361855Y-91017370D01*
X145533451Y-91137523D01*
X145538433Y-91139846D01*
X145538438Y-91139849D01*
X145724744Y-91226724D01*
X145740957Y-91234284D01*
X145746265Y-91235706D01*
X145746267Y-91235707D01*
X145956798Y-91292119D01*
X145956800Y-91292119D01*
X145962113Y-91293543D01*
X146190200Y-91313498D01*
X146418287Y-91293543D01*
X146423600Y-91292119D01*
X146423602Y-91292119D01*
X146634133Y-91235707D01*
X146634135Y-91235706D01*
X146639443Y-91234284D01*
X146655656Y-91226724D01*
X146841962Y-91139849D01*
X146841967Y-91139846D01*
X146846949Y-91137523D01*
X147018545Y-91017370D01*
X147029989Y-91009357D01*
X147029992Y-91009355D01*
X147034500Y-91006198D01*
X147196398Y-90844300D01*
X147200642Y-90838240D01*
X147256476Y-90758500D01*
X147327723Y-90656749D01*
X147330046Y-90651767D01*
X147330049Y-90651762D01*
X147346005Y-90617543D01*
X147392922Y-90564258D01*
X147461199Y-90544797D01*
X147529159Y-90565339D01*
X147574395Y-90617543D01*
X147590351Y-90651762D01*
X147590354Y-90651767D01*
X147592677Y-90656749D01*
X147663924Y-90758500D01*
X147719759Y-90838240D01*
X147724002Y-90844300D01*
X147885900Y-91006198D01*
X147890408Y-91009355D01*
X147890411Y-91009357D01*
X147901855Y-91017370D01*
X148073451Y-91137523D01*
X148078433Y-91139846D01*
X148078438Y-91139849D01*
X148264744Y-91226724D01*
X148280957Y-91234284D01*
X148286265Y-91235706D01*
X148286267Y-91235707D01*
X148496798Y-91292119D01*
X148496800Y-91292119D01*
X148502113Y-91293543D01*
X148730200Y-91313498D01*
X148958287Y-91293543D01*
X148963600Y-91292119D01*
X148963602Y-91292119D01*
X149174133Y-91235707D01*
X149174135Y-91235706D01*
X149179443Y-91234284D01*
X149195656Y-91226724D01*
X149381962Y-91139849D01*
X149381967Y-91139846D01*
X149386949Y-91137523D01*
X149558545Y-91017370D01*
X149569989Y-91009357D01*
X149569992Y-91009355D01*
X149574500Y-91006198D01*
X149736398Y-90844300D01*
X149740642Y-90838240D01*
X149796476Y-90758500D01*
X149867723Y-90656749D01*
X149870046Y-90651767D01*
X149870049Y-90651762D01*
X149886005Y-90617543D01*
X149932922Y-90564258D01*
X150001199Y-90544797D01*
X150069159Y-90565339D01*
X150114395Y-90617543D01*
X150130351Y-90651762D01*
X150130354Y-90651767D01*
X150132677Y-90656749D01*
X150203924Y-90758500D01*
X150259759Y-90838240D01*
X150264002Y-90844300D01*
X150425900Y-91006198D01*
X150430408Y-91009355D01*
X150430411Y-91009357D01*
X150441855Y-91017370D01*
X150613451Y-91137523D01*
X150618433Y-91139846D01*
X150618438Y-91139849D01*
X150804744Y-91226724D01*
X150820957Y-91234284D01*
X150826265Y-91235706D01*
X150826267Y-91235707D01*
X151036798Y-91292119D01*
X151036800Y-91292119D01*
X151042113Y-91293543D01*
X151270200Y-91313498D01*
X151498287Y-91293543D01*
X151503600Y-91292119D01*
X151503602Y-91292119D01*
X151714133Y-91235707D01*
X151714135Y-91235706D01*
X151719443Y-91234284D01*
X151735656Y-91226724D01*
X151921962Y-91139849D01*
X151921967Y-91139846D01*
X151926949Y-91137523D01*
X152098545Y-91017370D01*
X152109989Y-91009357D01*
X152109992Y-91009355D01*
X152114500Y-91006198D01*
X152276398Y-90844300D01*
X152280642Y-90838240D01*
X152336476Y-90758500D01*
X152407723Y-90656749D01*
X152410046Y-90651767D01*
X152410049Y-90651762D01*
X152426005Y-90617543D01*
X152472922Y-90564258D01*
X152541199Y-90544797D01*
X152609159Y-90565339D01*
X152654395Y-90617543D01*
X152670351Y-90651762D01*
X152670354Y-90651767D01*
X152672677Y-90656749D01*
X152743924Y-90758500D01*
X152799759Y-90838240D01*
X152804002Y-90844300D01*
X152965900Y-91006198D01*
X152970408Y-91009355D01*
X152970411Y-91009357D01*
X152981855Y-91017370D01*
X153153451Y-91137523D01*
X153158433Y-91139846D01*
X153158438Y-91139849D01*
X153344744Y-91226724D01*
X153360957Y-91234284D01*
X153366265Y-91235706D01*
X153366267Y-91235707D01*
X153576798Y-91292119D01*
X153576800Y-91292119D01*
X153582113Y-91293543D01*
X153810200Y-91313498D01*
X154038287Y-91293543D01*
X154043600Y-91292119D01*
X154043602Y-91292119D01*
X154254133Y-91235707D01*
X154254135Y-91235706D01*
X154259443Y-91234284D01*
X154275656Y-91226724D01*
X154461962Y-91139849D01*
X154461967Y-91139846D01*
X154466949Y-91137523D01*
X154638545Y-91017370D01*
X154649989Y-91009357D01*
X154649992Y-91009355D01*
X154654500Y-91006198D01*
X154816398Y-90844300D01*
X154820642Y-90838240D01*
X154876476Y-90758500D01*
X154947723Y-90656749D01*
X154950046Y-90651767D01*
X154950049Y-90651762D01*
X154966005Y-90617543D01*
X155012922Y-90564258D01*
X155081199Y-90544797D01*
X155149159Y-90565339D01*
X155194395Y-90617543D01*
X155210351Y-90651762D01*
X155210354Y-90651767D01*
X155212677Y-90656749D01*
X155283924Y-90758500D01*
X155339759Y-90838240D01*
X155344002Y-90844300D01*
X155505900Y-91006198D01*
X155510408Y-91009355D01*
X155510411Y-91009357D01*
X155521855Y-91017370D01*
X155693451Y-91137523D01*
X155698433Y-91139846D01*
X155698438Y-91139849D01*
X155884744Y-91226724D01*
X155900957Y-91234284D01*
X155906265Y-91235706D01*
X155906267Y-91235707D01*
X156116798Y-91292119D01*
X156116800Y-91292119D01*
X156122113Y-91293543D01*
X156350200Y-91313498D01*
X156578287Y-91293543D01*
X156583600Y-91292119D01*
X156583602Y-91292119D01*
X156794133Y-91235707D01*
X156794135Y-91235706D01*
X156799443Y-91234284D01*
X156815656Y-91226724D01*
X157001962Y-91139849D01*
X157001967Y-91139846D01*
X157006949Y-91137523D01*
X157178545Y-91017370D01*
X157189989Y-91009357D01*
X157189992Y-91009355D01*
X157194500Y-91006198D01*
X157356398Y-90844300D01*
X157360642Y-90838240D01*
X157416476Y-90758500D01*
X157487723Y-90656749D01*
X157490046Y-90651767D01*
X157490049Y-90651762D01*
X157506005Y-90617543D01*
X157552922Y-90564258D01*
X157621199Y-90544797D01*
X157689159Y-90565339D01*
X157734395Y-90617543D01*
X157750351Y-90651762D01*
X157750354Y-90651767D01*
X157752677Y-90656749D01*
X157823924Y-90758500D01*
X157879759Y-90838240D01*
X157884002Y-90844300D01*
X158045900Y-91006198D01*
X158050408Y-91009355D01*
X158050411Y-91009357D01*
X158061855Y-91017370D01*
X158233451Y-91137523D01*
X158238433Y-91139846D01*
X158238438Y-91139849D01*
X158424744Y-91226724D01*
X158440957Y-91234284D01*
X158446265Y-91235706D01*
X158446267Y-91235707D01*
X158656798Y-91292119D01*
X158656800Y-91292119D01*
X158662113Y-91293543D01*
X158890200Y-91313498D01*
X159118287Y-91293543D01*
X159123600Y-91292119D01*
X159123602Y-91292119D01*
X159334133Y-91235707D01*
X159334135Y-91235706D01*
X159339443Y-91234284D01*
X159355656Y-91226724D01*
X159541962Y-91139849D01*
X159541967Y-91139846D01*
X159546949Y-91137523D01*
X159718545Y-91017370D01*
X159729989Y-91009357D01*
X159729992Y-91009355D01*
X159734500Y-91006198D01*
X159896398Y-90844300D01*
X159900642Y-90838240D01*
X159956476Y-90758500D01*
X160027723Y-90656749D01*
X160030046Y-90651767D01*
X160030049Y-90651762D01*
X160046005Y-90617543D01*
X160092922Y-90564258D01*
X160161199Y-90544797D01*
X160229159Y-90565339D01*
X160274395Y-90617543D01*
X160290351Y-90651762D01*
X160290354Y-90651767D01*
X160292677Y-90656749D01*
X160363924Y-90758500D01*
X160419759Y-90838240D01*
X160424002Y-90844300D01*
X160585900Y-91006198D01*
X160590408Y-91009355D01*
X160590411Y-91009357D01*
X160601855Y-91017370D01*
X160773451Y-91137523D01*
X160778433Y-91139846D01*
X160778438Y-91139849D01*
X160964744Y-91226724D01*
X160980957Y-91234284D01*
X160986265Y-91235706D01*
X160986267Y-91235707D01*
X161196798Y-91292119D01*
X161196800Y-91292119D01*
X161202113Y-91293543D01*
X161430200Y-91313498D01*
X161658287Y-91293543D01*
X161663600Y-91292119D01*
X161663602Y-91292119D01*
X161874133Y-91235707D01*
X161874135Y-91235706D01*
X161879443Y-91234284D01*
X161895656Y-91226724D01*
X162081962Y-91139849D01*
X162081967Y-91139846D01*
X162086949Y-91137523D01*
X162258545Y-91017370D01*
X162269989Y-91009357D01*
X162269992Y-91009355D01*
X162274500Y-91006198D01*
X162436398Y-90844300D01*
X162440642Y-90838240D01*
X162496476Y-90758500D01*
X162567723Y-90656749D01*
X162570046Y-90651767D01*
X162570049Y-90651762D01*
X162586005Y-90617543D01*
X162632922Y-90564258D01*
X162701199Y-90544797D01*
X162769159Y-90565339D01*
X162814395Y-90617543D01*
X162830351Y-90651762D01*
X162830354Y-90651767D01*
X162832677Y-90656749D01*
X162903924Y-90758500D01*
X162959759Y-90838240D01*
X162964002Y-90844300D01*
X163125900Y-91006198D01*
X163130408Y-91009355D01*
X163130411Y-91009357D01*
X163141855Y-91017370D01*
X163313451Y-91137523D01*
X163318433Y-91139846D01*
X163318438Y-91139849D01*
X163504744Y-91226724D01*
X163520957Y-91234284D01*
X163526265Y-91235706D01*
X163526267Y-91235707D01*
X163736798Y-91292119D01*
X163736800Y-91292119D01*
X163742113Y-91293543D01*
X163970200Y-91313498D01*
X164198287Y-91293543D01*
X164203600Y-91292119D01*
X164203602Y-91292119D01*
X164414133Y-91235707D01*
X164414135Y-91235706D01*
X164419443Y-91234284D01*
X164435656Y-91226724D01*
X164621962Y-91139849D01*
X164621967Y-91139846D01*
X164626949Y-91137523D01*
X164798545Y-91017370D01*
X164809989Y-91009357D01*
X164809992Y-91009355D01*
X164814500Y-91006198D01*
X164976398Y-90844300D01*
X164980642Y-90838240D01*
X165036476Y-90758500D01*
X165107723Y-90656749D01*
X165110046Y-90651767D01*
X165110049Y-90651762D01*
X165126005Y-90617543D01*
X165172922Y-90564258D01*
X165241199Y-90544797D01*
X165309159Y-90565339D01*
X165354395Y-90617543D01*
X165370351Y-90651762D01*
X165370354Y-90651767D01*
X165372677Y-90656749D01*
X165443924Y-90758500D01*
X165499759Y-90838240D01*
X165504002Y-90844300D01*
X165665900Y-91006198D01*
X165670408Y-91009355D01*
X165670411Y-91009357D01*
X165681855Y-91017370D01*
X165853451Y-91137523D01*
X165858433Y-91139846D01*
X165858438Y-91139849D01*
X166044744Y-91226724D01*
X166060957Y-91234284D01*
X166066265Y-91235706D01*
X166066267Y-91235707D01*
X166276798Y-91292119D01*
X166276800Y-91292119D01*
X166282113Y-91293543D01*
X166510200Y-91313498D01*
X166738287Y-91293543D01*
X166743600Y-91292119D01*
X166743602Y-91292119D01*
X166954133Y-91235707D01*
X166954135Y-91235706D01*
X166959443Y-91234284D01*
X166975656Y-91226724D01*
X167161962Y-91139849D01*
X167161967Y-91139846D01*
X167166949Y-91137523D01*
X167338545Y-91017370D01*
X167349989Y-91009357D01*
X167349992Y-91009355D01*
X167354500Y-91006198D01*
X167516398Y-90844300D01*
X167520642Y-90838240D01*
X167576476Y-90758500D01*
X167647723Y-90656749D01*
X167650046Y-90651767D01*
X167650049Y-90651762D01*
X167666005Y-90617543D01*
X167712922Y-90564258D01*
X167781199Y-90544797D01*
X167849159Y-90565339D01*
X167894395Y-90617543D01*
X167910351Y-90651762D01*
X167910354Y-90651767D01*
X167912677Y-90656749D01*
X167983924Y-90758500D01*
X168039759Y-90838240D01*
X168044002Y-90844300D01*
X168205900Y-91006198D01*
X168210408Y-91009355D01*
X168210411Y-91009357D01*
X168221855Y-91017370D01*
X168393451Y-91137523D01*
X168398433Y-91139846D01*
X168398438Y-91139849D01*
X168584744Y-91226724D01*
X168600957Y-91234284D01*
X168606265Y-91235706D01*
X168606267Y-91235707D01*
X168816798Y-91292119D01*
X168816800Y-91292119D01*
X168822113Y-91293543D01*
X169050200Y-91313498D01*
X169278287Y-91293543D01*
X169283600Y-91292119D01*
X169283602Y-91292119D01*
X169494133Y-91235707D01*
X169494135Y-91235706D01*
X169499443Y-91234284D01*
X169515656Y-91226724D01*
X169701962Y-91139849D01*
X169701967Y-91139846D01*
X169706949Y-91137523D01*
X169878545Y-91017370D01*
X169889989Y-91009357D01*
X169889992Y-91009355D01*
X169894500Y-91006198D01*
X170056398Y-90844300D01*
X170060642Y-90838240D01*
X170116476Y-90758500D01*
X170187723Y-90656749D01*
X170190046Y-90651767D01*
X170190049Y-90651762D01*
X170206005Y-90617543D01*
X170252922Y-90564258D01*
X170321199Y-90544797D01*
X170389159Y-90565339D01*
X170434395Y-90617543D01*
X170450351Y-90651762D01*
X170450354Y-90651767D01*
X170452677Y-90656749D01*
X170523924Y-90758500D01*
X170579759Y-90838240D01*
X170584002Y-90844300D01*
X170745900Y-91006198D01*
X170750408Y-91009355D01*
X170750411Y-91009357D01*
X170761855Y-91017370D01*
X170933451Y-91137523D01*
X170938433Y-91139846D01*
X170938438Y-91139849D01*
X171124744Y-91226724D01*
X171140957Y-91234284D01*
X171146265Y-91235706D01*
X171146267Y-91235707D01*
X171356798Y-91292119D01*
X171356800Y-91292119D01*
X171362113Y-91293543D01*
X171590200Y-91313498D01*
X171818287Y-91293543D01*
X171823600Y-91292119D01*
X171823602Y-91292119D01*
X172034133Y-91235707D01*
X172034135Y-91235706D01*
X172039443Y-91234284D01*
X172055656Y-91226724D01*
X172241962Y-91139849D01*
X172241967Y-91139846D01*
X172246949Y-91137523D01*
X172418545Y-91017370D01*
X172429989Y-91009357D01*
X172429992Y-91009355D01*
X172434500Y-91006198D01*
X172596398Y-90844300D01*
X172600642Y-90838240D01*
X172656476Y-90758500D01*
X172727723Y-90656749D01*
X172730046Y-90651767D01*
X172730049Y-90651762D01*
X172746005Y-90617543D01*
X172792922Y-90564258D01*
X172861199Y-90544797D01*
X172929159Y-90565339D01*
X172974395Y-90617543D01*
X172990351Y-90651762D01*
X172990354Y-90651767D01*
X172992677Y-90656749D01*
X173063924Y-90758500D01*
X173119759Y-90838240D01*
X173124002Y-90844300D01*
X173285900Y-91006198D01*
X173290408Y-91009355D01*
X173290411Y-91009357D01*
X173301855Y-91017370D01*
X173473451Y-91137523D01*
X173478433Y-91139846D01*
X173478438Y-91139849D01*
X173664744Y-91226724D01*
X173680957Y-91234284D01*
X173686265Y-91235706D01*
X173686267Y-91235707D01*
X173896798Y-91292119D01*
X173896800Y-91292119D01*
X173902113Y-91293543D01*
X174130200Y-91313498D01*
X174358287Y-91293543D01*
X174363600Y-91292119D01*
X174363602Y-91292119D01*
X174574133Y-91235707D01*
X174574135Y-91235706D01*
X174579443Y-91234284D01*
X174595656Y-91226724D01*
X174781962Y-91139849D01*
X174781967Y-91139846D01*
X174786949Y-91137523D01*
X174958545Y-91017370D01*
X174969989Y-91009357D01*
X174969992Y-91009355D01*
X174974500Y-91006198D01*
X175136398Y-90844300D01*
X175140642Y-90838240D01*
X175196476Y-90758500D01*
X175267723Y-90656749D01*
X175270046Y-90651767D01*
X175270049Y-90651762D01*
X175286005Y-90617543D01*
X175332922Y-90564258D01*
X175401199Y-90544797D01*
X175469159Y-90565339D01*
X175514395Y-90617543D01*
X175530351Y-90651762D01*
X175530354Y-90651767D01*
X175532677Y-90656749D01*
X175603924Y-90758500D01*
X175659759Y-90838240D01*
X175664002Y-90844300D01*
X175825900Y-91006198D01*
X175830408Y-91009355D01*
X175830411Y-91009357D01*
X175841855Y-91017370D01*
X176013451Y-91137523D01*
X176018433Y-91139846D01*
X176018438Y-91139849D01*
X176204744Y-91226724D01*
X176220957Y-91234284D01*
X176226265Y-91235706D01*
X176226267Y-91235707D01*
X176436798Y-91292119D01*
X176436800Y-91292119D01*
X176442113Y-91293543D01*
X176670200Y-91313498D01*
X176898287Y-91293543D01*
X176903600Y-91292119D01*
X176903602Y-91292119D01*
X177114133Y-91235707D01*
X177114135Y-91235706D01*
X177119443Y-91234284D01*
X177135656Y-91226724D01*
X177321962Y-91139849D01*
X177321967Y-91139846D01*
X177326949Y-91137523D01*
X177498545Y-91017370D01*
X177509989Y-91009357D01*
X177509992Y-91009355D01*
X177514500Y-91006198D01*
X177676398Y-90844300D01*
X177680642Y-90838240D01*
X177736476Y-90758500D01*
X177807723Y-90656749D01*
X177810046Y-90651767D01*
X177810049Y-90651762D01*
X177902161Y-90454225D01*
X177902161Y-90454224D01*
X177904484Y-90449243D01*
X177915763Y-90407152D01*
X177962319Y-90233402D01*
X177962319Y-90233400D01*
X177963743Y-90228087D01*
X177983698Y-90000000D01*
X177963743Y-89771913D01*
X177962159Y-89766002D01*
X177905907Y-89556067D01*
X177905906Y-89556065D01*
X177904484Y-89550757D01*
X177902161Y-89545775D01*
X177810046Y-89348232D01*
X177810044Y-89348229D01*
X177807723Y-89343251D01*
X177808504Y-89342887D01*
X177792885Y-89278505D01*
X177816105Y-89211413D01*
X177871913Y-89167526D01*
X177918742Y-89158500D01*
X184137275Y-89158500D01*
X184161863Y-89160923D01*
X184172177Y-89162975D01*
X184177039Y-89163179D01*
X184177045Y-89163180D01*
X184179853Y-89163298D01*
X184179859Y-89163298D01*
X184184719Y-89163502D01*
X184189557Y-89162956D01*
X184194421Y-89162784D01*
X184194422Y-89162816D01*
X184198660Y-89162548D01*
X184297020Y-89161227D01*
X184590552Y-89157284D01*
X184590563Y-89157283D01*
X184593271Y-89157247D01*
X184595973Y-89156976D01*
X184595981Y-89156976D01*
X184771768Y-89139374D01*
X184999805Y-89116541D01*
X185002465Y-89116040D01*
X185002472Y-89116039D01*
X185398642Y-89041424D01*
X185398649Y-89041422D01*
X185401311Y-89040921D01*
X185403913Y-89040194D01*
X185403925Y-89040191D01*
X185721376Y-88951470D01*
X185794799Y-88930950D01*
X185982562Y-88860514D01*
X186053367Y-88855315D01*
X186115743Y-88889222D01*
X186149886Y-88951470D01*
X186144955Y-89022295D01*
X186142189Y-89029132D01*
X186133861Y-89048105D01*
X186112412Y-89096967D01*
X186111103Y-89102418D01*
X186111102Y-89102422D01*
X186084936Y-89211413D01*
X186059968Y-89315411D01*
X186059645Y-89321016D01*
X186049045Y-89504868D01*
X186047037Y-89539690D01*
X186074025Y-89762715D01*
X186140082Y-89977435D01*
X186142652Y-89982415D01*
X186142654Y-89982419D01*
X186221755Y-90135674D01*
X186243118Y-90177064D01*
X186379877Y-90355292D01*
X186546036Y-90506485D01*
X186550783Y-90509463D01*
X186550786Y-90509465D01*
X186675658Y-90587796D01*
X186736344Y-90625864D01*
X186944783Y-90709656D01*
X187164767Y-90755213D01*
X187169378Y-90755479D01*
X187169379Y-90755479D01*
X187219952Y-90758395D01*
X187219956Y-90758395D01*
X187221775Y-90758500D01*
X187886999Y-90758500D01*
X187889786Y-90758251D01*
X187889792Y-90758251D01*
X187959929Y-90751991D01*
X188053762Y-90743617D01*
X188059176Y-90742136D01*
X188059181Y-90742135D01*
X188231949Y-90694870D01*
X188270451Y-90684337D01*
X188275509Y-90681925D01*
X188275513Y-90681923D01*
X188393042Y-90625864D01*
X188473218Y-90587622D01*
X188655654Y-90456529D01*
X188741004Y-90368455D01*
X188808089Y-90299229D01*
X188808091Y-90299226D01*
X188811992Y-90295201D01*
X188937290Y-90108738D01*
X189027588Y-89903033D01*
X189034196Y-89875512D01*
X189078722Y-89690046D01*
X189078722Y-89690045D01*
X189080032Y-89684589D01*
X189087748Y-89550757D01*
X189092640Y-89465917D01*
X189092640Y-89465914D01*
X189092963Y-89460310D01*
X189065975Y-89237285D01*
X188999918Y-89022565D01*
X188963224Y-88951470D01*
X188899454Y-88827919D01*
X188899454Y-88827918D01*
X188896882Y-88822936D01*
X188760123Y-88644708D01*
X188593964Y-88493515D01*
X188589217Y-88490537D01*
X188589214Y-88490535D01*
X188408405Y-88377115D01*
X188403656Y-88374136D01*
X188195217Y-88290344D01*
X187975233Y-88244787D01*
X187970622Y-88244521D01*
X187970621Y-88244521D01*
X187920048Y-88241605D01*
X187920044Y-88241605D01*
X187918225Y-88241500D01*
X187487208Y-88241500D01*
X187419087Y-88221498D01*
X187372594Y-88167842D01*
X187362490Y-88097568D01*
X187391984Y-88032988D01*
X187405619Y-88019483D01*
X187540521Y-87904851D01*
X187542590Y-87903093D01*
X187551800Y-87893785D01*
X187688935Y-87755186D01*
X190709960Y-87755186D01*
X190717418Y-87765554D01*
X190932662Y-87939854D01*
X190937984Y-87943721D01*
X191240823Y-88140387D01*
X191246532Y-88143683D01*
X191568275Y-88307620D01*
X191574286Y-88310296D01*
X191911395Y-88439700D01*
X191917672Y-88441740D01*
X192266463Y-88535198D01*
X192272901Y-88536567D01*
X192629560Y-88593055D01*
X192636104Y-88593743D01*
X192996699Y-88612641D01*
X193003301Y-88612641D01*
X193363896Y-88593743D01*
X193370440Y-88593055D01*
X193727099Y-88536567D01*
X193733537Y-88535198D01*
X194082328Y-88441740D01*
X194088605Y-88439700D01*
X194425714Y-88310296D01*
X194431725Y-88307620D01*
X194753468Y-88143683D01*
X194759177Y-88140387D01*
X195062016Y-87943721D01*
X195067338Y-87939854D01*
X195281634Y-87766322D01*
X195290100Y-87754067D01*
X195283766Y-87742976D01*
X193012812Y-85472022D01*
X192998868Y-85464408D01*
X192997035Y-85464539D01*
X192990420Y-85468790D01*
X190717100Y-87742110D01*
X190709960Y-87755186D01*
X187688935Y-87755186D01*
X187828036Y-87614601D01*
X187828042Y-87614594D01*
X187829953Y-87612663D01*
X188091192Y-87298530D01*
X188324362Y-86963033D01*
X188527724Y-86608675D01*
X188528872Y-86606203D01*
X188698614Y-86240571D01*
X188698618Y-86240562D01*
X188699763Y-86238095D01*
X188700691Y-86235540D01*
X188700696Y-86235527D01*
X188828869Y-85882503D01*
X188832086Y-85875101D01*
X188832006Y-85875068D01*
X188833875Y-85870578D01*
X188836089Y-85866239D01*
X188840005Y-85854313D01*
X188844747Y-85825452D01*
X188848742Y-85808538D01*
X189163021Y-84795859D01*
X189275423Y-84433672D01*
X189280123Y-84420982D01*
X189292077Y-84393358D01*
X189292078Y-84393354D01*
X189295642Y-84385118D01*
X189298078Y-84365558D01*
X189302813Y-84343655D01*
X189355076Y-84175909D01*
X189394436Y-84116822D01*
X189459493Y-84088394D01*
X189529591Y-84099651D01*
X189582476Y-84147019D01*
X189601356Y-84215459D01*
X189597080Y-84246001D01*
X189564801Y-84366468D01*
X189563433Y-84372901D01*
X189506945Y-84729560D01*
X189506257Y-84736104D01*
X189487359Y-85096699D01*
X189487359Y-85103301D01*
X189506257Y-85463896D01*
X189506945Y-85470440D01*
X189563433Y-85827099D01*
X189564802Y-85833537D01*
X189658260Y-86182328D01*
X189660300Y-86188605D01*
X189789704Y-86525714D01*
X189792380Y-86531725D01*
X189956317Y-86853468D01*
X189959613Y-86859177D01*
X190156279Y-87162016D01*
X190160146Y-87167338D01*
X190333678Y-87381634D01*
X190345933Y-87390100D01*
X190357024Y-87383766D01*
X192910905Y-84829885D01*
X192973217Y-84795859D01*
X193044032Y-84800924D01*
X193089095Y-84829885D01*
X195642110Y-87382900D01*
X195655186Y-87390040D01*
X195665554Y-87382582D01*
X195839854Y-87167338D01*
X195843721Y-87162016D01*
X196040387Y-86859177D01*
X196043683Y-86853468D01*
X196207620Y-86531725D01*
X196210296Y-86525714D01*
X196247869Y-86427833D01*
X196290955Y-86371405D01*
X196357708Y-86347229D01*
X196426936Y-86362980D01*
X196476658Y-86413658D01*
X196491500Y-86472988D01*
X196491500Y-92428870D01*
X196471498Y-92496991D01*
X196417842Y-92543484D01*
X196347568Y-92553588D01*
X196282988Y-92524094D01*
X196244381Y-92463600D01*
X196206764Y-92332415D01*
X196204456Y-92325787D01*
X196077255Y-92017172D01*
X196074226Y-92010852D01*
X195913417Y-91718340D01*
X195909694Y-91712384D01*
X195717290Y-91439633D01*
X195712932Y-91434134D01*
X195662853Y-91377728D01*
X195649467Y-91369352D01*
X195639908Y-91375102D01*
X193694822Y-93320188D01*
X193687208Y-93334132D01*
X193687339Y-93335965D01*
X193691590Y-93342580D01*
X195640305Y-95291295D01*
X195654249Y-95298909D01*
X195655028Y-95298854D01*
X195662090Y-95294157D01*
X195663488Y-95292490D01*
X195863435Y-95025215D01*
X195867325Y-95019360D01*
X196036231Y-94731468D01*
X196039445Y-94725214D01*
X196175207Y-94420289D01*
X196177704Y-94413714D01*
X196245398Y-94200316D01*
X196285061Y-94141432D01*
X196350263Y-94113340D01*
X196420303Y-94124957D01*
X196472943Y-94172597D01*
X196491500Y-94238415D01*
X196491500Y-100301060D01*
X196471498Y-100369181D01*
X196417842Y-100415674D01*
X196347568Y-100425778D01*
X196282988Y-100396284D01*
X196244381Y-100335790D01*
X196244077Y-100334729D01*
X196206267Y-100202870D01*
X196142051Y-100047070D01*
X196077706Y-99890956D01*
X196077702Y-99890948D01*
X196076368Y-99887711D01*
X195912148Y-99588996D01*
X195715654Y-99310448D01*
X195489334Y-99055538D01*
X195415666Y-98989207D01*
X195238629Y-98829802D01*
X195238626Y-98829800D01*
X195236011Y-98827445D01*
X195233161Y-98825404D01*
X195233154Y-98825399D01*
X194961696Y-98631054D01*
X194961693Y-98631052D01*
X194958842Y-98629011D01*
X194661280Y-98462709D01*
X194347035Y-98330613D01*
X194343672Y-98329623D01*
X194343663Y-98329620D01*
X194135666Y-98268404D01*
X194020024Y-98234369D01*
X193736843Y-98184436D01*
X193687783Y-98175785D01*
X193687781Y-98175785D01*
X193684323Y-98175175D01*
X193680814Y-98174954D01*
X193680812Y-98174954D01*
X193347634Y-98153992D01*
X193347628Y-98153992D01*
X193344116Y-98153771D01*
X193247691Y-98158487D01*
X193007150Y-98170251D01*
X193007142Y-98170252D01*
X193003643Y-98170423D01*
X193000175Y-98170985D01*
X193000172Y-98170985D01*
X192670623Y-98224361D01*
X192670620Y-98224362D01*
X192667148Y-98224924D01*
X192663765Y-98225869D01*
X192663763Y-98225869D01*
X192629770Y-98235360D01*
X192338825Y-98316593D01*
X192022767Y-98444289D01*
X192019682Y-98445957D01*
X192019680Y-98445958D01*
X191993137Y-98460310D01*
X191722912Y-98606420D01*
X191442999Y-98800964D01*
X191440357Y-98803277D01*
X191440353Y-98803280D01*
X191274308Y-98948642D01*
X191186516Y-99025498D01*
X190956660Y-99277223D01*
X190756295Y-99553001D01*
X190587921Y-99849394D01*
X190586534Y-99852629D01*
X190586532Y-99852634D01*
X190455589Y-100158148D01*
X190453634Y-100162709D01*
X190429429Y-100242880D01*
X190362610Y-100464197D01*
X190355109Y-100489040D01*
X190339406Y-100574596D01*
X190299168Y-100793838D01*
X190293573Y-100824320D01*
X190293327Y-100827836D01*
X190293327Y-100827837D01*
X190278503Y-101039839D01*
X190269795Y-101164369D01*
X190284069Y-101504950D01*
X190300708Y-101612433D01*
X190329921Y-101801132D01*
X190336219Y-101841817D01*
X190337141Y-101845209D01*
X190337141Y-101845211D01*
X190351871Y-101899425D01*
X190425594Y-102170772D01*
X190551080Y-102487714D01*
X190552726Y-102490810D01*
X190552728Y-102490814D01*
X190608301Y-102595330D01*
X190711114Y-102788693D01*
X190713099Y-102791592D01*
X190901709Y-103067051D01*
X190901714Y-103067057D01*
X190903700Y-103069958D01*
X191126438Y-103328002D01*
X191129008Y-103330382D01*
X191129012Y-103330386D01*
X191142995Y-103343334D01*
X191376551Y-103559610D01*
X191379373Y-103561691D01*
X191379376Y-103561693D01*
X191410280Y-103584477D01*
X191650924Y-103761895D01*
X191653961Y-103763649D01*
X191653965Y-103763651D01*
X191751984Y-103820242D01*
X191946134Y-103932335D01*
X192018363Y-103963891D01*
X192255282Y-104067399D01*
X192255292Y-104067403D01*
X192258504Y-104068806D01*
X192261861Y-104069845D01*
X192261866Y-104069847D01*
X192580779Y-104168567D01*
X192584139Y-104169607D01*
X192587595Y-104170266D01*
X192587594Y-104170266D01*
X192915530Y-104232823D01*
X192915535Y-104232824D01*
X192918981Y-104233481D01*
X193142997Y-104250718D01*
X193255359Y-104259364D01*
X193255360Y-104259364D01*
X193258856Y-104259633D01*
X193471207Y-104252218D01*
X193596014Y-104247860D01*
X193596019Y-104247860D01*
X193599529Y-104247737D01*
X193768140Y-104222839D01*
X193933273Y-104198454D01*
X193933278Y-104198453D01*
X193936752Y-104197940D01*
X193940144Y-104197044D01*
X193940148Y-104197043D01*
X194262932Y-104111760D01*
X194262933Y-104111760D01*
X194266323Y-104110864D01*
X194584133Y-103987593D01*
X194886222Y-103829665D01*
X195113958Y-103676055D01*
X195165908Y-103641014D01*
X195165910Y-103641013D01*
X195168824Y-103639047D01*
X195268684Y-103554060D01*
X195425744Y-103420391D01*
X195425745Y-103420390D01*
X195428417Y-103418116D01*
X195507314Y-103334099D01*
X195659355Y-103172193D01*
X195659359Y-103172188D01*
X195661766Y-103169625D01*
X195663871Y-103166811D01*
X195663877Y-103166804D01*
X195863852Y-102899491D01*
X195865961Y-102896672D01*
X196038458Y-102602658D01*
X196041721Y-102595330D01*
X196175674Y-102294466D01*
X196175676Y-102294461D01*
X196177106Y-102291249D01*
X196245398Y-102075966D01*
X196285061Y-102017082D01*
X196350264Y-101988990D01*
X196420303Y-102000607D01*
X196472943Y-102048247D01*
X196491500Y-102114065D01*
X196491500Y-108827012D01*
X196471498Y-108895133D01*
X196417842Y-108941626D01*
X196347568Y-108951730D01*
X196282988Y-108922236D01*
X196247869Y-108872167D01*
X196210296Y-108774286D01*
X196207620Y-108768275D01*
X196043683Y-108446532D01*
X196040387Y-108440823D01*
X195843721Y-108137984D01*
X195839854Y-108132662D01*
X195666322Y-107918366D01*
X195654067Y-107909900D01*
X195642976Y-107916234D01*
X193089095Y-110470115D01*
X193026783Y-110504141D01*
X192955968Y-110499076D01*
X192910905Y-110470115D01*
X190357890Y-107917100D01*
X190344814Y-107909960D01*
X190334446Y-107917418D01*
X190160146Y-108132662D01*
X190156279Y-108137984D01*
X189959613Y-108440823D01*
X189956317Y-108446532D01*
X189792380Y-108768275D01*
X189789704Y-108774286D01*
X189660300Y-109111395D01*
X189658260Y-109117672D01*
X189564802Y-109466463D01*
X189563433Y-109472901D01*
X189506945Y-109829560D01*
X189506257Y-109836104D01*
X189487359Y-110196699D01*
X189487359Y-110203301D01*
X189506257Y-110563896D01*
X189506945Y-110570440D01*
X189563433Y-110927099D01*
X189564802Y-110933538D01*
X189597080Y-111054002D01*
X189595390Y-111124978D01*
X189555596Y-111183774D01*
X189490331Y-111211722D01*
X189420318Y-111199948D01*
X189367784Y-111152192D01*
X189355076Y-111124092D01*
X189305011Y-110963399D01*
X189299932Y-110938438D01*
X189298794Y-110927033D01*
X189281203Y-110883491D01*
X189277698Y-110873659D01*
X188939418Y-109783644D01*
X188851042Y-109498875D01*
X188846585Y-109478916D01*
X188844301Y-109462523D01*
X188843630Y-109457706D01*
X188840005Y-109445688D01*
X188837897Y-109441295D01*
X188836782Y-109438421D01*
X188833809Y-109431347D01*
X188824671Y-109406178D01*
X188699688Y-109061937D01*
X188566148Y-108774286D01*
X188528800Y-108693836D01*
X188528796Y-108693829D01*
X188527652Y-108691364D01*
X188387146Y-108446532D01*
X188325646Y-108339368D01*
X188325635Y-108339350D01*
X188324293Y-108337011D01*
X188091127Y-108001521D01*
X187829892Y-107687392D01*
X187827981Y-107685461D01*
X187827975Y-107685454D01*
X187689927Y-107545933D01*
X190709900Y-107545933D01*
X190716234Y-107557024D01*
X192987188Y-109827978D01*
X193001132Y-109835592D01*
X193002965Y-109835461D01*
X193009580Y-109831210D01*
X195282900Y-107557890D01*
X195290040Y-107544814D01*
X195282582Y-107534446D01*
X195067338Y-107360146D01*
X195062016Y-107356279D01*
X194759177Y-107159613D01*
X194753468Y-107156317D01*
X194431725Y-106992380D01*
X194425714Y-106989704D01*
X194088605Y-106860300D01*
X194082328Y-106858260D01*
X193733537Y-106764802D01*
X193727099Y-106763433D01*
X193370440Y-106706945D01*
X193363896Y-106706257D01*
X193003301Y-106687359D01*
X192996699Y-106687359D01*
X192636104Y-106706257D01*
X192629560Y-106706945D01*
X192272901Y-106763433D01*
X192266463Y-106764802D01*
X191917672Y-106858260D01*
X191911395Y-106860300D01*
X191574286Y-106989704D01*
X191568275Y-106992380D01*
X191246532Y-107156317D01*
X191240823Y-107159613D01*
X190937984Y-107356279D01*
X190932662Y-107360146D01*
X190718366Y-107533678D01*
X190709900Y-107545933D01*
X187689927Y-107545933D01*
X187544448Y-107398901D01*
X187544443Y-107398896D01*
X187542535Y-107396968D01*
X187231198Y-107132412D01*
X187034210Y-106992380D01*
X186900427Y-106897278D01*
X186900416Y-106897271D01*
X186898202Y-106895697D01*
X186895867Y-106894324D01*
X186895858Y-106894318D01*
X186653900Y-106752026D01*
X186546028Y-106688588D01*
X186177303Y-106512628D01*
X185794774Y-106369128D01*
X185792148Y-106368394D01*
X185403907Y-106259889D01*
X185403895Y-106259886D01*
X185401293Y-106259159D01*
X185398631Y-106258658D01*
X185398624Y-106258656D01*
X185243344Y-106229411D01*
X184999793Y-106183540D01*
X184821302Y-106165668D01*
X184595978Y-106143106D01*
X184595968Y-106143105D01*
X184593267Y-106142835D01*
X184590559Y-106142799D01*
X184590548Y-106142798D01*
X184391342Y-106140122D01*
X184214997Y-106137753D01*
X184206952Y-106137146D01*
X184206947Y-106137233D01*
X184202092Y-106136943D01*
X184197270Y-106136278D01*
X184192410Y-106136363D01*
X184192407Y-106136363D01*
X184191250Y-106136384D01*
X184184719Y-106136498D01*
X184166626Y-106139641D01*
X184145061Y-106141500D01*
X177878390Y-106141500D01*
X177810269Y-106121498D01*
X177763776Y-106067842D01*
X177753672Y-105997568D01*
X177775177Y-105943229D01*
X177804566Y-105901257D01*
X177807723Y-105896749D01*
X177810046Y-105891767D01*
X177810049Y-105891762D01*
X177902161Y-105694225D01*
X177902161Y-105694224D01*
X177904484Y-105689243D01*
X177924272Y-105615396D01*
X177962319Y-105473402D01*
X177962319Y-105473400D01*
X177963743Y-105468087D01*
X177983698Y-105240000D01*
X177967110Y-105050400D01*
X186051500Y-105050400D01*
X186062474Y-105156165D01*
X186064655Y-105162701D01*
X186064655Y-105162703D01*
X186088051Y-105232828D01*
X186118450Y-105323945D01*
X186211522Y-105474348D01*
X186336697Y-105599305D01*
X186342927Y-105603145D01*
X186342928Y-105603146D01*
X186480090Y-105687694D01*
X186487262Y-105692115D01*
X186567005Y-105718564D01*
X186648611Y-105745632D01*
X186648613Y-105745632D01*
X186655139Y-105747797D01*
X186661975Y-105748497D01*
X186661978Y-105748498D01*
X186705031Y-105752909D01*
X186759600Y-105758500D01*
X188380400Y-105758500D01*
X188383646Y-105758163D01*
X188383650Y-105758163D01*
X188479307Y-105748238D01*
X188479311Y-105748237D01*
X188486165Y-105747526D01*
X188492701Y-105745345D01*
X188492703Y-105745345D01*
X188624805Y-105701272D01*
X188653945Y-105691550D01*
X188804348Y-105598478D01*
X188929305Y-105473303D01*
X188962341Y-105419709D01*
X189018275Y-105328968D01*
X189018276Y-105328966D01*
X189022115Y-105322738D01*
X189057985Y-105214594D01*
X189075632Y-105161389D01*
X189075632Y-105161387D01*
X189077797Y-105154861D01*
X189088500Y-105050400D01*
X189088500Y-103949600D01*
X189086526Y-103930575D01*
X189078238Y-103850693D01*
X189078237Y-103850689D01*
X189077526Y-103843835D01*
X189067860Y-103814861D01*
X189023868Y-103683003D01*
X189021550Y-103676055D01*
X188928478Y-103525652D01*
X188803303Y-103400695D01*
X188737847Y-103360347D01*
X188658968Y-103311725D01*
X188658966Y-103311724D01*
X188652738Y-103307885D01*
X188492254Y-103254655D01*
X188491389Y-103254368D01*
X188491387Y-103254368D01*
X188484861Y-103252203D01*
X188478025Y-103251503D01*
X188478022Y-103251502D01*
X188434969Y-103247091D01*
X188380400Y-103241500D01*
X186759600Y-103241500D01*
X186756354Y-103241837D01*
X186756350Y-103241837D01*
X186660693Y-103251762D01*
X186660689Y-103251763D01*
X186653835Y-103252474D01*
X186647299Y-103254655D01*
X186647297Y-103254655D01*
X186571755Y-103279858D01*
X186486055Y-103308450D01*
X186335652Y-103401522D01*
X186210695Y-103526697D01*
X186206855Y-103532927D01*
X186206854Y-103532928D01*
X186140229Y-103641014D01*
X186117885Y-103677262D01*
X186110248Y-103700287D01*
X186068435Y-103826351D01*
X186062203Y-103845139D01*
X186061503Y-103851975D01*
X186061502Y-103851978D01*
X186059922Y-103867404D01*
X186051500Y-103949600D01*
X186051500Y-105050400D01*
X177967110Y-105050400D01*
X177963743Y-105011913D01*
X177943871Y-104937749D01*
X177905907Y-104796067D01*
X177905906Y-104796065D01*
X177904484Y-104790757D01*
X177816304Y-104601653D01*
X177810049Y-104588238D01*
X177810046Y-104588233D01*
X177807723Y-104583251D01*
X177676398Y-104395700D01*
X177514500Y-104233802D01*
X177509992Y-104230645D01*
X177509989Y-104230643D01*
X177384120Y-104142509D01*
X177326949Y-104102477D01*
X177321967Y-104100154D01*
X177321962Y-104100151D01*
X177124425Y-104008039D01*
X177124424Y-104008039D01*
X177119443Y-104005716D01*
X177114135Y-104004294D01*
X177114133Y-104004293D01*
X176903602Y-103947881D01*
X176903600Y-103947881D01*
X176898287Y-103946457D01*
X176670200Y-103926502D01*
X176442113Y-103946457D01*
X176436800Y-103947881D01*
X176436798Y-103947881D01*
X176226267Y-104004293D01*
X176226265Y-104004294D01*
X176220957Y-104005716D01*
X176215976Y-104008039D01*
X176215975Y-104008039D01*
X176018438Y-104100151D01*
X176018433Y-104100154D01*
X176013451Y-104102477D01*
X175956280Y-104142509D01*
X175830411Y-104230643D01*
X175830408Y-104230645D01*
X175825900Y-104233802D01*
X175664002Y-104395700D01*
X175532677Y-104583251D01*
X175530354Y-104588233D01*
X175530351Y-104588238D01*
X175514395Y-104622457D01*
X175467478Y-104675742D01*
X175399201Y-104695203D01*
X175331241Y-104674661D01*
X175286005Y-104622457D01*
X175270049Y-104588238D01*
X175270046Y-104588233D01*
X175267723Y-104583251D01*
X175136398Y-104395700D01*
X174974500Y-104233802D01*
X174969992Y-104230645D01*
X174969989Y-104230643D01*
X174844120Y-104142509D01*
X174786949Y-104102477D01*
X174781967Y-104100154D01*
X174781962Y-104100151D01*
X174584425Y-104008039D01*
X174584424Y-104008039D01*
X174579443Y-104005716D01*
X174574135Y-104004294D01*
X174574133Y-104004293D01*
X174363602Y-103947881D01*
X174363600Y-103947881D01*
X174358287Y-103946457D01*
X174130200Y-103926502D01*
X173902113Y-103946457D01*
X173896800Y-103947881D01*
X173896798Y-103947881D01*
X173686267Y-104004293D01*
X173686265Y-104004294D01*
X173680957Y-104005716D01*
X173675976Y-104008039D01*
X173675975Y-104008039D01*
X173478438Y-104100151D01*
X173478433Y-104100154D01*
X173473451Y-104102477D01*
X173416280Y-104142509D01*
X173290411Y-104230643D01*
X173290408Y-104230645D01*
X173285900Y-104233802D01*
X173124002Y-104395700D01*
X172992677Y-104583251D01*
X172990354Y-104588233D01*
X172990351Y-104588238D01*
X172974395Y-104622457D01*
X172927478Y-104675742D01*
X172859201Y-104695203D01*
X172791241Y-104674661D01*
X172746005Y-104622457D01*
X172730049Y-104588238D01*
X172730046Y-104588233D01*
X172727723Y-104583251D01*
X172596398Y-104395700D01*
X172434500Y-104233802D01*
X172429992Y-104230645D01*
X172429989Y-104230643D01*
X172304120Y-104142509D01*
X172246949Y-104102477D01*
X172241967Y-104100154D01*
X172241962Y-104100151D01*
X172044425Y-104008039D01*
X172044424Y-104008039D01*
X172039443Y-104005716D01*
X172034135Y-104004294D01*
X172034133Y-104004293D01*
X171823602Y-103947881D01*
X171823600Y-103947881D01*
X171818287Y-103946457D01*
X171590200Y-103926502D01*
X171362113Y-103946457D01*
X171356800Y-103947881D01*
X171356798Y-103947881D01*
X171146267Y-104004293D01*
X171146265Y-104004294D01*
X171140957Y-104005716D01*
X171135976Y-104008039D01*
X171135975Y-104008039D01*
X170938438Y-104100151D01*
X170938433Y-104100154D01*
X170933451Y-104102477D01*
X170876280Y-104142509D01*
X170750411Y-104230643D01*
X170750408Y-104230645D01*
X170745900Y-104233802D01*
X170584002Y-104395700D01*
X170452677Y-104583251D01*
X170450354Y-104588233D01*
X170450351Y-104588238D01*
X170434395Y-104622457D01*
X170387478Y-104675742D01*
X170319201Y-104695203D01*
X170251241Y-104674661D01*
X170206005Y-104622457D01*
X170190049Y-104588238D01*
X170190046Y-104588233D01*
X170187723Y-104583251D01*
X170056398Y-104395700D01*
X169894500Y-104233802D01*
X169889992Y-104230645D01*
X169889989Y-104230643D01*
X169764120Y-104142509D01*
X169706949Y-104102477D01*
X169701967Y-104100154D01*
X169701962Y-104100151D01*
X169504425Y-104008039D01*
X169504424Y-104008039D01*
X169499443Y-104005716D01*
X169494135Y-104004294D01*
X169494133Y-104004293D01*
X169283602Y-103947881D01*
X169283600Y-103947881D01*
X169278287Y-103946457D01*
X169050200Y-103926502D01*
X168822113Y-103946457D01*
X168816800Y-103947881D01*
X168816798Y-103947881D01*
X168606267Y-104004293D01*
X168606265Y-104004294D01*
X168600957Y-104005716D01*
X168595976Y-104008039D01*
X168595975Y-104008039D01*
X168398438Y-104100151D01*
X168398433Y-104100154D01*
X168393451Y-104102477D01*
X168336280Y-104142509D01*
X168210411Y-104230643D01*
X168210408Y-104230645D01*
X168205900Y-104233802D01*
X168044002Y-104395700D01*
X167912677Y-104583251D01*
X167910354Y-104588233D01*
X167910351Y-104588238D01*
X167894395Y-104622457D01*
X167847478Y-104675742D01*
X167779201Y-104695203D01*
X167711241Y-104674661D01*
X167666005Y-104622457D01*
X167650049Y-104588238D01*
X167650046Y-104588233D01*
X167647723Y-104583251D01*
X167516398Y-104395700D01*
X167354500Y-104233802D01*
X167349992Y-104230645D01*
X167349989Y-104230643D01*
X167224120Y-104142509D01*
X167166949Y-104102477D01*
X167161967Y-104100154D01*
X167161962Y-104100151D01*
X166964425Y-104008039D01*
X166964424Y-104008039D01*
X166959443Y-104005716D01*
X166954135Y-104004294D01*
X166954133Y-104004293D01*
X166743602Y-103947881D01*
X166743600Y-103947881D01*
X166738287Y-103946457D01*
X166510200Y-103926502D01*
X166282113Y-103946457D01*
X166276800Y-103947881D01*
X166276798Y-103947881D01*
X166066267Y-104004293D01*
X166066265Y-104004294D01*
X166060957Y-104005716D01*
X166055976Y-104008039D01*
X166055975Y-104008039D01*
X165858438Y-104100151D01*
X165858433Y-104100154D01*
X165853451Y-104102477D01*
X165796280Y-104142509D01*
X165670411Y-104230643D01*
X165670408Y-104230645D01*
X165665900Y-104233802D01*
X165504002Y-104395700D01*
X165372677Y-104583251D01*
X165370354Y-104588233D01*
X165370351Y-104588238D01*
X165354395Y-104622457D01*
X165307478Y-104675742D01*
X165239201Y-104695203D01*
X165171241Y-104674661D01*
X165126005Y-104622457D01*
X165110049Y-104588238D01*
X165110046Y-104588233D01*
X165107723Y-104583251D01*
X164976398Y-104395700D01*
X164814500Y-104233802D01*
X164809992Y-104230645D01*
X164809989Y-104230643D01*
X164684120Y-104142509D01*
X164626949Y-104102477D01*
X164621967Y-104100154D01*
X164621962Y-104100151D01*
X164424425Y-104008039D01*
X164424424Y-104008039D01*
X164419443Y-104005716D01*
X164414135Y-104004294D01*
X164414133Y-104004293D01*
X164203602Y-103947881D01*
X164203600Y-103947881D01*
X164198287Y-103946457D01*
X163970200Y-103926502D01*
X163742113Y-103946457D01*
X163736800Y-103947881D01*
X163736798Y-103947881D01*
X163526267Y-104004293D01*
X163526265Y-104004294D01*
X163520957Y-104005716D01*
X163515976Y-104008039D01*
X163515975Y-104008039D01*
X163318438Y-104100151D01*
X163318433Y-104100154D01*
X163313451Y-104102477D01*
X163256280Y-104142509D01*
X163130411Y-104230643D01*
X163130408Y-104230645D01*
X163125900Y-104233802D01*
X162964002Y-104395700D01*
X162832677Y-104583251D01*
X162830354Y-104588233D01*
X162830351Y-104588238D01*
X162814395Y-104622457D01*
X162767478Y-104675742D01*
X162699201Y-104695203D01*
X162631241Y-104674661D01*
X162586005Y-104622457D01*
X162570049Y-104588238D01*
X162570046Y-104588233D01*
X162567723Y-104583251D01*
X162436398Y-104395700D01*
X162274500Y-104233802D01*
X162269992Y-104230645D01*
X162269989Y-104230643D01*
X162144120Y-104142509D01*
X162086949Y-104102477D01*
X162081967Y-104100154D01*
X162081962Y-104100151D01*
X161884425Y-104008039D01*
X161884424Y-104008039D01*
X161879443Y-104005716D01*
X161874135Y-104004294D01*
X161874133Y-104004293D01*
X161663602Y-103947881D01*
X161663600Y-103947881D01*
X161658287Y-103946457D01*
X161430200Y-103926502D01*
X161202113Y-103946457D01*
X161196800Y-103947881D01*
X161196798Y-103947881D01*
X160986267Y-104004293D01*
X160986265Y-104004294D01*
X160980957Y-104005716D01*
X160975976Y-104008039D01*
X160975975Y-104008039D01*
X160778438Y-104100151D01*
X160778433Y-104100154D01*
X160773451Y-104102477D01*
X160716280Y-104142509D01*
X160590411Y-104230643D01*
X160590408Y-104230645D01*
X160585900Y-104233802D01*
X160424002Y-104395700D01*
X160292677Y-104583251D01*
X160290354Y-104588233D01*
X160290351Y-104588238D01*
X160274395Y-104622457D01*
X160227478Y-104675742D01*
X160159201Y-104695203D01*
X160091241Y-104674661D01*
X160046005Y-104622457D01*
X160030049Y-104588238D01*
X160030046Y-104588233D01*
X160027723Y-104583251D01*
X159896398Y-104395700D01*
X159734500Y-104233802D01*
X159729992Y-104230645D01*
X159729989Y-104230643D01*
X159604120Y-104142509D01*
X159546949Y-104102477D01*
X159541967Y-104100154D01*
X159541962Y-104100151D01*
X159344425Y-104008039D01*
X159344424Y-104008039D01*
X159339443Y-104005716D01*
X159334135Y-104004294D01*
X159334133Y-104004293D01*
X159123602Y-103947881D01*
X159123600Y-103947881D01*
X159118287Y-103946457D01*
X158890200Y-103926502D01*
X158662113Y-103946457D01*
X158656800Y-103947881D01*
X158656798Y-103947881D01*
X158446267Y-104004293D01*
X158446265Y-104004294D01*
X158440957Y-104005716D01*
X158435976Y-104008039D01*
X158435975Y-104008039D01*
X158238438Y-104100151D01*
X158238433Y-104100154D01*
X158233451Y-104102477D01*
X158176280Y-104142509D01*
X158050411Y-104230643D01*
X158050408Y-104230645D01*
X158045900Y-104233802D01*
X157884002Y-104395700D01*
X157752677Y-104583251D01*
X157750354Y-104588233D01*
X157750351Y-104588238D01*
X157734395Y-104622457D01*
X157687478Y-104675742D01*
X157619201Y-104695203D01*
X157551241Y-104674661D01*
X157506005Y-104622457D01*
X157490049Y-104588238D01*
X157490046Y-104588233D01*
X157487723Y-104583251D01*
X157356398Y-104395700D01*
X157194500Y-104233802D01*
X157189992Y-104230645D01*
X157189989Y-104230643D01*
X157064120Y-104142509D01*
X157006949Y-104102477D01*
X157001967Y-104100154D01*
X157001962Y-104100151D01*
X156804425Y-104008039D01*
X156804424Y-104008039D01*
X156799443Y-104005716D01*
X156794135Y-104004294D01*
X156794133Y-104004293D01*
X156583602Y-103947881D01*
X156583600Y-103947881D01*
X156578287Y-103946457D01*
X156350200Y-103926502D01*
X156122113Y-103946457D01*
X156116800Y-103947881D01*
X156116798Y-103947881D01*
X155906267Y-104004293D01*
X155906265Y-104004294D01*
X155900957Y-104005716D01*
X155895976Y-104008039D01*
X155895975Y-104008039D01*
X155698438Y-104100151D01*
X155698433Y-104100154D01*
X155693451Y-104102477D01*
X155636280Y-104142509D01*
X155510411Y-104230643D01*
X155510408Y-104230645D01*
X155505900Y-104233802D01*
X155344002Y-104395700D01*
X155212677Y-104583251D01*
X155210354Y-104588233D01*
X155210351Y-104588238D01*
X155194119Y-104623049D01*
X155147202Y-104676334D01*
X155078925Y-104695795D01*
X155010965Y-104675253D01*
X154965729Y-104623049D01*
X154949614Y-104588489D01*
X154944131Y-104578994D01*
X154907691Y-104526952D01*
X154897212Y-104518576D01*
X154883766Y-104525644D01*
X153899295Y-105510115D01*
X153836983Y-105544141D01*
X153766168Y-105539076D01*
X153721105Y-105510115D01*
X152735913Y-104524923D01*
X152724138Y-104518493D01*
X152712123Y-104527789D01*
X152676269Y-104578994D01*
X152670786Y-104588489D01*
X152654671Y-104623049D01*
X152607754Y-104676334D01*
X152539477Y-104695795D01*
X152471517Y-104675253D01*
X152426281Y-104623049D01*
X152410049Y-104588238D01*
X152410046Y-104588233D01*
X152407723Y-104583251D01*
X152276398Y-104395700D01*
X152114500Y-104233802D01*
X152109992Y-104230645D01*
X152109989Y-104230643D01*
X151999086Y-104152988D01*
X153088776Y-104152988D01*
X153095844Y-104166434D01*
X153797388Y-104867978D01*
X153811332Y-104875592D01*
X153813165Y-104875461D01*
X153819780Y-104871210D01*
X154525277Y-104165713D01*
X154531707Y-104153938D01*
X154522411Y-104141923D01*
X154471206Y-104106069D01*
X154461711Y-104100586D01*
X154264253Y-104008510D01*
X154253961Y-104004764D01*
X154043512Y-103948375D01*
X154032719Y-103946472D01*
X153815675Y-103927483D01*
X153804725Y-103927483D01*
X153587681Y-103946472D01*
X153576888Y-103948375D01*
X153366439Y-104004764D01*
X153356147Y-104008510D01*
X153158689Y-104100586D01*
X153149194Y-104106069D01*
X153097152Y-104142509D01*
X153088776Y-104152988D01*
X151999086Y-104152988D01*
X151984120Y-104142509D01*
X151926949Y-104102477D01*
X151921967Y-104100154D01*
X151921962Y-104100151D01*
X151724425Y-104008039D01*
X151724424Y-104008039D01*
X151719443Y-104005716D01*
X151714135Y-104004294D01*
X151714133Y-104004293D01*
X151503602Y-103947881D01*
X151503600Y-103947881D01*
X151498287Y-103946457D01*
X151270200Y-103926502D01*
X151042113Y-103946457D01*
X151036800Y-103947881D01*
X151036798Y-103947881D01*
X150826267Y-104004293D01*
X150826265Y-104004294D01*
X150820957Y-104005716D01*
X150815976Y-104008039D01*
X150815975Y-104008039D01*
X150618438Y-104100151D01*
X150618433Y-104100154D01*
X150613451Y-104102477D01*
X150556280Y-104142509D01*
X150430411Y-104230643D01*
X150430408Y-104230645D01*
X150425900Y-104233802D01*
X150264002Y-104395700D01*
X150132677Y-104583251D01*
X150130354Y-104588233D01*
X150130351Y-104588238D01*
X150114395Y-104622457D01*
X150067478Y-104675742D01*
X149999201Y-104695203D01*
X149931241Y-104674661D01*
X149886005Y-104622457D01*
X149870049Y-104588238D01*
X149870046Y-104588233D01*
X149867723Y-104583251D01*
X149736398Y-104395700D01*
X149574500Y-104233802D01*
X149569992Y-104230645D01*
X149569989Y-104230643D01*
X149444120Y-104142509D01*
X149386949Y-104102477D01*
X149381967Y-104100154D01*
X149381962Y-104100151D01*
X149184425Y-104008039D01*
X149184424Y-104008039D01*
X149179443Y-104005716D01*
X149174135Y-104004294D01*
X149174133Y-104004293D01*
X148963602Y-103947881D01*
X148963600Y-103947881D01*
X148958287Y-103946457D01*
X148730200Y-103926502D01*
X148502113Y-103946457D01*
X148496800Y-103947881D01*
X148496798Y-103947881D01*
X148286267Y-104004293D01*
X148286265Y-104004294D01*
X148280957Y-104005716D01*
X148275976Y-104008039D01*
X148275975Y-104008039D01*
X148078438Y-104100151D01*
X148078433Y-104100154D01*
X148073451Y-104102477D01*
X148016280Y-104142509D01*
X147890411Y-104230643D01*
X147890408Y-104230645D01*
X147885900Y-104233802D01*
X147724002Y-104395700D01*
X147592677Y-104583251D01*
X147590354Y-104588233D01*
X147590351Y-104588238D01*
X147574395Y-104622457D01*
X147527478Y-104675742D01*
X147459201Y-104695203D01*
X147391241Y-104674661D01*
X147346005Y-104622457D01*
X147330049Y-104588238D01*
X147330046Y-104588233D01*
X147327723Y-104583251D01*
X147196398Y-104395700D01*
X147034500Y-104233802D01*
X147029992Y-104230645D01*
X147029989Y-104230643D01*
X146904120Y-104142509D01*
X146846949Y-104102477D01*
X146841967Y-104100154D01*
X146841962Y-104100151D01*
X146644425Y-104008039D01*
X146644424Y-104008039D01*
X146639443Y-104005716D01*
X146634135Y-104004294D01*
X146634133Y-104004293D01*
X146423602Y-103947881D01*
X146423600Y-103947881D01*
X146418287Y-103946457D01*
X146190200Y-103926502D01*
X145962113Y-103946457D01*
X145956800Y-103947881D01*
X145956798Y-103947881D01*
X145746267Y-104004293D01*
X145746265Y-104004294D01*
X145740957Y-104005716D01*
X145735976Y-104008039D01*
X145735975Y-104008039D01*
X145538438Y-104100151D01*
X145538433Y-104100154D01*
X145533451Y-104102477D01*
X145476280Y-104142509D01*
X145350411Y-104230643D01*
X145350408Y-104230645D01*
X145345900Y-104233802D01*
X145184002Y-104395700D01*
X145052677Y-104583251D01*
X145050354Y-104588233D01*
X145050351Y-104588238D01*
X145034395Y-104622457D01*
X144987478Y-104675742D01*
X144919201Y-104695203D01*
X144851241Y-104674661D01*
X144806005Y-104622457D01*
X144790049Y-104588238D01*
X144790046Y-104588233D01*
X144787723Y-104583251D01*
X144656398Y-104395700D01*
X144494500Y-104233802D01*
X144489992Y-104230645D01*
X144489989Y-104230643D01*
X144364120Y-104142509D01*
X144306949Y-104102477D01*
X144301967Y-104100154D01*
X144301962Y-104100151D01*
X144104425Y-104008039D01*
X144104424Y-104008039D01*
X144099443Y-104005716D01*
X144094135Y-104004294D01*
X144094133Y-104004293D01*
X143883602Y-103947881D01*
X143883600Y-103947881D01*
X143878287Y-103946457D01*
X143650200Y-103926502D01*
X143422113Y-103946457D01*
X143416800Y-103947881D01*
X143416798Y-103947881D01*
X143206267Y-104004293D01*
X143206265Y-104004294D01*
X143200957Y-104005716D01*
X143195976Y-104008039D01*
X143195975Y-104008039D01*
X142998438Y-104100151D01*
X142998433Y-104100154D01*
X142993451Y-104102477D01*
X142936280Y-104142509D01*
X142810411Y-104230643D01*
X142810408Y-104230645D01*
X142805900Y-104233802D01*
X142644002Y-104395700D01*
X142512677Y-104583251D01*
X142510354Y-104588233D01*
X142510351Y-104588238D01*
X142494395Y-104622457D01*
X142447478Y-104675742D01*
X142379201Y-104695203D01*
X142311241Y-104674661D01*
X142266005Y-104622457D01*
X142250049Y-104588238D01*
X142250046Y-104588233D01*
X142247723Y-104583251D01*
X142116398Y-104395700D01*
X141954500Y-104233802D01*
X141949992Y-104230645D01*
X141949989Y-104230643D01*
X141824120Y-104142509D01*
X141766949Y-104102477D01*
X141761967Y-104100154D01*
X141761962Y-104100151D01*
X141564425Y-104008039D01*
X141564424Y-104008039D01*
X141559443Y-104005716D01*
X141554135Y-104004294D01*
X141554133Y-104004293D01*
X141343602Y-103947881D01*
X141343600Y-103947881D01*
X141338287Y-103946457D01*
X141110200Y-103926502D01*
X140882113Y-103946457D01*
X140876800Y-103947881D01*
X140876798Y-103947881D01*
X140666267Y-104004293D01*
X140666265Y-104004294D01*
X140660957Y-104005716D01*
X140655976Y-104008039D01*
X140655975Y-104008039D01*
X140458438Y-104100151D01*
X140458433Y-104100154D01*
X140453451Y-104102477D01*
X140396280Y-104142509D01*
X140270411Y-104230643D01*
X140270408Y-104230645D01*
X140265900Y-104233802D01*
X140104002Y-104395700D01*
X139972677Y-104583251D01*
X139970354Y-104588233D01*
X139970351Y-104588238D01*
X139954395Y-104622457D01*
X139907478Y-104675742D01*
X139839201Y-104695203D01*
X139771241Y-104674661D01*
X139726005Y-104622457D01*
X139710049Y-104588238D01*
X139710046Y-104588233D01*
X139707723Y-104583251D01*
X139576398Y-104395700D01*
X139414500Y-104233802D01*
X139409992Y-104230645D01*
X139409989Y-104230643D01*
X139284120Y-104142509D01*
X139226949Y-104102477D01*
X139221967Y-104100154D01*
X139221962Y-104100151D01*
X139024425Y-104008039D01*
X139024424Y-104008039D01*
X139019443Y-104005716D01*
X139014135Y-104004294D01*
X139014133Y-104004293D01*
X138803602Y-103947881D01*
X138803600Y-103947881D01*
X138798287Y-103946457D01*
X138570200Y-103926502D01*
X138342113Y-103946457D01*
X138336800Y-103947881D01*
X138336798Y-103947881D01*
X138126267Y-104004293D01*
X138126265Y-104004294D01*
X138120957Y-104005716D01*
X138115976Y-104008039D01*
X138115975Y-104008039D01*
X137918438Y-104100151D01*
X137918433Y-104100154D01*
X137913451Y-104102477D01*
X137856280Y-104142509D01*
X137730411Y-104230643D01*
X137730408Y-104230645D01*
X137725900Y-104233802D01*
X137564002Y-104395700D01*
X137432677Y-104583251D01*
X137430354Y-104588233D01*
X137430351Y-104588238D01*
X137414395Y-104622457D01*
X137367478Y-104675742D01*
X137299201Y-104695203D01*
X137231241Y-104674661D01*
X137186005Y-104622457D01*
X137170049Y-104588238D01*
X137170046Y-104588233D01*
X137167723Y-104583251D01*
X137036398Y-104395700D01*
X136874500Y-104233802D01*
X136869992Y-104230645D01*
X136869989Y-104230643D01*
X136744120Y-104142509D01*
X136686949Y-104102477D01*
X136681967Y-104100154D01*
X136681962Y-104100151D01*
X136484425Y-104008039D01*
X136484424Y-104008039D01*
X136479443Y-104005716D01*
X136474135Y-104004294D01*
X136474133Y-104004293D01*
X136263602Y-103947881D01*
X136263600Y-103947881D01*
X136258287Y-103946457D01*
X136030200Y-103926502D01*
X135802113Y-103946457D01*
X135796800Y-103947881D01*
X135796798Y-103947881D01*
X135586267Y-104004293D01*
X135586265Y-104004294D01*
X135580957Y-104005716D01*
X135575976Y-104008039D01*
X135575975Y-104008039D01*
X135378438Y-104100151D01*
X135378433Y-104100154D01*
X135373451Y-104102477D01*
X135316280Y-104142509D01*
X135190411Y-104230643D01*
X135190408Y-104230645D01*
X135185900Y-104233802D01*
X135024002Y-104395700D01*
X134892677Y-104583251D01*
X134890354Y-104588233D01*
X134890351Y-104588238D01*
X134874395Y-104622457D01*
X134827478Y-104675742D01*
X134759201Y-104695203D01*
X134691241Y-104674661D01*
X134646005Y-104622457D01*
X134630049Y-104588238D01*
X134630046Y-104588233D01*
X134627723Y-104583251D01*
X134496398Y-104395700D01*
X134334500Y-104233802D01*
X134329992Y-104230645D01*
X134329989Y-104230643D01*
X134204120Y-104142509D01*
X134146949Y-104102477D01*
X134141967Y-104100154D01*
X134141962Y-104100151D01*
X133944425Y-104008039D01*
X133944424Y-104008039D01*
X133939443Y-104005716D01*
X133934135Y-104004294D01*
X133934133Y-104004293D01*
X133901809Y-103995632D01*
X133841186Y-103958680D01*
X133810165Y-103894820D01*
X133818593Y-103824325D01*
X133863796Y-103769578D01*
X133872854Y-103763990D01*
X133874159Y-103763259D01*
X133879193Y-103760440D01*
X134042893Y-103624293D01*
X134149329Y-103496317D01*
X134175349Y-103465031D01*
X134179040Y-103460593D01*
X134283076Y-103274823D01*
X134351516Y-103073205D01*
X134352409Y-103067051D01*
X134381537Y-102866161D01*
X134381537Y-102866159D01*
X134382069Y-102862491D01*
X134383663Y-102801600D01*
X134364181Y-102589576D01*
X134334226Y-102483365D01*
X134307954Y-102390211D01*
X134307953Y-102390209D01*
X134306386Y-102384652D01*
X134264641Y-102300000D01*
X134254646Y-102279733D01*
X181237822Y-102279733D01*
X181237975Y-102284121D01*
X181237975Y-102284127D01*
X181246453Y-102526887D01*
X181247625Y-102560458D01*
X181248387Y-102564781D01*
X181248388Y-102564788D01*
X181274049Y-102710315D01*
X181296402Y-102837087D01*
X181383203Y-103104235D01*
X181385131Y-103108188D01*
X181385133Y-103108193D01*
X181434057Y-103208500D01*
X181506340Y-103356702D01*
X181508795Y-103360341D01*
X181508798Y-103360347D01*
X181573020Y-103455559D01*
X181663415Y-103589576D01*
X181851371Y-103798322D01*
X181854733Y-103801143D01*
X181854734Y-103801144D01*
X181862527Y-103807683D01*
X182066550Y-103978879D01*
X182304764Y-104127731D01*
X182463610Y-104198454D01*
X182542886Y-104233750D01*
X182561375Y-104241982D01*
X182831390Y-104319407D01*
X182835740Y-104320018D01*
X182835743Y-104320019D01*
X182938690Y-104334487D01*
X183109552Y-104358500D01*
X183320146Y-104358500D01*
X183322332Y-104358347D01*
X183322336Y-104358347D01*
X183525827Y-104344118D01*
X183525832Y-104344117D01*
X183530212Y-104343811D01*
X183804970Y-104285409D01*
X183809099Y-104283906D01*
X183809103Y-104283905D01*
X184064781Y-104190846D01*
X184064785Y-104190844D01*
X184068926Y-104189337D01*
X184316942Y-104057464D01*
X184384970Y-104008039D01*
X184540629Y-103894947D01*
X184540632Y-103894944D01*
X184544192Y-103892358D01*
X184549218Y-103887505D01*
X184679290Y-103761895D01*
X184746252Y-103697231D01*
X184919188Y-103475882D01*
X184921384Y-103472078D01*
X184921389Y-103472071D01*
X185038426Y-103269355D01*
X185059636Y-103232619D01*
X185164862Y-102972176D01*
X185180052Y-102911254D01*
X185231753Y-102703893D01*
X185231754Y-102703888D01*
X185232817Y-102699624D01*
X185233532Y-102692828D01*
X185261719Y-102424636D01*
X185261719Y-102424633D01*
X185262178Y-102420267D01*
X185261256Y-102393852D01*
X185252529Y-102143939D01*
X185252528Y-102143933D01*
X185252375Y-102139542D01*
X185247723Y-102113156D01*
X185213026Y-101916381D01*
X185203598Y-101862913D01*
X185172671Y-101767728D01*
X186076114Y-101767728D01*
X186076166Y-101767973D01*
X186138898Y-101971883D01*
X186143119Y-101982229D01*
X186240971Y-102171814D01*
X186246957Y-102181245D01*
X186376832Y-102350501D01*
X186384393Y-102358724D01*
X186542194Y-102502312D01*
X186551094Y-102509067D01*
X186731815Y-102622434D01*
X186741781Y-102627511D01*
X186939714Y-102707080D01*
X186950429Y-102710315D01*
X187160301Y-102753777D01*
X187169438Y-102754980D01*
X187219990Y-102757895D01*
X187223637Y-102758000D01*
X187297885Y-102758000D01*
X187313124Y-102753525D01*
X187314329Y-102752135D01*
X187316000Y-102744452D01*
X187316000Y-102739885D01*
X187824000Y-102739885D01*
X187828475Y-102755124D01*
X187829865Y-102756329D01*
X187837548Y-102758000D01*
X187884175Y-102758000D01*
X187889770Y-102757751D01*
X188048078Y-102743622D01*
X188059092Y-102741640D01*
X188264860Y-102685349D01*
X188275341Y-102681451D01*
X188467903Y-102589603D01*
X188477516Y-102583918D01*
X188650767Y-102459425D01*
X188659233Y-102452117D01*
X188807692Y-102298918D01*
X188814735Y-102290221D01*
X188933719Y-102113156D01*
X188939105Y-102103358D01*
X189024857Y-101908010D01*
X189028422Y-101897418D01*
X189058624Y-101771616D01*
X189057919Y-101757530D01*
X189049040Y-101754000D01*
X187842115Y-101754000D01*
X187826876Y-101758475D01*
X187825671Y-101759865D01*
X187824000Y-101767548D01*
X187824000Y-102739885D01*
X187316000Y-102739885D01*
X187316000Y-101772115D01*
X187311525Y-101756876D01*
X187310135Y-101755671D01*
X187302452Y-101754000D01*
X186091589Y-101754000D01*
X186077607Y-101758105D01*
X186076114Y-101767728D01*
X185172671Y-101767728D01*
X185116797Y-101595765D01*
X185113585Y-101589178D01*
X185052320Y-101463569D01*
X184993660Y-101343298D01*
X184991205Y-101339659D01*
X184991202Y-101339653D01*
X184916150Y-101228384D01*
X186081376Y-101228384D01*
X186082081Y-101242470D01*
X186090960Y-101246000D01*
X187297885Y-101246000D01*
X187313124Y-101241525D01*
X187314329Y-101240135D01*
X187316000Y-101232452D01*
X187316000Y-101227885D01*
X187824000Y-101227885D01*
X187828475Y-101243124D01*
X187829865Y-101244329D01*
X187837548Y-101246000D01*
X189048411Y-101246000D01*
X189062393Y-101241895D01*
X189063886Y-101232272D01*
X189063834Y-101232027D01*
X189001102Y-101028117D01*
X188996881Y-101017771D01*
X188899029Y-100828186D01*
X188893043Y-100818755D01*
X188763168Y-100649499D01*
X188755607Y-100641276D01*
X188597806Y-100497688D01*
X188588906Y-100490933D01*
X188408185Y-100377566D01*
X188398219Y-100372489D01*
X188200286Y-100292920D01*
X188189571Y-100289685D01*
X187979699Y-100246223D01*
X187970562Y-100245020D01*
X187920010Y-100242105D01*
X187916363Y-100242000D01*
X187842115Y-100242000D01*
X187826876Y-100246475D01*
X187825671Y-100247865D01*
X187824000Y-100255548D01*
X187824000Y-101227885D01*
X187316000Y-101227885D01*
X187316000Y-100260115D01*
X187311525Y-100244876D01*
X187310135Y-100243671D01*
X187302452Y-100242000D01*
X187255825Y-100242000D01*
X187250230Y-100242249D01*
X187091922Y-100256378D01*
X187080908Y-100258360D01*
X186875140Y-100314651D01*
X186864659Y-100318549D01*
X186672097Y-100410397D01*
X186662484Y-100416082D01*
X186489233Y-100540575D01*
X186480767Y-100547883D01*
X186332308Y-100701082D01*
X186325265Y-100709779D01*
X186206281Y-100886844D01*
X186200895Y-100896642D01*
X186115143Y-101091990D01*
X186111578Y-101102582D01*
X186081376Y-101228384D01*
X184916150Y-101228384D01*
X184893777Y-101195215D01*
X184836585Y-101110424D01*
X184832712Y-101106122D01*
X184651566Y-100904940D01*
X184648629Y-100901678D01*
X184626805Y-100883365D01*
X184557814Y-100825475D01*
X184433450Y-100721121D01*
X184195236Y-100572269D01*
X183956885Y-100466148D01*
X183942639Y-100459805D01*
X183942637Y-100459804D01*
X183938625Y-100458018D01*
X183772550Y-100410397D01*
X183672837Y-100381805D01*
X183672836Y-100381805D01*
X183668610Y-100380593D01*
X183664260Y-100379982D01*
X183664257Y-100379981D01*
X183535509Y-100361887D01*
X183390448Y-100341500D01*
X183179854Y-100341500D01*
X183177668Y-100341653D01*
X183177664Y-100341653D01*
X182974173Y-100355882D01*
X182974168Y-100355883D01*
X182969788Y-100356189D01*
X182695030Y-100414591D01*
X182690901Y-100416094D01*
X182690897Y-100416095D01*
X182435219Y-100509154D01*
X182435215Y-100509156D01*
X182431074Y-100510663D01*
X182183058Y-100642536D01*
X182179499Y-100645122D01*
X182179497Y-100645123D01*
X181968602Y-100798347D01*
X181955808Y-100807642D01*
X181952644Y-100810698D01*
X181952641Y-100810700D01*
X181873792Y-100886844D01*
X181753748Y-101002769D01*
X181580812Y-101224118D01*
X181578616Y-101227922D01*
X181578611Y-101227929D01*
X181472803Y-101411195D01*
X181440364Y-101467381D01*
X181335138Y-101727824D01*
X181334073Y-101732097D01*
X181334072Y-101732099D01*
X181270022Y-101988990D01*
X181267183Y-102000376D01*
X181266724Y-102004744D01*
X181266723Y-102004749D01*
X181245986Y-102202058D01*
X181237822Y-102279733D01*
X134254646Y-102279733D01*
X134214770Y-102198873D01*
X134212215Y-102193692D01*
X134202921Y-102181245D01*
X134116984Y-102066162D01*
X134084822Y-102023091D01*
X133928471Y-101878563D01*
X133923583Y-101875479D01*
X133923578Y-101875475D01*
X133890172Y-101854398D01*
X133843233Y-101801132D01*
X133839829Y-101793132D01*
X133831875Y-101772485D01*
X133233012Y-101173622D01*
X133219068Y-101166008D01*
X133217235Y-101166139D01*
X133210620Y-101170390D01*
X132613412Y-101767598D01*
X132592018Y-101806777D01*
X132545856Y-101854674D01*
X132536334Y-101860339D01*
X132493722Y-101897709D01*
X132488439Y-101902342D01*
X132424034Y-101932218D01*
X132353702Y-101922532D01*
X132304536Y-101883174D01*
X132285209Y-101857386D01*
X132233461Y-101788339D01*
X132212307Y-101772485D01*
X132138082Y-101716856D01*
X132095567Y-101659997D01*
X132090541Y-101589178D01*
X132116773Y-101535461D01*
X132120637Y-101530816D01*
X132179040Y-101460593D01*
X132180202Y-101461560D01*
X132218820Y-101427179D01*
X132254002Y-101408588D01*
X132848178Y-100814412D01*
X132854556Y-100802732D01*
X133584608Y-100802732D01*
X133584739Y-100804565D01*
X133588990Y-100811180D01*
X134187171Y-101409361D01*
X134199551Y-101416121D01*
X134206131Y-101411195D01*
X134279795Y-101279660D01*
X134284476Y-101269147D01*
X134349172Y-101078557D01*
X134351857Y-101067374D01*
X134381034Y-100866139D01*
X134381664Y-100858757D01*
X134383064Y-100805304D01*
X134382821Y-100797905D01*
X134364216Y-100595424D01*
X134362118Y-100584103D01*
X134307487Y-100390397D01*
X134303363Y-100379650D01*
X134214341Y-100199134D01*
X134210817Y-100193384D01*
X134200795Y-100185862D01*
X134188376Y-100192634D01*
X133592222Y-100788788D01*
X133584608Y-100802732D01*
X132854556Y-100802732D01*
X132855792Y-100800468D01*
X132855661Y-100798635D01*
X132851410Y-100792020D01*
X132251720Y-100192330D01*
X132207423Y-100168141D01*
X132166852Y-100132943D01*
X132088274Y-100027714D01*
X132084822Y-100023091D01*
X131943371Y-99892336D01*
X131906926Y-99831410D01*
X131909206Y-99760450D01*
X131948331Y-99702939D01*
X132038455Y-99627984D01*
X132042893Y-99624293D01*
X132104555Y-99550152D01*
X132121708Y-99529528D01*
X132180645Y-99489944D01*
X132251627Y-99488507D01*
X132312118Y-99525675D01*
X132321478Y-99537375D01*
X132331107Y-99550999D01*
X132335496Y-99557209D01*
X132488009Y-99705781D01*
X132495513Y-99710795D01*
X132552448Y-99748838D01*
X132598797Y-99805245D01*
X132609993Y-99832183D01*
X133207388Y-100429578D01*
X133221332Y-100437192D01*
X133223165Y-100437061D01*
X133229780Y-100432810D01*
X133826734Y-99835856D01*
X133847280Y-99798230D01*
X133880248Y-99761709D01*
X133879193Y-99760440D01*
X133938885Y-99710795D01*
X134042893Y-99624293D01*
X134179040Y-99460593D01*
X134184972Y-99450000D01*
X143541496Y-99450000D01*
X143542186Y-99456565D01*
X143560203Y-99627984D01*
X143561458Y-99639928D01*
X143620473Y-99821556D01*
X143623776Y-99827278D01*
X143623777Y-99827279D01*
X143628383Y-99835256D01*
X143715960Y-99986944D01*
X143720378Y-99991851D01*
X143720379Y-99991852D01*
X143839325Y-100123955D01*
X143843747Y-100128866D01*
X143904557Y-100173047D01*
X143950257Y-100206250D01*
X143998248Y-100241118D01*
X144004276Y-100243802D01*
X144004278Y-100243803D01*
X144166681Y-100316109D01*
X144172712Y-100318794D01*
X144253396Y-100335944D01*
X144353056Y-100357128D01*
X144353061Y-100357128D01*
X144359513Y-100358500D01*
X144550487Y-100358500D01*
X144556939Y-100357128D01*
X144556944Y-100357128D01*
X144656604Y-100335944D01*
X144737288Y-100318794D01*
X144743319Y-100316109D01*
X144905722Y-100243803D01*
X144905724Y-100243802D01*
X144911752Y-100241118D01*
X144959744Y-100206250D01*
X145005443Y-100173047D01*
X145066253Y-100128866D01*
X145070675Y-100123955D01*
X145189621Y-99991852D01*
X145189622Y-99991851D01*
X145194040Y-99986944D01*
X145281617Y-99835256D01*
X145286223Y-99827279D01*
X145286224Y-99827278D01*
X145289527Y-99821556D01*
X145348542Y-99639928D01*
X145349798Y-99627984D01*
X145367814Y-99456565D01*
X145368504Y-99450000D01*
X145363792Y-99405165D01*
X145349232Y-99266635D01*
X145349232Y-99266633D01*
X145348542Y-99260072D01*
X145309063Y-99138570D01*
X163335425Y-99138570D01*
X163336115Y-99145135D01*
X163349746Y-99274823D01*
X163355387Y-99328498D01*
X163414402Y-99510126D01*
X163417705Y-99515848D01*
X163417706Y-99515849D01*
X163441585Y-99557209D01*
X163509889Y-99675514D01*
X163514307Y-99680421D01*
X163514308Y-99680422D01*
X163589831Y-99764299D01*
X163637676Y-99817436D01*
X163734401Y-99887711D01*
X163759845Y-99906197D01*
X163792177Y-99929688D01*
X163798205Y-99932372D01*
X163798207Y-99932373D01*
X163959231Y-100004065D01*
X163966641Y-100007364D01*
X164054528Y-100026045D01*
X164146985Y-100045698D01*
X164146990Y-100045698D01*
X164153442Y-100047070D01*
X164344416Y-100047070D01*
X164350868Y-100045698D01*
X164350873Y-100045698D01*
X164443330Y-100026045D01*
X164531217Y-100007364D01*
X164538627Y-100004065D01*
X164699651Y-99932373D01*
X164699653Y-99932372D01*
X164705681Y-99929688D01*
X164738014Y-99906197D01*
X164763457Y-99887711D01*
X164860182Y-99817436D01*
X164908027Y-99764299D01*
X164983550Y-99680422D01*
X164983551Y-99680421D01*
X164987969Y-99675514D01*
X165056273Y-99557209D01*
X165080152Y-99515849D01*
X165080153Y-99515848D01*
X165083456Y-99510126D01*
X165142471Y-99328498D01*
X165148113Y-99274823D01*
X165161743Y-99145135D01*
X165162433Y-99138570D01*
X165154017Y-99058499D01*
X165143161Y-98955205D01*
X165143161Y-98955203D01*
X165142471Y-98948642D01*
X165083456Y-98767014D01*
X164987969Y-98601626D01*
X164972001Y-98583891D01*
X164932202Y-98539690D01*
X186047037Y-98539690D01*
X186074025Y-98762715D01*
X186140082Y-98977435D01*
X186142652Y-98982415D01*
X186142654Y-98982419D01*
X186215335Y-99123235D01*
X186243118Y-99177064D01*
X186379877Y-99355292D01*
X186546036Y-99506485D01*
X186550783Y-99509463D01*
X186550786Y-99509465D01*
X186677571Y-99588996D01*
X186736344Y-99625864D01*
X186944783Y-99709656D01*
X187164767Y-99755213D01*
X187169378Y-99755479D01*
X187169379Y-99755479D01*
X187219952Y-99758395D01*
X187219956Y-99758395D01*
X187221775Y-99758500D01*
X187886999Y-99758500D01*
X187889786Y-99758251D01*
X187889792Y-99758251D01*
X187959929Y-99751991D01*
X188053762Y-99743617D01*
X188059176Y-99742136D01*
X188059181Y-99742135D01*
X188206793Y-99701752D01*
X188270451Y-99684337D01*
X188275509Y-99681925D01*
X188275513Y-99681923D01*
X188393042Y-99625864D01*
X188473218Y-99587622D01*
X188655654Y-99456529D01*
X188797217Y-99310448D01*
X188808089Y-99299229D01*
X188808091Y-99299226D01*
X188811992Y-99295201D01*
X188937290Y-99108738D01*
X189027588Y-98903033D01*
X189031381Y-98887237D01*
X189078722Y-98690046D01*
X189078722Y-98690045D01*
X189080032Y-98684589D01*
X189086902Y-98565441D01*
X189092640Y-98465917D01*
X189092640Y-98465914D01*
X189092963Y-98460310D01*
X189065975Y-98237285D01*
X188999918Y-98022565D01*
X188990985Y-98005256D01*
X188899454Y-97827919D01*
X188899454Y-97827918D01*
X188896882Y-97822936D01*
X188760123Y-97644708D01*
X188593964Y-97493515D01*
X188589217Y-97490537D01*
X188589214Y-97490535D01*
X188408405Y-97377115D01*
X188403656Y-97374136D01*
X188195217Y-97290344D01*
X187975233Y-97244787D01*
X187970622Y-97244521D01*
X187970621Y-97244521D01*
X187920048Y-97241605D01*
X187920044Y-97241605D01*
X187918225Y-97241500D01*
X187253001Y-97241500D01*
X187250214Y-97241749D01*
X187250208Y-97241749D01*
X187180071Y-97248009D01*
X187086238Y-97256383D01*
X187080824Y-97257864D01*
X187080819Y-97257865D01*
X186985690Y-97283890D01*
X186869549Y-97315663D01*
X186864491Y-97318075D01*
X186864487Y-97318077D01*
X186786073Y-97355479D01*
X186666782Y-97412378D01*
X186484346Y-97543471D01*
X186472498Y-97555697D01*
X186344434Y-97687849D01*
X186328008Y-97704799D01*
X186202710Y-97891262D01*
X186112412Y-98096967D01*
X186111103Y-98102418D01*
X186111102Y-98102422D01*
X186066086Y-98289928D01*
X186059968Y-98315411D01*
X186058193Y-98346205D01*
X186047753Y-98527278D01*
X186047037Y-98539690D01*
X164932202Y-98539690D01*
X164864604Y-98464615D01*
X164864603Y-98464614D01*
X164860182Y-98459704D01*
X164749753Y-98379472D01*
X164711023Y-98351333D01*
X164711022Y-98351332D01*
X164705681Y-98347452D01*
X164699653Y-98344768D01*
X164699651Y-98344767D01*
X164537248Y-98272461D01*
X164537247Y-98272461D01*
X164531217Y-98269776D01*
X164437816Y-98249923D01*
X164350873Y-98231442D01*
X164350868Y-98231442D01*
X164344416Y-98230070D01*
X164153442Y-98230070D01*
X164146990Y-98231442D01*
X164146985Y-98231442D01*
X164060041Y-98249923D01*
X163966641Y-98269776D01*
X163960611Y-98272461D01*
X163960610Y-98272461D01*
X163798207Y-98344767D01*
X163798205Y-98344768D01*
X163792177Y-98347452D01*
X163786836Y-98351332D01*
X163786835Y-98351333D01*
X163748105Y-98379472D01*
X163637676Y-98459704D01*
X163633255Y-98464614D01*
X163633254Y-98464615D01*
X163525858Y-98583891D01*
X163509889Y-98601626D01*
X163414402Y-98767014D01*
X163355387Y-98948642D01*
X163354697Y-98955203D01*
X163354697Y-98955205D01*
X163343841Y-99058499D01*
X163335425Y-99138570D01*
X145309063Y-99138570D01*
X145289527Y-99078444D01*
X145194040Y-98913056D01*
X145188287Y-98906666D01*
X145070675Y-98776045D01*
X145070674Y-98776044D01*
X145066253Y-98771134D01*
X144954645Y-98690046D01*
X144917094Y-98662763D01*
X144917093Y-98662762D01*
X144911752Y-98658882D01*
X144905724Y-98656198D01*
X144905722Y-98656197D01*
X144743319Y-98583891D01*
X144743318Y-98583891D01*
X144737288Y-98581206D01*
X144636120Y-98559702D01*
X144556944Y-98542872D01*
X144556939Y-98542872D01*
X144550487Y-98541500D01*
X144359513Y-98541500D01*
X144353061Y-98542872D01*
X144353056Y-98542872D01*
X144273880Y-98559702D01*
X144172712Y-98581206D01*
X144166682Y-98583891D01*
X144166681Y-98583891D01*
X144004278Y-98656197D01*
X144004276Y-98656198D01*
X143998248Y-98658882D01*
X143992907Y-98662762D01*
X143992906Y-98662763D01*
X143955355Y-98690046D01*
X143843747Y-98771134D01*
X143839326Y-98776044D01*
X143839325Y-98776045D01*
X143721714Y-98906666D01*
X143715960Y-98913056D01*
X143620473Y-99078444D01*
X143561458Y-99260072D01*
X143560768Y-99266633D01*
X143560768Y-99266635D01*
X143546208Y-99405165D01*
X143541496Y-99450000D01*
X134184972Y-99450000D01*
X134283076Y-99274823D01*
X134351516Y-99073205D01*
X134353649Y-99058499D01*
X134381537Y-98866161D01*
X134381537Y-98866159D01*
X134382069Y-98862491D01*
X134383663Y-98801600D01*
X134370303Y-98656197D01*
X134364710Y-98595330D01*
X134364709Y-98595327D01*
X134364181Y-98589576D01*
X134361820Y-98581206D01*
X134307954Y-98390211D01*
X134307953Y-98390209D01*
X134306386Y-98384652D01*
X134298629Y-98368921D01*
X134214770Y-98198873D01*
X134212215Y-98193692D01*
X134179588Y-98149999D01*
X145241496Y-98149999D01*
X145242186Y-98156564D01*
X145260375Y-98329620D01*
X145261458Y-98339927D01*
X145320473Y-98521555D01*
X145323776Y-98527277D01*
X145323777Y-98527278D01*
X145342497Y-98559702D01*
X145415960Y-98686943D01*
X145420378Y-98691850D01*
X145420379Y-98691851D01*
X145526155Y-98809327D01*
X145543747Y-98828865D01*
X145622901Y-98886374D01*
X145667496Y-98918774D01*
X145698248Y-98941117D01*
X145704276Y-98943801D01*
X145704278Y-98943802D01*
X145849593Y-99008500D01*
X145872712Y-99018793D01*
X145953584Y-99035983D01*
X146053056Y-99057127D01*
X146053061Y-99057127D01*
X146059513Y-99058499D01*
X146250487Y-99058499D01*
X146256939Y-99057127D01*
X146256944Y-99057127D01*
X146356416Y-99035983D01*
X146437288Y-99018793D01*
X146460407Y-99008500D01*
X146605722Y-98943802D01*
X146605724Y-98943801D01*
X146611752Y-98941117D01*
X146642505Y-98918774D01*
X146687099Y-98886374D01*
X146766253Y-98828865D01*
X146808865Y-98781539D01*
X146869310Y-98744301D01*
X146940294Y-98745653D01*
X146996135Y-98781539D01*
X147038747Y-98828865D01*
X147117901Y-98886374D01*
X147162496Y-98918774D01*
X147193248Y-98941117D01*
X147199276Y-98943801D01*
X147199278Y-98943802D01*
X147344593Y-99008500D01*
X147367712Y-99018793D01*
X147448584Y-99035983D01*
X147548056Y-99057127D01*
X147548061Y-99057127D01*
X147554513Y-99058499D01*
X147745487Y-99058499D01*
X147751939Y-99057127D01*
X147751944Y-99057127D01*
X147851416Y-99035983D01*
X147932288Y-99018793D01*
X147955407Y-99008500D01*
X148100722Y-98943802D01*
X148100724Y-98943801D01*
X148106752Y-98941117D01*
X148137505Y-98918774D01*
X148239671Y-98844545D01*
X148261253Y-98828865D01*
X148265668Y-98823962D01*
X148270580Y-98819539D01*
X148272158Y-98821291D01*
X148323440Y-98789708D01*
X148394424Y-98791070D01*
X148430672Y-98809327D01*
X148543248Y-98891118D01*
X148549276Y-98893802D01*
X148549278Y-98893803D01*
X148709325Y-98965060D01*
X148717712Y-98968794D01*
X148787397Y-98983606D01*
X148898056Y-99007128D01*
X148898061Y-99007128D01*
X148904513Y-99008500D01*
X149095487Y-99008500D01*
X149101939Y-99007128D01*
X149101944Y-99007128D01*
X149212603Y-98983606D01*
X149282288Y-98968794D01*
X149290675Y-98965060D01*
X149450722Y-98893803D01*
X149450724Y-98893802D01*
X149456752Y-98891118D01*
X149611253Y-98778866D01*
X149618215Y-98771134D01*
X149734621Y-98641852D01*
X149734622Y-98641851D01*
X149739040Y-98636944D01*
X149834527Y-98471556D01*
X149893542Y-98289928D01*
X149894481Y-98280999D01*
X149912814Y-98106565D01*
X149913504Y-98100000D01*
X149900655Y-97977749D01*
X149894232Y-97916635D01*
X149894232Y-97916633D01*
X149893542Y-97910072D01*
X149834527Y-97728444D01*
X149739040Y-97563056D01*
X149655069Y-97469796D01*
X149615675Y-97426045D01*
X149615674Y-97426044D01*
X149611253Y-97421134D01*
X149456752Y-97308882D01*
X149450724Y-97306198D01*
X149450722Y-97306197D01*
X149288319Y-97233891D01*
X149288318Y-97233891D01*
X149282288Y-97231206D01*
X149188888Y-97211353D01*
X149101944Y-97192872D01*
X149101939Y-97192872D01*
X149095487Y-97191500D01*
X148904513Y-97191500D01*
X148898061Y-97192872D01*
X148898056Y-97192872D01*
X148811113Y-97211353D01*
X148717712Y-97231206D01*
X148711682Y-97233891D01*
X148711681Y-97233891D01*
X148549278Y-97306197D01*
X148549276Y-97306198D01*
X148543248Y-97308882D01*
X148537907Y-97312762D01*
X148537906Y-97312763D01*
X148469089Y-97362762D01*
X148388747Y-97421134D01*
X148384332Y-97426037D01*
X148379420Y-97430460D01*
X148377842Y-97428708D01*
X148326560Y-97460291D01*
X148255576Y-97458929D01*
X148219327Y-97440672D01*
X148192436Y-97421134D01*
X148106752Y-97358881D01*
X148100724Y-97356197D01*
X148100722Y-97356196D01*
X147938319Y-97283890D01*
X147938318Y-97283890D01*
X147932288Y-97281205D01*
X147822483Y-97257865D01*
X147751944Y-97242871D01*
X147751939Y-97242871D01*
X147745487Y-97241499D01*
X147554513Y-97241499D01*
X147548061Y-97242871D01*
X147548056Y-97242871D01*
X147477517Y-97257865D01*
X147367712Y-97281205D01*
X147361682Y-97283890D01*
X147361681Y-97283890D01*
X147199278Y-97356196D01*
X147199276Y-97356197D01*
X147193248Y-97358881D01*
X147038747Y-97471133D01*
X146996135Y-97518459D01*
X146935690Y-97555697D01*
X146864706Y-97554345D01*
X146808865Y-97518459D01*
X146766253Y-97471133D01*
X146611752Y-97358881D01*
X146605724Y-97356197D01*
X146605722Y-97356196D01*
X146443319Y-97283890D01*
X146443318Y-97283890D01*
X146437288Y-97281205D01*
X146327483Y-97257865D01*
X146256944Y-97242871D01*
X146256939Y-97242871D01*
X146250487Y-97241499D01*
X146059513Y-97241499D01*
X146053061Y-97242871D01*
X146053056Y-97242871D01*
X145982517Y-97257865D01*
X145872712Y-97281205D01*
X145866682Y-97283890D01*
X145866681Y-97283890D01*
X145704278Y-97356196D01*
X145704276Y-97356197D01*
X145698248Y-97358881D01*
X145543747Y-97471133D01*
X145539329Y-97476040D01*
X145539325Y-97476044D01*
X145433295Y-97593803D01*
X145415960Y-97613055D01*
X145373817Y-97686049D01*
X145342489Y-97740311D01*
X145320473Y-97778443D01*
X145261458Y-97960071D01*
X145260768Y-97966632D01*
X145260768Y-97966634D01*
X145247588Y-98092039D01*
X145241496Y-98149999D01*
X134179588Y-98149999D01*
X134084822Y-98023091D01*
X133928471Y-97878563D01*
X133748401Y-97764947D01*
X133550641Y-97686049D01*
X133544981Y-97684923D01*
X133544977Y-97684922D01*
X133347482Y-97645638D01*
X133347480Y-97645638D01*
X133341815Y-97644511D01*
X133336040Y-97644435D01*
X133336036Y-97644435D01*
X133229361Y-97643039D01*
X133128916Y-97641724D01*
X133123219Y-97642703D01*
X133123218Y-97642703D01*
X132924764Y-97676803D01*
X132924761Y-97676804D01*
X132919074Y-97677781D01*
X132719316Y-97751475D01*
X132600712Y-97822038D01*
X132548275Y-97853235D01*
X132536334Y-97860339D01*
X132376254Y-98000725D01*
X132372683Y-98005255D01*
X132372682Y-98005256D01*
X132319671Y-98072500D01*
X132261790Y-98113613D01*
X132190870Y-98116907D01*
X132129427Y-98081335D01*
X132119763Y-98069883D01*
X132108888Y-98055319D01*
X132084822Y-98023091D01*
X131928471Y-97878563D01*
X131748401Y-97764947D01*
X131550641Y-97686049D01*
X131544981Y-97684923D01*
X131544977Y-97684922D01*
X131347482Y-97645638D01*
X131347480Y-97645638D01*
X131341815Y-97644511D01*
X131336040Y-97644435D01*
X131336036Y-97644435D01*
X131229361Y-97643039D01*
X131128916Y-97641724D01*
X131123219Y-97642703D01*
X131123218Y-97642703D01*
X130924764Y-97676803D01*
X130924761Y-97676804D01*
X130919074Y-97677781D01*
X130719316Y-97751475D01*
X130600712Y-97822038D01*
X130548275Y-97853235D01*
X130536334Y-97860339D01*
X130376254Y-98000725D01*
X130244438Y-98167933D01*
X130241749Y-98173044D01*
X130241747Y-98173047D01*
X130214453Y-98224924D01*
X130145300Y-98356362D01*
X130143586Y-98361883D01*
X130143584Y-98361887D01*
X130096916Y-98512184D01*
X130082161Y-98559702D01*
X130057136Y-98771144D01*
X130071061Y-98983606D01*
X130072482Y-98989202D01*
X130072483Y-98989207D01*
X130099072Y-99093900D01*
X130123472Y-99189972D01*
X130125889Y-99195215D01*
X130162589Y-99274823D01*
X130212611Y-99383331D01*
X130335496Y-99557209D01*
X130488009Y-99705781D01*
X130489677Y-99706895D01*
X130529336Y-99764299D01*
X130531706Y-99835256D01*
X130492771Y-99898543D01*
X130376254Y-100000725D01*
X130244438Y-100167933D01*
X130241749Y-100173044D01*
X130241747Y-100173047D01*
X130192053Y-100267500D01*
X130145300Y-100356362D01*
X130143586Y-100361883D01*
X130143584Y-100361887D01*
X130105147Y-100485674D01*
X130082161Y-100559702D01*
X130057136Y-100771144D01*
X130071061Y-100983606D01*
X130072482Y-100989202D01*
X130072483Y-100989207D01*
X130117386Y-101166008D01*
X130123472Y-101189972D01*
X130125889Y-101195215D01*
X130162589Y-101274823D01*
X130212611Y-101383331D01*
X130215944Y-101388047D01*
X130327050Y-101545259D01*
X130350031Y-101612433D01*
X130333046Y-101681368D01*
X130299718Y-101718805D01*
X130206939Y-101788339D01*
X130119585Y-101904895D01*
X130068455Y-102041284D01*
X130061700Y-102103466D01*
X130061700Y-103499734D01*
X130068455Y-103561916D01*
X130119585Y-103698305D01*
X130206939Y-103814861D01*
X130214119Y-103820242D01*
X130214120Y-103820243D01*
X130309008Y-103891358D01*
X130351523Y-103948218D01*
X130356549Y-104019036D01*
X130322489Y-104081329D01*
X130297179Y-104100739D01*
X130293451Y-104102477D01*
X130236280Y-104142509D01*
X130110411Y-104230643D01*
X130110408Y-104230645D01*
X130105900Y-104233802D01*
X129944002Y-104395700D01*
X129812677Y-104583251D01*
X129810354Y-104588233D01*
X129810351Y-104588238D01*
X129794395Y-104622457D01*
X129747478Y-104675742D01*
X129679201Y-104695203D01*
X129611241Y-104674661D01*
X129566005Y-104622457D01*
X129550049Y-104588238D01*
X129550046Y-104588233D01*
X129547723Y-104583251D01*
X129416398Y-104395700D01*
X129254500Y-104233802D01*
X129249992Y-104230645D01*
X129249989Y-104230643D01*
X129124120Y-104142509D01*
X129066949Y-104102477D01*
X129061967Y-104100154D01*
X129061962Y-104100151D01*
X128864425Y-104008039D01*
X128864424Y-104008039D01*
X128859443Y-104005716D01*
X128854135Y-104004294D01*
X128854133Y-104004293D01*
X128643602Y-103947881D01*
X128643600Y-103947881D01*
X128638287Y-103946457D01*
X128410200Y-103926502D01*
X128182113Y-103946457D01*
X128176800Y-103947881D01*
X128176798Y-103947881D01*
X127966267Y-104004293D01*
X127966265Y-104004294D01*
X127960957Y-104005716D01*
X127955976Y-104008039D01*
X127955975Y-104008039D01*
X127758438Y-104100151D01*
X127758433Y-104100154D01*
X127753451Y-104102477D01*
X127696280Y-104142509D01*
X127570411Y-104230643D01*
X127570408Y-104230645D01*
X127565900Y-104233802D01*
X127404002Y-104395700D01*
X127272677Y-104583251D01*
X127270354Y-104588233D01*
X127270351Y-104588238D01*
X127254395Y-104622457D01*
X127207478Y-104675742D01*
X127139201Y-104695203D01*
X127071241Y-104674661D01*
X127026005Y-104622457D01*
X127010049Y-104588238D01*
X127010046Y-104588233D01*
X127007723Y-104583251D01*
X126876398Y-104395700D01*
X126714500Y-104233802D01*
X126709992Y-104230645D01*
X126709989Y-104230643D01*
X126584120Y-104142509D01*
X126526949Y-104102477D01*
X126521967Y-104100154D01*
X126521962Y-104100151D01*
X126324425Y-104008039D01*
X126324424Y-104008039D01*
X126319443Y-104005716D01*
X126314135Y-104004294D01*
X126314133Y-104004293D01*
X126103602Y-103947881D01*
X126103600Y-103947881D01*
X126098287Y-103946457D01*
X125870200Y-103926502D01*
X125642113Y-103946457D01*
X125636800Y-103947881D01*
X125636798Y-103947881D01*
X125426267Y-104004293D01*
X125426265Y-104004294D01*
X125420957Y-104005716D01*
X125415976Y-104008039D01*
X125415975Y-104008039D01*
X125218438Y-104100151D01*
X125218433Y-104100154D01*
X125213451Y-104102477D01*
X125156280Y-104142509D01*
X125030411Y-104230643D01*
X125030408Y-104230645D01*
X125025900Y-104233802D01*
X124864002Y-104395700D01*
X124732677Y-104583251D01*
X124730354Y-104588233D01*
X124730351Y-104588238D01*
X124714395Y-104622457D01*
X124667478Y-104675742D01*
X124599201Y-104695203D01*
X124531241Y-104674661D01*
X124486005Y-104622457D01*
X124470049Y-104588238D01*
X124470046Y-104588233D01*
X124467723Y-104583251D01*
X124336398Y-104395700D01*
X124174500Y-104233802D01*
X124169992Y-104230645D01*
X124169989Y-104230643D01*
X124044120Y-104142509D01*
X123986949Y-104102477D01*
X123981967Y-104100154D01*
X123981962Y-104100151D01*
X123784425Y-104008039D01*
X123784424Y-104008039D01*
X123779443Y-104005716D01*
X123774135Y-104004294D01*
X123774133Y-104004293D01*
X123563602Y-103947881D01*
X123563600Y-103947881D01*
X123558287Y-103946457D01*
X123330200Y-103926502D01*
X123102113Y-103946457D01*
X123096800Y-103947881D01*
X123096798Y-103947881D01*
X122886267Y-104004293D01*
X122886265Y-104004294D01*
X122880957Y-104005716D01*
X122875976Y-104008039D01*
X122875975Y-104008039D01*
X122678438Y-104100151D01*
X122678433Y-104100154D01*
X122673451Y-104102477D01*
X122616280Y-104142509D01*
X122490411Y-104230643D01*
X122490408Y-104230645D01*
X122485900Y-104233802D01*
X122324002Y-104395700D01*
X122192677Y-104583251D01*
X122190354Y-104588233D01*
X122190351Y-104588238D01*
X122174119Y-104623049D01*
X122127202Y-104676334D01*
X122058925Y-104695795D01*
X121990965Y-104675253D01*
X121945729Y-104623049D01*
X121929614Y-104588489D01*
X121924131Y-104578994D01*
X121887691Y-104526952D01*
X121877212Y-104518576D01*
X121863766Y-104525644D01*
X120879295Y-105510115D01*
X120816983Y-105544141D01*
X120746168Y-105539076D01*
X120701105Y-105510115D01*
X119715913Y-104524923D01*
X119704138Y-104518493D01*
X119692123Y-104527789D01*
X119656269Y-104578994D01*
X119650786Y-104588489D01*
X119634671Y-104623049D01*
X119587754Y-104676334D01*
X119519477Y-104695795D01*
X119451517Y-104675253D01*
X119406281Y-104623049D01*
X119390049Y-104588238D01*
X119390046Y-104588233D01*
X119387723Y-104583251D01*
X119256398Y-104395700D01*
X119094500Y-104233802D01*
X119089992Y-104230645D01*
X119089989Y-104230643D01*
X118979086Y-104152988D01*
X120068776Y-104152988D01*
X120075844Y-104166434D01*
X120777388Y-104867978D01*
X120791332Y-104875592D01*
X120793165Y-104875461D01*
X120799780Y-104871210D01*
X121505277Y-104165713D01*
X121511707Y-104153938D01*
X121502411Y-104141923D01*
X121451206Y-104106069D01*
X121441711Y-104100586D01*
X121244253Y-104008510D01*
X121233961Y-104004764D01*
X121023512Y-103948375D01*
X121012719Y-103946472D01*
X120795675Y-103927483D01*
X120784725Y-103927483D01*
X120567681Y-103946472D01*
X120556888Y-103948375D01*
X120346439Y-104004764D01*
X120336147Y-104008510D01*
X120138689Y-104100586D01*
X120129194Y-104106069D01*
X120077152Y-104142509D01*
X120068776Y-104152988D01*
X118979086Y-104152988D01*
X118964120Y-104142509D01*
X118906949Y-104102477D01*
X118901967Y-104100154D01*
X118901962Y-104100151D01*
X118704425Y-104008039D01*
X118704424Y-104008039D01*
X118699443Y-104005716D01*
X118694135Y-104004294D01*
X118694133Y-104004293D01*
X118483602Y-103947881D01*
X118483600Y-103947881D01*
X118478287Y-103946457D01*
X118250200Y-103926502D01*
X118022113Y-103946457D01*
X118016800Y-103947881D01*
X118016798Y-103947881D01*
X117806267Y-104004293D01*
X117806265Y-104004294D01*
X117800957Y-104005716D01*
X117795976Y-104008039D01*
X117795975Y-104008039D01*
X117598438Y-104100151D01*
X117598433Y-104100154D01*
X117593451Y-104102477D01*
X117536280Y-104142509D01*
X117410411Y-104230643D01*
X117410408Y-104230645D01*
X117405900Y-104233802D01*
X117244002Y-104395700D01*
X117112677Y-104583251D01*
X117110354Y-104588233D01*
X117110351Y-104588238D01*
X117104096Y-104601653D01*
X117015916Y-104790757D01*
X117014494Y-104796065D01*
X117014493Y-104796067D01*
X116976529Y-104937749D01*
X116956657Y-105011913D01*
X116936702Y-105240000D01*
X116956657Y-105468087D01*
X116958081Y-105473400D01*
X116958081Y-105473402D01*
X116996129Y-105615396D01*
X117015916Y-105689243D01*
X117018239Y-105694224D01*
X117018239Y-105694225D01*
X117110351Y-105891762D01*
X117110354Y-105891767D01*
X117112677Y-105896749D01*
X117115834Y-105901257D01*
X117145223Y-105943229D01*
X117167911Y-106010503D01*
X117150626Y-106079363D01*
X117098857Y-106127947D01*
X117042010Y-106141500D01*
X109862724Y-106141500D01*
X109838136Y-106139077D01*
X109827822Y-106137025D01*
X109822960Y-106136821D01*
X109822954Y-106136820D01*
X109820147Y-106136702D01*
X109820140Y-106136702D01*
X109815280Y-106136498D01*
X109810442Y-106137044D01*
X109805687Y-106137212D01*
X109800656Y-106137530D01*
X109661260Y-106139402D01*
X109409450Y-106142785D01*
X109409439Y-106142786D01*
X109406731Y-106142822D01*
X109404030Y-106143092D01*
X109404020Y-106143093D01*
X109146128Y-106168916D01*
X109000202Y-106183527D01*
X108634248Y-106252450D01*
X108563603Y-106245402D01*
X108507982Y-106201278D01*
X108485046Y-106134088D01*
X108489659Y-106094425D01*
X108551269Y-105875976D01*
X108553129Y-105866834D01*
X108585116Y-105615396D01*
X108585597Y-105609108D01*
X108587847Y-105523160D01*
X108587696Y-105516851D01*
X108568912Y-105264074D01*
X108567536Y-105254868D01*
X108511929Y-105009126D01*
X108509205Y-105000215D01*
X108417888Y-104765392D01*
X108413877Y-104756983D01*
X108288854Y-104538240D01*
X108283643Y-104530514D01*
X108246391Y-104483261D01*
X108234466Y-104474790D01*
X108222934Y-104481276D01*
X105787270Y-106916940D01*
X105780612Y-106929133D01*
X105789325Y-106940653D01*
X105887018Y-107012284D01*
X105894928Y-107017227D01*
X106117890Y-107134533D01*
X106126453Y-107138256D01*
X106364303Y-107221317D01*
X106365753Y-107221706D01*
X106366206Y-107221982D01*
X106368720Y-107222860D01*
X106368532Y-107223400D01*
X106426376Y-107258657D01*
X106457398Y-107322517D01*
X106448970Y-107393012D01*
X106422709Y-107432035D01*
X106171988Y-107685426D01*
X106171981Y-107685433D01*
X106170071Y-107687364D01*
X105908830Y-108001490D01*
X105675657Y-108336979D01*
X105674299Y-108339346D01*
X105674296Y-108339350D01*
X105601390Y-108466384D01*
X105472290Y-108691330D01*
X105300246Y-109061902D01*
X105299322Y-109064446D01*
X105299319Y-109064454D01*
X105171131Y-109417498D01*
X105167917Y-109424893D01*
X105167997Y-109424926D01*
X105166128Y-109429415D01*
X105163915Y-109433751D01*
X105159998Y-109445677D01*
X105159211Y-109450468D01*
X105159209Y-109450475D01*
X105155254Y-109474547D01*
X105151260Y-109491460D01*
X104825161Y-110542227D01*
X104724579Y-110866325D01*
X104719878Y-110879019D01*
X104717939Y-110883500D01*
X104704359Y-110914883D01*
X104703250Y-110923791D01*
X104701924Y-110934437D01*
X104697187Y-110956347D01*
X104644918Y-111124114D01*
X104605558Y-111183202D01*
X104540502Y-111211630D01*
X104470403Y-111200373D01*
X104417518Y-111153005D01*
X104398638Y-111084565D01*
X104402914Y-111054024D01*
X104435198Y-110933537D01*
X104436567Y-110927099D01*
X104493055Y-110570440D01*
X104493743Y-110563896D01*
X104512641Y-110203301D01*
X104512641Y-110196699D01*
X104493743Y-109836104D01*
X104493055Y-109829560D01*
X104436567Y-109472901D01*
X104435198Y-109466463D01*
X104341740Y-109117672D01*
X104339700Y-109111395D01*
X104210296Y-108774286D01*
X104207620Y-108768275D01*
X104043683Y-108446532D01*
X104040387Y-108440823D01*
X103843721Y-108137984D01*
X103839854Y-108132662D01*
X103666322Y-107918366D01*
X103654067Y-107909900D01*
X103642976Y-107916234D01*
X101089095Y-110470115D01*
X101026783Y-110504141D01*
X100955968Y-110499076D01*
X100910905Y-110470115D01*
X98357890Y-107917100D01*
X98344814Y-107909960D01*
X98334446Y-107917418D01*
X98160146Y-108132662D01*
X98156279Y-108137984D01*
X97959613Y-108440823D01*
X97956317Y-108446532D01*
X97792380Y-108768275D01*
X97789704Y-108774286D01*
X97752131Y-108872167D01*
X97709045Y-108928595D01*
X97642292Y-108952771D01*
X97573064Y-108937020D01*
X97523342Y-108886342D01*
X97508500Y-108827012D01*
X97508500Y-107545933D01*
X98709900Y-107545933D01*
X98716234Y-107557024D01*
X100987188Y-109827978D01*
X101001132Y-109835592D01*
X101002965Y-109835461D01*
X101009580Y-109831210D01*
X103282900Y-107557890D01*
X103290040Y-107544814D01*
X103282582Y-107534446D01*
X103067338Y-107360146D01*
X103062016Y-107356279D01*
X102759177Y-107159613D01*
X102753468Y-107156317D01*
X102431725Y-106992380D01*
X102425714Y-106989704D01*
X102088605Y-106860300D01*
X102082328Y-106858260D01*
X101733537Y-106764802D01*
X101727099Y-106763433D01*
X101370440Y-106706945D01*
X101363896Y-106706257D01*
X101003301Y-106687359D01*
X100996699Y-106687359D01*
X100636104Y-106706257D01*
X100629560Y-106706945D01*
X100272901Y-106763433D01*
X100266463Y-106764802D01*
X99917672Y-106858260D01*
X99911395Y-106860300D01*
X99574286Y-106989704D01*
X99568275Y-106992380D01*
X99246532Y-107156317D01*
X99240823Y-107159613D01*
X98937984Y-107356279D01*
X98932662Y-107360146D01*
X98718366Y-107533678D01*
X98709900Y-107545933D01*
X97508500Y-107545933D01*
X97508500Y-103970000D01*
X99131693Y-103970000D01*
X99150885Y-104189371D01*
X99207880Y-104402076D01*
X99245737Y-104483261D01*
X99298618Y-104596666D01*
X99298621Y-104596671D01*
X99300944Y-104601653D01*
X99304100Y-104606160D01*
X99304101Y-104606162D01*
X99352822Y-104675742D01*
X99427251Y-104782038D01*
X99582962Y-104937749D01*
X99763346Y-105064056D01*
X99962924Y-105157120D01*
X100175629Y-105214115D01*
X100395000Y-105233307D01*
X100614371Y-105214115D01*
X100827076Y-105157120D01*
X101026654Y-105064056D01*
X101207038Y-104937749D01*
X101362749Y-104782038D01*
X101437179Y-104675742D01*
X101485899Y-104606162D01*
X101485900Y-104606160D01*
X101489056Y-104601653D01*
X101491379Y-104596671D01*
X101491382Y-104596666D01*
X101544263Y-104483261D01*
X101582120Y-104402076D01*
X101583543Y-104396764D01*
X101583547Y-104396754D01*
X101610316Y-104296853D01*
X101647267Y-104236231D01*
X101711128Y-104205209D01*
X101781623Y-104213638D01*
X101836369Y-104258842D01*
X101847915Y-104280022D01*
X101869596Y-104330852D01*
X102018985Y-104580462D01*
X102021669Y-104583813D01*
X102021671Y-104583815D01*
X102095318Y-104675742D01*
X102200867Y-104807489D01*
X102268015Y-104871210D01*
X102403958Y-105000215D01*
X102411878Y-105007731D01*
X102648113Y-105177483D01*
X102905200Y-105313603D01*
X102909223Y-105315075D01*
X102909227Y-105315077D01*
X103174351Y-105412099D01*
X103178382Y-105413574D01*
X103462604Y-105475544D01*
X103491650Y-105477830D01*
X103688297Y-105493307D01*
X103688304Y-105493307D01*
X103690753Y-105493500D01*
X103848121Y-105493500D01*
X103850257Y-105493354D01*
X103850268Y-105493354D01*
X104060949Y-105478991D01*
X104060955Y-105478990D01*
X104065226Y-105478699D01*
X104069421Y-105477830D01*
X104069423Y-105477830D01*
X104207653Y-105449204D01*
X104350081Y-105419709D01*
X104624295Y-105322605D01*
X104755533Y-105254868D01*
X104878983Y-105191151D01*
X104878989Y-105191148D01*
X104882793Y-105189184D01*
X104886301Y-105186718D01*
X104888988Y-105185091D01*
X104957617Y-105166911D01*
X105025181Y-105188720D01*
X105070228Y-105243595D01*
X105079627Y-105305490D01*
X105063143Y-105469198D01*
X105062898Y-105478523D01*
X105074987Y-105730175D01*
X105076124Y-105739435D01*
X105125274Y-105986535D01*
X105127768Y-105995528D01*
X105212900Y-106232639D01*
X105216700Y-106241174D01*
X105335946Y-106463101D01*
X105340957Y-106470968D01*
X105404446Y-106555990D01*
X105415704Y-106564439D01*
X105428123Y-106557667D01*
X107863419Y-104122371D01*
X107869803Y-104110681D01*
X107860391Y-104098570D01*
X107723593Y-104003670D01*
X107715565Y-103998942D01*
X107489593Y-103887505D01*
X107480960Y-103884017D01*
X107240998Y-103807205D01*
X107231938Y-103805029D01*
X106983260Y-103764529D01*
X106973973Y-103763717D01*
X106722053Y-103760419D01*
X106712742Y-103760989D01*
X106463097Y-103794964D01*
X106453978Y-103796902D01*
X106212098Y-103867404D01*
X106203367Y-103870667D01*
X106042546Y-103944808D01*
X105972308Y-103955163D01*
X105907622Y-103925901D01*
X105869026Y-103866312D01*
X105866588Y-103805200D01*
X105866754Y-103804616D01*
X105907742Y-103516619D01*
X105908730Y-103328002D01*
X105909243Y-103230009D01*
X105909243Y-103230003D01*
X105909265Y-103225723D01*
X105904029Y-103185947D01*
X105898001Y-103140161D01*
X111979393Y-103140161D01*
X111988687Y-103152175D01*
X112029088Y-103180464D01*
X112038584Y-103185947D01*
X112228113Y-103274326D01*
X112238405Y-103278072D01*
X112440401Y-103332196D01*
X112451196Y-103334099D01*
X112659525Y-103352326D01*
X112670475Y-103352326D01*
X112878804Y-103334099D01*
X112889599Y-103332196D01*
X113091595Y-103278072D01*
X113101887Y-103274326D01*
X113291416Y-103185947D01*
X113300912Y-103180464D01*
X113342148Y-103151590D01*
X113350523Y-103141112D01*
X113343457Y-103127668D01*
X112677811Y-102462021D01*
X112663868Y-102454408D01*
X112662034Y-102454539D01*
X112655420Y-102458790D01*
X111985820Y-103128391D01*
X111979393Y-103140161D01*
X105898001Y-103140161D01*
X105877277Y-102982749D01*
X105871295Y-102937313D01*
X105794535Y-102656724D01*
X105723768Y-102490814D01*
X105682090Y-102393100D01*
X105682088Y-102393096D01*
X105680404Y-102389148D01*
X105531015Y-102139538D01*
X105516337Y-102121216D01*
X105495715Y-102095475D01*
X111402674Y-102095475D01*
X111420901Y-102303804D01*
X111422804Y-102314599D01*
X111476928Y-102516595D01*
X111480674Y-102526887D01*
X111569054Y-102716417D01*
X111574534Y-102725907D01*
X111603411Y-102767149D01*
X111613887Y-102775523D01*
X111627334Y-102768455D01*
X112292979Y-102102811D01*
X112299356Y-102091132D01*
X113029408Y-102091132D01*
X113029539Y-102092966D01*
X113033790Y-102099580D01*
X113703391Y-102769180D01*
X113715161Y-102775607D01*
X113727176Y-102766311D01*
X113755466Y-102725907D01*
X113760946Y-102716417D01*
X113849326Y-102526887D01*
X113853072Y-102516595D01*
X113907196Y-102314599D01*
X113909099Y-102303804D01*
X113909432Y-102300000D01*
X126086496Y-102300000D01*
X126087186Y-102306565D01*
X126102739Y-102454539D01*
X126106458Y-102489928D01*
X126165473Y-102671556D01*
X126168776Y-102677278D01*
X126168777Y-102677279D01*
X126191374Y-102716417D01*
X126260960Y-102836944D01*
X126265378Y-102841851D01*
X126265379Y-102841852D01*
X126355165Y-102941569D01*
X126388747Y-102978866D01*
X126543248Y-103091118D01*
X126549276Y-103093802D01*
X126549278Y-103093803D01*
X126703526Y-103162478D01*
X126717712Y-103168794D01*
X126798410Y-103185947D01*
X126898056Y-103207128D01*
X126898061Y-103207128D01*
X126904513Y-103208500D01*
X127095487Y-103208500D01*
X127101939Y-103207128D01*
X127101944Y-103207128D01*
X127201590Y-103185947D01*
X127282288Y-103168794D01*
X127296474Y-103162478D01*
X127450722Y-103093803D01*
X127450724Y-103093802D01*
X127456752Y-103091118D01*
X127611253Y-102978866D01*
X127644835Y-102941569D01*
X127734621Y-102841852D01*
X127734622Y-102841851D01*
X127739040Y-102836944D01*
X127808626Y-102716417D01*
X127831223Y-102677279D01*
X127831224Y-102677278D01*
X127834527Y-102671556D01*
X127893542Y-102489928D01*
X127897262Y-102454539D01*
X127912814Y-102306565D01*
X127913504Y-102300000D01*
X127902331Y-102193692D01*
X127894232Y-102116635D01*
X127894232Y-102116633D01*
X127893542Y-102110072D01*
X127834527Y-101928444D01*
X127827563Y-101916381D01*
X127761023Y-101801132D01*
X127739040Y-101763056D01*
X127734065Y-101757530D01*
X127615675Y-101626045D01*
X127615674Y-101626044D01*
X127611253Y-101621134D01*
X127503046Y-101542517D01*
X127462094Y-101512763D01*
X127462093Y-101512762D01*
X127456752Y-101508882D01*
X127450724Y-101506198D01*
X127450722Y-101506197D01*
X127288319Y-101433891D01*
X127288318Y-101433891D01*
X127282288Y-101431206D01*
X127179516Y-101409361D01*
X127101944Y-101392872D01*
X127101939Y-101392872D01*
X127095487Y-101391500D01*
X126904513Y-101391500D01*
X126898061Y-101392872D01*
X126898056Y-101392872D01*
X126820484Y-101409361D01*
X126717712Y-101431206D01*
X126711682Y-101433891D01*
X126711681Y-101433891D01*
X126549278Y-101506197D01*
X126549276Y-101506198D01*
X126543248Y-101508882D01*
X126537907Y-101512762D01*
X126537906Y-101512763D01*
X126496954Y-101542517D01*
X126388747Y-101621134D01*
X126384326Y-101626044D01*
X126384325Y-101626045D01*
X126265936Y-101757530D01*
X126260960Y-101763056D01*
X126238977Y-101801132D01*
X126172438Y-101916381D01*
X126165473Y-101928444D01*
X126106458Y-102110072D01*
X126105768Y-102116633D01*
X126105768Y-102116635D01*
X126097669Y-102193692D01*
X126086496Y-102300000D01*
X113909432Y-102300000D01*
X113927326Y-102095475D01*
X113927326Y-102084525D01*
X113909099Y-101876196D01*
X113907196Y-101865401D01*
X113853072Y-101663405D01*
X113849326Y-101653113D01*
X113760946Y-101463583D01*
X113755466Y-101454093D01*
X113726589Y-101412851D01*
X113716113Y-101404477D01*
X113702666Y-101411545D01*
X113037021Y-102077189D01*
X113029408Y-102091132D01*
X112299356Y-102091132D01*
X112300592Y-102088868D01*
X112300461Y-102087034D01*
X112296210Y-102080420D01*
X111626609Y-101410820D01*
X111614839Y-101404393D01*
X111602824Y-101413689D01*
X111574534Y-101454093D01*
X111569054Y-101463583D01*
X111480674Y-101653113D01*
X111476928Y-101663405D01*
X111422804Y-101865401D01*
X111420901Y-101876196D01*
X111402674Y-102084525D01*
X111402674Y-102095475D01*
X105495715Y-102095475D01*
X105364921Y-101932218D01*
X105349133Y-101912511D01*
X105182097Y-101754000D01*
X105141231Y-101715219D01*
X105141228Y-101715217D01*
X105138122Y-101712269D01*
X104901887Y-101542517D01*
X104790918Y-101483762D01*
X104648587Y-101408402D01*
X104648586Y-101408401D01*
X104644800Y-101406397D01*
X104640777Y-101404925D01*
X104640773Y-101404923D01*
X104375649Y-101307901D01*
X104375647Y-101307900D01*
X104371618Y-101306426D01*
X104087396Y-101244456D01*
X104043598Y-101241009D01*
X103861703Y-101226693D01*
X103861696Y-101226693D01*
X103859247Y-101226500D01*
X103701879Y-101226500D01*
X103699743Y-101226646D01*
X103699732Y-101226646D01*
X103489051Y-101241009D01*
X103489045Y-101241010D01*
X103484774Y-101241301D01*
X103480579Y-101242170D01*
X103480577Y-101242170D01*
X103408671Y-101257061D01*
X103199919Y-101300291D01*
X102925705Y-101397395D01*
X102921896Y-101399361D01*
X102710593Y-101508423D01*
X102667207Y-101530816D01*
X102663706Y-101533277D01*
X102663702Y-101533279D01*
X102580426Y-101591807D01*
X102429208Y-101698085D01*
X102426067Y-101701004D01*
X102230767Y-101882488D01*
X102216112Y-101896106D01*
X102213398Y-101899422D01*
X102213395Y-101899425D01*
X102184499Y-101934729D01*
X102031861Y-102121216D01*
X101879867Y-102369248D01*
X101878148Y-102373165D01*
X101878146Y-102373168D01*
X101842427Y-102454539D01*
X101762941Y-102635614D01*
X101761765Y-102639742D01*
X101761764Y-102639745D01*
X101742583Y-102707080D01*
X101683246Y-102915384D01*
X101682642Y-102919626D01*
X101682641Y-102919632D01*
X101645370Y-103181515D01*
X101615969Y-103246137D01*
X101556298Y-103284606D01*
X101485301Y-103284708D01*
X101425520Y-103246409D01*
X101417414Y-103236031D01*
X101365912Y-103162478D01*
X101365907Y-103162472D01*
X101362749Y-103157962D01*
X101207038Y-103002251D01*
X101179187Y-102982749D01*
X101108382Y-102933171D01*
X101026654Y-102875944D01*
X100827076Y-102782880D01*
X100614371Y-102725885D01*
X100395000Y-102706693D01*
X100175629Y-102725885D01*
X99962924Y-102782880D01*
X99869562Y-102826415D01*
X99768334Y-102873618D01*
X99768329Y-102873621D01*
X99763347Y-102875944D01*
X99758840Y-102879100D01*
X99758838Y-102879101D01*
X99587473Y-102999092D01*
X99587470Y-102999094D01*
X99582962Y-103002251D01*
X99427251Y-103157962D01*
X99424094Y-103162470D01*
X99424092Y-103162473D01*
X99306518Y-103330386D01*
X99300944Y-103338347D01*
X99298621Y-103343329D01*
X99298618Y-103343334D01*
X99290685Y-103360347D01*
X99207880Y-103537924D01*
X99150885Y-103750629D01*
X99131693Y-103970000D01*
X97508500Y-103970000D01*
X97508500Y-102326776D01*
X97528502Y-102258655D01*
X97582158Y-102212162D01*
X97652432Y-102202058D01*
X97717012Y-102231552D01*
X97727047Y-102241747D01*
X97727251Y-102242038D01*
X97882962Y-102397749D01*
X97887471Y-102400906D01*
X97887473Y-102400908D01*
X97915121Y-102420267D01*
X98063346Y-102524056D01*
X98262924Y-102617120D01*
X98475629Y-102674115D01*
X98695000Y-102693307D01*
X98914371Y-102674115D01*
X99127076Y-102617120D01*
X99326654Y-102524056D01*
X99474879Y-102420267D01*
X99502527Y-102400908D01*
X99502529Y-102400906D01*
X99507038Y-102397749D01*
X99662749Y-102242038D01*
X99670092Y-102231552D01*
X99785899Y-102066162D01*
X99785900Y-102066160D01*
X99789056Y-102061653D01*
X99791379Y-102056671D01*
X99791382Y-102056666D01*
X99857881Y-101914056D01*
X99882120Y-101862076D01*
X99939115Y-101649371D01*
X99958307Y-101430000D01*
X99939115Y-101210629D01*
X99882120Y-100997924D01*
X99830323Y-100886844D01*
X99799153Y-100820000D01*
X108861693Y-100820000D01*
X108880885Y-101039371D01*
X108937880Y-101252076D01*
X108956615Y-101292253D01*
X109028618Y-101446666D01*
X109028621Y-101446671D01*
X109030944Y-101451653D01*
X109034100Y-101456160D01*
X109034101Y-101456162D01*
X109153055Y-101626045D01*
X109157251Y-101632038D01*
X109312962Y-101787749D01*
X109317471Y-101790906D01*
X109317473Y-101790908D01*
X109385219Y-101838344D01*
X109493346Y-101914056D01*
X109692924Y-102007120D01*
X109905629Y-102064115D01*
X110125000Y-102083307D01*
X110344371Y-102064115D01*
X110557076Y-102007120D01*
X110756654Y-101914056D01*
X110864781Y-101838344D01*
X110932527Y-101790908D01*
X110932529Y-101790906D01*
X110937038Y-101787749D01*
X111092749Y-101632038D01*
X111096946Y-101626045D01*
X111215899Y-101456162D01*
X111215900Y-101456160D01*
X111219056Y-101451653D01*
X111221379Y-101446671D01*
X111221382Y-101446666D01*
X111293385Y-101292253D01*
X111312120Y-101252076D01*
X111369115Y-101039371D01*
X111388307Y-100820000D01*
X111369115Y-100600629D01*
X111312120Y-100387924D01*
X111252522Y-100260115D01*
X111221382Y-100193334D01*
X111221379Y-100193329D01*
X111219056Y-100188347D01*
X111198841Y-100159477D01*
X111095908Y-100012473D01*
X111095906Y-100012470D01*
X111092749Y-100007962D01*
X110937038Y-99852251D01*
X110910818Y-99833891D01*
X110857759Y-99796739D01*
X110756654Y-99725944D01*
X110751672Y-99723621D01*
X110751667Y-99723618D01*
X110624232Y-99664195D01*
X110570947Y-99617278D01*
X110551486Y-99549001D01*
X110572028Y-99481041D01*
X110624232Y-99435805D01*
X110751667Y-99376382D01*
X110751672Y-99376379D01*
X110756654Y-99374056D01*
X110869270Y-99295201D01*
X110932527Y-99250908D01*
X110932529Y-99250906D01*
X110937038Y-99247749D01*
X111092749Y-99092038D01*
X111107094Y-99071552D01*
X111215899Y-98916162D01*
X111215900Y-98916160D01*
X111219056Y-98911653D01*
X111221379Y-98906671D01*
X111221382Y-98906666D01*
X111279165Y-98782749D01*
X111312120Y-98712076D01*
X111369115Y-98499371D01*
X111388307Y-98280000D01*
X111369115Y-98060629D01*
X111312120Y-97847924D01*
X111260433Y-97737080D01*
X111221382Y-97653334D01*
X111221379Y-97653329D01*
X111219056Y-97648347D01*
X111204605Y-97627708D01*
X111095908Y-97472473D01*
X111095906Y-97472470D01*
X111092749Y-97467962D01*
X110937038Y-97312251D01*
X110928393Y-97306197D01*
X110766548Y-97192872D01*
X110756654Y-97185944D01*
X110751672Y-97183621D01*
X110751667Y-97183618D01*
X110624232Y-97124195D01*
X110570947Y-97077278D01*
X110551486Y-97009001D01*
X110572028Y-96941041D01*
X110624232Y-96895805D01*
X110751667Y-96836382D01*
X110751672Y-96836379D01*
X110756654Y-96834056D01*
X110857759Y-96763261D01*
X110932527Y-96710908D01*
X110932529Y-96710906D01*
X110937038Y-96707749D01*
X111092749Y-96552038D01*
X111106270Y-96532729D01*
X111215899Y-96376162D01*
X111215900Y-96376160D01*
X111219056Y-96371653D01*
X111221379Y-96366671D01*
X111221382Y-96366666D01*
X111269695Y-96263056D01*
X111312120Y-96172076D01*
X111369115Y-95959371D01*
X111388307Y-95740000D01*
X111369115Y-95520629D01*
X111312120Y-95307924D01*
X111267635Y-95212525D01*
X111221382Y-95113334D01*
X111221379Y-95113329D01*
X111219056Y-95108347D01*
X111215899Y-95103838D01*
X111095908Y-94932473D01*
X111095906Y-94932470D01*
X111092749Y-94927962D01*
X110937038Y-94772251D01*
X110883519Y-94734776D01*
X110840707Y-94704799D01*
X110777496Y-94660538D01*
X110733169Y-94605082D01*
X110725860Y-94534463D01*
X110757891Y-94471102D01*
X110809892Y-94437802D01*
X110941720Y-94393821D01*
X110948659Y-94391506D01*
X111099161Y-94298373D01*
X111202307Y-94195046D01*
X111264587Y-94160968D01*
X111335407Y-94165971D01*
X111392280Y-94208468D01*
X111417149Y-94274966D01*
X111416999Y-94295046D01*
X111415789Y-94308882D01*
X111401693Y-94470000D01*
X111420885Y-94689371D01*
X111477880Y-94902076D01*
X111502119Y-94954056D01*
X111568618Y-95096666D01*
X111568621Y-95096671D01*
X111570944Y-95101653D01*
X111574100Y-95106160D01*
X111574101Y-95106162D01*
X111665915Y-95237285D01*
X111697251Y-95282038D01*
X111852962Y-95437749D01*
X111857471Y-95440906D01*
X111857473Y-95440908D01*
X111885182Y-95460310D01*
X112033346Y-95564056D01*
X112038328Y-95566379D01*
X112038333Y-95566382D01*
X112165768Y-95625805D01*
X112219053Y-95672722D01*
X112238514Y-95740999D01*
X112217972Y-95808959D01*
X112165768Y-95854195D01*
X112038334Y-95913618D01*
X112038329Y-95913621D01*
X112033347Y-95915944D01*
X112028840Y-95919100D01*
X112028838Y-95919101D01*
X111857473Y-96039092D01*
X111857470Y-96039094D01*
X111852962Y-96042251D01*
X111697251Y-96197962D01*
X111694094Y-96202470D01*
X111694092Y-96202473D01*
X111574101Y-96373838D01*
X111570944Y-96378347D01*
X111568621Y-96383329D01*
X111568618Y-96383334D01*
X111521415Y-96484562D01*
X111477880Y-96577924D01*
X111420885Y-96790629D01*
X111401693Y-97010000D01*
X111420885Y-97229371D01*
X111477880Y-97442076D01*
X111503626Y-97497288D01*
X111568618Y-97636666D01*
X111568621Y-97636671D01*
X111570944Y-97641653D01*
X111574100Y-97646160D01*
X111574101Y-97646162D01*
X111687937Y-97808736D01*
X111697251Y-97822038D01*
X111852962Y-97977749D01*
X112033346Y-98104056D01*
X112038328Y-98106379D01*
X112038333Y-98106382D01*
X112165768Y-98165805D01*
X112219053Y-98212722D01*
X112238514Y-98280999D01*
X112217972Y-98348959D01*
X112165768Y-98394195D01*
X112038334Y-98453618D01*
X112038329Y-98453621D01*
X112033347Y-98455944D01*
X112028840Y-98459100D01*
X112028838Y-98459101D01*
X111857473Y-98579092D01*
X111857470Y-98579094D01*
X111852962Y-98582251D01*
X111697251Y-98737962D01*
X111694094Y-98742470D01*
X111694092Y-98742473D01*
X111584405Y-98899123D01*
X111570944Y-98918347D01*
X111568621Y-98923329D01*
X111568618Y-98923334D01*
X111529545Y-99007128D01*
X111477880Y-99117924D01*
X111420885Y-99330629D01*
X111401693Y-99550000D01*
X111420885Y-99769371D01*
X111477880Y-99982076D01*
X111503336Y-100036667D01*
X111568618Y-100176666D01*
X111568621Y-100176671D01*
X111570944Y-100181653D01*
X111574100Y-100186160D01*
X111574101Y-100186162D01*
X111693795Y-100357102D01*
X111697251Y-100362038D01*
X111852962Y-100517749D01*
X111857471Y-100520906D01*
X111857473Y-100520908D01*
X111903492Y-100553131D01*
X112033346Y-100644056D01*
X112038328Y-100646379D01*
X112038333Y-100646382D01*
X112166359Y-100706081D01*
X112219644Y-100752998D01*
X112239105Y-100821276D01*
X112218563Y-100889236D01*
X112166359Y-100934471D01*
X112038583Y-100994054D01*
X112029093Y-100999534D01*
X111987851Y-101028411D01*
X111979477Y-101038887D01*
X111986545Y-101052334D01*
X112652189Y-101717979D01*
X112666132Y-101725592D01*
X112667966Y-101725461D01*
X112674580Y-101721210D01*
X113344180Y-101051609D01*
X113350607Y-101039839D01*
X113341313Y-101027825D01*
X113300912Y-100999536D01*
X113291416Y-100994053D01*
X113163641Y-100934471D01*
X113110356Y-100887554D01*
X113090895Y-100819276D01*
X113111437Y-100751316D01*
X113163641Y-100706081D01*
X113291667Y-100646382D01*
X113291672Y-100646379D01*
X113296654Y-100644056D01*
X113426508Y-100553131D01*
X113472527Y-100520908D01*
X113472529Y-100520906D01*
X113477038Y-100517749D01*
X113632749Y-100362038D01*
X113636206Y-100357102D01*
X113723125Y-100232969D01*
X119767095Y-100232969D01*
X119767392Y-100238122D01*
X119767392Y-100238125D01*
X119778212Y-100425778D01*
X119780427Y-100464197D01*
X119781564Y-100469243D01*
X119781565Y-100469249D01*
X119807449Y-100584103D01*
X119831346Y-100690142D01*
X119833288Y-100694924D01*
X119833289Y-100694928D01*
X119915020Y-100896206D01*
X119918484Y-100904737D01*
X120039501Y-101102219D01*
X120191147Y-101277284D01*
X120369349Y-101425230D01*
X120569322Y-101542084D01*
X120574147Y-101543926D01*
X120574148Y-101543927D01*
X120577636Y-101545259D01*
X120785694Y-101624709D01*
X120790760Y-101625740D01*
X120790761Y-101625740D01*
X120821717Y-101632038D01*
X121012656Y-101670885D01*
X121143324Y-101675676D01*
X121238949Y-101679183D01*
X121238953Y-101679183D01*
X121244113Y-101679372D01*
X121249233Y-101678716D01*
X121249235Y-101678716D01*
X121368753Y-101663405D01*
X121473847Y-101649942D01*
X121478795Y-101648457D01*
X121478802Y-101648456D01*
X121690747Y-101584869D01*
X121695690Y-101583386D01*
X121700324Y-101581116D01*
X121899049Y-101483762D01*
X121899052Y-101483760D01*
X121903684Y-101481491D01*
X122092243Y-101346994D01*
X122256303Y-101183505D01*
X122391458Y-100995417D01*
X122397296Y-100983606D01*
X122491784Y-100792422D01*
X122491785Y-100792420D01*
X122494078Y-100787780D01*
X122520748Y-100700000D01*
X124486496Y-100700000D01*
X124487186Y-100706565D01*
X124504012Y-100866652D01*
X124506458Y-100889928D01*
X124565473Y-101071556D01*
X124568776Y-101077278D01*
X124568777Y-101077279D01*
X124580635Y-101097818D01*
X124660960Y-101236944D01*
X124665378Y-101241851D01*
X124665379Y-101241852D01*
X124700255Y-101280586D01*
X124788747Y-101378866D01*
X124855244Y-101427179D01*
X124929998Y-101481491D01*
X124943248Y-101491118D01*
X124949276Y-101493802D01*
X124949278Y-101493803D01*
X125111681Y-101566109D01*
X125117712Y-101568794D01*
X125186362Y-101583386D01*
X125298056Y-101607128D01*
X125298061Y-101607128D01*
X125304513Y-101608500D01*
X125495487Y-101608500D01*
X125501939Y-101607128D01*
X125501944Y-101607128D01*
X125613638Y-101583386D01*
X125682288Y-101568794D01*
X125688319Y-101566109D01*
X125850722Y-101493803D01*
X125850724Y-101493802D01*
X125856752Y-101491118D01*
X125870003Y-101481491D01*
X125944756Y-101427179D01*
X126011253Y-101378866D01*
X126099745Y-101280586D01*
X126134621Y-101241852D01*
X126134622Y-101241851D01*
X126139040Y-101236944D01*
X126219365Y-101097818D01*
X126231223Y-101077279D01*
X126231224Y-101077278D01*
X126234527Y-101071556D01*
X126293542Y-100889928D01*
X126295989Y-100866652D01*
X126312814Y-100706565D01*
X126313504Y-100700000D01*
X126311938Y-100685100D01*
X126294232Y-100516635D01*
X126294232Y-100516633D01*
X126293542Y-100510072D01*
X126234527Y-100328444D01*
X126227406Y-100316109D01*
X126185583Y-100243671D01*
X126139040Y-100163056D01*
X126111752Y-100132749D01*
X126015675Y-100026045D01*
X126015674Y-100026044D01*
X126011253Y-100021134D01*
X125889832Y-99932916D01*
X125862094Y-99912763D01*
X125862093Y-99912762D01*
X125856752Y-99908882D01*
X125850724Y-99906198D01*
X125850722Y-99906197D01*
X125688319Y-99833891D01*
X125688318Y-99833891D01*
X125682288Y-99831206D01*
X125569806Y-99807297D01*
X125501944Y-99792872D01*
X125501939Y-99792872D01*
X125495487Y-99791500D01*
X125304513Y-99791500D01*
X125298061Y-99792872D01*
X125298056Y-99792872D01*
X125230194Y-99807297D01*
X125117712Y-99831206D01*
X125111682Y-99833891D01*
X125111681Y-99833891D01*
X124949278Y-99906197D01*
X124949276Y-99906198D01*
X124943248Y-99908882D01*
X124937907Y-99912762D01*
X124937906Y-99912763D01*
X124910168Y-99932916D01*
X124788747Y-100021134D01*
X124784326Y-100026044D01*
X124784325Y-100026045D01*
X124688249Y-100132749D01*
X124660960Y-100163056D01*
X124614417Y-100243671D01*
X124572595Y-100316109D01*
X124565473Y-100328444D01*
X124506458Y-100510072D01*
X124505768Y-100516633D01*
X124505768Y-100516635D01*
X124488062Y-100685100D01*
X124486496Y-100700000D01*
X122520748Y-100700000D01*
X122561408Y-100566171D01*
X122591640Y-100336541D01*
X122593327Y-100267500D01*
X122584337Y-100158148D01*
X122574773Y-100041818D01*
X122574772Y-100041812D01*
X122574349Y-100036667D01*
X122528027Y-99852251D01*
X122519184Y-99817044D01*
X122519183Y-99817040D01*
X122517925Y-99812033D01*
X122515866Y-99807297D01*
X122427630Y-99604368D01*
X122427628Y-99604365D01*
X122425570Y-99599631D01*
X122299764Y-99405165D01*
X122268585Y-99370899D01*
X122231942Y-99330629D01*
X122143887Y-99233858D01*
X122139836Y-99230659D01*
X122139832Y-99230655D01*
X121966669Y-99093900D01*
X121925606Y-99035983D01*
X121922374Y-98965060D01*
X121957999Y-98903648D01*
X121963487Y-98899123D01*
X121973497Y-98886374D01*
X121966510Y-98873221D01*
X121192811Y-98099521D01*
X121178868Y-98091908D01*
X121177034Y-98092039D01*
X121170420Y-98096290D01*
X120390180Y-98876531D01*
X120383423Y-98888906D01*
X120402730Y-98914697D01*
X120402040Y-98915213D01*
X120426627Y-98941237D01*
X120439743Y-99011011D01*
X120413055Y-99076800D01*
X120390023Y-99099219D01*
X120262169Y-99195215D01*
X120241655Y-99210617D01*
X120081639Y-99378064D01*
X120078725Y-99382336D01*
X120078724Y-99382337D01*
X120030864Y-99452497D01*
X119951119Y-99569399D01*
X119853602Y-99779481D01*
X119791707Y-100002669D01*
X119767095Y-100232969D01*
X113723125Y-100232969D01*
X113755899Y-100186162D01*
X113755900Y-100186160D01*
X113759056Y-100181653D01*
X113761379Y-100176671D01*
X113761382Y-100176666D01*
X113826664Y-100036667D01*
X113852120Y-99982076D01*
X113909115Y-99769371D01*
X113928307Y-99550000D01*
X113909115Y-99330629D01*
X113852120Y-99117924D01*
X113800455Y-99007128D01*
X113761382Y-98923334D01*
X113761379Y-98923329D01*
X113759056Y-98918347D01*
X113745595Y-98899123D01*
X113635908Y-98742473D01*
X113635906Y-98742470D01*
X113632749Y-98737962D01*
X113477038Y-98582251D01*
X113436948Y-98554179D01*
X113378539Y-98513281D01*
X113296654Y-98455944D01*
X113291672Y-98453621D01*
X113291667Y-98453618D01*
X113164232Y-98394195D01*
X113110947Y-98347278D01*
X113091486Y-98279001D01*
X113112028Y-98211041D01*
X113164232Y-98165805D01*
X113291667Y-98106382D01*
X113291672Y-98106379D01*
X113296654Y-98104056D01*
X113477038Y-97977749D01*
X113632749Y-97822038D01*
X113642064Y-97808736D01*
X113719505Y-97698138D01*
X119767893Y-97698138D01*
X119780627Y-97918968D01*
X119782061Y-97929170D01*
X119830685Y-98144939D01*
X119833773Y-98154792D01*
X119916986Y-98359720D01*
X119921634Y-98368921D01*
X120010097Y-98513281D01*
X120020553Y-98522742D01*
X120029331Y-98518958D01*
X120807979Y-97740311D01*
X120814356Y-97728632D01*
X121544408Y-97728632D01*
X121544539Y-97730466D01*
X121548790Y-97737080D01*
X122326307Y-98514596D01*
X122338313Y-98521152D01*
X122350052Y-98512184D01*
X122388010Y-98459359D01*
X122393321Y-98450520D01*
X122491318Y-98252237D01*
X122495117Y-98242642D01*
X122559415Y-98031017D01*
X122561594Y-98020936D01*
X122590702Y-97799838D01*
X122591221Y-97793163D01*
X122592744Y-97730864D01*
X122592550Y-97724146D01*
X122574279Y-97501900D01*
X122572596Y-97491738D01*
X122518710Y-97277208D01*
X122515389Y-97267453D01*
X122427193Y-97064618D01*
X122422315Y-97055520D01*
X122349224Y-96942538D01*
X122338538Y-96933335D01*
X122328973Y-96937738D01*
X121552021Y-97714689D01*
X121544408Y-97728632D01*
X120814356Y-97728632D01*
X120815592Y-97726368D01*
X120815461Y-97724534D01*
X120811210Y-97717920D01*
X120033862Y-96940573D01*
X120022330Y-96934276D01*
X120010048Y-96943899D01*
X119954467Y-97025377D01*
X119949379Y-97034333D01*
X119856252Y-97234959D01*
X119852689Y-97244646D01*
X119793581Y-97457780D01*
X119791650Y-97467900D01*
X119768145Y-97687849D01*
X119767893Y-97698138D01*
X113719505Y-97698138D01*
X113755899Y-97646162D01*
X113755900Y-97646160D01*
X113759056Y-97641653D01*
X113761379Y-97636671D01*
X113761382Y-97636666D01*
X113826374Y-97497288D01*
X113852120Y-97442076D01*
X113909115Y-97229371D01*
X113928307Y-97010000D01*
X113909115Y-96790629D01*
X113852120Y-96577924D01*
X113808585Y-96484562D01*
X113761382Y-96383334D01*
X113761379Y-96383329D01*
X113759056Y-96378347D01*
X113755899Y-96373838D01*
X113635908Y-96202473D01*
X113635906Y-96202470D01*
X113632749Y-96197962D01*
X113570421Y-96135634D01*
X119771500Y-96135634D01*
X119778255Y-96197816D01*
X119829385Y-96334205D01*
X119916739Y-96450761D01*
X120033295Y-96538115D01*
X120169684Y-96589245D01*
X120231866Y-96596000D01*
X120355520Y-96596000D01*
X120423641Y-96616002D01*
X120444616Y-96632905D01*
X121167189Y-97355479D01*
X121181132Y-97363092D01*
X121182966Y-97362961D01*
X121189580Y-97358710D01*
X121748289Y-96800000D01*
X151386496Y-96800000D01*
X151387186Y-96806565D01*
X151401497Y-96942722D01*
X151406458Y-96989928D01*
X151465473Y-97171556D01*
X151468776Y-97177278D01*
X151468777Y-97177279D01*
X151476988Y-97191500D01*
X151560960Y-97336944D01*
X151565378Y-97341851D01*
X151565379Y-97341852D01*
X151645162Y-97430460D01*
X151688747Y-97478866D01*
X151773159Y-97540195D01*
X151792635Y-97554345D01*
X151843248Y-97591118D01*
X151849276Y-97593802D01*
X151849278Y-97593803D01*
X151966879Y-97646162D01*
X152017712Y-97668794D01*
X152093588Y-97684922D01*
X152198056Y-97707128D01*
X152198061Y-97707128D01*
X152204513Y-97708500D01*
X152395487Y-97708500D01*
X152401939Y-97707128D01*
X152401944Y-97707128D01*
X152506412Y-97684922D01*
X152582288Y-97668794D01*
X152633121Y-97646162D01*
X152750722Y-97593803D01*
X152750724Y-97593802D01*
X152756752Y-97591118D01*
X152807366Y-97554345D01*
X152826841Y-97540195D01*
X152911253Y-97478866D01*
X152954838Y-97430460D01*
X153034621Y-97341852D01*
X153034622Y-97341851D01*
X153039040Y-97336944D01*
X153123012Y-97191500D01*
X153131223Y-97177279D01*
X153131224Y-97177278D01*
X153134527Y-97171556D01*
X153193542Y-96989928D01*
X153198504Y-96942722D01*
X153198940Y-96938570D01*
X157735425Y-96938570D01*
X157736115Y-96945135D01*
X157750004Y-97077278D01*
X157755387Y-97128498D01*
X157814402Y-97310126D01*
X157817705Y-97315848D01*
X157817706Y-97315849D01*
X157826584Y-97331226D01*
X157909889Y-97475514D01*
X157914307Y-97480421D01*
X157914308Y-97480422D01*
X158010485Y-97587237D01*
X158037676Y-97617436D01*
X158192177Y-97729688D01*
X158198205Y-97732372D01*
X158198207Y-97732373D01*
X158349737Y-97799838D01*
X158366641Y-97807364D01*
X158454010Y-97825935D01*
X158546985Y-97845698D01*
X158546990Y-97845698D01*
X158553442Y-97847070D01*
X158744416Y-97847070D01*
X158750868Y-97845698D01*
X158750873Y-97845698D01*
X158843848Y-97825935D01*
X158931217Y-97807364D01*
X158948121Y-97799838D01*
X159099651Y-97732373D01*
X159099653Y-97732372D01*
X159105681Y-97729688D01*
X159260182Y-97617436D01*
X159287373Y-97587237D01*
X159383550Y-97480422D01*
X159383551Y-97480421D01*
X159387969Y-97475514D01*
X159471274Y-97331226D01*
X159480152Y-97315849D01*
X159480153Y-97315848D01*
X159483456Y-97310126D01*
X159542471Y-97128498D01*
X159547855Y-97077278D01*
X159561743Y-96945135D01*
X159562433Y-96938570D01*
X159551448Y-96834056D01*
X159543161Y-96755205D01*
X159543161Y-96755203D01*
X159542471Y-96748642D01*
X159483456Y-96567014D01*
X159448510Y-96506485D01*
X159391270Y-96407344D01*
X159387969Y-96401626D01*
X159372877Y-96384864D01*
X159264604Y-96264615D01*
X159264603Y-96264614D01*
X159260182Y-96259704D01*
X159105681Y-96147452D01*
X159099653Y-96144768D01*
X159099651Y-96144767D01*
X158937248Y-96072461D01*
X158937247Y-96072461D01*
X158931217Y-96069776D01*
X158820057Y-96046148D01*
X158750873Y-96031442D01*
X158750868Y-96031442D01*
X158744416Y-96030070D01*
X158553442Y-96030070D01*
X158546990Y-96031442D01*
X158546985Y-96031442D01*
X158477801Y-96046148D01*
X158366641Y-96069776D01*
X158360611Y-96072461D01*
X158360610Y-96072461D01*
X158198207Y-96144767D01*
X158198205Y-96144768D01*
X158192177Y-96147452D01*
X158037676Y-96259704D01*
X158033255Y-96264614D01*
X158033254Y-96264615D01*
X157924982Y-96384864D01*
X157909889Y-96401626D01*
X157906588Y-96407344D01*
X157849349Y-96506485D01*
X157814402Y-96567014D01*
X157755387Y-96748642D01*
X157754697Y-96755203D01*
X157754697Y-96755205D01*
X157746410Y-96834056D01*
X157735425Y-96938570D01*
X153198940Y-96938570D01*
X153212814Y-96806565D01*
X153213504Y-96800000D01*
X153201503Y-96685817D01*
X153194232Y-96616635D01*
X153194232Y-96616633D01*
X153193542Y-96610072D01*
X153134527Y-96428444D01*
X153039040Y-96263056D01*
X153013887Y-96235120D01*
X152915675Y-96126045D01*
X152915674Y-96126044D01*
X152911253Y-96121134D01*
X152756752Y-96008882D01*
X152750724Y-96006198D01*
X152750722Y-96006197D01*
X152588319Y-95933891D01*
X152588318Y-95933891D01*
X152582288Y-95931206D01*
X152470121Y-95907364D01*
X152401944Y-95892872D01*
X152401939Y-95892872D01*
X152395487Y-95891500D01*
X152204513Y-95891500D01*
X152198061Y-95892872D01*
X152198056Y-95892872D01*
X152129879Y-95907364D01*
X152017712Y-95931206D01*
X152011682Y-95933891D01*
X152011681Y-95933891D01*
X151849278Y-96006197D01*
X151849276Y-96006198D01*
X151843248Y-96008882D01*
X151688747Y-96121134D01*
X151684326Y-96126044D01*
X151684325Y-96126045D01*
X151586114Y-96235120D01*
X151560960Y-96263056D01*
X151465473Y-96428444D01*
X151406458Y-96610072D01*
X151405768Y-96616633D01*
X151405768Y-96616635D01*
X151398497Y-96685817D01*
X151386496Y-96800000D01*
X121748289Y-96800000D01*
X121915384Y-96632905D01*
X121977697Y-96598880D01*
X122004480Y-96596000D01*
X122128134Y-96596000D01*
X122190316Y-96589245D01*
X122326705Y-96538115D01*
X122443261Y-96450761D01*
X122530615Y-96334205D01*
X122581745Y-96197816D01*
X122588500Y-96135634D01*
X122588500Y-95100000D01*
X123786496Y-95100000D01*
X123787186Y-95106565D01*
X123805155Y-95277527D01*
X123806458Y-95289928D01*
X123865473Y-95471556D01*
X123868776Y-95477278D01*
X123868777Y-95477279D01*
X123901573Y-95534083D01*
X123960960Y-95636944D01*
X123965378Y-95641851D01*
X123965379Y-95641852D01*
X124084325Y-95773955D01*
X124088747Y-95778866D01*
X124243248Y-95891118D01*
X124249276Y-95893802D01*
X124249278Y-95893803D01*
X124390923Y-95956867D01*
X124417712Y-95968794D01*
X124511113Y-95988647D01*
X124598056Y-96007128D01*
X124598061Y-96007128D01*
X124604513Y-96008500D01*
X124795487Y-96008500D01*
X124801939Y-96007128D01*
X124801944Y-96007128D01*
X124888888Y-95988647D01*
X124982288Y-95968794D01*
X125009077Y-95956867D01*
X125150722Y-95893803D01*
X125150724Y-95893802D01*
X125156752Y-95891118D01*
X125311253Y-95778866D01*
X125315675Y-95773955D01*
X125434621Y-95641852D01*
X125434622Y-95641851D01*
X125439040Y-95636944D01*
X125498427Y-95534083D01*
X125531223Y-95477279D01*
X125531224Y-95477278D01*
X125534527Y-95471556D01*
X125593542Y-95289928D01*
X125594846Y-95277527D01*
X125612814Y-95106565D01*
X125613504Y-95100000D01*
X125605365Y-95022565D01*
X125594232Y-94916635D01*
X125594232Y-94916633D01*
X125593542Y-94910072D01*
X125534527Y-94728444D01*
X125439040Y-94563056D01*
X125429878Y-94552880D01*
X125416993Y-94538570D01*
X161435425Y-94538570D01*
X161436115Y-94545135D01*
X161451275Y-94689371D01*
X161455387Y-94728498D01*
X161514402Y-94910126D01*
X161517705Y-94915848D01*
X161517706Y-94915849D01*
X161527304Y-94932473D01*
X161609889Y-95075514D01*
X161614307Y-95080421D01*
X161614308Y-95080422D01*
X161637847Y-95106565D01*
X161737676Y-95217436D01*
X161764996Y-95237285D01*
X161865016Y-95309954D01*
X161892177Y-95329688D01*
X161898205Y-95332372D01*
X161898207Y-95332373D01*
X162058728Y-95403841D01*
X162066641Y-95407364D01*
X162160041Y-95427217D01*
X162246985Y-95445698D01*
X162246990Y-95445698D01*
X162253442Y-95447070D01*
X162444416Y-95447070D01*
X162449330Y-95446026D01*
X162518591Y-95458692D01*
X162571041Y-95508228D01*
X162609889Y-95575514D01*
X162737676Y-95717436D01*
X162822227Y-95778866D01*
X162882807Y-95822880D01*
X162892177Y-95829688D01*
X162898205Y-95832372D01*
X162898207Y-95832373D01*
X163034091Y-95892872D01*
X163066641Y-95907364D01*
X163160042Y-95927217D01*
X163246985Y-95945698D01*
X163246990Y-95945698D01*
X163253442Y-95947070D01*
X163444416Y-95947070D01*
X163450868Y-95945698D01*
X163450873Y-95945698D01*
X163537816Y-95927217D01*
X163631217Y-95907364D01*
X163663767Y-95892872D01*
X163799651Y-95832373D01*
X163799653Y-95832372D01*
X163805681Y-95829688D01*
X163815052Y-95822880D01*
X163875631Y-95778866D01*
X163960182Y-95717436D01*
X164087969Y-95575514D01*
X164108652Y-95539690D01*
X186047037Y-95539690D01*
X186074025Y-95762715D01*
X186140082Y-95977435D01*
X186142652Y-95982415D01*
X186142654Y-95982419D01*
X186240546Y-96172081D01*
X186243118Y-96177064D01*
X186379877Y-96355292D01*
X186546036Y-96506485D01*
X186550783Y-96509463D01*
X186550786Y-96509465D01*
X186688148Y-96595631D01*
X186736344Y-96625864D01*
X186944783Y-96709656D01*
X187164767Y-96755213D01*
X187169378Y-96755479D01*
X187169379Y-96755479D01*
X187219952Y-96758395D01*
X187219956Y-96758395D01*
X187221775Y-96758500D01*
X187886999Y-96758500D01*
X187889786Y-96758251D01*
X187889792Y-96758251D01*
X187959929Y-96751991D01*
X188053762Y-96743617D01*
X188059176Y-96742136D01*
X188059181Y-96742135D01*
X188199117Y-96703852D01*
X188270451Y-96684337D01*
X188275509Y-96681925D01*
X188275513Y-96681923D01*
X188393042Y-96625864D01*
X188473218Y-96587622D01*
X188655654Y-96456529D01*
X188737905Y-96371653D01*
X188808089Y-96299229D01*
X188808091Y-96299226D01*
X188811992Y-96295201D01*
X188929137Y-96120871D01*
X188934164Y-96113390D01*
X188937290Y-96108738D01*
X189027588Y-95903033D01*
X189030028Y-95892872D01*
X189078722Y-95690046D01*
X189078722Y-95690045D01*
X189080032Y-95684589D01*
X189081235Y-95663719D01*
X191357621Y-95663719D01*
X191357660Y-95664264D01*
X191363262Y-95672624D01*
X191374275Y-95682822D01*
X191379717Y-95687324D01*
X191648359Y-95885385D01*
X191654249Y-95889239D01*
X191943312Y-96056129D01*
X191949581Y-96059296D01*
X192255456Y-96192930D01*
X192262040Y-96195378D01*
X192580901Y-96294082D01*
X192587715Y-96295781D01*
X192915583Y-96358325D01*
X192922559Y-96359256D01*
X193255370Y-96384864D01*
X193262378Y-96385010D01*
X193595968Y-96373362D01*
X193602962Y-96372725D01*
X193933172Y-96323964D01*
X193940047Y-96322553D01*
X194262777Y-96237284D01*
X194269437Y-96235120D01*
X194580646Y-96114410D01*
X194587045Y-96111507D01*
X194882843Y-95956867D01*
X194888888Y-95953264D01*
X195165606Y-95766616D01*
X195171200Y-95762370D01*
X195277206Y-95672152D01*
X195285638Y-95659284D01*
X195279609Y-95649019D01*
X193335612Y-93705022D01*
X193321668Y-93697408D01*
X193319835Y-93697539D01*
X193313220Y-93701790D01*
X191365235Y-95649775D01*
X191357621Y-95663719D01*
X189081235Y-95663719D01*
X189086650Y-95569799D01*
X189092640Y-95465917D01*
X189092640Y-95465914D01*
X189092963Y-95460310D01*
X189065975Y-95237285D01*
X188999918Y-95022565D01*
X188962929Y-94950899D01*
X188899454Y-94827919D01*
X188899454Y-94827918D01*
X188896882Y-94822936D01*
X188760123Y-94644708D01*
X188593964Y-94493515D01*
X188589217Y-94490537D01*
X188589214Y-94490535D01*
X188408405Y-94377115D01*
X188403656Y-94374136D01*
X188195217Y-94290344D01*
X187975233Y-94244787D01*
X187970622Y-94244521D01*
X187970621Y-94244521D01*
X187920048Y-94241605D01*
X187920044Y-94241605D01*
X187918225Y-94241500D01*
X187253001Y-94241500D01*
X187250214Y-94241749D01*
X187250208Y-94241749D01*
X187186309Y-94247452D01*
X187086238Y-94256383D01*
X187080824Y-94257864D01*
X187080819Y-94257865D01*
X186975181Y-94286765D01*
X186869549Y-94315663D01*
X186864491Y-94318075D01*
X186864487Y-94318077D01*
X186785356Y-94355821D01*
X186666782Y-94412378D01*
X186484346Y-94543471D01*
X186480439Y-94547503D01*
X186342959Y-94689371D01*
X186328008Y-94704799D01*
X186226939Y-94855205D01*
X186208431Y-94882749D01*
X186202710Y-94891262D01*
X186112412Y-95096967D01*
X186111103Y-95102418D01*
X186111102Y-95102422D01*
X186066648Y-95287587D01*
X186059968Y-95315411D01*
X186047037Y-95539690D01*
X164108652Y-95539690D01*
X164162790Y-95445920D01*
X164180152Y-95415849D01*
X164180153Y-95415848D01*
X164183456Y-95410126D01*
X164242471Y-95228498D01*
X164262433Y-95038570D01*
X164248933Y-94910126D01*
X164243161Y-94855205D01*
X164243161Y-94855203D01*
X164242471Y-94848642D01*
X164183456Y-94667014D01*
X164087969Y-94501626D01*
X164011998Y-94417251D01*
X163964604Y-94364615D01*
X163964603Y-94364614D01*
X163960182Y-94359704D01*
X163820013Y-94257865D01*
X163811023Y-94251333D01*
X163811022Y-94251332D01*
X163805681Y-94247452D01*
X163799653Y-94244768D01*
X163799651Y-94244767D01*
X163699102Y-94200000D01*
X168686496Y-94200000D01*
X168687186Y-94206565D01*
X168703798Y-94364615D01*
X168706458Y-94389928D01*
X168765473Y-94571556D01*
X168860960Y-94736944D01*
X168865378Y-94741851D01*
X168865379Y-94741852D01*
X168984325Y-94873955D01*
X168988747Y-94878866D01*
X169143248Y-94991118D01*
X169149276Y-94993802D01*
X169149278Y-94993803D01*
X169269031Y-95047120D01*
X169317712Y-95068794D01*
X169411113Y-95088647D01*
X169498056Y-95107128D01*
X169498061Y-95107128D01*
X169504513Y-95108500D01*
X169695487Y-95108500D01*
X169701939Y-95107128D01*
X169701944Y-95107128D01*
X169788887Y-95088647D01*
X169882288Y-95068794D01*
X169930969Y-95047120D01*
X170050722Y-94993803D01*
X170050724Y-94993802D01*
X170056752Y-94991118D01*
X170211253Y-94878866D01*
X170215675Y-94873955D01*
X170334621Y-94741852D01*
X170334622Y-94741851D01*
X170339040Y-94736944D01*
X170434527Y-94571556D01*
X170493542Y-94389928D01*
X170496203Y-94364615D01*
X170512814Y-94206565D01*
X170513504Y-94200000D01*
X170499726Y-94068911D01*
X170494232Y-94016635D01*
X170494232Y-94016633D01*
X170493542Y-94010072D01*
X170434527Y-93828444D01*
X170409881Y-93785755D01*
X170366602Y-93710795D01*
X170339040Y-93663056D01*
X170334454Y-93657962D01*
X170215675Y-93526045D01*
X170215674Y-93526044D01*
X170211253Y-93521134D01*
X170082695Y-93427731D01*
X170062094Y-93412763D01*
X170062093Y-93412762D01*
X170056752Y-93408882D01*
X170050724Y-93406198D01*
X170050722Y-93406197D01*
X169888319Y-93333891D01*
X169888318Y-93333891D01*
X169882288Y-93331206D01*
X169788888Y-93311353D01*
X169701944Y-93292872D01*
X169701939Y-93292872D01*
X169695487Y-93291500D01*
X169504513Y-93291500D01*
X169498061Y-93292872D01*
X169498056Y-93292872D01*
X169411113Y-93311353D01*
X169317712Y-93331206D01*
X169311682Y-93333891D01*
X169311681Y-93333891D01*
X169149278Y-93406197D01*
X169149276Y-93406198D01*
X169143248Y-93408882D01*
X169137907Y-93412762D01*
X169137906Y-93412763D01*
X169117305Y-93427731D01*
X168988747Y-93521134D01*
X168984326Y-93526044D01*
X168984325Y-93526045D01*
X168865547Y-93657962D01*
X168860960Y-93663056D01*
X168833398Y-93710795D01*
X168790120Y-93785755D01*
X168765473Y-93828444D01*
X168706458Y-94010072D01*
X168705768Y-94016633D01*
X168705768Y-94016635D01*
X168700274Y-94068911D01*
X168686496Y-94200000D01*
X163699102Y-94200000D01*
X163637248Y-94172461D01*
X163637247Y-94172461D01*
X163631217Y-94169776D01*
X163537816Y-94149923D01*
X163450873Y-94131442D01*
X163450868Y-94131442D01*
X163444416Y-94130070D01*
X163253442Y-94130070D01*
X163248528Y-94131114D01*
X163179267Y-94118448D01*
X163126816Y-94068911D01*
X163123608Y-94063354D01*
X163087969Y-94001626D01*
X163078022Y-93990578D01*
X162964604Y-93864615D01*
X162964603Y-93864614D01*
X162960182Y-93859704D01*
X162820743Y-93758395D01*
X162811023Y-93751333D01*
X162811022Y-93751332D01*
X162805681Y-93747452D01*
X162799653Y-93744768D01*
X162799651Y-93744767D01*
X162637248Y-93672461D01*
X162637247Y-93672461D01*
X162631217Y-93669776D01*
X162519859Y-93646106D01*
X162450873Y-93631442D01*
X162450868Y-93631442D01*
X162444416Y-93630070D01*
X162253442Y-93630070D01*
X162246990Y-93631442D01*
X162246985Y-93631442D01*
X162177999Y-93646106D01*
X162066641Y-93669776D01*
X162060611Y-93672461D01*
X162060610Y-93672461D01*
X161898207Y-93744767D01*
X161898205Y-93744768D01*
X161892177Y-93747452D01*
X161886836Y-93751332D01*
X161886835Y-93751333D01*
X161877115Y-93758395D01*
X161737676Y-93859704D01*
X161733255Y-93864614D01*
X161733254Y-93864615D01*
X161619837Y-93990578D01*
X161609889Y-94001626D01*
X161574250Y-94063354D01*
X161517893Y-94160968D01*
X161514402Y-94167014D01*
X161455387Y-94348642D01*
X161454697Y-94355203D01*
X161454697Y-94355205D01*
X161450580Y-94394375D01*
X161435425Y-94538570D01*
X125416993Y-94538570D01*
X125315675Y-94426045D01*
X125315674Y-94426044D01*
X125311253Y-94421134D01*
X125156752Y-94308882D01*
X125150724Y-94306198D01*
X125150722Y-94306197D01*
X124988319Y-94233891D01*
X124988318Y-94233891D01*
X124982288Y-94231206D01*
X124866362Y-94206565D01*
X124801944Y-94192872D01*
X124801939Y-94192872D01*
X124795487Y-94191500D01*
X124604513Y-94191500D01*
X124598061Y-94192872D01*
X124598056Y-94192872D01*
X124533638Y-94206565D01*
X124417712Y-94231206D01*
X124411682Y-94233891D01*
X124411681Y-94233891D01*
X124249278Y-94306197D01*
X124249276Y-94306198D01*
X124243248Y-94308882D01*
X124088747Y-94421134D01*
X124084326Y-94426044D01*
X124084325Y-94426045D01*
X123970123Y-94552880D01*
X123960960Y-94563056D01*
X123865473Y-94728444D01*
X123806458Y-94910072D01*
X123805768Y-94916633D01*
X123805768Y-94916635D01*
X123794635Y-95022565D01*
X123786496Y-95100000D01*
X122588500Y-95100000D01*
X122588500Y-94239366D01*
X122581745Y-94177184D01*
X122530615Y-94040795D01*
X122443261Y-93924239D01*
X122326705Y-93836885D01*
X122190316Y-93785755D01*
X122128134Y-93779000D01*
X120231866Y-93779000D01*
X120169684Y-93785755D01*
X120033295Y-93836885D01*
X119916739Y-93924239D01*
X119829385Y-94040795D01*
X119778255Y-94177184D01*
X119771500Y-94239366D01*
X119771500Y-96135634D01*
X113570421Y-96135634D01*
X113477038Y-96042251D01*
X113461602Y-96031442D01*
X113376814Y-95972073D01*
X113296654Y-95915944D01*
X113291672Y-95913621D01*
X113291667Y-95913618D01*
X113164232Y-95854195D01*
X113110947Y-95807278D01*
X113091486Y-95739001D01*
X113112028Y-95671041D01*
X113164232Y-95625805D01*
X113291667Y-95566382D01*
X113291672Y-95566379D01*
X113296654Y-95564056D01*
X113444818Y-95460310D01*
X113472527Y-95440908D01*
X113472529Y-95440906D01*
X113477038Y-95437749D01*
X113632749Y-95282038D01*
X113664086Y-95237285D01*
X113755899Y-95106162D01*
X113755900Y-95106160D01*
X113759056Y-95101653D01*
X113761379Y-95096671D01*
X113761382Y-95096666D01*
X113827881Y-94954056D01*
X113852120Y-94902076D01*
X113909115Y-94689371D01*
X113928307Y-94470000D01*
X113909115Y-94250629D01*
X113852120Y-94037924D01*
X113783440Y-93890639D01*
X113761382Y-93843334D01*
X113761379Y-93843329D01*
X113759056Y-93838347D01*
X113748115Y-93822721D01*
X113635908Y-93662473D01*
X113635906Y-93662470D01*
X113632749Y-93657962D01*
X113477038Y-93502251D01*
X113296654Y-93375944D01*
X113097076Y-93282880D01*
X112884371Y-93225885D01*
X112665000Y-93206693D01*
X112445629Y-93225885D01*
X112232924Y-93282880D01*
X112145985Y-93323420D01*
X112038334Y-93373618D01*
X112038329Y-93373621D01*
X112033347Y-93375944D01*
X112028840Y-93379100D01*
X112028838Y-93379101D01*
X111857473Y-93499092D01*
X111857470Y-93499094D01*
X111852962Y-93502251D01*
X111697251Y-93657962D01*
X111694094Y-93662470D01*
X111694092Y-93662473D01*
X111662522Y-93707560D01*
X111626854Y-93758500D01*
X111612713Y-93778695D01*
X111557256Y-93823023D01*
X111486637Y-93830332D01*
X111423276Y-93798301D01*
X111387291Y-93737100D01*
X111383500Y-93706424D01*
X111383499Y-92653337D01*
X111383499Y-92650070D01*
X111382167Y-92637224D01*
X111374382Y-92562196D01*
X111372518Y-92544231D01*
X111316506Y-92376341D01*
X111223373Y-92225839D01*
X111098115Y-92100800D01*
X110963713Y-92017953D01*
X110953681Y-92011769D01*
X110953679Y-92011768D01*
X110947451Y-92007929D01*
X110779463Y-91952210D01*
X110772627Y-91951510D01*
X110772624Y-91951509D01*
X110720325Y-91946151D01*
X110674931Y-91941500D01*
X110129241Y-91941500D01*
X109575070Y-91941501D01*
X109571826Y-91941838D01*
X109571818Y-91941838D01*
X109527688Y-91946417D01*
X109469231Y-91952482D01*
X109301341Y-92008494D01*
X109150839Y-92101627D01*
X109025800Y-92226885D01*
X109015955Y-92242857D01*
X108937508Y-92370121D01*
X108932929Y-92377549D01*
X108877210Y-92545537D01*
X108866500Y-92650069D01*
X108866501Y-93749930D01*
X108866838Y-93753174D01*
X108866838Y-93753182D01*
X108867364Y-93758251D01*
X108877482Y-93855769D01*
X108933494Y-94023659D01*
X109026627Y-94174161D01*
X109151885Y-94299200D01*
X109167592Y-94308882D01*
X109270058Y-94372043D01*
X109302549Y-94392071D01*
X109363773Y-94412378D01*
X109440001Y-94437662D01*
X109498361Y-94478093D01*
X109525598Y-94543657D01*
X109513064Y-94613539D01*
X109472606Y-94660467D01*
X109415046Y-94700771D01*
X109317473Y-94769092D01*
X109317470Y-94769094D01*
X109312962Y-94772251D01*
X109157251Y-94927962D01*
X109154094Y-94932470D01*
X109154092Y-94932473D01*
X109034101Y-95103838D01*
X109030944Y-95108347D01*
X109028621Y-95113329D01*
X109028618Y-95113334D01*
X108982365Y-95212525D01*
X108937880Y-95307924D01*
X108880885Y-95520629D01*
X108861693Y-95740000D01*
X108880885Y-95959371D01*
X108937880Y-96172076D01*
X108980305Y-96263056D01*
X109028618Y-96366666D01*
X109028621Y-96366671D01*
X109030944Y-96371653D01*
X109034100Y-96376160D01*
X109034101Y-96376162D01*
X109143731Y-96532729D01*
X109157251Y-96552038D01*
X109312962Y-96707749D01*
X109317471Y-96710906D01*
X109317473Y-96710908D01*
X109392241Y-96763261D01*
X109493346Y-96834056D01*
X109498328Y-96836379D01*
X109498333Y-96836382D01*
X109625768Y-96895805D01*
X109679053Y-96942722D01*
X109698514Y-97010999D01*
X109677972Y-97078959D01*
X109625768Y-97124195D01*
X109498334Y-97183618D01*
X109498329Y-97183621D01*
X109493347Y-97185944D01*
X109488840Y-97189100D01*
X109488838Y-97189101D01*
X109317473Y-97309092D01*
X109317470Y-97309094D01*
X109312962Y-97312251D01*
X109157251Y-97467962D01*
X109154094Y-97472470D01*
X109154092Y-97472473D01*
X109045396Y-97627708D01*
X109030944Y-97648347D01*
X109028621Y-97653329D01*
X109028618Y-97653334D01*
X108989567Y-97737080D01*
X108937880Y-97847924D01*
X108880885Y-98060629D01*
X108861693Y-98280000D01*
X108880885Y-98499371D01*
X108937880Y-98712076D01*
X108970835Y-98782749D01*
X109028618Y-98906666D01*
X109028621Y-98906671D01*
X109030944Y-98911653D01*
X109034100Y-98916160D01*
X109034101Y-98916162D01*
X109142907Y-99071552D01*
X109157251Y-99092038D01*
X109312962Y-99247749D01*
X109317471Y-99250906D01*
X109317473Y-99250908D01*
X109380730Y-99295201D01*
X109493346Y-99374056D01*
X109498328Y-99376379D01*
X109498333Y-99376382D01*
X109625768Y-99435805D01*
X109679053Y-99482722D01*
X109698514Y-99550999D01*
X109677972Y-99618959D01*
X109625768Y-99664195D01*
X109498334Y-99723618D01*
X109498329Y-99723621D01*
X109493347Y-99725944D01*
X109488840Y-99729100D01*
X109488838Y-99729101D01*
X109317473Y-99849092D01*
X109317470Y-99849094D01*
X109312962Y-99852251D01*
X109157251Y-100007962D01*
X109154094Y-100012470D01*
X109154092Y-100012473D01*
X109051159Y-100159477D01*
X109030944Y-100188347D01*
X109028621Y-100193329D01*
X109028618Y-100193334D01*
X108997478Y-100260115D01*
X108937880Y-100387924D01*
X108880885Y-100600629D01*
X108861693Y-100820000D01*
X99799153Y-100820000D01*
X99791382Y-100803334D01*
X99791379Y-100803329D01*
X99789056Y-100798347D01*
X99785899Y-100793838D01*
X99665908Y-100622473D01*
X99665906Y-100622470D01*
X99662749Y-100617962D01*
X99507038Y-100462251D01*
X99471251Y-100437192D01*
X99412828Y-100396284D01*
X99326654Y-100335944D01*
X99127076Y-100242880D01*
X98914371Y-100185885D01*
X98695000Y-100166693D01*
X98475629Y-100185885D01*
X98262924Y-100242880D01*
X98202910Y-100270865D01*
X98068334Y-100333618D01*
X98068329Y-100333621D01*
X98063347Y-100335944D01*
X98058840Y-100339100D01*
X98058838Y-100339101D01*
X97887473Y-100459092D01*
X97887470Y-100459094D01*
X97882962Y-100462251D01*
X97727251Y-100617962D01*
X97726508Y-100617219D01*
X97671911Y-100653542D01*
X97600924Y-100654668D01*
X97540596Y-100617236D01*
X97510083Y-100553131D01*
X97508500Y-100533224D01*
X97508500Y-93860000D01*
X99131693Y-93860000D01*
X99150885Y-94079371D01*
X99207880Y-94292076D01*
X99237605Y-94355821D01*
X99298618Y-94486666D01*
X99298621Y-94486671D01*
X99300944Y-94491653D01*
X99304100Y-94496160D01*
X99304101Y-94496162D01*
X99419150Y-94660468D01*
X99427251Y-94672038D01*
X99582962Y-94827749D01*
X99763346Y-94954056D01*
X99962924Y-95047120D01*
X100175629Y-95104115D01*
X100395000Y-95123307D01*
X100614371Y-95104115D01*
X100827076Y-95047120D01*
X101026654Y-94954056D01*
X101207038Y-94827749D01*
X101362749Y-94672038D01*
X101370851Y-94660468D01*
X101485899Y-94496162D01*
X101485900Y-94496160D01*
X101489056Y-94491653D01*
X101491379Y-94486671D01*
X101491382Y-94486666D01*
X101552395Y-94355821D01*
X101582120Y-94292076D01*
X101639115Y-94079371D01*
X101658307Y-93860000D01*
X101639115Y-93640629D01*
X101582120Y-93427924D01*
X101538272Y-93333891D01*
X101491382Y-93233334D01*
X101491379Y-93233329D01*
X101489056Y-93228347D01*
X101456262Y-93181512D01*
X101365908Y-93052473D01*
X101365906Y-93052470D01*
X101362749Y-93047962D01*
X101207038Y-92892251D01*
X101026654Y-92765944D01*
X100827076Y-92672880D01*
X100614371Y-92615885D01*
X100395000Y-92596693D01*
X100175629Y-92615885D01*
X99962924Y-92672880D01*
X99869562Y-92716415D01*
X99768334Y-92763618D01*
X99768329Y-92763621D01*
X99763347Y-92765944D01*
X99758840Y-92769100D01*
X99758838Y-92769101D01*
X99587473Y-92889092D01*
X99587470Y-92889094D01*
X99582962Y-92892251D01*
X99427251Y-93047962D01*
X99424094Y-93052470D01*
X99424092Y-93052473D01*
X99333738Y-93181512D01*
X99300944Y-93228347D01*
X99298621Y-93233329D01*
X99298618Y-93233334D01*
X99251728Y-93333891D01*
X99207880Y-93427924D01*
X99150885Y-93640629D01*
X99131693Y-93860000D01*
X97508500Y-93860000D01*
X97508500Y-92370161D01*
X98009393Y-92370161D01*
X98018687Y-92382175D01*
X98059088Y-92410464D01*
X98068584Y-92415947D01*
X98258113Y-92504326D01*
X98268405Y-92508072D01*
X98470401Y-92562196D01*
X98481196Y-92564099D01*
X98689525Y-92582326D01*
X98700475Y-92582326D01*
X98908804Y-92564099D01*
X98919599Y-92562196D01*
X99121595Y-92508072D01*
X99131887Y-92504326D01*
X99321416Y-92415947D01*
X99330912Y-92410464D01*
X99372148Y-92381590D01*
X99380523Y-92371112D01*
X99373457Y-92357668D01*
X99080066Y-92064277D01*
X101640735Y-92064277D01*
X101641294Y-92068521D01*
X101641294Y-92068525D01*
X101650321Y-92137087D01*
X101678705Y-92352687D01*
X101755465Y-92633276D01*
X101757149Y-92637224D01*
X101867590Y-92896148D01*
X101869596Y-92900852D01*
X102018985Y-93150462D01*
X102021669Y-93153813D01*
X102021671Y-93153815D01*
X102050100Y-93189300D01*
X102200867Y-93377489D01*
X102336445Y-93506148D01*
X102375484Y-93543194D01*
X102411878Y-93577731D01*
X102648113Y-93747483D01*
X102708335Y-93779369D01*
X102860622Y-93860000D01*
X102905200Y-93883603D01*
X102909223Y-93885075D01*
X102909227Y-93885077D01*
X103174351Y-93982099D01*
X103178382Y-93983574D01*
X103462604Y-94045544D01*
X103491650Y-94047830D01*
X103688297Y-94063307D01*
X103688304Y-94063307D01*
X103690753Y-94063500D01*
X103848121Y-94063500D01*
X103850257Y-94063354D01*
X103850268Y-94063354D01*
X104060949Y-94048991D01*
X104060955Y-94048990D01*
X104065226Y-94048699D01*
X104069421Y-94047830D01*
X104069423Y-94047830D01*
X104316235Y-93996718D01*
X104350081Y-93989709D01*
X104624295Y-93892605D01*
X104732250Y-93836885D01*
X104878986Y-93761149D01*
X104878987Y-93761149D01*
X104882793Y-93759184D01*
X104886294Y-93756723D01*
X104886298Y-93756721D01*
X105046515Y-93644118D01*
X105120792Y-93591915D01*
X105217282Y-93502251D01*
X105330745Y-93396815D01*
X105330748Y-93396812D01*
X105333888Y-93393894D01*
X105344895Y-93380447D01*
X105469387Y-93228347D01*
X105518139Y-93168784D01*
X105670133Y-92920752D01*
X105678869Y-92900852D01*
X105777920Y-92675205D01*
X105787059Y-92654386D01*
X105788289Y-92650070D01*
X105820300Y-92537694D01*
X105866754Y-92374616D01*
X105869064Y-92358391D01*
X105907137Y-92090870D01*
X105907742Y-92086619D01*
X105908789Y-91886610D01*
X105909243Y-91800009D01*
X105909243Y-91800003D01*
X105909265Y-91795723D01*
X105880829Y-91579733D01*
X181237822Y-91579733D01*
X181237975Y-91584121D01*
X181237975Y-91584127D01*
X181246489Y-91827919D01*
X181247625Y-91860458D01*
X181248387Y-91864781D01*
X181248388Y-91864788D01*
X181276209Y-92022565D01*
X181296402Y-92137087D01*
X181383203Y-92404235D01*
X181385131Y-92408188D01*
X181385133Y-92408193D01*
X181412157Y-92463600D01*
X181506340Y-92656702D01*
X181508795Y-92660341D01*
X181508798Y-92660347D01*
X181578456Y-92763619D01*
X181663415Y-92889576D01*
X181666360Y-92892847D01*
X181666361Y-92892848D01*
X181715044Y-92946916D01*
X181851371Y-93098322D01*
X182066550Y-93278879D01*
X182304764Y-93427731D01*
X182561375Y-93541982D01*
X182831390Y-93619407D01*
X182835740Y-93620018D01*
X182835743Y-93620019D01*
X182937886Y-93634374D01*
X183109552Y-93658500D01*
X183320146Y-93658500D01*
X183322332Y-93658347D01*
X183322336Y-93658347D01*
X183525827Y-93644118D01*
X183525832Y-93644117D01*
X183530212Y-93643811D01*
X183804970Y-93585409D01*
X183809099Y-93583906D01*
X183809103Y-93583905D01*
X184064781Y-93490846D01*
X184064785Y-93490844D01*
X184068926Y-93489337D01*
X184316942Y-93357464D01*
X184352172Y-93331868D01*
X184540629Y-93194947D01*
X184540632Y-93194944D01*
X184544192Y-93192358D01*
X184555424Y-93181512D01*
X184743087Y-93000287D01*
X184746252Y-92997231D01*
X184919188Y-92775882D01*
X184921384Y-92772078D01*
X184921389Y-92772071D01*
X185042560Y-92562196D01*
X185055554Y-92539690D01*
X186047037Y-92539690D01*
X186074025Y-92762715D01*
X186140082Y-92977435D01*
X186142652Y-92982415D01*
X186142654Y-92982419D01*
X186207852Y-93108738D01*
X186243118Y-93177064D01*
X186379877Y-93355292D01*
X186546036Y-93506485D01*
X186550783Y-93509463D01*
X186550786Y-93509465D01*
X186724118Y-93618195D01*
X186736344Y-93625864D01*
X186944783Y-93709656D01*
X187164767Y-93755213D01*
X187169378Y-93755479D01*
X187169379Y-93755479D01*
X187219952Y-93758395D01*
X187219956Y-93758395D01*
X187221775Y-93758500D01*
X187886999Y-93758500D01*
X187889786Y-93758251D01*
X187889792Y-93758251D01*
X187959929Y-93751991D01*
X188053762Y-93743617D01*
X188059176Y-93742136D01*
X188059181Y-93742135D01*
X188222193Y-93697539D01*
X188270451Y-93684337D01*
X188275509Y-93681925D01*
X188275513Y-93681923D01*
X188375200Y-93634374D01*
X188473218Y-93587622D01*
X188655654Y-93456529D01*
X188732249Y-93377489D01*
X188808089Y-93299229D01*
X188808091Y-93299226D01*
X188811992Y-93295201D01*
X188812864Y-93293903D01*
X190270443Y-93293903D01*
X190284420Y-93627384D01*
X190285105Y-93634374D01*
X190336170Y-93964240D01*
X190337630Y-93971107D01*
X190425147Y-94293223D01*
X190427361Y-94299879D01*
X190550237Y-94610229D01*
X190553191Y-94616622D01*
X190709884Y-94911319D01*
X190713532Y-94917342D01*
X190902105Y-95192746D01*
X190906399Y-95198321D01*
X190983452Y-95287587D01*
X190996494Y-95296004D01*
X191006525Y-95290065D01*
X192950778Y-93345812D01*
X192958392Y-93331868D01*
X192958261Y-93330035D01*
X192954010Y-93323420D01*
X191006650Y-91376060D01*
X190992706Y-91368446D01*
X190992397Y-91368468D01*
X190983725Y-91374323D01*
X190959422Y-91400938D01*
X190954978Y-91406387D01*
X190758790Y-91676418D01*
X190754973Y-91682340D01*
X190590107Y-91972555D01*
X190586981Y-91978853D01*
X190455492Y-92285642D01*
X190453086Y-92292252D01*
X190356611Y-92611791D01*
X190354961Y-92618612D01*
X190294705Y-92946916D01*
X190293823Y-92953899D01*
X190270541Y-93286858D01*
X190270443Y-93293903D01*
X188812864Y-93293903D01*
X188937290Y-93108738D01*
X189027588Y-92903033D01*
X189029061Y-92896900D01*
X189078722Y-92690046D01*
X189078722Y-92690045D01*
X189080032Y-92684589D01*
X189088065Y-92545268D01*
X189092640Y-92465917D01*
X189092640Y-92465914D01*
X189092963Y-92460310D01*
X189065975Y-92237285D01*
X188999918Y-92022565D01*
X188997135Y-92017172D01*
X188899454Y-91827919D01*
X188899454Y-91827918D01*
X188896882Y-91822936D01*
X188760123Y-91644708D01*
X188593964Y-91493515D01*
X188589217Y-91490537D01*
X188589214Y-91490535D01*
X188408405Y-91377115D01*
X188403656Y-91374136D01*
X188195217Y-91290344D01*
X187975233Y-91244787D01*
X187970622Y-91244521D01*
X187970621Y-91244521D01*
X187920048Y-91241605D01*
X187920044Y-91241605D01*
X187918225Y-91241500D01*
X187253001Y-91241500D01*
X187250214Y-91241749D01*
X187250208Y-91241749D01*
X187180071Y-91248009D01*
X187086238Y-91256383D01*
X187080824Y-91257864D01*
X187080819Y-91257865D01*
X186954437Y-91292440D01*
X186869549Y-91315663D01*
X186864491Y-91318075D01*
X186864487Y-91318077D01*
X186771997Y-91362193D01*
X186666782Y-91412378D01*
X186484346Y-91543471D01*
X186449206Y-91579733D01*
X186340391Y-91692021D01*
X186328008Y-91704799D01*
X186202710Y-91891262D01*
X186112412Y-92096967D01*
X186111103Y-92102418D01*
X186111102Y-92102422D01*
X186067115Y-92285642D01*
X186059968Y-92315411D01*
X186056455Y-92376341D01*
X186047445Y-92532619D01*
X186047037Y-92539690D01*
X185055554Y-92539690D01*
X185059636Y-92532619D01*
X185164862Y-92272176D01*
X185174898Y-92231923D01*
X185231753Y-92003893D01*
X185231754Y-92003888D01*
X185232817Y-91999624D01*
X185237543Y-91954663D01*
X185261719Y-91724636D01*
X185261719Y-91724633D01*
X185262178Y-91720267D01*
X185261903Y-91712384D01*
X185252529Y-91443939D01*
X185252528Y-91443933D01*
X185252375Y-91439542D01*
X185251422Y-91434134D01*
X185217455Y-91241500D01*
X185203598Y-91162913D01*
X185152798Y-91006567D01*
X191359527Y-91006567D01*
X191365372Y-91016362D01*
X193309988Y-92960978D01*
X193323932Y-92968592D01*
X193325765Y-92968461D01*
X193332380Y-92964210D01*
X195279220Y-91017370D01*
X195286834Y-91003426D01*
X195286829Y-91003350D01*
X195280725Y-90994377D01*
X195238308Y-90956185D01*
X195232844Y-90951792D01*
X194961428Y-90757476D01*
X194955503Y-90753717D01*
X194664136Y-90590878D01*
X194657818Y-90587796D01*
X194350110Y-90458447D01*
X194343495Y-90456091D01*
X194023276Y-90361846D01*
X194016454Y-90360246D01*
X193687724Y-90302282D01*
X193680752Y-90301451D01*
X193347630Y-90280492D01*
X193340599Y-90280443D01*
X193007202Y-90296749D01*
X193000224Y-90297483D01*
X192670730Y-90350849D01*
X192663870Y-90352357D01*
X192342365Y-90442123D01*
X192335730Y-90444382D01*
X192026237Y-90569425D01*
X192019893Y-90572410D01*
X191726271Y-90731171D01*
X191720282Y-90734855D01*
X191446192Y-90925353D01*
X191440661Y-90929674D01*
X191367926Y-90993350D01*
X191359527Y-91006567D01*
X185152798Y-91006567D01*
X185116797Y-90895765D01*
X185110627Y-90883113D01*
X185041866Y-90742135D01*
X184993660Y-90643298D01*
X184991205Y-90639659D01*
X184991202Y-90639653D01*
X184885208Y-90482511D01*
X184836585Y-90410424D01*
X184791405Y-90360246D01*
X184711050Y-90271004D01*
X184648629Y-90201678D01*
X184433450Y-90021121D01*
X184195236Y-89872269D01*
X183982142Y-89777393D01*
X183942639Y-89759805D01*
X183942637Y-89759804D01*
X183938625Y-89758018D01*
X183668610Y-89680593D01*
X183664260Y-89679982D01*
X183664257Y-89679981D01*
X183561310Y-89665513D01*
X183390448Y-89641500D01*
X183179854Y-89641500D01*
X183177668Y-89641653D01*
X183177664Y-89641653D01*
X182974173Y-89655882D01*
X182974168Y-89655883D01*
X182969788Y-89656189D01*
X182695030Y-89714591D01*
X182690901Y-89716094D01*
X182690897Y-89716095D01*
X182435219Y-89809154D01*
X182435215Y-89809156D01*
X182431074Y-89810663D01*
X182183058Y-89942536D01*
X182179499Y-89945122D01*
X182179497Y-89945123D01*
X181961366Y-90103604D01*
X181955808Y-90107642D01*
X181952644Y-90110698D01*
X181952641Y-90110700D01*
X181930659Y-90131928D01*
X181753748Y-90302769D01*
X181580812Y-90524118D01*
X181578616Y-90527922D01*
X181578611Y-90527929D01*
X181473034Y-90710795D01*
X181440364Y-90767381D01*
X181335138Y-91027824D01*
X181334073Y-91032097D01*
X181334072Y-91032099D01*
X181268887Y-91293543D01*
X181267183Y-91300376D01*
X181266724Y-91304744D01*
X181266723Y-91304749D01*
X181241209Y-91547503D01*
X181237822Y-91579733D01*
X105880829Y-91579733D01*
X105871295Y-91507313D01*
X105867155Y-91492180D01*
X105868472Y-91421196D01*
X105907958Y-91362193D01*
X105973075Y-91333903D01*
X106047356Y-91347424D01*
X106117885Y-91384531D01*
X106126453Y-91388256D01*
X106364304Y-91471318D01*
X106373313Y-91473732D01*
X106620842Y-91520727D01*
X106630098Y-91521781D01*
X106881857Y-91531673D01*
X106891171Y-91531347D01*
X107141615Y-91503920D01*
X107150792Y-91502219D01*
X107394431Y-91438074D01*
X107403251Y-91435037D01*
X107634736Y-91335583D01*
X107643008Y-91331276D01*
X107857249Y-91198700D01*
X107864188Y-91193658D01*
X107872518Y-91181019D01*
X107866456Y-91170666D01*
X107540459Y-90844669D01*
X116942201Y-90844669D01*
X116942571Y-90851490D01*
X116948095Y-90902352D01*
X116951721Y-90917604D01*
X116996876Y-91038054D01*
X117005414Y-91053649D01*
X117081915Y-91155724D01*
X117094476Y-91168285D01*
X117196551Y-91244786D01*
X117212146Y-91253324D01*
X117332594Y-91298478D01*
X117347849Y-91302105D01*
X117398714Y-91307631D01*
X117405528Y-91308000D01*
X117978085Y-91308000D01*
X117993324Y-91303525D01*
X117994529Y-91302135D01*
X117996200Y-91294452D01*
X117996200Y-90272115D01*
X117991725Y-90256876D01*
X117990335Y-90255671D01*
X117982652Y-90254000D01*
X116960316Y-90254000D01*
X116945077Y-90258475D01*
X116943872Y-90259865D01*
X116942201Y-90267548D01*
X116942201Y-90844669D01*
X107540459Y-90844669D01*
X105426321Y-88730531D01*
X105413013Y-88723264D01*
X105402974Y-88730386D01*
X105392761Y-88742666D01*
X105387346Y-88750258D01*
X105256646Y-88965646D01*
X105252408Y-88973963D01*
X105154981Y-89206299D01*
X105152020Y-89215149D01*
X105090006Y-89459331D01*
X105088384Y-89468528D01*
X105063143Y-89719198D01*
X105062898Y-89728523D01*
X105075211Y-89984847D01*
X105074160Y-89984898D01*
X105063419Y-90050057D01*
X105015833Y-90102745D01*
X104947315Y-90121342D01*
X104890947Y-90106724D01*
X104648587Y-89978402D01*
X104648586Y-89978401D01*
X104644800Y-89976397D01*
X104640777Y-89974925D01*
X104640773Y-89974923D01*
X104375649Y-89877901D01*
X104375647Y-89877900D01*
X104371618Y-89876426D01*
X104087396Y-89814456D01*
X104020029Y-89809154D01*
X103861703Y-89796693D01*
X103861696Y-89796693D01*
X103859247Y-89796500D01*
X103701879Y-89796500D01*
X103699743Y-89796646D01*
X103699732Y-89796646D01*
X103489051Y-89811009D01*
X103489045Y-89811010D01*
X103484774Y-89811301D01*
X103480579Y-89812170D01*
X103480577Y-89812170D01*
X103465130Y-89815369D01*
X103199919Y-89870291D01*
X102925705Y-89967395D01*
X102667207Y-90100816D01*
X102663706Y-90103277D01*
X102663702Y-90103279D01*
X102631408Y-90125976D01*
X102429208Y-90268085D01*
X102413944Y-90282269D01*
X102222893Y-90459805D01*
X102216112Y-90466106D01*
X102213398Y-90469422D01*
X102213395Y-90469425D01*
X102165510Y-90527929D01*
X102031861Y-90691216D01*
X101879867Y-90939248D01*
X101878148Y-90943165D01*
X101878146Y-90943168D01*
X101856118Y-90993350D01*
X101762941Y-91205614D01*
X101761765Y-91209742D01*
X101761764Y-91209745D01*
X101751782Y-91244787D01*
X101683246Y-91485384D01*
X101682642Y-91489626D01*
X101682641Y-91489632D01*
X101675445Y-91540195D01*
X101642258Y-91773381D01*
X101641665Y-91886610D01*
X101640978Y-92017953D01*
X101640735Y-92064277D01*
X99080066Y-92064277D01*
X98707811Y-91692021D01*
X98693868Y-91684408D01*
X98692034Y-91684539D01*
X98685420Y-91688790D01*
X98015820Y-92358391D01*
X98009393Y-92370161D01*
X97508500Y-92370161D01*
X97508500Y-92132567D01*
X97528502Y-92064446D01*
X97582158Y-92017953D01*
X97637519Y-92008870D01*
X97657334Y-91998455D01*
X98322979Y-91332811D01*
X98329356Y-91321132D01*
X99059408Y-91321132D01*
X99059539Y-91322966D01*
X99063790Y-91329580D01*
X99733391Y-91999180D01*
X99745161Y-92005607D01*
X99757176Y-91996311D01*
X99785466Y-91955907D01*
X99790946Y-91946417D01*
X99879326Y-91756887D01*
X99883072Y-91746595D01*
X99937196Y-91544599D01*
X99939099Y-91533804D01*
X99957326Y-91325475D01*
X99957326Y-91314525D01*
X99939099Y-91106196D01*
X99937196Y-91095401D01*
X99883072Y-90893405D01*
X99879326Y-90883113D01*
X99790946Y-90693583D01*
X99785466Y-90684093D01*
X99756589Y-90642851D01*
X99746113Y-90634477D01*
X99732666Y-90641545D01*
X99067021Y-91307189D01*
X99059408Y-91321132D01*
X98329356Y-91321132D01*
X98330592Y-91318868D01*
X98330461Y-91317034D01*
X98326210Y-91310420D01*
X97656609Y-90640820D01*
X97641952Y-90632816D01*
X97574115Y-90618060D01*
X97523913Y-90567858D01*
X97508500Y-90507472D01*
X97508500Y-90268887D01*
X98009477Y-90268887D01*
X98016545Y-90282334D01*
X98682189Y-90947979D01*
X98696132Y-90955592D01*
X98697966Y-90955461D01*
X98704580Y-90951210D01*
X99374180Y-90281609D01*
X99380607Y-90269839D01*
X99371313Y-90257825D01*
X99330912Y-90229536D01*
X99321416Y-90224053D01*
X99131887Y-90135674D01*
X99121595Y-90131928D01*
X98919599Y-90077804D01*
X98908804Y-90075901D01*
X98700475Y-90057674D01*
X98689525Y-90057674D01*
X98481196Y-90075901D01*
X98470401Y-90077804D01*
X98268405Y-90131928D01*
X98258113Y-90135674D01*
X98068583Y-90224054D01*
X98059093Y-90229534D01*
X98017851Y-90258411D01*
X98009477Y-90268887D01*
X97508500Y-90268887D01*
X97508500Y-87755186D01*
X98709960Y-87755186D01*
X98717418Y-87765554D01*
X98932662Y-87939854D01*
X98937984Y-87943721D01*
X99240823Y-88140387D01*
X99246532Y-88143683D01*
X99568275Y-88307620D01*
X99574286Y-88310296D01*
X99911395Y-88439700D01*
X99917672Y-88441740D01*
X100266463Y-88535198D01*
X100272901Y-88536567D01*
X100629560Y-88593055D01*
X100636104Y-88593743D01*
X100996699Y-88612641D01*
X101003301Y-88612641D01*
X101363896Y-88593743D01*
X101370440Y-88593055D01*
X101727099Y-88536567D01*
X101733537Y-88535198D01*
X102082328Y-88441740D01*
X102088605Y-88439700D01*
X102425714Y-88310296D01*
X102431725Y-88307620D01*
X102753468Y-88143683D01*
X102759177Y-88140387D01*
X103062016Y-87943721D01*
X103067338Y-87939854D01*
X103281634Y-87766322D01*
X103290100Y-87754067D01*
X103283766Y-87742976D01*
X101012812Y-85472022D01*
X100998868Y-85464408D01*
X100997035Y-85464539D01*
X100990420Y-85468790D01*
X98717100Y-87742110D01*
X98709960Y-87755186D01*
X97508500Y-87755186D01*
X97508500Y-86472988D01*
X97528502Y-86404867D01*
X97582158Y-86358374D01*
X97652432Y-86348270D01*
X97717012Y-86377764D01*
X97752131Y-86427833D01*
X97789704Y-86525714D01*
X97792380Y-86531725D01*
X97956317Y-86853468D01*
X97959613Y-86859177D01*
X98156279Y-87162016D01*
X98160146Y-87167338D01*
X98333678Y-87381634D01*
X98345933Y-87390100D01*
X98357024Y-87383766D01*
X100910905Y-84829885D01*
X100973217Y-84795859D01*
X101044032Y-84800924D01*
X101089095Y-84829885D01*
X103642110Y-87382900D01*
X103655186Y-87390040D01*
X103665554Y-87382582D01*
X103839854Y-87167338D01*
X103843721Y-87162016D01*
X104040387Y-86859177D01*
X104043683Y-86853468D01*
X104207620Y-86531725D01*
X104210296Y-86525714D01*
X104339700Y-86188605D01*
X104341740Y-86182328D01*
X104435198Y-85833537D01*
X104436567Y-85827099D01*
X104493055Y-85470440D01*
X104493743Y-85463896D01*
X104512641Y-85103301D01*
X104512641Y-85096699D01*
X104493743Y-84736104D01*
X104493055Y-84729560D01*
X104436567Y-84372901D01*
X104435198Y-84366462D01*
X104402922Y-84246004D01*
X104404612Y-84175027D01*
X104444406Y-84116232D01*
X104509671Y-84088284D01*
X104579684Y-84100058D01*
G37*
G04 #@! TD.AperFunction*
M02*
