G04 #@! TF.GenerationSoftware,KiCad,Pcbnew,(6.0.8)*
G04 #@! TF.CreationDate,2022-11-19T16:18:39-06:00*
G04 #@! TF.ProjectId,NavBoard_Hardware,4e617642-6f61-4726-945f-486172647761,rev?*
G04 #@! TF.SameCoordinates,Original*
G04 #@! TF.FileFunction,Legend,Bot*
G04 #@! TF.FilePolarity,Positive*
%FSLAX46Y46*%
G04 Gerber Fmt 4.6, Leading zero omitted, Abs format (unit mm)*
G04 Created by KiCad (PCBNEW (6.0.8)) date 2022-11-19 16:18:39*
%MOMM*%
%LPD*%
G01*
G04 APERTURE LIST*
G04 Aperture macros list*
%AMRoundRect*
0 Rectangle with rounded corners*
0 $1 Rounding radius*
0 $2 $3 $4 $5 $6 $7 $8 $9 X,Y pos of 4 corners*
0 Add a 4 corners polygon primitive as box body*
4,1,4,$2,$3,$4,$5,$6,$7,$8,$9,$2,$3,0*
0 Add four circle primitives for the rounded corners*
1,1,$1+$1,$2,$3*
1,1,$1+$1,$4,$5*
1,1,$1+$1,$6,$7*
1,1,$1+$1,$8,$9*
0 Add four rect primitives between the rounded corners*
20,1,$1+$1,$2,$3,$4,$5,0*
20,1,$1+$1,$4,$5,$6,$7,0*
20,1,$1+$1,$6,$7,$8,$9,0*
20,1,$1+$1,$8,$9,$2,$3,0*%
G04 Aperture macros list end*
%ADD10C,0.150000*%
%ADD11C,0.120000*%
%ADD12R,1.800000X1.800000*%
%ADD13C,1.800000*%
%ADD14C,6.000000*%
%ADD15C,3.000000*%
%ADD16RoundRect,0.250001X0.759999X-0.499999X0.759999X0.499999X-0.759999X0.499999X-0.759999X-0.499999X0*%
%ADD17O,2.020000X1.500000*%
%ADD18C,3.250000*%
%ADD19RoundRect,0.250500X-0.499500X0.499500X-0.499500X-0.499500X0.499500X-0.499500X0.499500X0.499500X0*%
%ADD20C,1.500000*%
%ADD21C,2.500000*%
%ADD22RoundRect,0.237500X0.344715X-0.008839X-0.008839X0.344715X-0.344715X0.008839X0.008839X-0.344715X0*%
%ADD23R,1.600000X1.600000*%
%ADD24C,1.600000*%
%ADD25R,1.300000X1.300000*%
%ADD26C,1.300000*%
%ADD27RoundRect,0.237500X0.008839X0.344715X-0.344715X-0.008839X-0.008839X-0.344715X0.344715X0.008839X0*%
%ADD28C,5.080000*%
G04 APERTURE END LIST*
D10*
X180252031Y-96512267D02*
X179679611Y-96613282D01*
X179847970Y-96108206D02*
X179140863Y-96815312D01*
X179410237Y-97084687D01*
X179511252Y-97118358D01*
X179578596Y-97118358D01*
X179679611Y-97084687D01*
X179780626Y-96983671D01*
X179814298Y-96882656D01*
X179814298Y-96815312D01*
X179780626Y-96714297D01*
X179511252Y-96444923D01*
X179780626Y-97455076D02*
X180218359Y-97892809D01*
X180252031Y-97387732D01*
X180353046Y-97488748D01*
X180454062Y-97522419D01*
X180521405Y-97522419D01*
X180622420Y-97488748D01*
X180790779Y-97320389D01*
X180824451Y-97219374D01*
X180824451Y-97152030D01*
X180790779Y-97051015D01*
X180588749Y-96848984D01*
X180487733Y-96815312D01*
X180420390Y-96815312D01*
X148222104Y-107232380D02*
X148222104Y-108041904D01*
X148174485Y-108137142D01*
X148126866Y-108184761D01*
X148031628Y-108232380D01*
X147841152Y-108232380D01*
X147745914Y-108184761D01*
X147698295Y-108137142D01*
X147650676Y-108041904D01*
X147650676Y-107232380D01*
X146650676Y-108232380D02*
X147222104Y-108232380D01*
X146936390Y-108232380D02*
X146936390Y-107232380D01*
X147031628Y-107375238D01*
X147126866Y-107470476D01*
X147222104Y-107518095D01*
X182126569Y-95890867D02*
X182025554Y-95318447D01*
X182530630Y-95486806D02*
X181823524Y-94779699D01*
X181554149Y-95049073D01*
X181520478Y-95150088D01*
X181520478Y-95217432D01*
X181554149Y-95318447D01*
X181655165Y-95419462D01*
X181756180Y-95453134D01*
X181823524Y-95453134D01*
X181924539Y-95419462D01*
X182193913Y-95150088D01*
X181217432Y-95520478D02*
X181150088Y-95520478D01*
X181049073Y-95554149D01*
X180880714Y-95722508D01*
X180847043Y-95823524D01*
X180847043Y-95890867D01*
X180880714Y-95991882D01*
X180948058Y-96059226D01*
X181082745Y-96126569D01*
X181890867Y-96126569D01*
X181453134Y-96564302D01*
X175837732Y-94290867D02*
X175736717Y-93718447D01*
X176241793Y-93886806D02*
X175534687Y-93179699D01*
X175265312Y-93449073D01*
X175231641Y-93550088D01*
X175231641Y-93617432D01*
X175265312Y-93718447D01*
X175366328Y-93819462D01*
X175467343Y-93853134D01*
X175534687Y-93853134D01*
X175635702Y-93819462D01*
X175905076Y-93550088D01*
X175164297Y-94964302D02*
X175568358Y-94560241D01*
X175366328Y-94762272D02*
X174659221Y-94055165D01*
X174827580Y-94088837D01*
X174962267Y-94088837D01*
X175063282Y-94055165D01*
X174052030Y-94812267D02*
X173479610Y-94913282D01*
X173647969Y-94408206D02*
X172940862Y-95115312D01*
X173210236Y-95384687D01*
X173311251Y-95418358D01*
X173378595Y-95418358D01*
X173479610Y-95384687D01*
X173580625Y-95283671D01*
X173614297Y-95182656D01*
X173614297Y-95115312D01*
X173580625Y-95014297D01*
X173311251Y-94744923D01*
X174186717Y-95889763D02*
X174658122Y-95418358D01*
X173748984Y-95990778D02*
X174085702Y-95317343D01*
X174523435Y-95755076D01*
G36*
X163743748Y-100238858D02*
G01*
X163743550Y-100263679D01*
X163735716Y-100415203D01*
X163715065Y-100548045D01*
X163679512Y-100672173D01*
X163626974Y-100797555D01*
X163581000Y-100881282D01*
X163487794Y-101010081D01*
X163374834Y-101130113D01*
X163249404Y-101233971D01*
X163118790Y-101314247D01*
X163098598Y-101324066D01*
X162994381Y-101366868D01*
X162875165Y-101406009D01*
X162754684Y-101437345D01*
X162646673Y-101456730D01*
X162596257Y-101462278D01*
X162389662Y-101470388D01*
X162191583Y-101454894D01*
X162005401Y-101416669D01*
X161834501Y-101356587D01*
X161682267Y-101275521D01*
X161552082Y-101174343D01*
X161453129Y-101081334D01*
X161749525Y-100741376D01*
X161828966Y-100804627D01*
X161920495Y-100868817D01*
X162066665Y-100939916D01*
X162225782Y-100982192D01*
X162398893Y-100995998D01*
X162467842Y-100993947D01*
X162633334Y-100971280D01*
X162780995Y-100924296D01*
X162909386Y-100853906D01*
X163017068Y-100761020D01*
X163102601Y-100646551D01*
X163164545Y-100511409D01*
X163179632Y-100466671D01*
X163192014Y-100428500D01*
X163196767Y-100411754D01*
X163182128Y-100410797D01*
X163138300Y-100409868D01*
X163068033Y-100409011D01*
X162974093Y-100408242D01*
X162859244Y-100407578D01*
X162726250Y-100407033D01*
X162577876Y-100406624D01*
X162416886Y-100406367D01*
X162246046Y-100406278D01*
X161295324Y-100406278D01*
X161303321Y-100179065D01*
X161305350Y-100130277D01*
X161312245Y-100039549D01*
X161821969Y-100039549D01*
X163199301Y-100039549D01*
X163188742Y-99987728D01*
X163164001Y-99908041D01*
X163122164Y-99817782D01*
X163070203Y-99730905D01*
X163014823Y-99660043D01*
X162996847Y-99641637D01*
X162890042Y-99557892D01*
X162768351Y-99498314D01*
X162636813Y-99462948D01*
X162500467Y-99451841D01*
X162364350Y-99465037D01*
X162233501Y-99502583D01*
X162112959Y-99564525D01*
X162007761Y-99650907D01*
X162001048Y-99657998D01*
X161945886Y-99728956D01*
X161895150Y-99814194D01*
X161855205Y-99901773D01*
X161832415Y-99979756D01*
X161821969Y-100039549D01*
X161312245Y-100039549D01*
X161314664Y-100007725D01*
X161331098Y-99903455D01*
X161357136Y-99807541D01*
X161395263Y-99710054D01*
X161447963Y-99601068D01*
X161468081Y-99564800D01*
X161545256Y-99453994D01*
X161641586Y-99346009D01*
X161748524Y-99249754D01*
X161857523Y-99174137D01*
X161859837Y-99172796D01*
X162022409Y-99096286D01*
X162200721Y-99043642D01*
X162388894Y-99015358D01*
X162581048Y-99011931D01*
X162771306Y-99033857D01*
X162953788Y-99081632D01*
X162998169Y-99097577D01*
X163109792Y-99145764D01*
X163208733Y-99203427D01*
X163304481Y-99276643D01*
X163406528Y-99371488D01*
X163446068Y-99411413D01*
X163501295Y-99471620D01*
X163543346Y-99526381D01*
X163579334Y-99585428D01*
X163616378Y-99658494D01*
X163619544Y-99665121D01*
X163670911Y-99781611D01*
X163706662Y-99886513D01*
X163729151Y-99990543D01*
X163734134Y-100039549D01*
X163740729Y-100104419D01*
X163743748Y-100238858D01*
G37*
G36*
X147352536Y-100238858D02*
G01*
X147352338Y-100263679D01*
X147344505Y-100415203D01*
X147323853Y-100548045D01*
X147288300Y-100672173D01*
X147235763Y-100797555D01*
X147189788Y-100881282D01*
X147096583Y-101010081D01*
X146983622Y-101130113D01*
X146858192Y-101233971D01*
X146727578Y-101314247D01*
X146707387Y-101324066D01*
X146603170Y-101366868D01*
X146483954Y-101406009D01*
X146363473Y-101437345D01*
X146255461Y-101456730D01*
X146205045Y-101462278D01*
X145998451Y-101470388D01*
X145800371Y-101454894D01*
X145614189Y-101416669D01*
X145443290Y-101356587D01*
X145291056Y-101275521D01*
X145160870Y-101174343D01*
X145061917Y-101081334D01*
X145210116Y-100911355D01*
X145358314Y-100741376D01*
X145437754Y-100804627D01*
X145529284Y-100868817D01*
X145675454Y-100939916D01*
X145834570Y-100982192D01*
X146007681Y-100995998D01*
X146076631Y-100993947D01*
X146242122Y-100971280D01*
X146389783Y-100924296D01*
X146518175Y-100853906D01*
X146625856Y-100761020D01*
X146711389Y-100646551D01*
X146773333Y-100511409D01*
X146788420Y-100466671D01*
X146800802Y-100428500D01*
X146805555Y-100411754D01*
X146790917Y-100410797D01*
X146747088Y-100409868D01*
X146676822Y-100409011D01*
X146582882Y-100408242D01*
X146468032Y-100407578D01*
X146335038Y-100407033D01*
X146186664Y-100406624D01*
X146025675Y-100406367D01*
X145854834Y-100406278D01*
X144904113Y-100406278D01*
X144912110Y-100179065D01*
X144914138Y-100130277D01*
X144921033Y-100039549D01*
X145430757Y-100039549D01*
X146808089Y-100039549D01*
X146797530Y-99987728D01*
X146772789Y-99908041D01*
X146730953Y-99817782D01*
X146678992Y-99730905D01*
X146623611Y-99660043D01*
X146605636Y-99641637D01*
X146498830Y-99557892D01*
X146377139Y-99498314D01*
X146245602Y-99462948D01*
X146109255Y-99451841D01*
X145973138Y-99465037D01*
X145842289Y-99502583D01*
X145721747Y-99564525D01*
X145616549Y-99650907D01*
X145609836Y-99657998D01*
X145554675Y-99728956D01*
X145503939Y-99814194D01*
X145463993Y-99901773D01*
X145441203Y-99979756D01*
X145430757Y-100039549D01*
X144921033Y-100039549D01*
X144923452Y-100007725D01*
X144939886Y-99903455D01*
X144965925Y-99807541D01*
X145004052Y-99710054D01*
X145056751Y-99601068D01*
X145076870Y-99564800D01*
X145154045Y-99453994D01*
X145250375Y-99346009D01*
X145357313Y-99249754D01*
X145466312Y-99174137D01*
X145468625Y-99172796D01*
X145631198Y-99096286D01*
X145809510Y-99043642D01*
X145997682Y-99015358D01*
X146189836Y-99011931D01*
X146380094Y-99033857D01*
X146562577Y-99081632D01*
X146606957Y-99097577D01*
X146718581Y-99145764D01*
X146817521Y-99203427D01*
X146913269Y-99276643D01*
X147015317Y-99371488D01*
X147054856Y-99411413D01*
X147110084Y-99471620D01*
X147152134Y-99526381D01*
X147188123Y-99585428D01*
X147225166Y-99658494D01*
X147228333Y-99665121D01*
X147279699Y-99781611D01*
X147315450Y-99886513D01*
X147337939Y-99990543D01*
X147342922Y-100039549D01*
X147349517Y-100104419D01*
X147352536Y-100238858D01*
G37*
G36*
X166397677Y-101438081D02*
G01*
X166248850Y-101436763D01*
X166071783Y-101434898D01*
X165921103Y-101432700D01*
X165793638Y-101429898D01*
X165686216Y-101426219D01*
X165595667Y-101421393D01*
X165518820Y-101415146D01*
X165452502Y-101407208D01*
X165393542Y-101397305D01*
X165338769Y-101385166D01*
X165285011Y-101370520D01*
X165229097Y-101353093D01*
X165167857Y-101332615D01*
X165002983Y-101266862D01*
X164811422Y-101162634D01*
X164639636Y-101036211D01*
X164489746Y-100889448D01*
X164363874Y-100724201D01*
X164264141Y-100542324D01*
X164216749Y-100423051D01*
X164162259Y-100222114D01*
X164132725Y-100011099D01*
X164129597Y-99864156D01*
X164712073Y-99864156D01*
X164713417Y-99931829D01*
X164729423Y-100087455D01*
X164765262Y-100229978D01*
X164823141Y-100369441D01*
X164885482Y-100477802D01*
X164993523Y-100612273D01*
X165124472Y-100726091D01*
X165276567Y-100818041D01*
X165448050Y-100886909D01*
X165637161Y-100931481D01*
X165639280Y-100931810D01*
X165684395Y-100936159D01*
X165755752Y-100940076D01*
X165848090Y-100943404D01*
X165956147Y-100945986D01*
X166074660Y-100947663D01*
X166198368Y-100948279D01*
X166656779Y-100948400D01*
X166656779Y-98779913D01*
X166198368Y-98780033D01*
X166189293Y-98780039D01*
X166065786Y-98780737D01*
X165947857Y-98782486D01*
X165840768Y-98785127D01*
X165749780Y-98788504D01*
X165680157Y-98792458D01*
X165637161Y-98796832D01*
X165499961Y-98826243D01*
X165323301Y-98888345D01*
X165165529Y-98973873D01*
X165028406Y-99081614D01*
X164913690Y-99210351D01*
X164823141Y-99358871D01*
X164797373Y-99414538D01*
X164748512Y-99554014D01*
X164720815Y-99700539D01*
X164712073Y-99864156D01*
X164129597Y-99864156D01*
X164128146Y-99795993D01*
X164148522Y-99582782D01*
X164193854Y-99377451D01*
X164264141Y-99185988D01*
X164341171Y-99040197D01*
X164461844Y-98871381D01*
X164606971Y-98720667D01*
X164774430Y-98589912D01*
X164962099Y-98480970D01*
X165167857Y-98395698D01*
X165213522Y-98380336D01*
X165270538Y-98362128D01*
X165324558Y-98346771D01*
X165378753Y-98333994D01*
X165436295Y-98323526D01*
X165500355Y-98315093D01*
X165574104Y-98308425D01*
X165660715Y-98303249D01*
X165763357Y-98299293D01*
X165885203Y-98296285D01*
X166029424Y-98293953D01*
X166199192Y-98292026D01*
X166397677Y-98290231D01*
X167230791Y-98283144D01*
X167230791Y-101445168D01*
X166397677Y-101438081D01*
G37*
G36*
X146988536Y-93785217D02*
G01*
X147006341Y-93826277D01*
X147037536Y-93898280D01*
X147078336Y-93992493D01*
X147127093Y-94105110D01*
X147182159Y-94232324D01*
X147241886Y-94370330D01*
X147304627Y-94515322D01*
X147368735Y-94663492D01*
X147372870Y-94673050D01*
X147433886Y-94813444D01*
X147491277Y-94944403D01*
X147543764Y-95063088D01*
X147590071Y-95166660D01*
X147628920Y-95252280D01*
X147659035Y-95317108D01*
X147679137Y-95358306D01*
X147687950Y-95373034D01*
X147696197Y-95359513D01*
X147715613Y-95319062D01*
X147745067Y-95254214D01*
X147783452Y-95167506D01*
X147829661Y-95061478D01*
X147882589Y-94938667D01*
X147941130Y-94801613D01*
X148004177Y-94652853D01*
X148070624Y-94494925D01*
X148439893Y-93614144D01*
X148730490Y-93613977D01*
X149021087Y-93613811D01*
X149007246Y-93649687D01*
X149005444Y-93654170D01*
X148992148Y-93685916D01*
X148967956Y-93742902D01*
X148934043Y-93822402D01*
X148891582Y-93921687D01*
X148841745Y-94038030D01*
X148785707Y-94168705D01*
X148724641Y-94310983D01*
X148659719Y-94462137D01*
X148592116Y-94619441D01*
X148523004Y-94780166D01*
X148453557Y-94941584D01*
X148384948Y-95100970D01*
X148318351Y-95255595D01*
X148254938Y-95402732D01*
X148195883Y-95539653D01*
X148142360Y-95663632D01*
X148095541Y-95771940D01*
X148056600Y-95861850D01*
X148026710Y-95930636D01*
X148007044Y-95975569D01*
X147998777Y-95993923D01*
X147994207Y-96000822D01*
X147982791Y-96008990D01*
X147962051Y-96014551D01*
X147927477Y-96017861D01*
X147874558Y-96019275D01*
X147798782Y-96019149D01*
X147695638Y-96017840D01*
X147407312Y-96013497D01*
X146892731Y-94813654D01*
X146378151Y-93613811D01*
X146914147Y-93613811D01*
X146988536Y-93785217D01*
G37*
G36*
X163123006Y-95457375D02*
G01*
X163118382Y-95503920D01*
X163109503Y-95541873D01*
X163094987Y-95579387D01*
X163073456Y-95624612D01*
X163053838Y-95661435D01*
X162969603Y-95776572D01*
X162860517Y-95873248D01*
X162728118Y-95950510D01*
X162573943Y-96007402D01*
X162399529Y-96042970D01*
X162381449Y-96044578D01*
X162328425Y-96046270D01*
X162259278Y-96046165D01*
X162184275Y-96044205D01*
X162089115Y-96037924D01*
X161931749Y-96012938D01*
X161795486Y-95969346D01*
X161676235Y-95905659D01*
X161569904Y-95820387D01*
X161474733Y-95729610D01*
X161474733Y-96021469D01*
X160946271Y-96021469D01*
X160952480Y-95196328D01*
X160952567Y-95184794D01*
X160953071Y-95119930D01*
X161506623Y-95119930D01*
X161507717Y-95183408D01*
X161513134Y-95240949D01*
X161524926Y-95286908D01*
X161545107Y-95332389D01*
X161586110Y-95398524D01*
X161671590Y-95489643D01*
X161779078Y-95562409D01*
X161904149Y-95613358D01*
X161951467Y-95623434D01*
X162026367Y-95632142D01*
X162110939Y-95636801D01*
X162194894Y-95637152D01*
X162267946Y-95632933D01*
X162319805Y-95623885D01*
X162364069Y-95607416D01*
X162424382Y-95578202D01*
X162478034Y-95545858D01*
X162513206Y-95516920D01*
X162524231Y-95503547D01*
X162569219Y-95422178D01*
X162589917Y-95330694D01*
X162585319Y-95237960D01*
X162554422Y-95152840D01*
X162537232Y-95126612D01*
X162492045Y-95082259D01*
X162424330Y-95041226D01*
X162330156Y-94993032D01*
X161918389Y-94987855D01*
X161506623Y-94982678D01*
X161506623Y-95119930D01*
X160953071Y-95119930D01*
X160953982Y-95002797D01*
X160955338Y-94849571D01*
X160956768Y-94722171D01*
X160958403Y-94617652D01*
X160960374Y-94533068D01*
X160962812Y-94465473D01*
X160965848Y-94411921D01*
X160969615Y-94369467D01*
X160974244Y-94335165D01*
X160979866Y-94306070D01*
X160986612Y-94279235D01*
X160994613Y-94251715D01*
X161013619Y-94193063D01*
X161069033Y-94063297D01*
X161139119Y-93952743D01*
X161228803Y-93853019D01*
X161310095Y-93783532D01*
X161424993Y-93710884D01*
X161554323Y-93656517D01*
X161701664Y-93619311D01*
X161870593Y-93598150D01*
X162064689Y-93591915D01*
X162244363Y-93598068D01*
X162429568Y-93619050D01*
X162599209Y-93656058D01*
X162760335Y-93710293D01*
X162770338Y-93714358D01*
X162833859Y-93743102D01*
X162904239Y-93778693D01*
X162972464Y-93816210D01*
X163029521Y-93850734D01*
X163066398Y-93877346D01*
X163060873Y-93891123D01*
X163043317Y-93926920D01*
X163016933Y-93978610D01*
X162984943Y-94040081D01*
X162950575Y-94105222D01*
X162917051Y-94167922D01*
X162887597Y-94222068D01*
X162865439Y-94261549D01*
X162853800Y-94280253D01*
X162844645Y-94277278D01*
X162815530Y-94260681D01*
X162774130Y-94233919D01*
X162713898Y-94197856D01*
X162595479Y-94143926D01*
X162460195Y-94099089D01*
X162317235Y-94066707D01*
X162283821Y-94061331D01*
X162116662Y-94048595D01*
X161962459Y-94061077D01*
X161823896Y-94098371D01*
X161703654Y-94160068D01*
X161637030Y-94220018D01*
X161577923Y-94306238D01*
X161534907Y-94407962D01*
X161512235Y-94517256D01*
X161502377Y-94615490D01*
X161986828Y-94622302D01*
X162021531Y-94622806D01*
X162172131Y-94625605D01*
X162296117Y-94629456D01*
X162397864Y-94635005D01*
X162481747Y-94642893D01*
X162552138Y-94653767D01*
X162613413Y-94668269D01*
X162669947Y-94687043D01*
X162726112Y-94710734D01*
X162786284Y-94739985D01*
X162865605Y-94789448D01*
X162952220Y-94863036D01*
X163027211Y-94946727D01*
X163081052Y-95031112D01*
X163092598Y-95055240D01*
X163107468Y-95091812D01*
X163116944Y-95128707D01*
X163122228Y-95173816D01*
X163124519Y-95235029D01*
X163125015Y-95320235D01*
X163124978Y-95330694D01*
X163124756Y-95394089D01*
X163123006Y-95457375D01*
G37*
G36*
X152727679Y-99016846D02*
G01*
X152848170Y-99028782D01*
X152949078Y-99048489D01*
X153013595Y-99068067D01*
X153146685Y-99122531D01*
X153266232Y-99190381D01*
X153363178Y-99266843D01*
X153438575Y-99339090D01*
X153438575Y-99035029D01*
X153980697Y-99035029D01*
X153980697Y-101442687D01*
X153422630Y-101442687D01*
X153422510Y-100800911D01*
X153422484Y-100768817D01*
X153421885Y-100624532D01*
X153420562Y-100487543D01*
X153418605Y-100361948D01*
X153416104Y-100251847D01*
X153413147Y-100161338D01*
X153409826Y-100094521D01*
X153406228Y-100055493D01*
X153405724Y-100052311D01*
X153370470Y-99918126D01*
X153311477Y-99795292D01*
X153232262Y-99688570D01*
X153136340Y-99602717D01*
X153027226Y-99542492D01*
X152994558Y-99530352D01*
X152949640Y-99518048D01*
X152898844Y-99510599D01*
X152833509Y-99506878D01*
X152744978Y-99505759D01*
X152661537Y-99506313D01*
X152598740Y-99509133D01*
X152551924Y-99515311D01*
X152513009Y-99525926D01*
X152473917Y-99542062D01*
X152375756Y-99601490D01*
X152288013Y-99688990D01*
X152222404Y-99797606D01*
X152180922Y-99924734D01*
X152178583Y-99939231D01*
X152173875Y-99994765D01*
X152169993Y-100081324D01*
X152166951Y-100198316D01*
X152164762Y-100345147D01*
X152163438Y-100521225D01*
X152162994Y-100725958D01*
X152162994Y-101442687D01*
X151603111Y-101442687D01*
X151608485Y-100609574D01*
X151608899Y-100545643D01*
X151610084Y-100371102D01*
X151611257Y-100224604D01*
X151612546Y-100103252D01*
X151614082Y-100004150D01*
X151615994Y-99924403D01*
X151618412Y-99861115D01*
X151621466Y-99811389D01*
X151625285Y-99772330D01*
X151630000Y-99741042D01*
X151635739Y-99714630D01*
X151642634Y-99690196D01*
X151650813Y-99664847D01*
X151689726Y-99562294D01*
X151771604Y-99408475D01*
X151873641Y-99279341D01*
X151995800Y-99174929D01*
X152138043Y-99095276D01*
X152300331Y-99040419D01*
X152358038Y-99029019D01*
X152471679Y-99016828D01*
X152598537Y-99012816D01*
X152727679Y-99016846D01*
G37*
G36*
X158959447Y-93591962D02*
G01*
X158977453Y-93593660D01*
X159165491Y-93624866D01*
X159331493Y-93678645D01*
X159475184Y-93754884D01*
X159596291Y-93853470D01*
X159688920Y-93946100D01*
X159688920Y-93613811D01*
X160231042Y-93613811D01*
X160231042Y-96021469D01*
X159675119Y-96021469D01*
X159669429Y-95339831D01*
X159668540Y-95236091D01*
X159667099Y-95087342D01*
X159665562Y-94965270D01*
X159663765Y-94866621D01*
X159661544Y-94788140D01*
X159658737Y-94726574D01*
X159655180Y-94678668D01*
X159650708Y-94641168D01*
X159645160Y-94610821D01*
X159638370Y-94584372D01*
X159630177Y-94558568D01*
X159629421Y-94556332D01*
X159568954Y-94418744D01*
X159489485Y-94306606D01*
X159390704Y-94219704D01*
X159272302Y-94157826D01*
X159133967Y-94120758D01*
X158975392Y-94108288D01*
X158843848Y-94108098D01*
X158843848Y-93581699D01*
X158959447Y-93591962D01*
G37*
G36*
X151645689Y-95033664D02*
G01*
X151623434Y-95149226D01*
X151593609Y-95245355D01*
X151515014Y-95422980D01*
X151412029Y-95580979D01*
X151285959Y-95718244D01*
X151138110Y-95833665D01*
X150969787Y-95926136D01*
X150782294Y-95994547D01*
X150576937Y-96037791D01*
X150499702Y-96044705D01*
X150383876Y-96045792D01*
X150258586Y-96039007D01*
X150135603Y-96025058D01*
X150026694Y-96004655D01*
X149891300Y-95964311D01*
X149715583Y-95884868D01*
X149557959Y-95780376D01*
X149420346Y-95652702D01*
X149304664Y-95503709D01*
X149212830Y-95335262D01*
X149146763Y-95149226D01*
X149122284Y-95021688D01*
X149111047Y-94876102D01*
X149111974Y-94807326D01*
X149672964Y-94807326D01*
X149677445Y-94925097D01*
X149692690Y-95023917D01*
X149721416Y-95115600D01*
X149766344Y-95211961D01*
X149775600Y-95228986D01*
X149859135Y-95346080D01*
X149964652Y-95441204D01*
X150089361Y-95512283D01*
X150230477Y-95557244D01*
X150358706Y-95573252D01*
X150505986Y-95564363D01*
X150645781Y-95526559D01*
X150774253Y-95460941D01*
X150887560Y-95368613D01*
X150929604Y-95323055D01*
X151005878Y-95214824D01*
X151058052Y-95094981D01*
X151087861Y-94958836D01*
X151097037Y-94801695D01*
X151096662Y-94775782D01*
X151079955Y-94618381D01*
X151037965Y-94479313D01*
X150969927Y-94356670D01*
X150875076Y-94248546D01*
X150791322Y-94180353D01*
X150669180Y-94113094D01*
X150534016Y-94073540D01*
X150382588Y-94060453D01*
X150243247Y-94072910D01*
X150102404Y-94114378D01*
X149975008Y-94183769D01*
X149863894Y-94279884D01*
X149779875Y-94388035D01*
X149719659Y-94510748D01*
X149684458Y-94648945D01*
X149672964Y-94806234D01*
X149672964Y-94807326D01*
X149111974Y-94807326D01*
X149113087Y-94724786D01*
X149128246Y-94579334D01*
X149156364Y-94451339D01*
X149172968Y-94398729D01*
X149226925Y-94262111D01*
X149293960Y-94141254D01*
X149380228Y-94024422D01*
X149386552Y-94016825D01*
X149518089Y-93884844D01*
X149671608Y-93775167D01*
X149845345Y-93688859D01*
X150037536Y-93626989D01*
X150124309Y-93609759D01*
X150276438Y-93593851D01*
X150437281Y-93591526D01*
X150594546Y-93602772D01*
X150735938Y-93627579D01*
X150874721Y-93669155D01*
X151053609Y-93749109D01*
X151212621Y-93853081D01*
X151350393Y-93979752D01*
X151465557Y-94127808D01*
X151556750Y-94295929D01*
X151622604Y-94482800D01*
X151627365Y-94501550D01*
X151648019Y-94622027D01*
X151657967Y-94758549D01*
X151657731Y-94801695D01*
X151657195Y-94899600D01*
X151645689Y-95033664D01*
G37*
G36*
X144579252Y-100878593D02*
G01*
X144574628Y-100925138D01*
X144565749Y-100963091D01*
X144551234Y-101000605D01*
X144529702Y-101045830D01*
X144510084Y-101082653D01*
X144425849Y-101197790D01*
X144316763Y-101294466D01*
X144184364Y-101371727D01*
X144030189Y-101428619D01*
X143855775Y-101464188D01*
X143837695Y-101465796D01*
X143784671Y-101467488D01*
X143715524Y-101467383D01*
X143640521Y-101465423D01*
X143545361Y-101459142D01*
X143387995Y-101434155D01*
X143251732Y-101390564D01*
X143132481Y-101326877D01*
X143026150Y-101241605D01*
X142930979Y-101150827D01*
X142930979Y-101442687D01*
X142402517Y-101442687D01*
X142408726Y-100617546D01*
X142408813Y-100606012D01*
X142409317Y-100541148D01*
X142962869Y-100541148D01*
X142963963Y-100604626D01*
X142969380Y-100662167D01*
X142981173Y-100708126D01*
X143001353Y-100753606D01*
X143042356Y-100819741D01*
X143127836Y-100910861D01*
X143235325Y-100983627D01*
X143360395Y-101034576D01*
X143407713Y-101044652D01*
X143482613Y-101053359D01*
X143567185Y-101058019D01*
X143651141Y-101058370D01*
X143724192Y-101054151D01*
X143776051Y-101045103D01*
X143820315Y-101028634D01*
X143880628Y-100999420D01*
X143934280Y-100967076D01*
X143969452Y-100938138D01*
X143980477Y-100924765D01*
X144025465Y-100843396D01*
X144046163Y-100751912D01*
X144041565Y-100659178D01*
X144010669Y-100574057D01*
X143993479Y-100547830D01*
X143948291Y-100503477D01*
X143880576Y-100462444D01*
X143786402Y-100414250D01*
X143374636Y-100409073D01*
X142962869Y-100403896D01*
X142962869Y-100541148D01*
X142409317Y-100541148D01*
X142410228Y-100424015D01*
X142411584Y-100270789D01*
X142413014Y-100143389D01*
X142414649Y-100038870D01*
X142416620Y-99954286D01*
X142419058Y-99886691D01*
X142422095Y-99833139D01*
X142425862Y-99790685D01*
X142430490Y-99756383D01*
X142436112Y-99727287D01*
X142442858Y-99700453D01*
X142450859Y-99672933D01*
X142469866Y-99614281D01*
X142525279Y-99484514D01*
X142595365Y-99373961D01*
X142685049Y-99274237D01*
X142766341Y-99204750D01*
X142881239Y-99132102D01*
X143010569Y-99077734D01*
X143157910Y-99040529D01*
X143326839Y-99019368D01*
X143520935Y-99013133D01*
X143700609Y-99019286D01*
X143885814Y-99040267D01*
X144055455Y-99077276D01*
X144216581Y-99131511D01*
X144226585Y-99135576D01*
X144290106Y-99164320D01*
X144360485Y-99199911D01*
X144428710Y-99237428D01*
X144485767Y-99271952D01*
X144522644Y-99298564D01*
X144517119Y-99312340D01*
X144499563Y-99348137D01*
X144473179Y-99399827D01*
X144441190Y-99461299D01*
X144406821Y-99526440D01*
X144373297Y-99589140D01*
X144343843Y-99643286D01*
X144321685Y-99682767D01*
X144310046Y-99701471D01*
X144300891Y-99698496D01*
X144271777Y-99681899D01*
X144230376Y-99655137D01*
X144170144Y-99619074D01*
X144051725Y-99565143D01*
X143916441Y-99520306D01*
X143773481Y-99487925D01*
X143740067Y-99482549D01*
X143572908Y-99469812D01*
X143418706Y-99482295D01*
X143280142Y-99519589D01*
X143159901Y-99581285D01*
X143093276Y-99641235D01*
X143034169Y-99727456D01*
X142991153Y-99829180D01*
X142968481Y-99938474D01*
X142958623Y-100036708D01*
X143443075Y-100043520D01*
X143477777Y-100044024D01*
X143628377Y-100046823D01*
X143752363Y-100050674D01*
X143854110Y-100056222D01*
X143937993Y-100064111D01*
X144008384Y-100074985D01*
X144069659Y-100089486D01*
X144126193Y-100108261D01*
X144182358Y-100131951D01*
X144242531Y-100161202D01*
X144321851Y-100210666D01*
X144408466Y-100284254D01*
X144483457Y-100367945D01*
X144537298Y-100452330D01*
X144548844Y-100476458D01*
X144563714Y-100513030D01*
X144573191Y-100549925D01*
X144578474Y-100595034D01*
X144580765Y-100656247D01*
X144581262Y-100741453D01*
X144581225Y-100751912D01*
X144581002Y-100815307D01*
X144579252Y-100878593D01*
G37*
G36*
X158224481Y-97976927D02*
G01*
X158319306Y-98011491D01*
X158396454Y-98068120D01*
X158452658Y-98143418D01*
X158484653Y-98233990D01*
X158489174Y-98336439D01*
X158486218Y-98358300D01*
X158455623Y-98447529D01*
X158399771Y-98524819D01*
X158323718Y-98584559D01*
X158232522Y-98621141D01*
X158171153Y-98631020D01*
X158073283Y-98626671D01*
X157985002Y-98599219D01*
X157908981Y-98552516D01*
X157847888Y-98490411D01*
X157804394Y-98416753D01*
X157781168Y-98335394D01*
X157780879Y-98250182D01*
X157806198Y-98164969D01*
X157859793Y-98083603D01*
X157934873Y-98018926D01*
X158025933Y-97980136D01*
X158134306Y-97967430D01*
X158224481Y-97976927D01*
G37*
G36*
X142010169Y-93591962D02*
G01*
X142028175Y-93593660D01*
X142216213Y-93624866D01*
X142382215Y-93678645D01*
X142525906Y-93754884D01*
X142647013Y-93853470D01*
X142739642Y-93946100D01*
X142739642Y-93613811D01*
X143281764Y-93613811D01*
X143281764Y-96021469D01*
X142725841Y-96021469D01*
X142720151Y-95339831D01*
X142719262Y-95236091D01*
X142717821Y-95087342D01*
X142716284Y-94965270D01*
X142714487Y-94866621D01*
X142712266Y-94788140D01*
X142709459Y-94726574D01*
X142705902Y-94678668D01*
X142701430Y-94641168D01*
X142695882Y-94610821D01*
X142689092Y-94584372D01*
X142680899Y-94558568D01*
X142680142Y-94556332D01*
X142619676Y-94418744D01*
X142540207Y-94306606D01*
X142441426Y-94219704D01*
X142323024Y-94157826D01*
X142184689Y-94120758D01*
X142026114Y-94108288D01*
X141894570Y-94108098D01*
X141894570Y-93581699D01*
X142010169Y-93591962D01*
G37*
G36*
X138848250Y-99022762D02*
G01*
X139011979Y-99061519D01*
X139168669Y-99121700D01*
X139314203Y-99203234D01*
X139444464Y-99306045D01*
X139544271Y-99399410D01*
X139604417Y-99325241D01*
X139653070Y-99270756D01*
X139773017Y-99170584D01*
X139912548Y-99093242D01*
X140068766Y-99039854D01*
X140238775Y-99011540D01*
X140419680Y-99009423D01*
X140603773Y-99033293D01*
X140775483Y-99082145D01*
X140928782Y-99154917D01*
X141061456Y-99250776D01*
X141145166Y-99324507D01*
X141145166Y-99035029D01*
X141687288Y-99035029D01*
X141687288Y-101442687D01*
X141131306Y-101442687D01*
X141125682Y-100737132D01*
X141124530Y-100597898D01*
X141123127Y-100451899D01*
X141121605Y-100332038D01*
X141119811Y-100235136D01*
X141117588Y-100158011D01*
X141114784Y-100097484D01*
X141111243Y-100050374D01*
X141106811Y-100013500D01*
X141101334Y-99983682D01*
X141094657Y-99957740D01*
X141086627Y-99932492D01*
X141045759Y-99829777D01*
X140976962Y-99712916D01*
X140891970Y-99622833D01*
X140789133Y-99558261D01*
X140666800Y-99517935D01*
X140523321Y-99500588D01*
X140516064Y-99500301D01*
X140438379Y-99498836D01*
X140380098Y-99502382D01*
X140329828Y-99512290D01*
X140276177Y-99529912D01*
X140230298Y-99550093D01*
X140133572Y-99615975D01*
X140053287Y-99704581D01*
X139995062Y-99810307D01*
X139986447Y-99832148D01*
X139979195Y-99853299D01*
X139973216Y-99876589D01*
X139968366Y-99904994D01*
X139964496Y-99941488D01*
X139961461Y-99989047D01*
X139959114Y-100050646D01*
X139957310Y-100129259D01*
X139955900Y-100227861D01*
X139954740Y-100349427D01*
X139953682Y-100496933D01*
X139952580Y-100673353D01*
X139947879Y-101442687D01*
X139393327Y-101442687D01*
X139387703Y-100737132D01*
X139386551Y-100597898D01*
X139385148Y-100451899D01*
X139383627Y-100332038D01*
X139381832Y-100235136D01*
X139379609Y-100158011D01*
X139376805Y-100097484D01*
X139373264Y-100050374D01*
X139368832Y-100013500D01*
X139363355Y-99983682D01*
X139356679Y-99957740D01*
X139348648Y-99932492D01*
X139307781Y-99829777D01*
X139238984Y-99712916D01*
X139153992Y-99622833D01*
X139051155Y-99558261D01*
X138928822Y-99517935D01*
X138785342Y-99500588D01*
X138778085Y-99500301D01*
X138700400Y-99498836D01*
X138642119Y-99502382D01*
X138591850Y-99512290D01*
X138538198Y-99529912D01*
X138492320Y-99550093D01*
X138395593Y-99615975D01*
X138315308Y-99704581D01*
X138257083Y-99810307D01*
X138248468Y-99832148D01*
X138241216Y-99853299D01*
X138235238Y-99876589D01*
X138230387Y-99904994D01*
X138226517Y-99941488D01*
X138223482Y-99989047D01*
X138221136Y-100050646D01*
X138219331Y-100129259D01*
X138217922Y-100227861D01*
X138216761Y-100349427D01*
X138215703Y-100496933D01*
X138214602Y-100673353D01*
X138209900Y-101442687D01*
X137651685Y-101442687D01*
X137657127Y-100609574D01*
X137657388Y-100569617D01*
X137658609Y-100391156D01*
X137659810Y-100241064D01*
X137661118Y-100116417D01*
X137662662Y-100014289D01*
X137664571Y-99931755D01*
X137666973Y-99865890D01*
X137669997Y-99813769D01*
X137673770Y-99772465D01*
X137678420Y-99739054D01*
X137684078Y-99710611D01*
X137690870Y-99684210D01*
X137698924Y-99656926D01*
X137721568Y-99588354D01*
X137770356Y-99475719D01*
X137832355Y-99376477D01*
X137914427Y-99278578D01*
X137948652Y-99244297D01*
X138068144Y-99152948D01*
X138205302Y-99083469D01*
X138356010Y-99035785D01*
X138516148Y-99009821D01*
X138681601Y-99005505D01*
X138848250Y-99022762D01*
G37*
G36*
X149978562Y-98779913D02*
G01*
X148942153Y-98779913D01*
X148942153Y-101442687D01*
X148368142Y-101442687D01*
X148368142Y-98779913D01*
X147315788Y-98779913D01*
X147315788Y-98285625D01*
X149978562Y-98285625D01*
X149978562Y-98779913D01*
G37*
G36*
X167230791Y-96021469D02*
G01*
X166672957Y-96021469D01*
X166668854Y-94993718D01*
X166664752Y-93965967D01*
X166152052Y-94806367D01*
X165639352Y-95646768D01*
X165370576Y-95655904D01*
X164871507Y-94822208D01*
X164868073Y-94816472D01*
X164778818Y-94667598D01*
X164694047Y-94526606D01*
X164615241Y-94395934D01*
X164543881Y-94278021D01*
X164481449Y-94175304D01*
X164429428Y-94090223D01*
X164389298Y-94025213D01*
X164362542Y-93982715D01*
X164350641Y-93965165D01*
X164347608Y-93963605D01*
X164343612Y-93969102D01*
X164340208Y-93985804D01*
X164337350Y-94015779D01*
X164334994Y-94061097D01*
X164333097Y-94123825D01*
X164331613Y-94206032D01*
X164330498Y-94309786D01*
X164329708Y-94437156D01*
X164329199Y-94590210D01*
X164328926Y-94771016D01*
X164328845Y-94981643D01*
X164328845Y-96021469D01*
X163765542Y-96021469D01*
X163776119Y-94957157D01*
X163777963Y-94763754D01*
X163779760Y-94559411D01*
X163781416Y-94354794D01*
X163782903Y-94154497D01*
X163784190Y-93963115D01*
X163785244Y-93785243D01*
X163786036Y-93625474D01*
X163786535Y-93488403D01*
X163786710Y-93378626D01*
X163786723Y-92864407D01*
X164021908Y-92864524D01*
X164257093Y-92864640D01*
X164870967Y-93908323D01*
X164883095Y-93928940D01*
X164980769Y-94094784D01*
X165073646Y-94252143D01*
X165160465Y-94398903D01*
X165239968Y-94532950D01*
X165310895Y-94652170D01*
X165371987Y-94754450D01*
X165421984Y-94837677D01*
X165459627Y-94899737D01*
X165483656Y-94938515D01*
X165492812Y-94951900D01*
X165493111Y-94951675D01*
X165504383Y-94934978D01*
X165530584Y-94893284D01*
X165570438Y-94828695D01*
X165622668Y-94743314D01*
X165685997Y-94639241D01*
X165759148Y-94518580D01*
X165840846Y-94383432D01*
X165929811Y-94235900D01*
X166024769Y-94078084D01*
X166124442Y-93912087D01*
X166748100Y-92872380D01*
X166989445Y-92867978D01*
X167230791Y-92863577D01*
X167230791Y-96021469D01*
G37*
G36*
X146268293Y-94817640D02*
G01*
X146268095Y-94842461D01*
X146260261Y-94993986D01*
X146239609Y-95126828D01*
X146204057Y-95250955D01*
X146151519Y-95376337D01*
X146105544Y-95460064D01*
X146012339Y-95588863D01*
X145899379Y-95708896D01*
X145773949Y-95812753D01*
X145643335Y-95893030D01*
X145623143Y-95902849D01*
X145518926Y-95945650D01*
X145399710Y-95984791D01*
X145279229Y-96016127D01*
X145171218Y-96035512D01*
X145120802Y-96041061D01*
X144914207Y-96049170D01*
X144716127Y-96033676D01*
X144529946Y-95995451D01*
X144359046Y-95935370D01*
X144206812Y-95854303D01*
X144076627Y-95753125D01*
X143977674Y-95660116D01*
X144274070Y-95320158D01*
X144353510Y-95383410D01*
X144445040Y-95447599D01*
X144591210Y-95518698D01*
X144750327Y-95560975D01*
X144923438Y-95574780D01*
X144992387Y-95572729D01*
X145157878Y-95550062D01*
X145305540Y-95503078D01*
X145433931Y-95432688D01*
X145541613Y-95339802D01*
X145627146Y-95225333D01*
X145689090Y-95090191D01*
X145704177Y-95045454D01*
X145716559Y-95007282D01*
X145721312Y-94990536D01*
X145706673Y-94989579D01*
X145662845Y-94988650D01*
X145592578Y-94987793D01*
X145498638Y-94987024D01*
X145383789Y-94986360D01*
X145250795Y-94985815D01*
X145102421Y-94985406D01*
X144941431Y-94985149D01*
X144770590Y-94985060D01*
X143819869Y-94985060D01*
X143827866Y-94757847D01*
X143829894Y-94709059D01*
X143836790Y-94618331D01*
X144346514Y-94618331D01*
X145723846Y-94618331D01*
X145713287Y-94566510D01*
X145688545Y-94486823D01*
X145646709Y-94396565D01*
X145594748Y-94309688D01*
X145539368Y-94238825D01*
X145521392Y-94220419D01*
X145414587Y-94136674D01*
X145292896Y-94077096D01*
X145161358Y-94041730D01*
X145025012Y-94030623D01*
X144888895Y-94043819D01*
X144758046Y-94081366D01*
X144637503Y-94143307D01*
X144532306Y-94229689D01*
X144525592Y-94236780D01*
X144470431Y-94307738D01*
X144419695Y-94392976D01*
X144379750Y-94480555D01*
X144356960Y-94558538D01*
X144346514Y-94618331D01*
X143836790Y-94618331D01*
X143839209Y-94586507D01*
X143855643Y-94482238D01*
X143881681Y-94386323D01*
X143919808Y-94288836D01*
X143972508Y-94179850D01*
X143992626Y-94143582D01*
X144069801Y-94032776D01*
X144166131Y-93924791D01*
X144273069Y-93828536D01*
X144382068Y-93752920D01*
X144384382Y-93751578D01*
X144546954Y-93675069D01*
X144725266Y-93622424D01*
X144913438Y-93594140D01*
X145105593Y-93590713D01*
X145295850Y-93612639D01*
X145478333Y-93660415D01*
X145522714Y-93676359D01*
X145634337Y-93724546D01*
X145733278Y-93782209D01*
X145829026Y-93855425D01*
X145931073Y-93950270D01*
X145970612Y-93990195D01*
X146025840Y-94050402D01*
X146067890Y-94105163D01*
X146103879Y-94164210D01*
X146140922Y-94237276D01*
X146144089Y-94243903D01*
X146195455Y-94360393D01*
X146231207Y-94465295D01*
X146253696Y-94569326D01*
X146258678Y-94618331D01*
X146265273Y-94683202D01*
X146268293Y-94817640D01*
G37*
G36*
X154140144Y-96021469D02*
G01*
X154140144Y-95096673D01*
X153286624Y-95096673D01*
X152963243Y-95559071D01*
X152639861Y-96021469D01*
X152017320Y-96021469D01*
X152047933Y-95977621D01*
X152055510Y-95966755D01*
X152081461Y-95929500D01*
X152121776Y-95871603D01*
X152174030Y-95796547D01*
X152235798Y-95707816D01*
X152304654Y-95608894D01*
X152378173Y-95503265D01*
X152421947Y-95440372D01*
X152492949Y-95338369D01*
X152557828Y-95245176D01*
X152614165Y-95164264D01*
X152659542Y-95099108D01*
X152691541Y-95053181D01*
X152707743Y-95029956D01*
X152737685Y-94987156D01*
X152627870Y-94929450D01*
X152536283Y-94876344D01*
X152393565Y-94767691D01*
X152276997Y-94640851D01*
X152186354Y-94495499D01*
X152121407Y-94331311D01*
X152081931Y-94147960D01*
X152075630Y-94094230D01*
X152073748Y-93988513D01*
X152665254Y-93988513D01*
X152665885Y-94062400D01*
X152668954Y-94122989D01*
X152675911Y-94168963D01*
X152688202Y-94209433D01*
X152707271Y-94253515D01*
X152736120Y-94308782D01*
X152806824Y-94405580D01*
X152896042Y-94482285D01*
X153007508Y-94541740D01*
X153144959Y-94586790D01*
X153172843Y-94593553D01*
X153213839Y-94601708D01*
X153258685Y-94607885D01*
X153312054Y-94612348D01*
X153378618Y-94615361D01*
X153463051Y-94617186D01*
X153570025Y-94618089D01*
X153704214Y-94618331D01*
X154140144Y-94618331D01*
X154140144Y-93355860D01*
X153665788Y-93362331D01*
X153617538Y-93363005D01*
X153488610Y-93365080D01*
X153386067Y-93367375D01*
X153305759Y-93370175D01*
X153243530Y-93373767D01*
X153195228Y-93378436D01*
X153156699Y-93384468D01*
X153123790Y-93392147D01*
X153092347Y-93401761D01*
X153065067Y-93411197D01*
X152942749Y-93465606D01*
X152845441Y-93533322D01*
X152768362Y-93618350D01*
X152706728Y-93724697D01*
X152689955Y-93763002D01*
X152677007Y-93803356D01*
X152669526Y-93848340D01*
X152666084Y-93907032D01*
X152665254Y-93988513D01*
X152073748Y-93988513D01*
X152072285Y-93906296D01*
X152097878Y-93727085D01*
X152150974Y-93559019D01*
X152230138Y-93404522D01*
X152333936Y-93266020D01*
X152460933Y-93145935D01*
X152609694Y-93046692D01*
X152778784Y-92970714D01*
X152807896Y-92960417D01*
X152862875Y-92941616D01*
X152913843Y-92925816D01*
X152964063Y-92912726D01*
X153016799Y-92902054D01*
X153075315Y-92893510D01*
X153142874Y-92886801D01*
X153222741Y-92881637D01*
X153318177Y-92877727D01*
X153432448Y-92874778D01*
X153568817Y-92872501D01*
X153730548Y-92870604D01*
X153920904Y-92868795D01*
X154714155Y-92861617D01*
X154714155Y-96021469D01*
X154140144Y-96021469D01*
G37*
G36*
X157629143Y-93593588D02*
G01*
X157814497Y-93617344D01*
X157986173Y-93659527D01*
X158139918Y-93719939D01*
X158271478Y-93798381D01*
X158353770Y-93868402D01*
X158441217Y-93976532D01*
X158500836Y-94100009D01*
X158532776Y-94239164D01*
X158537183Y-94394329D01*
X158523819Y-94507374D01*
X158492553Y-94611172D01*
X158440606Y-94701167D01*
X158364562Y-94785090D01*
X158312288Y-94829149D01*
X158239639Y-94876659D01*
X158154197Y-94918045D01*
X158052143Y-94954641D01*
X157929659Y-94987777D01*
X157782928Y-95018787D01*
X157608129Y-95049002D01*
X157507236Y-95066020D01*
X157372699Y-95093249D01*
X157265874Y-95122159D01*
X157184210Y-95154097D01*
X157125152Y-95190407D01*
X157086149Y-95232437D01*
X157064648Y-95281532D01*
X157058095Y-95339039D01*
X157058932Y-95357046D01*
X157081106Y-95428613D01*
X157132968Y-95489694D01*
X157213915Y-95539512D01*
X157216832Y-95540851D01*
X157260057Y-95558844D01*
X157302190Y-95571180D01*
X157351476Y-95579235D01*
X157416160Y-95584386D01*
X157504488Y-95588009D01*
X157693399Y-95584225D01*
X157915335Y-95552835D01*
X158126081Y-95492407D01*
X158323796Y-95403356D01*
X158408696Y-95357372D01*
X158513917Y-95568498D01*
X158544178Y-95630086D01*
X158577350Y-95701575D01*
X158596879Y-95750729D01*
X158604000Y-95780800D01*
X158599949Y-95795042D01*
X158591491Y-95801546D01*
X158522227Y-95843072D01*
X158428246Y-95885399D01*
X158315601Y-95926651D01*
X158190346Y-95964949D01*
X158058536Y-95998414D01*
X157926225Y-96025170D01*
X157799466Y-96043338D01*
X157764364Y-96045982D01*
X157683097Y-96047670D01*
X157585407Y-96045969D01*
X157480955Y-96041357D01*
X157379400Y-96034312D01*
X157290400Y-96025311D01*
X157223614Y-96014834D01*
X157202639Y-96010280D01*
X157024327Y-95958926D01*
X156872342Y-95890254D01*
X156745977Y-95803793D01*
X156644527Y-95699069D01*
X156567287Y-95575610D01*
X156562914Y-95566638D01*
X156545217Y-95526503D01*
X156533833Y-95488726D01*
X156527395Y-95444749D01*
X156524535Y-95386011D01*
X156523886Y-95303955D01*
X156523910Y-95282631D01*
X156524927Y-95206822D01*
X156528460Y-95152319D01*
X156535901Y-95110520D01*
X156548637Y-95072826D01*
X156568060Y-95030638D01*
X156610773Y-94956692D01*
X156667041Y-94887863D01*
X156737133Y-94828299D01*
X156824060Y-94776505D01*
X156930833Y-94730985D01*
X157060463Y-94690243D01*
X157215959Y-94652783D01*
X157400333Y-94617108D01*
X157496032Y-94599862D01*
X157616506Y-94576434D01*
X157712062Y-94554853D01*
X157786726Y-94533739D01*
X157844526Y-94511710D01*
X157889489Y-94487388D01*
X157925643Y-94459393D01*
X157957015Y-94426343D01*
X157970216Y-94408421D01*
X157996103Y-94341003D01*
X157994825Y-94266941D01*
X157966061Y-94194459D01*
X157953634Y-94176778D01*
X157892761Y-94123000D01*
X157808069Y-94081814D01*
X157703880Y-94053368D01*
X157584518Y-94037809D01*
X157454306Y-94035284D01*
X157317566Y-94045942D01*
X157178622Y-94069929D01*
X157041795Y-94107393D01*
X156911410Y-94158481D01*
X156901406Y-94163054D01*
X156850225Y-94185142D01*
X156812773Y-94199156D01*
X156796559Y-94202235D01*
X156788400Y-94188975D01*
X156768875Y-94152217D01*
X156741762Y-94098862D01*
X156710201Y-94035347D01*
X156677335Y-93968106D01*
X156646304Y-93903577D01*
X156620250Y-93848194D01*
X156602314Y-93808392D01*
X156595637Y-93790607D01*
X156597928Y-93786897D01*
X156621789Y-93771452D01*
X156666062Y-93750042D01*
X156723874Y-93726123D01*
X156836026Y-93686808D01*
X157033554Y-93634869D01*
X157234418Y-93602152D01*
X157434366Y-93588457D01*
X157629143Y-93593588D01*
G37*
G36*
X157280721Y-100429081D02*
G01*
X157229212Y-100605961D01*
X157150846Y-100770370D01*
X157132985Y-100798390D01*
X157074650Y-100874053D01*
X157000794Y-100955420D01*
X156919460Y-101034470D01*
X156838695Y-101103182D01*
X156766544Y-101153533D01*
X156696040Y-101191761D01*
X156532015Y-101258419D01*
X156358183Y-101302114D01*
X156179305Y-101323051D01*
X156000144Y-101321437D01*
X155825462Y-101297475D01*
X155660022Y-101251373D01*
X155508586Y-101183334D01*
X155375917Y-101093565D01*
X155336382Y-101062323D01*
X155301352Y-101037599D01*
X155282577Y-101028124D01*
X155278279Y-101033162D01*
X155274703Y-101062802D01*
X155275449Y-101113083D01*
X155279868Y-101177166D01*
X155287308Y-101248211D01*
X155297120Y-101319377D01*
X155308652Y-101383825D01*
X155321253Y-101434715D01*
X155368152Y-101551645D01*
X155437508Y-101657191D01*
X155527067Y-101740832D01*
X155637928Y-101803174D01*
X155771191Y-101844822D01*
X155927956Y-101866381D01*
X156109322Y-101868456D01*
X156313691Y-101849037D01*
X156517739Y-101803251D01*
X156704274Y-101732081D01*
X156871844Y-101635968D01*
X156943173Y-101586893D01*
X157067518Y-101796013D01*
X157191864Y-102005133D01*
X157144880Y-102042781D01*
X157114171Y-102065756D01*
X157005781Y-102130184D01*
X156873426Y-102189684D01*
X156722936Y-102242379D01*
X156560138Y-102286386D01*
X156390862Y-102319826D01*
X156220935Y-102340819D01*
X156178503Y-102343958D01*
X155983064Y-102347862D01*
X155791023Y-102335229D01*
X155608832Y-102306994D01*
X155442944Y-102264091D01*
X155299812Y-102207455D01*
X155228907Y-102169421D01*
X155089016Y-102069182D01*
X154971634Y-101946386D01*
X154876817Y-101801116D01*
X154804626Y-101633455D01*
X154755117Y-101443483D01*
X154754653Y-101441009D01*
X154749789Y-101410786D01*
X154745594Y-101374753D01*
X154742020Y-101330540D01*
X154739020Y-101275777D01*
X154736548Y-101208091D01*
X154734557Y-101125112D01*
X154733001Y-101024469D01*
X154731832Y-100903792D01*
X154731004Y-100760709D01*
X154730471Y-100592849D01*
X154730185Y-100397843D01*
X154730113Y-100208832D01*
X155279444Y-100208832D01*
X155288731Y-100314107D01*
X155309371Y-100402267D01*
X155318316Y-100426242D01*
X155383090Y-100547141D01*
X155474040Y-100653169D01*
X155588090Y-100741295D01*
X155722164Y-100808494D01*
X155758967Y-100820233D01*
X155845286Y-100836871D01*
X155945980Y-100846529D01*
X156050088Y-100848757D01*
X156146645Y-100843104D01*
X156224689Y-100829121D01*
X156263183Y-100817418D01*
X156404368Y-100756484D01*
X156522543Y-100674562D01*
X156616521Y-100573171D01*
X156685117Y-100453831D01*
X156727145Y-100318059D01*
X156741418Y-100167376D01*
X156740242Y-100121306D01*
X156718608Y-99974117D01*
X156670112Y-99843609D01*
X156595277Y-99730633D01*
X156494627Y-99636040D01*
X156368684Y-99560679D01*
X156319193Y-99538862D01*
X156205191Y-99502388D01*
X156085855Y-99485313D01*
X155949874Y-99485607D01*
X155865299Y-99494102D01*
X155716734Y-99529878D01*
X155585905Y-99590353D01*
X155474607Y-99674327D01*
X155384637Y-99780600D01*
X155317791Y-99907971D01*
X155317687Y-99908233D01*
X155294123Y-99994103D01*
X155281308Y-100098233D01*
X155279444Y-100208832D01*
X154730113Y-100208832D01*
X154730100Y-100173318D01*
X154730100Y-99035029D01*
X155256277Y-99035029D01*
X155256277Y-99341690D01*
X155319549Y-99284527D01*
X155324306Y-99280252D01*
X155456437Y-99178790D01*
X155599371Y-99102542D01*
X155758114Y-99049341D01*
X155937672Y-99017022D01*
X155948887Y-99015749D01*
X156150497Y-99008994D01*
X156352245Y-99031514D01*
X156547884Y-99082184D01*
X156731167Y-99159879D01*
X156750465Y-99170404D01*
X156845370Y-99234433D01*
X156943132Y-99317530D01*
X157035743Y-99411705D01*
X157115198Y-99508967D01*
X157173492Y-99601328D01*
X157216309Y-99694304D01*
X157273168Y-99872343D01*
X157302794Y-100057400D01*
X157304254Y-100167376D01*
X157305280Y-100244604D01*
X157280721Y-100429081D01*
G37*
G36*
X160036802Y-99014805D02*
G01*
X160222155Y-99038561D01*
X160393832Y-99080745D01*
X160547576Y-99141157D01*
X160679137Y-99219599D01*
X160761428Y-99289620D01*
X160848875Y-99397750D01*
X160908495Y-99521227D01*
X160940434Y-99660382D01*
X160944841Y-99815547D01*
X160931478Y-99928592D01*
X160900212Y-100032390D01*
X160848264Y-100122385D01*
X160772221Y-100206308D01*
X160719946Y-100250367D01*
X160647297Y-100297877D01*
X160561855Y-100339263D01*
X160459801Y-100375859D01*
X160337318Y-100408995D01*
X160190586Y-100440005D01*
X160015788Y-100470220D01*
X159914895Y-100487237D01*
X159780357Y-100514467D01*
X159673533Y-100543377D01*
X159591868Y-100575315D01*
X159532811Y-100611625D01*
X159493808Y-100653655D01*
X159472306Y-100702750D01*
X159465753Y-100760257D01*
X159466590Y-100778263D01*
X159488764Y-100849831D01*
X159540626Y-100910912D01*
X159621573Y-100960730D01*
X159624491Y-100962069D01*
X159667716Y-100980062D01*
X159709848Y-100992398D01*
X159759134Y-101000453D01*
X159823818Y-101005604D01*
X159912147Y-101009227D01*
X160101057Y-101005443D01*
X160322993Y-100974053D01*
X160533740Y-100913625D01*
X160731454Y-100824573D01*
X160816355Y-100778589D01*
X160921576Y-100989716D01*
X160951837Y-101051303D01*
X160985009Y-101122793D01*
X161004538Y-101171946D01*
X161011659Y-101202017D01*
X161007607Y-101216259D01*
X160999149Y-101222763D01*
X160929886Y-101264289D01*
X160835905Y-101306617D01*
X160723260Y-101347869D01*
X160598005Y-101386166D01*
X160466195Y-101419632D01*
X160333883Y-101446388D01*
X160207125Y-101464556D01*
X160172023Y-101467200D01*
X160090755Y-101468888D01*
X159993066Y-101467187D01*
X159888614Y-101462575D01*
X159787058Y-101455530D01*
X159698058Y-101446529D01*
X159631273Y-101436052D01*
X159610297Y-101431498D01*
X159431985Y-101380144D01*
X159280000Y-101311472D01*
X159153636Y-101225011D01*
X159052186Y-101120287D01*
X158974945Y-100996828D01*
X158970573Y-100987856D01*
X158952876Y-100947721D01*
X158941492Y-100909944D01*
X158935054Y-100865966D01*
X158932194Y-100807229D01*
X158931544Y-100725173D01*
X158931568Y-100703848D01*
X158932585Y-100628040D01*
X158936119Y-100573537D01*
X158943559Y-100531738D01*
X158956296Y-100494044D01*
X158975718Y-100451856D01*
X159018431Y-100377910D01*
X159074699Y-100309081D01*
X159144792Y-100249517D01*
X159231719Y-100197723D01*
X159338492Y-100152203D01*
X159468121Y-100111461D01*
X159623617Y-100074000D01*
X159807991Y-100038326D01*
X159903690Y-100021080D01*
X160024165Y-99997652D01*
X160119720Y-99976071D01*
X160194385Y-99954956D01*
X160252185Y-99932928D01*
X160297148Y-99908606D01*
X160333302Y-99880610D01*
X160364673Y-99847561D01*
X160377874Y-99829639D01*
X160403761Y-99762221D01*
X160402484Y-99688159D01*
X160373719Y-99615677D01*
X160361292Y-99597996D01*
X160300419Y-99544218D01*
X160215727Y-99503032D01*
X160111539Y-99474586D01*
X159992177Y-99459027D01*
X159861965Y-99456502D01*
X159725225Y-99467160D01*
X159586280Y-99491146D01*
X159449454Y-99528610D01*
X159319068Y-99579699D01*
X159309065Y-99584271D01*
X159257884Y-99606360D01*
X159220431Y-99620374D01*
X159204218Y-99623453D01*
X159196059Y-99610193D01*
X159176534Y-99573434D01*
X159149420Y-99520080D01*
X159117860Y-99456564D01*
X159084994Y-99389324D01*
X159053963Y-99324795D01*
X159027908Y-99269411D01*
X159009972Y-99229610D01*
X159003295Y-99211825D01*
X159005586Y-99208115D01*
X159029448Y-99192670D01*
X159073721Y-99171260D01*
X159131533Y-99147341D01*
X159243684Y-99108026D01*
X159441212Y-99056087D01*
X159642077Y-99023370D01*
X159842024Y-99009675D01*
X160036802Y-99014805D01*
G37*
G36*
X158429284Y-101442687D02*
G01*
X157871218Y-101442687D01*
X157871218Y-99035029D01*
X158429284Y-99035029D01*
X158429284Y-101442687D01*
G37*
D11*
X180149580Y-98310654D02*
X179789346Y-97950420D01*
X179410654Y-99049580D02*
X179050420Y-98689346D01*
X183249580Y-96889346D02*
X182889346Y-97249580D01*
X182510654Y-96150420D02*
X182150420Y-96510654D01*
G36*
X126884063Y-99948139D02*
G01*
X126905812Y-99969544D01*
X126921832Y-99989450D01*
X126924771Y-99998490D01*
X126913088Y-99990948D01*
X126891339Y-99969544D01*
X126875319Y-99949637D01*
X126872380Y-99940598D01*
X126884063Y-99948139D01*
G37*
G36*
X123260585Y-93478574D02*
G01*
X123285191Y-93506802D01*
X123318275Y-93551836D01*
X123356479Y-93609049D01*
X123396447Y-93673817D01*
X123416652Y-93708536D01*
X123456279Y-93778982D01*
X123502509Y-93863354D01*
X123553488Y-93958073D01*
X123607364Y-94059559D01*
X123662284Y-94164231D01*
X123716392Y-94268511D01*
X123767836Y-94368817D01*
X123814763Y-94461570D01*
X123855319Y-94543191D01*
X123887650Y-94610098D01*
X123909902Y-94658713D01*
X123920224Y-94685455D01*
X123916758Y-94700173D01*
X123900054Y-94732542D01*
X123873732Y-94772984D01*
X123849368Y-94804787D01*
X123826668Y-94828880D01*
X123814734Y-94834324D01*
X123810323Y-94825499D01*
X123796751Y-94793044D01*
X123776306Y-94741499D01*
X123750856Y-94675601D01*
X123722272Y-94600085D01*
X123689050Y-94512442D01*
X123649904Y-94410768D01*
X123606934Y-94300397D01*
X123561916Y-94185795D01*
X123516626Y-94071426D01*
X123472838Y-93961755D01*
X123432328Y-93861247D01*
X123396871Y-93774366D01*
X123368242Y-93705577D01*
X123348217Y-93659344D01*
X123332519Y-93626565D01*
X123302594Y-93570538D01*
X123275010Y-93525470D01*
X123263787Y-93508223D01*
X123249737Y-93481661D01*
X123249379Y-93471196D01*
X123260585Y-93478574D01*
G37*
G36*
X120052878Y-91216535D02*
G01*
X120102473Y-91218709D01*
X120164833Y-91223984D01*
X120216469Y-91233521D01*
X120268576Y-91249651D01*
X120332348Y-91274705D01*
X120423615Y-91316579D01*
X120560863Y-91394477D01*
X120704142Y-91493188D01*
X120854308Y-91613500D01*
X121012219Y-91756200D01*
X121178731Y-91922076D01*
X121354704Y-92111916D01*
X121540992Y-92326507D01*
X121738455Y-92566638D01*
X121815146Y-92663419D01*
X121938608Y-92823539D01*
X122073655Y-93003146D01*
X122218111Y-93199200D01*
X122369798Y-93408665D01*
X122526539Y-93628504D01*
X122686158Y-93855678D01*
X122846478Y-94087151D01*
X123005321Y-94319885D01*
X123160511Y-94550842D01*
X123176912Y-94575386D01*
X123225631Y-94647468D01*
X123268133Y-94709130D01*
X123301993Y-94756932D01*
X123324788Y-94787435D01*
X123334094Y-94797198D01*
X123329867Y-94784020D01*
X123315180Y-94747189D01*
X123291261Y-94689637D01*
X123259377Y-94614278D01*
X123220795Y-94524023D01*
X123176781Y-94421785D01*
X123128601Y-94310476D01*
X123077523Y-94193009D01*
X123024811Y-94072295D01*
X122971734Y-93951247D01*
X122919556Y-93832777D01*
X122869545Y-93719798D01*
X122822967Y-93615222D01*
X122781088Y-93521961D01*
X122745176Y-93442927D01*
X122703809Y-93353393D01*
X122627307Y-93191951D01*
X122555384Y-93045596D01*
X122488954Y-92916001D01*
X122428932Y-92804834D01*
X122376234Y-92713767D01*
X122331775Y-92644470D01*
X122296470Y-92598612D01*
X122271234Y-92577865D01*
X122254002Y-92577518D01*
X122228961Y-92595998D01*
X122216080Y-92609605D01*
X122209345Y-92606620D01*
X122209688Y-92601723D01*
X122224125Y-92574210D01*
X122251218Y-92556989D01*
X122279096Y-92558284D01*
X122287858Y-92563997D01*
X122320709Y-92592578D01*
X122361879Y-92634907D01*
X122404864Y-92684050D01*
X122443154Y-92733077D01*
X122452516Y-92746478D01*
X122484233Y-92795107D01*
X122526627Y-92863076D01*
X122577221Y-92946203D01*
X122633539Y-93040306D01*
X122693108Y-93141203D01*
X122753449Y-93244712D01*
X122812089Y-93346651D01*
X122866551Y-93442837D01*
X122914359Y-93529088D01*
X122922089Y-93543234D01*
X123049766Y-93776951D01*
X123164058Y-93986311D01*
X123265488Y-94172271D01*
X123354576Y-94335789D01*
X123431845Y-94477823D01*
X123497815Y-94599331D01*
X123553008Y-94701270D01*
X123597946Y-94784599D01*
X123716645Y-95005295D01*
X123664077Y-95091833D01*
X123660303Y-95098109D01*
X123622925Y-95165124D01*
X123579458Y-95249701D01*
X123533902Y-95343429D01*
X123490257Y-95437896D01*
X123452520Y-95524689D01*
X123424690Y-95595396D01*
X123417973Y-95614224D01*
X123404994Y-95648429D01*
X123393845Y-95665769D01*
X123381272Y-95664601D01*
X123364023Y-95643278D01*
X123338845Y-95600156D01*
X123302484Y-95533589D01*
X123277053Y-95487608D01*
X123239094Y-95419802D01*
X123190718Y-95333897D01*
X123133928Y-95233407D01*
X123070720Y-95121848D01*
X123003095Y-95002736D01*
X122933053Y-94879585D01*
X122862592Y-94755912D01*
X122793712Y-94635230D01*
X122728413Y-94521056D01*
X122668693Y-94416906D01*
X122616552Y-94326293D01*
X122573989Y-94252735D01*
X122502802Y-94131419D01*
X122403508Y-93965397D01*
X122297276Y-93790865D01*
X122186253Y-93611176D01*
X122072585Y-93429685D01*
X121958418Y-93249749D01*
X121845896Y-93074722D01*
X121737167Y-92907960D01*
X121634375Y-92752817D01*
X121539667Y-92612649D01*
X121455188Y-92490810D01*
X121383085Y-92390656D01*
X121367639Y-92369907D01*
X121274143Y-92249056D01*
X121169879Y-92121048D01*
X121060237Y-91992115D01*
X120950606Y-91868488D01*
X120846378Y-91756399D01*
X120752940Y-91662079D01*
X120725231Y-91635550D01*
X120597760Y-91520990D01*
X120478390Y-91427410D01*
X120362211Y-91351205D01*
X120244314Y-91288773D01*
X120239818Y-91286656D01*
X120187539Y-91263083D01*
X120145794Y-91248214D01*
X120104715Y-91240026D01*
X120054432Y-91236494D01*
X119985078Y-91235593D01*
X119943305Y-91235123D01*
X119891594Y-91232834D01*
X119866551Y-91228779D01*
X119869295Y-91223079D01*
X119885206Y-91219798D01*
X119927772Y-91216524D01*
X119986242Y-91215344D01*
X120052878Y-91216535D01*
G37*
G36*
X128751111Y-99318262D02*
G01*
X128750067Y-99325924D01*
X128741463Y-99327910D01*
X128739730Y-99325789D01*
X128741463Y-99308613D01*
X128745816Y-99306349D01*
X128751111Y-99318262D01*
G37*
G36*
X123817067Y-94886877D02*
G01*
X123827603Y-94911070D01*
X123846243Y-94957896D01*
X123871658Y-95023879D01*
X123902520Y-95105544D01*
X123937499Y-95199417D01*
X123975268Y-95302022D01*
X123987295Y-95334887D01*
X124024138Y-95435532D01*
X124057515Y-95526662D01*
X124086130Y-95604743D01*
X124108688Y-95666242D01*
X124123893Y-95707624D01*
X124130451Y-95725356D01*
X124132632Y-95732844D01*
X124129904Y-95743447D01*
X124129641Y-95743348D01*
X124119530Y-95728821D01*
X124097202Y-95691276D01*
X124063946Y-95633032D01*
X124021053Y-95556409D01*
X123969813Y-95463724D01*
X123911515Y-95357296D01*
X123847448Y-95239443D01*
X123778904Y-95112486D01*
X123723639Y-95009786D01*
X123763958Y-94940988D01*
X123781924Y-94913269D01*
X123802920Y-94888943D01*
X123815627Y-94884485D01*
X123817067Y-94886877D01*
G37*
G36*
X122499306Y-95060399D02*
G01*
X122574274Y-95094915D01*
X122663821Y-95148364D01*
X122766432Y-95219680D01*
X122880591Y-95307802D01*
X123004784Y-95411665D01*
X123137495Y-95530205D01*
X123277209Y-95662358D01*
X123311483Y-95694771D01*
X123346902Y-95724367D01*
X123368779Y-95735745D01*
X123380328Y-95731047D01*
X123391966Y-95718669D01*
X123404125Y-95731047D01*
X123417487Y-95753365D01*
X123437764Y-95786866D01*
X123459785Y-95823048D01*
X123423404Y-95790484D01*
X123420516Y-95787924D01*
X123393835Y-95766650D01*
X123377841Y-95757920D01*
X123371371Y-95765834D01*
X123358484Y-95794800D01*
X123343506Y-95837712D01*
X123331249Y-95872183D01*
X123317704Y-95900048D01*
X123308708Y-95906459D01*
X123222751Y-95808516D01*
X123076490Y-95644555D01*
X122946361Y-95502607D01*
X122831575Y-95381920D01*
X122731341Y-95281743D01*
X122644870Y-95201324D01*
X122571371Y-95139912D01*
X122510053Y-95096755D01*
X122460126Y-95071102D01*
X122420801Y-95062202D01*
X122399192Y-95061228D01*
X122389516Y-95057637D01*
X122404729Y-95049832D01*
X122440432Y-95045879D01*
X122499306Y-95060399D01*
G37*
G36*
X123365405Y-95978733D02*
G01*
X123371921Y-95986282D01*
X123446525Y-96074266D01*
X123526713Y-96171322D01*
X123609798Y-96273979D01*
X123693090Y-96378766D01*
X123773899Y-96482212D01*
X123849537Y-96580847D01*
X123917314Y-96671200D01*
X123974541Y-96749801D01*
X124018529Y-96813179D01*
X124046589Y-96857863D01*
X124132120Y-97008211D01*
X124290406Y-97275423D01*
X124449514Y-97528753D01*
X124615242Y-97777302D01*
X124793388Y-98030171D01*
X124830179Y-98082268D01*
X124894144Y-98177163D01*
X124957692Y-98276060D01*
X125015096Y-98369966D01*
X125060628Y-98449886D01*
X125063730Y-98455625D01*
X125113173Y-98543946D01*
X125169662Y-98640237D01*
X125226469Y-98733243D01*
X125276870Y-98811709D01*
X125296015Y-98840964D01*
X125347037Y-98922427D01*
X125403321Y-99016103D01*
X125459272Y-99112589D01*
X125509296Y-99202478D01*
X125522018Y-99225810D01*
X125570457Y-99312810D01*
X125628360Y-99414695D01*
X125691443Y-99524026D01*
X125755424Y-99633363D01*
X125816018Y-99735266D01*
X125856358Y-99802551D01*
X125903166Y-99880929D01*
X125943067Y-99948088D01*
X125974054Y-100000634D01*
X125994119Y-100035174D01*
X126001254Y-100048314D01*
X125989830Y-100049057D01*
X125955641Y-100044342D01*
X125904312Y-100035047D01*
X125841534Y-100022327D01*
X125773001Y-100007340D01*
X125704405Y-99991243D01*
X125641439Y-99975193D01*
X125465524Y-99922368D01*
X125187942Y-99815296D01*
X124922595Y-99683434D01*
X124670970Y-99528291D01*
X124434553Y-99351375D01*
X124214829Y-99154194D01*
X124013286Y-98938257D01*
X123831409Y-98705071D01*
X123670684Y-98456143D01*
X123532598Y-98192983D01*
X123418636Y-97917098D01*
X123330285Y-97629997D01*
X123303651Y-97523634D01*
X123279616Y-97418510D01*
X123261356Y-97323404D01*
X123248115Y-97231828D01*
X123239137Y-97137292D01*
X123233666Y-97033306D01*
X123230945Y-96913381D01*
X123230219Y-96771025D01*
X123230225Y-96755948D01*
X123230633Y-96638007D01*
X123231917Y-96542981D01*
X123234396Y-96465458D01*
X123238390Y-96400026D01*
X123244219Y-96341274D01*
X123252202Y-96283789D01*
X123262659Y-96222160D01*
X123276227Y-96148948D01*
X123289796Y-96079498D01*
X123301556Y-96022936D01*
X123309937Y-95987076D01*
X123324822Y-95931797D01*
X123365405Y-95978733D01*
G37*
G36*
X124148718Y-95765156D02*
G01*
X124141482Y-95772393D01*
X124134245Y-95765156D01*
X124141482Y-95757920D01*
X124148718Y-95765156D01*
G37*
G36*
X129234083Y-100088724D02*
G01*
X129217252Y-100150410D01*
X129200226Y-100223722D01*
X129185776Y-100297141D01*
X129179106Y-100331875D01*
X129161822Y-100405647D01*
X129142312Y-100473162D01*
X129123655Y-100523209D01*
X129080734Y-100600360D01*
X129001935Y-100693558D01*
X128951168Y-100731097D01*
X128904425Y-100765660D01*
X128790737Y-100814450D01*
X128773930Y-100819975D01*
X128723320Y-100840999D01*
X128683413Y-100863301D01*
X128566033Y-100931546D01*
X128425394Y-100987014D01*
X128286761Y-101022042D01*
X128268523Y-101026650D01*
X128100354Y-101048883D01*
X128098395Y-101049031D01*
X128033888Y-101054570D01*
X127989492Y-101061299D01*
X127956635Y-101071982D01*
X127926744Y-101089379D01*
X127891248Y-101116253D01*
X127822176Y-101164919D01*
X127742518Y-101211125D01*
X127664063Y-101248205D01*
X127596835Y-101270893D01*
X127583392Y-101273446D01*
X127535273Y-101278931D01*
X127472500Y-101283006D01*
X127405128Y-101284933D01*
X127332593Y-101284119D01*
X127272548Y-101278594D01*
X127215988Y-101266303D01*
X127149966Y-101245232D01*
X127065069Y-101210807D01*
X126947562Y-101146685D01*
X126828942Y-101062330D01*
X126707950Y-100956511D01*
X126583324Y-100827999D01*
X126499446Y-100729281D01*
X126948470Y-100729281D01*
X126952095Y-100738275D01*
X126963440Y-100755885D01*
X126970292Y-100765359D01*
X127007886Y-100805549D01*
X127061762Y-100853048D01*
X127125043Y-100902405D01*
X127190853Y-100948169D01*
X127252313Y-100984886D01*
X127269486Y-100993814D01*
X127324485Y-101017484D01*
X127379205Y-101030473D01*
X127448180Y-101036620D01*
X127477382Y-101037660D01*
X127534207Y-101036523D01*
X127570378Y-101031004D01*
X127583824Y-101022042D01*
X127572472Y-101010578D01*
X127534253Y-100997551D01*
X127370110Y-100947795D01*
X127211460Y-100881272D01*
X127065014Y-100798370D01*
X127018825Y-100768596D01*
X126978346Y-100742982D01*
X126956058Y-100730363D01*
X126948470Y-100729281D01*
X126499446Y-100729281D01*
X126453803Y-100675563D01*
X126450619Y-100671395D01*
X127539142Y-100671395D01*
X127554460Y-100680486D01*
X127590225Y-100694251D01*
X127640437Y-100710794D01*
X127699101Y-100728215D01*
X127760219Y-100744618D01*
X127817793Y-100758105D01*
X127821259Y-100758839D01*
X127884655Y-100771640D01*
X127926168Y-100777624D01*
X127951829Y-100776588D01*
X127967668Y-100768329D01*
X127979712Y-100752643D01*
X127989818Y-100731097D01*
X127984253Y-100716545D01*
X127957460Y-100709474D01*
X127905651Y-100707578D01*
X127886301Y-100707045D01*
X127829241Y-100702865D01*
X127759688Y-100695439D01*
X127688564Y-100685862D01*
X127647029Y-100679882D01*
X127593144Y-100673109D01*
X127555111Y-100669584D01*
X127539292Y-100669986D01*
X127539142Y-100671395D01*
X126450619Y-100671395D01*
X126403333Y-100609501D01*
X128514254Y-100609501D01*
X128520260Y-100613162D01*
X128548642Y-100618661D01*
X128590682Y-100620826D01*
X128596593Y-100620792D01*
X128642255Y-100616263D01*
X128681669Y-100600660D01*
X128727938Y-100569036D01*
X128763496Y-100539406D01*
X128827881Y-100474948D01*
X128891800Y-100399105D01*
X128951812Y-100317075D01*
X129004478Y-100234056D01*
X129046356Y-100155247D01*
X129074006Y-100085847D01*
X129083988Y-100031054D01*
X129083715Y-100014888D01*
X129080973Y-99982445D01*
X129076238Y-99969544D01*
X129071236Y-99974489D01*
X129057075Y-99999356D01*
X129039085Y-100038137D01*
X128999588Y-100117809D01*
X128931976Y-100224523D01*
X128851420Y-100327923D01*
X128763252Y-100421913D01*
X128672802Y-100500392D01*
X128585398Y-100557263D01*
X128549964Y-100577536D01*
X128522222Y-100597486D01*
X128514254Y-100609501D01*
X126403333Y-100609501D01*
X126318127Y-100497973D01*
X126175034Y-100293999D01*
X126017544Y-100061246D01*
X126085382Y-100072265D01*
X126089121Y-100072863D01*
X126178091Y-100083358D01*
X126287228Y-100090749D01*
X126408310Y-100094869D01*
X126533115Y-100095551D01*
X126653422Y-100092629D01*
X126761007Y-100085938D01*
X126785890Y-100083710D01*
X126857045Y-100076799D01*
X126916016Y-100070278D01*
X126957249Y-100064794D01*
X126975186Y-100060994D01*
X126978641Y-100051987D01*
X126969272Y-100029765D01*
X126967660Y-100025480D01*
X126981384Y-100037790D01*
X127008369Y-100065391D01*
X127013837Y-100071090D01*
X127107860Y-100155834D01*
X127220598Y-100236746D01*
X127233535Y-100244900D01*
X127256551Y-100257454D01*
X127257994Y-100253829D01*
X127238900Y-100235098D01*
X127200308Y-100202338D01*
X127143254Y-100156622D01*
X127098643Y-100122064D01*
X127067325Y-100096339D01*
X127051622Y-100077267D01*
X127053581Y-100062454D01*
X127075250Y-100049504D01*
X127118675Y-100036025D01*
X127185905Y-100019621D01*
X127278987Y-99997899D01*
X127306771Y-99991226D01*
X127373917Y-99974045D01*
X127427496Y-99958806D01*
X127462613Y-99946962D01*
X127470217Y-99942437D01*
X127492123Y-99942437D01*
X127495541Y-99949452D01*
X127517474Y-99974137D01*
X127556612Y-100011831D01*
X127609339Y-100059491D01*
X127672036Y-100114071D01*
X127741087Y-100172526D01*
X127812874Y-100231810D01*
X127883780Y-100288878D01*
X127950187Y-100340684D01*
X128008478Y-100384184D01*
X128055036Y-100416332D01*
X128061972Y-100420761D01*
X128109276Y-100448807D01*
X128148476Y-100468600D01*
X128171678Y-100476096D01*
X128175093Y-100475524D01*
X128197745Y-100457466D01*
X128229492Y-100416292D01*
X128268753Y-100355030D01*
X128313941Y-100276707D01*
X128363472Y-100184348D01*
X128415764Y-100080982D01*
X128469230Y-99969635D01*
X128522287Y-99853333D01*
X128573351Y-99735103D01*
X128620837Y-99617973D01*
X128628055Y-99599557D01*
X128659829Y-99519737D01*
X128687869Y-99451276D01*
X128710515Y-99398089D01*
X128726108Y-99364094D01*
X128732989Y-99353207D01*
X128733020Y-99353239D01*
X128734215Y-99372292D01*
X128726841Y-99414847D01*
X128712042Y-99477156D01*
X128690961Y-99555474D01*
X128664738Y-99646055D01*
X128634516Y-99745153D01*
X128601439Y-99849023D01*
X128566647Y-99953917D01*
X128531283Y-100056091D01*
X128496489Y-100151798D01*
X128463408Y-100237293D01*
X128458531Y-100249497D01*
X128434268Y-100313103D01*
X128416202Y-100365411D01*
X128406006Y-100401292D01*
X128405347Y-100415615D01*
X128417883Y-100413883D01*
X128450194Y-100401997D01*
X128492808Y-100382272D01*
X128527780Y-100363834D01*
X128648084Y-100284400D01*
X128753872Y-100186342D01*
X128847087Y-100067280D01*
X128929674Y-99924831D01*
X129003578Y-99756614D01*
X129023179Y-99703845D01*
X129040065Y-99648926D01*
X129049389Y-99598270D01*
X129051304Y-99545396D01*
X129045960Y-99483825D01*
X129033512Y-99407078D01*
X129014111Y-99308675D01*
X129010058Y-99288697D01*
X128997241Y-99222337D01*
X128988007Y-99169355D01*
X128983175Y-99134726D01*
X128983568Y-99123427D01*
X128989511Y-99134637D01*
X129002705Y-99168576D01*
X129020574Y-99219400D01*
X129040997Y-99281284D01*
X129059129Y-99334949D01*
X129077696Y-99383595D01*
X129092189Y-99414676D01*
X129100479Y-99423113D01*
X129100854Y-99422698D01*
X129109398Y-99400147D01*
X129119462Y-99353997D01*
X129130467Y-99289267D01*
X129141836Y-99210976D01*
X129152992Y-99124144D01*
X129163357Y-99033790D01*
X129172354Y-98944934D01*
X129179406Y-98862594D01*
X129183934Y-98791790D01*
X129185361Y-98737543D01*
X129183110Y-98704869D01*
X129178725Y-98701438D01*
X129159404Y-98715164D01*
X129125369Y-98752914D01*
X129076969Y-98814334D01*
X128969678Y-98947153D01*
X128781967Y-99147170D01*
X128574699Y-99333655D01*
X128352033Y-99503532D01*
X128118127Y-99653722D01*
X127877141Y-99781147D01*
X127633234Y-99882731D01*
X127589748Y-99898793D01*
X127539368Y-99918750D01*
X127504921Y-99934105D01*
X127492123Y-99942437D01*
X127470217Y-99942437D01*
X127474372Y-99939964D01*
X127465437Y-99928966D01*
X127438920Y-99899471D01*
X127397524Y-99854562D01*
X127343933Y-99797128D01*
X127280833Y-99730061D01*
X127210907Y-99656251D01*
X127209248Y-99654505D01*
X127129265Y-99569388D01*
X127035949Y-99468564D01*
X126934793Y-99358064D01*
X126831292Y-99243917D01*
X126730938Y-99132154D01*
X126639227Y-99028803D01*
X126636384Y-99025579D01*
X126552890Y-98932447D01*
X126453487Y-98824087D01*
X126342757Y-98705347D01*
X126225284Y-98581079D01*
X126105651Y-98456129D01*
X125988440Y-98335349D01*
X125878234Y-98223586D01*
X125429573Y-97772956D01*
X125224225Y-97362446D01*
X125207518Y-97329020D01*
X125154762Y-97223073D01*
X125100598Y-97113667D01*
X125044028Y-96998740D01*
X124984052Y-96876229D01*
X124919669Y-96744068D01*
X124849882Y-96600197D01*
X124773689Y-96442551D01*
X124690092Y-96269066D01*
X124598092Y-96077681D01*
X124496687Y-95866330D01*
X124384880Y-95632952D01*
X124261671Y-95375483D01*
X124251395Y-95353995D01*
X124180275Y-95204900D01*
X124120849Y-95079466D01*
X124072213Y-94975624D01*
X124033464Y-94891303D01*
X124003701Y-94824435D01*
X123982019Y-94772948D01*
X123967517Y-94734774D01*
X123959291Y-94707842D01*
X123956438Y-94690082D01*
X123958056Y-94679425D01*
X123973286Y-94656879D01*
X124006508Y-94617155D01*
X124053435Y-94565235D01*
X124110230Y-94505058D01*
X124173051Y-94440560D01*
X124238058Y-94375681D01*
X124301414Y-94314358D01*
X124359276Y-94260530D01*
X124407807Y-94218136D01*
X124586096Y-94080578D01*
X124819838Y-93927294D01*
X125065451Y-93793460D01*
X125318392Y-93681277D01*
X125574116Y-93592944D01*
X125828076Y-93530662D01*
X125879164Y-93520923D01*
X125993000Y-93500576D01*
X126090980Y-93485863D01*
X126181916Y-93475943D01*
X126274619Y-93469978D01*
X126377900Y-93467126D01*
X126500570Y-93466548D01*
X126541064Y-93466750D01*
X126699769Y-93470519D01*
X126841246Y-93479766D01*
X126974746Y-93495523D01*
X127109522Y-93518823D01*
X127254827Y-93550698D01*
X127262890Y-93552625D01*
X127551191Y-93636594D01*
X127828864Y-93746746D01*
X128094390Y-93881807D01*
X128346248Y-94040504D01*
X128582918Y-94221567D01*
X128802879Y-94423721D01*
X129004612Y-94645695D01*
X129186596Y-94886215D01*
X129347312Y-95144010D01*
X129485239Y-95417806D01*
X129505038Y-95462951D01*
X129592510Y-95691105D01*
X129664039Y-95932172D01*
X129721685Y-96192904D01*
X129733532Y-96268262D01*
X129746395Y-96389022D01*
X129755699Y-96526041D01*
X129761289Y-96672169D01*
X129763011Y-96820251D01*
X129760712Y-96963137D01*
X129754238Y-97093673D01*
X129743435Y-97204706D01*
X129724687Y-97327987D01*
X129672094Y-97577266D01*
X129601296Y-97823859D01*
X129514417Y-98061620D01*
X129413578Y-98284405D01*
X129300902Y-98486068D01*
X129237728Y-98587379D01*
X129236586Y-98737543D01*
X129235361Y-98898547D01*
X129232948Y-99044536D01*
X129226178Y-99206155D01*
X129214810Y-99348929D01*
X129198385Y-99478343D01*
X129176443Y-99599879D01*
X129170894Y-99631597D01*
X129165203Y-99687706D01*
X129164049Y-99740791D01*
X129167172Y-99784425D01*
X129174315Y-99812180D01*
X129185217Y-99817629D01*
X129193737Y-99802570D01*
X129207543Y-99763602D01*
X129224762Y-99706070D01*
X129244062Y-99635069D01*
X129264116Y-99555693D01*
X129283594Y-99473036D01*
X129301166Y-99392195D01*
X129315504Y-99318262D01*
X129316105Y-99314873D01*
X129328878Y-99233488D01*
X129341829Y-99135784D01*
X129353477Y-99033745D01*
X129362341Y-98939353D01*
X129367766Y-98877057D01*
X129375878Y-98802666D01*
X129383280Y-98756175D01*
X129389711Y-98736944D01*
X129394912Y-98744335D01*
X129398621Y-98777709D01*
X129400579Y-98836429D01*
X129400526Y-98919855D01*
X129398201Y-99027350D01*
X129392570Y-99160018D01*
X129376592Y-99370818D01*
X129352775Y-99571488D01*
X129321812Y-99757435D01*
X129284395Y-99924066D01*
X129252031Y-100031054D01*
X129241220Y-100066791D01*
X129234083Y-100088724D01*
G37*
X176949580Y-95289346D02*
X176589346Y-95649580D01*
X176210654Y-94550420D02*
X175850420Y-94910654D01*
D10*
X211483800Y-90539000D02*
X211483800Y-91707400D01*
X221516800Y-97244600D02*
X212626800Y-97244600D01*
X221542200Y-89396000D02*
X221542200Y-105144000D01*
X209197800Y-89396000D02*
X196904200Y-89396000D01*
X211483800Y-102832600D02*
X211483800Y-104001000D01*
X209172400Y-105144000D02*
X210366200Y-105144000D01*
X211483800Y-99556000D02*
X211483800Y-102858000D01*
X221516800Y-89396000D02*
X213769800Y-89396000D01*
X213769800Y-105144000D02*
X221516800Y-105144000D01*
X196904200Y-89396000D02*
X196904200Y-105144000D01*
X211483800Y-99556000D02*
X211483800Y-98413000D01*
X213795200Y-105144000D02*
X212626800Y-105144000D01*
X209197800Y-97270000D02*
X210340800Y-97270000D01*
X211483800Y-94984000D02*
X211483800Y-91707400D01*
X212626800Y-89396000D02*
X213846000Y-89396000D01*
X209197800Y-105144000D02*
X196904200Y-105144000D01*
X209197800Y-97270000D02*
X196904200Y-97270000D01*
X211483800Y-94984000D02*
X211483800Y-96127000D01*
X209223200Y-89396000D02*
X210315400Y-89396000D01*
X212601400Y-105144000D02*
G75*
G03*
X211483800Y-104026400I-1117598J2D01*
G01*
X211483800Y-104026400D02*
G75*
G03*
X210366200Y-105144000I-2J-1117598D01*
G01*
X211483800Y-90539000D02*
G75*
G03*
X212626800Y-89396000I0J1143000D01*
G01*
X210340800Y-89396000D02*
G75*
G03*
X211483800Y-90539000I1143000J0D01*
G01*
X212626800Y-97270000D02*
G75*
G03*
X212626800Y-97270000I-1143000J0D01*
G01*
D11*
X173188624Y-97440051D02*
X172828390Y-97079817D01*
X173927550Y-96701125D02*
X173567316Y-96340891D01*
%LPC*%
D12*
X121180000Y-95187500D03*
D13*
X121180000Y-97727500D03*
X121180000Y-100267500D03*
D14*
X193000000Y-110200000D03*
X193000000Y-85100000D03*
D15*
X183250000Y-102350000D03*
X183250000Y-91650000D03*
D16*
X187570000Y-104500000D03*
D17*
X187570000Y-101500000D03*
X187570000Y-98500000D03*
X187570000Y-95500000D03*
X187570000Y-92500000D03*
X187570000Y-89500000D03*
D14*
X101000000Y-85100000D03*
D18*
X103775000Y-91930000D03*
X103775000Y-103360000D03*
D19*
X110125000Y-93200000D03*
D20*
X112665000Y-94470000D03*
X110125000Y-95740000D03*
X112665000Y-97010000D03*
X110125000Y-98280000D03*
X112665000Y-99550000D03*
X110125000Y-100820000D03*
X112665000Y-102090000D03*
X98695000Y-91320000D03*
X100395000Y-93860000D03*
X98695000Y-101430000D03*
X100395000Y-103970000D03*
D21*
X106825000Y-105520000D03*
X106825000Y-89770000D03*
D14*
X101000000Y-110200000D03*
D22*
X180245235Y-99145235D03*
X178954765Y-97854765D03*
D23*
X118250200Y-90000000D03*
D24*
X120790200Y-90000000D03*
X123330200Y-90000000D03*
X125870200Y-90000000D03*
X128410200Y-90000000D03*
X130950200Y-90000000D03*
X133490200Y-90000000D03*
X136030200Y-90000000D03*
X138570200Y-90000000D03*
X141110200Y-90000000D03*
X143650200Y-90000000D03*
X146190200Y-90000000D03*
X148730200Y-90000000D03*
X151270200Y-90000000D03*
X153810200Y-90000000D03*
X156350200Y-90000000D03*
X158890200Y-90000000D03*
X161430200Y-90000000D03*
X163970200Y-90000000D03*
X166510200Y-90000000D03*
X169050200Y-90000000D03*
X171590200Y-90000000D03*
X174130200Y-90000000D03*
X176670200Y-90000000D03*
X176670200Y-105240000D03*
X174130200Y-105240000D03*
X171590200Y-105240000D03*
X169050200Y-105240000D03*
X166510200Y-105240000D03*
X163970200Y-105240000D03*
X161430200Y-105240000D03*
X158890200Y-105240000D03*
X156350200Y-105240000D03*
X153810200Y-105240000D03*
X151270200Y-105240000D03*
X148730200Y-105240000D03*
X146190200Y-105240000D03*
X143650200Y-105240000D03*
X141110200Y-105240000D03*
X138570200Y-105240000D03*
X136030200Y-105240000D03*
X133490200Y-105240000D03*
X130950200Y-105240000D03*
X128410200Y-105240000D03*
X125870200Y-105240000D03*
X123330200Y-105240000D03*
X120790200Y-105240000D03*
X118250200Y-105240000D03*
D25*
X131220200Y-102801600D03*
D26*
X131220200Y-100801600D03*
X131220200Y-98801600D03*
X133220200Y-98801600D03*
X133220200Y-100801600D03*
X133220200Y-102801600D03*
D27*
X183345235Y-96054765D03*
X182054765Y-97345235D03*
X177045235Y-94454765D03*
X175754765Y-95745235D03*
D28*
X193322800Y-93333000D03*
X193322800Y-101207000D03*
D22*
X174023205Y-97535706D03*
X172732735Y-96245236D03*
M02*
