M48
; DRILL file {KiCad (6.0.8)} date Sat Nov 19 16:11:54 2022
; FORMAT={-:-/ absolute / metric / decimal}
; #@! TF.CreationDate,2022-11-19T16:11:54-06:00
; #@! TF.GenerationSoftware,Kicad,Pcbnew,(6.0.8)
; #@! TF.FileFunction,Plated,1,2,PTH
FMAT,2
METRIC
; #@! TA.AperFunction,Plated,PTH,ViaDrill
T1C0.400
; #@! TA.AperFunction,Plated,PTH,ViaDrill
T2C0.800
; #@! TA.AperFunction,Plated,PTH,ComponentDrill
T3C0.800
; #@! TA.AperFunction,Plated,PTH,ComponentDrill
T4C0.900
; #@! TA.AperFunction,Plated,PTH,ComponentDrill
T5C1.000
; #@! TA.AperFunction,Plated,PTH,ComponentDrill
T6C1.020
; #@! TA.AperFunction,Plated,PTH,ComponentDrill
T7C2.000
%
G90
G05
T1
X54.9Y-70.825
X54.9Y-73.875
X54.9Y-76.875
X54.9Y-79.87
X54.9Y-82.9
X60.7Y-82.9
X63.675Y-70.825
X63.692Y-79.863
X66.7Y-76.9
X69.7Y-73.9
X70.992Y-82.893
X73.982Y-73.9
X74.0Y-76.9
X74.0Y-79.87
X80.1Y-69.825
X81.298Y-82.897
X81.375Y-64.675
X81.8Y-73.9
X84.318Y-79.877
X84.6Y-60.7
X84.6Y-69.8
X84.625Y-64.675
X86.7Y-76.7
X87.825Y-64.675
X89.375Y-44.8
X91.608Y-82.907
X94.2Y-75.8
X94.275Y-44.8
X94.3Y-48.6
X94.628Y-79.887
X95.8Y-55.4
X95.8Y-62.475
X96.825Y-48.6
X99.6Y-55.4
X99.6Y-63.55
X99.6Y-71.7
X100.1Y-48.6
X100.6Y-44.2
X100.75Y-79.91
X102.6Y-54.15
X102.6Y-58.275
X102.95Y-66.7
X103.24Y-45.855
X103.24Y-49.98
X103.31Y-75.135
X105.475Y-52.85
X107.25Y-63.9
X107.25Y-66.7
X107.95Y-59.55
X107.95Y-76.4
X108.846Y-52.303
X108.9Y-71.1
X108.91Y-68.86
X109.438Y-73.275
X109.45Y-77.775
X110.2Y-57.275
X110.225Y-66.55
X110.26Y-55.72
X110.366Y-50.589
X110.55Y-73.3
X110.925Y-48.2
X110.975Y-61.7
X111.087Y-77.775
X111.762Y-70.406
X112.062Y-58.271
X112.2Y-66.125
X113.35Y-52.6
X113.35Y-53.975
X113.35Y-63.725
X113.35Y-68.075
X113.475Y-78.25
X114.362Y-71.406
X114.4Y-69.4
X114.525Y-57.85
X114.6Y-44.4
X114.725Y-48.825
X114.775Y-65.0
X115.15Y-54.925
X115.162Y-80.606
X116.151Y-52.085
X116.8Y-47.4
X117.0Y-56.25
X117.7Y-69.85
X117.775Y-74.775
X118.0Y-44.6
X118.325Y-56.25
X119.087Y-73.256
X119.1Y-71.4
X119.65Y-56.25
X120.126Y-59.222
X125.775Y-50.85
X127.275Y-49.425
X130.81Y-46.52
X130.81Y-51.36
X130.81Y-56.198
X133.35Y-46.53
X133.69Y-52.01
X134.26Y-59.63
X135.602Y-55.78
X138.02Y-50.69
X138.02Y-55.78
X138.02Y-60.97
X141.38Y-50.69
X141.38Y-55.78
X141.38Y-60.97
T2
X67.33Y-68.927
X74.892Y-68.898
X76.875Y-75.375
X84.45Y-72.4
X88.912Y-68.877
X90.8Y-50.825
X92.638Y-53.862
X96.5Y-68.9
X106.65Y-56.25
X111.175Y-64.725
X137.16Y-66.04
X139.7Y-45.72
T3
X66.04Y-48.3
X66.04Y-50.8
X82.55Y-48.3
X82.55Y-50.8
T4
X90.45Y-39.9
X90.45Y-42.44
X92.99Y-39.9
X92.99Y-42.44
X95.53Y-39.9
X95.53Y-42.44
X98.07Y-39.9
X98.07Y-42.44
X100.61Y-39.9
X100.61Y-42.44
X103.15Y-39.9
X103.15Y-42.44
X105.69Y-39.9
X105.69Y-42.44
X108.23Y-39.9
X108.23Y-42.44
X110.77Y-39.9
X110.77Y-42.44
X113.31Y-39.9
X113.31Y-42.44
X115.85Y-39.9
X115.85Y-42.44
X118.39Y-39.9
X118.39Y-42.44
X120.93Y-39.9
X120.93Y-42.44
X123.47Y-39.9
X123.47Y-42.44
X126.01Y-39.9
X126.01Y-42.44
X128.55Y-39.9
X128.55Y-42.44
X131.09Y-39.9
X131.09Y-42.44
X133.63Y-39.9
X133.63Y-42.44
X136.17Y-39.9
X136.17Y-42.44
X138.71Y-39.9
X138.71Y-42.44
T5
X71.12Y-58.42
X71.12Y-60.96
X71.12Y-63.5
X92.71Y-58.42
X92.71Y-60.96
X92.71Y-63.5
T6
X48.006Y-72.376
X48.006Y-75.376
X48.006Y-78.376
X48.006Y-81.376
X48.006Y-84.376
X48.006Y-87.376
T7
X50.4Y-46.976G85X50.4Y-49.076
G05
X50.4Y-54.85G85X50.4Y-56.95
G05
T0
M30
