M48
; DRILL file {KiCad (5.1.4)-1} date 1/10/2021 4:06:37 AM
; FORMAT={-:-/ absolute / inch / decimal}
; #@! TF.CreationDate,2021-01-10T04:06:37-06:00
; #@! TF.GenerationSoftware,Kicad,Pcbnew,(5.1.4)-1
; #@! TF.FileFunction,Plated,1,2,PTH
FMAT,2
INCH
T1C0.0157
T2C0.0350
T3C0.0354
T4C0.0551
T5C0.0591
T6C0.1598
%
G90
G05
T1
X4.325Y-1.73
X4.335Y-1.83
X4.395Y-1.775
X4.395Y-2.03
X4.405Y-2.4423
X4.58Y-2.24
X4.72Y-1.73
X4.72Y-2.625
X4.785Y-1.83
X4.785Y-2.58
X4.89Y-1.775
X4.89Y-3.145
X5.02Y-1.56
X5.02Y-1.775
X5.08Y-2.07
X5.08Y-2.11
X5.08Y-2.15
X5.08Y-2.2
X5.12Y-2.24
X5.15Y-1.87
X5.15Y-2.545
X5.18Y-1.9
X5.18Y-2.515
X5.3Y-1.83
X5.33Y-1.86
X5.35Y-1.73
X5.39Y-1.77
X5.42Y-1.73
X5.43Y-1.89
X5.45Y-1.77
X5.46Y-2.24
X5.46Y-2.705
X5.46Y-3.145
X5.515Y-2.625
X5.55Y-1.785
X5.6Y-1.75
X5.68Y-2.24
X5.685Y-2.58
X5.73Y-1.785
X5.73Y-2.485
X5.765Y-1.75
X5.765Y-2.45
X5.795Y-2.545
X5.835Y-1.72
X5.835Y-2.415
X5.905Y-2.515
X5.96Y-2.24
X5.975Y-1.72
X6.015Y-2.485
X6.02Y-1.72
X6.03Y-1.89
X6.03Y-2.275
X6.05Y-1.78
X6.1Y-1.79
X6.125Y-2.45
X6.145Y-1.79
X6.175Y-1.98
X6.2Y-1.73
X6.235Y-2.415
X6.28Y-1.825
X6.28Y-2.275
X6.28Y-2.58
X6.32Y-1.98
X6.32Y-2.025
X6.32Y-2.24
X6.32Y-2.545
X6.345Y-2.58
X6.405Y-1.79
X6.405Y-2.275
X6.405Y-2.45
X6.45Y-1.61
X6.455Y-2.545
X6.46Y-1.79
X6.48Y-2.025
X6.55Y-1.73
X6.565Y-2.45
X6.58Y-2.025
X6.59Y-1.76
X6.675Y-2.2
X6.715Y-2.025
X6.75Y-2.2
X6.8Y-2.11
X6.85Y-2.07
X6.85Y-2.58
X6.895Y-2.58
X6.905Y-1.79
X6.905Y-2.54
X6.95Y-2.15
X7.005Y-2.54
X7.115Y-2.58
X7.215Y-2.58
X7.215Y-3.145
T2
X4.79Y-3.145
X4.79Y-3.245
X4.79Y-3.345
X4.79Y-2.705
X4.79Y-2.805
X4.79Y-2.905
T3
X5.1001Y-1.5582
X5.1001Y-1.6582
X5.2001Y-1.5582
X5.2001Y-1.6582
X5.3001Y-1.5582
X5.3001Y-1.6582
X5.4001Y-1.5582
X5.4001Y-1.6582
X5.5001Y-1.5582
X5.5001Y-1.6582
X5.6001Y-1.5582
X5.6001Y-1.6582
X5.7001Y-1.5582
X5.7001Y-1.6582
X5.8001Y-1.5582
X5.8001Y-1.6582
X5.9001Y-1.5582
X5.9001Y-1.6582
X6.0001Y-1.5582
X6.0001Y-1.6582
X6.1001Y-1.5582
X6.1001Y-1.6582
X6.2001Y-1.5582
X6.2001Y-1.6582
X6.3001Y-1.5582
X6.3001Y-1.6582
X6.4001Y-1.5582
X6.4001Y-1.6582
X6.5001Y-1.5582
X6.5001Y-1.6582
X6.6001Y-1.5582
X6.6001Y-1.6582
X6.7001Y-1.5582
X6.7001Y-1.6582
X6.8001Y-1.5582
X6.8001Y-1.6582
X6.9001Y-1.5582
X6.9001Y-1.6582
X7.0001Y-1.5582
X7.0001Y-1.6582
X4.225Y-1.73
X4.225Y-1.83
X4.225Y-1.93
X4.225Y-2.03
T4
X3.89Y-2.44
T5
X3.7896Y-2.3396
X3.7896Y-2.5404
X3.9904Y-2.3396
X3.9904Y-2.5404
T6
X4.42Y-3.135
X4.42Y-3.445
T0
M30
