G04 #@! TF.GenerationSoftware,KiCad,Pcbnew,(6.0.8)*
G04 #@! TF.CreationDate,2022-11-19T16:18:39-06:00*
G04 #@! TF.ProjectId,NavBoard_Hardware,4e617642-6f61-4726-945f-486172647761,rev?*
G04 #@! TF.SameCoordinates,Original*
G04 #@! TF.FileFunction,Profile,NP*
%FSLAX46Y46*%
G04 Gerber Fmt 4.6, Leading zero omitted, Abs format (unit mm)*
G04 Created by KiCad (PCBNEW (6.0.8)) date 2022-11-19 16:18:39*
%MOMM*%
%LPD*%
G01*
G04 APERTURE LIST*
G04 #@! TA.AperFunction,Profile*
%ADD10C,0.050000*%
G04 #@! TD*
G04 APERTURE END LIST*
D10*
X188800000Y-111050001D02*
G75*
G03*
X193000000Y-114200000I4074300J1057401D01*
G01*
X105200000Y-84250000D02*
G75*
G03*
X101000000Y-81100000I-4074300J-1057400D01*
G01*
X197000000Y-85100000D02*
G75*
G03*
X193000000Y-81100000I-4000000J0D01*
G01*
X184199998Y-88650082D02*
G75*
G03*
X188350000Y-85700000I125502J4217482D01*
G01*
X193000000Y-114200000D02*
G75*
G03*
X197000000Y-110200000I0J4000000D01*
G01*
X197000000Y-85100000D02*
X197000000Y-110200000D01*
X184200000Y-106650000D02*
X109800000Y-106650000D01*
X97000000Y-110200000D02*
G75*
G03*
X101000000Y-114200000I4000000J0D01*
G01*
X188799999Y-111050001D02*
X188350000Y-109600001D01*
X105200000Y-84250000D02*
X105650000Y-85700000D01*
X188349922Y-109600025D02*
G75*
G03*
X184200000Y-106650000I-4024422J-1267375D01*
G01*
X188350000Y-85700000D02*
X188800000Y-84250000D01*
X101000000Y-81100000D02*
G75*
G03*
X97000000Y-85100000I0J-4000000D01*
G01*
X109800000Y-106649989D02*
G75*
G03*
X105650000Y-109600001I-125500J-4217511D01*
G01*
X105650000Y-109600001D02*
X105200001Y-111050001D01*
X109800000Y-88650000D02*
X184200000Y-88650000D01*
X193000000Y-81100000D02*
G75*
G03*
X188800000Y-84250000I-125700J-4207400D01*
G01*
X105650078Y-85699975D02*
G75*
G03*
X109800000Y-88650000I4024422J1267375D01*
G01*
X97000000Y-110200000D02*
X97000000Y-85100000D01*
X101000000Y-114200002D02*
G75*
G03*
X105200001Y-111050001I125700J4207402D01*
G01*
M02*
