G04 #@! TF.GenerationSoftware,KiCad,Pcbnew,(5.1.4)-1*
G04 #@! TF.CreationDate,2021-01-10T04:06:40-06:00*
G04 #@! TF.ProjectId,Navboard_hardware,4e617662-6f61-4726-945f-686172647761,rev?*
G04 #@! TF.SameCoordinates,Original*
G04 #@! TF.FileFunction,Legend,Top*
G04 #@! TF.FilePolarity,Positive*
%FSLAX46Y46*%
G04 Gerber Fmt 4.6, Leading zero omitted, Abs format (unit mm)*
G04 Created by KiCad (PCBNEW (5.1.4)-1) date 2021-01-10 04:06:40*
%MOMM*%
%LPD*%
G04 APERTURE LIST*
%ADD10C,0.150000*%
%ADD11C,0.120000*%
%ADD12C,0.254000*%
%ADD13C,0.010000*%
%ADD14C,0.127000*%
%ADD15C,0.200000*%
%ADD16C,0.304800*%
%ADD17C,0.300000*%
%ADD18C,0.050000*%
%ADD19C,0.152400*%
G04 APERTURE END LIST*
D10*
X143264761Y-83702380D02*
X143264761Y-82702380D01*
X143836190Y-83702380D01*
X143836190Y-82702380D01*
X144740952Y-83702380D02*
X144740952Y-83178571D01*
X144693333Y-83083333D01*
X144598095Y-83035714D01*
X144407619Y-83035714D01*
X144312380Y-83083333D01*
X144740952Y-83654761D02*
X144645714Y-83702380D01*
X144407619Y-83702380D01*
X144312380Y-83654761D01*
X144264761Y-83559523D01*
X144264761Y-83464285D01*
X144312380Y-83369047D01*
X144407619Y-83321428D01*
X144645714Y-83321428D01*
X144740952Y-83273809D01*
X145121904Y-83035714D02*
X145360000Y-83702380D01*
X145598095Y-83035714D01*
X147074285Y-83178571D02*
X147217142Y-83226190D01*
X147264761Y-83273809D01*
X147312380Y-83369047D01*
X147312380Y-83511904D01*
X147264761Y-83607142D01*
X147217142Y-83654761D01*
X147121904Y-83702380D01*
X146740952Y-83702380D01*
X146740952Y-82702380D01*
X147074285Y-82702380D01*
X147169523Y-82750000D01*
X147217142Y-82797619D01*
X147264761Y-82892857D01*
X147264761Y-82988095D01*
X147217142Y-83083333D01*
X147169523Y-83130952D01*
X147074285Y-83178571D01*
X146740952Y-83178571D01*
X147883809Y-83702380D02*
X147788571Y-83654761D01*
X147740952Y-83607142D01*
X147693333Y-83511904D01*
X147693333Y-83226190D01*
X147740952Y-83130952D01*
X147788571Y-83083333D01*
X147883809Y-83035714D01*
X148026666Y-83035714D01*
X148121904Y-83083333D01*
X148169523Y-83130952D01*
X148217142Y-83226190D01*
X148217142Y-83511904D01*
X148169523Y-83607142D01*
X148121904Y-83654761D01*
X148026666Y-83702380D01*
X147883809Y-83702380D01*
X149074285Y-83702380D02*
X149074285Y-83178571D01*
X149026666Y-83083333D01*
X148931428Y-83035714D01*
X148740952Y-83035714D01*
X148645714Y-83083333D01*
X149074285Y-83654761D02*
X148979047Y-83702380D01*
X148740952Y-83702380D01*
X148645714Y-83654761D01*
X148598095Y-83559523D01*
X148598095Y-83464285D01*
X148645714Y-83369047D01*
X148740952Y-83321428D01*
X148979047Y-83321428D01*
X149074285Y-83273809D01*
X149550476Y-83702380D02*
X149550476Y-83035714D01*
X149550476Y-83226190D02*
X149598095Y-83130952D01*
X149645714Y-83083333D01*
X149740952Y-83035714D01*
X149836190Y-83035714D01*
X150598095Y-83702380D02*
X150598095Y-82702380D01*
X150598095Y-83654761D02*
X150502857Y-83702380D01*
X150312380Y-83702380D01*
X150217142Y-83654761D01*
X150169523Y-83607142D01*
X150121904Y-83511904D01*
X150121904Y-83226190D01*
X150169523Y-83130952D01*
X150217142Y-83083333D01*
X150312380Y-83035714D01*
X150502857Y-83035714D01*
X150598095Y-83083333D01*
X152407619Y-83702380D02*
X152074285Y-83226190D01*
X151836190Y-83702380D02*
X151836190Y-82702380D01*
X152217142Y-82702380D01*
X152312380Y-82750000D01*
X152360000Y-82797619D01*
X152407619Y-82892857D01*
X152407619Y-83035714D01*
X152360000Y-83130952D01*
X152312380Y-83178571D01*
X152217142Y-83226190D01*
X151836190Y-83226190D01*
X153217142Y-83654761D02*
X153121904Y-83702380D01*
X152931428Y-83702380D01*
X152836190Y-83654761D01*
X152788571Y-83559523D01*
X152788571Y-83178571D01*
X152836190Y-83083333D01*
X152931428Y-83035714D01*
X153121904Y-83035714D01*
X153217142Y-83083333D01*
X153264761Y-83178571D01*
X153264761Y-83273809D01*
X152788571Y-83369047D01*
X153598095Y-83035714D02*
X153836190Y-83702380D01*
X154074285Y-83035714D01*
X155740952Y-83702380D02*
X155169523Y-83702380D01*
X155455238Y-83702380D02*
X155455238Y-82702380D01*
X155360000Y-82845238D01*
X155264761Y-82940476D01*
X155169523Y-82988095D01*
X140740952Y-85352380D02*
X140740952Y-84352380D01*
X141074285Y-85066666D01*
X141407619Y-84352380D01*
X141407619Y-85352380D01*
X142312380Y-85352380D02*
X142312380Y-84828571D01*
X142264761Y-84733333D01*
X142169523Y-84685714D01*
X141979047Y-84685714D01*
X141883809Y-84733333D01*
X142312380Y-85304761D02*
X142217142Y-85352380D01*
X141979047Y-85352380D01*
X141883809Y-85304761D01*
X141836190Y-85209523D01*
X141836190Y-85114285D01*
X141883809Y-85019047D01*
X141979047Y-84971428D01*
X142217142Y-84971428D01*
X142312380Y-84923809D01*
X142788571Y-85352380D02*
X142788571Y-84685714D01*
X142788571Y-84876190D02*
X142836190Y-84780952D01*
X142883809Y-84733333D01*
X142979047Y-84685714D01*
X143074285Y-84685714D01*
X143360000Y-85304761D02*
X143455238Y-85352380D01*
X143645714Y-85352380D01*
X143740952Y-85304761D01*
X143788571Y-85209523D01*
X143788571Y-85161904D01*
X143740952Y-85066666D01*
X143645714Y-85019047D01*
X143502857Y-85019047D01*
X143407619Y-84971428D01*
X143360000Y-84876190D01*
X143360000Y-84828571D01*
X143407619Y-84733333D01*
X143502857Y-84685714D01*
X143645714Y-84685714D01*
X143740952Y-84733333D01*
X145550476Y-85352380D02*
X145217142Y-84876190D01*
X144979047Y-85352380D02*
X144979047Y-84352380D01*
X145360000Y-84352380D01*
X145455238Y-84400000D01*
X145502857Y-84447619D01*
X145550476Y-84542857D01*
X145550476Y-84685714D01*
X145502857Y-84780952D01*
X145455238Y-84828571D01*
X145360000Y-84876190D01*
X144979047Y-84876190D01*
X146121904Y-85352380D02*
X146026666Y-85304761D01*
X145979047Y-85257142D01*
X145931428Y-85161904D01*
X145931428Y-84876190D01*
X145979047Y-84780952D01*
X146026666Y-84733333D01*
X146121904Y-84685714D01*
X146264761Y-84685714D01*
X146360000Y-84733333D01*
X146407619Y-84780952D01*
X146455238Y-84876190D01*
X146455238Y-85161904D01*
X146407619Y-85257142D01*
X146360000Y-85304761D01*
X146264761Y-85352380D01*
X146121904Y-85352380D01*
X146788571Y-84685714D02*
X147026666Y-85352380D01*
X147264761Y-84685714D01*
X148026666Y-85304761D02*
X147931428Y-85352380D01*
X147740952Y-85352380D01*
X147645714Y-85304761D01*
X147598095Y-85209523D01*
X147598095Y-84828571D01*
X147645714Y-84733333D01*
X147740952Y-84685714D01*
X147931428Y-84685714D01*
X148026666Y-84733333D01*
X148074285Y-84828571D01*
X148074285Y-84923809D01*
X147598095Y-85019047D01*
X148502857Y-85352380D02*
X148502857Y-84685714D01*
X148502857Y-84876190D02*
X148550476Y-84780952D01*
X148598095Y-84733333D01*
X148693333Y-84685714D01*
X148788571Y-84685714D01*
X149883809Y-85352380D02*
X149883809Y-84352380D01*
X150121904Y-84352380D01*
X150264761Y-84400000D01*
X150360000Y-84495238D01*
X150407619Y-84590476D01*
X150455238Y-84780952D01*
X150455238Y-84923809D01*
X150407619Y-85114285D01*
X150360000Y-85209523D01*
X150264761Y-85304761D01*
X150121904Y-85352380D01*
X149883809Y-85352380D01*
X151264761Y-85304761D02*
X151169523Y-85352380D01*
X150979047Y-85352380D01*
X150883809Y-85304761D01*
X150836190Y-85209523D01*
X150836190Y-84828571D01*
X150883809Y-84733333D01*
X150979047Y-84685714D01*
X151169523Y-84685714D01*
X151264761Y-84733333D01*
X151312380Y-84828571D01*
X151312380Y-84923809D01*
X150836190Y-85019047D01*
X151693333Y-85304761D02*
X151788571Y-85352380D01*
X151979047Y-85352380D01*
X152074285Y-85304761D01*
X152121904Y-85209523D01*
X152121904Y-85161904D01*
X152074285Y-85066666D01*
X151979047Y-85019047D01*
X151836190Y-85019047D01*
X151740952Y-84971428D01*
X151693333Y-84876190D01*
X151693333Y-84828571D01*
X151740952Y-84733333D01*
X151836190Y-84685714D01*
X151979047Y-84685714D01*
X152074285Y-84733333D01*
X152550476Y-85352380D02*
X152550476Y-84685714D01*
X152550476Y-84352380D02*
X152502857Y-84400000D01*
X152550476Y-84447619D01*
X152598095Y-84400000D01*
X152550476Y-84352380D01*
X152550476Y-84447619D01*
X153455238Y-84685714D02*
X153455238Y-85495238D01*
X153407619Y-85590476D01*
X153360000Y-85638095D01*
X153264761Y-85685714D01*
X153121904Y-85685714D01*
X153026666Y-85638095D01*
X153455238Y-85304761D02*
X153360000Y-85352380D01*
X153169523Y-85352380D01*
X153074285Y-85304761D01*
X153026666Y-85257142D01*
X152979047Y-85161904D01*
X152979047Y-84876190D01*
X153026666Y-84780952D01*
X153074285Y-84733333D01*
X153169523Y-84685714D01*
X153360000Y-84685714D01*
X153455238Y-84733333D01*
X153931428Y-84685714D02*
X153931428Y-85352380D01*
X153931428Y-84780952D02*
X153979047Y-84733333D01*
X154074285Y-84685714D01*
X154217142Y-84685714D01*
X154312380Y-84733333D01*
X154360000Y-84828571D01*
X154360000Y-85352380D01*
X155455238Y-84352380D02*
X156026666Y-84352380D01*
X155740952Y-85352380D02*
X155740952Y-84352380D01*
X156740952Y-85304761D02*
X156645714Y-85352380D01*
X156455238Y-85352380D01*
X156360000Y-85304761D01*
X156312380Y-85209523D01*
X156312380Y-84828571D01*
X156360000Y-84733333D01*
X156455238Y-84685714D01*
X156645714Y-84685714D01*
X156740952Y-84733333D01*
X156788571Y-84828571D01*
X156788571Y-84923809D01*
X156312380Y-85019047D01*
X157645714Y-85352380D02*
X157645714Y-84828571D01*
X157598095Y-84733333D01*
X157502857Y-84685714D01*
X157312380Y-84685714D01*
X157217142Y-84733333D01*
X157645714Y-85304761D02*
X157550476Y-85352380D01*
X157312380Y-85352380D01*
X157217142Y-85304761D01*
X157169523Y-85209523D01*
X157169523Y-85114285D01*
X157217142Y-85019047D01*
X157312380Y-84971428D01*
X157550476Y-84971428D01*
X157645714Y-84923809D01*
X158121904Y-85352380D02*
X158121904Y-84685714D01*
X158121904Y-84780952D02*
X158169523Y-84733333D01*
X158264761Y-84685714D01*
X158407619Y-84685714D01*
X158502857Y-84733333D01*
X158550476Y-84828571D01*
X158550476Y-85352380D01*
X158550476Y-84828571D02*
X158598095Y-84733333D01*
X158693333Y-84685714D01*
X158836190Y-84685714D01*
X158931428Y-84733333D01*
X158979047Y-84828571D01*
X158979047Y-85352380D01*
X142645714Y-87002380D02*
X142645714Y-86002380D01*
X142979047Y-86716666D01*
X143312380Y-86002380D01*
X143312380Y-87002380D01*
X143788571Y-87002380D02*
X143788571Y-86335714D01*
X143788571Y-86002380D02*
X143740952Y-86050000D01*
X143788571Y-86097619D01*
X143836190Y-86050000D01*
X143788571Y-86002380D01*
X143788571Y-86097619D01*
X144217142Y-86954761D02*
X144312380Y-87002380D01*
X144502857Y-87002380D01*
X144598095Y-86954761D01*
X144645714Y-86859523D01*
X144645714Y-86811904D01*
X144598095Y-86716666D01*
X144502857Y-86669047D01*
X144360000Y-86669047D01*
X144264761Y-86621428D01*
X144217142Y-86526190D01*
X144217142Y-86478571D01*
X144264761Y-86383333D01*
X144360000Y-86335714D01*
X144502857Y-86335714D01*
X144598095Y-86383333D01*
X145026666Y-86954761D02*
X145121904Y-87002380D01*
X145312380Y-87002380D01*
X145407619Y-86954761D01*
X145455238Y-86859523D01*
X145455238Y-86811904D01*
X145407619Y-86716666D01*
X145312380Y-86669047D01*
X145169523Y-86669047D01*
X145074285Y-86621428D01*
X145026666Y-86526190D01*
X145026666Y-86478571D01*
X145074285Y-86383333D01*
X145169523Y-86335714D01*
X145312380Y-86335714D01*
X145407619Y-86383333D01*
X146026666Y-87002380D02*
X145931428Y-86954761D01*
X145883809Y-86907142D01*
X145836190Y-86811904D01*
X145836190Y-86526190D01*
X145883809Y-86430952D01*
X145931428Y-86383333D01*
X146026666Y-86335714D01*
X146169523Y-86335714D01*
X146264761Y-86383333D01*
X146312380Y-86430952D01*
X146360000Y-86526190D01*
X146360000Y-86811904D01*
X146312380Y-86907142D01*
X146264761Y-86954761D01*
X146169523Y-87002380D01*
X146026666Y-87002380D01*
X147217142Y-86335714D02*
X147217142Y-87002380D01*
X146788571Y-86335714D02*
X146788571Y-86859523D01*
X146836190Y-86954761D01*
X146931428Y-87002380D01*
X147074285Y-87002380D01*
X147169523Y-86954761D01*
X147217142Y-86907142D01*
X147693333Y-87002380D02*
X147693333Y-86335714D01*
X147693333Y-86526190D02*
X147740952Y-86430952D01*
X147788571Y-86383333D01*
X147883809Y-86335714D01*
X147979047Y-86335714D01*
X148312380Y-87002380D02*
X148312380Y-86335714D01*
X148312380Y-86002380D02*
X148264761Y-86050000D01*
X148312380Y-86097619D01*
X148360000Y-86050000D01*
X148312380Y-86002380D01*
X148312380Y-86097619D01*
X149502857Y-86954761D02*
X149645714Y-87002380D01*
X149883809Y-87002380D01*
X149979047Y-86954761D01*
X150026666Y-86907142D01*
X150074285Y-86811904D01*
X150074285Y-86716666D01*
X150026666Y-86621428D01*
X149979047Y-86573809D01*
X149883809Y-86526190D01*
X149693333Y-86478571D01*
X149598095Y-86430952D01*
X149550476Y-86383333D01*
X149502857Y-86288095D01*
X149502857Y-86192857D01*
X149550476Y-86097619D01*
X149598095Y-86050000D01*
X149693333Y-86002380D01*
X149931428Y-86002380D01*
X150074285Y-86050000D01*
X151312380Y-87002380D02*
X151264761Y-87002380D01*
X151169523Y-86954761D01*
X151026666Y-86811904D01*
X150788571Y-86526190D01*
X150693333Y-86383333D01*
X150645714Y-86240476D01*
X150645714Y-86145238D01*
X150693333Y-86050000D01*
X150788571Y-86002380D01*
X150836190Y-86002380D01*
X150931428Y-86050000D01*
X150979047Y-86145238D01*
X150979047Y-86192857D01*
X150931428Y-86288095D01*
X150883809Y-86335714D01*
X150598095Y-86526190D01*
X150550476Y-86573809D01*
X150502857Y-86669047D01*
X150502857Y-86811904D01*
X150550476Y-86907142D01*
X150598095Y-86954761D01*
X150693333Y-87002380D01*
X150836190Y-87002380D01*
X150931428Y-86954761D01*
X150979047Y-86907142D01*
X151121904Y-86716666D01*
X151169523Y-86573809D01*
X151169523Y-86478571D01*
X151598095Y-86002380D02*
X152169523Y-86002380D01*
X151883809Y-87002380D02*
X151883809Y-86002380D01*
X152550476Y-86954761D02*
X152550476Y-87002380D01*
X152502857Y-87097619D01*
X152455238Y-87145238D01*
X153693333Y-86097619D02*
X153740952Y-86050000D01*
X153836190Y-86002380D01*
X154074285Y-86002380D01*
X154169523Y-86050000D01*
X154217142Y-86097619D01*
X154264761Y-86192857D01*
X154264761Y-86288095D01*
X154217142Y-86430952D01*
X153645714Y-87002380D01*
X154264761Y-87002380D01*
X154883809Y-86002380D02*
X154979047Y-86002380D01*
X155074285Y-86050000D01*
X155121904Y-86097619D01*
X155169523Y-86192857D01*
X155217142Y-86383333D01*
X155217142Y-86621428D01*
X155169523Y-86811904D01*
X155121904Y-86907142D01*
X155074285Y-86954761D01*
X154979047Y-87002380D01*
X154883809Y-87002380D01*
X154788571Y-86954761D01*
X154740952Y-86907142D01*
X154693333Y-86811904D01*
X154645714Y-86621428D01*
X154645714Y-86383333D01*
X154693333Y-86192857D01*
X154740952Y-86097619D01*
X154788571Y-86050000D01*
X154883809Y-86002380D01*
X155598095Y-86097619D02*
X155645714Y-86050000D01*
X155740952Y-86002380D01*
X155979047Y-86002380D01*
X156074285Y-86050000D01*
X156121904Y-86097619D01*
X156169523Y-86192857D01*
X156169523Y-86288095D01*
X156121904Y-86430952D01*
X155550476Y-87002380D01*
X156169523Y-87002380D01*
X157121904Y-87002380D02*
X156550476Y-87002380D01*
X156836190Y-87002380D02*
X156836190Y-86002380D01*
X156740952Y-86145238D01*
X156645714Y-86240476D01*
X156550476Y-86288095D01*
X144264761Y-88366666D02*
X144740952Y-88366666D01*
X144169523Y-88652380D02*
X144502857Y-87652380D01*
X144836190Y-88652380D01*
X145169523Y-87985714D02*
X145169523Y-88652380D01*
X145169523Y-88080952D02*
X145217142Y-88033333D01*
X145312380Y-87985714D01*
X145455238Y-87985714D01*
X145550476Y-88033333D01*
X145598095Y-88128571D01*
X145598095Y-88652380D01*
X145931428Y-87985714D02*
X146312380Y-87985714D01*
X146074285Y-87652380D02*
X146074285Y-88509523D01*
X146121904Y-88604761D01*
X146217142Y-88652380D01*
X146312380Y-88652380D01*
X146645714Y-88652380D02*
X146645714Y-87652380D01*
X147074285Y-88652380D02*
X147074285Y-88128571D01*
X147026666Y-88033333D01*
X146931428Y-87985714D01*
X146788571Y-87985714D01*
X146693333Y-88033333D01*
X146645714Y-88080952D01*
X147693333Y-88652380D02*
X147598095Y-88604761D01*
X147550476Y-88557142D01*
X147502857Y-88461904D01*
X147502857Y-88176190D01*
X147550476Y-88080952D01*
X147598095Y-88033333D01*
X147693333Y-87985714D01*
X147836190Y-87985714D01*
X147931428Y-88033333D01*
X147979047Y-88080952D01*
X148026666Y-88176190D01*
X148026666Y-88461904D01*
X147979047Y-88557142D01*
X147931428Y-88604761D01*
X147836190Y-88652380D01*
X147693333Y-88652380D01*
X148455238Y-87985714D02*
X148455238Y-88652380D01*
X148455238Y-88080952D02*
X148502857Y-88033333D01*
X148598095Y-87985714D01*
X148740952Y-87985714D01*
X148836190Y-88033333D01*
X148883809Y-88128571D01*
X148883809Y-88652380D01*
X149264761Y-87985714D02*
X149502857Y-88652380D01*
X149740952Y-87985714D02*
X149502857Y-88652380D01*
X149407619Y-88890476D01*
X149360000Y-88938095D01*
X149264761Y-88985714D01*
X151455238Y-88652380D02*
X151121904Y-88176190D01*
X150883809Y-88652380D02*
X150883809Y-87652380D01*
X151264761Y-87652380D01*
X151360000Y-87700000D01*
X151407619Y-87747619D01*
X151455238Y-87842857D01*
X151455238Y-87985714D01*
X151407619Y-88080952D01*
X151360000Y-88128571D01*
X151264761Y-88176190D01*
X150883809Y-88176190D01*
X152026666Y-88652380D02*
X151931428Y-88604761D01*
X151883809Y-88557142D01*
X151836190Y-88461904D01*
X151836190Y-88176190D01*
X151883809Y-88080952D01*
X151931428Y-88033333D01*
X152026666Y-87985714D01*
X152169523Y-87985714D01*
X152264761Y-88033333D01*
X152312380Y-88080952D01*
X152360000Y-88176190D01*
X152360000Y-88461904D01*
X152312380Y-88557142D01*
X152264761Y-88604761D01*
X152169523Y-88652380D01*
X152026666Y-88652380D01*
X152788571Y-88652380D02*
X152788571Y-87652380D01*
X152788571Y-88033333D02*
X152883809Y-87985714D01*
X153074285Y-87985714D01*
X153169523Y-88033333D01*
X153217142Y-88080952D01*
X153264761Y-88176190D01*
X153264761Y-88461904D01*
X153217142Y-88557142D01*
X153169523Y-88604761D01*
X153074285Y-88652380D01*
X152883809Y-88652380D01*
X152788571Y-88604761D01*
X153836190Y-88652380D02*
X153740952Y-88604761D01*
X153693333Y-88509523D01*
X153693333Y-87652380D01*
X154598095Y-88604761D02*
X154502857Y-88652380D01*
X154312380Y-88652380D01*
X154217142Y-88604761D01*
X154169523Y-88509523D01*
X154169523Y-88128571D01*
X154217142Y-88033333D01*
X154312380Y-87985714D01*
X154502857Y-87985714D01*
X154598095Y-88033333D01*
X154645714Y-88128571D01*
X154645714Y-88223809D01*
X154169523Y-88319047D01*
X155026666Y-88604761D02*
X155121904Y-88652380D01*
X155312380Y-88652380D01*
X155407619Y-88604761D01*
X155455238Y-88509523D01*
X155455238Y-88461904D01*
X155407619Y-88366666D01*
X155312380Y-88319047D01*
X155169523Y-88319047D01*
X155074285Y-88271428D01*
X155026666Y-88176190D01*
X155026666Y-88128571D01*
X155074285Y-88033333D01*
X155169523Y-87985714D01*
X155312380Y-87985714D01*
X155407619Y-88033333D01*
D11*
X182880000Y-80772000D02*
G75*
G02X181991000Y-81661000I-889000J0D01*
G01*
X181991000Y-61722000D02*
G75*
G02X182880000Y-62611000I0J-889000D01*
G01*
X140081000Y-62611000D02*
G75*
G02X140970000Y-61722000I889000J0D01*
G01*
X140970000Y-81661000D02*
G75*
G02X140081000Y-80772000I0J889000D01*
G01*
X182880000Y-80772000D02*
X182880000Y-69977000D01*
X140081000Y-77470000D02*
X140081000Y-80772000D01*
D10*
X180300380Y-74231476D02*
X180300380Y-74707666D01*
X180776571Y-74755285D01*
X180728952Y-74707666D01*
X180681333Y-74612428D01*
X180681333Y-74374333D01*
X180728952Y-74279095D01*
X180776571Y-74231476D01*
X180871809Y-74183857D01*
X181109904Y-74183857D01*
X181205142Y-74231476D01*
X181252761Y-74279095D01*
X181300380Y-74374333D01*
X181300380Y-74612428D01*
X181252761Y-74707666D01*
X181205142Y-74755285D01*
X180300380Y-73898142D02*
X181300380Y-73564809D01*
X180300380Y-73231476D01*
X177982571Y-80001666D02*
X178030190Y-79858809D01*
X178077809Y-79811190D01*
X178173047Y-79763571D01*
X178315904Y-79763571D01*
X178411142Y-79811190D01*
X178458761Y-79858809D01*
X178506380Y-79954047D01*
X178506380Y-80335000D01*
X177506380Y-80335000D01*
X177506380Y-80001666D01*
X177554000Y-79906428D01*
X177601619Y-79858809D01*
X177696857Y-79811190D01*
X177792095Y-79811190D01*
X177887333Y-79858809D01*
X177934952Y-79906428D01*
X177982571Y-80001666D01*
X177982571Y-80335000D01*
X178506380Y-79335000D02*
X177506380Y-79335000D01*
X178220666Y-79001666D01*
X177506380Y-78668333D01*
X178506380Y-78668333D01*
X177506380Y-78287380D02*
X178506380Y-77620714D01*
X177506380Y-77620714D02*
X178506380Y-78287380D01*
X178601619Y-77477857D02*
X178601619Y-76715952D01*
X178506380Y-76477857D02*
X177506380Y-76477857D01*
X178220666Y-76144523D01*
X177506380Y-75811190D01*
X178506380Y-75811190D01*
X177506380Y-75144523D02*
X177506380Y-74954047D01*
X177554000Y-74858809D01*
X177649238Y-74763571D01*
X177839714Y-74715952D01*
X178173047Y-74715952D01*
X178363523Y-74763571D01*
X178458761Y-74858809D01*
X178506380Y-74954047D01*
X178506380Y-75144523D01*
X178458761Y-75239761D01*
X178363523Y-75335000D01*
X178173047Y-75382619D01*
X177839714Y-75382619D01*
X177649238Y-75335000D01*
X177554000Y-75239761D01*
X177506380Y-75144523D01*
X178458761Y-74335000D02*
X178506380Y-74192142D01*
X178506380Y-73954047D01*
X178458761Y-73858809D01*
X178411142Y-73811190D01*
X178315904Y-73763571D01*
X178220666Y-73763571D01*
X178125428Y-73811190D01*
X178077809Y-73858809D01*
X178030190Y-73954047D01*
X177982571Y-74144523D01*
X177934952Y-74239761D01*
X177887333Y-74287380D01*
X177792095Y-74335000D01*
X177696857Y-74335000D01*
X177601619Y-74287380D01*
X177554000Y-74239761D01*
X177506380Y-74144523D01*
X177506380Y-73906428D01*
X177554000Y-73763571D01*
X178506380Y-73335000D02*
X177506380Y-73335000D01*
X175585380Y-80335000D02*
X174585380Y-80335000D01*
X175299666Y-80001666D01*
X174585380Y-79668333D01*
X175585380Y-79668333D01*
X175013952Y-79049285D02*
X174966333Y-79144523D01*
X174918714Y-79192142D01*
X174823476Y-79239761D01*
X174775857Y-79239761D01*
X174680619Y-79192142D01*
X174633000Y-79144523D01*
X174585380Y-79049285D01*
X174585380Y-78858809D01*
X174633000Y-78763571D01*
X174680619Y-78715952D01*
X174775857Y-78668333D01*
X174823476Y-78668333D01*
X174918714Y-78715952D01*
X174966333Y-78763571D01*
X175013952Y-78858809D01*
X175013952Y-79049285D01*
X175061571Y-79144523D01*
X175109190Y-79192142D01*
X175204428Y-79239761D01*
X175394904Y-79239761D01*
X175490142Y-79192142D01*
X175537761Y-79144523D01*
X175585380Y-79049285D01*
X175585380Y-78858809D01*
X175537761Y-78763571D01*
X175490142Y-78715952D01*
X175394904Y-78668333D01*
X175204428Y-78668333D01*
X175109190Y-78715952D01*
X175061571Y-78763571D01*
X175013952Y-78858809D01*
X175585380Y-78239761D02*
X174585380Y-78239761D01*
X174585380Y-77858809D01*
X174633000Y-77763571D01*
X174680619Y-77715952D01*
X174775857Y-77668333D01*
X174918714Y-77668333D01*
X175013952Y-77715952D01*
X175061571Y-77763571D01*
X175109190Y-77858809D01*
X175109190Y-78239761D01*
X175680619Y-77477857D02*
X175680619Y-76715952D01*
X175585380Y-76477857D02*
X174585380Y-76477857D01*
X175299666Y-76144523D01*
X174585380Y-75811190D01*
X175585380Y-75811190D01*
X174585380Y-75144523D02*
X174585380Y-74954047D01*
X174633000Y-74858809D01*
X174728238Y-74763571D01*
X174918714Y-74715952D01*
X175252047Y-74715952D01*
X175442523Y-74763571D01*
X175537761Y-74858809D01*
X175585380Y-74954047D01*
X175585380Y-75144523D01*
X175537761Y-75239761D01*
X175442523Y-75335000D01*
X175252047Y-75382619D01*
X174918714Y-75382619D01*
X174728238Y-75335000D01*
X174633000Y-75239761D01*
X174585380Y-75144523D01*
X175537761Y-74335000D02*
X175585380Y-74192142D01*
X175585380Y-73954047D01*
X175537761Y-73858809D01*
X175490142Y-73811190D01*
X175394904Y-73763571D01*
X175299666Y-73763571D01*
X175204428Y-73811190D01*
X175156809Y-73858809D01*
X175109190Y-73954047D01*
X175061571Y-74144523D01*
X175013952Y-74239761D01*
X174966333Y-74287380D01*
X174871095Y-74335000D01*
X174775857Y-74335000D01*
X174680619Y-74287380D01*
X174633000Y-74239761D01*
X174585380Y-74144523D01*
X174585380Y-73906428D01*
X174633000Y-73763571D01*
X175585380Y-73335000D02*
X174585380Y-73335000D01*
X172791380Y-80335000D02*
X171791380Y-80335000D01*
X172505666Y-80001666D01*
X171791380Y-79668333D01*
X172791380Y-79668333D01*
X172219952Y-79049285D02*
X172172333Y-79144523D01*
X172124714Y-79192142D01*
X172029476Y-79239761D01*
X171981857Y-79239761D01*
X171886619Y-79192142D01*
X171839000Y-79144523D01*
X171791380Y-79049285D01*
X171791380Y-78858809D01*
X171839000Y-78763571D01*
X171886619Y-78715952D01*
X171981857Y-78668333D01*
X172029476Y-78668333D01*
X172124714Y-78715952D01*
X172172333Y-78763571D01*
X172219952Y-78858809D01*
X172219952Y-79049285D01*
X172267571Y-79144523D01*
X172315190Y-79192142D01*
X172410428Y-79239761D01*
X172600904Y-79239761D01*
X172696142Y-79192142D01*
X172743761Y-79144523D01*
X172791380Y-79049285D01*
X172791380Y-78858809D01*
X172743761Y-78763571D01*
X172696142Y-78715952D01*
X172600904Y-78668333D01*
X172410428Y-78668333D01*
X172315190Y-78715952D01*
X172267571Y-78763571D01*
X172219952Y-78858809D01*
X172791380Y-78239761D02*
X171791380Y-78239761D01*
X171791380Y-77858809D01*
X171839000Y-77763571D01*
X171886619Y-77715952D01*
X171981857Y-77668333D01*
X172124714Y-77668333D01*
X172219952Y-77715952D01*
X172267571Y-77763571D01*
X172315190Y-77858809D01*
X172315190Y-78239761D01*
X172886619Y-77477857D02*
X172886619Y-76715952D01*
X172791380Y-76477857D02*
X171791380Y-76477857D01*
X172505666Y-76144523D01*
X171791380Y-75811190D01*
X172791380Y-75811190D01*
X172791380Y-75335000D02*
X171791380Y-75335000D01*
X172743761Y-74906428D02*
X172791380Y-74763571D01*
X172791380Y-74525476D01*
X172743761Y-74430238D01*
X172696142Y-74382619D01*
X172600904Y-74335000D01*
X172505666Y-74335000D01*
X172410428Y-74382619D01*
X172362809Y-74430238D01*
X172315190Y-74525476D01*
X172267571Y-74715952D01*
X172219952Y-74811190D01*
X172172333Y-74858809D01*
X172077095Y-74906428D01*
X171981857Y-74906428D01*
X171886619Y-74858809D01*
X171839000Y-74811190D01*
X171791380Y-74715952D01*
X171791380Y-74477857D01*
X171839000Y-74335000D01*
X171791380Y-73715952D02*
X171791380Y-73525476D01*
X171839000Y-73430238D01*
X171934238Y-73335000D01*
X172124714Y-73287380D01*
X172458047Y-73287380D01*
X172648523Y-73335000D01*
X172743761Y-73430238D01*
X172791380Y-73525476D01*
X172791380Y-73715952D01*
X172743761Y-73811190D01*
X172648523Y-73906428D01*
X172458047Y-73954047D01*
X172124714Y-73954047D01*
X171934238Y-73906428D01*
X171839000Y-73811190D01*
X171791380Y-73715952D01*
X169997380Y-78612666D02*
X168997380Y-78612666D01*
X169711666Y-78279333D01*
X168997380Y-77946000D01*
X169997380Y-77946000D01*
X169425952Y-77326952D02*
X169378333Y-77422190D01*
X169330714Y-77469809D01*
X169235476Y-77517428D01*
X169187857Y-77517428D01*
X169092619Y-77469809D01*
X169045000Y-77422190D01*
X168997380Y-77326952D01*
X168997380Y-77136476D01*
X169045000Y-77041238D01*
X169092619Y-76993619D01*
X169187857Y-76946000D01*
X169235476Y-76946000D01*
X169330714Y-76993619D01*
X169378333Y-77041238D01*
X169425952Y-77136476D01*
X169425952Y-77326952D01*
X169473571Y-77422190D01*
X169521190Y-77469809D01*
X169616428Y-77517428D01*
X169806904Y-77517428D01*
X169902142Y-77469809D01*
X169949761Y-77422190D01*
X169997380Y-77326952D01*
X169997380Y-77136476D01*
X169949761Y-77041238D01*
X169902142Y-76993619D01*
X169806904Y-76946000D01*
X169616428Y-76946000D01*
X169521190Y-76993619D01*
X169473571Y-77041238D01*
X169425952Y-77136476D01*
X169997380Y-76517428D02*
X168997380Y-76517428D01*
X168997380Y-76136476D01*
X169045000Y-76041238D01*
X169092619Y-75993619D01*
X169187857Y-75946000D01*
X169330714Y-75946000D01*
X169425952Y-75993619D01*
X169473571Y-76041238D01*
X169521190Y-76136476D01*
X169521190Y-76517428D01*
X170092619Y-75755523D02*
X170092619Y-74993619D01*
X169902142Y-74184095D02*
X169949761Y-74231714D01*
X169997380Y-74374571D01*
X169997380Y-74469809D01*
X169949761Y-74612666D01*
X169854523Y-74707904D01*
X169759285Y-74755523D01*
X169568809Y-74803142D01*
X169425952Y-74803142D01*
X169235476Y-74755523D01*
X169140238Y-74707904D01*
X169045000Y-74612666D01*
X168997380Y-74469809D01*
X168997380Y-74374571D01*
X169045000Y-74231714D01*
X169092619Y-74184095D01*
X169949761Y-73803142D02*
X169997380Y-73660285D01*
X169997380Y-73422190D01*
X169949761Y-73326952D01*
X169902142Y-73279333D01*
X169806904Y-73231714D01*
X169711666Y-73231714D01*
X169616428Y-73279333D01*
X169568809Y-73326952D01*
X169521190Y-73422190D01*
X169473571Y-73612666D01*
X169425952Y-73707904D01*
X169378333Y-73755523D01*
X169283095Y-73803142D01*
X169187857Y-73803142D01*
X169092619Y-73755523D01*
X169045000Y-73707904D01*
X168997380Y-73612666D01*
X168997380Y-73374571D01*
X169045000Y-73231714D01*
X166679571Y-80001666D02*
X166727190Y-79858809D01*
X166774809Y-79811190D01*
X166870047Y-79763571D01*
X167012904Y-79763571D01*
X167108142Y-79811190D01*
X167155761Y-79858809D01*
X167203380Y-79954047D01*
X167203380Y-80335000D01*
X166203380Y-80335000D01*
X166203380Y-80001666D01*
X166251000Y-79906428D01*
X166298619Y-79858809D01*
X166393857Y-79811190D01*
X166489095Y-79811190D01*
X166584333Y-79858809D01*
X166631952Y-79906428D01*
X166679571Y-80001666D01*
X166679571Y-80335000D01*
X167203380Y-79335000D02*
X166203380Y-79335000D01*
X166917666Y-79001666D01*
X166203380Y-78668333D01*
X167203380Y-78668333D01*
X166203380Y-78287380D02*
X167203380Y-77620714D01*
X166203380Y-77620714D02*
X167203380Y-78287380D01*
X167298619Y-77477857D02*
X167298619Y-76715952D01*
X167203380Y-76477857D02*
X166203380Y-76477857D01*
X166917666Y-76144523D01*
X166203380Y-75811190D01*
X167203380Y-75811190D01*
X167203380Y-75335000D02*
X166203380Y-75335000D01*
X167155761Y-74906428D02*
X167203380Y-74763571D01*
X167203380Y-74525476D01*
X167155761Y-74430238D01*
X167108142Y-74382619D01*
X167012904Y-74335000D01*
X166917666Y-74335000D01*
X166822428Y-74382619D01*
X166774809Y-74430238D01*
X166727190Y-74525476D01*
X166679571Y-74715952D01*
X166631952Y-74811190D01*
X166584333Y-74858809D01*
X166489095Y-74906428D01*
X166393857Y-74906428D01*
X166298619Y-74858809D01*
X166251000Y-74811190D01*
X166203380Y-74715952D01*
X166203380Y-74477857D01*
X166251000Y-74335000D01*
X166203380Y-73715952D02*
X166203380Y-73525476D01*
X166251000Y-73430238D01*
X166346238Y-73335000D01*
X166536714Y-73287380D01*
X166870047Y-73287380D01*
X167060523Y-73335000D01*
X167155761Y-73430238D01*
X167203380Y-73525476D01*
X167203380Y-73715952D01*
X167155761Y-73811190D01*
X167060523Y-73906428D01*
X166870047Y-73954047D01*
X166536714Y-73954047D01*
X166346238Y-73906428D01*
X166251000Y-73811190D01*
X166203380Y-73715952D01*
X163409380Y-75660095D02*
X163409380Y-75041047D01*
X163790333Y-75374380D01*
X163790333Y-75231523D01*
X163837952Y-75136285D01*
X163885571Y-75088666D01*
X163980809Y-75041047D01*
X164218904Y-75041047D01*
X164314142Y-75088666D01*
X164361761Y-75136285D01*
X164409380Y-75231523D01*
X164409380Y-75517238D01*
X164361761Y-75612476D01*
X164314142Y-75660095D01*
X163409380Y-74755333D02*
X164409380Y-74422000D01*
X163409380Y-74088666D01*
X163409380Y-73850571D02*
X163409380Y-73231523D01*
X163790333Y-73564857D01*
X163790333Y-73422000D01*
X163837952Y-73326761D01*
X163885571Y-73279142D01*
X163980809Y-73231523D01*
X164218904Y-73231523D01*
X164314142Y-73279142D01*
X164361761Y-73326761D01*
X164409380Y-73422000D01*
X164409380Y-73707714D01*
X164361761Y-73802952D01*
X164314142Y-73850571D01*
X161488380Y-79842904D02*
X160488380Y-79842904D01*
X161393142Y-78795285D02*
X161440761Y-78842904D01*
X161488380Y-78985761D01*
X161488380Y-79081000D01*
X161440761Y-79223857D01*
X161345523Y-79319095D01*
X161250285Y-79366714D01*
X161059809Y-79414333D01*
X160916952Y-79414333D01*
X160726476Y-79366714D01*
X160631238Y-79319095D01*
X160536000Y-79223857D01*
X160488380Y-79081000D01*
X160488380Y-78985761D01*
X160536000Y-78842904D01*
X160583619Y-78795285D01*
X161488380Y-78366714D02*
X160488380Y-78366714D01*
X161202666Y-78033380D01*
X160488380Y-77700047D01*
X161488380Y-77700047D01*
X161583619Y-77461952D02*
X161583619Y-76700047D01*
X161488380Y-76461952D02*
X160488380Y-76461952D01*
X161202666Y-76128619D01*
X160488380Y-75795285D01*
X161488380Y-75795285D01*
X161488380Y-75319095D02*
X160488380Y-75319095D01*
X161440761Y-74890523D02*
X161488380Y-74747666D01*
X161488380Y-74509571D01*
X161440761Y-74414333D01*
X161393142Y-74366714D01*
X161297904Y-74319095D01*
X161202666Y-74319095D01*
X161107428Y-74366714D01*
X161059809Y-74414333D01*
X161012190Y-74509571D01*
X160964571Y-74700047D01*
X160916952Y-74795285D01*
X160869333Y-74842904D01*
X160774095Y-74890523D01*
X160678857Y-74890523D01*
X160583619Y-74842904D01*
X160536000Y-74795285D01*
X160488380Y-74700047D01*
X160488380Y-74461952D01*
X160536000Y-74319095D01*
X160488380Y-73700047D02*
X160488380Y-73509571D01*
X160536000Y-73414333D01*
X160631238Y-73319095D01*
X160821714Y-73271476D01*
X161155047Y-73271476D01*
X161345523Y-73319095D01*
X161440761Y-73414333D01*
X161488380Y-73509571D01*
X161488380Y-73700047D01*
X161440761Y-73795285D01*
X161345523Y-73890523D01*
X161155047Y-73938142D01*
X160821714Y-73938142D01*
X160631238Y-73890523D01*
X160536000Y-73795285D01*
X160488380Y-73700047D01*
X158821380Y-79842904D02*
X157821380Y-79842904D01*
X158726142Y-78795285D02*
X158773761Y-78842904D01*
X158821380Y-78985761D01*
X158821380Y-79081000D01*
X158773761Y-79223857D01*
X158678523Y-79319095D01*
X158583285Y-79366714D01*
X158392809Y-79414333D01*
X158249952Y-79414333D01*
X158059476Y-79366714D01*
X157964238Y-79319095D01*
X157869000Y-79223857D01*
X157821380Y-79081000D01*
X157821380Y-78985761D01*
X157869000Y-78842904D01*
X157916619Y-78795285D01*
X158821380Y-78366714D02*
X157821380Y-78366714D01*
X158535666Y-78033380D01*
X157821380Y-77700047D01*
X158821380Y-77700047D01*
X158916619Y-77461952D02*
X158916619Y-76700047D01*
X158821380Y-76461952D02*
X157821380Y-76461952D01*
X158535666Y-76128619D01*
X157821380Y-75795285D01*
X158821380Y-75795285D01*
X157821380Y-75128619D02*
X157821380Y-74938142D01*
X157869000Y-74842904D01*
X157964238Y-74747666D01*
X158154714Y-74700047D01*
X158488047Y-74700047D01*
X158678523Y-74747666D01*
X158773761Y-74842904D01*
X158821380Y-74938142D01*
X158821380Y-75128619D01*
X158773761Y-75223857D01*
X158678523Y-75319095D01*
X158488047Y-75366714D01*
X158154714Y-75366714D01*
X157964238Y-75319095D01*
X157869000Y-75223857D01*
X157821380Y-75128619D01*
X158773761Y-74319095D02*
X158821380Y-74176238D01*
X158821380Y-73938142D01*
X158773761Y-73842904D01*
X158726142Y-73795285D01*
X158630904Y-73747666D01*
X158535666Y-73747666D01*
X158440428Y-73795285D01*
X158392809Y-73842904D01*
X158345190Y-73938142D01*
X158297571Y-74128619D01*
X158249952Y-74223857D01*
X158202333Y-74271476D01*
X158107095Y-74319095D01*
X158011857Y-74319095D01*
X157916619Y-74271476D01*
X157869000Y-74223857D01*
X157821380Y-74128619D01*
X157821380Y-73890523D01*
X157869000Y-73747666D01*
X158821380Y-73319095D02*
X157821380Y-73319095D01*
X155503571Y-78279333D02*
X155551190Y-78136476D01*
X155598809Y-78088857D01*
X155694047Y-78041238D01*
X155836904Y-78041238D01*
X155932142Y-78088857D01*
X155979761Y-78136476D01*
X156027380Y-78231714D01*
X156027380Y-78612666D01*
X155027380Y-78612666D01*
X155027380Y-78279333D01*
X155075000Y-78184095D01*
X155122619Y-78136476D01*
X155217857Y-78088857D01*
X155313095Y-78088857D01*
X155408333Y-78136476D01*
X155455952Y-78184095D01*
X155503571Y-78279333D01*
X155503571Y-78612666D01*
X156027380Y-77612666D02*
X155027380Y-77612666D01*
X155741666Y-77279333D01*
X155027380Y-76946000D01*
X156027380Y-76946000D01*
X155027380Y-76565047D02*
X156027380Y-75898380D01*
X155027380Y-75898380D02*
X156027380Y-76565047D01*
X156122619Y-75755523D02*
X156122619Y-74993619D01*
X155932142Y-74184095D02*
X155979761Y-74231714D01*
X156027380Y-74374571D01*
X156027380Y-74469809D01*
X155979761Y-74612666D01*
X155884523Y-74707904D01*
X155789285Y-74755523D01*
X155598809Y-74803142D01*
X155455952Y-74803142D01*
X155265476Y-74755523D01*
X155170238Y-74707904D01*
X155075000Y-74612666D01*
X155027380Y-74469809D01*
X155027380Y-74374571D01*
X155075000Y-74231714D01*
X155122619Y-74184095D01*
X155979761Y-73803142D02*
X156027380Y-73660285D01*
X156027380Y-73422190D01*
X155979761Y-73326952D01*
X155932142Y-73279333D01*
X155836904Y-73231714D01*
X155741666Y-73231714D01*
X155646428Y-73279333D01*
X155598809Y-73326952D01*
X155551190Y-73422190D01*
X155503571Y-73612666D01*
X155455952Y-73707904D01*
X155408333Y-73755523D01*
X155313095Y-73803142D01*
X155217857Y-73803142D01*
X155122619Y-73755523D01*
X155075000Y-73707904D01*
X155027380Y-73612666D01*
X155027380Y-73374571D01*
X155075000Y-73231714D01*
X153233380Y-78120571D02*
X152233380Y-78120571D01*
X153138142Y-77072952D02*
X153185761Y-77120571D01*
X153233380Y-77263428D01*
X153233380Y-77358666D01*
X153185761Y-77501523D01*
X153090523Y-77596761D01*
X152995285Y-77644380D01*
X152804809Y-77692000D01*
X152661952Y-77692000D01*
X152471476Y-77644380D01*
X152376238Y-77596761D01*
X152281000Y-77501523D01*
X152233380Y-77358666D01*
X152233380Y-77263428D01*
X152281000Y-77120571D01*
X152328619Y-77072952D01*
X153233380Y-76644380D02*
X152233380Y-76644380D01*
X152947666Y-76311047D01*
X152233380Y-75977714D01*
X153233380Y-75977714D01*
X153328619Y-75739619D02*
X153328619Y-74977714D01*
X153138142Y-74168190D02*
X153185761Y-74215809D01*
X153233380Y-74358666D01*
X153233380Y-74453904D01*
X153185761Y-74596761D01*
X153090523Y-74692000D01*
X152995285Y-74739619D01*
X152804809Y-74787238D01*
X152661952Y-74787238D01*
X152471476Y-74739619D01*
X152376238Y-74692000D01*
X152281000Y-74596761D01*
X152233380Y-74453904D01*
X152233380Y-74358666D01*
X152281000Y-74215809D01*
X152328619Y-74168190D01*
X153185761Y-73787238D02*
X153233380Y-73644380D01*
X153233380Y-73406285D01*
X153185761Y-73311047D01*
X153138142Y-73263428D01*
X153042904Y-73215809D01*
X152947666Y-73215809D01*
X152852428Y-73263428D01*
X152804809Y-73311047D01*
X152757190Y-73406285D01*
X152709571Y-73596761D01*
X152661952Y-73692000D01*
X152614333Y-73739619D01*
X152519095Y-73787238D01*
X152423857Y-73787238D01*
X152328619Y-73739619D01*
X152281000Y-73692000D01*
X152233380Y-73596761D01*
X152233380Y-73358666D01*
X152281000Y-73215809D01*
X149915571Y-81104904D02*
X149963190Y-80962047D01*
X150010809Y-80914428D01*
X150106047Y-80866809D01*
X150248904Y-80866809D01*
X150344142Y-80914428D01*
X150391761Y-80962047D01*
X150439380Y-81057285D01*
X150439380Y-81438238D01*
X149439380Y-81438238D01*
X149439380Y-81104904D01*
X149487000Y-81009666D01*
X149534619Y-80962047D01*
X149629857Y-80914428D01*
X149725095Y-80914428D01*
X149820333Y-80962047D01*
X149867952Y-81009666D01*
X149915571Y-81104904D01*
X149915571Y-81438238D01*
X150439380Y-80438238D02*
X149439380Y-80438238D01*
X150439380Y-79866809D01*
X149439380Y-79866809D01*
X149439380Y-79200142D02*
X149439380Y-79009666D01*
X149487000Y-78914428D01*
X149582238Y-78819190D01*
X149772714Y-78771571D01*
X150106047Y-78771571D01*
X150296523Y-78819190D01*
X150391761Y-78914428D01*
X150439380Y-79009666D01*
X150439380Y-79200142D01*
X150391761Y-79295380D01*
X150296523Y-79390619D01*
X150106047Y-79438238D01*
X149772714Y-79438238D01*
X149582238Y-79390619D01*
X149487000Y-79295380D01*
X149439380Y-79200142D01*
X149439380Y-78152523D02*
X149439380Y-78057285D01*
X149487000Y-77962047D01*
X149534619Y-77914428D01*
X149629857Y-77866809D01*
X149820333Y-77819190D01*
X150058428Y-77819190D01*
X150248904Y-77866809D01*
X150344142Y-77914428D01*
X150391761Y-77962047D01*
X150439380Y-78057285D01*
X150439380Y-78152523D01*
X150391761Y-78247761D01*
X150344142Y-78295380D01*
X150248904Y-78343000D01*
X150058428Y-78390619D01*
X149820333Y-78390619D01*
X149629857Y-78343000D01*
X149534619Y-78295380D01*
X149487000Y-78247761D01*
X149439380Y-78152523D01*
X149439380Y-76914428D02*
X149439380Y-77390619D01*
X149915571Y-77438238D01*
X149867952Y-77390619D01*
X149820333Y-77295380D01*
X149820333Y-77057285D01*
X149867952Y-76962047D01*
X149915571Y-76914428D01*
X150010809Y-76866809D01*
X150248904Y-76866809D01*
X150344142Y-76914428D01*
X150391761Y-76962047D01*
X150439380Y-77057285D01*
X150439380Y-77295380D01*
X150391761Y-77390619D01*
X150344142Y-77438238D01*
X149439380Y-75962047D02*
X149439380Y-76438238D01*
X149915571Y-76485857D01*
X149867952Y-76438238D01*
X149820333Y-76343000D01*
X149820333Y-76104904D01*
X149867952Y-76009666D01*
X149915571Y-75962047D01*
X150010809Y-75914428D01*
X150248904Y-75914428D01*
X150344142Y-75962047D01*
X150391761Y-76009666D01*
X150439380Y-76104904D01*
X150439380Y-76343000D01*
X150391761Y-76438238D01*
X150344142Y-76485857D01*
X150439380Y-74152523D02*
X149963190Y-74485857D01*
X150439380Y-74723952D02*
X149439380Y-74723952D01*
X149439380Y-74343000D01*
X149487000Y-74247761D01*
X149534619Y-74200142D01*
X149629857Y-74152523D01*
X149772714Y-74152523D01*
X149867952Y-74200142D01*
X149915571Y-74247761D01*
X149963190Y-74343000D01*
X149963190Y-74723952D01*
X149439380Y-73819190D02*
X150439380Y-73152523D01*
X149439380Y-73152523D02*
X150439380Y-73819190D01*
X147121571Y-80858857D02*
X147169190Y-80716000D01*
X147216809Y-80668380D01*
X147312047Y-80620761D01*
X147454904Y-80620761D01*
X147550142Y-80668380D01*
X147597761Y-80716000D01*
X147645380Y-80811238D01*
X147645380Y-81192190D01*
X146645380Y-81192190D01*
X146645380Y-80858857D01*
X146693000Y-80763619D01*
X146740619Y-80716000D01*
X146835857Y-80668380D01*
X146931095Y-80668380D01*
X147026333Y-80716000D01*
X147073952Y-80763619D01*
X147121571Y-80858857D01*
X147121571Y-81192190D01*
X147645380Y-80192190D02*
X146645380Y-80192190D01*
X147645380Y-79620761D01*
X146645380Y-79620761D01*
X146645380Y-78954095D02*
X146645380Y-78763619D01*
X146693000Y-78668380D01*
X146788238Y-78573142D01*
X146978714Y-78525523D01*
X147312047Y-78525523D01*
X147502523Y-78573142D01*
X147597761Y-78668380D01*
X147645380Y-78763619D01*
X147645380Y-78954095D01*
X147597761Y-79049333D01*
X147502523Y-79144571D01*
X147312047Y-79192190D01*
X146978714Y-79192190D01*
X146788238Y-79144571D01*
X146693000Y-79049333D01*
X146645380Y-78954095D01*
X146645380Y-77906476D02*
X146645380Y-77811238D01*
X146693000Y-77716000D01*
X146740619Y-77668380D01*
X146835857Y-77620761D01*
X147026333Y-77573142D01*
X147264428Y-77573142D01*
X147454904Y-77620761D01*
X147550142Y-77668380D01*
X147597761Y-77716000D01*
X147645380Y-77811238D01*
X147645380Y-77906476D01*
X147597761Y-78001714D01*
X147550142Y-78049333D01*
X147454904Y-78096952D01*
X147264428Y-78144571D01*
X147026333Y-78144571D01*
X146835857Y-78096952D01*
X146740619Y-78049333D01*
X146693000Y-78001714D01*
X146645380Y-77906476D01*
X146645380Y-76668380D02*
X146645380Y-77144571D01*
X147121571Y-77192190D01*
X147073952Y-77144571D01*
X147026333Y-77049333D01*
X147026333Y-76811238D01*
X147073952Y-76716000D01*
X147121571Y-76668380D01*
X147216809Y-76620761D01*
X147454904Y-76620761D01*
X147550142Y-76668380D01*
X147597761Y-76716000D01*
X147645380Y-76811238D01*
X147645380Y-77049333D01*
X147597761Y-77144571D01*
X147550142Y-77192190D01*
X146645380Y-75716000D02*
X146645380Y-76192190D01*
X147121571Y-76239809D01*
X147073952Y-76192190D01*
X147026333Y-76096952D01*
X147026333Y-75858857D01*
X147073952Y-75763619D01*
X147121571Y-75716000D01*
X147216809Y-75668380D01*
X147454904Y-75668380D01*
X147550142Y-75716000D01*
X147597761Y-75763619D01*
X147645380Y-75858857D01*
X147645380Y-76096952D01*
X147597761Y-76192190D01*
X147550142Y-76239809D01*
X146645380Y-74620761D02*
X146645380Y-74049333D01*
X147645380Y-74335047D02*
X146645380Y-74335047D01*
X146645380Y-73811238D02*
X147645380Y-73144571D01*
X146645380Y-73144571D02*
X147645380Y-73811238D01*
X144851380Y-80081047D02*
X144851380Y-80557238D01*
X143851380Y-80557238D01*
X144851380Y-79747714D02*
X144184714Y-79747714D01*
X143851380Y-79747714D02*
X143899000Y-79795333D01*
X143946619Y-79747714D01*
X143899000Y-79700095D01*
X143851380Y-79747714D01*
X143946619Y-79747714D01*
X144851380Y-79271523D02*
X143851380Y-79271523D01*
X143851380Y-79033428D01*
X143899000Y-78890571D01*
X143994238Y-78795333D01*
X144089476Y-78747714D01*
X144279952Y-78700095D01*
X144422809Y-78700095D01*
X144613285Y-78747714D01*
X144708523Y-78795333D01*
X144803761Y-78890571D01*
X144851380Y-79033428D01*
X144851380Y-79271523D01*
X144565666Y-78319142D02*
X144565666Y-77842952D01*
X144851380Y-78414380D02*
X143851380Y-78081047D01*
X144851380Y-77747714D01*
X144851380Y-76842952D02*
X144375190Y-77176285D01*
X144851380Y-77414380D02*
X143851380Y-77414380D01*
X143851380Y-77033428D01*
X143899000Y-76938190D01*
X143946619Y-76890571D01*
X144041857Y-76842952D01*
X144184714Y-76842952D01*
X144279952Y-76890571D01*
X144327571Y-76938190D01*
X144375190Y-77033428D01*
X144375190Y-77414380D01*
X144803761Y-75700095D02*
X144851380Y-75557238D01*
X144851380Y-75319142D01*
X144803761Y-75223904D01*
X144756142Y-75176285D01*
X144660904Y-75128666D01*
X144565666Y-75128666D01*
X144470428Y-75176285D01*
X144422809Y-75223904D01*
X144375190Y-75319142D01*
X144327571Y-75509619D01*
X144279952Y-75604857D01*
X144232333Y-75652476D01*
X144137095Y-75700095D01*
X144041857Y-75700095D01*
X143946619Y-75652476D01*
X143899000Y-75604857D01*
X143851380Y-75509619D01*
X143851380Y-75271523D01*
X143899000Y-75128666D01*
X144756142Y-74128666D02*
X144803761Y-74176285D01*
X144851380Y-74319142D01*
X144851380Y-74414380D01*
X144803761Y-74557238D01*
X144708523Y-74652476D01*
X144613285Y-74700095D01*
X144422809Y-74747714D01*
X144279952Y-74747714D01*
X144089476Y-74700095D01*
X143994238Y-74652476D01*
X143899000Y-74557238D01*
X143851380Y-74414380D01*
X143851380Y-74319142D01*
X143899000Y-74176285D01*
X143946619Y-74128666D01*
X144851380Y-73223904D02*
X144851380Y-73700095D01*
X143851380Y-73700095D01*
X142057380Y-80104857D02*
X142057380Y-80581047D01*
X141057380Y-80581047D01*
X142057380Y-79771523D02*
X141390714Y-79771523D01*
X141057380Y-79771523D02*
X141105000Y-79819142D01*
X141152619Y-79771523D01*
X141105000Y-79723904D01*
X141057380Y-79771523D01*
X141152619Y-79771523D01*
X142057380Y-79295333D02*
X141057380Y-79295333D01*
X141057380Y-79057238D01*
X141105000Y-78914380D01*
X141200238Y-78819142D01*
X141295476Y-78771523D01*
X141485952Y-78723904D01*
X141628809Y-78723904D01*
X141819285Y-78771523D01*
X141914523Y-78819142D01*
X142009761Y-78914380D01*
X142057380Y-79057238D01*
X142057380Y-79295333D01*
X141771666Y-78342952D02*
X141771666Y-77866761D01*
X142057380Y-78438190D02*
X141057380Y-78104857D01*
X142057380Y-77771523D01*
X142057380Y-76866761D02*
X141581190Y-77200095D01*
X142057380Y-77438190D02*
X141057380Y-77438190D01*
X141057380Y-77057238D01*
X141105000Y-76962000D01*
X141152619Y-76914380D01*
X141247857Y-76866761D01*
X141390714Y-76866761D01*
X141485952Y-76914380D01*
X141533571Y-76962000D01*
X141581190Y-77057238D01*
X141581190Y-77438190D01*
X142009761Y-75723904D02*
X142057380Y-75581047D01*
X142057380Y-75342952D01*
X142009761Y-75247714D01*
X141962142Y-75200095D01*
X141866904Y-75152476D01*
X141771666Y-75152476D01*
X141676428Y-75200095D01*
X141628809Y-75247714D01*
X141581190Y-75342952D01*
X141533571Y-75533428D01*
X141485952Y-75628666D01*
X141438333Y-75676285D01*
X141343095Y-75723904D01*
X141247857Y-75723904D01*
X141152619Y-75676285D01*
X141105000Y-75628666D01*
X141057380Y-75533428D01*
X141057380Y-75295333D01*
X141105000Y-75152476D01*
X142057380Y-74723904D02*
X141057380Y-74723904D01*
X141057380Y-74485809D01*
X141105000Y-74342952D01*
X141200238Y-74247714D01*
X141295476Y-74200095D01*
X141485952Y-74152476D01*
X141628809Y-74152476D01*
X141819285Y-74200095D01*
X141914523Y-74247714D01*
X142009761Y-74342952D01*
X142057380Y-74485809D01*
X142057380Y-74723904D01*
X141771666Y-73771523D02*
X141771666Y-73295333D01*
X142057380Y-73866761D02*
X141057380Y-73533428D01*
X142057380Y-73200095D01*
D12*
X98479428Y-40071523D02*
X97874666Y-40071523D01*
X97874666Y-38801523D01*
X98902761Y-40071523D02*
X98902761Y-39224857D01*
X98902761Y-38801523D02*
X98842285Y-38862000D01*
X98902761Y-38922476D01*
X98963238Y-38862000D01*
X98902761Y-38801523D01*
X98902761Y-38922476D01*
X99507523Y-40071523D02*
X99507523Y-38801523D01*
X99809904Y-38801523D01*
X99991333Y-38862000D01*
X100112285Y-38982952D01*
X100172761Y-39103904D01*
X100233238Y-39345809D01*
X100233238Y-39527238D01*
X100172761Y-39769142D01*
X100112285Y-39890095D01*
X99991333Y-40011047D01*
X99809904Y-40071523D01*
X99507523Y-40071523D01*
X100717047Y-39708666D02*
X101321809Y-39708666D01*
X100596095Y-40071523D02*
X101019428Y-38801523D01*
X101442761Y-40071523D01*
X102591809Y-40071523D02*
X102168476Y-39466761D01*
X101866095Y-40071523D02*
X101866095Y-38801523D01*
X102349904Y-38801523D01*
X102470857Y-38862000D01*
X102531333Y-38922476D01*
X102591809Y-39043428D01*
X102591809Y-39224857D01*
X102531333Y-39345809D01*
X102470857Y-39406285D01*
X102349904Y-39466761D01*
X101866095Y-39466761D01*
X115848190Y-87466714D02*
X116815809Y-87466714D01*
X116332000Y-87950523D02*
X116332000Y-86982904D01*
X115848190Y-79719714D02*
X116815809Y-79719714D01*
D11*
X140081000Y-69977000D02*
X140081000Y-77470000D01*
X177546000Y-61722000D02*
X181991000Y-61722000D01*
X181991000Y-81661000D02*
X177546000Y-81661000D01*
X140081000Y-69977000D02*
X140081000Y-62611000D01*
X177546000Y-81661000D02*
X140970000Y-81661000D01*
X182880000Y-62611000D02*
X182880000Y-69977000D01*
X140970000Y-61722000D02*
X177546000Y-61722000D01*
D12*
X153730476Y-64522047D02*
X153730476Y-61982047D01*
X154940000Y-62828714D02*
X154940000Y-64522047D01*
X154940000Y-63070619D02*
X155060952Y-62949666D01*
X155302857Y-62828714D01*
X155665714Y-62828714D01*
X155907619Y-62949666D01*
X156028571Y-63191571D01*
X156028571Y-64522047D01*
X158326666Y-64522047D02*
X158326666Y-61982047D01*
X158326666Y-64401095D02*
X158084761Y-64522047D01*
X157600952Y-64522047D01*
X157359047Y-64401095D01*
X157238095Y-64280142D01*
X157117142Y-64038238D01*
X157117142Y-63312523D01*
X157238095Y-63070619D01*
X157359047Y-62949666D01*
X157600952Y-62828714D01*
X158084761Y-62828714D01*
X158326666Y-62949666D01*
X159536190Y-64522047D02*
X159536190Y-62828714D01*
X159536190Y-61982047D02*
X159415238Y-62103000D01*
X159536190Y-62223952D01*
X159657142Y-62103000D01*
X159536190Y-61982047D01*
X159536190Y-62223952D01*
X161834285Y-64401095D02*
X161592380Y-64522047D01*
X161108571Y-64522047D01*
X160866666Y-64401095D01*
X160745714Y-64280142D01*
X160624761Y-64038238D01*
X160624761Y-63312523D01*
X160745714Y-63070619D01*
X160866666Y-62949666D01*
X161108571Y-62828714D01*
X161592380Y-62828714D01*
X161834285Y-62949666D01*
X164011428Y-64522047D02*
X164011428Y-63191571D01*
X163890476Y-62949666D01*
X163648571Y-62828714D01*
X163164761Y-62828714D01*
X162922857Y-62949666D01*
X164011428Y-64401095D02*
X163769523Y-64522047D01*
X163164761Y-64522047D01*
X162922857Y-64401095D01*
X162801904Y-64159190D01*
X162801904Y-63917285D01*
X162922857Y-63675380D01*
X163164761Y-63554428D01*
X163769523Y-63554428D01*
X164011428Y-63433476D01*
X164858095Y-62828714D02*
X165825714Y-62828714D01*
X165220952Y-61982047D02*
X165220952Y-64159190D01*
X165341904Y-64401095D01*
X165583809Y-64522047D01*
X165825714Y-64522047D01*
X167035238Y-64522047D02*
X166793333Y-64401095D01*
X166672380Y-64280142D01*
X166551428Y-64038238D01*
X166551428Y-63312523D01*
X166672380Y-63070619D01*
X166793333Y-62949666D01*
X167035238Y-62828714D01*
X167398095Y-62828714D01*
X167640000Y-62949666D01*
X167760952Y-63070619D01*
X167881904Y-63312523D01*
X167881904Y-64038238D01*
X167760952Y-64280142D01*
X167640000Y-64401095D01*
X167398095Y-64522047D01*
X167035238Y-64522047D01*
X168970476Y-64522047D02*
X168970476Y-62828714D01*
X168970476Y-63312523D02*
X169091428Y-63070619D01*
X169212380Y-62949666D01*
X169454285Y-62828714D01*
X169696190Y-62828714D01*
X170421904Y-64401095D02*
X170663809Y-64522047D01*
X171147619Y-64522047D01*
X171389523Y-64401095D01*
X171510476Y-64159190D01*
X171510476Y-64038238D01*
X171389523Y-63796333D01*
X171147619Y-63675380D01*
X170784761Y-63675380D01*
X170542857Y-63554428D01*
X170421904Y-63312523D01*
X170421904Y-63191571D01*
X170542857Y-62949666D01*
X170784761Y-62828714D01*
X171147619Y-62828714D01*
X171389523Y-62949666D01*
D13*
G36*
X163832033Y-87392581D02*
G01*
X163802754Y-87427753D01*
X163795830Y-87435228D01*
X163756855Y-87473542D01*
X163732314Y-87491904D01*
X163730937Y-87492179D01*
X163736846Y-87477875D01*
X163766125Y-87442704D01*
X163773049Y-87435228D01*
X163812024Y-87396915D01*
X163836565Y-87378552D01*
X163837942Y-87378278D01*
X163832033Y-87392581D01*
X163832033Y-87392581D01*
G37*
X163832033Y-87392581D02*
X163802754Y-87427753D01*
X163795830Y-87435228D01*
X163756855Y-87473542D01*
X163732314Y-87491904D01*
X163730937Y-87492179D01*
X163736846Y-87477875D01*
X163766125Y-87442704D01*
X163773049Y-87435228D01*
X163812024Y-87396915D01*
X163836565Y-87378552D01*
X163837942Y-87378278D01*
X163832033Y-87392581D01*
G36*
X163737456Y-82127390D02*
G01*
X163769118Y-82164249D01*
X163797091Y-82230808D01*
X163822801Y-82331261D01*
X163847674Y-82469803D01*
X163867253Y-82605811D01*
X163886329Y-82788680D01*
X163900216Y-83006290D01*
X163908916Y-83248121D01*
X163912430Y-83503649D01*
X163910760Y-83762353D01*
X163903909Y-84013711D01*
X163891877Y-84247201D01*
X163874667Y-84452300D01*
X163866928Y-84519354D01*
X163852378Y-84638548D01*
X163840849Y-84740657D01*
X163833173Y-84817676D01*
X163830177Y-84861597D01*
X163830715Y-84868668D01*
X163855438Y-84875942D01*
X163909534Y-84885289D01*
X163936325Y-84888987D01*
X164006393Y-84905791D01*
X164097243Y-84937948D01*
X164189836Y-84978673D01*
X164194484Y-84980968D01*
X164425881Y-85103945D01*
X164618662Y-85225571D01*
X164779161Y-85351934D01*
X164913714Y-85489121D01*
X165028653Y-85643218D01*
X165130312Y-85820314D01*
X165183724Y-85931629D01*
X165217859Y-86010698D01*
X165242788Y-86075664D01*
X165253641Y-86113722D01*
X165253767Y-86115779D01*
X165264179Y-86152720D01*
X165294657Y-86149889D01*
X165344062Y-86107839D01*
X165396259Y-86046574D01*
X165492437Y-85939052D01*
X165614087Y-85824894D01*
X165745745Y-85717467D01*
X165871947Y-85630140D01*
X165891614Y-85618333D01*
X165992349Y-85573710D01*
X166096368Y-85551445D01*
X166191029Y-85552539D01*
X166263686Y-85577994D01*
X166276471Y-85587862D01*
X166311821Y-85629826D01*
X166324439Y-85661898D01*
X166336463Y-85689895D01*
X166344653Y-85692538D01*
X166369173Y-85680428D01*
X166425083Y-85646766D01*
X166506053Y-85595554D01*
X166605754Y-85530793D01*
X166714033Y-85459040D01*
X166857574Y-85365482D01*
X167019397Y-85263960D01*
X167183450Y-85164311D01*
X167333678Y-85076371D01*
X167394262Y-85042258D01*
X167725324Y-84858974D01*
X167782736Y-84772676D01*
X167858103Y-84772676D01*
X167858192Y-84773614D01*
X167881015Y-84768378D01*
X167935061Y-84747481D01*
X168010430Y-84714872D01*
X168045257Y-84699005D01*
X168147859Y-84657199D01*
X168245365Y-84627327D01*
X168329138Y-84610946D01*
X168390540Y-84609616D01*
X168420933Y-84624895D01*
X168422626Y-84630894D01*
X168423836Y-84668068D01*
X168423949Y-84730537D01*
X168423711Y-84753526D01*
X168427324Y-84812343D01*
X168438650Y-84838085D01*
X168444429Y-84837397D01*
X168464478Y-84814965D01*
X168505641Y-84761782D01*
X168562976Y-84684472D01*
X168631542Y-84589660D01*
X168678583Y-84523495D01*
X168863033Y-84233494D01*
X169005659Y-83942466D01*
X169109635Y-83642233D01*
X169178132Y-83324615D01*
X169196687Y-83187558D01*
X169208800Y-83076298D01*
X169214691Y-83001139D01*
X169214012Y-82953003D01*
X169206421Y-82922813D01*
X169191571Y-82901490D01*
X169185590Y-82895407D01*
X169161360Y-82876125D01*
X169138488Y-82876780D01*
X169106802Y-82902320D01*
X169056129Y-82957692D01*
X169055057Y-82958905D01*
X168944422Y-83090776D01*
X168833917Y-83236752D01*
X168717766Y-83404967D01*
X168590193Y-83603553D01*
X168542332Y-83680832D01*
X168459778Y-83813951D01*
X168361548Y-83970405D01*
X168256974Y-84135446D01*
X168155388Y-84294322D01*
X168095300Y-84387422D01*
X168020738Y-84503391D01*
X167956122Y-84605788D01*
X167905069Y-84688725D01*
X167871191Y-84746317D01*
X167858103Y-84772676D01*
X167782736Y-84772676D01*
X167914073Y-84575263D01*
X167993520Y-84454545D01*
X168075757Y-84327381D01*
X168151797Y-84207801D01*
X168212649Y-84109837D01*
X168219883Y-84097919D01*
X168394393Y-83815023D01*
X168554422Y-83568052D01*
X168703869Y-83351243D01*
X168846630Y-83158832D01*
X168905428Y-83084041D01*
X169022922Y-82942336D01*
X169118724Y-82838893D01*
X169194552Y-82772887D01*
X169252129Y-82743496D01*
X169293172Y-82749894D01*
X169319404Y-82791260D01*
X169332543Y-82866770D01*
X169333387Y-82879175D01*
X169330107Y-83082125D01*
X169296880Y-83305184D01*
X169232898Y-83552108D01*
X169137353Y-83826655D01*
X169120381Y-83870116D01*
X169048566Y-84025631D01*
X168949393Y-84202260D01*
X168829084Y-84390321D01*
X168693862Y-84580136D01*
X168549947Y-84762024D01*
X168538092Y-84776123D01*
X168485527Y-84844783D01*
X168446844Y-84907426D01*
X168430857Y-84948816D01*
X168417061Y-85001059D01*
X168389184Y-85070316D01*
X168376008Y-85097615D01*
X168348598Y-85156206D01*
X168309876Y-85245361D01*
X168264915Y-85353131D01*
X168218790Y-85467568D01*
X168217177Y-85471648D01*
X168131448Y-85682406D01*
X168031665Y-85917358D01*
X167923672Y-86163405D01*
X167813316Y-86407449D01*
X167706440Y-86636394D01*
X167608891Y-86837140D01*
X167599031Y-86856837D01*
X167516708Y-87033049D01*
X167442312Y-87215923D01*
X167378717Y-87396489D01*
X167328793Y-87565779D01*
X167295414Y-87714823D01*
X167281453Y-87834653D01*
X167281211Y-87849212D01*
X167290697Y-87942323D01*
X167315806Y-88051335D01*
X167351513Y-88160742D01*
X167392793Y-88255035D01*
X167432621Y-88316518D01*
X167518510Y-88382042D01*
X167638194Y-88430444D01*
X167783087Y-88461323D01*
X167944600Y-88474272D01*
X168114146Y-88468888D01*
X168283138Y-88444767D01*
X168442988Y-88401504D01*
X168526916Y-88368035D01*
X168611238Y-88325538D01*
X168669340Y-88287911D01*
X168693362Y-88260332D01*
X168693587Y-88258267D01*
X168710197Y-88221733D01*
X168750382Y-88179803D01*
X168752531Y-88178090D01*
X168783991Y-88158636D01*
X168824065Y-88146122D01*
X168878373Y-88140816D01*
X168952538Y-88142988D01*
X169052181Y-88152908D01*
X169182922Y-88170845D01*
X169350384Y-88197070D01*
X169433946Y-88210773D01*
X169609131Y-88238009D01*
X169764764Y-88257634D01*
X169913567Y-88270440D01*
X170068263Y-88277220D01*
X170241577Y-88278767D01*
X170446230Y-88275872D01*
X170470448Y-88275334D01*
X170621023Y-88272127D01*
X170764464Y-88269496D01*
X170891410Y-88267579D01*
X170992494Y-88266517D01*
X171058355Y-88266450D01*
X171062735Y-88266504D01*
X171161227Y-88260565D01*
X171264165Y-88243442D01*
X171301928Y-88233599D01*
X171366982Y-88214018D01*
X171410846Y-88201307D01*
X171421525Y-88198614D01*
X171426266Y-88217437D01*
X171427220Y-88240860D01*
X171433732Y-88266914D01*
X171460977Y-88277178D01*
X171520517Y-88275563D01*
X171528018Y-88274956D01*
X171607711Y-88260827D01*
X171718903Y-88230923D01*
X171851832Y-88188797D01*
X171996740Y-88138003D01*
X172143868Y-88082095D01*
X172283455Y-88024627D01*
X172405743Y-87969153D01*
X172494350Y-87923064D01*
X172579236Y-87875446D01*
X172649673Y-87837897D01*
X172696182Y-87815363D01*
X172708863Y-87811103D01*
X172757167Y-87793186D01*
X172821286Y-87744768D01*
X172892669Y-87673844D01*
X172962766Y-87588413D01*
X172992870Y-87545471D01*
X173052125Y-87459940D01*
X173112698Y-87378951D01*
X173162516Y-87318569D01*
X173167126Y-87313548D01*
X173227847Y-87262300D01*
X173316729Y-87203567D01*
X173419209Y-87145697D01*
X173520726Y-87097039D01*
X173591167Y-87070445D01*
X173630622Y-87062639D01*
X173634678Y-87073368D01*
X173607806Y-87099113D01*
X173554476Y-87136359D01*
X173479157Y-87181587D01*
X173387560Y-87230651D01*
X173294350Y-87279508D01*
X173229522Y-87320315D01*
X173180275Y-87364506D01*
X173133806Y-87423516D01*
X173078839Y-87506412D01*
X172957214Y-87666659D01*
X172813675Y-87799248D01*
X172638788Y-87912237D01*
X172551575Y-87956814D01*
X172459225Y-88002940D01*
X172369679Y-88050759D01*
X172302105Y-88090027D01*
X172301349Y-88090503D01*
X172234789Y-88125010D01*
X172135815Y-88166965D01*
X172014519Y-88213008D01*
X171880996Y-88259778D01*
X171745337Y-88303915D01*
X171617637Y-88342058D01*
X171507988Y-88370848D01*
X171426484Y-88386924D01*
X171404761Y-88389011D01*
X171332728Y-88388635D01*
X171297534Y-88377963D01*
X171290538Y-88362105D01*
X171275340Y-88340309D01*
X171236805Y-88343596D01*
X171181450Y-88351751D01*
X171087739Y-88359187D01*
X170962874Y-88365789D01*
X170814057Y-88371445D01*
X170648488Y-88376041D01*
X170473368Y-88379465D01*
X170295899Y-88381603D01*
X170123282Y-88382342D01*
X169962719Y-88381569D01*
X169821409Y-88379171D01*
X169706555Y-88375034D01*
X169625358Y-88369046D01*
X169624374Y-88368935D01*
X169550837Y-88359382D01*
X169447591Y-88344438D01*
X169329841Y-88326359D01*
X169240314Y-88311961D01*
X169089245Y-88287778D01*
X168975692Y-88271929D01*
X168892364Y-88264508D01*
X168831969Y-88265606D01*
X168787214Y-88275316D01*
X168750808Y-88293729D01*
X168718266Y-88318566D01*
X168662804Y-88357663D01*
X168581408Y-88406096D01*
X168489760Y-88454656D01*
X168470300Y-88464190D01*
X168308455Y-88525620D01*
X168127869Y-88566226D01*
X167939482Y-88585703D01*
X167754232Y-88583751D01*
X167583061Y-88560067D01*
X167436906Y-88514350D01*
X167395112Y-88493873D01*
X167304205Y-88426666D01*
X167238813Y-88336095D01*
X167196345Y-88216477D01*
X167174213Y-88062127D01*
X167170896Y-88001696D01*
X167178194Y-87809133D01*
X167215389Y-87607030D01*
X167284082Y-87389492D01*
X167385872Y-87150621D01*
X167422381Y-87075371D01*
X167508210Y-86898164D01*
X167606005Y-86688427D01*
X167711328Y-86456135D01*
X167819738Y-86211262D01*
X167926798Y-85963783D01*
X168028068Y-85723672D01*
X168080055Y-85597473D01*
X168132755Y-85469278D01*
X168182266Y-85350650D01*
X168224957Y-85250155D01*
X168257196Y-85176356D01*
X168273236Y-85141868D01*
X168289862Y-85106180D01*
X168288511Y-85096916D01*
X168265228Y-85116304D01*
X168216056Y-85166569D01*
X168200691Y-85182709D01*
X168069605Y-85315008D01*
X167923088Y-85453158D01*
X167767929Y-85591546D01*
X167610913Y-85724560D01*
X167458828Y-85846584D01*
X167318460Y-85952007D01*
X167196598Y-86035214D01*
X167107434Y-86086929D01*
X167029507Y-86129206D01*
X166968626Y-86167904D01*
X166935651Y-86195968D01*
X166933154Y-86200180D01*
X166916107Y-86229226D01*
X166877435Y-86287718D01*
X166822218Y-86368188D01*
X166755536Y-86463169D01*
X166726476Y-86503992D01*
X166528502Y-86813197D01*
X166387894Y-87082941D01*
X166331580Y-87200028D01*
X166276268Y-87310020D01*
X166227334Y-87402556D01*
X166190154Y-87467276D01*
X166181643Y-87480382D01*
X166144966Y-87538614D01*
X166122612Y-87583288D01*
X166119417Y-87595716D01*
X166105036Y-87625461D01*
X166070252Y-87666244D01*
X166027606Y-87706212D01*
X165989639Y-87733509D01*
X165969664Y-87737284D01*
X165969118Y-87710410D01*
X165980372Y-87652340D01*
X166001031Y-87575172D01*
X166003152Y-87568093D01*
X166055893Y-87381749D01*
X166080051Y-87287157D01*
X166189077Y-87287157D01*
X166198892Y-87281700D01*
X166224907Y-87241878D01*
X166263229Y-87174220D01*
X166309966Y-87085250D01*
X166312754Y-87079769D01*
X166373099Y-86969270D01*
X166451599Y-86837513D01*
X166538927Y-86699579D01*
X166625753Y-86570547D01*
X166642429Y-86546866D01*
X166712396Y-86446886D01*
X166770909Y-86360352D01*
X166813725Y-86293780D01*
X166836600Y-86253688D01*
X166838993Y-86245058D01*
X166815242Y-86249511D01*
X166759751Y-86269952D01*
X166681893Y-86302736D01*
X166625650Y-86328051D01*
X166536489Y-86368039D01*
X166461898Y-86399482D01*
X166412120Y-86418170D01*
X166398444Y-86421506D01*
X166383234Y-86442223D01*
X166365489Y-86496920D01*
X166348718Y-86574421D01*
X166346613Y-86586663D01*
X166328686Y-86680696D01*
X166302658Y-86800329D01*
X166272624Y-86927265D01*
X166253579Y-87002403D01*
X166227387Y-87105775D01*
X166206368Y-87194875D01*
X166192872Y-87259324D01*
X166189077Y-87287157D01*
X166080051Y-87287157D01*
X166109810Y-87170639D01*
X166159983Y-86955146D01*
X166201496Y-86755656D01*
X166209768Y-86711636D01*
X166250494Y-86489209D01*
X166145090Y-86492095D01*
X166032190Y-86486299D01*
X165958274Y-86460694D01*
X165920660Y-86413902D01*
X165914395Y-86373588D01*
X165928687Y-86303626D01*
X165951564Y-86249396D01*
X166047112Y-86249396D01*
X166051268Y-86305160D01*
X166086644Y-86340417D01*
X166096637Y-86345876D01*
X166158724Y-86368532D01*
X166204843Y-86375610D01*
X166240667Y-86368086D01*
X166254464Y-86336172D01*
X166255937Y-86301910D01*
X166253318Y-86220165D01*
X166250015Y-86175479D01*
X166370582Y-86175479D01*
X166372116Y-86262954D01*
X166382637Y-86315044D01*
X166408660Y-86335698D01*
X166456701Y-86328865D01*
X166533275Y-86298492D01*
X166644899Y-86248527D01*
X166677534Y-86234100D01*
X166767937Y-86193491D01*
X166843516Y-86157805D01*
X166893809Y-86132071D01*
X166907342Y-86123628D01*
X166929211Y-86096342D01*
X166957462Y-86054987D01*
X167037106Y-86054987D01*
X167039069Y-86057022D01*
X167063820Y-86046922D01*
X167117794Y-86020180D01*
X167190306Y-85982132D01*
X167206391Y-85973474D01*
X167317396Y-85905411D01*
X167450491Y-85811065D01*
X167597019Y-85697771D01*
X167748319Y-85572865D01*
X167895732Y-85443682D01*
X168030600Y-85317558D01*
X168144262Y-85201828D01*
X168218630Y-85115978D01*
X168267981Y-85050229D01*
X168294050Y-84999835D01*
X168303199Y-84945552D01*
X168301787Y-84868136D01*
X168301629Y-84864853D01*
X168296753Y-84788675D01*
X168287680Y-84746725D01*
X168268574Y-84727702D01*
X168233601Y-84720302D01*
X168226592Y-84719493D01*
X168161066Y-84726717D01*
X168072743Y-84755332D01*
X167974430Y-84798887D01*
X167878934Y-84850928D01*
X167799062Y-84905003D01*
X167747622Y-84954657D01*
X167741696Y-84963803D01*
X167712958Y-85010094D01*
X167664677Y-85082902D01*
X167603908Y-85171751D01*
X167545851Y-85254677D01*
X167451627Y-85389678D01*
X167359666Y-85524962D01*
X167273213Y-85655393D01*
X167195512Y-85775835D01*
X167129806Y-85881152D01*
X167079341Y-85966207D01*
X167047359Y-86025864D01*
X167037106Y-86054987D01*
X166957462Y-86054987D01*
X166968113Y-86039396D01*
X167017731Y-85962251D01*
X167052004Y-85906958D01*
X167112820Y-85810686D01*
X167190543Y-85692354D01*
X167275307Y-85566763D01*
X167357249Y-85448717D01*
X167359605Y-85445385D01*
X167455027Y-85308311D01*
X167535310Y-85188635D01*
X167597954Y-85090387D01*
X167640459Y-85017595D01*
X167660327Y-84974288D01*
X167658550Y-84963569D01*
X167626236Y-84975029D01*
X167561749Y-85006912D01*
X167471537Y-85055471D01*
X167362050Y-85116959D01*
X167239735Y-85187629D01*
X167111041Y-85263735D01*
X166982416Y-85341529D01*
X166860308Y-85417264D01*
X166751167Y-85487195D01*
X166706768Y-85516599D01*
X166371519Y-85741592D01*
X166371519Y-86048673D01*
X166370582Y-86175479D01*
X166250015Y-86175479D01*
X166246696Y-86130579D01*
X166237440Y-86044621D01*
X166226918Y-85973758D01*
X166216498Y-85929458D01*
X166210418Y-85920340D01*
X166189486Y-85939546D01*
X166158030Y-85989082D01*
X166122064Y-86056828D01*
X166087604Y-86130661D01*
X166060665Y-86198461D01*
X166047265Y-86248107D01*
X166047112Y-86249396D01*
X165951564Y-86249396D01*
X165967015Y-86212770D01*
X166022549Y-86113641D01*
X166088465Y-86018860D01*
X166137032Y-85961960D01*
X166185016Y-85905707D01*
X166204264Y-85862851D01*
X166201358Y-85818007D01*
X166200369Y-85813889D01*
X166162035Y-85724562D01*
X166100516Y-85674282D01*
X166014774Y-85662278D01*
X165998103Y-85663939D01*
X165853932Y-85704636D01*
X165706162Y-85789884D01*
X165555875Y-85918914D01*
X165413784Y-86078800D01*
X165351791Y-86161163D01*
X165318244Y-86218834D01*
X165309245Y-86259209D01*
X165311729Y-86272432D01*
X165321438Y-86317242D01*
X165332861Y-86392148D01*
X165343701Y-86481863D01*
X165344804Y-86492421D01*
X165355582Y-86583686D01*
X165367396Y-86662693D01*
X165377864Y-86713707D01*
X165378791Y-86716809D01*
X165389848Y-86780653D01*
X165394901Y-86871925D01*
X165393870Y-86972880D01*
X165386680Y-87065774D01*
X165380497Y-87104914D01*
X165360934Y-87169777D01*
X165327533Y-87252583D01*
X165300289Y-87309937D01*
X165262955Y-87386359D01*
X165232963Y-87453967D01*
X165220003Y-87488507D01*
X165176862Y-87580375D01*
X165101273Y-87688893D01*
X164999995Y-87807507D01*
X164879791Y-87929663D01*
X164747419Y-88048806D01*
X164609641Y-88158383D01*
X164473216Y-88251839D01*
X164374792Y-88307952D01*
X164319847Y-88332846D01*
X164238009Y-88366064D01*
X164139141Y-88404033D01*
X164033105Y-88443179D01*
X163929762Y-88479929D01*
X163838977Y-88510709D01*
X163770609Y-88531947D01*
X163734523Y-88540067D01*
X163734164Y-88540071D01*
X163729756Y-88520006D01*
X163727548Y-88470652D01*
X163727489Y-88460015D01*
X163738520Y-88406834D01*
X163759379Y-88349048D01*
X163853652Y-88349048D01*
X163857019Y-88392914D01*
X163874824Y-88403390D01*
X163908570Y-88396596D01*
X163975292Y-88378180D01*
X164064795Y-88351089D01*
X164150572Y-88323640D01*
X164322403Y-88262420D01*
X164464356Y-88198960D01*
X164591715Y-88125008D01*
X164719765Y-88032316D01*
X164779343Y-87984230D01*
X164922690Y-87849602D01*
X165028344Y-87711563D01*
X165103689Y-87560520D01*
X165137790Y-87481698D01*
X165174814Y-87408353D01*
X165185728Y-87389559D01*
X165231601Y-87283048D01*
X165259748Y-87150311D01*
X165267959Y-87007963D01*
X165254299Y-86873973D01*
X165236177Y-86771318D01*
X165218832Y-86652351D01*
X165208214Y-86563029D01*
X165197835Y-86479894D01*
X165186210Y-86415290D01*
X165175685Y-86381972D01*
X165174717Y-86380786D01*
X165151775Y-86388490D01*
X165105027Y-86427000D01*
X165038977Y-86491423D01*
X164958129Y-86576868D01*
X164866986Y-86678441D01*
X164770051Y-86791250D01*
X164671829Y-86910404D01*
X164580171Y-87026653D01*
X164480839Y-87161874D01*
X164381121Y-87308757D01*
X164283386Y-87462680D01*
X164190002Y-87619022D01*
X164103336Y-87773160D01*
X164025756Y-87920473D01*
X163959630Y-88056340D01*
X163907325Y-88176140D01*
X163871210Y-88275249D01*
X163853652Y-88349048D01*
X163759379Y-88349048D01*
X163769737Y-88320355D01*
X163818322Y-88206606D01*
X163881457Y-88071617D01*
X163956326Y-87921418D01*
X164040111Y-87762036D01*
X164127599Y-87603727D01*
X164221591Y-87451623D01*
X164341399Y-87278823D01*
X164479140Y-87095291D01*
X164626929Y-86910989D01*
X164776880Y-86735880D01*
X164921109Y-86579927D01*
X165000455Y-86500812D01*
X165168578Y-86339471D01*
X165083615Y-86127114D01*
X164961078Y-85868943D01*
X164813887Y-85647427D01*
X164639537Y-85459404D01*
X164435519Y-85301712D01*
X164422287Y-85293151D01*
X164338190Y-85242498D01*
X164238804Y-85187547D01*
X164133506Y-85132899D01*
X164031672Y-85083157D01*
X163942680Y-85042923D01*
X163875905Y-85016801D01*
X163843655Y-85009130D01*
X163825597Y-85010129D01*
X163811427Y-85017237D01*
X163799377Y-85036623D01*
X163787680Y-85074454D01*
X163774566Y-85136899D01*
X163758267Y-85230125D01*
X163737014Y-85360301D01*
X163729359Y-85407784D01*
X163690980Y-85639274D01*
X163649965Y-85872736D01*
X163604741Y-86116419D01*
X163553736Y-86378568D01*
X163495374Y-86667430D01*
X163428083Y-86991253D01*
X163418549Y-87036574D01*
X163337113Y-87417202D01*
X163261759Y-87756274D01*
X163191562Y-88057252D01*
X163125595Y-88323599D01*
X163062932Y-88558777D01*
X163002649Y-88766248D01*
X162943819Y-88949474D01*
X162885516Y-89111918D01*
X162826816Y-89257042D01*
X162821626Y-89269040D01*
X162776281Y-89374761D01*
X162736607Y-89469955D01*
X162706826Y-89544308D01*
X162691162Y-89587505D01*
X162691027Y-89587964D01*
X162654494Y-89659653D01*
X162595069Y-89729682D01*
X162539352Y-89771958D01*
X162514654Y-89775937D01*
X162488926Y-89754877D01*
X162455644Y-89701929D01*
X162434288Y-89661660D01*
X162389423Y-89566490D01*
X162346927Y-89463209D01*
X162326445Y-89405722D01*
X162295652Y-89322367D01*
X162252335Y-89219697D01*
X162205361Y-89118626D01*
X162200886Y-89109578D01*
X162149527Y-88999721D01*
X162096943Y-88876576D01*
X162054915Y-88767874D01*
X162028759Y-88704078D01*
X161984441Y-88606815D01*
X161925241Y-88482819D01*
X161854439Y-88338821D01*
X161775313Y-88181556D01*
X161691145Y-88017757D01*
X161666265Y-87970001D01*
X161554412Y-87753616D01*
X161462416Y-87569940D01*
X161387203Y-87412315D01*
X161325699Y-87274083D01*
X161274828Y-87148584D01*
X161231517Y-87029160D01*
X161230583Y-87026425D01*
X161122626Y-86709869D01*
X161053334Y-86856136D01*
X161016322Y-86933452D01*
X160965593Y-87038323D01*
X160907602Y-87157453D01*
X160848804Y-87277545D01*
X160844081Y-87287157D01*
X160780922Y-87417733D01*
X160714104Y-87559325D01*
X160651838Y-87694353D01*
X160604735Y-87799713D01*
X160548291Y-87920002D01*
X160481325Y-88049181D01*
X160414897Y-88166326D01*
X160387988Y-88209758D01*
X160334741Y-88297482D01*
X160269116Y-88413229D01*
X160198321Y-88543884D01*
X160129560Y-88676334D01*
X160108142Y-88719011D01*
X160049531Y-88835409D01*
X159994659Y-88941539D01*
X159948104Y-89028753D01*
X159914443Y-89088403D01*
X159903122Y-89106275D01*
X159867295Y-89164702D01*
X159827616Y-89240210D01*
X159813984Y-89269040D01*
X159768858Y-89347877D01*
X159712298Y-89421184D01*
X159693940Y-89439892D01*
X159620495Y-89508233D01*
X159716758Y-89325991D01*
X159762248Y-89239496D01*
X159822078Y-89125199D01*
X159889638Y-88995751D01*
X159958319Y-88863809D01*
X159984486Y-88813435D01*
X160054129Y-88681976D01*
X160128346Y-88546426D01*
X160199688Y-88420114D01*
X160260704Y-88316365D01*
X160278760Y-88287021D01*
X160330247Y-88203366D01*
X160371115Y-88134223D01*
X160396186Y-88088512D01*
X160401570Y-88075370D01*
X160410968Y-88051323D01*
X160437388Y-87991959D01*
X160478165Y-87903051D01*
X160530634Y-87790370D01*
X160592130Y-87659689D01*
X160642310Y-87553891D01*
X160716297Y-87398334D01*
X160790347Y-87242510D01*
X160860076Y-87095661D01*
X160921094Y-86967029D01*
X160969015Y-86865856D01*
X160986064Y-86829787D01*
X161089077Y-86611609D01*
X161058718Y-86509378D01*
X161224425Y-86509378D01*
X161348573Y-86869392D01*
X161393116Y-86996267D01*
X161435839Y-87113818D01*
X161473239Y-87212705D01*
X161501814Y-87283590D01*
X161513643Y-87309537D01*
X161534580Y-87350360D01*
X161573282Y-87425648D01*
X161626641Y-87529364D01*
X161691551Y-87655475D01*
X161764908Y-87797943D01*
X161843605Y-87950734D01*
X161853820Y-87970565D01*
X161934934Y-88129875D01*
X162012195Y-88285086D01*
X162082151Y-88428996D01*
X162141350Y-88554403D01*
X162186340Y-88654108D01*
X162213670Y-88720907D01*
X162214175Y-88722314D01*
X162256141Y-88831343D01*
X162305764Y-88948381D01*
X162348998Y-89041237D01*
X162391134Y-89130582D01*
X162428645Y-89218233D01*
X162451757Y-89280430D01*
X162479899Y-89356193D01*
X162518147Y-89444402D01*
X162537141Y-89483947D01*
X162593488Y-89596342D01*
X162704827Y-89340856D01*
X162751245Y-89224496D01*
X162803869Y-89076182D01*
X162858580Y-88908335D01*
X162911259Y-88733375D01*
X162938654Y-88635756D01*
X162979981Y-88482053D01*
X163020691Y-88327047D01*
X163057863Y-88182121D01*
X163088577Y-88058659D01*
X163109441Y-87970147D01*
X163176476Y-87666363D01*
X163241669Y-87363221D01*
X163304409Y-87064047D01*
X163364088Y-86772169D01*
X163420095Y-86490914D01*
X163471820Y-86223609D01*
X163518654Y-85973581D01*
X163559988Y-85744157D01*
X163595210Y-85538664D01*
X163623713Y-85360430D01*
X163644885Y-85212781D01*
X163658118Y-85099044D01*
X163662801Y-85022547D01*
X163658325Y-84986616D01*
X163656550Y-84984744D01*
X163608245Y-84967062D01*
X163522314Y-84947976D01*
X163406621Y-84928605D01*
X163269031Y-84910067D01*
X163117407Y-84893481D01*
X162959615Y-84879966D01*
X162884619Y-84874936D01*
X162718330Y-84864970D01*
X162589811Y-84857727D01*
X162491363Y-84853064D01*
X162415286Y-84850836D01*
X162353880Y-84850902D01*
X162299445Y-84853116D01*
X162244281Y-84857336D01*
X162194359Y-84862068D01*
X162039435Y-84877305D01*
X161631930Y-85693341D01*
X161224425Y-86509378D01*
X161058718Y-86509378D01*
X161052857Y-86489643D01*
X161035959Y-86404131D01*
X161024134Y-86286510D01*
X161017439Y-86149004D01*
X161015928Y-86003837D01*
X161017989Y-85926071D01*
X161135605Y-85926071D01*
X161137192Y-85991987D01*
X161143177Y-86117881D01*
X161152829Y-86226017D01*
X161165049Y-86306258D01*
X161175124Y-86341775D01*
X161183293Y-86358602D01*
X161192144Y-86367701D01*
X161203745Y-86365539D01*
X161220165Y-86348583D01*
X161243469Y-86313300D01*
X161275725Y-86256155D01*
X161319001Y-86173617D01*
X161375364Y-86062151D01*
X161446881Y-85918224D01*
X161535619Y-85738303D01*
X161574970Y-85658367D01*
X161658864Y-85487335D01*
X161735713Y-85329527D01*
X161803336Y-85189509D01*
X161859550Y-85071850D01*
X161902174Y-84981117D01*
X161929027Y-84921878D01*
X161937927Y-84898700D01*
X161937874Y-84898582D01*
X161914450Y-84901212D01*
X161859351Y-84915632D01*
X161783989Y-84938822D01*
X161775536Y-84941586D01*
X161606596Y-85003088D01*
X161475759Y-85067184D01*
X161375804Y-85141086D01*
X161299508Y-85232004D01*
X161239649Y-85347150D01*
X161189004Y-85493734D01*
X161175760Y-85540410D01*
X161154500Y-85627978D01*
X161141528Y-85711996D01*
X161135633Y-85806636D01*
X161135605Y-85926071D01*
X161017989Y-85926071D01*
X161019656Y-85863232D01*
X161028680Y-85739415D01*
X161043054Y-85644608D01*
X161048932Y-85621932D01*
X161135907Y-85410675D01*
X161260022Y-85224795D01*
X161419436Y-85066085D01*
X161612307Y-84936337D01*
X161836794Y-84837345D01*
X161864185Y-84828134D01*
X162016935Y-84778289D01*
X162026016Y-84761570D01*
X162110090Y-84761570D01*
X162127946Y-84773866D01*
X162157144Y-84769463D01*
X162216717Y-84759414D01*
X162313852Y-84753308D01*
X162440752Y-84750840D01*
X162589615Y-84751706D01*
X162752644Y-84755602D01*
X162922038Y-84762223D01*
X163089998Y-84771266D01*
X163248726Y-84782425D01*
X163390421Y-84795398D01*
X163507284Y-84809879D01*
X163590807Y-84825389D01*
X163647970Y-84839039D01*
X163684129Y-84846922D01*
X163686591Y-84847336D01*
X163700759Y-84829211D01*
X163713905Y-84781887D01*
X163715009Y-84775632D01*
X163759738Y-84437823D01*
X163787122Y-84072881D01*
X163796886Y-83695914D01*
X163788757Y-83322032D01*
X163762458Y-82966342D01*
X163749855Y-82856394D01*
X163722240Y-82649995D01*
X163696107Y-82487297D01*
X163670089Y-82366532D01*
X163642821Y-82285928D01*
X163612937Y-82243717D01*
X163579073Y-82238129D01*
X163539861Y-82267394D01*
X163493938Y-82329741D01*
X163439937Y-82423403D01*
X163430060Y-82441926D01*
X163373629Y-82539366D01*
X163305345Y-82644529D01*
X163256558Y-82712487D01*
X163157689Y-82854072D01*
X163046674Y-83035265D01*
X162925632Y-83252404D01*
X162796684Y-83501830D01*
X162780051Y-83535224D01*
X162713783Y-83664723D01*
X162640057Y-83802214D01*
X162567828Y-83931344D01*
X162506049Y-84035757D01*
X162505657Y-84036390D01*
X162444811Y-84137052D01*
X162379209Y-84249560D01*
X162312859Y-84366570D01*
X162249767Y-84480736D01*
X162193939Y-84584713D01*
X162149383Y-84671157D01*
X162120105Y-84732721D01*
X162110090Y-84761570D01*
X162026016Y-84761570D01*
X162124381Y-84580481D01*
X162181443Y-84478099D01*
X162252650Y-84354234D01*
X162328034Y-84226063D01*
X162384577Y-84132089D01*
X162454758Y-84012702D01*
X162534906Y-83869611D01*
X162615444Y-83720267D01*
X162686795Y-83582122D01*
X162690874Y-83573973D01*
X162797605Y-83364176D01*
X162890663Y-83190347D01*
X162973619Y-83046281D01*
X163050046Y-82925775D01*
X163123517Y-82822626D01*
X163123822Y-82822224D01*
X163186500Y-82733521D01*
X163253656Y-82629212D01*
X163302105Y-82547053D01*
X163362466Y-82450361D01*
X163434350Y-82353516D01*
X163510745Y-82264100D01*
X163584639Y-82189695D01*
X163649022Y-82137884D01*
X163696883Y-82116248D01*
X163700677Y-82116036D01*
X163737456Y-82127390D01*
X163737456Y-82127390D01*
G37*
X163737456Y-82127390D02*
X163769118Y-82164249D01*
X163797091Y-82230808D01*
X163822801Y-82331261D01*
X163847674Y-82469803D01*
X163867253Y-82605811D01*
X163886329Y-82788680D01*
X163900216Y-83006290D01*
X163908916Y-83248121D01*
X163912430Y-83503649D01*
X163910760Y-83762353D01*
X163903909Y-84013711D01*
X163891877Y-84247201D01*
X163874667Y-84452300D01*
X163866928Y-84519354D01*
X163852378Y-84638548D01*
X163840849Y-84740657D01*
X163833173Y-84817676D01*
X163830177Y-84861597D01*
X163830715Y-84868668D01*
X163855438Y-84875942D01*
X163909534Y-84885289D01*
X163936325Y-84888987D01*
X164006393Y-84905791D01*
X164097243Y-84937948D01*
X164189836Y-84978673D01*
X164194484Y-84980968D01*
X164425881Y-85103945D01*
X164618662Y-85225571D01*
X164779161Y-85351934D01*
X164913714Y-85489121D01*
X165028653Y-85643218D01*
X165130312Y-85820314D01*
X165183724Y-85931629D01*
X165217859Y-86010698D01*
X165242788Y-86075664D01*
X165253641Y-86113722D01*
X165253767Y-86115779D01*
X165264179Y-86152720D01*
X165294657Y-86149889D01*
X165344062Y-86107839D01*
X165396259Y-86046574D01*
X165492437Y-85939052D01*
X165614087Y-85824894D01*
X165745745Y-85717467D01*
X165871947Y-85630140D01*
X165891614Y-85618333D01*
X165992349Y-85573710D01*
X166096368Y-85551445D01*
X166191029Y-85552539D01*
X166263686Y-85577994D01*
X166276471Y-85587862D01*
X166311821Y-85629826D01*
X166324439Y-85661898D01*
X166336463Y-85689895D01*
X166344653Y-85692538D01*
X166369173Y-85680428D01*
X166425083Y-85646766D01*
X166506053Y-85595554D01*
X166605754Y-85530793D01*
X166714033Y-85459040D01*
X166857574Y-85365482D01*
X167019397Y-85263960D01*
X167183450Y-85164311D01*
X167333678Y-85076371D01*
X167394262Y-85042258D01*
X167725324Y-84858974D01*
X167782736Y-84772676D01*
X167858103Y-84772676D01*
X167858192Y-84773614D01*
X167881015Y-84768378D01*
X167935061Y-84747481D01*
X168010430Y-84714872D01*
X168045257Y-84699005D01*
X168147859Y-84657199D01*
X168245365Y-84627327D01*
X168329138Y-84610946D01*
X168390540Y-84609616D01*
X168420933Y-84624895D01*
X168422626Y-84630894D01*
X168423836Y-84668068D01*
X168423949Y-84730537D01*
X168423711Y-84753526D01*
X168427324Y-84812343D01*
X168438650Y-84838085D01*
X168444429Y-84837397D01*
X168464478Y-84814965D01*
X168505641Y-84761782D01*
X168562976Y-84684472D01*
X168631542Y-84589660D01*
X168678583Y-84523495D01*
X168863033Y-84233494D01*
X169005659Y-83942466D01*
X169109635Y-83642233D01*
X169178132Y-83324615D01*
X169196687Y-83187558D01*
X169208800Y-83076298D01*
X169214691Y-83001139D01*
X169214012Y-82953003D01*
X169206421Y-82922813D01*
X169191571Y-82901490D01*
X169185590Y-82895407D01*
X169161360Y-82876125D01*
X169138488Y-82876780D01*
X169106802Y-82902320D01*
X169056129Y-82957692D01*
X169055057Y-82958905D01*
X168944422Y-83090776D01*
X168833917Y-83236752D01*
X168717766Y-83404967D01*
X168590193Y-83603553D01*
X168542332Y-83680832D01*
X168459778Y-83813951D01*
X168361548Y-83970405D01*
X168256974Y-84135446D01*
X168155388Y-84294322D01*
X168095300Y-84387422D01*
X168020738Y-84503391D01*
X167956122Y-84605788D01*
X167905069Y-84688725D01*
X167871191Y-84746317D01*
X167858103Y-84772676D01*
X167782736Y-84772676D01*
X167914073Y-84575263D01*
X167993520Y-84454545D01*
X168075757Y-84327381D01*
X168151797Y-84207801D01*
X168212649Y-84109837D01*
X168219883Y-84097919D01*
X168394393Y-83815023D01*
X168554422Y-83568052D01*
X168703869Y-83351243D01*
X168846630Y-83158832D01*
X168905428Y-83084041D01*
X169022922Y-82942336D01*
X169118724Y-82838893D01*
X169194552Y-82772887D01*
X169252129Y-82743496D01*
X169293172Y-82749894D01*
X169319404Y-82791260D01*
X169332543Y-82866770D01*
X169333387Y-82879175D01*
X169330107Y-83082125D01*
X169296880Y-83305184D01*
X169232898Y-83552108D01*
X169137353Y-83826655D01*
X169120381Y-83870116D01*
X169048566Y-84025631D01*
X168949393Y-84202260D01*
X168829084Y-84390321D01*
X168693862Y-84580136D01*
X168549947Y-84762024D01*
X168538092Y-84776123D01*
X168485527Y-84844783D01*
X168446844Y-84907426D01*
X168430857Y-84948816D01*
X168417061Y-85001059D01*
X168389184Y-85070316D01*
X168376008Y-85097615D01*
X168348598Y-85156206D01*
X168309876Y-85245361D01*
X168264915Y-85353131D01*
X168218790Y-85467568D01*
X168217177Y-85471648D01*
X168131448Y-85682406D01*
X168031665Y-85917358D01*
X167923672Y-86163405D01*
X167813316Y-86407449D01*
X167706440Y-86636394D01*
X167608891Y-86837140D01*
X167599031Y-86856837D01*
X167516708Y-87033049D01*
X167442312Y-87215923D01*
X167378717Y-87396489D01*
X167328793Y-87565779D01*
X167295414Y-87714823D01*
X167281453Y-87834653D01*
X167281211Y-87849212D01*
X167290697Y-87942323D01*
X167315806Y-88051335D01*
X167351513Y-88160742D01*
X167392793Y-88255035D01*
X167432621Y-88316518D01*
X167518510Y-88382042D01*
X167638194Y-88430444D01*
X167783087Y-88461323D01*
X167944600Y-88474272D01*
X168114146Y-88468888D01*
X168283138Y-88444767D01*
X168442988Y-88401504D01*
X168526916Y-88368035D01*
X168611238Y-88325538D01*
X168669340Y-88287911D01*
X168693362Y-88260332D01*
X168693587Y-88258267D01*
X168710197Y-88221733D01*
X168750382Y-88179803D01*
X168752531Y-88178090D01*
X168783991Y-88158636D01*
X168824065Y-88146122D01*
X168878373Y-88140816D01*
X168952538Y-88142988D01*
X169052181Y-88152908D01*
X169182922Y-88170845D01*
X169350384Y-88197070D01*
X169433946Y-88210773D01*
X169609131Y-88238009D01*
X169764764Y-88257634D01*
X169913567Y-88270440D01*
X170068263Y-88277220D01*
X170241577Y-88278767D01*
X170446230Y-88275872D01*
X170470448Y-88275334D01*
X170621023Y-88272127D01*
X170764464Y-88269496D01*
X170891410Y-88267579D01*
X170992494Y-88266517D01*
X171058355Y-88266450D01*
X171062735Y-88266504D01*
X171161227Y-88260565D01*
X171264165Y-88243442D01*
X171301928Y-88233599D01*
X171366982Y-88214018D01*
X171410846Y-88201307D01*
X171421525Y-88198614D01*
X171426266Y-88217437D01*
X171427220Y-88240860D01*
X171433732Y-88266914D01*
X171460977Y-88277178D01*
X171520517Y-88275563D01*
X171528018Y-88274956D01*
X171607711Y-88260827D01*
X171718903Y-88230923D01*
X171851832Y-88188797D01*
X171996740Y-88138003D01*
X172143868Y-88082095D01*
X172283455Y-88024627D01*
X172405743Y-87969153D01*
X172494350Y-87923064D01*
X172579236Y-87875446D01*
X172649673Y-87837897D01*
X172696182Y-87815363D01*
X172708863Y-87811103D01*
X172757167Y-87793186D01*
X172821286Y-87744768D01*
X172892669Y-87673844D01*
X172962766Y-87588413D01*
X172992870Y-87545471D01*
X173052125Y-87459940D01*
X173112698Y-87378951D01*
X173162516Y-87318569D01*
X173167126Y-87313548D01*
X173227847Y-87262300D01*
X173316729Y-87203567D01*
X173419209Y-87145697D01*
X173520726Y-87097039D01*
X173591167Y-87070445D01*
X173630622Y-87062639D01*
X173634678Y-87073368D01*
X173607806Y-87099113D01*
X173554476Y-87136359D01*
X173479157Y-87181587D01*
X173387560Y-87230651D01*
X173294350Y-87279508D01*
X173229522Y-87320315D01*
X173180275Y-87364506D01*
X173133806Y-87423516D01*
X173078839Y-87506412D01*
X172957214Y-87666659D01*
X172813675Y-87799248D01*
X172638788Y-87912237D01*
X172551575Y-87956814D01*
X172459225Y-88002940D01*
X172369679Y-88050759D01*
X172302105Y-88090027D01*
X172301349Y-88090503D01*
X172234789Y-88125010D01*
X172135815Y-88166965D01*
X172014519Y-88213008D01*
X171880996Y-88259778D01*
X171745337Y-88303915D01*
X171617637Y-88342058D01*
X171507988Y-88370848D01*
X171426484Y-88386924D01*
X171404761Y-88389011D01*
X171332728Y-88388635D01*
X171297534Y-88377963D01*
X171290538Y-88362105D01*
X171275340Y-88340309D01*
X171236805Y-88343596D01*
X171181450Y-88351751D01*
X171087739Y-88359187D01*
X170962874Y-88365789D01*
X170814057Y-88371445D01*
X170648488Y-88376041D01*
X170473368Y-88379465D01*
X170295899Y-88381603D01*
X170123282Y-88382342D01*
X169962719Y-88381569D01*
X169821409Y-88379171D01*
X169706555Y-88375034D01*
X169625358Y-88369046D01*
X169624374Y-88368935D01*
X169550837Y-88359382D01*
X169447591Y-88344438D01*
X169329841Y-88326359D01*
X169240314Y-88311961D01*
X169089245Y-88287778D01*
X168975692Y-88271929D01*
X168892364Y-88264508D01*
X168831969Y-88265606D01*
X168787214Y-88275316D01*
X168750808Y-88293729D01*
X168718266Y-88318566D01*
X168662804Y-88357663D01*
X168581408Y-88406096D01*
X168489760Y-88454656D01*
X168470300Y-88464190D01*
X168308455Y-88525620D01*
X168127869Y-88566226D01*
X167939482Y-88585703D01*
X167754232Y-88583751D01*
X167583061Y-88560067D01*
X167436906Y-88514350D01*
X167395112Y-88493873D01*
X167304205Y-88426666D01*
X167238813Y-88336095D01*
X167196345Y-88216477D01*
X167174213Y-88062127D01*
X167170896Y-88001696D01*
X167178194Y-87809133D01*
X167215389Y-87607030D01*
X167284082Y-87389492D01*
X167385872Y-87150621D01*
X167422381Y-87075371D01*
X167508210Y-86898164D01*
X167606005Y-86688427D01*
X167711328Y-86456135D01*
X167819738Y-86211262D01*
X167926798Y-85963783D01*
X168028068Y-85723672D01*
X168080055Y-85597473D01*
X168132755Y-85469278D01*
X168182266Y-85350650D01*
X168224957Y-85250155D01*
X168257196Y-85176356D01*
X168273236Y-85141868D01*
X168289862Y-85106180D01*
X168288511Y-85096916D01*
X168265228Y-85116304D01*
X168216056Y-85166569D01*
X168200691Y-85182709D01*
X168069605Y-85315008D01*
X167923088Y-85453158D01*
X167767929Y-85591546D01*
X167610913Y-85724560D01*
X167458828Y-85846584D01*
X167318460Y-85952007D01*
X167196598Y-86035214D01*
X167107434Y-86086929D01*
X167029507Y-86129206D01*
X166968626Y-86167904D01*
X166935651Y-86195968D01*
X166933154Y-86200180D01*
X166916107Y-86229226D01*
X166877435Y-86287718D01*
X166822218Y-86368188D01*
X166755536Y-86463169D01*
X166726476Y-86503992D01*
X166528502Y-86813197D01*
X166387894Y-87082941D01*
X166331580Y-87200028D01*
X166276268Y-87310020D01*
X166227334Y-87402556D01*
X166190154Y-87467276D01*
X166181643Y-87480382D01*
X166144966Y-87538614D01*
X166122612Y-87583288D01*
X166119417Y-87595716D01*
X166105036Y-87625461D01*
X166070252Y-87666244D01*
X166027606Y-87706212D01*
X165989639Y-87733509D01*
X165969664Y-87737284D01*
X165969118Y-87710410D01*
X165980372Y-87652340D01*
X166001031Y-87575172D01*
X166003152Y-87568093D01*
X166055893Y-87381749D01*
X166080051Y-87287157D01*
X166189077Y-87287157D01*
X166198892Y-87281700D01*
X166224907Y-87241878D01*
X166263229Y-87174220D01*
X166309966Y-87085250D01*
X166312754Y-87079769D01*
X166373099Y-86969270D01*
X166451599Y-86837513D01*
X166538927Y-86699579D01*
X166625753Y-86570547D01*
X166642429Y-86546866D01*
X166712396Y-86446886D01*
X166770909Y-86360352D01*
X166813725Y-86293780D01*
X166836600Y-86253688D01*
X166838993Y-86245058D01*
X166815242Y-86249511D01*
X166759751Y-86269952D01*
X166681893Y-86302736D01*
X166625650Y-86328051D01*
X166536489Y-86368039D01*
X166461898Y-86399482D01*
X166412120Y-86418170D01*
X166398444Y-86421506D01*
X166383234Y-86442223D01*
X166365489Y-86496920D01*
X166348718Y-86574421D01*
X166346613Y-86586663D01*
X166328686Y-86680696D01*
X166302658Y-86800329D01*
X166272624Y-86927265D01*
X166253579Y-87002403D01*
X166227387Y-87105775D01*
X166206368Y-87194875D01*
X166192872Y-87259324D01*
X166189077Y-87287157D01*
X166080051Y-87287157D01*
X166109810Y-87170639D01*
X166159983Y-86955146D01*
X166201496Y-86755656D01*
X166209768Y-86711636D01*
X166250494Y-86489209D01*
X166145090Y-86492095D01*
X166032190Y-86486299D01*
X165958274Y-86460694D01*
X165920660Y-86413902D01*
X165914395Y-86373588D01*
X165928687Y-86303626D01*
X165951564Y-86249396D01*
X166047112Y-86249396D01*
X166051268Y-86305160D01*
X166086644Y-86340417D01*
X166096637Y-86345876D01*
X166158724Y-86368532D01*
X166204843Y-86375610D01*
X166240667Y-86368086D01*
X166254464Y-86336172D01*
X166255937Y-86301910D01*
X166253318Y-86220165D01*
X166250015Y-86175479D01*
X166370582Y-86175479D01*
X166372116Y-86262954D01*
X166382637Y-86315044D01*
X166408660Y-86335698D01*
X166456701Y-86328865D01*
X166533275Y-86298492D01*
X166644899Y-86248527D01*
X166677534Y-86234100D01*
X166767937Y-86193491D01*
X166843516Y-86157805D01*
X166893809Y-86132071D01*
X166907342Y-86123628D01*
X166929211Y-86096342D01*
X166957462Y-86054987D01*
X167037106Y-86054987D01*
X167039069Y-86057022D01*
X167063820Y-86046922D01*
X167117794Y-86020180D01*
X167190306Y-85982132D01*
X167206391Y-85973474D01*
X167317396Y-85905411D01*
X167450491Y-85811065D01*
X167597019Y-85697771D01*
X167748319Y-85572865D01*
X167895732Y-85443682D01*
X168030600Y-85317558D01*
X168144262Y-85201828D01*
X168218630Y-85115978D01*
X168267981Y-85050229D01*
X168294050Y-84999835D01*
X168303199Y-84945552D01*
X168301787Y-84868136D01*
X168301629Y-84864853D01*
X168296753Y-84788675D01*
X168287680Y-84746725D01*
X168268574Y-84727702D01*
X168233601Y-84720302D01*
X168226592Y-84719493D01*
X168161066Y-84726717D01*
X168072743Y-84755332D01*
X167974430Y-84798887D01*
X167878934Y-84850928D01*
X167799062Y-84905003D01*
X167747622Y-84954657D01*
X167741696Y-84963803D01*
X167712958Y-85010094D01*
X167664677Y-85082902D01*
X167603908Y-85171751D01*
X167545851Y-85254677D01*
X167451627Y-85389678D01*
X167359666Y-85524962D01*
X167273213Y-85655393D01*
X167195512Y-85775835D01*
X167129806Y-85881152D01*
X167079341Y-85966207D01*
X167047359Y-86025864D01*
X167037106Y-86054987D01*
X166957462Y-86054987D01*
X166968113Y-86039396D01*
X167017731Y-85962251D01*
X167052004Y-85906958D01*
X167112820Y-85810686D01*
X167190543Y-85692354D01*
X167275307Y-85566763D01*
X167357249Y-85448717D01*
X167359605Y-85445385D01*
X167455027Y-85308311D01*
X167535310Y-85188635D01*
X167597954Y-85090387D01*
X167640459Y-85017595D01*
X167660327Y-84974288D01*
X167658550Y-84963569D01*
X167626236Y-84975029D01*
X167561749Y-85006912D01*
X167471537Y-85055471D01*
X167362050Y-85116959D01*
X167239735Y-85187629D01*
X167111041Y-85263735D01*
X166982416Y-85341529D01*
X166860308Y-85417264D01*
X166751167Y-85487195D01*
X166706768Y-85516599D01*
X166371519Y-85741592D01*
X166371519Y-86048673D01*
X166370582Y-86175479D01*
X166250015Y-86175479D01*
X166246696Y-86130579D01*
X166237440Y-86044621D01*
X166226918Y-85973758D01*
X166216498Y-85929458D01*
X166210418Y-85920340D01*
X166189486Y-85939546D01*
X166158030Y-85989082D01*
X166122064Y-86056828D01*
X166087604Y-86130661D01*
X166060665Y-86198461D01*
X166047265Y-86248107D01*
X166047112Y-86249396D01*
X165951564Y-86249396D01*
X165967015Y-86212770D01*
X166022549Y-86113641D01*
X166088465Y-86018860D01*
X166137032Y-85961960D01*
X166185016Y-85905707D01*
X166204264Y-85862851D01*
X166201358Y-85818007D01*
X166200369Y-85813889D01*
X166162035Y-85724562D01*
X166100516Y-85674282D01*
X166014774Y-85662278D01*
X165998103Y-85663939D01*
X165853932Y-85704636D01*
X165706162Y-85789884D01*
X165555875Y-85918914D01*
X165413784Y-86078800D01*
X165351791Y-86161163D01*
X165318244Y-86218834D01*
X165309245Y-86259209D01*
X165311729Y-86272432D01*
X165321438Y-86317242D01*
X165332861Y-86392148D01*
X165343701Y-86481863D01*
X165344804Y-86492421D01*
X165355582Y-86583686D01*
X165367396Y-86662693D01*
X165377864Y-86713707D01*
X165378791Y-86716809D01*
X165389848Y-86780653D01*
X165394901Y-86871925D01*
X165393870Y-86972880D01*
X165386680Y-87065774D01*
X165380497Y-87104914D01*
X165360934Y-87169777D01*
X165327533Y-87252583D01*
X165300289Y-87309937D01*
X165262955Y-87386359D01*
X165232963Y-87453967D01*
X165220003Y-87488507D01*
X165176862Y-87580375D01*
X165101273Y-87688893D01*
X164999995Y-87807507D01*
X164879791Y-87929663D01*
X164747419Y-88048806D01*
X164609641Y-88158383D01*
X164473216Y-88251839D01*
X164374792Y-88307952D01*
X164319847Y-88332846D01*
X164238009Y-88366064D01*
X164139141Y-88404033D01*
X164033105Y-88443179D01*
X163929762Y-88479929D01*
X163838977Y-88510709D01*
X163770609Y-88531947D01*
X163734523Y-88540067D01*
X163734164Y-88540071D01*
X163729756Y-88520006D01*
X163727548Y-88470652D01*
X163727489Y-88460015D01*
X163738520Y-88406834D01*
X163759379Y-88349048D01*
X163853652Y-88349048D01*
X163857019Y-88392914D01*
X163874824Y-88403390D01*
X163908570Y-88396596D01*
X163975292Y-88378180D01*
X164064795Y-88351089D01*
X164150572Y-88323640D01*
X164322403Y-88262420D01*
X164464356Y-88198960D01*
X164591715Y-88125008D01*
X164719765Y-88032316D01*
X164779343Y-87984230D01*
X164922690Y-87849602D01*
X165028344Y-87711563D01*
X165103689Y-87560520D01*
X165137790Y-87481698D01*
X165174814Y-87408353D01*
X165185728Y-87389559D01*
X165231601Y-87283048D01*
X165259748Y-87150311D01*
X165267959Y-87007963D01*
X165254299Y-86873973D01*
X165236177Y-86771318D01*
X165218832Y-86652351D01*
X165208214Y-86563029D01*
X165197835Y-86479894D01*
X165186210Y-86415290D01*
X165175685Y-86381972D01*
X165174717Y-86380786D01*
X165151775Y-86388490D01*
X165105027Y-86427000D01*
X165038977Y-86491423D01*
X164958129Y-86576868D01*
X164866986Y-86678441D01*
X164770051Y-86791250D01*
X164671829Y-86910404D01*
X164580171Y-87026653D01*
X164480839Y-87161874D01*
X164381121Y-87308757D01*
X164283386Y-87462680D01*
X164190002Y-87619022D01*
X164103336Y-87773160D01*
X164025756Y-87920473D01*
X163959630Y-88056340D01*
X163907325Y-88176140D01*
X163871210Y-88275249D01*
X163853652Y-88349048D01*
X163759379Y-88349048D01*
X163769737Y-88320355D01*
X163818322Y-88206606D01*
X163881457Y-88071617D01*
X163956326Y-87921418D01*
X164040111Y-87762036D01*
X164127599Y-87603727D01*
X164221591Y-87451623D01*
X164341399Y-87278823D01*
X164479140Y-87095291D01*
X164626929Y-86910989D01*
X164776880Y-86735880D01*
X164921109Y-86579927D01*
X165000455Y-86500812D01*
X165168578Y-86339471D01*
X165083615Y-86127114D01*
X164961078Y-85868943D01*
X164813887Y-85647427D01*
X164639537Y-85459404D01*
X164435519Y-85301712D01*
X164422287Y-85293151D01*
X164338190Y-85242498D01*
X164238804Y-85187547D01*
X164133506Y-85132899D01*
X164031672Y-85083157D01*
X163942680Y-85042923D01*
X163875905Y-85016801D01*
X163843655Y-85009130D01*
X163825597Y-85010129D01*
X163811427Y-85017237D01*
X163799377Y-85036623D01*
X163787680Y-85074454D01*
X163774566Y-85136899D01*
X163758267Y-85230125D01*
X163737014Y-85360301D01*
X163729359Y-85407784D01*
X163690980Y-85639274D01*
X163649965Y-85872736D01*
X163604741Y-86116419D01*
X163553736Y-86378568D01*
X163495374Y-86667430D01*
X163428083Y-86991253D01*
X163418549Y-87036574D01*
X163337113Y-87417202D01*
X163261759Y-87756274D01*
X163191562Y-88057252D01*
X163125595Y-88323599D01*
X163062932Y-88558777D01*
X163002649Y-88766248D01*
X162943819Y-88949474D01*
X162885516Y-89111918D01*
X162826816Y-89257042D01*
X162821626Y-89269040D01*
X162776281Y-89374761D01*
X162736607Y-89469955D01*
X162706826Y-89544308D01*
X162691162Y-89587505D01*
X162691027Y-89587964D01*
X162654494Y-89659653D01*
X162595069Y-89729682D01*
X162539352Y-89771958D01*
X162514654Y-89775937D01*
X162488926Y-89754877D01*
X162455644Y-89701929D01*
X162434288Y-89661660D01*
X162389423Y-89566490D01*
X162346927Y-89463209D01*
X162326445Y-89405722D01*
X162295652Y-89322367D01*
X162252335Y-89219697D01*
X162205361Y-89118626D01*
X162200886Y-89109578D01*
X162149527Y-88999721D01*
X162096943Y-88876576D01*
X162054915Y-88767874D01*
X162028759Y-88704078D01*
X161984441Y-88606815D01*
X161925241Y-88482819D01*
X161854439Y-88338821D01*
X161775313Y-88181556D01*
X161691145Y-88017757D01*
X161666265Y-87970001D01*
X161554412Y-87753616D01*
X161462416Y-87569940D01*
X161387203Y-87412315D01*
X161325699Y-87274083D01*
X161274828Y-87148584D01*
X161231517Y-87029160D01*
X161230583Y-87026425D01*
X161122626Y-86709869D01*
X161053334Y-86856136D01*
X161016322Y-86933452D01*
X160965593Y-87038323D01*
X160907602Y-87157453D01*
X160848804Y-87277545D01*
X160844081Y-87287157D01*
X160780922Y-87417733D01*
X160714104Y-87559325D01*
X160651838Y-87694353D01*
X160604735Y-87799713D01*
X160548291Y-87920002D01*
X160481325Y-88049181D01*
X160414897Y-88166326D01*
X160387988Y-88209758D01*
X160334741Y-88297482D01*
X160269116Y-88413229D01*
X160198321Y-88543884D01*
X160129560Y-88676334D01*
X160108142Y-88719011D01*
X160049531Y-88835409D01*
X159994659Y-88941539D01*
X159948104Y-89028753D01*
X159914443Y-89088403D01*
X159903122Y-89106275D01*
X159867295Y-89164702D01*
X159827616Y-89240210D01*
X159813984Y-89269040D01*
X159768858Y-89347877D01*
X159712298Y-89421184D01*
X159693940Y-89439892D01*
X159620495Y-89508233D01*
X159716758Y-89325991D01*
X159762248Y-89239496D01*
X159822078Y-89125199D01*
X159889638Y-88995751D01*
X159958319Y-88863809D01*
X159984486Y-88813435D01*
X160054129Y-88681976D01*
X160128346Y-88546426D01*
X160199688Y-88420114D01*
X160260704Y-88316365D01*
X160278760Y-88287021D01*
X160330247Y-88203366D01*
X160371115Y-88134223D01*
X160396186Y-88088512D01*
X160401570Y-88075370D01*
X160410968Y-88051323D01*
X160437388Y-87991959D01*
X160478165Y-87903051D01*
X160530634Y-87790370D01*
X160592130Y-87659689D01*
X160642310Y-87553891D01*
X160716297Y-87398334D01*
X160790347Y-87242510D01*
X160860076Y-87095661D01*
X160921094Y-86967029D01*
X160969015Y-86865856D01*
X160986064Y-86829787D01*
X161089077Y-86611609D01*
X161058718Y-86509378D01*
X161224425Y-86509378D01*
X161348573Y-86869392D01*
X161393116Y-86996267D01*
X161435839Y-87113818D01*
X161473239Y-87212705D01*
X161501814Y-87283590D01*
X161513643Y-87309537D01*
X161534580Y-87350360D01*
X161573282Y-87425648D01*
X161626641Y-87529364D01*
X161691551Y-87655475D01*
X161764908Y-87797943D01*
X161843605Y-87950734D01*
X161853820Y-87970565D01*
X161934934Y-88129875D01*
X162012195Y-88285086D01*
X162082151Y-88428996D01*
X162141350Y-88554403D01*
X162186340Y-88654108D01*
X162213670Y-88720907D01*
X162214175Y-88722314D01*
X162256141Y-88831343D01*
X162305764Y-88948381D01*
X162348998Y-89041237D01*
X162391134Y-89130582D01*
X162428645Y-89218233D01*
X162451757Y-89280430D01*
X162479899Y-89356193D01*
X162518147Y-89444402D01*
X162537141Y-89483947D01*
X162593488Y-89596342D01*
X162704827Y-89340856D01*
X162751245Y-89224496D01*
X162803869Y-89076182D01*
X162858580Y-88908335D01*
X162911259Y-88733375D01*
X162938654Y-88635756D01*
X162979981Y-88482053D01*
X163020691Y-88327047D01*
X163057863Y-88182121D01*
X163088577Y-88058659D01*
X163109441Y-87970147D01*
X163176476Y-87666363D01*
X163241669Y-87363221D01*
X163304409Y-87064047D01*
X163364088Y-86772169D01*
X163420095Y-86490914D01*
X163471820Y-86223609D01*
X163518654Y-85973581D01*
X163559988Y-85744157D01*
X163595210Y-85538664D01*
X163623713Y-85360430D01*
X163644885Y-85212781D01*
X163658118Y-85099044D01*
X163662801Y-85022547D01*
X163658325Y-84986616D01*
X163656550Y-84984744D01*
X163608245Y-84967062D01*
X163522314Y-84947976D01*
X163406621Y-84928605D01*
X163269031Y-84910067D01*
X163117407Y-84893481D01*
X162959615Y-84879966D01*
X162884619Y-84874936D01*
X162718330Y-84864970D01*
X162589811Y-84857727D01*
X162491363Y-84853064D01*
X162415286Y-84850836D01*
X162353880Y-84850902D01*
X162299445Y-84853116D01*
X162244281Y-84857336D01*
X162194359Y-84862068D01*
X162039435Y-84877305D01*
X161631930Y-85693341D01*
X161224425Y-86509378D01*
X161058718Y-86509378D01*
X161052857Y-86489643D01*
X161035959Y-86404131D01*
X161024134Y-86286510D01*
X161017439Y-86149004D01*
X161015928Y-86003837D01*
X161017989Y-85926071D01*
X161135605Y-85926071D01*
X161137192Y-85991987D01*
X161143177Y-86117881D01*
X161152829Y-86226017D01*
X161165049Y-86306258D01*
X161175124Y-86341775D01*
X161183293Y-86358602D01*
X161192144Y-86367701D01*
X161203745Y-86365539D01*
X161220165Y-86348583D01*
X161243469Y-86313300D01*
X161275725Y-86256155D01*
X161319001Y-86173617D01*
X161375364Y-86062151D01*
X161446881Y-85918224D01*
X161535619Y-85738303D01*
X161574970Y-85658367D01*
X161658864Y-85487335D01*
X161735713Y-85329527D01*
X161803336Y-85189509D01*
X161859550Y-85071850D01*
X161902174Y-84981117D01*
X161929027Y-84921878D01*
X161937927Y-84898700D01*
X161937874Y-84898582D01*
X161914450Y-84901212D01*
X161859351Y-84915632D01*
X161783989Y-84938822D01*
X161775536Y-84941586D01*
X161606596Y-85003088D01*
X161475759Y-85067184D01*
X161375804Y-85141086D01*
X161299508Y-85232004D01*
X161239649Y-85347150D01*
X161189004Y-85493734D01*
X161175760Y-85540410D01*
X161154500Y-85627978D01*
X161141528Y-85711996D01*
X161135633Y-85806636D01*
X161135605Y-85926071D01*
X161017989Y-85926071D01*
X161019656Y-85863232D01*
X161028680Y-85739415D01*
X161043054Y-85644608D01*
X161048932Y-85621932D01*
X161135907Y-85410675D01*
X161260022Y-85224795D01*
X161419436Y-85066085D01*
X161612307Y-84936337D01*
X161836794Y-84837345D01*
X161864185Y-84828134D01*
X162016935Y-84778289D01*
X162026016Y-84761570D01*
X162110090Y-84761570D01*
X162127946Y-84773866D01*
X162157144Y-84769463D01*
X162216717Y-84759414D01*
X162313852Y-84753308D01*
X162440752Y-84750840D01*
X162589615Y-84751706D01*
X162752644Y-84755602D01*
X162922038Y-84762223D01*
X163089998Y-84771266D01*
X163248726Y-84782425D01*
X163390421Y-84795398D01*
X163507284Y-84809879D01*
X163590807Y-84825389D01*
X163647970Y-84839039D01*
X163684129Y-84846922D01*
X163686591Y-84847336D01*
X163700759Y-84829211D01*
X163713905Y-84781887D01*
X163715009Y-84775632D01*
X163759738Y-84437823D01*
X163787122Y-84072881D01*
X163796886Y-83695914D01*
X163788757Y-83322032D01*
X163762458Y-82966342D01*
X163749855Y-82856394D01*
X163722240Y-82649995D01*
X163696107Y-82487297D01*
X163670089Y-82366532D01*
X163642821Y-82285928D01*
X163612937Y-82243717D01*
X163579073Y-82238129D01*
X163539861Y-82267394D01*
X163493938Y-82329741D01*
X163439937Y-82423403D01*
X163430060Y-82441926D01*
X163373629Y-82539366D01*
X163305345Y-82644529D01*
X163256558Y-82712487D01*
X163157689Y-82854072D01*
X163046674Y-83035265D01*
X162925632Y-83252404D01*
X162796684Y-83501830D01*
X162780051Y-83535224D01*
X162713783Y-83664723D01*
X162640057Y-83802214D01*
X162567828Y-83931344D01*
X162506049Y-84035757D01*
X162505657Y-84036390D01*
X162444811Y-84137052D01*
X162379209Y-84249560D01*
X162312859Y-84366570D01*
X162249767Y-84480736D01*
X162193939Y-84584713D01*
X162149383Y-84671157D01*
X162120105Y-84732721D01*
X162110090Y-84761570D01*
X162026016Y-84761570D01*
X162124381Y-84580481D01*
X162181443Y-84478099D01*
X162252650Y-84354234D01*
X162328034Y-84226063D01*
X162384577Y-84132089D01*
X162454758Y-84012702D01*
X162534906Y-83869611D01*
X162615444Y-83720267D01*
X162686795Y-83582122D01*
X162690874Y-83573973D01*
X162797605Y-83364176D01*
X162890663Y-83190347D01*
X162973619Y-83046281D01*
X163050046Y-82925775D01*
X163123517Y-82822626D01*
X163123822Y-82822224D01*
X163186500Y-82733521D01*
X163253656Y-82629212D01*
X163302105Y-82547053D01*
X163362466Y-82450361D01*
X163434350Y-82353516D01*
X163510745Y-82264100D01*
X163584639Y-82189695D01*
X163649022Y-82137884D01*
X163696883Y-82116248D01*
X163700677Y-82116036D01*
X163737456Y-82127390D01*
D14*
X154662000Y-46506000D02*
X154592000Y-46506000D01*
X154662000Y-46576000D02*
X154662000Y-46506000D01*
X154662000Y-49506000D02*
X154662000Y-49436000D01*
X154592000Y-49506000D02*
X154662000Y-49506000D01*
X151662000Y-49506000D02*
X151732000Y-49506000D01*
X151662000Y-49436000D02*
X151662000Y-49506000D01*
D15*
X150862000Y-47006000D02*
G75*
G03X150862000Y-47006000I-100000J0D01*
G01*
D14*
X151662000Y-46506000D02*
X151662000Y-46576000D01*
X151732000Y-46506000D02*
X151662000Y-46506000D01*
X164840000Y-50048000D02*
X165380000Y-50048000D01*
X167900000Y-50048000D02*
X167360000Y-50048000D01*
X167900000Y-47488000D02*
X167360000Y-47488000D01*
X164840000Y-47488000D02*
X165380000Y-47488000D01*
D15*
X164210000Y-47968000D02*
G75*
G03X164210000Y-47968000I-100000J0D01*
G01*
D16*
X136230000Y-51248500D02*
G75*
G03X136230000Y-51248500I-100000J0D01*
G01*
D14*
X136530000Y-46448500D02*
X136530000Y-51648500D01*
X140330000Y-46448500D02*
X136530000Y-46448500D01*
X140330000Y-51648500D02*
X140330000Y-46448500D01*
X136530000Y-51648500D02*
X140330000Y-51648500D01*
X127004000Y-64134000D02*
X127004000Y-63884000D01*
X114804000Y-64134000D02*
X127004000Y-64134000D01*
X114804000Y-63884000D02*
X114804000Y-64134000D01*
X127004000Y-48134000D02*
X127004000Y-48384000D01*
X114804000Y-48134000D02*
X127004000Y-48134000D01*
X114804000Y-48384000D02*
X114804000Y-48134000D01*
D17*
X113115000Y-49098000D02*
G75*
G03X113115000Y-49098000I-100000J0D01*
G01*
D10*
X136906000Y-76327000D02*
X120396000Y-76327000D01*
X120396000Y-66167000D02*
X136906000Y-66167000D01*
X120396000Y-76327000D02*
X120396000Y-66167000D01*
X136906000Y-76327000D02*
X136906000Y-66167000D01*
X124206000Y-73787000D02*
X124206000Y-68707000D01*
X126746000Y-76327000D02*
X124206000Y-73787000D01*
X131826000Y-76327000D02*
X126746000Y-76327000D01*
X134366000Y-73787000D02*
X131826000Y-76327000D01*
X134366000Y-68707000D02*
X134366000Y-73787000D01*
X131826000Y-66167000D02*
X134366000Y-68707000D01*
X126746000Y-66167000D02*
X131826000Y-66167000D01*
X124206000Y-68707000D02*
X126746000Y-66167000D01*
X136906000Y-87503000D02*
X120396000Y-87503000D01*
X120396000Y-77343000D02*
X136906000Y-77343000D01*
X120396000Y-87503000D02*
X120396000Y-77343000D01*
X136906000Y-87503000D02*
X136906000Y-77343000D01*
X124206000Y-84963000D02*
X124206000Y-79883000D01*
X126746000Y-87503000D02*
X124206000Y-84963000D01*
X131826000Y-87503000D02*
X126746000Y-87503000D01*
X134366000Y-84963000D02*
X131826000Y-87503000D01*
X134366000Y-79883000D02*
X134366000Y-84963000D01*
X131826000Y-77343000D02*
X134366000Y-79883000D01*
X126746000Y-77343000D02*
X131826000Y-77343000D01*
X124206000Y-79883000D02*
X126746000Y-77343000D01*
D11*
X143876500Y-67459776D02*
X143876500Y-67969224D01*
X144921500Y-67459776D02*
X144921500Y-67969224D01*
X141082500Y-67459776D02*
X141082500Y-67969224D01*
X142127500Y-67459776D02*
X142127500Y-67969224D01*
X166228500Y-67459776D02*
X166228500Y-67969224D01*
X167273500Y-67459776D02*
X167273500Y-67969224D01*
X160640500Y-67459776D02*
X160640500Y-67969224D01*
X161685500Y-67459776D02*
X161685500Y-67969224D01*
X171816500Y-67459776D02*
X171816500Y-67969224D01*
X172861500Y-67459776D02*
X172861500Y-67969224D01*
X177404500Y-67459776D02*
X177404500Y-67969224D01*
X178449500Y-67459776D02*
X178449500Y-67969224D01*
X157846500Y-67459776D02*
X157846500Y-67969224D01*
X158891500Y-67459776D02*
X158891500Y-67969224D01*
X174610500Y-67459776D02*
X174610500Y-67969224D01*
X175655500Y-67459776D02*
X175655500Y-67969224D01*
X155052500Y-67459776D02*
X155052500Y-67969224D01*
X156097500Y-67459776D02*
X156097500Y-67969224D01*
X152258500Y-67459776D02*
X152258500Y-67969224D01*
X153303500Y-67459776D02*
X153303500Y-67969224D01*
X169022500Y-67459776D02*
X169022500Y-67969224D01*
X170067500Y-67459776D02*
X170067500Y-67969224D01*
X149464500Y-67459776D02*
X149464500Y-67969224D01*
X150509500Y-67459776D02*
X150509500Y-67969224D01*
X146670500Y-67459776D02*
X146670500Y-67969224D01*
X147715500Y-67459776D02*
X147715500Y-67969224D01*
X163434500Y-67459776D02*
X163434500Y-67969224D01*
X164479500Y-67459776D02*
X164479500Y-67969224D01*
X180198500Y-67459776D02*
X180198500Y-67969224D01*
X181243500Y-67459776D02*
X181243500Y-67969224D01*
X110998724Y-41006500D02*
X110489276Y-41006500D01*
X110998724Y-42051500D02*
X110489276Y-42051500D01*
X110631500Y-49022724D02*
X110631500Y-48513276D01*
X109586500Y-49022724D02*
X109586500Y-48513276D01*
X139206500Y-54102724D02*
X139206500Y-53593276D01*
X138161500Y-54102724D02*
X138161500Y-53593276D01*
X110377500Y-60984224D02*
X110377500Y-60474776D01*
X109332500Y-60984224D02*
X109332500Y-60474776D01*
X143661224Y-48245500D02*
X143151776Y-48245500D01*
X143661224Y-49290500D02*
X143151776Y-49290500D01*
X111491500Y-57506776D02*
X111491500Y-58016224D01*
X112536500Y-57506776D02*
X112536500Y-58016224D01*
X111364500Y-64538776D02*
X111364500Y-65048224D01*
X112409500Y-64538776D02*
X112409500Y-65048224D01*
X145134000Y-72893000D02*
X145134000Y-70433000D01*
X143664000Y-72893000D02*
X145134000Y-72893000D01*
X143664000Y-70433000D02*
X143664000Y-72893000D01*
X142340000Y-72907000D02*
X142340000Y-70447000D01*
X140870000Y-72907000D02*
X142340000Y-72907000D01*
X140870000Y-70447000D02*
X140870000Y-72907000D01*
X167486000Y-72893000D02*
X167486000Y-70433000D01*
X166016000Y-72893000D02*
X167486000Y-72893000D01*
X166016000Y-70433000D02*
X166016000Y-72893000D01*
X161898000Y-72893000D02*
X161898000Y-70433000D01*
X160428000Y-72893000D02*
X161898000Y-72893000D01*
X160428000Y-70433000D02*
X160428000Y-72893000D01*
X173074000Y-72893000D02*
X173074000Y-70433000D01*
X171604000Y-72893000D02*
X173074000Y-72893000D01*
X171604000Y-70433000D02*
X171604000Y-72893000D01*
X178662000Y-72893000D02*
X178662000Y-70433000D01*
X177192000Y-72893000D02*
X178662000Y-72893000D01*
X177192000Y-70433000D02*
X177192000Y-72893000D01*
X159104000Y-72893000D02*
X159104000Y-70433000D01*
X157634000Y-72893000D02*
X159104000Y-72893000D01*
X157634000Y-70433000D02*
X157634000Y-72893000D01*
X175868000Y-72893000D02*
X175868000Y-70433000D01*
X174398000Y-72893000D02*
X175868000Y-72893000D01*
X174398000Y-70433000D02*
X174398000Y-72893000D01*
X156310000Y-72893000D02*
X156310000Y-70433000D01*
X154840000Y-72893000D02*
X156310000Y-72893000D01*
X154840000Y-70433000D02*
X154840000Y-72893000D01*
X153516000Y-72893000D02*
X153516000Y-70433000D01*
X152046000Y-72893000D02*
X153516000Y-72893000D01*
X152046000Y-70433000D02*
X152046000Y-72893000D01*
X170280000Y-72893000D02*
X170280000Y-70433000D01*
X168810000Y-72893000D02*
X170280000Y-72893000D01*
X168810000Y-70433000D02*
X168810000Y-72893000D01*
X150722000Y-72893000D02*
X150722000Y-70433000D01*
X149252000Y-72893000D02*
X150722000Y-72893000D01*
X149252000Y-70433000D02*
X149252000Y-72893000D01*
X147928000Y-72893000D02*
X147928000Y-70433000D01*
X146458000Y-72893000D02*
X147928000Y-72893000D01*
X146458000Y-70433000D02*
X146458000Y-72893000D01*
X164692000Y-72893000D02*
X164692000Y-70433000D01*
X163222000Y-72893000D02*
X164692000Y-72893000D01*
X163222000Y-70433000D02*
X163222000Y-72893000D01*
X181456000Y-72893000D02*
X181456000Y-70433000D01*
X179986000Y-72893000D02*
X181456000Y-72893000D01*
X179986000Y-70433000D02*
X179986000Y-72893000D01*
D10*
X96393000Y-75692000D02*
X108686600Y-75692000D01*
X84074000Y-75692000D02*
X91821000Y-75692000D01*
X91821000Y-91440000D02*
X84074000Y-91440000D01*
X96393000Y-91440000D02*
X108686600Y-91440000D01*
X95250000Y-83566000D02*
G75*
G03X95250000Y-83566000I-1143000J0D01*
G01*
X94107000Y-81280000D02*
X94107000Y-78003400D01*
X96393000Y-83566000D02*
X108686600Y-83566000D01*
X94107000Y-85852000D02*
X94107000Y-89154000D01*
X96393000Y-83566000D02*
X95250000Y-83566000D01*
X94107000Y-81280000D02*
X94107000Y-82423000D01*
X84074000Y-83540600D02*
X92964000Y-83540600D01*
X94107000Y-85852000D02*
X94107000Y-84709000D01*
X94107000Y-76835000D02*
X94107000Y-78003400D01*
X96367600Y-75692000D02*
X95275400Y-75692000D01*
X91795600Y-91440000D02*
X92964000Y-91440000D01*
X94107000Y-89128600D02*
X94107000Y-90297000D01*
X96418400Y-91440000D02*
X95224600Y-91440000D01*
X92964000Y-75692000D02*
G75*
G03X94107000Y-76835000I1143000J0D01*
G01*
X94107000Y-76835000D02*
G75*
G03X95250000Y-75692000I0J1143000D01*
G01*
X92964000Y-75692000D02*
X91744800Y-75692000D01*
X108686600Y-75692000D02*
X108686600Y-91440000D01*
X84048600Y-75692000D02*
X84048600Y-91440000D01*
X94107000Y-90322400D02*
G75*
G03X92989400Y-91440000I0J-1117600D01*
G01*
X95224600Y-91440000D02*
G75*
G03X94107000Y-90322400I-1117600J0D01*
G01*
X108585000Y-52832000D02*
X106045000Y-52832000D01*
X106045000Y-42672000D02*
X108585000Y-42672000D01*
X106045000Y-52832000D02*
X106045000Y-40767000D01*
X99695000Y-49022000D02*
X102235000Y-49022000D01*
X98425000Y-50292000D02*
X94615000Y-50292000D01*
X98425000Y-50292000D02*
X99695000Y-50292000D01*
X106045000Y-52832000D02*
X106045000Y-54737000D01*
X106045000Y-54737000D02*
X94107000Y-54737000D01*
X94107000Y-50292000D02*
X94615000Y-50292000D01*
X108585000Y-42672000D02*
X108585000Y-52832000D01*
X106045000Y-40767000D02*
X94107000Y-40767000D01*
X94107000Y-45212000D02*
X99695000Y-45212000D01*
X102235000Y-46482000D02*
X102235000Y-49022000D01*
X99695000Y-46482000D02*
X102235000Y-46482000D01*
X99695000Y-50292000D02*
X99695000Y-45212000D01*
X94107000Y-54737000D02*
X94107000Y-40767000D01*
D18*
X92202000Y-65532000D02*
X92456000Y-58420000D01*
X91694000Y-65532000D02*
X91948000Y-58420000D01*
X91186000Y-65532000D02*
X91440000Y-58420000D01*
X90678000Y-65532000D02*
X90932000Y-58420000D01*
X90170000Y-65532000D02*
X90424000Y-58420000D01*
X89662000Y-65532000D02*
X89916000Y-58420000D01*
X89154000Y-65532000D02*
X89408000Y-58420000D01*
X88646000Y-65532000D02*
X88900000Y-58420000D01*
D10*
X102306000Y-58476000D02*
X95306000Y-58476000D01*
X95306000Y-58476000D02*
X95306000Y-65476000D01*
X95306000Y-65476000D02*
X102306000Y-65476000D01*
X102306000Y-65476000D02*
X102306000Y-58476000D01*
X102306000Y-65476000D02*
X87106000Y-65476000D01*
X102306000Y-58476000D02*
X87106000Y-58476000D01*
X87106000Y-58476000D02*
X87106000Y-65476000D01*
D18*
X88138000Y-65532000D02*
X88392000Y-58420000D01*
D11*
X155821767Y-50925000D02*
X155529233Y-50925000D01*
X155821767Y-51945000D02*
X155529233Y-51945000D01*
X150375233Y-52072000D02*
X150667767Y-52072000D01*
X150375233Y-51052000D02*
X150667767Y-51052000D01*
X157726767Y-48512000D02*
X157434233Y-48512000D01*
X157726767Y-49532000D02*
X157434233Y-49532000D01*
X165352000Y-52151233D02*
X165352000Y-52443767D01*
X166372000Y-52151233D02*
X166372000Y-52443767D01*
X169801000Y-50538767D02*
X169801000Y-50246233D01*
X168781000Y-50538767D02*
X168781000Y-50246233D01*
X134110000Y-51516233D02*
X134110000Y-51808767D01*
X135130000Y-51516233D02*
X135130000Y-51808767D01*
X133098000Y-51808767D02*
X133098000Y-51516233D01*
X132078000Y-51808767D02*
X132078000Y-51516233D01*
X143004000Y-51554767D02*
X143004000Y-51262233D01*
X141984000Y-51554767D02*
X141984000Y-51262233D01*
X109138767Y-63244000D02*
X108846233Y-63244000D01*
X109138767Y-64264000D02*
X108846233Y-64264000D01*
X138174000Y-72598233D02*
X138174000Y-72890767D01*
X139194000Y-72598233D02*
X139194000Y-72890767D01*
X138174000Y-81922233D02*
X138174000Y-82214767D01*
X139194000Y-81922233D02*
X139194000Y-82214767D01*
X118155767Y-76198000D02*
X117863233Y-76198000D01*
X118155767Y-77218000D02*
X117863233Y-77218000D01*
X118489000Y-88219233D02*
X118489000Y-88511767D01*
X119509000Y-88219233D02*
X119509000Y-88511767D01*
D10*
X126238095Y-42378380D02*
X126238095Y-43187904D01*
X126285714Y-43283142D01*
X126333333Y-43330761D01*
X126428571Y-43378380D01*
X126619047Y-43378380D01*
X126714285Y-43330761D01*
X126761904Y-43283142D01*
X126809523Y-43187904D01*
X126809523Y-42378380D01*
X127190476Y-42378380D02*
X127857142Y-42378380D01*
X127428571Y-43378380D01*
D19*
X149098095Y-47458380D02*
X149098095Y-48267904D01*
X149145714Y-48363142D01*
X149193333Y-48410761D01*
X149288571Y-48458380D01*
X149479047Y-48458380D01*
X149574285Y-48410761D01*
X149621904Y-48363142D01*
X149669523Y-48267904D01*
X149669523Y-47458380D01*
X150574285Y-47458380D02*
X150383809Y-47458380D01*
X150288571Y-47506000D01*
X150240952Y-47553619D01*
X150145714Y-47696476D01*
X150098095Y-47886952D01*
X150098095Y-48267904D01*
X150145714Y-48363142D01*
X150193333Y-48410761D01*
X150288571Y-48458380D01*
X150479047Y-48458380D01*
X150574285Y-48410761D01*
X150621904Y-48363142D01*
X150669523Y-48267904D01*
X150669523Y-48029809D01*
X150621904Y-47934571D01*
X150574285Y-47886952D01*
X150479047Y-47839333D01*
X150288571Y-47839333D01*
X150193333Y-47886952D01*
X150145714Y-47934571D01*
X150098095Y-48029809D01*
X163093476Y-48329904D02*
X163093476Y-48977523D01*
X163131571Y-49053714D01*
X163169666Y-49091809D01*
X163245857Y-49129904D01*
X163398238Y-49129904D01*
X163474428Y-49091809D01*
X163512523Y-49053714D01*
X163550619Y-48977523D01*
X163550619Y-48329904D01*
X164312523Y-48329904D02*
X163931571Y-48329904D01*
X163893476Y-48710857D01*
X163931571Y-48672761D01*
X164007761Y-48634666D01*
X164198238Y-48634666D01*
X164274428Y-48672761D01*
X164312523Y-48710857D01*
X164350619Y-48787047D01*
X164350619Y-48977523D01*
X164312523Y-49053714D01*
X164274428Y-49091809D01*
X164198238Y-49129904D01*
X164007761Y-49129904D01*
X163931571Y-49091809D01*
X163893476Y-49053714D01*
X138937327Y-44917828D02*
X138937327Y-45728168D01*
X138984994Y-45823502D01*
X139032661Y-45871169D01*
X139127995Y-45918836D01*
X139318663Y-45918836D01*
X139413997Y-45871169D01*
X139461664Y-45823502D01*
X139509331Y-45728168D01*
X139509331Y-44917828D01*
X140415005Y-45251498D02*
X140415005Y-45918836D01*
X140176670Y-44870161D02*
X139938335Y-45585167D01*
X140558006Y-45585167D01*
X117042442Y-46695764D02*
X117042442Y-47506199D01*
X117090115Y-47601545D01*
X117137787Y-47649217D01*
X117233133Y-47696890D01*
X117423823Y-47696890D01*
X117519169Y-47649217D01*
X117566841Y-47601545D01*
X117614514Y-47506199D01*
X117614514Y-46695764D01*
X117995895Y-46695764D02*
X118615640Y-46695764D01*
X118281931Y-47077145D01*
X118424949Y-47077145D01*
X118520295Y-47124818D01*
X118567967Y-47172491D01*
X118615640Y-47267836D01*
X118615640Y-47506199D01*
X118567967Y-47601545D01*
X118520295Y-47649217D01*
X118424949Y-47696890D01*
X118138913Y-47696890D01*
X118043568Y-47649217D01*
X117995895Y-47601545D01*
D10*
X118578380Y-72334142D02*
X118578380Y-72143666D01*
X118626000Y-72048428D01*
X118721238Y-71953190D01*
X118911714Y-71905571D01*
X119245047Y-71905571D01*
X119435523Y-71953190D01*
X119530761Y-72048428D01*
X119578380Y-72143666D01*
X119578380Y-72334142D01*
X119530761Y-72429380D01*
X119435523Y-72524619D01*
X119245047Y-72572238D01*
X118911714Y-72572238D01*
X118721238Y-72524619D01*
X118626000Y-72429380D01*
X118578380Y-72334142D01*
X119578380Y-71477000D02*
X118578380Y-71477000D01*
X119578380Y-70905571D02*
X119006952Y-71334142D01*
X118578380Y-70905571D02*
X119149809Y-71477000D01*
X119578380Y-70477000D02*
X118578380Y-70477000D01*
X119197428Y-70000809D02*
X119197428Y-69238904D01*
X118578380Y-68857952D02*
X118578380Y-68238904D01*
X118959333Y-68572238D01*
X118959333Y-68429380D01*
X119006952Y-68334142D01*
X119054571Y-68286523D01*
X119149809Y-68238904D01*
X119387904Y-68238904D01*
X119483142Y-68286523D01*
X119530761Y-68334142D01*
X119578380Y-68429380D01*
X119578380Y-68715095D01*
X119530761Y-68810333D01*
X119483142Y-68857952D01*
X118578380Y-67953190D02*
X119578380Y-67619857D01*
X118578380Y-67286523D01*
X118578380Y-83510142D02*
X118578380Y-83319666D01*
X118626000Y-83224428D01*
X118721238Y-83129190D01*
X118911714Y-83081571D01*
X119245047Y-83081571D01*
X119435523Y-83129190D01*
X119530761Y-83224428D01*
X119578380Y-83319666D01*
X119578380Y-83510142D01*
X119530761Y-83605380D01*
X119435523Y-83700619D01*
X119245047Y-83748238D01*
X118911714Y-83748238D01*
X118721238Y-83700619D01*
X118626000Y-83605380D01*
X118578380Y-83510142D01*
X119578380Y-82653000D02*
X118578380Y-82653000D01*
X119578380Y-82081571D02*
X119006952Y-82510142D01*
X118578380Y-82081571D02*
X119149809Y-82653000D01*
X119578380Y-81653000D02*
X118578380Y-81653000D01*
X119197428Y-81176809D02*
X119197428Y-80414904D01*
X118578380Y-79462523D02*
X118578380Y-79938714D01*
X119054571Y-79986333D01*
X119006952Y-79938714D01*
X118959333Y-79843476D01*
X118959333Y-79605380D01*
X119006952Y-79510142D01*
X119054571Y-79462523D01*
X119149809Y-79414904D01*
X119387904Y-79414904D01*
X119483142Y-79462523D01*
X119530761Y-79510142D01*
X119578380Y-79605380D01*
X119578380Y-79843476D01*
X119530761Y-79938714D01*
X119483142Y-79986333D01*
X118578380Y-79129190D02*
X119578380Y-78795857D01*
X118578380Y-78462523D01*
X146281380Y-68206857D02*
X145805190Y-68540190D01*
X146281380Y-68778285D02*
X145281380Y-68778285D01*
X145281380Y-68397333D01*
X145329000Y-68302095D01*
X145376619Y-68254476D01*
X145471857Y-68206857D01*
X145614714Y-68206857D01*
X145709952Y-68254476D01*
X145757571Y-68302095D01*
X145805190Y-68397333D01*
X145805190Y-68778285D01*
X145376619Y-67825904D02*
X145329000Y-67778285D01*
X145281380Y-67683047D01*
X145281380Y-67444952D01*
X145329000Y-67349714D01*
X145376619Y-67302095D01*
X145471857Y-67254476D01*
X145567095Y-67254476D01*
X145709952Y-67302095D01*
X146281380Y-67873523D01*
X146281380Y-67254476D01*
X146281380Y-66302095D02*
X146281380Y-66873523D01*
X146281380Y-66587809D02*
X145281380Y-66587809D01*
X145424238Y-66683047D01*
X145519476Y-66778285D01*
X145567095Y-66873523D01*
X143454380Y-68333857D02*
X142978190Y-68667190D01*
X143454380Y-68905285D02*
X142454380Y-68905285D01*
X142454380Y-68524333D01*
X142502000Y-68429095D01*
X142549619Y-68381476D01*
X142644857Y-68333857D01*
X142787714Y-68333857D01*
X142882952Y-68381476D01*
X142930571Y-68429095D01*
X142978190Y-68524333D01*
X142978190Y-68905285D01*
X142549619Y-67952904D02*
X142502000Y-67905285D01*
X142454380Y-67810047D01*
X142454380Y-67571952D01*
X142502000Y-67476714D01*
X142549619Y-67429095D01*
X142644857Y-67381476D01*
X142740095Y-67381476D01*
X142882952Y-67429095D01*
X143454380Y-68000523D01*
X143454380Y-67381476D01*
X142454380Y-66762428D02*
X142454380Y-66667190D01*
X142502000Y-66571952D01*
X142549619Y-66524333D01*
X142644857Y-66476714D01*
X142835333Y-66429095D01*
X143073428Y-66429095D01*
X143263904Y-66476714D01*
X143359142Y-66524333D01*
X143406761Y-66571952D01*
X143454380Y-66667190D01*
X143454380Y-66762428D01*
X143406761Y-66857666D01*
X143359142Y-66905285D01*
X143263904Y-66952904D01*
X143073428Y-67000523D01*
X142835333Y-67000523D01*
X142644857Y-66952904D01*
X142549619Y-66905285D01*
X142502000Y-66857666D01*
X142454380Y-66762428D01*
X168633380Y-68357357D02*
X168157190Y-68690690D01*
X168633380Y-68928785D02*
X167633380Y-68928785D01*
X167633380Y-68547833D01*
X167681000Y-68452595D01*
X167728619Y-68404976D01*
X167823857Y-68357357D01*
X167966714Y-68357357D01*
X168061952Y-68404976D01*
X168109571Y-68452595D01*
X168157190Y-68547833D01*
X168157190Y-68928785D01*
X168633380Y-67404976D02*
X168633380Y-67976404D01*
X168633380Y-67690690D02*
X167633380Y-67690690D01*
X167776238Y-67785928D01*
X167871476Y-67881166D01*
X167919095Y-67976404D01*
X168633380Y-66928785D02*
X168633380Y-66738309D01*
X168585761Y-66643071D01*
X168538142Y-66595452D01*
X168395285Y-66500214D01*
X168204809Y-66452595D01*
X167823857Y-66452595D01*
X167728619Y-66500214D01*
X167681000Y-66547833D01*
X167633380Y-66643071D01*
X167633380Y-66833547D01*
X167681000Y-66928785D01*
X167728619Y-66976404D01*
X167823857Y-67024023D01*
X168061952Y-67024023D01*
X168157190Y-66976404D01*
X168204809Y-66928785D01*
X168252428Y-66833547D01*
X168252428Y-66643071D01*
X168204809Y-66547833D01*
X168157190Y-66500214D01*
X168061952Y-66452595D01*
X163045380Y-68357357D02*
X162569190Y-68690690D01*
X163045380Y-68928785D02*
X162045380Y-68928785D01*
X162045380Y-68547833D01*
X162093000Y-68452595D01*
X162140619Y-68404976D01*
X162235857Y-68357357D01*
X162378714Y-68357357D01*
X162473952Y-68404976D01*
X162521571Y-68452595D01*
X162569190Y-68547833D01*
X162569190Y-68928785D01*
X163045380Y-67404976D02*
X163045380Y-67976404D01*
X163045380Y-67690690D02*
X162045380Y-67690690D01*
X162188238Y-67785928D01*
X162283476Y-67881166D01*
X162331095Y-67976404D01*
X162473952Y-66833547D02*
X162426333Y-66928785D01*
X162378714Y-66976404D01*
X162283476Y-67024023D01*
X162235857Y-67024023D01*
X162140619Y-66976404D01*
X162093000Y-66928785D01*
X162045380Y-66833547D01*
X162045380Y-66643071D01*
X162093000Y-66547833D01*
X162140619Y-66500214D01*
X162235857Y-66452595D01*
X162283476Y-66452595D01*
X162378714Y-66500214D01*
X162426333Y-66547833D01*
X162473952Y-66643071D01*
X162473952Y-66833547D01*
X162521571Y-66928785D01*
X162569190Y-66976404D01*
X162664428Y-67024023D01*
X162854904Y-67024023D01*
X162950142Y-66976404D01*
X162997761Y-66928785D01*
X163045380Y-66833547D01*
X163045380Y-66643071D01*
X162997761Y-66547833D01*
X162950142Y-66500214D01*
X162854904Y-66452595D01*
X162664428Y-66452595D01*
X162569190Y-66500214D01*
X162521571Y-66547833D01*
X162473952Y-66643071D01*
X174221380Y-68357357D02*
X173745190Y-68690690D01*
X174221380Y-68928785D02*
X173221380Y-68928785D01*
X173221380Y-68547833D01*
X173269000Y-68452595D01*
X173316619Y-68404976D01*
X173411857Y-68357357D01*
X173554714Y-68357357D01*
X173649952Y-68404976D01*
X173697571Y-68452595D01*
X173745190Y-68547833D01*
X173745190Y-68928785D01*
X174221380Y-67404976D02*
X174221380Y-67976404D01*
X174221380Y-67690690D02*
X173221380Y-67690690D01*
X173364238Y-67785928D01*
X173459476Y-67881166D01*
X173507095Y-67976404D01*
X173221380Y-67071642D02*
X173221380Y-66404976D01*
X174221380Y-66833547D01*
X179809380Y-68357357D02*
X179333190Y-68690690D01*
X179809380Y-68928785D02*
X178809380Y-68928785D01*
X178809380Y-68547833D01*
X178857000Y-68452595D01*
X178904619Y-68404976D01*
X178999857Y-68357357D01*
X179142714Y-68357357D01*
X179237952Y-68404976D01*
X179285571Y-68452595D01*
X179333190Y-68547833D01*
X179333190Y-68928785D01*
X179809380Y-67404976D02*
X179809380Y-67976404D01*
X179809380Y-67690690D02*
X178809380Y-67690690D01*
X178952238Y-67785928D01*
X179047476Y-67881166D01*
X179095095Y-67976404D01*
X178809380Y-66547833D02*
X178809380Y-66738309D01*
X178857000Y-66833547D01*
X178904619Y-66881166D01*
X179047476Y-66976404D01*
X179237952Y-67024023D01*
X179618904Y-67024023D01*
X179714142Y-66976404D01*
X179761761Y-66928785D01*
X179809380Y-66833547D01*
X179809380Y-66643071D01*
X179761761Y-66547833D01*
X179714142Y-66500214D01*
X179618904Y-66452595D01*
X179380809Y-66452595D01*
X179285571Y-66500214D01*
X179237952Y-66547833D01*
X179190333Y-66643071D01*
X179190333Y-66833547D01*
X179237952Y-66928785D01*
X179285571Y-66976404D01*
X179380809Y-67024023D01*
X160251380Y-68357357D02*
X159775190Y-68690690D01*
X160251380Y-68928785D02*
X159251380Y-68928785D01*
X159251380Y-68547833D01*
X159299000Y-68452595D01*
X159346619Y-68404976D01*
X159441857Y-68357357D01*
X159584714Y-68357357D01*
X159679952Y-68404976D01*
X159727571Y-68452595D01*
X159775190Y-68547833D01*
X159775190Y-68928785D01*
X160251380Y-67404976D02*
X160251380Y-67976404D01*
X160251380Y-67690690D02*
X159251380Y-67690690D01*
X159394238Y-67785928D01*
X159489476Y-67881166D01*
X159537095Y-67976404D01*
X159251380Y-66500214D02*
X159251380Y-66976404D01*
X159727571Y-67024023D01*
X159679952Y-66976404D01*
X159632333Y-66881166D01*
X159632333Y-66643071D01*
X159679952Y-66547833D01*
X159727571Y-66500214D01*
X159822809Y-66452595D01*
X160060904Y-66452595D01*
X160156142Y-66500214D01*
X160203761Y-66547833D01*
X160251380Y-66643071D01*
X160251380Y-66881166D01*
X160203761Y-66976404D01*
X160156142Y-67024023D01*
X177015380Y-68357357D02*
X176539190Y-68690690D01*
X177015380Y-68928785D02*
X176015380Y-68928785D01*
X176015380Y-68547833D01*
X176063000Y-68452595D01*
X176110619Y-68404976D01*
X176205857Y-68357357D01*
X176348714Y-68357357D01*
X176443952Y-68404976D01*
X176491571Y-68452595D01*
X176539190Y-68547833D01*
X176539190Y-68928785D01*
X177015380Y-67404976D02*
X177015380Y-67976404D01*
X177015380Y-67690690D02*
X176015380Y-67690690D01*
X176158238Y-67785928D01*
X176253476Y-67881166D01*
X176301095Y-67976404D01*
X176348714Y-66547833D02*
X177015380Y-66547833D01*
X175967761Y-66785928D02*
X176682047Y-67024023D01*
X176682047Y-66404976D01*
X157457380Y-68357357D02*
X156981190Y-68690690D01*
X157457380Y-68928785D02*
X156457380Y-68928785D01*
X156457380Y-68547833D01*
X156505000Y-68452595D01*
X156552619Y-68404976D01*
X156647857Y-68357357D01*
X156790714Y-68357357D01*
X156885952Y-68404976D01*
X156933571Y-68452595D01*
X156981190Y-68547833D01*
X156981190Y-68928785D01*
X157457380Y-67404976D02*
X157457380Y-67976404D01*
X157457380Y-67690690D02*
X156457380Y-67690690D01*
X156600238Y-67785928D01*
X156695476Y-67881166D01*
X156743095Y-67976404D01*
X156457380Y-67071642D02*
X156457380Y-66452595D01*
X156838333Y-66785928D01*
X156838333Y-66643071D01*
X156885952Y-66547833D01*
X156933571Y-66500214D01*
X157028809Y-66452595D01*
X157266904Y-66452595D01*
X157362142Y-66500214D01*
X157409761Y-66547833D01*
X157457380Y-66643071D01*
X157457380Y-66928785D01*
X157409761Y-67024023D01*
X157362142Y-67071642D01*
X154663380Y-68357357D02*
X154187190Y-68690690D01*
X154663380Y-68928785D02*
X153663380Y-68928785D01*
X153663380Y-68547833D01*
X153711000Y-68452595D01*
X153758619Y-68404976D01*
X153853857Y-68357357D01*
X153996714Y-68357357D01*
X154091952Y-68404976D01*
X154139571Y-68452595D01*
X154187190Y-68547833D01*
X154187190Y-68928785D01*
X154663380Y-67404976D02*
X154663380Y-67976404D01*
X154663380Y-67690690D02*
X153663380Y-67690690D01*
X153806238Y-67785928D01*
X153901476Y-67881166D01*
X153949095Y-67976404D01*
X153758619Y-67024023D02*
X153711000Y-66976404D01*
X153663380Y-66881166D01*
X153663380Y-66643071D01*
X153711000Y-66547833D01*
X153758619Y-66500214D01*
X153853857Y-66452595D01*
X153949095Y-66452595D01*
X154091952Y-66500214D01*
X154663380Y-67071642D01*
X154663380Y-66452595D01*
X171427380Y-68357357D02*
X170951190Y-68690690D01*
X171427380Y-68928785D02*
X170427380Y-68928785D01*
X170427380Y-68547833D01*
X170475000Y-68452595D01*
X170522619Y-68404976D01*
X170617857Y-68357357D01*
X170760714Y-68357357D01*
X170855952Y-68404976D01*
X170903571Y-68452595D01*
X170951190Y-68547833D01*
X170951190Y-68928785D01*
X171427380Y-67404976D02*
X171427380Y-67976404D01*
X171427380Y-67690690D02*
X170427380Y-67690690D01*
X170570238Y-67785928D01*
X170665476Y-67881166D01*
X170713095Y-67976404D01*
X171427380Y-66452595D02*
X171427380Y-67024023D01*
X171427380Y-66738309D02*
X170427380Y-66738309D01*
X170570238Y-66833547D01*
X170665476Y-66928785D01*
X170713095Y-67024023D01*
X151869380Y-68357357D02*
X151393190Y-68690690D01*
X151869380Y-68928785D02*
X150869380Y-68928785D01*
X150869380Y-68547833D01*
X150917000Y-68452595D01*
X150964619Y-68404976D01*
X151059857Y-68357357D01*
X151202714Y-68357357D01*
X151297952Y-68404976D01*
X151345571Y-68452595D01*
X151393190Y-68547833D01*
X151393190Y-68928785D01*
X151869380Y-67404976D02*
X151869380Y-67976404D01*
X151869380Y-67690690D02*
X150869380Y-67690690D01*
X151012238Y-67785928D01*
X151107476Y-67881166D01*
X151155095Y-67976404D01*
X150869380Y-66785928D02*
X150869380Y-66690690D01*
X150917000Y-66595452D01*
X150964619Y-66547833D01*
X151059857Y-66500214D01*
X151250333Y-66452595D01*
X151488428Y-66452595D01*
X151678904Y-66500214D01*
X151774142Y-66547833D01*
X151821761Y-66595452D01*
X151869380Y-66690690D01*
X151869380Y-66785928D01*
X151821761Y-66881166D01*
X151774142Y-66928785D01*
X151678904Y-66976404D01*
X151488428Y-67024023D01*
X151250333Y-67024023D01*
X151059857Y-66976404D01*
X150964619Y-66928785D01*
X150917000Y-66881166D01*
X150869380Y-66785928D01*
X149075380Y-67881166D02*
X148599190Y-68214500D01*
X149075380Y-68452595D02*
X148075380Y-68452595D01*
X148075380Y-68071642D01*
X148123000Y-67976404D01*
X148170619Y-67928785D01*
X148265857Y-67881166D01*
X148408714Y-67881166D01*
X148503952Y-67928785D01*
X148551571Y-67976404D01*
X148599190Y-68071642D01*
X148599190Y-68452595D01*
X149075380Y-67404976D02*
X149075380Y-67214500D01*
X149027761Y-67119261D01*
X148980142Y-67071642D01*
X148837285Y-66976404D01*
X148646809Y-66928785D01*
X148265857Y-66928785D01*
X148170619Y-66976404D01*
X148123000Y-67024023D01*
X148075380Y-67119261D01*
X148075380Y-67309738D01*
X148123000Y-67404976D01*
X148170619Y-67452595D01*
X148265857Y-67500214D01*
X148503952Y-67500214D01*
X148599190Y-67452595D01*
X148646809Y-67404976D01*
X148694428Y-67309738D01*
X148694428Y-67119261D01*
X148646809Y-67024023D01*
X148599190Y-66976404D01*
X148503952Y-66928785D01*
X165839380Y-67881166D02*
X165363190Y-68214500D01*
X165839380Y-68452595D02*
X164839380Y-68452595D01*
X164839380Y-68071642D01*
X164887000Y-67976404D01*
X164934619Y-67928785D01*
X165029857Y-67881166D01*
X165172714Y-67881166D01*
X165267952Y-67928785D01*
X165315571Y-67976404D01*
X165363190Y-68071642D01*
X165363190Y-68452595D01*
X165267952Y-67309738D02*
X165220333Y-67404976D01*
X165172714Y-67452595D01*
X165077476Y-67500214D01*
X165029857Y-67500214D01*
X164934619Y-67452595D01*
X164887000Y-67404976D01*
X164839380Y-67309738D01*
X164839380Y-67119261D01*
X164887000Y-67024023D01*
X164934619Y-66976404D01*
X165029857Y-66928785D01*
X165077476Y-66928785D01*
X165172714Y-66976404D01*
X165220333Y-67024023D01*
X165267952Y-67119261D01*
X165267952Y-67309738D01*
X165315571Y-67404976D01*
X165363190Y-67452595D01*
X165458428Y-67500214D01*
X165648904Y-67500214D01*
X165744142Y-67452595D01*
X165791761Y-67404976D01*
X165839380Y-67309738D01*
X165839380Y-67119261D01*
X165791761Y-67024023D01*
X165744142Y-66976404D01*
X165648904Y-66928785D01*
X165458428Y-66928785D01*
X165363190Y-66976404D01*
X165315571Y-67024023D01*
X165267952Y-67119261D01*
X182603380Y-67881166D02*
X182127190Y-68214500D01*
X182603380Y-68452595D02*
X181603380Y-68452595D01*
X181603380Y-68071642D01*
X181651000Y-67976404D01*
X181698619Y-67928785D01*
X181793857Y-67881166D01*
X181936714Y-67881166D01*
X182031952Y-67928785D01*
X182079571Y-67976404D01*
X182127190Y-68071642D01*
X182127190Y-68452595D01*
X181603380Y-67547833D02*
X181603380Y-66881166D01*
X182603380Y-67309738D01*
X110577333Y-40457380D02*
X110244000Y-39981190D01*
X110005904Y-40457380D02*
X110005904Y-39457380D01*
X110386857Y-39457380D01*
X110482095Y-39505000D01*
X110529714Y-39552619D01*
X110577333Y-39647857D01*
X110577333Y-39790714D01*
X110529714Y-39885952D01*
X110482095Y-39933571D01*
X110386857Y-39981190D01*
X110005904Y-39981190D01*
X111434476Y-39457380D02*
X111244000Y-39457380D01*
X111148761Y-39505000D01*
X111101142Y-39552619D01*
X111005904Y-39695476D01*
X110958285Y-39885952D01*
X110958285Y-40266904D01*
X111005904Y-40362142D01*
X111053523Y-40409761D01*
X111148761Y-40457380D01*
X111339238Y-40457380D01*
X111434476Y-40409761D01*
X111482095Y-40362142D01*
X111529714Y-40266904D01*
X111529714Y-40028809D01*
X111482095Y-39933571D01*
X111434476Y-39885952D01*
X111339238Y-39838333D01*
X111148761Y-39838333D01*
X111053523Y-39885952D01*
X111005904Y-39933571D01*
X110958285Y-40028809D01*
X111720333Y-49196880D02*
X111387000Y-48720690D01*
X111148904Y-49196880D02*
X111148904Y-48196880D01*
X111529857Y-48196880D01*
X111625095Y-48244500D01*
X111672714Y-48292119D01*
X111720333Y-48387357D01*
X111720333Y-48530214D01*
X111672714Y-48625452D01*
X111625095Y-48673071D01*
X111529857Y-48720690D01*
X111148904Y-48720690D01*
X112625095Y-48196880D02*
X112148904Y-48196880D01*
X112101285Y-48673071D01*
X112148904Y-48625452D01*
X112244142Y-48577833D01*
X112482238Y-48577833D01*
X112577476Y-48625452D01*
X112625095Y-48673071D01*
X112672714Y-48768309D01*
X112672714Y-49006404D01*
X112625095Y-49101642D01*
X112577476Y-49149261D01*
X112482238Y-49196880D01*
X112244142Y-49196880D01*
X112148904Y-49149261D01*
X112101285Y-49101642D01*
X136739333Y-54300380D02*
X136406000Y-53824190D01*
X136167904Y-54300380D02*
X136167904Y-53300380D01*
X136548857Y-53300380D01*
X136644095Y-53348000D01*
X136691714Y-53395619D01*
X136739333Y-53490857D01*
X136739333Y-53633714D01*
X136691714Y-53728952D01*
X136644095Y-53776571D01*
X136548857Y-53824190D01*
X136167904Y-53824190D01*
X137596476Y-53633714D02*
X137596476Y-54300380D01*
X137358380Y-53252761D02*
X137120285Y-53967047D01*
X137739333Y-53967047D01*
X107910333Y-61158380D02*
X107577000Y-60682190D01*
X107338904Y-61158380D02*
X107338904Y-60158380D01*
X107719857Y-60158380D01*
X107815095Y-60206000D01*
X107862714Y-60253619D01*
X107910333Y-60348857D01*
X107910333Y-60491714D01*
X107862714Y-60586952D01*
X107815095Y-60634571D01*
X107719857Y-60682190D01*
X107338904Y-60682190D01*
X108243666Y-60158380D02*
X108862714Y-60158380D01*
X108529380Y-60539333D01*
X108672238Y-60539333D01*
X108767476Y-60586952D01*
X108815095Y-60634571D01*
X108862714Y-60729809D01*
X108862714Y-60967904D01*
X108815095Y-61063142D01*
X108767476Y-61110761D01*
X108672238Y-61158380D01*
X108386523Y-61158380D01*
X108291285Y-61110761D01*
X108243666Y-61063142D01*
X143343333Y-47696380D02*
X143010000Y-47220190D01*
X142771904Y-47696380D02*
X142771904Y-46696380D01*
X143152857Y-46696380D01*
X143248095Y-46744000D01*
X143295714Y-46791619D01*
X143343333Y-46886857D01*
X143343333Y-47029714D01*
X143295714Y-47124952D01*
X143248095Y-47172571D01*
X143152857Y-47220190D01*
X142771904Y-47220190D01*
X143724285Y-46791619D02*
X143771904Y-46744000D01*
X143867142Y-46696380D01*
X144105238Y-46696380D01*
X144200476Y-46744000D01*
X144248095Y-46791619D01*
X144295714Y-46886857D01*
X144295714Y-46982095D01*
X144248095Y-47124952D01*
X143676666Y-47696380D01*
X144295714Y-47696380D01*
X111847333Y-55824380D02*
X111514000Y-55348190D01*
X111275904Y-55824380D02*
X111275904Y-54824380D01*
X111656857Y-54824380D01*
X111752095Y-54872000D01*
X111799714Y-54919619D01*
X111847333Y-55014857D01*
X111847333Y-55157714D01*
X111799714Y-55252952D01*
X111752095Y-55300571D01*
X111656857Y-55348190D01*
X111275904Y-55348190D01*
X112799714Y-55824380D02*
X112228285Y-55824380D01*
X112514000Y-55824380D02*
X112514000Y-54824380D01*
X112418761Y-54967238D01*
X112323523Y-55062476D01*
X112228285Y-55110095D01*
X111307666Y-67111571D02*
X110974333Y-67111571D01*
X110974333Y-67635380D02*
X110974333Y-66635380D01*
X111450523Y-66635380D01*
X112164809Y-67111571D02*
X112307666Y-67159190D01*
X112355285Y-67206809D01*
X112402904Y-67302047D01*
X112402904Y-67444904D01*
X112355285Y-67540142D01*
X112307666Y-67587761D01*
X112212428Y-67635380D01*
X111831476Y-67635380D01*
X111831476Y-66635380D01*
X112164809Y-66635380D01*
X112260047Y-66683000D01*
X112307666Y-66730619D01*
X112355285Y-66825857D01*
X112355285Y-66921095D01*
X112307666Y-67016333D01*
X112260047Y-67063952D01*
X112164809Y-67111571D01*
X111831476Y-67111571D01*
X113355285Y-67635380D02*
X112783857Y-67635380D01*
X113069571Y-67635380D02*
X113069571Y-66635380D01*
X112974333Y-66778238D01*
X112879095Y-66873476D01*
X112783857Y-66921095D01*
X146248380Y-72447285D02*
X145248380Y-72447285D01*
X145248380Y-72209190D01*
X145296000Y-72066333D01*
X145391238Y-71971095D01*
X145486476Y-71923476D01*
X145676952Y-71875857D01*
X145819809Y-71875857D01*
X146010285Y-71923476D01*
X146105523Y-71971095D01*
X146200761Y-72066333D01*
X146248380Y-72209190D01*
X146248380Y-72447285D01*
X146248380Y-70923476D02*
X146248380Y-71494904D01*
X146248380Y-71209190D02*
X145248380Y-71209190D01*
X145391238Y-71304428D01*
X145486476Y-71399666D01*
X145534095Y-71494904D01*
X145248380Y-70018714D02*
X145248380Y-70494904D01*
X145724571Y-70542523D01*
X145676952Y-70494904D01*
X145629333Y-70399666D01*
X145629333Y-70161571D01*
X145676952Y-70066333D01*
X145724571Y-70018714D01*
X145819809Y-69971095D01*
X146057904Y-69971095D01*
X146153142Y-70018714D01*
X146200761Y-70066333D01*
X146248380Y-70161571D01*
X146248380Y-70399666D01*
X146200761Y-70494904D01*
X146153142Y-70542523D01*
X143454380Y-72461285D02*
X142454380Y-72461285D01*
X142454380Y-72223190D01*
X142502000Y-72080333D01*
X142597238Y-71985095D01*
X142692476Y-71937476D01*
X142882952Y-71889857D01*
X143025809Y-71889857D01*
X143216285Y-71937476D01*
X143311523Y-71985095D01*
X143406761Y-72080333D01*
X143454380Y-72223190D01*
X143454380Y-72461285D01*
X143454380Y-70937476D02*
X143454380Y-71508904D01*
X143454380Y-71223190D02*
X142454380Y-71223190D01*
X142597238Y-71318428D01*
X142692476Y-71413666D01*
X142740095Y-71508904D01*
X142787714Y-70080333D02*
X143454380Y-70080333D01*
X142406761Y-70318428D02*
X143121047Y-70556523D01*
X143121047Y-69937476D01*
X168600380Y-72447285D02*
X167600380Y-72447285D01*
X167600380Y-72209190D01*
X167648000Y-72066333D01*
X167743238Y-71971095D01*
X167838476Y-71923476D01*
X168028952Y-71875857D01*
X168171809Y-71875857D01*
X168362285Y-71923476D01*
X168457523Y-71971095D01*
X168552761Y-72066333D01*
X168600380Y-72209190D01*
X168600380Y-72447285D01*
X168600380Y-70923476D02*
X168600380Y-71494904D01*
X168600380Y-71209190D02*
X167600380Y-71209190D01*
X167743238Y-71304428D01*
X167838476Y-71399666D01*
X167886095Y-71494904D01*
X167600380Y-70590142D02*
X167600380Y-69971095D01*
X167981333Y-70304428D01*
X167981333Y-70161571D01*
X168028952Y-70066333D01*
X168076571Y-70018714D01*
X168171809Y-69971095D01*
X168409904Y-69971095D01*
X168505142Y-70018714D01*
X168552761Y-70066333D01*
X168600380Y-70161571D01*
X168600380Y-70447285D01*
X168552761Y-70542523D01*
X168505142Y-70590142D01*
X163012380Y-72447285D02*
X162012380Y-72447285D01*
X162012380Y-72209190D01*
X162060000Y-72066333D01*
X162155238Y-71971095D01*
X162250476Y-71923476D01*
X162440952Y-71875857D01*
X162583809Y-71875857D01*
X162774285Y-71923476D01*
X162869523Y-71971095D01*
X162964761Y-72066333D01*
X163012380Y-72209190D01*
X163012380Y-72447285D01*
X163012380Y-70923476D02*
X163012380Y-71494904D01*
X163012380Y-71209190D02*
X162012380Y-71209190D01*
X162155238Y-71304428D01*
X162250476Y-71399666D01*
X162298095Y-71494904D01*
X162107619Y-70542523D02*
X162060000Y-70494904D01*
X162012380Y-70399666D01*
X162012380Y-70161571D01*
X162060000Y-70066333D01*
X162107619Y-70018714D01*
X162202857Y-69971095D01*
X162298095Y-69971095D01*
X162440952Y-70018714D01*
X163012380Y-70590142D01*
X163012380Y-69971095D01*
X174188380Y-72447285D02*
X173188380Y-72447285D01*
X173188380Y-72209190D01*
X173236000Y-72066333D01*
X173331238Y-71971095D01*
X173426476Y-71923476D01*
X173616952Y-71875857D01*
X173759809Y-71875857D01*
X173950285Y-71923476D01*
X174045523Y-71971095D01*
X174140761Y-72066333D01*
X174188380Y-72209190D01*
X174188380Y-72447285D01*
X174188380Y-70923476D02*
X174188380Y-71494904D01*
X174188380Y-71209190D02*
X173188380Y-71209190D01*
X173331238Y-71304428D01*
X173426476Y-71399666D01*
X173474095Y-71494904D01*
X174188380Y-69971095D02*
X174188380Y-70542523D01*
X174188380Y-70256809D02*
X173188380Y-70256809D01*
X173331238Y-70352047D01*
X173426476Y-70447285D01*
X173474095Y-70542523D01*
X179776380Y-72461285D02*
X178776380Y-72461285D01*
X178776380Y-72223190D01*
X178824000Y-72080333D01*
X178919238Y-71985095D01*
X179014476Y-71937476D01*
X179204952Y-71889857D01*
X179347809Y-71889857D01*
X179538285Y-71937476D01*
X179633523Y-71985095D01*
X179728761Y-72080333D01*
X179776380Y-72223190D01*
X179776380Y-72461285D01*
X179776380Y-70937476D02*
X179776380Y-71508904D01*
X179776380Y-71223190D02*
X178776380Y-71223190D01*
X178919238Y-71318428D01*
X179014476Y-71413666D01*
X179062095Y-71508904D01*
X178776380Y-70318428D02*
X178776380Y-70223190D01*
X178824000Y-70127952D01*
X178871619Y-70080333D01*
X178966857Y-70032714D01*
X179157333Y-69985095D01*
X179395428Y-69985095D01*
X179585904Y-70032714D01*
X179681142Y-70080333D01*
X179728761Y-70127952D01*
X179776380Y-70223190D01*
X179776380Y-70318428D01*
X179728761Y-70413666D01*
X179681142Y-70461285D01*
X179585904Y-70508904D01*
X179395428Y-70556523D01*
X179157333Y-70556523D01*
X178966857Y-70508904D01*
X178871619Y-70461285D01*
X178824000Y-70413666D01*
X178776380Y-70318428D01*
X160218380Y-71858095D02*
X159218380Y-71858095D01*
X159218380Y-71620000D01*
X159266000Y-71477142D01*
X159361238Y-71381904D01*
X159456476Y-71334285D01*
X159646952Y-71286666D01*
X159789809Y-71286666D01*
X159980285Y-71334285D01*
X160075523Y-71381904D01*
X160170761Y-71477142D01*
X160218380Y-71620000D01*
X160218380Y-71858095D01*
X160218380Y-70810476D02*
X160218380Y-70620000D01*
X160170761Y-70524761D01*
X160123142Y-70477142D01*
X159980285Y-70381904D01*
X159789809Y-70334285D01*
X159408857Y-70334285D01*
X159313619Y-70381904D01*
X159266000Y-70429523D01*
X159218380Y-70524761D01*
X159218380Y-70715238D01*
X159266000Y-70810476D01*
X159313619Y-70858095D01*
X159408857Y-70905714D01*
X159646952Y-70905714D01*
X159742190Y-70858095D01*
X159789809Y-70810476D01*
X159837428Y-70715238D01*
X159837428Y-70524761D01*
X159789809Y-70429523D01*
X159742190Y-70381904D01*
X159646952Y-70334285D01*
X176982380Y-71971095D02*
X175982380Y-71971095D01*
X175982380Y-71733000D01*
X176030000Y-71590142D01*
X176125238Y-71494904D01*
X176220476Y-71447285D01*
X176410952Y-71399666D01*
X176553809Y-71399666D01*
X176744285Y-71447285D01*
X176839523Y-71494904D01*
X176934761Y-71590142D01*
X176982380Y-71733000D01*
X176982380Y-71971095D01*
X176410952Y-70828238D02*
X176363333Y-70923476D01*
X176315714Y-70971095D01*
X176220476Y-71018714D01*
X176172857Y-71018714D01*
X176077619Y-70971095D01*
X176030000Y-70923476D01*
X175982380Y-70828238D01*
X175982380Y-70637761D01*
X176030000Y-70542523D01*
X176077619Y-70494904D01*
X176172857Y-70447285D01*
X176220476Y-70447285D01*
X176315714Y-70494904D01*
X176363333Y-70542523D01*
X176410952Y-70637761D01*
X176410952Y-70828238D01*
X176458571Y-70923476D01*
X176506190Y-70971095D01*
X176601428Y-71018714D01*
X176791904Y-71018714D01*
X176887142Y-70971095D01*
X176934761Y-70923476D01*
X176982380Y-70828238D01*
X176982380Y-70637761D01*
X176934761Y-70542523D01*
X176887142Y-70494904D01*
X176791904Y-70447285D01*
X176601428Y-70447285D01*
X176506190Y-70494904D01*
X176458571Y-70542523D01*
X176410952Y-70637761D01*
X157424380Y-71971095D02*
X156424380Y-71971095D01*
X156424380Y-71733000D01*
X156472000Y-71590142D01*
X156567238Y-71494904D01*
X156662476Y-71447285D01*
X156852952Y-71399666D01*
X156995809Y-71399666D01*
X157186285Y-71447285D01*
X157281523Y-71494904D01*
X157376761Y-71590142D01*
X157424380Y-71733000D01*
X157424380Y-71971095D01*
X156424380Y-71066333D02*
X156424380Y-70399666D01*
X157424380Y-70828238D01*
X154630380Y-71971095D02*
X153630380Y-71971095D01*
X153630380Y-71733000D01*
X153678000Y-71590142D01*
X153773238Y-71494904D01*
X153868476Y-71447285D01*
X154058952Y-71399666D01*
X154201809Y-71399666D01*
X154392285Y-71447285D01*
X154487523Y-71494904D01*
X154582761Y-71590142D01*
X154630380Y-71733000D01*
X154630380Y-71971095D01*
X153630380Y-70542523D02*
X153630380Y-70733000D01*
X153678000Y-70828238D01*
X153725619Y-70875857D01*
X153868476Y-70971095D01*
X154058952Y-71018714D01*
X154439904Y-71018714D01*
X154535142Y-70971095D01*
X154582761Y-70923476D01*
X154630380Y-70828238D01*
X154630380Y-70637761D01*
X154582761Y-70542523D01*
X154535142Y-70494904D01*
X154439904Y-70447285D01*
X154201809Y-70447285D01*
X154106571Y-70494904D01*
X154058952Y-70542523D01*
X154011333Y-70637761D01*
X154011333Y-70828238D01*
X154058952Y-70923476D01*
X154106571Y-70971095D01*
X154201809Y-71018714D01*
X171394380Y-71971095D02*
X170394380Y-71971095D01*
X170394380Y-71733000D01*
X170442000Y-71590142D01*
X170537238Y-71494904D01*
X170632476Y-71447285D01*
X170822952Y-71399666D01*
X170965809Y-71399666D01*
X171156285Y-71447285D01*
X171251523Y-71494904D01*
X171346761Y-71590142D01*
X171394380Y-71733000D01*
X171394380Y-71971095D01*
X170394380Y-70494904D02*
X170394380Y-70971095D01*
X170870571Y-71018714D01*
X170822952Y-70971095D01*
X170775333Y-70875857D01*
X170775333Y-70637761D01*
X170822952Y-70542523D01*
X170870571Y-70494904D01*
X170965809Y-70447285D01*
X171203904Y-70447285D01*
X171299142Y-70494904D01*
X171346761Y-70542523D01*
X171394380Y-70637761D01*
X171394380Y-70875857D01*
X171346761Y-70971095D01*
X171299142Y-71018714D01*
X151836380Y-71971095D02*
X150836380Y-71971095D01*
X150836380Y-71733000D01*
X150884000Y-71590142D01*
X150979238Y-71494904D01*
X151074476Y-71447285D01*
X151264952Y-71399666D01*
X151407809Y-71399666D01*
X151598285Y-71447285D01*
X151693523Y-71494904D01*
X151788761Y-71590142D01*
X151836380Y-71733000D01*
X151836380Y-71971095D01*
X151169714Y-70542523D02*
X151836380Y-70542523D01*
X150788761Y-70780619D02*
X151503047Y-71018714D01*
X151503047Y-70399666D01*
X149042380Y-71971095D02*
X148042380Y-71971095D01*
X148042380Y-71733000D01*
X148090000Y-71590142D01*
X148185238Y-71494904D01*
X148280476Y-71447285D01*
X148470952Y-71399666D01*
X148613809Y-71399666D01*
X148804285Y-71447285D01*
X148899523Y-71494904D01*
X148994761Y-71590142D01*
X149042380Y-71733000D01*
X149042380Y-71971095D01*
X148042380Y-71066333D02*
X148042380Y-70447285D01*
X148423333Y-70780619D01*
X148423333Y-70637761D01*
X148470952Y-70542523D01*
X148518571Y-70494904D01*
X148613809Y-70447285D01*
X148851904Y-70447285D01*
X148947142Y-70494904D01*
X148994761Y-70542523D01*
X149042380Y-70637761D01*
X149042380Y-70923476D01*
X148994761Y-71018714D01*
X148947142Y-71066333D01*
X165806380Y-71971095D02*
X164806380Y-71971095D01*
X164806380Y-71733000D01*
X164854000Y-71590142D01*
X164949238Y-71494904D01*
X165044476Y-71447285D01*
X165234952Y-71399666D01*
X165377809Y-71399666D01*
X165568285Y-71447285D01*
X165663523Y-71494904D01*
X165758761Y-71590142D01*
X165806380Y-71733000D01*
X165806380Y-71971095D01*
X164901619Y-71018714D02*
X164854000Y-70971095D01*
X164806380Y-70875857D01*
X164806380Y-70637761D01*
X164854000Y-70542523D01*
X164901619Y-70494904D01*
X164996857Y-70447285D01*
X165092095Y-70447285D01*
X165234952Y-70494904D01*
X165806380Y-71066333D01*
X165806380Y-70447285D01*
X182570380Y-71971095D02*
X181570380Y-71971095D01*
X181570380Y-71733000D01*
X181618000Y-71590142D01*
X181713238Y-71494904D01*
X181808476Y-71447285D01*
X181998952Y-71399666D01*
X182141809Y-71399666D01*
X182332285Y-71447285D01*
X182427523Y-71494904D01*
X182522761Y-71590142D01*
X182570380Y-71733000D01*
X182570380Y-71971095D01*
X182570380Y-70447285D02*
X182570380Y-71018714D01*
X182570380Y-70733000D02*
X181570380Y-70733000D01*
X181713238Y-70828238D01*
X181808476Y-70923476D01*
X181856095Y-71018714D01*
D12*
X95298380Y-57361666D02*
X95903142Y-57361666D01*
X95177428Y-57724523D02*
X95600761Y-56454523D01*
X96024095Y-57724523D01*
X96447428Y-56877857D02*
X96447428Y-57724523D01*
X96447428Y-56998809D02*
X96507904Y-56938333D01*
X96628857Y-56877857D01*
X96810285Y-56877857D01*
X96931238Y-56938333D01*
X96991714Y-57059285D01*
X96991714Y-57724523D01*
X97415047Y-56877857D02*
X97898857Y-56877857D01*
X97596476Y-56454523D02*
X97596476Y-57543095D01*
X97656952Y-57664047D01*
X97777904Y-57724523D01*
X97898857Y-57724523D01*
X98806000Y-57664047D02*
X98685047Y-57724523D01*
X98443142Y-57724523D01*
X98322190Y-57664047D01*
X98261714Y-57543095D01*
X98261714Y-57059285D01*
X98322190Y-56938333D01*
X98443142Y-56877857D01*
X98685047Y-56877857D01*
X98806000Y-56938333D01*
X98866476Y-57059285D01*
X98866476Y-57180238D01*
X98261714Y-57301190D01*
X99410761Y-56877857D02*
X99410761Y-57724523D01*
X99410761Y-56998809D02*
X99471238Y-56938333D01*
X99592190Y-56877857D01*
X99773619Y-56877857D01*
X99894571Y-56938333D01*
X99955047Y-57059285D01*
X99955047Y-57724523D01*
X100559809Y-56877857D02*
X100559809Y-57724523D01*
X100559809Y-56998809D02*
X100620285Y-56938333D01*
X100741238Y-56877857D01*
X100922666Y-56877857D01*
X101043619Y-56938333D01*
X101104095Y-57059285D01*
X101104095Y-57724523D01*
X102253142Y-57724523D02*
X102253142Y-57059285D01*
X102192666Y-56938333D01*
X102071714Y-56877857D01*
X101829809Y-56877857D01*
X101708857Y-56938333D01*
X102253142Y-57664047D02*
X102132190Y-57724523D01*
X101829809Y-57724523D01*
X101708857Y-57664047D01*
X101648380Y-57543095D01*
X101648380Y-57422142D01*
X101708857Y-57301190D01*
X101829809Y-57240714D01*
X102132190Y-57240714D01*
X102253142Y-57180238D01*
D10*
X158107142Y-51792142D02*
X158059523Y-51839761D01*
X157916666Y-51887380D01*
X157821428Y-51887380D01*
X157678571Y-51839761D01*
X157583333Y-51744523D01*
X157535714Y-51649285D01*
X157488095Y-51458809D01*
X157488095Y-51315952D01*
X157535714Y-51125476D01*
X157583333Y-51030238D01*
X157678571Y-50935000D01*
X157821428Y-50887380D01*
X157916666Y-50887380D01*
X158059523Y-50935000D01*
X158107142Y-50982619D01*
X159059523Y-51887380D02*
X158488095Y-51887380D01*
X158773809Y-51887380D02*
X158773809Y-50887380D01*
X158678571Y-51030238D01*
X158583333Y-51125476D01*
X158488095Y-51173095D01*
X159392857Y-50887380D02*
X160011904Y-50887380D01*
X159678571Y-51268333D01*
X159821428Y-51268333D01*
X159916666Y-51315952D01*
X159964285Y-51363571D01*
X160011904Y-51458809D01*
X160011904Y-51696904D01*
X159964285Y-51792142D01*
X159916666Y-51839761D01*
X159821428Y-51887380D01*
X159535714Y-51887380D01*
X159440476Y-51839761D01*
X159392857Y-51792142D01*
X149979142Y-53443142D02*
X149931523Y-53490761D01*
X149788666Y-53538380D01*
X149693428Y-53538380D01*
X149550571Y-53490761D01*
X149455333Y-53395523D01*
X149407714Y-53300285D01*
X149360095Y-53109809D01*
X149360095Y-52966952D01*
X149407714Y-52776476D01*
X149455333Y-52681238D01*
X149550571Y-52586000D01*
X149693428Y-52538380D01*
X149788666Y-52538380D01*
X149931523Y-52586000D01*
X149979142Y-52633619D01*
X150931523Y-53538380D02*
X150360095Y-53538380D01*
X150645809Y-53538380D02*
X150645809Y-52538380D01*
X150550571Y-52681238D01*
X150455333Y-52776476D01*
X150360095Y-52824095D01*
X151312476Y-52633619D02*
X151360095Y-52586000D01*
X151455333Y-52538380D01*
X151693428Y-52538380D01*
X151788666Y-52586000D01*
X151836285Y-52633619D01*
X151883904Y-52728857D01*
X151883904Y-52824095D01*
X151836285Y-52966952D01*
X151264857Y-53538380D01*
X151883904Y-53538380D01*
X160139142Y-49379142D02*
X160091523Y-49426761D01*
X159948666Y-49474380D01*
X159853428Y-49474380D01*
X159710571Y-49426761D01*
X159615333Y-49331523D01*
X159567714Y-49236285D01*
X159520095Y-49045809D01*
X159520095Y-48902952D01*
X159567714Y-48712476D01*
X159615333Y-48617238D01*
X159710571Y-48522000D01*
X159853428Y-48474380D01*
X159948666Y-48474380D01*
X160091523Y-48522000D01*
X160139142Y-48569619D01*
X161091523Y-49474380D02*
X160520095Y-49474380D01*
X160805809Y-49474380D02*
X160805809Y-48474380D01*
X160710571Y-48617238D01*
X160615333Y-48712476D01*
X160520095Y-48760095D01*
X162043904Y-49474380D02*
X161472476Y-49474380D01*
X161758190Y-49474380D02*
X161758190Y-48474380D01*
X161662952Y-48617238D01*
X161567714Y-48712476D01*
X161472476Y-48760095D01*
X165346142Y-54967142D02*
X165298523Y-55014761D01*
X165155666Y-55062380D01*
X165060428Y-55062380D01*
X164917571Y-55014761D01*
X164822333Y-54919523D01*
X164774714Y-54824285D01*
X164727095Y-54633809D01*
X164727095Y-54490952D01*
X164774714Y-54300476D01*
X164822333Y-54205238D01*
X164917571Y-54110000D01*
X165060428Y-54062380D01*
X165155666Y-54062380D01*
X165298523Y-54110000D01*
X165346142Y-54157619D01*
X166298523Y-55062380D02*
X165727095Y-55062380D01*
X166012809Y-55062380D02*
X166012809Y-54062380D01*
X165917571Y-54205238D01*
X165822333Y-54300476D01*
X165727095Y-54348095D01*
X166917571Y-54062380D02*
X167012809Y-54062380D01*
X167108047Y-54110000D01*
X167155666Y-54157619D01*
X167203285Y-54252857D01*
X167250904Y-54443333D01*
X167250904Y-54681428D01*
X167203285Y-54871904D01*
X167155666Y-54967142D01*
X167108047Y-55014761D01*
X167012809Y-55062380D01*
X166917571Y-55062380D01*
X166822333Y-55014761D01*
X166774714Y-54967142D01*
X166727095Y-54871904D01*
X166679476Y-54681428D01*
X166679476Y-54443333D01*
X166727095Y-54252857D01*
X166774714Y-54157619D01*
X166822333Y-54110000D01*
X166917571Y-54062380D01*
X169124333Y-48490142D02*
X169076714Y-48537761D01*
X168933857Y-48585380D01*
X168838619Y-48585380D01*
X168695761Y-48537761D01*
X168600523Y-48442523D01*
X168552904Y-48347285D01*
X168505285Y-48156809D01*
X168505285Y-48013952D01*
X168552904Y-47823476D01*
X168600523Y-47728238D01*
X168695761Y-47633000D01*
X168838619Y-47585380D01*
X168933857Y-47585380D01*
X169076714Y-47633000D01*
X169124333Y-47680619D01*
X169600523Y-48585380D02*
X169791000Y-48585380D01*
X169886238Y-48537761D01*
X169933857Y-48490142D01*
X170029095Y-48347285D01*
X170076714Y-48156809D01*
X170076714Y-47775857D01*
X170029095Y-47680619D01*
X169981476Y-47633000D01*
X169886238Y-47585380D01*
X169695761Y-47585380D01*
X169600523Y-47633000D01*
X169552904Y-47680619D01*
X169505285Y-47775857D01*
X169505285Y-48013952D01*
X169552904Y-48109190D01*
X169600523Y-48156809D01*
X169695761Y-48204428D01*
X169886238Y-48204428D01*
X169981476Y-48156809D01*
X170029095Y-48109190D01*
X170076714Y-48013952D01*
X134453333Y-49633142D02*
X134405714Y-49680761D01*
X134262857Y-49728380D01*
X134167619Y-49728380D01*
X134024761Y-49680761D01*
X133929523Y-49585523D01*
X133881904Y-49490285D01*
X133834285Y-49299809D01*
X133834285Y-49156952D01*
X133881904Y-48966476D01*
X133929523Y-48871238D01*
X134024761Y-48776000D01*
X134167619Y-48728380D01*
X134262857Y-48728380D01*
X134405714Y-48776000D01*
X134453333Y-48823619D01*
X135024761Y-49156952D02*
X134929523Y-49109333D01*
X134881904Y-49061714D01*
X134834285Y-48966476D01*
X134834285Y-48918857D01*
X134881904Y-48823619D01*
X134929523Y-48776000D01*
X135024761Y-48728380D01*
X135215238Y-48728380D01*
X135310476Y-48776000D01*
X135358095Y-48823619D01*
X135405714Y-48918857D01*
X135405714Y-48966476D01*
X135358095Y-49061714D01*
X135310476Y-49109333D01*
X135215238Y-49156952D01*
X135024761Y-49156952D01*
X134929523Y-49204571D01*
X134881904Y-49252190D01*
X134834285Y-49347428D01*
X134834285Y-49537904D01*
X134881904Y-49633142D01*
X134929523Y-49680761D01*
X135024761Y-49728380D01*
X135215238Y-49728380D01*
X135310476Y-49680761D01*
X135358095Y-49633142D01*
X135405714Y-49537904D01*
X135405714Y-49347428D01*
X135358095Y-49252190D01*
X135310476Y-49204571D01*
X135215238Y-49156952D01*
X132421333Y-49633142D02*
X132373714Y-49680761D01*
X132230857Y-49728380D01*
X132135619Y-49728380D01*
X131992761Y-49680761D01*
X131897523Y-49585523D01*
X131849904Y-49490285D01*
X131802285Y-49299809D01*
X131802285Y-49156952D01*
X131849904Y-48966476D01*
X131897523Y-48871238D01*
X131992761Y-48776000D01*
X132135619Y-48728380D01*
X132230857Y-48728380D01*
X132373714Y-48776000D01*
X132421333Y-48823619D01*
X132754666Y-48728380D02*
X133421333Y-48728380D01*
X132992761Y-49728380D01*
X142327333Y-54205142D02*
X142279714Y-54252761D01*
X142136857Y-54300380D01*
X142041619Y-54300380D01*
X141898761Y-54252761D01*
X141803523Y-54157523D01*
X141755904Y-54062285D01*
X141708285Y-53871809D01*
X141708285Y-53728952D01*
X141755904Y-53538476D01*
X141803523Y-53443238D01*
X141898761Y-53348000D01*
X142041619Y-53300380D01*
X142136857Y-53300380D01*
X142279714Y-53348000D01*
X142327333Y-53395619D01*
X143184476Y-53300380D02*
X142994000Y-53300380D01*
X142898761Y-53348000D01*
X142851142Y-53395619D01*
X142755904Y-53538476D01*
X142708285Y-53728952D01*
X142708285Y-54109904D01*
X142755904Y-54205142D01*
X142803523Y-54252761D01*
X142898761Y-54300380D01*
X143089238Y-54300380D01*
X143184476Y-54252761D01*
X143232095Y-54205142D01*
X143279714Y-54109904D01*
X143279714Y-53871809D01*
X143232095Y-53776571D01*
X143184476Y-53728952D01*
X143089238Y-53681333D01*
X142898761Y-53681333D01*
X142803523Y-53728952D01*
X142755904Y-53776571D01*
X142708285Y-53871809D01*
X108799333Y-65762142D02*
X108751714Y-65809761D01*
X108608857Y-65857380D01*
X108513619Y-65857380D01*
X108370761Y-65809761D01*
X108275523Y-65714523D01*
X108227904Y-65619285D01*
X108180285Y-65428809D01*
X108180285Y-65285952D01*
X108227904Y-65095476D01*
X108275523Y-65000238D01*
X108370761Y-64905000D01*
X108513619Y-64857380D01*
X108608857Y-64857380D01*
X108751714Y-64905000D01*
X108799333Y-64952619D01*
X109704095Y-64857380D02*
X109227904Y-64857380D01*
X109180285Y-65333571D01*
X109227904Y-65285952D01*
X109323142Y-65238333D01*
X109561238Y-65238333D01*
X109656476Y-65285952D01*
X109704095Y-65333571D01*
X109751714Y-65428809D01*
X109751714Y-65666904D01*
X109704095Y-65762142D01*
X109656476Y-65809761D01*
X109561238Y-65857380D01*
X109323142Y-65857380D01*
X109227904Y-65809761D01*
X109180285Y-65762142D01*
X138263333Y-75541142D02*
X138215714Y-75588761D01*
X138072857Y-75636380D01*
X137977619Y-75636380D01*
X137834761Y-75588761D01*
X137739523Y-75493523D01*
X137691904Y-75398285D01*
X137644285Y-75207809D01*
X137644285Y-75064952D01*
X137691904Y-74874476D01*
X137739523Y-74779238D01*
X137834761Y-74684000D01*
X137977619Y-74636380D01*
X138072857Y-74636380D01*
X138215714Y-74684000D01*
X138263333Y-74731619D01*
X139120476Y-74969714D02*
X139120476Y-75636380D01*
X138882380Y-74588761D02*
X138644285Y-75303047D01*
X139263333Y-75303047D01*
X138517333Y-84939142D02*
X138469714Y-84986761D01*
X138326857Y-85034380D01*
X138231619Y-85034380D01*
X138088761Y-84986761D01*
X137993523Y-84891523D01*
X137945904Y-84796285D01*
X137898285Y-84605809D01*
X137898285Y-84462952D01*
X137945904Y-84272476D01*
X137993523Y-84177238D01*
X138088761Y-84082000D01*
X138231619Y-84034380D01*
X138326857Y-84034380D01*
X138469714Y-84082000D01*
X138517333Y-84129619D01*
X138850666Y-84034380D02*
X139469714Y-84034380D01*
X139136380Y-84415333D01*
X139279238Y-84415333D01*
X139374476Y-84462952D01*
X139422095Y-84510571D01*
X139469714Y-84605809D01*
X139469714Y-84843904D01*
X139422095Y-84939142D01*
X139374476Y-84986761D01*
X139279238Y-85034380D01*
X138993523Y-85034380D01*
X138898285Y-84986761D01*
X138850666Y-84939142D01*
X115149333Y-77065142D02*
X115101714Y-77112761D01*
X114958857Y-77160380D01*
X114863619Y-77160380D01*
X114720761Y-77112761D01*
X114625523Y-77017523D01*
X114577904Y-76922285D01*
X114530285Y-76731809D01*
X114530285Y-76588952D01*
X114577904Y-76398476D01*
X114625523Y-76303238D01*
X114720761Y-76208000D01*
X114863619Y-76160380D01*
X114958857Y-76160380D01*
X115101714Y-76208000D01*
X115149333Y-76255619D01*
X115530285Y-76255619D02*
X115577904Y-76208000D01*
X115673142Y-76160380D01*
X115911238Y-76160380D01*
X116006476Y-76208000D01*
X116054095Y-76255619D01*
X116101714Y-76350857D01*
X116101714Y-76446095D01*
X116054095Y-76588952D01*
X115482666Y-77160380D01*
X116101714Y-77160380D01*
X118832333Y-91162142D02*
X118784714Y-91209761D01*
X118641857Y-91257380D01*
X118546619Y-91257380D01*
X118403761Y-91209761D01*
X118308523Y-91114523D01*
X118260904Y-91019285D01*
X118213285Y-90828809D01*
X118213285Y-90685952D01*
X118260904Y-90495476D01*
X118308523Y-90400238D01*
X118403761Y-90305000D01*
X118546619Y-90257380D01*
X118641857Y-90257380D01*
X118784714Y-90305000D01*
X118832333Y-90352619D01*
X119784714Y-91257380D02*
X119213285Y-91257380D01*
X119499000Y-91257380D02*
X119499000Y-90257380D01*
X119403761Y-90400238D01*
X119308523Y-90495476D01*
X119213285Y-90543095D01*
M02*
