G04 #@! TF.GenerationSoftware,KiCad,Pcbnew,(6.0.8)*
G04 #@! TF.CreationDate,2022-11-19T16:11:50-06:00*
G04 #@! TF.ProjectId,NavBoard_Hardware,4e617642-6f61-4726-945f-486172647761,2_ 2023*
G04 #@! TF.SameCoordinates,Original*
G04 #@! TF.FileFunction,Legend,Top*
G04 #@! TF.FilePolarity,Positive*
%FSLAX46Y46*%
G04 Gerber Fmt 4.6, Leading zero omitted, Abs format (unit mm)*
G04 Created by KiCad (PCBNEW (6.0.8)) date 2022-11-19 16:11:50*
%MOMM*%
%LPD*%
G01*
G04 APERTURE LIST*
%ADD10C,0.120000*%
%ADD11C,0.200000*%
%ADD12C,0.334420*%
%ADD13C,0.150000*%
%ADD14C,0.250000*%
%ADD15C,0.300000*%
%ADD16C,0.100000*%
%ADD17C,0.127000*%
G04 APERTURE END LIST*
D10*
X99250000Y-82260000D02*
X121600000Y-82260000D01*
X121600000Y-82260000D02*
X121600000Y-63000000D01*
X121600000Y-63000000D02*
X99250000Y-63000000D01*
X99250000Y-63000000D02*
X99250000Y-82260000D01*
D11*
X129300000Y-45900000D02*
X144400000Y-45900000D01*
X129300000Y-60840000D02*
X144400000Y-60840000D01*
D12*
X114363179Y-54430000D02*
G75*
G03*
X114363179Y-54430000I-167210J0D01*
G01*
D10*
X104450000Y-60350000D02*
X126700000Y-60350000D01*
X126700000Y-60350000D02*
X126700000Y-45200000D01*
X126700000Y-45200000D02*
X104450000Y-45200000D01*
X104450000Y-45200000D02*
X104450000Y-60350000D01*
D11*
X129300000Y-70800000D02*
X144400000Y-70800000D01*
D12*
X109837210Y-68025580D02*
G75*
G03*
X109837210Y-68025580I-167210J0D01*
G01*
D11*
X129300000Y-65820000D02*
X144400000Y-65820000D01*
X129300000Y-55860000D02*
X144400000Y-55860000D01*
X129300000Y-45900000D02*
X144400000Y-45900000D01*
X144400000Y-45900000D02*
X144400000Y-70800000D01*
X144400000Y-70800000D02*
X129300000Y-70800000D01*
X129300000Y-70800000D02*
X129300000Y-45900000D01*
X129300000Y-50880000D02*
X144400000Y-50880000D01*
D13*
X51745333Y-73077666D02*
X51999333Y-73162333D01*
X52422666Y-73162333D01*
X52592000Y-73077666D01*
X52676666Y-72993000D01*
X52761333Y-72823666D01*
X52761333Y-72654333D01*
X52676666Y-72485000D01*
X52592000Y-72400333D01*
X52422666Y-72315666D01*
X52084000Y-72231000D01*
X51914666Y-72146333D01*
X51830000Y-72061666D01*
X51745333Y-71892333D01*
X51745333Y-71723000D01*
X51830000Y-71553666D01*
X51914666Y-71469000D01*
X52084000Y-71384333D01*
X52507333Y-71384333D01*
X52761333Y-71469000D01*
X54539333Y-72993000D02*
X54454666Y-73077666D01*
X54200666Y-73162333D01*
X54031333Y-73162333D01*
X53777333Y-73077666D01*
X53608000Y-72908333D01*
X53523333Y-72739000D01*
X53438666Y-72400333D01*
X53438666Y-72146333D01*
X53523333Y-71807666D01*
X53608000Y-71638333D01*
X53777333Y-71469000D01*
X54031333Y-71384333D01*
X54200666Y-71384333D01*
X54454666Y-71469000D01*
X54539333Y-71553666D01*
X56148000Y-73162333D02*
X55301333Y-73162333D01*
X55301333Y-71384333D01*
D14*
X101237380Y-81229404D02*
X100237380Y-81229404D01*
X101237380Y-80753214D02*
X100237380Y-80753214D01*
X100951666Y-80419880D01*
X100237380Y-80086547D01*
X101237380Y-80086547D01*
X100237380Y-79610357D02*
X101046904Y-79610357D01*
X101142142Y-79562738D01*
X101189761Y-79515119D01*
X101237380Y-79419880D01*
X101237380Y-79229404D01*
X101189761Y-79134166D01*
X101142142Y-79086547D01*
X101046904Y-79038928D01*
X100237380Y-79038928D01*
X100570714Y-77848452D02*
X100570714Y-77134166D01*
X100142142Y-77562738D02*
X101427857Y-77848452D01*
X100999285Y-77229404D02*
X100999285Y-77943690D01*
X101427857Y-77515119D02*
X100142142Y-77229404D01*
X101237380Y-76277023D02*
X101237380Y-76848452D01*
X101237380Y-76562738D02*
X100237380Y-76562738D01*
X100380238Y-76657976D01*
X100475476Y-76753214D01*
X100523095Y-76848452D01*
X102323571Y-80896071D02*
X102371190Y-80753214D01*
X102418809Y-80705595D01*
X102514047Y-80657976D01*
X102656904Y-80657976D01*
X102752142Y-80705595D01*
X102799761Y-80753214D01*
X102847380Y-80848452D01*
X102847380Y-81229404D01*
X101847380Y-81229404D01*
X101847380Y-80896071D01*
X101895000Y-80800833D01*
X101942619Y-80753214D01*
X102037857Y-80705595D01*
X102133095Y-80705595D01*
X102228333Y-80753214D01*
X102275952Y-80800833D01*
X102323571Y-80896071D01*
X102323571Y-81229404D01*
X102847380Y-80229404D02*
X101847380Y-80229404D01*
X102323571Y-80229404D02*
X102323571Y-79657976D01*
X102847380Y-79657976D02*
X101847380Y-79657976D01*
X102847380Y-79181785D02*
X101847380Y-79181785D01*
X102847380Y-78181785D02*
X102847380Y-78753214D01*
X102847380Y-78467500D02*
X101847380Y-78467500D01*
X101990238Y-78562738D01*
X102085476Y-78657976D01*
X102133095Y-78753214D01*
X101847380Y-77324642D02*
X101847380Y-77515119D01*
X101895000Y-77610357D01*
X101942619Y-77657976D01*
X102085476Y-77753214D01*
X102275952Y-77800833D01*
X102656904Y-77800833D01*
X102752142Y-77753214D01*
X102799761Y-77705595D01*
X102847380Y-77610357D01*
X102847380Y-77419880D01*
X102799761Y-77324642D01*
X102752142Y-77277023D01*
X102656904Y-77229404D01*
X102418809Y-77229404D01*
X102323571Y-77277023D01*
X102275952Y-77324642D01*
X102228333Y-77419880D01*
X102228333Y-77610357D01*
X102275952Y-77705595D01*
X102323571Y-77753214D01*
X102418809Y-77800833D01*
X101847380Y-76610357D02*
X101847380Y-76515119D01*
X101895000Y-76419880D01*
X101942619Y-76372261D01*
X102037857Y-76324642D01*
X102228333Y-76277023D01*
X102466428Y-76277023D01*
X102656904Y-76324642D01*
X102752142Y-76372261D01*
X102799761Y-76419880D01*
X102847380Y-76515119D01*
X102847380Y-76610357D01*
X102799761Y-76705595D01*
X102752142Y-76753214D01*
X102656904Y-76800833D01*
X102466428Y-76848452D01*
X102228333Y-76848452D01*
X102037857Y-76800833D01*
X101942619Y-76753214D01*
X101895000Y-76705595D01*
X101847380Y-76610357D01*
X102275952Y-75705595D02*
X102228333Y-75800833D01*
X102180714Y-75848452D01*
X102085476Y-75896071D01*
X102037857Y-75896071D01*
X101942619Y-75848452D01*
X101895000Y-75800833D01*
X101847380Y-75705595D01*
X101847380Y-75515119D01*
X101895000Y-75419880D01*
X101942619Y-75372261D01*
X102037857Y-75324642D01*
X102085476Y-75324642D01*
X102180714Y-75372261D01*
X102228333Y-75419880D01*
X102275952Y-75515119D01*
X102275952Y-75705595D01*
X102323571Y-75800833D01*
X102371190Y-75848452D01*
X102466428Y-75896071D01*
X102656904Y-75896071D01*
X102752142Y-75848452D01*
X102799761Y-75800833D01*
X102847380Y-75705595D01*
X102847380Y-75515119D01*
X102799761Y-75419880D01*
X102752142Y-75372261D01*
X102656904Y-75324642D01*
X102466428Y-75324642D01*
X102371190Y-75372261D01*
X102323571Y-75419880D01*
X102275952Y-75515119D01*
D13*
X52803666Y-79004333D02*
X52211000Y-78157666D01*
X51787666Y-79004333D02*
X51787666Y-77226333D01*
X52465000Y-77226333D01*
X52634333Y-77311000D01*
X52719000Y-77395666D01*
X52803666Y-77565000D01*
X52803666Y-77819000D01*
X52719000Y-77988333D01*
X52634333Y-78073000D01*
X52465000Y-78157666D01*
X51787666Y-78157666D01*
X53396333Y-77226333D02*
X54581666Y-79004333D01*
X54581666Y-77226333D02*
X53396333Y-79004333D01*
X73452380Y-63447619D02*
X73452380Y-62876190D01*
X74452380Y-63161904D02*
X73452380Y-63161904D01*
X74404761Y-62590476D02*
X74452380Y-62447619D01*
X74452380Y-62209523D01*
X74404761Y-62114285D01*
X74357142Y-62066666D01*
X74261904Y-62019047D01*
X74166666Y-62019047D01*
X74071428Y-62066666D01*
X74023809Y-62114285D01*
X73976190Y-62209523D01*
X73928571Y-62400000D01*
X73880952Y-62495238D01*
X73833333Y-62542857D01*
X73738095Y-62590476D01*
X73642857Y-62590476D01*
X73547619Y-62542857D01*
X73500000Y-62495238D01*
X73452380Y-62400000D01*
X73452380Y-62161904D01*
X73500000Y-62019047D01*
X74452380Y-61019047D02*
X73976190Y-61352380D01*
X74452380Y-61590476D02*
X73452380Y-61590476D01*
X73452380Y-61209523D01*
X73500000Y-61114285D01*
X73547619Y-61066666D01*
X73642857Y-61019047D01*
X73785714Y-61019047D01*
X73880952Y-61066666D01*
X73928571Y-61114285D01*
X73976190Y-61209523D01*
X73976190Y-61590476D01*
X73452380Y-59352380D02*
X73452380Y-59828571D01*
X73928571Y-59876190D01*
X73880952Y-59828571D01*
X73833333Y-59733333D01*
X73833333Y-59495238D01*
X73880952Y-59400000D01*
X73928571Y-59352380D01*
X74023809Y-59304761D01*
X74261904Y-59304761D01*
X74357142Y-59352380D01*
X74404761Y-59400000D01*
X74452380Y-59495238D01*
X74452380Y-59733333D01*
X74404761Y-59828571D01*
X74357142Y-59876190D01*
X73452380Y-59019047D02*
X74452380Y-58685714D01*
X73452380Y-58352380D01*
X95052380Y-63923809D02*
X95052380Y-63352380D01*
X96052380Y-63638095D02*
X95052380Y-63638095D01*
X96004761Y-63066666D02*
X96052380Y-62923809D01*
X96052380Y-62685714D01*
X96004761Y-62590476D01*
X95957142Y-62542857D01*
X95861904Y-62495238D01*
X95766666Y-62495238D01*
X95671428Y-62542857D01*
X95623809Y-62590476D01*
X95576190Y-62685714D01*
X95528571Y-62876190D01*
X95480952Y-62971428D01*
X95433333Y-63019047D01*
X95338095Y-63066666D01*
X95242857Y-63066666D01*
X95147619Y-63019047D01*
X95100000Y-62971428D01*
X95052380Y-62876190D01*
X95052380Y-62638095D01*
X95100000Y-62495238D01*
X96052380Y-61495238D02*
X95576190Y-61828571D01*
X96052380Y-62066666D02*
X95052380Y-62066666D01*
X95052380Y-61685714D01*
X95100000Y-61590476D01*
X95147619Y-61542857D01*
X95242857Y-61495238D01*
X95385714Y-61495238D01*
X95480952Y-61542857D01*
X95528571Y-61590476D01*
X95576190Y-61685714D01*
X95576190Y-62066666D01*
X95052380Y-60400000D02*
X95052380Y-59780952D01*
X95433333Y-60114285D01*
X95433333Y-59971428D01*
X95480952Y-59876190D01*
X95528571Y-59828571D01*
X95623809Y-59780952D01*
X95861904Y-59780952D01*
X95957142Y-59828571D01*
X96004761Y-59876190D01*
X96052380Y-59971428D01*
X96052380Y-60257142D01*
X96004761Y-60352380D01*
X95957142Y-60400000D01*
X95052380Y-59495238D02*
X96052380Y-59161904D01*
X95052380Y-58828571D01*
X95052380Y-58590476D02*
X95052380Y-57971428D01*
X95433333Y-58304761D01*
X95433333Y-58161904D01*
X95480952Y-58066666D01*
X95528571Y-58019047D01*
X95623809Y-57971428D01*
X95861904Y-57971428D01*
X95957142Y-58019047D01*
X96004761Y-58066666D01*
X96052380Y-58161904D01*
X96052380Y-58447619D01*
X96004761Y-58542857D01*
X95957142Y-58590476D01*
X51703000Y-75871666D02*
X51957000Y-75956333D01*
X52380333Y-75956333D01*
X52549666Y-75871666D01*
X52634333Y-75787000D01*
X52719000Y-75617666D01*
X52719000Y-75448333D01*
X52634333Y-75279000D01*
X52549666Y-75194333D01*
X52380333Y-75109666D01*
X52041666Y-75025000D01*
X51872333Y-74940333D01*
X51787666Y-74855666D01*
X51703000Y-74686333D01*
X51703000Y-74517000D01*
X51787666Y-74347666D01*
X51872333Y-74263000D01*
X52041666Y-74178333D01*
X52465000Y-74178333D01*
X52719000Y-74263000D01*
X53481000Y-75956333D02*
X53481000Y-74178333D01*
X53904333Y-74178333D01*
X54158333Y-74263000D01*
X54327666Y-74432333D01*
X54412333Y-74601666D01*
X54497000Y-74940333D01*
X54497000Y-75194333D01*
X54412333Y-75533000D01*
X54327666Y-75702333D01*
X54158333Y-75871666D01*
X53904333Y-75956333D01*
X53481000Y-75956333D01*
X55174333Y-75448333D02*
X56021000Y-75448333D01*
X55005000Y-75956333D02*
X55597666Y-74178333D01*
X56190333Y-75956333D01*
D15*
X130185238Y-67854523D02*
X130971428Y-67854523D01*
X130548095Y-68338333D01*
X130729523Y-68338333D01*
X130850476Y-68398809D01*
X130910952Y-68459285D01*
X130971428Y-68580238D01*
X130971428Y-68882619D01*
X130910952Y-69003571D01*
X130850476Y-69064047D01*
X130729523Y-69124523D01*
X130366666Y-69124523D01*
X130245714Y-69064047D01*
X130185238Y-69003571D01*
X131515714Y-69003571D02*
X131576190Y-69064047D01*
X131515714Y-69124523D01*
X131455238Y-69064047D01*
X131515714Y-69003571D01*
X131515714Y-69124523D01*
X131999523Y-67854523D02*
X132785714Y-67854523D01*
X132362380Y-68338333D01*
X132543809Y-68338333D01*
X132664761Y-68398809D01*
X132725238Y-68459285D01*
X132785714Y-68580238D01*
X132785714Y-68882619D01*
X132725238Y-69003571D01*
X132664761Y-69064047D01*
X132543809Y-69124523D01*
X132180952Y-69124523D01*
X132060000Y-69064047D01*
X131999523Y-69003571D01*
X133148571Y-67854523D02*
X133571904Y-69124523D01*
X133995238Y-67854523D01*
X130810238Y-64054523D02*
X130810238Y-62784523D01*
X131354523Y-62905476D02*
X131415000Y-62845000D01*
X131535952Y-62784523D01*
X131838333Y-62784523D01*
X131959285Y-62845000D01*
X132019761Y-62905476D01*
X132080238Y-63026428D01*
X132080238Y-63147380D01*
X132019761Y-63328809D01*
X131294047Y-64054523D01*
X132080238Y-64054523D01*
X133350238Y-63933571D02*
X133289761Y-63994047D01*
X133108333Y-64054523D01*
X132987380Y-64054523D01*
X132805952Y-63994047D01*
X132685000Y-63873095D01*
X132624523Y-63752142D01*
X132564047Y-63510238D01*
X132564047Y-63328809D01*
X132624523Y-63086904D01*
X132685000Y-62965952D01*
X132805952Y-62845000D01*
X132987380Y-62784523D01*
X133108333Y-62784523D01*
X133289761Y-62845000D01*
X133350238Y-62905476D01*
D13*
X52211000Y-88021333D02*
X52211000Y-86666666D01*
X52888333Y-87344000D02*
X51533666Y-87344000D01*
D16*
X92328571Y-57071428D02*
X91985714Y-57071428D01*
X92157142Y-57071428D02*
X92157142Y-56471428D01*
X92100000Y-56557142D01*
X92042857Y-56614285D01*
X91985714Y-56642857D01*
X92557142Y-56528571D02*
X92585714Y-56500000D01*
X92642857Y-56471428D01*
X92785714Y-56471428D01*
X92842857Y-56500000D01*
X92871428Y-56528571D01*
X92900000Y-56585714D01*
X92900000Y-56642857D01*
X92871428Y-56728571D01*
X92528571Y-57071428D01*
X92900000Y-57071428D01*
X93071428Y-56471428D02*
X93271428Y-57071428D01*
X93471428Y-56471428D01*
D15*
X130034047Y-52614523D02*
X130034047Y-53642619D01*
X130094523Y-53763571D01*
X130155000Y-53824047D01*
X130275952Y-53884523D01*
X130517857Y-53884523D01*
X130638809Y-53824047D01*
X130699285Y-53763571D01*
X130759761Y-53642619D01*
X130759761Y-52614523D01*
X131304047Y-53521666D02*
X131908809Y-53521666D01*
X131183095Y-53884523D02*
X131606428Y-52614523D01*
X132029761Y-53884523D01*
X133178809Y-53884523D02*
X132755476Y-53279761D01*
X132453095Y-53884523D02*
X132453095Y-52614523D01*
X132936904Y-52614523D01*
X133057857Y-52675000D01*
X133118333Y-52735476D01*
X133178809Y-52856428D01*
X133178809Y-53037857D01*
X133118333Y-53158809D01*
X133057857Y-53219285D01*
X132936904Y-53279761D01*
X132453095Y-53279761D01*
X133541666Y-52614523D02*
X134267380Y-52614523D01*
X133904523Y-53884523D02*
X133904523Y-52614523D01*
X43328571Y-66450000D02*
X43185714Y-66378571D01*
X42971428Y-66378571D01*
X42757142Y-66450000D01*
X42614285Y-66592857D01*
X42542857Y-66735714D01*
X42471428Y-67021428D01*
X42471428Y-67235714D01*
X42542857Y-67521428D01*
X42614285Y-67664285D01*
X42757142Y-67807142D01*
X42971428Y-67878571D01*
X43114285Y-67878571D01*
X43328571Y-67807142D01*
X43400000Y-67735714D01*
X43400000Y-67235714D01*
X43114285Y-67235714D01*
X44042857Y-67878571D02*
X44042857Y-66378571D01*
X44614285Y-66378571D01*
X44757142Y-66450000D01*
X44828571Y-66521428D01*
X44900000Y-66664285D01*
X44900000Y-66878571D01*
X44828571Y-67021428D01*
X44757142Y-67092857D01*
X44614285Y-67164285D01*
X44042857Y-67164285D01*
X45471428Y-67807142D02*
X45685714Y-67878571D01*
X46042857Y-67878571D01*
X46185714Y-67807142D01*
X46257142Y-67735714D01*
X46328571Y-67592857D01*
X46328571Y-67450000D01*
X46257142Y-67307142D01*
X46185714Y-67235714D01*
X46042857Y-67164285D01*
X45757142Y-67092857D01*
X45614285Y-67021428D01*
X45542857Y-66950000D01*
X45471428Y-66807142D01*
X45471428Y-66664285D01*
X45542857Y-66521428D01*
X45614285Y-66450000D01*
X45757142Y-66378571D01*
X46114285Y-66378571D01*
X46328571Y-66450000D01*
D16*
X91957142Y-64771428D02*
X92328571Y-64771428D01*
X92128571Y-65000000D01*
X92214285Y-65000000D01*
X92271428Y-65028571D01*
X92300000Y-65057142D01*
X92328571Y-65114285D01*
X92328571Y-65257142D01*
X92300000Y-65314285D01*
X92271428Y-65342857D01*
X92214285Y-65371428D01*
X92042857Y-65371428D01*
X91985714Y-65342857D01*
X91957142Y-65314285D01*
X92500000Y-64771428D02*
X92700000Y-65371428D01*
X92900000Y-64771428D01*
X93042857Y-64771428D02*
X93414285Y-64771428D01*
X93214285Y-65000000D01*
X93300000Y-65000000D01*
X93357142Y-65028571D01*
X93385714Y-65057142D01*
X93414285Y-65114285D01*
X93414285Y-65257142D01*
X93385714Y-65314285D01*
X93357142Y-65342857D01*
X93300000Y-65371428D01*
X93128571Y-65371428D01*
X93071428Y-65342857D01*
X93042857Y-65314285D01*
D15*
X130759761Y-58934047D02*
X130941190Y-58994523D01*
X131243571Y-58994523D01*
X131364523Y-58934047D01*
X131425000Y-58873571D01*
X131485476Y-58752619D01*
X131485476Y-58631666D01*
X131425000Y-58510714D01*
X131364523Y-58450238D01*
X131243571Y-58389761D01*
X131001666Y-58329285D01*
X130880714Y-58268809D01*
X130820238Y-58208333D01*
X130759761Y-58087380D01*
X130759761Y-57966428D01*
X130820238Y-57845476D01*
X130880714Y-57785000D01*
X131001666Y-57724523D01*
X131304047Y-57724523D01*
X131485476Y-57785000D01*
X132029761Y-58994523D02*
X132029761Y-57724523D01*
X132513571Y-57724523D01*
X132634523Y-57785000D01*
X132695000Y-57845476D01*
X132755476Y-57966428D01*
X132755476Y-58147857D01*
X132695000Y-58268809D01*
X132634523Y-58329285D01*
X132513571Y-58389761D01*
X132029761Y-58389761D01*
X133299761Y-58994523D02*
X133299761Y-57724523D01*
D13*
X81157142Y-44747619D02*
X81204761Y-44700000D01*
X81300000Y-44652380D01*
X81538095Y-44652380D01*
X81633333Y-44700000D01*
X81680952Y-44747619D01*
X81728571Y-44842857D01*
X81728571Y-44938095D01*
X81680952Y-45080952D01*
X81109523Y-45652380D01*
X81728571Y-45652380D01*
X82109523Y-44747619D02*
X82157142Y-44700000D01*
X82252380Y-44652380D01*
X82490476Y-44652380D01*
X82585714Y-44700000D01*
X82633333Y-44747619D01*
X82680952Y-44842857D01*
X82680952Y-44938095D01*
X82633333Y-45080952D01*
X82061904Y-45652380D01*
X82680952Y-45652380D01*
X83538095Y-44985714D02*
X83538095Y-45652380D01*
X83109523Y-44985714D02*
X83109523Y-45509523D01*
X83157142Y-45604761D01*
X83252380Y-45652380D01*
X83395238Y-45652380D01*
X83490476Y-45604761D01*
X83538095Y-45557142D01*
X84347619Y-45128571D02*
X84014285Y-45128571D01*
X84014285Y-45652380D02*
X84014285Y-44652380D01*
X84490476Y-44652380D01*
D16*
X70885714Y-64821428D02*
X70600000Y-64821428D01*
X70571428Y-65107142D01*
X70600000Y-65078571D01*
X70657142Y-65050000D01*
X70800000Y-65050000D01*
X70857142Y-65078571D01*
X70885714Y-65107142D01*
X70914285Y-65164285D01*
X70914285Y-65307142D01*
X70885714Y-65364285D01*
X70857142Y-65392857D01*
X70800000Y-65421428D01*
X70657142Y-65421428D01*
X70600000Y-65392857D01*
X70571428Y-65364285D01*
X71085714Y-64821428D02*
X71285714Y-65421428D01*
X71485714Y-64821428D01*
D15*
X131828095Y-47524523D02*
X131223333Y-47524523D01*
X131162857Y-48129285D01*
X131223333Y-48068809D01*
X131344285Y-48008333D01*
X131646666Y-48008333D01*
X131767619Y-48068809D01*
X131828095Y-48129285D01*
X131888571Y-48250238D01*
X131888571Y-48552619D01*
X131828095Y-48673571D01*
X131767619Y-48734047D01*
X131646666Y-48794523D01*
X131344285Y-48794523D01*
X131223333Y-48734047D01*
X131162857Y-48673571D01*
X132251428Y-47524523D02*
X132674761Y-48794523D01*
X133098095Y-47524523D01*
D14*
X106297380Y-59249404D02*
X105297380Y-59249404D01*
X106297380Y-58773214D02*
X105297380Y-58773214D01*
X106011666Y-58439880D01*
X105297380Y-58106547D01*
X106297380Y-58106547D01*
X105297380Y-57630357D02*
X106106904Y-57630357D01*
X106202142Y-57582738D01*
X106249761Y-57535119D01*
X106297380Y-57439880D01*
X106297380Y-57249404D01*
X106249761Y-57154166D01*
X106202142Y-57106547D01*
X106106904Y-57058928D01*
X105297380Y-57058928D01*
X105630714Y-55868452D02*
X105630714Y-55154166D01*
X105202142Y-55582738D02*
X106487857Y-55868452D01*
X106059285Y-55249404D02*
X106059285Y-55963690D01*
X106487857Y-55535119D02*
X105202142Y-55249404D01*
X105392619Y-54868452D02*
X105345000Y-54820833D01*
X105297380Y-54725595D01*
X105297380Y-54487500D01*
X105345000Y-54392261D01*
X105392619Y-54344642D01*
X105487857Y-54297023D01*
X105583095Y-54297023D01*
X105725952Y-54344642D01*
X106297380Y-54916071D01*
X106297380Y-54297023D01*
X107907380Y-59249404D02*
X106907380Y-59249404D01*
X107812142Y-58201785D02*
X107859761Y-58249404D01*
X107907380Y-58392261D01*
X107907380Y-58487500D01*
X107859761Y-58630357D01*
X107764523Y-58725595D01*
X107669285Y-58773214D01*
X107478809Y-58820833D01*
X107335952Y-58820833D01*
X107145476Y-58773214D01*
X107050238Y-58725595D01*
X106955000Y-58630357D01*
X106907380Y-58487500D01*
X106907380Y-58392261D01*
X106955000Y-58249404D01*
X107002619Y-58201785D01*
X107907380Y-57773214D02*
X106907380Y-57773214D01*
X107621666Y-57439880D01*
X106907380Y-57106547D01*
X107907380Y-57106547D01*
X107526428Y-56630357D02*
X107526428Y-55868452D01*
X107002619Y-55439880D02*
X106955000Y-55392261D01*
X106907380Y-55297023D01*
X106907380Y-55058928D01*
X106955000Y-54963690D01*
X107002619Y-54916071D01*
X107097857Y-54868452D01*
X107193095Y-54868452D01*
X107335952Y-54916071D01*
X107907380Y-55487500D01*
X107907380Y-54868452D01*
X106907380Y-54249404D02*
X106907380Y-54154166D01*
X106955000Y-54058928D01*
X107002619Y-54011309D01*
X107097857Y-53963690D01*
X107288333Y-53916071D01*
X107526428Y-53916071D01*
X107716904Y-53963690D01*
X107812142Y-54011309D01*
X107859761Y-54058928D01*
X107907380Y-54154166D01*
X107907380Y-54249404D01*
X107859761Y-54344642D01*
X107812142Y-54392261D01*
X107716904Y-54439880D01*
X107526428Y-54487500D01*
X107288333Y-54487500D01*
X107097857Y-54439880D01*
X107002619Y-54392261D01*
X106955000Y-54344642D01*
X106907380Y-54249404D01*
X106907380Y-53058928D02*
X106907380Y-53249404D01*
X106955000Y-53344642D01*
X107002619Y-53392261D01*
X107145476Y-53487500D01*
X107335952Y-53535119D01*
X107716904Y-53535119D01*
X107812142Y-53487500D01*
X107859761Y-53439880D01*
X107907380Y-53344642D01*
X107907380Y-53154166D01*
X107859761Y-53058928D01*
X107812142Y-53011309D01*
X107716904Y-52963690D01*
X107478809Y-52963690D01*
X107383571Y-53011309D01*
X107335952Y-53058928D01*
X107288333Y-53154166D01*
X107288333Y-53344642D01*
X107335952Y-53439880D01*
X107383571Y-53487500D01*
X107478809Y-53535119D01*
X106907380Y-52344642D02*
X106907380Y-52249404D01*
X106955000Y-52154166D01*
X107002619Y-52106547D01*
X107097857Y-52058928D01*
X107288333Y-52011309D01*
X107526428Y-52011309D01*
X107716904Y-52058928D01*
X107812142Y-52106547D01*
X107859761Y-52154166D01*
X107907380Y-52249404D01*
X107907380Y-52344642D01*
X107859761Y-52439880D01*
X107812142Y-52487500D01*
X107716904Y-52535119D01*
X107526428Y-52582738D01*
X107288333Y-52582738D01*
X107097857Y-52535119D01*
X107002619Y-52487500D01*
X106955000Y-52439880D01*
X106907380Y-52344642D01*
X107335952Y-51439880D02*
X107288333Y-51535119D01*
X107240714Y-51582738D01*
X107145476Y-51630357D01*
X107097857Y-51630357D01*
X107002619Y-51582738D01*
X106955000Y-51535119D01*
X106907380Y-51439880D01*
X106907380Y-51249404D01*
X106955000Y-51154166D01*
X107002619Y-51106547D01*
X107097857Y-51058928D01*
X107145476Y-51058928D01*
X107240714Y-51106547D01*
X107288333Y-51154166D01*
X107335952Y-51249404D01*
X107335952Y-51439880D01*
X107383571Y-51535119D01*
X107431190Y-51582738D01*
X107526428Y-51630357D01*
X107716904Y-51630357D01*
X107812142Y-51582738D01*
X107859761Y-51535119D01*
X107907380Y-51439880D01*
X107907380Y-51249404D01*
X107859761Y-51154166D01*
X107812142Y-51106547D01*
X107716904Y-51058928D01*
X107526428Y-51058928D01*
X107431190Y-51106547D01*
X107383571Y-51154166D01*
X107335952Y-51249404D01*
D16*
X70628571Y-57071428D02*
X70285714Y-57071428D01*
X70457142Y-57071428D02*
X70457142Y-56471428D01*
X70400000Y-56557142D01*
X70342857Y-56614285D01*
X70285714Y-56642857D01*
X70857142Y-56528571D02*
X70885714Y-56500000D01*
X70942857Y-56471428D01*
X71085714Y-56471428D01*
X71142857Y-56500000D01*
X71171428Y-56528571D01*
X71200000Y-56585714D01*
X71200000Y-56642857D01*
X71171428Y-56728571D01*
X70828571Y-57071428D01*
X71200000Y-57071428D01*
X71371428Y-56471428D02*
X71571428Y-57071428D01*
X71771428Y-56471428D01*
D15*
X48157142Y-61207142D02*
X49300000Y-61207142D01*
X48728571Y-61778571D02*
X48728571Y-60635714D01*
X50800000Y-61778571D02*
X49942857Y-61778571D01*
X50371428Y-61778571D02*
X50371428Y-60278571D01*
X50228571Y-60492857D01*
X50085714Y-60635714D01*
X49942857Y-60707142D01*
X51371428Y-60421428D02*
X51442857Y-60350000D01*
X51585714Y-60278571D01*
X51942857Y-60278571D01*
X52085714Y-60350000D01*
X52157142Y-60421428D01*
X52228571Y-60564285D01*
X52228571Y-60707142D01*
X52157142Y-60921428D01*
X51300000Y-61778571D01*
X52228571Y-61778571D01*
X52657142Y-60278571D02*
X53157142Y-61778571D01*
X53657142Y-60278571D01*
D13*
X64852619Y-74147473D02*
X64852619Y-72877473D01*
X65578333Y-74147473D01*
X65578333Y-72877473D01*
X66727380Y-74147473D02*
X66727380Y-73482235D01*
X66666904Y-73361283D01*
X66545952Y-73300807D01*
X66304047Y-73300807D01*
X66183095Y-73361283D01*
X66727380Y-74086997D02*
X66606428Y-74147473D01*
X66304047Y-74147473D01*
X66183095Y-74086997D01*
X66122619Y-73966045D01*
X66122619Y-73845092D01*
X66183095Y-73724140D01*
X66304047Y-73663664D01*
X66606428Y-73663664D01*
X66727380Y-73603188D01*
X67211190Y-73300807D02*
X67513571Y-74147473D01*
X67815952Y-73300807D01*
X68299761Y-74147473D02*
X68299761Y-73300807D01*
X68299761Y-72877473D02*
X68239285Y-72937950D01*
X68299761Y-72998426D01*
X68360238Y-72937950D01*
X68299761Y-72877473D01*
X68299761Y-72998426D01*
X69448809Y-73300807D02*
X69448809Y-74328902D01*
X69388333Y-74449854D01*
X69327857Y-74510330D01*
X69206904Y-74570807D01*
X69025476Y-74570807D01*
X68904523Y-74510330D01*
X69448809Y-74086997D02*
X69327857Y-74147473D01*
X69085952Y-74147473D01*
X68965000Y-74086997D01*
X68904523Y-74026521D01*
X68844047Y-73905569D01*
X68844047Y-73542711D01*
X68904523Y-73421759D01*
X68965000Y-73361283D01*
X69085952Y-73300807D01*
X69327857Y-73300807D01*
X69448809Y-73361283D01*
X70597857Y-74147473D02*
X70597857Y-73482235D01*
X70537380Y-73361283D01*
X70416428Y-73300807D01*
X70174523Y-73300807D01*
X70053571Y-73361283D01*
X70597857Y-74086997D02*
X70476904Y-74147473D01*
X70174523Y-74147473D01*
X70053571Y-74086997D01*
X69993095Y-73966045D01*
X69993095Y-73845092D01*
X70053571Y-73724140D01*
X70174523Y-73663664D01*
X70476904Y-73663664D01*
X70597857Y-73603188D01*
X71021190Y-73300807D02*
X71505000Y-73300807D01*
X71202619Y-72877473D02*
X71202619Y-73966045D01*
X71263095Y-74086997D01*
X71384047Y-74147473D01*
X71505000Y-74147473D01*
X71928333Y-74147473D02*
X71928333Y-73300807D01*
X71928333Y-72877473D02*
X71867857Y-72937950D01*
X71928333Y-72998426D01*
X71988809Y-72937950D01*
X71928333Y-72877473D01*
X71928333Y-72998426D01*
X72714523Y-74147473D02*
X72593571Y-74086997D01*
X72533095Y-74026521D01*
X72472619Y-73905569D01*
X72472619Y-73542711D01*
X72533095Y-73421759D01*
X72593571Y-73361283D01*
X72714523Y-73300807D01*
X72895952Y-73300807D01*
X73016904Y-73361283D01*
X73077380Y-73421759D01*
X73137857Y-73542711D01*
X73137857Y-73905569D01*
X73077380Y-74026521D01*
X73016904Y-74086997D01*
X72895952Y-74147473D01*
X72714523Y-74147473D01*
X73682142Y-73300807D02*
X73682142Y-74147473D01*
X73682142Y-73421759D02*
X73742619Y-73361283D01*
X73863571Y-73300807D01*
X74045000Y-73300807D01*
X74165952Y-73361283D01*
X74226428Y-73482235D01*
X74226428Y-74147473D01*
X76222142Y-73482235D02*
X76403571Y-73542711D01*
X76464047Y-73603188D01*
X76524523Y-73724140D01*
X76524523Y-73905569D01*
X76464047Y-74026521D01*
X76403571Y-74086997D01*
X76282619Y-74147473D01*
X75798809Y-74147473D01*
X75798809Y-72877473D01*
X76222142Y-72877473D01*
X76343095Y-72937950D01*
X76403571Y-72998426D01*
X76464047Y-73119378D01*
X76464047Y-73240330D01*
X76403571Y-73361283D01*
X76343095Y-73421759D01*
X76222142Y-73482235D01*
X75798809Y-73482235D01*
X77250238Y-74147473D02*
X77129285Y-74086997D01*
X77068809Y-74026521D01*
X77008333Y-73905569D01*
X77008333Y-73542711D01*
X77068809Y-73421759D01*
X77129285Y-73361283D01*
X77250238Y-73300807D01*
X77431666Y-73300807D01*
X77552619Y-73361283D01*
X77613095Y-73421759D01*
X77673571Y-73542711D01*
X77673571Y-73905569D01*
X77613095Y-74026521D01*
X77552619Y-74086997D01*
X77431666Y-74147473D01*
X77250238Y-74147473D01*
X78762142Y-74147473D02*
X78762142Y-73482235D01*
X78701666Y-73361283D01*
X78580714Y-73300807D01*
X78338809Y-73300807D01*
X78217857Y-73361283D01*
X78762142Y-74086997D02*
X78641190Y-74147473D01*
X78338809Y-74147473D01*
X78217857Y-74086997D01*
X78157380Y-73966045D01*
X78157380Y-73845092D01*
X78217857Y-73724140D01*
X78338809Y-73663664D01*
X78641190Y-73663664D01*
X78762142Y-73603188D01*
X79366904Y-74147473D02*
X79366904Y-73300807D01*
X79366904Y-73542711D02*
X79427380Y-73421759D01*
X79487857Y-73361283D01*
X79608809Y-73300807D01*
X79729761Y-73300807D01*
X80697380Y-74147473D02*
X80697380Y-72877473D01*
X80697380Y-74086997D02*
X80576428Y-74147473D01*
X80334523Y-74147473D01*
X80213571Y-74086997D01*
X80153095Y-74026521D01*
X80092619Y-73905569D01*
X80092619Y-73542711D01*
X80153095Y-73421759D01*
X80213571Y-73361283D01*
X80334523Y-73300807D01*
X80576428Y-73300807D01*
X80697380Y-73361283D01*
X81362619Y-74086997D02*
X81362619Y-74147473D01*
X81302142Y-74268426D01*
X81241666Y-74328902D01*
X83600238Y-74147473D02*
X83176904Y-73542711D01*
X82874523Y-74147473D02*
X82874523Y-72877473D01*
X83358333Y-72877473D01*
X83479285Y-72937950D01*
X83539761Y-72998426D01*
X83600238Y-73119378D01*
X83600238Y-73300807D01*
X83539761Y-73421759D01*
X83479285Y-73482235D01*
X83358333Y-73542711D01*
X82874523Y-73542711D01*
X84628333Y-74086997D02*
X84507380Y-74147473D01*
X84265476Y-74147473D01*
X84144523Y-74086997D01*
X84084047Y-73966045D01*
X84084047Y-73482235D01*
X84144523Y-73361283D01*
X84265476Y-73300807D01*
X84507380Y-73300807D01*
X84628333Y-73361283D01*
X84688809Y-73482235D01*
X84688809Y-73603188D01*
X84084047Y-73724140D01*
X85112142Y-73300807D02*
X85414523Y-74147473D01*
X85716904Y-73300807D01*
X87107857Y-72998426D02*
X87168333Y-72937950D01*
X87289285Y-72877473D01*
X87591666Y-72877473D01*
X87712619Y-72937950D01*
X87773095Y-72998426D01*
X87833571Y-73119378D01*
X87833571Y-73240330D01*
X87773095Y-73421759D01*
X87047380Y-74147473D01*
X87833571Y-74147473D01*
X88377857Y-74026521D02*
X88438333Y-74086997D01*
X88377857Y-74147473D01*
X88317380Y-74086997D01*
X88377857Y-74026521D01*
X88377857Y-74147473D01*
X89224523Y-72877473D02*
X89345476Y-72877473D01*
X89466428Y-72937950D01*
X89526904Y-72998426D01*
X89587380Y-73119378D01*
X89647857Y-73361283D01*
X89647857Y-73663664D01*
X89587380Y-73905569D01*
X89526904Y-74026521D01*
X89466428Y-74086997D01*
X89345476Y-74147473D01*
X89224523Y-74147473D01*
X89103571Y-74086997D01*
X89043095Y-74026521D01*
X88982619Y-73905569D01*
X88922142Y-73663664D01*
X88922142Y-73361283D01*
X88982619Y-73119378D01*
X89043095Y-72998426D01*
X89103571Y-72937950D01*
X89224523Y-72877473D01*
X65638809Y-76192173D02*
X65638809Y-74922173D01*
X66062142Y-75829316D01*
X66485476Y-74922173D01*
X66485476Y-76192173D01*
X67634523Y-76192173D02*
X67634523Y-75526935D01*
X67574047Y-75405983D01*
X67453095Y-75345507D01*
X67211190Y-75345507D01*
X67090238Y-75405983D01*
X67634523Y-76131697D02*
X67513571Y-76192173D01*
X67211190Y-76192173D01*
X67090238Y-76131697D01*
X67029761Y-76010745D01*
X67029761Y-75889792D01*
X67090238Y-75768840D01*
X67211190Y-75708364D01*
X67513571Y-75708364D01*
X67634523Y-75647888D01*
X68239285Y-76192173D02*
X68239285Y-75345507D01*
X68239285Y-75587411D02*
X68299761Y-75466459D01*
X68360238Y-75405983D01*
X68481190Y-75345507D01*
X68602142Y-75345507D01*
X68965000Y-76131697D02*
X69085952Y-76192173D01*
X69327857Y-76192173D01*
X69448809Y-76131697D01*
X69509285Y-76010745D01*
X69509285Y-75950269D01*
X69448809Y-75829316D01*
X69327857Y-75768840D01*
X69146428Y-75768840D01*
X69025476Y-75708364D01*
X68965000Y-75587411D01*
X68965000Y-75526935D01*
X69025476Y-75405983D01*
X69146428Y-75345507D01*
X69327857Y-75345507D01*
X69448809Y-75405983D01*
X71746904Y-76192173D02*
X71323571Y-75587411D01*
X71021190Y-76192173D02*
X71021190Y-74922173D01*
X71505000Y-74922173D01*
X71625952Y-74982650D01*
X71686428Y-75043126D01*
X71746904Y-75164078D01*
X71746904Y-75345507D01*
X71686428Y-75466459D01*
X71625952Y-75526935D01*
X71505000Y-75587411D01*
X71021190Y-75587411D01*
X72472619Y-76192173D02*
X72351666Y-76131697D01*
X72291190Y-76071221D01*
X72230714Y-75950269D01*
X72230714Y-75587411D01*
X72291190Y-75466459D01*
X72351666Y-75405983D01*
X72472619Y-75345507D01*
X72654047Y-75345507D01*
X72775000Y-75405983D01*
X72835476Y-75466459D01*
X72895952Y-75587411D01*
X72895952Y-75950269D01*
X72835476Y-76071221D01*
X72775000Y-76131697D01*
X72654047Y-76192173D01*
X72472619Y-76192173D01*
X73319285Y-75345507D02*
X73621666Y-76192173D01*
X73924047Y-75345507D01*
X74891666Y-76131697D02*
X74770714Y-76192173D01*
X74528809Y-76192173D01*
X74407857Y-76131697D01*
X74347380Y-76010745D01*
X74347380Y-75526935D01*
X74407857Y-75405983D01*
X74528809Y-75345507D01*
X74770714Y-75345507D01*
X74891666Y-75405983D01*
X74952142Y-75526935D01*
X74952142Y-75647888D01*
X74347380Y-75768840D01*
X75496428Y-76192173D02*
X75496428Y-75345507D01*
X75496428Y-75587411D02*
X75556904Y-75466459D01*
X75617380Y-75405983D01*
X75738333Y-75345507D01*
X75859285Y-75345507D01*
X77250238Y-76192173D02*
X77250238Y-74922173D01*
X77552619Y-74922173D01*
X77734047Y-74982650D01*
X77855000Y-75103602D01*
X77915476Y-75224554D01*
X77975952Y-75466459D01*
X77975952Y-75647888D01*
X77915476Y-75889792D01*
X77855000Y-76010745D01*
X77734047Y-76131697D01*
X77552619Y-76192173D01*
X77250238Y-76192173D01*
X79004047Y-76131697D02*
X78883095Y-76192173D01*
X78641190Y-76192173D01*
X78520238Y-76131697D01*
X78459761Y-76010745D01*
X78459761Y-75526935D01*
X78520238Y-75405983D01*
X78641190Y-75345507D01*
X78883095Y-75345507D01*
X79004047Y-75405983D01*
X79064523Y-75526935D01*
X79064523Y-75647888D01*
X78459761Y-75768840D01*
X79548333Y-76131697D02*
X79669285Y-76192173D01*
X79911190Y-76192173D01*
X80032142Y-76131697D01*
X80092619Y-76010745D01*
X80092619Y-75950269D01*
X80032142Y-75829316D01*
X79911190Y-75768840D01*
X79729761Y-75768840D01*
X79608809Y-75708364D01*
X79548333Y-75587411D01*
X79548333Y-75526935D01*
X79608809Y-75405983D01*
X79729761Y-75345507D01*
X79911190Y-75345507D01*
X80032142Y-75405983D01*
X80636904Y-76192173D02*
X80636904Y-75345507D01*
X80636904Y-74922173D02*
X80576428Y-74982650D01*
X80636904Y-75043126D01*
X80697380Y-74982650D01*
X80636904Y-74922173D01*
X80636904Y-75043126D01*
X81785952Y-75345507D02*
X81785952Y-76373602D01*
X81725476Y-76494554D01*
X81665000Y-76555030D01*
X81544047Y-76615507D01*
X81362619Y-76615507D01*
X81241666Y-76555030D01*
X81785952Y-76131697D02*
X81665000Y-76192173D01*
X81423095Y-76192173D01*
X81302142Y-76131697D01*
X81241666Y-76071221D01*
X81181190Y-75950269D01*
X81181190Y-75587411D01*
X81241666Y-75466459D01*
X81302142Y-75405983D01*
X81423095Y-75345507D01*
X81665000Y-75345507D01*
X81785952Y-75405983D01*
X82390714Y-75345507D02*
X82390714Y-76192173D01*
X82390714Y-75466459D02*
X82451190Y-75405983D01*
X82572142Y-75345507D01*
X82753571Y-75345507D01*
X82874523Y-75405983D01*
X82935000Y-75526935D01*
X82935000Y-76192173D01*
X84325952Y-74922173D02*
X85051666Y-74922173D01*
X84688809Y-76192173D02*
X84688809Y-74922173D01*
X85958809Y-76131697D02*
X85837857Y-76192173D01*
X85595952Y-76192173D01*
X85475000Y-76131697D01*
X85414523Y-76010745D01*
X85414523Y-75526935D01*
X85475000Y-75405983D01*
X85595952Y-75345507D01*
X85837857Y-75345507D01*
X85958809Y-75405983D01*
X86019285Y-75526935D01*
X86019285Y-75647888D01*
X85414523Y-75768840D01*
X87107857Y-76192173D02*
X87107857Y-75526935D01*
X87047380Y-75405983D01*
X86926428Y-75345507D01*
X86684523Y-75345507D01*
X86563571Y-75405983D01*
X87107857Y-76131697D02*
X86986904Y-76192173D01*
X86684523Y-76192173D01*
X86563571Y-76131697D01*
X86503095Y-76010745D01*
X86503095Y-75889792D01*
X86563571Y-75768840D01*
X86684523Y-75708364D01*
X86986904Y-75708364D01*
X87107857Y-75647888D01*
X87712619Y-76192173D02*
X87712619Y-75345507D01*
X87712619Y-75466459D02*
X87773095Y-75405983D01*
X87894047Y-75345507D01*
X88075476Y-75345507D01*
X88196428Y-75405983D01*
X88256904Y-75526935D01*
X88256904Y-76192173D01*
X88256904Y-75526935D02*
X88317380Y-75405983D01*
X88438333Y-75345507D01*
X88619761Y-75345507D01*
X88740714Y-75405983D01*
X88801190Y-75526935D01*
X88801190Y-76192173D01*
X68057857Y-78236873D02*
X68057857Y-76966873D01*
X68481190Y-77874016D01*
X68904523Y-76966873D01*
X68904523Y-78236873D01*
X69509285Y-78236873D02*
X69509285Y-77390207D01*
X69509285Y-76966873D02*
X69448809Y-77027350D01*
X69509285Y-77087826D01*
X69569761Y-77027350D01*
X69509285Y-76966873D01*
X69509285Y-77087826D01*
X70053571Y-78176397D02*
X70174523Y-78236873D01*
X70416428Y-78236873D01*
X70537380Y-78176397D01*
X70597857Y-78055445D01*
X70597857Y-77994969D01*
X70537380Y-77874016D01*
X70416428Y-77813540D01*
X70235000Y-77813540D01*
X70114047Y-77753064D01*
X70053571Y-77632111D01*
X70053571Y-77571635D01*
X70114047Y-77450683D01*
X70235000Y-77390207D01*
X70416428Y-77390207D01*
X70537380Y-77450683D01*
X71081666Y-78176397D02*
X71202619Y-78236873D01*
X71444523Y-78236873D01*
X71565476Y-78176397D01*
X71625952Y-78055445D01*
X71625952Y-77994969D01*
X71565476Y-77874016D01*
X71444523Y-77813540D01*
X71263095Y-77813540D01*
X71142142Y-77753064D01*
X71081666Y-77632111D01*
X71081666Y-77571635D01*
X71142142Y-77450683D01*
X71263095Y-77390207D01*
X71444523Y-77390207D01*
X71565476Y-77450683D01*
X72351666Y-78236873D02*
X72230714Y-78176397D01*
X72170238Y-78115921D01*
X72109761Y-77994969D01*
X72109761Y-77632111D01*
X72170238Y-77511159D01*
X72230714Y-77450683D01*
X72351666Y-77390207D01*
X72533095Y-77390207D01*
X72654047Y-77450683D01*
X72714523Y-77511159D01*
X72775000Y-77632111D01*
X72775000Y-77994969D01*
X72714523Y-78115921D01*
X72654047Y-78176397D01*
X72533095Y-78236873D01*
X72351666Y-78236873D01*
X73863571Y-77390207D02*
X73863571Y-78236873D01*
X73319285Y-77390207D02*
X73319285Y-78055445D01*
X73379761Y-78176397D01*
X73500714Y-78236873D01*
X73682142Y-78236873D01*
X73803095Y-78176397D01*
X73863571Y-78115921D01*
X74468333Y-78236873D02*
X74468333Y-77390207D01*
X74468333Y-77632111D02*
X74528809Y-77511159D01*
X74589285Y-77450683D01*
X74710238Y-77390207D01*
X74831190Y-77390207D01*
X75254523Y-78236873D02*
X75254523Y-77390207D01*
X75254523Y-76966873D02*
X75194047Y-77027350D01*
X75254523Y-77087826D01*
X75315000Y-77027350D01*
X75254523Y-76966873D01*
X75254523Y-77087826D01*
X76766428Y-78176397D02*
X76947857Y-78236873D01*
X77250238Y-78236873D01*
X77371190Y-78176397D01*
X77431666Y-78115921D01*
X77492142Y-77994969D01*
X77492142Y-77874016D01*
X77431666Y-77753064D01*
X77371190Y-77692588D01*
X77250238Y-77632111D01*
X77008333Y-77571635D01*
X76887380Y-77511159D01*
X76826904Y-77450683D01*
X76766428Y-77329730D01*
X76766428Y-77208778D01*
X76826904Y-77087826D01*
X76887380Y-77027350D01*
X77008333Y-76966873D01*
X77310714Y-76966873D01*
X77492142Y-77027350D01*
X79064523Y-78236873D02*
X79004047Y-78236873D01*
X78883095Y-78176397D01*
X78701666Y-77994969D01*
X78399285Y-77632111D01*
X78278333Y-77450683D01*
X78217857Y-77269254D01*
X78217857Y-77148302D01*
X78278333Y-77027350D01*
X78399285Y-76966873D01*
X78459761Y-76966873D01*
X78580714Y-77027350D01*
X78641190Y-77148302D01*
X78641190Y-77208778D01*
X78580714Y-77329730D01*
X78520238Y-77390207D01*
X78157380Y-77632111D01*
X78096904Y-77692588D01*
X78036428Y-77813540D01*
X78036428Y-77994969D01*
X78096904Y-78115921D01*
X78157380Y-78176397D01*
X78278333Y-78236873D01*
X78459761Y-78236873D01*
X78580714Y-78176397D01*
X78641190Y-78115921D01*
X78822619Y-77874016D01*
X78883095Y-77692588D01*
X78883095Y-77571635D01*
X79427380Y-76966873D02*
X80153095Y-76966873D01*
X79790238Y-78236873D02*
X79790238Y-76966873D01*
X80636904Y-78176397D02*
X80636904Y-78236873D01*
X80576428Y-78357826D01*
X80515952Y-78418302D01*
X82088333Y-77087826D02*
X82148809Y-77027350D01*
X82269761Y-76966873D01*
X82572142Y-76966873D01*
X82693095Y-77027350D01*
X82753571Y-77087826D01*
X82814047Y-77208778D01*
X82814047Y-77329730D01*
X82753571Y-77511159D01*
X82027857Y-78236873D01*
X82814047Y-78236873D01*
X83600238Y-76966873D02*
X83721190Y-76966873D01*
X83842142Y-77027350D01*
X83902619Y-77087826D01*
X83963095Y-77208778D01*
X84023571Y-77450683D01*
X84023571Y-77753064D01*
X83963095Y-77994969D01*
X83902619Y-78115921D01*
X83842142Y-78176397D01*
X83721190Y-78236873D01*
X83600238Y-78236873D01*
X83479285Y-78176397D01*
X83418809Y-78115921D01*
X83358333Y-77994969D01*
X83297857Y-77753064D01*
X83297857Y-77450683D01*
X83358333Y-77208778D01*
X83418809Y-77087826D01*
X83479285Y-77027350D01*
X83600238Y-76966873D01*
X84507380Y-77087826D02*
X84567857Y-77027350D01*
X84688809Y-76966873D01*
X84991190Y-76966873D01*
X85112142Y-77027350D01*
X85172619Y-77087826D01*
X85233095Y-77208778D01*
X85233095Y-77329730D01*
X85172619Y-77511159D01*
X84446904Y-78236873D01*
X85233095Y-78236873D01*
X85656428Y-76966873D02*
X86442619Y-76966873D01*
X86019285Y-77450683D01*
X86200714Y-77450683D01*
X86321666Y-77511159D01*
X86382142Y-77571635D01*
X86442619Y-77692588D01*
X86442619Y-77994969D01*
X86382142Y-78115921D01*
X86321666Y-78176397D01*
X86200714Y-78236873D01*
X85837857Y-78236873D01*
X85716904Y-78176397D01*
X85656428Y-78115921D01*
X60226190Y-79011573D02*
X60951904Y-79011573D01*
X60589047Y-80281573D02*
X60589047Y-79011573D01*
X61375238Y-80281573D02*
X61375238Y-79011573D01*
X61919523Y-80281573D02*
X61919523Y-79616335D01*
X61859047Y-79495383D01*
X61738095Y-79434907D01*
X61556666Y-79434907D01*
X61435714Y-79495383D01*
X61375238Y-79555859D01*
X62705714Y-80281573D02*
X62584761Y-80221097D01*
X62524285Y-80160621D01*
X62463809Y-80039669D01*
X62463809Y-79676811D01*
X62524285Y-79555859D01*
X62584761Y-79495383D01*
X62705714Y-79434907D01*
X62887142Y-79434907D01*
X63008095Y-79495383D01*
X63068571Y-79555859D01*
X63129047Y-79676811D01*
X63129047Y-80039669D01*
X63068571Y-80160621D01*
X63008095Y-80221097D01*
X62887142Y-80281573D01*
X62705714Y-80281573D01*
X63673333Y-80281573D02*
X63673333Y-79434907D01*
X63673333Y-79555859D02*
X63733809Y-79495383D01*
X63854761Y-79434907D01*
X64036190Y-79434907D01*
X64157142Y-79495383D01*
X64217619Y-79616335D01*
X64217619Y-80281573D01*
X64217619Y-79616335D02*
X64278095Y-79495383D01*
X64399047Y-79434907D01*
X64580476Y-79434907D01*
X64701428Y-79495383D01*
X64761904Y-79616335D01*
X64761904Y-80281573D01*
X65910952Y-80281573D02*
X65910952Y-79616335D01*
X65850476Y-79495383D01*
X65729523Y-79434907D01*
X65487619Y-79434907D01*
X65366666Y-79495383D01*
X65910952Y-80221097D02*
X65789999Y-80281573D01*
X65487619Y-80281573D01*
X65366666Y-80221097D01*
X65306190Y-80100145D01*
X65306190Y-79979192D01*
X65366666Y-79858240D01*
X65487619Y-79797764D01*
X65789999Y-79797764D01*
X65910952Y-79737288D01*
X66455238Y-80221097D02*
X66576190Y-80281573D01*
X66818095Y-80281573D01*
X66939047Y-80221097D01*
X66999523Y-80100145D01*
X66999523Y-80039669D01*
X66939047Y-79918716D01*
X66818095Y-79858240D01*
X66636666Y-79858240D01*
X66515714Y-79797764D01*
X66455238Y-79676811D01*
X66455238Y-79616335D01*
X66515714Y-79495383D01*
X66636666Y-79434907D01*
X66818095Y-79434907D01*
X66939047Y-79495383D01*
X68934761Y-79616335D02*
X68511428Y-79616335D01*
X68511428Y-80281573D02*
X68511428Y-79011573D01*
X69116190Y-79011573D01*
X69600000Y-80281573D02*
X69600000Y-79434907D01*
X69600000Y-79676811D02*
X69660476Y-79555859D01*
X69720952Y-79495383D01*
X69841904Y-79434907D01*
X69962857Y-79434907D01*
X70930476Y-80281573D02*
X70930476Y-79616335D01*
X70870000Y-79495383D01*
X70749047Y-79434907D01*
X70507142Y-79434907D01*
X70386190Y-79495383D01*
X70930476Y-80221097D02*
X70809523Y-80281573D01*
X70507142Y-80281573D01*
X70386190Y-80221097D01*
X70325714Y-80100145D01*
X70325714Y-79979192D01*
X70386190Y-79858240D01*
X70507142Y-79797764D01*
X70809523Y-79797764D01*
X70930476Y-79737288D01*
X71535238Y-79434907D02*
X71535238Y-80281573D01*
X71535238Y-79555859D02*
X71595714Y-79495383D01*
X71716666Y-79434907D01*
X71898095Y-79434907D01*
X72019047Y-79495383D01*
X72079523Y-79616335D01*
X72079523Y-80281573D01*
X73228571Y-80221097D02*
X73107619Y-80281573D01*
X72865714Y-80281573D01*
X72744761Y-80221097D01*
X72684285Y-80160621D01*
X72623809Y-80039669D01*
X72623809Y-79676811D01*
X72684285Y-79555859D01*
X72744761Y-79495383D01*
X72865714Y-79434907D01*
X73107619Y-79434907D01*
X73228571Y-79495383D01*
X73954285Y-80281573D02*
X73833333Y-80221097D01*
X73772857Y-80160621D01*
X73712380Y-80039669D01*
X73712380Y-79676811D01*
X73772857Y-79555859D01*
X73833333Y-79495383D01*
X73954285Y-79434907D01*
X74135714Y-79434907D01*
X74256666Y-79495383D01*
X74317142Y-79555859D01*
X74377619Y-79676811D01*
X74377619Y-80039669D01*
X74317142Y-80160621D01*
X74256666Y-80221097D01*
X74135714Y-80281573D01*
X73954285Y-80281573D01*
X74921904Y-80281573D02*
X74921904Y-79434907D01*
X74921904Y-79011573D02*
X74861428Y-79072050D01*
X74921904Y-79132526D01*
X74982380Y-79072050D01*
X74921904Y-79011573D01*
X74921904Y-79132526D01*
X75466190Y-80221097D02*
X75587142Y-80281573D01*
X75829047Y-80281573D01*
X75950000Y-80221097D01*
X76010476Y-80100145D01*
X76010476Y-80039669D01*
X75950000Y-79918716D01*
X75829047Y-79858240D01*
X75647619Y-79858240D01*
X75526666Y-79797764D01*
X75466190Y-79676811D01*
X75466190Y-79616335D01*
X75526666Y-79495383D01*
X75647619Y-79434907D01*
X75829047Y-79434907D01*
X75950000Y-79495383D01*
X76615238Y-80221097D02*
X76615238Y-80281573D01*
X76554761Y-80402526D01*
X76494285Y-80463002D01*
X78127142Y-80281573D02*
X78127142Y-79011573D01*
X78852857Y-80281573D02*
X78308571Y-79555859D01*
X78852857Y-79011573D02*
X78127142Y-79737288D01*
X79941428Y-80281573D02*
X79941428Y-79616335D01*
X79880952Y-79495383D01*
X79760000Y-79434907D01*
X79518095Y-79434907D01*
X79397142Y-79495383D01*
X79941428Y-80221097D02*
X79820476Y-80281573D01*
X79518095Y-80281573D01*
X79397142Y-80221097D01*
X79336666Y-80100145D01*
X79336666Y-79979192D01*
X79397142Y-79858240D01*
X79518095Y-79797764D01*
X79820476Y-79797764D01*
X79941428Y-79737288D01*
X80364761Y-79434907D02*
X80848571Y-79434907D01*
X80546190Y-79011573D02*
X80546190Y-80100145D01*
X80606666Y-80221097D01*
X80727619Y-80281573D01*
X80848571Y-80281573D01*
X81271904Y-80281573D02*
X81271904Y-79011573D01*
X81816190Y-80281573D02*
X81816190Y-79616335D01*
X81755714Y-79495383D01*
X81634761Y-79434907D01*
X81453333Y-79434907D01*
X81332380Y-79495383D01*
X81271904Y-79555859D01*
X82904761Y-80221097D02*
X82783809Y-80281573D01*
X82541904Y-80281573D01*
X82420952Y-80221097D01*
X82360476Y-80100145D01*
X82360476Y-79616335D01*
X82420952Y-79495383D01*
X82541904Y-79434907D01*
X82783809Y-79434907D01*
X82904761Y-79495383D01*
X82965238Y-79616335D01*
X82965238Y-79737288D01*
X82360476Y-79858240D01*
X83509523Y-80281573D02*
X83509523Y-79434907D01*
X83509523Y-79676811D02*
X83570000Y-79555859D01*
X83630476Y-79495383D01*
X83751428Y-79434907D01*
X83872380Y-79434907D01*
X84295714Y-80281573D02*
X84295714Y-79434907D01*
X84295714Y-79011573D02*
X84235238Y-79072050D01*
X84295714Y-79132526D01*
X84356190Y-79072050D01*
X84295714Y-79011573D01*
X84295714Y-79132526D01*
X84900476Y-79434907D02*
X84900476Y-80281573D01*
X84900476Y-79555859D02*
X84960952Y-79495383D01*
X85081904Y-79434907D01*
X85263333Y-79434907D01*
X85384285Y-79495383D01*
X85444761Y-79616335D01*
X85444761Y-80281573D01*
X86533333Y-80221097D02*
X86412380Y-80281573D01*
X86170476Y-80281573D01*
X86049523Y-80221097D01*
X85989047Y-80100145D01*
X85989047Y-79616335D01*
X86049523Y-79495383D01*
X86170476Y-79434907D01*
X86412380Y-79434907D01*
X86533333Y-79495383D01*
X86593809Y-79616335D01*
X86593809Y-79737288D01*
X85989047Y-79858240D01*
X88105714Y-80281573D02*
X88105714Y-79011573D01*
X88408095Y-79011573D01*
X88589523Y-79072050D01*
X88710476Y-79193002D01*
X88770952Y-79313954D01*
X88831428Y-79555859D01*
X88831428Y-79737288D01*
X88770952Y-79979192D01*
X88710476Y-80100145D01*
X88589523Y-80221097D01*
X88408095Y-80281573D01*
X88105714Y-80281573D01*
X89920000Y-79434907D02*
X89920000Y-80281573D01*
X89375714Y-79434907D02*
X89375714Y-80100145D01*
X89436190Y-80221097D01*
X89557142Y-80281573D01*
X89738571Y-80281573D01*
X89859523Y-80221097D01*
X89920000Y-80160621D01*
X90524761Y-79434907D02*
X90524761Y-80281573D01*
X90524761Y-79555859D02*
X90585238Y-79495383D01*
X90706190Y-79434907D01*
X90887619Y-79434907D01*
X91008571Y-79495383D01*
X91069047Y-79616335D01*
X91069047Y-80281573D01*
X91855238Y-80281573D02*
X91734285Y-80221097D01*
X91673809Y-80100145D01*
X91673809Y-79011573D01*
X92883333Y-80281573D02*
X92883333Y-79616335D01*
X92822857Y-79495383D01*
X92701904Y-79434907D01*
X92460000Y-79434907D01*
X92339047Y-79495383D01*
X92883333Y-80221097D02*
X92762380Y-80281573D01*
X92460000Y-80281573D01*
X92339047Y-80221097D01*
X92278571Y-80100145D01*
X92278571Y-79979192D01*
X92339047Y-79858240D01*
X92460000Y-79797764D01*
X92762380Y-79797764D01*
X92883333Y-79737288D01*
X93488095Y-79434907D02*
X93488095Y-80704907D01*
X93488095Y-79495383D02*
X93609047Y-79434907D01*
X93850952Y-79434907D01*
X93971904Y-79495383D01*
X94032380Y-79555859D01*
X94092857Y-79676811D01*
X94092857Y-80039669D01*
X94032380Y-80160621D01*
X93971904Y-80221097D01*
X93850952Y-80281573D01*
X93609047Y-80281573D01*
X93488095Y-80221097D01*
X64357142Y-44747619D02*
X64404761Y-44700000D01*
X64500000Y-44652380D01*
X64738095Y-44652380D01*
X64833333Y-44700000D01*
X64880952Y-44747619D01*
X64928571Y-44842857D01*
X64928571Y-44938095D01*
X64880952Y-45080952D01*
X64309523Y-45652380D01*
X64928571Y-45652380D01*
X65309523Y-44747619D02*
X65357142Y-44700000D01*
X65452380Y-44652380D01*
X65690476Y-44652380D01*
X65785714Y-44700000D01*
X65833333Y-44747619D01*
X65880952Y-44842857D01*
X65880952Y-44938095D01*
X65833333Y-45080952D01*
X65261904Y-45652380D01*
X65880952Y-45652380D01*
X66738095Y-44985714D02*
X66738095Y-45652380D01*
X66309523Y-44985714D02*
X66309523Y-45509523D01*
X66357142Y-45604761D01*
X66452380Y-45652380D01*
X66595238Y-45652380D01*
X66690476Y-45604761D01*
X66738095Y-45557142D01*
X67547619Y-45128571D02*
X67214285Y-45128571D01*
X67214285Y-45652380D02*
X67214285Y-44652380D01*
X67690476Y-44652380D01*
X51660666Y-84423000D02*
X53015333Y-84423000D01*
X51745333Y-80274333D02*
X52761333Y-80274333D01*
X52253333Y-82052333D02*
X52253333Y-80274333D01*
X53184666Y-80274333D02*
X54370000Y-82052333D01*
X54370000Y-80274333D02*
X53184666Y-82052333D01*
D15*
X49657142Y-42750000D02*
X49514285Y-42678571D01*
X49300000Y-42678571D01*
X49085714Y-42750000D01*
X48942857Y-42892857D01*
X48871428Y-43035714D01*
X48800000Y-43321428D01*
X48800000Y-43535714D01*
X48871428Y-43821428D01*
X48942857Y-43964285D01*
X49085714Y-44107142D01*
X49300000Y-44178571D01*
X49442857Y-44178571D01*
X49657142Y-44107142D01*
X49728571Y-44035714D01*
X49728571Y-43535714D01*
X49442857Y-43535714D01*
X50371428Y-44178571D02*
X50371428Y-42678571D01*
X51228571Y-44178571D01*
X51228571Y-42678571D01*
X51942857Y-44178571D02*
X51942857Y-42678571D01*
X52300000Y-42678571D01*
X52514285Y-42750000D01*
X52657142Y-42892857D01*
X52728571Y-43035714D01*
X52800000Y-43321428D01*
X52800000Y-43535714D01*
X52728571Y-43821428D01*
X52657142Y-43964285D01*
X52514285Y-44107142D01*
X52300000Y-44178571D01*
X51942857Y-44178571D01*
X130385714Y-73707142D02*
X130600000Y-73778571D01*
X130957142Y-73778571D01*
X131100000Y-73707142D01*
X131171428Y-73635714D01*
X131242857Y-73492857D01*
X131242857Y-73350000D01*
X131171428Y-73207142D01*
X131100000Y-73135714D01*
X130957142Y-73064285D01*
X130671428Y-72992857D01*
X130528571Y-72921428D01*
X130457142Y-72850000D01*
X130385714Y-72707142D01*
X130385714Y-72564285D01*
X130457142Y-72421428D01*
X130528571Y-72350000D01*
X130671428Y-72278571D01*
X131028571Y-72278571D01*
X131242857Y-72350000D01*
X131671428Y-72778571D02*
X132242857Y-72778571D01*
X131885714Y-72278571D02*
X131885714Y-73564285D01*
X131957142Y-73707142D01*
X132100000Y-73778571D01*
X132242857Y-73778571D01*
X133385714Y-73778571D02*
X133385714Y-72992857D01*
X133314285Y-72850000D01*
X133171428Y-72778571D01*
X132885714Y-72778571D01*
X132742857Y-72850000D01*
X133385714Y-73707142D02*
X133242857Y-73778571D01*
X132885714Y-73778571D01*
X132742857Y-73707142D01*
X132671428Y-73564285D01*
X132671428Y-73421428D01*
X132742857Y-73278571D01*
X132885714Y-73207142D01*
X133242857Y-73207142D01*
X133385714Y-73135714D01*
X133885714Y-72778571D02*
X134457142Y-72778571D01*
X134100000Y-72278571D02*
X134100000Y-73564285D01*
X134171428Y-73707142D01*
X134314285Y-73778571D01*
X134457142Y-73778571D01*
X135600000Y-72778571D02*
X135600000Y-73778571D01*
X134957142Y-72778571D02*
X134957142Y-73564285D01*
X135028571Y-73707142D01*
X135171428Y-73778571D01*
X135385714Y-73778571D01*
X135528571Y-73707142D01*
X135600000Y-73635714D01*
X136242857Y-73707142D02*
X136385714Y-73778571D01*
X136671428Y-73778571D01*
X136814285Y-73707142D01*
X136885714Y-73564285D01*
X136885714Y-73492857D01*
X136814285Y-73350000D01*
X136671428Y-73278571D01*
X136457142Y-73278571D01*
X136314285Y-73207142D01*
X136242857Y-73064285D01*
X136242857Y-72992857D01*
X136314285Y-72850000D01*
X136457142Y-72778571D01*
X136671428Y-72778571D01*
X136814285Y-72850000D01*
X139385714Y-73778571D02*
X138671428Y-73778571D01*
X138671428Y-72278571D01*
X139885714Y-72992857D02*
X140385714Y-72992857D01*
X140600000Y-73778571D02*
X139885714Y-73778571D01*
X139885714Y-72278571D01*
X140600000Y-72278571D01*
X141242857Y-73778571D02*
X141242857Y-72278571D01*
X141600000Y-72278571D01*
X141814285Y-72350000D01*
X141957142Y-72492857D01*
X142028571Y-72635714D01*
X142100000Y-72921428D01*
X142100000Y-73135714D01*
X142028571Y-73421428D01*
X141957142Y-73564285D01*
X141814285Y-73707142D01*
X141600000Y-73778571D01*
X141242857Y-73778571D01*
X142671428Y-73707142D02*
X142814285Y-73778571D01*
X143100000Y-73778571D01*
X143242857Y-73707142D01*
X143314285Y-73564285D01*
X143314285Y-73492857D01*
X143242857Y-73350000D01*
X143100000Y-73278571D01*
X142885714Y-73278571D01*
X142742857Y-73207142D01*
X142671428Y-73064285D01*
X142671428Y-72992857D01*
X142742857Y-72850000D01*
X142885714Y-72778571D01*
X143100000Y-72778571D01*
X143242857Y-72850000D01*
D13*
X61997142Y-49716666D02*
X62044761Y-49764285D01*
X62092380Y-49907142D01*
X62092380Y-50002380D01*
X62044761Y-50145238D01*
X61949523Y-50240476D01*
X61854285Y-50288095D01*
X61663809Y-50335714D01*
X61520952Y-50335714D01*
X61330476Y-50288095D01*
X61235238Y-50240476D01*
X61140000Y-50145238D01*
X61092380Y-50002380D01*
X61092380Y-49907142D01*
X61140000Y-49764285D01*
X61187619Y-49716666D01*
X62092380Y-48764285D02*
X62092380Y-49335714D01*
X62092380Y-49050000D02*
X61092380Y-49050000D01*
X61235238Y-49145238D01*
X61330476Y-49240476D01*
X61378095Y-49335714D01*
X72745833Y-69027142D02*
X72698214Y-69074761D01*
X72555357Y-69122380D01*
X72460119Y-69122380D01*
X72317261Y-69074761D01*
X72222023Y-68979523D01*
X72174404Y-68884285D01*
X72126785Y-68693809D01*
X72126785Y-68550952D01*
X72174404Y-68360476D01*
X72222023Y-68265238D01*
X72317261Y-68170000D01*
X72460119Y-68122380D01*
X72555357Y-68122380D01*
X72698214Y-68170000D01*
X72745833Y-68217619D01*
X73126785Y-68217619D02*
X73174404Y-68170000D01*
X73269642Y-68122380D01*
X73507738Y-68122380D01*
X73602976Y-68170000D01*
X73650595Y-68217619D01*
X73698214Y-68312857D01*
X73698214Y-68408095D01*
X73650595Y-68550952D01*
X73079166Y-69122380D01*
X73698214Y-69122380D01*
X68802333Y-68933142D02*
X68754714Y-68980761D01*
X68611857Y-69028380D01*
X68516619Y-69028380D01*
X68373761Y-68980761D01*
X68278523Y-68885523D01*
X68230904Y-68790285D01*
X68183285Y-68599809D01*
X68183285Y-68456952D01*
X68230904Y-68266476D01*
X68278523Y-68171238D01*
X68373761Y-68076000D01*
X68516619Y-68028380D01*
X68611857Y-68028380D01*
X68754714Y-68076000D01*
X68802333Y-68123619D01*
X69135666Y-68028380D02*
X69754714Y-68028380D01*
X69421380Y-68409333D01*
X69564238Y-68409333D01*
X69659476Y-68456952D01*
X69707095Y-68504571D01*
X69754714Y-68599809D01*
X69754714Y-68837904D01*
X69707095Y-68933142D01*
X69659476Y-68980761D01*
X69564238Y-69028380D01*
X69278523Y-69028380D01*
X69183285Y-68980761D01*
X69135666Y-68933142D01*
X78507142Y-49716666D02*
X78554761Y-49764285D01*
X78602380Y-49907142D01*
X78602380Y-50002380D01*
X78554761Y-50145238D01*
X78459523Y-50240476D01*
X78364285Y-50288095D01*
X78173809Y-50335714D01*
X78030952Y-50335714D01*
X77840476Y-50288095D01*
X77745238Y-50240476D01*
X77650000Y-50145238D01*
X77602380Y-50002380D01*
X77602380Y-49907142D01*
X77650000Y-49764285D01*
X77697619Y-49716666D01*
X77935714Y-48859523D02*
X78602380Y-48859523D01*
X77554761Y-49097619D02*
X78269047Y-49335714D01*
X78269047Y-48716666D01*
X43350790Y-61233142D02*
X43303171Y-61280761D01*
X43160314Y-61328380D01*
X43065076Y-61328380D01*
X42922219Y-61280761D01*
X42826980Y-61185523D01*
X42779361Y-61090285D01*
X42731742Y-60899809D01*
X42731742Y-60756952D01*
X42779361Y-60566476D01*
X42826980Y-60471238D01*
X42922219Y-60376000D01*
X43065076Y-60328380D01*
X43160314Y-60328380D01*
X43303171Y-60376000D01*
X43350790Y-60423619D01*
X43922219Y-61328380D02*
X43826980Y-61280761D01*
X43779361Y-61233142D01*
X43731742Y-61137904D01*
X43731742Y-60852190D01*
X43779361Y-60756952D01*
X43826980Y-60709333D01*
X43922219Y-60661714D01*
X44065076Y-60661714D01*
X44160314Y-60709333D01*
X44207933Y-60756952D01*
X44255552Y-60852190D01*
X44255552Y-61137904D01*
X44207933Y-61233142D01*
X44160314Y-61280761D01*
X44065076Y-61328380D01*
X43922219Y-61328380D01*
X44684123Y-60661714D02*
X44684123Y-61328380D01*
X44684123Y-60756952D02*
X44731742Y-60709333D01*
X44826980Y-60661714D01*
X44969838Y-60661714D01*
X45065076Y-60709333D01*
X45112695Y-60804571D01*
X45112695Y-61328380D01*
X45588885Y-60661714D02*
X45588885Y-61328380D01*
X45588885Y-60756952D02*
X45636504Y-60709333D01*
X45731742Y-60661714D01*
X45874600Y-60661714D01*
X45969838Y-60709333D01*
X46017457Y-60804571D01*
X46017457Y-61328380D01*
X47017457Y-61328380D02*
X46446028Y-61328380D01*
X46731742Y-61328380D02*
X46731742Y-60328380D01*
X46636504Y-60471238D01*
X46541266Y-60566476D01*
X46446028Y-60614095D01*
X136421904Y-47282380D02*
X136421904Y-46282380D01*
X136660000Y-46282380D01*
X136802857Y-46330000D01*
X136898095Y-46425238D01*
X136945714Y-46520476D01*
X136993333Y-46710952D01*
X136993333Y-46853809D01*
X136945714Y-47044285D01*
X136898095Y-47139523D01*
X136802857Y-47234761D01*
X136660000Y-47282380D01*
X136421904Y-47282380D01*
X137945714Y-47282380D02*
X137374285Y-47282380D01*
X137660000Y-47282380D02*
X137660000Y-46282380D01*
X137564761Y-46425238D01*
X137469523Y-46520476D01*
X137374285Y-46568095D01*
X136421904Y-67602380D02*
X136421904Y-66602380D01*
X136660000Y-66602380D01*
X136802857Y-66650000D01*
X136898095Y-66745238D01*
X136945714Y-66840476D01*
X136993333Y-67030952D01*
X136993333Y-67173809D01*
X136945714Y-67364285D01*
X136898095Y-67459523D01*
X136802857Y-67554761D01*
X136660000Y-67602380D01*
X136421904Y-67602380D01*
X137374285Y-66697619D02*
X137421904Y-66650000D01*
X137517142Y-66602380D01*
X137755238Y-66602380D01*
X137850476Y-66650000D01*
X137898095Y-66697619D01*
X137945714Y-66792857D01*
X137945714Y-66888095D01*
X137898095Y-67030952D01*
X137326666Y-67602380D01*
X137945714Y-67602380D01*
X136421904Y-62522380D02*
X136421904Y-61522380D01*
X136660000Y-61522380D01*
X136802857Y-61570000D01*
X136898095Y-61665238D01*
X136945714Y-61760476D01*
X136993333Y-61950952D01*
X136993333Y-62093809D01*
X136945714Y-62284285D01*
X136898095Y-62379523D01*
X136802857Y-62474761D01*
X136660000Y-62522380D01*
X136421904Y-62522380D01*
X137898095Y-61522380D02*
X137421904Y-61522380D01*
X137374285Y-61998571D01*
X137421904Y-61950952D01*
X137517142Y-61903333D01*
X137755238Y-61903333D01*
X137850476Y-61950952D01*
X137898095Y-61998571D01*
X137945714Y-62093809D01*
X137945714Y-62331904D01*
X137898095Y-62427142D01*
X137850476Y-62474761D01*
X137755238Y-62522380D01*
X137517142Y-62522380D01*
X137421904Y-62474761D01*
X137374285Y-62427142D01*
X142073334Y-47188380D02*
X141740001Y-46712190D01*
X141501905Y-47188380D02*
X141501905Y-46188380D01*
X141882858Y-46188380D01*
X141978096Y-46236000D01*
X142025715Y-46283619D01*
X142073334Y-46378857D01*
X142073334Y-46521714D01*
X142025715Y-46616952D01*
X141978096Y-46664571D01*
X141882858Y-46712190D01*
X141501905Y-46712190D01*
X143025715Y-47188380D02*
X142454286Y-47188380D01*
X142740001Y-47188380D02*
X142740001Y-46188380D01*
X142644762Y-46331238D01*
X142549524Y-46426476D01*
X142454286Y-46474095D01*
X142073333Y-67508379D02*
X141740000Y-67032189D01*
X141501904Y-67508379D02*
X141501904Y-66508379D01*
X141882857Y-66508379D01*
X141978095Y-66555999D01*
X142025714Y-66603618D01*
X142073333Y-66698856D01*
X142073333Y-66841713D01*
X142025714Y-66936951D01*
X141978095Y-66984570D01*
X141882857Y-67032189D01*
X141501904Y-67032189D01*
X142454285Y-66603618D02*
X142501904Y-66555999D01*
X142597142Y-66508379D01*
X142835238Y-66508379D01*
X142930476Y-66555999D01*
X142978095Y-66603618D01*
X143025714Y-66698856D01*
X143025714Y-66794094D01*
X142978095Y-66936951D01*
X142406666Y-67508379D01*
X143025714Y-67508379D01*
X142073333Y-62428381D02*
X141740000Y-61952191D01*
X141501904Y-62428381D02*
X141501904Y-61428381D01*
X141882857Y-61428381D01*
X141978095Y-61476001D01*
X142025714Y-61523620D01*
X142073333Y-61618858D01*
X142073333Y-61761715D01*
X142025714Y-61856953D01*
X141978095Y-61904572D01*
X141882857Y-61952191D01*
X141501904Y-61952191D01*
X142978095Y-61428381D02*
X142501904Y-61428381D01*
X142454285Y-61904572D01*
X142501904Y-61856953D01*
X142597142Y-61809334D01*
X142835238Y-61809334D01*
X142930476Y-61856953D01*
X142978095Y-61904572D01*
X143025714Y-61999810D01*
X143025714Y-62237905D01*
X142978095Y-62333143D01*
X142930476Y-62380762D01*
X142835238Y-62428381D01*
X142597142Y-62428381D01*
X142501904Y-62380762D01*
X142454285Y-62333143D01*
X141955831Y-57385879D02*
X141622498Y-56909689D01*
X141384402Y-57385879D02*
X141384402Y-56385879D01*
X141765355Y-56385879D01*
X141860593Y-56433499D01*
X141908212Y-56481118D01*
X141955831Y-56576356D01*
X141955831Y-56719213D01*
X141908212Y-56814451D01*
X141860593Y-56862070D01*
X141765355Y-56909689D01*
X141384402Y-56909689D01*
X142812974Y-56385879D02*
X142622498Y-56385879D01*
X142527259Y-56433499D01*
X142479640Y-56481118D01*
X142384402Y-56623975D01*
X142336783Y-56814451D01*
X142336783Y-57195403D01*
X142384402Y-57290641D01*
X142432021Y-57338260D01*
X142527259Y-57385879D01*
X142717736Y-57385879D01*
X142812974Y-57338260D01*
X142860593Y-57290641D01*
X142908212Y-57195403D01*
X142908212Y-56957308D01*
X142860593Y-56862070D01*
X142812974Y-56814451D01*
X142717736Y-56766832D01*
X142527259Y-56766832D01*
X142432021Y-56814451D01*
X142384402Y-56862070D01*
X142336783Y-56957308D01*
X141955833Y-52293380D02*
X141622500Y-51817190D01*
X141384404Y-52293380D02*
X141384404Y-51293380D01*
X141765357Y-51293380D01*
X141860595Y-51341000D01*
X141908214Y-51388619D01*
X141955833Y-51483857D01*
X141955833Y-51626714D01*
X141908214Y-51721952D01*
X141860595Y-51769571D01*
X141765357Y-51817190D01*
X141384404Y-51817190D01*
X142289166Y-51293380D02*
X142955833Y-51293380D01*
X142527261Y-52293380D01*
X90116666Y-44153379D02*
X90116666Y-44867665D01*
X90069047Y-45010522D01*
X89973809Y-45105760D01*
X89830952Y-45153379D01*
X89735714Y-45153379D01*
X90545238Y-44248618D02*
X90592857Y-44200999D01*
X90688095Y-44153379D01*
X90926190Y-44153379D01*
X91021428Y-44200999D01*
X91069047Y-44248618D01*
X91116666Y-44343856D01*
X91116666Y-44439094D01*
X91069047Y-44581951D01*
X90497619Y-45153379D01*
X91116666Y-45153379D01*
X118277380Y-52836904D02*
X119086904Y-52836904D01*
X119182142Y-52789285D01*
X119229761Y-52741666D01*
X119277380Y-52646428D01*
X119277380Y-52455952D01*
X119229761Y-52360714D01*
X119182142Y-52313095D01*
X119086904Y-52265476D01*
X118277380Y-52265476D01*
X118277380Y-51884523D02*
X118277380Y-51265476D01*
X118658333Y-51598809D01*
X118658333Y-51455952D01*
X118705952Y-51360714D01*
X118753571Y-51313095D01*
X118848809Y-51265476D01*
X119086904Y-51265476D01*
X119182142Y-51313095D01*
X119229761Y-51360714D01*
X119277380Y-51455952D01*
X119277380Y-51741666D01*
X119229761Y-51836904D01*
X119182142Y-51884523D01*
X115482142Y-75842857D02*
X115529761Y-75890476D01*
X115577380Y-76033333D01*
X115577380Y-76128571D01*
X115529761Y-76271428D01*
X115434523Y-76366666D01*
X115339285Y-76414285D01*
X115148809Y-76461904D01*
X115005952Y-76461904D01*
X114815476Y-76414285D01*
X114720238Y-76366666D01*
X114625000Y-76271428D01*
X114577380Y-76128571D01*
X114577380Y-76033333D01*
X114625000Y-75890476D01*
X114672619Y-75842857D01*
X115577380Y-74890476D02*
X115577380Y-75461904D01*
X115577380Y-75176190D02*
X114577380Y-75176190D01*
X114720238Y-75271428D01*
X114815476Y-75366666D01*
X114863095Y-75461904D01*
X114672619Y-74509523D02*
X114625000Y-74461904D01*
X114577380Y-74366666D01*
X114577380Y-74128571D01*
X114625000Y-74033333D01*
X114672619Y-73985714D01*
X114767857Y-73938095D01*
X114863095Y-73938095D01*
X115005952Y-73985714D01*
X115577380Y-74557142D01*
X115577380Y-73938095D01*
X114672969Y-58357106D02*
X114672969Y-58424450D01*
X114605625Y-58559137D01*
X114538282Y-58626480D01*
X114403595Y-58693824D01*
X114268908Y-58693824D01*
X114167893Y-58660152D01*
X113999534Y-58559137D01*
X113898519Y-58458122D01*
X113797503Y-58289763D01*
X113763832Y-58188748D01*
X113763832Y-58054061D01*
X113831175Y-57919374D01*
X113898519Y-57852030D01*
X114033206Y-57784687D01*
X114100549Y-57784687D01*
X115413748Y-57751015D02*
X115009687Y-58155076D01*
X115211717Y-57953045D02*
X114504610Y-57245938D01*
X114538282Y-57414297D01*
X114538282Y-57548984D01*
X114504610Y-57650000D01*
X115144374Y-56606175D02*
X115211717Y-56538832D01*
X115312732Y-56505160D01*
X115380076Y-56505160D01*
X115481091Y-56538832D01*
X115649450Y-56639847D01*
X115817809Y-56808206D01*
X115918824Y-56976564D01*
X115952496Y-57077580D01*
X115952496Y-57144923D01*
X115918824Y-57245938D01*
X115851480Y-57313282D01*
X115750465Y-57346954D01*
X115683122Y-57346954D01*
X115582106Y-57313282D01*
X115413748Y-57212267D01*
X115245389Y-57043908D01*
X115144374Y-56875549D01*
X115110702Y-56774534D01*
X115110702Y-56707190D01*
X115144374Y-56606175D01*
X106607142Y-76167857D02*
X106654761Y-76215476D01*
X106702380Y-76358333D01*
X106702380Y-76453571D01*
X106654761Y-76596428D01*
X106559523Y-76691666D01*
X106464285Y-76739285D01*
X106273809Y-76786904D01*
X106130952Y-76786904D01*
X105940476Y-76739285D01*
X105845238Y-76691666D01*
X105750000Y-76596428D01*
X105702380Y-76453571D01*
X105702380Y-76358333D01*
X105750000Y-76215476D01*
X105797619Y-76167857D01*
X106702380Y-75215476D02*
X106702380Y-75786904D01*
X106702380Y-75501190D02*
X105702380Y-75501190D01*
X105845238Y-75596428D01*
X105940476Y-75691666D01*
X105988095Y-75786904D01*
X106035714Y-74358333D02*
X106702380Y-74358333D01*
X105654761Y-74596428D02*
X106369047Y-74834523D01*
X106369047Y-74215476D01*
X108307142Y-76167857D02*
X108354761Y-76215476D01*
X108402380Y-76358333D01*
X108402380Y-76453571D01*
X108354761Y-76596428D01*
X108259523Y-76691666D01*
X108164285Y-76739285D01*
X107973809Y-76786904D01*
X107830952Y-76786904D01*
X107640476Y-76739285D01*
X107545238Y-76691666D01*
X107450000Y-76596428D01*
X107402380Y-76453571D01*
X107402380Y-76358333D01*
X107450000Y-76215476D01*
X107497619Y-76167857D01*
X108402380Y-75215476D02*
X108402380Y-75786904D01*
X108402380Y-75501190D02*
X107402380Y-75501190D01*
X107545238Y-75596428D01*
X107640476Y-75691666D01*
X107688095Y-75786904D01*
X107402380Y-74882142D02*
X107402380Y-74263095D01*
X107783333Y-74596428D01*
X107783333Y-74453571D01*
X107830952Y-74358333D01*
X107878571Y-74310714D01*
X107973809Y-74263095D01*
X108211904Y-74263095D01*
X108307142Y-74310714D01*
X108354761Y-74358333D01*
X108402380Y-74453571D01*
X108402380Y-74739285D01*
X108354761Y-74834523D01*
X108307142Y-74882142D01*
X108924831Y-50021393D02*
X108877212Y-50069012D01*
X108734355Y-50116631D01*
X108639117Y-50116631D01*
X108496259Y-50069012D01*
X108401021Y-49973774D01*
X108353402Y-49878536D01*
X108305783Y-49688060D01*
X108305783Y-49545203D01*
X108353402Y-49354727D01*
X108401021Y-49259489D01*
X108496259Y-49164251D01*
X108639117Y-49116631D01*
X108734355Y-49116631D01*
X108877212Y-49164251D01*
X108924831Y-49211870D01*
X109496259Y-49545203D02*
X109401021Y-49497584D01*
X109353402Y-49449965D01*
X109305783Y-49354727D01*
X109305783Y-49307108D01*
X109353402Y-49211870D01*
X109401021Y-49164251D01*
X109496259Y-49116631D01*
X109686736Y-49116631D01*
X109781974Y-49164251D01*
X109829593Y-49211870D01*
X109877212Y-49307108D01*
X109877212Y-49354727D01*
X109829593Y-49449965D01*
X109781974Y-49497584D01*
X109686736Y-49545203D01*
X109496259Y-49545203D01*
X109401021Y-49592822D01*
X109353402Y-49640441D01*
X109305783Y-49735679D01*
X109305783Y-49926155D01*
X109353402Y-50021393D01*
X109401021Y-50069012D01*
X109496259Y-50116631D01*
X109686736Y-50116631D01*
X109781974Y-50069012D01*
X109829593Y-50021393D01*
X109877212Y-49926155D01*
X109877212Y-49735679D01*
X109829593Y-49640441D01*
X109781974Y-49592822D01*
X109686736Y-49545203D01*
X120283333Y-71782142D02*
X120235714Y-71829761D01*
X120092857Y-71877380D01*
X119997619Y-71877380D01*
X119854761Y-71829761D01*
X119759523Y-71734523D01*
X119711904Y-71639285D01*
X119664285Y-71448809D01*
X119664285Y-71305952D01*
X119711904Y-71115476D01*
X119759523Y-71020238D01*
X119854761Y-70925000D01*
X119997619Y-70877380D01*
X120092857Y-70877380D01*
X120235714Y-70925000D01*
X120283333Y-70972619D01*
X120759523Y-71877380D02*
X120950000Y-71877380D01*
X121045238Y-71829761D01*
X121092857Y-71782142D01*
X121188095Y-71639285D01*
X121235714Y-71448809D01*
X121235714Y-71067857D01*
X121188095Y-70972619D01*
X121140476Y-70925000D01*
X121045238Y-70877380D01*
X120854761Y-70877380D01*
X120759523Y-70925000D01*
X120711904Y-70972619D01*
X120664285Y-71067857D01*
X120664285Y-71305952D01*
X120711904Y-71401190D01*
X120759523Y-71448809D01*
X120854761Y-71496428D01*
X121045238Y-71496428D01*
X121140476Y-71448809D01*
X121188095Y-71401190D01*
X121235714Y-71305952D01*
X113317142Y-54976666D02*
X113364761Y-55024285D01*
X113412380Y-55167142D01*
X113412380Y-55262380D01*
X113364761Y-55405238D01*
X113269523Y-55500476D01*
X113174285Y-55548095D01*
X112983809Y-55595714D01*
X112840952Y-55595714D01*
X112650476Y-55548095D01*
X112555238Y-55500476D01*
X112460000Y-55405238D01*
X112412380Y-55262380D01*
X112412380Y-55167142D01*
X112460000Y-55024285D01*
X112507619Y-54976666D01*
X112412380Y-54643333D02*
X112412380Y-53976666D01*
X113412380Y-54405238D01*
X114728095Y-68062380D02*
X114728095Y-68871904D01*
X114775714Y-68967142D01*
X114823333Y-69014761D01*
X114918571Y-69062380D01*
X115109047Y-69062380D01*
X115204285Y-69014761D01*
X115251904Y-68967142D01*
X115299523Y-68871904D01*
X115299523Y-68062380D01*
X115728095Y-68157619D02*
X115775714Y-68110000D01*
X115870952Y-68062380D01*
X116109047Y-68062380D01*
X116204285Y-68110000D01*
X116251904Y-68157619D01*
X116299523Y-68252857D01*
X116299523Y-68348095D01*
X116251904Y-68490952D01*
X115680476Y-69062380D01*
X116299523Y-69062380D01*
X111307142Y-49242857D02*
X111354761Y-49290476D01*
X111402380Y-49433333D01*
X111402380Y-49528571D01*
X111354761Y-49671428D01*
X111259523Y-49766666D01*
X111164285Y-49814285D01*
X110973809Y-49861904D01*
X110830952Y-49861904D01*
X110640476Y-49814285D01*
X110545238Y-49766666D01*
X110450000Y-49671428D01*
X110402380Y-49528571D01*
X110402380Y-49433333D01*
X110450000Y-49290476D01*
X110497619Y-49242857D01*
X111402380Y-48290476D02*
X111402380Y-48861904D01*
X111402380Y-48576190D02*
X110402380Y-48576190D01*
X110545238Y-48671428D01*
X110640476Y-48766666D01*
X110688095Y-48861904D01*
X111402380Y-47338095D02*
X111402380Y-47909523D01*
X111402380Y-47623809D02*
X110402380Y-47623809D01*
X110545238Y-47719047D01*
X110640476Y-47814285D01*
X110688095Y-47909523D01*
X37338380Y-80209333D02*
X38052666Y-80209333D01*
X38195523Y-80256952D01*
X38290761Y-80352190D01*
X38338380Y-80495047D01*
X38338380Y-80590285D01*
X38338380Y-79209333D02*
X38338380Y-79780761D01*
X38338380Y-79495047D02*
X37338380Y-79495047D01*
X37481238Y-79590285D01*
X37576476Y-79685523D01*
X37624095Y-79780761D01*
X91957142Y-74352380D02*
X91623809Y-73876190D01*
X91385714Y-74352380D02*
X91385714Y-73352380D01*
X91766666Y-73352380D01*
X91861904Y-73400000D01*
X91909523Y-73447619D01*
X91957142Y-73542857D01*
X91957142Y-73685714D01*
X91909523Y-73780952D01*
X91861904Y-73828571D01*
X91766666Y-73876190D01*
X91385714Y-73876190D01*
X92909523Y-74352380D02*
X92338095Y-74352380D01*
X92623809Y-74352380D02*
X92623809Y-73352380D01*
X92528571Y-73495238D01*
X92433333Y-73590476D01*
X92338095Y-73638095D01*
X93242857Y-73352380D02*
X93861904Y-73352380D01*
X93528571Y-73733333D01*
X93671428Y-73733333D01*
X93766666Y-73780952D01*
X93814285Y-73828571D01*
X93861904Y-73923809D01*
X93861904Y-74161904D01*
X93814285Y-74257142D01*
X93766666Y-74304761D01*
X93671428Y-74352380D01*
X93385714Y-74352380D01*
X93290476Y-74304761D01*
X93242857Y-74257142D01*
X109902380Y-80833333D02*
X110616666Y-80833333D01*
X110759523Y-80880952D01*
X110854761Y-80976190D01*
X110902380Y-81119047D01*
X110902380Y-81214285D01*
X110902380Y-80357142D02*
X109902380Y-80357142D01*
X109902380Y-79976190D01*
X109950000Y-79880952D01*
X109997619Y-79833333D01*
X110092857Y-79785714D01*
X110235714Y-79785714D01*
X110330952Y-79833333D01*
X110378571Y-79880952D01*
X110426190Y-79976190D01*
X110426190Y-80357142D01*
X110902380Y-78833333D02*
X110902380Y-79404761D01*
X110902380Y-79119047D02*
X109902380Y-79119047D01*
X110045238Y-79214285D01*
X110140476Y-79309523D01*
X110188095Y-79404761D01*
X120313095Y-46502380D02*
X120884523Y-46502380D01*
X120598809Y-47502380D02*
X120598809Y-46502380D01*
X121217857Y-47502380D02*
X121217857Y-46502380D01*
X121598809Y-46502380D01*
X121694047Y-46550000D01*
X121741666Y-46597619D01*
X121789285Y-46692857D01*
X121789285Y-46835714D01*
X121741666Y-46930952D01*
X121694047Y-46978571D01*
X121598809Y-47026190D01*
X121217857Y-47026190D01*
X122646428Y-46835714D02*
X122646428Y-47502380D01*
X122408333Y-46454761D02*
X122170238Y-47169047D01*
X122789285Y-47169047D01*
X59047142Y-74460380D02*
X58713809Y-73984190D01*
X58475714Y-74460380D02*
X58475714Y-73460380D01*
X58856666Y-73460380D01*
X58951904Y-73508000D01*
X58999523Y-73555619D01*
X59047142Y-73650857D01*
X59047142Y-73793714D01*
X58999523Y-73888952D01*
X58951904Y-73936571D01*
X58856666Y-73984190D01*
X58475714Y-73984190D01*
X59999523Y-74460380D02*
X59428095Y-74460380D01*
X59713809Y-74460380D02*
X59713809Y-73460380D01*
X59618571Y-73603238D01*
X59523333Y-73698476D01*
X59428095Y-73746095D01*
X60856666Y-73460380D02*
X60666190Y-73460380D01*
X60570952Y-73508000D01*
X60523333Y-73555619D01*
X60428095Y-73698476D01*
X60380476Y-73888952D01*
X60380476Y-74269904D01*
X60428095Y-74365142D01*
X60475714Y-74412761D01*
X60570952Y-74460380D01*
X60761428Y-74460380D01*
X60856666Y-74412761D01*
X60904285Y-74365142D01*
X60951904Y-74269904D01*
X60951904Y-74031809D01*
X60904285Y-73936571D01*
X60856666Y-73888952D01*
X60761428Y-73841333D01*
X60570952Y-73841333D01*
X60475714Y-73888952D01*
X60428095Y-73936571D01*
X60380476Y-74031809D01*
X117377380Y-77616666D02*
X116901190Y-77950000D01*
X117377380Y-78188095D02*
X116377380Y-78188095D01*
X116377380Y-77807142D01*
X116425000Y-77711904D01*
X116472619Y-77664285D01*
X116567857Y-77616666D01*
X116710714Y-77616666D01*
X116805952Y-77664285D01*
X116853571Y-77711904D01*
X116901190Y-77807142D01*
X116901190Y-78188095D01*
X116805952Y-77045238D02*
X116758333Y-77140476D01*
X116710714Y-77188095D01*
X116615476Y-77235714D01*
X116567857Y-77235714D01*
X116472619Y-77188095D01*
X116425000Y-77140476D01*
X116377380Y-77045238D01*
X116377380Y-76854761D01*
X116425000Y-76759523D01*
X116472619Y-76711904D01*
X116567857Y-76664285D01*
X116615476Y-76664285D01*
X116710714Y-76711904D01*
X116758333Y-76759523D01*
X116805952Y-76854761D01*
X116805952Y-77045238D01*
X116853571Y-77140476D01*
X116901190Y-77188095D01*
X116996428Y-77235714D01*
X117186904Y-77235714D01*
X117282142Y-77188095D01*
X117329761Y-77140476D01*
X117377380Y-77045238D01*
X117377380Y-76854761D01*
X117329761Y-76759523D01*
X117282142Y-76711904D01*
X117186904Y-76664285D01*
X116996428Y-76664285D01*
X116901190Y-76711904D01*
X116853571Y-76759523D01*
X116805952Y-76854761D01*
X120258333Y-73677380D02*
X119925000Y-73201190D01*
X119686904Y-73677380D02*
X119686904Y-72677380D01*
X120067857Y-72677380D01*
X120163095Y-72725000D01*
X120210714Y-72772619D01*
X120258333Y-72867857D01*
X120258333Y-73010714D01*
X120210714Y-73105952D01*
X120163095Y-73153571D01*
X120067857Y-73201190D01*
X119686904Y-73201190D01*
X120734523Y-73677380D02*
X120925000Y-73677380D01*
X121020238Y-73629761D01*
X121067857Y-73582142D01*
X121163095Y-73439285D01*
X121210714Y-73248809D01*
X121210714Y-72867857D01*
X121163095Y-72772619D01*
X121115476Y-72725000D01*
X121020238Y-72677380D01*
X120829761Y-72677380D01*
X120734523Y-72725000D01*
X120686904Y-72772619D01*
X120639285Y-72867857D01*
X120639285Y-73105952D01*
X120686904Y-73201190D01*
X120734523Y-73248809D01*
X120829761Y-73296428D01*
X121020238Y-73296428D01*
X121115476Y-73248809D01*
X121163095Y-73201190D01*
X121210714Y-73105952D01*
X123402380Y-56211904D02*
X123402380Y-55640476D01*
X124402380Y-55926190D02*
X123402380Y-55926190D01*
X124402380Y-55307142D02*
X123402380Y-55307142D01*
X123402380Y-54926190D01*
X123450000Y-54830952D01*
X123497619Y-54783333D01*
X123592857Y-54735714D01*
X123735714Y-54735714D01*
X123830952Y-54783333D01*
X123878571Y-54830952D01*
X123926190Y-54926190D01*
X123926190Y-55307142D01*
X123402380Y-53830952D02*
X123402380Y-54307142D01*
X123878571Y-54354761D01*
X123830952Y-54307142D01*
X123783333Y-54211904D01*
X123783333Y-53973809D01*
X123830952Y-53878571D01*
X123878571Y-53830952D01*
X123973809Y-53783333D01*
X124211904Y-53783333D01*
X124307142Y-53830952D01*
X124354761Y-53878571D01*
X124402380Y-53973809D01*
X124402380Y-54211904D01*
X124354761Y-54307142D01*
X124307142Y-54354761D01*
X102057142Y-73327380D02*
X101723809Y-72851190D01*
X101485714Y-73327380D02*
X101485714Y-72327380D01*
X101866666Y-72327380D01*
X101961904Y-72375000D01*
X102009523Y-72422619D01*
X102057142Y-72517857D01*
X102057142Y-72660714D01*
X102009523Y-72755952D01*
X101961904Y-72803571D01*
X101866666Y-72851190D01*
X101485714Y-72851190D01*
X103009523Y-73327380D02*
X102438095Y-73327380D01*
X102723809Y-73327380D02*
X102723809Y-72327380D01*
X102628571Y-72470238D01*
X102533333Y-72565476D01*
X102438095Y-72613095D01*
X103866666Y-72660714D02*
X103866666Y-73327380D01*
X103628571Y-72279761D02*
X103390476Y-72994047D01*
X104009523Y-72994047D01*
X123677380Y-59267857D02*
X123201190Y-59601190D01*
X123677380Y-59839285D02*
X122677380Y-59839285D01*
X122677380Y-59458333D01*
X122725000Y-59363095D01*
X122772619Y-59315476D01*
X122867857Y-59267857D01*
X123010714Y-59267857D01*
X123105952Y-59315476D01*
X123153571Y-59363095D01*
X123201190Y-59458333D01*
X123201190Y-59839285D01*
X123677380Y-58315476D02*
X123677380Y-58886904D01*
X123677380Y-58601190D02*
X122677380Y-58601190D01*
X122820238Y-58696428D01*
X122915476Y-58791666D01*
X122963095Y-58886904D01*
X122677380Y-57696428D02*
X122677380Y-57601190D01*
X122725000Y-57505952D01*
X122772619Y-57458333D01*
X122867857Y-57410714D01*
X123058333Y-57363095D01*
X123296428Y-57363095D01*
X123486904Y-57410714D01*
X123582142Y-57458333D01*
X123629761Y-57505952D01*
X123677380Y-57601190D01*
X123677380Y-57696428D01*
X123629761Y-57791666D01*
X123582142Y-57839285D01*
X123486904Y-57886904D01*
X123296428Y-57934523D01*
X123058333Y-57934523D01*
X122867857Y-57886904D01*
X122772619Y-57839285D01*
X122725000Y-57791666D01*
X122677380Y-57696428D01*
X59047142Y-71412380D02*
X58713809Y-70936190D01*
X58475714Y-71412380D02*
X58475714Y-70412380D01*
X58856666Y-70412380D01*
X58951904Y-70460000D01*
X58999523Y-70507619D01*
X59047142Y-70602857D01*
X59047142Y-70745714D01*
X58999523Y-70840952D01*
X58951904Y-70888571D01*
X58856666Y-70936190D01*
X58475714Y-70936190D01*
X59999523Y-71412380D02*
X59428095Y-71412380D01*
X59713809Y-71412380D02*
X59713809Y-70412380D01*
X59618571Y-70555238D01*
X59523333Y-70650476D01*
X59428095Y-70698095D01*
X60904285Y-70412380D02*
X60428095Y-70412380D01*
X60380476Y-70888571D01*
X60428095Y-70840952D01*
X60523333Y-70793333D01*
X60761428Y-70793333D01*
X60856666Y-70840952D01*
X60904285Y-70888571D01*
X60951904Y-70983809D01*
X60951904Y-71221904D01*
X60904285Y-71317142D01*
X60856666Y-71364761D01*
X60761428Y-71412380D01*
X60523333Y-71412380D01*
X60428095Y-71364761D01*
X60380476Y-71317142D01*
X86457142Y-71252380D02*
X86123809Y-70776190D01*
X85885714Y-71252380D02*
X85885714Y-70252380D01*
X86266666Y-70252380D01*
X86361904Y-70300000D01*
X86409523Y-70347619D01*
X86457142Y-70442857D01*
X86457142Y-70585714D01*
X86409523Y-70680952D01*
X86361904Y-70728571D01*
X86266666Y-70776190D01*
X85885714Y-70776190D01*
X87409523Y-71252380D02*
X86838095Y-71252380D01*
X87123809Y-71252380D02*
X87123809Y-70252380D01*
X87028571Y-70395238D01*
X86933333Y-70490476D01*
X86838095Y-70538095D01*
X87790476Y-70347619D02*
X87838095Y-70300000D01*
X87933333Y-70252380D01*
X88171428Y-70252380D01*
X88266666Y-70300000D01*
X88314285Y-70347619D01*
X88361904Y-70442857D01*
X88361904Y-70538095D01*
X88314285Y-70680952D01*
X87742857Y-71252380D01*
X88361904Y-71252380D01*
X90382333Y-68936892D02*
X90334714Y-68984511D01*
X90191857Y-69032130D01*
X90096619Y-69032130D01*
X89953761Y-68984511D01*
X89858523Y-68889273D01*
X89810904Y-68794035D01*
X89763285Y-68603559D01*
X89763285Y-68460702D01*
X89810904Y-68270226D01*
X89858523Y-68174988D01*
X89953761Y-68079750D01*
X90096619Y-68032130D01*
X90191857Y-68032130D01*
X90334714Y-68079750D01*
X90382333Y-68127369D01*
X91287095Y-68032130D02*
X90810904Y-68032130D01*
X90763285Y-68508321D01*
X90810904Y-68460702D01*
X90906142Y-68413083D01*
X91144238Y-68413083D01*
X91239476Y-68460702D01*
X91287095Y-68508321D01*
X91334714Y-68603559D01*
X91334714Y-68841654D01*
X91287095Y-68936892D01*
X91239476Y-68984511D01*
X91144238Y-69032130D01*
X90906142Y-69032130D01*
X90810904Y-68984511D01*
X90763285Y-68936892D01*
X115477380Y-66104166D02*
X115001190Y-66437500D01*
X115477380Y-66675595D02*
X114477380Y-66675595D01*
X114477380Y-66294642D01*
X114525000Y-66199404D01*
X114572619Y-66151785D01*
X114667857Y-66104166D01*
X114810714Y-66104166D01*
X114905952Y-66151785D01*
X114953571Y-66199404D01*
X115001190Y-66294642D01*
X115001190Y-66675595D01*
X114810714Y-65247023D02*
X115477380Y-65247023D01*
X114429761Y-65485119D02*
X115144047Y-65723214D01*
X115144047Y-65104166D01*
X107777380Y-65716666D02*
X107301190Y-66050000D01*
X107777380Y-66288095D02*
X106777380Y-66288095D01*
X106777380Y-65907142D01*
X106825000Y-65811904D01*
X106872619Y-65764285D01*
X106967857Y-65716666D01*
X107110714Y-65716666D01*
X107205952Y-65764285D01*
X107253571Y-65811904D01*
X107301190Y-65907142D01*
X107301190Y-66288095D01*
X106777380Y-65383333D02*
X106777380Y-64764285D01*
X107158333Y-65097619D01*
X107158333Y-64954761D01*
X107205952Y-64859523D01*
X107253571Y-64811904D01*
X107348809Y-64764285D01*
X107586904Y-64764285D01*
X107682142Y-64811904D01*
X107729761Y-64859523D01*
X107777380Y-64954761D01*
X107777380Y-65240476D01*
X107729761Y-65335714D01*
X107682142Y-65383333D01*
X124244643Y-48447380D02*
X123911310Y-47971190D01*
X123673215Y-48447380D02*
X123673215Y-47447380D01*
X124054167Y-47447380D01*
X124149405Y-47495000D01*
X124197024Y-47542619D01*
X124244643Y-47637857D01*
X124244643Y-47780714D01*
X124197024Y-47875952D01*
X124149405Y-47923571D01*
X124054167Y-47971190D01*
X123673215Y-47971190D01*
X125197024Y-48447380D02*
X124625596Y-48447380D01*
X124911310Y-48447380D02*
X124911310Y-47447380D01*
X124816072Y-47590238D01*
X124720834Y-47685476D01*
X124625596Y-47733095D01*
X126149405Y-48447380D02*
X125577977Y-48447380D01*
X125863691Y-48447380D02*
X125863691Y-47447380D01*
X125768453Y-47590238D01*
X125673215Y-47685476D01*
X125577977Y-47733095D01*
X120122380Y-81021904D02*
X120122380Y-80450476D01*
X121122380Y-80736190D02*
X120122380Y-80736190D01*
X121122380Y-80117142D02*
X120122380Y-80117142D01*
X120122380Y-79736190D01*
X120170000Y-79640952D01*
X120217619Y-79593333D01*
X120312857Y-79545714D01*
X120455714Y-79545714D01*
X120550952Y-79593333D01*
X120598571Y-79640952D01*
X120646190Y-79736190D01*
X120646190Y-80117142D01*
X120217619Y-79164761D02*
X120170000Y-79117142D01*
X120122380Y-79021904D01*
X120122380Y-78783809D01*
X120170000Y-78688571D01*
X120217619Y-78640952D01*
X120312857Y-78593333D01*
X120408095Y-78593333D01*
X120550952Y-78640952D01*
X121122380Y-79212380D01*
X121122380Y-78593333D01*
X136421904Y-57442380D02*
X136421904Y-56442380D01*
X136660000Y-56442380D01*
X136802857Y-56490000D01*
X136898095Y-56585238D01*
X136945714Y-56680476D01*
X136993333Y-56870952D01*
X136993333Y-57013809D01*
X136945714Y-57204285D01*
X136898095Y-57299523D01*
X136802857Y-57394761D01*
X136660000Y-57442380D01*
X136421904Y-57442380D01*
X137850476Y-56775714D02*
X137850476Y-57442380D01*
X137612380Y-56394761D02*
X137374285Y-57109047D01*
X137993333Y-57109047D01*
X136421904Y-52362380D02*
X136421904Y-51362380D01*
X136660000Y-51362380D01*
X136802857Y-51410000D01*
X136898095Y-51505238D01*
X136945714Y-51600476D01*
X136993333Y-51790952D01*
X136993333Y-51933809D01*
X136945714Y-52124285D01*
X136898095Y-52219523D01*
X136802857Y-52314761D01*
X136660000Y-52362380D01*
X136421904Y-52362380D01*
X137326666Y-51362380D02*
X137945714Y-51362380D01*
X137612380Y-51743333D01*
X137755238Y-51743333D01*
X137850476Y-51790952D01*
X137898095Y-51838571D01*
X137945714Y-51933809D01*
X137945714Y-52171904D01*
X137898095Y-52267142D01*
X137850476Y-52314761D01*
X137755238Y-52362380D01*
X137469523Y-52362380D01*
X137374285Y-52314761D01*
X137326666Y-52267142D01*
X100433095Y-68727380D02*
X101004523Y-68727380D01*
X100718809Y-69727380D02*
X100718809Y-68727380D01*
X101337857Y-69727380D02*
X101337857Y-68727380D01*
X101718809Y-68727380D01*
X101814047Y-68775000D01*
X101861666Y-68822619D01*
X101909285Y-68917857D01*
X101909285Y-69060714D01*
X101861666Y-69155952D01*
X101814047Y-69203571D01*
X101718809Y-69251190D01*
X101337857Y-69251190D01*
X102861666Y-69727380D02*
X102290238Y-69727380D01*
X102575952Y-69727380D02*
X102575952Y-68727380D01*
X102480714Y-68870238D01*
X102385476Y-68965476D01*
X102290238Y-69013095D01*
X94325833Y-69030892D02*
X94278214Y-69078511D01*
X94135357Y-69126130D01*
X94040119Y-69126130D01*
X93897261Y-69078511D01*
X93802023Y-68983273D01*
X93754404Y-68888035D01*
X93706785Y-68697559D01*
X93706785Y-68554702D01*
X93754404Y-68364226D01*
X93802023Y-68268988D01*
X93897261Y-68173750D01*
X94040119Y-68126130D01*
X94135357Y-68126130D01*
X94278214Y-68173750D01*
X94325833Y-68221369D01*
X95182976Y-68126130D02*
X94992500Y-68126130D01*
X94897261Y-68173750D01*
X94849642Y-68221369D01*
X94754404Y-68364226D01*
X94706785Y-68554702D01*
X94706785Y-68935654D01*
X94754404Y-69030892D01*
X94802023Y-69078511D01*
X94897261Y-69126130D01*
X95087738Y-69126130D01*
X95182976Y-69078511D01*
X95230595Y-69030892D01*
X95278214Y-68935654D01*
X95278214Y-68697559D01*
X95230595Y-68602321D01*
X95182976Y-68554702D01*
X95087738Y-68507083D01*
X94897261Y-68507083D01*
X94802023Y-68554702D01*
X94754404Y-68602321D01*
X94706785Y-68697559D01*
D10*
X67080000Y-47989000D02*
X68874000Y-47989000D01*
X63106000Y-48189000D02*
X65000000Y-48189000D01*
X63903000Y-47109000D02*
X68177000Y-47109000D01*
X62865000Y-48950000D02*
X65000000Y-48950000D01*
X62813000Y-49390000D02*
X69267000Y-49390000D01*
X63274000Y-47869000D02*
X65000000Y-47869000D01*
X64045000Y-46989000D02*
X68035000Y-46989000D01*
X64531000Y-46669000D02*
X67549000Y-46669000D01*
X64150000Y-46909000D02*
X67930000Y-46909000D01*
X67080000Y-47629000D02*
X68647000Y-47629000D01*
X62858000Y-48990000D02*
X65000000Y-48990000D01*
X62993000Y-48469000D02*
X65000000Y-48469000D01*
X65100000Y-46429000D02*
X66980000Y-46429000D01*
X67080000Y-49070000D02*
X69235000Y-49070000D01*
X64459000Y-46709000D02*
X67621000Y-46709000D01*
X64206000Y-46869000D02*
X67874000Y-46869000D01*
X67080000Y-47469000D02*
X68524000Y-47469000D01*
X63007000Y-48429000D02*
X65000000Y-48429000D01*
X63524000Y-47509000D02*
X65000000Y-47509000D01*
X67080000Y-48269000D02*
X69010000Y-48269000D01*
X67080000Y-48749000D02*
X69171000Y-48749000D01*
X67080000Y-48990000D02*
X69222000Y-48990000D01*
X63228000Y-47949000D02*
X65000000Y-47949000D01*
X67080000Y-48309000D02*
X69026000Y-48309000D01*
X62919000Y-48709000D02*
X65000000Y-48709000D01*
X63816000Y-47189000D02*
X68264000Y-47189000D01*
X63697000Y-47309000D02*
X65000000Y-47309000D01*
X63324000Y-47789000D02*
X65000000Y-47789000D01*
X67080000Y-48149000D02*
X68956000Y-48149000D01*
X63376000Y-47709000D02*
X65000000Y-47709000D01*
X67080000Y-49030000D02*
X69229000Y-49030000D01*
X63070000Y-48269000D02*
X65000000Y-48269000D01*
X67080000Y-47549000D02*
X68588000Y-47549000D01*
X63996000Y-47029000D02*
X68084000Y-47029000D01*
X63054000Y-48309000D02*
X65000000Y-48309000D01*
X62979000Y-48509000D02*
X65000000Y-48509000D01*
X67080000Y-48829000D02*
X69190000Y-48829000D01*
X63556000Y-47469000D02*
X65000000Y-47469000D01*
X63022000Y-48389000D02*
X65000000Y-48389000D01*
X62966000Y-48549000D02*
X65000000Y-48549000D01*
X64981000Y-46469000D02*
X67099000Y-46469000D01*
X62812000Y-49430000D02*
X69268000Y-49430000D01*
X67080000Y-47909000D02*
X68830000Y-47909000D01*
X67080000Y-47269000D02*
X68345000Y-47269000D01*
X62816000Y-49350000D02*
X69264000Y-49350000D01*
X63298000Y-47829000D02*
X65000000Y-47829000D01*
X63886000Y-52735241D02*
X64516000Y-52735241D01*
X62810000Y-49510000D02*
X69270000Y-49510000D01*
X63144000Y-48109000D02*
X65000000Y-48109000D01*
X62873000Y-48910000D02*
X65000000Y-48910000D01*
X63164000Y-48069000D02*
X65000000Y-48069000D01*
X67080000Y-47709000D02*
X68704000Y-47709000D01*
X63038000Y-48349000D02*
X65000000Y-48349000D01*
X67080000Y-47789000D02*
X68756000Y-47789000D01*
X67080000Y-47389000D02*
X68456000Y-47389000D01*
X62834000Y-49150000D02*
X65000000Y-49150000D01*
X65638000Y-46309000D02*
X66442000Y-46309000D01*
X63088000Y-48229000D02*
X65000000Y-48229000D01*
X63660000Y-47349000D02*
X65000000Y-47349000D01*
X64201000Y-53050241D02*
X64201000Y-52420241D01*
X62825000Y-49230000D02*
X65000000Y-49230000D01*
X64608000Y-46629000D02*
X67472000Y-46629000D01*
X62822000Y-49270000D02*
X65000000Y-49270000D01*
X65238000Y-46389000D02*
X66842000Y-46389000D01*
X62818000Y-49310000D02*
X65000000Y-49310000D01*
X67080000Y-48349000D02*
X69042000Y-48349000D01*
X63590000Y-47429000D02*
X65000000Y-47429000D01*
X67080000Y-47829000D02*
X68782000Y-47829000D01*
X67080000Y-48469000D02*
X69087000Y-48469000D01*
X63624000Y-47389000D02*
X65000000Y-47389000D01*
X67080000Y-48549000D02*
X69114000Y-48549000D01*
X67080000Y-47869000D02*
X68806000Y-47869000D01*
X63433000Y-47629000D02*
X65000000Y-47629000D01*
X64690000Y-46589000D02*
X67390000Y-46589000D01*
X67080000Y-49110000D02*
X69241000Y-49110000D01*
X63350000Y-47749000D02*
X65000000Y-47749000D01*
X62899000Y-48789000D02*
X65000000Y-48789000D01*
X67080000Y-48389000D02*
X69058000Y-48389000D01*
X67080000Y-48950000D02*
X69215000Y-48950000D01*
X63124000Y-48149000D02*
X65000000Y-48149000D01*
X67080000Y-48509000D02*
X69101000Y-48509000D01*
X67080000Y-49230000D02*
X69255000Y-49230000D01*
X67080000Y-47429000D02*
X68490000Y-47429000D01*
X63462000Y-47589000D02*
X65000000Y-47589000D01*
X64264000Y-46829000D02*
X67816000Y-46829000D01*
X63775000Y-47229000D02*
X68305000Y-47229000D01*
X67080000Y-47589000D02*
X68618000Y-47589000D01*
X67080000Y-48029000D02*
X68896000Y-48029000D01*
X67080000Y-47309000D02*
X68383000Y-47309000D01*
X67080000Y-48069000D02*
X68916000Y-48069000D01*
X62829000Y-49190000D02*
X65000000Y-49190000D01*
X62881000Y-48870000D02*
X65000000Y-48870000D01*
X63858000Y-47149000D02*
X68222000Y-47149000D01*
X62851000Y-49030000D02*
X65000000Y-49030000D01*
X67080000Y-48429000D02*
X69073000Y-48429000D01*
X63735000Y-47269000D02*
X65000000Y-47269000D01*
X67080000Y-48669000D02*
X69150000Y-48669000D01*
X65407000Y-46349000D02*
X66673000Y-46349000D01*
X67080000Y-47749000D02*
X68730000Y-47749000D01*
X67080000Y-48109000D02*
X68936000Y-48109000D01*
X67080000Y-49190000D02*
X69251000Y-49190000D01*
X62954000Y-48589000D02*
X65000000Y-48589000D01*
X67080000Y-48189000D02*
X68974000Y-48189000D01*
X63492000Y-47549000D02*
X65000000Y-47549000D01*
X63404000Y-47669000D02*
X65000000Y-47669000D01*
X63184000Y-48029000D02*
X65000000Y-48029000D01*
X67080000Y-47509000D02*
X68556000Y-47509000D01*
X67080000Y-48229000D02*
X68992000Y-48229000D01*
X67080000Y-48789000D02*
X69181000Y-48789000D01*
X67080000Y-49150000D02*
X69246000Y-49150000D01*
X64326000Y-46789000D02*
X67754000Y-46789000D01*
X62930000Y-48669000D02*
X65000000Y-48669000D01*
X62810000Y-49550000D02*
X69270000Y-49550000D01*
X67080000Y-48709000D02*
X69161000Y-48709000D01*
X67080000Y-48870000D02*
X69199000Y-48870000D01*
X63250000Y-47909000D02*
X65000000Y-47909000D01*
X64390000Y-46749000D02*
X67690000Y-46749000D01*
X67080000Y-48910000D02*
X69207000Y-48910000D01*
X67080000Y-49270000D02*
X69258000Y-49270000D01*
X67080000Y-47669000D02*
X68676000Y-47669000D01*
X62909000Y-48749000D02*
X65000000Y-48749000D01*
X63948000Y-47069000D02*
X68132000Y-47069000D01*
X62942000Y-48629000D02*
X65000000Y-48629000D01*
X67080000Y-49310000D02*
X69262000Y-49310000D01*
X62839000Y-49110000D02*
X65000000Y-49110000D01*
X67080000Y-48589000D02*
X69126000Y-48589000D01*
X62890000Y-48829000D02*
X65000000Y-48829000D01*
X67080000Y-47349000D02*
X68420000Y-47349000D01*
X67080000Y-48629000D02*
X69138000Y-48629000D01*
X62810000Y-49470000D02*
X69270000Y-49470000D01*
X63206000Y-47989000D02*
X65000000Y-47989000D01*
X67080000Y-47949000D02*
X68852000Y-47949000D01*
X64875000Y-46509000D02*
X67205000Y-46509000D01*
X64778000Y-46549000D02*
X67302000Y-46549000D01*
X64096000Y-46949000D02*
X67984000Y-46949000D01*
X62845000Y-49070000D02*
X65000000Y-49070000D01*
X69310000Y-49550000D02*
G75*
G03*
X69310000Y-49550000I-3270000J0D01*
G01*
X72766233Y-69590000D02*
X73058767Y-69590000D01*
X72766233Y-70610000D02*
X73058767Y-70610000D01*
X69496267Y-70610000D02*
X69203733Y-70610000D01*
X69496267Y-69590000D02*
X69203733Y-69590000D01*
X80555000Y-46989000D02*
X84545000Y-46989000D01*
X83590000Y-48029000D02*
X85406000Y-48029000D01*
X83590000Y-48069000D02*
X85426000Y-48069000D01*
X81491000Y-46469000D02*
X83609000Y-46469000D01*
X83590000Y-47389000D02*
X84966000Y-47389000D01*
X79320000Y-49550000D02*
X85780000Y-49550000D01*
X79328000Y-49310000D02*
X81510000Y-49310000D01*
X79548000Y-48349000D02*
X81510000Y-48349000D01*
X79532000Y-48389000D02*
X81510000Y-48389000D01*
X79368000Y-48990000D02*
X81510000Y-48990000D01*
X83590000Y-48829000D02*
X85700000Y-48829000D01*
X79654000Y-48109000D02*
X81510000Y-48109000D01*
X83590000Y-49230000D02*
X85765000Y-49230000D01*
X79452000Y-48629000D02*
X81510000Y-48629000D01*
X83590000Y-47589000D02*
X85128000Y-47589000D01*
X83590000Y-47789000D02*
X85266000Y-47789000D01*
X83590000Y-47669000D02*
X85186000Y-47669000D01*
X81200000Y-46589000D02*
X83900000Y-46589000D01*
X79760000Y-47909000D02*
X81510000Y-47909000D01*
X79476000Y-48549000D02*
X81510000Y-48549000D01*
X80170000Y-47349000D02*
X81510000Y-47349000D01*
X83590000Y-48349000D02*
X85552000Y-48349000D01*
X79503000Y-48469000D02*
X81510000Y-48469000D01*
X79914000Y-47669000D02*
X81510000Y-47669000D01*
X80660000Y-46909000D02*
X84440000Y-46909000D01*
X83590000Y-48149000D02*
X85466000Y-48149000D01*
X83590000Y-48189000D02*
X85484000Y-48189000D01*
X79332000Y-49270000D02*
X81510000Y-49270000D01*
X83590000Y-48910000D02*
X85717000Y-48910000D01*
X80458000Y-47069000D02*
X84642000Y-47069000D01*
X83590000Y-48429000D02*
X85583000Y-48429000D01*
X79344000Y-49150000D02*
X81510000Y-49150000D01*
X83590000Y-48509000D02*
X85611000Y-48509000D01*
X79886000Y-47709000D02*
X81510000Y-47709000D01*
X83590000Y-49190000D02*
X85761000Y-49190000D01*
X83590000Y-48109000D02*
X85446000Y-48109000D01*
X80134000Y-47389000D02*
X81510000Y-47389000D01*
X83590000Y-47349000D02*
X84930000Y-47349000D01*
X79943000Y-47629000D02*
X81510000Y-47629000D01*
X80002000Y-47549000D02*
X81510000Y-47549000D01*
X83590000Y-47989000D02*
X85384000Y-47989000D01*
X83590000Y-47629000D02*
X85157000Y-47629000D01*
X83590000Y-47509000D02*
X85066000Y-47509000D01*
X83590000Y-47469000D02*
X85034000Y-47469000D01*
X79383000Y-48910000D02*
X81510000Y-48910000D01*
X83590000Y-48469000D02*
X85597000Y-48469000D01*
X83590000Y-47869000D02*
X85316000Y-47869000D01*
X80900000Y-46749000D02*
X84200000Y-46749000D01*
X79322000Y-49430000D02*
X85778000Y-49430000D01*
X79339000Y-49190000D02*
X81510000Y-49190000D01*
X79355000Y-49070000D02*
X81510000Y-49070000D01*
X83590000Y-47749000D02*
X85240000Y-47749000D01*
X79320000Y-49470000D02*
X85780000Y-49470000D01*
X79375000Y-48950000D02*
X81510000Y-48950000D01*
X83590000Y-47429000D02*
X85000000Y-47429000D01*
X81118000Y-46629000D02*
X83982000Y-46629000D01*
X82148000Y-46309000D02*
X82952000Y-46309000D01*
X79860000Y-47749000D02*
X81510000Y-47749000D01*
X79489000Y-48509000D02*
X81510000Y-48509000D01*
X80774000Y-46829000D02*
X84326000Y-46829000D01*
X79784000Y-47869000D02*
X81510000Y-47869000D01*
X83590000Y-48669000D02*
X85660000Y-48669000D01*
X80836000Y-46789000D02*
X84264000Y-46789000D01*
X79716000Y-47989000D02*
X81510000Y-47989000D01*
X83590000Y-48629000D02*
X85648000Y-48629000D01*
X83590000Y-49070000D02*
X85745000Y-49070000D01*
X83590000Y-49030000D02*
X85739000Y-49030000D01*
X79349000Y-49110000D02*
X81510000Y-49110000D01*
X79409000Y-48789000D02*
X81510000Y-48789000D01*
X83590000Y-47829000D02*
X85292000Y-47829000D01*
X79419000Y-48749000D02*
X81510000Y-48749000D01*
X83590000Y-49310000D02*
X85772000Y-49310000D01*
X80413000Y-47109000D02*
X84687000Y-47109000D01*
X79738000Y-47949000D02*
X81510000Y-47949000D01*
X83590000Y-47309000D02*
X84893000Y-47309000D01*
X79634000Y-48149000D02*
X81510000Y-48149000D01*
X83590000Y-48549000D02*
X85624000Y-48549000D01*
X83590000Y-48589000D02*
X85636000Y-48589000D01*
X80506000Y-47029000D02*
X84594000Y-47029000D01*
X80066000Y-47469000D02*
X81510000Y-47469000D01*
X79694000Y-48029000D02*
X81510000Y-48029000D01*
X81748000Y-46389000D02*
X83352000Y-46389000D01*
X83590000Y-49110000D02*
X85751000Y-49110000D01*
X79320000Y-49510000D02*
X85780000Y-49510000D01*
X83590000Y-48870000D02*
X85709000Y-48870000D01*
X80207000Y-47309000D02*
X81510000Y-47309000D01*
X79326000Y-49350000D02*
X85774000Y-49350000D01*
X81288000Y-46549000D02*
X83812000Y-46549000D01*
X83590000Y-47549000D02*
X85098000Y-47549000D01*
X79834000Y-47789000D02*
X81510000Y-47789000D01*
X83590000Y-47949000D02*
X85362000Y-47949000D01*
X83590000Y-48709000D02*
X85671000Y-48709000D01*
X81385000Y-46509000D02*
X83715000Y-46509000D01*
X79361000Y-49030000D02*
X81510000Y-49030000D01*
X79440000Y-48669000D02*
X81510000Y-48669000D01*
X83590000Y-48389000D02*
X85568000Y-48389000D01*
X80245000Y-47269000D02*
X81510000Y-47269000D01*
X81917000Y-46349000D02*
X83183000Y-46349000D01*
X81041000Y-46669000D02*
X84059000Y-46669000D01*
X79616000Y-48189000D02*
X81510000Y-48189000D01*
X83590000Y-48229000D02*
X85502000Y-48229000D01*
X79391000Y-48870000D02*
X81510000Y-48870000D01*
X83590000Y-47709000D02*
X85214000Y-47709000D01*
X80326000Y-47189000D02*
X84774000Y-47189000D01*
X83590000Y-47909000D02*
X85340000Y-47909000D01*
X80368000Y-47149000D02*
X84732000Y-47149000D01*
X83590000Y-48950000D02*
X85725000Y-48950000D01*
X83590000Y-48990000D02*
X85732000Y-48990000D01*
X83590000Y-48269000D02*
X85520000Y-48269000D01*
X79323000Y-49390000D02*
X85777000Y-49390000D01*
X79674000Y-48069000D02*
X81510000Y-48069000D01*
X79972000Y-47589000D02*
X81510000Y-47589000D01*
X80606000Y-46949000D02*
X84494000Y-46949000D01*
X83590000Y-48309000D02*
X85536000Y-48309000D01*
X83590000Y-49270000D02*
X85768000Y-49270000D01*
X79564000Y-48309000D02*
X81510000Y-48309000D01*
X80100000Y-47429000D02*
X81510000Y-47429000D01*
X79580000Y-48269000D02*
X81510000Y-48269000D01*
X79464000Y-48589000D02*
X81510000Y-48589000D01*
X79429000Y-48709000D02*
X81510000Y-48709000D01*
X81610000Y-46429000D02*
X83490000Y-46429000D01*
X83590000Y-48749000D02*
X85681000Y-48749000D01*
X80034000Y-47509000D02*
X81510000Y-47509000D01*
X79400000Y-48829000D02*
X81510000Y-48829000D01*
X80711000Y-53050241D02*
X80711000Y-52420241D01*
X80969000Y-46709000D02*
X84131000Y-46709000D01*
X83590000Y-48789000D02*
X85691000Y-48789000D01*
X80716000Y-46869000D02*
X84384000Y-46869000D01*
X79598000Y-48229000D02*
X81510000Y-48229000D01*
X79808000Y-47829000D02*
X81510000Y-47829000D01*
X79335000Y-49230000D02*
X81510000Y-49230000D01*
X83590000Y-47269000D02*
X84855000Y-47269000D01*
X80285000Y-47229000D02*
X84815000Y-47229000D01*
X83590000Y-49150000D02*
X85756000Y-49150000D01*
X80396000Y-52735241D02*
X81026000Y-52735241D01*
X79517000Y-48429000D02*
X81510000Y-48429000D01*
X85820000Y-49550000D02*
G75*
G03*
X85820000Y-49550000I-3270000J0D01*
G01*
D13*
X46818600Y-44089000D02*
X46818600Y-59837000D01*
X34499600Y-44089000D02*
X33407400Y-44089000D01*
X34525000Y-51963000D02*
X33382000Y-51963000D01*
X22180600Y-44089000D02*
X22180600Y-59837000D01*
X32239000Y-49677000D02*
X32239000Y-50820000D01*
X29927600Y-59837000D02*
X31096000Y-59837000D01*
X29953000Y-59837000D02*
X22206000Y-59837000D01*
X32239000Y-57525600D02*
X32239000Y-58694000D01*
X32239000Y-54249000D02*
X32239000Y-53106000D01*
X34525000Y-44089000D02*
X46818600Y-44089000D01*
X31096000Y-44089000D02*
X29876800Y-44089000D01*
X32239000Y-45232000D02*
X32239000Y-46400400D01*
X22206000Y-44089000D02*
X29953000Y-44089000D01*
X32239000Y-49677000D02*
X32239000Y-46400400D01*
X34550400Y-59837000D02*
X33356600Y-59837000D01*
X34525000Y-51963000D02*
X46818600Y-51963000D01*
X32239000Y-54249000D02*
X32239000Y-57551000D01*
X22206000Y-51937600D02*
X31096000Y-51937600D01*
X34525000Y-59837000D02*
X46818600Y-59837000D01*
X33356600Y-59837000D02*
G75*
G03*
X32239000Y-58719400I-1117598J2D01*
G01*
X32239000Y-45232000D02*
G75*
G03*
X33382000Y-44089000I0J1143000D01*
G01*
X32239000Y-58719400D02*
G75*
G03*
X31121400Y-59837000I-2J-1117598D01*
G01*
X31096000Y-44089000D02*
G75*
G03*
X32239000Y-45232000I1143000J0D01*
G01*
X33382000Y-51963000D02*
G75*
G03*
X33382000Y-51963000I-1143000J0D01*
G01*
D10*
X135500000Y-47525000D02*
X135500000Y-48995000D01*
X135500000Y-48995000D02*
X137960000Y-48995000D01*
X137960000Y-47525000D02*
X135500000Y-47525000D01*
X135500000Y-67845000D02*
X135500000Y-69315000D01*
X137960000Y-67845000D02*
X135500000Y-67845000D01*
X135500000Y-69315000D02*
X137960000Y-69315000D01*
X135500000Y-62765000D02*
X135500000Y-64235000D01*
X137960000Y-62765000D02*
X135500000Y-62765000D01*
X135500000Y-64235000D02*
X137960000Y-64235000D01*
X142494725Y-48782500D02*
X141985277Y-48782500D01*
X142494725Y-47737500D02*
X141985277Y-47737500D01*
X142494724Y-69102499D02*
X141985276Y-69102499D01*
X142494724Y-68057499D02*
X141985276Y-68057499D01*
X142494724Y-62977501D02*
X141985276Y-62977501D01*
X142494724Y-64022501D02*
X141985276Y-64022501D01*
X142377222Y-57934999D02*
X141867774Y-57934999D01*
X142377222Y-58979999D02*
X141867774Y-58979999D01*
X142377224Y-53887500D02*
X141867776Y-53887500D01*
X142377224Y-52842500D02*
X141867776Y-52842500D01*
D13*
X55880000Y-55880000D02*
X72390000Y-55880000D01*
X72390000Y-66040000D02*
X55880000Y-66040000D01*
X60960000Y-66040000D02*
X58420000Y-63500000D01*
X55880000Y-55880000D02*
X55880000Y-66040000D01*
X72390000Y-55880000D02*
X72390000Y-66040000D01*
X58420000Y-63500000D02*
X58420000Y-58420000D01*
X68580000Y-63500000D02*
X66040000Y-66040000D01*
X68580000Y-58420000D02*
X68580000Y-63500000D01*
X66040000Y-66040000D02*
X60960000Y-66040000D01*
X60960000Y-55880000D02*
X66040000Y-55880000D01*
X66040000Y-55880000D02*
X68580000Y-58420000D01*
X58420000Y-58420000D02*
X60960000Y-55880000D01*
X90170000Y-58420000D02*
X90170000Y-63500000D01*
X80010000Y-58420000D02*
X82550000Y-55880000D01*
X87630000Y-55880000D02*
X90170000Y-58420000D01*
X93980000Y-55880000D02*
X93980000Y-66040000D01*
X80010000Y-63500000D02*
X80010000Y-58420000D01*
X77470000Y-55880000D02*
X93980000Y-55880000D01*
X77470000Y-55880000D02*
X77470000Y-66040000D01*
X93980000Y-66040000D02*
X77470000Y-66040000D01*
X87630000Y-66040000D02*
X82550000Y-66040000D01*
X82550000Y-55880000D02*
X87630000Y-55880000D01*
X90170000Y-63500000D02*
X87630000Y-66040000D01*
X82550000Y-66040000D02*
X80010000Y-63500000D01*
D17*
X114589999Y-50550000D02*
X114589999Y-51110000D01*
X114589999Y-53650000D02*
X114589999Y-53090000D01*
X117689999Y-50550000D02*
X117689999Y-51110000D01*
X117689999Y-53650000D02*
X117689999Y-53090000D01*
D10*
X113985000Y-75866233D02*
X113985000Y-76158767D01*
X112965000Y-75866233D02*
X112965000Y-76158767D01*
X114239051Y-56832198D02*
X114032198Y-57039051D01*
X113517802Y-56110949D02*
X113310949Y-56317802D01*
X109959999Y-75391233D02*
X109959999Y-75683767D01*
X108939999Y-75391233D02*
X108939999Y-75683767D01*
X111585000Y-75391233D02*
X111585000Y-75683767D01*
X110565000Y-75391233D02*
X110565000Y-75683767D01*
X111368767Y-52334250D02*
X111076233Y-52334250D01*
X111368767Y-51314250D02*
X111076233Y-51314250D01*
X116703733Y-71916249D02*
X116996267Y-71916249D01*
X116703733Y-70896249D02*
X116996267Y-70896249D01*
X112020000Y-54676233D02*
X112020000Y-54968767D01*
X111000000Y-54676233D02*
X111000000Y-54968767D01*
X113438900Y-72082650D02*
X113438900Y-71719515D01*
X110449235Y-68729850D02*
X110086100Y-68729850D01*
X110086100Y-68729850D02*
X110086100Y-69092985D01*
X113438900Y-68729850D02*
X113075765Y-68729850D01*
X113438900Y-69092985D02*
X113438900Y-68729850D01*
X110086100Y-72082650D02*
X110449235Y-72082650D01*
X110086100Y-71719515D02*
X110086100Y-72082650D01*
X113075765Y-72082650D02*
X113438900Y-72082650D01*
G36*
X112552999Y-68742550D02*
G01*
X112171999Y-68742550D01*
X112171999Y-68488550D01*
X112552999Y-68488550D01*
X112552999Y-68742550D01*
G37*
D16*
X112552999Y-68742550D02*
X112171999Y-68742550D01*
X112171999Y-68488550D01*
X112552999Y-68488550D01*
X112552999Y-68742550D01*
G36*
X112153000Y-72323950D02*
G01*
X111772000Y-72323950D01*
X111772000Y-72069950D01*
X112153000Y-72069950D01*
X112153000Y-72323950D01*
G37*
X112153000Y-72323950D02*
X111772000Y-72323950D01*
X111772000Y-72069950D01*
X112153000Y-72069950D01*
X112153000Y-72323950D01*
D10*
X111839999Y-49208767D02*
X111839999Y-48916233D01*
X112859999Y-49208767D02*
X112859999Y-48916233D01*
X38976000Y-69941000D02*
X39976000Y-68941000D01*
X49096000Y-68941000D02*
X49096000Y-71724233D01*
X49096000Y-74724233D02*
X49096000Y-73027767D01*
X49096000Y-90811000D02*
X39976000Y-90811000D01*
X49096000Y-80724233D02*
X49096000Y-79027767D01*
X38976000Y-89811000D02*
X38976000Y-69941000D01*
X49096000Y-83724233D02*
X49096000Y-82027767D01*
X39976000Y-68941000D02*
X49096000Y-68941000D01*
X49096000Y-86366000D02*
X49096000Y-85027767D01*
X39976000Y-90811000D02*
X38976000Y-89811000D01*
X49096000Y-77724233D02*
X49096000Y-76027767D01*
X49096000Y-90811000D02*
X49096000Y-88386000D01*
X91145276Y-74877500D02*
X91654724Y-74877500D01*
X91145276Y-75922500D02*
X91654724Y-75922500D01*
X111950000Y-78600000D02*
X112550000Y-78600000D01*
X112550000Y-81400000D02*
X111950000Y-81400000D01*
X111250000Y-80700000D02*
X111250000Y-79300000D01*
X113250000Y-79300000D02*
X113250000Y-80700000D01*
X113250000Y-79300000D02*
G75*
G03*
X112550000Y-78600000I-700000J0D01*
G01*
X111250000Y-80700000D02*
G75*
G03*
X111950000Y-81400000I699999J-1D01*
G01*
X111950000Y-78600000D02*
G75*
G03*
X111250000Y-79300000I0J-700000D01*
G01*
X112550000Y-81400000D02*
G75*
G03*
X113250000Y-80700000I1J699999D01*
G01*
X122751001Y-49410000D02*
G75*
G03*
X122751001Y-49410000I-1200000J0D01*
G01*
X59435276Y-74915500D02*
X59944724Y-74915500D01*
X59435276Y-75960500D02*
X59944724Y-75960500D01*
X115710000Y-78014026D02*
X115710000Y-78523474D01*
X114665000Y-78014026D02*
X114665000Y-78523474D01*
X68670000Y-54670000D02*
X68670000Y-57000000D01*
X71120000Y-54670000D02*
X68670000Y-54670000D01*
X76850000Y-66940000D02*
X69000000Y-66940000D01*
X76850000Y-55000000D02*
X76850000Y-66940000D01*
X69000000Y-55000000D02*
X76850000Y-55000000D01*
X69000000Y-66940000D02*
X69000000Y-55000000D01*
X116607776Y-73778750D02*
X117117224Y-73778750D01*
X116607776Y-72733750D02*
X117117224Y-72733750D01*
X122751001Y-54947501D02*
G75*
G03*
X122751001Y-54947501I-1200000J0D01*
G01*
X106317224Y-71802500D02*
X105807776Y-71802500D01*
X106317224Y-72847500D02*
X105807776Y-72847500D01*
X122073501Y-58080276D02*
X122073501Y-58589724D01*
X121028501Y-58080276D02*
X121028501Y-58589724D01*
X59435276Y-72912500D02*
X59944724Y-72912500D01*
X59435276Y-71867500D02*
X59944724Y-71867500D01*
G36*
X91424726Y-91494923D02*
G01*
X91432207Y-91392083D01*
X91450870Y-91326375D01*
X91458088Y-91318211D01*
X91488621Y-91269239D01*
X91514596Y-91181863D01*
X91550666Y-91092578D01*
X91613620Y-91066133D01*
X91692397Y-91045307D01*
X91794991Y-90993454D01*
X91824136Y-90974765D01*
X91960673Y-90906958D01*
X92170958Y-90838095D01*
X92452143Y-90769044D01*
X92595115Y-90739318D01*
X92649346Y-90702905D01*
X92710803Y-90628251D01*
X92764088Y-90540145D01*
X92793805Y-90463374D01*
X92789658Y-90426139D01*
X92791500Y-90383075D01*
X92818301Y-90298867D01*
X92826976Y-90277317D01*
X92863646Y-90126217D01*
X92836719Y-90008516D01*
X92748210Y-89931174D01*
X92723769Y-89921326D01*
X92634836Y-89869383D01*
X92618800Y-89809853D01*
X92674759Y-89755747D01*
X92736867Y-89732755D01*
X92861377Y-89699750D01*
X92852677Y-89377286D01*
X92844253Y-89218439D01*
X92829580Y-89082082D01*
X92811427Y-88991949D01*
X92806085Y-88978200D01*
X92736833Y-88830146D01*
X92671252Y-88676231D01*
X92617208Y-88536502D01*
X92582566Y-88431008D01*
X92574047Y-88386784D01*
X92538465Y-88296181D01*
X92438252Y-88194498D01*
X92283207Y-88088849D01*
X92083130Y-87986347D01*
X91941920Y-87927935D01*
X91808383Y-87876752D01*
X91694604Y-87832399D01*
X91635435Y-87808658D01*
X91307185Y-87707523D01*
X90973788Y-87671246D01*
X90649787Y-87699715D01*
X90349725Y-87792820D01*
X90294560Y-87818839D01*
X90188744Y-87879112D01*
X90055378Y-87965109D01*
X89911491Y-88064562D01*
X89774114Y-88165206D01*
X89660277Y-88254772D01*
X89587009Y-88320996D01*
X89572321Y-88339074D01*
X89507347Y-88396143D01*
X89404587Y-88446545D01*
X89297828Y-88477031D01*
X89224001Y-88475681D01*
X89174682Y-88438539D01*
X89167058Y-88398532D01*
X89197513Y-88384384D01*
X89243689Y-88360737D01*
X89321786Y-88301034D01*
X89360334Y-88267571D01*
X89477286Y-88169867D01*
X89632183Y-88050841D01*
X89806030Y-87924001D01*
X89979836Y-87802850D01*
X90134606Y-87700895D01*
X90251349Y-87631640D01*
X90263481Y-87625371D01*
X90465924Y-87550065D01*
X90713658Y-87498124D01*
X90977715Y-87474020D01*
X91205720Y-87479858D01*
X91346031Y-87496865D01*
X91457466Y-87517643D01*
X91516703Y-87537804D01*
X91517653Y-87538532D01*
X91575517Y-87567492D01*
X91680318Y-87606159D01*
X91763975Y-87632548D01*
X91926954Y-87687791D01*
X92099670Y-87757950D01*
X92262750Y-87833853D01*
X92396821Y-87906325D01*
X92482507Y-87966192D01*
X92494334Y-87978396D01*
X92556213Y-88028915D01*
X92590726Y-88039587D01*
X92644142Y-88065250D01*
X92721170Y-88129189D01*
X92744826Y-88152829D01*
X92836498Y-88229125D01*
X92968245Y-88316065D01*
X93097063Y-88387279D01*
X93241544Y-88453808D01*
X93354333Y-88487783D01*
X93469061Y-88496688D01*
X93567883Y-88492060D01*
X93702170Y-88475686D01*
X93813731Y-88441218D01*
X93932409Y-88376877D01*
X94036917Y-88306905D01*
X94158593Y-88220679D01*
X94257908Y-88147792D01*
X94315928Y-88102185D01*
X94320003Y-88098459D01*
X94371956Y-88054876D01*
X94463030Y-87983926D01*
X94541741Y-87924655D01*
X94683497Y-87818835D01*
X94837314Y-87703172D01*
X94902874Y-87653569D01*
X95025906Y-87565175D01*
X95167765Y-87470784D01*
X95311872Y-87380491D01*
X95441646Y-87304395D01*
X95540508Y-87252590D01*
X95590141Y-87235063D01*
X95646874Y-87219191D01*
X95736533Y-87180401D01*
X95748300Y-87174616D01*
X95847637Y-87140348D01*
X95982532Y-87113054D01*
X96131797Y-87094510D01*
X96274242Y-87086492D01*
X96388678Y-87090776D01*
X96453915Y-87109138D01*
X96459420Y-87115011D01*
X96516817Y-87152387D01*
X96555931Y-87158441D01*
X96639210Y-87186174D01*
X96671655Y-87213934D01*
X96686317Y-87242248D01*
X96661748Y-87255862D01*
X96585483Y-87256670D01*
X96452729Y-87247212D01*
X96165964Y-87255222D01*
X95872311Y-87328821D01*
X95563869Y-87470442D01*
X95391278Y-87574184D01*
X95285335Y-87642433D01*
X95198434Y-87698101D01*
X95174720Y-87713164D01*
X95124682Y-87748056D01*
X95024536Y-87820434D01*
X94885622Y-87922013D01*
X94719278Y-88044507D01*
X94570671Y-88154520D01*
X94329512Y-88333269D01*
X94140645Y-88471673D01*
X93994732Y-88574917D01*
X93882437Y-88648186D01*
X93794424Y-88696663D01*
X93721356Y-88725534D01*
X93653896Y-88739983D01*
X93582709Y-88745194D01*
X93504997Y-88746294D01*
X93357549Y-88739577D01*
X93253383Y-88718811D01*
X93219582Y-88700447D01*
X93149382Y-88658335D01*
X93118226Y-88652559D01*
X93052667Y-88631603D01*
X92963690Y-88580438D01*
X92953490Y-88573329D01*
X92875459Y-88527294D01*
X92846178Y-88537013D01*
X92864516Y-88604653D01*
X92899452Y-88676913D01*
X92940849Y-88782864D01*
X92956918Y-88872845D01*
X92969813Y-88940156D01*
X92990860Y-88959044D01*
X93010368Y-88993945D01*
X93031071Y-89085220D01*
X93050136Y-89212727D01*
X93064730Y-89356325D01*
X93072022Y-89495872D01*
X93072337Y-89538396D01*
X93088239Y-89634321D01*
X93144671Y-89692951D01*
X93252218Y-89719341D01*
X93421460Y-89718542D01*
X93446122Y-89716881D01*
X93726588Y-89668372D01*
X93923687Y-89597728D01*
X94087860Y-89535021D01*
X94196588Y-89523311D01*
X94251655Y-89562649D01*
X94259718Y-89607103D01*
X94241672Y-89684800D01*
X94180521Y-89753080D01*
X94065740Y-89819906D01*
X93886809Y-89893240D01*
X93876611Y-89896992D01*
X93560346Y-89984697D01*
X93343197Y-90007456D01*
X93216220Y-90012399D01*
X93134351Y-90030557D01*
X93083772Y-90076570D01*
X93050662Y-90165077D01*
X93021200Y-90310719D01*
X93012854Y-90357385D01*
X92987595Y-90478154D01*
X92955814Y-90606405D01*
X92927920Y-90718205D01*
X92929273Y-90775076D01*
X92968425Y-90795865D01*
X93043353Y-90799304D01*
X93147171Y-90808644D01*
X93290892Y-90831543D01*
X93416882Y-90857258D01*
X93726836Y-90922052D01*
X93981185Y-90958804D01*
X94196504Y-90965182D01*
X94389368Y-90938851D01*
X94576354Y-90877478D01*
X94774036Y-90778728D01*
X94998989Y-90640267D01*
X95010277Y-90632897D01*
X95187512Y-90511322D01*
X95365250Y-90379856D01*
X95519187Y-90256936D01*
X95600593Y-90185070D01*
X95767464Y-90038429D01*
X95905752Y-89940074D01*
X96008703Y-89894208D01*
X96061447Y-89898352D01*
X96090110Y-89945282D01*
X96097695Y-90012894D01*
X96082726Y-90063192D01*
X96068113Y-90070055D01*
X96007719Y-90097360D01*
X95901562Y-90176096D01*
X95755958Y-90301492D01*
X95728066Y-90326807D01*
X95645669Y-90416861D01*
X95618554Y-90482505D01*
X95622631Y-90496138D01*
X95626781Y-90526789D01*
X95588735Y-90518730D01*
X95520792Y-90522517D01*
X95496252Y-90545340D01*
X95443614Y-90596278D01*
X95354881Y-90652938D01*
X95344425Y-90658408D01*
X95241825Y-90721917D01*
X95185535Y-90779814D01*
X95184968Y-90816522D01*
X95230491Y-90815390D01*
X95335389Y-90790986D01*
X95487291Y-90746923D01*
X95673824Y-90686820D01*
X95882616Y-90614292D01*
X95907079Y-90605468D01*
X96061581Y-90550676D01*
X96211862Y-90500327D01*
X96376011Y-90448797D01*
X96572116Y-90390464D01*
X96818265Y-90319707D01*
X96911854Y-90293154D01*
X97051572Y-90268107D01*
X97130274Y-90289358D01*
X97148011Y-90356927D01*
X97143594Y-90378559D01*
X97138093Y-90438577D01*
X97178159Y-90444777D01*
X97194456Y-90440411D01*
X97357296Y-90402562D01*
X97507728Y-90385420D01*
X97617894Y-90391926D01*
X97627730Y-90394639D01*
X97689016Y-90439436D01*
X97707492Y-90502237D01*
X97681893Y-90553987D01*
X97635280Y-90568094D01*
X97566612Y-90605103D01*
X97493390Y-90716985D01*
X97479453Y-90745571D01*
X97428776Y-90866800D01*
X97415958Y-90936218D01*
X97442847Y-90952730D01*
X97511294Y-90915240D01*
X97623150Y-90822650D01*
X97780263Y-90673866D01*
X97984484Y-90467789D01*
X98033323Y-90417345D01*
X98303074Y-90167682D01*
X98566544Y-89987637D01*
X98833694Y-89871952D01*
X99114488Y-89815363D01*
X99183424Y-89810078D01*
X99336390Y-89802841D01*
X99431321Y-89804700D01*
X99486656Y-89820004D01*
X99520836Y-89853100D01*
X99545401Y-89895424D01*
X99572278Y-89951652D01*
X99580801Y-90003006D01*
X99567868Y-90069798D01*
X99530377Y-90172342D01*
X99486898Y-90278603D01*
X99473549Y-90320883D01*
X99492485Y-90325400D01*
X99556946Y-90290472D01*
X99599727Y-90264288D01*
X99818469Y-90140509D01*
X99998659Y-90065736D01*
X100155337Y-90034212D01*
X100205605Y-90032321D01*
X100359230Y-90047094D01*
X100515164Y-90084751D01*
X100644412Y-90136799D01*
X100704810Y-90178556D01*
X100771305Y-90218601D01*
X100797184Y-90223298D01*
X100855220Y-90251640D01*
X100894876Y-90294214D01*
X100964538Y-90361820D01*
X101059869Y-90423326D01*
X101177096Y-90453090D01*
X101342837Y-90457556D01*
X101534157Y-90439095D01*
X101728118Y-90400082D01*
X101901785Y-90342889D01*
X101921860Y-90334159D01*
X102068437Y-90268086D01*
X102220895Y-90199263D01*
X102258103Y-90182447D01*
X102367707Y-90137863D01*
X102453861Y-90111462D01*
X102476200Y-90108366D01*
X102543298Y-90090144D01*
X102638753Y-90045263D01*
X102657151Y-90034910D01*
X102817403Y-89964737D01*
X103035203Y-89901348D01*
X103291570Y-89847767D01*
X103567523Y-89807020D01*
X103844082Y-89782129D01*
X104102265Y-89776120D01*
X104239658Y-89782769D01*
X104447072Y-89806542D01*
X104656225Y-89841690D01*
X104845656Y-89883678D01*
X104993906Y-89927972D01*
X105057519Y-89955576D01*
X105191324Y-90020821D01*
X105372379Y-90098422D01*
X105574690Y-90178256D01*
X105772258Y-90250198D01*
X105939087Y-90304123D01*
X105984747Y-90316698D01*
X106174809Y-90350833D01*
X106410383Y-90371580D01*
X106661306Y-90377566D01*
X106897416Y-90367413D01*
X106959718Y-90361148D01*
X107061996Y-90349065D01*
X107203270Y-90332245D01*
X107304514Y-90320134D01*
X107448495Y-90297540D01*
X107633919Y-90261086D01*
X107828376Y-90217324D01*
X107896600Y-90200471D01*
X108061725Y-90160516D01*
X108205930Y-90129305D01*
X108308346Y-90111181D01*
X108339089Y-90108366D01*
X108421710Y-90092977D01*
X108455751Y-90073566D01*
X108506242Y-90052528D01*
X108615244Y-90022150D01*
X108765874Y-89986765D01*
X108913564Y-89956078D01*
X109110527Y-89916477D01*
X109304061Y-89875932D01*
X109467214Y-89840166D01*
X109545691Y-89821829D01*
X109678943Y-89792360D01*
X109857881Y-89756975D01*
X110052476Y-89721496D01*
X110139507Y-89706660D01*
X110312991Y-89676070D01*
X110467000Y-89645694D01*
X110579835Y-89619970D01*
X110618391Y-89608741D01*
X110717352Y-89582722D01*
X110847078Y-89559781D01*
X110886566Y-89554714D01*
X111263821Y-89511637D01*
X111574702Y-89476457D01*
X111828955Y-89448322D01*
X112036328Y-89426378D01*
X112206566Y-89409774D01*
X112349416Y-89397658D01*
X112474625Y-89389176D01*
X112591939Y-89383477D01*
X112711103Y-89379708D01*
X112841866Y-89377016D01*
X112936189Y-89375465D01*
X113227600Y-89375262D01*
X113499406Y-89383440D01*
X113738084Y-89399058D01*
X113930113Y-89421174D01*
X114061969Y-89448845D01*
X114080501Y-89455179D01*
X114188825Y-89485888D01*
X114269980Y-89496694D01*
X114356373Y-89513922D01*
X114470420Y-89555381D01*
X114506928Y-89572016D01*
X114611307Y-89617792D01*
X114690896Y-89644582D01*
X114708059Y-89647337D01*
X114751520Y-89671056D01*
X114745393Y-89710526D01*
X114706530Y-89725259D01*
X114644662Y-89716079D01*
X114535507Y-89692321D01*
X114434959Y-89667395D01*
X114343343Y-89644744D01*
X114254631Y-89626597D01*
X114154431Y-89611194D01*
X114028350Y-89596773D01*
X113861998Y-89581572D01*
X113640981Y-89563830D01*
X113501607Y-89553162D01*
X113384300Y-89550920D01*
X113205070Y-89555847D01*
X112978172Y-89566857D01*
X112717858Y-89582861D01*
X112438380Y-89602771D01*
X112153992Y-89625499D01*
X111878947Y-89649957D01*
X111627498Y-89675056D01*
X111413897Y-89699709D01*
X111252398Y-89722826D01*
X111231362Y-89726487D01*
X111097468Y-89749510D01*
X110918201Y-89778820D01*
X110723984Y-89809482D01*
X110641634Y-89822130D01*
X110433477Y-89857372D01*
X110189722Y-89904071D01*
X109948989Y-89954645D01*
X109837109Y-89980124D01*
X109611876Y-90032740D01*
X109432404Y-90073039D01*
X109270055Y-90107030D01*
X109096193Y-90140719D01*
X108894409Y-90177892D01*
X108732028Y-90210606D01*
X108549239Y-90251994D01*
X108453836Y-90275586D01*
X108328132Y-90305172D01*
X108145554Y-90344413D01*
X107924676Y-90389623D01*
X107684074Y-90437114D01*
X107442324Y-90483202D01*
X107218001Y-90524198D01*
X107084199Y-90547403D01*
X106893807Y-90566505D01*
X106657029Y-90571436D01*
X106402586Y-90563190D01*
X106159199Y-90542761D01*
X105955587Y-90511140D01*
X105940548Y-90507859D01*
X105758013Y-90457270D01*
X105552558Y-90386053D01*
X105369824Y-90310137D01*
X105066063Y-90177201D01*
X104803962Y-90083995D01*
X104563150Y-90025277D01*
X104323251Y-89995804D01*
X104124726Y-89989742D01*
X103719644Y-90004788D01*
X103344721Y-90051961D01*
X102971353Y-90136482D01*
X102570940Y-90263571D01*
X102515676Y-90283395D01*
X102216891Y-90391467D01*
X101980107Y-90475835D01*
X101795418Y-90539264D01*
X101652921Y-90584520D01*
X101542712Y-90614368D01*
X101454887Y-90631576D01*
X101379543Y-90638909D01*
X101306775Y-90639133D01*
X101251367Y-90636501D01*
X101104737Y-90619982D01*
X100983328Y-90581925D01*
X100851879Y-90509775D01*
X100798750Y-90475323D01*
X100548935Y-90329615D01*
X100333063Y-90246016D01*
X100193170Y-90224979D01*
X100053537Y-90249784D01*
X99874651Y-90323794D01*
X99669970Y-90440606D01*
X99512636Y-90548760D01*
X99349419Y-90657198D01*
X99228387Y-90712160D01*
X99152794Y-90712756D01*
X99125898Y-90658099D01*
X99125885Y-90654293D01*
X99141600Y-90589498D01*
X99182696Y-90477102D01*
X99241170Y-90338469D01*
X99258621Y-90299919D01*
X99390650Y-90012589D01*
X99200850Y-90001023D01*
X98988347Y-90020684D01*
X98756348Y-90098212D01*
X98524405Y-90225548D01*
X98367209Y-90344591D01*
X98281371Y-90411464D01*
X98216167Y-90449695D01*
X98202390Y-90453162D01*
X98161699Y-90479088D01*
X98080200Y-90549583D01*
X97969916Y-90653722D01*
X97849349Y-90773953D01*
X97718086Y-90904685D01*
X97599470Y-91016769D01*
X97507358Y-91097478D01*
X97458662Y-91132728D01*
X97354983Y-91156172D01*
X97281377Y-91115644D01*
X97242088Y-91019304D01*
X97241354Y-90875316D01*
X97264044Y-90758176D01*
X97315102Y-90561344D01*
X97176173Y-90586728D01*
X97004738Y-90640905D01*
X96829105Y-90744997D01*
X96639320Y-90905983D01*
X96468167Y-91083120D01*
X96324660Y-91234487D01*
X96219497Y-91327684D01*
X96146129Y-91366632D01*
X96098002Y-91355250D01*
X96075324Y-91318147D01*
X96069061Y-91263954D01*
X96094175Y-91197718D01*
X96157447Y-91110010D01*
X96265661Y-90991404D01*
X96422625Y-90835352D01*
X96539821Y-90719018D01*
X96631107Y-90623214D01*
X96685731Y-90559561D01*
X96696073Y-90539793D01*
X96650832Y-90540152D01*
X96550969Y-90562030D01*
X96413555Y-90599911D01*
X96255663Y-90648281D01*
X96094363Y-90701621D01*
X95946727Y-90754418D01*
X95829826Y-90801155D01*
X95760732Y-90836315D01*
X95750736Y-90845237D01*
X95701576Y-90870587D01*
X95607209Y-90893612D01*
X95578338Y-90898147D01*
X95459598Y-90920673D01*
X95362614Y-90948975D01*
X95351573Y-90953571D01*
X95226538Y-90997850D01*
X95091638Y-91027466D01*
X94972312Y-91038672D01*
X94893998Y-91027725D01*
X94885104Y-91022229D01*
X94809767Y-91001100D01*
X94703781Y-91013411D01*
X94601190Y-91051542D01*
X94541684Y-91099105D01*
X94479224Y-91131127D01*
X94358612Y-91152049D01*
X94197492Y-91161990D01*
X94013508Y-91161067D01*
X93824302Y-91149401D01*
X93647519Y-91127108D01*
X93500803Y-91094309D01*
X93493504Y-91092060D01*
X93291059Y-91038528D01*
X93100268Y-91006196D01*
X92938025Y-90996526D01*
X92821220Y-91010977D01*
X92781548Y-91030485D01*
X92729060Y-91087537D01*
X92651654Y-91187123D01*
X92567166Y-91306131D01*
X92370238Y-91559536D01*
X92173458Y-91740338D01*
X91980231Y-91846129D01*
X91869975Y-91886176D01*
X91784474Y-91918371D01*
X91769522Y-91924307D01*
X91704746Y-91911495D01*
X91608963Y-91839169D01*
X91568391Y-91799383D01*
X91478660Y-91694820D01*
X91435747Y-91604002D01*
X91431713Y-91564219D01*
X91785108Y-91564219D01*
X91786613Y-91642478D01*
X91815343Y-91673109D01*
X91886101Y-91660736D01*
X91978785Y-91624712D01*
X92089981Y-91557583D01*
X92212162Y-91452169D01*
X92329355Y-91326603D01*
X92425587Y-91199021D01*
X92484888Y-91087556D01*
X92496068Y-91037400D01*
X92464289Y-91002464D01*
X92380157Y-90990843D01*
X92264433Y-91002931D01*
X92159911Y-91031025D01*
X92053365Y-91100577D01*
X91995926Y-91205182D01*
X91993555Y-91286420D01*
X91983350Y-91331329D01*
X91972333Y-91335527D01*
X91891882Y-91371664D01*
X91821926Y-91454821D01*
X91785813Y-91556482D01*
X91785108Y-91564219D01*
X91431713Y-91564219D01*
X91424726Y-91495302D01*
X91424726Y-91494923D01*
G37*
G36*
X87760228Y-86131084D02*
G01*
X87844546Y-86037779D01*
X87955386Y-85971929D01*
X88108869Y-85924289D01*
X88321117Y-85885614D01*
X88347969Y-85881623D01*
X88469867Y-85863470D01*
X88554657Y-85842337D01*
X88610117Y-85805366D01*
X88644028Y-85739700D01*
X88664169Y-85632480D01*
X88678321Y-85470849D01*
X88688841Y-85318268D01*
X88696491Y-85072999D01*
X88690423Y-84786575D01*
X88672436Y-84480861D01*
X88644326Y-84177726D01*
X88607890Y-83899035D01*
X88564926Y-83666656D01*
X88547204Y-83594832D01*
X88497576Y-83410220D01*
X88445054Y-83212224D01*
X88405079Y-83059370D01*
X88370783Y-82941493D01*
X88329798Y-82854135D01*
X88268873Y-82786494D01*
X88174758Y-82727769D01*
X88034204Y-82667159D01*
X87834054Y-82593898D01*
X87616995Y-82543799D01*
X87350930Y-82524365D01*
X87056416Y-82534143D01*
X86754013Y-82571682D01*
X86464278Y-82635528D01*
X86252780Y-82705617D01*
X86136472Y-82764113D01*
X85985756Y-82856490D01*
X85824190Y-82966516D01*
X85675328Y-83077961D01*
X85562727Y-83174595D01*
X85542631Y-83194933D01*
X85466581Y-83269737D01*
X85415986Y-83293854D01*
X85367757Y-83275878D01*
X85352952Y-83265513D01*
X85316435Y-83232914D01*
X85312744Y-83198224D01*
X85348810Y-83145069D01*
X85431566Y-83057073D01*
X85448528Y-83039761D01*
X85541723Y-82949981D01*
X85616076Y-82887709D01*
X85651832Y-82867642D01*
X85700779Y-82844932D01*
X85779617Y-82788511D01*
X85802560Y-82769743D01*
X86020516Y-82623565D01*
X86303872Y-82494251D01*
X86585726Y-82401963D01*
X86790898Y-82358677D01*
X87029743Y-82330357D01*
X87281200Y-82317347D01*
X87524207Y-82319991D01*
X87737704Y-82338629D01*
X87900630Y-82373607D01*
X87919296Y-82380243D01*
X88185518Y-82480972D01*
X88392702Y-82556377D01*
X88552806Y-82609951D01*
X88677787Y-82645189D01*
X88779602Y-82665585D01*
X88870208Y-82674634D01*
X88931643Y-82676088D01*
X89113373Y-82659246D01*
X89317364Y-82606091D01*
X89555032Y-82512676D01*
X89837797Y-82375058D01*
X89904248Y-82340027D01*
X90077902Y-82255122D01*
X90287011Y-82164035D01*
X90493759Y-82082997D01*
X90548919Y-82063331D01*
X90730375Y-82003656D01*
X90865329Y-81969176D01*
X90978040Y-81955693D01*
X91092764Y-81959008D01*
X91130776Y-81962605D01*
X91408140Y-82023193D01*
X91635756Y-82141910D01*
X91814082Y-82319008D01*
X91833700Y-82346378D01*
X91903436Y-82459844D01*
X91949702Y-82558640D01*
X91961076Y-82605911D01*
X91945598Y-82655439D01*
X91908530Y-82644980D01*
X91863915Y-82582379D01*
X91846012Y-82541655D01*
X91782137Y-82452537D01*
X91666545Y-82356578D01*
X91521086Y-82268362D01*
X91367609Y-82202469D01*
X91314683Y-82187042D01*
X91088009Y-82164179D01*
X90822424Y-82199225D01*
X90515313Y-82292835D01*
X90164059Y-82445664D01*
X90047462Y-82504307D01*
X89733126Y-82658975D01*
X89466939Y-82771177D01*
X89236118Y-82844897D01*
X89027876Y-82884122D01*
X88829431Y-82892838D01*
X88804089Y-82891956D01*
X88545358Y-82880772D01*
X88569623Y-83010115D01*
X88592100Y-83103972D01*
X88631826Y-83246269D01*
X88681890Y-83412734D01*
X88706894Y-83492012D01*
X88747869Y-83626852D01*
X88779239Y-83751784D01*
X88803222Y-83882801D01*
X88822041Y-84035894D01*
X88837915Y-84227058D01*
X88853064Y-84472284D01*
X88859553Y-84591624D01*
X88873650Y-84878328D01*
X88881485Y-85103864D01*
X88882703Y-85283454D01*
X88876949Y-85432324D01*
X88863869Y-85565696D01*
X88843108Y-85698795D01*
X88832425Y-85756138D01*
X88811043Y-85867108D01*
X89131383Y-85841116D01*
X89401963Y-85807544D01*
X89631448Y-85748898D01*
X89842578Y-85655564D01*
X90058092Y-85517931D01*
X90250751Y-85367982D01*
X90381758Y-85264638D01*
X90540636Y-85145980D01*
X90708818Y-85025161D01*
X90867736Y-84915337D01*
X90998823Y-84829661D01*
X91067843Y-84789093D01*
X91171745Y-84765434D01*
X91267536Y-84792182D01*
X91328565Y-84858812D01*
X91337377Y-84895534D01*
X91328772Y-84983911D01*
X91299671Y-85100590D01*
X91289654Y-85130762D01*
X91269351Y-85192722D01*
X91267320Y-85221996D01*
X91290722Y-85213696D01*
X91346717Y-85162933D01*
X91442468Y-85064821D01*
X91546089Y-84955732D01*
X91710488Y-84789191D01*
X91849290Y-84667677D01*
X91983047Y-84575050D01*
X92132313Y-84495172D01*
X92133070Y-84494807D01*
X92321874Y-84409594D01*
X92455176Y-84368613D01*
X92543081Y-84376512D01*
X92595694Y-84437944D01*
X92623120Y-84557558D01*
X92634906Y-84725757D01*
X92638847Y-84877375D01*
X92633591Y-84968986D01*
X92616202Y-85016945D01*
X92583747Y-85037612D01*
X92578718Y-85039030D01*
X92533374Y-85080902D01*
X92478602Y-85170082D01*
X92427012Y-85280498D01*
X92391216Y-85386074D01*
X92382304Y-85445129D01*
X92410142Y-85434111D01*
X92486052Y-85382579D01*
X92598857Y-85298601D01*
X92737380Y-85190248D01*
X92756023Y-85175331D01*
X93053041Y-84950117D01*
X93332609Y-84763597D01*
X93588041Y-84619073D01*
X93812652Y-84519845D01*
X93999760Y-84469215D01*
X94142678Y-84470483D01*
X94167853Y-84478179D01*
X94234842Y-84524979D01*
X94266190Y-84611057D01*
X94269794Y-84736588D01*
X94283070Y-84764246D01*
X94333524Y-84763830D01*
X94432103Y-84733258D01*
X94566204Y-84680234D01*
X94675547Y-84647887D01*
X94826266Y-84619074D01*
X94964569Y-84602169D01*
X95108789Y-84592686D01*
X95197147Y-84596874D01*
X95249663Y-84617784D01*
X95280632Y-84650379D01*
X95318853Y-84725493D01*
X95326953Y-84816245D01*
X95302608Y-84936163D01*
X95243491Y-85098774D01*
X95177209Y-85251842D01*
X95112921Y-85399109D01*
X95064763Y-85518160D01*
X95038841Y-85593370D01*
X95036754Y-85611294D01*
X95075465Y-85602580D01*
X95165462Y-85566433D01*
X95289615Y-85509916D01*
X95332133Y-85489475D01*
X95573259Y-85376002D01*
X95765753Y-85296094D01*
X95927041Y-85244491D01*
X96074547Y-85215935D01*
X96225697Y-85205164D01*
X96275841Y-85204614D01*
X96475819Y-85215311D01*
X96643244Y-85252867D01*
X96764671Y-85300052D01*
X96931906Y-85393970D01*
X97048636Y-85513455D01*
X97128212Y-85676387D01*
X97173625Y-85847769D01*
X97205856Y-85965000D01*
X97243314Y-86047714D01*
X97266335Y-86071590D01*
X97314917Y-86060945D01*
X97419622Y-86019694D01*
X97568829Y-85953025D01*
X97750914Y-85866128D01*
X97950237Y-85766252D01*
X98160139Y-85660778D01*
X98355000Y-85566668D01*
X98521328Y-85490145D01*
X98645633Y-85437431D01*
X98710870Y-85415397D01*
X98828592Y-85385976D01*
X98968310Y-85344371D01*
X99010246Y-85330546D01*
X99136245Y-85290392D01*
X99246872Y-85264033D01*
X99365039Y-85248465D01*
X99513659Y-85240685D01*
X99715644Y-85237691D01*
X99718994Y-85237669D01*
X99947139Y-85241597D01*
X100160466Y-85258795D01*
X100375263Y-85292578D01*
X100607815Y-85346263D01*
X100874408Y-85423167D01*
X101191330Y-85526608D01*
X101270578Y-85553651D01*
X101550218Y-85648964D01*
X101770602Y-85721617D01*
X101944648Y-85774668D01*
X102085276Y-85811176D01*
X102205405Y-85834200D01*
X102317955Y-85846797D01*
X102435844Y-85852028D01*
X102534831Y-85852955D01*
X102782218Y-85846719D01*
X103025647Y-85825475D01*
X103278051Y-85786522D01*
X103552361Y-85727158D01*
X103861511Y-85644681D01*
X104218432Y-85536390D01*
X104521167Y-85437962D01*
X104741302Y-85365510D01*
X104937241Y-85302219D01*
X105097115Y-85251825D01*
X105209055Y-85218065D01*
X105261194Y-85204674D01*
X105262436Y-85204595D01*
X105321429Y-85190566D01*
X105413239Y-85156442D01*
X105421500Y-85152945D01*
X105532020Y-85110308D01*
X105672000Y-85062168D01*
X105733775Y-85042581D01*
X105962379Y-84972266D01*
X106127922Y-84919698D01*
X106240579Y-84880109D01*
X106310531Y-84848733D01*
X106347952Y-84820804D01*
X106363023Y-84791553D01*
X106365919Y-84756216D01*
X106365933Y-84746511D01*
X106373619Y-84660078D01*
X106393722Y-84527785D01*
X106421365Y-84380915D01*
X106453342Y-84215380D01*
X106481342Y-84051854D01*
X106497389Y-83940342D01*
X106519879Y-83797590D01*
X106549696Y-83660469D01*
X106556890Y-83634109D01*
X106584814Y-83536691D01*
X106590795Y-83492526D01*
X106572306Y-83480745D01*
X106538300Y-83480613D01*
X106486232Y-83463274D01*
X106499369Y-83417537D01*
X106555587Y-83367028D01*
X106616147Y-83281133D01*
X106653666Y-83125618D01*
X106655778Y-83109550D01*
X106684169Y-82972721D01*
X106726477Y-82910481D01*
X106783788Y-82921878D01*
X106824479Y-82962031D01*
X106848396Y-83014494D01*
X106842177Y-83094079D01*
X106811844Y-83201473D01*
X106771119Y-83353591D01*
X106740834Y-83512294D01*
X106735166Y-83557235D01*
X106719920Y-83678250D01*
X106695358Y-83842944D01*
X106666253Y-84019680D01*
X106660026Y-84055274D01*
X106613987Y-84330518D01*
X106584152Y-84543542D01*
X106570878Y-84690901D01*
X106574520Y-84769154D01*
X106584869Y-84781509D01*
X106614817Y-84777582D01*
X106675251Y-84766413D01*
X106776468Y-84745899D01*
X106928767Y-84713938D01*
X107142443Y-84668425D01*
X107222732Y-84651241D01*
X107423164Y-84613918D01*
X107601194Y-84591210D01*
X107741624Y-84584277D01*
X107829253Y-84594275D01*
X107846575Y-84603719D01*
X107847743Y-84615138D01*
X107822376Y-84629292D01*
X107760280Y-84649139D01*
X107651262Y-84677641D01*
X107485129Y-84717755D01*
X107321405Y-84756194D01*
X107147477Y-84799712D01*
X106948325Y-84853798D01*
X106794633Y-84898517D01*
X106667634Y-84938165D01*
X106583523Y-84975613D01*
X106534289Y-85026312D01*
X106511919Y-85105715D01*
X106508400Y-85229275D01*
X106515720Y-85412443D01*
X106516731Y-85434459D01*
X106538388Y-85653606D01*
X106579739Y-85803498D01*
X106640043Y-85882085D01*
X106682726Y-85894188D01*
X106750106Y-85865579D01*
X106852811Y-85787101D01*
X106979662Y-85669776D01*
X107119474Y-85524628D01*
X107261068Y-85362678D01*
X107393261Y-85194949D01*
X107396476Y-85190604D01*
X107623967Y-84920464D01*
X107859717Y-84712126D01*
X108097574Y-84569983D01*
X108331387Y-84498424D01*
X108373292Y-84493312D01*
X108476060Y-84501320D01*
X108619992Y-84533543D01*
X108776641Y-84582175D01*
X108917562Y-84639412D01*
X108932720Y-84646816D01*
X109004097Y-84696440D01*
X109116036Y-84790907D01*
X109256513Y-84919329D01*
X109413506Y-85070820D01*
X109526536Y-85184501D01*
X109695707Y-85356595D01*
X109822483Y-85481406D01*
X109917391Y-85567059D01*
X109990957Y-85621679D01*
X110053709Y-85653390D01*
X110116173Y-85670317D01*
X110165607Y-85677752D01*
X110333509Y-85682073D01*
X110489539Y-85644968D01*
X110650265Y-85559431D01*
X110832256Y-85418452D01*
X110881851Y-85374770D01*
X111015406Y-85248935D01*
X111185822Y-85079367D01*
X111379682Y-84880153D01*
X111583571Y-84665381D01*
X111784071Y-84449138D01*
X111967768Y-84245510D01*
X112083035Y-84113519D01*
X112203300Y-83979202D01*
X112346069Y-83829082D01*
X112501419Y-83672532D01*
X112659428Y-83518924D01*
X112810172Y-83377633D01*
X112943727Y-83258030D01*
X113050171Y-83169489D01*
X113119581Y-83121383D01*
X113139310Y-83115822D01*
X113173004Y-83116236D01*
X113169858Y-83103663D01*
X113185726Y-83061075D01*
X113255024Y-82986848D01*
X113366102Y-82889783D01*
X113507309Y-82778680D01*
X113666994Y-82662339D01*
X113833508Y-82549561D01*
X113995198Y-82449145D01*
X114140415Y-82369892D01*
X114142976Y-82368630D01*
X114366413Y-82275470D01*
X114545661Y-82236587D01*
X114677434Y-82252397D01*
X114737185Y-82293415D01*
X114778811Y-82348492D01*
X114779692Y-82369603D01*
X114773990Y-82397418D01*
X114793014Y-82443899D01*
X114812572Y-82515710D01*
X114791783Y-82543530D01*
X114751869Y-82533111D01*
X114729745Y-82488389D01*
X114678683Y-82421479D01*
X114579345Y-82404411D01*
X114439959Y-82435279D01*
X114268752Y-82512175D01*
X114073952Y-82633191D01*
X114058671Y-82643957D01*
X113927931Y-82736831D01*
X113772961Y-82846933D01*
X113656409Y-82929751D01*
X113532540Y-83027477D01*
X113367998Y-83171565D01*
X113173457Y-83351510D01*
X112959595Y-83556807D01*
X112737088Y-83776949D01*
X112516612Y-84001431D01*
X112308843Y-84219747D01*
X112124457Y-84421392D01*
X112025945Y-84534158D01*
X111734836Y-84866093D01*
X111461060Y-85160281D01*
X111209873Y-85411680D01*
X110986534Y-85615250D01*
X110796300Y-85765953D01*
X110644430Y-85858747D01*
X110643760Y-85859064D01*
X110467597Y-85930362D01*
X110306408Y-85965361D01*
X110151992Y-85960246D01*
X109996148Y-85911202D01*
X109830676Y-85814411D01*
X109647375Y-85666060D01*
X109438043Y-85462332D01*
X109194481Y-85199411D01*
X109171998Y-85174280D01*
X108944099Y-84958134D01*
X108714235Y-84818318D01*
X108481855Y-84754551D01*
X108341074Y-84752672D01*
X108217495Y-84770421D01*
X108105859Y-84806902D01*
X107995470Y-84870082D01*
X107875629Y-84967929D01*
X107735642Y-85108408D01*
X107564811Y-85299489D01*
X107489891Y-85386664D01*
X107277809Y-85630877D01*
X107104525Y-85819096D01*
X106963021Y-85956739D01*
X106846280Y-86049226D01*
X106747285Y-86101977D01*
X106659018Y-86120412D01*
X106574462Y-86109950D01*
X106559200Y-86105450D01*
X106482405Y-86065576D01*
X106426065Y-85994507D01*
X106386251Y-85880971D01*
X106359035Y-85713691D01*
X106340491Y-85481396D01*
X106340233Y-85476901D01*
X106315686Y-85047879D01*
X106197129Y-85072270D01*
X106127372Y-85091245D01*
X105997115Y-85131000D01*
X105818412Y-85187687D01*
X105603317Y-85257457D01*
X105363886Y-85336460D01*
X105235736Y-85379252D01*
X104988635Y-85462071D01*
X104759978Y-85538650D01*
X104561780Y-85604971D01*
X104406052Y-85657014D01*
X104304808Y-85690762D01*
X104277968Y-85699652D01*
X104179068Y-85732810D01*
X104041953Y-85779526D01*
X103931531Y-85817527D01*
X103574580Y-85921878D01*
X103195358Y-85999028D01*
X102816729Y-86046019D01*
X102461558Y-86059895D01*
X102190035Y-86042803D01*
X102023061Y-86013498D01*
X101818159Y-85965493D01*
X101609113Y-85907065D01*
X101519597Y-85878544D01*
X101102347Y-85742947D01*
X100744482Y-85636466D01*
X100435191Y-85557511D01*
X100163661Y-85504491D01*
X99919078Y-85475817D01*
X99690629Y-85469896D01*
X99467501Y-85485141D01*
X99238882Y-85519959D01*
X99171451Y-85533196D01*
X98997609Y-85577217D01*
X98785952Y-85643415D01*
X98558552Y-85723585D01*
X98337483Y-85809524D01*
X98144816Y-85893027D01*
X98002624Y-85965891D01*
X97995012Y-85970453D01*
X97866987Y-86038556D01*
X97710288Y-86108183D01*
X97548057Y-86170554D01*
X97403440Y-86216893D01*
X97299579Y-86238421D01*
X97286981Y-86238984D01*
X97177192Y-86220632D01*
X97095265Y-86158168D01*
X97031937Y-86040475D01*
X96981902Y-85872884D01*
X96945532Y-85733504D01*
X96910260Y-85646343D01*
X96860314Y-85588877D01*
X96779925Y-85538582D01*
X96729311Y-85512132D01*
X96480701Y-85427133D01*
X96202059Y-85411884D01*
X95894605Y-85466176D01*
X95559559Y-85589800D01*
X95217486Y-85770870D01*
X95092364Y-85841301D01*
X94981421Y-85895854D01*
X94920080Y-85919156D01*
X94825273Y-85915219D01*
X94748424Y-85867916D01*
X94719447Y-85800466D01*
X94734190Y-85743465D01*
X94773449Y-85634815D01*
X94829769Y-85492498D01*
X94895693Y-85334496D01*
X94963765Y-85178791D01*
X95026530Y-85043367D01*
X95064875Y-84967342D01*
X95106172Y-84877482D01*
X95110658Y-84820795D01*
X95071026Y-84795785D01*
X94979971Y-84800954D01*
X94830188Y-84834805D01*
X94656129Y-84883583D01*
X94455698Y-84954254D01*
X94288202Y-85044983D01*
X94140356Y-85167665D01*
X93998873Y-85334194D01*
X93850469Y-85556465D01*
X93787689Y-85661096D01*
X93688228Y-85815030D01*
X93607497Y-85901598D01*
X93538728Y-85925688D01*
X93475150Y-85892187D01*
X93471947Y-85889050D01*
X93442058Y-85850123D01*
X93437870Y-85803452D01*
X93462990Y-85729586D01*
X93521028Y-85609080D01*
X93525568Y-85600077D01*
X93594599Y-85474084D01*
X93660510Y-85371555D01*
X93704318Y-85319440D01*
X93748584Y-85264840D01*
X93809142Y-85168188D01*
X93876107Y-85048472D01*
X93939600Y-84924678D01*
X93989737Y-84815794D01*
X94016639Y-84740808D01*
X94016790Y-84719032D01*
X93962458Y-84714945D01*
X93857273Y-84748418D01*
X93713563Y-84813662D01*
X93543657Y-84904888D01*
X93359880Y-85016308D01*
X93298851Y-85056149D01*
X93054593Y-85221663D01*
X92855651Y-85365532D01*
X92683009Y-85503902D01*
X92517653Y-85652915D01*
X92340569Y-85828716D01*
X92138479Y-86041311D01*
X92036444Y-86145422D01*
X91969214Y-86198414D01*
X91923386Y-86208724D01*
X91895734Y-86194138D01*
X91862708Y-86145621D01*
X91858857Y-86070867D01*
X91886617Y-85959537D01*
X91948422Y-85801290D01*
X92031221Y-85618592D01*
X92105217Y-85455723D01*
X92171870Y-85299477D01*
X92219953Y-85176479D01*
X92230024Y-85147129D01*
X92276305Y-85006603D01*
X92327382Y-84856232D01*
X92336418Y-84830211D01*
X92366231Y-84727644D01*
X92375405Y-84657993D01*
X92371455Y-84644437D01*
X92323331Y-84646603D01*
X92230583Y-84689660D01*
X92106274Y-84764066D01*
X91963466Y-84860284D01*
X91815223Y-84968774D01*
X91674607Y-85079997D01*
X91554681Y-85184412D01*
X91468508Y-85272482D01*
X91429896Y-85332023D01*
X91389780Y-85397506D01*
X91372277Y-85415304D01*
X91311886Y-85477153D01*
X91231526Y-85570387D01*
X91145901Y-85676389D01*
X91069717Y-85776542D01*
X91017678Y-85852231D01*
X91003308Y-85882412D01*
X90974807Y-85937484D01*
X90904749Y-86013238D01*
X90816302Y-86089347D01*
X90732633Y-86145486D01*
X90684218Y-86162363D01*
X90628435Y-86152546D01*
X90599943Y-86117914D01*
X90600581Y-86050697D01*
X90632183Y-85943123D01*
X90696586Y-85787422D01*
X90795627Y-85575821D01*
X90848392Y-85467603D01*
X90915878Y-85336375D01*
X90980402Y-85220861D01*
X91017201Y-85162171D01*
X91063112Y-85085917D01*
X91079929Y-85039187D01*
X91052402Y-85032620D01*
X90979426Y-85064711D01*
X90875404Y-85126283D01*
X90754743Y-85208160D01*
X90631849Y-85301165D01*
X90524424Y-85393062D01*
X90241214Y-85635967D01*
X89976535Y-85818178D01*
X89713397Y-85946892D01*
X89434809Y-86029306D01*
X89123782Y-86072616D01*
X88895005Y-86083228D01*
X88811054Y-86090702D01*
X88762186Y-86122451D01*
X88727262Y-86198511D01*
X88708149Y-86260347D01*
X88634669Y-86456340D01*
X88532647Y-86659888D01*
X88417799Y-86842691D01*
X88315816Y-86966736D01*
X88233252Y-87037328D01*
X88148766Y-87071546D01*
X88028591Y-87081624D01*
X87998181Y-87081820D01*
X87876379Y-87077691D01*
X87800973Y-87055540D01*
X87741812Y-87000715D01*
X87692806Y-86933447D01*
X87607267Y-86763936D01*
X87586652Y-86587283D01*
X87630834Y-86390292D01*
X87659482Y-86323570D01*
X87836647Y-86323570D01*
X87852546Y-86349211D01*
X87876676Y-86398074D01*
X87898590Y-86497549D01*
X87908472Y-86575539D01*
X87937919Y-86734124D01*
X87991372Y-86825741D01*
X87999999Y-86832918D01*
X88068790Y-86878216D01*
X88121493Y-86879145D01*
X88191914Y-86833331D01*
X88211456Y-86818069D01*
X88275936Y-86741160D01*
X88341650Y-86622355D01*
X88375217Y-86540316D01*
X88420381Y-86420958D01*
X88460678Y-86330670D01*
X88480153Y-86298366D01*
X88506035Y-86234235D01*
X88513112Y-86169067D01*
X88505313Y-86107416D01*
X88466773Y-86090128D01*
X88388602Y-86102069D01*
X88271427Y-86123085D01*
X88127878Y-86144529D01*
X88080506Y-86150695D01*
X87941913Y-86181492D01*
X87865743Y-86234456D01*
X87856264Y-86249383D01*
X87836647Y-86323570D01*
X87659482Y-86323570D01*
X87686309Y-86261091D01*
X87760228Y-86131084D01*
G37*
G36*
X114953328Y-85156787D02*
G01*
X114967256Y-85217525D01*
X114950298Y-85318002D01*
X114910975Y-85432246D01*
X114857809Y-85534285D01*
X114811397Y-85589375D01*
X114763366Y-85665336D01*
X114755947Y-85707325D01*
X114726675Y-85767902D01*
X114679326Y-85779256D01*
X114617074Y-85763078D01*
X114602705Y-85740620D01*
X114577550Y-85724387D01*
X114534486Y-85744588D01*
X114481054Y-85804641D01*
X114419300Y-85910573D01*
X114362840Y-86034851D01*
X114325291Y-86149941D01*
X114319701Y-86178891D01*
X114298520Y-86253902D01*
X114275113Y-86260130D01*
X114260533Y-86204252D01*
X114260649Y-86143207D01*
X114280025Y-86020624D01*
X114314876Y-85917594D01*
X114321686Y-85905113D01*
X114360763Y-85826843D01*
X114372840Y-85782524D01*
X114396865Y-85718642D01*
X114460202Y-85616756D01*
X114549747Y-85494746D01*
X114652395Y-85370494D01*
X114752931Y-85263919D01*
X114850856Y-85177132D01*
X114913922Y-85144039D01*
X114953328Y-85156787D01*
G37*
G36*
X114870879Y-89782725D02*
G01*
X114851724Y-89801880D01*
X114832569Y-89782725D01*
X114851724Y-89763569D01*
X114870879Y-89782725D01*
G37*
G36*
X104415700Y-88599332D02*
G01*
X104411610Y-88664791D01*
X104353352Y-88765225D01*
X104268847Y-88866473D01*
X104090139Y-89059743D01*
X103956120Y-89203568D01*
X103859055Y-89304386D01*
X103791207Y-89368632D01*
X103744843Y-89402742D01*
X103712227Y-89413153D01*
X103685624Y-89406300D01*
X103657299Y-89388620D01*
X103648317Y-89382803D01*
X103626275Y-89352070D01*
X103645112Y-89301490D01*
X103711403Y-89217009D01*
X103742150Y-89182258D01*
X103897494Y-89013073D01*
X104045217Y-88859144D01*
X104175709Y-88729850D01*
X104279363Y-88634569D01*
X104346569Y-88582681D01*
X104363316Y-88575937D01*
X104415700Y-88599332D01*
G37*
X86845276Y-71877500D02*
X87354724Y-71877500D01*
X86845276Y-72922500D02*
X87354724Y-72922500D01*
G36*
X68543354Y-90079188D02*
G01*
X68715078Y-89937795D01*
X68837603Y-89871773D01*
X68841593Y-89871081D01*
X68909952Y-89823520D01*
X69000334Y-89690934D01*
X69118112Y-89462430D01*
X69268658Y-89127116D01*
X69457344Y-88674100D01*
X69569965Y-88394295D01*
X69650854Y-88146022D01*
X69699486Y-87908982D01*
X69705717Y-87826697D01*
X69711955Y-87753476D01*
X70204978Y-87753476D01*
X70254609Y-87762097D01*
X70339693Y-87721784D01*
X70518015Y-87636189D01*
X70755095Y-87521874D01*
X70820801Y-87490123D01*
X71060181Y-87365822D01*
X71240308Y-87255972D01*
X71330330Y-87179915D01*
X71335187Y-87167626D01*
X71278753Y-87030115D01*
X71128022Y-86949126D01*
X70920169Y-86927793D01*
X70692371Y-86969247D01*
X70481803Y-87076624D01*
X70459767Y-87093835D01*
X70333761Y-87223472D01*
X70329024Y-87303362D01*
X70336366Y-87308790D01*
X70371068Y-87388254D01*
X70308582Y-87510891D01*
X70223023Y-87660336D01*
X70204978Y-87753476D01*
X69711955Y-87753476D01*
X69730866Y-87531514D01*
X69819643Y-87326437D01*
X69996539Y-87165176D01*
X70085011Y-87109812D01*
X70294059Y-86972445D01*
X70469671Y-86832216D01*
X70514015Y-86788303D01*
X70705362Y-86667939D01*
X70904152Y-86646123D01*
X71217279Y-86674128D01*
X71418897Y-86745907D01*
X71536038Y-86874536D01*
X71572950Y-86969659D01*
X71635663Y-87188325D01*
X72284312Y-87013700D01*
X72633081Y-86909072D01*
X72987628Y-86785086D01*
X73285163Y-86664151D01*
X73352582Y-86632474D01*
X73607934Y-86518514D01*
X73765172Y-86473031D01*
X73816531Y-86494817D01*
X73754240Y-86582666D01*
X73645028Y-86677906D01*
X73449866Y-86803362D01*
X73167032Y-86933550D01*
X72780475Y-87074810D01*
X72274141Y-87233481D01*
X72134776Y-87274347D01*
X71869889Y-87356232D01*
X71714736Y-87422597D01*
X71641062Y-87491002D01*
X71620614Y-87579009D01*
X71620391Y-87594074D01*
X71592473Y-87758503D01*
X71516384Y-88020105D01*
X71403619Y-88347309D01*
X71265675Y-88708542D01*
X71114049Y-89072233D01*
X70960586Y-89406089D01*
X70735258Y-89775146D01*
X70426486Y-90157382D01*
X70078374Y-90503789D01*
X69740223Y-90762118D01*
X69491565Y-90869746D01*
X69259782Y-90886482D01*
X69086032Y-90810646D01*
X69066201Y-90789609D01*
X68985876Y-90710906D01*
X68903052Y-90698066D01*
X68784813Y-90760495D01*
X68598244Y-90907596D01*
X68569553Y-90931508D01*
X68401286Y-91068631D01*
X68282675Y-91158817D01*
X68247589Y-91179832D01*
X68193692Y-91128834D01*
X68112403Y-91022146D01*
X68028050Y-90857121D01*
X68001955Y-90739283D01*
X68051730Y-90626000D01*
X68179805Y-90456250D01*
X68223946Y-90407364D01*
X69140059Y-90407364D01*
X69191729Y-90500045D01*
X69306516Y-90537535D01*
X69386357Y-90541285D01*
X69521436Y-90500569D01*
X69724397Y-90393529D01*
X69952595Y-90242829D01*
X69964793Y-90233899D01*
X70204910Y-90047638D01*
X70384807Y-89876335D01*
X70539144Y-89678905D01*
X70702582Y-89414261D01*
X70795810Y-89248826D01*
X70932108Y-88974826D01*
X71059530Y-88668431D01*
X71171242Y-88354120D01*
X71260412Y-88056374D01*
X71320204Y-87799673D01*
X71343786Y-87608498D01*
X71324322Y-87507328D01*
X71283379Y-87502272D01*
X71200861Y-87542532D01*
X71021706Y-87631809D01*
X70775920Y-87755112D01*
X70600824Y-87843285D01*
X70371892Y-87959847D01*
X70194081Y-88061623D01*
X70053137Y-88168946D01*
X69934808Y-88302146D01*
X69824839Y-88481554D01*
X69708977Y-88727500D01*
X69572968Y-89060315D01*
X69402559Y-89500330D01*
X69358195Y-89615728D01*
X69223847Y-89983450D01*
X69150950Y-90241247D01*
X69140059Y-90407364D01*
X68223946Y-90407364D01*
X68354304Y-90262993D01*
X68543354Y-90079188D01*
G37*
G36*
X71918379Y-82651676D02*
G01*
X71953304Y-82715216D01*
X71867388Y-82736298D01*
X71833240Y-82736816D01*
X71720468Y-82722508D01*
X71731803Y-82669009D01*
X71748100Y-82651676D01*
X71844648Y-82603068D01*
X71918379Y-82651676D01*
G37*
G36*
X69304001Y-84742613D02*
G01*
X69485434Y-84436129D01*
X69684193Y-84163048D01*
X69879550Y-83950083D01*
X70050777Y-83823951D01*
X70134126Y-83801061D01*
X70262446Y-83863323D01*
X70377174Y-84016608D01*
X70451390Y-84210670D01*
X70458172Y-84395262D01*
X70456435Y-84402638D01*
X70390848Y-84517000D01*
X70245066Y-84700515D01*
X70042476Y-84925344D01*
X69865327Y-85106299D01*
X69620586Y-85353263D01*
X69469370Y-85522515D01*
X69399411Y-85630911D01*
X69398440Y-85695308D01*
X69420949Y-85716889D01*
X69598663Y-85752322D01*
X69836019Y-85695863D01*
X70104380Y-85566717D01*
X70375109Y-85384087D01*
X70619568Y-85167179D01*
X70809121Y-84935195D01*
X70912757Y-84716486D01*
X71014742Y-84470616D01*
X71165069Y-84238038D01*
X71188016Y-84211101D01*
X71334371Y-84074347D01*
X71500515Y-83994639D01*
X71741828Y-83947645D01*
X71805343Y-83939873D01*
X72130437Y-83922332D01*
X72324794Y-83959908D01*
X72388456Y-84052656D01*
X72321464Y-84200624D01*
X72157247Y-84374031D01*
X72000513Y-84538636D01*
X71820868Y-84760008D01*
X71641486Y-85005000D01*
X71485539Y-85240465D01*
X71376200Y-85433257D01*
X71336592Y-85547922D01*
X71394595Y-85676718D01*
X71546304Y-85741817D01*
X71758266Y-85742505D01*
X71997031Y-85678064D01*
X72203374Y-85566476D01*
X72381496Y-85428531D01*
X72523983Y-85277954D01*
X72658034Y-85078638D01*
X72810848Y-84794476D01*
X72862011Y-84692147D01*
X73016388Y-84427495D01*
X73158886Y-84271278D01*
X73278029Y-84231846D01*
X73362344Y-84317550D01*
X73365572Y-84325617D01*
X73356661Y-84440733D01*
X73293000Y-84637564D01*
X73188358Y-84873567D01*
X73187983Y-84874315D01*
X73077035Y-85111453D01*
X72998099Y-85309009D01*
X72968435Y-85423162D01*
X73008169Y-85447197D01*
X73111146Y-85383720D01*
X73253030Y-85256868D01*
X73409486Y-85090777D01*
X73556178Y-84909584D01*
X73668769Y-84737424D01*
X73678759Y-84718661D01*
X73843444Y-84454595D01*
X73995813Y-84327716D01*
X74140657Y-84334345D01*
X74162790Y-84347117D01*
X74257165Y-84463018D01*
X74271151Y-84538115D01*
X74306160Y-84636842D01*
X74348842Y-84652458D01*
X74488920Y-84718202D01*
X74627166Y-84896957D01*
X74743555Y-85161001D01*
X74764084Y-85227245D01*
X74837784Y-85429559D01*
X74926044Y-85528893D01*
X75037949Y-85560961D01*
X75267118Y-85521744D01*
X75466206Y-85363233D01*
X75613664Y-85107780D01*
X75670835Y-84904564D01*
X75724848Y-84723408D01*
X76019273Y-84723408D01*
X76045233Y-84781807D01*
X76066573Y-84770708D01*
X76075064Y-84686507D01*
X76066573Y-84676108D01*
X76024394Y-84685847D01*
X76019273Y-84723408D01*
X75724848Y-84723408D01*
X75760421Y-84604096D01*
X75890413Y-84397835D01*
X76044962Y-84299161D01*
X76208223Y-84321450D01*
X76288882Y-84382849D01*
X76365754Y-84529953D01*
X76336934Y-84725313D01*
X76199043Y-84985780D01*
X76154626Y-85052197D01*
X76006660Y-85319303D01*
X75980606Y-85528337D01*
X76079074Y-85698056D01*
X76262196Y-85825182D01*
X76409511Y-85897416D01*
X76530138Y-85922152D01*
X76678134Y-85900112D01*
X76902148Y-85833720D01*
X77165209Y-85728110D01*
X77474033Y-85571334D01*
X77757059Y-85400331D01*
X78011120Y-85242001D01*
X78178318Y-85162252D01*
X78250819Y-85160725D01*
X78220788Y-85237062D01*
X78080388Y-85390903D01*
X78056317Y-85414018D01*
X77785258Y-85627612D01*
X77434975Y-85843677D01*
X77063709Y-86029473D01*
X76756715Y-86144641D01*
X76540502Y-86191455D01*
X76367559Y-86172247D01*
X76200920Y-86104199D01*
X75989082Y-85971702D01*
X75812658Y-85809449D01*
X75792657Y-85784206D01*
X75648860Y-85589711D01*
X75390631Y-85764952D01*
X75108487Y-85895034D01*
X74859544Y-85890809D01*
X74658671Y-85758678D01*
X74520741Y-85505044D01*
X74487528Y-85376139D01*
X74421161Y-85205083D01*
X74323162Y-85166908D01*
X74203841Y-85258939D01*
X74073509Y-85478499D01*
X74070792Y-85484321D01*
X73929146Y-85726104D01*
X73792198Y-85828262D01*
X73656661Y-85792848D01*
X73623478Y-85763606D01*
X73564194Y-85675642D01*
X73579574Y-85565748D01*
X73636074Y-85445249D01*
X73728510Y-85242701D01*
X73738802Y-85155208D01*
X73669336Y-85183855D01*
X73522501Y-85329723D01*
X73482036Y-85375378D01*
X73208579Y-85680106D01*
X73003293Y-85885681D01*
X72849023Y-86006330D01*
X72728616Y-86056280D01*
X72659685Y-86057475D01*
X72541455Y-85997823D01*
X72524163Y-85876111D01*
X72527731Y-85762697D01*
X72489518Y-85728636D01*
X72384697Y-85775319D01*
X72203229Y-85894078D01*
X71940616Y-86019330D01*
X71657688Y-86070445D01*
X71389964Y-86050977D01*
X71172957Y-85964480D01*
X71042185Y-85814507D01*
X71029353Y-85776632D01*
X71036495Y-85582303D01*
X71124459Y-85319550D01*
X71276482Y-85022966D01*
X71475801Y-84727145D01*
X71623070Y-84551344D01*
X71780322Y-84372339D01*
X71844336Y-84271910D01*
X71824777Y-84230932D01*
X71787113Y-84226760D01*
X71569610Y-84290715D01*
X71367057Y-84486067D01*
X71174740Y-84816529D01*
X70902745Y-85232435D01*
X70509697Y-85600336D01*
X70032746Y-85894121D01*
X69694136Y-86030997D01*
X69424779Y-86062894D01*
X69200573Y-85991699D01*
X69155487Y-85962791D01*
X69023281Y-85901702D01*
X68836764Y-85882129D01*
X68554464Y-85899815D01*
X68548079Y-85900466D01*
X68212848Y-85921485D01*
X67992176Y-85891226D01*
X67862931Y-85792724D01*
X67801984Y-85609013D01*
X67786289Y-85341722D01*
X67783472Y-84900782D01*
X67470529Y-85240776D01*
X67288663Y-85461757D01*
X67138985Y-85684971D01*
X67068974Y-85825821D01*
X66955771Y-86023230D01*
X66809114Y-86125251D01*
X66660210Y-86110691D01*
X66654545Y-86107320D01*
X66587121Y-85989272D01*
X66619754Y-85796385D01*
X66748460Y-85550309D01*
X66760335Y-85532580D01*
X66891010Y-85323187D01*
X66926760Y-85219115D01*
X66867079Y-85219762D01*
X66711462Y-85324522D01*
X66636173Y-85384105D01*
X66282528Y-85639059D01*
X65879605Y-85879576D01*
X65481347Y-86075714D01*
X65200079Y-86181235D01*
X64996006Y-86234382D01*
X64875191Y-86235124D01*
X64788470Y-86182052D01*
X64775030Y-86169028D01*
X64701080Y-86069478D01*
X64674610Y-85943098D01*
X64688591Y-85816213D01*
X64975190Y-85816213D01*
X64992269Y-85867789D01*
X65035383Y-85911438D01*
X65107076Y-85918827D01*
X65230989Y-85882789D01*
X65430763Y-85796156D01*
X65730039Y-85651760D01*
X65770318Y-85631910D01*
X66281265Y-85334876D01*
X66765157Y-84969849D01*
X67190891Y-84564963D01*
X67527364Y-84148350D01*
X67667556Y-83915908D01*
X67826016Y-83609629D01*
X67922791Y-83409122D01*
X67959187Y-83299794D01*
X68232199Y-83299794D01*
X68241904Y-83304413D01*
X68306652Y-83254466D01*
X68321229Y-83233464D01*
X68339308Y-83167133D01*
X68329603Y-83162514D01*
X68264855Y-83212461D01*
X68250279Y-83233464D01*
X68232199Y-83299794D01*
X67959187Y-83299794D01*
X67961120Y-83293986D01*
X67944241Y-83243818D01*
X67875393Y-83238215D01*
X67772589Y-83254256D01*
X67599901Y-83283743D01*
X67332991Y-83329173D01*
X67017542Y-83382773D01*
X66866759Y-83408364D01*
X66546205Y-83466433D01*
X66329882Y-83519963D01*
X66181449Y-83583788D01*
X66064566Y-83672741D01*
X65965550Y-83776202D01*
X65758512Y-84038994D01*
X65552832Y-84355376D01*
X65360805Y-84698922D01*
X65194731Y-85043206D01*
X65066905Y-85361800D01*
X64989626Y-85628278D01*
X64975190Y-85816213D01*
X64688591Y-85816213D01*
X64695342Y-85754950D01*
X64763000Y-85470096D01*
X64769297Y-85446344D01*
X64816024Y-85260668D01*
X64827239Y-85157372D01*
X64789598Y-85140420D01*
X64689759Y-85213773D01*
X64514382Y-85381394D01*
X64315614Y-85581088D01*
X63858890Y-86018384D01*
X63410766Y-86402344D01*
X62986702Y-86722423D01*
X62602162Y-86968077D01*
X62272605Y-87128763D01*
X62013494Y-87193936D01*
X61951507Y-87193258D01*
X61813705Y-87171851D01*
X61747298Y-87116039D01*
X61727265Y-86985736D01*
X61727363Y-86834162D01*
X61726243Y-86637630D01*
X61718387Y-86516182D01*
X61712130Y-86497151D01*
X61656558Y-86543511D01*
X61522521Y-86668479D01*
X61332452Y-86850886D01*
X61185840Y-86993799D01*
X60966390Y-87203545D01*
X60782312Y-87369480D01*
X60658002Y-87470158D01*
X60620805Y-87490447D01*
X60529591Y-87535490D01*
X60446535Y-87606282D01*
X60295360Y-87682065D01*
X60139086Y-87643664D01*
X59999894Y-87516145D01*
X59899967Y-87324577D01*
X59878783Y-87197658D01*
X60128905Y-87197658D01*
X60166119Y-87293531D01*
X60258441Y-87316851D01*
X60412169Y-87252783D01*
X60637364Y-87095206D01*
X60944086Y-86837999D01*
X61008072Y-86781237D01*
X61577684Y-86224814D01*
X62029496Y-85674290D01*
X62255105Y-85332778D01*
X62422641Y-85055276D01*
X62187709Y-85102263D01*
X61880292Y-85210356D01*
X61523587Y-85409025D01*
X61150235Y-85672993D01*
X60792879Y-85976980D01*
X60484164Y-86295706D01*
X60263834Y-86592125D01*
X60179031Y-86787843D01*
X60131536Y-87007764D01*
X60128905Y-87197658D01*
X59878783Y-87197658D01*
X59861486Y-87094026D01*
X59874518Y-86959847D01*
X59916625Y-86748522D01*
X59601506Y-87057787D01*
X59417899Y-87249566D01*
X59183324Y-87510899D01*
X58934795Y-87800012D01*
X58801853Y-87960275D01*
X58528948Y-88275470D01*
X58316823Y-88472899D01*
X58154798Y-88557386D01*
X58032192Y-88533758D01*
X57938326Y-88406841D01*
X57918115Y-88359581D01*
X57850524Y-88047289D01*
X57847649Y-87657678D01*
X57906351Y-87238053D01*
X58018290Y-86849386D01*
X58153827Y-86519385D01*
X58315953Y-86169390D01*
X58487144Y-85833018D01*
X58649874Y-85543889D01*
X58786616Y-85335619D01*
X58841224Y-85270843D01*
X58914416Y-85162980D01*
X58878769Y-85108007D01*
X58756321Y-85103979D01*
X58569108Y-85148950D01*
X58339166Y-85240974D01*
X58168175Y-85330277D01*
X57711532Y-85632010D01*
X57320573Y-85983939D01*
X56963972Y-86418070D01*
X56678830Y-86851899D01*
X56522540Y-87090512D01*
X56404125Y-87219046D01*
X56302624Y-87256550D01*
X56246074Y-87245153D01*
X56163337Y-87265871D01*
X56032112Y-87378596D01*
X55844167Y-87592007D01*
X55591275Y-87914785D01*
X55514804Y-88016440D01*
X55345046Y-88241475D01*
X55182110Y-88454146D01*
X55106843Y-88550608D01*
X54999316Y-88717759D01*
X54947940Y-88858833D01*
X54947206Y-88871135D01*
X54901317Y-89071446D01*
X54786686Y-89217743D01*
X54660911Y-89264190D01*
X54543188Y-89212155D01*
X54521508Y-89131217D01*
X54562936Y-89027974D01*
X54676599Y-88836144D01*
X54846562Y-88578321D01*
X55056894Y-88277103D01*
X55291660Y-87955087D01*
X55534927Y-87634867D01*
X55770763Y-87339041D01*
X55864331Y-87226836D01*
X56055066Y-86997427D01*
X56272640Y-86729435D01*
X56401676Y-86567347D01*
X56613689Y-86303983D01*
X56847679Y-86021885D01*
X56974448Y-85873136D01*
X57162799Y-85644422D01*
X57331009Y-85410837D01*
X57497502Y-85142320D01*
X57680703Y-84808808D01*
X57899037Y-84380240D01*
X57940011Y-84297709D01*
X58132117Y-83940118D01*
X58359976Y-83561099D01*
X58585096Y-83223401D01*
X58668019Y-83111000D01*
X58842248Y-82876770D01*
X58977091Y-82680890D01*
X59052777Y-82552781D01*
X59062290Y-82524255D01*
X59097643Y-82424018D01*
X59187054Y-82255904D01*
X59239664Y-82169218D01*
X59344661Y-81995687D01*
X59408289Y-81876632D01*
X59417039Y-81851354D01*
X59368780Y-81811493D01*
X59240917Y-81857028D01*
X59058820Y-81977878D01*
X59018882Y-82009581D01*
X58802716Y-82185660D01*
X58569713Y-82375435D01*
X58522253Y-82414088D01*
X58333808Y-82597244D01*
X58095725Y-82872838D01*
X57830785Y-83211280D01*
X57561769Y-83582981D01*
X57311459Y-83958351D01*
X57220344Y-84105096D01*
X57045297Y-84364560D01*
X56921586Y-84494265D01*
X56858519Y-84499983D01*
X56865407Y-84387489D01*
X56951557Y-84162556D01*
X57036970Y-83991367D01*
X57539874Y-83179608D01*
X58146777Y-82447157D01*
X58872045Y-81777125D01*
X59022712Y-81656810D01*
X59213981Y-81512536D01*
X59337695Y-81445264D01*
X59436507Y-81442610D01*
X59553071Y-81492189D01*
X59566285Y-81498995D01*
X59724177Y-81622023D01*
X59760188Y-81777966D01*
X59676682Y-81987817D01*
X59629759Y-82062793D01*
X59514696Y-82252960D01*
X59379589Y-82499005D01*
X59312173Y-82630391D01*
X59151826Y-82898834D01*
X58948310Y-83171537D01*
X58854780Y-83276741D01*
X58714818Y-83443214D01*
X58555411Y-83664805D01*
X58394606Y-83911636D01*
X58250448Y-84153833D01*
X58140986Y-84361518D01*
X58084265Y-84504814D01*
X58085340Y-84550554D01*
X58143133Y-84513985D01*
X58277836Y-84388658D01*
X58472744Y-84192452D01*
X58711154Y-83943250D01*
X58976363Y-83658932D01*
X59251666Y-83357379D01*
X59520360Y-83056472D01*
X59765741Y-82774092D01*
X59947334Y-82557317D01*
X60242641Y-82204694D01*
X60514448Y-81896169D01*
X60747780Y-81647530D01*
X60927659Y-81474563D01*
X61039109Y-81393054D01*
X61055957Y-81388771D01*
X61138141Y-81445312D01*
X61164744Y-81494204D01*
X61136387Y-81604618D01*
X61003699Y-81785947D01*
X60819771Y-81982001D01*
X60580122Y-82230014D01*
X60335830Y-82499155D01*
X60157013Y-82710227D01*
X60001975Y-82895731D01*
X59785949Y-83143578D01*
X59527692Y-83433352D01*
X59245960Y-83744632D01*
X58959509Y-84056999D01*
X58687096Y-84350036D01*
X58447478Y-84603322D01*
X58259411Y-84796439D01*
X58141651Y-84908968D01*
X58124814Y-84922543D01*
X58009298Y-85025916D01*
X58018302Y-85072689D01*
X58145930Y-85062190D01*
X58386289Y-84993747D01*
X58476955Y-84962711D01*
X58736213Y-84867215D01*
X58956148Y-84778889D01*
X59089279Y-84716802D01*
X59089536Y-84716653D01*
X59213458Y-84677473D01*
X59283561Y-84734606D01*
X59328221Y-84822518D01*
X59328659Y-84909437D01*
X59272379Y-85026475D01*
X59146889Y-85204743D01*
X59036582Y-85349607D01*
X58673304Y-85892342D01*
X58371725Y-86481795D01*
X58183396Y-86988939D01*
X58118040Y-87274020D01*
X58080758Y-87571835D01*
X58072571Y-87845113D01*
X58094499Y-88056585D01*
X58147562Y-88168983D01*
X58151030Y-88171321D01*
X58241844Y-88149679D01*
X58395565Y-88032322D01*
X58554765Y-87873972D01*
X59132833Y-87258730D01*
X59679646Y-86696722D01*
X60185457Y-86197092D01*
X60640514Y-85768985D01*
X61035069Y-85421547D01*
X61359372Y-85163923D01*
X61603673Y-85005258D01*
X61624300Y-84994704D01*
X61992075Y-84824023D01*
X62276559Y-84720795D01*
X62512485Y-84673700D01*
X62627921Y-84667635D01*
X62810899Y-84682045D01*
X62901819Y-84745782D01*
X62939433Y-84845944D01*
X62945798Y-84982202D01*
X62873990Y-85115856D01*
X62737654Y-85258272D01*
X62426981Y-85602294D01*
X62190602Y-85967768D01*
X62046741Y-86322055D01*
X62010526Y-86560522D01*
X62014012Y-86758937D01*
X62043954Y-86850466D01*
X62120333Y-86869977D01*
X62184078Y-86863365D01*
X62372137Y-86796812D01*
X62638446Y-86646055D01*
X62960678Y-86426988D01*
X63316506Y-86155508D01*
X63683603Y-85847508D01*
X63944242Y-85610279D01*
X64156385Y-85401166D01*
X64405858Y-85141376D01*
X64675161Y-84850794D01*
X64946792Y-84549302D01*
X65203252Y-84256783D01*
X65427038Y-83993120D01*
X65600651Y-83778195D01*
X65706588Y-83631891D01*
X65731134Y-83580189D01*
X65666859Y-83552464D01*
X65498777Y-83523174D01*
X65288128Y-83500918D01*
X64928306Y-83453061D01*
X64602369Y-83375432D01*
X64337514Y-83277953D01*
X64160937Y-83170548D01*
X64099720Y-83067320D01*
X64130416Y-82973296D01*
X64223882Y-82986413D01*
X64626610Y-83130647D01*
X65042897Y-83238868D01*
X65416557Y-83297658D01*
X65555688Y-83304413D01*
X65934768Y-83304413D01*
X66391853Y-82612654D01*
X66577898Y-82324274D01*
X66736225Y-82066163D01*
X66848837Y-81868472D01*
X66896024Y-81767811D01*
X66987778Y-81615223D01*
X67113526Y-81573327D01*
X67225699Y-81642145D01*
X67264167Y-81732013D01*
X67241823Y-81865767D01*
X67151964Y-82080527D01*
X67143187Y-82099101D01*
X67042046Y-82293703D01*
X66958462Y-82422251D01*
X66922401Y-82453017D01*
X66862427Y-82510743D01*
X66769718Y-82657383D01*
X66718035Y-82754553D01*
X66602597Y-82964683D01*
X66491448Y-83136793D01*
X66457273Y-83180251D01*
X66407142Y-83239117D01*
X66391956Y-83276832D01*
X66431020Y-83293807D01*
X66543639Y-83290452D01*
X66749119Y-83267178D01*
X67066764Y-83224397D01*
X67262370Y-83197381D01*
X67584428Y-83145953D01*
X67850914Y-83090264D01*
X68031287Y-83037487D01*
X68093008Y-83002269D01*
X68103380Y-82985140D01*
X68356703Y-82985140D01*
X68392178Y-83020615D01*
X68427653Y-82985140D01*
X68392178Y-82949665D01*
X68356703Y-82985140D01*
X68103380Y-82985140D01*
X68152542Y-82903954D01*
X68188682Y-82843240D01*
X68427653Y-82843240D01*
X68463128Y-82878715D01*
X68498603Y-82843240D01*
X68463128Y-82807765D01*
X68427653Y-82843240D01*
X68188682Y-82843240D01*
X68254781Y-82732196D01*
X68515998Y-82732196D01*
X68525703Y-82736816D01*
X68590451Y-82686868D01*
X68605027Y-82665866D01*
X68623107Y-82599536D01*
X68613402Y-82594916D01*
X68548654Y-82644863D01*
X68534078Y-82665866D01*
X68515998Y-82732196D01*
X68254781Y-82732196D01*
X68263826Y-82717000D01*
X68406804Y-82475158D01*
X68468364Y-82370635D01*
X68668089Y-82043758D01*
X68818533Y-81830717D01*
X68932159Y-81717585D01*
X69021430Y-81690436D01*
X69063093Y-81706124D01*
X69127542Y-81804404D01*
X69116863Y-81983128D01*
X69028735Y-82255830D01*
X68928704Y-82490152D01*
X68720259Y-82949869D01*
X69123816Y-82908305D01*
X69426755Y-82873110D01*
X69737634Y-82830956D01*
X69866002Y-82811170D01*
X70069473Y-82788884D01*
X70207398Y-82794506D01*
X70237702Y-82809110D01*
X70188506Y-82842465D01*
X70028723Y-82885116D01*
X69788674Y-82929597D01*
X69686225Y-82944933D01*
X69286850Y-83001212D01*
X69001153Y-83046942D01*
X68802685Y-83093910D01*
X68664991Y-83153902D01*
X68561622Y-83238705D01*
X68466125Y-83360105D01*
X68352048Y-83529889D01*
X68342958Y-83543480D01*
X68159191Y-83810265D01*
X67968390Y-84075340D01*
X67826672Y-84262235D01*
X67643882Y-84500477D01*
X67544515Y-84647697D01*
X67531480Y-84698579D01*
X67607686Y-84647804D01*
X67622860Y-84634721D01*
X67784238Y-84536324D01*
X67927784Y-84516446D01*
X68010257Y-84578997D01*
X68015270Y-84599246D01*
X68023141Y-84714459D01*
X68029789Y-84921262D01*
X68033007Y-85113631D01*
X68037430Y-85539330D01*
X68498859Y-85559910D01*
X68960288Y-85580491D01*
X69151067Y-85080807D01*
X69456418Y-85080807D01*
X69487294Y-85102911D01*
X69592614Y-85039898D01*
X69733497Y-84921192D01*
X69904167Y-84742628D01*
X69977317Y-84655817D01*
X70132212Y-84446435D01*
X70193175Y-84310423D01*
X70168215Y-84222444D01*
X70125194Y-84188039D01*
X70011260Y-84192838D01*
X69866650Y-84300657D01*
X69714972Y-84483408D01*
X69579834Y-84713004D01*
X69489631Y-84944164D01*
X69456418Y-85080807D01*
X69151067Y-85080807D01*
X69160621Y-85055783D01*
X69304001Y-84742613D01*
G37*
G36*
X66593568Y-90090474D02*
G01*
X66624679Y-90215979D01*
X66583745Y-90326969D01*
X66464085Y-90451308D01*
X66330841Y-90445754D01*
X66234029Y-90339305D01*
X66213244Y-90186242D01*
X66307930Y-90076834D01*
X66451064Y-90044637D01*
X66593568Y-90090474D01*
G37*
G36*
X71584916Y-82682184D02*
G01*
X71301117Y-82740886D01*
X71048740Y-82776350D01*
X70757002Y-82794750D01*
X70662569Y-82795517D01*
X70307821Y-82791447D01*
X70591620Y-82732745D01*
X70843996Y-82697281D01*
X71135734Y-82678881D01*
X71230167Y-82678114D01*
X71584916Y-82682184D01*
G37*
G36*
X74149492Y-83133695D02*
G01*
X74174581Y-83183799D01*
X74123606Y-83322160D01*
X74003265Y-83414542D01*
X73862431Y-83442974D01*
X73749979Y-83389486D01*
X73726543Y-83348534D01*
X73736870Y-83217434D01*
X73768617Y-83171160D01*
X73891070Y-83107456D01*
X74037999Y-83095590D01*
X74149492Y-83133695D01*
G37*
G36*
X81102162Y-88213031D02*
G01*
X81195891Y-88028555D01*
X81243800Y-87835863D01*
X81316791Y-87579931D01*
X81432015Y-87458488D01*
X81588767Y-87472211D01*
X81609791Y-87482681D01*
X81771117Y-87521324D01*
X81980794Y-87517389D01*
X82000069Y-87514524D01*
X82260425Y-87532010D01*
X82530886Y-87644906D01*
X82775303Y-87825443D01*
X82957528Y-88045851D01*
X83041413Y-88278361D01*
X83043296Y-88315937D01*
X83055137Y-88413009D01*
X83113955Y-88463058D01*
X83254687Y-88481460D01*
X83424650Y-88483743D01*
X83690564Y-88492186D01*
X83935007Y-88513634D01*
X84026571Y-88527856D01*
X84187345Y-88574004D01*
X84217660Y-88617826D01*
X84128948Y-88655277D01*
X83932638Y-88682310D01*
X83640161Y-88694881D01*
X83553494Y-88695290D01*
X83232262Y-88709883D01*
X82867528Y-88750840D01*
X82486851Y-88812088D01*
X82117791Y-88887550D01*
X81787907Y-88971154D01*
X81524760Y-89056825D01*
X81355907Y-89138488D01*
X81308555Y-89190082D01*
X81274393Y-89343299D01*
X81231538Y-89589329D01*
X81183963Y-89898150D01*
X81135637Y-90239737D01*
X81090531Y-90584066D01*
X81052616Y-90901112D01*
X81025862Y-91160851D01*
X81014240Y-91333260D01*
X81017967Y-91387404D01*
X80996791Y-91464066D01*
X80892492Y-91547510D01*
X80756949Y-91600822D01*
X80711400Y-91605531D01*
X80634273Y-91547193D01*
X80598505Y-91473002D01*
X80591906Y-91310875D01*
X80631183Y-91143889D01*
X80675081Y-90994849D01*
X80674949Y-90916328D01*
X80671807Y-90834442D01*
X80705768Y-90676688D01*
X80710562Y-90660106D01*
X80754599Y-90472693D01*
X80804075Y-90204930D01*
X80844909Y-89938212D01*
X80885083Y-89665897D01*
X80924788Y-89432880D01*
X80954870Y-89291928D01*
X80960737Y-89183238D01*
X80875730Y-89123133D01*
X80768881Y-89096653D01*
X80645170Y-89083692D01*
X80529747Y-89111458D01*
X80390161Y-89196722D01*
X80193965Y-89356255D01*
X80087700Y-89448717D01*
X79846070Y-89651335D01*
X79675873Y-89766761D01*
X79550402Y-89810291D01*
X79466856Y-89804289D01*
X79335158Y-89726757D01*
X79261074Y-89554365D01*
X79250800Y-89505228D01*
X79202599Y-89248297D01*
X79047668Y-89389277D01*
X78800128Y-89569792D01*
X78581695Y-89646744D01*
X78411853Y-89620995D01*
X78310083Y-89493406D01*
X78289664Y-89355751D01*
X78289664Y-89185669D01*
X78648284Y-89185669D01*
X78679011Y-89261423D01*
X78690318Y-89264190D01*
X78766238Y-89222700D01*
X78913363Y-89115804D01*
X79040285Y-89015034D01*
X79247865Y-88818896D01*
X79406420Y-88620028D01*
X79498667Y-88446365D01*
X79507326Y-88325842D01*
X79483439Y-88298723D01*
X79405222Y-88323764D01*
X79259568Y-88422503D01*
X79079094Y-88568014D01*
X78896416Y-88733375D01*
X78744152Y-88891659D01*
X78700620Y-88944916D01*
X78656228Y-89057207D01*
X78648284Y-89185669D01*
X78289664Y-89185669D01*
X78289664Y-89168505D01*
X78113509Y-89333994D01*
X77979350Y-89484890D01*
X77899020Y-89620389D01*
X77897959Y-89623606D01*
X77800347Y-89760563D01*
X77660245Y-89797118D01*
X77525750Y-89742093D01*
X77444958Y-89604309D01*
X77438268Y-89539301D01*
X77426238Y-89437651D01*
X77373044Y-89419337D01*
X77253032Y-89487406D01*
X77131998Y-89575694D01*
X76921625Y-89702227D01*
X76706326Y-89787032D01*
X76683730Y-89792386D01*
X76514004Y-89805963D01*
X76389813Y-89737508D01*
X76304836Y-89640541D01*
X76195049Y-89449306D01*
X76185712Y-89242467D01*
X76193660Y-89193262D01*
X76226806Y-88979393D01*
X76262508Y-88701264D01*
X76281611Y-88528812D01*
X76302819Y-88297919D01*
X76299023Y-88178901D01*
X76260280Y-88142536D01*
X76176647Y-88159602D01*
X76157988Y-88165480D01*
X75982728Y-88260107D01*
X75859009Y-88368735D01*
X75728820Y-88557607D01*
X75581451Y-88832500D01*
X75439948Y-89143355D01*
X75327356Y-89440114D01*
X75271325Y-89645326D01*
X75196750Y-89863303D01*
X75085110Y-89957633D01*
X74948519Y-89920527D01*
X74903593Y-89881710D01*
X74855336Y-89817010D01*
X74844154Y-89732732D01*
X74875958Y-89599141D01*
X74956660Y-89386502D01*
X75043052Y-89180248D01*
X75195428Y-88816692D01*
X75294722Y-88563454D01*
X75346243Y-88401520D01*
X75355298Y-88311878D01*
X75327196Y-88275517D01*
X75296820Y-88271342D01*
X75233236Y-88295801D01*
X75151854Y-88380499D01*
X75040016Y-88543269D01*
X74885064Y-88801945D01*
X74743207Y-89051341D01*
X74615641Y-89261015D01*
X74451306Y-89507642D01*
X74273502Y-89759059D01*
X74105526Y-89983104D01*
X73970676Y-90147614D01*
X73898758Y-90217081D01*
X73785849Y-90230099D01*
X73663048Y-90185583D01*
X73606983Y-90112615D01*
X73583831Y-90008001D01*
X73537658Y-89871537D01*
X73468334Y-89689200D01*
X73094223Y-89914243D01*
X72873127Y-90051891D01*
X72688405Y-90175033D01*
X72601800Y-90239563D01*
X72421158Y-90322684D01*
X72250771Y-90291390D01*
X72135563Y-90158965D01*
X72117495Y-90096348D01*
X72095879Y-90000201D01*
X72061955Y-89967992D01*
X71993958Y-90011122D01*
X71870121Y-90140996D01*
X71729984Y-90299370D01*
X71460070Y-90591240D01*
X71255645Y-90774679D01*
X71103052Y-90859034D01*
X70988634Y-90853651D01*
X70953338Y-90830868D01*
X70884512Y-90699542D01*
X70921974Y-90554894D01*
X71047961Y-90452502D01*
X71077234Y-90443211D01*
X71223261Y-90363166D01*
X71426733Y-90197209D01*
X71660633Y-89973452D01*
X71897944Y-89720007D01*
X72111651Y-89464988D01*
X72274734Y-89236506D01*
X72329015Y-89140669D01*
X72430857Y-88944136D01*
X72511389Y-88805750D01*
X72540441Y-88767542D01*
X72606596Y-88691005D01*
X72715168Y-88545264D01*
X72746098Y-88501480D01*
X72897769Y-88337637D01*
X73038922Y-88271993D01*
X73142451Y-88308122D01*
X73181284Y-88444081D01*
X73157182Y-88592857D01*
X73115688Y-88657809D01*
X72990270Y-88773901D01*
X72833794Y-88970638D01*
X72671496Y-89208862D01*
X72528614Y-89449414D01*
X72430383Y-89653135D01*
X72400838Y-89767030D01*
X72400838Y-89972010D01*
X72844273Y-89703078D01*
X73092492Y-89539919D01*
X73267655Y-89381775D01*
X73414154Y-89180646D01*
X73548395Y-88941744D01*
X73667477Y-88707427D01*
X73750401Y-88525893D01*
X73782890Y-88428990D01*
X73781478Y-88421739D01*
X73774165Y-88334512D01*
X73851343Y-88230693D01*
X73969459Y-88154841D01*
X74054494Y-88142426D01*
X74194946Y-88210929D01*
X74219163Y-88356849D01*
X74126992Y-88575988D01*
X74073612Y-88659828D01*
X73895792Y-89013851D01*
X73829263Y-89370749D01*
X73853665Y-89600735D01*
X73903115Y-89796313D01*
X74072101Y-89585085D01*
X74177825Y-89437009D01*
X74331721Y-89201581D01*
X74511015Y-88914333D01*
X74651270Y-88681509D01*
X74823671Y-88401147D01*
X74978751Y-88168235D01*
X75098114Y-88009240D01*
X75158550Y-87951653D01*
X75283950Y-87955645D01*
X75458854Y-88015748D01*
X75475254Y-88023698D01*
X75635913Y-88090872D01*
X75749694Y-88081242D01*
X75874804Y-88003038D01*
X76181173Y-87814984D01*
X76424160Y-87734477D01*
X76594755Y-87759631D01*
X76683946Y-87888560D01*
X76682723Y-88119376D01*
X76672546Y-88170084D01*
X76636964Y-88392114D01*
X76608167Y-88684930D01*
X76594767Y-88927179D01*
X76598330Y-89215251D01*
X76642536Y-89373184D01*
X76743302Y-89410566D01*
X76916544Y-89336989D01*
X77088980Y-89224931D01*
X77276516Y-89062151D01*
X77371305Y-88873922D01*
X77396658Y-88754443D01*
X77455028Y-88517086D01*
X77508400Y-88362907D01*
X77862602Y-88362907D01*
X77914830Y-88303383D01*
X78016395Y-88133550D01*
X78163182Y-87857259D01*
X78284464Y-87615144D01*
X78423140Y-87326675D01*
X78531813Y-87088494D01*
X78598860Y-86926931D01*
X78613957Y-86868743D01*
X78555286Y-86897005D01*
X78454717Y-87032871D01*
X78325768Y-87253314D01*
X78181960Y-87535307D01*
X78043096Y-87841093D01*
X77922619Y-88135615D01*
X77863826Y-88308269D01*
X77862602Y-88362907D01*
X77508400Y-88362907D01*
X77551545Y-88238270D01*
X77609046Y-88101943D01*
X77734918Y-87816496D01*
X77861481Y-87513840D01*
X77908254Y-87396386D01*
X78047477Y-87115731D01*
X78237165Y-86832351D01*
X78444104Y-86589800D01*
X78635081Y-86431631D01*
X78650672Y-86422851D01*
X78833016Y-86391339D01*
X78932766Y-86428638D01*
X79032061Y-86513273D01*
X79045598Y-86646318D01*
X79030540Y-86728652D01*
X78962639Y-86921161D01*
X78875361Y-87056786D01*
X78801468Y-87164149D01*
X78687797Y-87368012D01*
X78552197Y-87635206D01*
X78459813Y-87829148D01*
X78304340Y-88145066D01*
X78142249Y-88443150D01*
X77998251Y-88679180D01*
X77936416Y-88765648D01*
X77809361Y-88950068D01*
X77732506Y-89107920D01*
X77722067Y-89158785D01*
X77746385Y-89207883D01*
X77831356Y-89176725D01*
X77995008Y-89057133D01*
X78057398Y-89006675D01*
X78291784Y-88802351D01*
X78523400Y-88581021D01*
X78632347Y-88467006D01*
X78830774Y-88282245D01*
X79081446Y-88096374D01*
X79345131Y-87933608D01*
X79582600Y-87818160D01*
X79754620Y-87774246D01*
X79754721Y-87774246D01*
X79940689Y-87822456D01*
X80106134Y-87939885D01*
X80199233Y-88085731D01*
X80205307Y-88128994D01*
X80151156Y-88273096D01*
X80067459Y-88359400D01*
X79952022Y-88482433D01*
X79825000Y-88679038D01*
X79708002Y-88905725D01*
X79622639Y-89119006D01*
X79590522Y-89275392D01*
X79595813Y-89308515D01*
X79619762Y-89358503D01*
X79656788Y-89376711D01*
X79726421Y-89352519D01*
X79848191Y-89275307D01*
X80041630Y-89134455D01*
X80326267Y-88919344D01*
X80363415Y-88891123D01*
X80705056Y-88621384D01*
X80798456Y-88536350D01*
X81442965Y-88536350D01*
X81485562Y-88574287D01*
X81602988Y-88582078D01*
X81815636Y-88564108D01*
X82143900Y-88524761D01*
X82244264Y-88512364D01*
X82519686Y-88444768D01*
X82679487Y-88334636D01*
X82717002Y-88198550D01*
X82625568Y-88053094D01*
X82470623Y-87948996D01*
X82165355Y-87850465D01*
X81898453Y-87887945D01*
X81673917Y-88059772D01*
X81500688Y-88352502D01*
X81454805Y-88463883D01*
X81442965Y-88536350D01*
X80798456Y-88536350D01*
X80944928Y-88402997D01*
X81102162Y-88213031D01*
G37*
G36*
X64143752Y-87800607D02*
G01*
X64283423Y-87395796D01*
X64529520Y-87051876D01*
X64693155Y-86895560D01*
X64838887Y-86814174D01*
X65008123Y-86801254D01*
X65242275Y-86850333D01*
X65440179Y-86909679D01*
X65714922Y-87014068D01*
X65871312Y-87134263D01*
X65931972Y-87302222D01*
X65919528Y-87549901D01*
X65915096Y-87580536D01*
X65878424Y-87737218D01*
X65806526Y-87906420D01*
X65685345Y-88111915D01*
X65500822Y-88377470D01*
X65238900Y-88726857D01*
X65231228Y-88736885D01*
X65007548Y-89032110D01*
X64818403Y-89287385D01*
X64679014Y-89481721D01*
X64604603Y-89594132D01*
X64596368Y-89612249D01*
X64655505Y-89601669D01*
X64815949Y-89538085D01*
X65052254Y-89432281D01*
X65301011Y-89313661D01*
X65643691Y-89156424D01*
X65923481Y-89048417D01*
X66116158Y-88998450D01*
X66170145Y-88997591D01*
X66230364Y-89022819D01*
X66199159Y-89070868D01*
X66062915Y-89152693D01*
X65837988Y-89264869D01*
X65539214Y-89414614D01*
X65238398Y-89575056D01*
X65006874Y-89707792D01*
X64672407Y-89911778D01*
X64860171Y-90248080D01*
X64961333Y-90469881D01*
X65004719Y-90651788D01*
X64991383Y-90769243D01*
X64922378Y-90797685D01*
X64838667Y-90749134D01*
X64736735Y-90628808D01*
X64619892Y-90442918D01*
X64589741Y-90386394D01*
X64491211Y-90220044D01*
X64408175Y-90124535D01*
X64387227Y-90115587D01*
X64298032Y-90169527D01*
X64181883Y-90297032D01*
X64078914Y-90446629D01*
X64029259Y-90566842D01*
X64028771Y-90575328D01*
X63990494Y-90678323D01*
X63890042Y-90861857D01*
X63748981Y-91091912D01*
X63588877Y-91334473D01*
X63431298Y-91555523D01*
X63313866Y-91702919D01*
X63138195Y-91848171D01*
X62971268Y-91888977D01*
X62869925Y-91842030D01*
X62826092Y-91742705D01*
X62850862Y-91585395D01*
X62950036Y-91352492D01*
X63129416Y-91026390D01*
X63150450Y-90990583D01*
X63347315Y-90687347D01*
X63572991Y-90385549D01*
X63784872Y-90141365D01*
X63824472Y-90101850D01*
X64014580Y-89896058D01*
X64141955Y-89712374D01*
X64180956Y-89605202D01*
X64188170Y-89330519D01*
X64183588Y-88985876D01*
X64169254Y-88632105D01*
X64147212Y-88330040D01*
X64146367Y-88322815D01*
X64429054Y-88322815D01*
X64479614Y-88784422D01*
X64480477Y-88789797D01*
X64512336Y-88953458D01*
X64552620Y-89043846D01*
X64613784Y-89052545D01*
X64708287Y-88971140D01*
X64848584Y-88791216D01*
X65047131Y-88504358D01*
X65166847Y-88326115D01*
X65409289Y-87940242D01*
X65552990Y-87646611D01*
X65596667Y-87434326D01*
X65539038Y-87292495D01*
X65378820Y-87210220D01*
X65114732Y-87176609D01*
X65031309Y-87174522D01*
X64812696Y-87189696D01*
X64671119Y-87258479D01*
X64575298Y-87364543D01*
X64478702Y-87585732D01*
X64429352Y-87914204D01*
X64429054Y-88322815D01*
X64146367Y-88322815D01*
X64134456Y-88221016D01*
X64143752Y-87800607D01*
G37*
G36*
X72838453Y-82604569D02*
G01*
X72917615Y-82626778D01*
X72897486Y-82665866D01*
X72763900Y-82706920D01*
X72555531Y-82727945D01*
X72471787Y-82728657D01*
X72291576Y-82721342D01*
X72240436Y-82704962D01*
X72305577Y-82673857D01*
X72329888Y-82665866D01*
X72507773Y-82624113D01*
X72689567Y-82603681D01*
X72838453Y-82604569D01*
G37*
X91076267Y-69593750D02*
X90783733Y-69593750D01*
X91076267Y-70613750D02*
X90783733Y-70613750D01*
X90590000Y-55000000D02*
X98440000Y-55000000D01*
X98440000Y-66940000D02*
X90590000Y-66940000D01*
X90260000Y-54670000D02*
X90260000Y-57000000D01*
X90590000Y-66940000D02*
X90590000Y-55000000D01*
X98440000Y-55000000D02*
X98440000Y-66940000D01*
X92710000Y-54670000D02*
X90260000Y-54670000D01*
X112802500Y-66192224D02*
X112802500Y-65682776D01*
X113847500Y-66192224D02*
X113847500Y-65682776D01*
X107772500Y-69167224D02*
X107772500Y-68657776D01*
X106727500Y-69167224D02*
X106727500Y-68657776D01*
X124632777Y-49947500D02*
X125142225Y-49947500D01*
X124632777Y-48902500D02*
X125142225Y-48902500D01*
X119374999Y-79681250D02*
G75*
G03*
X119374999Y-79681250I-1200000J0D01*
G01*
X137960000Y-57685000D02*
X135500000Y-57685000D01*
X135500000Y-57685000D02*
X135500000Y-59155000D01*
X135500000Y-59155000D02*
X137960000Y-59155000D01*
X135500000Y-54075000D02*
X137960000Y-54075000D01*
X137960000Y-52605000D02*
X135500000Y-52605000D01*
X135500000Y-52605000D02*
X135500000Y-54075000D01*
X105770000Y-69300000D02*
G75*
G03*
X105770000Y-69300000I-1200000J0D01*
G01*
X94346233Y-70613750D02*
X94638767Y-70613750D01*
X94346233Y-69593750D02*
X94638767Y-69593750D01*
M02*
