G04 #@! TF.GenerationSoftware,KiCad,Pcbnew,(6.0.8)*
G04 #@! TF.CreationDate,2022-11-19T16:18:39-06:00*
G04 #@! TF.ProjectId,NavBoard_Hardware,4e617642-6f61-4726-945f-486172647761,rev?*
G04 #@! TF.SameCoordinates,Original*
G04 #@! TF.FileFunction,Legend,Top*
G04 #@! TF.FilePolarity,Positive*
%FSLAX46Y46*%
G04 Gerber Fmt 4.6, Leading zero omitted, Abs format (unit mm)*
G04 Created by KiCad (PCBNEW (6.0.8)) date 2022-11-19 16:18:39*
%MOMM*%
%LPD*%
G01*
G04 APERTURE LIST*
G04 Aperture macros list*
%AMRoundRect*
0 Rectangle with rounded corners*
0 $1 Rounding radius*
0 $2 $3 $4 $5 $6 $7 $8 $9 X,Y pos of 4 corners*
0 Add a 4 corners polygon primitive as box body*
4,1,4,$2,$3,$4,$5,$6,$7,$8,$9,$2,$3,0*
0 Add four circle primitives for the rounded corners*
1,1,$1+$1,$2,$3*
1,1,$1+$1,$4,$5*
1,1,$1+$1,$6,$7*
1,1,$1+$1,$8,$9*
0 Add four rect primitives between the rounded corners*
20,1,$1+$1,$2,$3,$4,$5,0*
20,1,$1+$1,$4,$5,$6,$7,0*
20,1,$1+$1,$6,$7,$8,$9,0*
20,1,$1+$1,$8,$9,$2,$3,0*%
G04 Aperture macros list end*
%ADD10C,0.150000*%
%ADD11C,0.750000*%
%ADD12C,0.120000*%
%ADD13C,0.100000*%
%ADD14C,0.127000*%
%ADD15C,0.200000*%
%ADD16RoundRect,0.237500X-0.237500X0.250000X-0.237500X-0.250000X0.237500X-0.250000X0.237500X0.250000X0*%
%ADD17RoundRect,0.237500X0.300000X0.237500X-0.300000X0.237500X-0.300000X-0.237500X0.300000X-0.237500X0*%
%ADD18C,1.500000*%
%ADD19RoundRect,0.237500X-0.250000X-0.237500X0.250000X-0.237500X0.250000X0.237500X-0.250000X0.237500X0*%
%ADD20R,1.800000X1.800000*%
%ADD21C,1.800000*%
%ADD22R,0.228600X0.875000*%
%ADD23R,0.228600X1.000000*%
%ADD24R,0.850000X0.228600*%
%ADD25R,1.000000X0.228600*%
%ADD26R,0.228600X0.850000*%
%ADD27R,0.875000X0.228600*%
%ADD28RoundRect,0.237500X-0.300000X-0.237500X0.300000X-0.237500X0.300000X0.237500X-0.300000X0.237500X0*%
%ADD29RoundRect,0.237500X-0.237500X0.300000X-0.237500X-0.300000X0.237500X-0.300000X0.237500X0.300000X0*%
%ADD30RoundRect,0.250000X-0.650000X0.412500X-0.650000X-0.412500X0.650000X-0.412500X0.650000X0.412500X0*%
%ADD31RoundRect,0.237500X0.237500X-0.287500X0.237500X0.287500X-0.237500X0.287500X-0.237500X-0.287500X0*%
%ADD32R,1.200000X0.350000*%
%ADD33R,0.350000X1.200000*%
%ADD34C,6.000000*%
%ADD35RoundRect,0.237500X0.287500X0.237500X-0.287500X0.237500X-0.287500X-0.237500X0.287500X-0.237500X0*%
%ADD36RoundRect,0.237500X0.237500X-0.250000X0.237500X0.250000X-0.237500X0.250000X-0.237500X-0.250000X0*%
%ADD37RoundRect,0.237500X0.250000X0.237500X-0.250000X0.237500X-0.250000X-0.237500X0.250000X-0.237500X0*%
%ADD38RoundRect,0.237500X0.237500X-0.300000X0.237500X0.300000X-0.237500X0.300000X-0.237500X-0.300000X0*%
%ADD39C,3.000000*%
%ADD40RoundRect,0.250001X0.759999X-0.499999X0.759999X0.499999X-0.759999X0.499999X-0.759999X-0.499999X0*%
%ADD41O,2.020000X1.500000*%
%ADD42C,3.250000*%
%ADD43RoundRect,0.250500X-0.499500X0.499500X-0.499500X-0.499500X0.499500X-0.499500X0.499500X0.499500X0*%
%ADD44C,2.500000*%
%ADD45RoundRect,0.237500X0.008839X0.344715X-0.344715X-0.008839X-0.008839X-0.344715X0.344715X0.008839X0*%
%ADD46RoundRect,0.237500X-0.237500X0.287500X-0.237500X-0.287500X0.237500X-0.287500X0.237500X0.287500X0*%
%ADD47R,1.600000X1.600000*%
%ADD48C,1.600000*%
%ADD49R,1.300000X1.300000*%
%ADD50C,1.300000*%
%ADD51C,5.080000*%
G04 APERTURE END LIST*
D10*
X155702380Y-103592857D02*
X155226190Y-103926190D01*
X155702380Y-104164285D02*
X154702380Y-104164285D01*
X154702380Y-103783333D01*
X154750000Y-103688095D01*
X154797619Y-103640476D01*
X154892857Y-103592857D01*
X155035714Y-103592857D01*
X155130952Y-103640476D01*
X155178571Y-103688095D01*
X155226190Y-103783333D01*
X155226190Y-104164285D01*
X155702380Y-102640476D02*
X155702380Y-103211904D01*
X155702380Y-102926190D02*
X154702380Y-102926190D01*
X154845238Y-103021428D01*
X154940476Y-103116666D01*
X154988095Y-103211904D01*
X154702380Y-102021428D02*
X154702380Y-101926190D01*
X154750000Y-101830952D01*
X154797619Y-101783333D01*
X154892857Y-101735714D01*
X155083333Y-101688095D01*
X155321428Y-101688095D01*
X155511904Y-101735714D01*
X155607142Y-101783333D01*
X155654761Y-101830952D01*
X155702380Y-101926190D01*
X155702380Y-102021428D01*
X155654761Y-102116666D01*
X155607142Y-102164285D01*
X155511904Y-102211904D01*
X155321428Y-102259523D01*
X155083333Y-102259523D01*
X154892857Y-102211904D01*
X154797619Y-102164285D01*
X154750000Y-102116666D01*
X154702380Y-102021428D01*
X161233333Y-92307142D02*
X161185714Y-92354761D01*
X161042857Y-92402380D01*
X160947619Y-92402380D01*
X160804761Y-92354761D01*
X160709523Y-92259523D01*
X160661904Y-92164285D01*
X160614285Y-91973809D01*
X160614285Y-91830952D01*
X160661904Y-91640476D01*
X160709523Y-91545238D01*
X160804761Y-91450000D01*
X160947619Y-91402380D01*
X161042857Y-91402380D01*
X161185714Y-91450000D01*
X161233333Y-91497619D01*
X162138095Y-91402380D02*
X161661904Y-91402380D01*
X161614285Y-91878571D01*
X161661904Y-91830952D01*
X161757142Y-91783333D01*
X161995238Y-91783333D01*
X162090476Y-91830952D01*
X162138095Y-91878571D01*
X162185714Y-91973809D01*
X162185714Y-92211904D01*
X162138095Y-92307142D01*
X162090476Y-92354761D01*
X161995238Y-92402380D01*
X161757142Y-92402380D01*
X161661904Y-92354761D01*
X161614285Y-92307142D01*
X135188095Y-92402380D02*
X135759523Y-92402380D01*
X135473809Y-93402380D02*
X135473809Y-92402380D01*
X136092857Y-93402380D02*
X136092857Y-92402380D01*
X136473809Y-92402380D01*
X136569047Y-92450000D01*
X136616666Y-92497619D01*
X136664285Y-92592857D01*
X136664285Y-92735714D01*
X136616666Y-92830952D01*
X136569047Y-92878571D01*
X136473809Y-92926190D01*
X136092857Y-92926190D01*
X136997619Y-92402380D02*
X137616666Y-92402380D01*
X137283333Y-92783333D01*
X137426190Y-92783333D01*
X137521428Y-92830952D01*
X137569047Y-92878571D01*
X137616666Y-92973809D01*
X137616666Y-93211904D01*
X137569047Y-93307142D01*
X137521428Y-93354761D01*
X137426190Y-93402380D01*
X137140476Y-93402380D01*
X137045238Y-93354761D01*
X136997619Y-93307142D01*
X169957142Y-93152380D02*
X169623809Y-92676190D01*
X169385714Y-93152380D02*
X169385714Y-92152380D01*
X169766666Y-92152380D01*
X169861904Y-92200000D01*
X169909523Y-92247619D01*
X169957142Y-92342857D01*
X169957142Y-92485714D01*
X169909523Y-92580952D01*
X169861904Y-92628571D01*
X169766666Y-92676190D01*
X169385714Y-92676190D01*
X170909523Y-93152380D02*
X170338095Y-93152380D01*
X170623809Y-93152380D02*
X170623809Y-92152380D01*
X170528571Y-92295238D01*
X170433333Y-92390476D01*
X170338095Y-92438095D01*
X171242857Y-92152380D02*
X171909523Y-92152380D01*
X171480952Y-93152380D01*
X125927619Y-96475595D02*
X125927619Y-97047023D01*
X124927619Y-96761309D02*
X125927619Y-96761309D01*
X124975238Y-97332738D02*
X124927619Y-97475595D01*
X124927619Y-97713690D01*
X124975238Y-97808928D01*
X125022857Y-97856547D01*
X125118095Y-97904166D01*
X125213333Y-97904166D01*
X125308571Y-97856547D01*
X125356190Y-97808928D01*
X125403809Y-97713690D01*
X125451428Y-97523214D01*
X125499047Y-97427976D01*
X125546666Y-97380357D01*
X125641904Y-97332738D01*
X125737142Y-97332738D01*
X125832380Y-97380357D01*
X125880000Y-97427976D01*
X125927619Y-97523214D01*
X125927619Y-97761309D01*
X125880000Y-97904166D01*
X124927619Y-98904166D02*
X125403809Y-98570833D01*
X124927619Y-98332738D02*
X125927619Y-98332738D01*
X125927619Y-98713690D01*
X125880000Y-98808928D01*
X125832380Y-98856547D01*
X125737142Y-98904166D01*
X125594285Y-98904166D01*
X125499047Y-98856547D01*
X125451428Y-98808928D01*
X125403809Y-98713690D01*
X125403809Y-98332738D01*
X123527619Y-96904166D02*
X123527619Y-97094642D01*
X123480000Y-97189880D01*
X123384761Y-97285119D01*
X123194285Y-97332738D01*
X122860952Y-97332738D01*
X122670476Y-97285119D01*
X122575238Y-97189880D01*
X122527619Y-97094642D01*
X122527619Y-96904166D01*
X122575238Y-96808928D01*
X122670476Y-96713690D01*
X122860952Y-96666071D01*
X123194285Y-96666071D01*
X123384761Y-96713690D01*
X123480000Y-96808928D01*
X123527619Y-96904166D01*
X122527619Y-97761309D02*
X123527619Y-97761309D01*
X122527619Y-98332738D02*
X123099047Y-97904166D01*
X123527619Y-98332738D02*
X122956190Y-97761309D01*
X122527619Y-98761309D02*
X123527619Y-98761309D01*
X156938095Y-96990950D02*
X156938095Y-97800474D01*
X156985714Y-97895712D01*
X157033333Y-97943331D01*
X157128571Y-97990950D01*
X157319047Y-97990950D01*
X157414285Y-97943331D01*
X157461904Y-97895712D01*
X157509523Y-97800474D01*
X157509523Y-96990950D01*
X157890476Y-96990950D02*
X158509523Y-96990950D01*
X158176190Y-97371903D01*
X158319047Y-97371903D01*
X158414285Y-97419522D01*
X158461904Y-97467141D01*
X158509523Y-97562379D01*
X158509523Y-97800474D01*
X158461904Y-97895712D01*
X158414285Y-97943331D01*
X158319047Y-97990950D01*
X158033333Y-97990950D01*
X157938095Y-97943331D01*
X157890476Y-97895712D01*
X158302380Y-99200000D02*
X158540476Y-99200000D01*
X158445238Y-99438095D02*
X158540476Y-99200000D01*
X158445238Y-98961904D01*
X158730952Y-99342857D02*
X158540476Y-99200000D01*
X158730952Y-99057142D01*
X158302380Y-99200000D02*
X158540476Y-99200000D01*
X158445238Y-99438095D02*
X158540476Y-99200000D01*
X158445238Y-98961904D01*
X158730952Y-99342857D02*
X158540476Y-99200000D01*
X158730952Y-99057142D01*
X115783333Y-103607142D02*
X115735714Y-103654761D01*
X115592857Y-103702380D01*
X115497619Y-103702380D01*
X115354761Y-103654761D01*
X115259523Y-103559523D01*
X115211904Y-103464285D01*
X115164285Y-103273809D01*
X115164285Y-103130952D01*
X115211904Y-102940476D01*
X115259523Y-102845238D01*
X115354761Y-102750000D01*
X115497619Y-102702380D01*
X115592857Y-102702380D01*
X115735714Y-102750000D01*
X115783333Y-102797619D01*
X116735714Y-103702380D02*
X116164285Y-103702380D01*
X116450000Y-103702380D02*
X116450000Y-102702380D01*
X116354761Y-102845238D01*
X116259523Y-102940476D01*
X116164285Y-102988095D01*
X141807142Y-101092857D02*
X141854761Y-101140476D01*
X141902380Y-101283333D01*
X141902380Y-101378571D01*
X141854761Y-101521428D01*
X141759523Y-101616666D01*
X141664285Y-101664285D01*
X141473809Y-101711904D01*
X141330952Y-101711904D01*
X141140476Y-101664285D01*
X141045238Y-101616666D01*
X140950000Y-101521428D01*
X140902380Y-101378571D01*
X140902380Y-101283333D01*
X140950000Y-101140476D01*
X140997619Y-101092857D01*
X141902380Y-100140476D02*
X141902380Y-100711904D01*
X141902380Y-100426190D02*
X140902380Y-100426190D01*
X141045238Y-100521428D01*
X141140476Y-100616666D01*
X141188095Y-100711904D01*
X140997619Y-99759523D02*
X140950000Y-99711904D01*
X140902380Y-99616666D01*
X140902380Y-99378571D01*
X140950000Y-99283333D01*
X140997619Y-99235714D01*
X141092857Y-99188095D01*
X141188095Y-99188095D01*
X141330952Y-99235714D01*
X141902380Y-99807142D01*
X141902380Y-99188095D01*
X166438095Y-101802380D02*
X167009523Y-101802380D01*
X166723809Y-102802380D02*
X166723809Y-101802380D01*
X167342857Y-102802380D02*
X167342857Y-101802380D01*
X167723809Y-101802380D01*
X167819047Y-101850000D01*
X167866666Y-101897619D01*
X167914285Y-101992857D01*
X167914285Y-102135714D01*
X167866666Y-102230952D01*
X167819047Y-102278571D01*
X167723809Y-102326190D01*
X167342857Y-102326190D01*
X168295238Y-101897619D02*
X168342857Y-101850000D01*
X168438095Y-101802380D01*
X168676190Y-101802380D01*
X168771428Y-101850000D01*
X168819047Y-101897619D01*
X168866666Y-101992857D01*
X168866666Y-102088095D01*
X168819047Y-102230952D01*
X168247619Y-102802380D01*
X168866666Y-102802380D01*
X135188095Y-93852380D02*
X135759523Y-93852380D01*
X135473809Y-94852380D02*
X135473809Y-93852380D01*
X136092857Y-94852380D02*
X136092857Y-93852380D01*
X136473809Y-93852380D01*
X136569047Y-93900000D01*
X136616666Y-93947619D01*
X136664285Y-94042857D01*
X136664285Y-94185714D01*
X136616666Y-94280952D01*
X136569047Y-94328571D01*
X136473809Y-94376190D01*
X136092857Y-94376190D01*
X137521428Y-94185714D02*
X137521428Y-94852380D01*
X137283333Y-93804761D02*
X137045238Y-94519047D01*
X137664285Y-94519047D01*
X169957142Y-94402380D02*
X169623809Y-93926190D01*
X169385714Y-94402380D02*
X169385714Y-93402380D01*
X169766666Y-93402380D01*
X169861904Y-93450000D01*
X169909523Y-93497619D01*
X169957142Y-93592857D01*
X169957142Y-93735714D01*
X169909523Y-93830952D01*
X169861904Y-93878571D01*
X169766666Y-93926190D01*
X169385714Y-93926190D01*
X170909523Y-94402380D02*
X170338095Y-94402380D01*
X170623809Y-94402380D02*
X170623809Y-93402380D01*
X170528571Y-93545238D01*
X170433333Y-93640476D01*
X170338095Y-93688095D01*
X171766666Y-93402380D02*
X171576190Y-93402380D01*
X171480952Y-93450000D01*
X171433333Y-93497619D01*
X171338095Y-93640476D01*
X171290476Y-93830952D01*
X171290476Y-94211904D01*
X171338095Y-94307142D01*
X171385714Y-94354761D01*
X171480952Y-94402380D01*
X171671428Y-94402380D01*
X171766666Y-94354761D01*
X171814285Y-94307142D01*
X171861904Y-94211904D01*
X171861904Y-93973809D01*
X171814285Y-93878571D01*
X171766666Y-93830952D01*
X171671428Y-93783333D01*
X171480952Y-93783333D01*
X171385714Y-93830952D01*
X171338095Y-93878571D01*
X171290476Y-93973809D01*
X116807142Y-90966666D02*
X116854761Y-91014285D01*
X116902380Y-91157142D01*
X116902380Y-91252380D01*
X116854761Y-91395238D01*
X116759523Y-91490476D01*
X116664285Y-91538095D01*
X116473809Y-91585714D01*
X116330952Y-91585714D01*
X116140476Y-91538095D01*
X116045238Y-91490476D01*
X115950000Y-91395238D01*
X115902380Y-91252380D01*
X115902380Y-91157142D01*
X115950000Y-91014285D01*
X115997619Y-90966666D01*
X115997619Y-90585714D02*
X115950000Y-90538095D01*
X115902380Y-90442857D01*
X115902380Y-90204761D01*
X115950000Y-90109523D01*
X115997619Y-90061904D01*
X116092857Y-90014285D01*
X116188095Y-90014285D01*
X116330952Y-90061904D01*
X116902380Y-90633333D01*
X116902380Y-90014285D01*
X128452380Y-103538095D02*
X127452380Y-103538095D01*
X127452380Y-103300000D01*
X127500000Y-103157142D01*
X127595238Y-103061904D01*
X127690476Y-103014285D01*
X127880952Y-102966666D01*
X128023809Y-102966666D01*
X128214285Y-103014285D01*
X128309523Y-103061904D01*
X128404761Y-103157142D01*
X128452380Y-103300000D01*
X128452380Y-103538095D01*
X127452380Y-102061904D02*
X127452380Y-102538095D01*
X127928571Y-102585714D01*
X127880952Y-102538095D01*
X127833333Y-102442857D01*
X127833333Y-102204761D01*
X127880952Y-102109523D01*
X127928571Y-102061904D01*
X128023809Y-102014285D01*
X128261904Y-102014285D01*
X128357142Y-102061904D01*
X128404761Y-102109523D01*
X128452380Y-102204761D01*
X128452380Y-102442857D01*
X128404761Y-102538095D01*
X128357142Y-102585714D01*
X143333333Y-102857142D02*
X143285714Y-102904761D01*
X143142857Y-102952380D01*
X143047619Y-102952380D01*
X142904761Y-102904761D01*
X142809523Y-102809523D01*
X142761904Y-102714285D01*
X142714285Y-102523809D01*
X142714285Y-102380952D01*
X142761904Y-102190476D01*
X142809523Y-102095238D01*
X142904761Y-102000000D01*
X143047619Y-101952380D01*
X143142857Y-101952380D01*
X143285714Y-102000000D01*
X143333333Y-102047619D01*
X143809523Y-102952380D02*
X144000000Y-102952380D01*
X144095238Y-102904761D01*
X144142857Y-102857142D01*
X144238095Y-102714285D01*
X144285714Y-102523809D01*
X144285714Y-102142857D01*
X144238095Y-102047619D01*
X144190476Y-102000000D01*
X144095238Y-101952380D01*
X143904761Y-101952380D01*
X143809523Y-102000000D01*
X143761904Y-102047619D01*
X143714285Y-102142857D01*
X143714285Y-102380952D01*
X143761904Y-102476190D01*
X143809523Y-102523809D01*
X143904761Y-102571428D01*
X144095238Y-102571428D01*
X144190476Y-102523809D01*
X144238095Y-102476190D01*
X144285714Y-102380952D01*
X142638095Y-92752380D02*
X142638095Y-93561904D01*
X142685714Y-93657142D01*
X142733333Y-93704761D01*
X142828571Y-93752380D01*
X143019047Y-93752380D01*
X143114285Y-93704761D01*
X143161904Y-93657142D01*
X143209523Y-93561904D01*
X143209523Y-92752380D01*
X144114285Y-93085714D02*
X144114285Y-93752380D01*
X143876190Y-92704761D02*
X143638095Y-93419047D01*
X144257142Y-93419047D01*
X192032380Y-110774523D02*
X192032380Y-109504523D01*
X192032380Y-110109285D02*
X192758095Y-110109285D01*
X192758095Y-110774523D02*
X192758095Y-109504523D01*
X193241904Y-109504523D02*
X194028095Y-109504523D01*
X193604761Y-109988333D01*
X193786190Y-109988333D01*
X193907142Y-110048809D01*
X193967619Y-110109285D01*
X194028095Y-110230238D01*
X194028095Y-110532619D01*
X193967619Y-110653571D01*
X193907142Y-110714047D01*
X193786190Y-110774523D01*
X193423333Y-110774523D01*
X193302380Y-110714047D01*
X193241904Y-110653571D01*
X175961904Y-99152380D02*
X175961904Y-98152380D01*
X176200000Y-98152380D01*
X176342857Y-98200000D01*
X176438095Y-98295238D01*
X176485714Y-98390476D01*
X176533333Y-98580952D01*
X176533333Y-98723809D01*
X176485714Y-98914285D01*
X176438095Y-99009523D01*
X176342857Y-99104761D01*
X176200000Y-99152380D01*
X175961904Y-99152380D01*
X176914285Y-98247619D02*
X176961904Y-98200000D01*
X177057142Y-98152380D01*
X177295238Y-98152380D01*
X177390476Y-98200000D01*
X177438095Y-98247619D01*
X177485714Y-98342857D01*
X177485714Y-98438095D01*
X177438095Y-98580952D01*
X176866666Y-99152380D01*
X177485714Y-99152380D01*
X167383333Y-99207142D02*
X167335714Y-99254761D01*
X167192857Y-99302380D01*
X167097619Y-99302380D01*
X166954761Y-99254761D01*
X166859523Y-99159523D01*
X166811904Y-99064285D01*
X166764285Y-98873809D01*
X166764285Y-98730952D01*
X166811904Y-98540476D01*
X166859523Y-98445238D01*
X166954761Y-98350000D01*
X167097619Y-98302380D01*
X167192857Y-98302380D01*
X167335714Y-98350000D01*
X167383333Y-98397619D01*
X167954761Y-98730952D02*
X167859523Y-98683333D01*
X167811904Y-98635714D01*
X167764285Y-98540476D01*
X167764285Y-98492857D01*
X167811904Y-98397619D01*
X167859523Y-98350000D01*
X167954761Y-98302380D01*
X168145238Y-98302380D01*
X168240476Y-98350000D01*
X168288095Y-98397619D01*
X168335714Y-98492857D01*
X168335714Y-98540476D01*
X168288095Y-98635714D01*
X168240476Y-98683333D01*
X168145238Y-98730952D01*
X167954761Y-98730952D01*
X167859523Y-98778571D01*
X167811904Y-98826190D01*
X167764285Y-98921428D01*
X167764285Y-99111904D01*
X167811904Y-99207142D01*
X167859523Y-99254761D01*
X167954761Y-99302380D01*
X168145238Y-99302380D01*
X168240476Y-99254761D01*
X168288095Y-99207142D01*
X168335714Y-99111904D01*
X168335714Y-98921428D01*
X168288095Y-98826190D01*
X168240476Y-98778571D01*
X168145238Y-98730952D01*
X130002380Y-99642857D02*
X129526190Y-99976190D01*
X130002380Y-100214285D02*
X129002380Y-100214285D01*
X129002380Y-99833333D01*
X129050000Y-99738095D01*
X129097619Y-99690476D01*
X129192857Y-99642857D01*
X129335714Y-99642857D01*
X129430952Y-99690476D01*
X129478571Y-99738095D01*
X129526190Y-99833333D01*
X129526190Y-100214285D01*
X130002380Y-98690476D02*
X130002380Y-99261904D01*
X130002380Y-98976190D02*
X129002380Y-98976190D01*
X129145238Y-99071428D01*
X129240476Y-99166666D01*
X129288095Y-99261904D01*
X129430952Y-98119047D02*
X129383333Y-98214285D01*
X129335714Y-98261904D01*
X129240476Y-98309523D01*
X129192857Y-98309523D01*
X129097619Y-98261904D01*
X129050000Y-98214285D01*
X129002380Y-98119047D01*
X129002380Y-97928571D01*
X129050000Y-97833333D01*
X129097619Y-97785714D01*
X129192857Y-97738095D01*
X129240476Y-97738095D01*
X129335714Y-97785714D01*
X129383333Y-97833333D01*
X129430952Y-97928571D01*
X129430952Y-98119047D01*
X129478571Y-98214285D01*
X129526190Y-98261904D01*
X129621428Y-98309523D01*
X129811904Y-98309523D01*
X129907142Y-98261904D01*
X129954761Y-98214285D01*
X130002380Y-98119047D01*
X130002380Y-97928571D01*
X129954761Y-97833333D01*
X129907142Y-97785714D01*
X129811904Y-97738095D01*
X129621428Y-97738095D01*
X129526190Y-97785714D01*
X129478571Y-97833333D01*
X129430952Y-97928571D01*
X155133333Y-101202380D02*
X154800000Y-100726190D01*
X154561904Y-101202380D02*
X154561904Y-100202380D01*
X154942857Y-100202380D01*
X155038095Y-100250000D01*
X155085714Y-100297619D01*
X155133333Y-100392857D01*
X155133333Y-100535714D01*
X155085714Y-100630952D01*
X155038095Y-100678571D01*
X154942857Y-100726190D01*
X154561904Y-100726190D01*
X155609523Y-101202380D02*
X155800000Y-101202380D01*
X155895238Y-101154761D01*
X155942857Y-101107142D01*
X156038095Y-100964285D01*
X156085714Y-100773809D01*
X156085714Y-100392857D01*
X156038095Y-100297619D01*
X155990476Y-100250000D01*
X155895238Y-100202380D01*
X155704761Y-100202380D01*
X155609523Y-100250000D01*
X155561904Y-100297619D01*
X155514285Y-100392857D01*
X155514285Y-100630952D01*
X155561904Y-100726190D01*
X155609523Y-100773809D01*
X155704761Y-100821428D01*
X155895238Y-100821428D01*
X155990476Y-100773809D01*
X156038095Y-100726190D01*
X156085714Y-100630952D01*
X136202380Y-97742857D02*
X135726190Y-98076190D01*
X136202380Y-98314285D02*
X135202380Y-98314285D01*
X135202380Y-97933333D01*
X135250000Y-97838095D01*
X135297619Y-97790476D01*
X135392857Y-97742857D01*
X135535714Y-97742857D01*
X135630952Y-97790476D01*
X135678571Y-97838095D01*
X135726190Y-97933333D01*
X135726190Y-98314285D01*
X136202380Y-96790476D02*
X136202380Y-97361904D01*
X136202380Y-97076190D02*
X135202380Y-97076190D01*
X135345238Y-97171428D01*
X135440476Y-97266666D01*
X135488095Y-97361904D01*
X135202380Y-96457142D02*
X135202380Y-95838095D01*
X135583333Y-96171428D01*
X135583333Y-96028571D01*
X135630952Y-95933333D01*
X135678571Y-95885714D01*
X135773809Y-95838095D01*
X136011904Y-95838095D01*
X136107142Y-95885714D01*
X136154761Y-95933333D01*
X136202380Y-96028571D01*
X136202380Y-96314285D01*
X136154761Y-96409523D01*
X136107142Y-96457142D01*
X192032380Y-85674523D02*
X192032380Y-84404523D01*
X192032380Y-85009285D02*
X192758095Y-85009285D01*
X192758095Y-85674523D02*
X192758095Y-84404523D01*
X193302380Y-84525476D02*
X193362857Y-84465000D01*
X193483809Y-84404523D01*
X193786190Y-84404523D01*
X193907142Y-84465000D01*
X193967619Y-84525476D01*
X194028095Y-84646428D01*
X194028095Y-84767380D01*
X193967619Y-84948809D01*
X193241904Y-85674523D01*
X194028095Y-85674523D01*
X175911904Y-95902380D02*
X175911904Y-94902380D01*
X176150000Y-94902380D01*
X176292857Y-94950000D01*
X176388095Y-95045238D01*
X176435714Y-95140476D01*
X176483333Y-95330952D01*
X176483333Y-95473809D01*
X176435714Y-95664285D01*
X176388095Y-95759523D01*
X176292857Y-95854761D01*
X176150000Y-95902380D01*
X175911904Y-95902380D01*
X177340476Y-95235714D02*
X177340476Y-95902380D01*
X177102380Y-94854761D02*
X176864285Y-95569047D01*
X177483333Y-95569047D01*
X175911904Y-97452380D02*
X175911904Y-96452380D01*
X176150000Y-96452380D01*
X176292857Y-96500000D01*
X176388095Y-96595238D01*
X176435714Y-96690476D01*
X176483333Y-96880952D01*
X176483333Y-97023809D01*
X176435714Y-97214285D01*
X176388095Y-97309523D01*
X176292857Y-97404761D01*
X176150000Y-97452380D01*
X175911904Y-97452380D01*
X176816666Y-96452380D02*
X177435714Y-96452380D01*
X177102380Y-96833333D01*
X177245238Y-96833333D01*
X177340476Y-96880952D01*
X177388095Y-96928571D01*
X177435714Y-97023809D01*
X177435714Y-97261904D01*
X177388095Y-97357142D01*
X177340476Y-97404761D01*
X177245238Y-97452380D01*
X176959523Y-97452380D01*
X176864285Y-97404761D01*
X176816666Y-97357142D01*
X169844642Y-100552380D02*
X169511309Y-100076190D01*
X169273214Y-100552380D02*
X169273214Y-99552380D01*
X169654166Y-99552380D01*
X169749404Y-99600000D01*
X169797023Y-99647619D01*
X169844642Y-99742857D01*
X169844642Y-99885714D01*
X169797023Y-99980952D01*
X169749404Y-100028571D01*
X169654166Y-100076190D01*
X169273214Y-100076190D01*
X170797023Y-100552380D02*
X170225595Y-100552380D01*
X170511309Y-100552380D02*
X170511309Y-99552380D01*
X170416071Y-99695238D01*
X170320833Y-99790476D01*
X170225595Y-99838095D01*
X171701785Y-99552380D02*
X171225595Y-99552380D01*
X171177976Y-100028571D01*
X171225595Y-99980952D01*
X171320833Y-99933333D01*
X171558928Y-99933333D01*
X171654166Y-99980952D01*
X171701785Y-100028571D01*
X171749404Y-100123809D01*
X171749404Y-100361904D01*
X171701785Y-100457142D01*
X171654166Y-100504761D01*
X171558928Y-100552380D01*
X171320833Y-100552380D01*
X171225595Y-100504761D01*
X171177976Y-100457142D01*
X137852380Y-97792857D02*
X137376190Y-98126190D01*
X137852380Y-98364285D02*
X136852380Y-98364285D01*
X136852380Y-97983333D01*
X136900000Y-97888095D01*
X136947619Y-97840476D01*
X137042857Y-97792857D01*
X137185714Y-97792857D01*
X137280952Y-97840476D01*
X137328571Y-97888095D01*
X137376190Y-97983333D01*
X137376190Y-98364285D01*
X137852380Y-96840476D02*
X137852380Y-97411904D01*
X137852380Y-97126190D02*
X136852380Y-97126190D01*
X136995238Y-97221428D01*
X137090476Y-97316666D01*
X137138095Y-97411904D01*
X137185714Y-95983333D02*
X137852380Y-95983333D01*
X136804761Y-96221428D02*
X137519047Y-96459523D01*
X137519047Y-95840476D01*
X115707142Y-105116666D02*
X115754761Y-105164285D01*
X115802380Y-105307142D01*
X115802380Y-105402380D01*
X115754761Y-105545238D01*
X115659523Y-105640476D01*
X115564285Y-105688095D01*
X115373809Y-105735714D01*
X115230952Y-105735714D01*
X115040476Y-105688095D01*
X114945238Y-105640476D01*
X114850000Y-105545238D01*
X114802380Y-105402380D01*
X114802380Y-105307142D01*
X114850000Y-105164285D01*
X114897619Y-105116666D01*
X114802380Y-104783333D02*
X114802380Y-104164285D01*
X115183333Y-104497619D01*
X115183333Y-104354761D01*
X115230952Y-104259523D01*
X115278571Y-104211904D01*
X115373809Y-104164285D01*
X115611904Y-104164285D01*
X115707142Y-104211904D01*
X115754761Y-104259523D01*
X115802380Y-104354761D01*
X115802380Y-104640476D01*
X115754761Y-104735714D01*
X115707142Y-104783333D01*
X151307142Y-100942857D02*
X151354761Y-100990476D01*
X151402380Y-101133333D01*
X151402380Y-101228571D01*
X151354761Y-101371428D01*
X151259523Y-101466666D01*
X151164285Y-101514285D01*
X150973809Y-101561904D01*
X150830952Y-101561904D01*
X150640476Y-101514285D01*
X150545238Y-101466666D01*
X150450000Y-101371428D01*
X150402380Y-101228571D01*
X150402380Y-101133333D01*
X150450000Y-100990476D01*
X150497619Y-100942857D01*
X151402380Y-99990476D02*
X151402380Y-100561904D01*
X151402380Y-100276190D02*
X150402380Y-100276190D01*
X150545238Y-100371428D01*
X150640476Y-100466666D01*
X150688095Y-100561904D01*
X151402380Y-99038095D02*
X151402380Y-99609523D01*
X151402380Y-99323809D02*
X150402380Y-99323809D01*
X150545238Y-99419047D01*
X150640476Y-99514285D01*
X150688095Y-99609523D01*
X164370389Y-91715312D02*
X164437732Y-91715312D01*
X164572419Y-91782656D01*
X164639763Y-91850000D01*
X164707106Y-91984687D01*
X164707106Y-92119374D01*
X164673435Y-92220389D01*
X164572419Y-92388748D01*
X164471404Y-92489763D01*
X164303045Y-92590778D01*
X164202030Y-92624450D01*
X164067343Y-92624450D01*
X163932656Y-92557106D01*
X163865312Y-92489763D01*
X163797969Y-92355076D01*
X163797969Y-92287732D01*
X163124534Y-91748984D02*
X163259221Y-91883671D01*
X163360236Y-91917343D01*
X163427580Y-91917343D01*
X163595938Y-91883671D01*
X163764297Y-91782656D01*
X164033671Y-91513282D01*
X164067343Y-91412267D01*
X164067343Y-91344923D01*
X164033671Y-91243908D01*
X163898984Y-91109221D01*
X163797969Y-91075549D01*
X163730625Y-91075549D01*
X163629610Y-91109221D01*
X163461251Y-91277580D01*
X163427580Y-91378595D01*
X163427580Y-91445938D01*
X163461251Y-91546954D01*
X163595938Y-91681641D01*
X163696954Y-91715312D01*
X163764297Y-91715312D01*
X163865312Y-91681641D01*
X182602380Y-97383333D02*
X183316666Y-97383333D01*
X183459523Y-97430952D01*
X183554761Y-97526190D01*
X183602380Y-97669047D01*
X183602380Y-97764285D01*
X183602380Y-96383333D02*
X183602380Y-96954761D01*
X183602380Y-96669047D02*
X182602380Y-96669047D01*
X182745238Y-96764285D01*
X182840476Y-96859523D01*
X182888095Y-96954761D01*
X164483333Y-99207142D02*
X164435714Y-99254761D01*
X164292857Y-99302380D01*
X164197619Y-99302380D01*
X164054761Y-99254761D01*
X163959523Y-99159523D01*
X163911904Y-99064285D01*
X163864285Y-98873809D01*
X163864285Y-98730952D01*
X163911904Y-98540476D01*
X163959523Y-98445238D01*
X164054761Y-98350000D01*
X164197619Y-98302380D01*
X164292857Y-98302380D01*
X164435714Y-98350000D01*
X164483333Y-98397619D01*
X164816666Y-98302380D02*
X165483333Y-98302380D01*
X165054761Y-99302380D01*
X117057142Y-105066666D02*
X117104761Y-105114285D01*
X117152380Y-105257142D01*
X117152380Y-105352380D01*
X117104761Y-105495238D01*
X117009523Y-105590476D01*
X116914285Y-105638095D01*
X116723809Y-105685714D01*
X116580952Y-105685714D01*
X116390476Y-105638095D01*
X116295238Y-105590476D01*
X116200000Y-105495238D01*
X116152380Y-105352380D01*
X116152380Y-105257142D01*
X116200000Y-105114285D01*
X116247619Y-105066666D01*
X116485714Y-104209523D02*
X117152380Y-104209523D01*
X116104761Y-104447619D02*
X116819047Y-104685714D01*
X116819047Y-104066666D01*
X149807142Y-100892857D02*
X149854761Y-100940476D01*
X149902380Y-101083333D01*
X149902380Y-101178571D01*
X149854761Y-101321428D01*
X149759523Y-101416666D01*
X149664285Y-101464285D01*
X149473809Y-101511904D01*
X149330952Y-101511904D01*
X149140476Y-101464285D01*
X149045238Y-101416666D01*
X148950000Y-101321428D01*
X148902380Y-101178571D01*
X148902380Y-101083333D01*
X148950000Y-100940476D01*
X148997619Y-100892857D01*
X149902380Y-99940476D02*
X149902380Y-100511904D01*
X149902380Y-100226190D02*
X148902380Y-100226190D01*
X149045238Y-100321428D01*
X149140476Y-100416666D01*
X149188095Y-100511904D01*
X148902380Y-99321428D02*
X148902380Y-99226190D01*
X148950000Y-99130952D01*
X148997619Y-99083333D01*
X149092857Y-99035714D01*
X149283333Y-98988095D01*
X149521428Y-98988095D01*
X149711904Y-99035714D01*
X149807142Y-99083333D01*
X149854761Y-99130952D01*
X149902380Y-99226190D01*
X149902380Y-99321428D01*
X149854761Y-99416666D01*
X149807142Y-99464285D01*
X149711904Y-99511904D01*
X149521428Y-99559523D01*
X149283333Y-99559523D01*
X149092857Y-99511904D01*
X148997619Y-99464285D01*
X148950000Y-99416666D01*
X148902380Y-99321428D01*
X156138095Y-101802380D02*
X156709523Y-101802380D01*
X156423809Y-102802380D02*
X156423809Y-101802380D01*
X157042857Y-102802380D02*
X157042857Y-101802380D01*
X157423809Y-101802380D01*
X157519047Y-101850000D01*
X157566666Y-101897619D01*
X157614285Y-101992857D01*
X157614285Y-102135714D01*
X157566666Y-102230952D01*
X157519047Y-102278571D01*
X157423809Y-102326190D01*
X157042857Y-102326190D01*
X158566666Y-102802380D02*
X157995238Y-102802380D01*
X158280952Y-102802380D02*
X158280952Y-101802380D01*
X158185714Y-101945238D01*
X158090476Y-102040476D01*
X157995238Y-102088095D01*
X166474450Y-91534687D02*
X166373435Y-92107106D01*
X166878511Y-91938748D02*
X166171404Y-92645854D01*
X165902030Y-92376480D01*
X165868358Y-92275465D01*
X165868358Y-92208122D01*
X165902030Y-92107106D01*
X166003045Y-92006091D01*
X166104061Y-91972419D01*
X166171404Y-91972419D01*
X166272419Y-92006091D01*
X166541793Y-92275465D01*
X165801015Y-90861251D02*
X166205076Y-91265312D01*
X166003045Y-91063282D02*
X165295938Y-91770389D01*
X165464297Y-91736717D01*
X165598984Y-91736717D01*
X165700000Y-91770389D01*
X164891877Y-91231641D02*
X164824534Y-91231641D01*
X164723519Y-91197969D01*
X164555160Y-91029610D01*
X164521488Y-90928595D01*
X164521488Y-90861251D01*
X164555160Y-90760236D01*
X164622503Y-90692893D01*
X164757190Y-90625549D01*
X165565312Y-90625549D01*
X165127580Y-90187816D01*
X100032380Y-85674523D02*
X100032380Y-84404523D01*
X100032380Y-85009285D02*
X100758095Y-85009285D01*
X100758095Y-85674523D02*
X100758095Y-84404523D01*
X102028095Y-85674523D02*
X101302380Y-85674523D01*
X101665238Y-85674523D02*
X101665238Y-84404523D01*
X101544285Y-84585952D01*
X101423333Y-84706904D01*
X101302380Y-84767380D01*
X130002380Y-96666666D02*
X129526190Y-97000000D01*
X130002380Y-97238095D02*
X129002380Y-97238095D01*
X129002380Y-96857142D01*
X129050000Y-96761904D01*
X129097619Y-96714285D01*
X129192857Y-96666666D01*
X129335714Y-96666666D01*
X129430952Y-96714285D01*
X129478571Y-96761904D01*
X129526190Y-96857142D01*
X129526190Y-97238095D01*
X129002380Y-95761904D02*
X129002380Y-96238095D01*
X129478571Y-96285714D01*
X129430952Y-96238095D01*
X129383333Y-96142857D01*
X129383333Y-95904761D01*
X129430952Y-95809523D01*
X129478571Y-95761904D01*
X129573809Y-95714285D01*
X129811904Y-95714285D01*
X129907142Y-95761904D01*
X129954761Y-95809523D01*
X130002380Y-95904761D01*
X130002380Y-96142857D01*
X129954761Y-96238095D01*
X129907142Y-96285714D01*
D11*
X102052142Y-98820000D02*
X104195000Y-98820000D01*
X104623571Y-98962857D01*
X104909285Y-99248571D01*
X105052142Y-99677142D01*
X105052142Y-99962857D01*
X102337857Y-97534285D02*
X102195000Y-97391428D01*
X102052142Y-97105714D01*
X102052142Y-96391428D01*
X102195000Y-96105714D01*
X102337857Y-95962857D01*
X102623571Y-95820000D01*
X102909285Y-95820000D01*
X103337857Y-95962857D01*
X105052142Y-97677142D01*
X105052142Y-95820000D01*
D10*
X100032380Y-110774523D02*
X100032380Y-109504523D01*
X100032380Y-110109285D02*
X100758095Y-110109285D01*
X100758095Y-110774523D02*
X100758095Y-109504523D01*
X101907142Y-109927857D02*
X101907142Y-110774523D01*
X101604761Y-109444047D02*
X101302380Y-110351190D01*
X102088571Y-110351190D01*
X168237732Y-91547969D02*
X168136717Y-92120389D01*
X168641793Y-91952030D02*
X167934687Y-92659137D01*
X167665312Y-92389763D01*
X167631641Y-92288748D01*
X167631641Y-92221404D01*
X167665312Y-92120389D01*
X167766328Y-92019374D01*
X167867343Y-91985702D01*
X167934687Y-91985702D01*
X168035702Y-92019374D01*
X168305076Y-92288748D01*
X167429610Y-91547969D02*
X167463282Y-91648984D01*
X167463282Y-91716328D01*
X167429610Y-91817343D01*
X167395938Y-91851015D01*
X167294923Y-91884687D01*
X167227580Y-91884687D01*
X167126564Y-91851015D01*
X166991877Y-91716328D01*
X166958206Y-91615312D01*
X166958206Y-91547969D01*
X166991877Y-91446954D01*
X167025549Y-91413282D01*
X167126564Y-91379610D01*
X167193908Y-91379610D01*
X167294923Y-91413282D01*
X167429610Y-91547969D01*
X167530625Y-91581641D01*
X167597969Y-91581641D01*
X167698984Y-91547969D01*
X167833671Y-91413282D01*
X167867343Y-91312267D01*
X167867343Y-91244923D01*
X167833671Y-91143908D01*
X167698984Y-91009221D01*
X167597969Y-90975549D01*
X167530625Y-90975549D01*
X167429610Y-91009221D01*
X167294923Y-91143908D01*
X167261251Y-91244923D01*
X167261251Y-91312267D01*
X167294923Y-91413282D01*
X157571309Y-94493927D02*
X157095119Y-94827260D01*
X157571309Y-95065355D02*
X156571309Y-95065355D01*
X156571309Y-94684403D01*
X156618929Y-94589165D01*
X156666548Y-94541546D01*
X156761786Y-94493927D01*
X156904643Y-94493927D01*
X156999881Y-94541546D01*
X157047500Y-94589165D01*
X157095119Y-94684403D01*
X157095119Y-95065355D01*
X157571309Y-93541546D02*
X157571309Y-94112974D01*
X157571309Y-93827260D02*
X156571309Y-93827260D01*
X156714167Y-93922498D01*
X156809405Y-94017736D01*
X156857024Y-94112974D01*
X157571309Y-92589165D02*
X157571309Y-93160593D01*
X157571309Y-92874879D02*
X156571309Y-92874879D01*
X156714167Y-92970117D01*
X156809405Y-93065355D01*
X156857024Y-93160593D01*
X153552030Y-96887731D02*
X152979610Y-96786716D01*
X153147969Y-97291792D02*
X152440862Y-96584686D01*
X152710236Y-96315311D01*
X152811251Y-96281640D01*
X152878595Y-96281640D01*
X152979610Y-96315311D01*
X153080625Y-96416327D01*
X153114297Y-96517342D01*
X153114297Y-96584686D01*
X153080625Y-96685701D01*
X152811251Y-96955075D01*
X153080625Y-95944922D02*
X153552030Y-95473518D01*
X153956091Y-96483670D01*
X151783333Y-92802380D02*
X151450000Y-92326190D01*
X151211904Y-92802380D02*
X151211904Y-91802380D01*
X151592857Y-91802380D01*
X151688095Y-91850000D01*
X151735714Y-91897619D01*
X151783333Y-91992857D01*
X151783333Y-92135714D01*
X151735714Y-92230952D01*
X151688095Y-92278571D01*
X151592857Y-92326190D01*
X151211904Y-92326190D01*
X152640476Y-91802380D02*
X152450000Y-91802380D01*
X152354761Y-91850000D01*
X152307142Y-91897619D01*
X152211904Y-92040476D01*
X152164285Y-92230952D01*
X152164285Y-92611904D01*
X152211904Y-92707142D01*
X152259523Y-92754761D01*
X152354761Y-92802380D01*
X152545238Y-92802380D01*
X152640476Y-92754761D01*
X152688095Y-92707142D01*
X152735714Y-92611904D01*
X152735714Y-92373809D01*
X152688095Y-92278571D01*
X152640476Y-92230952D01*
X152545238Y-92183333D01*
X152354761Y-92183333D01*
X152259523Y-92230952D01*
X152211904Y-92278571D01*
X152164285Y-92373809D01*
X128452380Y-93338095D02*
X127452380Y-93338095D01*
X127452380Y-93100000D01*
X127500000Y-92957142D01*
X127595238Y-92861904D01*
X127690476Y-92814285D01*
X127880952Y-92766666D01*
X128023809Y-92766666D01*
X128214285Y-92814285D01*
X128309523Y-92861904D01*
X128404761Y-92957142D01*
X128452380Y-93100000D01*
X128452380Y-93338095D01*
X128452380Y-91814285D02*
X128452380Y-92385714D01*
X128452380Y-92100000D02*
X127452380Y-92100000D01*
X127595238Y-92195238D01*
X127690476Y-92290476D01*
X127738095Y-92385714D01*
D12*
X162971429Y-101383846D02*
X162971429Y-101893294D01*
X161926429Y-101383846D02*
X161926429Y-101893294D01*
X161545196Y-92828570D02*
X161252662Y-92828570D01*
X161545196Y-93848570D02*
X161252662Y-93848570D01*
X140105001Y-93950000D02*
G75*
G03*
X140105001Y-93950000I-950000J0D01*
G01*
X170232776Y-95922500D02*
X170742224Y-95922500D01*
X170232776Y-94877500D02*
X170742224Y-94877500D01*
X124100000Y-92397500D02*
X122320000Y-92397500D01*
X119060000Y-103707500D02*
X119060000Y-91767500D01*
X124100000Y-103067500D02*
X124100000Y-92397500D01*
X120080000Y-93787500D02*
X122320000Y-93787500D01*
X122320000Y-101667500D02*
X120080000Y-101667500D01*
X121180000Y-91437500D02*
X118730000Y-91437500D01*
X126910000Y-103707500D02*
X119060000Y-103707500D01*
X120080000Y-101667500D02*
X120080000Y-93787500D01*
X122320000Y-103067500D02*
X122320000Y-101667500D01*
X122330000Y-103067500D02*
X124100000Y-103067500D01*
X122320000Y-93787500D02*
X122320000Y-92397500D01*
X118730000Y-91437500D02*
X118730000Y-93767500D01*
X119060000Y-91767500D02*
X126910000Y-91767500D01*
X126910000Y-91767500D02*
X126910000Y-103707500D01*
X162749774Y-99025329D02*
X163112909Y-99025329D01*
X163112909Y-99025329D02*
X163112909Y-98662194D01*
X160123244Y-95672529D02*
X159760109Y-95672529D01*
X163112909Y-96035664D02*
X163112909Y-95672529D01*
X159760109Y-95672529D02*
X159760109Y-96035664D01*
X159760109Y-99025329D02*
X160123244Y-99025329D01*
X159760109Y-98662194D02*
X159760109Y-99025329D01*
X163112909Y-95672529D02*
X162749774Y-95672529D01*
G36*
X159772809Y-96939430D02*
G01*
X159518809Y-96939430D01*
X159518809Y-96558430D01*
X159772809Y-96558430D01*
X159772809Y-96939430D01*
G37*
D13*
X159772809Y-96939430D02*
X159518809Y-96939430D01*
X159518809Y-96558430D01*
X159772809Y-96558430D01*
X159772809Y-96939430D01*
G36*
X163354209Y-97339429D02*
G01*
X163100209Y-97339429D01*
X163100209Y-96958429D01*
X163354209Y-96958429D01*
X163354209Y-97339429D01*
G37*
X163354209Y-97339429D02*
X163100209Y-97339429D01*
X163100209Y-96958429D01*
X163354209Y-96958429D01*
X163354209Y-97339429D01*
D12*
X116653733Y-98210000D02*
X116946267Y-98210000D01*
X116653733Y-97190000D02*
X116946267Y-97190000D01*
X140665000Y-100266233D02*
X140665000Y-100558767D01*
X139645000Y-100266233D02*
X139645000Y-100558767D01*
X165998929Y-102338570D02*
G75*
G03*
X165998929Y-102338570I-950000J0D01*
G01*
X140105000Y-96950000D02*
G75*
G03*
X140105000Y-96950000I-950000J0D01*
G01*
X170232776Y-97522500D02*
X170742224Y-97522500D01*
X170232776Y-96477500D02*
X170742224Y-96477500D01*
X117810000Y-93488748D02*
X117810000Y-94911252D01*
X115990000Y-93488748D02*
X115990000Y-94911252D01*
X128765000Y-101425001D02*
X128765000Y-103885001D01*
X130235000Y-103885001D02*
X130235000Y-101425001D01*
X128765000Y-103885001D02*
X130235000Y-103885001D01*
X143701267Y-101578750D02*
X143408733Y-101578750D01*
X143701267Y-100558750D02*
X143408733Y-100558750D01*
D14*
X141905000Y-98200000D02*
X142465000Y-98200000D01*
X145005000Y-95100000D02*
X144445000Y-95100000D01*
X145005000Y-98200000D02*
X144445000Y-98200000D01*
X141905000Y-95100000D02*
X142465000Y-95100000D01*
D15*
X145595000Y-98900000D02*
G75*
G03*
X145595000Y-98900000I-100000J0D01*
G01*
D12*
X175647500Y-99335000D02*
X175647500Y-97865000D01*
X173187500Y-99335000D02*
X175647500Y-99335000D01*
X175647500Y-97865000D02*
X173187500Y-97865000D01*
X166502662Y-96928570D02*
X166795196Y-96928570D01*
X166502662Y-97948570D02*
X166795196Y-97948570D01*
X128522500Y-100054724D02*
X128522500Y-99545276D01*
X127477500Y-100054724D02*
X127477500Y-99545276D01*
X158154724Y-101022500D02*
X157645276Y-101022500D01*
X158154724Y-99977500D02*
X157645276Y-99977500D01*
X136522500Y-100045276D02*
X136522500Y-100554724D01*
X135477500Y-100045276D02*
X135477500Y-100554724D01*
X175647500Y-94665000D02*
X173187500Y-94665000D01*
X173187500Y-96135000D02*
X175647500Y-96135000D01*
X175647500Y-96135000D02*
X175647500Y-94665000D01*
X175647500Y-96265000D02*
X173187500Y-96265000D01*
X173187500Y-97735000D02*
X175647500Y-97735000D01*
X175647500Y-97735000D02*
X175647500Y-96265000D01*
X170232776Y-99122500D02*
X170742224Y-99122500D01*
X170232776Y-98077500D02*
X170742224Y-98077500D01*
X138277501Y-99995276D02*
X138277501Y-100504724D01*
X137232501Y-99995276D02*
X137232501Y-100504724D01*
X115390000Y-100553733D02*
X115390000Y-100846267D01*
X116410000Y-100553733D02*
X116410000Y-100846267D01*
X147445000Y-100103733D02*
X147445000Y-100396267D01*
X148465000Y-100103733D02*
X148465000Y-100396267D01*
X163838929Y-94422337D02*
X163838929Y-94129803D01*
X164858929Y-94422337D02*
X164858929Y-94129803D01*
X179540000Y-107935000D02*
X178540000Y-106935000D01*
X178540000Y-87065000D02*
X179540000Y-86065000D01*
X188660000Y-97848233D02*
X188660000Y-96151767D01*
X188660000Y-107935000D02*
X188660000Y-105510000D01*
X188660000Y-94848233D02*
X188660000Y-93151767D01*
X188660000Y-107935000D02*
X179540000Y-107935000D01*
X179540000Y-86065000D02*
X188660000Y-86065000D01*
X188660000Y-100848233D02*
X188660000Y-99151767D01*
X188660000Y-91848233D02*
X188660000Y-90151767D01*
X188660000Y-103490000D02*
X188660000Y-102151767D01*
X188660000Y-86065000D02*
X188660000Y-88848233D01*
X178540000Y-106935000D02*
X178540000Y-87065000D01*
X164902662Y-99728570D02*
X165195196Y-99728570D01*
X164902662Y-100748570D02*
X165195196Y-100748570D01*
X118210000Y-100553733D02*
X118210000Y-100846267D01*
X117190000Y-100553733D02*
X117190000Y-100846267D01*
X146665000Y-100103734D02*
X146665000Y-100396268D01*
X145645000Y-100103734D02*
X145645000Y-100396268D01*
X160950000Y-102338570D02*
G75*
G03*
X160950000Y-102338570I-950000J0D01*
G01*
X166571429Y-94493294D02*
X166571429Y-93983846D01*
X165526429Y-94493294D02*
X165526429Y-93983846D01*
X127477500Y-96154724D02*
X127477500Y-95645276D01*
X128522500Y-96154724D02*
X128522500Y-95645276D01*
X110125000Y-89530000D02*
X108315000Y-89530000D01*
X114435000Y-105760000D02*
X108315000Y-105760000D01*
X114435000Y-93200000D02*
X114435000Y-105760000D01*
X92915000Y-105760000D02*
X92915000Y-89530000D01*
X105335000Y-105760000D02*
X92915000Y-105760000D01*
X105325000Y-89530000D02*
X92915000Y-89530000D01*
X167226429Y-94780794D02*
X167226429Y-94271346D01*
X168271429Y-94780794D02*
X168271429Y-94271346D01*
X158026429Y-94105794D02*
X158026429Y-93596346D01*
X159071429Y-94105794D02*
X159071429Y-93596346D01*
X154110654Y-96950420D02*
X153750420Y-97310654D01*
X154849580Y-97689346D02*
X154489346Y-98049580D01*
X154545276Y-92822500D02*
X155054724Y-92822500D01*
X154545276Y-91777500D02*
X155054724Y-91777500D01*
X128765000Y-91614999D02*
X128765000Y-94074999D01*
X130235000Y-91614999D02*
X128765000Y-91614999D01*
X130235000Y-94074999D02*
X130235000Y-91614999D01*
%LPC*%
D16*
X162448929Y-100726070D03*
X162448929Y-102551070D03*
D17*
X162261429Y-93338570D03*
X160536429Y-93338570D03*
D18*
X139155001Y-93950000D03*
D19*
X169575000Y-95400000D03*
X171400000Y-95400000D03*
D20*
X121180000Y-95187500D03*
D21*
X121180000Y-97727500D03*
X121180000Y-100267500D03*
D22*
X160436508Y-99048570D03*
D23*
X160836510Y-98988570D03*
X161236509Y-98988570D03*
X161636509Y-98988570D03*
X162036508Y-98988570D03*
D22*
X162436510Y-99048570D03*
D24*
X163123929Y-98348930D03*
D25*
X163048929Y-97948928D03*
X163048929Y-97548929D03*
X163048929Y-97148929D03*
X163048929Y-96748930D03*
D24*
X163123929Y-96348928D03*
D26*
X162436510Y-95663570D03*
D23*
X162036508Y-95738570D03*
X161636509Y-95738570D03*
X161236509Y-95738570D03*
X160836510Y-95738570D03*
D26*
X160436508Y-95663570D03*
D27*
X159738929Y-96348928D03*
D25*
X159798929Y-96748930D03*
X159798929Y-97148929D03*
X159798929Y-97548929D03*
X159798929Y-97948928D03*
D27*
X159738929Y-98348930D03*
D28*
X115937500Y-97700000D03*
X117662500Y-97700000D03*
D29*
X140155000Y-99550000D03*
X140155000Y-101275000D03*
D18*
X165048929Y-102338570D03*
X139155000Y-96950000D03*
D19*
X169575000Y-97000000D03*
X171400000Y-97000000D03*
D30*
X116900000Y-92637500D03*
X116900000Y-95762500D03*
D31*
X129500000Y-103100001D03*
X129500000Y-101350001D03*
D17*
X144417500Y-101068750D03*
X142692500Y-101068750D03*
D32*
X145045000Y-97650000D03*
X145045000Y-97150000D03*
X145045000Y-96650000D03*
X145045000Y-96150000D03*
X145045000Y-95650000D03*
D33*
X143955000Y-95050000D03*
X143455000Y-95050000D03*
X142955000Y-95050000D03*
D32*
X141845000Y-95650000D03*
X141845000Y-96150000D03*
X141845000Y-96650000D03*
X141845000Y-97150000D03*
X141845000Y-97650000D03*
D33*
X142955000Y-98250000D03*
X143455000Y-98250000D03*
X143955000Y-98250000D03*
D34*
X193000000Y-110200000D03*
D35*
X174862500Y-98600000D03*
X173112500Y-98600000D03*
D28*
X165786429Y-97438570D03*
X167511429Y-97438570D03*
D36*
X128000000Y-100712500D03*
X128000000Y-98887500D03*
D37*
X158812500Y-100500000D03*
X156987500Y-100500000D03*
D16*
X136000000Y-99387500D03*
X136000000Y-101212500D03*
D34*
X193000000Y-85100000D03*
D35*
X174862500Y-95400000D03*
X173112500Y-95400000D03*
X174862500Y-97000000D03*
X173112500Y-97000000D03*
D19*
X169575000Y-98600000D03*
X171400000Y-98600000D03*
D16*
X137755001Y-99337500D03*
X137755001Y-101162500D03*
D29*
X115900000Y-99837500D03*
X115900000Y-101562500D03*
X147955000Y-99387500D03*
X147955000Y-101112500D03*
D38*
X164348929Y-95138570D03*
X164348929Y-93413570D03*
D39*
X183250000Y-102350000D03*
X183250000Y-91650000D03*
D40*
X187570000Y-104500000D03*
D41*
X187570000Y-101500000D03*
X187570000Y-98500000D03*
X187570000Y-95500000D03*
X187570000Y-92500000D03*
X187570000Y-89500000D03*
D28*
X164186429Y-100238570D03*
X165911429Y-100238570D03*
D29*
X117700000Y-99837500D03*
X117700000Y-101562500D03*
X146155000Y-99387501D03*
X146155000Y-101112501D03*
D18*
X160000000Y-102338570D03*
D36*
X166048929Y-95151070D03*
X166048929Y-93326070D03*
D34*
X101000000Y-85100000D03*
D36*
X128000000Y-96812500D03*
X128000000Y-94987500D03*
D42*
X103775000Y-91930000D03*
X103775000Y-103360000D03*
D43*
X110125000Y-93200000D03*
D18*
X112665000Y-94470000D03*
X110125000Y-95740000D03*
X112665000Y-97010000D03*
X110125000Y-98280000D03*
X112665000Y-99550000D03*
X110125000Y-100820000D03*
X112665000Y-102090000D03*
X98695000Y-91320000D03*
X100395000Y-93860000D03*
X98695000Y-101430000D03*
X100395000Y-103970000D03*
D44*
X106825000Y-105520000D03*
X106825000Y-89770000D03*
D34*
X101000000Y-110200000D03*
D36*
X167748929Y-95438570D03*
X167748929Y-93613570D03*
X158548929Y-94763570D03*
X158548929Y-92938570D03*
D45*
X154945235Y-96854765D03*
X153654765Y-98145235D03*
D19*
X153887500Y-92300000D03*
X155712500Y-92300000D03*
D46*
X129500000Y-92399999D03*
X129500000Y-94149999D03*
D47*
X118250200Y-90000000D03*
D48*
X120790200Y-90000000D03*
X123330200Y-90000000D03*
X125870200Y-90000000D03*
X128410200Y-90000000D03*
X130950200Y-90000000D03*
X133490200Y-90000000D03*
X136030200Y-90000000D03*
X138570200Y-90000000D03*
X141110200Y-90000000D03*
X143650200Y-90000000D03*
X146190200Y-90000000D03*
X148730200Y-90000000D03*
X151270200Y-90000000D03*
X153810200Y-90000000D03*
X156350200Y-90000000D03*
X158890200Y-90000000D03*
X161430200Y-90000000D03*
X163970200Y-90000000D03*
X166510200Y-90000000D03*
X169050200Y-90000000D03*
X171590200Y-90000000D03*
X174130200Y-90000000D03*
X176670200Y-90000000D03*
X176670200Y-105240000D03*
X174130200Y-105240000D03*
X171590200Y-105240000D03*
X169050200Y-105240000D03*
X166510200Y-105240000D03*
X163970200Y-105240000D03*
X161430200Y-105240000D03*
X158890200Y-105240000D03*
X156350200Y-105240000D03*
X153810200Y-105240000D03*
X151270200Y-105240000D03*
X148730200Y-105240000D03*
X146190200Y-105240000D03*
X143650200Y-105240000D03*
X141110200Y-105240000D03*
X138570200Y-105240000D03*
X136030200Y-105240000D03*
X133490200Y-105240000D03*
X130950200Y-105240000D03*
X128410200Y-105240000D03*
X125870200Y-105240000D03*
X123330200Y-105240000D03*
X120790200Y-105240000D03*
X118250200Y-105240000D03*
D49*
X131220200Y-102801600D03*
D50*
X131220200Y-100801600D03*
X131220200Y-98801600D03*
X133220200Y-98801600D03*
X133220200Y-100801600D03*
X133220200Y-102801600D03*
D51*
X193322800Y-93333000D03*
X193322800Y-101207000D03*
M02*
