G04 #@! TF.GenerationSoftware,KiCad,Pcbnew,(5.1.4)-1*
G04 #@! TF.CreationDate,2021-01-10T04:06:40-06:00*
G04 #@! TF.ProjectId,Navboard_hardware,4e617662-6f61-4726-945f-686172647761,rev?*
G04 #@! TF.SameCoordinates,Original*
G04 #@! TF.FileFunction,Legend,Bot*
G04 #@! TF.FilePolarity,Positive*
%FSLAX46Y46*%
G04 Gerber Fmt 4.6, Leading zero omitted, Abs format (unit mm)*
G04 Created by KiCad (PCBNEW (5.1.4)-1) date 2021-01-10 04:06:40*
%MOMM*%
%LPD*%
G04 APERTURE LIST*
%ADD10C,0.254000*%
%ADD11C,0.010000*%
%ADD12C,0.150000*%
G04 APERTURE END LIST*
D10*
X105809142Y-44456047D02*
X105627714Y-44516523D01*
X105325333Y-44516523D01*
X105204380Y-44456047D01*
X105143904Y-44395571D01*
X105083428Y-44274619D01*
X105083428Y-44153666D01*
X105143904Y-44032714D01*
X105204380Y-43972238D01*
X105325333Y-43911761D01*
X105567238Y-43851285D01*
X105688190Y-43790809D01*
X105748666Y-43730333D01*
X105809142Y-43609380D01*
X105809142Y-43488428D01*
X105748666Y-43367476D01*
X105688190Y-43307000D01*
X105567238Y-43246523D01*
X105264857Y-43246523D01*
X105083428Y-43307000D01*
X104539142Y-44516523D02*
X104539142Y-43246523D01*
X104236761Y-43246523D01*
X104055333Y-43307000D01*
X103934380Y-43427952D01*
X103873904Y-43548904D01*
X103813428Y-43790809D01*
X103813428Y-43972238D01*
X103873904Y-44214142D01*
X103934380Y-44335095D01*
X104055333Y-44456047D01*
X104236761Y-44516523D01*
X104539142Y-44516523D01*
X103329619Y-44153666D02*
X102724857Y-44153666D01*
X103450571Y-44516523D02*
X103027238Y-43246523D01*
X102603904Y-44516523D01*
X105778904Y-46996047D02*
X105597476Y-47056523D01*
X105295095Y-47056523D01*
X105174142Y-46996047D01*
X105113666Y-46935571D01*
X105053190Y-46814619D01*
X105053190Y-46693666D01*
X105113666Y-46572714D01*
X105174142Y-46512238D01*
X105295095Y-46451761D01*
X105537000Y-46391285D01*
X105657952Y-46330809D01*
X105718428Y-46270333D01*
X105778904Y-46149380D01*
X105778904Y-46028428D01*
X105718428Y-45907476D01*
X105657952Y-45847000D01*
X105537000Y-45786523D01*
X105234619Y-45786523D01*
X105053190Y-45847000D01*
X103783190Y-46935571D02*
X103843666Y-46996047D01*
X104025095Y-47056523D01*
X104146047Y-47056523D01*
X104327476Y-46996047D01*
X104448428Y-46875095D01*
X104508904Y-46754142D01*
X104569380Y-46512238D01*
X104569380Y-46330809D01*
X104508904Y-46088904D01*
X104448428Y-45967952D01*
X104327476Y-45847000D01*
X104146047Y-45786523D01*
X104025095Y-45786523D01*
X103843666Y-45847000D01*
X103783190Y-45907476D01*
X102634142Y-47056523D02*
X103238904Y-47056523D01*
X103238904Y-45786523D01*
X105766809Y-49112714D02*
X104799190Y-49112714D01*
X105766809Y-51652714D02*
X104799190Y-51652714D01*
X105283000Y-52136523D02*
X105283000Y-51168904D01*
D11*
G36*
X161103008Y-69267488D02*
G01*
X161100857Y-69269452D01*
X161079863Y-69316225D01*
X161081472Y-69345652D01*
X161092246Y-69371388D01*
X161096554Y-69363127D01*
X161107141Y-69314832D01*
X161115939Y-69286927D01*
X161122548Y-69256460D01*
X161103008Y-69267488D01*
X161103008Y-69267488D01*
G37*
X161103008Y-69267488D02*
X161100857Y-69269452D01*
X161079863Y-69316225D01*
X161081472Y-69345652D01*
X161092246Y-69371388D01*
X161096554Y-69363127D01*
X161107141Y-69314832D01*
X161115939Y-69286927D01*
X161122548Y-69256460D01*
X161103008Y-69267488D01*
G36*
X161099500Y-69418200D02*
G01*
X161112200Y-69430900D01*
X161124900Y-69418200D01*
X161112200Y-69405500D01*
X161099500Y-69418200D01*
X161099500Y-69418200D01*
G37*
X161099500Y-69418200D02*
X161112200Y-69430900D01*
X161124900Y-69418200D01*
X161112200Y-69405500D01*
X161099500Y-69418200D01*
G36*
X161353500Y-69646800D02*
G01*
X161366200Y-69659500D01*
X161378900Y-69646800D01*
X161366200Y-69634100D01*
X161353500Y-69646800D01*
X161353500Y-69646800D01*
G37*
X161353500Y-69646800D02*
X161366200Y-69659500D01*
X161378900Y-69646800D01*
X161366200Y-69634100D01*
X161353500Y-69646800D01*
G36*
X161328100Y-69697600D02*
G01*
X161340800Y-69710300D01*
X161353500Y-69697600D01*
X161340800Y-69684900D01*
X161328100Y-69697600D01*
X161328100Y-69697600D01*
G37*
X161328100Y-69697600D02*
X161340800Y-69710300D01*
X161353500Y-69697600D01*
X161340800Y-69684900D01*
X161328100Y-69697600D01*
G36*
X161328100Y-69748400D02*
G01*
X161340800Y-69761100D01*
X161353500Y-69748400D01*
X161340800Y-69735700D01*
X161328100Y-69748400D01*
X161328100Y-69748400D01*
G37*
X161328100Y-69748400D02*
X161340800Y-69761100D01*
X161353500Y-69748400D01*
X161340800Y-69735700D01*
X161328100Y-69748400D01*
G36*
X158991300Y-69646800D02*
G01*
X159004000Y-69659500D01*
X159016700Y-69646800D01*
X159004000Y-69634100D01*
X158991300Y-69646800D01*
X158991300Y-69646800D01*
G37*
X158991300Y-69646800D02*
X159004000Y-69659500D01*
X159016700Y-69646800D01*
X159004000Y-69634100D01*
X158991300Y-69646800D01*
G36*
X161912300Y-67411600D02*
G01*
X161925000Y-67424300D01*
X161937700Y-67411600D01*
X161925000Y-67398900D01*
X161912300Y-67411600D01*
X161912300Y-67411600D01*
G37*
X161912300Y-67411600D02*
X161925000Y-67424300D01*
X161937700Y-67411600D01*
X161925000Y-67398900D01*
X161912300Y-67411600D01*
G36*
X161912300Y-67538600D02*
G01*
X161925000Y-67551300D01*
X161937700Y-67538600D01*
X161925000Y-67525900D01*
X161912300Y-67538600D01*
X161912300Y-67538600D01*
G37*
X161912300Y-67538600D02*
X161925000Y-67551300D01*
X161937700Y-67538600D01*
X161925000Y-67525900D01*
X161912300Y-67538600D01*
G36*
X159689800Y-69942470D02*
G01*
X159740600Y-69964300D01*
X159799941Y-69983096D01*
X159829500Y-69987525D01*
X159854783Y-69985203D01*
X159835933Y-69968497D01*
X159829500Y-69964300D01*
X159771831Y-69943820D01*
X159740600Y-69941074D01*
X159689800Y-69942470D01*
X159689800Y-69942470D01*
G37*
X159689800Y-69942470D02*
X159740600Y-69964300D01*
X159799941Y-69983096D01*
X159829500Y-69987525D01*
X159854783Y-69985203D01*
X159835933Y-69968497D01*
X159829500Y-69964300D01*
X159771831Y-69943820D01*
X159740600Y-69941074D01*
X159689800Y-69942470D01*
G36*
X159736367Y-70074366D02*
G01*
X159739854Y-70089466D01*
X159753300Y-70091300D01*
X159774208Y-70082006D01*
X159770234Y-70074366D01*
X159740090Y-70071326D01*
X159736367Y-70074366D01*
X159736367Y-70074366D01*
G37*
X159736367Y-70074366D02*
X159739854Y-70089466D01*
X159753300Y-70091300D01*
X159774208Y-70082006D01*
X159770234Y-70074366D01*
X159740090Y-70071326D01*
X159736367Y-70074366D01*
G36*
X160820100Y-70332600D02*
G01*
X160832800Y-70345300D01*
X160845500Y-70332600D01*
X160832800Y-70319900D01*
X160820100Y-70332600D01*
X160820100Y-70332600D01*
G37*
X160820100Y-70332600D02*
X160832800Y-70345300D01*
X160845500Y-70332600D01*
X160832800Y-70319900D01*
X160820100Y-70332600D01*
G36*
X159050567Y-70379166D02*
G01*
X159047527Y-70409310D01*
X159050567Y-70413033D01*
X159065667Y-70409546D01*
X159067500Y-70396100D01*
X159058207Y-70375192D01*
X159050567Y-70379166D01*
X159050567Y-70379166D01*
G37*
X159050567Y-70379166D02*
X159047527Y-70409310D01*
X159050567Y-70413033D01*
X159065667Y-70409546D01*
X159067500Y-70396100D01*
X159058207Y-70375192D01*
X159050567Y-70379166D01*
G36*
X158251827Y-70228883D02*
G01*
X158217538Y-70283155D01*
X158204465Y-70323906D01*
X158217500Y-70330292D01*
X158248676Y-70301082D01*
X158253894Y-70294500D01*
X158293064Y-70253463D01*
X158322390Y-70252634D01*
X158333920Y-70262061D01*
X158352236Y-70299347D01*
X158337119Y-70354474D01*
X158335987Y-70356979D01*
X158320944Y-70441979D01*
X158329986Y-70478318D01*
X158345747Y-70512517D01*
X158352534Y-70504098D01*
X158354690Y-70454749D01*
X158364019Y-70384117D01*
X158384348Y-70356076D01*
X158409778Y-70365310D01*
X158434407Y-70406504D01*
X158452336Y-70474342D01*
X158457900Y-70547723D01*
X158468710Y-70633756D01*
X158495300Y-70710705D01*
X158501062Y-70720843D01*
X158544224Y-70789800D01*
X158475762Y-70728316D01*
X158420926Y-70686958D01*
X158395385Y-70681422D01*
X158404682Y-70707292D01*
X158445759Y-70752224D01*
X158497177Y-70791004D01*
X158548452Y-70815998D01*
X158587019Y-70823502D01*
X158600313Y-70809809D01*
X158594982Y-70796226D01*
X158568082Y-70753684D01*
X158529072Y-70695780D01*
X158528728Y-70695282D01*
X158490770Y-70599119D01*
X158486658Y-70514628D01*
X158485130Y-70443311D01*
X158466505Y-70384802D01*
X158422831Y-70318982D01*
X158396092Y-70285523D01*
X158299754Y-70167954D01*
X158251827Y-70228883D01*
X158251827Y-70228883D01*
G37*
X158251827Y-70228883D02*
X158217538Y-70283155D01*
X158204465Y-70323906D01*
X158217500Y-70330292D01*
X158248676Y-70301082D01*
X158253894Y-70294500D01*
X158293064Y-70253463D01*
X158322390Y-70252634D01*
X158333920Y-70262061D01*
X158352236Y-70299347D01*
X158337119Y-70354474D01*
X158335987Y-70356979D01*
X158320944Y-70441979D01*
X158329986Y-70478318D01*
X158345747Y-70512517D01*
X158352534Y-70504098D01*
X158354690Y-70454749D01*
X158364019Y-70384117D01*
X158384348Y-70356076D01*
X158409778Y-70365310D01*
X158434407Y-70406504D01*
X158452336Y-70474342D01*
X158457900Y-70547723D01*
X158468710Y-70633756D01*
X158495300Y-70710705D01*
X158501062Y-70720843D01*
X158544224Y-70789800D01*
X158475762Y-70728316D01*
X158420926Y-70686958D01*
X158395385Y-70681422D01*
X158404682Y-70707292D01*
X158445759Y-70752224D01*
X158497177Y-70791004D01*
X158548452Y-70815998D01*
X158587019Y-70823502D01*
X158600313Y-70809809D01*
X158594982Y-70796226D01*
X158568082Y-70753684D01*
X158529072Y-70695780D01*
X158528728Y-70695282D01*
X158490770Y-70599119D01*
X158486658Y-70514628D01*
X158485130Y-70443311D01*
X158466505Y-70384802D01*
X158422831Y-70318982D01*
X158396092Y-70285523D01*
X158299754Y-70167954D01*
X158251827Y-70228883D01*
G36*
X160134300Y-71399400D02*
G01*
X160147000Y-71412100D01*
X160159700Y-71399400D01*
X160147000Y-71386700D01*
X160134300Y-71399400D01*
X160134300Y-71399400D01*
G37*
X160134300Y-71399400D02*
X160147000Y-71412100D01*
X160159700Y-71399400D01*
X160147000Y-71386700D01*
X160134300Y-71399400D01*
G36*
X160210500Y-71399400D02*
G01*
X160223200Y-71412100D01*
X160235900Y-71399400D01*
X160223200Y-71386700D01*
X160210500Y-71399400D01*
X160210500Y-71399400D01*
G37*
X160210500Y-71399400D02*
X160223200Y-71412100D01*
X160235900Y-71399400D01*
X160223200Y-71386700D01*
X160210500Y-71399400D01*
G36*
X159880300Y-71450200D02*
G01*
X159893000Y-71462900D01*
X159905700Y-71450200D01*
X159893000Y-71437500D01*
X159880300Y-71450200D01*
X159880300Y-71450200D01*
G37*
X159880300Y-71450200D02*
X159893000Y-71462900D01*
X159905700Y-71450200D01*
X159893000Y-71437500D01*
X159880300Y-71450200D01*
G36*
X160261300Y-71475600D02*
G01*
X160274000Y-71488300D01*
X160286700Y-71475600D01*
X160274000Y-71462900D01*
X160261300Y-71475600D01*
X160261300Y-71475600D01*
G37*
X160261300Y-71475600D02*
X160274000Y-71488300D01*
X160286700Y-71475600D01*
X160274000Y-71462900D01*
X160261300Y-71475600D01*
G36*
X160027163Y-71330651D02*
G01*
X159932483Y-71347828D01*
X159847735Y-71369609D01*
X159790384Y-71392621D01*
X159780357Y-71400000D01*
X159757663Y-71433112D01*
X159764964Y-71473189D01*
X159779352Y-71502217D01*
X159823352Y-71561052D01*
X159866595Y-71596025D01*
X159901700Y-71612407D01*
X159897877Y-71599294D01*
X159884464Y-71582471D01*
X159863704Y-71538236D01*
X159866733Y-71515103D01*
X159863950Y-71499443D01*
X159843520Y-71504008D01*
X159810082Y-71505913D01*
X159811682Y-71476002D01*
X159840767Y-71429360D01*
X159856924Y-71419380D01*
X159825406Y-71419380D01*
X159819226Y-71433575D01*
X159793651Y-71460843D01*
X159778948Y-71455249D01*
X159778700Y-71451699D01*
X159796742Y-71430215D01*
X159808025Y-71422374D01*
X159825406Y-71419380D01*
X159856924Y-71419380D01*
X159879450Y-71405467D01*
X159948090Y-71385227D01*
X160032955Y-71370106D01*
X160120312Y-71361567D01*
X160196430Y-71361074D01*
X160247575Y-71370090D01*
X160261300Y-71384532D01*
X160274988Y-71404098D01*
X160284039Y-71401044D01*
X160311298Y-71407307D01*
X160320223Y-71422029D01*
X160315392Y-71469053D01*
X160281954Y-71531602D01*
X160230028Y-71592327D01*
X160211666Y-71608142D01*
X160189125Y-71633167D01*
X160194439Y-71639892D01*
X160223267Y-71623718D01*
X160274045Y-71581237D01*
X160315089Y-71542088D01*
X160384168Y-71464290D01*
X160410272Y-71409301D01*
X160393473Y-71372956D01*
X160333845Y-71351089D01*
X160318450Y-71348350D01*
X160242419Y-71335647D01*
X160181841Y-71324652D01*
X160176463Y-71323579D01*
X160114311Y-71321444D01*
X160027163Y-71330651D01*
X160027163Y-71330651D01*
G37*
X160027163Y-71330651D02*
X159932483Y-71347828D01*
X159847735Y-71369609D01*
X159790384Y-71392621D01*
X159780357Y-71400000D01*
X159757663Y-71433112D01*
X159764964Y-71473189D01*
X159779352Y-71502217D01*
X159823352Y-71561052D01*
X159866595Y-71596025D01*
X159901700Y-71612407D01*
X159897877Y-71599294D01*
X159884464Y-71582471D01*
X159863704Y-71538236D01*
X159866733Y-71515103D01*
X159863950Y-71499443D01*
X159843520Y-71504008D01*
X159810082Y-71505913D01*
X159811682Y-71476002D01*
X159840767Y-71429360D01*
X159856924Y-71419380D01*
X159825406Y-71419380D01*
X159819226Y-71433575D01*
X159793651Y-71460843D01*
X159778948Y-71455249D01*
X159778700Y-71451699D01*
X159796742Y-71430215D01*
X159808025Y-71422374D01*
X159825406Y-71419380D01*
X159856924Y-71419380D01*
X159879450Y-71405467D01*
X159948090Y-71385227D01*
X160032955Y-71370106D01*
X160120312Y-71361567D01*
X160196430Y-71361074D01*
X160247575Y-71370090D01*
X160261300Y-71384532D01*
X160274988Y-71404098D01*
X160284039Y-71401044D01*
X160311298Y-71407307D01*
X160320223Y-71422029D01*
X160315392Y-71469053D01*
X160281954Y-71531602D01*
X160230028Y-71592327D01*
X160211666Y-71608142D01*
X160189125Y-71633167D01*
X160194439Y-71639892D01*
X160223267Y-71623718D01*
X160274045Y-71581237D01*
X160315089Y-71542088D01*
X160384168Y-71464290D01*
X160410272Y-71409301D01*
X160393473Y-71372956D01*
X160333845Y-71351089D01*
X160318450Y-71348350D01*
X160242419Y-71335647D01*
X160181841Y-71324652D01*
X160176463Y-71323579D01*
X160114311Y-71321444D01*
X160027163Y-71330651D01*
G36*
X160422425Y-72096632D02*
G01*
X160414176Y-72150289D01*
X160413700Y-72172600D01*
X160415386Y-72243076D01*
X160422726Y-72271514D01*
X160439145Y-72266631D01*
X160447567Y-72258766D01*
X160461987Y-72218675D01*
X160463191Y-72158688D01*
X160452452Y-72104879D01*
X160439100Y-72085200D01*
X160422425Y-72096632D01*
X160422425Y-72096632D01*
G37*
X160422425Y-72096632D02*
X160414176Y-72150289D01*
X160413700Y-72172600D01*
X160415386Y-72243076D01*
X160422726Y-72271514D01*
X160439145Y-72266631D01*
X160447567Y-72258766D01*
X160461987Y-72218675D01*
X160463191Y-72158688D01*
X160452452Y-72104879D01*
X160439100Y-72085200D01*
X160422425Y-72096632D01*
G36*
X160089528Y-67323043D02*
G01*
X159801626Y-67324096D01*
X159560868Y-67325894D01*
X159365429Y-67328473D01*
X159213483Y-67331868D01*
X159103205Y-67336113D01*
X159032768Y-67341244D01*
X159000348Y-67347296D01*
X158997650Y-67350235D01*
X158978501Y-67370980D01*
X158921951Y-67402420D01*
X158838703Y-67438913D01*
X158804151Y-67452242D01*
X158701047Y-67493543D01*
X158608139Y-67535797D01*
X158542499Y-67571128D01*
X158533530Y-67577106D01*
X158482925Y-67611062D01*
X158453030Y-67627271D01*
X158451651Y-67627500D01*
X158439159Y-67605263D01*
X158417588Y-67547277D01*
X158394400Y-67475100D01*
X158348257Y-67322700D01*
X158190277Y-67322700D01*
X158098964Y-67325392D01*
X158043307Y-67336357D01*
X158008315Y-67359923D01*
X157992431Y-67379849D01*
X157952565Y-67437000D01*
X157951233Y-67379850D01*
X157949096Y-67357264D01*
X157938674Y-67341584D01*
X157912101Y-67331549D01*
X157861510Y-67325900D01*
X157779034Y-67323377D01*
X157656805Y-67322721D01*
X157594300Y-67322700D01*
X157238700Y-67322700D01*
X157238700Y-67672190D01*
X157239233Y-67812662D01*
X157241600Y-67910973D01*
X157246961Y-67975757D01*
X157256470Y-68015649D01*
X157271287Y-68039282D01*
X157289809Y-68053597D01*
X157340917Y-68085515D01*
X157289809Y-68185695D01*
X157280449Y-68205211D01*
X157272307Y-68226885D01*
X157265298Y-68254195D01*
X157259338Y-68290620D01*
X157254341Y-68339640D01*
X157250223Y-68404734D01*
X157246899Y-68489380D01*
X157244284Y-68597058D01*
X157242293Y-68731246D01*
X157240841Y-68895423D01*
X157239844Y-69093070D01*
X157239216Y-69327663D01*
X157238873Y-69602684D01*
X157238729Y-69921609D01*
X157238700Y-70280788D01*
X157238700Y-72275700D01*
X158978600Y-72273454D01*
X158882068Y-72222512D01*
X158818680Y-72182511D01*
X158777093Y-72144188D01*
X158771212Y-72134243D01*
X158762616Y-72072233D01*
X158767276Y-71982698D01*
X158782205Y-71883566D01*
X158804413Y-71792767D01*
X158830910Y-71728230D01*
X158841165Y-71714635D01*
X158888944Y-71674535D01*
X158915671Y-71676502D01*
X158926607Y-71723759D01*
X158927800Y-71767700D01*
X158923573Y-71831339D01*
X158913012Y-71866719D01*
X158908750Y-71869300D01*
X158894296Y-71847573D01*
X158889700Y-71807299D01*
X158880335Y-71753517D01*
X158864300Y-71729600D01*
X158845747Y-71738896D01*
X158838900Y-71782833D01*
X158863960Y-71861816D01*
X158938383Y-71945446D01*
X159061038Y-72032815D01*
X159230794Y-72123017D01*
X159305987Y-72157222D01*
X159417087Y-72204193D01*
X159514206Y-72242154D01*
X159586231Y-72266955D01*
X159620459Y-72274596D01*
X159618924Y-72265485D01*
X159577994Y-72242005D01*
X159505555Y-72208366D01*
X159461200Y-72189555D01*
X159343108Y-72137341D01*
X159220771Y-72077757D01*
X159118719Y-72022808D01*
X159109759Y-72017546D01*
X158961517Y-71929474D01*
X158957359Y-71646217D01*
X158953200Y-71362961D01*
X159073850Y-71481825D01*
X159133996Y-71537699D01*
X159177226Y-71571404D01*
X159194478Y-71575912D01*
X159194500Y-71575450D01*
X159177481Y-71547220D01*
X159132117Y-71493856D01*
X159066948Y-71425154D01*
X159040335Y-71398604D01*
X158954143Y-71309704D01*
X158869612Y-71215655D01*
X158803484Y-71135171D01*
X158797421Y-71127098D01*
X158714277Y-71034874D01*
X158631537Y-70986275D01*
X158619591Y-70982599D01*
X158528213Y-70940423D01*
X158425485Y-70867145D01*
X158325605Y-70775574D01*
X158242772Y-70678516D01*
X158196042Y-70600531D01*
X158165604Y-70504574D01*
X158149759Y-70395538D01*
X158147597Y-70284543D01*
X158158205Y-70182709D01*
X158180674Y-70101155D01*
X158214091Y-70051000D01*
X158241939Y-70040500D01*
X158280878Y-70056783D01*
X158340827Y-70098889D01*
X158391459Y-70142100D01*
X158453013Y-70196500D01*
X158499586Y-70233371D01*
X158517891Y-70243700D01*
X158531940Y-70222755D01*
X158533710Y-70173812D01*
X158524920Y-70117702D01*
X158507293Y-70075258D01*
X158503621Y-70070980D01*
X158485949Y-70045811D01*
X158503621Y-70040500D01*
X158532207Y-70057108D01*
X158534100Y-70065900D01*
X158553429Y-70090561D01*
X158559500Y-70091300D01*
X158572926Y-70068084D01*
X158582064Y-70007078D01*
X158584900Y-69933820D01*
X158587974Y-69846498D01*
X158598230Y-69807510D01*
X158617222Y-69817070D01*
X158646503Y-69875391D01*
X158674228Y-69946079D01*
X158713398Y-70037624D01*
X158744607Y-70079647D01*
X158768457Y-70072699D01*
X158780073Y-70043055D01*
X158811195Y-69999738D01*
X158860913Y-69989794D01*
X158927800Y-69989889D01*
X158848022Y-70038536D01*
X158779543Y-70085905D01*
X158754910Y-70125725D01*
X158771697Y-70171413D01*
X158814731Y-70222736D01*
X158862096Y-70272854D01*
X158882454Y-70287583D01*
X158883119Y-70268981D01*
X158876489Y-70240120D01*
X158873298Y-70183310D01*
X158887642Y-70156071D01*
X158907225Y-70164887D01*
X158915012Y-70220378D01*
X158915100Y-70229777D01*
X158929025Y-70321202D01*
X158964985Y-70423123D01*
X159014264Y-70516203D01*
X159068142Y-70581102D01*
X159076313Y-70587373D01*
X159119515Y-70607860D01*
X159171965Y-70621326D01*
X159217843Y-70625769D01*
X159241331Y-70619181D01*
X159236778Y-70607711D01*
X159238230Y-70578512D01*
X159259600Y-70546732D01*
X159282004Y-70506993D01*
X159275233Y-70487801D01*
X159241530Y-70492017D01*
X159219668Y-70510679D01*
X159165216Y-70545817D01*
X159105600Y-70533791D01*
X159048603Y-70476558D01*
X159041822Y-70465950D01*
X159003677Y-70398426D01*
X158994807Y-70364236D01*
X159014768Y-70355512D01*
X159035750Y-70358304D01*
X159093555Y-70366949D01*
X159113450Y-70368756D01*
X159135990Y-70382567D01*
X159133617Y-70391866D01*
X159140939Y-70410749D01*
X159155096Y-70413033D01*
X159179320Y-70395879D01*
X159177647Y-70381735D01*
X159179792Y-70344181D01*
X159214368Y-70331190D01*
X159267570Y-70346280D01*
X159282418Y-70355020D01*
X159321411Y-70377492D01*
X159341600Y-70370858D01*
X159354043Y-70326421D01*
X159359641Y-70294261D01*
X159366432Y-70205758D01*
X159360611Y-70122129D01*
X159358987Y-70113908D01*
X159341396Y-70033813D01*
X159439398Y-70051960D01*
X159512936Y-70077411D01*
X159602545Y-70124647D01*
X159669661Y-70169603D01*
X159756122Y-70231996D01*
X159806019Y-70261902D01*
X159818707Y-70259314D01*
X159793542Y-70224225D01*
X159743426Y-70170393D01*
X159687383Y-70106101D01*
X159672134Y-70069360D01*
X159681121Y-70060242D01*
X159681746Y-70046560D01*
X159642990Y-70025700D01*
X159618967Y-70016954D01*
X159554471Y-69988445D01*
X159533280Y-69957224D01*
X159534090Y-69951051D01*
X159469484Y-69951051D01*
X159452542Y-69961244D01*
X159400666Y-69956707D01*
X159369773Y-69951864D01*
X159297312Y-69936816D01*
X159247135Y-69920464D01*
X159237830Y-69914845D01*
X159234195Y-69891633D01*
X159170672Y-69891633D01*
X159167844Y-69932176D01*
X159143266Y-69930010D01*
X159109229Y-69900800D01*
X159066480Y-69867374D01*
X159045990Y-69870177D01*
X159050772Y-69899461D01*
X159047684Y-69923308D01*
X159009646Y-69937256D01*
X158945540Y-69943911D01*
X158874037Y-69947971D01*
X158827894Y-69949556D01*
X158819559Y-69949191D01*
X158825860Y-69926698D01*
X158848531Y-69869232D01*
X158883047Y-69788126D01*
X158892205Y-69767272D01*
X158948887Y-69654053D01*
X158997460Y-69589795D01*
X159023905Y-69574056D01*
X159086617Y-69570516D01*
X159115459Y-69603503D01*
X159118300Y-69630063D01*
X159124466Y-69678763D01*
X159140235Y-69755403D01*
X159152680Y-69806364D01*
X159170672Y-69891633D01*
X159234195Y-69891633D01*
X159232979Y-69883868D01*
X159235715Y-69818933D01*
X159244051Y-69735970D01*
X159256002Y-69650911D01*
X159269580Y-69579686D01*
X159282798Y-69538227D01*
X159285209Y-69534925D01*
X159308081Y-69536814D01*
X159337856Y-69583544D01*
X159375736Y-69677239D01*
X159391631Y-69723000D01*
X159421939Y-69811373D01*
X159448289Y-69885594D01*
X159462282Y-69922728D01*
X159469484Y-69951051D01*
X159534090Y-69951051D01*
X159535153Y-69942955D01*
X159546873Y-69898454D01*
X159566168Y-69820528D01*
X159589072Y-69725221D01*
X159591403Y-69715373D01*
X159614531Y-69621148D01*
X159633023Y-69566410D01*
X159653721Y-69541158D01*
X159683468Y-69535394D01*
X159713080Y-69537573D01*
X159756016Y-69545495D01*
X159784463Y-69566657D01*
X159806773Y-69612718D01*
X159831298Y-69695338D01*
X159834453Y-69707023D01*
X159864934Y-69812394D01*
X159886255Y-69868224D01*
X159898233Y-69874443D01*
X159900685Y-69830981D01*
X159893426Y-69737770D01*
X159892509Y-69728997D01*
X159883923Y-69638710D01*
X159883530Y-69588937D01*
X159893192Y-69569784D01*
X159914771Y-69571361D01*
X159921754Y-69573664D01*
X159953758Y-69583345D01*
X159945748Y-69572247D01*
X159920783Y-69552406D01*
X159897295Y-69528790D01*
X159886739Y-69501360D01*
X159769973Y-69501360D01*
X159738066Y-69501234D01*
X159706318Y-69484596D01*
X159686542Y-69461386D01*
X159688578Y-69452066D01*
X159092900Y-69452066D01*
X159076944Y-69497653D01*
X159051690Y-69507100D01*
X159024664Y-69501228D01*
X159035340Y-69475008D01*
X159044503Y-69462650D01*
X159074690Y-69422729D01*
X159085713Y-69407616D01*
X159091324Y-69420090D01*
X159092900Y-69452066D01*
X159688578Y-69452066D01*
X159693202Y-69430900D01*
X159321500Y-69430900D01*
X159312207Y-69451807D01*
X159304567Y-69447833D01*
X159301527Y-69417689D01*
X159304567Y-69413966D01*
X159319667Y-69417453D01*
X159321500Y-69430900D01*
X159693202Y-69430900D01*
X159694929Y-69422999D01*
X159711651Y-69389735D01*
X159738390Y-69344176D01*
X159749673Y-69341187D01*
X159752284Y-69371672D01*
X159760210Y-69436353D01*
X159768718Y-69466922D01*
X159769973Y-69501360D01*
X159886739Y-69501360D01*
X159884582Y-69495755D01*
X159881160Y-69441368D01*
X159885546Y-69353698D01*
X159889581Y-69301339D01*
X159903041Y-69139480D01*
X159914570Y-69021400D01*
X159925938Y-68940215D01*
X159938913Y-68889038D01*
X159955263Y-68860983D01*
X159976756Y-68849166D01*
X160005161Y-68846701D01*
X160006339Y-68846699D01*
X160063505Y-68840826D01*
X160092485Y-68829249D01*
X160138137Y-68810633D01*
X160201208Y-68808668D01*
X160250836Y-68824212D01*
X160251623Y-68824821D01*
X160305347Y-68840191D01*
X160374569Y-68828445D01*
X160407350Y-68812716D01*
X160435076Y-68808439D01*
X160439100Y-68818232D01*
X160460832Y-68835147D01*
X160507999Y-68838781D01*
X160549483Y-68840219D01*
X160573458Y-68860126D01*
X160588983Y-68910804D01*
X160597994Y-68961000D01*
X160609940Y-69104895D01*
X160606045Y-69283698D01*
X160587578Y-69484485D01*
X160555803Y-69694331D01*
X160511988Y-69900312D01*
X160502156Y-69938900D01*
X160496518Y-69976456D01*
X160511070Y-69968341D01*
X160545288Y-69915270D01*
X160598645Y-69817954D01*
X160616700Y-69783346D01*
X160674562Y-69682624D01*
X160718666Y-69630783D01*
X160749045Y-69627811D01*
X160765737Y-69673698D01*
X160769300Y-69737294D01*
X160763141Y-69825393D01*
X160743419Y-69870984D01*
X160731200Y-69878914D01*
X160697600Y-69903408D01*
X160693100Y-69915420D01*
X160712238Y-69926050D01*
X160737482Y-69920275D01*
X160764757Y-69912694D01*
X160763961Y-69927874D01*
X160734847Y-69974999D01*
X160710960Y-70017571D01*
X160711787Y-70031414D01*
X160715575Y-70029608D01*
X160732870Y-70030597D01*
X160728192Y-70051880D01*
X160706562Y-70086213D01*
X160696493Y-70091300D01*
X160672506Y-70110536D01*
X160645423Y-70148450D01*
X160625454Y-70184862D01*
X160633922Y-70183358D01*
X160644393Y-70173850D01*
X160684028Y-70145828D01*
X160707233Y-70157506D01*
X160717480Y-70213028D01*
X160718847Y-70262750D01*
X160724324Y-70379267D01*
X160742176Y-70454639D01*
X160775748Y-70497710D01*
X160813937Y-70514310D01*
X160871713Y-70514980D01*
X160918835Y-70475955D01*
X160923464Y-70469961D01*
X160954933Y-70418489D01*
X160952925Y-70397995D01*
X160920407Y-70413701D01*
X160900806Y-70430122D01*
X160841889Y-70467886D01*
X160796784Y-70458428D01*
X160770194Y-70423169D01*
X160748104Y-70370829D01*
X160756609Y-70334982D01*
X160802466Y-70300440D01*
X160832150Y-70283926D01*
X160894414Y-70255149D01*
X160933845Y-70253570D01*
X160961086Y-70270167D01*
X161003417Y-70287163D01*
X161030904Y-70255844D01*
X161043421Y-70176513D01*
X161042236Y-70072250D01*
X161033593Y-69913500D01*
X161143565Y-69913500D01*
X161216826Y-69918371D01*
X161256106Y-69937709D01*
X161274877Y-69970650D01*
X161282856Y-70040811D01*
X161273348Y-70088472D01*
X161258001Y-70144274D01*
X161265488Y-70159305D01*
X161289606Y-70134479D01*
X161319016Y-70081744D01*
X161351162Y-70023728D01*
X161377545Y-69991826D01*
X161382808Y-69989700D01*
X161392203Y-69970661D01*
X161386756Y-69948134D01*
X161385063Y-69917652D01*
X161406603Y-69918358D01*
X161434867Y-69953224D01*
X161446045Y-70028961D01*
X161441244Y-70139010D01*
X161421573Y-70276811D01*
X161388139Y-70435807D01*
X161342049Y-70609436D01*
X161284411Y-70791140D01*
X161237333Y-70920808D01*
X161181943Y-71054101D01*
X161121621Y-71172460D01*
X161050601Y-71282864D01*
X160963116Y-71392292D01*
X160853400Y-71507723D01*
X160715687Y-71636135D01*
X160544209Y-71784507D01*
X160477200Y-71840732D01*
X160351842Y-71945285D01*
X160258812Y-72021276D01*
X160191088Y-72072272D01*
X160141651Y-72101840D01*
X160103479Y-72113549D01*
X160069551Y-72110966D01*
X160032847Y-72097657D01*
X160000104Y-72083149D01*
X159925947Y-72047235D01*
X159827544Y-71995231D01*
X159724110Y-71937347D01*
X159706752Y-71927273D01*
X159607589Y-71870785D01*
X159538616Y-71834399D01*
X159503178Y-71819495D01*
X159504621Y-71827455D01*
X159546289Y-71859662D01*
X159550799Y-71862860D01*
X159648951Y-71925672D01*
X159792540Y-72007475D01*
X159957490Y-72095725D01*
X160047350Y-72138050D01*
X160112625Y-72150471D01*
X160171158Y-72131024D01*
X160240788Y-72077747D01*
X160257816Y-72062681D01*
X160317832Y-72009000D01*
X160299883Y-72142350D01*
X160290977Y-72229732D01*
X160292911Y-72269069D01*
X160303531Y-72261427D01*
X160320682Y-72207871D01*
X160339649Y-72122681D01*
X160358515Y-72040132D01*
X160377193Y-71979884D01*
X160389497Y-71957460D01*
X160416427Y-71967479D01*
X160457884Y-72009251D01*
X160504196Y-72069862D01*
X160545694Y-72136398D01*
X160572706Y-72195946D01*
X160575511Y-72205850D01*
X160592468Y-72275700D01*
X161943208Y-72275700D01*
X161925647Y-72205850D01*
X161895071Y-72072348D01*
X161865248Y-71920685D01*
X161837260Y-71759088D01*
X161812191Y-71595781D01*
X161791123Y-71438992D01*
X161775141Y-71296946D01*
X161765326Y-71177869D01*
X161762763Y-71089989D01*
X161768534Y-71041530D01*
X161771652Y-71036281D01*
X161783187Y-71044437D01*
X161785300Y-71064785D01*
X161794334Y-71101307D01*
X161818893Y-71174894D01*
X161855163Y-71275637D01*
X161899329Y-71393627D01*
X161947578Y-71518954D01*
X161996097Y-71641709D01*
X162041070Y-71751982D01*
X162078684Y-71839864D01*
X162104722Y-71894700D01*
X162111717Y-71901564D01*
X162117723Y-71892035D01*
X162122813Y-71862849D01*
X162127061Y-71810740D01*
X162130539Y-71732446D01*
X162133321Y-71624702D01*
X162135479Y-71484245D01*
X162137088Y-71307810D01*
X162138220Y-71092133D01*
X162138948Y-70833951D01*
X162139345Y-70529999D01*
X162139441Y-70357449D01*
X161474102Y-70357449D01*
X161470552Y-70405196D01*
X161470201Y-70408800D01*
X161458518Y-70481454D01*
X161439991Y-70552787D01*
X161419070Y-70610285D01*
X161400202Y-70641431D01*
X161388937Y-70637400D01*
X161391530Y-70601523D01*
X161407576Y-70533466D01*
X161429894Y-70459600D01*
X161456353Y-70381399D01*
X161470229Y-70348433D01*
X161474102Y-70357449D01*
X162139441Y-70357449D01*
X162139448Y-70345300D01*
X162139498Y-70017516D01*
X162139415Y-69888100D01*
X161439883Y-69888100D01*
X161414487Y-69880358D01*
X161393678Y-69872682D01*
X161358643Y-69841121D01*
X161353500Y-69821882D01*
X161332487Y-69792620D01*
X161305694Y-69786500D01*
X161276537Y-69782105D01*
X161276046Y-69780306D01*
X161175700Y-69780306D01*
X161022761Y-69837501D01*
X160941519Y-69870360D01*
X160881055Y-69899429D01*
X160856162Y-69916798D01*
X160826500Y-69938525D01*
X160822624Y-69938900D01*
X160823967Y-69918223D01*
X160844964Y-69863200D01*
X160881421Y-69784338D01*
X160895658Y-69755805D01*
X160943565Y-69664409D01*
X160979257Y-69609083D01*
X161012276Y-69579994D01*
X161052161Y-69567307D01*
X161082136Y-69563594D01*
X161175700Y-69554478D01*
X161175700Y-69780306D01*
X161276046Y-69780306D01*
X161270489Y-69759946D01*
X161285420Y-69706556D01*
X161290632Y-69691250D01*
X161323207Y-69620448D01*
X161354374Y-69600173D01*
X161383470Y-69630156D01*
X161409828Y-69710130D01*
X161416748Y-69742050D01*
X161431344Y-69819811D01*
X161439505Y-69872787D01*
X161439883Y-69888100D01*
X162139415Y-69888100D01*
X162139316Y-69736394D01*
X162138790Y-69497797D01*
X162138788Y-69497260D01*
X161370169Y-69497260D01*
X161366200Y-69507100D01*
X161343376Y-69531331D01*
X161339301Y-69532500D01*
X161328392Y-69512848D01*
X161328100Y-69507100D01*
X161334868Y-69498633D01*
X160768306Y-69498633D01*
X160760010Y-69557777D01*
X160738583Y-69589994D01*
X160737550Y-69590405D01*
X160707185Y-69597166D01*
X160701125Y-69580544D01*
X160718517Y-69531049D01*
X160729816Y-69504593D01*
X160767312Y-69418200D01*
X160768306Y-69498633D01*
X161334868Y-69498633D01*
X161338253Y-69494400D01*
X161154139Y-69494400D01*
X161074675Y-69497172D01*
X161019719Y-69491613D01*
X161005964Y-69471913D01*
X161006017Y-69471772D01*
X161016817Y-69433224D01*
X161033830Y-69361904D01*
X161049481Y-69291200D01*
X161073698Y-69192259D01*
X161095023Y-69131313D01*
X161111514Y-69111974D01*
X161121227Y-69137859D01*
X161122543Y-69155298D01*
X161126680Y-69214463D01*
X161134300Y-69300303D01*
X161139691Y-69354700D01*
X161154139Y-69494400D01*
X161338253Y-69494400D01*
X161347627Y-69482676D01*
X161355000Y-69481700D01*
X161370169Y-69497260D01*
X162138788Y-69497260D01*
X162137807Y-69297586D01*
X162136253Y-69131623D01*
X162134015Y-68995771D01*
X162130980Y-68885892D01*
X162127034Y-68797848D01*
X162122065Y-68727501D01*
X162115959Y-68670713D01*
X162108603Y-68623347D01*
X162099884Y-68581265D01*
X162090101Y-68541900D01*
X162062312Y-68434989D01*
X162047077Y-68367989D01*
X162044394Y-68331584D01*
X162054264Y-68316459D01*
X162076687Y-68313299D01*
X162090100Y-68313300D01*
X162133179Y-68300938D01*
X162136944Y-68269772D01*
X162104679Y-68228674D01*
X162044008Y-68188701D01*
X161949800Y-68115370D01*
X161900385Y-68035639D01*
X161864622Y-67965934D01*
X161830830Y-67915083D01*
X161821404Y-67905243D01*
X161803305Y-67876927D01*
X161810282Y-67831263D01*
X161825328Y-67791905D01*
X161844228Y-67719719D01*
X161855309Y-67631967D01*
X157845360Y-67631967D01*
X157840498Y-67666425D01*
X157816731Y-67677426D01*
X157791139Y-67678300D01*
X157733783Y-67659912D01*
X157674897Y-67600391D01*
X157659096Y-67578569D01*
X157597147Y-67507532D01*
X157525531Y-67450128D01*
X157503242Y-67437678D01*
X157447364Y-67408438D01*
X157417869Y-67387693D01*
X157416500Y-67385008D01*
X157439814Y-67379471D01*
X157501418Y-67375393D01*
X157588807Y-67373539D01*
X157604283Y-67373500D01*
X157705414Y-67374701D01*
X157767477Y-67384610D01*
X157802195Y-67412685D01*
X157821295Y-67468382D01*
X157836441Y-67560752D01*
X157845360Y-67631967D01*
X161855309Y-67631967D01*
X161857161Y-67617303D01*
X161861501Y-67514015D01*
X161861500Y-67322700D01*
X160426400Y-67322700D01*
X160089528Y-67323043D01*
X160089528Y-67323043D01*
G37*
X160089528Y-67323043D02*
X159801626Y-67324096D01*
X159560868Y-67325894D01*
X159365429Y-67328473D01*
X159213483Y-67331868D01*
X159103205Y-67336113D01*
X159032768Y-67341244D01*
X159000348Y-67347296D01*
X158997650Y-67350235D01*
X158978501Y-67370980D01*
X158921951Y-67402420D01*
X158838703Y-67438913D01*
X158804151Y-67452242D01*
X158701047Y-67493543D01*
X158608139Y-67535797D01*
X158542499Y-67571128D01*
X158533530Y-67577106D01*
X158482925Y-67611062D01*
X158453030Y-67627271D01*
X158451651Y-67627500D01*
X158439159Y-67605263D01*
X158417588Y-67547277D01*
X158394400Y-67475100D01*
X158348257Y-67322700D01*
X158190277Y-67322700D01*
X158098964Y-67325392D01*
X158043307Y-67336357D01*
X158008315Y-67359923D01*
X157992431Y-67379849D01*
X157952565Y-67437000D01*
X157951233Y-67379850D01*
X157949096Y-67357264D01*
X157938674Y-67341584D01*
X157912101Y-67331549D01*
X157861510Y-67325900D01*
X157779034Y-67323377D01*
X157656805Y-67322721D01*
X157594300Y-67322700D01*
X157238700Y-67322700D01*
X157238700Y-67672190D01*
X157239233Y-67812662D01*
X157241600Y-67910973D01*
X157246961Y-67975757D01*
X157256470Y-68015649D01*
X157271287Y-68039282D01*
X157289809Y-68053597D01*
X157340917Y-68085515D01*
X157289809Y-68185695D01*
X157280449Y-68205211D01*
X157272307Y-68226885D01*
X157265298Y-68254195D01*
X157259338Y-68290620D01*
X157254341Y-68339640D01*
X157250223Y-68404734D01*
X157246899Y-68489380D01*
X157244284Y-68597058D01*
X157242293Y-68731246D01*
X157240841Y-68895423D01*
X157239844Y-69093070D01*
X157239216Y-69327663D01*
X157238873Y-69602684D01*
X157238729Y-69921609D01*
X157238700Y-70280788D01*
X157238700Y-72275700D01*
X158978600Y-72273454D01*
X158882068Y-72222512D01*
X158818680Y-72182511D01*
X158777093Y-72144188D01*
X158771212Y-72134243D01*
X158762616Y-72072233D01*
X158767276Y-71982698D01*
X158782205Y-71883566D01*
X158804413Y-71792767D01*
X158830910Y-71728230D01*
X158841165Y-71714635D01*
X158888944Y-71674535D01*
X158915671Y-71676502D01*
X158926607Y-71723759D01*
X158927800Y-71767700D01*
X158923573Y-71831339D01*
X158913012Y-71866719D01*
X158908750Y-71869300D01*
X158894296Y-71847573D01*
X158889700Y-71807299D01*
X158880335Y-71753517D01*
X158864300Y-71729600D01*
X158845747Y-71738896D01*
X158838900Y-71782833D01*
X158863960Y-71861816D01*
X158938383Y-71945446D01*
X159061038Y-72032815D01*
X159230794Y-72123017D01*
X159305987Y-72157222D01*
X159417087Y-72204193D01*
X159514206Y-72242154D01*
X159586231Y-72266955D01*
X159620459Y-72274596D01*
X159618924Y-72265485D01*
X159577994Y-72242005D01*
X159505555Y-72208366D01*
X159461200Y-72189555D01*
X159343108Y-72137341D01*
X159220771Y-72077757D01*
X159118719Y-72022808D01*
X159109759Y-72017546D01*
X158961517Y-71929474D01*
X158957359Y-71646217D01*
X158953200Y-71362961D01*
X159073850Y-71481825D01*
X159133996Y-71537699D01*
X159177226Y-71571404D01*
X159194478Y-71575912D01*
X159194500Y-71575450D01*
X159177481Y-71547220D01*
X159132117Y-71493856D01*
X159066948Y-71425154D01*
X159040335Y-71398604D01*
X158954143Y-71309704D01*
X158869612Y-71215655D01*
X158803484Y-71135171D01*
X158797421Y-71127098D01*
X158714277Y-71034874D01*
X158631537Y-70986275D01*
X158619591Y-70982599D01*
X158528213Y-70940423D01*
X158425485Y-70867145D01*
X158325605Y-70775574D01*
X158242772Y-70678516D01*
X158196042Y-70600531D01*
X158165604Y-70504574D01*
X158149759Y-70395538D01*
X158147597Y-70284543D01*
X158158205Y-70182709D01*
X158180674Y-70101155D01*
X158214091Y-70051000D01*
X158241939Y-70040500D01*
X158280878Y-70056783D01*
X158340827Y-70098889D01*
X158391459Y-70142100D01*
X158453013Y-70196500D01*
X158499586Y-70233371D01*
X158517891Y-70243700D01*
X158531940Y-70222755D01*
X158533710Y-70173812D01*
X158524920Y-70117702D01*
X158507293Y-70075258D01*
X158503621Y-70070980D01*
X158485949Y-70045811D01*
X158503621Y-70040500D01*
X158532207Y-70057108D01*
X158534100Y-70065900D01*
X158553429Y-70090561D01*
X158559500Y-70091300D01*
X158572926Y-70068084D01*
X158582064Y-70007078D01*
X158584900Y-69933820D01*
X158587974Y-69846498D01*
X158598230Y-69807510D01*
X158617222Y-69817070D01*
X158646503Y-69875391D01*
X158674228Y-69946079D01*
X158713398Y-70037624D01*
X158744607Y-70079647D01*
X158768457Y-70072699D01*
X158780073Y-70043055D01*
X158811195Y-69999738D01*
X158860913Y-69989794D01*
X158927800Y-69989889D01*
X158848022Y-70038536D01*
X158779543Y-70085905D01*
X158754910Y-70125725D01*
X158771697Y-70171413D01*
X158814731Y-70222736D01*
X158862096Y-70272854D01*
X158882454Y-70287583D01*
X158883119Y-70268981D01*
X158876489Y-70240120D01*
X158873298Y-70183310D01*
X158887642Y-70156071D01*
X158907225Y-70164887D01*
X158915012Y-70220378D01*
X158915100Y-70229777D01*
X158929025Y-70321202D01*
X158964985Y-70423123D01*
X159014264Y-70516203D01*
X159068142Y-70581102D01*
X159076313Y-70587373D01*
X159119515Y-70607860D01*
X159171965Y-70621326D01*
X159217843Y-70625769D01*
X159241331Y-70619181D01*
X159236778Y-70607711D01*
X159238230Y-70578512D01*
X159259600Y-70546732D01*
X159282004Y-70506993D01*
X159275233Y-70487801D01*
X159241530Y-70492017D01*
X159219668Y-70510679D01*
X159165216Y-70545817D01*
X159105600Y-70533791D01*
X159048603Y-70476558D01*
X159041822Y-70465950D01*
X159003677Y-70398426D01*
X158994807Y-70364236D01*
X159014768Y-70355512D01*
X159035750Y-70358304D01*
X159093555Y-70366949D01*
X159113450Y-70368756D01*
X159135990Y-70382567D01*
X159133617Y-70391866D01*
X159140939Y-70410749D01*
X159155096Y-70413033D01*
X159179320Y-70395879D01*
X159177647Y-70381735D01*
X159179792Y-70344181D01*
X159214368Y-70331190D01*
X159267570Y-70346280D01*
X159282418Y-70355020D01*
X159321411Y-70377492D01*
X159341600Y-70370858D01*
X159354043Y-70326421D01*
X159359641Y-70294261D01*
X159366432Y-70205758D01*
X159360611Y-70122129D01*
X159358987Y-70113908D01*
X159341396Y-70033813D01*
X159439398Y-70051960D01*
X159512936Y-70077411D01*
X159602545Y-70124647D01*
X159669661Y-70169603D01*
X159756122Y-70231996D01*
X159806019Y-70261902D01*
X159818707Y-70259314D01*
X159793542Y-70224225D01*
X159743426Y-70170393D01*
X159687383Y-70106101D01*
X159672134Y-70069360D01*
X159681121Y-70060242D01*
X159681746Y-70046560D01*
X159642990Y-70025700D01*
X159618967Y-70016954D01*
X159554471Y-69988445D01*
X159533280Y-69957224D01*
X159534090Y-69951051D01*
X159469484Y-69951051D01*
X159452542Y-69961244D01*
X159400666Y-69956707D01*
X159369773Y-69951864D01*
X159297312Y-69936816D01*
X159247135Y-69920464D01*
X159237830Y-69914845D01*
X159234195Y-69891633D01*
X159170672Y-69891633D01*
X159167844Y-69932176D01*
X159143266Y-69930010D01*
X159109229Y-69900800D01*
X159066480Y-69867374D01*
X159045990Y-69870177D01*
X159050772Y-69899461D01*
X159047684Y-69923308D01*
X159009646Y-69937256D01*
X158945540Y-69943911D01*
X158874037Y-69947971D01*
X158827894Y-69949556D01*
X158819559Y-69949191D01*
X158825860Y-69926698D01*
X158848531Y-69869232D01*
X158883047Y-69788126D01*
X158892205Y-69767272D01*
X158948887Y-69654053D01*
X158997460Y-69589795D01*
X159023905Y-69574056D01*
X159086617Y-69570516D01*
X159115459Y-69603503D01*
X159118300Y-69630063D01*
X159124466Y-69678763D01*
X159140235Y-69755403D01*
X159152680Y-69806364D01*
X159170672Y-69891633D01*
X159234195Y-69891633D01*
X159232979Y-69883868D01*
X159235715Y-69818933D01*
X159244051Y-69735970D01*
X159256002Y-69650911D01*
X159269580Y-69579686D01*
X159282798Y-69538227D01*
X159285209Y-69534925D01*
X159308081Y-69536814D01*
X159337856Y-69583544D01*
X159375736Y-69677239D01*
X159391631Y-69723000D01*
X159421939Y-69811373D01*
X159448289Y-69885594D01*
X159462282Y-69922728D01*
X159469484Y-69951051D01*
X159534090Y-69951051D01*
X159535153Y-69942955D01*
X159546873Y-69898454D01*
X159566168Y-69820528D01*
X159589072Y-69725221D01*
X159591403Y-69715373D01*
X159614531Y-69621148D01*
X159633023Y-69566410D01*
X159653721Y-69541158D01*
X159683468Y-69535394D01*
X159713080Y-69537573D01*
X159756016Y-69545495D01*
X159784463Y-69566657D01*
X159806773Y-69612718D01*
X159831298Y-69695338D01*
X159834453Y-69707023D01*
X159864934Y-69812394D01*
X159886255Y-69868224D01*
X159898233Y-69874443D01*
X159900685Y-69830981D01*
X159893426Y-69737770D01*
X159892509Y-69728997D01*
X159883923Y-69638710D01*
X159883530Y-69588937D01*
X159893192Y-69569784D01*
X159914771Y-69571361D01*
X159921754Y-69573664D01*
X159953758Y-69583345D01*
X159945748Y-69572247D01*
X159920783Y-69552406D01*
X159897295Y-69528790D01*
X159886739Y-69501360D01*
X159769973Y-69501360D01*
X159738066Y-69501234D01*
X159706318Y-69484596D01*
X159686542Y-69461386D01*
X159688578Y-69452066D01*
X159092900Y-69452066D01*
X159076944Y-69497653D01*
X159051690Y-69507100D01*
X159024664Y-69501228D01*
X159035340Y-69475008D01*
X159044503Y-69462650D01*
X159074690Y-69422729D01*
X159085713Y-69407616D01*
X159091324Y-69420090D01*
X159092900Y-69452066D01*
X159688578Y-69452066D01*
X159693202Y-69430900D01*
X159321500Y-69430900D01*
X159312207Y-69451807D01*
X159304567Y-69447833D01*
X159301527Y-69417689D01*
X159304567Y-69413966D01*
X159319667Y-69417453D01*
X159321500Y-69430900D01*
X159693202Y-69430900D01*
X159694929Y-69422999D01*
X159711651Y-69389735D01*
X159738390Y-69344176D01*
X159749673Y-69341187D01*
X159752284Y-69371672D01*
X159760210Y-69436353D01*
X159768718Y-69466922D01*
X159769973Y-69501360D01*
X159886739Y-69501360D01*
X159884582Y-69495755D01*
X159881160Y-69441368D01*
X159885546Y-69353698D01*
X159889581Y-69301339D01*
X159903041Y-69139480D01*
X159914570Y-69021400D01*
X159925938Y-68940215D01*
X159938913Y-68889038D01*
X159955263Y-68860983D01*
X159976756Y-68849166D01*
X160005161Y-68846701D01*
X160006339Y-68846699D01*
X160063505Y-68840826D01*
X160092485Y-68829249D01*
X160138137Y-68810633D01*
X160201208Y-68808668D01*
X160250836Y-68824212D01*
X160251623Y-68824821D01*
X160305347Y-68840191D01*
X160374569Y-68828445D01*
X160407350Y-68812716D01*
X160435076Y-68808439D01*
X160439100Y-68818232D01*
X160460832Y-68835147D01*
X160507999Y-68838781D01*
X160549483Y-68840219D01*
X160573458Y-68860126D01*
X160588983Y-68910804D01*
X160597994Y-68961000D01*
X160609940Y-69104895D01*
X160606045Y-69283698D01*
X160587578Y-69484485D01*
X160555803Y-69694331D01*
X160511988Y-69900312D01*
X160502156Y-69938900D01*
X160496518Y-69976456D01*
X160511070Y-69968341D01*
X160545288Y-69915270D01*
X160598645Y-69817954D01*
X160616700Y-69783346D01*
X160674562Y-69682624D01*
X160718666Y-69630783D01*
X160749045Y-69627811D01*
X160765737Y-69673698D01*
X160769300Y-69737294D01*
X160763141Y-69825393D01*
X160743419Y-69870984D01*
X160731200Y-69878914D01*
X160697600Y-69903408D01*
X160693100Y-69915420D01*
X160712238Y-69926050D01*
X160737482Y-69920275D01*
X160764757Y-69912694D01*
X160763961Y-69927874D01*
X160734847Y-69974999D01*
X160710960Y-70017571D01*
X160711787Y-70031414D01*
X160715575Y-70029608D01*
X160732870Y-70030597D01*
X160728192Y-70051880D01*
X160706562Y-70086213D01*
X160696493Y-70091300D01*
X160672506Y-70110536D01*
X160645423Y-70148450D01*
X160625454Y-70184862D01*
X160633922Y-70183358D01*
X160644393Y-70173850D01*
X160684028Y-70145828D01*
X160707233Y-70157506D01*
X160717480Y-70213028D01*
X160718847Y-70262750D01*
X160724324Y-70379267D01*
X160742176Y-70454639D01*
X160775748Y-70497710D01*
X160813937Y-70514310D01*
X160871713Y-70514980D01*
X160918835Y-70475955D01*
X160923464Y-70469961D01*
X160954933Y-70418489D01*
X160952925Y-70397995D01*
X160920407Y-70413701D01*
X160900806Y-70430122D01*
X160841889Y-70467886D01*
X160796784Y-70458428D01*
X160770194Y-70423169D01*
X160748104Y-70370829D01*
X160756609Y-70334982D01*
X160802466Y-70300440D01*
X160832150Y-70283926D01*
X160894414Y-70255149D01*
X160933845Y-70253570D01*
X160961086Y-70270167D01*
X161003417Y-70287163D01*
X161030904Y-70255844D01*
X161043421Y-70176513D01*
X161042236Y-70072250D01*
X161033593Y-69913500D01*
X161143565Y-69913500D01*
X161216826Y-69918371D01*
X161256106Y-69937709D01*
X161274877Y-69970650D01*
X161282856Y-70040811D01*
X161273348Y-70088472D01*
X161258001Y-70144274D01*
X161265488Y-70159305D01*
X161289606Y-70134479D01*
X161319016Y-70081744D01*
X161351162Y-70023728D01*
X161377545Y-69991826D01*
X161382808Y-69989700D01*
X161392203Y-69970661D01*
X161386756Y-69948134D01*
X161385063Y-69917652D01*
X161406603Y-69918358D01*
X161434867Y-69953224D01*
X161446045Y-70028961D01*
X161441244Y-70139010D01*
X161421573Y-70276811D01*
X161388139Y-70435807D01*
X161342049Y-70609436D01*
X161284411Y-70791140D01*
X161237333Y-70920808D01*
X161181943Y-71054101D01*
X161121621Y-71172460D01*
X161050601Y-71282864D01*
X160963116Y-71392292D01*
X160853400Y-71507723D01*
X160715687Y-71636135D01*
X160544209Y-71784507D01*
X160477200Y-71840732D01*
X160351842Y-71945285D01*
X160258812Y-72021276D01*
X160191088Y-72072272D01*
X160141651Y-72101840D01*
X160103479Y-72113549D01*
X160069551Y-72110966D01*
X160032847Y-72097657D01*
X160000104Y-72083149D01*
X159925947Y-72047235D01*
X159827544Y-71995231D01*
X159724110Y-71937347D01*
X159706752Y-71927273D01*
X159607589Y-71870785D01*
X159538616Y-71834399D01*
X159503178Y-71819495D01*
X159504621Y-71827455D01*
X159546289Y-71859662D01*
X159550799Y-71862860D01*
X159648951Y-71925672D01*
X159792540Y-72007475D01*
X159957490Y-72095725D01*
X160047350Y-72138050D01*
X160112625Y-72150471D01*
X160171158Y-72131024D01*
X160240788Y-72077747D01*
X160257816Y-72062681D01*
X160317832Y-72009000D01*
X160299883Y-72142350D01*
X160290977Y-72229732D01*
X160292911Y-72269069D01*
X160303531Y-72261427D01*
X160320682Y-72207871D01*
X160339649Y-72122681D01*
X160358515Y-72040132D01*
X160377193Y-71979884D01*
X160389497Y-71957460D01*
X160416427Y-71967479D01*
X160457884Y-72009251D01*
X160504196Y-72069862D01*
X160545694Y-72136398D01*
X160572706Y-72195946D01*
X160575511Y-72205850D01*
X160592468Y-72275700D01*
X161943208Y-72275700D01*
X161925647Y-72205850D01*
X161895071Y-72072348D01*
X161865248Y-71920685D01*
X161837260Y-71759088D01*
X161812191Y-71595781D01*
X161791123Y-71438992D01*
X161775141Y-71296946D01*
X161765326Y-71177869D01*
X161762763Y-71089989D01*
X161768534Y-71041530D01*
X161771652Y-71036281D01*
X161783187Y-71044437D01*
X161785300Y-71064785D01*
X161794334Y-71101307D01*
X161818893Y-71174894D01*
X161855163Y-71275637D01*
X161899329Y-71393627D01*
X161947578Y-71518954D01*
X161996097Y-71641709D01*
X162041070Y-71751982D01*
X162078684Y-71839864D01*
X162104722Y-71894700D01*
X162111717Y-71901564D01*
X162117723Y-71892035D01*
X162122813Y-71862849D01*
X162127061Y-71810740D01*
X162130539Y-71732446D01*
X162133321Y-71624702D01*
X162135479Y-71484245D01*
X162137088Y-71307810D01*
X162138220Y-71092133D01*
X162138948Y-70833951D01*
X162139345Y-70529999D01*
X162139441Y-70357449D01*
X161474102Y-70357449D01*
X161470552Y-70405196D01*
X161470201Y-70408800D01*
X161458518Y-70481454D01*
X161439991Y-70552787D01*
X161419070Y-70610285D01*
X161400202Y-70641431D01*
X161388937Y-70637400D01*
X161391530Y-70601523D01*
X161407576Y-70533466D01*
X161429894Y-70459600D01*
X161456353Y-70381399D01*
X161470229Y-70348433D01*
X161474102Y-70357449D01*
X162139441Y-70357449D01*
X162139448Y-70345300D01*
X162139498Y-70017516D01*
X162139415Y-69888100D01*
X161439883Y-69888100D01*
X161414487Y-69880358D01*
X161393678Y-69872682D01*
X161358643Y-69841121D01*
X161353500Y-69821882D01*
X161332487Y-69792620D01*
X161305694Y-69786500D01*
X161276537Y-69782105D01*
X161276046Y-69780306D01*
X161175700Y-69780306D01*
X161022761Y-69837501D01*
X160941519Y-69870360D01*
X160881055Y-69899429D01*
X160856162Y-69916798D01*
X160826500Y-69938525D01*
X160822624Y-69938900D01*
X160823967Y-69918223D01*
X160844964Y-69863200D01*
X160881421Y-69784338D01*
X160895658Y-69755805D01*
X160943565Y-69664409D01*
X160979257Y-69609083D01*
X161012276Y-69579994D01*
X161052161Y-69567307D01*
X161082136Y-69563594D01*
X161175700Y-69554478D01*
X161175700Y-69780306D01*
X161276046Y-69780306D01*
X161270489Y-69759946D01*
X161285420Y-69706556D01*
X161290632Y-69691250D01*
X161323207Y-69620448D01*
X161354374Y-69600173D01*
X161383470Y-69630156D01*
X161409828Y-69710130D01*
X161416748Y-69742050D01*
X161431344Y-69819811D01*
X161439505Y-69872787D01*
X161439883Y-69888100D01*
X162139415Y-69888100D01*
X162139316Y-69736394D01*
X162138790Y-69497797D01*
X162138788Y-69497260D01*
X161370169Y-69497260D01*
X161366200Y-69507100D01*
X161343376Y-69531331D01*
X161339301Y-69532500D01*
X161328392Y-69512848D01*
X161328100Y-69507100D01*
X161334868Y-69498633D01*
X160768306Y-69498633D01*
X160760010Y-69557777D01*
X160738583Y-69589994D01*
X160737550Y-69590405D01*
X160707185Y-69597166D01*
X160701125Y-69580544D01*
X160718517Y-69531049D01*
X160729816Y-69504593D01*
X160767312Y-69418200D01*
X160768306Y-69498633D01*
X161334868Y-69498633D01*
X161338253Y-69494400D01*
X161154139Y-69494400D01*
X161074675Y-69497172D01*
X161019719Y-69491613D01*
X161005964Y-69471913D01*
X161006017Y-69471772D01*
X161016817Y-69433224D01*
X161033830Y-69361904D01*
X161049481Y-69291200D01*
X161073698Y-69192259D01*
X161095023Y-69131313D01*
X161111514Y-69111974D01*
X161121227Y-69137859D01*
X161122543Y-69155298D01*
X161126680Y-69214463D01*
X161134300Y-69300303D01*
X161139691Y-69354700D01*
X161154139Y-69494400D01*
X161338253Y-69494400D01*
X161347627Y-69482676D01*
X161355000Y-69481700D01*
X161370169Y-69497260D01*
X162138788Y-69497260D01*
X162137807Y-69297586D01*
X162136253Y-69131623D01*
X162134015Y-68995771D01*
X162130980Y-68885892D01*
X162127034Y-68797848D01*
X162122065Y-68727501D01*
X162115959Y-68670713D01*
X162108603Y-68623347D01*
X162099884Y-68581265D01*
X162090101Y-68541900D01*
X162062312Y-68434989D01*
X162047077Y-68367989D01*
X162044394Y-68331584D01*
X162054264Y-68316459D01*
X162076687Y-68313299D01*
X162090100Y-68313300D01*
X162133179Y-68300938D01*
X162136944Y-68269772D01*
X162104679Y-68228674D01*
X162044008Y-68188701D01*
X161949800Y-68115370D01*
X161900385Y-68035639D01*
X161864622Y-67965934D01*
X161830830Y-67915083D01*
X161821404Y-67905243D01*
X161803305Y-67876927D01*
X161810282Y-67831263D01*
X161825328Y-67791905D01*
X161844228Y-67719719D01*
X161855309Y-67631967D01*
X157845360Y-67631967D01*
X157840498Y-67666425D01*
X157816731Y-67677426D01*
X157791139Y-67678300D01*
X157733783Y-67659912D01*
X157674897Y-67600391D01*
X157659096Y-67578569D01*
X157597147Y-67507532D01*
X157525531Y-67450128D01*
X157503242Y-67437678D01*
X157447364Y-67408438D01*
X157417869Y-67387693D01*
X157416500Y-67385008D01*
X157439814Y-67379471D01*
X157501418Y-67375393D01*
X157588807Y-67373539D01*
X157604283Y-67373500D01*
X157705414Y-67374701D01*
X157767477Y-67384610D01*
X157802195Y-67412685D01*
X157821295Y-67468382D01*
X157836441Y-67560752D01*
X157845360Y-67631967D01*
X161855309Y-67631967D01*
X161857161Y-67617303D01*
X161861501Y-67514015D01*
X161861500Y-67322700D01*
X160426400Y-67322700D01*
X160089528Y-67323043D01*
D12*
X78742000Y-43134000D02*
X78742000Y-48214000D01*
X128272000Y-43388000D02*
X179072000Y-43388000D01*
X128272000Y-38308000D02*
X128272000Y-43388000D01*
X179072000Y-38308000D02*
X128272000Y-38308000D01*
X179072000Y-43388000D02*
X179072000Y-38308000D01*
M02*
