M48
; DRILL file {KiCad (6.0.8)} date Sat Nov 19 16:18:43 2022
; FORMAT={-:-/ absolute / metric / decimal}
; #@! TF.CreationDate,2022-11-19T16:18:43-06:00
; #@! TF.GenerationSoftware,Kicad,Pcbnew,(6.0.8)
; #@! TF.FileFunction,Plated,1,4,PTH
FMAT,2
METRIC
; #@! TA.AperFunction,Plated,PTH,ViaDrill
T1C0.400
; #@! TA.AperFunction,Plated,PTH,ComponentDrill
T2C0.800
; #@! TA.AperFunction,Plated,PTH,ComponentDrill
T3C0.900
; #@! TA.AperFunction,Plated,PTH,ComponentDrill
T4C1.000
; #@! TA.AperFunction,Plated,PTH,ComponentDrill
T5C1.020
; #@! TA.AperFunction,Plated,PTH,ComponentDrill
T6C1.100
; #@! TA.AperFunction,Plated,PTH,ComponentDrill
T7C1.600
; #@! TA.AperFunction,Plated,PTH,ComponentDrill
T8C3.000
; #@! TA.AperFunction,Plated,PTH,ComponentDrill
T9C4.060
%
G90
G05
T1
X118.5Y-94.8
X118.7Y-96.1
X124.7Y-95.1
X125.4Y-100.7
X127.0Y-102.3
X136.0Y-102.4
X137.768Y-102.362
X139.1Y-91.8
X140.18Y-102.475
X140.555Y-97.7
X142.5Y-91.2
X142.555Y-99.75
X143.455Y-96.65
X144.455Y-99.45
X146.155Y-98.15
X146.4Y-102.35
X147.4Y-92.7
X147.65Y-98.15
X147.955Y-102.35
X149.0Y-98.1
X150.6Y-92.7
X150.7Y-103.1
X152.3Y-96.8
X154.5Y-99.0
X155.1Y-95.1
X155.8Y-100.5
X157.1Y-92.3
X158.649Y-96.939
X159.6Y-91.8
X160.449Y-94.639
X161.449Y-97.439
X162.349Y-94.539
X163.349Y-95.039
X164.249Y-99.139
X165.949Y-99.039
X169.6Y-94.2
X172.1Y-94.0
X175.8Y-92.8
X178.0Y-95.5
X179.9Y-93.5
X181.9Y-95.5
X184.4Y-97.0
T2
X131.22Y-98.802
X131.22Y-100.802
X131.22Y-102.802
X133.22Y-98.802
X133.22Y-100.802
X133.22Y-102.802
T3
X110.125Y-93.2
X110.125Y-95.74
X110.125Y-98.28
X110.125Y-100.82
X112.665Y-94.47
X112.665Y-97.01
X112.665Y-99.55
X112.665Y-102.09
T4
X121.18Y-95.188
X121.18Y-97.727
X121.18Y-100.267
T5
X98.695Y-91.32
X98.695Y-101.43
X100.395Y-93.86
X100.395Y-103.97
X187.57Y-89.5
X187.57Y-92.5
X187.57Y-95.5
X187.57Y-98.5
X187.57Y-101.5
X187.57Y-104.5
T6
X118.25Y-90.0
X118.25Y-105.24
X120.79Y-90.0
X120.79Y-105.24
X123.33Y-90.0
X123.33Y-105.24
X125.87Y-90.0
X125.87Y-105.24
X128.41Y-90.0
X128.41Y-105.24
X130.95Y-90.0
X130.95Y-105.24
X133.49Y-90.0
X133.49Y-105.24
X136.03Y-90.0
X136.03Y-105.24
X138.57Y-90.0
X138.57Y-105.24
X141.11Y-90.0
X141.11Y-105.24
X143.65Y-90.0
X143.65Y-105.24
X146.19Y-90.0
X146.19Y-105.24
X148.73Y-90.0
X148.73Y-105.24
X151.27Y-90.0
X151.27Y-105.24
X153.81Y-90.0
X153.81Y-105.24
X156.35Y-90.0
X156.35Y-105.24
X158.89Y-90.0
X158.89Y-105.24
X161.43Y-90.0
X161.43Y-105.24
X163.97Y-90.0
X163.97Y-105.24
X166.51Y-90.0
X166.51Y-105.24
X169.05Y-90.0
X169.05Y-105.24
X171.59Y-90.0
X171.59Y-105.24
X174.13Y-90.0
X174.13Y-105.24
X176.67Y-90.0
X176.67Y-105.24
T7
X106.825Y-89.77
X106.825Y-105.52
T8
X101.0Y-85.1
X101.0Y-110.2
X193.0Y-85.1
X193.0Y-110.2
T9
X193.323Y-93.333
X193.323Y-101.207
T0
M30
