G75*
%MOIN*%
%OFA0B0*%
%FSLAX24Y24*%
%IPPOS*%
%LPD*%
%AMOC8*
5,1,8,0,0,1.08239X$1,22.5*
%
%ADD10R,0.0787X0.0394*%
%ADD11R,0.0630X0.0709*%
%ADD12R,0.0709X0.0630*%
%ADD13R,0.0472X0.0551*%
%ADD14R,0.0866X0.0335*%
%ADD15R,0.0413X0.0394*%
%ADD16R,0.0480X0.0880*%
%ADD17R,0.1417X0.0866*%
D10*
X014467Y009543D03*
X014467Y010133D03*
X014467Y010724D03*
X014467Y011314D03*
X014467Y011905D03*
X014467Y012495D03*
X014467Y013086D03*
X014467Y013676D03*
X014467Y014267D03*
X014467Y014857D03*
X020373Y014857D03*
X020373Y014267D03*
X020373Y013676D03*
X020373Y013086D03*
X020373Y012495D03*
X020373Y011905D03*
X020373Y011314D03*
X020373Y010724D03*
X020373Y010133D03*
X020373Y009543D03*
D11*
X012129Y009130D03*
X013231Y009130D03*
X013161Y010450D03*
X012059Y010450D03*
X015549Y008280D03*
X016651Y008280D03*
X011831Y014980D03*
X010729Y014980D03*
X009531Y014980D03*
X008429Y014980D03*
X014139Y016600D03*
X015241Y016600D03*
D12*
X012990Y015701D03*
X012990Y014599D03*
X012920Y013311D03*
X012920Y012209D03*
D13*
X017739Y008280D03*
X018921Y008280D03*
D14*
X021110Y007291D03*
X021110Y006209D03*
D15*
X020510Y006750D03*
X021710Y006750D03*
D16*
X010790Y013500D03*
X009880Y013500D03*
X008970Y013500D03*
D17*
X009880Y011060D03*
M02*
