G75*
%MOIN*%
%OFA0B0*%
%FSLAX24Y24*%
%IPPOS*%
%LPD*%
%AMOC8*
5,1,8,0,0,1.08239X$1,22.5*
%
%ADD10C,0.0000*%
%ADD11R,0.0787X0.0394*%
%ADD12R,0.0630X0.0709*%
%ADD13R,0.0709X0.0630*%
%ADD14R,0.0472X0.0551*%
%ADD15OC8,0.0740*%
%ADD16R,0.0866X0.0335*%
%ADD17R,0.0413X0.0394*%
%ADD18C,0.0740*%
%ADD19R,0.0480X0.0880*%
%ADD20R,0.1417X0.0866*%
%ADD21C,0.0160*%
%ADD22C,0.0320*%
%ADD23C,0.0396*%
%ADD24C,0.0240*%
%ADD25C,0.0100*%
%ADD26C,0.0400*%
%ADD27C,0.0500*%
D10*
X004380Y004980D02*
X004380Y017976D01*
X025540Y017976D01*
X025540Y004980D01*
X004380Y004980D01*
X017026Y012535D02*
X017028Y012583D01*
X017034Y012631D01*
X017044Y012678D01*
X017057Y012724D01*
X017075Y012769D01*
X017095Y012813D01*
X017120Y012855D01*
X017148Y012894D01*
X017178Y012931D01*
X017212Y012965D01*
X017249Y012997D01*
X017287Y013026D01*
X017328Y013051D01*
X017371Y013073D01*
X017416Y013091D01*
X017462Y013105D01*
X017509Y013116D01*
X017557Y013123D01*
X017605Y013126D01*
X017653Y013125D01*
X017701Y013120D01*
X017749Y013111D01*
X017795Y013099D01*
X017840Y013082D01*
X017884Y013062D01*
X017926Y013039D01*
X017966Y013012D01*
X018004Y012982D01*
X018039Y012949D01*
X018071Y012913D01*
X018101Y012875D01*
X018127Y012834D01*
X018149Y012791D01*
X018169Y012747D01*
X018184Y012702D01*
X018196Y012655D01*
X018204Y012607D01*
X018208Y012559D01*
X018208Y012511D01*
X018204Y012463D01*
X018196Y012415D01*
X018184Y012368D01*
X018169Y012323D01*
X018149Y012279D01*
X018127Y012236D01*
X018101Y012195D01*
X018071Y012157D01*
X018039Y012121D01*
X018004Y012088D01*
X017966Y012058D01*
X017926Y012031D01*
X017884Y012008D01*
X017840Y011988D01*
X017795Y011971D01*
X017749Y011959D01*
X017701Y011950D01*
X017653Y011945D01*
X017605Y011944D01*
X017557Y011947D01*
X017509Y011954D01*
X017462Y011965D01*
X017416Y011979D01*
X017371Y011997D01*
X017328Y012019D01*
X017287Y012044D01*
X017249Y012073D01*
X017212Y012105D01*
X017178Y012139D01*
X017148Y012176D01*
X017120Y012215D01*
X017095Y012257D01*
X017075Y012301D01*
X017057Y012346D01*
X017044Y012392D01*
X017034Y012439D01*
X017028Y012487D01*
X017026Y012535D01*
D11*
X014467Y012495D03*
X014467Y011905D03*
X014467Y011314D03*
X014467Y010724D03*
X014467Y010133D03*
X014467Y009543D03*
X014467Y013086D03*
X014467Y013676D03*
X014467Y014267D03*
X014467Y014857D03*
X020373Y014857D03*
X020373Y014267D03*
X020373Y013676D03*
X020373Y013086D03*
X020373Y012495D03*
X020373Y011905D03*
X020373Y011314D03*
X020373Y010724D03*
X020373Y010133D03*
X020373Y009543D03*
D12*
X016651Y008280D03*
X015549Y008280D03*
X013231Y009130D03*
X012129Y009130D03*
X012059Y010450D03*
X013161Y010450D03*
X011831Y014980D03*
X010729Y014980D03*
X009531Y014980D03*
X008429Y014980D03*
X014139Y016600D03*
X015241Y016600D03*
D13*
X012990Y015701D03*
X012990Y014599D03*
X012920Y013311D03*
X012920Y012209D03*
D14*
X017739Y008280D03*
X018921Y008280D03*
D15*
X022880Y008000D03*
X023880Y008000D03*
X023880Y007000D03*
X022880Y007000D03*
X022880Y009000D03*
X023880Y009000D03*
X023880Y010000D03*
X022880Y010000D03*
X022880Y011000D03*
X023880Y011000D03*
X023880Y012000D03*
X022880Y012000D03*
X022880Y013000D03*
X023880Y013000D03*
X023880Y014000D03*
X022880Y014000D03*
X022880Y015000D03*
X023880Y015000D03*
X023880Y016000D03*
X022880Y016000D03*
X006880Y015980D03*
X005880Y015980D03*
X005880Y014980D03*
X006880Y014980D03*
X006880Y013980D03*
X005880Y013980D03*
X005880Y012980D03*
X006880Y012980D03*
X006880Y011980D03*
X005880Y011980D03*
X005880Y010980D03*
X006880Y010980D03*
X006880Y009980D03*
X005880Y009980D03*
X005880Y008980D03*
X006880Y008980D03*
X006880Y007980D03*
X005880Y007980D03*
X005880Y006980D03*
X006880Y006980D03*
D16*
X021110Y007291D03*
X021110Y006209D03*
D17*
X020510Y006750D03*
X021710Y006750D03*
D18*
X011280Y016780D03*
X010280Y016780D03*
D19*
X009880Y013500D03*
X008970Y013500D03*
X010790Y013500D03*
D20*
X009880Y011060D03*
D21*
X010729Y011003D02*
X013958Y011003D01*
X013974Y011019D02*
X013934Y010978D01*
X013934Y010469D01*
X013962Y010440D01*
X013688Y010440D01*
X013616Y010512D01*
X013616Y010862D01*
X013534Y010944D01*
X012788Y010944D01*
X012706Y010862D01*
X012706Y010038D01*
X012788Y009956D01*
X013442Y009956D01*
X013528Y009920D01*
X013934Y009920D01*
X013934Y009878D01*
X013972Y009840D01*
X013528Y009840D01*
X013433Y009800D01*
X013257Y009624D01*
X012858Y009624D01*
X012776Y009542D01*
X012776Y008718D01*
X012858Y008636D01*
X013604Y008636D01*
X013686Y008718D01*
X013686Y009318D01*
X013688Y009320D01*
X013934Y009320D01*
X013934Y009288D01*
X014016Y009206D01*
X014919Y009206D01*
X015001Y009288D01*
X015001Y009797D01*
X014961Y009838D01*
X015001Y009878D01*
X015001Y010388D01*
X014965Y010424D01*
X015358Y010424D01*
X015388Y010393D01*
X015513Y010342D01*
X015647Y010342D01*
X015772Y010393D01*
X015860Y010482D01*
X015860Y009971D01*
X015458Y009569D01*
X015329Y009440D01*
X015329Y008774D01*
X015176Y008774D01*
X015094Y008692D01*
X015094Y007868D01*
X015176Y007786D01*
X015922Y007786D01*
X016004Y007868D01*
X016004Y008692D01*
X015922Y008774D01*
X015769Y008774D01*
X015769Y009258D01*
X016300Y009789D01*
X016300Y012071D01*
X016171Y012200D01*
X015671Y012700D01*
X015001Y012700D01*
X015001Y012750D01*
X014961Y012791D01*
X015001Y012831D01*
X015001Y013341D01*
X014965Y013376D01*
X015329Y013376D01*
X015413Y013342D01*
X015547Y013342D01*
X015672Y013393D01*
X015767Y013488D01*
X015818Y013613D01*
X015818Y013747D01*
X015767Y013872D01*
X015672Y013967D01*
X015639Y013980D01*
X015672Y013993D01*
X015767Y014088D01*
X015818Y014213D01*
X015818Y014347D01*
X015767Y014472D01*
X015672Y014567D01*
X015547Y014618D01*
X015413Y014618D01*
X015288Y014567D01*
X015193Y014472D01*
X015187Y014457D01*
X015001Y014457D01*
X015001Y014522D01*
X014989Y014534D01*
X015005Y014550D01*
X015029Y014591D01*
X015041Y014637D01*
X015041Y014839D01*
X014486Y014839D01*
X014486Y014876D01*
X015041Y014876D01*
X015041Y015078D01*
X015029Y015124D01*
X015005Y015165D01*
X014971Y015198D01*
X014930Y015222D01*
X014885Y015234D01*
X014486Y015234D01*
X014486Y014876D01*
X014449Y014876D01*
X014449Y015234D01*
X014050Y015234D01*
X014004Y015222D01*
X013963Y015198D01*
X013930Y015165D01*
X013906Y015124D01*
X012286Y015124D01*
X012286Y014966D02*
X012463Y014966D01*
X012468Y014983D02*
X012456Y014937D01*
X012456Y014676D01*
X012913Y014676D01*
X012913Y015094D01*
X012612Y015094D01*
X012566Y015082D01*
X012525Y015058D01*
X012492Y015024D01*
X012468Y014983D01*
X012456Y014807D02*
X012286Y014807D01*
X012286Y014649D02*
X012913Y014649D01*
X012913Y014676D02*
X012913Y014521D01*
X013067Y014521D01*
X013067Y014104D01*
X013368Y014104D01*
X013414Y014116D01*
X013455Y014140D01*
X013488Y014173D01*
X013934Y014173D01*
X013934Y014015D02*
X011785Y014015D01*
X011944Y014173D02*
X012492Y014173D01*
X012525Y014140D01*
X012566Y014116D01*
X012612Y014104D01*
X012913Y014104D01*
X012913Y014521D01*
X012456Y014521D01*
X012456Y014260D01*
X012468Y014214D01*
X012492Y014173D01*
X012456Y014332D02*
X012102Y014332D01*
X012119Y014349D02*
X012171Y014474D01*
X012171Y014486D01*
X012204Y014486D01*
X012286Y014568D01*
X012286Y015392D01*
X012204Y015474D01*
X012171Y015474D01*
X012171Y015496D01*
X012119Y015621D01*
X011868Y015873D01*
X011773Y015968D01*
X011648Y016020D01*
X010621Y016020D01*
X010620Y016021D01*
X010620Y016399D01*
X010712Y016491D01*
X010780Y016654D01*
X010848Y016491D01*
X010991Y016348D01*
X011179Y016270D01*
X011381Y016270D01*
X011454Y016300D01*
X012156Y016300D01*
X012496Y015960D01*
X012496Y015328D01*
X012578Y015246D01*
X013402Y015246D01*
X013484Y015328D01*
X013484Y016074D01*
X013402Y016156D01*
X013148Y016156D01*
X013004Y016300D01*
X013684Y016300D01*
X013684Y016188D01*
X013766Y016106D01*
X014512Y016106D01*
X014594Y016188D01*
X014594Y017012D01*
X014512Y017094D01*
X013766Y017094D01*
X013684Y017012D01*
X013684Y016900D01*
X011782Y016900D01*
X011712Y017069D01*
X011569Y017212D01*
X011381Y017290D01*
X011179Y017290D01*
X010991Y017212D01*
X010848Y017069D01*
X010780Y016906D01*
X010712Y017069D01*
X010569Y017212D01*
X010381Y017290D01*
X010179Y017290D01*
X009991Y017212D01*
X009848Y017069D01*
X009770Y016881D01*
X009770Y016679D01*
X009848Y016491D01*
X009940Y016399D01*
X009940Y015812D01*
X009992Y015687D01*
X010087Y015592D01*
X010192Y015487D01*
X010280Y015399D01*
X010274Y015392D01*
X010274Y014893D01*
X010130Y014749D01*
X009986Y014893D01*
X009986Y015392D01*
X009904Y015474D01*
X009158Y015474D01*
X009076Y015392D01*
X009076Y014568D01*
X009158Y014486D01*
X009658Y014486D01*
X009758Y014386D01*
X009742Y014347D01*
X009742Y014310D01*
X009660Y014227D01*
X009620Y014132D01*
X009620Y014080D01*
X009582Y014080D01*
X009500Y013998D01*
X009500Y013002D01*
X009582Y012920D01*
X009620Y012920D01*
X009620Y012498D01*
X009593Y012472D01*
X009542Y012347D01*
X009542Y012213D01*
X009593Y012088D01*
X009688Y011993D01*
X009813Y011942D01*
X009947Y011942D01*
X010072Y011993D01*
X010167Y012088D01*
X010218Y012213D01*
X010218Y012347D01*
X010167Y012472D01*
X010140Y012498D01*
X010140Y012920D01*
X010178Y012920D01*
X010260Y013002D01*
X010260Y013989D01*
X010272Y013993D01*
X010367Y014088D01*
X010418Y014213D01*
X010418Y014302D01*
X010602Y014486D01*
X011102Y014486D01*
X011184Y014568D01*
X011184Y015340D01*
X011376Y015340D01*
X011376Y014568D01*
X011377Y014567D01*
X010889Y014080D01*
X010492Y014080D01*
X010410Y013998D01*
X010410Y013002D01*
X010492Y012920D01*
X011088Y012920D01*
X011170Y013002D01*
X011170Y013399D01*
X012119Y014349D01*
X012208Y014490D02*
X012456Y014490D01*
X012913Y014490D02*
X013067Y014490D01*
X013067Y014521D02*
X013067Y014676D01*
X012913Y014676D01*
X012913Y014807D02*
X013067Y014807D01*
X013067Y014676D02*
X013067Y015094D01*
X013368Y015094D01*
X013414Y015082D01*
X013455Y015058D01*
X013488Y015024D01*
X013512Y014983D01*
X013524Y014937D01*
X013524Y014676D01*
X013067Y014676D01*
X013067Y014649D02*
X013894Y014649D01*
X013894Y014637D02*
X013894Y014839D01*
X014449Y014839D01*
X014449Y014876D01*
X013894Y014876D01*
X013894Y015078D01*
X013906Y015124D01*
X013894Y014966D02*
X013517Y014966D01*
X013524Y014807D02*
X013894Y014807D01*
X013894Y014637D02*
X013906Y014591D01*
X013930Y014550D01*
X013946Y014534D01*
X013934Y014522D01*
X013934Y014012D01*
X013969Y013976D01*
X013226Y013976D01*
X013115Y013931D01*
X013031Y013846D01*
X012951Y013766D01*
X012508Y013766D01*
X012426Y013684D01*
X012426Y012938D01*
X012508Y012856D01*
X013332Y012856D01*
X013380Y012904D01*
X013380Y012616D01*
X013332Y012664D01*
X012508Y012664D01*
X012426Y012582D01*
X012426Y011836D01*
X012508Y011754D01*
X012580Y011754D01*
X012580Y011539D01*
X012542Y011447D01*
X012542Y011313D01*
X012593Y011188D01*
X012688Y011093D01*
X012813Y011042D01*
X012947Y011042D01*
X013072Y011093D01*
X013167Y011188D01*
X013218Y011313D01*
X013218Y011447D01*
X013180Y011539D01*
X013180Y011754D01*
X013332Y011754D01*
X013414Y011836D01*
X013414Y011880D01*
X013640Y011880D01*
X013750Y011926D01*
X013834Y012010D01*
X013934Y012109D01*
X013934Y011650D01*
X013974Y011609D01*
X013934Y011569D01*
X013934Y011059D01*
X013974Y011019D01*
X013934Y011162D02*
X013140Y011162D01*
X013218Y011320D02*
X013934Y011320D01*
X013934Y011479D02*
X013205Y011479D01*
X013180Y011637D02*
X013946Y011637D01*
X013934Y011796D02*
X013374Y011796D01*
X013778Y011954D02*
X013934Y011954D01*
X014467Y012495D02*
X014483Y012480D01*
X015580Y012480D01*
X016080Y011980D01*
X016080Y009880D01*
X015549Y009349D01*
X015549Y008280D01*
X015094Y008309D02*
X007273Y008309D01*
X007390Y008191D02*
X007101Y008480D01*
X007390Y008769D01*
X007390Y009191D01*
X007101Y009480D01*
X007390Y009769D01*
X007390Y010191D01*
X007101Y010480D01*
X007390Y010769D01*
X007390Y011191D01*
X007101Y011480D01*
X007390Y011769D01*
X007390Y012191D01*
X007291Y012290D01*
X007601Y012290D01*
X007690Y012201D01*
X007690Y010601D01*
X008801Y009490D01*
X011500Y009490D01*
X011674Y009316D01*
X011674Y008718D01*
X011756Y008636D01*
X012502Y008636D01*
X012584Y008718D01*
X012584Y009542D01*
X012502Y009624D01*
X011903Y009624D01*
X011769Y009759D01*
X011748Y009779D01*
X011924Y009956D01*
X012432Y009956D01*
X012514Y010038D01*
X012514Y010862D01*
X012432Y010944D01*
X011686Y010944D01*
X011604Y010862D01*
X011604Y010173D01*
X011501Y010070D01*
X009059Y010070D01*
X008270Y010859D01*
X008270Y012759D01*
X008159Y012870D01*
X007359Y013670D01*
X007291Y013670D01*
X007390Y013769D01*
X007390Y014191D01*
X007101Y014480D01*
X007390Y014769D01*
X007390Y015191D01*
X007101Y015480D01*
X007211Y015590D01*
X007267Y015590D01*
X007974Y014883D01*
X007974Y014568D01*
X008039Y014503D01*
X008039Y013964D01*
X008098Y013820D01*
X008208Y013711D01*
X008590Y013328D01*
X008590Y013002D01*
X008672Y012920D01*
X009268Y012920D01*
X009350Y013002D01*
X009350Y013398D01*
X009360Y013422D01*
X009360Y013578D01*
X009350Y013602D01*
X009350Y013998D01*
X009268Y014080D01*
X008942Y014080D01*
X008819Y014203D01*
X008819Y014503D01*
X008884Y014568D01*
X008884Y015392D01*
X008802Y015474D01*
X008486Y015474D01*
X007759Y016201D01*
X007650Y016311D01*
X007506Y016370D01*
X007211Y016370D01*
X007091Y016490D01*
X006669Y016490D01*
X006408Y016230D01*
X006108Y016530D01*
X005900Y016530D01*
X005900Y016000D01*
X005860Y016000D01*
X005860Y016530D01*
X005652Y016530D01*
X005330Y016208D01*
X005330Y016000D01*
X005860Y016000D01*
X005860Y015960D01*
X005330Y015960D01*
X005330Y015752D01*
X005630Y015452D01*
X005370Y015191D01*
X005370Y014769D01*
X005659Y014480D01*
X005370Y014191D01*
X005370Y013769D01*
X005659Y013480D01*
X005370Y013191D01*
X005370Y012769D01*
X005659Y012480D01*
X005370Y012191D01*
X005370Y011769D01*
X005659Y011480D01*
X005370Y011191D01*
X005370Y010769D01*
X005659Y010480D01*
X005370Y010191D01*
X005370Y009769D01*
X005659Y009480D01*
X005370Y009191D01*
X005370Y008769D01*
X005659Y008480D01*
X005370Y008191D01*
X005370Y007769D01*
X005659Y007480D01*
X005370Y007191D01*
X005370Y006769D01*
X005669Y006470D01*
X006091Y006470D01*
X006380Y006759D01*
X006669Y006470D01*
X007091Y006470D01*
X007390Y006769D01*
X007390Y007191D01*
X007101Y007480D01*
X007390Y007769D01*
X007390Y008191D01*
X007390Y008150D02*
X015094Y008150D01*
X015094Y007992D02*
X007390Y007992D01*
X007390Y007833D02*
X015129Y007833D01*
X015094Y008467D02*
X007114Y008467D01*
X007247Y008626D02*
X015094Y008626D01*
X015329Y008784D02*
X013686Y008784D01*
X013686Y008943D02*
X015329Y008943D01*
X015329Y009101D02*
X013686Y009101D01*
X013686Y009260D02*
X013962Y009260D01*
X013367Y009735D02*
X011793Y009735D01*
X011862Y009894D02*
X013934Y009894D01*
X013934Y010528D02*
X013616Y010528D01*
X013616Y010686D02*
X013934Y010686D01*
X013934Y010845D02*
X013616Y010845D01*
X012706Y010845D02*
X012514Y010845D01*
X012514Y010686D02*
X012706Y010686D01*
X012706Y010528D02*
X012514Y010528D01*
X012514Y010369D02*
X012706Y010369D01*
X012706Y010211D02*
X012514Y010211D01*
X012514Y010052D02*
X012706Y010052D01*
X012810Y009577D02*
X012550Y009577D01*
X012584Y009418D02*
X012776Y009418D01*
X012776Y009260D02*
X012584Y009260D01*
X012584Y009101D02*
X012776Y009101D01*
X012776Y008943D02*
X012584Y008943D01*
X012584Y008784D02*
X012776Y008784D01*
X011674Y008784D02*
X007390Y008784D01*
X007390Y008943D02*
X011674Y008943D01*
X011674Y009101D02*
X007390Y009101D01*
X007322Y009260D02*
X011674Y009260D01*
X011572Y009418D02*
X007163Y009418D01*
X007198Y009577D02*
X008715Y009577D01*
X008556Y009735D02*
X007356Y009735D01*
X007390Y009894D02*
X008398Y009894D01*
X008239Y010052D02*
X007390Y010052D01*
X007371Y010211D02*
X008081Y010211D01*
X007922Y010369D02*
X007212Y010369D01*
X007149Y010528D02*
X007764Y010528D01*
X007690Y010686D02*
X007307Y010686D01*
X007390Y010845D02*
X007690Y010845D01*
X007690Y011003D02*
X007390Y011003D01*
X007390Y011162D02*
X007690Y011162D01*
X007690Y011320D02*
X007261Y011320D01*
X007103Y011479D02*
X007690Y011479D01*
X007690Y011637D02*
X007258Y011637D01*
X007390Y011796D02*
X007690Y011796D01*
X007690Y011954D02*
X007390Y011954D01*
X007390Y012113D02*
X007690Y012113D01*
X007620Y012271D02*
X007310Y012271D01*
X008124Y012905D02*
X009620Y012905D01*
X009620Y012747D02*
X008270Y012747D01*
X008270Y012588D02*
X009620Y012588D01*
X009576Y012430D02*
X008270Y012430D01*
X008270Y012271D02*
X009542Y012271D01*
X009583Y012113D02*
X008270Y012113D01*
X008270Y011954D02*
X009783Y011954D01*
X009977Y011954D02*
X012426Y011954D01*
X012426Y012113D02*
X010177Y012113D01*
X010218Y012271D02*
X012426Y012271D01*
X012426Y012430D02*
X010184Y012430D01*
X010140Y012588D02*
X012432Y012588D01*
X012459Y012905D02*
X010140Y012905D01*
X010140Y012747D02*
X013380Y012747D01*
X012426Y013064D02*
X011170Y013064D01*
X011170Y013222D02*
X012426Y013222D01*
X012426Y013381D02*
X011170Y013381D01*
X011310Y013539D02*
X012426Y013539D01*
X012439Y013698D02*
X011468Y013698D01*
X011627Y013856D02*
X013041Y013856D01*
X013031Y013846D02*
X013031Y013846D01*
X013067Y014173D02*
X012913Y014173D01*
X012913Y014332D02*
X013067Y014332D01*
X013067Y014521D02*
X013524Y014521D01*
X013524Y014260D01*
X013512Y014214D01*
X013488Y014173D01*
X013524Y014332D02*
X013934Y014332D01*
X013934Y014490D02*
X013524Y014490D01*
X013067Y014966D02*
X012913Y014966D01*
X012541Y015283D02*
X012286Y015283D01*
X012237Y015441D02*
X012496Y015441D01*
X012496Y015600D02*
X012128Y015600D01*
X011983Y015758D02*
X012496Y015758D01*
X012496Y015917D02*
X011824Y015917D01*
X012222Y016234D02*
X010620Y016234D01*
X010620Y016392D02*
X010947Y016392D01*
X010823Y016551D02*
X010737Y016551D01*
X010730Y017026D02*
X010830Y017026D01*
X010963Y017185D02*
X010597Y017185D01*
X009963Y017185D02*
X004860Y017185D01*
X004860Y017343D02*
X025060Y017343D01*
X025060Y017496D02*
X004860Y017496D01*
X004860Y005460D01*
X025060Y005460D01*
X025060Y017496D01*
X025060Y017185D02*
X011597Y017185D01*
X011730Y017026D02*
X013698Y017026D01*
X014580Y017026D02*
X014760Y017026D01*
X014758Y017024D02*
X014746Y016978D01*
X014746Y016677D01*
X015164Y016677D01*
X015164Y016523D01*
X014746Y016523D01*
X014746Y016222D01*
X014758Y016176D01*
X014782Y016135D01*
X014816Y016102D01*
X014857Y016078D01*
X014903Y016066D01*
X015164Y016066D01*
X015164Y016523D01*
X015319Y016523D01*
X015319Y016677D01*
X015736Y016677D01*
X015736Y016978D01*
X015724Y017024D01*
X015700Y017065D01*
X015667Y017098D01*
X015626Y017122D01*
X015580Y017134D01*
X015319Y017134D01*
X015319Y016677D01*
X015164Y016677D01*
X015164Y017134D01*
X014903Y017134D01*
X014857Y017122D01*
X014816Y017098D01*
X014782Y017065D01*
X014758Y017024D01*
X014746Y016868D02*
X014594Y016868D01*
X014594Y016709D02*
X014746Y016709D01*
X014594Y016551D02*
X015164Y016551D01*
X015319Y016551D02*
X025060Y016551D01*
X025060Y016709D02*
X015736Y016709D01*
X015736Y016868D02*
X025060Y016868D01*
X025060Y017026D02*
X015723Y017026D01*
X015319Y017026D02*
X015164Y017026D01*
X015164Y016868D02*
X015319Y016868D01*
X015319Y016709D02*
X015164Y016709D01*
X015319Y016523D02*
X015736Y016523D01*
X015736Y016222D01*
X015724Y016176D01*
X015700Y016135D01*
X015667Y016102D01*
X015626Y016078D01*
X015580Y016066D01*
X015319Y016066D01*
X015319Y016523D01*
X015319Y016392D02*
X015164Y016392D01*
X015164Y016234D02*
X015319Y016234D01*
X015319Y016075D02*
X015164Y016075D01*
X014868Y016075D02*
X013483Y016075D01*
X013484Y015917D02*
X022370Y015917D01*
X022370Y015789D02*
X022659Y015500D01*
X022370Y015211D01*
X022370Y014789D01*
X022659Y014500D01*
X022370Y014211D01*
X022370Y013789D01*
X022659Y013500D01*
X022370Y013211D01*
X022370Y012789D01*
X022659Y012500D01*
X022370Y012211D01*
X022370Y011789D01*
X022659Y011500D01*
X022370Y011211D01*
X022370Y010789D01*
X022659Y010500D01*
X022370Y010211D01*
X022370Y009789D01*
X022659Y009500D01*
X022370Y009211D01*
X022370Y008789D01*
X022659Y008500D01*
X022370Y008211D01*
X022370Y007789D01*
X022659Y007500D01*
X022370Y007211D01*
X022370Y006789D01*
X022669Y006490D01*
X023091Y006490D01*
X023380Y006779D01*
X023669Y006490D01*
X024091Y006490D01*
X024390Y006789D01*
X024390Y007211D01*
X024101Y007500D01*
X024390Y007789D01*
X024390Y008211D01*
X024101Y008500D01*
X024390Y008789D01*
X024390Y009211D01*
X024101Y009500D01*
X024390Y009789D01*
X024390Y010211D01*
X024101Y010500D01*
X024390Y010789D01*
X024390Y011211D01*
X024101Y011500D01*
X024390Y011789D01*
X024390Y012211D01*
X024101Y012500D01*
X024390Y012789D01*
X024390Y013211D01*
X024101Y013500D01*
X024390Y013789D01*
X024390Y014211D01*
X024101Y014500D01*
X024390Y014789D01*
X024390Y015211D01*
X024101Y015500D01*
X024390Y015789D01*
X024390Y016211D01*
X024091Y016510D01*
X023669Y016510D01*
X023380Y016221D01*
X023091Y016510D01*
X022669Y016510D01*
X022370Y016211D01*
X022370Y015789D01*
X022401Y015758D02*
X013484Y015758D01*
X013484Y015600D02*
X022559Y015600D01*
X022600Y015441D02*
X013484Y015441D01*
X013439Y015283D02*
X022441Y015283D01*
X022370Y015124D02*
X020895Y015124D01*
X020906Y015112D02*
X020824Y015194D01*
X019921Y015194D01*
X019839Y015112D01*
X019839Y014603D01*
X019862Y014580D01*
X019539Y014580D01*
X019447Y014618D01*
X019313Y014618D01*
X019188Y014567D01*
X019093Y014472D01*
X019042Y014347D01*
X019042Y014213D01*
X019093Y014088D01*
X019188Y013993D01*
X019313Y013942D01*
X019447Y013942D01*
X019539Y013980D01*
X019871Y013980D01*
X019879Y013972D01*
X019839Y013931D01*
X019839Y013422D01*
X019879Y013381D01*
X018285Y013381D01*
X018274Y013391D02*
X018030Y013532D01*
X017758Y013605D01*
X017476Y013605D01*
X017204Y013532D01*
X016960Y013391D01*
X016760Y013192D01*
X016619Y012948D01*
X016546Y012676D01*
X016546Y012394D01*
X016619Y012121D01*
X016760Y011877D01*
X016960Y011678D01*
X017204Y011537D01*
X017476Y011464D01*
X017758Y011464D01*
X018030Y011537D01*
X018274Y011678D01*
X018474Y011877D01*
X018614Y012121D01*
X018687Y012394D01*
X018687Y012676D01*
X018614Y012948D01*
X018474Y013192D01*
X018274Y013391D01*
X018443Y013222D02*
X019839Y013222D01*
X019839Y013341D02*
X019839Y012831D01*
X019879Y012791D01*
X019839Y012750D01*
X019839Y012240D01*
X019879Y012200D01*
X019839Y012160D01*
X019839Y011650D01*
X019879Y011609D01*
X019839Y011569D01*
X019839Y011059D01*
X019879Y011019D01*
X019839Y010978D01*
X019839Y010469D01*
X019879Y010428D01*
X019839Y010388D01*
X019839Y010380D01*
X019439Y010380D01*
X019347Y010418D01*
X019213Y010418D01*
X019088Y010367D01*
X018993Y010272D01*
X018942Y010147D01*
X018942Y010013D01*
X018993Y009888D01*
X019060Y009822D01*
X019060Y008731D01*
X019025Y008696D01*
X018626Y008696D01*
X018544Y008614D01*
X018544Y007946D01*
X018626Y007864D01*
X019215Y007864D01*
X019297Y007946D01*
X019297Y008345D01*
X019371Y008419D01*
X019500Y008548D01*
X019500Y009780D01*
X019839Y009780D01*
X019839Y009433D01*
X019826Y009420D01*
X019780Y009309D01*
X019780Y007120D01*
X019826Y007010D01*
X020163Y006673D01*
X020163Y006495D01*
X020245Y006413D01*
X020537Y006413D01*
X020537Y005983D01*
X020619Y005901D01*
X021601Y005901D01*
X021683Y005983D01*
X021683Y006413D01*
X021975Y006413D01*
X022057Y006495D01*
X022057Y007005D01*
X021975Y007087D01*
X021683Y007087D01*
X021683Y007517D01*
X021601Y007599D01*
X021380Y007599D01*
X021380Y007821D01*
X021418Y007913D01*
X021418Y008047D01*
X021367Y008172D01*
X021272Y008267D01*
X021147Y008318D01*
X021013Y008318D01*
X020888Y008267D01*
X020793Y008172D01*
X020742Y008047D01*
X020742Y007913D01*
X020780Y007821D01*
X020780Y007599D01*
X020619Y007599D01*
X020537Y007517D01*
X020537Y007147D01*
X020380Y007304D01*
X020380Y009125D01*
X020460Y009206D01*
X020824Y009206D01*
X020906Y009288D01*
X020906Y009797D01*
X020866Y009838D01*
X020906Y009878D01*
X020906Y010388D01*
X020866Y010428D01*
X020906Y010469D01*
X020906Y010978D01*
X020866Y011019D01*
X020906Y011059D01*
X020906Y011569D01*
X020866Y011609D01*
X020906Y011650D01*
X020906Y012160D01*
X020866Y012200D01*
X020906Y012240D01*
X020906Y012750D01*
X020866Y012791D01*
X020906Y012831D01*
X020906Y013341D01*
X020866Y013381D01*
X020906Y013422D01*
X020906Y013931D01*
X020866Y013972D01*
X020906Y014012D01*
X020906Y014522D01*
X020866Y014562D01*
X020906Y014603D01*
X020906Y015112D01*
X020906Y014966D02*
X022370Y014966D01*
X022370Y014807D02*
X020906Y014807D01*
X020906Y014649D02*
X022510Y014649D01*
X022649Y014490D02*
X020906Y014490D01*
X020906Y014332D02*
X022490Y014332D01*
X022370Y014173D02*
X020906Y014173D01*
X020906Y014015D02*
X022370Y014015D01*
X022370Y013856D02*
X020906Y013856D01*
X020906Y013698D02*
X022461Y013698D01*
X022620Y013539D02*
X020906Y013539D01*
X020867Y013381D02*
X022539Y013381D01*
X022381Y013222D02*
X020906Y013222D01*
X020906Y013064D02*
X022370Y013064D01*
X022370Y012905D02*
X020906Y012905D01*
X020906Y012747D02*
X022412Y012747D01*
X022571Y012588D02*
X020906Y012588D01*
X020906Y012430D02*
X022588Y012430D01*
X022430Y012271D02*
X020906Y012271D01*
X020906Y012113D02*
X022370Y012113D01*
X022370Y011954D02*
X020906Y011954D01*
X020906Y011796D02*
X022370Y011796D01*
X022522Y011637D02*
X020894Y011637D01*
X020906Y011479D02*
X022637Y011479D01*
X022479Y011320D02*
X020906Y011320D01*
X020906Y011162D02*
X022370Y011162D01*
X022370Y011003D02*
X020882Y011003D01*
X020906Y010845D02*
X022370Y010845D01*
X022473Y010686D02*
X020906Y010686D01*
X020906Y010528D02*
X022631Y010528D01*
X022528Y010369D02*
X020906Y010369D01*
X020906Y010211D02*
X022370Y010211D01*
X022370Y010052D02*
X020906Y010052D01*
X020906Y009894D02*
X022370Y009894D01*
X022424Y009735D02*
X020906Y009735D01*
X020906Y009577D02*
X022582Y009577D01*
X022577Y009418D02*
X020906Y009418D01*
X020878Y009260D02*
X022418Y009260D01*
X022370Y009101D02*
X020380Y009101D01*
X020380Y008943D02*
X022370Y008943D01*
X022375Y008784D02*
X020380Y008784D01*
X020380Y008626D02*
X022533Y008626D01*
X022626Y008467D02*
X020380Y008467D01*
X020380Y008309D02*
X020990Y008309D01*
X021170Y008309D02*
X022467Y008309D01*
X022370Y008150D02*
X021376Y008150D01*
X021418Y007992D02*
X022370Y007992D01*
X022370Y007833D02*
X021385Y007833D01*
X021380Y007675D02*
X022484Y007675D01*
X022643Y007516D02*
X021683Y007516D01*
X021683Y007358D02*
X022516Y007358D01*
X022370Y007199D02*
X021683Y007199D01*
X022021Y007041D02*
X022370Y007041D01*
X022370Y006882D02*
X022057Y006882D01*
X022057Y006724D02*
X022435Y006724D01*
X022594Y006565D02*
X022057Y006565D01*
X021683Y006407D02*
X025060Y006407D01*
X025060Y006565D02*
X024166Y006565D01*
X024325Y006724D02*
X025060Y006724D01*
X025060Y006882D02*
X024390Y006882D01*
X024390Y007041D02*
X025060Y007041D01*
X025060Y007199D02*
X024390Y007199D01*
X024244Y007358D02*
X025060Y007358D01*
X025060Y007516D02*
X024117Y007516D01*
X024276Y007675D02*
X025060Y007675D01*
X025060Y007833D02*
X024390Y007833D01*
X024390Y007992D02*
X025060Y007992D01*
X025060Y008150D02*
X024390Y008150D01*
X024293Y008309D02*
X025060Y008309D01*
X025060Y008467D02*
X024134Y008467D01*
X024227Y008626D02*
X025060Y008626D01*
X025060Y008784D02*
X024385Y008784D01*
X024390Y008943D02*
X025060Y008943D01*
X025060Y009101D02*
X024390Y009101D01*
X024342Y009260D02*
X025060Y009260D01*
X025060Y009418D02*
X024183Y009418D01*
X024178Y009577D02*
X025060Y009577D01*
X025060Y009735D02*
X024336Y009735D01*
X024390Y009894D02*
X025060Y009894D01*
X025060Y010052D02*
X024390Y010052D01*
X024390Y010211D02*
X025060Y010211D01*
X025060Y010369D02*
X024232Y010369D01*
X024129Y010528D02*
X025060Y010528D01*
X025060Y010686D02*
X024287Y010686D01*
X024390Y010845D02*
X025060Y010845D01*
X025060Y011003D02*
X024390Y011003D01*
X024390Y011162D02*
X025060Y011162D01*
X025060Y011320D02*
X024281Y011320D01*
X024123Y011479D02*
X025060Y011479D01*
X025060Y011637D02*
X024238Y011637D01*
X024390Y011796D02*
X025060Y011796D01*
X025060Y011954D02*
X024390Y011954D01*
X024390Y012113D02*
X025060Y012113D01*
X025060Y012271D02*
X024330Y012271D01*
X024172Y012430D02*
X025060Y012430D01*
X025060Y012588D02*
X024189Y012588D01*
X024348Y012747D02*
X025060Y012747D01*
X025060Y012905D02*
X024390Y012905D01*
X024390Y013064D02*
X025060Y013064D01*
X025060Y013222D02*
X024379Y013222D01*
X024221Y013381D02*
X025060Y013381D01*
X025060Y013539D02*
X024140Y013539D01*
X024299Y013698D02*
X025060Y013698D01*
X025060Y013856D02*
X024390Y013856D01*
X024390Y014015D02*
X025060Y014015D01*
X025060Y014173D02*
X024390Y014173D01*
X024270Y014332D02*
X025060Y014332D01*
X025060Y014490D02*
X024111Y014490D01*
X024250Y014649D02*
X025060Y014649D01*
X025060Y014807D02*
X024390Y014807D01*
X024390Y014966D02*
X025060Y014966D01*
X025060Y015124D02*
X024390Y015124D01*
X024319Y015283D02*
X025060Y015283D01*
X025060Y015441D02*
X024160Y015441D01*
X024201Y015600D02*
X025060Y015600D01*
X025060Y015758D02*
X024359Y015758D01*
X024390Y015917D02*
X025060Y015917D01*
X025060Y016075D02*
X024390Y016075D01*
X024368Y016234D02*
X025060Y016234D01*
X025060Y016392D02*
X024209Y016392D01*
X023551Y016392D02*
X023209Y016392D01*
X023368Y016234D02*
X023392Y016234D01*
X022551Y016392D02*
X015736Y016392D01*
X015736Y016234D02*
X022392Y016234D01*
X022370Y016075D02*
X015615Y016075D01*
X014746Y016234D02*
X014594Y016234D01*
X014594Y016392D02*
X014746Y016392D01*
X013684Y016234D02*
X013071Y016234D01*
X012381Y016075D02*
X010620Y016075D01*
X009940Y016075D02*
X007885Y016075D01*
X007727Y016234D02*
X009940Y016234D01*
X009940Y016392D02*
X007189Y016392D01*
X006571Y016392D02*
X006246Y016392D01*
X006404Y016234D02*
X006412Y016234D01*
X005900Y016234D02*
X005860Y016234D01*
X005860Y016392D02*
X005900Y016392D01*
X005900Y016075D02*
X005860Y016075D01*
X005514Y016392D02*
X004860Y016392D01*
X004860Y016234D02*
X005356Y016234D01*
X005330Y016075D02*
X004860Y016075D01*
X004860Y015917D02*
X005330Y015917D01*
X005330Y015758D02*
X004860Y015758D01*
X004860Y015600D02*
X005483Y015600D01*
X005620Y015441D02*
X004860Y015441D01*
X004860Y015283D02*
X005461Y015283D01*
X005370Y015124D02*
X004860Y015124D01*
X004860Y014966D02*
X005370Y014966D01*
X005370Y014807D02*
X004860Y014807D01*
X004860Y014649D02*
X005490Y014649D01*
X005649Y014490D02*
X004860Y014490D01*
X004860Y014332D02*
X005510Y014332D01*
X005370Y014173D02*
X004860Y014173D01*
X004860Y014015D02*
X005370Y014015D01*
X005370Y013856D02*
X004860Y013856D01*
X004860Y013698D02*
X005441Y013698D01*
X005600Y013539D02*
X004860Y013539D01*
X004860Y013381D02*
X005559Y013381D01*
X005401Y013222D02*
X004860Y013222D01*
X004860Y013064D02*
X005370Y013064D01*
X005370Y012905D02*
X004860Y012905D01*
X004860Y012747D02*
X005392Y012747D01*
X005551Y012588D02*
X004860Y012588D01*
X004860Y012430D02*
X005608Y012430D01*
X005450Y012271D02*
X004860Y012271D01*
X004860Y012113D02*
X005370Y012113D01*
X005370Y011954D02*
X004860Y011954D01*
X004860Y011796D02*
X005370Y011796D01*
X005502Y011637D02*
X004860Y011637D01*
X004860Y011479D02*
X005657Y011479D01*
X005499Y011320D02*
X004860Y011320D01*
X004860Y011162D02*
X005370Y011162D01*
X005370Y011003D02*
X004860Y011003D01*
X004860Y010845D02*
X005370Y010845D01*
X005453Y010686D02*
X004860Y010686D01*
X004860Y010528D02*
X005611Y010528D01*
X005548Y010369D02*
X004860Y010369D01*
X004860Y010211D02*
X005389Y010211D01*
X005370Y010052D02*
X004860Y010052D01*
X004860Y009894D02*
X005370Y009894D01*
X005404Y009735D02*
X004860Y009735D01*
X004860Y009577D02*
X005562Y009577D01*
X005597Y009418D02*
X004860Y009418D01*
X004860Y009260D02*
X005438Y009260D01*
X005370Y009101D02*
X004860Y009101D01*
X004860Y008943D02*
X005370Y008943D01*
X005370Y008784D02*
X004860Y008784D01*
X004860Y008626D02*
X005513Y008626D01*
X005646Y008467D02*
X004860Y008467D01*
X004860Y008309D02*
X005487Y008309D01*
X005370Y008150D02*
X004860Y008150D01*
X004860Y007992D02*
X005370Y007992D01*
X005370Y007833D02*
X004860Y007833D01*
X004860Y007675D02*
X005464Y007675D01*
X005623Y007516D02*
X004860Y007516D01*
X004860Y007358D02*
X005536Y007358D01*
X005378Y007199D02*
X004860Y007199D01*
X004860Y007041D02*
X005370Y007041D01*
X005370Y006882D02*
X004860Y006882D01*
X004860Y006724D02*
X005415Y006724D01*
X005574Y006565D02*
X004860Y006565D01*
X004860Y006407D02*
X020537Y006407D01*
X020537Y006248D02*
X004860Y006248D01*
X004860Y006090D02*
X020537Y006090D01*
X020589Y005931D02*
X004860Y005931D01*
X004860Y005773D02*
X025060Y005773D01*
X025060Y005931D02*
X021631Y005931D01*
X021683Y006090D02*
X025060Y006090D01*
X025060Y006248D02*
X021683Y006248D01*
X020537Y007199D02*
X020485Y007199D01*
X020537Y007358D02*
X020380Y007358D01*
X020380Y007516D02*
X020537Y007516D01*
X020380Y007675D02*
X020780Y007675D01*
X020775Y007833D02*
X020380Y007833D01*
X020380Y007992D02*
X020742Y007992D01*
X020784Y008150D02*
X020380Y008150D01*
X019780Y008150D02*
X019297Y008150D01*
X019297Y007992D02*
X019780Y007992D01*
X019780Y007833D02*
X017071Y007833D01*
X017106Y007868D02*
X017024Y007786D01*
X016278Y007786D01*
X016196Y007868D01*
X016196Y008692D01*
X016278Y008774D01*
X017024Y008774D01*
X017106Y008692D01*
X017106Y008500D01*
X017363Y008500D01*
X017363Y008614D01*
X017445Y008696D01*
X018034Y008696D01*
X018116Y008614D01*
X018116Y007946D01*
X018034Y007864D01*
X017445Y007864D01*
X017363Y007946D01*
X017363Y008060D01*
X017106Y008060D01*
X017106Y007868D01*
X017106Y007992D02*
X017363Y007992D01*
X017739Y008280D02*
X016651Y008280D01*
X016196Y008309D02*
X016004Y008309D01*
X016004Y008467D02*
X016196Y008467D01*
X016196Y008626D02*
X016004Y008626D01*
X015769Y008784D02*
X019060Y008784D01*
X019060Y008943D02*
X015769Y008943D01*
X015769Y009101D02*
X019060Y009101D01*
X019060Y009260D02*
X015771Y009260D01*
X015929Y009418D02*
X019060Y009418D01*
X019060Y009577D02*
X016088Y009577D01*
X016246Y009735D02*
X019060Y009735D01*
X018991Y009894D02*
X016300Y009894D01*
X016300Y010052D02*
X018942Y010052D01*
X018968Y010211D02*
X016300Y010211D01*
X016300Y010369D02*
X019094Y010369D01*
X019280Y010080D02*
X019280Y008639D01*
X018921Y008280D01*
X019297Y008309D02*
X019780Y008309D01*
X019780Y008467D02*
X019419Y008467D01*
X019500Y008626D02*
X019780Y008626D01*
X019780Y008784D02*
X019500Y008784D01*
X019500Y008943D02*
X019780Y008943D01*
X019780Y009101D02*
X019500Y009101D01*
X019500Y009260D02*
X019780Y009260D01*
X019825Y009418D02*
X019500Y009418D01*
X019500Y009577D02*
X019839Y009577D01*
X019839Y009735D02*
X019500Y009735D01*
X019839Y010528D02*
X016300Y010528D01*
X016300Y010686D02*
X019839Y010686D01*
X019839Y010845D02*
X016300Y010845D01*
X016300Y011003D02*
X019864Y011003D01*
X019839Y011162D02*
X016300Y011162D01*
X016300Y011320D02*
X019839Y011320D01*
X019839Y011479D02*
X017812Y011479D01*
X017422Y011479D02*
X016300Y011479D01*
X016300Y011637D02*
X017030Y011637D01*
X016842Y011796D02*
X016300Y011796D01*
X016300Y011954D02*
X016716Y011954D01*
X016624Y012113D02*
X016259Y012113D01*
X016100Y012271D02*
X016579Y012271D01*
X016546Y012430D02*
X015942Y012430D01*
X015783Y012588D02*
X016546Y012588D01*
X016565Y012747D02*
X015001Y012747D01*
X015001Y012905D02*
X016077Y012905D01*
X016088Y012893D02*
X016213Y012842D01*
X016347Y012842D01*
X016472Y012893D01*
X016567Y012988D01*
X016618Y013113D01*
X016618Y013247D01*
X016567Y013372D01*
X016472Y013467D01*
X016347Y013518D01*
X016213Y013518D01*
X016088Y013467D01*
X015993Y013372D01*
X015942Y013247D01*
X015942Y013113D01*
X015993Y012988D01*
X016088Y012893D01*
X015962Y013064D02*
X015001Y013064D01*
X015001Y013222D02*
X015942Y013222D01*
X016002Y013381D02*
X015640Y013381D01*
X015788Y013539D02*
X017229Y013539D01*
X016949Y013381D02*
X016558Y013381D01*
X016618Y013222D02*
X016790Y013222D01*
X016686Y013064D02*
X016598Y013064D01*
X016608Y012905D02*
X016483Y012905D01*
X015818Y013698D02*
X019839Y013698D01*
X019839Y013856D02*
X015773Y013856D01*
X015693Y014015D02*
X019167Y014015D01*
X019058Y014173D02*
X015802Y014173D01*
X015818Y014332D02*
X019042Y014332D01*
X019112Y014490D02*
X015748Y014490D01*
X015212Y014490D02*
X015001Y014490D01*
X015041Y014649D02*
X019839Y014649D01*
X019839Y014807D02*
X015041Y014807D01*
X015041Y014966D02*
X019839Y014966D01*
X019851Y015124D02*
X015029Y015124D01*
X014486Y015124D02*
X014449Y015124D01*
X014449Y014966D02*
X014486Y014966D01*
X011376Y014966D02*
X011184Y014966D01*
X011184Y015124D02*
X011376Y015124D01*
X011376Y015283D02*
X011184Y015283D01*
X011184Y014807D02*
X011376Y014807D01*
X011376Y014649D02*
X011184Y014649D01*
X011106Y014490D02*
X011299Y014490D01*
X011141Y014332D02*
X010448Y014332D01*
X010402Y014173D02*
X010982Y014173D01*
X010427Y014015D02*
X010293Y014015D01*
X010260Y013856D02*
X010410Y013856D01*
X010410Y013698D02*
X010260Y013698D01*
X010260Y013539D02*
X010410Y013539D01*
X010410Y013381D02*
X010260Y013381D01*
X010260Y013222D02*
X010410Y013222D01*
X010410Y013064D02*
X010260Y013064D01*
X009500Y013064D02*
X009350Y013064D01*
X009350Y013222D02*
X009500Y013222D01*
X009500Y013381D02*
X009350Y013381D01*
X009360Y013539D02*
X009500Y013539D01*
X009500Y013698D02*
X009350Y013698D01*
X009350Y013856D02*
X009500Y013856D01*
X009517Y014015D02*
X009333Y014015D01*
X009637Y014173D02*
X008849Y014173D01*
X008819Y014332D02*
X009742Y014332D01*
X010072Y014807D02*
X010188Y014807D01*
X010274Y014966D02*
X009986Y014966D01*
X009986Y015124D02*
X010274Y015124D01*
X010274Y015283D02*
X009986Y015283D01*
X009937Y015441D02*
X010238Y015441D01*
X010080Y015600D02*
X008361Y015600D01*
X008202Y015758D02*
X009963Y015758D01*
X009940Y015917D02*
X008044Y015917D01*
X007416Y015441D02*
X007140Y015441D01*
X007299Y015283D02*
X007575Y015283D01*
X007733Y015124D02*
X007390Y015124D01*
X007390Y014966D02*
X007892Y014966D01*
X007974Y014807D02*
X007390Y014807D01*
X007270Y014649D02*
X007974Y014649D01*
X008039Y014490D02*
X007111Y014490D01*
X007250Y014332D02*
X008039Y014332D01*
X008039Y014173D02*
X007390Y014173D01*
X007390Y014015D02*
X008039Y014015D01*
X008083Y013856D02*
X007390Y013856D01*
X007319Y013698D02*
X008221Y013698D01*
X008379Y013539D02*
X007490Y013539D01*
X007648Y013381D02*
X008538Y013381D01*
X008590Y013222D02*
X007807Y013222D01*
X007965Y013064D02*
X008590Y013064D01*
X008270Y011796D02*
X012466Y011796D01*
X012580Y011637D02*
X008270Y011637D01*
X008270Y011479D02*
X009031Y011479D01*
X009031Y011551D02*
X009113Y011633D01*
X010647Y011633D01*
X010729Y011551D01*
X010729Y010569D01*
X010647Y010487D01*
X009113Y010487D01*
X009031Y010569D01*
X009031Y011551D01*
X009031Y011320D02*
X008270Y011320D01*
X008270Y011162D02*
X009031Y011162D01*
X009031Y011003D02*
X008270Y011003D01*
X008284Y010845D02*
X009031Y010845D01*
X009031Y010686D02*
X008443Y010686D01*
X008601Y010528D02*
X009073Y010528D01*
X008760Y010369D02*
X011604Y010369D01*
X011604Y010211D02*
X008918Y010211D01*
X010687Y010528D02*
X011604Y010528D01*
X011604Y010686D02*
X010729Y010686D01*
X010729Y010845D02*
X011604Y010845D01*
X010729Y011162D02*
X012620Y011162D01*
X012542Y011320D02*
X010729Y011320D01*
X010729Y011479D02*
X012555Y011479D01*
X015001Y010369D02*
X015447Y010369D01*
X015713Y010369D02*
X015860Y010369D01*
X015860Y010211D02*
X015001Y010211D01*
X015001Y010052D02*
X015860Y010052D01*
X015782Y009894D02*
X015001Y009894D01*
X015001Y009735D02*
X015624Y009735D01*
X015465Y009577D02*
X015001Y009577D01*
X015001Y009418D02*
X015329Y009418D01*
X015329Y009260D02*
X014973Y009260D01*
X016004Y008150D02*
X016196Y008150D01*
X016196Y007992D02*
X016004Y007992D01*
X015969Y007833D02*
X016231Y007833D01*
X017106Y008626D02*
X017375Y008626D01*
X018104Y008626D02*
X018556Y008626D01*
X018544Y008467D02*
X018116Y008467D01*
X018116Y008309D02*
X018544Y008309D01*
X018544Y008150D02*
X018116Y008150D01*
X018116Y007992D02*
X018544Y007992D01*
X019780Y007675D02*
X007296Y007675D01*
X007137Y007516D02*
X019780Y007516D01*
X019780Y007358D02*
X007224Y007358D01*
X007382Y007199D02*
X019780Y007199D01*
X019813Y007041D02*
X007390Y007041D01*
X007390Y006882D02*
X019954Y006882D01*
X020112Y006724D02*
X007345Y006724D01*
X007186Y006565D02*
X020163Y006565D01*
X023166Y006565D02*
X023594Y006565D01*
X023435Y006724D02*
X023325Y006724D01*
X025060Y005614D02*
X004860Y005614D01*
X006186Y006565D02*
X006574Y006565D01*
X006415Y006724D02*
X006345Y006724D01*
X008819Y014490D02*
X009154Y014490D01*
X009076Y014649D02*
X008884Y014649D01*
X008884Y014807D02*
X009076Y014807D01*
X009076Y014966D02*
X008884Y014966D01*
X008884Y015124D02*
X009076Y015124D01*
X009076Y015283D02*
X008884Y015283D01*
X008835Y015441D02*
X009125Y015441D01*
X009823Y016551D02*
X004860Y016551D01*
X004860Y016709D02*
X009770Y016709D01*
X009770Y016868D02*
X004860Y016868D01*
X004860Y017026D02*
X009830Y017026D01*
X018005Y013539D02*
X019839Y013539D01*
X019879Y013381D02*
X019839Y013341D01*
X019839Y013064D02*
X018548Y013064D01*
X018626Y012905D02*
X019839Y012905D01*
X019839Y012747D02*
X018668Y012747D01*
X018687Y012588D02*
X019839Y012588D01*
X019839Y012430D02*
X018687Y012430D01*
X018655Y012271D02*
X019839Y012271D01*
X019839Y012113D02*
X018609Y012113D01*
X018518Y011954D02*
X019839Y011954D01*
X019839Y011796D02*
X018392Y011796D01*
X018203Y011637D02*
X019852Y011637D01*
D22*
X020373Y010133D02*
X020320Y010080D01*
X019280Y010080D01*
X020080Y009250D02*
X020080Y007180D01*
X020510Y006750D01*
X020510Y006750D01*
X021080Y007321D02*
X021080Y007980D01*
X021080Y007321D02*
X021110Y007291D01*
X021110Y006209D01*
X020080Y009250D02*
X020373Y009543D01*
X015580Y010680D02*
X015536Y010724D01*
X014467Y010724D01*
X012880Y011380D02*
X012880Y012169D01*
X012920Y012209D01*
X012949Y012180D01*
X013580Y012180D01*
X013680Y012280D01*
X013680Y012880D01*
X013886Y013086D01*
X014467Y013086D01*
X014467Y013676D02*
X015476Y013676D01*
X015480Y013680D01*
X014467Y013676D02*
X013285Y013676D01*
X012920Y013311D01*
X012990Y015701D02*
X012990Y015890D01*
X012280Y016600D01*
X011460Y016600D01*
X011280Y016780D01*
X012280Y016600D02*
X014139Y016600D01*
X019380Y014280D02*
X020360Y014280D01*
X020373Y014267D01*
D23*
X019380Y014280D03*
X016280Y013180D03*
X015480Y013680D03*
X015480Y014280D03*
X012880Y011380D03*
X015580Y010680D03*
X019280Y010080D03*
X021080Y007980D03*
X010080Y014280D03*
X009880Y012280D03*
D24*
X009880Y013500D01*
X009880Y014080D01*
X010080Y014280D01*
X010080Y014431D01*
X010180Y014431D01*
X010729Y014980D01*
X010080Y014431D02*
X009531Y014980D01*
X013161Y010450D02*
X013310Y010450D01*
X013580Y010180D01*
X014420Y010180D01*
X014467Y010133D01*
X014430Y009580D02*
X013580Y009580D01*
X013231Y009231D01*
X013231Y009130D01*
X014430Y009580D02*
X014467Y009543D01*
D25*
X012129Y009130D02*
X011579Y009680D01*
X008880Y009680D01*
X007880Y010680D01*
X007880Y012280D01*
X007680Y012480D01*
X006380Y012480D01*
X005880Y012980D01*
X006380Y013480D02*
X007280Y013480D01*
X008080Y012680D01*
X008080Y010780D01*
X008980Y009880D01*
X011580Y009880D01*
X012059Y010359D01*
X012059Y010450D01*
X014467Y014267D02*
X015467Y014267D01*
X015480Y014280D01*
X006380Y013480D02*
X005880Y013980D01*
D26*
X010280Y015880D02*
X010280Y016780D01*
X010280Y015880D02*
X010480Y015680D01*
X011580Y015680D01*
X011831Y015429D01*
X011831Y014980D01*
X011831Y014541D01*
X010790Y013500D01*
D27*
X008970Y013500D02*
X008429Y014041D01*
X008429Y014980D01*
X007429Y015980D01*
X006880Y015980D01*
M02*
