G75*
%MOIN*%
%OFA0B0*%
%FSLAX24Y24*%
%IPPOS*%
%LPD*%
%AMOC8*
5,1,8,0,0,1.08239X$1,22.5*
%
%ADD10C,0.0080*%
D10*
X013370Y005870D02*
X013370Y008870D01*
X014570Y010070D01*
X016970Y010070D01*
X018170Y008870D01*
X018170Y005870D01*
X018149Y005822D01*
X018125Y005776D01*
X018098Y005732D01*
X018067Y005690D01*
X018033Y005650D01*
X017997Y005613D01*
X017958Y005579D01*
X017916Y005548D01*
X017872Y005520D01*
X017826Y005495D01*
X017779Y005474D01*
X017730Y005456D01*
X017680Y005443D01*
X017628Y005432D01*
X017577Y005426D01*
X017525Y005424D01*
X017473Y005426D01*
X017421Y005431D01*
X017370Y005440D01*
X017319Y005454D01*
X017270Y005470D01*
X017205Y005532D01*
X017137Y005592D01*
X017067Y005648D01*
X016995Y005702D01*
X016920Y005752D01*
X016843Y005799D01*
X016765Y005843D01*
X016684Y005884D01*
X016602Y005921D01*
X016519Y005954D01*
X016434Y005984D01*
X016348Y006011D01*
X016261Y006033D01*
X016173Y006052D01*
X016084Y006068D01*
X015995Y006079D01*
X015905Y006087D01*
X015815Y006091D01*
X015725Y006091D01*
X015635Y006087D01*
X015545Y006079D01*
X015456Y006068D01*
X015367Y006052D01*
X015279Y006033D01*
X015192Y006011D01*
X015106Y005984D01*
X015021Y005954D01*
X014938Y005921D01*
X014856Y005884D01*
X014775Y005843D01*
X014697Y005799D01*
X014620Y005752D01*
X014545Y005702D01*
X014473Y005648D01*
X014403Y005592D01*
X014335Y005532D01*
X014270Y005470D01*
X014221Y005454D01*
X014170Y005440D01*
X014119Y005431D01*
X014067Y005426D01*
X014015Y005424D01*
X013963Y005426D01*
X013912Y005432D01*
X013860Y005443D01*
X013810Y005456D01*
X013761Y005474D01*
X013714Y005495D01*
X013668Y005520D01*
X013624Y005548D01*
X013582Y005579D01*
X013543Y005613D01*
X013507Y005650D01*
X013473Y005690D01*
X013442Y005732D01*
X013415Y005776D01*
X013391Y005822D01*
X013370Y005870D01*
M02*
