%
M48
M72
T01C0.0236
T02C0.0400
T03C0.1181
%
T01
X15580Y10680
X12880Y11380
X9880Y12280
X10080Y14280
X15480Y14280
X15480Y13680
X16280Y13180
X19380Y14280
X19280Y10080
X21080Y7980
T02
X5880Y6980
X6880Y6980
X6880Y7980
X5880Y7980
X5880Y8980
X6880Y8980
X6880Y9980
X5880Y9980
X5880Y10980
X6880Y10980
X6880Y11980
X5880Y11980
X5880Y12980
X6880Y12980
X6880Y13980
X5880Y13980
X5880Y14980
X6880Y14980
X6880Y15980
X5880Y15980
X10280Y16780
X11280Y16780
X22880Y16000
X23880Y16000
X23880Y15000
X22880Y15000
X22880Y14000
X23880Y14000
X23880Y13000
X22880Y13000
X22880Y12000
X23880Y12000
X23880Y11000
X22880Y11000
X22880Y10000
X23880Y10000
X23880Y9000
X22880Y9000
X22880Y8000
X23880Y8000
X23880Y7000
X22880Y7000
T03
X17617Y12535
M30
